<?xml version="1.0" encoding="UTF-8"?>
<!DOCTYPE svg PUBLIC "-//W3C//DTD SVG 1.1//EN" "http://www.w3.org/Graphics/SVG/1.1/DTD/svg11.dtd">
<svg xmlns="http://www.w3.org/2000/svg" version="1.1" width="250px" height="250px" style="shape-rendering:geometricPrecision; text-rendering:geometricPrecision; image-rendering:optimizeQuality; fill-rule:evenodd; clip-rule:evenodd" xmlns:xlink="http://www.w3.org/1999/xlink">
<g><path style="opacity:0.658" fill="#c3c3cf" d="M 76.5,-0.5 C 109.167,-0.5 141.833,-0.5 174.5,-0.5C 175.968,1.61093 175.635,3.44426 173.5,5C 146.833,5.33333 120.167,5.66667 93.5,6C 88.5138,7.32557 84.6804,10.1589 82,14.5C 81.2483,17.8936 81.4149,21.227 82.5,24.5C 84.8333,26.1667 86.8333,28.1667 88.5,30.5C 90.6666,31.7919 92.9999,32.6253 95.5,33C 131.5,33.3333 167.5,33.6667 203.5,34C 209.897,35.1297 215.397,37.9631 220,42.5C 225.5,54.6799 222.333,63.5132 210.5,69C 183.84,70.1399 157.173,70.9732 130.5,71.5C 129.447,72.4383 128.78,73.605 128.5,75C 129.667,78.5 130.833,82 132,85.5C 136.213,88.9901 138.546,93.3235 139,98.5C 138.275,99.0585 137.442,99.3918 136.5,99.5C 133.594,98.1026 131.094,96.1026 129,93.5C 127.24,89.6415 125.24,85.9748 123,82.5C 119.979,74.728 121.812,68.5613 128.5,64C 152.135,62.7399 175.802,62.0732 199.5,62C 209.218,56.965 209.884,50.7984 201.5,43.5C 199.615,42.3906 197.615,41.5573 195.5,41C 162.458,40.1741 129.458,40.3408 96.5,41.5C 90.551,40.7082 84.551,40.2082 78.5,40C 75.6612,38.0797 72.6612,36.4131 69.5,35C 60.1667,24.6667 60.1667,14.3333 69.5,4C 72.2387,2.97406 74.572,1.47406 76.5,-0.5 Z M 78.5,31.5 C 69.6756,27.1924 67.509,20.5257 72,11.5C 73.9552,10.5467 75.6218,9.21337 77,7.5C 75.7799,11.1623 74.6132,14.9956 73.5,19C 73.9212,21.1846 74.4212,23.3513 75,25.5C 76.4424,27.3911 77.6091,29.3911 78.5,31.5 Z M 214.5,49.5 C 212.775,49.1575 212.275,48.1575 213,46.5C 214.039,47.2438 214.539,48.2438 214.5,49.5 Z M 214.5,49.5 C 215.693,49.9704 216.36,50.9704 216.5,52.5C 215.99,55.3343 214.656,57.6677 212.5,59.5C 214.017,56.4127 214.684,53.0794 214.5,49.5 Z"/></g>
<g><path style="opacity:0.749" fill="#391e1d" d="M 161.5,249.5 C 120.5,249.5 79.5,249.5 38.5,249.5C 37.5208,237.247 37.1874,224.913 37.5,212.5C 22.6234,211.629 11.6234,204.629 4.5,191.5C 2.82872,186.024 1.16205,180.691 -0.5,175.5C -0.5,173.5 -0.5,171.5 -0.5,169.5C 0.117425,169.389 0.617425,169.056 1,168.5C 1.36766,163.696 2.36766,159.03 4,154.5C 6.42202,150.656 9.08868,146.99 12,143.5C 17.9027,138.547 24.5693,134.88 32,132.5C 32.4341,125.488 32.9341,118.488 33.5,111.5C 66.1667,111.5 98.8333,111.5 131.5,111.5C 131.549,108.901 132.549,106.734 134.5,105C 157.833,104.333 181.167,104.333 204.5,105C 206.229,106.789 206.896,108.956 206.5,111.5C 216.595,110.874 226.428,111.541 236,113.5C 240.843,145.84 235.509,176.173 220,204.5C 205.198,225.646 185.698,240.646 161.5,249.5 Z M 32.5,155.5 C 33.6744,161.516 35.1744,167.516 37,173.5C 37.8306,179.859 37.6639,186.193 36.5,192.5C 23.7154,187.531 19.0488,178.364 22.5,165C 25.0502,160.948 28.3835,157.782 32.5,155.5 Z"/></g>
<g><path style="opacity:1" fill="#885234" d="M 138.5,111.5 C 159.167,111.5 179.833,111.5 200.5,111.5C 200.5,131.167 200.5,150.833 200.5,170.5C 196.941,170.592 193.608,169.759 190.5,168C 189.126,165.417 187.626,162.917 186,160.5C 183.937,147.742 182.104,135.076 180.5,122.5C 179.038,118.876 176.372,116.376 172.5,115C 166.036,113.348 160.536,114.848 156,119.5C 155.803,127.911 155.303,136.245 154.5,144.5C 152.143,144.663 149.81,144.497 147.5,144C 145.667,143.5 144.5,142.333 144,140.5C 140.266,131.192 138.432,121.526 138.5,111.5 Z"/></g>
<g><path style="opacity:1" fill="#6d402b" d="M 137.5,111.5 C 158.66,110.503 179.993,110.169 201.5,110.5C 201.83,130.674 201.497,150.674 200.5,170.5C 200.5,150.833 200.5,131.167 200.5,111.5C 179.833,111.5 159.167,111.5 138.5,111.5C 138.167,111.5 137.833,111.5 137.5,111.5 Z"/></g>
<g><path style="opacity:1" fill="#6a5148" d="M 38.5,116.5 C 54.1631,115.833 69.9964,115.5 86,115.5C 102.181,115.501 118.014,116.167 133.5,117.5C 133.167,117.5 132.833,117.5 132.5,117.5C 101.338,116.502 70.0044,116.168 38.5,116.5 Z"/></g>
<g><path style="opacity:1" fill="#b6987c" d="M 38.5,116.5 C 70.0044,116.168 101.338,116.502 132.5,117.5C 116.167,117.5 99.8333,117.5 83.5,117.5C 68.8182,117.167 54.1515,117.501 39.5,118.5C 38.5278,127.446 38.1944,136.446 38.5,145.5C 37.1667,135.833 37.1667,126.167 38.5,116.5 Z"/></g>
<g><path style="opacity:1" fill="#4e3532" d="M 205.5,116.5 C 205.5,135.5 205.5,154.5 205.5,173.5C 204.833,174.167 204.167,174.833 203.5,175.5C 204.105,155.682 204.772,136.015 205.5,116.5 Z"/></g>
<g><path style="opacity:1" fill="#c4b4a2" d="M 205.5,116.5 C 214.167,116.5 222.833,116.5 231.5,116.5C 231.829,129.677 231.495,142.677 230.5,155.5C 230.5,142.833 230.5,130.167 230.5,117.5C 222.5,117.5 214.5,117.5 206.5,117.5C 206.83,136.341 206.497,155.007 205.5,173.5C 205.5,154.5 205.5,135.5 205.5,116.5 Z"/></g>
<g><path style="opacity:1" fill="#fdf0d8" d="M 83.5,117.5 C 99.8333,117.5 116.167,117.5 132.5,117.5C 132.833,117.5 133.167,117.5 133.5,117.5C 133.334,127.172 133.5,136.839 134,146.5C 134.223,148.881 135.39,150.547 137.5,151.5C 139.508,153.927 142.174,154.927 145.5,154.5C 148.205,154.684 150.538,154.017 152.5,152.5C 155.305,151.259 157.471,149.259 159,146.5C 159.333,138.167 159.667,129.833 160,121.5C 165.478,117.66 170.978,117.66 176.5,121.5C 176.333,138.837 176.5,156.17 177,173.5C 177.383,174.056 177.883,174.389 178.5,174.5C 182.891,180.853 188.891,183.019 196.5,181C 199.595,180.065 201.929,178.231 203.5,175.5C 204.167,174.833 204.833,174.167 205.5,173.5C 206.497,155.007 206.83,136.341 206.5,117.5C 214.5,117.5 222.5,117.5 230.5,117.5C 230.5,130.167 230.5,142.833 230.5,155.5C 229.99,158.983 229.323,162.316 228.5,165.5C 227.262,169.329 226.262,173.329 225.5,177.5C 224.629,180.112 223.963,182.779 223.5,185.5C 221.755,187.033 220.755,189.033 220.5,191.5C 219.655,192.671 218.989,194.005 218.5,195.5C 217.094,195.973 216.427,196.973 216.5,198.5C 214.489,201.861 212.489,205.194 210.5,208.5C 208.413,209.585 207.08,211.251 206.5,213.5C 198.388,221.289 189.721,228.289 180.5,234.5C 177.843,234.935 175.509,235.935 173.5,237.5C 172.329,238.345 170.995,239.011 169.5,239.5C 166.053,240.083 163.053,241.416 160.5,243.5C 160.167,243.5 159.833,243.5 159.5,243.5C 151.14,243.831 142.807,243.498 134.5,242.5C 128.772,236.942 123.606,230.942 119,224.5C 118.832,206.995 118.332,189.662 117.5,172.5C 117.5,171.833 117.167,171.5 116.5,171.5C 108.016,170.507 99.3494,170.174 90.5,170.5C 89.9416,162.987 88.4416,155.654 86,148.5C 85.3714,138.093 84.5381,127.759 83.5,117.5 Z"/></g>
<g><path style="opacity:1" fill="#f6d09e" d="M 83.5,117.5 C 84.5381,127.759 85.3714,138.093 86,148.5C 88.4416,155.654 89.9416,162.987 90.5,170.5C 99.3494,170.174 108.016,170.507 116.5,171.5C 91.661,171.831 66.9944,171.498 42.5,170.5C 42.1184,166.554 41.1184,162.888 39.5,159.5C 38.7705,154.87 38.4372,150.203 38.5,145.5C 38.1944,136.446 38.5278,127.446 39.5,118.5C 54.1515,117.501 68.8182,117.167 83.5,117.5 Z"/></g>
<g><path style="opacity:1" fill="#856f66" d="M 176.5,121.5 C 177.193,139.039 177.859,156.705 178.5,174.5C 177.883,174.389 177.383,174.056 177,173.5C 176.5,156.17 176.333,138.837 176.5,121.5 Z"/></g>
<g><path style="opacity:1" fill="#6c3517" d="M 137.5,111.5 C 137.833,111.5 138.167,111.5 138.5,111.5C 138.432,121.526 140.266,131.192 144,140.5C 144.5,142.333 145.667,143.5 147.5,144C 149.81,144.497 152.143,144.663 154.5,144.5C 151.341,150.23 146.674,151.73 140.5,149C 139.667,148.167 138.833,147.333 138,146.5C 137.5,134.838 137.333,123.171 137.5,111.5 Z"/></g>
<g><path style="opacity:1" fill="#b18f6e" d="M 29.5,139.5 C 27.9674,141.245 25.9674,142.245 23.5,142.5C 25.0326,140.755 27.0326,139.755 29.5,139.5 Z"/></g>
<g><path style="opacity:1" fill="#efc999" d="M 18.5,161.5 C 17.0337,162.347 16.2004,163.68 16,165.5C 15.8333,167.667 15.6667,169.833 15.5,172C 15.3275,175.477 15.9942,178.644 17.5,181.5C 20.1348,188.466 24.8014,193.466 31.5,196.5C 33.5145,197.924 35.8478,198.59 38.5,198.5C 38.5,201.167 38.5,203.833 38.5,206.5C 35.1401,206.384 31.8067,206.051 28.5,205.5C 17.6758,201.342 10.6758,193.675 7.5,182.5C 6.7081,176.87 6.37477,171.203 6.5,165.5C 7.87096,163.064 8.87096,160.397 9.5,157.5C 12.1057,150.561 16.7724,145.561 23.5,142.5C 25.9674,142.245 27.9674,141.245 29.5,139.5C 31.0418,138.699 32.7085,138.366 34.5,138.5C 34.5,142.167 34.5,145.833 34.5,149.5C 27.186,150.809 21.8526,154.809 18.5,161.5 Z"/></g>
<g><path style="opacity:1" fill="#68504b" d="M 137.5,151.5 C 142.431,153.321 147.431,153.655 152.5,152.5C 150.538,154.017 148.205,154.684 145.5,154.5C 142.174,154.927 139.508,153.927 137.5,151.5 Z"/></g>
<g><path style="opacity:1" fill="#693417" d="M 180.5,122.5 C 182.104,135.076 183.937,147.742 186,160.5C 187.626,162.917 189.126,165.417 190.5,168C 193.608,169.759 196.941,170.592 200.5,170.5C 200.232,175.934 197.399,178.267 192,177.5C 186.875,178.105 183.208,176.105 181,171.5C 180.5,155.17 180.333,138.837 180.5,122.5 Z"/></g>
<g><path style="opacity:1" fill="#8a6a54" d="M 9.5,157.5 C 8.87096,160.397 7.87096,163.064 6.5,165.5C 6.3455,162.284 7.3455,159.617 9.5,157.5 Z"/></g>
<g><path style="opacity:1" fill="#b08e6e" d="M 39.5,159.5 C 41.1184,162.888 42.1184,166.554 42.5,170.5C 42.1667,170.5 41.8333,170.5 41.5,170.5C 40.5147,166.924 39.848,163.258 39.5,159.5 Z"/></g>
<g><path style="opacity:1" fill="#7c5d4b" d="M 18.5,161.5 C 16.2391,168.047 15.9058,174.713 17.5,181.5C 15.9942,178.644 15.3275,175.477 15.5,172C 15.6667,169.833 15.8333,167.667 16,165.5C 16.2004,163.68 17.0337,162.347 18.5,161.5 Z"/></g>
<g><path style="opacity:1" fill="#6d5045" d="M 41.5,170.5 C 41.8333,170.5 42.1667,170.5 42.5,170.5C 66.9944,171.498 91.661,171.831 116.5,171.5C 117.167,171.5 117.5,171.833 117.5,172.5C 91.8113,173.157 66.478,172.491 41.5,170.5 Z"/></g>
<g><path style="opacity:1" fill="#ad9b8d" d="M 228.5,165.5 C 228.436,169.22 227.936,172.886 227,176.5C 226.617,177.056 226.117,177.389 225.5,177.5C 226.262,173.329 227.262,169.329 228.5,165.5 Z"/></g>
<g><path style="opacity:1" fill="#96755d" d="M 6.5,165.5 C 6.37477,171.203 6.7081,176.87 7.5,182.5C 6.77842,182.082 6.27842,181.416 6,180.5C 5.18368,175.316 5.35034,170.316 6.5,165.5 Z"/></g>
<g><path style="opacity:1" fill="#77462f" d="M 43.5,175.5 C 66.8333,175.5 90.1667,175.5 113.5,175.5C 113.5,198.833 113.5,222.167 113.5,245.5C 90.1667,245.5 66.8333,245.5 43.5,245.5C 43.5,222.167 43.5,198.833 43.5,175.5 Z"/></g>
<g><path style="opacity:1" fill="#854f33" d="M 44.5,176.5 C 67.1667,176.5 89.8333,176.5 112.5,176.5C 112.5,199.167 112.5,221.833 112.5,244.5C 89.8333,244.5 67.1667,244.5 44.5,244.5C 44.5,221.833 44.5,199.167 44.5,176.5 Z"/></g>
<g><path style="opacity:1" fill="#6c3e2c" d="M 48.5,179.5 C 57.3178,178.507 66.3178,178.173 75.5,178.5C 75.8269,188.015 75.4936,197.348 74.5,206.5C 74.5,197.5 74.5,188.5 74.5,179.5C 65.8333,179.5 57.1667,179.5 48.5,179.5 Z"/></g>
<g><path style="opacity:1" fill="#381c1c" d="M 48.5,179.5 C 57.1667,179.5 65.8333,179.5 74.5,179.5C 74.5,188.5 74.5,197.5 74.5,206.5C 65.6822,207.493 56.6822,207.827 47.5,207.5C 47.1731,197.985 47.5064,188.652 48.5,179.5 Z"/></g>
<g><path style="opacity:1" fill="#4c2922" d="M 82.5,206.5 C 81.5067,197.682 81.1734,188.682 81.5,179.5C 90.8393,179.334 100.173,179.5 109.5,180C 110.822,188.803 110.822,197.637 109.5,206.5C 100.342,207.822 91.3418,207.822 82.5,206.5 Z"/></g>
<g><path style="opacity:1" fill="#351a1a" d="M 82.5,206.5 C 82.5,197.833 82.5,189.167 82.5,180.5C 91.1667,180.5 99.8333,180.5 108.5,180.5C 108.5,189.167 108.5,197.833 108.5,206.5C 99.8333,206.5 91.1667,206.5 82.5,206.5 Z"/></g>
<g><path style="opacity:1" fill="#4a2418" d="M 50.5,182.5 C 57.5,182.5 64.5,182.5 71.5,182.5C 71.5,189.5 71.5,196.5 71.5,203.5C 64.5,203.5 57.5,203.5 50.5,203.5C 50.5,196.5 50.5,189.5 50.5,182.5 Z"/></g>
<g><path style="opacity:1" fill="#6b3415" d="M 51.5,183.5 C 57.8333,183.5 64.1667,183.5 70.5,183.5C 70.5,189.833 70.5,196.167 70.5,202.5C 64.1667,202.5 57.8333,202.5 51.5,202.5C 51.5,196.167 51.5,189.833 51.5,183.5 Z"/></g>
<g><path style="opacity:1" fill="#7b645d" d="M 223.5,185.5 C 223.245,187.967 222.245,189.967 220.5,191.5C 220.755,189.033 221.755,187.033 223.5,185.5 Z"/></g>
<g><path style="opacity:1" fill="#9a867b" d="M 218.5,195.5 C 218.573,197.027 217.906,198.027 216.5,198.5C 216.427,196.973 217.094,195.973 218.5,195.5 Z"/></g>
<g><path style="opacity:1" fill="#a48366" d="M 31.5,196.5 C 34.1667,196.833 36.8333,197.167 39.5,197.5C 39.5,200.833 39.5,204.167 39.5,207.5C 35.5115,207.884 31.8448,207.217 28.5,205.5C 31.8067,206.051 35.1401,206.384 38.5,206.5C 38.5,203.833 38.5,201.167 38.5,198.5C 35.8478,198.59 33.5145,197.924 31.5,196.5 Z"/></g>
<g><path style="opacity:1" fill="#4e2617" d="M 86.5,183.5 C 86.5,189.833 86.5,196.167 86.5,202.5C 92.8333,202.5 99.1667,202.5 105.5,202.5C 105.5,196.167 105.5,189.833 105.5,183.5C 106.491,189.979 106.824,196.646 106.5,203.5C 99.5,203.5 92.5,203.5 85.5,203.5C 85.176,196.646 85.5093,189.979 86.5,183.5 Z"/></g>
<g><path style="opacity:1" fill="#6b3415" d="M 86.5,183.5 C 92.8333,183.5 99.1667,183.5 105.5,183.5C 105.5,189.833 105.5,196.167 105.5,202.5C 99.1667,202.5 92.8333,202.5 86.5,202.5C 86.5,196.167 86.5,189.833 86.5,183.5 Z"/></g>
<g><path style="opacity:1" fill="#6e5750" d="M 210.5,208.5 C 209.92,210.749 208.587,212.415 206.5,213.5C 207.08,211.251 208.413,209.585 210.5,208.5 Z"/></g>
<g><path style="opacity:1" fill="#391c1b" d="M 47.5,213.5 C 56.8333,213.5 66.1667,213.5 75.5,213.5C 75.5,222.5 75.5,231.5 75.5,240.5C 66.1667,240.5 56.8333,240.5 47.5,240.5C 47.5,231.5 47.5,222.5 47.5,213.5 Z"/></g>
<g><path style="opacity:1" fill="#391c1b" d="M 109.5,213.5 C 110.471,222.416 110.804,231.416 110.5,240.5C 101.167,240.5 91.8333,240.5 82.5,240.5C 82.3336,231.827 82.5002,223.16 83,214.5C 91.7489,213.516 100.582,213.183 109.5,213.5 Z"/></g>
<g><path style="opacity:1" fill="#683b2a" d="M 109.5,213.5 C 100.582,213.183 91.7489,213.516 83,214.5C 82.5002,223.16 82.3336,231.827 82.5,240.5C 81.3427,231.676 81.176,222.676 82,213.5C 91.2649,212.172 100.432,212.172 109.5,213.5 Z"/></g>
<g><path style="opacity:1" fill="#6b3415" d="M 71.5,236.5 C 65.1667,236.5 58.8333,236.5 52.5,236.5C 52.5,230.5 52.5,224.5 52.5,218.5C 58.6446,217.51 64.9779,217.177 71.5,217.5C 71.5,223.833 71.5,230.167 71.5,236.5 Z"/></g>
<g><path style="opacity:1" fill="#572a17" d="M 105.5,236.5 C 99.3471,237.653 93.0137,237.82 86.5,237C 85.5223,230.59 85.189,224.09 85.5,217.5C 92.5,217.5 99.5,217.5 106.5,217.5C 106.823,224.022 106.49,230.355 105.5,236.5 Z"/></g>
<g><path style="opacity:1" fill="#6c3415" d="M 105.5,236.5 C 99.5,236.5 93.5,236.5 87.5,236.5C 87.5,230.5 87.5,224.5 87.5,218.5C 93.5,218.5 99.5,218.5 105.5,218.5C 105.5,224.5 105.5,230.5 105.5,236.5 Z"/></g>
<g><path style="opacity:1" fill="#d5b48f" d="M 117.5,172.5 C 118.332,189.662 118.832,206.995 119,224.5C 123.606,230.942 128.772,236.942 134.5,242.5C 142.807,243.498 151.14,243.831 159.5,243.5C 145.765,244.83 131.931,244.83 118,243.5C 117.5,219.836 117.333,196.169 117.5,172.5 Z"/></g>
<g><path style="opacity:1" fill="#502618" d="M 52.5,218.5 C 52.5,224.5 52.5,230.5 52.5,236.5C 58.8333,236.5 65.1667,236.5 71.5,236.5C 65.021,237.491 58.3543,237.824 51.5,237.5C 51.1765,230.978 51.5098,224.645 52.5,218.5 Z"/></g>
<g><path style="opacity:1" fill="#644b46" d="M 180.5,234.5 C 178.824,236.834 176.491,237.834 173.5,237.5C 175.509,235.935 177.843,234.935 180.5,234.5 Z"/></g>
<g><path style="opacity:1" fill="#7f6860" d="M 169.5,239.5 C 166.947,241.584 163.947,242.917 160.5,243.5C 163.053,241.416 166.053,240.083 169.5,239.5 Z"/></g>
</svg>
