<?xml version="1.0" encoding="UTF-8"?>
<!DOCTYPE svg PUBLIC "-//W3C//DTD SVG 1.1//EN" "http://www.w3.org/Graphics/SVG/1.1/DTD/svg11.dtd">
<svg xmlns="http://www.w3.org/2000/svg" version="1.1" width="250px" height="250px" style="shape-rendering:geometricPrecision; text-rendering:geometricPrecision; image-rendering:optimizeQuality; fill-rule:evenodd; clip-rule:evenodd" xmlns:xlink="http://www.w3.org/1999/xlink">
<g><path style="opacity:0.924" fill="#e6504e" d="M 187.5,43.5 C 187.5,44.1667 187.5,44.8333 187.5,45.5C 176.483,33.9793 164.15,24.146 150.5,16C 144.953,13.8167 139.286,11.8167 133.5,10C 121.314,7.83268 110.648,10.8327 101.5,19C 81.3862,35.8601 71.3862,57.3601 71.5,83.5C 70.1667,86.8333 68.8333,90.1667 67.5,93.5C 65.9348,95.5093 64.9348,97.8427 64.5,100.5C 63.8902,101.391 63.5569,102.391 63.5,103.5C 61.6896,106.145 60.6896,109.145 60.5,112.5C 59.3428,115.273 58.6761,118.273 58.5,121.5C 57.0762,123.515 56.4095,125.848 56.5,128.5C 56.5,129.167 56.5,129.833 56.5,130.5C 55.3439,138.323 55.1772,146.323 56,154.5C 56.2321,155.737 56.7321,156.737 57.5,157.5C 58.8487,164.879 61.182,171.879 64.5,178.5C 63.5768,179.303 62.5768,179.47 61.5,179C 43.5787,158.463 34.912,134.463 35.5,107C 35.8811,97.349 37.2144,87.849 39.5,78.5C 39.1373,77.8165 38.8039,77.1499 38.5,76.5C 50.2624,48.4482 68.929,26.2815 94.5,10C 113.218,0.0335146 131.885,0.0335146 150.5,10C 165.122,18.8624 177.455,30.0291 187.5,43.5 Z"/></g>
<g><path style="opacity:1" fill="#e85c57" d="M 187.5,45.5 C 201.745,63.0243 210.912,83.0243 215,105.5C 215.87,117.572 215.37,129.572 213.5,141.5C 215.911,141.137 217.411,142.137 218,144.5C 219.33,151.345 217.164,156.845 211.5,161C 207.612,161.581 203.946,161.248 200.5,160C 198.295,162.54 195.795,164.707 193,166.5C 193,163.833 193,161.167 193,158.5C 192.478,161.281 191.311,163.615 189.5,165.5C 190.371,162.888 191.037,160.221 191.5,157.5C 192.268,156.737 192.768,155.737 193,154.5C 193.822,146.988 193.655,139.655 192.5,132.5C 192.5,131.167 192.5,129.833 192.5,128.5C 192.59,125.848 191.924,123.515 190.5,121.5C 190.324,118.273 189.657,115.273 188.5,112.5C 188.31,109.145 187.31,106.145 185.5,103.5C 185.443,102.391 185.11,101.391 184.5,100.5C 184.065,97.8427 183.065,95.5093 181.5,93.5C 174.205,74.3698 162.205,58.8698 145.5,47C 140.323,44.4418 134.99,42.6084 129.5,41.5C 127.696,40.838 125.696,40.5046 123.5,40.5C 120.186,40.3425 117.186,41.0092 114.5,42.5C 108.046,43.7269 102.38,46.5602 97.5,51C 87.0692,60.5785 78.4026,71.4119 71.5,83.5C 71.3862,57.3601 81.3862,35.8601 101.5,19C 110.648,10.8327 121.314,7.83268 133.5,10C 139.286,11.8167 144.953,13.8167 150.5,16C 164.15,24.146 176.483,33.9793 187.5,45.5 Z"/></g>
<g><path style="opacity:1" fill="#f8c9c6" d="M 129.5,41.5 C 124.463,41.4126 119.463,41.746 114.5,42.5C 117.186,41.0092 120.186,40.3425 123.5,40.5C 125.696,40.5046 127.696,40.838 129.5,41.5 Z"/></g>
<g><path style="opacity:1" fill="#fefcfc" d="M 129.5,41.5 C 134.99,42.6084 140.323,44.4418 145.5,47C 162.205,58.8698 174.205,74.3698 181.5,93.5C 181.166,96.491 182.166,98.8243 184.5,100.5C 185.11,101.391 185.443,102.391 185.5,103.5C 185.528,106.916 186.528,109.916 188.5,112.5C 189.657,115.273 190.324,118.273 190.5,121.5C 190.41,124.152 191.076,126.485 192.5,128.5C 192.5,129.833 192.5,131.167 192.5,132.5C 192.665,140.862 192.332,149.195 191.5,157.5C 191.037,160.221 190.371,162.888 189.5,165.5C 185.865,175.797 180.198,184.797 172.5,192.5C 171.978,190.781 170.978,189.448 169.5,188.5C 169.59,185.848 168.924,183.515 167.5,181.5C 167.5,181.167 167.5,180.833 167.5,180.5C 167.397,177.364 166.397,174.698 164.5,172.5C 164.142,169.733 163.475,167.067 162.5,164.5C 161.908,161.873 161.575,159.206 161.5,156.5C 165.913,151.79 170.913,147.79 176.5,144.5C 181.249,142.933 182.583,139.933 180.5,135.5C 179.71,134.206 178.71,133.039 177.5,132C 172.025,130.548 166.692,129.048 161.5,127.5C 157.498,125.39 153.165,124.057 148.5,123.5C 146.284,118.386 144.618,113.053 143.5,107.5C 143.245,105.033 142.245,103.033 140.5,101.5C 138.325,94.1202 135.825,86.7868 133,79.5C 130.433,75.3001 126.933,72.1335 122.5,70C 111.302,66.7747 103.302,70.2747 98.5,80.5C 97.0337,81.347 96.2004,82.6803 96,84.5C 95.5034,86.8098 95.3367,89.1432 95.5,91.5C 92.6146,91.1936 89.9479,91.5269 87.5,92.5C 81.0273,95.4585 78.8606,100.459 81,107.5C 83.3087,110.452 84.8087,113.786 85.5,117.5C 82.114,121.605 79.7806,126.272 78.5,131.5C 76.0387,134.638 75.0387,138.305 75.5,142.5C 75.5745,147.289 76.2412,151.956 77.5,156.5C 76.9644,159.698 77.631,162.365 79.5,164.5C 80.2186,166.764 80.552,169.097 80.5,171.5C 80.4095,174.152 81.0762,176.485 82.5,178.5C 83.5515,182.426 84.2182,186.426 84.5,190.5C 85.0081,193.176 85.1747,195.843 85,198.5C 84.1841,197.177 83.0174,196.511 81.5,196.5C 78.2496,194.757 75.4162,192.423 73,189.5C 70.1467,185.765 67.3133,182.098 64.5,178.5C 61.182,171.879 58.8487,164.879 57.5,157.5C 56.6529,148.528 56.3195,139.528 56.5,130.5C 56.5,129.833 56.5,129.167 56.5,128.5C 57.9238,126.485 58.5905,124.152 58.5,121.5C 58.6761,118.273 59.3428,115.273 60.5,112.5C 62.4725,109.916 63.4725,106.916 63.5,103.5C 63.5569,102.391 63.8902,101.391 64.5,100.5C 66.8337,98.8243 67.8337,96.491 67.5,93.5C 68.8333,90.1667 70.1667,86.8333 71.5,83.5C 78.4026,71.4119 87.0692,60.5785 97.5,51C 102.38,46.5602 108.046,43.7269 114.5,42.5C 119.463,41.746 124.463,41.4126 129.5,41.5 Z"/></g>
<g><path style="opacity:0.969" fill="#e7504f" d="M 187.5,43.5 C 190.225,45.9436 192.725,48.6102 195,51.5C 197.701,56.041 200.201,60.7076 202.5,65.5C 203.242,66.2868 204.075,66.9535 205,67.5C 216.633,89.1699 223.133,112.337 224.5,137C 223.448,148.906 221.615,160.739 219,172.5C 218.617,173.056 218.117,173.389 217.5,173.5C 212.787,180.392 207.454,186.892 201.5,193C 194.038,198.712 186.371,203.878 178.5,208.5C 175.212,208.016 172.545,209.016 170.5,211.5C 148.985,218.583 127.319,218.083 105.5,210C 98.58,207.037 91.9134,203.87 85.5,200.5C 86.8647,197.041 86.5314,193.708 84.5,190.5C 84.2182,186.426 83.5515,182.426 82.5,178.5C 82.5905,175.848 81.9238,173.515 80.5,171.5C 80.552,169.097 80.2186,166.764 79.5,164.5C 79.4349,161.572 78.7682,158.905 77.5,156.5C 76.2412,151.956 75.5745,147.289 75.5,142.5C 75.0387,138.305 76.0387,134.638 78.5,131.5C 93.4028,155.531 114.736,171.031 142.5,178C 150.435,179.078 158.102,178.578 165.5,176.5C 165.66,178.153 166.326,179.486 167.5,180.5C 167.5,180.833 167.5,181.167 167.5,181.5C 167.41,184.152 168.076,186.485 169.5,188.5C 169.771,190.312 170.438,191.978 171.5,193.5C 172.107,193.376 172.44,193.043 172.5,192.5C 180.198,184.797 185.865,175.797 189.5,165.5C 191.311,163.615 192.478,161.281 193,158.5C 193,161.167 193,163.833 193,166.5C 195.795,164.707 198.295,162.54 200.5,160C 203.946,161.248 207.612,161.581 211.5,161C 217.164,156.845 219.33,151.345 218,144.5C 217.411,142.137 215.911,141.137 213.5,141.5C 215.37,129.572 215.87,117.572 215,105.5C 210.912,83.0243 201.745,63.0243 187.5,45.5C 187.5,44.8333 187.5,44.1667 187.5,43.5 Z"/></g>
<g><path style="opacity:1" fill="#e95c57" d="M 140.5,101.5 C 140.755,103.967 141.755,105.967 143.5,107.5C 144.618,113.053 146.284,118.386 148.5,123.5C 152.502,125.61 156.835,126.943 161.5,127.5C 166.692,129.048 172.025,130.548 177.5,132C 178.71,133.039 179.71,134.206 180.5,135.5C 180.66,137.199 180.494,138.866 180,140.5C 178.624,141.705 177.458,143.038 176.5,144.5C 170.913,147.79 165.913,151.79 161.5,156.5C 160.503,156.47 159.836,156.97 159.5,158C 160.039,160.482 161.039,162.648 162.5,164.5C 163.475,167.067 164.142,169.733 164.5,172.5C 164.833,173.833 165.167,175.167 165.5,176.5C 158.102,178.578 150.435,179.078 142.5,178C 114.736,171.031 93.4028,155.531 78.5,131.5C 79.7806,126.272 82.114,121.605 85.5,117.5C 84.8087,113.786 83.3087,110.452 81,107.5C 78.8606,100.459 81.0273,95.4585 87.5,92.5C 89.8333,92.5 92.1667,92.5 94.5,92.5C 95.209,93.404 96.209,93.7373 97.5,93.5C 97.5,90.8333 97.5,88.1667 97.5,85.5C 97.6287,83.7839 97.962,82.1172 98.5,80.5C 103.302,70.2747 111.302,66.7747 122.5,70C 126.933,72.1335 130.433,75.3001 133,79.5C 135.825,86.7868 138.325,94.1202 140.5,101.5 Z"/></g>
<g><path style="opacity:0.912" fill="#e54847" d="M 38.5,76.5 C 38.8039,77.1499 39.1373,77.8165 39.5,78.5C 37.2144,87.849 35.8811,97.349 35.5,107C 34.912,134.463 43.5787,158.463 61.5,179C 62.5768,179.47 63.5768,179.303 64.5,178.5C 67.3133,182.098 70.1467,185.765 73,189.5C 75.4162,192.423 78.2496,194.757 81.5,196.5C 82.5,198.167 83.8333,199.5 85.5,200.5C 91.9134,203.87 98.58,207.037 105.5,210C 127.319,218.083 148.985,218.583 170.5,211.5C 168.946,218.776 171.946,221.61 179.5,220C 182.057,217.3 182.89,214.133 182,210.5C 181.184,209.177 180.017,208.511 178.5,208.5C 186.371,203.878 194.038,198.712 201.5,193C 207.454,186.892 212.787,180.392 217.5,173.5C 216.776,176.843 215.943,180.176 215,183.5C 193.693,226.877 159.193,247.711 111.5,246C 79.2749,240.098 55.1082,222.932 39,194.5C 28.3196,172.428 23.6529,149.095 25,124.5C 26.7514,115.936 28.4181,107.269 30,98.5C 32.2387,90.8263 35.072,83.493 38.5,76.5 Z"/></g>
<g><path style="opacity:1" fill="#f8c9c6" d="M 98.5,80.5 C 97.962,82.1172 97.6287,83.7839 97.5,85.5C 97.0826,88.1589 96.0826,90.4922 94.5,92.5C 92.1667,92.5 89.8333,92.5 87.5,92.5C 89.9479,91.5269 92.6146,91.1936 95.5,91.5C 95.3367,89.1432 95.5034,86.8098 96,84.5C 96.2004,82.6803 97.0337,81.347 98.5,80.5 Z"/></g>
<g><path style="opacity:1" fill="#ef8b85" d="M 97.5,85.5 C 97.5,88.1667 97.5,90.8333 97.5,93.5C 96.209,93.7373 95.209,93.404 94.5,92.5C 96.0826,90.4922 97.0826,88.1589 97.5,85.5 Z"/></g>
<g><path style="opacity:1" fill="#f8c6c3" d="M 67.5,93.5 C 67.8337,96.491 66.8337,98.8243 64.5,100.5C 64.9348,97.8427 65.9348,95.5093 67.5,93.5 Z"/></g>
<g><path style="opacity:1" fill="#f9cac6" d="M 181.5,93.5 C 183.065,95.5093 184.065,97.8427 184.5,100.5C 182.166,98.8243 181.166,96.491 181.5,93.5 Z"/></g>
<g><path style="opacity:1" fill="#f4aaa4" d="M 140.5,101.5 C 142.245,103.033 143.245,105.033 143.5,107.5C 141.755,105.967 140.755,103.967 140.5,101.5 Z"/></g>
<g><path style="opacity:1" fill="#f7bebb" d="M 63.5,103.5 C 63.4725,106.916 62.4725,109.916 60.5,112.5C 60.6896,109.145 61.6896,106.145 63.5,103.5 Z"/></g>
<g><path style="opacity:1" fill="#f8bfbb" d="M 185.5,103.5 C 187.31,106.145 188.31,109.145 188.5,112.5C 186.528,109.916 185.528,106.916 185.5,103.5 Z"/></g>
<g><path style="opacity:1" fill="#f6b6b1" d="M 148.5,123.5 C 153.165,124.057 157.498,125.39 161.5,127.5C 156.835,126.943 152.502,125.61 148.5,123.5 Z"/></g>
<g><path style="opacity:1" fill="#f4aaa8" d="M 58.5,121.5 C 58.5905,124.152 57.9238,126.485 56.5,128.5C 56.4095,125.848 57.0762,123.515 58.5,121.5 Z"/></g>
<g><path style="opacity:1" fill="#f5b1ad" d="M 190.5,121.5 C 191.924,123.515 192.59,125.848 192.5,128.5C 191.076,126.485 190.41,124.152 190.5,121.5 Z"/></g>
<g><path style="opacity:1" fill="#fef6f5" d="M 133.5,135.5 C 145.133,135.267 148.133,140.1 142.5,150C 132.32,153.66 128.154,150.16 130,139.5C 131.376,138.295 132.542,136.962 133.5,135.5 Z"/></g>
<g><path style="opacity:1" fill="#f9cbc7" d="M 180.5,135.5 C 182.583,139.933 181.249,142.933 176.5,144.5C 177.458,143.038 178.624,141.705 180,140.5C 180.494,138.866 180.66,137.199 180.5,135.5 Z"/></g>
<g><path style="opacity:1" fill="#f8cbc8" d="M 192.5,132.5 C 193.655,139.655 193.822,146.988 193,154.5C 192.768,155.737 192.268,156.737 191.5,157.5C 192.332,149.195 192.665,140.862 192.5,132.5 Z"/></g>
<g><path style="opacity:1" fill="#f7c4c2" d="M 56.5,130.5 C 56.3195,139.528 56.6529,148.528 57.5,157.5C 56.7321,156.737 56.2321,155.737 56,154.5C 55.1772,146.323 55.3439,138.323 56.5,130.5 Z"/></g>
<g><path style="opacity:1" fill="#f7c2be" d="M 161.5,156.5 C 161.575,159.206 161.908,161.873 162.5,164.5C 161.039,162.648 160.039,160.482 159.5,158C 159.836,156.97 160.503,156.47 161.5,156.5 Z"/></g>
<g><path style="opacity:1" fill="#f9cbc8" d="M 77.5,156.5 C 78.7682,158.905 79.4349,161.572 79.5,164.5C 77.631,162.365 76.9644,159.698 77.5,156.5 Z"/></g>
<g><path style="opacity:1" fill="#f3a7a4" d="M 80.5,171.5 C 81.9238,173.515 82.5905,175.848 82.5,178.5C 81.0762,176.485 80.4095,174.152 80.5,171.5 Z"/></g>
<g><path style="opacity:1" fill="#f6b6b3" d="M 164.5,172.5 C 166.397,174.698 167.397,177.364 167.5,180.5C 166.326,179.486 165.66,178.153 165.5,176.5C 165.167,175.167 164.833,173.833 164.5,172.5 Z"/></g>
<g><path style="opacity:1" fill="#e55c5a" d="M 194.5,176.5 C 202.132,175.859 205.299,179.192 204,186.5C 199.796,191.741 195.463,191.741 191,186.5C 190.333,184.5 190.333,182.5 191,180.5C 192.376,179.295 193.542,177.962 194.5,176.5 Z"/></g>
<g><path style="opacity:1" fill="#ef817d" d="M 167.5,181.5 C 168.924,183.515 169.59,185.848 169.5,188.5C 168.076,186.485 167.41,184.152 167.5,181.5 Z"/></g>
<g><path style="opacity:1" fill="#f8c2bf" d="M 169.5,188.5 C 170.978,189.448 171.978,190.781 172.5,192.5C 172.44,193.043 172.107,193.376 171.5,193.5C 170.438,191.978 169.771,190.312 169.5,188.5 Z"/></g>
<g><path style="opacity:1" fill="#f6b5b2" d="M 84.5,190.5 C 86.5314,193.708 86.8647,197.041 85.5,200.5C 83.8333,199.5 82.5,198.167 81.5,196.5C 83.0174,196.511 84.1841,197.177 85,198.5C 85.1747,195.843 85.0081,193.176 84.5,190.5 Z"/></g>
<g><path style="opacity:1" fill="#e55352" d="M 72.5,203.5 C 83.1756,203.169 87.8423,208.169 86.5,218.5C 85.6184,219.76 84.6184,220.926 83.5,222C 70.3864,223.723 65.0531,218.223 67.5,205.5C 69.3361,204.972 71.0028,204.306 72.5,203.5 Z"/></g>
<g><path style="opacity:1" fill="#e55856" d="M 178.5,208.5 C 180.017,208.511 181.184,209.177 182,210.5C 182.89,214.133 182.057,217.3 179.5,220C 171.946,221.61 168.946,218.776 170.5,211.5C 172.545,209.016 175.212,208.016 178.5,208.5 Z"/></g>
</svg>
