<?xml version="1.0" encoding="UTF-8"?>
<!DOCTYPE svg PUBLIC "-//W3C//DTD SVG 1.1//EN" "http://www.w3.org/Graphics/SVG/1.1/DTD/svg11.dtd">
<svg xmlns="http://www.w3.org/2000/svg" version="1.1" width="250px" height="250px" style="shape-rendering:geometricPrecision; text-rendering:geometricPrecision; image-rendering:optimizeQuality; fill-rule:evenodd; clip-rule:evenodd" xmlns:xlink="http://www.w3.org/1999/xlink">
<g><path style="opacity:0.636" fill="#f7f8f8" d="M 109.5,9.5 C 126.844,10.6945 144.178,12.1945 161.5,14C 212.965,31.1505 240.965,67.8172 245.5,124C 243.986,168.617 224.32,202.451 186.5,225.5C 148.822,242.376 110.489,243.876 71.5,230C 21.7455,204.007 -0.421163,162.84 5,106.5C 14.6948,58.8513 42.1948,28.018 87.5,14C 94.1346,12.7831 100.801,11.7831 107.5,11C 108.416,10.7216 109.082,10.2216 109.5,9.5 Z"/></g>
<g><path style="opacity:1" fill="#9abfbe" d="M 133.5,15.5 C 133.611,16.1174 133.944,16.6174 134.5,17C 136.92,17.2904 139.254,17.7904 141.5,18.5C 140.688,19.9931 139.355,20.6598 137.5,20.5C 136.228,20.4302 135.062,20.0968 134,19.5C 133.505,21.4727 133.338,23.4727 133.5,25.5C 130.753,25.1866 128.086,25.52 125.5,26.5C 124.754,27.7362 124.421,29.0695 124.5,30.5C 125.978,30.238 127.311,30.5713 128.5,31.5C 124.21,34.2345 119.543,35.0679 114.5,34C 114.957,33.586 115.291,33.086 115.5,32.5C 113.604,31.5344 111.604,31.2011 109.5,31.5C 109.101,34.9877 108.434,35.1544 107.5,32C 107.844,30.6349 108.511,29.4682 109.5,28.5C 108.833,27.8333 108.167,27.1667 107.5,26.5C 108.716,25.9041 110.049,25.7374 111.5,26C 109.441,24.8145 109.274,23.6479 111,22.5C 116.799,23.4028 116.965,22.4028 111.5,19.5C 108.324,18.2193 105.158,18.2193 102,19.5C 100.7,18.2927 99.1998,17.6261 97.5,17.5C 97.5,18.8333 97.5,20.1667 97.5,21.5C 94.9752,20.36 92.3085,19.6933 89.5,19.5C 93.6975,17.2036 98.3642,16.0369 103.5,16C 113.494,15.5002 123.494,15.3335 133.5,15.5 Z"/></g>
<g><path style="opacity:1" fill="#334540" d="M 133.5,15.5 C 153.783,15.9032 172.45,21.5699 189.5,32.5C 188.328,33.7053 186.995,33.7053 185.5,32.5C 185.167,33 184.833,33.5 184.5,34C 186.802,35.9768 188.802,38.3101 190.5,41C 190.272,41.3988 189.938,41.5654 189.5,41.5C 187.999,40.2485 186.332,39.2485 184.5,38.5C 179.163,33.4986 173.163,29.4986 166.5,26.5C 158.561,22.6317 150.228,19.965 141.5,18.5C 139.254,17.7904 136.92,17.2904 134.5,17C 133.944,16.6174 133.611,16.1174 133.5,15.5 Z"/></g>
<g><path style="opacity:1" fill="#88abaa" d="M 71.5,25.5 C 75.8924,26.0883 80.2258,26.0883 84.5,25.5C 89.1917,27.6991 94.1917,29.0324 99.5,29.5C 98.1667,29.8333 96.8333,30.1667 95.5,30.5C 97.6239,31.458 99.6239,32.6246 101.5,34C 101.167,34.3333 100.833,34.6667 100.5,35C 109.676,35.1703 118.676,35.6703 127.5,36.5C 118.161,36.3335 108.827,36.5002 99.5,37C 97.9419,37.21 96.6085,37.71 95.5,38.5C 94.8333,38.5 94.1667,38.5 93.5,38.5C 90.7835,38.6785 88.1168,39.1785 85.5,40C 79.5428,42.3119 73.8761,45.1453 68.5,48.5C 68.0618,48.5654 67.7284,48.3988 67.5,48C 68.7433,46.8455 69.7433,45.5122 70.5,44C 74.9444,42.4619 79.2778,40.6286 83.5,38.5C 82.2178,35.8674 80.8844,35.8674 79.5,38.5C 78.5539,38.0133 77.5539,37.6799 76.5,37.5C 73.1662,38.8336 69.8329,40.1669 66.5,41.5C 66.719,42.675 66.3857,43.675 65.5,44.5C 63.6239,43.1246 61.6239,41.958 59.5,41C 61.1247,40.1475 61.4581,39.1475 60.5,38C 58.4815,38.1525 56.4815,38.6525 54.5,39.5C 55.101,43.909 53.4343,45.2424 49.5,43.5C 50.5,42.8333 51.5,42.1667 52.5,41.5C 52.3764,40.8933 52.0431,40.56 51.5,40.5C 52.8321,39.1696 53.6655,37.5029 54,35.5C 59.4811,31.5107 65.3144,28.1773 71.5,25.5 Z"/></g>
<g><path style="opacity:1" fill="#94b7b5" d="M 141.5,18.5 C 150.228,19.965 158.561,22.6317 166.5,26.5C 166.225,28.7583 165.225,29.0916 163.5,27.5C 162.107,28.8631 160.441,29.6964 158.5,30C 159.46,31.4194 160.293,32.9194 161,34.5C 161.561,33.9781 162.228,33.6448 163,33.5C 164.752,34.958 166.585,36.2913 168.5,37.5C 169.221,39.686 169.887,41.8526 170.5,44C 171.635,44.7494 172.635,44.5827 173.5,43.5C 172.737,42.2807 171.737,41.2807 170.5,40.5C 171.365,39.4173 172.365,39.2506 173.5,40C 176.88,46.1715 175.214,47.8381 168.5,45C 167.792,42.2324 166.292,41.3991 164,42.5C 163.193,38.551 162.693,38.551 162.5,42.5C 161.5,42.5 160.5,42.5 159.5,42.5C 159.5,41.1667 159.5,39.8333 159.5,38.5C 157.61,38.7035 156.11,38.0368 155,36.5C 154.517,37.448 154.351,38.448 154.5,39.5C 151.266,40.576 147.932,41.2427 144.5,41.5C 139.241,38.9111 133.575,37.5778 127.5,37.5C 127.5,37.1667 127.5,36.8333 127.5,36.5C 118.676,35.6703 109.676,35.1703 100.5,35C 100.833,34.6667 101.167,34.3333 101.5,34C 99.6239,32.6246 97.6239,31.458 95.5,30.5C 96.8333,30.1667 98.1667,29.8333 99.5,29.5C 94.1917,29.0324 89.1917,27.6991 84.5,25.5C 80.2258,26.0883 75.8924,26.0883 71.5,25.5C 76.8873,21.9788 82.8873,19.9788 89.5,19.5C 92.3085,19.6933 94.9752,20.36 97.5,21.5C 97.5,20.1667 97.5,18.8333 97.5,17.5C 99.1998,17.6261 100.7,18.2927 102,19.5C 105.158,18.2193 108.324,18.2193 111.5,19.5C 116.965,22.4028 116.799,23.4028 111,22.5C 109.274,23.6479 109.441,24.8145 111.5,26C 110.049,25.7374 108.716,25.9041 107.5,26.5C 108.167,27.1667 108.833,27.8333 109.5,28.5C 108.511,29.4682 107.844,30.6349 107.5,32C 108.434,35.1544 109.101,34.9877 109.5,31.5C 111.604,31.2011 113.604,31.5344 115.5,32.5C 115.291,33.086 114.957,33.586 114.5,34C 119.543,35.0679 124.21,34.2345 128.5,31.5C 127.311,30.5713 125.978,30.238 124.5,30.5C 124.421,29.0695 124.754,27.7362 125.5,26.5C 128.086,25.52 130.753,25.1866 133.5,25.5C 133.338,23.4727 133.505,21.4727 134,19.5C 135.062,20.0968 136.228,20.4302 137.5,20.5C 139.355,20.6598 140.688,19.9931 141.5,18.5 Z"/></g>
<g><path style="opacity:1" fill="#536d6a" d="M 127.5,36.5 C 127.5,36.8333 127.5,37.1667 127.5,37.5C 116.806,37.2912 106.14,37.6245 95.5,38.5C 96.6085,37.71 97.9419,37.21 99.5,37C 108.827,36.5002 118.161,36.3335 127.5,36.5 Z"/></g>
<g><path style="opacity:1" fill="#63807d" d="M 127.5,37.5 C 133.575,37.5778 139.241,38.9111 144.5,41.5C 143.5,41.5 142.5,41.5 141.5,41.5C 136.712,40.2572 132.045,38.9239 127.5,37.5 Z"/></g>
<g><path style="opacity:1" fill="#89aaa7" d="M 166.5,26.5 C 173.163,29.4986 179.163,33.4986 184.5,38.5C 183.833,38.5 183.5,38.8333 183.5,39.5C 181.787,37.805 179.787,36.9717 177.5,37C 178.5,37.8333 179.5,38.6667 180.5,39.5C 179.189,40.2575 178.689,41.2575 179,42.5C 181.285,45.576 184.118,46.7427 187.5,46C 190.382,49.5931 193.382,53.0931 196.5,56.5C 196.167,56.8333 195.833,57.1667 195.5,57.5C 193.636,55.0546 191.636,54.8879 189.5,57C 190.573,58.2504 190.573,59.5838 189.5,61C 189.95,62.2853 190.617,63.452 191.5,64.5C 191.167,64.8333 190.833,65.1667 190.5,65.5C 188.979,65.1203 187.313,64.9536 185.5,65C 184.887,62.8526 184.221,60.686 183.5,58.5C 179.036,55.3118 174.036,53.6452 168.5,53.5C 168.167,53.1667 167.833,52.8333 167.5,52.5C 168.376,51.7492 169.376,51.2492 170.5,51C 166.019,50.734 161.686,49.9007 157.5,48.5C 153.115,46.0806 148.782,43.7472 144.5,41.5C 147.932,41.2427 151.266,40.576 154.5,39.5C 154.351,38.448 154.517,37.448 155,36.5C 156.11,38.0368 157.61,38.7035 159.5,38.5C 159.5,39.8333 159.5,41.1667 159.5,42.5C 160.5,42.5 161.5,42.5 162.5,42.5C 162.693,38.551 163.193,38.551 164,42.5C 166.292,41.3991 167.792,42.2324 168.5,45C 175.214,47.8381 176.88,46.1715 173.5,40C 172.365,39.2506 171.365,39.4173 170.5,40.5C 171.737,41.2807 172.737,42.2807 173.5,43.5C 172.635,44.5827 171.635,44.7494 170.5,44C 169.887,41.8526 169.221,39.686 168.5,37.5C 166.585,36.2913 164.752,34.958 163,33.5C 162.228,33.6448 161.561,33.9781 161,34.5C 160.293,32.9194 159.46,31.4194 158.5,30C 160.441,29.6964 162.107,28.8631 163.5,27.5C 165.225,29.0916 166.225,28.7583 166.5,26.5 Z"/></g>
<g><path style="opacity:1" fill="#587471" d="M 93.5,38.5 C 93.0472,39.4584 92.3805,40.2917 91.5,41C 89.2774,41.5662 87.2774,42.3995 85.5,43.5C 79.4874,44.8549 74.1541,47.5216 69.5,51.5C 67.7839,51.6287 66.1172,51.962 64.5,52.5C 65.8333,51.1667 67.1667,49.8333 68.5,48.5C 73.8761,45.1453 79.5428,42.3119 85.5,40C 88.1168,39.1785 90.7835,38.6785 93.5,38.5 Z"/></g>
<g><path style="opacity:1" fill="#445f5a" d="M 189.5,32.5 C 193.183,34.3409 196.516,36.6742 199.5,39.5C 198.871,42.1289 197.205,43.7956 194.5,44.5C 197.282,47.2379 199.949,50.0712 202.5,53C 201.906,53.4643 201.239,53.631 200.5,53.5C 196.833,49.5 193.167,45.5 189.5,41.5C 189.938,41.5654 190.272,41.3988 190.5,41C 188.802,38.3101 186.802,35.9768 184.5,34C 184.833,33.5 185.167,33 185.5,32.5C 186.995,33.7053 188.328,33.7053 189.5,32.5 Z"/></g>
<g><path style="opacity:1" fill="#2a3f3b" d="M 127.5,37.5 C 132.045,38.9239 136.712,40.2572 141.5,41.5C 142.091,42.1515 142.757,42.8182 143.5,43.5C 143,43.8333 142.5,44.1667 142,44.5C 129.319,42.264 116.819,42.4307 104.5,45C 92.2116,49.23 80.3783,54.3966 69,60.5C 68.6174,59.944 68.1174,59.6107 67.5,59.5C 73.1232,53.0502 79.7899,47.8835 87.5,44C 86.9056,43.5357 86.2389,43.369 85.5,43.5C 87.2774,42.3995 89.2774,41.5662 91.5,41C 92.3805,40.2917 93.0472,39.4584 93.5,38.5C 94.1667,38.5 94.8333,38.5 95.5,38.5C 106.14,37.6245 116.806,37.2912 127.5,37.5 Z"/></g>
<g><path style="opacity:1" fill="#334b46" d="M 141.5,41.5 C 142.5,41.5 143.5,41.5 144.5,41.5C 148.782,43.7472 153.115,46.0806 157.5,48.5C 159.147,50.3264 161.147,51.6597 163.5,52.5C 164.102,56.0613 162.935,56.3946 160,53.5C 159.667,53.8333 159.333,54.1667 159,54.5C 153.332,52.4497 147.499,50.9497 141.5,50C 101.72,43.8207 70.8864,57.3207 49,90.5C 48.7216,89.5842 48.2216,88.9175 47.5,88.5C 50.2733,80.9561 54.1066,73.9561 59,67.5C 61.7494,64.579 64.5828,61.9123 67.5,59.5C 68.1174,59.6107 68.6174,59.944 69,60.5C 80.3783,54.3966 92.2116,49.23 104.5,45C 116.819,42.4307 129.319,42.264 142,44.5C 142.5,44.1667 143,43.8333 143.5,43.5C 142.757,42.8182 142.091,42.1515 141.5,41.5 Z"/></g>
<g><path style="opacity:1" fill="#a4c3c1" d="M 183.5,39.5 C 183.5,38.8333 183.833,38.5 184.5,38.5C 186.332,39.2485 187.999,40.2485 189.5,41.5C 193.167,45.5 196.833,49.5 200.5,53.5C 203.178,56.8726 205.844,60.2059 208.5,63.5C 208.5,64.1667 208.167,64.5 207.5,64.5C 206.504,64.5858 205.671,64.2524 205,63.5C 198.68,54.6836 191.514,46.6836 183.5,39.5 Z"/></g>
<g><path style="opacity:1" fill="#577873" d="M 199.5,39.5 C 202.5,41.8333 205.167,44.5 207.5,47.5C 207.196,48.1499 206.863,48.8165 206.5,49.5C 207.88,51.1738 209.213,52.8404 210.5,54.5C 208.62,57.09 209.286,58.59 212.5,59C 211.259,60.6985 209.926,62.1985 208.5,63.5C 205.844,60.2059 203.178,56.8726 200.5,53.5C 201.239,53.631 201.906,53.4643 202.5,53C 199.949,50.0712 197.282,47.2379 194.5,44.5C 197.205,43.7956 198.871,42.1289 199.5,39.5 Z"/></g>
<g><path style="opacity:1" fill="#46615b" d="M 148.5,56.5 C 159.374,55.7366 168.874,59.0699 177,66.5C 177.464,65.9056 177.631,65.2389 177.5,64.5C 184.91,70.9278 190.91,78.5945 195.5,87.5C 196.197,90.2912 197.197,92.9579 198.5,95.5C 198.561,97.721 197.895,98.0544 196.5,96.5C 194.128,88.4875 190.128,81.4875 184.5,75.5C 181.408,73.2872 178.074,71.6205 174.5,70.5C 172.763,68.4503 170.763,66.617 168.5,65C 161.628,62.3905 154.962,59.5572 148.5,56.5 Z"/></g>
<g><path style="opacity:1" fill="#739594" d="M 68.5,48.5 C 67.1667,49.8333 65.8333,51.1667 64.5,52.5C 57.1588,58.8416 50.4921,65.8416 44.5,73.5C 43.6236,73.6309 42.9569,73.2975 42.5,72.5C 43.3094,70.9291 43.6427,69.2624 43.5,67.5C 45.3547,67.728 46.1881,67.0613 46,65.5C 43.4713,63.4595 40.638,62.1262 37.5,61.5C 37.5777,64.4867 36.411,65.1534 34,63.5C 30.8901,63.9445 28.0568,64.9445 25.5,66.5C 31.321,56.6884 38.6544,48.1884 47.5,41C 48.7932,40.51 50.1266,40.3433 51.5,40.5C 52.0431,40.56 52.3764,40.8933 52.5,41.5C 51.5,42.1667 50.5,42.8333 49.5,43.5C 53.4343,45.2424 55.101,43.909 54.5,39.5C 56.4815,38.6525 58.4815,38.1525 60.5,38C 61.4581,39.1475 61.1247,40.1475 59.5,41C 61.6239,41.958 63.6239,43.1246 65.5,44.5C 66.3857,43.675 66.719,42.675 66.5,41.5C 69.8329,40.1669 73.1662,38.8336 76.5,37.5C 77.5539,37.6799 78.5539,38.0133 79.5,38.5C 80.8844,35.8674 82.2178,35.8674 83.5,38.5C 79.2778,40.6286 74.9444,42.4619 70.5,44C 69.7433,45.5122 68.7433,46.8455 67.5,48C 67.7284,48.3988 68.0618,48.5654 68.5,48.5 Z"/></g>
<g><path style="opacity:1" fill="#6a8e8b" d="M 207.5,47.5 C 211.831,50.9981 215.664,54.9981 219,59.5C 219.847,61.1932 220.68,62.8599 221.5,64.5C 221.414,65.4959 221.748,66.3292 222.5,67C 221.207,67.49 219.873,67.6567 218.5,67.5C 218.421,68.9305 218.754,70.2638 219.5,71.5C 219.154,72.6956 218.654,72.6956 218,71.5C 217.925,73.935 217.092,74.6016 215.5,73.5C 215.167,72.8333 214.833,72.1667 214.5,71.5C 216.549,71.2942 216.883,70.4609 215.5,69C 213.182,67.0073 210.516,65.8406 207.5,65.5C 207.5,65.1667 207.5,64.8333 207.5,64.5C 208.167,64.5 208.5,64.1667 208.5,63.5C 209.926,62.1985 211.259,60.6985 212.5,59C 209.286,58.59 208.62,57.09 210.5,54.5C 209.213,52.8404 207.88,51.1738 206.5,49.5C 206.863,48.8165 207.196,48.1499 207.5,47.5 Z"/></g>
<g><path style="opacity:1" fill="#7c9c9a" d="M 183.5,39.5 C 191.514,46.6836 198.68,54.6836 205,63.5C 205.671,64.2524 206.504,64.5858 207.5,64.5C 207.5,64.8333 207.5,65.1667 207.5,65.5C 205.266,66.8188 203.932,68.8188 203.5,71.5C 204.325,72.3857 205.325,72.719 206.5,72.5C 205.602,73.1577 204.602,73.8243 203.5,74.5C 204.602,75.1757 205.602,75.8423 206.5,76.5C 205.448,76.3505 204.448,76.5172 203.5,77C 203.243,78.3715 203.577,79.8715 204.5,81.5C 203.254,84.0283 202.254,86.6949 201.5,89.5C 200.667,87.5 199.833,85.5 199,83.5C 198.943,85.9102 197.776,87.2435 195.5,87.5C 190.91,78.5945 184.91,70.9278 177.5,64.5C 173.133,60.1322 168.467,56.1322 163.5,52.5C 161.147,51.6597 159.147,50.3264 157.5,48.5C 161.686,49.9007 166.019,50.734 170.5,51C 169.376,51.2492 168.376,51.7492 167.5,52.5C 167.833,52.8333 168.167,53.1667 168.5,53.5C 174.036,53.6452 179.036,55.3118 183.5,58.5C 184.221,60.686 184.887,62.8526 185.5,65C 187.313,64.9536 188.979,65.1203 190.5,65.5C 190.833,65.1667 191.167,64.8333 191.5,64.5C 190.617,63.452 189.95,62.2853 189.5,61C 190.573,59.5838 190.573,58.2504 189.5,57C 191.636,54.8879 193.636,55.0546 195.5,57.5C 195.833,57.1667 196.167,56.8333 196.5,56.5C 193.382,53.0931 190.382,49.5931 187.5,46C 184.118,46.7427 181.285,45.576 179,42.5C 178.689,41.2575 179.189,40.2575 180.5,39.5C 179.5,38.6667 178.5,37.8333 177.5,37C 179.787,36.9717 181.787,37.805 183.5,39.5 Z"/></g>
<g><path style="opacity:1" fill="#3d4e4a" d="M 207.5,65.5 C 210.516,65.8406 213.182,67.0073 215.5,69C 216.883,70.4609 216.549,71.2942 214.5,71.5C 211.615,71.1936 208.948,71.5269 206.5,72.5C 205.325,72.719 204.325,72.3857 203.5,71.5C 203.932,68.8188 205.266,66.8188 207.5,65.5 Z"/></g>
<g><path style="opacity:1" fill="#455f5b" d="M 69.5,51.5 C 65.9021,54.3133 62.2355,57.1467 58.5,60C 57.782,61.9874 56.782,63.8208 55.5,65.5C 51.7616,68.9122 48.095,72.2455 44.5,75.5C 44.5,74.8333 44.5,74.1667 44.5,73.5C 50.4921,65.8416 57.1588,58.8416 64.5,52.5C 66.1172,51.962 67.7839,51.6287 69.5,51.5 Z"/></g>
<g><path style="opacity:1" fill="#3d5751" d="M 163.5,52.5 C 168.467,56.1322 173.133,60.1322 177.5,64.5C 177.631,65.2389 177.464,65.9056 177,66.5C 168.874,59.0699 159.374,55.7366 148.5,56.5C 143.636,54.9592 138.636,54.2925 133.5,54.5C 116.711,52.3974 100.377,54.564 84.5,61C 69.9314,70.2361 58.4314,82.4028 50,97.5C 47.0192,105.683 43.8525,113.683 40.5,121.5C 40.2122,114.437 40.7122,107.437 42,100.5C 43.773,96.4059 45.6063,92.4059 47.5,88.5C 48.2216,88.9175 48.7216,89.5842 49,90.5C 70.8864,57.3207 101.72,43.8207 141.5,50C 147.499,50.9497 153.332,52.4497 159,54.5C 159.333,54.1667 159.667,53.8333 160,53.5C 162.935,56.3946 164.102,56.0613 163.5,52.5 Z"/></g>
<g><path style="opacity:1" fill="#81afad" d="M 221.5,64.5 C 226.35,70.86 230.183,77.86 233,85.5C 234.31,89.0704 235.143,92.737 235.5,96.5C 233.53,98.6467 231.697,100.98 230,103.5C 228.594,102.332 227.428,102.665 226.5,104.5C 225.013,99.3428 224.347,99.6761 224.5,105.5C 221.743,94.8794 218.743,84.2127 215.5,73.5C 217.092,74.6016 217.925,73.935 218,71.5C 218.654,72.6956 219.154,72.6956 219.5,71.5C 218.754,70.2638 218.421,68.9305 218.5,67.5C 219.873,67.6567 221.207,67.49 222.5,67C 221.748,66.3292 221.414,65.4959 221.5,64.5 Z"/></g>
<g><path style="opacity:1" fill="#91c4c0" d="M 174.5,70.5 C 178.074,71.6205 181.408,73.2872 184.5,75.5C 184.823,78.962 184.823,82.2953 184.5,85.5C 183.455,83.5995 182.122,81.9328 180.5,80.5C 179.914,80.7093 179.414,81.0426 179,81.5C 178.283,85.0449 178.45,88.5449 179.5,92C 177.742,94.4944 177.576,97.3277 179,100.5C 180.533,98.1542 182.366,97.1542 184.5,97.5C 183.876,99.754 182.543,101.421 180.5,102.5C 180.833,103.167 181.167,103.833 181.5,104.5C 179.068,107.591 179.068,110.591 181.5,113.5C 180.284,114.096 178.951,114.263 177.5,114C 178.438,119.301 178.105,124.468 176.5,129.5C 176.5,113.5 176.5,97.5 176.5,81.5C 169.646,81.176 162.979,81.5093 156.5,82.5C 155.599,83.2905 154.932,84.2905 154.5,85.5C 151.514,90.1302 148.514,94.7969 145.5,99.5C 144.735,99.0766 143.902,98.7432 143,98.5C 141.039,101.793 138.205,103.96 134.5,105C 135.609,106.813 134.942,107.646 132.5,107.5C 132.5,106.167 132.5,104.833 132.5,103.5C 134.321,100.114 133.654,97.4473 130.5,95.5C 127.43,89.6964 124.097,84.0297 120.5,78.5C 120.393,76.6214 120.893,76.2881 122,77.5C 122.333,76.5 122.667,75.5 123,74.5C 124.693,73.8155 126.193,72.8155 127.5,71.5C 132.093,72.7334 136.26,74.7334 140,77.5C 141.889,75.2808 144.056,74.4475 146.5,75C 145.304,74.3457 145.304,73.8457 146.5,73.5C 147.988,75.1493 148.988,77.1493 149.5,79.5C 150.524,78.1468 151.857,77.4802 153.5,77.5C 153.5,76.5 153.5,75.5 153.5,74.5C 155.827,74.2471 157.827,74.9137 159.5,76.5C 160.852,75.4825 161.852,74.1492 162.5,72.5C 164.071,73.3094 165.738,73.6427 167.5,73.5C 168.055,69.4159 167.055,68.7492 164.5,71.5C 162.402,69.0956 160.568,69.429 159,72.5C 158.405,71.1011 158.572,69.7678 159.5,68.5C 161.465,67.7078 163.465,67.0412 165.5,66.5C 168.116,68.803 171.116,70.1363 174.5,70.5 Z"/></g>
<g><path style="opacity:1" fill="#5b7e7c" d="M 44.5,73.5 C 44.5,74.1667 44.5,74.8333 44.5,75.5C 42.9752,77.2163 41.9752,79.2163 41.5,81.5C 39.9721,85.0479 37.9721,88.3813 35.5,91.5C 35.44,90.9569 35.1067,90.6236 34.5,90.5C 33.8503,92.1836 32.8503,93.5169 31.5,94.5C 31.2942,92.4508 30.4609,92.1175 29,93.5C 27.6487,91.981 26.1487,90.6477 24.5,89.5C 23.1239,90.8419 21.7906,92.1752 20.5,93.5C 23.8237,94.1592 25.1571,96.1592 24.5,99.5C 23.5,99.5 22.5,99.5 21.5,99.5C 21.6882,97.8967 21.1882,96.5634 20,95.5C 19.4145,97.1293 18.5812,98.6293 17.5,100C 17.9054,100.945 18.572,101.612 19.5,102C 18.6433,102.689 17.9767,103.522 17.5,104.5C 19.8076,106.803 21.8076,109.303 23.5,112C 21.5901,111.376 19.5901,110.542 17.5,109.5C 16.7492,110.376 16.2492,111.376 16,112.5C 15.3333,111.167 14.3333,110.167 13,109.5C 12.6667,107.833 12.3333,106.167 12,104.5C 11.3333,106.5 11.3333,108.5 12,110.5C 14.0338,111.743 14.8671,113.243 14.5,115C 12.6987,116.387 12.0321,117.887 12.5,119.5C 11.6858,117.234 11.1858,114.9 11,112.5C 10.1814,121.219 10.3481,127.886 11.5,132.5C 12.552,132.351 13.552,132.517 14.5,133C 13.7282,138.61 13.0616,144.444 12.5,150.5C 7.37173,127.177 8.87173,104.177 17,81.5C 19.3405,76.1447 22.1738,71.1447 25.5,66.5C 28.0568,64.9445 30.8901,63.9445 34,63.5C 36.411,65.1534 37.5777,64.4867 37.5,61.5C 40.638,62.1262 43.4713,63.4595 46,65.5C 46.1881,67.0613 45.3547,67.728 43.5,67.5C 43.6427,69.2624 43.3094,70.9291 42.5,72.5C 42.9569,73.2975 43.6236,73.6309 44.5,73.5 Z"/></g>
<g><path style="opacity:1" fill="#82b1ad" d="M 133.5,54.5 C 138.636,54.2925 143.636,54.9592 148.5,56.5C 154.962,59.5572 161.628,62.3905 168.5,65C 170.763,66.617 172.763,68.4503 174.5,70.5C 171.116,70.1363 168.116,68.803 165.5,66.5C 163.465,67.0412 161.465,67.7078 159.5,68.5C 158.572,69.7678 158.405,71.1011 159,72.5C 160.568,69.429 162.402,69.0956 164.5,71.5C 167.055,68.7492 168.055,69.4159 167.5,73.5C 165.738,73.6427 164.071,73.3094 162.5,72.5C 161.852,74.1492 160.852,75.4825 159.5,76.5C 157.827,74.9137 155.827,74.2471 153.5,74.5C 153.5,75.5 153.5,76.5 153.5,77.5C 151.857,77.4802 150.524,78.1468 149.5,79.5C 148.988,77.1493 147.988,75.1493 146.5,73.5C 145.304,73.8457 145.304,74.3457 146.5,75C 144.056,74.4475 141.889,75.2808 140,77.5C 136.26,74.7334 132.093,72.7334 127.5,71.5C 126.193,72.8155 124.693,73.8155 123,74.5C 122.667,75.5 122.333,76.5 122,77.5C 120.893,76.2881 120.393,76.6214 120.5,78.5C 119.407,76.6508 118.074,74.9842 116.5,73.5C 116.167,73.5 115.833,73.5 115.5,73.5C 114.671,72.6676 113.838,73.001 113,74.5C 108.817,82.01 104.65,89.51 100.5,97C 100.57,97.7648 100.903,98.2648 101.5,98.5C 102.6,99.6049 103.267,100.938 103.5,102.5C 103.338,104.527 103.505,106.527 104,108.5C 104.654,107.304 105.154,107.304 105.5,108.5C 104.515,110.098 104.349,111.765 105,113.5C 105.667,112.833 106.333,112.167 107,111.5C 109.416,114.663 111.582,117.996 113.5,121.5C 112.467,122.452 111.3,122.452 110,121.5C 106.726,123.979 104.726,122.979 104,118.5C 103.814,121.036 103.314,123.369 102.5,125.5C 94.8189,112.798 87.1522,100.131 79.5,87.5C 78.8902,86.609 78.5569,85.609 78.5,84.5C 75.023,83.6773 71.3563,83.1773 67.5,83C 69.6787,81.8581 72.0121,81.0248 74.5,80.5C 75.8064,79.0878 76.6397,77.4211 77,75.5C 79.0403,73.9594 81.2069,72.6261 83.5,71.5C 84.373,69.5866 85.373,67.7533 86.5,66C 90.0106,65.3299 93.3439,64.1632 96.5,62.5C 97.0959,63.7161 97.2626,65.0494 97,66.5C 98.3561,65.6198 99.8561,65.2865 101.5,65.5C 101.5,64.5 101.5,63.5 101.5,62.5C 103.143,62.4802 104.476,63.1468 105.5,64.5C 107.793,61.5909 110.627,59.2576 114,57.5C 114.333,57.8333 114.667,58.1667 115,58.5C 117.176,58.0116 119.009,57.0116 120.5,55.5C 124.783,54.5078 129.116,54.1744 133.5,54.5 Z"/></g>
<g><path style="opacity:1" fill="#c1e1de" d="M 214.5,71.5 C 214.833,72.1667 215.167,72.8333 215.5,73.5C 218.743,84.2127 221.743,94.8794 224.5,105.5C 224.823,109.226 224.489,112.893 223.5,116.5C 222.574,111.349 221.574,106.349 220.5,101.5C 218.445,93.4325 215.945,85.4325 213,77.5C 210.959,76.5769 208.792,76.2436 206.5,76.5C 205.602,75.8423 204.602,75.1757 203.5,74.5C 204.602,73.8243 205.602,73.1577 206.5,72.5C 208.948,71.5269 211.615,71.1936 214.5,71.5 Z"/></g>
<g><path style="opacity:1" fill="#5aeff0" d="M 115.5,73.5 C 115.5,75.1667 115.5,76.8333 115.5,78.5C 115.167,78.5 114.833,78.5 114.5,78.5C 114.631,77.7611 114.464,77.0944 114,76.5C 110.742,83.3513 107.242,90.018 103.5,96.5C 103.5,97.8333 102.833,98.5 101.5,98.5C 100.903,98.2648 100.57,97.7648 100.5,97C 104.65,89.51 108.817,82.01 113,74.5C 113.838,73.001 114.671,72.6676 115.5,73.5 Z"/></g>
<g><path style="opacity:1" fill="#143025" d="M 70.5,84.5 C 73.1667,84.5 75.8333,84.5 78.5,84.5C 78.5569,85.609 78.8902,86.609 79.5,87.5C 74.1667,88.1667 68.8333,88.8333 63.5,89.5C 62.548,88.548 61.548,87.548 60.5,86.5C 63.9773,85.8328 67.3107,85.1661 70.5,84.5 Z"/></g>
<g><path style="opacity:1" fill="#1fdfe5" d="M 119.5,84.5 C 120.859,86.8268 122.359,89.1601 124,91.5C 124.494,93.1341 124.66,94.8008 124.5,96.5C 123.167,96.5 121.833,96.5 120.5,96.5C 118.5,95.8333 116.5,95.1667 114.5,94.5C 115.509,91.9514 116.342,89.2848 117,86.5C 117.417,85.244 118.25,84.5774 119.5,84.5 Z"/></g>
<g><path style="opacity:1" fill="#1996a3" d="M 115.5,73.5 C 115.833,73.5 116.167,73.5 116.5,73.5C 116.215,75.288 116.548,76.9547 117.5,78.5C 120.831,82.4916 123.664,86.8249 126,91.5C 126.18,93.4884 126.014,95.4884 125.5,97.5C 121.5,97.5 117.5,97.5 113.5,97.5C 115.607,96.5318 117.941,96.1984 120.5,96.5C 121.833,96.5 123.167,96.5 124.5,96.5C 124.66,94.8008 124.494,93.1341 124,91.5C 122.359,89.1601 120.859,86.8268 119.5,84.5C 117.626,82.8853 116.292,80.8853 115.5,78.5C 115.5,76.8333 115.5,75.1667 115.5,73.5 Z"/></g>
<g><path style="opacity:1" fill="#25403c" d="M 156.5,82.5 C 162.833,82.5 169.167,82.5 175.5,82.5C 175.5,106.167 175.5,129.833 175.5,153.5C 174.833,130.833 174.167,108.167 173.5,85.5C 168.5,85.5 163.5,85.5 158.5,85.5C 156.861,85.9258 155.528,85.9258 154.5,85.5C 154.932,84.2905 155.599,83.2905 156.5,82.5 Z"/></g>
<g><path style="opacity:1" fill="#d3fcfc" d="M 114.5,78.5 C 113.728,82.4517 113.395,86.4517 113.5,90.5C 112.607,94.1909 111.607,97.8576 110.5,101.5C 110.714,99.8561 110.38,98.3561 109.5,97C 107.527,96.5045 105.527,96.3379 103.5,96.5C 107.242,90.018 110.742,83.3513 114,76.5C 114.464,77.0944 114.631,77.7611 114.5,78.5 Z"/></g>
<g><path style="opacity:1" fill="#29b7c5" d="M 114.5,78.5 C 114.833,78.5 115.167,78.5 115.5,78.5C 116.292,80.8853 117.626,82.8853 119.5,84.5C 118.25,84.5774 117.417,85.244 117,86.5C 116.342,89.2848 115.509,91.9514 114.5,94.5C 113.566,93.4324 113.232,92.099 113.5,90.5C 113.395,86.4517 113.728,82.4517 114.5,78.5 Z"/></g>
<g><path style="opacity:1" fill="#89dce2" d="M 113.5,90.5 C 113.232,92.099 113.566,93.4324 114.5,94.5C 116.5,95.1667 118.5,95.8333 120.5,96.5C 117.941,96.1984 115.607,96.5318 113.5,97.5C 112.761,100.652 112.761,103.985 113.5,107.5C 112.143,106.41 111.143,105.076 110.5,103.5C 110.5,102.833 110.5,102.167 110.5,101.5C 111.607,97.8576 112.607,94.1909 113.5,90.5 Z"/></g>
<g><path style="opacity:1" fill="#78a29d" d="M 133.5,54.5 C 129.116,54.1744 124.783,54.5078 120.5,55.5C 119.009,57.0116 117.176,58.0116 115,58.5C 114.667,58.1667 114.333,57.8333 114,57.5C 110.627,59.2576 107.793,61.5909 105.5,64.5C 104.476,63.1468 103.143,62.4802 101.5,62.5C 101.5,63.5 101.5,64.5 101.5,65.5C 99.8561,65.2865 98.3561,65.6198 97,66.5C 97.2626,65.0494 97.0959,63.7161 96.5,62.5C 93.3439,64.1632 90.0106,65.3299 86.5,66C 85.373,67.7533 84.373,69.5866 83.5,71.5C 81.2069,72.6261 79.0403,73.9594 77,75.5C 76.6397,77.4211 75.8064,79.0878 74.5,80.5C 72.0121,81.0248 69.6787,81.8581 67.5,83C 71.3563,83.1773 75.023,83.6773 78.5,84.5C 75.8333,84.5 73.1667,84.5 70.5,84.5C 66.8333,84.5 63.1667,84.5 59.5,84.5C 59.5,87.8333 59.5,91.1667 59.5,94.5C 59.5,99.8333 59.5,105.167 59.5,110.5C 58.6745,106.018 58.1745,101.351 58,96.5C 57.6667,96.8333 57.3333,97.1667 57,97.5C 56.4906,114.839 56.6573,132.173 57.5,149.5C 56.5233,146.713 56.19,143.713 56.5,140.5C 54.8008,140.34 53.1341,140.506 51.5,141C 52.3366,142.011 52.67,143.178 52.5,144.5C 49.2447,144.986 46.578,143.986 44.5,141.5C 43.914,141.709 43.414,142.043 43,142.5C 42.7216,141.584 42.2216,140.918 41.5,140.5C 40.582,134.225 40.2487,127.892 40.5,121.5C 43.8525,113.683 47.0192,105.683 50,97.5C 58.4314,82.4028 69.9314,70.2361 84.5,61C 100.377,54.564 116.711,52.3974 133.5,54.5 Z"/></g>
<g><path style="opacity:1" fill="#166b7d" d="M 116.5,73.5 C 118.074,74.9842 119.407,76.6508 120.5,78.5C 124.097,84.0297 127.43,89.6964 130.5,95.5C 129.292,96.2341 127.959,96.5674 126.5,96.5C 126.975,99.3126 125.975,101.313 123.5,102.5C 123.737,101.209 123.404,100.209 122.5,99.5C 122.167,99.5 121.833,99.5 121.5,99.5C 119.735,98.5386 117.735,98.2053 115.5,98.5C 115.588,103.536 116.088,108.536 117,113.5C 117.383,112.944 117.883,112.611 118.5,112.5C 118.5,114.5 117.5,115.5 115.5,115.5C 114.833,112.833 114.167,110.167 113.5,107.5C 112.761,103.985 112.761,100.652 113.5,97.5C 117.5,97.5 121.5,97.5 125.5,97.5C 126.014,95.4884 126.18,93.4884 126,91.5C 123.664,86.8249 120.831,82.4916 117.5,78.5C 116.548,76.9547 116.215,75.288 116.5,73.5 Z"/></g>
<g><path style="opacity:1" fill="#698886" d="M 206.5,76.5 C 208.792,76.2436 210.959,76.5769 213,77.5C 215.945,85.4325 218.445,93.4325 220.5,101.5C 219.768,100.192 218.934,98.8584 218,97.5C 218.031,102.176 218.531,106.842 219.5,111.5C 219.436,114.763 218.602,117.763 217,120.5C 216.333,119.833 215.667,119.167 215,118.5C 213.333,119.5 211.667,120.5 210,121.5C 209.667,119.833 209.333,118.167 209,116.5C 208.68,119.54 208.68,122.54 209,125.5C 208,124.833 207,124.167 206,123.5C 205.83,121.285 205.163,119.285 204,117.5C 203.827,123.348 203.327,129.015 202.5,134.5C 202.666,127.159 202.5,119.826 202,112.5C 201.878,110.563 201.045,109.23 199.5,108.5C 199.005,104.353 198.005,100.353 196.5,96.5C 197.895,98.0544 198.561,97.721 198.5,95.5C 197.197,92.9579 196.197,90.2912 195.5,87.5C 197.776,87.2435 198.943,85.9102 199,83.5C 199.833,85.5 200.667,87.5 201.5,89.5C 202.254,86.6949 203.254,84.0283 204.5,81.5C 203.577,79.8715 203.243,78.3715 203.5,77C 204.448,76.5172 205.448,76.3505 206.5,76.5 Z"/></g>
<g><path style="opacity:1" fill="#25b4c8" d="M 103.5,96.5 C 105.527,96.3379 107.527,96.5045 109.5,97C 110.38,98.3561 110.714,99.8561 110.5,101.5C 110.5,102.167 110.5,102.833 110.5,103.5C 110.19,104.738 109.69,104.738 109,103.5C 108.517,102.552 108.351,101.552 108.5,100.5C 106.517,100.157 105.183,100.824 104.5,102.5C 104.167,102.5 103.833,102.5 103.5,102.5C 103.267,100.938 102.6,99.6049 101.5,98.5C 102.833,98.5 103.5,97.8333 103.5,96.5 Z"/></g>
<g><path style="opacity:1" fill="#486662" d="M 59.5,94.5 C 60.8315,102.807 61.4981,111.473 61.5,120.5C 61.4229,131.184 61.0895,141.851 60.5,152.5C 59.5042,138.677 59.1709,124.677 59.5,110.5C 59.5,105.167 59.5,99.8333 59.5,94.5 Z"/></g>
<g><path style="opacity:1" fill="#213531" d="M 85.5,43.5 C 86.2389,43.369 86.9056,43.5357 87.5,44C 79.7899,47.8835 73.1232,53.0502 67.5,59.5C 64.5828,61.9123 61.7494,64.579 59,67.5C 54.1066,73.9561 50.2733,80.9561 47.5,88.5C 45.6063,92.4059 43.773,96.4059 42,100.5C 40.7122,107.437 40.2122,114.437 40.5,121.5C 39.6728,126.985 39.1728,132.652 39,138.5C 37.6814,136.75 37.1814,134.75 37.5,132.5C 36.887,125.816 36.0537,119.149 35,112.5C 34.2496,111.874 33.4162,111.374 32.5,111C 33.4896,107.241 34.323,103.407 35,99.5C 36.3333,98.8333 37.3333,97.8333 38,96.5C 39.5963,91.582 40.763,86.582 41.5,81.5C 41.9752,79.2163 42.9752,77.2163 44.5,75.5C 48.095,72.2455 51.7616,68.9122 55.5,65.5C 56.782,63.8208 57.782,61.9874 58.5,60C 62.2355,57.1467 65.9021,54.3133 69.5,51.5C 74.1541,47.5216 79.4874,44.8549 85.5,43.5 Z"/></g>
<g><path style="opacity:1" fill="#229abb" d="M 66.5,93.5 C 69.5,93.5 72.5,93.5 75.5,93.5C 73.7943,95.5358 71.461,96.5358 68.5,96.5C 68.3367,98.8568 68.5034,101.19 69,103.5C 69.414,103.043 69.914,102.709 70.5,102.5C 70.8333,104 71.1667,105.5 71.5,107C 69.0599,115.324 68.0599,123.824 68.5,132.5C 67.8826,132.611 67.3826,132.944 67,133.5C 66.5001,120.171 66.3334,106.837 66.5,93.5 Z"/></g>
<g><path style="opacity:1" fill="#22b0c7" d="M 171.5,151.5 C 171.199,157.769 168.532,162.769 163.5,166.5C 162.667,150.51 162.167,134.51 162,118.5C 160.961,117.29 159.794,116.29 158.5,115.5C 157.323,111.085 154.99,110.419 151.5,113.5C 150.83,111.709 150.163,110.042 149.5,108.5C 150.657,106.862 151.824,105.196 153,103.5C 153.333,104.833 153.667,106.167 154,107.5C 155.808,105.442 157.975,105.108 160.5,106.5C 160.281,105.325 160.614,104.325 161.5,103.5C 164.29,106.43 164.623,109.43 162.5,112.5C 163.141,121.514 163.975,130.514 165,139.5C 166.158,139.998 166.991,140.831 167.5,142C 167.455,144.794 167.122,147.628 166.5,150.5C 166.667,151.167 166.833,151.833 167,152.5C 168.356,151.62 169.856,151.286 171.5,151.5 Z"/></g>
<g><path style="opacity:1" fill="#7eaca7" d="M 184.5,75.5 C 190.128,81.4875 194.128,88.4875 196.5,96.5C 198.005,100.353 199.005,104.353 199.5,108.5C 200.11,114.815 200.443,121.149 200.5,127.5C 196.921,127.766 196.587,129.099 199.5,131.5C 196.757,132.101 195.424,130.767 195.5,127.5C 193.001,128.506 190.667,129.173 188.5,129.5C 187.842,131.437 187.509,133.27 187.5,135C 185.224,134.426 182.891,134.592 180.5,135.5C 180.628,133.345 180.128,131.345 179,129.5C 178.667,129.833 178.333,130.167 178,130.5C 177.712,139.262 177.545,147.929 177.5,156.5C 174.55,165.284 168.716,171.284 160,174.5C 158.316,174.317 158.15,173.65 159.5,172.5C 167.278,170.343 172.445,165.343 175,157.5C 175.49,156.207 175.657,154.873 175.5,153.5C 176.492,145.684 176.826,137.684 176.5,129.5C 178.105,124.468 178.438,119.301 177.5,114C 178.951,114.263 180.284,114.096 181.5,113.5C 179.068,110.591 179.068,107.591 181.5,104.5C 181.167,103.833 180.833,103.167 180.5,102.5C 182.543,101.421 183.876,99.754 184.5,97.5C 182.366,97.1542 180.533,98.1542 179,100.5C 177.576,97.3277 177.742,94.4944 179.5,92C 178.45,88.5449 178.283,85.0449 179,81.5C 179.414,81.0426 179.914,80.7093 180.5,80.5C 182.122,81.9328 183.455,83.5995 184.5,85.5C 184.823,82.2953 184.823,78.962 184.5,75.5 Z"/></g>
<g><path style="opacity:1" fill="#0a4b5b" d="M 130.5,95.5 C 126.223,103.614 121.723,111.614 117,119.5C 116.617,118.944 116.117,118.611 115.5,118.5C 115.5,117.5 115.5,116.5 115.5,115.5C 117.5,115.5 118.5,114.5 118.5,112.5C 119.762,108.921 121.429,105.588 123.5,102.5C 125.975,101.313 126.975,99.3126 126.5,96.5C 127.959,96.5674 129.292,96.2341 130.5,95.5 Z"/></g>
<g><path style="opacity:1" fill="#29dce7" d="M 110.5,103.5 C 111.143,105.076 112.143,106.41 113.5,107.5C 114.167,110.167 114.833,112.833 115.5,115.5C 115.5,116.5 115.5,117.5 115.5,118.5C 115.5,119.167 115.167,119.5 114.5,119.5C 111.447,113.737 108.114,108.07 104.5,102.5C 105.183,100.824 106.517,100.157 108.5,100.5C 108.351,101.552 108.517,102.552 109,103.5C 109.69,104.738 110.19,104.738 110.5,103.5 Z"/></g>
<g><path style="opacity:1" fill="#0591a5" d="M 121.5,99.5 C 119.712,99.2148 118.045,99.5481 116.5,100.5C 117.23,103.109 117.73,105.776 118,108.5C 119.06,105.178 120.56,102.178 122.5,99.5C 123.404,100.209 123.737,101.209 123.5,102.5C 121.429,105.588 119.762,108.921 118.5,112.5C 117.883,112.611 117.383,112.944 117,113.5C 116.088,108.536 115.588,103.536 115.5,98.5C 117.735,98.2053 119.735,98.5386 121.5,99.5 Z"/></g>
<g><path style="opacity:1" fill="#03bfd3" d="M 121.5,99.5 C 121.833,99.5 122.167,99.5 122.5,99.5C 120.56,102.178 119.06,105.178 118,108.5C 117.73,105.776 117.23,103.109 116.5,100.5C 118.045,99.5481 119.712,99.2148 121.5,99.5 Z"/></g>
<g><path style="opacity:1" fill="#698f89" d="M 236.5,100.5 C 238.134,106.027 239.134,111.693 239.5,117.5C 238.883,117.389 238.383,117.056 238,116.5C 237.576,118.515 236.742,120.349 235.5,122C 235.611,123.722 236.111,123.888 237,122.5C 237.49,123.793 237.657,125.127 237.5,126.5C 234.956,126.896 232.789,126.229 231,124.5C 229.751,126.992 228.584,126.825 227.5,124C 227.957,123.586 228.291,123.086 228.5,122.5C 227.991,119.538 226.991,116.871 225.5,114.5C 225.336,111.813 225.503,109.146 226,106.5C 226.47,108.774 227.47,110.774 229,112.5C 229.605,110.519 230.605,110.185 232,111.5C 232.415,109.709 233.415,108.376 235,107.5C 235.186,104.964 235.686,102.631 236.5,100.5 Z"/></g>
<g><path style="opacity:1" fill="#89b8b4" d="M 145.5,99.5 C 140.752,107.999 135.752,116.332 130.5,124.5C 129.553,122.545 128.219,122.211 126.5,123.5C 125.5,123 124.5,122.5 123.5,122C 123.92,119.723 124.587,117.223 125.5,114.5C 127.087,110.317 129.421,106.65 132.5,103.5C 132.5,104.833 132.5,106.167 132.5,107.5C 134.942,107.646 135.609,106.813 134.5,105C 138.205,103.96 141.039,101.793 143,98.5C 143.902,98.7432 144.735,99.0766 145.5,99.5 Z"/></g>
<g><path style="opacity:1" fill="#2a5f5b" d="M 154.5,85.5 C 155.528,85.9258 156.861,85.9258 158.5,85.5C 149.666,101.175 140.332,116.508 130.5,131.5C 130.565,131.062 130.399,130.728 130,130.5C 128.887,131.305 127.721,131.972 126.5,132.5C 127.82,129.86 129.153,127.193 130.5,124.5C 135.752,116.332 140.752,107.999 145.5,99.5C 148.514,94.7969 151.514,90.1302 154.5,85.5 Z"/></g>
<g><path style="opacity:1" fill="#98f3f7" d="M 64.5,93.5 C 64.8333,93.5 65.1667,93.5 65.5,93.5C 65.5,108.167 65.5,122.833 65.5,137.5C 65.3338,143.509 65.5005,149.509 66,155.5C 66.8372,157.351 67.6705,159.184 68.5,161C 67.9056,161.464 67.2389,161.631 66.5,161.5C 65.5987,160.71 64.9321,159.71 64.5,158.5C 64.5,136.833 64.5,115.167 64.5,93.5 Z"/></g>
<g><path style="opacity:1" fill="#50736f" d="M 31.5,94.5 C 27.0073,110.993 26.3406,127.659 29.5,144.5C 27.9891,142.524 27.1558,140.191 27,137.5C 26.3468,139.564 25.1801,141.231 23.5,142.5C 24.4462,146.358 24.4462,150.358 23.5,154.5C 22.9984,155.521 22.3317,155.688 21.5,155C 19.9825,153.315 18.3159,151.815 16.5,150.5C 20.9584,156.489 26.2917,162.323 32.5,168C 31.8333,168.667 31.1667,168.667 30.5,168C 28.3171,165.65 25.9837,163.483 23.5,161.5C 23.1667,162 22.8333,162.5 22.5,163C 23.2961,164.092 23.9628,165.259 24.5,166.5C 23.4187,168.211 22.0854,169.711 20.5,171C 21.1476,172.44 21.4809,173.94 21.5,175.5C 17.154,167.76 14.154,159.427 12.5,150.5C 13.0616,144.444 13.7282,138.61 14.5,133C 13.552,132.517 12.552,132.351 11.5,132.5C 10.3481,127.886 10.1814,121.219 11,112.5C 11.1858,114.9 11.6858,117.234 12.5,119.5C 12.0321,117.887 12.6987,116.387 14.5,115C 14.8671,113.243 14.0338,111.743 12,110.5C 11.3333,108.5 11.3333,106.5 12,104.5C 12.3333,106.167 12.6667,107.833 13,109.5C 14.3333,110.167 15.3333,111.167 16,112.5C 16.2492,111.376 16.7492,110.376 17.5,109.5C 19.5901,110.542 21.5901,111.376 23.5,112C 21.8076,109.303 19.8076,106.803 17.5,104.5C 17.9767,103.522 18.6433,102.689 19.5,102C 18.572,101.612 17.9054,100.945 17.5,100C 18.5812,98.6293 19.4145,97.1293 20,95.5C 21.1882,96.5634 21.6882,97.8967 21.5,99.5C 22.5,99.5 23.5,99.5 24.5,99.5C 25.1571,96.1592 23.8237,94.1592 20.5,93.5C 21.7906,92.1752 23.1239,90.8419 24.5,89.5C 26.1487,90.6477 27.6487,91.981 29,93.5C 30.4609,92.1175 31.2942,92.4508 31.5,94.5 Z"/></g>
<g><path style="opacity:1" fill="#406863" d="M 130.5,95.5 C 133.654,97.4473 134.321,100.114 132.5,103.5C 129.421,106.65 127.087,110.317 125.5,114.5C 123.399,117.179 121.399,120.012 119.5,123C 116.428,123.8 114.761,122.633 114.5,119.5C 115.167,119.5 115.5,119.167 115.5,118.5C 116.117,118.611 116.617,118.944 117,119.5C 121.723,111.614 126.223,103.614 130.5,95.5 Z"/></g>
<g><path style="opacity:1" fill="#2c3f3b" d="M 41.5,81.5 C 40.763,86.582 39.5963,91.582 38,96.5C 37.3333,97.8333 36.3333,98.8333 35,99.5C 34.323,103.407 33.4896,107.241 32.5,111C 33.4162,111.374 34.2496,111.874 35,112.5C 36.0537,119.149 36.887,125.816 37.5,132.5C 35.8333,132.5 34.1667,132.5 32.5,132.5C 32.6646,135.518 32.498,138.518 32,141.5C 31.8276,135.319 31.3276,129.319 30.5,123.5C 29.1772,112.432 30.8438,101.765 35.5,91.5C 37.9721,88.3813 39.9721,85.0479 41.5,81.5 Z"/></g>
<g><path style="opacity:1" fill="#b9e7e6" d="M 79.5,91.5 C 90.1307,108.073 100.297,125.073 110,142.5C 111.946,145.42 114.113,148.087 116.5,150.5C 117.209,151.404 118.209,151.737 119.5,151.5C 119.672,152.492 119.338,153.158 118.5,153.5C 115.003,152.94 112.503,150.94 111,147.5C 100.46,128.915 89.2937,110.749 77.5,93C 73.6425,92.1901 69.9758,92.3567 66.5,93.5C 66.1667,93.5 65.8333,93.5 65.5,93.5C 65.1667,93.5 64.8333,93.5 64.5,93.5C 64.5,92.5 64.5,91.5 64.5,90.5C 69.5947,90.2213 74.5947,90.5546 79.5,91.5 Z"/></g>
<g><path style="opacity:1" fill="#37b8d2" d="M 75.5,93.5 C 79.007,97.1126 81.507,101.446 83,106.5C 87.3641,110.538 89.3641,115.538 89,121.5C 89.9025,122.701 91.0692,123.535 92.5,124C 91.5838,124.374 90.7504,124.874 90,125.5C 88.5557,123.845 86.7224,123.178 84.5,123.5C 82.773,118.382 79.4396,116.382 74.5,117.5C 72.549,117.227 71.049,117.893 70,119.5C 69.8247,124.019 69.3247,128.353 68.5,132.5C 68.0599,123.824 69.0599,115.324 71.5,107C 71.1667,105.5 70.8333,104 70.5,102.5C 69.914,102.709 69.414,103.043 69,103.5C 68.5034,101.19 68.3367,98.8568 68.5,96.5C 71.461,96.5358 73.7943,95.5358 75.5,93.5 Z"/></g>
<g><path style="opacity:1" fill="#40b0cc" d="M 65.5,93.5 C 65.8333,93.5 66.1667,93.5 66.5,93.5C 66.3334,106.837 66.5001,120.171 67,133.5C 67.3826,132.944 67.8826,132.611 68.5,132.5C 68.8789,137.297 68.3789,141.964 67,146.5C 66.8195,143.305 66.3195,140.305 65.5,137.5C 65.5,122.833 65.5,108.167 65.5,93.5 Z"/></g>
<g><path style="opacity:1" fill="#0e88ab" d="M 161.5,88.5 C 165.042,88.1872 168.375,88.5206 171.5,89.5C 171.5,109.833 171.5,130.167 171.5,150.5C 170.25,150.423 169.417,149.756 169,148.5C 168.625,135.793 167.792,123.126 166.5,110.5C 166.818,109.353 167.484,108.519 168.5,108C 167.207,107.51 165.873,107.343 164.5,107.5C 165.932,104.018 166.932,100.518 167.5,97C 167.167,96.1667 166.833,95.3333 166.5,94.5C 165.667,95.5 164.833,96.5 164,97.5C 162.617,94.6318 161.784,91.6318 161.5,88.5 Z"/></g>
<g><path style="opacity:1" fill="#55746e" d="M 225.5,114.5 C 226.991,116.871 227.991,119.538 228.5,122.5C 228.291,123.086 227.957,123.586 227.5,124C 228.584,126.825 229.751,126.992 231,124.5C 232.789,126.229 234.956,126.896 237.5,126.5C 237.657,125.127 237.49,123.793 237,122.5C 236.111,123.888 235.611,123.722 235.5,122C 236.742,120.349 237.576,118.515 238,116.5C 238.383,117.056 238.883,117.389 239.5,117.5C 239.934,128.779 238.934,139.779 236.5,150.5C 236.799,148.396 236.466,146.396 235.5,144.5C 234.478,144.855 233.811,145.522 233.5,146.5C 230.994,144.682 229.328,142.182 228.5,139C 229.308,138.692 229.975,138.192 230.5,137.5C 229.754,136.264 229.421,134.93 229.5,133.5C 226.795,133.62 226.128,132.62 227.5,130.5C 227.043,129.702 226.376,129.369 225.5,129.5C 225.5,124.5 225.5,119.5 225.5,114.5 Z"/></g>
<g><path style="opacity:1" fill="#75e1e2" d="M 158.5,85.5 C 163.5,85.5 168.5,85.5 173.5,85.5C 173.831,110.006 173.498,134.339 172.5,158.5C 172.831,135.327 172.498,112.327 171.5,89.5C 168.375,88.5206 165.042,88.1872 161.5,88.5C 150.55,102.357 141.05,117.357 133,133.5C 131.147,135.903 129.314,138.236 127.5,140.5C 127.833,139.167 128.167,137.833 128.5,136.5C 129.441,134.95 130.107,133.284 130.5,131.5C 140.332,116.508 149.666,101.175 158.5,85.5 Z"/></g>
<g><path style="opacity:1" fill="#169cbb" d="M 161.5,88.5 C 161.784,91.6318 162.617,94.6318 164,97.5C 164.833,96.5 165.667,95.5 166.5,94.5C 166.833,95.3333 167.167,96.1667 167.5,97C 166.932,100.518 165.932,104.018 164.5,107.5C 165.873,107.343 167.207,107.51 168.5,108C 167.484,108.519 166.818,109.353 166.5,110.5C 167.792,123.126 168.625,135.793 169,148.5C 169.417,149.756 170.25,150.423 171.5,150.5C 171.5,150.833 171.5,151.167 171.5,151.5C 169.856,151.286 168.356,151.62 167,152.5C 166.833,151.833 166.667,151.167 166.5,150.5C 167.122,147.628 167.455,144.794 167.5,142C 166.991,140.831 166.158,139.998 165,139.5C 163.975,130.514 163.141,121.514 162.5,112.5C 164.623,109.43 164.29,106.43 161.5,103.5C 160.614,104.325 160.281,105.325 160.5,106.5C 157.975,105.108 155.808,105.442 154,107.5C 153.667,106.167 153.333,104.833 153,103.5C 151.824,105.196 150.657,106.862 149.5,108.5C 141.848,122.47 133.681,136.137 125,149.5C 124.162,150.999 123.329,151.332 122.5,150.5C 123.653,146.861 125.319,143.528 127.5,140.5C 129.314,138.236 131.147,135.903 133,133.5C 141.05,117.357 150.55,102.357 161.5,88.5 Z"/></g>
<g><path style="opacity:1" fill="#82a1a0" d="M 35.5,91.5 C 30.8438,101.765 29.1772,112.432 30.5,123.5C 30.3338,129.842 30.5005,136.175 31,142.5C 32.5584,148.742 34.725,154.742 37.5,160.5C 36.8333,160.5 36.1667,160.5 35.5,160.5C 32.8935,155.341 30.8935,150.008 29.5,144.5C 26.3406,127.659 27.0073,110.993 31.5,94.5C 32.8503,93.5169 33.8503,92.1836 34.5,90.5C 35.1067,90.6236 35.44,90.9569 35.5,91.5 Z"/></g>
<g><path style="opacity:1" fill="#6cdcd2" d="M 63.5,89.5 C 69.2709,88.8872 74.6042,89.5539 79.5,91.5C 74.5947,90.5546 69.5947,90.2213 64.5,90.5C 64.5,91.5 64.5,92.5 64.5,93.5C 64.5,115.167 64.5,136.833 64.5,158.5C 63.5025,135.673 63.1692,112.673 63.5,89.5 Z"/></g>
<g><path style="opacity:1" fill="#3ed5df" d="M 171.5,89.5 C 172.498,112.327 172.831,135.327 172.5,158.5C 170.301,163.706 166.634,167.706 161.5,170.5C 160.833,153.005 160.167,135.671 159.5,118.5C 156.112,118.188 153.612,119.521 152,122.5C 142.5,138 133,153.5 123.5,169C 119.167,169.667 114.833,169.667 110.5,169C 109.177,168.184 108.511,167.017 108.5,165.5C 108.435,165.062 108.601,164.728 109,164.5C 109.834,167.259 111.334,168.259 113.5,167.5C 115.607,166.532 117.941,166.198 120.5,166.5C 119.09,163.05 118.424,159.384 118.5,155.5C 117.448,155.649 116.448,155.483 115.5,155C 116.737,154.768 117.737,154.268 118.5,153.5C 119.338,153.158 119.672,152.492 119.5,151.5C 120.167,151.167 120.833,150.833 121.5,150.5C 121.586,151.496 121.252,152.329 120.5,153C 121.449,153.617 122.282,153.451 123,152.5C 122.805,154.126 122.805,155.793 123,157.5C 123.718,158.451 124.551,158.617 125.5,158C 133.461,146.693 140.628,134.859 147,122.5C 149.688,119.812 152.355,117.145 155,114.5C 156.138,114.989 157.305,115.322 158.5,115.5C 159.794,116.29 160.961,117.29 162,118.5C 162.167,134.51 162.667,150.51 163.5,166.5C 168.532,162.769 171.199,157.769 171.5,151.5C 171.5,151.167 171.5,150.833 171.5,150.5C 171.5,130.167 171.5,109.833 171.5,89.5 Z"/></g>
<g><path style="opacity:1" fill="#64e6e9" d="M 84.5,123.5 C 93.683,138.546 103.35,153.213 113.5,167.5C 111.334,168.259 109.834,167.259 109,164.5C 108.601,164.728 108.435,165.062 108.5,165.5C 99.4661,151.934 90.9661,137.934 83,123.5C 81.1482,119.923 78.4815,118.923 75,120.5C 74.8329,136.177 74.3329,151.844 73.5,167.5C 72.0986,166.479 70.7653,165.479 69.5,164.5C 70.209,163.596 71.209,163.263 72.5,163.5C 72.9856,148.13 73.6523,132.796 74.5,117.5C 79.4396,116.382 82.773,118.382 84.5,123.5 Z"/></g>
<g><path style="opacity:1" fill="#a4cecc" d="M 157.5,119.5 C 157.5,120.167 157.5,120.833 157.5,121.5C 156.833,122.5 156.167,123.5 155.5,124.5C 148.013,135.462 141.013,146.796 134.5,158.5C 131.547,163.565 128.213,168.399 124.5,173C 118.319,173.819 112.319,173.653 106.5,172.5C 112.5,171.833 118.5,171.167 124.5,170.5C 133.569,156.912 142.069,142.912 150,128.5C 152.417,125.266 154.917,122.266 157.5,119.5 Z"/></g>
<g><path style="opacity:1" fill="#8cb6b1" d="M 59.5,110.5 C 59.1709,124.677 59.5042,138.677 60.5,152.5C 61.6986,160.564 66.0319,166.23 73.5,169.5C 73.9175,170.222 74.5842,170.722 75.5,171C 73.8333,171.667 72.1667,171.667 70.5,171C 62.4682,166.108 58.1348,158.942 57.5,149.5C 56.6573,132.173 56.4906,114.839 57,97.5C 57.3333,97.1667 57.6667,96.8333 58,96.5C 58.1745,101.351 58.6745,106.018 59.5,110.5 Z"/></g>
<g><path style="opacity:1" fill="#49645e" d="M 225.5,129.5 C 226.376,129.369 227.043,129.702 227.5,130.5C 226.128,132.62 226.795,133.62 229.5,133.5C 229.421,134.93 229.754,136.264 230.5,137.5C 229.975,138.192 229.308,138.692 228.5,139C 229.328,142.182 230.994,144.682 233.5,146.5C 232.56,148.572 231.06,150.239 229,151.5C 227.951,149.893 226.451,149.227 224.5,149.5C 224.784,147.585 224.451,145.919 223.5,144.5C 223.612,139.386 224.279,134.386 225.5,129.5 Z"/></g>
<g><path style="opacity:1" fill="#44cce0" d="M 66.5,93.5 C 69.9758,92.3567 73.6425,92.1901 77.5,93C 89.2937,110.749 100.46,128.915 111,147.5C 112.503,150.94 115.003,152.94 118.5,153.5C 117.737,154.268 116.737,154.768 115.5,155C 116.448,155.483 117.448,155.649 118.5,155.5C 118.424,159.384 119.09,163.05 120.5,166.5C 117.941,166.198 115.607,166.532 113.5,167.5C 103.35,153.213 93.683,138.546 84.5,123.5C 86.7224,123.178 88.5557,123.845 90,125.5C 90.7504,124.874 91.5838,124.374 92.5,124C 91.0692,123.535 89.9025,122.701 89,121.5C 89.3641,115.538 87.3641,110.538 83,106.5C 81.507,101.446 79.007,97.1126 75.5,93.5C 72.5,93.5 69.5,93.5 66.5,93.5 Z"/></g>
<g><path style="opacity:1" fill="#17c9e2" d="M 149.5,108.5 C 150.163,110.042 150.83,111.709 151.5,113.5C 154.99,110.419 157.323,111.085 158.5,115.5C 157.305,115.322 156.138,114.989 155,114.5C 152.355,117.145 149.688,119.812 147,122.5C 140.628,134.859 133.461,146.693 125.5,158C 124.551,158.617 123.718,158.451 123,157.5C 122.805,155.793 122.805,154.126 123,152.5C 122.282,153.451 121.449,153.617 120.5,153C 121.252,152.329 121.586,151.496 121.5,150.5C 121.833,150.5 122.167,150.5 122.5,150.5C 123.329,151.332 124.162,150.999 125,149.5C 133.681,136.137 141.848,122.47 149.5,108.5 Z"/></g>
<g><path style="opacity:1" fill="#749e9a" d="M 200.5,127.5 C 199.819,141.519 196.152,154.519 189.5,166.5C 189.657,165.127 189.49,163.793 189,162.5C 187.167,161.333 185.667,159.833 184.5,158C 183.328,157.647 182.162,157.813 181,158.5C 179.697,158.022 178.531,157.355 177.5,156.5C 177.545,147.929 177.712,139.262 178,130.5C 178.333,130.167 178.667,129.833 179,129.5C 180.128,131.345 180.628,133.345 180.5,135.5C 182.891,134.592 185.224,134.426 187.5,135C 187.509,133.27 187.842,131.437 188.5,129.5C 190.667,129.173 193.001,128.506 195.5,127.5C 195.424,130.767 196.757,132.101 199.5,131.5C 196.587,129.099 196.921,127.766 200.5,127.5 Z"/></g>
<g><path style="opacity:1" fill="#5b7a77" d="M 220.5,101.5 C 221,109.487 221.333,117.487 221.5,125.5C 221.668,133.722 221.001,141.722 219.5,149.5C 219.631,148.624 219.298,147.957 218.5,147.5C 217.168,151.494 215.834,155.494 214.5,159.5C 210.555,161.604 206.721,163.937 203,166.5C 198.293,164.91 198.46,163.744 203.5,163C 202.552,162.517 201.552,162.351 200.5,162.5C 200.5,161.5 200.5,160.5 200.5,159.5C 201.833,159.5 203.167,159.5 204.5,159.5C 204.649,158.448 204.483,157.448 204,156.5C 203.282,157.451 202.449,157.617 201.5,157C 202.517,155.951 202.684,154.784 202,153.5C 200.472,156.417 199.139,159.417 198,162.5C 197.925,160.065 197.092,159.398 195.5,160.5C 198.102,154.332 200.269,147.999 202,141.5C 202.497,139.19 202.663,136.857 202.5,134.5C 203.327,129.015 203.827,123.348 204,117.5C 205.163,119.285 205.83,121.285 206,123.5C 207,124.167 208,124.833 209,125.5C 208.68,122.54 208.68,119.54 209,116.5C 209.333,118.167 209.667,119.833 210,121.5C 211.667,120.5 213.333,119.5 215,118.5C 215.667,119.167 216.333,119.833 217,120.5C 218.602,117.763 219.436,114.763 219.5,111.5C 218.531,106.842 218.031,102.176 218,97.5C 218.934,98.8584 219.768,100.192 220.5,101.5 Z"/></g>
<g><path style="opacity:1" fill="#7d9c97" d="M 206.5,136.5 C 215.041,136.804 215.708,139.47 208.5,144.5C 206.946,142.067 206.28,139.4 206.5,136.5 Z"/></g>
<g><path style="opacity:1" fill="#7ba6a2" d="M 77.5,125.5 C 81.7814,131.11 85.6147,137.11 89,143.5C 89.6543,144.696 90.1543,144.696 90.5,143.5C 89.8728,142.583 89.5394,141.583 89.5,140.5C 91.5711,144.303 93.9044,147.97 96.5,151.5C 99.4483,158.094 102.782,164.427 106.5,170.5C 112.5,170.5 118.5,170.5 124.5,170.5C 118.5,171.167 112.5,171.833 106.5,172.5C 101.108,164.735 95.9416,156.735 91,148.5C 86.9866,147.961 82.82,147.961 78.5,148.5C 78.6663,155.508 78.4996,162.508 78,169.5C 77.5001,154.837 77.3334,140.17 77.5,125.5 Z"/></g>
<g><path style="opacity:1" fill="#7aa6a4" d="M 103.5,102.5 C 103.833,102.5 104.167,102.5 104.5,102.5C 108.114,108.07 111.447,113.737 114.5,119.5C 114.761,122.633 116.428,123.8 119.5,123C 121.399,120.012 123.399,117.179 125.5,114.5C 124.587,117.223 123.92,119.723 123.5,122C 124.5,122.5 125.5,123 126.5,123.5C 128.219,122.211 129.553,122.545 130.5,124.5C 129.153,127.193 127.82,129.86 126.5,132.5C 125.11,133.899 124.11,135.566 123.5,137.5C 120.938,140.942 118.605,144.609 116.5,148.5C 111.465,141.065 106.798,133.399 102.5,125.5C 103.314,123.369 103.814,121.036 104,118.5C 104.726,122.979 106.726,123.979 110,121.5C 111.3,122.452 112.467,122.452 113.5,121.5C 111.582,117.996 109.416,114.663 107,111.5C 106.333,112.167 105.667,112.833 105,113.5C 104.349,111.765 104.515,110.098 105.5,108.5C 105.154,107.304 104.654,107.304 104,108.5C 103.505,106.527 103.338,104.527 103.5,102.5 Z"/></g>
<g><path style="opacity:1" fill="#86afab" d="M 157.5,121.5 C 157.896,138.871 157.396,156.205 156,173.5C 155.5,157.17 155.333,140.837 155.5,124.5C 156.167,123.5 156.833,122.5 157.5,121.5 Z"/></g>
<g><path style="opacity:1" fill="#638b88" d="M 156.5,82.5 C 162.979,81.5093 169.646,81.176 176.5,81.5C 176.5,97.5 176.5,113.5 176.5,129.5C 176.826,137.684 176.492,145.684 175.5,153.5C 175.5,129.833 175.5,106.167 175.5,82.5C 169.167,82.5 162.833,82.5 156.5,82.5 Z"/></g>
<g><path style="opacity:1" fill="#355d54" d="M 79.5,87.5 C 87.1522,100.131 94.8189,112.798 102.5,125.5C 106.798,133.399 111.465,141.065 116.5,148.5C 118.605,144.609 120.938,140.942 123.5,137.5C 122.432,142.643 120.099,146.976 116.5,150.5C 114.113,148.087 111.946,145.42 110,142.5C 100.297,125.073 90.1307,108.073 79.5,91.5C 74.6042,89.5539 69.2709,88.8872 63.5,89.5C 68.8333,88.8333 74.1667,88.1667 79.5,87.5 Z"/></g>
<g><path style="opacity:1" fill="#7d9e9b" d="M 235.5,96.5 C 235.833,97.8333 236.167,99.1667 236.5,100.5C 235.686,102.631 235.186,104.964 235,107.5C 233.415,108.376 232.415,109.709 232,111.5C 230.605,110.185 229.605,110.519 229,112.5C 227.47,110.774 226.47,108.774 226,106.5C 225.503,109.146 225.336,111.813 225.5,114.5C 225.5,119.5 225.5,124.5 225.5,129.5C 224.279,134.386 223.612,139.386 223.5,144.5C 221.968,151.236 220.135,157.903 218,164.5C 215.232,169.704 212.732,175.037 210.5,180.5C 209.833,180.5 209.5,180.833 209.5,181.5C 208.903,181.265 208.57,180.765 208.5,180C 213.269,170.189 216.936,160.022 219.5,149.5C 221.001,141.722 221.668,133.722 221.5,125.5C 221.333,117.487 221,109.487 220.5,101.5C 221.574,106.349 222.574,111.349 223.5,116.5C 224.489,112.893 224.823,109.226 224.5,105.5C 224.347,99.6761 225.013,99.3428 226.5,104.5C 227.428,102.665 228.594,102.332 230,103.5C 231.697,100.98 233.53,98.6467 235.5,96.5 Z"/></g>
<g><path style="opacity:1" fill="#435f5c" d="M 40.5,121.5 C 40.2487,127.892 40.582,134.225 41.5,140.5C 43.1599,149.975 45.8266,159.142 49.5,168C 49.1667,168.833 48.8333,169.667 48.5,170.5C 46.6826,166.756 43.6826,164.756 39.5,164.5C 38.8333,163.167 38.1667,161.833 37.5,160.5C 34.725,154.742 32.5584,148.742 31,142.5C 30.5005,136.175 30.3338,129.842 30.5,123.5C 31.3276,129.319 31.8276,135.319 32,141.5C 32.498,138.518 32.6646,135.518 32.5,132.5C 34.1667,132.5 35.8333,132.5 37.5,132.5C 37.1814,134.75 37.6814,136.75 39,138.5C 39.1728,132.652 39.6728,126.985 40.5,121.5 Z"/></g>
<g><path style="opacity:1" fill="#3e554f" d="M 236.5,150.5 C 235.141,155.938 233.474,161.272 231.5,166.5C 232.014,164.488 232.18,162.488 232,160.5C 230.853,161.458 229.853,161.125 229,159.5C 228.667,160.167 228.333,160.833 228,161.5C 223.554,158.523 222.387,154.523 224.5,149.5C 226.451,149.227 227.951,149.893 229,151.5C 231.06,150.239 232.56,148.572 233.5,146.5C 233.811,145.522 234.478,144.855 235.5,144.5C 236.466,146.396 236.799,148.396 236.5,150.5 Z"/></g>
<g><path style="opacity:1" fill="#4bcadd" d="M 74.5,117.5 C 73.6523,132.796 72.9856,148.13 72.5,163.5C 71.209,163.263 70.209,163.596 69.5,164.5C 68.1667,163.833 67.1667,162.833 66.5,161.5C 67.2389,161.631 67.9056,161.464 68.5,161C 67.6705,159.184 66.8372,157.351 66,155.5C 65.5005,149.509 65.3338,143.509 65.5,137.5C 66.3195,140.305 66.8195,143.305 67,146.5C 68.3789,141.964 68.8789,137.297 68.5,132.5C 69.3247,128.353 69.8247,124.019 70,119.5C 71.049,117.893 72.549,117.227 74.5,117.5 Z"/></g>
<g><path style="opacity:1" fill="#6b8883" d="M 96.5,151.5 C 101.516,156.875 104.849,163.208 106.5,170.5C 102.782,164.427 99.4483,158.094 96.5,151.5 Z"/></g>
<g><path style="opacity:1" fill="#4d6d68" d="M 29.5,144.5 C 30.8935,150.008 32.8935,155.341 35.5,160.5C 41.4012,174.416 50.0679,186.416 61.5,196.5C 58.0554,194.548 54.722,192.714 51.5,191C 50.6433,191.689 49.9767,192.522 49.5,193.5C 50.9337,194.23 52.1004,195.23 53,196.5C 53.3333,196.167 53.6667,195.833 54,195.5C 54.4935,197.134 54.6602,198.801 54.5,200.5C 57.5959,199.907 59.9292,200.907 61.5,203.5C 58.8322,204.738 56.1655,204.738 53.5,203.5C 51.6239,204.875 49.6239,206.042 47.5,207C 49.0629,207.759 50.0629,208.926 50.5,210.5C 38.2592,200.93 28.5926,189.263 21.5,175.5C 21.4809,173.94 21.1476,172.44 20.5,171C 22.0854,169.711 23.4187,168.211 24.5,166.5C 23.9628,165.259 23.2961,164.092 22.5,163C 22.8333,162.5 23.1667,162 23.5,161.5C 25.9837,163.483 28.3171,165.65 30.5,168C 31.1667,168.667 31.8333,168.667 32.5,168C 26.2917,162.323 20.9584,156.489 16.5,150.5C 18.3159,151.815 19.9825,153.315 21.5,155C 22.3317,155.688 22.9984,155.521 23.5,154.5C 24.4462,150.358 24.4462,146.358 23.5,142.5C 25.1801,141.231 26.3468,139.564 27,137.5C 27.1558,140.191 27.9891,142.524 29.5,144.5 Z"/></g>
<g><path style="opacity:1" fill="#315d59" d="M 70.5,84.5 C 67.3107,85.1661 63.9773,85.8328 60.5,86.5C 61.548,87.548 62.548,88.548 63.5,89.5C 63.1692,112.673 63.5025,135.673 64.5,158.5C 64.9321,159.71 65.5987,160.71 66.5,161.5C 67.1667,162.833 68.1667,163.833 69.5,164.5C 70.7653,165.479 72.0986,166.479 73.5,167.5C 74.3329,151.844 74.8329,136.177 75,120.5C 78.4815,118.923 81.1482,119.923 83,123.5C 90.9661,137.934 99.4661,151.934 108.5,165.5C 108.511,167.017 109.177,168.184 110.5,169C 114.833,169.667 119.167,169.667 123.5,169C 133,153.5 142.5,138 152,122.5C 153.612,119.521 156.112,118.188 159.5,118.5C 159.5,136.5 159.5,154.5 159.5,172.5C 158.833,154.833 158.167,137.167 157.5,119.5C 154.917,122.266 152.417,125.266 150,128.5C 142.069,142.912 133.569,156.912 124.5,170.5C 118.5,170.5 112.5,170.5 106.5,170.5C 104.849,163.208 101.516,156.875 96.5,151.5C 93.9044,147.97 91.5711,144.303 89.5,140.5C 86.8359,133.829 83.1692,127.829 78.5,122.5C 78.44,121.957 78.1067,121.624 77.5,121.5C 76.5006,137.486 76.1672,153.486 76.5,169.5C 75.5,169.5 74.5,169.5 73.5,169.5C 66.0319,166.23 61.6986,160.564 60.5,152.5C 61.0895,141.851 61.4229,131.184 61.5,120.5C 61.4981,111.473 60.8315,102.807 59.5,94.5C 59.5,91.1667 59.5,87.8333 59.5,84.5C 63.1667,84.5 66.8333,84.5 70.5,84.5 Z"/></g>
<g><path style="opacity:1" fill="#9bd1d2" d="M 128.5,136.5 C 128.167,137.833 127.833,139.167 127.5,140.5C 125.319,143.528 123.653,146.861 122.5,150.5C 122.167,150.5 121.833,150.5 121.5,150.5C 120.833,150.833 120.167,151.167 119.5,151.5C 122.252,146.326 125.252,141.326 128.5,136.5 Z"/></g>
<g><path style="opacity:1" fill="#1e423e" d="M 130.5,131.5 C 130.107,133.284 129.441,134.95 128.5,136.5C 125.252,141.326 122.252,146.326 119.5,151.5C 118.209,151.737 117.209,151.404 116.5,150.5C 120.099,146.976 122.432,142.643 123.5,137.5C 124.11,135.566 125.11,133.899 126.5,132.5C 127.721,131.972 128.887,131.305 130,130.5C 130.399,130.728 130.565,131.062 130.5,131.5 Z"/></g>
<g><path style="opacity:1" fill="#99c0bb" d="M 78.5,122.5 C 83.1692,127.829 86.8359,133.829 89.5,140.5C 89.5394,141.583 89.8728,142.583 90.5,143.5C 90.1543,144.696 89.6543,144.696 89,143.5C 85.6147,137.11 81.7814,131.11 77.5,125.5C 77.2627,124.209 77.596,123.209 78.5,122.5 Z"/></g>
<g><path style="opacity:1" fill="#418e92" d="M 173.5,85.5 C 174.167,108.167 174.833,130.833 175.5,153.5C 175.657,154.873 175.49,156.207 175,157.5C 172.445,165.343 167.278,170.343 159.5,172.5C 159.5,154.5 159.5,136.5 159.5,118.5C 160.167,135.671 160.833,153.005 161.5,170.5C 166.634,167.706 170.301,163.706 172.5,158.5C 173.498,134.339 173.831,110.006 173.5,85.5 Z"/></g>
<g><path style="opacity:1" fill="#84a5a3" d="M 199.5,108.5 C 201.045,109.23 201.878,110.563 202,112.5C 202.5,119.826 202.666,127.159 202.5,134.5C 202.663,136.857 202.497,139.19 202,141.5C 200.269,147.999 198.102,154.332 195.5,160.5C 191.426,166.976 187.592,173.643 184,180.5C 178.909,186.098 173.409,191.098 167.5,195.5C 167.062,195.565 166.728,195.399 166.5,195C 176.246,187.096 183.913,177.596 189.5,166.5C 196.152,154.519 199.819,141.519 200.5,127.5C 200.443,121.149 200.11,114.815 199.5,108.5 Z"/></g>
<g><path style="opacity:1" fill="#6a918e" d="M 157.5,119.5 C 158.167,137.167 158.833,154.833 159.5,172.5C 158.15,173.65 158.316,174.317 160,174.5C 168.716,171.284 174.55,165.284 177.5,156.5C 178.531,157.355 179.697,158.022 181,158.5C 182.162,157.813 183.328,157.647 184.5,158C 185.667,159.833 187.167,161.333 189,162.5C 189.49,163.793 189.657,165.127 189.5,166.5C 183.913,177.596 176.246,187.096 166.5,195C 166.728,195.399 167.062,195.565 167.5,195.5C 166.893,198.401 165.559,200.734 163.5,202.5C 163.158,201.662 162.492,201.328 161.5,201.5C 152.669,205.254 143.669,208.421 134.5,211C 133.944,211.383 133.611,211.883 133.5,212.5C 130.167,212.833 126.833,213.167 123.5,213.5C 111.108,214.29 99.1082,212.956 87.5,209.5C 90.0593,209.802 92.3926,209.468 94.5,208.5C 103.634,211.077 112.967,211.91 122.5,211C 124.406,209.144 125.24,206.977 125,204.5C 122.957,206.208 121.29,208.208 120,210.5C 117.692,209.359 115.859,207.692 114.5,205.5C 107.8,204.832 101.133,203.999 94.5,203C 88.3612,199.619 82.0278,196.619 75.5,194C 73.8063,192.061 71.973,190.228 70,188.5C 69.5172,187.552 69.3505,186.552 69.5,185.5C 71.604,185.799 73.604,185.466 75.5,184.5C 69.7741,177.428 70.4408,176.261 77.5,181C 79.235,181.651 80.9017,181.485 82.5,180.5C 86.0157,181.986 89.6824,183.153 93.5,184C 93.8333,184.333 94.1667,184.667 94.5,185C 91.1134,184.005 88.1134,184.838 85.5,187.5C 84.6721,186.585 83.6721,185.919 82.5,185.5C 79.7398,185.758 77.4064,186.758 75.5,188.5C 76.3333,188.833 77.1667,189.167 78,189.5C 79.5852,188.755 81.0852,188.255 82.5,188C 82.8333,188.333 83.1667,188.667 83.5,189C 80.6667,190.833 80.8333,192.333 84,193.5C 86.6336,188.106 90.8002,185.772 96.5,186.5C 96.1667,185.833 95.8333,185.167 95.5,184.5C 96.8848,183.449 97.8848,182.116 98.5,180.5C 101.77,179.808 105.103,179.808 108.5,180.5C 108.5,178.833 108.5,177.167 108.5,175.5C 111.015,176.164 113.181,177.497 115,179.5C 115.492,178.451 115.326,177.451 114.5,176.5C 115.325,175.614 116.325,175.281 117.5,175.5C 117.128,178.022 117.961,180.022 120,181.5C 120.851,172.483 122.351,172.483 124.5,181.5C 126.144,181.714 127.644,181.38 129,180.5C 130.46,177.765 131.627,174.932 132.5,172C 134.126,172.195 135.793,172.195 137.5,172C 139.043,170.122 140.876,168.622 143,167.5C 143.667,166.5 143.667,165.5 143,164.5C 142.282,165.451 141.449,165.617 140.5,165C 141.622,163.387 141.122,162.22 139,161.5C 138.517,162.448 138.351,163.448 138.5,164.5C 137.5,164.5 136.5,164.5 135.5,164.5C 135.795,162.265 135.461,160.265 134.5,158.5C 141.013,146.796 148.013,135.462 155.5,124.5C 155.333,140.837 155.5,157.17 156,173.5C 157.396,156.205 157.896,138.871 157.5,121.5C 157.5,120.833 157.5,120.167 157.5,119.5 Z"/></g>
<g><path style="opacity:1" fill="#476560" d="M 206.5,185.5 C 205.89,186.391 205.557,187.391 205.5,188.5C 198.996,194.5 192.496,200.833 186,207.5C 185.308,208.437 185.475,209.103 186.5,209.5C 172.722,220.055 157.389,227.389 140.5,231.5C 135.489,231.666 130.489,231.499 125.5,231C 128.55,230.321 131.55,229.488 134.5,228.5C 143.688,229.932 151.354,226.765 157.5,219C 155.43,218.052 153.93,216.552 153,214.5C 151.951,215.517 150.784,215.684 149.5,215C 149.943,213.482 149.276,212.315 147.5,211.5C 146.808,212.025 146.308,212.692 146,213.5C 145,210.833 144,210.833 143,213.5C 142.085,212.672 141.419,211.672 141,210.5C 138.564,211.355 136.064,212.021 133.5,212.5C 133.611,211.883 133.944,211.383 134.5,211C 143.669,208.421 152.669,205.254 161.5,201.5C 161.963,204.33 162.629,206.997 163.5,209.5C 163.293,212.127 164.46,213.793 167,214.5C 168.611,212.79 170.111,210.957 171.5,209C 174.249,206.577 177.249,204.577 180.5,203C 182.12,200.318 183.954,197.818 186,195.5C 187.067,194.809 188.234,194.309 189.5,194C 192.659,189.841 196.159,186.008 200,182.5C 200.561,183.022 201.228,183.355 202,183.5C 204.005,182.161 205.672,180.495 207,178.5C 207.458,181.096 206.625,183.263 204.5,185C 205.094,185.464 205.761,185.631 206.5,185.5 Z"/></g>
<g><path style="opacity:1" fill="#a2bdbc" d="M 35.5,160.5 C 36.1667,160.5 36.8333,160.5 37.5,160.5C 38.1667,161.833 38.8333,163.167 39.5,164.5C 43.7799,169.79 48.1132,175.123 52.5,180.5C 59.1478,183.304 64.4812,187.804 68.5,194C 72.5,196.667 76.5,199.333 80.5,202C 85.3774,203.942 90.0441,206.108 94.5,208.5C 92.3926,209.468 90.0593,209.802 87.5,209.5C 78.3275,206.247 69.6608,201.914 61.5,196.5C 50.0679,186.416 41.4012,174.416 35.5,160.5 Z"/></g>
<g><path style="opacity:1" fill="#2e3f3a" d="M 223.5,144.5 C 224.451,145.919 224.784,147.585 224.5,149.5C 222.387,154.523 223.554,158.523 228,161.5C 228.333,160.833 228.667,160.167 229,159.5C 229.853,161.125 230.853,161.458 232,160.5C 232.18,162.488 232.014,164.488 231.5,166.5C 227.367,176.767 221.7,186.1 214.5,194.5C 213.377,192.482 213.377,190.482 214.5,188.5C 213.313,187.481 212.313,186.314 211.5,185C 212.576,183.274 212.743,181.441 212,179.5C 211.617,180.056 211.117,180.389 210.5,180.5C 212.732,175.037 215.232,169.704 218,164.5C 220.135,157.903 221.968,151.236 223.5,144.5 Z"/></g>
<g><path style="opacity:1" fill="#506e6c" d="M 219.5,149.5 C 216.936,160.022 213.269,170.189 208.5,180C 208.57,180.765 208.903,181.265 209.5,181.5C 208.488,182.872 207.488,184.205 206.5,185.5C 205.761,185.631 205.094,185.464 204.5,185C 206.625,183.263 207.458,181.096 207,178.5C 205.672,180.495 204.005,182.161 202,183.5C 201.228,183.355 200.561,183.022 200,182.5C 196.159,186.008 192.659,189.841 189.5,194C 188.234,194.309 187.067,194.809 186,195.5C 183.954,197.818 182.12,200.318 180.5,203C 177.249,204.577 174.249,206.577 171.5,209C 170.111,210.957 168.611,212.79 167,214.5C 164.46,213.793 163.293,212.127 163.5,209.5C 163.877,207.742 164.544,206.075 165.5,204.5C 164.757,203.818 164.091,203.151 163.5,202.5C 165.559,200.734 166.893,198.401 167.5,195.5C 173.409,191.098 178.909,186.098 184,180.5C 187.592,173.643 191.426,166.976 195.5,160.5C 197.092,159.398 197.925,160.065 198,162.5C 199.139,159.417 200.472,156.417 202,153.5C 202.684,154.784 202.517,155.951 201.5,157C 202.449,157.617 203.282,157.451 204,156.5C 204.483,157.448 204.649,158.448 204.5,159.5C 203.167,159.5 201.833,159.5 200.5,159.5C 200.5,160.5 200.5,161.5 200.5,162.5C 201.552,162.351 202.552,162.517 203.5,163C 198.46,163.744 198.293,164.91 203,166.5C 206.721,163.937 210.555,161.604 214.5,159.5C 215.834,155.494 217.168,151.494 218.5,147.5C 219.298,147.957 219.631,148.624 219.5,149.5 Z"/></g>
<g><path style="opacity:1" fill="#688e8a" d="M 78.5,122.5 C 77.596,123.209 77.2627,124.209 77.5,125.5C 77.3334,140.17 77.5001,154.837 78,169.5C 78.4996,162.508 78.6663,155.508 78.5,148.5C 82.82,147.961 86.9866,147.961 91,148.5C 95.9416,156.735 101.108,164.735 106.5,172.5C 112.319,173.653 118.319,173.819 124.5,173C 128.213,168.399 131.547,163.565 134.5,158.5C 135.461,160.265 135.795,162.265 135.5,164.5C 136.5,164.5 137.5,164.5 138.5,164.5C 138.351,163.448 138.517,162.448 139,161.5C 141.122,162.22 141.622,163.387 140.5,165C 141.449,165.617 142.282,165.451 143,164.5C 143.667,165.5 143.667,166.5 143,167.5C 140.876,168.622 139.043,170.122 137.5,172C 135.793,172.195 134.126,172.195 132.5,172C 131.627,174.932 130.46,177.765 129,180.5C 127.644,181.38 126.144,181.714 124.5,181.5C 122.351,172.483 120.851,172.483 120,181.5C 117.961,180.022 117.128,178.022 117.5,175.5C 116.325,175.281 115.325,175.614 114.5,176.5C 115.326,177.451 115.492,178.451 115,179.5C 113.181,177.497 111.015,176.164 108.5,175.5C 108.5,177.167 108.5,178.833 108.5,180.5C 105.103,179.808 101.77,179.808 98.5,180.5C 97.8848,182.116 96.8848,183.449 95.5,184.5C 95.8333,185.167 96.1667,185.833 96.5,186.5C 90.8002,185.772 86.6336,188.106 84,193.5C 80.8333,192.333 80.6667,190.833 83.5,189C 83.1667,188.667 82.8333,188.333 82.5,188C 81.0852,188.255 79.5852,188.755 78,189.5C 77.1667,189.167 76.3333,188.833 75.5,188.5C 77.4064,186.758 79.7398,185.758 82.5,185.5C 83.6721,185.919 84.6721,186.585 85.5,187.5C 88.1134,184.838 91.1134,184.005 94.5,185C 94.1667,184.667 93.8333,184.333 93.5,184C 89.6824,183.153 86.0157,181.986 82.5,180.5C 80.9017,181.485 79.235,181.651 77.5,181C 70.4408,176.261 69.7741,177.428 75.5,184.5C 73.604,185.466 71.604,185.799 69.5,185.5C 69.3505,186.552 69.5172,187.552 70,188.5C 71.973,190.228 73.8063,192.061 75.5,194C 82.0278,196.619 88.3612,199.619 94.5,203C 101.133,203.999 107.8,204.832 114.5,205.5C 115.859,207.692 117.692,209.359 120,210.5C 121.29,208.208 122.957,206.208 125,204.5C 125.24,206.977 124.406,209.144 122.5,211C 112.967,211.91 103.634,211.077 94.5,208.5C 90.0441,206.108 85.3774,203.942 80.5,202C 76.5,199.333 72.5,196.667 68.5,194C 64.4812,187.804 59.1478,183.304 52.5,180.5C 48.1132,175.123 43.7799,169.79 39.5,164.5C 43.6826,164.756 46.6826,166.756 48.5,170.5C 48.8333,169.667 49.1667,168.833 49.5,168C 45.8266,159.142 43.1599,149.975 41.5,140.5C 42.2216,140.918 42.7216,141.584 43,142.5C 43.414,142.043 43.914,141.709 44.5,141.5C 46.578,143.986 49.2447,144.986 52.5,144.5C 52.67,143.178 52.3366,142.011 51.5,141C 53.1341,140.506 54.8008,140.34 56.5,140.5C 56.19,143.713 56.5233,146.713 57.5,149.5C 58.1348,158.942 62.4682,166.108 70.5,171C 72.1667,171.667 73.8333,171.667 75.5,171C 74.5842,170.722 73.9175,170.222 73.5,169.5C 74.5,169.5 75.5,169.5 76.5,169.5C 76.1672,153.486 76.5006,137.486 77.5,121.5C 78.1067,121.624 78.44,121.957 78.5,122.5 Z"/></g>
<g><path style="opacity:1" fill="#66807b" d="M 205.5,188.5 C 200.27,196.402 193.936,203.402 186.5,209.5C 185.475,209.103 185.308,208.437 186,207.5C 192.496,200.833 198.996,194.5 205.5,188.5 Z"/></g>
<g><path style="opacity:1" fill="#273d39" d="M 161.5,201.5 C 162.492,201.328 163.158,201.662 163.5,202.5C 164.091,203.151 164.757,203.818 165.5,204.5C 164.544,206.075 163.877,207.742 163.5,209.5C 162.629,206.997 161.963,204.33 161.5,201.5 Z"/></g>
<g><path style="opacity:1" fill="#496762" d="M 61.5,196.5 C 69.6608,201.914 78.3275,206.247 87.5,209.5C 99.1082,212.956 111.108,214.29 123.5,213.5C 119.366,214.485 115.032,214.818 110.5,214.5C 110.574,218.161 109.574,218.828 107.5,216.5C 106.186,217.313 105.019,218.313 104,219.5C 101.915,218.353 100.415,219.02 99.5,221.5C 99.8333,221.833 100.167,222.167 100.5,222.5C 102.868,219.986 105.201,219.986 107.5,222.5C 108.912,221.194 110.579,220.36 112.5,220C 111.396,218.869 111.729,218.035 113.5,217.5C 115.115,218.154 116.782,218.654 118.5,219C 117.019,219.98 115.685,221.147 114.5,222.5C 115.833,222.833 117.167,223.167 118.5,223.5C 116.651,224.593 114.984,225.926 113.5,227.5C 112.201,226.91 111.368,225.91 111,224.5C 108.834,225.776 106.834,225.443 105,223.5C 104.5,223.833 104,224.167 103.5,224.5C 104.098,225.795 104.598,227.128 105,228.5C 105.414,228.043 105.914,227.709 106.5,227.5C 110.271,229.938 113.938,229.938 117.5,227.5C 118.833,230.167 120.167,230.167 121.5,227.5C 122.23,228.934 123.23,230.1 124.5,231C 117.5,231.333 110.5,231.667 103.5,232C 115.829,232.5 128.162,232.667 140.5,232.5C 142.5,232.5 144.5,232.5 146.5,232.5C 115.755,238.064 86.7547,233.23 59.5,218C 56.3098,215.636 53.3098,213.136 50.5,210.5C 50.0629,208.926 49.0629,207.759 47.5,207C 49.6239,206.042 51.6239,204.875 53.5,203.5C 56.1655,204.738 58.8322,204.738 61.5,203.5C 59.9292,200.907 57.5959,199.907 54.5,200.5C 54.6602,198.801 54.4935,197.134 54,195.5C 53.6667,195.833 53.3333,196.167 53,196.5C 52.1004,195.23 50.9337,194.23 49.5,193.5C 49.9767,192.522 50.6433,191.689 51.5,191C 54.722,192.714 58.0554,194.548 61.5,196.5 Z"/></g>
<g><path style="opacity:1" fill="#1f2b26" d="M 214.5,194.5 C 205.583,206.087 194.583,215.087 181.5,221.5C 179.973,221.427 178.973,222.094 178.5,223.5C 171.663,226.341 164.663,228.674 157.5,230.5C 153.96,230.753 150.627,231.419 147.5,232.5C 147.167,232.5 146.833,232.5 146.5,232.5C 144.5,232.5 142.5,232.5 140.5,232.5C 140.5,232.167 140.5,231.833 140.5,231.5C 157.389,227.389 172.722,220.055 186.5,209.5C 193.936,203.402 200.27,196.402 205.5,188.5C 205.557,187.391 205.89,186.391 206.5,185.5C 207.488,184.205 208.488,182.872 209.5,181.5C 209.5,180.833 209.833,180.5 210.5,180.5C 211.117,180.389 211.617,180.056 212,179.5C 212.743,181.441 212.576,183.274 211.5,185C 212.313,186.314 213.313,187.481 214.5,188.5C 213.377,190.482 213.377,192.482 214.5,194.5 Z"/></g>
<g><path style="opacity:1" fill="#929793" d="M 181.5,221.5 C 181.027,222.906 180.027,223.573 178.5,223.5C 178.973,222.094 179.973,221.427 181.5,221.5 Z"/></g>
<g><path style="opacity:1" fill="#405d58" d="M 140.5,231.5 C 140.5,231.833 140.5,232.167 140.5,232.5C 128.162,232.667 115.829,232.5 103.5,232C 110.5,231.667 117.5,231.333 124.5,231C 123.23,230.1 122.23,228.934 121.5,227.5C 120.167,230.167 118.833,230.167 117.5,227.5C 113.938,229.938 110.271,229.938 106.5,227.5C 105.914,227.709 105.414,228.043 105,228.5C 104.598,227.128 104.098,225.795 103.5,224.5C 104,224.167 104.5,223.833 105,223.5C 106.834,225.443 108.834,225.776 111,224.5C 111.368,225.91 112.201,226.91 113.5,227.5C 114.984,225.926 116.651,224.593 118.5,223.5C 117.167,223.167 115.833,222.833 114.5,222.5C 115.685,221.147 117.019,219.98 118.5,219C 116.782,218.654 115.115,218.154 113.5,217.5C 111.729,218.035 111.396,218.869 112.5,220C 110.579,220.36 108.912,221.194 107.5,222.5C 105.201,219.986 102.868,219.986 100.5,222.5C 100.167,222.167 99.8333,221.833 99.5,221.5C 100.415,219.02 101.915,218.353 104,219.5C 105.019,218.313 106.186,217.313 107.5,216.5C 109.574,218.828 110.574,218.161 110.5,214.5C 115.032,214.818 119.366,214.485 123.5,213.5C 126.833,213.167 130.167,212.833 133.5,212.5C 136.064,212.021 138.564,211.355 141,210.5C 141.419,211.672 142.085,212.672 143,213.5C 144,210.833 145,210.833 146,213.5C 146.308,212.692 146.808,212.025 147.5,211.5C 149.276,212.315 149.943,213.482 149.5,215C 150.784,215.684 151.951,215.517 153,214.5C 153.93,216.552 155.43,218.052 157.5,219C 151.354,226.765 143.688,229.932 134.5,228.5C 131.55,229.488 128.55,230.321 125.5,231C 130.489,231.499 135.489,231.666 140.5,231.5 Z"/></g>
<g><path style="opacity:1" fill="#898e8c" d="M 157.5,230.5 C 154.493,232.175 151.16,232.841 147.5,232.5C 150.627,231.419 153.96,230.753 157.5,230.5 Z"/></g>
</svg>
