<?xml version="1.0" encoding="UTF-8"?>
<!DOCTYPE svg PUBLIC "-//W3C//DTD SVG 1.1//EN" "http://www.w3.org/Graphics/SVG/1.1/DTD/svg11.dtd">
<svg xmlns="http://www.w3.org/2000/svg" version="1.1" width="250px" height="250px" style="shape-rendering:geometricPrecision; text-rendering:geometricPrecision; image-rendering:optimizeQuality; fill-rule:evenodd; clip-rule:evenodd" xmlns:xlink="http://www.w3.org/1999/xlink">
<g><path style="opacity:1" fill="#000000" d="M -0.5,-0.5 C 82.8333,-0.5 166.167,-0.5 249.5,-0.5C 249.5,82.8333 249.5,166.167 249.5,249.5C 166.167,249.5 82.8333,249.5 -0.5,249.5C -0.5,166.167 -0.5,82.8333 -0.5,-0.5 Z"/></g>
<g><path style="opacity:1" fill="#dadada" d="M 183.5,51.5 C 143.827,50.1788 104.16,50.1788 64.5,51.5C 65.2625,50.7321 66.2625,50.2321 67.5,50C 104.833,49.3333 142.167,49.3333 179.5,50C 181.058,50.21 182.391,50.71 183.5,51.5 Z"/></g>
<g><path style="opacity:1" fill="#f9f9f9" d="M 183.5,51.5 C 189.016,53.0159 193.016,56.3493 195.5,61.5C 195.427,63.0269 196.094,64.0269 197.5,64.5C 198.821,104.16 198.821,143.827 197.5,183.5C 194.764,191.235 189.43,196.235 181.5,198.5C 180.833,198.5 180.167,198.5 179.5,198.5C 141.143,198.809 102.809,198.476 64.5,197.5C 64.0269,196.094 63.0269,195.427 61.5,195.5C 56.3493,193.016 53.0159,189.016 51.5,183.5C 50.1788,143.827 50.1788,104.16 51.5,64.5C 52.9063,64.0269 53.573,63.0269 53.5,61.5C 55.8922,56.7749 59.5588,53.4416 64.5,51.5C 104.16,50.1788 143.827,50.1788 183.5,51.5 Z"/></g>
<g><path style="opacity:1" fill="#939393" d="M 53.5,61.5 C 53.573,63.0269 52.9063,64.0269 51.5,64.5C 51.427,62.9731 52.0937,61.9731 53.5,61.5 Z"/></g>
<g><path style="opacity:1" fill="#939393" d="M 195.5,61.5 C 196.906,61.9731 197.573,62.9731 197.5,64.5C 196.094,64.0269 195.427,63.0269 195.5,61.5 Z"/></g>
<g><path style="opacity:1" fill="#1d1d1d" d="M 199.5,67.5 C 200.167,86.3304 200.5,105.33 200.5,124.5C 200.5,143.845 199.833,162.845 198.5,181.5C 199.488,143.543 199.821,105.543 199.5,67.5 Z"/></g>
<g><path style="opacity:1" fill="#000000" d="M 72.5,72.5 C 107.167,72.5 141.833,72.5 176.5,72.5C 176.5,107.167 176.5,141.833 176.5,176.5C 141.833,176.5 107.167,176.5 72.5,176.5C 72.5,141.833 72.5,107.167 72.5,72.5 Z"/></g>
<g><path style="opacity:1" fill="#dadada" d="M 51.5,64.5 C 50.1788,104.16 50.1788,143.827 51.5,183.5C 50.71,182.391 50.21,181.058 50,179.5C 49.3333,142.167 49.3333,104.833 50,67.5C 50.2321,66.2625 50.7321,65.2625 51.5,64.5 Z"/></g>
<g><path style="opacity:1" fill="#dadada" d="M 197.5,64.5 C 198.167,65.5 198.833,66.5 199.5,67.5C 199.821,105.543 199.488,143.543 198.5,181.5C 198.672,182.492 198.338,183.158 197.5,183.5C 198.821,143.827 198.821,104.16 197.5,64.5 Z"/></g>
<g><path style="opacity:1" fill="#939393" d="M 61.5,195.5 C 63.0269,195.427 64.0269,196.094 64.5,197.5C 62.9731,197.573 61.9731,196.906 61.5,195.5 Z"/></g>
<g><path style="opacity:1" fill="#dadada" d="M 64.5,197.5 C 102.809,198.476 141.143,198.809 179.5,198.5C 142.337,199.498 105.004,199.832 67.5,199.5C 66.5,198.833 65.5,198.167 64.5,197.5 Z"/></g>
<g><path style="opacity:1" fill="#1d1d1d" d="M 179.5,198.5 C 180.167,198.5 180.833,198.5 181.5,198.5C 162.845,199.833 143.845,200.5 124.5,200.5C 105.33,200.5 86.3304,200.167 67.5,199.5C 105.004,199.832 142.337,199.498 179.5,198.5 Z"/></g>
</svg>
