<?xml version="1.0" encoding="UTF-8"?>
<!DOCTYPE svg PUBLIC "-//W3C//DTD SVG 1.1//EN" "http://www.w3.org/Graphics/SVG/1.1/DTD/svg11.dtd">
<svg xmlns="http://www.w3.org/2000/svg" version="1.1" width="245px" height="250px" style="shape-rendering:geometricPrecision; text-rendering:geometricPrecision; image-rendering:optimizeQuality; fill-rule:evenodd; clip-rule:evenodd" xmlns:xlink="http://www.w3.org/1999/xlink">
<g><path style="opacity:0.989" fill="#231c48" d="M 104.5,-0.5 C 110.167,-0.5 115.833,-0.5 121.5,-0.5C 121.5,18.8333 121.5,38.1667 121.5,57.5C 113.833,57.5 106.167,57.5 98.5,57.5C 97.1667,57.5 95.8333,57.5 94.5,57.5C 94.5,54.8333 94.5,52.1667 94.5,49.5C 78.8333,49.5 63.1667,49.5 47.5,49.5C 47.1667,49.5 46.8333,49.5 46.5,49.5C 58.3401,48.8333 70.3401,48.1667 82.5,47.5C 82.7567,33.57 82.4234,19.57 81.5,5.5C 89.1178,2.98135 96.7844,0.981346 104.5,-0.5 Z"/></g>
<g><path style="opacity:0.986" fill="#231c48" d="M 122.5,-0.5 C 128.5,-0.5 134.5,-0.5 140.5,-0.5C 145.336,0.790113 150.336,1.95678 155.5,3C 158.401,3.87514 161.068,5.04181 163.5,6.5C 162.206,8.04775 161.539,10.0478 161.5,12.5C 162,27.4181 162,42.4181 161.5,57.5C 148.5,57.5 135.5,57.5 122.5,57.5C 122.5,38.1667 122.5,18.8333 122.5,-0.5 Z"/></g>
<g><path style="opacity:0.975" fill="#221b47" d="M 163.5,6.5 C 172.365,8.93242 180.365,12.9324 187.5,18.5C 186.505,31.3226 186.171,44.3226 186.5,57.5C 178.167,57.5 169.833,57.5 161.5,57.5C 162,42.4181 162,27.4181 161.5,12.5C 161.539,10.0478 162.206,8.04775 163.5,6.5 Z"/></g>
<g><path style="opacity:0.941" fill="#231c47" d="M 81.5,5.5 C 82.4234,19.57 82.7567,33.57 82.5,47.5C 70.3401,48.1667 58.3401,48.8333 46.5,49.5C 46.5,65.5 46.5,81.5 46.5,97.5C 49.8333,97.5 53.1667,97.5 56.5,97.5C 56.5,97.8333 56.5,98.1667 56.5,98.5C 55.5,98.5 54.5,98.5 53.5,98.5C 37.1698,98.5831 20.8365,98.5831 4.5,98.5C 4.5,102.5 4.5,106.5 4.5,110.5C 17.4019,110.502 30.4019,110.169 43.5,109.5C 46.443,110.244 49.443,110.744 52.5,111C 49.443,111.256 46.443,111.756 43.5,112.5C 30.4019,111.831 17.4019,111.498 4.5,111.5C 4.5,115.5 4.5,119.5 4.5,123.5C 2.83333,123.5 1.16667,123.5 -0.5,123.5C -0.5,117.833 -0.5,112.167 -0.5,106.5C 8.4157,57.9143 35.749,24.2476 81.5,5.5 Z"/></g>
<g><path style="opacity:1" fill="#bdbcf2" d="M 47.5,50.5 C 47.5,50.1667 47.5,49.8333 47.5,49.5C 63.1667,49.5 78.8333,49.5 94.5,49.5C 94.5,52.1667 94.5,54.8333 94.5,57.5C 94.1936,60.3854 94.5269,63.0521 95.5,65.5C 96.9187,66.4511 98.5853,66.7845 100.5,66.5C 100.5,67.5 100.5,68.5 100.5,69.5C 100.5,72.5 100.5,75.5 100.5,78.5C 100.5,79.8333 100.5,81.1667 100.5,82.5C 102.5,83.1667 104.5,83.8333 106.5,84.5C 106.5,86.5 106.5,88.5 106.5,90.5C 106.5,93.8333 106.5,97.1667 106.5,100.5C 108.415,100.216 110.081,100.549 111.5,101.5C 109.5,101.5 107.5,101.5 105.5,101.5C 105.5,95.8333 105.5,90.1667 105.5,84.5C 103.5,84.5 101.5,84.5 99.5,84.5C 99.5,78.8333 99.5,73.1667 99.5,67.5C 97.5,67.5 95.5,67.5 93.5,67.5C 93.5,62.1667 93.5,56.8333 93.5,51.5C 78.3424,50.5038 63.0091,50.1705 47.5,50.5 Z"/></g>
<g><path style="opacity:1" fill="#a09ffa" d="M 47.5,50.5 C 63.0091,50.1705 78.3424,50.5038 93.5,51.5C 78.5,51.5 63.5,51.5 48.5,51.5C 48.5,62.8333 48.5,74.1667 48.5,85.5C 48.5,89.1667 48.5,92.8333 48.5,96.5C 47.5038,81.3424 47.1705,66.0091 47.5,50.5 Z"/></g>
<g><path style="opacity:1" fill="#7975f7" d="M 93.5,51.5 C 93.5,56.8333 93.5,62.1667 93.5,67.5C 95.5,67.5 97.5,67.5 99.5,67.5C 99.5,73.1667 99.5,78.8333 99.5,84.5C 101.5,84.5 103.5,84.5 105.5,84.5C 105.5,90.1667 105.5,95.8333 105.5,101.5C 106.919,102.451 108.585,102.784 110.5,102.5C 110.5,104.5 110.5,106.5 110.5,108.5C 106.846,108.058 103.179,107.724 99.5,107.5C 99.5,105.5 99.5,103.5 99.5,101.5C 99.5,97.8333 99.5,94.1667 99.5,90.5C 95.8333,90.5 92.1667,90.5 88.5,90.5C 86.5,90.5 84.5,90.5 82.5,90.5C 82.5,88.8333 82.5,87.1667 82.5,85.5C 84.5,85.5 86.5,85.5 88.5,85.5C 88.5,83.1667 88.5,80.8333 88.5,78.5C 86.5,78.5 84.5,78.5 82.5,78.5C 82.5,74.8333 82.5,71.1667 82.5,67.5C 76.8333,67.5 71.1667,67.5 65.5,67.5C 65.5,65.8333 65.5,64.1667 65.5,62.5C 73.1667,62.5 80.8333,62.5 88.5,62.5C 88.5,60.5 88.5,58.5 88.5,56.5C 76.8333,56.5 65.1667,56.5 53.5,56.5C 53.5,66.1667 53.5,75.8333 53.5,85.5C 51.8333,85.5 50.1667,85.5 48.5,85.5C 48.5,74.1667 48.5,62.8333 48.5,51.5C 63.5,51.5 78.5,51.5 93.5,51.5 Z"/></g>
<g><path style="opacity:1" fill="#9b99ce" d="M 46.5,49.5 C 46.8333,49.5 47.1667,49.5 47.5,49.5C 47.5,49.8333 47.5,50.1667 47.5,50.5C 47.1705,66.0091 47.5038,81.3424 48.5,96.5C 54.1667,96.5 59.8333,96.5 65.5,96.5C 65.5,98.1667 65.5,99.8333 65.5,101.5C 67.2646,102.461 69.2646,102.795 71.5,102.5C 71.5,102.833 71.5,103.167 71.5,103.5C 68.8333,103.5 66.1667,103.5 63.5,103.5C 63.5,101.5 63.5,99.5 63.5,97.5C 62.5,97.5 61.5,97.5 60.5,97.5C 59.1667,97.5 57.8333,97.5 56.5,97.5C 53.1667,97.5 49.8333,97.5 46.5,97.5C 46.5,81.5 46.5,65.5 46.5,49.5 Z"/></g>
<g><path style="opacity:1" fill="#b8a06a" d="M 94.5,57.5 C 95.8333,57.5 97.1667,57.5 98.5,57.5C 98.5,58.1667 98.5,58.8333 98.5,59.5C 97.8501,59.1961 97.1835,58.8627 96.5,58.5C 95.5481,60.0453 95.2148,61.712 95.5,63.5C 97.2915,63.634 98.9582,63.3007 100.5,62.5C 99.1979,64.0276 97.5313,65.0276 95.5,65.5C 94.5269,63.0521 94.1936,60.3854 94.5,57.5 Z"/></g>
<g><path style="opacity:1" fill="#ebc954" d="M 98.5,59.5 C 101.248,59.4017 101.914,60.4017 100.5,62.5C 98.9582,63.3007 97.2915,63.634 95.5,63.5C 95.2148,61.712 95.5481,60.0453 96.5,58.5C 97.1835,58.8627 97.8501,59.1961 98.5,59.5 Z"/></g>
<g><path style="opacity:1" fill="#231c48" d="M 186.5,97.5 C 173.5,97.5 160.5,97.5 147.5,97.5C 147.5,93.5 147.5,89.5 147.5,85.5C 135.5,85.1667 135.5,84.8333 147.5,84.5C 147.868,81.4669 147.202,78.8002 145.5,76.5C 147.483,76.8432 148.817,76.1765 149.5,74.5C 148.555,69.5947 148.221,64.5947 148.5,59.5C 161.167,59.5 173.833,59.5 186.5,59.5C 186.5,72.1667 186.5,84.8333 186.5,97.5 Z"/></g>
<g><path style="opacity:1" fill="#231c48" d="M 188.5,18.5 C 213.131,34.4649 229.798,56.4649 238.5,84.5C 230.504,83.3404 222.504,83.1738 214.5,84C 213.707,80.5894 213.207,77.0894 213,73.5C 212.501,77.1516 212.335,80.8183 212.5,84.5C 204.5,83.1667 196.5,83.1667 188.5,84.5C 187.606,62.7396 187.606,40.7396 188.5,18.5 Z"/></g>
<g><path style="opacity:1" fill="#8a88f6" d="M 82.5,78.5 C 82.1667,78.5 81.8333,78.5 81.5,78.5C 81.5,75.1667 81.5,71.8333 81.5,68.5C 76.1667,68.5 70.8333,68.5 65.5,68.5C 65.5,73.8333 65.5,79.1667 65.5,84.5C 69.0419,84.1872 72.3752,84.5206 75.5,85.5C 71.8333,85.5 68.1667,85.5 64.5,85.5C 64.5,79.8333 64.5,74.1667 64.5,68.5C 62.8333,68.5 61.1667,68.5 59.5,68.5C 59.825,76.0191 59.4916,83.3524 58.5,90.5C 58.5,82.8333 58.5,75.1667 58.5,67.5C 60.5,67.5 62.5,67.5 64.5,67.5C 64.5,65.5 64.5,63.5 64.5,61.5C 72.1667,61.5 79.8333,61.5 87.5,61.5C 87.5,60.1667 87.5,58.8333 87.5,57.5C 76.5,57.5 65.5,57.5 54.5,57.5C 54.5,68.5 54.5,79.5 54.5,90.5C 53.5489,89.0813 53.2155,87.4147 53.5,85.5C 53.5,75.8333 53.5,66.1667 53.5,56.5C 65.1667,56.5 76.8333,56.5 88.5,56.5C 88.5,58.5 88.5,60.5 88.5,62.5C 80.8333,62.5 73.1667,62.5 65.5,62.5C 65.5,64.1667 65.5,65.8333 65.5,67.5C 71.1667,67.5 76.8333,67.5 82.5,67.5C 82.5,71.1667 82.5,74.8333 82.5,78.5 Z"/></g>
<g><path style="opacity:1" fill="#9695f8" d="M 58.5,90.5 C 57.1667,90.5 55.8333,90.5 54.5,90.5C 54.5,79.5 54.5,68.5 54.5,57.5C 65.5,57.5 76.5,57.5 87.5,57.5C 87.5,58.8333 87.5,60.1667 87.5,61.5C 79.8333,61.5 72.1667,61.5 64.5,61.5C 64.5,63.5 64.5,65.5 64.5,67.5C 62.5,67.5 60.5,67.5 58.5,67.5C 58.5,75.1667 58.5,82.8333 58.5,90.5 Z"/></g>
<g><path style="opacity:1" fill="#7975f4" d="M 75.5,85.5 C 75.8333,85.5 76.1667,85.5 76.5,85.5C 76.5,87.5 76.5,89.5 76.5,91.5C 78.5,91.5 80.5,91.5 82.5,91.5C 82.5,93.1667 82.5,94.8333 82.5,96.5C 78.5,96.5 74.5,96.5 70.5,96.5C 70.5,94.8333 70.5,93.1667 70.5,91.5C 64.9738,91.8214 59.6405,91.4881 54.5,90.5C 55.8333,90.5 57.1667,90.5 58.5,90.5C 59.4916,83.3524 59.825,76.0191 59.5,68.5C 61.1667,68.5 62.8333,68.5 64.5,68.5C 64.5,74.1667 64.5,79.8333 64.5,85.5C 68.1667,85.5 71.8333,85.5 75.5,85.5 Z"/></g>
<g><path style="opacity:1" fill="#9695f8" d="M 81.5,78.5 C 79.8333,78.5 78.1667,78.5 76.5,78.5C 76.5,76.8333 76.5,75.1667 76.5,73.5C 74.5,73.5 72.5,73.5 70.5,73.5C 70.5,75.5 70.5,77.5 70.5,79.5C 72.5,79.5 74.5,79.5 76.5,79.5C 76.5,81.5 76.5,83.5 76.5,85.5C 76.1667,85.5 75.8333,85.5 75.5,85.5C 72.3752,84.5206 69.0419,84.1872 65.5,84.5C 65.5,79.1667 65.5,73.8333 65.5,68.5C 70.8333,68.5 76.1667,68.5 81.5,68.5C 81.5,71.8333 81.5,75.1667 81.5,78.5 Z"/></g>
<g><path style="opacity:1" fill="#f0b243" d="M 106.5,72.5 C 107.833,72.5 109.167,72.5 110.5,72.5C 111.167,73.8333 111.833,75.1667 112.5,76.5C 109.979,76.4397 107.646,77.1064 105.5,78.5C 104.261,78.0576 103.261,77.3909 102.5,76.5C 101.539,74.7354 101.205,72.7354 101.5,70.5C 103.554,70.3653 105.221,71.032 106.5,72.5 Z"/></g>
<g><path style="opacity:1" fill="#f9d05d" d="M 110.5,72.5 C 116.715,72.2025 122.715,73.2025 128.5,75.5C 130.005,76.8415 130.672,78.5082 130.5,80.5C 129.548,81.452 128.548,82.452 127.5,83.5C 128.309,85.0709 128.643,86.7376 128.5,88.5C 127.508,88.3284 126.842,88.6618 126.5,89.5C 121.759,88.3532 117.092,87.3532 112.5,86.5C 115.833,86.5 119.167,86.5 122.5,86.5C 125.167,85.8333 125.167,85.1667 122.5,84.5C 120.5,84.5 118.5,84.5 116.5,84.5C 116.843,82.5168 116.176,81.1834 114.5,80.5C 113.833,79.1667 113.167,77.8333 112.5,76.5C 111.833,75.1667 111.167,73.8333 110.5,72.5 Z"/></g>
<g><path style="opacity:1" fill="#c6a762" d="M 100.5,69.5 C 102.5,69.5 104.5,69.5 106.5,69.5C 106.5,70.5 106.5,71.5 106.5,72.5C 105.221,71.032 103.554,70.3653 101.5,70.5C 101.205,72.7354 101.539,74.7354 102.5,76.5C 102.5,77.8333 101.833,78.5 100.5,78.5C 100.5,75.5 100.5,72.5 100.5,69.5 Z"/></g>
<g><path style="opacity:1" fill="#bebdfd" d="M 81.5,78.5 C 81.8333,78.5 82.1667,78.5 82.5,78.5C 84.5,78.5 86.5,78.5 88.5,78.5C 88.5,80.8333 88.5,83.1667 88.5,85.5C 86.5,85.5 84.5,85.5 82.5,85.5C 82.5,87.1667 82.5,88.8333 82.5,90.5C 82.5,90.8333 82.5,91.1667 82.5,91.5C 80.5,91.5 78.5,91.5 76.5,91.5C 76.5,89.5 76.5,87.5 76.5,85.5C 76.5,83.5 76.5,81.5 76.5,79.5C 74.5,79.5 72.5,79.5 70.5,79.5C 70.5,77.5 70.5,75.5 70.5,73.5C 72.5,73.5 74.5,73.5 76.5,73.5C 76.5,75.1667 76.5,76.8333 76.5,78.5C 78.1667,78.5 79.8333,78.5 81.5,78.5 Z"/></g>
<g><path style="opacity:1" fill="#382a48" d="M 102.5,76.5 C 103.261,77.3909 104.261,78.0576 105.5,78.5C 107.646,77.1064 109.979,76.4397 112.5,76.5C 113.167,77.8333 113.833,79.1667 114.5,80.5C 109.52,79.9853 104.854,80.652 100.5,82.5C 100.5,81.1667 100.5,79.8333 100.5,78.5C 101.833,78.5 102.5,77.8333 102.5,76.5 Z"/></g>
<g><path style="opacity:1" fill="#f9af3c" d="M 114.5,80.5 C 116.176,81.1834 116.843,82.5168 116.5,84.5C 118.5,84.5 120.5,84.5 122.5,84.5C 122.5,85.1667 122.5,85.8333 122.5,86.5C 119.167,86.5 115.833,86.5 112.5,86.5C 111.082,84.6921 109.082,84.0254 106.5,84.5C 104.5,83.8333 102.5,83.1667 100.5,82.5C 104.854,80.652 109.52,79.9853 114.5,80.5 Z"/></g>
<g><path style="opacity:1" fill="#f8dd85" d="M 130.5,80.5 C 132.461,81.4602 134.127,82.7935 135.5,84.5C 135.833,84.5 136.167,84.5 136.5,84.5C 136.5,85.5 136.5,86.5 136.5,87.5C 138.167,87.5 139.833,87.5 141.5,87.5C 141.5,91.1667 141.5,94.8333 141.5,98.5C 138.854,98.1084 136.354,98.1084 134,98.5C 134.263,97.0494 134.096,95.7161 133.5,94.5C 132.735,95.6119 131.735,96.2786 130.5,96.5C 128.565,95.8505 126.565,95.5172 124.5,95.5C 124.077,93.2188 124.744,91.5521 126.5,90.5C 127.386,91.7759 128.386,91.7759 129.5,90.5C 129.137,89.8165 128.804,89.1499 128.5,88.5C 128.643,86.7376 128.309,85.0709 127.5,83.5C 128.548,82.452 129.548,81.452 130.5,80.5 Z"/></g>
<g><path style="opacity:0.993" fill="#231c48" d="M 238.5,84.5 C 241.134,91.6724 243.134,99.0057 244.5,106.5C 244.5,112.167 244.5,117.833 244.5,123.5C 225.833,123.5 207.167,123.5 188.5,123.5C 187.258,110.287 187.258,97.2868 188.5,84.5C 196.5,83.1667 204.5,83.1667 212.5,84.5C 212.335,80.8183 212.501,77.1516 213,73.5C 213.207,77.0894 213.707,80.5894 214.5,84C 222.504,83.1738 230.504,83.3404 238.5,84.5 Z"/></g>
<g><path style="opacity:1" fill="#fdea97" d="M 106.5,84.5 C 109.082,84.0254 111.082,84.6921 112.5,86.5C 117.092,87.3532 121.759,88.3532 126.5,89.5C 126.5,89.8333 126.5,90.1667 126.5,90.5C 124.744,91.5521 124.077,93.2188 124.5,95.5C 126.565,95.5172 128.565,95.8505 130.5,96.5C 130.096,97.7564 129.429,98.9231 128.5,100C 130.033,101.698 131.366,103.531 132.5,105.5C 131.775,106.867 131.108,108.2 130.5,109.5C 130.5,110.167 130.5,110.833 130.5,111.5C 130.5,112.167 130.5,112.833 130.5,113.5C 130.167,113.5 129.833,113.5 129.5,113.5C 128.833,114.833 128.167,116.167 127.5,117.5C 127.279,116.265 126.612,115.265 125.5,114.5C 125.887,110.947 126.887,107.614 128.5,104.5C 126.014,102.422 125.014,99.7553 125.5,96.5C 123.712,96.7852 122.045,96.4519 120.5,95.5C 116.802,90.8245 112.135,89.1579 106.5,90.5C 106.5,88.5 106.5,86.5 106.5,84.5 Z"/></g>
<g><path style="opacity:1" fill="#3b37c2" d="M 48.5,85.5 C 50.1667,85.5 51.8333,85.5 53.5,85.5C 53.2155,87.4147 53.5489,89.0813 54.5,90.5C 59.6405,91.4881 64.9738,91.8214 70.5,91.5C 70.5,93.1667 70.5,94.8333 70.5,96.5C 74.5,96.5 78.5,96.5 82.5,96.5C 82.5,94.8333 82.5,93.1667 82.5,91.5C 82.5,91.1667 82.5,90.8333 82.5,90.5C 84.5,90.5 86.5,90.5 88.5,90.5C 92.1667,90.5 95.8333,90.5 99.5,90.5C 99.5,94.1667 99.5,97.8333 99.5,101.5C 99.5,103.5 99.5,105.5 99.5,107.5C 93.8333,107.5 88.1667,107.5 82.5,107.5C 82.5,105.5 82.5,103.5 82.5,101.5C 76.8333,101.5 71.1667,101.5 65.5,101.5C 65.5,99.8333 65.5,98.1667 65.5,96.5C 59.8333,96.5 54.1667,96.5 48.5,96.5C 48.5,92.8333 48.5,89.1667 48.5,85.5 Z"/></g>
<g><path style="opacity:1" fill="#221b49" d="M 122.5,84.5 C 125.167,85.1667 125.167,85.8333 122.5,86.5C 122.5,85.8333 122.5,85.1667 122.5,84.5 Z"/></g>
<g><path style="opacity:1" fill="#887562" d="M 136.5,84.5 C 138.039,85.7671 139.706,86.7671 141.5,87.5C 139.833,87.5 138.167,87.5 136.5,87.5C 136.5,86.5 136.5,85.5 136.5,84.5 Z"/></g>
<g><path style="opacity:1" fill="#9a8664" d="M 128.5,88.5 C 128.804,89.1499 129.137,89.8165 129.5,90.5C 128.386,91.7759 127.386,91.7759 126.5,90.5C 126.5,90.1667 126.5,89.8333 126.5,89.5C 126.842,88.6618 127.508,88.3284 128.5,88.5 Z"/></g>
<g><path style="opacity:1" fill="#fdfcfa" d="M 127.5,117.5 C 125.833,117.5 124.167,117.5 122.5,117.5C 122.5,115.833 122.5,114.167 122.5,112.5C 120.833,112.5 119.167,112.5 117.5,112.5C 117.5,110.5 117.5,108.5 117.5,106.5C 115.5,106.5 113.5,106.5 111.5,106.5C 111.5,104.833 111.5,103.167 111.5,101.5C 110.081,100.549 108.415,100.216 106.5,100.5C 106.5,97.1667 106.5,93.8333 106.5,90.5C 112.135,89.1579 116.802,90.8245 120.5,95.5C 122.045,96.4519 123.712,96.7852 125.5,96.5C 125.014,99.7553 126.014,102.422 128.5,104.5C 126.887,107.614 125.887,110.947 125.5,114.5C 126.612,115.265 127.279,116.265 127.5,117.5 Z"/></g>
<g><path style="opacity:1" fill="#615ee8" d="M 88.5,90.5 C 92.1667,90.5 95.8333,90.5 99.5,90.5C 99.5,94.1667 99.5,97.8333 99.5,101.5C 95.8333,101.5 92.1667,101.5 88.5,101.5C 88.5,97.8333 88.5,94.1667 88.5,90.5 Z"/></g>
<g><path style="opacity:1" fill="#f9c34c" d="M 56.5,97.5 C 57.8333,97.5 59.1667,97.5 60.5,97.5C 60.7681,101.083 60.1014,104.416 58.5,107.5C 57.1667,106.833 55.8333,106.167 54.5,105.5C 54.1849,102.789 54.8516,100.456 56.5,98.5C 56.5,98.1667 56.5,97.8333 56.5,97.5 Z"/></g>
<g><path style="opacity:1" fill="#7a78de" d="M 65.5,101.5 C 71.1667,101.5 76.8333,101.5 82.5,101.5C 82.5,103.5 82.5,105.5 82.5,107.5C 88.1667,107.5 93.8333,107.5 99.5,107.5C 99.5,107.833 99.5,108.167 99.5,108.5C 93.5,108.5 87.5,108.5 81.5,108.5C 81.5,106.5 81.5,104.5 81.5,102.5C 78.1667,102.5 74.8333,102.5 71.5,102.5C 69.2646,102.795 67.2646,102.461 65.5,101.5 Z"/></g>
<g><path style="opacity:1" fill="#886d51" d="M 53.5,98.5 C 54.5,98.5 55.5,98.5 56.5,98.5C 54.8516,100.456 54.1849,102.789 54.5,105.5C 54.3651,108.417 55.0318,111.084 56.5,113.5C 56.1667,113.5 55.8333,113.5 55.5,113.5C 53.5583,108.944 52.8917,103.944 53.5,98.5 Z"/></g>
<g><path style="opacity:1" fill="#dbb363" d="M 54.5,105.5 C 55.8333,106.167 57.1667,106.833 58.5,107.5C 59.5862,107.62 60.2528,108.287 60.5,109.5C 59.5,111.5 58.5,113.5 57.5,115.5C 56.7025,115.043 56.3691,114.376 56.5,113.5C 55.0318,111.084 54.3651,108.417 54.5,105.5 Z"/></g>
<g><path style="opacity:1" fill="#f8c954" d="M 141.5,98.5 C 141.785,100.288 141.452,101.955 140.5,103.5C 138.821,101.896 136.821,101.229 134.5,101.5C 134.238,102.978 134.571,104.311 135.5,105.5C 137.167,106.833 138.833,108.167 140.5,109.5C 141.842,107.995 143.508,107.328 145.5,107.5C 145.5,108.167 145.5,108.833 145.5,109.5C 145.16,112.144 145.827,114.477 147.5,116.5C 145.987,119.524 143.987,122.191 141.5,124.5C 140.311,125.429 138.978,125.762 137.5,125.5C 136.173,123.818 134.506,122.485 132.5,121.5C 132.842,119.175 132.842,116.842 132.5,114.5C 132.043,113.702 131.376,113.369 130.5,113.5C 130.5,112.833 130.5,112.167 130.5,111.5C 133.167,110.833 133.167,110.167 130.5,109.5C 131.108,108.2 131.775,106.867 132.5,105.5C 131.366,103.531 130.033,101.698 128.5,100C 129.429,98.9231 130.096,97.7564 130.5,96.5C 131.735,96.2786 132.735,95.6119 133.5,94.5C 134.096,95.7161 134.263,97.0494 134,98.5C 136.354,98.1084 138.854,98.1084 141.5,98.5 Z"/></g>
<g><path style="opacity:1" fill="#fdfdfc" d="M 83.5,109.5 C 88.1667,109.5 92.8333,109.5 97.5,109.5C 97.5,111.167 97.5,112.833 97.5,114.5C 99.5,114.5 101.5,114.5 103.5,114.5C 103.5,116.5 103.5,118.5 103.5,120.5C 105.5,120.5 107.5,120.5 109.5,120.5C 109.5,122.167 109.5,123.833 109.5,125.5C 111.5,125.5 113.5,125.5 115.5,125.5C 115.5,127.167 115.5,128.833 115.5,130.5C 117.415,130.216 119.081,130.549 120.5,131.5C 114.55,133.732 108.717,136.065 103,138.5C 101.951,136.893 100.451,136.227 98.5,136.5C 97.5,136.5 96.5,136.5 95.5,136.5C 94.8333,134.5 93.5,133.167 91.5,132.5C 88.326,127.485 85.6594,122.152 83.5,116.5C 83.7896,114.956 84.4563,113.623 85.5,112.5C 84.3881,111.735 83.7214,110.735 83.5,109.5 Z"/></g>
<g><path style="opacity:1" fill="#584953" d="M 130.5,109.5 C 133.167,110.167 133.167,110.833 130.5,111.5C 130.5,110.833 130.5,110.167 130.5,109.5 Z"/></g>
<g><path style="opacity:1" fill="#241d48" d="M 145.5,76.5 C 147.202,78.8002 147.868,81.4669 147.5,84.5C 135.5,84.8333 135.5,85.1667 147.5,85.5C 147.5,89.5 147.5,93.5 147.5,97.5C 160.5,97.5 173.5,97.5 186.5,97.5C 187.12,106.601 186.454,115.434 184.5,124C 186.452,132.23 187.118,140.73 186.5,149.5C 178.167,148.167 169.833,148.167 161.5,149.5C 161.914,143.016 161.914,136.683 161.5,130.5C 162.129,128.535 162.796,126.535 163.5,124.5C 163.167,123.5 162.833,122.5 162.5,121.5C 161.735,122.612 160.735,123.279 159.5,123.5C 155.833,123.5 152.167,123.5 148.5,123.5C 148.226,118.737 148.559,114.07 149.5,109.5C 150.586,109.38 151.253,108.713 151.5,107.5C 149.076,104.948 147.409,101.948 146.5,98.5C 145.516,101.428 145.183,104.428 145.5,107.5C 143.508,107.328 141.842,107.995 140.5,109.5C 138.833,108.167 137.167,106.833 135.5,105.5C 134.571,104.311 134.238,102.978 134.5,101.5C 136.821,101.229 138.821,101.896 140.5,103.5C 141.452,101.955 141.785,100.288 141.5,98.5C 141.5,94.8333 141.5,91.1667 141.5,87.5C 139.706,86.7671 138.039,85.7671 136.5,84.5C 136.167,84.5 135.833,84.5 135.5,84.5C 135.5,80.5 135.5,76.5 135.5,72.5C 138.5,72.5 141.5,72.5 144.5,72.5C 144.232,74.099 144.566,75.4324 145.5,76.5 Z"/></g>
<g><path style="opacity:1" fill="#d0a757" d="M 149.5,109.5 C 148.167,109.5 146.833,109.5 145.5,109.5C 145.5,108.833 145.5,108.167 145.5,107.5C 145.183,104.428 145.516,101.428 146.5,98.5C 147.409,101.948 149.076,104.948 151.5,107.5C 151.253,108.713 150.586,109.38 149.5,109.5 Z"/></g>
<g><path style="opacity:1" fill="#221b47" d="M 53.5,98.5 C 52.8917,103.944 53.5583,108.944 55.5,113.5C 55.5,116.833 55.5,120.167 55.5,123.5C 38.5,123.5 21.5,123.5 4.5,123.5C 4.5,119.5 4.5,115.5 4.5,111.5C 17.4019,111.498 30.4019,111.831 43.5,112.5C 46.443,111.756 49.443,111.256 52.5,111C 49.443,110.744 46.443,110.244 43.5,109.5C 30.4019,110.169 17.4019,110.502 4.5,110.5C 4.5,106.5 4.5,102.5 4.5,98.5C 20.8365,98.5831 37.1698,98.5831 53.5,98.5 Z"/></g>
<g><path style="opacity:1" fill="#f2c75a" d="M 71.5,103.5 C 74.5,103.5 77.5,103.5 80.5,103.5C 80.5,105.5 80.5,107.5 80.5,109.5C 79.2647,114.813 79.2647,120.147 80.5,125.5C 82.1026,126.793 83.7693,127.793 85.5,128.5C 80.0167,128.68 77.6834,126.013 78.5,120.5C 77.5,120.5 76.5,120.5 75.5,120.5C 75.9227,118.219 75.256,116.552 73.5,115.5C 72.8761,115.083 72.5427,114.416 72.5,113.5C 73.8333,111.5 75.1667,109.5 76.5,107.5C 76.3333,106.833 76.1667,106.167 76,105.5C 72.5849,110.962 71.0849,110.296 71.5,103.5 Z"/></g>
<g><path style="opacity:1" fill="#c2c0f8" d="M 71.5,103.5 C 71.5,103.167 71.5,102.833 71.5,102.5C 74.8333,102.5 78.1667,102.5 81.5,102.5C 81.5,104.5 81.5,106.5 81.5,108.5C 87.5,108.5 93.5,108.5 99.5,108.5C 99.5,110.167 99.5,111.833 99.5,113.5C 101.5,113.5 103.5,113.5 105.5,113.5C 105.5,115.5 105.5,117.5 105.5,119.5C 107.167,119.5 108.833,119.5 110.5,119.5C 110.5,121.167 110.5,122.833 110.5,124.5C 112.5,124.5 114.5,124.5 116.5,124.5C 116.5,126.167 116.5,127.833 116.5,129.5C 118.167,129.5 119.833,129.5 121.5,129.5C 121.205,131.735 121.539,133.735 122.5,135.5C 123.833,135.5 125.167,135.5 126.5,135.5C 126.5,135.833 126.5,136.167 126.5,136.5C 126.167,136.5 125.833,136.5 125.5,136.5C 123.833,136.5 122.167,136.5 120.5,136.5C 120.5,134.833 120.5,133.167 120.5,131.5C 119.081,130.549 117.415,130.216 115.5,130.5C 115.5,128.833 115.5,127.167 115.5,125.5C 113.5,125.5 111.5,125.5 109.5,125.5C 109.5,123.833 109.5,122.167 109.5,120.5C 107.5,120.5 105.5,120.5 103.5,120.5C 103.5,118.5 103.5,116.5 103.5,114.5C 101.5,114.5 99.5,114.5 97.5,114.5C 97.5,112.833 97.5,111.167 97.5,109.5C 92.8333,109.5 88.1667,109.5 83.5,109.5C 82.5,109.5 81.5,109.5 80.5,109.5C 80.5,107.5 80.5,105.5 80.5,103.5C 77.5,103.5 74.5,103.5 71.5,103.5 Z"/></g>
<g><path style="opacity:1" fill="#605ce4" d="M 99.5,107.5 C 103.179,107.724 106.846,108.058 110.5,108.5C 112.5,108.5 114.5,108.5 116.5,108.5C 116.5,110.167 116.5,111.833 116.5,113.5C 118.167,113.5 119.833,113.5 121.5,113.5C 121.5,115.5 121.5,117.5 121.5,119.5C 123.167,119.5 124.833,119.5 126.5,119.5C 126.5,121.167 126.5,122.833 126.5,124.5C 128.5,124.5 130.5,124.5 132.5,124.5C 132.5,126.167 132.5,127.833 132.5,129.5C 129.167,129.5 125.833,129.5 122.5,129.5C 122.5,131.5 122.5,133.5 122.5,135.5C 121.539,133.735 121.205,131.735 121.5,129.5C 119.833,129.5 118.167,129.5 116.5,129.5C 116.5,127.833 116.5,126.167 116.5,124.5C 114.5,124.5 112.5,124.5 110.5,124.5C 110.5,122.833 110.5,121.167 110.5,119.5C 108.833,119.5 107.167,119.5 105.5,119.5C 105.5,117.5 105.5,115.5 105.5,113.5C 103.5,113.5 101.5,113.5 99.5,113.5C 99.5,111.833 99.5,110.167 99.5,108.5C 99.5,108.167 99.5,107.833 99.5,107.5 Z"/></g>
<g><path style="opacity:1" fill="#feec9d" d="M 80.5,109.5 C 81.5,109.5 82.5,109.5 83.5,109.5C 83.7214,110.735 84.3881,111.735 85.5,112.5C 84.4563,113.623 83.7896,114.956 83.5,116.5C 85.6594,122.152 88.326,127.485 91.5,132.5C 90.1667,132.5 88.8333,132.5 87.5,132.5C 86.8333,131.167 86.1667,129.833 85.5,128.5C 83.7693,127.793 82.1026,126.793 80.5,125.5C 79.2647,120.147 79.2647,114.813 80.5,109.5 Z"/></g>
<g><path style="opacity:1" fill="#a37d4d" d="M 130.5,113.5 C 131.376,113.369 132.043,113.702 132.5,114.5C 132.842,116.842 132.842,119.175 132.5,121.5C 131.36,118.975 130.693,116.308 130.5,113.5 Z"/></g>
<g><path style="opacity:1" fill="#bfb5c1" d="M 129.5,113.5 C 129.599,116.237 129.265,118.904 128.5,121.5C 128.5,122.167 128.5,122.833 128.5,123.5C 127.549,122.081 127.216,120.415 127.5,118.5C 125.585,118.784 123.919,118.451 122.5,117.5C 124.167,117.5 125.833,117.5 127.5,117.5C 128.167,116.167 128.833,114.833 129.5,113.5 Z"/></g>
<g><path style="opacity:1" fill="#f5a835" d="M 75.5,120.5 C 76.5,120.5 77.5,120.5 78.5,120.5C 77.6834,126.013 80.0167,128.68 85.5,128.5C 86.1667,129.833 86.8333,131.167 87.5,132.5C 86.2652,132.721 85.2652,133.388 84.5,134.5C 82.0989,133.15 79.7656,131.816 77.5,130.5C 75.5977,127.663 74.931,124.329 75.5,120.5 Z"/></g>
<g><path style="opacity:1" fill="#201846" d="M 129.5,113.5 C 129.833,113.5 130.167,113.5 130.5,113.5C 130.693,116.308 131.36,118.975 132.5,121.5C 131.167,121.5 129.833,121.5 128.5,121.5C 129.265,118.904 129.599,116.237 129.5,113.5 Z"/></g>
<g><path style="opacity:1" fill="#d1b778" d="M 128.5,121.5 C 129.833,121.5 131.167,121.5 132.5,121.5C 134.506,122.485 136.173,123.818 137.5,125.5C 136.5,124.167 135.5,124.167 134.5,125.5C 132.886,123.925 130.886,123.259 128.5,123.5C 128.5,122.833 128.5,122.167 128.5,121.5 Z"/></g>
<g><path style="opacity:1" fill="#231c48" d="M 244.5,124.5 C 244.5,130.5 244.5,136.5 244.5,142.5C 243.17,149.153 241.504,155.819 239.5,162.5C 235.5,162.5 231.5,162.5 227.5,162.5C 227.302,148.03 226.635,148.03 225.5,162.5C 221.818,162.335 218.152,162.501 214.5,163C 218.687,163.071 222.687,163.738 226.5,165C 225.167,172.667 225.167,180.333 226.5,188C 216.839,188.5 207.172,188.666 197.5,188.5C 197.737,187.209 197.404,186.209 196.5,185.5C 194.5,185.5 192.5,185.5 190.5,185.5C 190.5,183.5 190.5,181.5 190.5,179.5C 189.5,179.5 188.5,179.5 187.5,179.5C 187.5,161.167 187.5,142.833 187.5,124.5C 206.5,124.5 225.5,124.5 244.5,124.5 Z"/></g>
<g><path style="opacity:1" fill="#4d49d4" d="M 132.5,129.5 C 132.5,131.5 132.5,133.5 132.5,135.5C 134.167,135.5 135.833,135.5 137.5,135.5C 136.5,140.5 138.5,142.5 143.5,141.5C 143.942,145.154 144.276,148.821 144.5,152.5C 142.5,152.5 140.5,152.5 138.5,152.5C 138.5,150.5 138.5,148.5 138.5,146.5C 136.833,146.5 135.167,146.5 133.5,146.5C 133.5,144.5 133.5,142.5 133.5,140.5C 131.5,140.5 129.5,140.5 127.5,140.5C 127.784,138.585 127.451,136.919 126.5,135.5C 125.167,135.5 123.833,135.5 122.5,135.5C 122.5,133.5 122.5,131.5 122.5,129.5C 125.833,129.5 129.167,129.5 132.5,129.5 Z"/></g>
<g><path style="opacity:1" fill="#a67c56" d="M 73.5,115.5 C 75.256,116.552 75.9227,118.219 75.5,120.5C 74.931,124.329 75.5977,127.663 77.5,130.5C 78.4015,133.872 78.4015,137.205 77.5,140.5C 75.4943,138.492 73.161,137.159 70.5,136.5C 70.6556,133.934 70.3223,131.434 69.5,129C 69.8333,128.5 70.1667,128 70.5,127.5C 71.3857,128.325 71.719,129.325 71.5,130.5C 72.5,130.5 73.5,130.5 74.5,130.5C 74.5,128.5 74.5,126.5 74.5,124.5C 74.7359,121.391 74.4025,118.391 73.5,115.5 Z"/></g>
<g><path style="opacity:1" fill="#271f4a" d="M 121.5,-0.5 C 121.833,-0.5 122.167,-0.5 122.5,-0.5C 122.5,18.8333 122.5,38.1667 122.5,57.5C 135.5,57.5 148.5,57.5 161.5,57.5C 169.833,57.5 178.167,57.5 186.5,57.5C 186.171,44.3226 186.505,31.3226 187.5,18.5C 187.833,18.5 188.167,18.5 188.5,18.5C 187.606,40.7396 187.606,62.7396 188.5,84.5C 187.258,97.2868 187.258,110.287 188.5,123.5C 207.167,123.5 225.833,123.5 244.5,123.5C 244.5,123.833 244.5,124.167 244.5,124.5C 225.5,124.5 206.5,124.5 187.5,124.5C 187.5,142.833 187.5,161.167 187.5,179.5C 185.692,178.082 185.025,176.082 185.5,173.5C 183.5,173.5 181.5,173.5 179.5,173.5C 179.5,171.833 179.5,170.167 179.5,168.5C 177.5,168.5 175.5,168.5 173.5,168.5C 173.5,166.5 173.5,164.5 173.5,162.5C 171.833,162.5 170.167,162.5 168.5,162.5C 168.5,160.5 168.5,158.5 168.5,156.5C 166.5,156.5 164.5,156.5 162.5,156.5C 162.5,154.833 162.5,153.167 162.5,151.5C 160.5,151.5 158.5,151.5 156.5,151.5C 156.5,149.5 156.5,147.5 156.5,145.5C 154.833,145.5 153.167,145.5 151.5,145.5C 151.5,143.5 151.5,141.5 151.5,139.5C 149.5,139.5 147.5,139.5 145.5,139.5C 145.5,137.833 145.5,136.167 145.5,134.5C 145.762,133.022 145.429,131.689 144.5,130.5C 143.158,132.005 141.492,132.672 139.5,132.5C 139.5,131.167 139.5,129.833 139.5,128.5C 137.833,128.5 136.167,128.5 134.5,128.5C 134.5,127.5 134.5,126.5 134.5,125.5C 135.5,124.167 136.5,124.167 137.5,125.5C 138.978,125.762 140.311,125.429 141.5,124.5C 143.987,122.191 145.987,119.524 147.5,116.5C 145.827,114.477 145.16,112.144 145.5,109.5C 146.833,109.5 148.167,109.5 149.5,109.5C 148.559,114.07 148.226,118.737 148.5,123.5C 152.167,123.5 155.833,123.5 159.5,123.5C 158.99,126.388 159.656,128.721 161.5,130.5C 161.914,136.683 161.914,143.016 161.5,149.5C 169.833,148.167 178.167,148.167 186.5,149.5C 187.118,140.73 186.452,132.23 184.5,124C 186.454,115.434 187.12,106.601 186.5,97.5C 186.5,84.8333 186.5,72.1667 186.5,59.5C 173.833,59.5 161.167,59.5 148.5,59.5C 148.221,64.5947 148.555,69.5947 149.5,74.5C 148.265,74.2786 147.265,73.6119 146.5,72.5C 145.571,73.6888 145.238,75.0222 145.5,76.5C 144.566,75.4324 144.232,74.099 144.5,72.5C 141.5,72.5 138.5,72.5 135.5,72.5C 135.5,76.5 135.5,80.5 135.5,84.5C 134.127,82.7935 132.461,81.4602 130.5,80.5C 130.672,78.5082 130.005,76.8415 128.5,75.5C 122.715,73.2025 116.715,72.2025 110.5,72.5C 109.167,72.5 107.833,72.5 106.5,72.5C 106.5,71.5 106.5,70.5 106.5,69.5C 104.5,69.5 102.5,69.5 100.5,69.5C 100.5,68.5 100.5,67.5 100.5,66.5C 98.5853,66.7845 96.9187,66.4511 95.5,65.5C 97.5313,65.0276 99.1979,64.0276 100.5,62.5C 101.914,60.4017 101.248,59.4017 98.5,59.5C 98.5,58.8333 98.5,58.1667 98.5,57.5C 106.167,57.5 113.833,57.5 121.5,57.5C 121.5,38.1667 121.5,18.8333 121.5,-0.5 Z"/></g>
<g><path style="opacity:1" fill="#c9a655" d="M 161.5,130.5 C 159.656,128.721 158.99,126.388 159.5,123.5C 160.735,123.279 161.735,122.612 162.5,121.5C 162.833,122.5 163.167,123.5 163.5,124.5C 162.796,126.535 162.129,128.535 161.5,130.5 Z"/></g>
<g><path style="opacity:1" fill="#caa456" d="M 149.5,74.5 C 148.817,76.1765 147.483,76.8432 145.5,76.5C 145.238,75.0222 145.571,73.6888 146.5,72.5C 147.265,73.6119 148.265,74.2786 149.5,74.5 Z"/></g>
<g><path style="opacity:1" fill="#a17858" d="M 116.5,60.5 C 119.851,61.1839 121.851,63.1839 122.5,66.5C 118.37,66.4657 114.37,65.799 110.5,64.5C 110.5,63.5 110.5,62.5 110.5,61.5C 112.735,61.7947 114.735,61.4614 116.5,60.5 Z"/></g>
<g><path style="opacity:1" fill="#eccb64" d="M 145.5,134.5 C 142.918,134.975 140.918,134.308 139.5,132.5C 141.492,132.672 143.158,132.005 144.5,130.5C 145.429,131.689 145.762,133.022 145.5,134.5 Z"/></g>
<g><path style="opacity:1" fill="#f9d86a" d="M 87.5,132.5 C 88.8333,132.5 90.1667,132.5 91.5,132.5C 93.5,133.167 94.8333,134.5 95.5,136.5C 94.8166,138.176 93.4832,138.843 91.5,138.5C 90.1667,136.5 88.8333,134.5 87.5,132.5 Z"/></g>
<g><path style="opacity:1" fill="#fbe590" d="M 120.5,131.5 C 120.5,133.167 120.5,134.833 120.5,136.5C 122.167,136.5 123.833,136.5 125.5,136.5C 125.5,136.833 125.5,137.167 125.5,137.5C 122.245,137.014 119.578,138.014 117.5,140.5C 116.833,139.833 116.167,139.167 115.5,138.5C 111.572,143.149 106.572,145.815 100.5,146.5C 98.8333,146.5 97.1667,146.5 95.5,146.5C 94.1667,145.833 92.8333,145.167 91.5,144.5C 95.2571,144.714 95.9238,143.714 93.5,141.5C 95.0453,140.548 96.712,140.215 98.5,140.5C 98.5,139.167 98.5,137.833 98.5,136.5C 100.451,136.227 101.951,136.893 103,138.5C 108.717,136.065 114.55,133.732 120.5,131.5 Z"/></g>
<g><path style="opacity:1" fill="#bf9757" d="M 62.5,134.5 C 65.6694,135.505 66.6694,137.505 65.5,140.5C 64.7348,139.388 63.7348,138.721 62.5,138.5C 62.5,137.167 62.5,135.833 62.5,134.5 Z"/></g>
<g><path style="opacity:1" fill="#fbb841" d="M 95.5,136.5 C 96.5,136.5 97.5,136.5 98.5,136.5C 98.5,137.833 98.5,139.167 98.5,140.5C 96.712,140.215 95.0453,140.548 93.5,141.5C 95.9238,143.714 95.2571,144.714 91.5,144.5C 91.6715,142.508 91.0049,140.842 89.5,139.5C 89.9569,138.702 90.6236,138.369 91.5,138.5C 93.4832,138.843 94.8166,138.176 95.5,136.5 Z"/></g>
<g><path style="opacity:1" fill="#f8bb48" d="M 125.5,137.5 C 125.5,139.167 125.5,140.833 125.5,142.5C 123.219,142.077 121.552,142.744 120.5,144.5C 117.912,146.08 115.578,148.08 113.5,150.5C 111.92,148.022 109.92,147.355 107.5,148.5C 107.631,147.624 107.298,146.957 106.5,146.5C 104.235,149.067 102.235,149.067 100.5,146.5C 106.572,145.815 111.572,143.149 115.5,138.5C 116.167,139.167 116.833,139.833 117.5,140.5C 119.578,138.014 122.245,137.014 125.5,137.5 Z"/></g>
<g><path style="opacity:1" fill="#76624e" d="M 95.5,146.5 C 97.1667,146.5 98.8333,146.5 100.5,146.5C 102.235,149.067 104.235,149.067 106.5,146.5C 107.298,146.957 107.631,147.624 107.5,148.5C 107.389,149.117 107.056,149.617 106.5,150C 108.058,150.21 109.391,150.71 110.5,151.5C 105.158,150.608 100.158,148.942 95.5,146.5 Z"/></g>
<g><path style="opacity:1" fill="#8b89e7" d="M 126.5,135.5 C 127.451,136.919 127.784,138.585 127.5,140.5C 129.5,140.5 131.5,140.5 133.5,140.5C 133.5,142.5 133.5,144.5 133.5,146.5C 135.167,146.5 136.833,146.5 138.5,146.5C 138.5,148.5 138.5,150.5 138.5,152.5C 140.5,152.5 142.5,152.5 144.5,152.5C 144.5,154.167 144.5,155.833 144.5,157.5C 143.566,156.432 143.232,155.099 143.5,153.5C 141.5,153.5 139.5,153.5 137.5,153.5C 137.5,151.5 137.5,149.5 137.5,147.5C 135.833,147.5 134.167,147.5 132.5,147.5C 132.5,145.5 132.5,143.5 132.5,141.5C 130.5,141.5 128.5,141.5 126.5,141.5C 126.5,139.833 126.5,138.167 126.5,136.5C 126.5,136.167 126.5,135.833 126.5,135.5 Z"/></g>
<g><path style="opacity:1" fill="#716ef2" d="M 132.5,129.5 C 134.5,129.5 136.5,129.5 138.5,129.5C 138.5,131.5 138.5,133.5 138.5,135.5C 140.167,135.5 141.833,135.5 143.5,135.5C 142.5,140.5 144.5,142.5 149.5,141.5C 149.5,143.5 149.5,145.5 149.5,147.5C 151.167,147.5 152.833,147.5 154.5,147.5C 154.5,149.167 154.5,150.833 154.5,152.5C 156.833,152.5 159.167,152.5 161.5,152.5C 161.5,154.5 161.5,156.5 161.5,158.5C 157.833,158.5 154.167,158.5 150.5,158.5C 150.5,160.167 150.5,161.833 150.5,163.5C 149.549,162.081 149.216,160.415 149.5,158.5C 147.585,158.784 145.919,158.451 144.5,157.5C 146.167,157.5 147.833,157.5 149.5,157.5C 149.5,155.833 149.5,154.167 149.5,152.5C 147.833,152.5 146.167,152.5 144.5,152.5C 144.276,148.821 143.942,145.154 143.5,141.5C 138.5,142.5 136.5,140.5 137.5,135.5C 135.833,135.5 134.167,135.5 132.5,135.5C 132.5,133.5 132.5,131.5 132.5,129.5 Z"/></g>
<g><path style="opacity:0.997" fill="#221b47" d="M -0.5,124.5 C 18.1667,124.5 36.8333,124.5 55.5,124.5C 55.5,137.167 55.5,149.833 55.5,162.5C 38.6583,162.17 21.9916,162.503 5.5,163.5C 5.16667,163.5 4.83333,163.5 4.5,163.5C 2.64712,156.427 0.980457,149.427 -0.5,142.5C -0.5,136.5 -0.5,130.5 -0.5,124.5 Z"/></g>
<g><path style="opacity:1" fill="#2a234c" d="M 60.5,97.5 C 61.5,97.5 62.5,97.5 63.5,97.5C 63.5,99.5 63.5,101.5 63.5,103.5C 66.1667,103.5 68.8333,103.5 71.5,103.5C 71.0849,110.296 72.5849,110.962 76,105.5C 76.1667,106.167 76.3333,106.833 76.5,107.5C 75.1667,109.5 73.8333,111.5 72.5,113.5C 72.5427,114.416 72.8761,115.083 73.5,115.5C 74.4025,118.391 74.7359,121.391 74.5,124.5C 68.8333,124.5 63.1667,124.5 57.5,124.5C 57.5,128.5 57.5,132.5 57.5,136.5C 59.5542,136.635 61.2209,135.968 62.5,134.5C 62.5,135.833 62.5,137.167 62.5,138.5C 60.9582,137.699 59.2915,137.366 57.5,137.5C 57.5,154.5 57.5,171.5 57.5,188.5C 78.8333,188.5 100.167,188.5 121.5,188.5C 121.828,176.655 121.495,164.988 120.5,153.5C 120.842,152.662 121.508,152.328 122.5,152.5C 121.918,165.346 122.584,178.013 124.5,190.5C 122.512,209.805 121.846,229.472 122.5,249.5C 122.167,249.5 121.833,249.5 121.5,249.5C 121.5,242.5 121.5,235.5 121.5,228.5C 121.5,215.833 121.5,203.167 121.5,190.5C 112.833,190.5 104.167,190.5 95.5,190.5C 82.8333,190.5 70.1667,190.5 57.5,190.5C 57.5,194.833 57.5,199.167 57.5,203.5C 55.5698,199.627 54.9031,195.294 55.5,190.5C 42.8333,190.5 30.1667,190.5 17.5,190.5C 16.8333,190.5 16.5,190.167 16.5,189.5C 29.3226,188.505 42.3226,188.171 55.5,188.5C 55.5,180.167 55.5,171.833 55.5,163.5C 38.8333,164.833 22.1667,164.833 5.5,163.5C 21.9916,162.503 38.6583,162.17 55.5,162.5C 55.5,149.833 55.5,137.167 55.5,124.5C 36.8333,124.5 18.1667,124.5 -0.5,124.5C -0.5,124.167 -0.5,123.833 -0.5,123.5C 1.16667,123.5 2.83333,123.5 4.5,123.5C 21.5,123.5 38.5,123.5 55.5,123.5C 55.5,120.167 55.5,116.833 55.5,113.5C 55.8333,113.5 56.1667,113.5 56.5,113.5C 56.3691,114.376 56.7025,115.043 57.5,115.5C 58.5,113.5 59.5,111.5 60.5,109.5C 60.2528,108.287 59.5862,107.62 58.5,107.5C 60.1014,104.416 60.7681,101.083 60.5,97.5 Z"/></g>
<g><path style="opacity:1" fill="#f7ce57" d="M 120.5,144.5 C 122.213,145.305 123.879,146.305 125.5,147.5C 124.675,148.386 123.675,148.719 122.5,148.5C 122.5,149.833 122.5,151.167 122.5,152.5C 121.508,152.328 120.842,152.662 120.5,153.5C 117.375,154.479 114.042,154.813 110.5,154.5C 110.5,153.5 110.5,152.5 110.5,151.5C 109.391,150.71 108.058,150.21 106.5,150C 107.056,149.617 107.389,149.117 107.5,148.5C 109.92,147.355 111.92,148.022 113.5,150.5C 115.578,148.08 117.912,146.08 120.5,144.5 Z"/></g>
<g><path style="opacity:1" fill="#3835c2" d="M 144.5,152.5 C 146.167,152.5 147.833,152.5 149.5,152.5C 149.5,154.167 149.5,155.833 149.5,157.5C 147.833,157.5 146.167,157.5 144.5,157.5C 144.5,155.833 144.5,154.167 144.5,152.5 Z"/></g>
<g><path style="opacity:1" fill="#4e4ad5" d="M 161.5,158.5 C 161.5,160.5 161.5,162.5 161.5,164.5C 163.167,164.5 164.833,164.5 166.5,164.5C 166.833,167.833 167.167,171.167 167.5,174.5C 169.167,174.5 170.833,174.5 172.5,174.5C 172.5,176.5 172.5,178.5 172.5,180.5C 170.833,180.5 169.167,180.5 167.5,180.5C 168.5,175.5 166.5,173.5 161.5,174.5C 161.5,172.833 161.5,171.167 161.5,169.5C 159.5,169.5 157.5,169.5 155.5,169.5C 155.5,167.5 155.5,165.5 155.5,163.5C 153.833,163.5 152.167,163.5 150.5,163.5C 150.5,161.833 150.5,160.167 150.5,158.5C 154.167,158.5 157.833,158.5 161.5,158.5 Z"/></g>
<g><path style="opacity:1" fill="#9f9ed0" d="M 125.5,136.5 C 125.833,136.5 126.167,136.5 126.5,136.5C 126.5,138.167 126.5,139.833 126.5,141.5C 128.5,141.5 130.5,141.5 132.5,141.5C 132.5,143.5 132.5,145.5 132.5,147.5C 134.167,147.5 135.833,147.5 137.5,147.5C 137.5,149.5 137.5,151.5 137.5,153.5C 139.5,153.5 141.5,153.5 143.5,153.5C 143.232,155.099 143.566,156.432 144.5,157.5C 145.919,158.451 147.585,158.784 149.5,158.5C 149.216,160.415 149.549,162.081 150.5,163.5C 151.568,164.434 152.901,164.768 154.5,164.5C 154.5,166.5 154.5,168.5 154.5,170.5C 156.5,170.5 158.5,170.5 160.5,170.5C 160.5,172.5 160.5,174.5 160.5,176.5C 159.549,175.081 159.216,173.415 159.5,171.5C 157.5,171.5 155.5,171.5 153.5,171.5C 153.5,169.5 153.5,167.5 153.5,165.5C 151.833,165.5 150.167,165.5 148.5,165.5C 148.5,163.5 148.5,161.5 148.5,159.5C 146.5,159.5 144.5,159.5 142.5,159.5C 142.5,157.833 142.5,156.167 142.5,154.5C 140.5,154.5 138.5,154.5 136.5,154.5C 136.5,152.5 136.5,150.5 136.5,148.5C 134.833,148.5 133.167,148.5 131.5,148.5C 131.5,146.5 131.5,144.5 131.5,142.5C 129.5,142.5 127.5,142.5 125.5,142.5C 125.5,140.833 125.5,139.167 125.5,137.5C 125.5,137.167 125.5,136.833 125.5,136.5 Z"/></g>
<g><path style="opacity:0.98" fill="#221b47" d="M 4.5,163.5 C 4.83333,163.5 5.16667,163.5 5.5,163.5C 22.1667,164.833 38.8333,164.833 55.5,163.5C 55.5,171.833 55.5,180.167 55.5,188.5C 42.3226,188.171 29.3226,188.505 16.5,189.5C 11.4402,181.377 7.44018,172.71 4.5,163.5 Z"/></g>
<g><path style="opacity:1" fill="#231c47" d="M 74.5,124.5 C 74.5,126.5 74.5,128.5 74.5,130.5C 73.5,130.5 72.5,130.5 71.5,130.5C 71.719,129.325 71.3857,128.325 70.5,127.5C 70.1667,128 69.8333,128.5 69.5,129C 70.3223,131.434 70.6556,133.934 70.5,136.5C 73.161,137.159 75.4943,138.492 77.5,140.5C 78.4015,137.205 78.4015,133.872 77.5,130.5C 79.7656,131.816 82.0989,133.15 84.5,134.5C 85.2652,133.388 86.2652,132.721 87.5,132.5C 88.8333,134.5 90.1667,136.5 91.5,138.5C 90.6236,138.369 89.9569,138.702 89.5,139.5C 91.0049,140.842 91.6715,142.508 91.5,144.5C 92.8333,145.167 94.1667,145.833 95.5,146.5C 100.158,148.942 105.158,150.608 110.5,151.5C 110.5,152.5 110.5,153.5 110.5,154.5C 114.042,154.813 117.375,154.479 120.5,153.5C 121.495,164.988 121.828,176.655 121.5,188.5C 100.167,188.5 78.8333,188.5 57.5,188.5C 57.5,171.5 57.5,154.5 57.5,137.5C 59.2915,137.366 60.9582,137.699 62.5,138.5C 63.7348,138.721 64.7348,139.388 65.5,140.5C 66.6694,137.505 65.6694,135.505 62.5,134.5C 61.2209,135.968 59.5542,136.635 57.5,136.5C 57.5,132.5 57.5,128.5 57.5,124.5C 63.1667,124.5 68.8333,124.5 74.5,124.5 Z"/></g>
<g><path style="opacity:1" fill="#826850" d="M 69.5,148.5 C 68.5655,147.432 68.2322,146.099 68.5,144.5C 70.1667,144.5 71.8333,144.5 73.5,144.5C 73.5,146.167 73.5,147.833 73.5,149.5C 71.901,149.768 70.5676,149.434 69.5,148.5 Z"/></g>
<g><path style="opacity:1" fill="#e3b959" d="M 69.5,148.5 C 70.5676,149.434 71.901,149.768 73.5,149.5C 73.5,147.833 73.5,146.167 73.5,144.5C 71.8333,144.5 70.1667,144.5 68.5,144.5C 68.2322,146.099 68.5655,147.432 69.5,148.5 Z"/></g>
<g><path style="opacity:1" fill="#aeadea" d="M 105.5,101.5 C 107.5,101.5 109.5,101.5 111.5,101.5C 111.5,103.167 111.5,104.833 111.5,106.5C 113.5,106.5 115.5,106.5 117.5,106.5C 117.5,108.5 117.5,110.5 117.5,112.5C 119.167,112.5 120.833,112.5 122.5,112.5C 122.5,114.167 122.5,115.833 122.5,117.5C 123.919,118.451 125.585,118.784 127.5,118.5C 127.216,120.415 127.549,122.081 128.5,123.5C 130.886,123.259 132.886,123.925 134.5,125.5C 134.5,126.5 134.5,127.5 134.5,128.5C 136.167,128.5 137.833,128.5 139.5,128.5C 139.5,129.833 139.5,131.167 139.5,132.5C 140.918,134.308 142.918,134.975 145.5,134.5C 145.5,136.167 145.5,137.833 145.5,139.5C 147.5,139.5 149.5,139.5 151.5,139.5C 151.5,141.5 151.5,143.5 151.5,145.5C 153.167,145.5 154.833,145.5 156.5,145.5C 156.5,147.5 156.5,149.5 156.5,151.5C 158.5,151.5 160.5,151.5 162.5,151.5C 162.5,153.167 162.5,154.833 162.5,156.5C 164.5,156.5 166.5,156.5 168.5,156.5C 168.5,158.5 168.5,160.5 168.5,162.5C 170.167,162.5 171.833,162.5 173.5,162.5C 173.5,164.5 173.5,166.5 173.5,168.5C 175.5,168.5 177.5,168.5 179.5,168.5C 179.5,170.167 179.5,171.833 179.5,173.5C 181.5,173.5 183.5,173.5 185.5,173.5C 185.025,176.082 185.692,178.082 187.5,179.5C 188.5,179.5 189.5,179.5 190.5,179.5C 190.5,181.5 190.5,183.5 190.5,185.5C 192.5,185.5 194.5,185.5 196.5,185.5C 196.5,190.167 196.5,194.833 196.5,199.5C 191.833,199.5 187.167,199.5 182.5,199.5C 182.5,197.5 182.5,195.5 182.5,193.5C 180.5,193.5 178.5,193.5 176.5,193.5C 176.5,191.833 176.5,190.167 176.5,188.5C 174.5,188.5 172.5,188.5 170.5,188.5C 170.5,186.5 170.5,184.5 170.5,182.5C 171.451,183.919 171.784,185.585 171.5,187.5C 173.5,187.5 175.5,187.5 177.5,187.5C 177.216,189.415 177.549,191.081 178.5,192.5C 180.167,192.5 181.833,192.5 183.5,192.5C 183.5,194.5 183.5,196.5 183.5,198.5C 187.5,198.5 191.5,198.5 195.5,198.5C 195.5,194.5 195.5,190.5 195.5,186.5C 193.5,186.5 191.5,186.5 189.5,186.5C 189.5,184.833 189.5,183.167 189.5,181.5C 187.833,181.5 186.167,181.5 184.5,181.5C 184.167,181.5 183.833,181.5 183.5,181.5C 183.5,179.5 183.5,177.5 183.5,175.5C 181.833,175.5 180.167,175.5 178.5,175.5C 178.5,173.5 178.5,171.5 178.5,169.5C 176.5,169.5 174.5,169.5 172.5,169.5C 172.5,167.5 172.5,165.5 172.5,163.5C 170.833,163.5 169.167,163.5 167.5,163.5C 167.5,161.833 167.5,160.167 167.5,158.5C 165.5,158.5 163.5,158.5 161.5,158.5C 161.5,156.5 161.5,154.5 161.5,152.5C 159.167,152.5 156.833,152.5 154.5,152.5C 154.5,150.833 154.5,149.167 154.5,147.5C 152.833,147.5 151.167,147.5 149.5,147.5C 149.5,145.5 149.5,143.5 149.5,141.5C 144.5,142.5 142.5,140.5 143.5,135.5C 141.833,135.5 140.167,135.5 138.5,135.5C 138.5,133.5 138.5,131.5 138.5,129.5C 136.5,129.5 134.5,129.5 132.5,129.5C 132.5,127.833 132.5,126.167 132.5,124.5C 130.5,124.5 128.5,124.5 126.5,124.5C 126.5,122.833 126.5,121.167 126.5,119.5C 124.833,119.5 123.167,119.5 121.5,119.5C 121.5,117.5 121.5,115.5 121.5,113.5C 119.833,113.5 118.167,113.5 116.5,113.5C 116.5,111.833 116.5,110.167 116.5,108.5C 114.5,108.5 112.5,108.5 110.5,108.5C 110.5,106.5 110.5,104.5 110.5,102.5C 108.585,102.784 106.919,102.451 105.5,101.5 Z"/></g>
<g><path style="opacity:1" fill="#706cf0" d="M 161.5,158.5 C 163.5,158.5 165.5,158.5 167.5,158.5C 167.5,160.167 167.5,161.833 167.5,163.5C 169.167,163.5 170.833,163.5 172.5,163.5C 172.5,165.5 172.5,167.5 172.5,169.5C 174.5,169.5 176.5,169.5 178.5,169.5C 178.5,171.5 178.5,173.5 178.5,175.5C 180.167,175.5 181.833,175.5 183.5,175.5C 183.5,177.5 183.5,179.5 183.5,181.5C 179.833,181.5 176.167,181.5 172.5,181.5C 170.585,181.784 168.919,181.451 167.5,180.5C 169.167,180.5 170.833,180.5 172.5,180.5C 172.5,178.5 172.5,176.5 172.5,174.5C 170.833,174.5 169.167,174.5 167.5,174.5C 167.167,171.167 166.833,167.833 166.5,164.5C 164.833,164.5 163.167,164.5 161.5,164.5C 161.5,162.5 161.5,160.5 161.5,158.5 Z"/></g>
<g><path style="opacity:1" fill="#9997e4" d="M 150.5,163.5 C 152.167,163.5 153.833,163.5 155.5,163.5C 155.5,165.5 155.5,167.5 155.5,169.5C 157.5,169.5 159.5,169.5 161.5,169.5C 161.5,171.167 161.5,172.833 161.5,174.5C 166.5,173.5 168.5,175.5 167.5,180.5C 168.919,181.451 170.585,181.784 172.5,181.5C 172.5,183.167 172.5,184.833 172.5,186.5C 174.5,186.5 176.5,186.5 178.5,186.5C 178.5,188.5 178.5,190.5 178.5,192.5C 177.549,191.081 177.216,189.415 177.5,187.5C 175.5,187.5 173.5,187.5 171.5,187.5C 171.784,185.585 171.451,183.919 170.5,182.5C 168.833,182.5 167.167,182.5 165.5,182.5C 165.5,180.5 165.5,178.5 165.5,176.5C 163.833,176.5 162.167,176.5 160.5,176.5C 160.5,174.5 160.5,172.5 160.5,170.5C 158.5,170.5 156.5,170.5 154.5,170.5C 154.5,168.5 154.5,166.5 154.5,164.5C 152.901,164.768 151.568,164.434 150.5,163.5 Z"/></g>
<g><path style="opacity:1" fill="#4e4ad4" d="M 172.5,181.5 C 176.167,181.5 179.833,181.5 183.5,181.5C 183.833,181.5 184.167,181.5 184.5,181.5C 184.5,184.833 184.5,188.167 184.5,191.5C 186.167,191.5 187.833,191.5 189.5,191.5C 189.5,193.5 189.5,195.5 189.5,197.5C 187.833,197.5 186.167,197.5 184.5,197.5C 184.784,195.585 184.451,193.919 183.5,192.5C 181.833,192.5 180.167,192.5 178.5,192.5C 178.5,190.5 178.5,188.5 178.5,186.5C 176.5,186.5 174.5,186.5 172.5,186.5C 172.5,184.833 172.5,183.167 172.5,181.5 Z"/></g>
<g><path style="opacity:1" fill="#6a67ef" d="M 184.5,181.5 C 186.167,181.5 187.833,181.5 189.5,181.5C 189.5,183.167 189.5,184.833 189.5,186.5C 190.919,187.451 192.585,187.784 194.5,187.5C 194.5,190.833 194.5,194.167 194.5,197.5C 192.833,197.5 191.167,197.5 189.5,197.5C 189.5,195.5 189.5,193.5 189.5,191.5C 187.833,191.5 186.167,191.5 184.5,191.5C 184.5,188.167 184.5,184.833 184.5,181.5 Z"/></g>
<g><path style="opacity:1" fill="#221b46" d="M 125.5,142.5 C 127.5,142.5 129.5,142.5 131.5,142.5C 131.5,144.5 131.5,146.5 131.5,148.5C 133.167,148.5 134.833,148.5 136.5,148.5C 136.5,150.5 136.5,152.5 136.5,154.5C 138.5,154.5 140.5,154.5 142.5,154.5C 142.5,156.167 142.5,157.833 142.5,159.5C 144.5,159.5 146.5,159.5 148.5,159.5C 148.5,161.5 148.5,163.5 148.5,165.5C 150.167,165.5 151.833,165.5 153.5,165.5C 153.5,167.5 153.5,169.5 153.5,171.5C 155.5,171.5 157.5,171.5 159.5,171.5C 159.216,173.415 159.549,175.081 160.5,176.5C 162.167,176.5 163.833,176.5 165.5,176.5C 165.5,178.5 165.5,180.5 165.5,182.5C 167.167,182.5 168.833,182.5 170.5,182.5C 170.5,184.5 170.5,186.5 170.5,188.5C 172.5,188.5 174.5,188.5 176.5,188.5C 176.5,190.167 176.5,191.833 176.5,193.5C 178.5,193.5 180.5,193.5 182.5,193.5C 182.5,195.5 182.5,197.5 182.5,199.5C 187.167,199.5 191.833,199.5 196.5,199.5C 197.166,196.642 197.833,193.642 198.5,190.5C 198.833,192.5 199.167,194.5 199.5,196.5C 199.41,198.964 198.743,201.13 197.5,203C 199.389,206.836 200.055,211.003 199.5,215.5C 195.5,215.5 191.5,215.5 187.5,215.5C 187.5,211.833 187.5,208.167 187.5,204.5C 183.535,203.631 179.535,202.798 175.5,202C 174.726,199.595 174.226,197.095 174,194.5C 173.503,197.146 173.336,199.813 173.5,202.5C 169.818,202.665 166.152,202.499 162.5,202C 161.862,198.065 161.196,194.231 160.5,190.5C 148.5,190.5 136.5,190.5 124.5,190.5C 122.584,178.013 121.918,165.346 122.5,152.5C 122.5,151.167 122.5,149.833 122.5,148.5C 123.675,148.719 124.675,148.386 125.5,147.5C 123.879,146.305 122.213,145.305 120.5,144.5C 121.552,142.744 123.219,142.077 125.5,142.5 Z"/></g>
<g><path style="opacity:1" fill="#231c48" d="M 95.5,190.5 C 104.167,190.5 112.833,190.5 121.5,190.5C 121.5,203.167 121.5,215.833 121.5,228.5C 108.167,228.5 94.8333,228.5 81.5,228.5C 81.6567,220.479 82.1567,212.479 83,204.5C 83.4986,208.152 83.6653,211.818 83.5,215.5C 87.4367,215.793 91.27,215.46 95,214.5C 94.1738,206.496 94.3404,198.496 95.5,190.5 Z"/></g>
<g><path style="opacity:1" fill="#8482ee" d="M 189.5,186.5 C 191.5,186.5 193.5,186.5 195.5,186.5C 195.5,190.5 195.5,194.5 195.5,198.5C 191.5,198.5 187.5,198.5 183.5,198.5C 183.5,196.5 183.5,194.5 183.5,192.5C 184.451,193.919 184.784,195.585 184.5,197.5C 186.167,197.5 187.833,197.5 189.5,197.5C 191.167,197.5 192.833,197.5 194.5,197.5C 194.5,194.167 194.5,190.833 194.5,187.5C 192.585,187.784 190.919,187.451 189.5,186.5 Z"/></g>
<g><path style="opacity:1" fill="#231c47" d="M 95.5,190.5 C 94.3404,198.496 94.1738,206.496 95,214.5C 91.27,215.46 87.4367,215.793 83.5,215.5C 83.6653,211.818 83.4986,208.152 83,204.5C 82.1567,212.479 81.6567,220.479 81.5,228.5C 73.5,227.167 65.5,227.167 57.5,228.5C 57.5,220.167 57.5,211.833 57.5,203.5C 57.5,199.167 57.5,194.833 57.5,190.5C 70.1667,190.5 82.8333,190.5 95.5,190.5 Z"/></g>
<g><path style="opacity:1" fill="#231c47" d="M 124.5,190.5 C 136.5,190.5 148.5,190.5 160.5,190.5C 160.5,194.5 160.5,198.5 160.5,202.5C 145.833,202.833 145.833,203.167 160.5,203.5C 160.5,207.5 160.5,211.5 160.5,215.5C 156.22,215.388 152.22,215.388 148.5,215.5C 152.445,216.491 156.445,216.824 160.5,216.5C 160.5,220.5 160.5,224.5 160.5,228.5C 156.486,228.334 152.486,228.501 148.5,229C 156.827,229.5 165.16,229.666 173.5,229.5C 173.5,232.5 173.5,235.5 173.5,238.5C 162.958,243.608 151.958,247.275 140.5,249.5C 134.5,249.5 128.5,249.5 122.5,249.5C 121.846,229.472 122.512,209.805 124.5,190.5 Z"/></g>
<g><path style="opacity:1" fill="#241d48" d="M 239.5,162.5 C 228.539,197.458 206.539,222.792 173.5,238.5C 173.5,235.5 173.5,232.5 173.5,229.5C 165.16,229.666 156.827,229.5 148.5,229C 152.486,228.501 156.486,228.334 160.5,228.5C 160.5,224.5 160.5,220.5 160.5,216.5C 156.445,216.824 152.445,216.491 148.5,215.5C 152.22,215.388 156.22,215.388 160.5,215.5C 160.5,211.5 160.5,207.5 160.5,203.5C 145.833,203.167 145.833,202.833 160.5,202.5C 160.5,198.5 160.5,194.5 160.5,190.5C 161.196,194.231 161.862,198.065 162.5,202C 166.152,202.499 169.818,202.665 173.5,202.5C 173.336,199.813 173.503,197.146 174,194.5C 174.226,197.095 174.726,199.595 175.5,202C 179.535,202.798 183.535,203.631 187.5,204.5C 187.5,208.167 187.5,211.833 187.5,215.5C 191.5,215.5 195.5,215.5 199.5,215.5C 200.055,211.003 199.389,206.836 197.5,203C 198.743,201.13 199.41,198.964 199.5,196.5C 199.167,194.5 198.833,192.5 198.5,190.5C 197.833,193.642 197.166,196.642 196.5,199.5C 196.5,194.833 196.5,190.167 196.5,185.5C 197.404,186.209 197.737,187.209 197.5,188.5C 207.172,188.666 216.839,188.5 226.5,188C 225.167,180.333 225.167,172.667 226.5,165C 222.687,163.738 218.687,163.071 214.5,163C 218.152,162.501 221.818,162.335 225.5,162.5C 226.635,148.03 227.302,148.03 227.5,162.5C 231.5,162.5 235.5,162.5 239.5,162.5 Z"/></g>
<g><path style="opacity:1" fill="#231c48" d="M 17.5,190.5 C 30.1667,190.5 42.8333,190.5 55.5,190.5C 54.9031,195.294 55.5698,199.627 57.5,203.5C 57.5,211.833 57.5,220.167 57.5,228.5C 65.5,227.167 73.5,227.167 81.5,228.5C 94.8333,228.5 108.167,228.5 121.5,228.5C 121.5,235.5 121.5,242.5 121.5,249.5C 115.833,249.5 110.167,249.5 104.5,249.5C 66.5156,243.013 37.5156,223.346 17.5,190.5 Z"/></g>
</svg>
