<?xml version="1.0" encoding="UTF-8"?>
<!DOCTYPE svg PUBLIC "-//W3C//DTD SVG 1.1//EN" "http://www.w3.org/Graphics/SVG/1.1/DTD/svg11.dtd">
<svg xmlns="http://www.w3.org/2000/svg" version="1.1" width="250px" height="245px" style="shape-rendering:geometricPrecision; text-rendering:geometricPrecision; image-rendering:optimizeQuality; fill-rule:evenodd; clip-rule:evenodd" xmlns:xlink="http://www.w3.org/1999/xlink">
<g><path style="opacity:1" fill="#fdfefe" d="M -0.5,-0.5 C 82.8333,-0.5 166.167,-0.5 249.5,-0.5C 249.5,81.1667 249.5,162.833 249.5,244.5C 166.167,244.5 82.8333,244.5 -0.5,244.5C -0.5,162.833 -0.5,81.1667 -0.5,-0.5 Z"/></g>
<g><path style="opacity:1" fill="#b9def8" d="M 135.5,9.5 C 131.5,9.5 127.5,9.5 123.5,9.5C 118.848,9.99805 114.181,10.3314 109.5,10.5C 114.59,9.03488 119.923,8.36822 125.5,8.5C 129.018,8.5016 132.351,8.83493 135.5,9.5 Z"/></g>
<g><path style="opacity:1" fill="#76c4f2" d="M 104.5,11.5 C 104.611,12.1174 104.944,12.6174 105.5,13C 104.751,14.7337 104.251,16.567 104,18.5C 100.408,18.926 98.9079,20.926 99.5,24.5C 91.0033,26.5783 82.6699,29.0783 74.5,32C 73.3333,33.1667 72.1667,34.3333 71,35.5C 69.9339,32.4369 67.7672,30.9369 64.5,31C 67.1247,29.6243 67.1247,28.4577 64.5,27.5C 76.4135,18.8855 89.7469,13.5522 104.5,11.5 Z"/></g>
<g><path style="opacity:1" fill="#75bef1" d="M 123.5,9.5 C 124.398,10.1577 125.398,10.8243 126.5,11.5C 122.355,15.1261 119.188,19.4594 117,24.5C 114.73,26.9968 112.396,29.3302 110,31.5C 108.333,30.8333 106.667,30.1667 105,29.5C 104.5,30 104,30.5 103.5,31C 105.256,31.2022 106.922,31.7022 108.5,32.5C 107.105,34.8612 105.105,36.5279 102.5,37.5C 98.2622,43.618 92.5956,47.7847 85.5,50C 84.6433,50.6891 83.9767,51.5224 83.5,52.5C 78.8969,53.6578 74.2302,54.4911 69.5,55C 75.1667,55.3333 80.8333,55.6667 86.5,56C 84.8333,56.3333 83.1667,56.6667 81.5,57C 91.1609,57.4998 100.828,57.6665 110.5,57.5C 112.167,57.5 113.833,57.5 115.5,57.5C 122.833,57.5 130.167,57.5 137.5,57.5C 142.363,57.1805 147.03,57.5139 151.5,58.5C 120.5,58.5 89.5,58.5 58.5,58.5C 58.5,63.8333 58.5,69.1667 58.5,74.5C 57.6739,69.6835 57.1739,64.6835 57,59.5C 55.6667,60.8333 54.3333,62.1667 53,63.5C 51.883,62.0506 51.2163,60.3839 51,58.5C 45.6091,61.7628 44.1091,60.2628 46.5,54C 44.3513,52.848 42.518,51.348 41,49.5C 40.3292,50.2524 39.4959,50.5858 38.5,50.5C 45.9218,41.4106 54.5885,33.744 64.5,27.5C 67.1247,28.4577 67.1247,29.6243 64.5,31C 67.7672,30.9369 69.9339,32.4369 71,35.5C 72.1667,34.3333 73.3333,33.1667 74.5,32C 82.6699,29.0783 91.0033,26.5783 99.5,24.5C 98.9079,20.926 100.408,18.926 104,18.5C 104.251,16.567 104.751,14.7337 105.5,13C 104.944,12.6174 104.611,12.1174 104.5,11.5C 105.919,10.5489 107.585,10.2155 109.5,10.5C 114.181,10.3314 118.848,9.99805 123.5,9.5 Z"/></g>
<g><path style="opacity:1" fill="#65abef" d="M 152.5,12.5 C 158.172,13.3926 163.506,15.0592 168.5,17.5C 164.615,18.7084 161.448,21.0418 159,24.5C 158.751,23.376 158.251,22.376 157.5,21.5C 156.646,22.5217 155.646,23.3551 154.5,24C 153.686,26.6269 152.353,28.9602 150.5,31C 154.037,33.4158 153.37,34.9158 148.5,35.5C 147.973,38.2314 147.14,40.8981 146,43.5C 144.667,42.8333 143.333,42.1667 142,41.5C 141.041,46.1167 140.208,50.45 139.5,54.5C 138.719,53.2713 138.219,51.938 138,50.5C 136.94,52.9501 136.773,55.2834 137.5,57.5C 130.167,57.5 122.833,57.5 115.5,57.5C 115.082,56.7784 114.416,56.2784 113.5,56C 117.479,54.248 119.645,51.0813 120,46.5C 121.897,44.6015 124.064,43.1015 126.5,42C 125.167,40.1598 125.334,39.6598 127,40.5C 129.998,37.7227 133.332,35.3894 137,33.5C 140.847,26.4612 145.18,19.7945 150,13.5C 150.671,12.7476 151.504,12.4142 152.5,12.5 Z"/></g>
<g><path style="opacity:1" fill="#6bb2f0" d="M 139.5,10.5 C 144.028,10.7704 148.361,11.4371 152.5,12.5C 151.504,12.4142 150.671,12.7476 150,13.5C 145.18,19.7945 140.847,26.4612 137,33.5C 133.332,35.3894 129.998,37.7227 127,40.5C 125.334,39.6598 125.167,40.1598 126.5,42C 124.064,43.1015 121.897,44.6015 120,46.5C 119.645,51.0813 117.479,54.248 113.5,56C 114.416,56.2784 115.082,56.7784 115.5,57.5C 113.833,57.5 112.167,57.5 110.5,57.5C 107.325,56.5713 103.991,55.738 100.5,55C 103.256,52.5538 106.256,50.3871 109.5,48.5C 109.687,46.4357 110.187,44.4357 111,42.5C 116.006,37.1615 121.339,32.1615 127,27.5C 127.333,25.5 127.667,23.5 128,21.5C 129.011,20.6634 130.178,20.33 131.5,20.5C 131.089,17.7237 131.922,17.057 134,18.5C 138.493,17.0416 139.327,14.5416 136.5,11C 137.448,10.5172 138.448,10.3505 139.5,10.5 Z"/></g>
<g><path style="opacity:1" fill="#5da6ed" d="M 168.5,17.5 C 173.251,18.7105 177.584,20.7105 181.5,23.5C 179.589,23.5743 178.422,24.5743 178,26.5C 177.781,25.062 177.281,23.7287 176.5,22.5C 174.114,24.7308 172.281,27.3975 171,30.5C 169.667,31.1667 168.333,31.8333 167,32.5C 164.731,35.3968 162.564,38.3968 160.5,41.5C 160.977,42.4776 161.643,43.3109 162.5,44C 166.025,44.1787 169.359,44.6787 172.5,45.5C 164.264,43.5823 158.764,46.5823 156,54.5C 156.321,60.4751 158.821,65.4751 163.5,69.5C 164.348,71.4086 164.682,73.4086 164.5,75.5C 163.849,74.9094 163.182,74.2427 162.5,73.5C 161.914,73.7093 161.414,74.0426 161,74.5C 159.011,70.0114 155.844,66.6781 151.5,64.5C 151.5,64.1667 151.5,63.8333 151.5,63.5C 151.5,61.8333 151.5,60.1667 151.5,58.5C 147.03,57.5139 142.363,57.1805 137.5,57.5C 136.773,55.2834 136.94,52.9501 138,50.5C 138.219,51.938 138.719,53.2713 139.5,54.5C 140.208,50.45 141.041,46.1167 142,41.5C 143.333,42.1667 144.667,42.8333 146,43.5C 147.14,40.8981 147.973,38.2314 148.5,35.5C 153.37,34.9158 154.037,33.4158 150.5,31C 152.353,28.9602 153.686,26.6269 154.5,24C 155.646,23.3551 156.646,22.5217 157.5,21.5C 158.251,22.376 158.751,23.376 159,24.5C 161.448,21.0418 164.615,18.7084 168.5,17.5 Z"/></g>
<g><path style="opacity:1" fill="#72b8f1" d="M 123.5,9.5 C 127.5,9.5 131.5,9.5 135.5,9.5C 137.099,9.23219 138.432,9.56552 139.5,10.5C 138.448,10.3505 137.448,10.5172 136.5,11C 139.327,14.5416 138.493,17.0416 134,18.5C 131.922,17.057 131.089,17.7237 131.5,20.5C 130.178,20.33 129.011,20.6634 128,21.5C 127.667,23.5 127.333,25.5 127,27.5C 121.339,32.1615 116.006,37.1615 111,42.5C 110.187,44.4357 109.687,46.4357 109.5,48.5C 106.256,50.3871 103.256,52.5538 100.5,55C 103.991,55.738 107.325,56.5713 110.5,57.5C 100.828,57.6665 91.1609,57.4998 81.5,57C 83.1667,56.6667 84.8333,56.3333 86.5,56C 80.8333,55.6667 75.1667,55.3333 69.5,55C 74.2302,54.4911 78.8969,53.6578 83.5,52.5C 83.9767,51.5224 84.6433,50.6891 85.5,50C 92.5956,47.7847 98.2622,43.618 102.5,37.5C 105.105,36.5279 107.105,34.8612 108.5,32.5C 106.922,31.7022 105.256,31.2022 103.5,31C 104,30.5 104.5,30 105,29.5C 106.667,30.1667 108.333,30.8333 110,31.5C 112.396,29.3302 114.73,26.9968 117,24.5C 119.188,19.4594 122.355,15.1261 126.5,11.5C 125.398,10.8243 124.398,10.1577 123.5,9.5 Z"/></g>
<g><path style="opacity:1" fill="#499dec" d="M 181.5,23.5 C 190.955,27.9572 199.289,33.9572 206.5,41.5C 205.078,41.7086 203.745,42.2086 202.5,43C 200.667,46.1667 198.167,48.6667 195,50.5C 194.667,52.5 194.333,54.5 194,56.5C 193.667,55.5 193.333,54.5 193,53.5C 192.097,54.7014 190.931,55.5348 189.5,56C 189.818,58.0419 189.985,60.2086 190,62.5C 191.417,63.0779 192.25,64.0779 192.5,65.5C 186.071,62.9017 181.904,58.235 180,51.5C 177.894,48.8823 175.394,46.8823 172.5,45.5C 169.359,44.6787 166.025,44.1787 162.5,44C 161.643,43.3109 160.977,42.4776 160.5,41.5C 162.564,38.3968 164.731,35.3968 167,32.5C 168.333,31.8333 169.667,31.1667 171,30.5C 172.281,27.3975 174.114,24.7308 176.5,22.5C 177.281,23.7287 177.781,25.062 178,26.5C 178.422,24.5743 179.589,23.5743 181.5,23.5 Z"/></g>
<g><path style="opacity:1" fill="#3498ea" d="M 206.5,41.5 C 220.298,53.9973 229.632,69.3306 234.5,87.5C 235.388,92.0726 236.721,96.406 238.5,100.5C 238.5,100.833 238.5,101.167 238.5,101.5C 238.5,102.833 238.5,104.167 238.5,105.5C 237.85,105.804 237.183,106.137 236.5,106.5C 234.567,101.681 231.901,97.3481 228.5,93.5C 230.186,90.3899 229.52,87.8899 226.5,86C 229.194,83.4475 228.527,82.2808 224.5,82.5C 224.617,80.5165 223.95,78.8498 222.5,77.5C 219.503,76.7518 216.503,76.0851 213.5,75.5C 211.844,77.0224 210.677,76.689 210,74.5C 208.749,77.8163 207.082,78.1496 205,75.5C 203.256,76.6492 203.089,77.9825 204.5,79.5C 201.388,80.7071 198.888,82.7071 197,85.5C 195.229,88.4297 193.729,91.4297 192.5,94.5C 193.143,85.073 193.143,75.4063 192.5,65.5C 192.25,64.0779 191.417,63.0779 190,62.5C 189.985,60.2086 189.818,58.0419 189.5,56C 190.931,55.5348 192.097,54.7014 193,53.5C 193.333,54.5 193.667,55.5 194,56.5C 194.333,54.5 194.667,52.5 195,50.5C 198.167,48.6667 200.667,46.1667 202.5,43C 203.745,42.2086 205.078,41.7086 206.5,41.5 Z"/></g>
<g><path style="opacity:1" fill="#72b8f1" d="M 58.5,74.5 C 58.5,81.1667 58.5,87.8333 58.5,94.5C 57.6805,91.6946 57.1805,88.6946 57,85.5C 56.5581,87.6785 55.5581,88.3452 54,87.5C 50.8506,89.3625 47.3506,90.0291 43.5,89.5C 43.7163,87.3193 42.883,85.6526 41,84.5C 40.3333,85.1667 39.6667,85.8333 39,86.5C 36.1383,84.9296 33.3049,83.263 30.5,81.5C 30.9767,80.5224 31.6433,79.6891 32.5,79C 30.8648,77.2518 28.8648,76.0851 26.5,75.5C 28.7603,73.5929 28.927,71.5929 27,69.5C 26.6174,70.056 26.1174,70.3893 25.5,70.5C 29.0536,63.2889 33.3869,56.6223 38.5,50.5C 39.4959,50.5858 40.3292,50.2524 41,49.5C 42.518,51.348 44.3513,52.848 46.5,54C 44.1091,60.2628 45.6091,61.7628 51,58.5C 51.2163,60.3839 51.883,62.0506 53,63.5C 54.3333,62.1667 55.6667,60.8333 57,59.5C 57.1739,64.6835 57.6739,69.6835 58.5,74.5 Z"/></g>
<g><path style="opacity:1" fill="#f1f7fa" d="M 64.5,63.5 C 64.5,82.1667 64.5,100.833 64.5,119.5C 62.8333,119.5 61.1667,119.5 59.5,119.5C 59.5,99.5 59.5,79.5 59.5,59.5C 89.8333,59.5 120.167,59.5 150.5,59.5C 150.5,60.5 150.5,61.5 150.5,62.5C 121.662,62.1687 92.9951,62.502 64.5,63.5 Z"/></g>
<g><path style="opacity:1" fill="#c4def5" d="M 151.5,58.5 C 151.5,60.1667 151.5,61.8333 151.5,63.5C 122.5,63.5 93.5,63.5 64.5,63.5C 92.9951,62.502 121.662,62.1687 150.5,62.5C 150.5,61.5 150.5,60.5 150.5,59.5C 120.167,59.5 89.8333,59.5 59.5,59.5C 59.5,79.5 59.5,99.5 59.5,119.5C 59.1667,119.5 58.8333,119.5 58.5,119.5C 58.5,111.167 58.5,102.833 58.5,94.5C 58.5,87.8333 58.5,81.1667 58.5,74.5C 58.5,69.1667 58.5,63.8333 58.5,58.5C 89.5,58.5 120.5,58.5 151.5,58.5 Z"/></g>
<g><path style="opacity:1" fill="#74b5f0" d="M 64.5,63.5 C 93.5,63.5 122.5,63.5 151.5,63.5C 151.5,63.8333 151.5,64.1667 151.5,64.5C 148.833,64.5 146.167,64.5 143.5,64.5C 136.167,64.5 128.833,64.5 121.5,64.5C 112.143,64.1684 102.81,64.5017 93.5,65.5C 94.3256,66.451 94.4922,67.451 94,68.5C 88.7043,73.1267 83.871,78.1267 79.5,83.5C 75.6105,84.9363 72.2772,87.103 69.5,90C 67.9963,91.4907 67.1629,93.324 67,95.5C 66.6667,93.5 66.3333,91.5 66,89.5C 65.1676,100.182 65.3343,110.849 66.5,121.5C 67.1924,120.975 67.6924,120.308 68,119.5C 68.49,120.793 68.6567,122.127 68.5,123.5C 66.9382,123.733 65.6049,124.4 64.5,125.5C 64.5,124.167 64.5,122.833 64.5,121.5C 62.2143,121.405 60.2143,120.738 58.5,119.5C 58.8333,119.5 59.1667,119.5 59.5,119.5C 61.1667,119.5 62.8333,119.5 64.5,119.5C 64.5,100.833 64.5,82.1667 64.5,63.5 Z"/></g>
<g><path style="opacity:1" fill="#69acf0" d="M 121.5,64.5 C 123.93,66.296 123.93,67.9626 121.5,69.5C 120.451,72.0795 119.784,74.7462 119.5,77.5C 118.325,77.281 117.325,77.6143 116.5,78.5C 115.982,80.8998 114.815,82.8998 113,84.5C 112.22,87.5117 111.053,90.3451 109.5,93C 109.833,93.3333 110.167,93.6667 110.5,94C 108.424,97.8575 106.424,101.691 104.5,105.5C 103.837,107.49 103.837,109.323 104.5,111C 101.936,113.897 99.7695,117.063 98,120.5C 96.4905,121.09 94.9905,121.756 93.5,122.5C 95.9016,122.522 98.5682,122.689 101.5,123C 100.663,124.011 100.33,125.178 100.5,126.5C 102.103,126.312 103.437,126.812 104.5,128C 102.189,127.845 99.856,127.845 97.5,128C 97.0426,128.414 96.7093,128.914 96.5,129.5C 97.3398,130.735 98.3398,131.735 99.5,132.5C 94.9725,131.063 90.3058,130.396 85.5,130.5C 85.3184,132.591 85.6518,134.591 86.5,136.5C 80.8066,137.721 75.1399,137.554 69.5,136C 68.4258,135.261 67.7591,134.261 67.5,133C 68.3672,129.895 68.7006,126.728 68.5,123.5C 68.6567,122.127 68.49,120.793 68,119.5C 67.6924,120.308 67.1924,120.975 66.5,121.5C 65.3343,110.849 65.1676,100.182 66,89.5C 66.3333,91.5 66.6667,93.5 67,95.5C 67.1629,93.324 67.9963,91.4907 69.5,90C 72.2772,87.103 75.6105,84.9363 79.5,83.5C 83.871,78.1267 88.7043,73.1267 94,68.5C 94.4922,67.451 94.3256,66.451 93.5,65.5C 102.81,64.5017 112.143,64.1684 121.5,64.5 Z"/></g>
<g><path style="opacity:1" fill="#60a8ef" d="M 121.5,64.5 C 128.833,64.5 136.167,64.5 143.5,64.5C 141.372,65.2805 141.205,66.2805 143,67.5C 146.307,64.5416 149.141,64.875 151.5,68.5C 150.96,69.7481 150.293,70.9148 149.5,72C 146.118,72.1764 142.785,72.6764 139.5,73.5C 140.833,74.5 142.167,75.5 143.5,76.5C 144.768,75.5721 146.101,75.4054 147.5,76C 146.71,78.9961 145.544,81.8295 144,84.5C 143.641,81.4557 142.974,81.1224 142,83.5C 141.697,89.8651 140.197,95.8651 137.5,101.5C 136.914,101.291 136.414,100.957 136,100.5C 135.219,101.729 134.719,103.062 134.5,104.5C 135.807,105.442 137.141,107.109 138.5,109.5C 137.975,110.192 137.308,110.692 136.5,111C 138.324,111.66 139.657,112.827 140.5,114.5C 139.167,114.5 137.833,114.5 136.5,114.5C 134.003,113.326 132.67,111.326 132.5,108.5C 132.777,103.448 134.111,98.7817 136.5,94.5C 140.168,89.1708 140.835,83.5041 138.5,77.5C 137.522,77.9767 136.689,78.6433 136,79.5C 135.667,81.8333 135.333,84.1667 135,86.5C 133.519,87.4709 132.685,88.8042 132.5,90.5C 131.663,93.8522 130.163,96.8522 128,99.5C 125.343,104.732 125.01,110.066 127,115.5C 129.069,118.387 131.236,121.054 133.5,123.5C 130.564,128.279 127.397,132.946 124,137.5C 115.307,138.195 107.14,136.528 99.5,132.5C 98.3398,131.735 97.3398,130.735 96.5,129.5C 96.7093,128.914 97.0426,128.414 97.5,128C 99.856,127.845 102.189,127.845 104.5,128C 103.437,126.812 102.103,126.312 100.5,126.5C 100.33,125.178 100.663,124.011 101.5,123C 98.5682,122.689 95.9016,122.522 93.5,122.5C 94.9905,121.756 96.4905,121.09 98,120.5C 99.7695,117.063 101.936,113.897 104.5,111C 103.837,109.323 103.837,107.49 104.5,105.5C 106.424,101.691 108.424,97.8575 110.5,94C 110.167,93.6667 109.833,93.3333 109.5,93C 111.053,90.3451 112.22,87.5117 113,84.5C 114.815,82.8998 115.982,80.8998 116.5,78.5C 117.325,77.6143 118.325,77.281 119.5,77.5C 119.784,74.7462 120.451,72.0795 121.5,69.5C 123.93,67.9626 123.93,66.296 121.5,64.5 Z"/></g>
<g><path style="opacity:1" fill="#6eb2f0" d="M 58.5,94.5 C 58.5,102.833 58.5,111.167 58.5,119.5C 57.8335,114.319 57.1668,108.985 56.5,103.5C 55.6143,104.325 55.281,105.325 55.5,106.5C 50.3183,106.557 50.3183,107.224 55.5,108.5C 55.0623,109.506 54.3957,109.506 53.5,108.5C 52.1502,109.95 50.4835,110.617 48.5,110.5C 48.7381,114.099 47.7381,114.433 45.5,111.5C 41.7778,114.48 37.6111,115.48 33,114.5C 31.7147,114.95 30.548,115.617 29.5,116.5C 26.8804,115.129 25.547,113.295 25.5,111C 24.6683,110.312 24.0016,110.479 23.5,111.5C 24.3256,112.451 24.4922,113.451 24,114.5C 22.2349,112.226 20.0682,110.559 17.5,109.5C 16.5581,109.608 15.7247,109.941 15,110.5C 14.79,112.058 14.29,113.391 13.5,114.5C 14.1069,98.7911 18.1069,84.1245 25.5,70.5C 26.1174,70.3893 26.6174,70.056 27,69.5C 28.927,71.5929 28.7603,73.5929 26.5,75.5C 28.8648,76.0851 30.8648,77.2518 32.5,79C 31.6433,79.6891 30.9767,80.5224 30.5,81.5C 33.3049,83.263 36.1383,84.9296 39,86.5C 39.6667,85.8333 40.3333,85.1667 41,84.5C 42.883,85.6526 43.7163,87.3193 43.5,89.5C 47.3506,90.0291 50.8506,89.3625 54,87.5C 55.5581,88.3452 56.5581,87.6785 57,85.5C 57.1805,88.6946 57.6805,91.6946 58.5,94.5 Z"/></g>
<g><path style="opacity:1" fill="#2291e9" d="M 238.5,105.5 C 239.162,109.466 239.495,113.466 239.5,117.5C 228.189,107.008 214.856,102.842 199.5,105C 196.798,106.012 194.465,107.512 192.5,109.5C 193.833,104.5 193.833,99.5 192.5,94.5C 193.729,91.4297 195.229,88.4297 197,85.5C 198.888,82.7071 201.388,80.7071 204.5,79.5C 203.089,77.9825 203.256,76.6492 205,75.5C 207.082,78.1496 208.749,77.8163 210,74.5C 210.677,76.689 211.844,77.0224 213.5,75.5C 216.503,76.0851 219.503,76.7518 222.5,77.5C 223.95,78.8498 224.617,80.5165 224.5,82.5C 228.527,82.2808 229.194,83.4475 226.5,86C 229.52,87.8899 230.186,90.3899 228.5,93.5C 231.901,97.3481 234.567,101.681 236.5,106.5C 237.183,106.137 237.85,105.804 238.5,105.5 Z"/></g>
<g><path style="opacity:1" fill="#4c9fed" d="M 143.5,64.5 C 146.167,64.5 148.833,64.5 151.5,64.5C 155.844,66.6781 159.011,70.0114 161,74.5C 161.414,74.0426 161.914,73.7093 162.5,73.5C 163.182,74.2427 163.849,74.9094 164.5,75.5C 166.926,77.7988 169.76,79.4654 173,80.5C 173.667,81.8333 173.667,83.1667 173,84.5C 166.602,88.0536 162.769,93.3869 161.5,100.5C 158.788,103.128 156.788,106.128 155.5,109.5C 154.523,112.287 154.19,115.287 154.5,118.5C 152.143,118.663 149.81,118.497 147.5,118C 145.454,116.158 143.12,114.991 140.5,114.5C 139.657,112.827 138.324,111.66 136.5,111C 137.308,110.692 137.975,110.192 138.5,109.5C 137.141,107.109 135.807,105.442 134.5,104.5C 134.719,103.062 135.219,101.729 136,100.5C 136.414,100.957 136.914,101.291 137.5,101.5C 140.197,95.8651 141.697,89.8651 142,83.5C 142.974,81.1224 143.641,81.4557 144,84.5C 145.544,81.8295 146.71,78.9961 147.5,76C 146.101,75.4054 144.768,75.5721 143.5,76.5C 142.167,75.5 140.833,74.5 139.5,73.5C 142.785,72.6764 146.118,72.1764 149.5,72C 150.293,70.9148 150.96,69.7481 151.5,68.5C 149.141,64.875 146.307,64.5416 143,67.5C 141.205,66.2805 141.372,65.2805 143.5,64.5 Z"/></g>
<g><path style="opacity:1" fill="#d9e9f5" d="M 136.5,94.5 C 136.799,92.396 136.466,90.396 135.5,88.5C 134.482,89.1925 133.482,89.8592 132.5,90.5C 132.685,88.8042 133.519,87.4709 135,86.5C 135.333,84.1667 135.667,81.8333 136,79.5C 136.689,78.6433 137.522,77.9767 138.5,77.5C 140.835,83.5041 140.168,89.1708 136.5,94.5 Z"/></g>
<g><path style="opacity:1" fill="#b3dbf7" d="M 234.5,87.5 C 235.117,87.6107 235.617,87.944 236,88.5C 237.154,92.447 237.987,96.447 238.5,100.5C 236.721,96.406 235.388,92.0726 234.5,87.5 Z"/></g>
<g><path style="opacity:1" fill="#f7fafc" d="M 172.5,45.5 C 175.394,46.8823 177.894,48.8823 180,51.5C 181.904,58.235 186.071,62.9017 192.5,65.5C 193.143,75.4063 193.143,85.073 192.5,94.5C 193.833,99.5 193.833,104.5 192.5,109.5C 190.627,113.391 188.293,117.058 185.5,120.5C 180.647,122.07 175.98,121.737 171.5,119.5C 169.374,120.398 167.374,121.565 165.5,123C 163.167,123.333 160.833,123.667 158.5,124C 157.941,124.725 157.608,125.558 157.5,126.5C 159.173,129.982 160.84,133.315 162.5,136.5C 163.541,139.391 164.874,142.058 166.5,144.5C 167.478,147.487 169.478,148.654 172.5,148C 174.883,144.801 176.55,141.301 177.5,137.5C 178.167,137.5 178.5,137.167 178.5,136.5C 179.065,133.695 180.065,131.028 181.5,128.5C 181.5,127.833 181.5,127.167 181.5,126.5C 182.5,126.5 183.5,126.5 184.5,126.5C 184.5,128.5 184.5,130.5 184.5,132.5C 184.672,133.492 184.338,134.158 183.5,134.5C 182.054,137.254 181.054,140.254 180.5,143.5C 180.5,144.5 180.5,145.5 180.5,146.5C 179.227,148.713 178.227,151.046 177.5,153.5C 175.938,153.733 174.605,154.4 173.5,155.5C 171.097,155.552 168.764,155.219 166.5,154.5C 165.833,154.167 165.167,153.833 164.5,153.5C 164.5,152.833 164.167,152.5 163.5,152.5C 163.167,151.5 162.5,150.833 161.5,150.5C 158.775,143.982 154.442,142.815 148.5,147C 144.881,149.289 141.548,151.789 138.5,154.5C 133.654,160.51 127.987,165.677 121.5,170C 117.855,170.719 114.188,171.219 110.5,171.5C 103.475,172.013 96.4752,172.847 89.5,174C 84.7765,182.614 80.4431,191.447 76.5,200.5C 70.8325,199.186 66.1658,196.186 62.5,191.5C 63,191.167 63.5,190.833 64,190.5C 66.2772,191.37 68.6106,192.037 71,192.5C 72.7106,192.561 74.044,191.894 75,190.5C 77.0509,185.681 78.7176,180.681 80,175.5C 82.7799,173.199 84.4466,170.199 85,166.5C 85.0572,159.176 84.8906,151.843 84.5,144.5C 82.1432,144.663 79.8098,144.497 77.5,144C 71.9761,141.869 66.3094,140.202 60.5,139C 59.9781,138.439 59.6448,137.772 59.5,137C 60.943,133.048 62.6097,129.215 64.5,125.5C 65.6049,124.4 66.9382,123.733 68.5,123.5C 68.7006,126.728 68.3672,129.895 67.5,133C 67.7591,134.261 68.4258,135.261 69.5,136C 75.1399,137.554 80.8066,137.721 86.5,136.5C 85.6518,134.591 85.3184,132.591 85.5,130.5C 90.3058,130.396 94.9725,131.063 99.5,132.5C 107.14,136.528 115.307,138.195 124,137.5C 127.397,132.946 130.564,128.279 133.5,123.5C 131.236,121.054 129.069,118.387 127,115.5C 125.01,110.066 125.343,104.732 128,99.5C 130.163,96.8522 131.663,93.8522 132.5,90.5C 133.482,89.8592 134.482,89.1925 135.5,88.5C 136.466,90.396 136.799,92.396 136.5,94.5C 134.111,98.7817 132.777,103.448 132.5,108.5C 132.67,111.326 134.003,113.326 136.5,114.5C 142.119,118.365 148.452,120.031 155.5,119.5C 155.5,116.167 155.5,112.833 155.5,109.5C 156.788,106.128 158.788,103.128 161.5,100.5C 162.769,93.3869 166.602,88.0536 173,84.5C 173.667,83.1667 173.667,81.8333 173,80.5C 169.76,79.4654 166.926,77.7988 164.5,75.5C 164.682,73.4086 164.348,71.4086 163.5,69.5C 158.821,65.4751 156.321,60.4751 156,54.5C 158.764,46.5823 164.264,43.5823 172.5,45.5 Z"/></g>
<g><path style="opacity:1" fill="#2987eb" d="M 239.5,117.5 C 239.5,117.833 239.5,118.167 239.5,118.5C 237.738,118.643 236.071,118.309 234.5,117.5C 225.182,109.118 214.182,105.618 201.5,107C 198.721,108.722 195.721,109.889 192.5,110.5C 192.5,111.833 192.5,113.167 192.5,114.5C 190.139,116.194 188.139,118.194 186.5,120.5C 186.167,120.5 185.833,120.5 185.5,120.5C 188.293,117.058 190.627,113.391 192.5,109.5C 194.465,107.512 196.798,106.012 199.5,105C 214.856,102.842 228.189,107.008 239.5,117.5 Z"/></g>
<g><path style="opacity:1" fill="#6aabf0" d="M 58.5,119.5 C 60.2143,120.738 62.2143,121.405 64.5,121.5C 64.5,122.833 64.5,124.167 64.5,125.5C 62.6097,129.215 60.943,133.048 59.5,137C 59.6448,137.772 59.9781,138.439 60.5,139C 66.3094,140.202 71.9761,141.869 77.5,144C 79.8098,144.497 82.1432,144.663 84.5,144.5C 84.8906,151.843 85.0572,159.176 85,166.5C 84.4466,170.199 82.7799,173.199 80,175.5C 78.7176,180.681 77.0509,185.681 75,190.5C 74.044,191.894 72.7106,192.561 71,192.5C 68.6106,192.037 66.2772,191.37 64,190.5C 63.5,190.833 63,191.167 62.5,191.5C 66.1658,196.186 70.8325,199.186 76.5,200.5C 76.2089,201.649 75.3756,202.316 74,202.5C 72.1454,201.756 70.4788,200.756 69,199.5C 67.6667,200.167 66.3333,200.833 65,201.5C 63.1886,200.576 63.3553,199.743 65.5,199C 63.418,197.169 61.0846,196.002 58.5,195.5C 58.8212,193.952 59.8212,193.285 61.5,193.5C 61.5,192.167 61.5,190.833 61.5,189.5C 64.0821,189.975 66.0821,189.308 67.5,187.5C 69.099,187.768 70.4324,187.434 71.5,186.5C 72.4511,185.081 72.7845,183.415 72.5,181.5C 69.8333,181.5 67.1667,181.5 64.5,181.5C 64.5,169.167 64.5,156.833 64.5,144.5C 62.5,144.5 60.5,144.5 58.5,144.5C 58.5,158.833 58.5,173.167 58.5,187.5C 57.5139,183.03 57.1805,178.363 57.5,173.5C 54.2328,175.083 51.2328,174.75 48.5,172.5C 48.0276,167.972 47.0276,163.639 45.5,159.5C 48.7954,154.758 47.6287,151.758 42,150.5C 41.6397,148.579 40.8064,146.912 39.5,145.5C 40.8715,143.38 40.2048,142.38 37.5,142.5C 34.829,138.799 32.6624,135.133 31,131.5C 28.7717,133.968 25.9383,135.135 22.5,135C 20.4363,136.931 18.103,138.431 15.5,139.5C 14.6909,137.708 14.1909,135.708 14,133.5C 13.5005,127.175 13.3338,120.842 13.5,114.5C 14.29,113.391 14.79,112.058 15,110.5C 15.7247,109.941 16.5581,109.608 17.5,109.5C 20.0682,110.559 22.2349,112.226 24,114.5C 24.4922,113.451 24.3256,112.451 23.5,111.5C 24.0016,110.479 24.6683,110.312 25.5,111C 25.547,113.295 26.8804,115.129 29.5,116.5C 30.548,115.617 31.7147,114.95 33,114.5C 37.6111,115.48 41.7778,114.48 45.5,111.5C 47.7381,114.433 48.7381,114.099 48.5,110.5C 50.4835,110.617 52.1502,109.95 53.5,108.5C 54.3957,109.506 55.0623,109.506 55.5,108.5C 50.3183,107.224 50.3183,106.557 55.5,106.5C 55.281,105.325 55.6143,104.325 56.5,103.5C 57.1668,108.985 57.8335,114.319 58.5,119.5 Z"/></g>
<g><path style="opacity:1" fill="#257cf0" d="M 239.5,118.5 C 239.5,123.5 239.5,128.5 239.5,133.5C 239.672,134.492 239.338,135.158 238.5,135.5C 238.5,134.5 238.5,133.5 238.5,132.5C 238.662,130.473 238.495,128.473 238,126.5C 236.615,125.449 235.615,124.116 235,122.5C 230.711,119.297 226.211,116.464 221.5,114C 216.823,112.831 212.156,111.664 207.5,110.5C 202.423,111.864 197.423,113.198 192.5,114.5C 192.5,113.167 192.5,111.833 192.5,110.5C 195.721,109.889 198.721,108.722 201.5,107C 214.182,105.618 225.182,109.118 234.5,117.5C 236.071,118.309 237.738,118.643 239.5,118.5 Z"/></g>
<g><path style="opacity:1" fill="#84baea" d="M 155.5,109.5 C 155.5,112.833 155.5,116.167 155.5,119.5C 148.452,120.031 142.119,118.365 136.5,114.5C 137.833,114.5 139.167,114.5 140.5,114.5C 143.12,114.991 145.454,116.158 147.5,118C 149.81,118.497 152.143,118.663 154.5,118.5C 154.19,115.287 154.523,112.287 155.5,109.5 Z"/></g>
<g><path style="opacity:1" fill="#a5cef8" d="M 238.5,101.5 C 240.014,107.595 240.68,113.928 240.5,120.5C 240.499,125.013 240.166,129.347 239.5,133.5C 239.5,128.5 239.5,123.5 239.5,118.5C 239.5,118.167 239.5,117.833 239.5,117.5C 239.495,113.466 239.162,109.466 238.5,105.5C 238.5,104.167 238.5,102.833 238.5,101.5 Z"/></g>
<g><path style="opacity:1" fill="#276ff3" d="M 238.5,132.5 C 237.883,132.611 237.383,132.944 237,133.5C 235.353,128.844 232.52,125.011 228.5,122C 222.598,120.236 216.765,118.402 211,116.5C 208.595,117.274 206.095,117.774 203.5,118C 201.59,119.701 199.59,121.201 197.5,122.5C 195.115,120.537 192.448,119.703 189.5,120C 190.167,120.667 190.833,121.333 191.5,122C 188.798,124.118 188.131,126.618 189.5,129.5C 187.801,129.527 186.467,130.194 185.5,131.5C 185.662,129.473 185.495,127.473 185,125.5C 184.617,124.944 184.117,124.611 183.5,124.5C 185.229,123.764 186.229,122.43 186.5,120.5C 188.139,118.194 190.139,116.194 192.5,114.5C 197.423,113.198 202.423,111.864 207.5,110.5C 212.156,111.664 216.823,112.831 221.5,114C 226.211,116.464 230.711,119.297 235,122.5C 235.615,124.116 236.615,125.449 238,126.5C 238.495,128.473 238.662,130.473 238.5,132.5 Z"/></g>
<g><path style="opacity:1" fill="#7fa2ed" d="M 183.5,124.5 C 184.117,124.611 184.617,124.944 185,125.5C 185.495,127.473 185.662,129.473 185.5,131.5C 185.5,132.167 185.167,132.5 184.5,132.5C 184.5,130.5 184.5,128.5 184.5,126.5C 183.5,126.5 182.5,126.5 181.5,126.5C 181.5,125.167 182.167,124.5 183.5,124.5 Z"/></g>
<g><path style="opacity:1" fill="#569ceb" d="M 185.5,120.5 C 185.389,121.117 185.056,121.617 184.5,122C 180.415,122.233 176.415,122.733 172.5,123.5C 170.483,122.126 168.483,122.293 166.5,124C 168.645,124.743 168.811,125.576 167,126.5C 166,125.833 165,125.167 164,124.5C 162.189,125.424 162.355,126.257 164.5,127C 163.449,128.385 162.116,129.385 160.5,130C 161.397,132.087 162.064,134.254 162.5,136.5C 160.84,133.315 159.173,129.982 157.5,126.5C 157.608,125.558 157.941,124.725 158.5,124C 160.833,123.667 163.167,123.333 165.5,123C 167.374,121.565 169.374,120.398 171.5,119.5C 175.98,121.737 180.647,122.07 185.5,120.5 Z"/></g>
<g><path style="opacity:1" fill="#428dec" d="M 172.5,123.5 C 169.177,126.024 166.51,129.191 164.5,133C 165.056,133.383 165.389,133.883 165.5,134.5C 164.903,134.735 164.57,135.235 164.5,136C 165.233,138.835 165.9,141.668 166.5,144.5C 164.874,142.058 163.541,139.391 162.5,136.5C 162.064,134.254 161.397,132.087 160.5,130C 162.116,129.385 163.449,128.385 164.5,127C 162.355,126.257 162.189,125.424 164,124.5C 165,125.167 166,125.833 167,126.5C 168.811,125.576 168.645,124.743 166.5,124C 168.483,122.293 170.483,122.126 172.5,123.5 Z"/></g>
<g><path style="opacity:1" fill="#387fef" d="M 185.5,120.5 C 185.833,120.5 186.167,120.5 186.5,120.5C 186.229,122.43 185.229,123.764 183.5,124.5C 182.167,124.5 181.5,125.167 181.5,126.5C 181.5,127.167 181.5,127.833 181.5,128.5C 180.5,128.5 179.5,128.5 178.5,128.5C 178.5,131.167 178.5,133.833 178.5,136.5C 178.5,137.167 178.167,137.5 177.5,137.5C 177.915,133.625 177.415,129.958 176,126.5C 174.857,130.797 172.024,132.631 167.5,132C 167.64,133.069 167.64,134.236 167.5,135.5C 166.817,135.137 166.15,134.804 165.5,134.5C 165.389,133.883 165.056,133.383 164.5,133C 166.51,129.191 169.177,126.024 172.5,123.5C 176.415,122.733 180.415,122.233 184.5,122C 185.056,121.617 185.389,121.117 185.5,120.5 Z"/></g>
<g><path style="opacity:1" fill="#2662f8" d="M 237.5,143.5 C 236.833,146.5 236.167,149.5 235.5,152.5C 233.506,153.937 231.339,155.27 229,156.5C 228.837,158.676 228.004,160.509 226.5,162C 227.925,163.714 227.592,165.047 225.5,166C 226.833,166.667 227.833,167.667 228.5,169C 225.389,169.444 222.723,170.777 220.5,173C 219.663,174.011 219.33,175.178 219.5,176.5C 218.5,176.5 217.5,176.5 216.5,176.5C 216.5,177.5 216.5,178.5 216.5,179.5C 215.167,179.5 213.833,179.5 212.5,179.5C 212.313,184.728 209.646,186.894 204.5,186C 203.91,184.491 203.244,182.991 202.5,181.5C 200.668,180.752 199.001,179.752 197.5,178.5C 194.75,175.258 192.75,171.591 191.5,167.5C 190.833,173.654 190.167,179.654 189.5,185.5C 190.102,169.721 189.436,154.054 187.5,138.5C 187.859,135.718 189.192,135.052 191.5,136.5C 189.144,137.654 188.977,138.987 191,140.5C 191.725,138.842 192.892,138.342 194.5,139C 195.112,140.303 195.446,141.47 195.5,142.5C 196.386,141.675 196.719,140.675 196.5,139.5C 198.167,139.5 199.833,139.5 201.5,139.5C 201.516,135.94 201.016,132.607 200,129.5C 200.333,129.167 200.667,128.833 201,128.5C 202.74,129.716 203.74,131.382 204,133.5C 208.865,129.924 213.698,126.257 218.5,122.5C 221.091,124.739 224.091,126.239 227.5,127C 229.81,128.637 231.31,130.804 232,133.5C 233.067,134.191 234.234,134.691 235.5,135C 234.85,136.609 235.35,138.109 237,139.5C 237.49,140.793 237.657,142.127 237.5,143.5 Z"/></g>
<g><path style="opacity:1" fill="#84a9ea" d="M 181.5,128.5 C 180.065,131.028 179.065,133.695 178.5,136.5C 178.5,133.833 178.5,131.167 178.5,128.5C 179.5,128.5 180.5,128.5 181.5,128.5 Z"/></g>
<g><path style="opacity:1" fill="#63a5ee" d="M 58.5,187.5 C 61.5,187.5 64.5,187.5 67.5,187.5C 66.0821,189.308 64.0821,189.975 61.5,189.5C 61.5,190.833 61.5,192.167 61.5,193.5C 59.8212,193.285 58.8212,193.952 58.5,195.5C 57.5768,196.303 56.5768,196.47 55.5,196C 52.989,193.157 50.1557,190.657 47,188.5C 44.8369,191.148 43.3369,194.148 42.5,197.5C 39.8852,195.621 37.7186,193.288 36,190.5C 27.4889,178.147 21.1555,164.813 17,150.5C 16.0642,146.886 15.5642,143.22 15.5,139.5C 18.103,138.431 20.4363,136.931 22.5,135C 25.9383,135.135 28.7717,133.968 31,131.5C 32.6624,135.133 34.829,138.799 37.5,142.5C 40.2048,142.38 40.8715,143.38 39.5,145.5C 40.8064,146.912 41.6397,148.579 42,150.5C 47.6287,151.758 48.7954,154.758 45.5,159.5C 47.0276,163.639 48.0276,167.972 48.5,172.5C 51.2328,174.75 54.2328,175.083 57.5,173.5C 57.1805,178.363 57.5139,183.03 58.5,187.5 Z"/></g>
<g><path style="opacity:1" fill="#3f77f1" d="M 177.5,137.5 C 176.55,141.301 174.883,144.801 172.5,148C 169.478,148.654 167.478,147.487 166.5,144.5C 165.9,141.668 165.233,138.835 164.5,136C 164.57,135.235 164.903,134.735 165.5,134.5C 166.15,134.804 166.817,135.137 167.5,135.5C 167.64,134.236 167.64,133.069 167.5,132C 172.024,132.631 174.857,130.797 176,126.5C 177.415,129.958 177.915,133.625 177.5,137.5 Z"/></g>
<g><path style="opacity:1" fill="#4879ef" d="M 163.5,152.5 C 164.167,152.5 164.5,152.833 164.5,153.5C 163.316,155.41 161.816,155.743 160,154.5C 156.84,164.15 152.007,172.817 145.5,180.5C 142.833,180.5 140.167,180.5 137.5,180.5C 138.341,178.488 139.841,177.155 142,176.5C 143.129,172.178 145.629,169.178 149.5,167.5C 149.67,166.178 149.337,165.011 148.5,164C 150.142,161.214 151.642,158.381 153,155.5C 156.219,152.768 159.719,151.768 163.5,152.5 Z"/></g>
<g><path style="opacity:1" fill="#4171f1" d="M 164.5,153.5 C 165.167,153.833 165.833,154.167 166.5,154.5C 167.312,155.993 168.645,156.66 170.5,156.5C 171.726,156.48 172.726,156.147 173.5,155.5C 174.605,154.4 175.938,153.733 177.5,153.5C 175.316,155.674 173.983,158.34 173.5,161.5C 170.249,161.868 169.249,163.368 170.5,166C 168.596,170.24 167.596,174.74 167.5,179.5C 163.958,179.187 160.625,179.521 157.5,180.5C 155.167,180.5 152.833,180.5 150.5,180.5C 148.833,180.5 147.167,180.5 145.5,180.5C 152.007,172.817 156.84,164.15 160,154.5C 161.816,155.743 163.316,155.41 164.5,153.5 Z"/></g>
<g><path style="opacity:1" fill="#4d7fee" d="M 161.5,150.5 C 162.5,150.833 163.167,151.5 163.5,152.5C 159.719,151.768 156.219,152.768 153,155.5C 151.642,158.381 150.142,161.214 148.5,164C 149.337,165.011 149.67,166.178 149.5,167.5C 145.629,169.178 143.129,172.178 142,176.5C 139.841,177.155 138.341,178.488 137.5,180.5C 134.813,180.664 132.146,180.497 129.5,180C 132.124,179.424 132.791,178.09 131.5,176C 133.329,175.727 134.829,174.893 136,173.5C 136.253,170.21 137.253,167.21 139,164.5C 139.333,164.833 139.667,165.167 140,165.5C 143.359,162.616 145.859,159.116 147.5,155C 148.448,154.517 149.448,154.351 150.5,154.5C 150.343,153.127 150.51,151.793 151,150.5C 152.979,149.286 154.479,147.619 155.5,145.5C 157.519,147.19 159.519,148.856 161.5,150.5 Z"/></g>
<g><path style="opacity:1" fill="#94b3ee" d="M 166.5,154.5 C 168.764,155.219 171.097,155.552 173.5,155.5C 172.726,156.147 171.726,156.48 170.5,156.5C 168.645,156.66 167.312,155.993 166.5,154.5 Z"/></g>
<g><path style="opacity:1" fill="#3468f5" d="M 180.5,146.5 C 181.495,157.654 181.828,168.988 181.5,180.5C 173.5,180.5 165.5,180.5 157.5,180.5C 160.625,179.521 163.958,179.187 167.5,179.5C 167.596,174.74 168.596,170.24 170.5,166C 169.249,163.368 170.249,161.868 173.5,161.5C 173.983,158.34 175.316,155.674 177.5,153.5C 178.227,151.046 179.227,148.713 180.5,146.5 Z"/></g>
<g><path style="opacity:1" fill="#dbe5f9" d="M 183.5,141.5 C 184.833,141.5 186.167,141.5 187.5,141.5C 187.5,156.5 187.5,171.5 187.5,186.5C 155.167,186.5 122.833,186.5 90.5,186.5C 90.2322,184.901 90.5655,183.568 91.5,182.5C 91.5,183.5 91.5,184.5 91.5,185.5C 123.167,185.5 154.833,185.5 186.5,185.5C 186.833,171.151 186.499,156.818 185.5,142.5C 185.157,156.192 184.157,169.525 182.5,182.5C 182.5,182.167 182.5,181.833 182.5,181.5C 183.496,168.344 183.829,155.01 183.5,141.5 Z"/></g>
<g><path style="opacity:1" fill="#f7f9fa" d="M 60.5,145.5 C 61.5,145.5 62.5,145.5 63.5,145.5C 63.1716,157.678 63.5049,169.678 64.5,181.5C 66.2646,182.461 68.2646,182.795 70.5,182.5C 70.5,183.5 70.5,184.5 70.5,185.5C 67.1667,185.5 63.8333,185.5 60.5,185.5C 60.5,172.167 60.5,158.833 60.5,145.5 Z"/></g>
<g><path style="opacity:1" fill="#2b65f7" d="M 235.5,152.5 C 232.863,162.769 228.863,172.435 223.5,181.5C 222.094,181.973 221.427,182.973 221.5,184.5C 214.547,194.454 206.213,203.121 196.5,210.5C 195.609,209.739 194.942,208.739 194.5,207.5C 195.833,204.504 194.833,202.837 191.5,202.5C 191.666,198.486 191.499,194.486 191,190.5C 190.5,189.333 189.667,188.5 188.5,188C 189.252,187.329 189.586,186.496 189.5,185.5C 190.167,179.654 190.833,173.654 191.5,167.5C 192.75,171.591 194.75,175.258 197.5,178.5C 199.001,179.752 200.668,180.752 202.5,181.5C 203.244,182.991 203.91,184.491 204.5,186C 209.646,186.894 212.313,184.728 212.5,179.5C 213.833,179.5 215.167,179.5 216.5,179.5C 216.5,178.5 216.5,177.5 216.5,176.5C 217.5,176.5 218.5,176.5 219.5,176.5C 219.33,175.178 219.663,174.011 220.5,173C 222.723,170.777 225.389,169.444 228.5,169C 227.833,167.667 226.833,166.667 225.5,166C 227.592,165.047 227.925,163.714 226.5,162C 228.004,160.509 228.837,158.676 229,156.5C 231.339,155.27 233.506,153.937 235.5,152.5 Z"/></g>
<g><path style="opacity:1" fill="#adcff0" d="M 64.5,181.5 C 63.5049,169.678 63.1716,157.678 63.5,145.5C 62.5,145.5 61.5,145.5 60.5,145.5C 59.5043,158.99 59.171,172.656 59.5,186.5C 63.5,186.5 67.5,186.5 71.5,186.5C 70.4324,187.434 69.099,187.768 67.5,187.5C 64.5,187.5 61.5,187.5 58.5,187.5C 58.5,173.167 58.5,158.833 58.5,144.5C 60.5,144.5 62.5,144.5 64.5,144.5C 64.5,156.833 64.5,169.167 64.5,181.5 Z"/></g>
<g><path style="opacity:1" fill="#92aced" d="M 183.5,134.5 C 182.897,137.041 182.897,139.374 183.5,141.5C 183.829,155.01 183.496,168.344 182.5,181.5C 183.147,168.456 182.48,155.789 180.5,143.5C 181.054,140.254 182.054,137.254 183.5,134.5 Z"/></g>
<g><path style="opacity:1" fill="#ddecf8" d="M 60.5,145.5 C 60.5,158.833 60.5,172.167 60.5,185.5C 63.8333,185.5 67.1667,185.5 70.5,185.5C 70.5,184.5 70.5,183.5 70.5,182.5C 68.2646,182.795 66.2646,182.461 64.5,181.5C 67.1667,181.5 69.8333,181.5 72.5,181.5C 72.7845,183.415 72.4511,185.081 71.5,186.5C 67.5,186.5 63.5,186.5 59.5,186.5C 59.171,172.656 59.5043,158.99 60.5,145.5 Z"/></g>
<g><path style="opacity:1" fill="#649eed" d="M 138.5,154.5 C 137.788,156.928 136.788,159.261 135.5,161.5C 131.416,163.25 128.749,166.25 127.5,170.5C 125.784,170.997 124.117,171.331 122.5,171.5C 119.962,174.375 117.295,177.208 114.5,180C 118.356,180.177 122.023,180.677 125.5,181.5C 113.843,180.894 102.176,180.561 90.5,180.5C 90.5,178.5 90.5,176.5 90.5,174.5C 93.2186,174.397 95.8853,174.731 98.5,175.5C 99.91,175.132 100.91,174.299 101.5,173C 104.695,172.819 107.695,172.319 110.5,171.5C 114.188,171.219 117.855,170.719 121.5,170C 127.987,165.677 133.654,160.51 138.5,154.5 Z"/></g>
<g><path style="opacity:1" fill="#578aec" d="M 161.5,150.5 C 159.519,148.856 157.519,147.19 155.5,145.5C 154.479,147.619 152.979,149.286 151,150.5C 150.51,151.793 150.343,153.127 150.5,154.5C 149.448,154.351 148.448,154.517 147.5,155C 145.859,159.116 143.359,162.616 140,165.5C 139.667,165.167 139.333,164.833 139,164.5C 137.253,167.21 136.253,170.21 136,173.5C 134.829,174.893 133.329,175.727 131.5,176C 132.791,178.09 132.124,179.424 129.5,180C 132.146,180.497 134.813,180.664 137.5,180.5C 140.167,180.5 142.833,180.5 145.5,180.5C 147.167,180.5 148.833,180.5 150.5,180.5C 150.5,180.833 150.5,181.167 150.5,181.5C 142.167,181.5 133.833,181.5 125.5,181.5C 122.023,180.677 118.356,180.177 114.5,180C 117.295,177.208 119.962,174.375 122.5,171.5C 124.117,171.331 125.784,170.997 127.5,170.5C 128.749,166.25 131.416,163.25 135.5,161.5C 136.788,159.261 137.788,156.928 138.5,154.5C 141.548,151.789 144.881,149.289 148.5,147C 154.442,142.815 158.775,143.982 161.5,150.5 Z"/></g>
<g><path style="opacity:1" fill="#4c76ea" d="M 180.5,143.5 C 182.48,155.789 183.147,168.456 182.5,181.5C 171.833,181.5 161.167,181.5 150.5,181.5C 150.5,181.167 150.5,180.833 150.5,180.5C 152.833,180.5 155.167,180.5 157.5,180.5C 165.5,180.5 173.5,180.5 181.5,180.5C 181.828,168.988 181.495,157.654 180.5,146.5C 180.5,145.5 180.5,144.5 180.5,143.5 Z"/></g>
<g><path style="opacity:1" fill="#acc1fc" d="M 223.5,181.5 C 223.573,183.027 222.906,184.027 221.5,184.5C 221.427,182.973 222.094,181.973 223.5,181.5 Z"/></g>
<g><path style="opacity:1" fill="#f9fbfa" d="M 91.5,182.5 C 121.833,182.5 152.167,182.5 182.5,182.5C 184.157,169.525 185.157,156.192 185.5,142.5C 186.499,156.818 186.833,171.151 186.5,185.5C 154.833,185.5 123.167,185.5 91.5,185.5C 91.5,184.5 91.5,183.5 91.5,182.5 Z"/></g>
<g><path style="opacity:1" fill="#5479eb" d="M 137.5,187.5 C 138.833,187.5 140.167,187.5 141.5,187.5C 142.485,190.353 142.318,193.353 141,196.5C 140.683,194.699 140.016,194.366 139,195.5C 138.667,201.167 138.333,206.833 138,212.5C 136.745,213.211 135.579,214.044 134.5,215C 134.957,215.414 135.291,215.914 135.5,216.5C 134.689,217.216 134.022,218.05 133.5,219C 134.459,221.12 134.626,223.287 134,225.5C 133.08,225.93 132.247,226.264 131.5,226.5C 133.533,228.452 133.866,230.618 132.5,233C 134.81,233.497 137.143,233.663 139.5,233.5C 132.352,234.492 125.019,234.825 117.5,234.5C 115.369,233.686 113.036,233.186 110.5,233C 112.433,232.749 114.266,232.249 116,231.5C 117.858,225.05 119.858,218.717 122,212.5C 122.667,213.833 123.333,213.833 124,212.5C 127.08,205.789 129.414,198.789 131,191.5C 132.77,189.403 134.937,188.069 137.5,187.5 Z"/></g>
<g><path style="opacity:1" fill="#416ff1" d="M 152.5,187.5 C 155.833,187.5 159.167,187.5 162.5,187.5C 161.391,188.29 160.058,188.79 158.5,189C 160.044,189.29 161.377,189.956 162.5,191C 160.263,197.297 159.097,204.13 159,211.5C 156.955,215.665 155.122,219.998 153.5,224.5C 154.05,226.657 154.717,228.657 155.5,230.5C 153.343,231.407 151.01,232.073 148.5,232.5C 146.712,232.785 145.045,232.452 143.5,231.5C 144.833,222.013 147.499,212.846 151.5,204C 150.03,198.625 150.697,193.625 153.5,189C 152.944,188.617 152.611,188.117 152.5,187.5 Z"/></g>
<g><path style="opacity:1" fill="#3369f5" d="M 238.5,132.5 C 238.5,133.5 238.5,134.5 238.5,135.5C 238.806,138.385 238.473,141.052 237.5,143.5C 237.657,142.127 237.49,140.793 237,139.5C 235.35,138.109 234.85,136.609 235.5,135C 234.234,134.691 233.067,134.191 232,133.5C 231.31,130.804 229.81,128.637 227.5,127C 224.091,126.239 221.091,124.739 218.5,122.5C 213.698,126.257 208.865,129.924 204,133.5C 203.74,131.382 202.74,129.716 201,128.5C 200.667,128.833 200.333,129.167 200,129.5C 201.016,132.607 201.516,135.94 201.5,139.5C 199.833,139.5 198.167,139.5 196.5,139.5C 196.719,140.675 196.386,141.675 195.5,142.5C 195.446,141.47 195.112,140.303 194.5,139C 192.892,138.342 191.725,138.842 191,140.5C 188.977,138.987 189.144,137.654 191.5,136.5C 189.192,135.052 187.859,135.718 187.5,138.5C 189.436,154.054 190.102,169.721 189.5,185.5C 189.586,186.496 189.252,187.329 188.5,188C 189.667,188.5 190.5,189.333 191,190.5C 191.499,194.486 191.666,198.486 191.5,202.5C 194.833,202.837 195.833,204.504 194.5,207.5C 194.942,208.739 195.609,209.739 196.5,210.5C 189.004,216.754 180.67,221.754 171.5,225.5C 170.5,225.5 169.5,225.5 168.5,225.5C 168.5,223.5 168.5,221.5 168.5,219.5C 169.5,219.5 170.5,219.5 171.5,219.5C 172.817,213.568 171.817,208.068 168.5,203C 169.833,201.333 169.833,199.667 168.5,198C 170.774,195.675 171.941,192.841 172,189.5C 173.254,192.976 173.921,196.642 174,200.5C 173.705,195.362 175.205,191.028 178.5,187.5C 181.713,187.81 184.713,187.477 187.5,186.5C 187.5,171.5 187.5,156.5 187.5,141.5C 186.167,141.5 184.833,141.5 183.5,141.5C 182.897,139.374 182.897,137.041 183.5,134.5C 184.338,134.158 184.672,133.492 184.5,132.5C 185.167,132.5 185.5,132.167 185.5,131.5C 186.467,130.194 187.801,129.527 189.5,129.5C 188.131,126.618 188.798,124.118 191.5,122C 190.833,121.333 190.167,120.667 189.5,120C 192.448,119.703 195.115,120.537 197.5,122.5C 199.59,121.201 201.59,119.701 203.5,118C 206.095,117.774 208.595,117.274 211,116.5C 216.765,118.402 222.598,120.236 228.5,122C 232.52,125.011 235.353,128.844 237,133.5C 237.383,132.944 237.883,132.611 238.5,132.5 Z"/></g>
<g><path style="opacity:1" fill="#83afef" d="M 110.5,171.5 C 107.695,172.319 104.695,172.819 101.5,173C 100.91,174.299 99.91,175.132 98.5,175.5C 95.8853,174.731 93.2186,174.397 90.5,174.5C 90.5,176.5 90.5,178.5 90.5,180.5C 102.176,180.561 113.843,180.894 125.5,181.5C 133.833,181.5 142.167,181.5 150.5,181.5C 161.167,181.5 171.833,181.5 182.5,181.5C 182.5,181.833 182.5,182.167 182.5,182.5C 152.167,182.5 121.833,182.5 91.5,182.5C 90.5655,183.568 90.2322,184.901 90.5,186.5C 89.1054,184.946 88.4387,185.279 88.5,187.5C 89.3311,189.473 89.4978,191.473 89,193.5C 85.2416,197.377 81.075,199.71 76.5,200.5C 80.4431,191.447 84.7765,182.614 89.5,174C 96.4752,172.847 103.475,172.013 110.5,171.5 Z"/></g>
<g><path style="opacity:1" fill="#4a73ef" d="M 141.5,187.5 C 145.167,187.5 148.833,187.5 152.5,187.5C 152.611,188.117 152.944,188.617 153.5,189C 150.697,193.625 150.03,198.625 151.5,204C 147.499,212.846 144.833,222.013 143.5,231.5C 145.045,232.452 146.712,232.785 148.5,232.5C 148.5,232.833 148.5,233.167 148.5,233.5C 148.167,233.5 147.833,233.5 147.5,233.5C 144.833,233.5 142.167,233.5 139.5,233.5C 137.143,233.663 134.81,233.497 132.5,233C 133.866,230.618 133.533,228.452 131.5,226.5C 132.247,226.264 133.08,225.93 134,225.5C 134.626,223.287 134.459,221.12 133.5,219C 134.022,218.05 134.689,217.216 135.5,216.5C 135.291,215.914 134.957,215.414 134.5,215C 135.579,214.044 136.745,213.211 138,212.5C 138.333,206.833 138.667,201.167 139,195.5C 140.016,194.366 140.683,194.699 141,196.5C 142.318,193.353 142.485,190.353 141.5,187.5 Z"/></g>
<g><path style="opacity:1" fill="#396bf2" d="M 162.5,187.5 C 167.833,187.5 173.167,187.5 178.5,187.5C 175.205,191.028 173.705,195.362 174,200.5C 173.921,196.642 173.254,192.976 172,189.5C 171.941,192.841 170.774,195.675 168.5,198C 169.833,199.667 169.833,201.333 168.5,203C 171.817,208.068 172.817,213.568 171.5,219.5C 170.5,219.5 169.5,219.5 168.5,219.5C 168.5,221.5 168.5,223.5 168.5,225.5C 169.5,225.5 170.5,225.5 171.5,225.5C 167.5,227.167 163.5,228.833 159.5,230.5C 158.167,230.5 156.833,230.5 155.5,230.5C 154.717,228.657 154.05,226.657 153.5,224.5C 155.122,219.998 156.955,215.665 159,211.5C 159.097,204.13 160.263,197.297 162.5,191C 161.377,189.956 160.044,189.29 158.5,189C 160.058,188.79 161.391,188.29 162.5,187.5 Z"/></g>
<g><path style="opacity:1" fill="#6080e9" d="M 131.5,187.5 C 133.5,187.5 135.5,187.5 137.5,187.5C 134.937,188.069 132.77,189.403 131,191.5C 129.414,198.789 127.08,205.789 124,212.5C 123.333,213.833 122.667,213.833 122,212.5C 119.858,218.717 117.858,225.05 116,231.5C 114.266,232.249 112.433,232.749 110.5,233C 113.036,233.186 115.369,233.686 117.5,234.5C 115.5,234.5 113.5,234.5 111.5,234.5C 110.508,234.672 109.842,234.338 109.5,233.5C 109.748,230.42 110.414,227.42 111.5,224.5C 109.721,222.065 110.387,221.065 113.5,221.5C 113.773,219.549 113.107,218.049 111.5,217C 113.046,214.743 114.712,212.576 116.5,210.5C 116.291,209.914 115.957,209.414 115.5,209C 117.167,206.667 118.833,204.333 120.5,202C 120.077,199.624 120.911,197.457 123,195.5C 123.311,193.444 123.811,191.444 124.5,189.5C 126.969,188.832 129.302,188.165 131.5,187.5 Z"/></g>
<g><path style="opacity:1" fill="#72a0eb" d="M 90.5,186.5 C 122.833,186.5 155.167,186.5 187.5,186.5C 184.713,187.477 181.713,187.81 178.5,187.5C 173.167,187.5 167.833,187.5 162.5,187.5C 159.167,187.5 155.833,187.5 152.5,187.5C 148.833,187.5 145.167,187.5 141.5,187.5C 140.167,187.5 138.833,187.5 137.5,187.5C 135.5,187.5 133.5,187.5 131.5,187.5C 128.833,187.5 126.167,187.5 123.5,187.5C 120.167,187.5 116.833,187.5 113.5,187.5C 111.5,187.5 109.5,187.5 107.5,187.5C 105.473,187.338 103.473,187.505 101.5,188C 102.956,188.423 103.456,189.256 103,190.5C 102.333,191.833 101.667,191.833 101,190.5C 98.6294,193.206 95.9628,195.539 93,197.5C 89.4457,202.959 84.779,207.292 79,210.5C 75.622,210.789 72.2886,210.789 69,210.5C 66.5361,209.15 64.0361,207.984 61.5,207C 60.1667,206.333 58.8333,206.333 57.5,207C 59.3867,209.95 61.3867,212.784 63.5,215.5C 55.317,210.991 48.317,204.991 42.5,197.5C 43.3369,194.148 44.8369,191.148 47,188.5C 50.1557,190.657 52.989,193.157 55.5,196C 56.5768,196.47 57.5768,196.303 58.5,195.5C 61.0846,196.002 63.418,197.169 65.5,199C 63.3553,199.743 63.1886,200.576 65,201.5C 66.3333,200.833 67.6667,200.167 69,199.5C 70.4788,200.756 72.1454,201.756 74,202.5C 75.3756,202.316 76.2089,201.649 76.5,200.5C 81.075,199.71 85.2416,197.377 89,193.5C 89.4978,191.473 89.3311,189.473 88.5,187.5C 88.4387,185.279 89.1054,184.946 90.5,186.5 Z"/></g>
<g><path style="opacity:1" fill="#6c8ce5" d="M 113.5,187.5 C 116.833,187.5 120.167,187.5 123.5,187.5C 122.432,188.434 121.099,188.768 119.5,188.5C 119.509,190.308 119.009,191.975 118,193.5C 115.726,195.506 113.892,197.839 112.5,200.5C 108.388,209.94 103.054,218.606 96.5,226.5C 95.624,227.251 94.624,227.751 93.5,228C 94.2524,228.671 94.5858,229.504 94.5,230.5C 92.4214,230.029 90.4214,229.363 88.5,228.5C 87.7659,227.292 87.4326,225.959 87.5,224.5C 88.552,224.649 89.552,224.483 90.5,224C 93.2953,220.531 96.1287,217.031 99,213.5C 100.707,211.091 101.54,208.425 101.5,205.5C 102.5,205.5 103.5,205.5 104.5,205.5C 107.416,199.548 110.416,193.548 113.5,187.5 Z"/></g>
<g><path style="opacity:1" fill="#739ae7" d="M 107.5,187.5 C 108.064,191.978 106.064,194.978 101.5,196.5C 101.649,197.552 101.483,198.552 101,199.5C 98.3167,202.016 95.8167,204.683 93.5,207.5C 93.7093,208.086 94.0426,208.586 94.5,209C 89.2103,214.312 83.2103,218.645 76.5,222C 79.2387,223.026 81.572,224.526 83.5,226.5C 75.893,224.367 69.2263,220.7 63.5,215.5C 61.3867,212.784 59.3867,209.95 57.5,207C 58.8333,206.333 60.1667,206.333 61.5,207C 64.0361,207.984 66.5361,209.15 69,210.5C 72.2886,210.789 75.622,210.789 79,210.5C 84.779,207.292 89.4457,202.959 93,197.5C 95.9628,195.539 98.6294,193.206 101,190.5C 101.667,191.833 102.333,191.833 103,190.5C 103.456,189.256 102.956,188.423 101.5,188C 103.473,187.505 105.473,187.338 107.5,187.5 Z"/></g>
<g><path style="opacity:1" fill="#6686e7" d="M 123.5,187.5 C 126.167,187.5 128.833,187.5 131.5,187.5C 129.302,188.165 126.969,188.832 124.5,189.5C 123.811,191.444 123.311,193.444 123,195.5C 120.911,197.457 120.077,199.624 120.5,202C 118.833,204.333 117.167,206.667 115.5,209C 115.957,209.414 116.291,209.914 116.5,210.5C 114.712,212.576 113.046,214.743 111.5,217C 113.107,218.049 113.773,219.549 113.5,221.5C 110.387,221.065 109.721,222.065 111.5,224.5C 110.414,227.42 109.748,230.42 109.5,233.5C 104.464,232.711 99.4643,231.711 94.5,230.5C 94.5858,229.504 94.2524,228.671 93.5,228C 94.624,227.751 95.624,227.251 96.5,226.5C 103.054,218.606 108.388,209.94 112.5,200.5C 113.892,197.839 115.726,195.506 118,193.5C 119.009,191.975 119.509,190.308 119.5,188.5C 121.099,188.768 122.432,188.434 123.5,187.5 Z"/></g>
<g><path style="opacity:1" fill="#7193e5" d="M 107.5,187.5 C 109.5,187.5 111.5,187.5 113.5,187.5C 110.416,193.548 107.416,199.548 104.5,205.5C 103.5,205.5 102.5,205.5 101.5,205.5C 101.54,208.425 100.707,211.091 99,213.5C 96.1287,217.031 93.2953,220.531 90.5,224C 89.552,224.483 88.552,224.649 87.5,224.5C 87.4326,225.959 87.7659,227.292 88.5,228.5C 86.597,228.204 84.9303,227.537 83.5,226.5C 81.572,224.526 79.2387,223.026 76.5,222C 83.2103,218.645 89.2103,214.312 94.5,209C 94.0426,208.586 93.7093,208.086 93.5,207.5C 95.8167,204.683 98.3167,202.016 101,199.5C 101.483,198.552 101.649,197.552 101.5,196.5C 106.064,194.978 108.064,191.978 107.5,187.5 Z"/></g>
<g><path style="opacity:1" fill="#b9c9fa" d="M 155.5,230.5 C 156.833,230.5 158.167,230.5 159.5,230.5C 156.146,232.258 152.479,233.258 148.5,233.5C 148.5,233.167 148.5,232.833 148.5,232.5C 151.01,232.073 153.343,231.407 155.5,230.5 Z"/></g>
<g><path style="opacity:1" fill="#c0cdf8" d="M 139.5,233.5 C 142.167,233.5 144.833,233.5 147.5,233.5C 140.562,235.007 133.396,235.673 126,235.5C 120.988,235.499 116.155,235.166 111.5,234.5C 113.5,234.5 115.5,234.5 117.5,234.5C 125.019,234.825 132.352,234.492 139.5,233.5 Z"/></g>
</svg>
