<?xml version="1.0" encoding="UTF-8"?>
<!DOCTYPE svg PUBLIC "-//W3C//DTD SVG 1.1//EN" "http://www.w3.org/Graphics/SVG/1.1/DTD/svg11.dtd">
<svg xmlns="http://www.w3.org/2000/svg" version="1.1" width="243px" height="250px" style="shape-rendering:geometricPrecision; text-rendering:geometricPrecision; image-rendering:optimizeQuality; fill-rule:evenodd; clip-rule:evenodd" xmlns:xlink="http://www.w3.org/1999/xlink">
<g><path style="opacity:0.934" fill="#7cc3f1" d="M 105.5,24.5 C 122.948,21.8325 139.948,23.8325 156.5,30.5C 156.219,32.9628 155.219,35.1295 153.5,37C 154.056,37.3826 154.389,37.8826 154.5,38.5C 139.974,33.2817 124.974,30.9484 109.5,31.5C 107.801,31.6602 106.134,31.4935 104.5,31C 107.167,29.6667 109.167,27.6667 110.5,25C 108.866,24.5065 107.199,24.3398 105.5,24.5 Z"/></g>
<g><path style="opacity:0.916" fill="#8ed2fa" d="M 105.5,24.5 C 107.199,24.3398 108.866,24.5065 110.5,25C 109.167,27.6667 107.167,29.6667 104.5,31C 106.134,31.4935 107.801,31.6602 109.5,31.5C 68.4762,37.9543 41.3095,60.9543 28,100.5C 23.2735,122.445 25.1068,143.779 33.5,164.5C 32.8501,164.196 32.1835,163.863 31.5,163.5C 29.8149,165.571 28.1482,167.571 26.5,169.5C 7.62811,123.358 15.9614,82.8584 51.5,48C 67.1865,34.9933 85.1865,27.16 105.5,24.5 Z"/></g>
<g><path style="opacity:1" fill="#fdfefe" d="M 109.5,31.5 C 124.974,30.9484 139.974,33.2817 154.5,38.5C 164.527,43.1732 173.86,48.8398 182.5,55.5C 186.904,59.8974 190.904,64.5641 194.5,69.5C 199.622,76.7474 203.956,84.414 207.5,92.5C 211.759,104.803 213.426,117.47 212.5,130.5C 208.588,170.39 188.254,198.057 151.5,213.5C 143.979,215.804 136.312,217.471 128.5,218.5C 120.167,218.5 111.833,218.5 103.5,218.5C 95.7957,216.652 88.129,214.318 80.5,211.5C 72.8645,207.347 65.5312,202.68 58.5,197.5C 48.0042,188.193 39.6709,177.193 33.5,164.5C 25.1068,143.779 23.2735,122.445 28,100.5C 41.3095,60.9543 68.4762,37.9543 109.5,31.5 Z"/></g>
<g><path style="opacity:0.901" fill="#5eade2" d="M 156.5,30.5 C 167.174,34.1609 176.507,39.8275 184.5,47.5C 184.219,49.9628 183.219,52.1295 181.5,54C 182.056,54.3826 182.389,54.8826 182.5,55.5C 173.86,48.8398 164.527,43.1732 154.5,38.5C 154.389,37.8826 154.056,37.3826 153.5,37C 155.219,35.1295 156.219,32.9628 156.5,30.5 Z"/></g>
<g><path style="opacity:0.898" fill="#499dd8" d="M 184.5,47.5 C 190.167,51.1667 194.833,55.8333 198.5,61.5C 197.601,64.395 196.267,67.0616 194.5,69.5C 190.904,64.5641 186.904,59.8974 182.5,55.5C 182.389,54.8826 182.056,54.3826 181.5,54C 183.219,52.1295 184.219,49.9628 184.5,47.5 Z"/></g>
<g><path style="opacity:1" fill="#6aaada" d="M 106.5,71.5 C 105.833,71.5 105.5,71.1667 105.5,70.5C 109.468,66.3605 113.301,62.0272 117,57.5C 115.341,63.3551 111.841,68.0218 106.5,71.5 Z"/></g>
<g><path style="opacity:1" fill="#85c6f1" d="M 128.5,69.5 C 127.244,71.7257 127.244,74.059 128.5,76.5C 127.167,76.5 125.833,76.5 124.5,76.5C 122.669,69.8492 121.169,63.1825 120,56.5C 122.346,61.2036 125.18,65.537 128.5,69.5 Z"/></g>
<g><path style="opacity:1" fill="#4f9fd7" d="M 128.5,69.5 C 130.628,72.1303 132.961,74.6303 135.5,77C 133.203,77.0178 130.869,76.8511 128.5,76.5C 127.244,74.059 127.244,71.7257 128.5,69.5 Z"/></g>
<g><path style="opacity:1" fill="#a9d8f6" d="M 105.5,70.5 C 105.5,71.1667 105.833,71.5 106.5,71.5C 105.196,73.982 103.196,75.1487 100.5,75C 102.037,73.2927 103.704,71.7927 105.5,70.5 Z"/></g>
<g><path style="opacity:0.927" fill="#3890cf" d="M 198.5,61.5 C 204.014,67.6996 208.347,74.6996 211.5,82.5C 211.66,84.1992 211.494,85.8659 211,87.5C 209.588,89.0646 208.421,90.7313 207.5,92.5C 203.956,84.414 199.622,76.7474 194.5,69.5C 196.267,67.0616 197.601,64.395 198.5,61.5 Z"/></g>
<g><path style="opacity:1" fill="#5da9df" d="M 110.5,78.5 C 116.69,78.1771 122.69,78.5104 128.5,79.5C 123.833,79.5 119.167,79.5 114.5,79.5C 114.5,80.8333 114.5,82.1667 114.5,83.5C 115.833,83.5 117.167,83.5 118.5,83.5C 115.411,84.7846 112.078,85.4512 108.5,85.5C 107.081,84.5489 105.415,84.2155 103.5,84.5C 103.5,82.8333 103.5,81.1667 103.5,79.5C 106.059,79.8016 108.393,79.4682 110.5,78.5 Z"/></g>
<g><path style="opacity:1" fill="#4595d0" d="M 128.5,79.5 C 132.912,79.9022 137.246,80.7355 141.5,82C 133.815,82.3528 126.148,82.8528 118.5,83.5C 117.167,83.5 115.833,83.5 114.5,83.5C 114.5,82.1667 114.5,80.8333 114.5,79.5C 119.167,79.5 123.833,79.5 128.5,79.5 Z"/></g>
<g><path style="opacity:1" fill="#82c6f1" d="M 110.5,78.5 C 108.393,79.4682 106.059,79.8016 103.5,79.5C 103.5,81.1667 103.5,82.8333 103.5,84.5C 105.415,84.2155 107.081,84.5489 108.5,85.5C 103.156,85.334 97.8229,85.5006 92.5,86C 86.4897,87.3414 80.4897,88.3414 74.5,89C 85.5039,82.1662 97.5039,78.6662 110.5,78.5 Z"/></g>
<g><path style="opacity:1" fill="#8dccf4" d="M 150.5,84.5 C 148.5,84.5 146.5,84.5 144.5,84.5C 141.833,84.5 139.167,84.5 136.5,84.5C 136.5,86.1667 136.5,87.8333 136.5,89.5C 131.075,89.015 125.741,88.015 120.5,86.5C 130.513,83.6768 140.513,83.0101 150.5,84.5 Z"/></g>
<g><path style="opacity:1" fill="#6bb5e7" d="M 144.5,84.5 C 145.167,87.1667 145.833,89.8333 146.5,92.5C 143.15,91.4967 139.817,90.4967 136.5,89.5C 136.5,87.8333 136.5,86.1667 136.5,84.5C 139.167,84.5 141.833,84.5 144.5,84.5 Z"/></g>
<g><path style="opacity:1" fill="#4397d3" d="M 144.5,84.5 C 146.5,84.5 148.5,84.5 150.5,84.5C 154.284,84.8891 157.284,86.5558 159.5,89.5C 158.517,93.2984 158.183,97.2984 158.5,101.5C 155.066,97.7305 151.066,94.7305 146.5,92.5C 145.833,89.8333 145.167,87.1667 144.5,84.5 Z"/></g>
<g><path style="opacity:0.906" fill="#2883c6" d="M 211.5,82.5 C 215.381,89.9911 218.047,97.9911 219.5,106.5C 217.204,108.401 215.371,110.734 214,113.5C 213.827,119.348 213.327,125.015 212.5,130.5C 213.426,117.47 211.759,104.803 207.5,92.5C 208.421,90.7313 209.588,89.0646 211,87.5C 211.494,85.8659 211.66,84.1992 211.5,82.5 Z"/></g>
<g><path style="opacity:1" fill="#2479be" d="M 159.5,89.5 C 165.431,94.3641 168.431,100.697 168.5,108.5C 168.586,113.49 167.419,118.156 165,122.5C 164.219,115.033 162.052,108.033 158.5,101.5C 158.183,97.2984 158.517,93.2984 159.5,89.5 Z"/></g>
<g><path style="opacity:1" fill="#5fa6da" d="M 64.5,136.5 C 63.5233,133.713 63.19,130.713 63.5,127.5C 63.3336,119.16 63.5003,110.827 64,102.5C 65.0758,99.3516 66.4091,96.3516 68,93.5C 68.1667,94 68.3333,94.5 68.5,95C 66.9978,98.487 66.3312,102.154 66.5,106C 68.3559,116.368 67.6892,126.535 64.5,136.5 Z"/></g>
<g><path style="opacity:1" fill="#85c8f3" d="M 162.5,124.5 C 161.686,122.369 161.186,120.036 161,117.5C 160.205,124.58 160.372,131.58 161.5,138.5C 157.621,136.794 155.121,133.794 154,129.5C 153.476,123.555 153.976,117.722 155.5,112C 153.298,99.9264 154.798,99.4264 160,110.5C 161.975,114.963 162.808,119.629 162.5,124.5 Z"/></g>
<g><path style="opacity:1" fill="#66b0e3" d="M 162.5,124.5 C 162.178,131.702 164.178,138.202 168.5,144C 165.536,143.228 163.202,141.395 161.5,138.5C 160.372,131.58 160.205,124.58 161,117.5C 161.186,120.036 161.686,122.369 162.5,124.5 Z"/></g>
<g><path style="opacity:1" fill="#267bbe" d="M 80.5,116.5 C 81.5,116.5 82.5,116.5 83.5,116.5C 83.5,118.5 83.5,120.5 83.5,122.5C 79.5564,122.116 78.5564,120.116 80.5,116.5 Z"/></g>
<g><path style="opacity:1" fill="#267bbe" d="M 120.5,116.5 C 121.5,116.5 122.5,116.5 123.5,116.5C 123.5,118.5 123.5,120.5 123.5,122.5C 119.556,122.116 118.556,120.116 120.5,116.5 Z"/></g>
<g><path style="opacity:1" fill="#2b86c8" d="M 162.5,143.5 C 164.833,145.167 166.833,147.167 168.5,149.5C 167.167,160.167 167.167,170.833 168.5,181.5C 167.738,183.262 166.404,184.262 164.5,184.5C 163.5,184.5 162.5,184.5 161.5,184.5C 161.171,170.656 161.504,156.99 162.5,143.5 Z"/></g>
<g><path style="opacity:1" fill="#91cdf4" d="M 63.5,127.5 C 63.19,130.713 63.5233,133.713 64.5,136.5C 59.0132,145.315 59.3465,153.982 65.5,162.5C 64.6446,163.293 63.8113,162.96 63,161.5C 58.0923,156.018 56.4256,149.685 58,142.5C 60.473,137.588 62.3063,132.588 63.5,127.5 Z"/></g>
<g><path style="opacity:1" fill="#1d76bd" d="M 168.5,149.5 C 174.859,158.063 176.026,167.396 172,177.5C 171.34,179.324 170.173,180.657 168.5,181.5C 167.167,170.833 167.167,160.167 168.5,149.5 Z"/></g>
<g><path style="opacity:0.735" fill="#0268b4" d="M 217.5,150.5 C 212.34,172.846 200.673,190.846 182.5,204.5C 194.2,186.477 205.867,168.477 217.5,150.5 Z"/></g>
<g><path style="opacity:1" fill="#479bd6" d="M 162.5,143.5 C 161.504,156.99 161.171,170.656 161.5,184.5C 162.5,184.5 163.5,184.5 164.5,184.5C 161.829,186.118 158.829,186.785 155.5,186.5C 154.737,185.732 153.737,185.232 152.5,185C 153.471,179.928 153.805,174.762 153.5,169.5C 156.955,166.085 158.621,161.918 158.5,157C 157.405,150.813 156.572,144.647 156,138.5C 158.687,139.582 160.854,141.249 162.5,143.5 Z"/></g>
<g><path style="opacity:0.868" fill="#78c0ef" d="M 33.5,164.5 C 39.6709,177.193 48.0042,188.193 58.5,197.5C 56.8333,199.5 55.1667,201.5 53.5,203.5C 42.1266,194.106 33.1266,182.772 26.5,169.5C 28.1482,167.571 29.8149,165.571 31.5,163.5C 32.1835,163.863 32.8501,164.196 33.5,164.5 Z"/></g>
<g><path style="opacity:1" fill="#c4e5fa" d="M 144.5,173.5 C 140.5,174.167 136.5,174.833 132.5,175.5C 131.711,175.217 131.044,174.717 130.5,174C 135.155,173.501 139.821,173.334 144.5,173.5 Z"/></g>
<g><path style="opacity:1" fill="#8bcaf3" d="M 112.5,175.5 C 107.695,176.487 102.695,176.821 97.5,176.5C 97.5,178.167 97.5,179.833 97.5,181.5C 88.1842,178.675 79.5175,174.509 71.5,169C 70.3044,168.346 70.3044,167.846 71.5,167.5C 84.3153,174.359 97.982,177.026 112.5,175.5 Z"/></g>
<g><path style="opacity:1" fill="#4096d3" d="M 123.5,174.5 C 127.244,174.928 130.244,176.595 132.5,179.5C 131.784,181.556 131.117,183.723 130.5,186C 131.056,186.383 131.389,186.883 131.5,187.5C 130.167,187.5 128.833,187.5 127.5,187.5C 123.382,186.291 119.049,185.624 114.5,185.5C 114.777,182.552 114.444,179.719 113.5,177C 117.133,176.851 120.466,176.018 123.5,174.5 Z"/></g>
<g><path style="opacity:1" fill="#74bcec" d="M 153.5,169.5 C 153.805,174.762 153.471,179.928 152.5,185C 153.737,185.232 154.737,185.732 155.5,186.5C 147.186,184.176 139.519,180.51 132.5,175.5C 136.5,174.833 140.5,174.167 144.5,173.5C 147.873,172.934 150.873,171.601 153.5,169.5 Z"/></g>
<g><path style="opacity:1" fill="#68b1e4" d="M 123.5,174.5 C 120.466,176.018 117.133,176.851 113.5,177C 114.444,179.719 114.777,182.552 114.5,185.5C 119.049,185.624 123.382,186.291 127.5,187.5C 117.084,187.356 107.084,185.356 97.5,181.5C 97.5,179.833 97.5,178.167 97.5,176.5C 102.695,176.821 107.695,176.487 112.5,175.5C 116.198,175.448 119.865,175.114 123.5,174.5 Z"/></g>
<g><path style="opacity:1" fill="#2a82c5" d="M 132.5,179.5 C 137.375,182.104 142.375,184.438 147.5,186.5C 142.36,187.488 137.026,187.821 131.5,187.5C 131.389,186.883 131.056,186.383 130.5,186C 131.117,183.723 131.784,181.556 132.5,179.5 Z"/></g>
<g><path style="opacity:1" fill="#b8d5eb" d="M 147.5,186.5 C 148.376,186.369 149.043,186.702 149.5,187.5C 142.01,188.819 134.677,188.819 127.5,187.5C 128.833,187.5 130.167,187.5 131.5,187.5C 137.026,187.821 142.36,187.488 147.5,186.5 Z"/></g>
<g><path style="opacity:0.938" fill="#1873bb" d="M 219.5,106.5 C 222.448,121.455 221.782,136.122 217.5,150.5C 205.867,168.477 194.2,186.477 182.5,204.5C 171.323,213.758 158.656,220.425 144.5,224.5C 145.759,221.634 146.759,218.634 147.5,215.5C 149.199,215.66 150.866,215.494 152.5,215C 151.944,214.617 151.611,214.117 151.5,213.5C 188.254,198.057 208.588,170.39 212.5,130.5C 213.327,125.015 213.827,119.348 214,113.5C 215.371,110.734 217.204,108.401 219.5,106.5 Z"/></g>
<g><path style="opacity:0.888" fill="#5dace2" d="M 58.5,197.5 C 65.5312,202.68 72.8645,207.347 80.5,211.5C 79.5902,213.019 78.7568,214.685 78,216.5C 77.3292,217.252 76.4959,217.586 75.5,217.5C 67.3585,214.01 60.0252,209.343 53.5,203.5C 55.1667,201.5 56.8333,199.5 58.5,197.5 Z"/></g>
<g><path style="opacity:0.855" fill="#479cd7" d="M 80.5,211.5 C 88.129,214.318 95.7957,216.652 103.5,218.5C 100.402,218.413 100.068,218.913 102.5,220C 100.587,221.724 98.587,223.224 96.5,224.5C 88.9491,223.536 81.9491,221.203 75.5,217.5C 76.4959,217.586 77.3292,217.252 78,216.5C 78.7568,214.685 79.5902,213.019 80.5,211.5 Z"/></g>
<g><path style="opacity:0.92" fill="#2783c6" d="M 151.5,213.5 C 151.611,214.117 151.944,214.617 152.5,215C 150.866,215.494 149.199,215.66 147.5,215.5C 146.759,218.634 145.759,221.634 144.5,224.5C 136.251,226.155 127.918,227.155 119.5,227.5C 120.608,225.219 121.942,223.052 123.5,221C 122.833,220.667 122.167,220.333 121.5,220C 124.036,219.814 126.369,219.314 128.5,218.5C 136.312,217.471 143.979,215.804 151.5,213.5 Z"/></g>
<g><path style="opacity:0.967" fill="#3e92cf" d="M 103.5,218.5 C 111.833,218.5 120.167,218.5 128.5,218.5C 126.369,219.314 124.036,219.814 121.5,220C 122.167,220.333 122.833,220.667 123.5,221C 121.942,223.052 120.608,225.219 119.5,227.5C 111.56,227.55 103.894,226.55 96.5,224.5C 98.587,223.224 100.587,221.724 102.5,220C 100.068,218.913 100.402,218.413 103.5,218.5 Z"/></g>
</svg>
