<?xml version="1.0" encoding="UTF-8"?>
<!DOCTYPE svg PUBLIC "-//W3C//DTD SVG 1.1//EN" "http://www.w3.org/Graphics/SVG/1.1/DTD/svg11.dtd">
<svg xmlns="http://www.w3.org/2000/svg" version="1.1" width="250px" height="250px" style="shape-rendering:geometricPrecision; text-rendering:geometricPrecision; image-rendering:optimizeQuality; fill-rule:evenodd; clip-rule:evenodd" xmlns:xlink="http://www.w3.org/1999/xlink">
<g><path style="opacity:1" fill="#fee858" d="M -0.5,-0.5 C 82.8333,-0.5 166.167,-0.5 249.5,-0.5C 249.5,82.8333 249.5,166.167 249.5,249.5C 166.167,249.5 82.8333,249.5 -0.5,249.5C -0.5,166.167 -0.5,82.8333 -0.5,-0.5 Z"/></g>
<g><path style="opacity:1" fill="#f1e068" d="M 195.5,79.5 C 197.998,63.333 196.498,47.6663 191,32.5C 186.328,26.1808 180.494,24.8475 173.5,28.5C 169.85,30.4717 166.184,32.4717 162.5,34.5C 163.356,30.1456 166.023,27.6456 170.5,27C 171.167,26 171.833,25 172.5,24C 174.769,24.3744 177.102,24.3744 179.5,24C 179.833,23.6667 180.167,23.3333 180.5,23C 179.5,22.6667 178.5,22.3333 177.5,22C 179.272,20.5132 181.272,20.1799 183.5,21C 180.84,22.9817 181.34,23.815 185,23.5C 187.239,22.9089 189.406,22.2422 191.5,21.5C 191.112,24.9734 191.112,28.3068 191.5,31.5C 192.833,31.5 194.167,31.5 195.5,31.5C 196.577,47.9296 197.911,64.263 199.5,80.5C 199.192,81.3081 198.692,81.9747 198,82.5C 197.148,81.4293 196.315,80.4293 195.5,79.5 Z"/></g>
<g><path style="opacity:1" fill="#eddb6a" d="M 162.5,34.5 C 160.084,37.0817 157.25,39.0817 154,40.5C 134.359,32.6027 114.692,32.6027 95,40.5C 90.7368,37.9537 86.5702,35.287 82.5,32.5C 76.8765,28.1818 70.5431,26.5151 63.5,27.5C 62.7579,28.2868 61.9246,28.9535 61,29.5C 57.6252,35.2354 55.1252,41.2354 53.5,47.5C 53.9621,41.0238 55.1288,34.6904 57,28.5C 57.8333,27 59,25.8333 60.5,25C 65.202,24.1717 69.8687,24.3384 74.5,25.5C 79.4941,27.0406 84.1607,29.2072 88.5,32C 89.3366,33.0113 89.67,34.1779 89.5,35.5C 93.708,34.6949 97.8746,34.6949 102,35.5C 112.366,32.9099 122.866,32.0766 133.5,33C 141.275,34.5396 148.942,36.3729 156.5,38.5C 156.5,37.5 156.5,36.5 156.5,35.5C 158.5,35.1667 160.5,34.8333 162.5,34.5 Z"/></g>
<g><path style="opacity:1" fill="#42210e" d="M 82.5,32.5 C 81.9569,32.56 81.6236,32.8933 81.5,33.5C 82.8569,35.1856 84.1902,36.8523 85.5,38.5C 81.6403,36.1559 77.6403,33.9893 73.5,32C 72.5,31.3333 71.5,31.3333 70.5,32C 76.3177,35.654 81.3177,40.154 85.5,45.5C 86.1667,46.1667 86.8333,46.8333 87.5,47.5C 87.5,48.5 87.5,49.5 87.5,50.5C 83.3939,53.4289 79.3939,56.5956 75.5,60C 74.1772,60.8159 73.5106,61.9826 73.5,63.5C 70.3954,66.2749 68.0621,69.6082 66.5,73.5C 64.7549,75.0326 63.7549,77.0326 63.5,79.5C 61.7549,81.0326 60.7549,83.0326 60.5,85.5C 57.86,94.9359 56.86,104.603 57.5,114.5C 56.0689,114.119 55.2355,113.119 55,111.5C 54.8333,112.167 54.6667,112.833 54.5,113.5C 55.327,116.783 55.6604,120.116 55.5,123.5C 55.1667,123.5 54.8333,123.5 54.5,123.5C 53.9492,120.193 53.6159,116.86 53.5,113.5C 53.6675,106.49 54.0009,99.4903 54.5,92.5C 55.1611,89.5123 55.8278,86.5123 56.5,83.5C 53.8391,71.6571 52.8391,59.6571 53.5,47.5C 55.1252,41.2354 57.6252,35.2354 61,29.5C 61.9246,28.9535 62.7579,28.2868 63.5,27.5C 70.5431,26.5151 76.8765,28.1818 82.5,32.5 Z"/></g>
<g><path style="opacity:1" fill="#cbac73" d="M 172.5,37.5 C 171.833,37.5 171.167,37.5 170.5,37.5C 169.833,37.5 169.5,37.1667 169.5,36.5C 170.306,35.2719 171.306,34.2719 172.5,33.5C 174.707,32.2607 177.041,31.7607 179.5,32C 176.98,33.6971 174.647,35.5305 172.5,37.5 Z"/></g>
<g><path style="opacity:1" fill="#b25b28" d="M 66.5,35.5 C 65.5,35.5 64.5,35.5 63.5,35.5C 63.7709,37.3797 63.1042,38.713 61.5,39.5C 60.9245,36.4285 62.0912,34.4285 65,33.5C 66.0299,33.8361 66.5299,34.5028 66.5,35.5 Z"/></g>
<g><path style="opacity:1" fill="#9b4c1b" d="M 190.5,45.5 C 189.067,42.7177 187.9,39.7177 187,36.5C 185.644,35.6198 184.144,35.2865 182.5,35.5C 184.198,32.8761 186.031,32.8761 188,35.5C 189.352,38.7201 190.186,42.0534 190.5,45.5 Z"/></g>
<g><path style="opacity:1" fill="#65230b" d="M 69.5,36.5 C 74.0497,37.5473 77.3831,40.214 79.5,44.5C 75.8726,42.2065 72.5393,39.5398 69.5,36.5 Z"/></g>
<g><path style="opacity:1" fill="#deb059" d="M 85.5,38.5 C 88.5795,44.3765 93.2461,46.3765 99.5,44.5C 96.8632,46.4274 93.8632,46.9274 90.5,46C 88.9825,44.3149 87.3159,42.8149 85.5,41.5C 84.7084,42.6998 84.7084,44.0331 85.5,45.5C 81.3177,40.154 76.3177,35.654 70.5,32C 71.5,31.3333 72.5,31.3333 73.5,32C 77.6403,33.9893 81.6403,36.1559 85.5,38.5 Z"/></g>
<g><path style="opacity:1" fill="#3f2711" d="M 173.5,28.5 C 172.91,30.0972 171.91,31.4305 170.5,32.5C 170.957,33.2975 171.624,33.6309 172.5,33.5C 171.306,34.2719 170.306,35.2719 169.5,36.5C 165.032,38.5766 161.032,41.41 157.5,45C 155.527,45.4955 153.527,45.6621 151.5,45.5C 146.799,42.1491 141.466,40.3158 135.5,40C 127.5,39.3333 119.5,39.3333 111.5,40C 109.942,40.21 108.609,40.71 107.5,41.5C 104.284,41.3455 101.617,42.3455 99.5,44.5C 93.2461,46.3765 88.5795,44.3765 85.5,38.5C 84.1902,36.8523 82.8569,35.1856 81.5,33.5C 81.6236,32.8933 81.9569,32.56 82.5,32.5C 86.5702,35.287 90.7368,37.9537 95,40.5C 114.692,32.6027 134.359,32.6027 154,40.5C 157.25,39.0817 160.084,37.0817 162.5,34.5C 166.184,32.4717 169.85,30.4717 173.5,28.5 Z"/></g>
<g><path style="opacity:1" fill="#fca304" d="M 159.5,46.5 C 159.56,45.9569 159.893,45.6236 160.5,45.5C 161.17,47.2914 161.837,48.9581 162.5,50.5C 163.5,50.8333 164.167,51.5 164.5,52.5C 164.933,55.1955 166.266,57.3621 168.5,59C 167.289,60.1131 167.289,61.2798 168.5,62.5C 171.037,64.2674 173.703,65.7674 176.5,67C 178.383,70.0455 180.716,72.5455 183.5,74.5C 184.167,74.5 184.5,74.8333 184.5,75.5C 186.15,81.6351 187.816,87.8018 189.5,94C 189.836,95.0299 190.503,95.5299 191.5,95.5C 191.5,101.833 191.5,108.167 191.5,114.5C 188.774,114.264 186.441,115.097 184.5,117C 180.779,117.678 177.112,117.511 173.5,116.5C 173.48,114.857 174.147,113.524 175.5,112.5C 175,112.167 174.5,111.833 174,111.5C 171.775,113.278 169.275,113.778 166.5,113C 164.976,110.642 162.976,108.809 160.5,107.5C 159.928,105.083 158.928,102.916 157.5,101C 161.046,99.8263 164.713,99.1596 168.5,99C 169.823,98.1841 170.489,97.0174 170.5,95.5C 170.5,94.8333 170.5,94.1667 170.5,93.5C 171.634,91.0336 171.801,88.367 171,85.5C 169.878,83.5795 169.044,81.5795 168.5,79.5C 166.167,79.5 163.833,79.5 161.5,79.5C 162.194,74.1951 162.528,68.8617 162.5,63.5C 160.5,63.5 158.5,63.5 156.5,63.5C 153.482,63.3354 150.482,63.502 147.5,64C 146.748,64.6708 146.414,65.5041 146.5,66.5C 144.576,70.6642 145.576,73.9975 149.5,76.5C 149.944,78.1132 150.944,79.2798 152.5,80C 151.464,82.9806 149.798,85.4806 147.5,87.5C 146.686,89.7662 146.186,92.0995 146,94.5C 145.333,93.1667 144.667,91.8333 144,90.5C 143.439,91.0219 142.772,91.3552 142,91.5C 140.404,90.5035 138.904,89.3368 137.5,88C 124.825,84.9384 112.992,86.7717 102,93.5C 101.235,93.4301 100.735,93.0967 100.5,92.5C 100.797,88.2325 100.464,84.0659 99.5,80C 102.719,78.7067 105.719,77.0401 108.5,75C 107.875,72.1997 107.208,69.3664 106.5,66.5C 105.358,65.1738 104.024,64.1738 102.5,63.5C 99.4816,63.3354 96.4816,63.502 93.5,64C 92.6195,64.7083 91.9528,65.5416 91.5,66.5C 90.8333,66.5 90.1667,66.5 89.5,66.5C 88.5318,68.6074 88.1984,70.9407 88.5,73.5C 89.5353,75.205 89.5353,76.8716 88.5,78.5C 85.3871,79.3805 82.3871,80.3805 79.5,81.5C 79.5,82.8333 79.5,84.1667 79.5,85.5C 79.5,86.1667 79.5,86.8333 79.5,87.5C 79.5,88.8333 79.5,90.1667 79.5,91.5C 80.0284,94.6881 81.6951,97.0214 84.5,98.5C 85.4961,99.6651 86.8295,100.332 88.5,100.5C 91.2076,99.9589 93.8743,99.2923 96.5,98.5C 96.8333,99 97.1667,99.5 97.5,100C 96.5705,101.077 95.9038,102.244 95.5,103.5C 95.5,103.833 95.5,104.167 95.5,104.5C 93.2017,105.31 90.8684,106.144 88.5,107C 86.9632,108.11 86.2965,109.61 86.5,111.5C 82.7593,114.249 78.4259,115.749 73.5,116C 70.1667,116.667 66.8333,116.667 63.5,116C 61.741,114.992 60.5743,113.492 60,111.5C 59.3333,104.833 59.3333,98.1667 60,91.5C 62.0347,88.4388 63.2014,85.1055 63.5,81.5C 63.5,80.8333 63.5,80.1667 63.5,79.5C 65.9689,78.3933 66.9689,76.3933 66.5,73.5C 68.0751,71.4747 69.9084,69.4747 72,67.5C 72.7914,66.255 73.2914,64.9217 73.5,63.5C 74.552,63.6495 75.552,63.4828 76.5,63C 80.0566,58.708 83.7232,54.5413 87.5,50.5C 87.5,49.5 87.5,48.5 87.5,47.5C 91.3854,47.8608 94.8854,49.1942 98,51.5C 99.9387,49.8063 101.772,47.973 103.5,46C 106.099,45.231 108.599,45.3977 111,46.5C 120.512,42.7101 130.012,42.7101 139.5,46.5C 140.442,46.3918 141.275,46.0585 142,45.5C 145.326,47.4404 148.659,49.4404 152,51.5C 154.824,50.1819 157.324,48.5152 159.5,46.5 Z"/></g>
<g><path style="opacity:1" fill="#f2c65a" d="M 151.5,45.5 C 137.073,42.0733 122.406,40.74 107.5,41.5C 108.609,40.71 109.942,40.21 111.5,40C 119.5,39.3333 127.5,39.3333 135.5,40C 141.466,40.3158 146.799,42.1491 151.5,45.5 Z"/></g>
<g><path style="opacity:1" fill="#e3aa42" d="M 169.5,36.5 C 169.5,37.1667 169.833,37.5 170.5,37.5C 168.925,40.5821 166.758,43.2488 164,45.5C 162.991,47.0249 162.491,48.6916 162.5,50.5C 161.837,48.9581 161.17,47.2914 160.5,45.5C 159.893,45.6236 159.56,45.9569 159.5,46.5C 158.033,46.8938 156.533,47.2272 155,47.5C 153.301,47.6134 152.134,46.9468 151.5,45.5C 153.527,45.6621 155.527,45.4955 157.5,45C 161.032,41.41 165.032,38.5766 169.5,36.5 Z"/></g>
<g><path style="opacity:1" fill="#cf4609" d="M 182.5,35.5 C 182.989,36.9952 183.655,38.3285 184.5,39.5C 186.242,49.0616 186.908,58.7283 186.5,68.5C 180.135,62.4654 174.469,55.7988 169.5,48.5C 171.143,45.1805 173.143,42.1805 175.5,39.5C 177.698,37.9019 180.031,36.5686 182.5,35.5 Z"/></g>
<g><path style="opacity:1" fill="#f4ad1c" d="M 99.5,44.5 C 102.397,43.871 105.064,42.871 107.5,41.5C 122.406,40.74 137.073,42.0733 151.5,45.5C 152.134,46.9468 153.301,47.6134 155,47.5C 156.533,47.2272 158.033,46.8938 159.5,46.5C 157.324,48.5152 154.824,50.1819 152,51.5C 148.659,49.4404 145.326,47.4404 142,45.5C 141.275,46.0585 140.442,46.3918 139.5,46.5C 130.012,42.7101 120.512,42.7101 111,46.5C 108.599,45.3977 106.099,45.231 103.5,46C 101.772,47.973 99.9387,49.8063 98,51.5C 94.8854,49.1942 91.3854,47.8608 87.5,47.5C 86.8333,46.8333 86.1667,46.1667 85.5,45.5C 84.7084,44.0331 84.7084,42.6998 85.5,41.5C 87.3159,42.8149 88.9825,44.3149 90.5,46C 93.8632,46.9274 96.8632,46.4274 99.5,44.5 Z"/></g>
<g><path style="opacity:1" fill="#c29a51" d="M 107.5,41.5 C 105.064,42.871 102.397,43.871 99.5,44.5C 101.617,42.3455 104.284,41.3455 107.5,41.5 Z"/></g>
<g><path style="opacity:1" fill="#eb640c" d="M 66.5,35.5 C 66.8333,35.5 67.1667,35.5 67.5,35.5C 67.4431,36.609 67.1098,37.609 66.5,38.5C 65.2237,40.5625 64.3903,42.8958 64,45.5C 63.5005,51.4908 63.3338,57.4908 63.5,63.5C 63.634,65.2915 63.3007,66.9582 62.5,68.5C 61.8485,69.0906 61.1818,69.7573 60.5,70.5C 60.1667,68 59.8333,65.5 59.5,63C 60.2088,55.1649 60.8754,47.3316 61.5,39.5C 63.1042,38.713 63.7709,37.3797 63.5,35.5C 64.5,35.5 65.5,35.5 66.5,35.5 Z"/></g>
<g><path style="opacity:1" fill="#d84404" d="M 66.5,38.5 C 68.7834,38.6079 70.7834,39.4412 72.5,41C 73.2118,43.8812 74.8785,46.0478 77.5,47.5C 74.1696,50.4991 71.1696,53.8325 68.5,57.5C 67.675,58.3857 66.675,58.719 65.5,58.5C 65.9227,60.7812 65.256,62.4479 63.5,63.5C 63.3338,57.4908 63.5005,51.4908 64,45.5C 64.3903,42.8958 65.2237,40.5625 66.5,38.5 Z"/></g>
<g><path style="opacity:1" fill="#c84813" d="M 67.5,35.5 C 68.1667,35.8333 68.8333,36.1667 69.5,36.5C 72.5393,39.5398 75.8726,42.2065 79.5,44.5C 79.7031,46.0443 80.3698,47.3777 81.5,48.5C 80.3881,49.2652 79.7214,50.2652 79.5,51.5C 74.8333,54.1667 71.1667,57.8333 68.5,62.5C 66.5,65.1667 64.5,67.8333 62.5,70.5C 62.5,69.8333 62.5,69.1667 62.5,68.5C 63.3007,66.9582 63.634,65.2915 63.5,63.5C 65.256,62.4479 65.9227,60.7812 65.5,58.5C 66.675,58.719 67.675,58.3857 68.5,57.5C 71.1696,53.8325 74.1696,50.4991 77.5,47.5C 74.8785,46.0478 73.2118,43.8812 72.5,41C 70.7834,39.4412 68.7834,38.6079 66.5,38.5C 67.1098,37.609 67.4431,36.609 67.5,35.5 Z"/></g>
<g><path style="opacity:1" fill="#6e210a" d="M 79.5,51.5 C 76.1667,55.5 72.5,59.1667 68.5,62.5C 71.1667,57.8333 74.8333,54.1667 79.5,51.5 Z"/></g>
<g><path style="opacity:1" fill="#eb6409" d="M 186.5,68.5 C 186.908,58.7283 186.242,49.0616 184.5,39.5C 185.566,38.3079 186.399,38.6412 187,40.5C 189.214,48.7011 189.88,57.0345 189,65.5C 188.764,67.1193 187.931,68.1193 186.5,68.5 Z"/></g>
<g><path style="opacity:1" fill="#db671e" d="M 182.5,35.5 C 184.144,35.2865 185.644,35.6198 187,36.5C 187.9,39.7177 189.067,42.7177 190.5,45.5C 191.118,50.7855 191.451,56.1188 191.5,61.5C 191.493,66.5508 190.827,71.2175 189.5,75.5C 188.043,73.3718 187.043,71.0384 186.5,68.5C 187.931,68.1193 188.764,67.1193 189,65.5C 189.88,57.0345 189.214,48.7011 187,40.5C 186.399,38.6412 185.566,38.3079 184.5,39.5C 183.655,38.3285 182.989,36.9952 182.5,35.5 Z"/></g>
<g><path style="opacity:1" fill="#da9229" d="M 87.5,50.5 C 83.7232,54.5413 80.0566,58.708 76.5,63C 75.552,63.4828 74.552,63.6495 73.5,63.5C 73.5106,61.9826 74.1772,60.8159 75.5,60C 79.3939,56.5956 83.3939,53.4289 87.5,50.5 Z"/></g>
<g><path style="opacity:1" fill="#e89c21" d="M 164.5,52.5 C 170.849,57.1849 176.516,62.5182 181.5,68.5C 182.167,70.5 182.833,72.5 183.5,74.5C 180.716,72.5455 178.383,70.0455 176.5,67C 173.703,65.7674 171.037,64.2674 168.5,62.5C 167.289,61.2798 167.289,60.1131 168.5,59C 166.266,57.3621 164.933,55.1955 164.5,52.5 Z"/></g>
<g><path style="opacity:1" fill="#fbebb2" d="M 102.5,63.5 C 103.167,64.8333 103.833,66.1667 104.5,67.5C 104.78,70.2724 104.113,72.7724 102.5,75C 99.3035,75.8045 96.3035,75.6378 93.5,74.5C 96.1873,74.6641 98.854,74.4974 101.5,74C 103.602,64.6145 100.268,62.1145 91.5,66.5C 91.9528,65.5416 92.6195,64.7083 93.5,64C 96.4816,63.502 99.4816,63.3354 102.5,63.5 Z"/></g>
<g><path style="opacity:1" fill="#f9ecae" d="M 156.5,63.5 C 157.5,64.8333 158.5,66.1667 159.5,67.5C 157.33,66.2515 154.996,65.2515 152.5,64.5C 150.403,64.9766 148.403,65.6433 146.5,66.5C 146.414,65.5041 146.748,64.6708 147.5,64C 150.482,63.502 153.482,63.3354 156.5,63.5 Z"/></g>
<g><path style="opacity:1" fill="#c45f23" d="M 61.5,39.5 C 60.8754,47.3316 60.2088,55.1649 59.5,63C 59.8333,65.5 60.1667,68 60.5,70.5C 61.1818,69.7573 61.8485,69.0906 62.5,68.5C 62.5,69.1667 62.5,69.8333 62.5,70.5C 61.6799,72.1401 60.8466,73.8068 60,75.5C 59.5814,74.3279 58.9147,73.3279 58,72.5C 56.5594,61.0739 57.7261,50.0739 61.5,39.5 Z"/></g>
<g><path style="opacity:1" fill="#4a1d09" d="M 170.5,37.5 C 171.167,37.5 171.833,37.5 172.5,37.5C 172.821,39.0481 173.821,39.7148 175.5,39.5C 173.143,42.1805 171.143,45.1805 169.5,48.5C 174.469,55.7988 180.135,62.4654 186.5,68.5C 187.043,71.0384 188.043,73.3718 189.5,75.5C 186.084,73.2516 183.584,70.2516 182,66.5C 181.536,67.0944 181.369,67.7611 181.5,68.5C 176.516,62.5182 170.849,57.1849 164.5,52.5C 164.167,51.5 163.5,50.8333 162.5,50.5C 162.491,48.6916 162.991,47.0249 164,45.5C 166.758,43.2488 168.925,40.5821 170.5,37.5 Z"/></g>
<g><path style="opacity:1" fill="#fafbf2" d="M 93.5,74.5 C 91.7739,72.1799 91.1072,69.5133 91.5,66.5C 100.268,62.1145 103.602,64.6145 101.5,74C 98.854,74.4974 96.1873,74.6641 93.5,74.5 Z"/></g>
<g><path style="opacity:1" fill="#fce09f" d="M 146.5,66.5 C 145.853,74.0035 149.186,76.5035 156.5,74C 157.244,72.9614 158.244,72.4614 159.5,72.5C 157.109,75.917 153.775,77.2503 149.5,76.5C 145.576,73.9975 144.576,70.6642 146.5,66.5 Z"/></g>
<g><path style="opacity:1" fill="#fceeb2" d="M 89.5,66.5 C 90.1667,66.5 90.8333,66.5 91.5,66.5C 91.1072,69.5133 91.7739,72.1799 93.5,74.5C 91.9826,74.4894 90.8159,73.8228 90,72.5C 89.5045,70.5273 89.3379,68.5273 89.5,66.5 Z"/></g>
<g><path style="opacity:1" fill="#f9fcef" d="M 159.5,67.5 C 159.5,69.1667 159.5,70.8333 159.5,72.5C 158.244,72.4614 157.244,72.9614 156.5,74C 149.186,76.5035 145.853,74.0035 146.5,66.5C 148.403,65.6433 150.403,64.9766 152.5,64.5C 154.996,65.2515 157.33,66.2515 159.5,67.5 Z"/></g>
<g><path style="opacity:1" fill="#c17e2e" d="M 73.5,63.5 C 73.2914,64.9217 72.7914,66.255 72,67.5C 69.9084,69.4747 68.0751,71.4747 66.5,73.5C 68.0621,69.6082 70.3954,66.2749 73.5,63.5 Z"/></g>
<g><path style="opacity:1" fill="#e3b03a" d="M 89.5,66.5 C 89.3379,68.5273 89.5045,70.5273 90,72.5C 90.8159,73.8228 91.9826,74.4894 93.5,74.5C 96.3035,75.6378 99.3035,75.8045 102.5,75C 104.113,72.7724 104.78,70.2724 104.5,67.5C 106.303,71.4665 105.303,74.6331 101.5,77C 98.1667,77.6667 94.8333,77.6667 91.5,77C 90.8366,75.4815 89.8366,74.3149 88.5,73.5C 88.1984,70.9407 88.5318,68.6074 89.5,66.5 Z"/></g>
<g><path style="opacity:1" fill="#43230e" d="M 195.5,79.5 C 194.252,80.3339 193.585,81.6672 193.5,83.5C 193.672,85.5477 194.005,87.5477 194.5,89.5C 194.911,93.2215 195.578,96.8881 196.5,100.5C 195.262,104.619 194.429,108.953 194,113.5C 193.617,114.056 193.117,114.389 192.5,114.5C 192.823,107.978 192.49,101.645 191.5,95.5C 190.733,88.1953 188.4,81.5286 184.5,75.5C 184.5,74.8333 184.167,74.5 183.5,74.5C 182.833,72.5 182.167,70.5 181.5,68.5C 181.369,67.7611 181.536,67.0944 182,66.5C 183.584,70.2516 186.084,73.2516 189.5,75.5C 190.827,71.2175 191.493,66.5508 191.5,61.5C 191.451,56.1188 191.118,50.7855 190.5,45.5C 190.186,42.0534 189.352,38.7201 188,35.5C 186.031,32.8761 184.198,32.8761 182.5,35.5C 180.031,36.5686 177.698,37.9019 175.5,39.5C 173.821,39.7148 172.821,39.0481 172.5,37.5C 174.647,35.5305 176.98,33.6971 179.5,32C 177.041,31.7607 174.707,32.2607 172.5,33.5C 171.624,33.6309 170.957,33.2975 170.5,32.5C 171.91,31.4305 172.91,30.0972 173.5,28.5C 180.494,24.8475 186.328,26.1808 191,32.5C 196.498,47.6663 197.998,63.333 195.5,79.5 Z"/></g>
<g><path style="opacity:1" fill="#c08629" d="M 66.5,73.5 C 66.9689,76.3933 65.9689,78.3933 63.5,79.5C 63.7549,77.0326 64.7549,75.0326 66.5,73.5 Z"/></g>
<g><path style="opacity:1" fill="#efa01e" d="M 102.5,63.5 C 104.024,64.1738 105.358,65.1738 106.5,66.5C 107.208,69.3664 107.875,72.1997 108.5,75C 105.719,77.0401 102.719,78.7067 99.5,80C 100.464,84.0659 100.797,88.2325 100.5,92.5C 100.167,92.5 99.8333,92.5 99.5,92.5C 99.0562,84.0232 94.7229,80.1898 86.5,81C 83.7666,81.9042 81.4333,83.4042 79.5,85.5C 79.5,84.1667 79.5,82.8333 79.5,81.5C 82.3871,80.3805 85.3871,79.3805 88.5,78.5C 89.5353,76.8716 89.5353,75.205 88.5,73.5C 89.8366,74.3149 90.8366,75.4815 91.5,77C 94.8333,77.6667 98.1667,77.6667 101.5,77C 105.303,74.6331 106.303,71.4665 104.5,67.5C 103.833,66.1667 103.167,64.8333 102.5,63.5 Z"/></g>
<g><path style="opacity:1" fill="#d29127" d="M 161.5,79.5 C 163.833,79.5 166.167,79.5 168.5,79.5C 169.044,81.5795 169.878,83.5795 171,85.5C 171.801,88.367 171.634,91.0336 170.5,93.5C 170.889,90.4467 170.223,87.78 168.5,85.5C 167.657,83.8267 166.324,82.66 164.5,82C 161.854,81.5026 159.187,81.3359 156.5,81.5C 157.635,79.7868 159.302,79.1201 161.5,79.5 Z"/></g>
<g><path style="opacity:1" fill="#d7952f" d="M 184.5,75.5 C 188.4,81.5286 190.733,88.1953 191.5,95.5C 190.503,95.5299 189.836,95.0299 189.5,94C 187.816,87.8018 186.15,81.6351 184.5,75.5 Z"/></g>
<g><path style="opacity:1" fill="#ebda6e" d="M 53.5,47.5 C 52.8391,59.6571 53.8391,71.6571 56.5,83.5C 55.8278,86.5123 55.1611,89.5123 54.5,92.5C 52.5036,99.443 52.1702,106.443 53.5,113.5C 53.6159,116.86 53.9492,120.193 54.5,123.5C 51.233,118.596 49.8996,113.096 50.5,107C 51.2796,99.6522 52.2796,92.3188 53.5,85C 52.6528,76.6806 51.9861,68.3473 51.5,60C 51.3259,55.5578 51.9926,51.3911 53.5,47.5 Z"/></g>
<g><path style="opacity:1" fill="#8c5b12" d="M 63.5,79.5 C 63.5,80.1667 63.5,80.8333 63.5,81.5C 62.8571,83.0764 61.8571,84.4097 60.5,85.5C 60.7549,83.0326 61.7549,81.0326 63.5,79.5 Z"/></g>
<g><path style="opacity:1" fill="#502309" d="M 99.5,92.5 C 98.8333,94.5 97.5,95.8333 95.5,96.5C 98.7012,89.8981 97.0345,84.8981 90.5,81.5C 86.3899,83.6281 82.7233,85.6281 79.5,87.5C 79.5,86.8333 79.5,86.1667 79.5,85.5C 81.4333,83.4042 83.7666,81.9042 86.5,81C 94.7229,80.1898 99.0562,84.0232 99.5,92.5 Z"/></g>
<g><path style="opacity:1" fill="#552306" d="M 156.5,81.5 C 159.187,81.3359 161.854,81.5026 164.5,82C 166.324,82.66 167.657,83.8267 168.5,85.5C 165.841,84.5145 163.174,83.5145 160.5,82.5C 154.274,83.4024 151.274,87.0691 151.5,93.5C 149.277,87.9408 150.943,83.9408 156.5,81.5 Z"/></g>
<g><path style="opacity:1" fill="#381e19" d="M 95.5,96.5 C 91.4862,96.6655 87.4862,96.4988 83.5,96C 82.6719,94.0077 81.3386,92.5077 79.5,91.5C 79.5,90.1667 79.5,88.8333 79.5,87.5C 82.7233,85.6281 86.3899,83.6281 90.5,81.5C 97.0345,84.8981 98.7012,89.8981 95.5,96.5 Z"/></g>
<g><path style="opacity:1" fill="#e9e3e3" d="M 87.5,84.5 C 89.5,84.5 91.5,84.5 93.5,84.5C 94.5081,89.6673 92.6748,91.334 88,89.5C 87.5065,87.8659 87.3398,86.1992 87.5,84.5 Z"/></g>
<g><path style="opacity:1" fill="#34201c" d="M 168.5,85.5 C 170.415,93.5798 167.415,97.0798 159.5,96C 156.74,95.3259 154.073,94.4925 151.5,93.5C 151.274,87.0691 154.274,83.4024 160.5,82.5C 163.174,83.5145 165.841,84.5145 168.5,85.5 Z"/></g>
<g><path style="opacity:1" fill="#e6e7dc" d="M 156.5,84.5 C 161.667,83.4919 163.334,85.3252 161.5,90C 159.866,90.4935 158.199,90.6602 156.5,90.5C 156.5,88.5 156.5,86.5 156.5,84.5 Z"/></g>
<g><path style="opacity:1" fill="#502307" d="M 79.5,91.5 C 81.3386,92.5077 82.6719,94.0077 83.5,96C 87.4862,96.4988 91.4862,96.6655 95.5,96.5C 92.1244,98.0823 88.4578,98.7489 84.5,98.5C 81.6951,97.0214 80.0284,94.6881 79.5,91.5 Z"/></g>
<g><path style="opacity:1" fill="#522609" d="M 168.5,85.5 C 170.223,87.78 170.889,90.4467 170.5,93.5C 170.5,94.1667 170.5,94.8333 170.5,95.5C 169.005,95.4148 168.005,96.0815 167.5,97.5C 163.541,98.6599 159.541,98.8265 155.5,98C 153.808,96.6927 152.475,95.1927 151.5,93.5C 154.073,94.4925 156.74,95.3259 159.5,96C 167.415,97.0798 170.415,93.5798 168.5,85.5 Z"/></g>
<g><path style="opacity:1" fill="#f4f3ed" d="M 143.5,95.5 C 143.201,97.604 143.534,99.604 144.5,101.5C 146.933,102.023 148.933,103.19 150.5,105C 149.644,106.595 148.311,107.428 146.5,107.5C 145.022,107.238 143.689,107.571 142.5,108.5C 140.812,110.854 138.812,112.854 136.5,114.5C 134.571,114.769 132.905,114.269 131.5,113C 133.481,112.395 133.815,111.395 132.5,110C 134.141,108.871 135.141,107.371 135.5,105.5C 138.253,99.1367 136.253,95.3034 129.5,94C 123.684,92.591 118.517,93.7576 114,97.5C 113.245,100.303 113.578,102.97 115,105.5C 116.833,108 119,110.167 121.5,112C 115.041,117.502 110.375,116.169 107.5,108C 106.552,107.517 105.552,107.351 104.5,107.5C 104.918,106.778 105.584,106.278 106.5,106C 104.579,105.64 102.912,104.806 101.5,103.5C 99.5617,108.569 95.8951,111.236 90.5,111.5C 91.3287,114.469 91.4954,117.469 91,120.5C 88.8149,122.54 86.3149,123.874 83.5,124.5C 83.3159,121.679 84.6493,120.012 87.5,119.5C 88.3857,118.675 88.719,117.675 88.5,116.5C 87.1667,116.5 85.8333,116.5 84.5,116.5C 84.8333,115.833 85.1667,115.167 85.5,114.5C 88.5,110.833 91.8333,107.5 95.5,104.5C 95.5,104.167 95.5,103.833 95.5,103.5C 100.857,99.3375 106.19,95.3375 111.5,91.5C 118.823,90.7149 126.156,90.5482 133.5,91C 135.032,91.6995 136.032,92.8662 136.5,94.5C 138.743,95.4742 141.076,95.8076 143.5,95.5 Z"/></g>
<g><path style="opacity:1" fill="#e8bb5b" d="M 145.5,95.5 C 150.452,99.7852 155.119,104.452 159.5,109.5C 158.833,109.5 158.167,109.5 157.5,109.5C 153.103,105.108 149.103,100.442 145.5,95.5 Z"/></g>
<g><path style="opacity:1" fill="#4c390a" d="M 54.5,92.5 C 54.0009,99.4903 53.6675,106.49 53.5,113.5C 52.1702,106.443 52.5036,99.443 54.5,92.5 Z"/></g>
<g><path style="opacity:1" fill="#efa524" d="M 156.5,63.5 C 158.5,63.5 160.5,63.5 162.5,63.5C 162.528,68.8617 162.194,74.1951 161.5,79.5C 159.302,79.1201 157.635,79.7868 156.5,81.5C 150.943,83.9408 149.277,87.9408 151.5,93.5C 152.475,95.1927 153.808,96.6927 155.5,98C 159.541,98.8265 163.541,98.6599 167.5,97.5C 168.005,96.0815 169.005,95.4148 170.5,95.5C 170.489,97.0174 169.823,98.1841 168.5,99C 164.713,99.1596 161.046,99.8263 157.5,101C 158.928,102.916 159.928,105.083 160.5,107.5C 162.976,108.809 164.976,110.642 166.5,113C 169.275,113.778 171.775,113.278 174,111.5C 174.5,111.833 175,112.167 175.5,112.5C 174.147,113.524 173.48,114.857 173.5,116.5C 172.833,116.5 172.167,116.5 171.5,116.5C 170.167,116.5 168.833,116.5 167.5,116.5C 166.319,114.933 164.653,114.099 162.5,114C 161.252,112.6 160.252,111.1 159.5,109.5C 155.119,104.452 150.452,99.7852 145.5,95.5C 144.833,95.5 144.167,95.5 143.5,95.5C 136.135,88.9915 127.468,86.8248 117.5,89C 115.148,89.2401 113.148,90.0735 111.5,91.5C 106.19,95.3375 100.857,99.3375 95.5,103.5C 95.9038,102.244 96.5705,101.077 97.5,100C 97.1667,99.5 96.8333,99 96.5,98.5C 93.8743,99.2923 91.2076,99.9589 88.5,100.5C 86.8295,100.332 85.4961,99.6651 84.5,98.5C 88.4578,98.7489 92.1244,98.0823 95.5,96.5C 97.5,95.8333 98.8333,94.5 99.5,92.5C 99.8333,92.5 100.167,92.5 100.5,92.5C 100.735,93.0967 101.235,93.4301 102,93.5C 112.992,86.7717 124.825,84.9384 137.5,88C 138.904,89.3368 140.404,90.5035 142,91.5C 142.772,91.3552 143.439,91.0219 144,90.5C 144.667,91.8333 145.333,93.1667 146,94.5C 146.186,92.0995 146.686,89.7662 147.5,87.5C 149.798,85.4806 151.464,82.9806 152.5,80C 150.944,79.2798 149.944,78.1132 149.5,76.5C 153.775,77.2503 157.109,75.917 159.5,72.5C 159.5,70.8333 159.5,69.1667 159.5,67.5C 158.5,66.1667 157.5,64.8333 156.5,63.5 Z"/></g>
<g><path style="opacity:1" fill="#fcf4ca" d="M 143.5,95.5 C 141.076,95.8076 138.743,95.4742 136.5,94.5C 136.032,92.8662 135.032,91.6995 133.5,91C 126.156,90.5482 118.823,90.7149 111.5,91.5C 113.148,90.0735 115.148,89.2401 117.5,89C 127.468,86.8248 136.135,88.9915 143.5,95.5 Z"/></g>
<g><path style="opacity:1" fill="#776227" d="M 194.5,89.5 C 195.887,91.8766 196.721,94.5432 197,97.5C 197.818,103.349 197.652,109.015 196.5,114.5C 196.5,109.833 196.5,105.167 196.5,100.5C 195.578,96.8881 194.911,93.2215 194.5,89.5 Z"/></g>
<g><path style="opacity:1" fill="#fcfcfb" d="M 104.5,107.5 C 104.007,112.166 106.007,115.833 110.5,118.5C 111.739,125.104 115.073,130.271 120.5,134C 130.737,134.782 136.57,129.948 138,119.5C 141.359,117.305 144.193,114.638 146.5,111.5C 148.81,110.543 151.144,109.543 153.5,108.5C 154.849,108.846 156.183,109.179 157.5,109.5C 158.167,109.5 158.833,109.5 159.5,109.5C 160.252,111.1 161.252,112.6 162.5,114C 164.653,114.099 166.319,114.933 167.5,116.5C 168.833,117.5 170.167,118.5 171.5,119.5C 176.316,120.65 181.316,120.816 186.5,120C 188.078,118.906 189.745,118.072 191.5,117.5C 191.103,120.446 190.103,123.113 188.5,125.5C 183.576,128.311 178.91,131.645 174.5,135.5C 146.081,147.052 117.081,148.552 87.5,140C 77.9422,136.941 70.1089,132.108 64,125.5C 63.5172,124.552 63.3505,123.552 63.5,122.5C 62.0413,122.567 60.7079,122.234 59.5,121.5C 58.8505,119.565 58.5172,117.565 58.5,115.5C 59.5,115.833 60.1667,116.5 60.5,117.5C 63.0363,119.996 66.2029,120.996 70,120.5C 73.4774,120.672 76.644,120.006 79.5,118.5C 81.2838,118.107 82.9505,117.441 84.5,116.5C 85.8333,116.5 87.1667,116.5 88.5,116.5C 88.719,117.675 88.3857,118.675 87.5,119.5C 84.6493,120.012 83.3159,121.679 83.5,124.5C 86.3149,123.874 88.8149,122.54 91,120.5C 91.4954,117.469 91.3287,114.469 90.5,111.5C 95.8951,111.236 99.5617,108.569 101.5,103.5C 102.912,104.806 104.579,105.64 106.5,106C 105.584,106.278 104.918,106.778 104.5,107.5 Z"/></g>
<g><path style="opacity:1" fill="#35211c" d="M 135.5,105.5 C 133.129,107.868 130.462,109.868 127.5,111.5C 128.981,112.48 130.315,113.647 131.5,115C 133.387,115.78 135.054,115.613 136.5,114.5C 138.812,112.854 140.812,110.854 142.5,108.5C 143.689,107.571 145.022,107.238 146.5,107.5C 146.5,108.833 146.5,110.167 146.5,111.5C 144.193,114.638 141.359,117.305 138,119.5C 136.57,129.948 130.737,134.782 120.5,134C 115.073,130.271 111.739,125.104 110.5,118.5C 106.007,115.833 104.007,112.166 104.5,107.5C 105.552,107.351 106.552,107.517 107.5,108C 110.375,116.169 115.041,117.502 121.5,112C 119,110.167 116.833,108 115,105.5C 113.578,102.97 113.245,100.303 114,97.5C 118.517,93.7576 123.684,92.591 129.5,94C 136.253,95.3034 138.253,99.1367 135.5,105.5 Z"/></g>
<g><path style="opacity:1" fill="#5a3b36" d="M 119.5,96.5 C 123.182,96.3347 126.848,96.5014 130.5,97C 131.833,98.3333 131.833,99.6667 130.5,101C 126.88,102.579 123.214,102.745 119.5,101.5C 118.185,99.8014 118.185,98.1347 119.5,96.5 Z"/></g>
<g><path style="opacity:1" fill="#faf9e1" d="M 143.5,95.5 C 144.167,95.5 144.833,95.5 145.5,95.5C 149.103,100.442 153.103,105.108 157.5,109.5C 156.183,109.179 154.849,108.846 153.5,108.5C 151.144,109.543 148.81,110.543 146.5,111.5C 146.5,110.167 146.5,108.833 146.5,107.5C 148.311,107.428 149.644,106.595 150.5,105C 148.933,103.19 146.933,102.023 144.5,101.5C 143.534,99.604 143.201,97.604 143.5,95.5 Z"/></g>
<g><path style="opacity:1" fill="#e7a82d" d="M 63.5,81.5 C 63.2014,85.1055 62.0347,88.4388 60,91.5C 59.3333,98.1667 59.3333,104.833 60,111.5C 60.5743,113.492 61.741,114.992 63.5,116C 66.8333,116.667 70.1667,116.667 73.5,116C 78.4259,115.749 82.7593,114.249 86.5,111.5C 86.2965,109.61 86.9632,108.11 88.5,107C 90.8684,106.144 93.2017,105.31 95.5,104.5C 91.8333,107.5 88.5,110.833 85.5,114.5C 83.0337,115.298 81.0337,116.631 79.5,118.5C 73.1222,118.705 66.7889,118.372 60.5,117.5C 60.1667,116.5 59.5,115.833 58.5,115.5C 57.8333,115.5 57.5,115.167 57.5,114.5C 56.86,104.603 57.86,94.9359 60.5,85.5C 61.8571,84.4097 62.8571,83.0764 63.5,81.5 Z"/></g>
<g><path style="opacity:1" fill="#bfb6b5" d="M 135.5,105.5 C 135.141,107.371 134.141,108.871 132.5,110C 133.815,111.395 133.481,112.395 131.5,113C 132.905,114.269 134.571,114.769 136.5,114.5C 135.054,115.613 133.387,115.78 131.5,115C 130.315,113.647 128.981,112.48 127.5,111.5C 130.462,109.868 133.129,107.868 135.5,105.5 Z"/></g>
<g><path style="opacity:1" fill="#f9edaa" d="M 85.5,114.5 C 85.1667,115.167 84.8333,115.833 84.5,116.5C 82.9505,117.441 81.2838,118.107 79.5,118.5C 81.0337,116.631 83.0337,115.298 85.5,114.5 Z"/></g>
<g><path style="opacity:1" fill="#e1a63b" d="M 191.5,95.5 C 192.49,101.645 192.823,107.978 192.5,114.5C 192.672,115.492 192.338,116.158 191.5,116.5C 191.565,116.062 191.399,115.728 191,115.5C 188.372,116.277 185.872,117.277 183.5,118.5C 180.15,118.665 176.817,118.498 173.5,118C 172.584,117.722 171.918,117.222 171.5,116.5C 172.167,116.5 172.833,116.5 173.5,116.5C 177.112,117.511 180.779,117.678 184.5,117C 186.441,115.097 188.774,114.264 191.5,114.5C 191.5,108.167 191.5,101.833 191.5,95.5 Z"/></g>
<g><path style="opacity:1" fill="#edc875" d="M 167.5,116.5 C 168.833,116.5 170.167,116.5 171.5,116.5C 171.918,117.222 172.584,117.722 173.5,118C 176.817,118.498 180.15,118.665 183.5,118.5C 179.702,119.483 175.702,119.817 171.5,119.5C 170.167,118.5 168.833,117.5 167.5,116.5 Z"/></g>
<g><path style="opacity:1" fill="#fcefc0" d="M 60.5,117.5 C 66.7889,118.372 73.1222,118.705 79.5,118.5C 76.644,120.006 73.4774,120.672 70,120.5C 66.2029,120.996 63.0363,119.996 60.5,117.5 Z"/></g>
<g><path style="opacity:1" fill="#fef6c7" d="M 191.5,116.5 C 191.5,116.833 191.5,117.167 191.5,117.5C 189.745,118.072 188.078,118.906 186.5,120C 181.316,120.816 176.316,120.65 171.5,119.5C 175.702,119.817 179.702,119.483 183.5,118.5C 185.872,117.277 188.372,116.277 191,115.5C 191.399,115.728 191.565,116.062 191.5,116.5 Z"/></g>
<g><path style="opacity:1" fill="#745d26" d="M 195.5,121.5 C 195.245,123.967 194.245,125.967 192.5,127.5C 192.755,125.033 193.755,123.033 195.5,121.5 Z"/></g>
<g><path style="opacity:1" fill="#dc8c85" d="M 119.5,123.5 C 123.722,123.078 127.722,123.745 131.5,125.5C 127.064,132.137 122.731,132.137 118.5,125.5C 118.863,124.817 119.196,124.15 119.5,123.5 Z"/></g>
<g><path style="opacity:1" fill="#e8d573" d="M 195.5,79.5 C 197.199,88.2072 198.199,97.0405 198.5,106C 198.421,114.3 197.421,122.467 195.5,130.5C 192.533,131.499 190.366,133.499 189,136.5C 188.329,137.252 187.496,137.586 186.5,137.5C 188.898,134.429 190.898,131.095 192.5,127.5C 194.245,125.967 195.245,123.967 195.5,121.5C 195.674,119.139 196.007,116.806 196.5,114.5C 197.652,109.015 197.818,103.349 197,97.5C 196.721,94.5432 195.887,91.8766 194.5,89.5C 194.005,87.5477 193.672,85.5477 193.5,83.5C 193.585,81.6672 194.252,80.3339 195.5,79.5 Z"/></g>
<g><path style="opacity:1" fill="#e3d26e" d="M 54.5,123.5 C 54.8333,123.5 55.1667,123.5 55.5,123.5C 57.9121,128.659 60.5788,133.659 63.5,138.5C 61.9826,138.489 60.8159,137.823 60,136.5C 59.1628,134.156 57.8294,132.156 56,130.5C 55.023,128.26 54.523,125.927 54.5,123.5 Z"/></g>
<g><path style="opacity:1" fill="#382619" d="M 57.5,114.5 C 57.5,115.167 57.8333,115.5 58.5,115.5C 58.5172,117.565 58.8505,119.565 59.5,121.5C 62.993,131.662 69.6596,138.996 79.5,143.5C 79.7678,145.099 79.4345,146.432 78.5,147.5C 78.1667,147.5 77.8333,147.5 77.5,147.5C 75.2067,146.172 72.8733,144.839 70.5,143.5C 68.4268,141.42 66.0934,139.754 63.5,138.5C 60.5788,133.659 57.9121,128.659 55.5,123.5C 55.6604,120.116 55.327,116.783 54.5,113.5C 54.6667,112.833 54.8333,112.167 55,111.5C 55.2355,113.119 56.0689,114.119 57.5,114.5 Z"/></g>
<g><path style="opacity:1" fill="#f9e462" d="M 175.5,154.5 C 172.668,152.593 171.834,149.927 173,146.5C 174.652,145.601 176.152,144.601 177.5,143.5C 180.987,142.255 183.987,140.255 186.5,137.5C 187.496,137.586 188.329,137.252 189,136.5C 190.366,133.499 192.533,131.499 195.5,130.5C 194.308,132.878 192.641,134.878 190.5,136.5C 192.876,138.954 195.543,139.121 198.5,137C 200.188,134.274 201.688,131.441 203,128.5C 205.57,130.599 205.904,132.932 204,135.5C 199.127,141.474 193.96,142.474 188.5,138.5C 187.5,139 186.5,139.5 185.5,140C 182.167,143.035 179,146.202 176,149.5C 175.506,151.134 175.34,152.801 175.5,154.5 Z"/></g>
<g><path style="opacity:1" fill="#dddbda" d="M 59.5,121.5 C 60.7079,122.234 62.0413,122.567 63.5,122.5C 63.3505,123.552 63.5172,124.552 64,125.5C 70.1089,132.108 77.9422,136.941 87.5,140C 117.081,148.552 146.081,147.052 174.5,135.5C 178.91,131.645 183.576,128.311 188.5,125.5C 185.408,133.094 180.074,138.594 172.5,142C 153.17,150.783 132.836,154.116 111.5,152C 100.386,150.746 89.7191,147.912 79.5,143.5C 69.6596,138.996 62.993,131.662 59.5,121.5 Z"/></g>
<g><path style="opacity:1" fill="#ead876" d="M 70.5,143.5 C 72.8733,144.839 75.2067,146.172 77.5,147.5C 77.9819,150.831 76.9819,153.497 74.5,155.5C 74.4332,153.599 74.7665,151.766 75.5,150C 73.328,148.24 71.6613,146.074 70.5,143.5 Z"/></g>
<g><path style="opacity:1" fill="#94141d" d="M 86.5,150.5 C 86.8333,150.5 87.1667,150.5 87.5,150.5C 89.0725,151.687 90.7392,152.687 92.5,153.5C 90.7376,153.643 89.0709,153.309 87.5,152.5C 86.707,153.355 87.0403,154.189 88.5,155C 91.6572,156.578 94.9906,157.578 98.5,158C 99.056,158.383 99.3893,158.883 99.5,159.5C 98.1667,159.5 96.8333,159.5 95.5,159.5C 91.9736,157.928 88.307,156.428 84.5,155C 82.9632,153.89 82.2965,152.39 82.5,150.5C 83.8333,150.5 85.1667,150.5 86.5,150.5 Z"/></g>
<g><path style="opacity:1" fill="#4c150f" d="M 87.5,150.5 C 92.8605,151.099 98.1939,151.933 103.5,153C 104.056,153.383 104.389,153.883 104.5,154.5C 103.167,154.5 101.833,154.5 100.5,154.5C 97.7938,154.425 95.1272,154.092 92.5,153.5C 90.7392,152.687 89.0725,151.687 87.5,150.5 Z"/></g>
<g><path style="opacity:1" fill="#4c1110" d="M 104.5,154.5 C 109.233,154.223 113.9,154.557 118.5,155.5C 121.024,162.977 118.691,165.31 111.5,162.5C 113.5,162.5 115.5,162.5 117.5,162.5C 117.784,160.585 117.451,158.919 116.5,157.5C 115.833,157.5 115.5,157.167 115.5,156.5C 111.833,155.833 108.167,155.167 104.5,154.5 Z"/></g>
<g><path style="opacity:1" fill="#4e1c0f" d="M 86.5,150.5 C 85.1667,150.5 83.8333,150.5 82.5,150.5C 82.2965,152.39 82.9632,153.89 84.5,155C 88.307,156.428 91.9736,157.928 95.5,159.5C 92.6481,158.742 89.9815,158.742 87.5,159.5C 86.8333,159.5 86.1667,159.5 85.5,159.5C 84.8333,159.5 84.1667,159.5 83.5,159.5C 81.3379,155.71 79.0046,155.71 76.5,159.5C 76.5,158.167 76.5,156.833 76.5,155.5C 78.7812,155.923 80.4479,155.256 81.5,153.5C 81.5,152.167 81.5,150.833 81.5,149.5C 83.4147,149.216 85.0813,149.549 86.5,150.5 Z"/></g>
<g><path style="opacity:1" fill="#b3101d" d="M 92.5,153.5 C 95.1272,154.092 97.7938,154.425 100.5,154.5C 101.263,155.268 102.263,155.768 103.5,156C 107.486,156.499 111.486,156.666 115.5,156.5C 115.5,157.167 115.833,157.5 116.5,157.5C 116.5,158.833 116.5,160.167 116.5,161.5C 111.673,161.779 107.007,161.113 102.5,159.5C 101.5,159.5 100.5,159.5 99.5,159.5C 99.3893,158.883 99.056,158.383 98.5,158C 94.9906,157.578 91.6572,156.578 88.5,155C 87.0403,154.189 86.707,153.355 87.5,152.5C 89.0709,153.309 90.7376,153.643 92.5,153.5 Z"/></g>
<g><path style="opacity:1" fill="#740d12" d="M 100.5,154.5 C 101.833,154.5 103.167,154.5 104.5,154.5C 108.167,155.167 111.833,155.833 115.5,156.5C 111.486,156.666 107.486,156.499 103.5,156C 102.263,155.768 101.263,155.268 100.5,154.5 Z"/></g>
<g><path style="opacity:1" fill="#4c1612" d="M 171.5,155.5 C 172.434,156.568 172.768,157.901 172.5,159.5C 171.833,158.833 171.167,158.167 170.5,157.5C 167.92,155.984 165.92,156.651 164.5,159.5C 163.209,159.263 162.209,159.596 161.5,160.5C 161.167,160.5 160.833,160.5 160.5,160.5C 160.189,159.522 159.522,158.855 158.5,158.5C 155.209,160.721 151.543,161.887 147.5,162C 143.137,162.29 138.804,162.79 134.5,163.5C 133.287,163.253 132.62,162.586 132.5,161.5C 130.234,159.807 129.9,157.64 131.5,155C 137.485,154.201 143.485,153.535 149.5,153C 154.706,151.444 159.873,149.944 165,148.5C 166.107,148.585 167.107,148.919 168,149.5C 168.743,151.441 168.576,153.274 167.5,155C 168.793,155.49 170.127,155.657 171.5,155.5 Z"/></g>
<g><path style="opacity:1" fill="#8c4c1a" d="M 170.5,157.5 C 169.209,157.263 168.209,157.596 167.5,158.5C 166.833,158.5 166.5,158.833 166.5,159.5C 165.833,159.5 165.167,159.5 164.5,159.5C 165.92,156.651 167.92,155.984 170.5,157.5 Z"/></g>
<g><path style="opacity:1" fill="#a2111e" d="M 149.5,159.5 C 149.953,158.542 150.619,157.708 151.5,157C 145.626,156.443 139.959,157.11 134.5,159C 137.482,159.498 140.482,159.665 143.5,159.5C 140.316,161.414 136.649,162.08 132.5,161.5C 132.5,159.5 132.5,157.5 132.5,155.5C 139.524,155.392 146.524,154.892 153.5,154C 158.058,152.345 162.724,151.179 167.5,150.5C 167.67,151.822 167.337,152.989 166.5,154C 161.106,156.649 155.439,158.482 149.5,159.5 Z"/></g>
<g><path style="opacity:1" fill="#c20a16" d="M 149.5,159.5 C 147.5,159.5 145.5,159.5 143.5,159.5C 140.482,159.665 137.482,159.498 134.5,159C 139.959,157.11 145.626,156.443 151.5,157C 150.619,157.708 149.953,158.542 149.5,159.5 Z"/></g>
<g><path style="opacity:1" fill="#6e0e11" d="M 116.5,157.5 C 117.451,158.919 117.784,160.585 117.5,162.5C 115.5,162.5 113.5,162.5 111.5,162.5C 107.919,162.862 104.919,161.862 102.5,159.5C 107.007,161.113 111.673,161.779 116.5,161.5C 116.5,160.167 116.5,158.833 116.5,157.5 Z"/></g>
<g><path style="opacity:1" fill="#35211b" d="M 196.5,100.5 C 196.5,105.167 196.5,109.833 196.5,114.5C 196.007,116.806 195.674,119.139 195.5,121.5C 193.755,123.033 192.755,125.033 192.5,127.5C 190.898,131.095 188.898,134.429 186.5,137.5C 183.987,140.255 180.987,142.255 177.5,143.5C 175.712,143.215 174.045,143.548 172.5,144.5C 170.963,148.142 170.63,151.808 171.5,155.5C 170.127,155.657 168.793,155.49 167.5,155C 168.576,153.274 168.743,151.441 168,149.5C 167.107,148.919 166.107,148.585 165,148.5C 159.873,149.944 154.706,151.444 149.5,153C 143.485,153.535 137.485,154.201 131.5,155C 129.9,157.64 130.234,159.807 132.5,161.5C 132.62,162.586 133.287,163.253 134.5,163.5C 138.804,162.79 143.137,162.29 147.5,162C 151.543,161.887 155.209,160.721 158.5,158.5C 159.522,158.855 160.189,159.522 160.5,160.5C 156.167,161.833 151.833,163.167 147.5,164.5C 143.452,164.84 139.452,165.506 135.5,166.5C 137.754,180.21 132.088,185.544 118.5,182.5C 113.87,178.025 112.537,172.692 114.5,166.5C 110.162,165.713 105.828,165.046 101.5,164.5C 97.0938,163.467 92.7605,162.134 88.5,160.5C 88.1667,160.5 87.8333,160.5 87.5,160.5C 87.5,160.167 87.5,159.833 87.5,159.5C 89.9815,158.742 92.6481,158.742 95.5,159.5C 96.8333,159.5 98.1667,159.5 99.5,159.5C 100.5,159.5 101.5,159.5 102.5,159.5C 104.919,161.862 107.919,162.862 111.5,162.5C 118.691,165.31 121.024,162.977 118.5,155.5C 113.9,154.557 109.233,154.223 104.5,154.5C 104.389,153.883 104.056,153.383 103.5,153C 98.1939,151.933 92.8605,151.099 87.5,150.5C 87.1667,150.5 86.8333,150.5 86.5,150.5C 85.0813,149.549 83.4147,149.216 81.5,149.5C 81.5,150.833 81.5,152.167 81.5,153.5C 79.7549,151.967 78.7549,149.967 78.5,147.5C 79.4345,146.432 79.7678,145.099 79.5,143.5C 89.7191,147.912 100.386,150.746 111.5,152C 132.836,154.116 153.17,150.783 172.5,142C 180.074,138.594 185.408,133.094 188.5,125.5C 190.103,123.113 191.103,120.446 191.5,117.5C 191.5,117.167 191.5,116.833 191.5,116.5C 192.338,116.158 192.672,115.492 192.5,114.5C 193.117,114.389 193.617,114.056 194,113.5C 194.429,108.953 195.262,104.619 196.5,100.5 Z"/></g>
<g><path style="opacity:1" fill="#645951" d="M 121.5,156.5 C 123.833,156.5 126.167,156.5 128.5,156.5C 128.5,158.167 128.5,159.833 128.5,161.5C 126.167,161.5 123.833,161.5 121.5,161.5C 121.5,159.833 121.5,158.167 121.5,156.5 Z"/></g>
<g><path style="opacity:1" fill="#d0d1cb" d="M 122.5,157.5 C 124.167,157.5 125.833,157.5 127.5,157.5C 127.5,158.5 127.5,159.5 127.5,160.5C 125.833,160.5 124.167,160.5 122.5,160.5C 122.5,159.5 122.5,158.5 122.5,157.5 Z"/></g>
<g><path style="opacity:1" fill="#f9faf6" d="M 160.5,160.5 C 160.833,160.5 161.167,160.5 161.5,160.5C 160.366,163.37 159.7,166.37 159.5,169.5C 157.61,169.297 156.11,169.963 155,171.5C 154.495,173.518 153.995,175.518 153.5,177.5C 150.437,179.051 147.771,181.218 145.5,184C 143.5,184.833 141.5,185.667 139.5,186.5C 138.972,188.336 138.306,190.003 137.5,191.5C 137.768,189.901 137.434,188.568 136.5,187.5C 136.337,185.143 136.503,182.81 137,180.5C 140.333,175.012 143.833,169.678 147.5,164.5C 151.833,163.167 156.167,161.833 160.5,160.5 Z"/></g>
<g><path style="opacity:1" fill="#dc7825" d="M 60.5,166.5 C 62.1911,167.864 63.8577,169.197 65.5,170.5C 67.0301,172.346 69.0301,173.346 71.5,173.5C 71.6308,176.367 70.2974,178.033 67.5,178.5C 67.7852,176.712 67.4519,175.045 66.5,173.5C 62.3824,172.815 60.3824,170.482 60.5,166.5 Z"/></g>
<g><path style="opacity:1" fill="#a55c21" d="M 83.5,159.5 C 82.4168,159.461 81.4168,159.127 80.5,158.5C 79.7838,160.482 78.6171,162.149 77,163.5C 76.6336,169.175 76.8003,174.841 77.5,180.5C 75.2894,173.717 74.9561,166.717 76.5,159.5C 79.0046,155.71 81.3379,155.71 83.5,159.5 Z"/></g>
<g><path style="opacity:1" fill="#e9ad38" d="M 85.5,159.5 C 86.1667,159.5 86.8333,159.5 87.5,159.5C 87.5,159.833 87.5,160.167 87.5,160.5C 87.2857,167.073 89.9524,172.073 95.5,175.5C 96.7023,178.056 98.369,180.389 100.5,182.5C 102.5,184.833 104.5,187.167 106.5,189.5C 101.278,186.458 96.4448,182.791 92,178.5C 91.187,176.564 90.687,174.564 90.5,172.5C 88.549,172.773 87.049,172.107 86,170.5C 85.5014,166.848 85.3347,163.182 85.5,159.5 Z"/></g>
<g><path style="opacity:1" fill="#fdf3cb" d="M 161.5,160.5 C 162.518,163.377 162.351,166.377 161,169.5C 158.873,171.114 157.373,173.114 156.5,175.5C 155.5,176.167 154.5,176.833 153.5,177.5C 153.995,175.518 154.495,173.518 155,171.5C 156.11,169.963 157.61,169.297 159.5,169.5C 159.7,166.37 160.366,163.37 161.5,160.5 Z"/></g>
<g><path style="opacity:1" fill="#ebd0b4" d="M 50.5,159.5 C 50.3302,163.535 51.6635,166.869 54.5,169.5C 54.7036,171.685 55.3702,173.685 56.5,175.5C 54.7428,174.708 53.4095,173.375 52.5,171.5C 51.8933,171.624 51.56,171.957 51.5,172.5C 50.0483,170.152 49.3817,167.486 49.5,164.5C 49.5068,162.631 49.8401,160.964 50.5,159.5 Z"/></g>
<g><path style="opacity:1" fill="#fa7909" d="M 60.5,166.5 C 60.3824,170.482 62.3824,172.815 66.5,173.5C 67.4519,175.045 67.7852,176.712 67.5,178.5C 66.5,178.5 65.5,178.5 64.5,178.5C 64.4042,174.689 63.7376,174.689 62.5,178.5C 60.513,174.832 57.8463,171.832 54.5,169.5C 54.3398,167.801 54.5065,166.134 55,164.5C 56.7255,165.464 58.5588,166.131 60.5,166.5 Z"/></g>
<g><path style="opacity:1" fill="#faf5d5" d="M 87.5,160.5 C 87.8333,160.5 88.1667,160.5 88.5,160.5C 88.2705,165.256 90.2705,168.589 94.5,170.5C 95.4519,172.045 95.7852,173.712 95.5,175.5C 89.9524,172.073 87.2857,167.073 87.5,160.5 Z"/></g>
<g><path style="opacity:1" fill="#f1e06f" d="M 175.5,156.5 C 176.822,156.33 177.989,156.663 179,157.5C 180.419,163.761 181.419,170.094 182,176.5C 184.918,178.734 186.418,181.734 186.5,185.5C 184.646,182.49 182.313,179.824 179.5,177.5C 178.671,172.198 178.171,166.864 178,161.5C 177.153,159.807 176.32,158.14 175.5,156.5 Z"/></g>
<g><path style="opacity:1" fill="#e0801f" d="M 54.5,169.5 C 57.8463,171.832 60.513,174.832 62.5,178.5C 63.7376,174.689 64.4042,174.689 64.5,178.5C 65.5,178.5 66.5,178.5 67.5,178.5C 66.7368,180.368 65.7368,182.035 64.5,183.5C 62.1667,180.5 59.5,177.833 56.5,175.5C 55.3702,173.685 54.7036,171.685 54.5,169.5 Z"/></g>
<g><path style="opacity:1" fill="#f77d08" d="M 166.5,159.5 C 166.5,158.833 166.833,158.5 167.5,158.5C 168.5,158.5 169.5,158.5 170.5,158.5C 173.852,170.956 172.019,182.623 165,193.5C 164.667,193.167 164.333,192.833 164,192.5C 162.748,197.581 161.248,202.581 159.5,207.5C 159.5,208.5 159.5,209.5 159.5,210.5C 158.833,210.833 158.167,211.167 157.5,211.5C 156.5,211.5 155.5,211.5 154.5,211.5C 153.833,210.833 153.167,210.167 152.5,209.5C 156.065,204.365 158.565,198.698 160,192.5C 162.39,190.733 164.057,188.4 165,185.5C 167.421,176.782 167.921,168.116 166.5,159.5 Z"/></g>
<g><path style="opacity:1" fill="#ddd7d6" d="M 56.5,175.5 C 57.5114,177.372 58.3448,179.372 59,181.5C 60.8587,182.579 62.3587,183.912 63.5,185.5C 63.5,186.5 63.5,187.5 63.5,188.5C 60.3864,187.909 57.8864,186.242 56,183.5C 55.1628,181.156 53.8294,179.156 52,177.5C 51.5065,175.866 51.3398,174.199 51.5,172.5C 51.56,171.957 51.8933,171.624 52.5,171.5C 53.4095,173.375 54.7428,174.708 56.5,175.5 Z"/></g>
<g><path style="opacity:1" fill="#f0cdae" d="M 56.5,175.5 C 59.5,177.833 62.1667,180.5 64.5,183.5C 64.6716,184.492 64.3382,185.158 63.5,185.5C 62.3587,183.912 60.8587,182.579 59,181.5C 58.3448,179.372 57.5114,177.372 56.5,175.5 Z"/></g>
<g><path style="opacity:1" fill="#452610" d="M 177.5,143.5 C 176.152,144.601 174.652,145.601 173,146.5C 171.834,149.927 172.668,152.593 175.5,154.5C 175.5,155.167 175.5,155.833 175.5,156.5C 176.32,158.14 177.153,159.807 178,161.5C 178.171,166.864 178.671,172.198 179.5,177.5C 182.313,179.824 184.646,182.49 186.5,185.5C 187.744,190.298 187.744,194.965 186.5,199.5C 186.79,195.064 186.29,190.73 185,186.5C 184.667,191.167 184.333,195.833 184,200.5C 183.764,202.119 182.931,203.119 181.5,203.5C 182.459,197.862 182.626,192.195 182,186.5C 180.987,184.154 179.321,182.487 177,181.5C 175.97,181.836 175.47,182.503 175.5,183.5C 174.923,178.692 174.923,173.692 175.5,168.5C 175.483,165.087 174.816,162.087 173.5,159.5C 173.167,159.5 172.833,159.5 172.5,159.5C 172.768,157.901 172.434,156.568 171.5,155.5C 170.63,151.808 170.963,148.142 172.5,144.5C 174.045,143.548 175.712,143.215 177.5,143.5 Z"/></g>
<g><path style="opacity:1" fill="#4a1e0d" d="M 76.5,159.5 C 74.9561,166.717 75.2894,173.717 77.5,180.5C 78.6893,185.254 80.1893,189.921 82,194.5C 85.4518,200.36 88.6185,206.36 91.5,212.5C 88.4079,213.336 85.2413,214.003 82,214.5C 79.9674,214.494 78.134,214.161 76.5,213.5C 79.8333,213.5 83.1667,213.5 86.5,213.5C 86.7709,211.62 86.1042,210.287 84.5,209.5C 84.6716,208.508 84.3382,207.842 83.5,207.5C 83.2064,204.246 81.873,201.579 79.5,199.5C 79.1706,196.173 77.8373,193.507 75.5,191.5C 75.7678,189.901 75.4345,188.568 74.5,187.5C 73.776,179.913 71.6094,179.58 68,186.5C 67.501,190.821 67.3343,195.154 67.5,199.5C 64.817,197.092 64.1504,194.092 65.5,190.5C 65.1445,189.478 64.4778,188.811 63.5,188.5C 63.5,187.5 63.5,186.5 63.5,185.5C 64.3382,185.158 64.6716,184.492 64.5,183.5C 65.7368,182.035 66.7368,180.368 67.5,178.5C 70.2974,178.033 71.6308,176.367 71.5,173.5C 69.0301,173.346 67.0301,172.346 65.5,170.5C 68.4359,171.406 71.4359,172.072 74.5,172.5C 73.9031,167.706 74.5698,163.373 76.5,159.5 Z"/></g>
<g><path style="opacity:1" fill="#fca304" d="M 83.5,159.5 C 84.1667,159.5 84.8333,159.5 85.5,159.5C 85.3347,163.182 85.5014,166.848 86,170.5C 87.049,172.107 88.549,172.773 90.5,172.5C 90.687,174.564 91.187,176.564 92,178.5C 96.4448,182.791 101.278,186.458 106.5,189.5C 106.031,193.916 107.031,197.916 109.5,201.5C 109.113,203.274 108.447,204.941 107.5,206.5C 103.548,207.494 99.5475,208.16 95.5,208.5C 95.6567,207.127 95.49,205.793 95,204.5C 93.2866,203.122 91.9533,201.455 91,199.5C 88.6693,192.85 86.3359,186.183 84,179.5C 83.0358,172.703 82.8692,166.036 83.5,159.5 Z"/></g>
<g><path style="opacity:1" fill="#f8e6ac" d="M 100.5,182.5 C 104.5,184.5 107.5,187.5 109.5,191.5C 108.222,191.218 107.222,190.551 106.5,189.5C 104.5,187.167 102.5,184.833 100.5,182.5 Z"/></g>
<g><path style="opacity:1" fill="#efc469" d="M 156.5,175.5 C 153.167,180.833 148.833,185.167 143.5,188.5C 146.783,184.879 150.116,181.213 153.5,177.5C 154.5,176.833 155.5,176.167 156.5,175.5 Z"/></g>
<g><path style="opacity:1" fill="#f8f9f5" d="M 88.5,160.5 C 92.7605,162.134 97.0938,163.467 101.5,164.5C 106.486,170.454 110.486,177.12 113.5,184.5C 114.729,185.281 116.062,185.781 117.5,186C 115.942,186.21 114.609,186.71 113.5,187.5C 112.549,188.919 112.216,190.585 112.5,192.5C 111.833,192.167 111.167,191.833 110.5,191.5C 110.167,191.5 109.833,191.5 109.5,191.5C 107.5,187.5 104.5,184.5 100.5,182.5C 98.369,180.389 96.7023,178.056 95.5,175.5C 95.7852,173.712 95.4519,172.045 94.5,170.5C 90.2705,168.589 88.2705,165.256 88.5,160.5 Z"/></g>
<g><path style="opacity:1" fill="#faa30c" d="M 161.5,160.5 C 162.209,159.596 163.209,159.263 164.5,159.5C 165.167,159.5 165.833,159.5 166.5,159.5C 167.921,168.116 167.421,176.782 165,185.5C 164.057,188.4 162.39,190.733 160,192.5C 158.565,198.698 156.065,204.365 152.5,209.5C 148.833,209.5 145.167,209.5 141.5,209.5C 140.5,209.5 139.5,209.5 138.5,209.5C 138.267,204.105 138.6,198.772 139.5,193.5C 140.183,191.824 141.517,191.157 143.5,191.5C 143.5,190.5 143.5,189.5 143.5,188.5C 148.833,185.167 153.167,180.833 156.5,175.5C 157.373,173.114 158.873,171.114 161,169.5C 162.351,166.377 162.518,163.377 161.5,160.5 Z"/></g>
<g><path style="opacity:1" fill="#fbf0cd" d="M 153.5,177.5 C 150.116,181.213 146.783,184.879 143.5,188.5C 143.5,189.5 143.5,190.5 143.5,191.5C 141.517,191.157 140.183,191.824 139.5,193.5C 138.833,193.833 138.167,194.167 137.5,194.5C 137.5,194.167 137.5,193.833 137.5,193.5C 137.5,192.833 137.5,192.167 137.5,191.5C 138.306,190.003 138.972,188.336 139.5,186.5C 141.5,185.667 143.5,184.833 145.5,184C 147.771,181.218 150.437,179.051 153.5,177.5 Z"/></g>
<g><path style="opacity:1" fill="#3e302b" d="M 136.5,187.5 C 137.434,188.568 137.768,189.901 137.5,191.5C 137.5,192.167 137.5,192.833 137.5,193.5C 136.883,193.611 136.383,193.944 136,194.5C 136.083,198.311 135.25,201.645 133.5,204.5C 133.5,203.833 133.167,203.5 132.5,203.5C 132.5,198.167 132.5,192.833 132.5,187.5C 133.833,187.5 135.167,187.5 136.5,187.5 Z"/></g>
<g><path style="opacity:1" fill="#d77a2d" d="M 74.5,187.5 C 73.735,186.34 72.735,185.34 71.5,184.5C 67.5524,192.652 67.8857,200.652 72.5,208.5C 73.2899,209.794 74.2899,210.961 75.5,212C 78.4816,212.498 81.4816,212.665 84.5,212.5C 84.5,211.5 84.5,210.5 84.5,209.5C 86.1042,210.287 86.7709,211.62 86.5,213.5C 83.1667,213.5 79.8333,213.5 76.5,213.5C 73.5722,212.409 71.4055,210.409 70,207.5C 69.454,204.621 68.6206,201.954 67.5,199.5C 67.3343,195.154 67.501,190.821 68,186.5C 71.6094,179.58 73.776,179.913 74.5,187.5 Z"/></g>
<g><path style="opacity:1" fill="#cf732b" d="M 175.5,186.5 C 175.851,190.159 174.851,193.159 172.5,195.5C 172.528,192.084 173.528,189.084 175.5,186.5 Z"/></g>
<g><path style="opacity:1" fill="#f9e672" d="M 186.5,185.5 C 187.79,186.058 188.623,187.058 189,188.5C 189.667,192.167 189.667,195.833 189,199.5C 188.8,201.32 187.966,202.653 186.5,203.5C 186.5,202.5 186.5,201.5 186.5,200.5C 186.5,200.167 186.5,199.833 186.5,199.5C 187.744,194.965 187.744,190.298 186.5,185.5 Z"/></g>
<g><path style="opacity:1" fill="#cb7225" d="M 181.5,203.5 C 181.5,204.167 181.5,204.833 181.5,205.5C 179.669,209.331 176.669,211.664 172.5,212.5C 180.354,205.254 183.021,196.254 180.5,185.5C 178.833,185.5 177.167,185.5 175.5,185.5C 175.5,184.833 175.5,184.167 175.5,183.5C 175.47,182.503 175.97,181.836 177,181.5C 179.321,182.487 180.987,184.154 182,186.5C 182.626,192.195 182.459,197.862 181.5,203.5 Z"/></g>
<g><path style="opacity:1" fill="#dedcdb" d="M 101.5,164.5 C 105.828,165.046 110.162,165.713 114.5,166.5C 112.537,172.692 113.87,178.025 118.5,182.5C 132.088,185.544 137.754,180.21 135.5,166.5C 139.452,165.506 143.452,164.84 147.5,164.5C 143.833,169.678 140.333,175.012 137,180.5C 136.503,182.81 136.337,185.143 136.5,187.5C 135.167,187.5 133.833,187.5 132.5,187.5C 132.5,192.833 132.5,198.167 132.5,203.5C 127.483,204.648 122.483,204.648 117.5,203.5C 117.167,203.5 116.833,203.5 116.5,203.5C 116.5,198.167 116.5,192.833 116.5,187.5C 115.5,187.5 114.5,187.5 113.5,187.5C 114.609,186.71 115.942,186.21 117.5,186C 116.062,185.781 114.729,185.281 113.5,184.5C 110.486,177.12 106.486,170.454 101.5,164.5 Z"/></g>
<g><path style="opacity:1" fill="#f4eec7" d="M 129.5,167.5 C 132.016,170.754 132.016,174.254 129.5,178C 127.655,179.128 125.655,179.628 123.5,179.5C 123.833,178.833 124.167,178.167 124.5,177.5C 126.199,177.473 127.533,176.806 128.5,175.5C 129.473,173.052 129.806,170.385 129.5,167.5 Z"/></g>
<g><path style="opacity:1" fill="#f6df21" d="M 128.5,175.5 C 127.533,176.806 126.199,177.473 124.5,177.5C 123.022,177.762 121.689,177.429 120.5,176.5C 119.593,173.579 119.26,170.579 119.5,167.5C 127.448,164.445 130.448,167.111 128.5,175.5 Z"/></g>
<g><path style="opacity:1" fill="#dac144" d="M 119.5,167.5 C 119.26,170.579 119.593,173.579 120.5,176.5C 121.689,177.429 123.022,177.762 124.5,177.5C 124.167,178.167 123.833,178.833 123.5,179.5C 118.013,177.808 116.18,174.141 118,168.5C 118.383,167.944 118.883,167.611 119.5,167.5 Z"/></g>
<g><path style="opacity:1" fill="#eadb66" d="M 129.5,167.5 C 129.806,170.385 129.473,173.052 128.5,175.5C 130.448,167.111 127.448,164.445 119.5,167.5C 119.611,166.883 119.944,166.383 120.5,166C 123.167,165.333 125.833,165.333 128.5,166C 129.056,166.383 129.389,166.883 129.5,167.5 Z"/></g>
<g><path style="opacity:1" fill="#4f1e09" d="M 173.5,159.5 C 174.816,162.087 175.483,165.087 175.5,168.5C 174.923,173.692 174.923,178.692 175.5,183.5C 175.5,184.167 175.5,184.833 175.5,185.5C 175.5,185.833 175.5,186.167 175.5,186.5C 173.528,189.084 172.528,192.084 172.5,195.5C 169.608,199.602 166.941,203.935 164.5,208.5C 163.691,210.071 163.357,211.738 163.5,213.5C 164.833,213.5 166.167,213.5 167.5,213.5C 169.415,213.784 171.081,213.451 172.5,212.5C 176.669,211.664 179.669,209.331 181.5,205.5C 181.838,208.325 180.838,210.492 178.5,212C 173.305,215.101 167.638,216.268 161.5,215.5C 161.784,213.585 161.451,211.919 160.5,210.5C 160.167,210.5 159.833,210.5 159.5,210.5C 159.5,209.5 159.5,208.5 159.5,207.5C 161.075,205.475 162.908,203.475 165,201.5C 167.309,195.54 169.642,189.54 172,183.5C 173.321,175.561 173.821,167.561 173.5,159.5 Z"/></g>
<g><path style="opacity:1" fill="#f17e11" d="M 83.5,159.5 C 82.8692,166.036 83.0358,172.703 84,179.5C 86.3359,186.183 88.6693,192.85 91,199.5C 91.9533,201.455 93.2866,203.122 95,204.5C 95.49,205.793 95.6567,207.127 95.5,208.5C 95.5,208.833 95.5,209.167 95.5,209.5C 95.5,210.167 95.5,210.833 95.5,211.5C 94.209,211.263 93.209,211.596 92.5,212.5C 92.1667,212.5 91.8333,212.5 91.5,212.5C 88.6185,206.36 85.4518,200.36 82,194.5C 80.1893,189.921 78.6893,185.254 77.5,180.5C 76.8003,174.841 76.6336,169.175 77,163.5C 78.6171,162.149 79.7838,160.482 80.5,158.5C 81.4168,159.127 82.4168,159.461 83.5,159.5 Z"/></g>
<g><path style="opacity:1" fill="#fa7909" d="M 74.5,187.5 C 75.4345,188.568 75.7678,189.901 75.5,191.5C 74.9159,194.983 75.7492,197.983 78,200.5C 78.3333,202.833 78.6667,205.167 79,207.5C 80.586,208.376 82.086,209.376 83.5,210.5C 81.9076,210.417 80.2409,210.751 78.5,211.5C 76.4893,210.481 74.4893,209.481 72.5,208.5C 67.8857,200.652 67.5524,192.652 71.5,184.5C 72.735,185.34 73.735,186.34 74.5,187.5 Z"/></g>
<g><path style="opacity:1" fill="#f1a724" d="M 106.5,189.5 C 107.222,190.551 108.222,191.218 109.5,191.5C 109.833,191.5 110.167,191.5 110.5,191.5C 111.418,197.775 111.751,204.108 111.5,210.5C 106.195,209.806 100.862,209.472 95.5,209.5C 95.5,209.167 95.5,208.833 95.5,208.5C 99.5475,208.16 103.548,207.494 107.5,206.5C 108.447,204.941 109.113,203.274 109.5,201.5C 107.031,197.916 106.031,193.916 106.5,189.5 Z"/></g>
<g><path style="opacity:1" fill="#2b1d1b" d="M 113.5,187.5 C 114.5,187.5 115.5,187.5 116.5,187.5C 116.5,192.833 116.5,198.167 116.5,203.5C 115.014,199.986 113.681,196.319 112.5,192.5C 112.216,190.585 112.549,188.919 113.5,187.5 Z"/></g>
<g><path style="opacity:1" fill="#dc7824" d="M 167.5,158.5 C 168.209,157.596 169.209,157.263 170.5,157.5C 171.167,158.167 171.833,158.833 172.5,159.5C 172.833,159.5 173.167,159.5 173.5,159.5C 173.821,167.561 173.321,175.561 172,183.5C 169.642,189.54 167.309,195.54 165,201.5C 162.908,203.475 161.075,205.475 159.5,207.5C 161.248,202.581 162.748,197.581 164,192.5C 164.333,192.833 164.667,193.167 165,193.5C 172.019,182.623 173.852,170.956 170.5,158.5C 169.5,158.5 168.5,158.5 167.5,158.5 Z"/></g>
<g><path style="opacity:1" fill="#d57528" d="M 172.5,195.5 C 171.966,201.273 169.966,206.44 166.5,211C 166.743,211.902 167.077,212.735 167.5,213.5C 166.167,213.5 164.833,213.5 163.5,213.5C 163.357,211.738 163.691,210.071 164.5,208.5C 166.941,203.935 169.608,199.602 172.5,195.5 Z"/></g>
<g><path style="opacity:1" fill="#f67b0b" d="M 175.5,185.5 C 177.167,185.5 178.833,185.5 180.5,185.5C 183.021,196.254 180.354,205.254 172.5,212.5C 171.081,213.451 169.415,213.784 167.5,213.5C 167.077,212.735 166.743,211.902 166.5,211C 169.966,206.44 171.966,201.273 172.5,195.5C 174.851,193.159 175.851,190.159 175.5,186.5C 175.5,186.167 175.5,185.833 175.5,185.5 Z"/></g>
<g><path style="opacity:1" fill="#ea7a1a" d="M 75.5,191.5 C 77.8373,193.507 79.1706,196.173 79.5,199.5C 79.6085,202.899 80.9418,205.566 83.5,207.5C 84.3382,207.842 84.6716,208.508 84.5,209.5C 84.5,210.5 84.5,211.5 84.5,212.5C 81.4816,212.665 78.4816,212.498 75.5,212C 74.2899,210.961 73.2899,209.794 72.5,208.5C 74.4893,209.481 76.4893,210.481 78.5,211.5C 80.2409,210.751 81.9076,210.417 83.5,210.5C 82.086,209.376 80.586,208.376 79,207.5C 78.6667,205.167 78.3333,202.833 78,200.5C 75.7492,197.983 74.9159,194.983 75.5,191.5 Z"/></g>
<g><path style="opacity:1" fill="#a5914b" d="M 186.5,200.5 C 186.5,201.5 186.5,202.5 186.5,203.5C 186.5,203.833 186.5,204.167 186.5,204.5C 185.833,205.5 185.167,206.5 184.5,207.5C 184.41,204.848 185.076,202.515 186.5,200.5 Z"/></g>
<g><path style="opacity:1" fill="#ba884e" d="M 110.5,191.5 C 111.167,191.833 111.833,192.167 112.5,192.5C 112.5,199.833 112.5,207.167 112.5,214.5C 112.167,214.5 111.833,214.5 111.5,214.5C 111.5,213.833 111.5,213.167 111.5,212.5C 111.5,211.833 111.5,211.167 111.5,210.5C 111.751,204.108 111.418,197.775 110.5,191.5 Z"/></g>
<g><path style="opacity:1" fill="#b86420" d="M 79.5,199.5 C 81.873,201.579 83.2064,204.246 83.5,207.5C 80.9418,205.566 79.6085,202.899 79.5,199.5 Z"/></g>
<g><path style="opacity:1" fill="#401b09" d="M 112.5,192.5 C 113.681,196.319 115.014,199.986 116.5,203.5C 116.5,207.167 116.5,210.833 116.5,214.5C 122.167,214.5 127.833,214.5 133.5,214.5C 133.5,211.167 133.5,207.833 133.5,204.5C 135.25,201.645 136.083,198.311 136,194.5C 136.383,193.944 136.883,193.611 137.5,193.5C 137.5,193.833 137.5,194.167 137.5,194.5C 137.5,199.833 137.5,205.167 137.5,210.5C 137.5,210.833 137.5,211.167 137.5,211.5C 135.974,212.105 134.974,213.271 134.5,215C 127.461,215.66 120.461,216.494 113.5,217.5C 112.596,216.791 112.263,215.791 112.5,214.5C 112.5,207.167 112.5,199.833 112.5,192.5 Z"/></g>
<g><path style="opacity:1" fill="#d89c42" d="M 139.5,193.5 C 138.6,198.772 138.267,204.105 138.5,209.5C 139.5,209.5 140.5,209.5 141.5,209.5C 140.432,210.434 139.099,210.768 137.5,210.5C 137.5,205.167 137.5,199.833 137.5,194.5C 138.167,194.167 138.833,193.833 139.5,193.5 Z"/></g>
<g><path style="opacity:1" fill="#faecbd" d="M 95.5,209.5 C 100.862,209.472 106.195,209.806 111.5,210.5C 111.5,211.167 111.5,211.833 111.5,212.5C 107.534,211.838 103.534,211.505 99.5,211.5C 98.1667,211.5 96.8333,211.5 95.5,211.5C 95.5,210.833 95.5,210.167 95.5,209.5 Z"/></g>
<g><path style="opacity:1" fill="#ecd5a5" d="M 141.5,209.5 C 145.167,209.5 148.833,209.5 152.5,209.5C 153.167,210.167 153.833,210.833 154.5,211.5C 149.036,210.017 143.703,210.351 138.5,212.5C 138.5,213.5 138.5,214.5 138.5,215.5C 137.566,214.432 137.232,213.099 137.5,211.5C 137.5,211.167 137.5,210.833 137.5,210.5C 139.099,210.768 140.432,210.434 141.5,209.5 Z"/></g>
<g><path style="opacity:1" fill="#f5f7f1" d="M 99.5,211.5 C 103.534,211.505 107.534,211.838 111.5,212.5C 111.5,213.167 111.5,213.833 111.5,214.5C 111.047,215.458 110.381,216.292 109.5,217C 106.518,217.498 103.518,217.665 100.5,217.5C 100.483,215.435 100.15,213.435 99.5,211.5 Z"/></g>
<g><path style="opacity:1" fill="#d9cfc7" d="M 95.5,211.5 C 96.8333,211.5 98.1667,211.5 99.5,211.5C 100.15,213.435 100.483,215.435 100.5,217.5C 97.7939,217.312 95.4605,216.312 93.5,214.5C 93.1667,213.833 92.8333,213.167 92.5,212.5C 93.209,211.596 94.209,211.263 95.5,211.5 Z"/></g>
<g><path style="opacity:1" fill="#8b4818" d="M 116.5,203.5 C 116.833,203.5 117.167,203.5 117.5,203.5C 117.5,204.167 117.5,204.833 117.5,205.5C 117.5,208.167 117.5,210.833 117.5,213.5C 122.5,213.5 127.5,213.5 132.5,213.5C 132.5,210.833 132.5,208.167 132.5,205.5C 132.5,204.833 132.5,204.167 132.5,203.5C 133.167,203.5 133.5,203.833 133.5,204.5C 133.5,207.833 133.5,211.167 133.5,214.5C 127.833,214.5 122.167,214.5 116.5,214.5C 116.5,210.833 116.5,207.167 116.5,203.5 Z"/></g>
<g><path style="opacity:1" fill="#e18534" d="M 117.5,205.5 C 122.5,205.5 127.5,205.5 132.5,205.5C 132.5,208.167 132.5,210.833 132.5,213.5C 127.5,213.5 122.5,213.5 117.5,213.5C 117.5,210.833 117.5,208.167 117.5,205.5 Z"/></g>
<g><path style="opacity:1" fill="#f87b0c" d="M 118.5,207.5 C 122.833,207.5 127.167,207.5 131.5,207.5C 131.5,209.167 131.5,210.833 131.5,212.5C 127.167,212.5 122.833,212.5 118.5,212.5C 118.5,210.833 118.5,209.167 118.5,207.5 Z"/></g>
<g><path style="opacity:1" fill="#facaa9" d="M 117.5,203.5 C 122.483,204.648 127.483,204.648 132.5,203.5C 132.5,204.167 132.5,204.833 132.5,205.5C 127.5,205.5 122.5,205.5 117.5,205.5C 117.5,204.833 117.5,204.167 117.5,203.5 Z"/></g>
<g><path style="opacity:1" fill="#f2f1ea" d="M 154.5,211.5 C 155.5,211.5 156.5,211.5 157.5,211.5C 155.996,213.836 153.996,215.669 151.5,217C 147.514,217.499 143.514,217.666 139.5,217.5C 139.167,216.833 138.833,216.167 138.5,215.5C 138.5,214.5 138.5,213.5 138.5,212.5C 143.703,210.351 149.036,210.017 154.5,211.5 Z"/></g>
<g><path style="opacity:1" fill="#3c2810" d="M 186.5,199.5 C 186.5,199.833 186.5,200.167 186.5,200.5C 185.076,202.515 184.41,204.848 184.5,207.5C 182.511,211.663 179.511,214.829 175.5,217C 169.247,218.204 162.914,218.871 156.5,219C 151.334,222.354 145.668,223.354 139.5,222C 137.884,221.385 136.551,220.385 135.5,219C 128.174,218.5 120.841,218.334 113.5,218.5C 113.5,218.167 113.5,217.833 113.5,217.5C 120.461,216.494 127.461,215.66 134.5,215C 134.974,213.271 135.974,212.105 137.5,211.5C 137.232,213.099 137.566,214.432 138.5,215.5C 138.833,216.167 139.167,216.833 139.5,217.5C 138.226,218.189 138.226,219.023 139.5,220C 146.662,221.929 152.662,220.262 157.5,215C 158.448,214.517 159.448,214.351 160.5,214.5C 160.5,213.167 160.5,211.833 160.5,210.5C 161.451,211.919 161.784,213.585 161.5,215.5C 167.638,216.268 173.305,215.101 178.5,212C 180.838,210.492 181.838,208.325 181.5,205.5C 181.5,204.833 181.5,204.167 181.5,203.5C 182.931,203.119 183.764,202.119 184,200.5C 184.333,195.833 184.667,191.167 185,186.5C 186.29,190.73 186.79,195.064 186.5,199.5 Z"/></g>
<g><path style="opacity:1" fill="#3c2211" d="M 61.5,159.5 C 63.4568,163.457 66.4568,166.457 70.5,168.5C 71.1033,163.913 72.4367,159.579 74.5,155.5C 76.9819,153.497 77.9819,150.831 77.5,147.5C 77.8333,147.5 78.1667,147.5 78.5,147.5C 78.7549,149.967 79.7549,151.967 81.5,153.5C 80.4479,155.256 78.7812,155.923 76.5,155.5C 76.5,156.833 76.5,158.167 76.5,159.5C 74.5698,163.373 73.9031,167.706 74.5,172.5C 71.4359,172.072 68.4359,171.406 65.5,170.5C 63.8577,169.197 62.1911,167.864 60.5,166.5C 57.2444,163.078 54.5778,159.244 52.5,155C 52.1667,154.833 51.8333,154.667 51.5,154.5C 50.5481,156.045 50.2148,157.712 50.5,159.5C 49.8401,160.964 49.5068,162.631 49.5,164.5C 49.3817,167.486 50.0483,170.152 51.5,172.5C 51.3398,174.199 51.5065,175.866 52,177.5C 53.8294,179.156 55.1628,181.156 56,183.5C 57.8864,186.242 60.3864,187.909 63.5,188.5C 64.4778,188.811 65.1445,189.478 65.5,190.5C 64.1504,194.092 64.817,197.092 67.5,199.5C 68.6206,201.954 69.454,204.621 70,207.5C 71.4055,210.409 73.5722,212.409 76.5,213.5C 78.134,214.161 79.9674,214.494 82,214.5C 85.2413,214.003 88.4079,213.336 91.5,212.5C 91.8333,212.5 92.1667,212.5 92.5,212.5C 92.8333,213.167 93.1667,213.833 93.5,214.5C 92.2006,216.153 92.5339,217.653 94.5,219C 100.457,220.829 106.457,220.996 112.5,219.5C 111.653,220.966 110.32,221.8 108.5,222C 104.113,222.706 99.7799,222.54 95.5,221.5C 94.5707,220.685 93.5707,219.852 92.5,219C 86.8333,218.667 81.1667,218.333 75.5,218C 70.8526,215.894 67.686,212.394 66,207.5C 64.3694,203.244 63.0361,198.91 62,194.5C 61.2917,193.619 60.4584,192.953 59.5,192.5C 45.2861,181.093 41.4527,166.76 48,149.5C 49.0128,147.154 50.6794,145.487 53,144.5C 53.772,144.645 54.4387,144.978 55,145.5C 55.6667,148.167 56.3333,150.833 57,153.5C 58.2425,155.859 59.7425,157.859 61.5,159.5 Z"/></g>
<g><path style="opacity:1" fill="#e8d576" d="M 74.5,155.5 C 72.4367,159.579 71.1033,163.913 70.5,168.5C 66.4568,166.457 63.4568,163.457 61.5,159.5C 63.9347,160.764 65.9347,162.597 67.5,165C 68.448,165.483 69.448,165.649 70.5,165.5C 69.7493,161.169 71.0827,157.836 74.5,155.5 Z"/></g>
<g><path style="opacity:1" fill="#df7e29" d="M 60.5,166.5 C 58.5588,166.131 56.7255,165.464 55,164.5C 54.5065,166.134 54.3398,167.801 54.5,169.5C 51.6635,166.869 50.3302,163.535 50.5,159.5C 50.2148,157.712 50.5481,156.045 51.5,154.5C 51.8333,154.667 52.1667,154.833 52.5,155C 54.5778,159.244 57.2444,163.078 60.5,166.5 Z"/></g>
<g><path style="opacity:1" fill="#3b2a23" d="M 159.5,210.5 C 159.833,210.5 160.167,210.5 160.5,210.5C 160.5,211.833 160.5,213.167 160.5,214.5C 159.448,214.351 158.448,214.517 157.5,215C 152.662,220.262 146.662,221.929 139.5,220C 138.226,219.023 138.226,218.189 139.5,217.5C 143.514,217.666 147.514,217.499 151.5,217C 153.996,215.669 155.996,213.836 157.5,211.5C 158.167,211.167 158.833,210.833 159.5,210.5 Z"/></g>
<g><path style="opacity:1" fill="#eed973" d="M 59.5,192.5 C 60.4584,192.953 61.2917,193.619 62,194.5C 63.0361,198.91 64.3694,203.244 66,207.5C 67.686,212.394 70.8526,215.894 75.5,218C 81.1667,218.333 86.8333,218.667 92.5,219C 93.5707,219.852 94.5707,220.685 95.5,221.5C 88.3152,219.868 80.9819,219.035 73.5,219C 71.1825,217.007 68.5158,215.841 65.5,215.5C 63.8244,207.795 61.8244,200.128 59.5,192.5 Z"/></g>
<g><path style="opacity:1" fill="#382422" d="M 93.5,214.5 C 95.4605,216.312 97.7939,217.312 100.5,217.5C 103.518,217.665 106.518,217.498 109.5,217C 110.381,216.292 111.047,215.458 111.5,214.5C 111.833,214.5 112.167,214.5 112.5,214.5C 112.263,215.791 112.596,216.791 113.5,217.5C 113.5,217.833 113.5,218.167 113.5,218.5C 113.5,219.167 113.167,219.5 112.5,219.5C 106.457,220.996 100.457,220.829 94.5,219C 92.5339,217.653 92.2006,216.153 93.5,214.5 Z"/></g>
<g><path style="opacity:1" fill="#f0df7b" d="M 186.5,204.5 C 186.662,206.527 186.495,208.527 186,210.5C 183.399,213.458 180.565,216.292 177.5,219C 168.799,218.697 160.466,220.031 152.5,223C 147.5,223.667 142.5,223.667 137.5,223C 135.974,221.113 133.974,220.113 131.5,220C 125.833,219.333 120.167,219.333 114.5,220C 111.553,223.023 107.886,224.19 103.5,223.5C 100.41,223.478 97.7432,222.812 95.5,221.5C 99.7799,222.54 104.113,222.706 108.5,222C 110.32,221.8 111.653,220.966 112.5,219.5C 113.167,219.5 113.5,219.167 113.5,218.5C 120.841,218.334 128.174,218.5 135.5,219C 136.551,220.385 137.884,221.385 139.5,222C 145.668,223.354 151.334,222.354 156.5,219C 162.914,218.871 169.247,218.204 175.5,217C 179.511,214.829 182.511,211.663 184.5,207.5C 185.167,206.5 185.833,205.5 186.5,204.5 Z"/></g>
</svg>
