<?xml version="1.0" encoding="UTF-8"?>
<!DOCTYPE svg PUBLIC "-//W3C//DTD SVG 1.1//EN" "http://www.w3.org/Graphics/SVG/1.1/DTD/svg11.dtd">
<svg xmlns="http://www.w3.org/2000/svg" version="1.1" width="170px" height="170px" style="shape-rendering:geometricPrecision; text-rendering:geometricPrecision; image-rendering:optimizeQuality; fill-rule:evenodd; clip-rule:evenodd" xmlns:xlink="http://www.w3.org/1999/xlink">
<g><path style="opacity:1" fill="#fefefe" d="M -0.5,-0.5 C 56.1667,-0.5 112.833,-0.5 169.5,-0.5C 169.5,56.1667 169.5,112.833 169.5,169.5C 112.833,169.5 56.1667,169.5 -0.5,169.5C -0.5,112.833 -0.5,56.1667 -0.5,-0.5 Z"/></g>
<g><path style="opacity:1" fill="#1da8cc" d="M 103.5,30.5 C 90.8333,31.8333 78.1667,31.8333 65.5,30.5C 71.6139,26.941 77.9472,23.6076 84.5,20.5C 91.0182,23.5912 97.3515,26.9246 103.5,30.5 Z"/></g>
<g><path style="opacity:1" fill="#12b2d3" d="M 65.5,30.5 C 78.1667,31.8333 90.8333,31.8333 103.5,30.5C 106.967,32.0672 110.3,33.9005 113.5,36C 107,38.8333 100.5,41.6667 94,44.5C 90.8859,43.0258 87.7192,41.6925 84.5,40.5C 81.3872,41.5559 78.3872,42.8892 75.5,44.5C 69.1667,41.3333 62.8333,38.1667 56.5,35C 59.2432,32.9617 62.2432,31.4617 65.5,30.5 Z"/></g>
<g><path style="opacity:1" fill="#0cb2d4" d="M 61.5,48.5 C 59.8333,53.1667 58.1667,57.8333 56.5,62.5C 52.8832,61.3583 49.5498,59.6916 46.5,57.5C 46.1667,57.5 45.8333,57.5 45.5,57.5C 40.6657,54.2484 35.6657,51.2484 30.5,48.5C 35.3858,45.4725 40.5525,42.8059 46,40.5C 51.4475,42.8059 56.6142,45.4725 61.5,48.5 Z"/></g>
<g><path style="opacity:1" fill="#09b0d2" d="M 131.5,44.5 C 133.954,46.0598 136.62,47.0598 139.5,47.5C 139.825,55.0191 139.492,62.3524 138.5,69.5C 133.701,65.9288 128.701,62.5955 123.5,59.5C 127.126,54.9105 129.792,49.9105 131.5,44.5 Z"/></g>
<g><path style="opacity:1" fill="#0a9ec6" d="M 30.5,48.5 C 35.6657,51.2484 40.6657,54.2484 45.5,57.5C 45.5,58.8333 45.5,60.1667 45.5,61.5C 40.5,61.5 35.5,61.5 30.5,61.5C 30.7845,59.5853 30.4511,57.9187 29.5,56.5C 29.1936,53.6146 29.5269,50.9479 30.5,48.5 Z"/></g>
<g><path style="opacity:1" fill="#18a3ca" d="M 61.5,48.5 C 68.933,51.7158 76.2663,55.2158 83.5,59C 77.8747,62.2114 72.0414,65.0448 66,67.5C 62.5504,66.1938 59.3837,64.5272 56.5,62.5C 58.1667,57.8333 59.8333,53.1667 61.5,48.5 Z"/></g>
<g><path style="opacity:1" fill="#13a0c8" d="M 131.5,44.5 C 129.792,49.9105 127.126,54.9105 123.5,59.5C 128.701,62.5955 133.701,65.9288 138.5,69.5C 131.62,72.7729 124.62,75.7729 117.5,78.5C 114.424,73.2632 112.09,67.5965 110.5,61.5C 113.024,60.0731 115.69,58.9064 118.5,58C 113.999,55.5841 109.666,52.9175 105.5,50C 111.835,46.7777 118.335,43.9444 125,41.5C 127.253,42.3773 129.419,43.3773 131.5,44.5 Z"/></g>
<g><path style="opacity:1" fill="#13a5cc" d="M 110.5,61.5 C 112.09,67.5965 114.424,73.2632 117.5,78.5C 107.791,83.3509 97.7907,87.6843 87.5,91.5C 85.8639,90.2511 84.6972,88.5844 84,86.5C 82.1192,82.6928 80.9526,78.6928 80.5,74.5C 90.495,70.1679 100.495,65.8345 110.5,61.5 Z"/></g>
<g><path style="opacity:1" fill="#07abcf" d="M 29.5,56.5 C 30.4511,57.9187 30.7845,59.5853 30.5,61.5C 35.5,61.5 40.5,61.5 45.5,61.5C 45.5,60.1667 45.5,58.8333 45.5,57.5C 45.8333,57.5 46.1667,57.5 46.5,57.5C 46.5,63.5 46.5,69.5 46.5,75.5C 40.5368,76.0454 34.8701,75.3787 29.5,73.5C 29.5,67.8333 29.5,62.1667 29.5,56.5 Z"/></g>
<g><path style="opacity:1" fill="#22b9d8" d="M 29.5,73.5 C 34.8701,75.3787 40.5368,76.0454 46.5,75.5C 41.137,78.2637 35.637,80.9304 30,83.5C 29.5017,80.1832 29.335,76.8499 29.5,73.5 Z"/></g>
<g><path style="opacity:1" fill="#11afd2" d="M 80.5,74.5 C 80.9526,78.6928 82.1192,82.6928 84,86.5C 84.6972,88.5844 85.8639,90.2511 87.5,91.5C 78.1616,96.3978 68.495,100.731 58.5,104.5C 55.7486,99.4394 53.0819,94.2727 50.5,89C 51.056,88.6174 51.3893,88.1174 51.5,87.5C 60.9843,82.9278 70.651,78.5944 80.5,74.5 Z"/></g>
<g><path style="opacity:1" fill="#15b5d5" d="M 51.5,87.5 C 51.3893,88.1174 51.056,88.6174 50.5,89C 53.0819,94.2727 55.7486,99.4394 58.5,104.5C 56.2377,105.823 53.9044,107.157 51.5,108.5C 55.1296,110.987 58.7962,113.487 62.5,116C 56.9187,118.86 51.2521,121.526 45.5,124C 43.1195,124.738 41.1195,124.238 39.5,122.5C 42.9744,118.238 45.9744,113.571 48.5,108.5C 42.391,104.379 36.0576,100.712 29.5,97.5C 36.5266,93.6562 43.8599,90.3228 51.5,87.5 Z"/></g>
<g><path style="opacity:1" fill="#08a3ca" d="M 139.5,82.5 C 139.666,89.5079 139.5,96.5079 139,103.5C 133.928,102.529 128.762,102.195 123.5,102.5C 123.5,98.1667 123.5,93.8333 123.5,89.5C 128.663,86.779 133.996,84.4457 139.5,82.5 Z"/></g>
<g><path style="opacity:1" fill="#14b1d3" d="M 116.5,105.5 C 114.434,109.966 112.1,114.299 109.5,118.5C 101.369,114.601 93.3694,110.435 85.5,106C 91.3903,103.221 97.3903,100.721 103.5,98.5C 108.337,100.082 112.67,102.415 116.5,105.5 Z"/></g>
<g><path style="opacity:1" fill="#11a3ca" d="M 29.5,97.5 C 36.0576,100.712 42.391,104.379 48.5,108.5C 45.9744,113.571 42.9744,118.238 39.5,122.5C 36.4037,121.453 33.4037,120.12 30.5,118.5C 29.503,111.532 29.1697,104.532 29.5,97.5 Z"/></g>
<g><path style="opacity:1" fill="#80cfe2" d="M 123.5,89.5 C 123.5,93.8333 123.5,98.1667 123.5,102.5C 123.5,104.5 123.5,106.5 123.5,108.5C 122.508,108.672 121.842,108.338 121.5,107.5C 122.167,101.5 122.833,95.5 123.5,89.5 Z"/></g>
<g><path style="opacity:1" fill="#0ea6cc" d="M 116.5,105.5 C 118.284,105.893 119.95,106.559 121.5,107.5C 121.842,108.338 122.508,108.672 123.5,108.5C 123.821,114.026 123.488,119.36 122.5,124.5C 118.042,122.771 113.709,120.771 109.5,118.5C 112.1,114.299 114.434,109.966 116.5,105.5 Z"/></g>
<g><path style="opacity:1" fill="#2db5d5" d="M 139.5,82.5 C 140.824,94.0067 140.824,105.673 139.5,117.5C 134.167,120.167 128.833,122.833 123.5,125.5C 122.893,125.376 122.56,125.043 122.5,124.5C 123.488,119.36 123.821,114.026 123.5,108.5C 123.5,106.5 123.5,104.5 123.5,102.5C 128.762,102.195 133.928,102.529 139,103.5C 139.5,96.5079 139.666,89.5079 139.5,82.5 Z"/></g>
<g><path style="opacity:1" fill="#18a6cc" d="M 109.5,128.5 C 93.5,129.833 77.5,129.833 61.5,128.5C 65.9136,125.961 70.5803,123.961 75.5,122.5C 78.7192,123.693 81.8859,125.026 85,126.5C 88.6839,124.829 92.3506,123.163 96,121.5C 100.448,123.974 104.948,126.307 109.5,128.5 Z"/></g>
<g><path style="opacity:1" fill="#12acd0" d="M 61.5,128.5 C 77.5,129.833 93.5,129.833 109.5,128.5C 110.901,128.971 112.234,129.638 113.5,130.5C 111.757,132.038 109.757,133.038 107.5,133.5C 92.5,133.5 77.5,133.5 62.5,133.5C 55.3378,132.186 55.0044,130.519 61.5,128.5 Z"/></g>
<g><path style="opacity:1" fill="#17b4d5" d="M 62.5,133.5 C 77.5,133.5 92.5,133.5 107.5,133.5C 100.041,137.394 92.3743,141.061 84.5,144.5C 76.8321,141.333 69.4988,137.666 62.5,133.5 Z"/></g>
</svg>
