<?xml version="1.0" encoding="UTF-8"?>
<!DOCTYPE svg PUBLIC "-//W3C//DTD SVG 1.1//EN" "http://www.w3.org/Graphics/SVG/1.1/DTD/svg11.dtd">
<svg xmlns="http://www.w3.org/2000/svg" version="1.1" width="250px" height="250px" style="shape-rendering:geometricPrecision; text-rendering:geometricPrecision; image-rendering:optimizeQuality; fill-rule:evenodd; clip-rule:evenodd" xmlns:xlink="http://www.w3.org/1999/xlink">
<g><path style="opacity:1" fill="#fbfefd" d="M -0.5,-0.5 C 36.8333,-0.5 74.1667,-0.5 111.5,-0.5C 91.0572,2.36876 72.0572,9.36876 54.5,20.5C 50.7574,23.0392 47.424,26.0392 44.5,29.5C 27.4222,42.5677 15.4222,59.2344 8.5,79.5C 3.69141,89.6817 0.691412,100.348 -0.5,111.5C -0.5,74.1667 -0.5,36.8333 -0.5,-0.5 Z"/></g>
<g><path style="opacity:1" fill="#fcfefe" d="M 149.5,-0.5 C 182.833,-0.5 216.167,-0.5 249.5,-0.5C 249.5,33.5 249.5,67.5 249.5,101.5C 247.345,95.1593 245.345,88.6593 243.5,82C 241.249,77.0531 238.916,72.2197 236.5,67.5C 233.159,60.1429 228.826,53.4763 223.5,47.5C 214.428,35.9822 203.761,26.3155 191.5,18.5C 190.223,16.8516 189.223,15.0183 188.5,13C 183.568,13.0318 179.568,11.1985 176.5,7.5C 179.47,7.00509 181.804,5.50509 183.5,3C 183.167,2.83333 182.833,2.66667 182.5,2.5C 179.681,3.77325 176.848,5.10658 174,6.5C 165.469,5.06226 157.302,2.72893 149.5,-0.5 Z"/></g>
<g><path style="opacity:1" fill="#e0faf8" d="M 135.5,-0.5 C 140.167,-0.5 144.833,-0.5 149.5,-0.5C 157.302,2.72893 165.469,5.06226 174,6.5C 176.848,5.10658 179.681,3.77325 182.5,2.5C 182.833,2.66667 183.167,2.83333 183.5,3C 181.804,5.50509 179.47,7.00509 176.5,7.5C 179.568,11.1985 183.568,13.0318 188.5,13C 189.223,15.0183 190.223,16.8516 191.5,18.5C 174.06,8.47541 155.394,2.14207 135.5,-0.5 Z"/></g>
<g><path style="opacity:1" fill="#fbfdfd" d="M 146.5,18.5 C 156.287,20.023 165.621,23.023 174.5,27.5C 186.656,34.3244 197.656,42.6578 207.5,52.5C 210.727,56.6011 213.727,60.9345 216.5,65.5C 216.058,66.7387 215.391,67.7387 214.5,68.5C 208.75,75.1906 207.25,82.8573 210,91.5C 212.374,95.0782 214.874,98.5782 217.5,102C 220.391,103.274 223.058,104.774 225.5,106.5C 226.99,108.28 228.99,108.946 231.5,108.5C 233.466,121.407 233.466,134.407 231.5,147.5C 229.929,157.551 226.596,166.884 221.5,175.5C 217.23,182.438 212.563,189.105 207.5,195.5C 200.821,201.181 194.155,206.848 187.5,212.5C 152.356,233.757 114.356,240.591 73.5,233C 62.4577,230.475 52.1244,226.308 42.5,220.5C 41.479,221.002 41.3123,221.668 42,222.5C 49.0814,228.909 56.7481,234.575 65,239.5C 74.939,243.758 85.1057,247.091 95.5,249.5C 63.5,249.5 31.5,249.5 -0.5,249.5C -0.5,211.5 -0.5,173.5 -0.5,135.5C -0.166667,135.5 0.166667,135.5 0.5,135.5C 1.77764,152.38 6.77764,168.047 15.5,182.5C 33.6971,208.819 58.6971,219.319 90.5,214C 115.918,209.12 138.584,198.62 158.5,182.5C 160.783,179.697 163.45,177.364 166.5,175.5C 167.552,175.649 168.552,175.483 169.5,175C 171.758,172.415 173.591,169.582 175,166.5C 176.11,164.963 177.61,164.297 179.5,164.5C 179.708,158.412 181.875,152.745 186,147.5C 190.557,131.151 192.391,114.484 191.5,97.5C 188.996,96.3608 186.33,95.6941 183.5,95.5C 173.662,89.4154 163.996,83.082 154.5,76.5C 145.074,69.6091 135.407,62.9424 125.5,56.5C 120.06,59.4303 114.726,62.5969 109.5,66C 108.29,67.0391 107.29,68.2058 106.5,69.5C 97.4528,75.868 88.1195,81.868 78.5,87.5C 74.6983,89.3959 70.6983,91.2292 66.5,93C 64.7444,95.4152 62.2444,97.5819 59,99.5C 58.5704,107.876 59.0704,116.209 60.5,124.5C 59.5316,130.908 61.1982,136.575 65.5,141.5C 71.9108,157.459 81.2441,171.626 93.5,184C 94.6086,184.638 95.7753,185.138 97,185.5C 102.912,184.291 108.412,182.124 113.5,179C 107.013,174.342 101.013,169.176 95.5,163.5C 91.1244,156.43 86.9577,149.097 83,141.5C 81.1072,136.993 79.9405,132.327 79.5,127.5C 78.9249,121.833 78.7583,116.167 79,110.5C 83.6222,106.805 88.4555,103.305 93.5,100C 95.1261,100.195 96.7928,100.195 98.5,100C 100.994,95.7577 103.994,91.9244 107.5,88.5C 112.833,84.5 118.167,80.5 123.5,76.5C 124.833,76.5 126.167,76.5 127.5,76.5C 141.992,87.2458 156.659,97.7458 171.5,108C 172.448,108.483 173.448,108.649 174.5,108.5C 174.5,112.167 174.5,115.833 174.5,119.5C 172.563,124.582 171.23,129.915 170.5,135.5C 166.773,143.157 162.939,150.823 159,158.5C 154.896,162.095 151.396,166.095 148.5,170.5C 132.927,181.62 115.927,190.12 97.5,196C 79.3509,201.957 62.0176,200.29 45.5,191C 38.1747,184.185 31.508,177.018 25.5,169.5C 23.8,163.759 21.8,158.092 19.5,152.5C 23.5391,147.543 25.0391,141.876 24,135.5C 22.1718,131.85 19.3385,129.516 15.5,128.5C 15.3079,118.764 15.9745,109.098 17.5,99.5C 18.5862,99.38 19.2528,98.7133 19.5,97.5C 20.478,92.0796 22.1447,86.9129 24.5,82C 30.3895,83.2303 36.3895,83.5636 42.5,83C 61.9053,77.05 70.4053,63.8833 68,43.5C 67.861,40.5547 66.6943,38.2214 64.5,36.5C 65.2657,32.9153 67.5991,30.9153 71.5,30.5C 72.8734,30.6567 74.2068,30.49 75.5,30C 82.079,26.5721 88.7456,23.4055 95.5,20.5C 100.128,20.8837 104.461,20.0504 108.5,18C 121.176,17.4386 133.843,17.6053 146.5,18.5 Z"/></g>
<g><path style="opacity:1" fill="#19aba2" d="M 111.5,-0.5 C 119.5,-0.5 127.5,-0.5 135.5,-0.5C 155.394,2.14207 174.06,8.47541 191.5,18.5C 203.761,26.3155 214.428,35.9822 223.5,47.5C 222.244,47.9038 221.077,48.5705 220,49.5C 217.152,48.1066 214.319,46.7732 211.5,45.5C 210.289,46.2739 210.289,47.1072 211.5,48C 210.011,49.4685 208.677,50.9685 207.5,52.5C 197.656,42.6578 186.656,34.3244 174.5,27.5C 165.621,23.023 156.287,20.023 146.5,18.5C 133.767,15.115 120.767,14.615 107.5,17C 103.207,17.6438 99.207,18.8104 95.5,20.5C 89.2523,21.4535 83.2523,23.2868 77.5,26C 75.2528,27.2775 73.2528,28.7775 71.5,30.5C 67.5991,30.9153 65.2657,32.9153 64.5,36.5C 64.7167,39.4353 65.3834,42.2687 66.5,45C 65.8773,48.4813 65.3773,51.9813 65,55.5C 64.8171,52.6353 64.3171,49.9686 63.5,47.5C 63.162,45.146 62.662,42.8127 62,40.5C 60.8668,38.7888 59.3668,38.2888 57.5,39C 45.4406,49.2151 35.4406,61.0485 27.5,74.5C 27.719,73.325 27.3857,72.325 26.5,71.5C 23.0037,72.4777 22.6704,71.6444 25.5,69C 22.4691,67.9252 20.4691,68.9252 19.5,72C 18.451,72.4922 17.451,72.3256 16.5,71.5C 15.6816,74.1071 15.1816,76.7737 15,79.5C 13.1884,76.3091 13.0217,72.9758 14.5,69.5C 17.9189,67.4593 21.5855,65.9593 25.5,65C 23.5273,64.5045 21.5273,64.3379 19.5,64.5C 19.3398,62.8008 19.5065,61.1341 20,59.5C 22.2132,56.9054 24.0466,54.0721 25.5,51C 29.3264,46.2417 33.4931,41.7417 38,37.5C 38.3333,37.8333 38.6667,38.1667 39,38.5C 39.49,37.2068 39.6567,35.8734 39.5,34.5C 40.5,34.5 41.5,34.5 42.5,34.5C 42.3915,32.4862 43.0582,30.8195 44.5,29.5C 47.424,26.0392 50.7574,23.0392 54.5,20.5C 72.0572,9.36876 91.0572,2.36876 111.5,-0.5 Z"/></g>
<g><path style="opacity:1" fill="#c9f1ef" d="M 146.5,18.5 C 133.843,17.6053 121.176,17.4386 108.5,18C 104.461,20.0504 100.128,20.8837 95.5,20.5C 99.207,18.8104 103.207,17.6438 107.5,17C 120.767,14.615 133.767,15.115 146.5,18.5 Z"/></g>
<g><path style="opacity:1" fill="#caf5f3" d="M 95.5,20.5 C 88.7456,23.4055 82.079,26.5721 75.5,30C 74.2068,30.49 72.8734,30.6567 71.5,30.5C 73.2528,28.7775 75.2528,27.2775 77.5,26C 83.2523,23.2868 89.2523,21.4535 95.5,20.5 Z"/></g>
<g><path style="opacity:1" fill="#32b3aa" d="M 223.5,47.5 C 228.826,53.4763 233.159,60.1429 236.5,67.5C 236.338,69.5273 236.505,71.5273 237,73.5C 238.464,74.459 239.297,75.7923 239.5,77.5C 238.106,79.6457 237.44,81.979 237.5,84.5C 238.5,84.5 239.5,84.5 240.5,84.5C 240.815,86.2259 240.981,87.8925 241,89.5C 238.731,87.7313 236.398,87.0647 234,87.5C 233.833,88.8333 233.667,90.1667 233.5,91.5C 234.021,93.9241 234.688,96.2574 235.5,98.5C 234.041,98.5674 232.708,98.2341 231.5,97.5C 228.822,88.6034 225.322,79.9367 221,71.5C 219.855,70.3157 218.688,70.3157 217.5,71.5C 216.5,71.5 215.5,71.5 214.5,71.5C 214.5,70.5 214.5,69.5 214.5,68.5C 215.391,67.7387 216.058,66.7387 216.5,65.5C 213.727,60.9345 210.727,56.6011 207.5,52.5C 208.677,50.9685 210.011,49.4685 211.5,48C 210.289,47.1072 210.289,46.2739 211.5,45.5C 214.319,46.7732 217.152,48.1066 220,49.5C 221.077,48.5705 222.244,47.9038 223.5,47.5 Z"/></g>
<g><path style="opacity:1" fill="#30b5ac" d="M 154.5,76.5 C 154.5,77.5 154.5,78.5 154.5,79.5C 151.102,79.1417 147.935,79.8084 145,81.5C 141.392,80.2002 138.058,78.5335 135,76.5C 132.637,77.1513 130.137,77.1513 127.5,76.5C 126.167,76.5 124.833,76.5 123.5,76.5C 120.404,76.9186 117.737,78.2519 115.5,80.5C 110.928,79.2132 106.428,79.5465 102,81.5C 99.7473,81.3687 97.5806,80.8687 95.5,80C 94.1667,79.3333 94.1667,78.6667 95.5,78C 100.564,75.9384 104.23,73.1051 106.5,69.5C 107.29,68.2058 108.29,67.0391 109.5,66C 114.726,62.5969 120.06,59.4303 125.5,56.5C 135.407,62.9424 145.074,69.6091 154.5,76.5 Z"/></g>
<g><path style="opacity:1" fill="#3fb6ad" d="M 44.5,29.5 C 43.0582,30.8195 42.3915,32.4862 42.5,34.5C 41.5,34.5 40.5,34.5 39.5,34.5C 39.6567,35.8734 39.49,37.2068 39,38.5C 38.6667,38.1667 38.3333,37.8333 38,37.5C 33.4931,41.7417 29.3264,46.2417 25.5,51C 24.0466,54.0721 22.2132,56.9054 20,59.5C 19.5065,61.1341 19.3398,62.8008 19.5,64.5C 21.5273,64.3379 23.5273,64.5045 25.5,65C 21.5855,65.9593 17.9189,67.4593 14.5,69.5C 13.0217,72.9758 13.1884,76.3091 15,79.5C 15.1816,76.7737 15.6816,74.1071 16.5,71.5C 17.451,72.3256 18.451,72.4922 19.5,72C 20.4691,68.9252 22.4691,67.9252 25.5,69C 22.6704,71.6444 23.0037,72.4777 26.5,71.5C 27.3857,72.325 27.719,73.325 27.5,74.5C 27.5,75.5 27.5,76.5 27.5,77.5C 43.0795,80.6234 54.5795,75.2901 62,61.5C 63.2252,56.9147 63.7252,52.248 63.5,47.5C 64.3171,49.9686 64.8171,52.6353 65,55.5C 65.3773,51.9813 65.8773,48.4813 66.5,45C 65.3834,42.2687 64.7167,39.4353 64.5,36.5C 66.6943,38.2214 67.861,40.5547 68,43.5C 70.4053,63.8833 61.9053,77.05 42.5,83C 36.3895,83.5636 30.3895,83.2303 24.5,82C 22.1447,86.9129 20.478,92.0796 19.5,97.5C 19.2528,98.7133 18.5862,99.38 17.5,99.5C 16.596,100.209 16.2627,101.209 16.5,102.5C 15.1779,102.33 14.0113,102.663 13,103.5C 11.2932,105.909 10.4598,108.575 10.5,111.5C 9.5,111.5 8.5,111.5 7.5,111.5C 7.26006,108.421 7.59339,105.421 8.5,102.5C 7.1166,99.9244 6.28327,100.258 6,103.5C 6.57766,99.9915 6.41099,96.4915 5.5,93C 6.31516,88.4201 7.31516,83.9201 8.5,79.5C 15.4222,59.2344 27.4222,42.5677 44.5,29.5 Z"/></g>
<g><path style="opacity:1" fill="#f5fcfb" d="M 63.5,47.5 C 63.7252,52.248 63.2252,56.9147 62,61.5C 54.5795,75.2901 43.0795,80.6234 27.5,77.5C 27.5,76.5 27.5,75.5 27.5,74.5C 35.4406,61.0485 45.4406,49.2151 57.5,39C 59.3668,38.2888 60.8668,38.7888 62,40.5C 62.662,42.8127 63.162,45.146 63.5,47.5 Z"/></g>
<g><path style="opacity:1" fill="#4bbbb2" d="M 236.5,67.5 C 238.916,72.2197 241.249,77.0531 243.5,82C 245.345,88.6593 247.345,95.1593 249.5,101.5C 249.5,107.5 249.5,113.5 249.5,119.5C 245.566,119.021 241.899,119.688 238.5,121.5C 235.935,116.927 234.768,111.927 235,106.5C 234.31,105.262 233.81,105.262 233.5,106.5C 230.833,106.5 228.167,106.5 225.5,106.5C 223.058,104.774 220.391,103.274 217.5,102C 214.874,98.5782 212.374,95.0782 210,91.5C 207.25,82.8573 208.75,75.1906 214.5,68.5C 214.5,69.5 214.5,70.5 214.5,71.5C 215.5,71.5 216.5,71.5 217.5,71.5C 210.539,84.4046 213.539,94.238 226.5,101C 228.134,101.494 229.801,101.66 231.5,101.5C 231.5,100.167 231.5,98.8333 231.5,97.5C 232.708,98.2341 234.041,98.5674 235.5,98.5C 234.688,96.2574 234.021,93.9241 233.5,91.5C 233.667,90.1667 233.833,88.8333 234,87.5C 236.398,87.0647 238.731,87.7313 241,89.5C 240.981,87.8925 240.815,86.2259 240.5,84.5C 239.5,84.5 238.5,84.5 237.5,84.5C 237.44,81.979 238.106,79.6457 239.5,77.5C 239.297,75.7923 238.464,74.459 237,73.5C 236.505,71.5273 236.338,69.5273 236.5,67.5 Z"/></g>
<g><path style="opacity:1" fill="#effbfa" d="M 231.5,97.5 C 231.5,98.8333 231.5,100.167 231.5,101.5C 229.801,101.66 228.134,101.494 226.5,101C 213.539,94.238 210.539,84.4046 217.5,71.5C 218.688,70.3157 219.855,70.3157 221,71.5C 225.322,79.9367 228.822,88.6034 231.5,97.5 Z"/></g>
<g><path style="opacity:1" fill="#e4faf8" d="M 107.5,88.5 C 103.994,91.9244 100.994,95.7577 98.5,100C 96.7928,100.195 95.1261,100.195 93.5,100C 88.4555,103.305 83.6222,106.805 79,110.5C 78.7583,116.167 78.9249,121.833 79.5,127.5C 78.2568,123.214 77.2568,118.881 76.5,114.5C 76.2436,112.208 76.5769,110.041 77.5,108C 87.4005,101.251 97.4005,94.7508 107.5,88.5 Z"/></g>
<g><path style="opacity:1" fill="#46bbb3" d="M 106.5,69.5 C 104.23,73.1051 100.564,75.9384 95.5,78C 94.1667,78.6667 94.1667,79.3333 95.5,80C 97.5806,80.8687 99.7473,81.3687 102,81.5C 106.428,79.5465 110.928,79.2132 115.5,80.5C 117.737,78.2519 120.404,76.9186 123.5,76.5C 118.167,80.5 112.833,84.5 107.5,88.5C 97.4005,94.7508 87.4005,101.251 77.5,108C 76.5769,110.041 76.2436,112.208 76.5,114.5C 76.5,118.833 76.5,123.167 76.5,127.5C 74.8333,127.5 73.1667,127.5 71.5,127.5C 71.2606,129.467 71.5939,131.301 72.5,133C 72.1667,133.167 71.8333,133.333 71.5,133.5C 70.7189,132.271 70.2189,130.938 70,129.5C 67.5397,130.755 66.373,132.755 66.5,135.5C 63.4283,126.042 61.7616,116.208 61.5,106C 61.3026,103.176 61.9693,100.676 63.5,98.5C 68.6776,95.0776 73.6776,91.411 78.5,87.5C 88.1195,81.868 97.4528,75.868 106.5,69.5 Z"/></g>
<g><path style="opacity:1" fill="#47bbb3" d="M 127.5,76.5 C 130.137,77.1513 132.637,77.1513 135,76.5C 138.058,78.5335 141.392,80.2002 145,81.5C 147.935,79.8084 151.102,79.1417 154.5,79.5C 154.5,78.5 154.5,77.5 154.5,76.5C 163.996,83.082 173.662,89.4154 183.5,95.5C 184.984,97.0737 186.651,98.407 188.5,99.5C 189.517,108.107 189.017,116.774 187,125.5C 186.667,124.833 186.333,124.167 186,123.5C 185.667,125.5 185.333,127.5 185,129.5C 183.951,127.893 182.451,127.227 180.5,127.5C 180.785,129.288 180.452,130.955 179.5,132.5C 175.563,129.118 173.896,124.785 174.5,119.5C 174.5,115.833 174.5,112.167 174.5,108.5C 173.448,108.649 172.448,108.483 171.5,108C 156.659,97.7458 141.992,87.2458 127.5,76.5 Z"/></g>
<g><path style="opacity:1" fill="#54bfb8" d="M 8.5,79.5 C 7.31516,83.9201 6.31516,88.4201 5.5,93C 6.41099,96.4915 6.57766,99.9915 6,103.5C 6.28327,100.258 7.1166,99.9244 8.5,102.5C 7.59339,105.421 7.26006,108.421 7.5,111.5C 8.5,111.5 9.5,111.5 10.5,111.5C 10.4598,108.575 11.2932,105.909 13,103.5C 14.0113,102.663 15.1779,102.33 16.5,102.5C 16.2627,101.209 16.596,100.209 17.5,99.5C 15.9745,109.098 15.3079,118.764 15.5,128.5C 16.2899,129.794 17.2899,130.961 18.5,132C 17.944,132.383 17.6107,132.883 17.5,133.5C 16.8333,133.5 16.1667,133.5 15.5,133.5C 14.6091,134.261 13.9424,135.261 13.5,136.5C 14.0525,138.727 14.0525,141.061 13.5,143.5C 12.5,143.5 11.5,143.5 10.5,143.5C 10.5591,140.038 9.55914,137.038 7.5,134.5C 7.16667,135.667 6.83333,136.833 6.5,138C 7.07324,140.006 7.07324,141.84 6.5,143.5C 5.7022,141.922 5.2022,140.256 5,138.5C 3.24947,137.778 1.74947,136.778 0.5,135.5C 0.166667,135.5 -0.166667,135.5 -0.5,135.5C -0.5,127.5 -0.5,119.5 -0.5,111.5C 0.691412,100.348 3.69141,89.6817 8.5,79.5 Z"/></g>
<g><path style="opacity:1" fill="#dcf8f7" d="M 225.5,106.5 C 228.167,106.5 230.833,106.5 233.5,106.5C 234.36,116.139 234.693,125.806 234.5,135.5C 233.823,139.571 232.823,143.571 231.5,147.5C 233.466,134.407 233.466,121.407 231.5,108.5C 228.99,108.946 226.99,108.28 225.5,106.5 Z"/></g>
<g><path style="opacity:1" fill="#e6fbfa" d="M 78.5,87.5 C 73.6776,91.411 68.6776,95.0776 63.5,98.5C 62.5041,98.4142 61.6708,98.7476 61,99.5C 60.3333,106.167 60.3333,112.833 61,119.5C 62.3974,126.893 63.8974,134.226 65.5,141.5C 61.1982,136.575 59.5316,130.908 60.5,124.5C 59.0704,116.209 58.5704,107.876 59,99.5C 62.2444,97.5819 64.7444,95.4152 66.5,93C 70.6983,91.2292 74.6983,89.3959 78.5,87.5 Z"/></g>
<g><path style="opacity:1" fill="#67c6be" d="M 188.5,99.5 C 189.117,99.6107 189.617,99.944 190,100.5C 190.698,117.376 188.032,133.709 182,149.5C 179.802,154.655 176.969,159.322 173.5,163.5C 172.761,163.369 172.094,163.536 171.5,164C 170.624,166.146 169.291,167.979 167.5,169.5C 165.386,170.034 163.552,171.034 162,172.5C 161.377,168.068 160.377,167.735 159,171.5C 157.301,170.594 155.467,170.261 153.5,170.5C 155.256,165.555 158.089,161.222 162,157.5C 163.56,153.589 165.56,149.922 168,146.5C 169.31,142.93 170.143,139.263 170.5,135.5C 171.23,129.915 172.563,124.582 174.5,119.5C 173.896,124.785 175.563,129.118 179.5,132.5C 180.452,130.955 180.785,129.288 180.5,127.5C 182.451,127.227 183.951,127.893 185,129.5C 185.333,127.5 185.667,125.5 186,123.5C 186.333,124.167 186.667,124.833 187,125.5C 189.017,116.774 189.517,108.107 188.5,99.5 Z"/></g>
<g><path style="opacity:1" fill="#60c4bc" d="M 249.5,119.5 C 249.5,127.5 249.5,135.5 249.5,143.5C 248.504,143.414 247.671,143.748 247,144.5C 246.64,146.608 245.973,148.608 245,150.5C 243.989,151.337 242.822,151.67 241.5,151.5C 241.273,158.76 239.94,159.093 237.5,152.5C 235.501,154.493 234.001,156.827 233,159.5C 233.161,151.496 233.661,143.496 234.5,135.5C 234.693,125.806 234.36,116.139 233.5,106.5C 233.81,105.262 234.31,105.262 235,106.5C 234.768,111.927 235.935,116.927 238.5,121.5C 241.899,119.688 245.566,119.021 249.5,119.5 Z"/></g>
<g><path style="opacity:1" fill="#282639" d="M 117.5,135.5 C 117.334,126.494 117.5,117.494 118,108.5C 119.918,104.996 122.084,101.663 124.5,98.5C 127.974,101.479 130.474,105.146 132,109.5C 132.168,118.186 132.668,126.852 133.5,135.5C 137.992,137.585 141.992,140.418 145.5,144C 131.833,144.667 118.167,144.667 104.5,144C 107.912,139.636 112.245,136.802 117.5,135.5 Z"/></g>
<g><path style="opacity:1" fill="#25223d" d="M 117.5,135.5 C 118.117,135.611 118.617,135.944 119,136.5C 119.333,128.167 119.667,119.833 120,111.5C 120.724,109.041 122.057,108.041 124,108.5C 124.667,103.167 125.333,103.167 126,108.5C 126.667,109.833 127.333,109.833 128,108.5C 128.419,109.672 129.085,110.672 130,111.5C 130.167,115.5 130.333,119.5 130.5,123.5C 130.375,129.532 129.542,135.199 128,140.5C 129.364,141.258 130.531,140.758 131.5,139C 133.025,137.991 134.692,137.491 136.5,137.5C 136.452,140.292 137.785,142.125 140.5,143C 138.333,143.167 136.167,143.333 134,143.5C 128.517,142.537 123.017,141.703 117.5,141C 116.464,139.224 116.464,137.391 117.5,135.5 Z"/></g>
<g><path style="opacity:1" fill="#e5faf9" d="M 183.5,95.5 C 186.33,95.6941 188.996,96.3608 191.5,97.5C 192.391,114.484 190.557,131.151 186,147.5C 181.875,152.745 179.708,158.412 179.5,164.5C 177.61,164.297 176.11,164.963 175,166.5C 173.591,169.582 171.758,172.415 169.5,175C 168.552,175.483 167.552,175.649 166.5,175.5C 168.861,171.483 171.194,167.483 173.5,163.5C 176.969,159.322 179.802,154.655 182,149.5C 188.032,133.709 190.698,117.376 190,100.5C 189.617,99.944 189.117,99.6107 188.5,99.5C 186.651,98.407 184.984,97.0737 183.5,95.5 Z"/></g>
<g><path style="opacity:1" fill="#48b2a8" d="M 218.5,163.5 C 217.5,163.5 216.5,163.5 215.5,163.5C 215.81,160.287 215.477,157.287 214.5,154.5C 212.878,152.391 210.712,151.391 208,151.5C 205.992,151.307 204.492,151.974 203.5,153.5C 201.063,154.964 199.23,156.964 198,159.5C 197.505,157.527 197.338,155.527 197.5,153.5C 198.686,150.66 200.686,148.494 203.5,147C 207.167,146.333 210.833,146.333 214.5,147C 219.313,151.547 220.647,157.047 218.5,163.5 Z"/></g>
<g><path style="opacity:1" fill="#4fb3aa" d="M 117.5,147.5 C 122.5,147.5 127.5,147.5 132.5,147.5C 132.61,150.059 131.944,152.392 130.5,154.5C 129.833,153.833 129.167,153.167 128.5,152.5C 128.167,152.833 127.833,153.167 127.5,153.5C 126.855,156.228 126.021,158.895 125,161.5C 123.734,158.534 122.567,155.534 121.5,152.5C 120.833,153.167 120.167,153.833 119.5,154.5C 118.056,152.392 117.39,150.059 117.5,147.5 Z"/></g>
<g><path style="opacity:1" fill="#f3fcfb" d="M 214.5,154.5 C 214.845,164.364 211.012,166.698 203,161.5C 202.398,158.779 202.565,156.113 203.5,153.5C 204.492,151.974 205.992,151.307 208,151.5C 210.712,151.391 212.878,152.391 214.5,154.5 Z"/></g>
<g><path style="opacity:1" fill="#fcfefe" d="M 249.5,147.5 C 249.5,181.5 249.5,215.5 249.5,249.5C 214.833,249.5 180.167,249.5 145.5,249.5C 158.151,246.728 170.484,242.728 182.5,237.5C 185.427,235.216 188.427,233.216 191.5,231.5C 200.086,226.895 207.419,220.895 213.5,213.5C 224.456,203.851 232.79,192.184 238.5,178.5C 242.8,168.259 246.467,157.926 249.5,147.5 Z"/></g>
<g><path style="opacity:1" fill="#75c9c1" d="M 15.5,128.5 C 19.3385,129.516 22.1718,131.85 24,135.5C 25.0391,141.876 23.5391,147.543 19.5,152.5C 21.8,158.092 23.8,163.759 25.5,169.5C 26.4963,172.482 26.663,175.482 26,178.5C 26.7412,177.359 27.5745,177.359 28.5,178.5C 29.1667,179.833 29.8333,181.167 30.5,182.5C 31.1924,181.975 31.6924,181.308 32,180.5C 35.2227,182.036 37.2227,184.369 38,187.5C 34.9834,189.021 33.15,188.021 32.5,184.5C 31.7492,185.376 31.2492,186.376 31,187.5C 27.541,186.867 24.041,186.2 20.5,185.5C 19.3115,183.738 17.6449,182.738 15.5,182.5C 6.77764,168.047 1.77764,152.38 0.5,135.5C 1.74947,136.778 3.24947,137.778 5,138.5C 5.2022,140.256 5.7022,141.922 6.5,143.5C 7.07324,141.84 7.07324,140.006 6.5,138C 6.83333,136.833 7.16667,135.667 7.5,134.5C 9.55914,137.038 10.5591,140.038 10.5,143.5C 11.5,143.5 12.5,143.5 13.5,143.5C 14.0525,141.061 14.0525,138.727 13.5,136.5C 13.9424,135.261 14.6091,134.261 15.5,133.5C 16.3242,136.764 16.6576,140.098 16.5,143.5C 17.5,143.5 18.5,143.5 19.5,143.5C 19.9661,139.838 19.2994,136.505 17.5,133.5C 17.6107,132.883 17.944,132.383 18.5,132C 17.2899,130.961 16.2899,129.794 15.5,128.5 Z"/></g>
<g><path style="opacity:1" fill="#d0f5f4" d="M 15.5,133.5 C 16.1667,133.5 16.8333,133.5 17.5,133.5C 19.2994,136.505 19.9661,139.838 19.5,143.5C 18.5,143.5 17.5,143.5 16.5,143.5C 16.6576,140.098 16.3242,136.764 15.5,133.5 Z"/></g>
<g><path style="opacity:1" fill="#6fc9c1" d="M 76.5,114.5 C 77.2568,118.881 78.2568,123.214 79.5,127.5C 79.9405,132.327 81.1072,136.993 83,141.5C 86.9577,149.097 91.1244,156.43 95.5,163.5C 97.2913,167.483 99.6246,171.15 102.5,174.5C 99.5,175.833 96.5,177.167 93.5,178.5C 91.1345,177.97 89.1345,176.803 87.5,175C 77.7578,163.352 70.7578,150.185 66.5,135.5C 66.373,132.755 67.5397,130.755 70,129.5C 70.2189,130.938 70.7189,132.271 71.5,133.5C 71.8333,133.333 72.1667,133.167 72.5,133C 71.5939,131.301 71.2606,129.467 71.5,127.5C 73.1667,127.5 74.8333,127.5 76.5,127.5C 76.5,123.167 76.5,118.833 76.5,114.5 Z"/></g>
<g><path style="opacity:1" fill="#9ed5ce" d="M 197.5,153.5 C 197.338,155.527 197.505,157.527 198,159.5C 199.23,156.964 201.063,154.964 203.5,153.5C 202.565,156.113 202.398,158.779 203,161.5C 211.012,166.698 214.845,164.364 214.5,154.5C 215.477,157.287 215.81,160.287 215.5,163.5C 216.5,163.5 217.5,163.5 218.5,163.5C 213.308,170.208 207.141,171.208 200,166.5C 196.634,162.513 195.801,158.18 197.5,153.5 Z"/></g>
<g><path style="opacity:1" fill="#81c9c2" d="M 63.5,98.5 C 61.9693,100.676 61.3026,103.176 61.5,106C 61.7616,116.208 63.4283,126.042 66.5,135.5C 70.7578,150.185 77.7578,163.352 87.5,175C 89.1345,176.803 91.1345,177.97 93.5,178.5C 96.5,177.167 99.5,175.833 102.5,174.5C 99.6246,171.15 97.2913,167.483 95.5,163.5C 101.013,169.176 107.013,174.342 113.5,179C 108.412,182.124 102.912,184.291 97,185.5C 95.7753,185.138 94.6086,184.638 93.5,184C 81.2441,171.626 71.9108,157.459 65.5,141.5C 63.8974,134.226 62.3974,126.893 61,119.5C 60.3333,112.833 60.3333,106.167 61,99.5C 61.6708,98.7476 62.5041,98.4142 63.5,98.5 Z"/></g>
<g><path style="opacity:1" fill="#7dccc5" d="M 234.5,135.5 C 233.661,143.496 233.161,151.496 233,159.5C 234.001,156.827 235.501,154.493 237.5,152.5C 239.94,159.093 241.273,158.76 241.5,151.5C 242.822,151.67 243.989,151.337 245,150.5C 245.973,148.608 246.64,146.608 247,144.5C 247.671,143.748 248.504,143.414 249.5,143.5C 249.5,144.833 249.5,146.167 249.5,147.5C 246.467,157.926 242.8,168.259 238.5,178.5C 237.504,178.414 236.671,178.748 236,179.5C 233.337,186.168 229.671,192.168 225,197.5C 223.243,196.881 222.076,195.714 221.5,194C 222.897,190.592 223.397,187.092 223,183.5C 222,184.833 221,186.167 220,187.5C 217.847,185.125 218.18,183.125 221,181.5C 221.495,179.527 221.662,177.527 221.5,175.5C 226.596,166.884 229.929,157.551 231.5,147.5C 232.823,143.571 233.823,139.571 234.5,135.5 Z"/></g>
<g><path style="opacity:1" fill="#80cec7" d="M 170.5,135.5 C 170.143,139.263 169.31,142.93 168,146.5C 165.56,149.922 163.56,153.589 162,157.5C 158.089,161.222 155.256,165.555 153.5,170.5C 155.467,170.261 157.301,170.594 159,171.5C 160.377,167.735 161.377,168.068 162,172.5C 163.552,171.034 165.386,170.034 167.5,169.5C 169.291,167.979 170.624,166.146 171.5,164C 172.094,163.536 172.761,163.369 173.5,163.5C 171.194,167.483 168.861,171.483 166.5,175.5C 163.45,177.364 160.783,179.697 158.5,182.5C 154.274,183.617 150.607,185.784 147.5,189C 145.053,189.973 142.553,190.806 140,191.5C 138.833,191.167 137.667,190.833 136.5,190.5C 136.709,189.914 137.043,189.414 137.5,189C 135.833,188.667 134.167,188.333 132.5,188C 132.262,185.438 133.262,183.104 135.5,181C 139.455,178.853 143.455,177.019 147.5,175.5C 147.366,173.708 147.699,172.042 148.5,170.5C 151.396,166.095 154.896,162.095 159,158.5C 162.939,150.823 166.773,143.157 170.5,135.5 Z"/></g>
<g><path style="opacity:1" fill="#90d3cc" d="M 25.5,169.5 C 31.508,177.018 38.1747,184.185 45.5,191C 62.0176,200.29 79.3509,201.957 97.5,196C 115.927,190.12 132.927,181.62 148.5,170.5C 147.699,172.042 147.366,173.708 147.5,175.5C 143.455,177.019 139.455,178.853 135.5,181C 133.262,183.104 132.262,185.438 132.5,188C 134.167,188.333 135.833,188.667 137.5,189C 137.043,189.414 136.709,189.914 136.5,190.5C 137.667,190.833 138.833,191.167 140,191.5C 142.553,190.806 145.053,189.973 147.5,189C 150.607,185.784 154.274,183.617 158.5,182.5C 138.584,198.62 115.918,209.12 90.5,214C 58.6971,219.319 33.6971,208.819 15.5,182.5C 17.6449,182.738 19.3115,183.738 20.5,185.5C 24.041,186.2 27.541,186.867 31,187.5C 31.2492,186.376 31.7492,185.376 32.5,184.5C 33.15,188.021 34.9834,189.021 38,187.5C 37.2227,184.369 35.2227,182.036 32,180.5C 31.6924,181.308 31.1924,181.975 30.5,182.5C 29.8333,181.167 29.1667,179.833 28.5,178.5C 27.5745,177.359 26.7412,177.359 26,178.5C 26.663,175.482 26.4963,172.482 25.5,169.5 Z"/></g>
<g><path style="opacity:1" fill="#91d4cd" d="M 221.5,175.5 C 221.662,177.527 221.495,179.527 221,181.5C 218.18,183.125 217.847,185.125 220,187.5C 221,186.167 222,184.833 223,183.5C 223.397,187.092 222.897,190.592 221.5,194C 222.076,195.714 223.243,196.881 225,197.5C 229.671,192.168 233.337,186.168 236,179.5C 236.671,178.748 237.504,178.414 238.5,178.5C 232.79,192.184 224.456,203.851 213.5,213.5C 208.155,213.608 203.489,212.942 199.5,211.5C 199.773,209.549 199.107,208.049 197.5,207C 200.99,204.509 204.157,201.675 207,198.5C 207.483,197.552 207.649,196.552 207.5,195.5C 212.563,189.105 217.23,182.438 221.5,175.5 Z"/></g>
<g><path style="opacity:1" fill="#9ed7d1" d="M 207.5,195.5 C 207.649,196.552 207.483,197.552 207,198.5C 204.157,201.675 200.99,204.509 197.5,207C 199.107,208.049 199.773,209.549 199.5,211.5C 203.489,212.942 208.155,213.608 213.5,213.5C 207.419,220.895 200.086,226.895 191.5,231.5C 192.252,229.9 193.252,228.4 194.5,227C 194.167,226.833 193.833,226.667 193.5,226.5C 191.293,228.029 188.793,228.695 186,228.5C 182.818,227.241 178.818,226.241 174,225.5C 172.234,226.233 170.401,226.567 168.5,226.5C 168.5,225.5 168.5,224.5 168.5,223.5C 172.035,222.107 175.702,220.94 179.5,220C 182.473,217.706 185.14,215.206 187.5,212.5C 194.155,206.848 200.821,201.181 207.5,195.5 Z"/></g>
<g><path style="opacity:1" fill="#addcd6" d="M 187.5,212.5 C 185.14,215.206 182.473,217.706 179.5,220C 175.702,220.94 172.035,222.107 168.5,223.5C 168.5,224.5 168.5,225.5 168.5,226.5C 170.401,226.567 172.234,226.233 174,225.5C 178.818,226.241 182.818,227.241 186,228.5C 188.793,228.695 191.293,228.029 193.5,226.5C 193.833,226.667 194.167,226.833 194.5,227C 193.252,228.4 192.252,229.9 191.5,231.5C 188.427,233.216 185.427,235.216 182.5,237.5C 170.484,242.728 158.151,246.728 145.5,249.5C 128.833,249.5 112.167,249.5 95.5,249.5C 85.1057,247.091 74.939,243.758 65,239.5C 56.7481,234.575 49.0814,228.909 42,222.5C 41.3123,221.668 41.479,221.002 42.5,220.5C 52.1244,226.308 62.4577,230.475 73.5,233C 114.356,240.591 152.356,233.757 187.5,212.5 Z"/></g>
</svg>
