<?xml version="1.0" encoding="UTF-8"?>
<!DOCTYPE svg PUBLIC "-//W3C//DTD SVG 1.1//EN" "http://www.w3.org/Graphics/SVG/1.1/DTD/svg11.dtd">
<svg xmlns="http://www.w3.org/2000/svg" version="1.1" width="250px" height="250px" style="shape-rendering:geometricPrecision; text-rendering:geometricPrecision; image-rendering:optimizeQuality; fill-rule:evenodd; clip-rule:evenodd" xmlns:xlink="http://www.w3.org/1999/xlink">
<g><path style="opacity:0.157" fill="#481b2d" d="M 96.5,-0.5 C 106.167,-0.5 115.833,-0.5 125.5,-0.5C 125.5,-0.166667 125.5,0.166667 125.5,0.5C 120.845,1.16592 116.012,1.49926 111,1.5C 105.784,1.49374 100.951,0.827077 96.5,-0.5 Z"/></g>
<g><path style="opacity:0.014" fill="#0e080a" d="M 151.5,-0.5 C 157.5,-0.5 163.5,-0.5 169.5,-0.5C 169.5,0.833333 169.5,2.16667 169.5,3.5C 164.18,4.26573 158.846,4.4324 153.5,4C 151.893,2.95101 151.227,1.45101 151.5,-0.5 Z"/></g>
<g><path style="opacity:0.008" fill="#0c0608" d="M 50.5,-0.5 C 56.5,-0.5 62.5,-0.5 68.5,-0.5C 68.7733,1.45101 68.1066,2.95101 66.5,4C 61.1462,4.52852 55.8129,4.36185 50.5,3.5C 50.5,2.16667 50.5,0.833333 50.5,-0.5 Z"/></g>
<g><path style="opacity:0.64" fill="#0b0407" d="M 92.5,-0.5 C 93.8333,-0.5 95.1667,-0.5 96.5,-0.5C 100.951,0.827077 105.784,1.49374 111,1.5C 116.012,1.49926 120.845,1.16592 125.5,0.5C 132.973,2.18927 140.64,3.0226 148.5,3C 150.853,5.91669 153.52,8.41669 156.5,10.5C 155.325,10.281 154.325,10.6143 153.5,11.5C 156.373,13.8942 159.706,15.3942 163.5,16C 166.774,18.604 167.107,21.4373 164.5,24.5C 164.709,25.086 165.043,25.586 165.5,26C 164.207,26.49 162.873,26.6567 161.5,26.5C 161.795,28.7354 161.461,30.7354 160.5,32.5C 159.833,32.5 159.167,32.5 158.5,32.5C 156.973,32.573 155.973,31.9063 155.5,30.5C 156.028,29.1526 156.195,27.8193 156,26.5C 152.784,25.5384 149.618,24.3717 146.5,23C 145.751,21.2663 145.251,19.433 145,17.5C 143.647,16.3147 142.48,14.9814 141.5,13.5C 121.483,12.1337 101.483,12.3004 81.5,14C 78.98,15.6971 76.6467,17.5305 74.5,19.5C 66.9747,19.0948 61.3081,22.0948 57.5,28.5C 55.3453,28.372 53.3453,28.872 51.5,30C 45.9795,34.5226 40.8129,39.356 36,44.5C 31.3333,50.5 26.6667,56.5 22,62.5C 20.4041,68.0874 17.5707,72.9207 13.5,77C 12.3086,84.1288 11.8086,91.2955 12,98.5C 12.5546,101.542 14.3879,103.375 17.5,104C 19.5389,105.926 21.2055,108.093 22.5,110.5C 22.5,111.5 22.5,112.5 22.5,113.5C 20.5,113.5 18.5,113.5 16.5,113.5C 14.412,112.061 12.0786,111.394 9.5,111.5C 8.81256,120.083 10.6459,128.083 15,135.5C 16.3712,137.041 17.8712,138.375 19.5,139.5C 21.9919,144.915 20.3252,148.082 14.5,149C 13.7476,149.671 13.4142,150.504 13.5,151.5C 12.2241,152.386 12.2241,153.386 13.5,154.5C 15.7466,155.374 18.0799,155.708 20.5,155.5C 20.0987,161.846 22.5987,166.513 28,169.5C 27.9134,173.08 29.0801,176.08 31.5,178.5C 33.2789,180.344 35.6122,181.01 38.5,180.5C 37.5,185.5 39.5,187.5 44.5,186.5C 44.5858,187.496 44.2524,188.329 43.5,189C 41.8659,189.494 40.1992,189.66 38.5,189.5C 38.3133,184.979 35.9799,182.312 31.5,181.5C 30.8757,179.042 29.3757,177.376 27,176.5C 26.6732,169.649 23.5066,167.816 17.5,171C 20.2193,174.158 22.386,177.658 24,181.5C 29.5812,184.239 33.0812,188.572 34.5,194.5C 30.6372,195.686 26.9705,197.353 23.5,199.5C 21.9954,196.869 21.3287,197.203 21.5,200.5C 17.1413,201.183 13.4746,203.183 10.5,206.5C 8.84226,209.161 7.17559,211.827 5.5,214.5C 4.48224,213.807 3.48224,213.141 2.5,212.5C 1.83756,207.643 3.6709,203.977 8,201.5C 8.48278,200.552 8.64945,199.552 8.5,198.5C 7.5,198.5 6.5,198.5 5.5,198.5C 6.75005,193.255 8.41672,193.255 10.5,198.5C 17.2614,198.4 22.2614,195.4 25.5,189.5C 22.8874,185.409 21.2207,185.909 20.5,191C 15.2376,192.163 10.4043,191.329 6,188.5C 6.11302,181.462 5.94635,174.462 5.5,167.5C 6.82207,167.33 7.98873,167.663 9,168.5C 10.8089,172.924 11.8089,177.59 12,182.5C 13.9562,182.784 16.1229,182.784 18.5,182.5C 18.1667,180.5 17.8333,178.5 17.5,176.5C 15.5165,176.617 13.8498,175.95 12.5,174.5C 11.0736,166.283 6.74029,160.283 -0.5,156.5C -0.5,154.833 -0.5,153.167 -0.5,151.5C 0.396953,152.598 1.23029,152.598 2,151.5C 2.49665,149.19 2.66331,146.857 2.5,144.5C 1.5,144.5 0.5,144.5 -0.5,144.5C -0.5,126.167 -0.5,107.833 -0.5,89.5C 1.97699,87.5841 2.97699,84.9175 2.5,81.5C 2.5,78.8333 2.5,76.1667 2.5,73.5C 1.5,73.5 0.5,73.5 -0.5,73.5C -0.5,72.8333 -0.5,72.1667 -0.5,71.5C 6.23408,66.5671 10.4007,59.9004 12,51.5C 15.3421,49.8303 17.5087,47.1636 18.5,43.5C 16.0306,42.9639 13.864,41.9639 12,40.5C 11.5017,43.8168 11.335,47.1501 11.5,50.5C 9.50819,50.6715 7.84152,50.0049 6.5,48.5C 5.34305,45.2156 5.17638,41.8823 6,38.5C 8,35.8333 10,35.8333 12,38.5C 12.2565,35.443 12.7565,32.443 13.5,29.5C 16.0272,28.7864 18.5272,28.1197 21,27.5C 21.4966,25.1902 21.6633,22.8568 21.5,20.5C 24.6074,20.3512 27.6074,20.8512 30.5,22C 31.5822,23.3297 32.2488,24.8297 32.5,26.5C 35.6238,26.0571 37.9571,24.3905 39.5,21.5C 39.2907,20.914 38.9574,20.414 38.5,20C 34.4316,20.2928 31.0982,18.9595 28.5,16C 31.3518,13.453 34.6851,12.453 38.5,13C 40.5614,14.9542 42.7281,16.7875 45,18.5C 46.8114,17.9221 48.6447,17.4221 50.5,17C 51.5853,14.828 52.9186,12.828 54.5,11C 61.2044,11.6481 66.2044,9.1481 69.5,3.5C 76.8108,2.66872 84.1441,2.16872 91.5,2C 92.2524,1.32924 92.5858,0.495904 92.5,-0.5 Z M 32.5,26.5 C 32.4606,27.5832 32.1272,28.5832 31.5,29.5C 27.2233,32.2735 23.39,35.6068 20,39.5C 17.6304,36.2391 18.4638,34.5724 22.5,34.5C 22.1043,31.9556 22.771,29.7889 24.5,28C 27.2538,27.7276 29.9205,27.2276 32.5,26.5 Z"/></g>
<g><path style="opacity:0.019" fill="#120a0d" d="M 45.5,4.5 C 50.5454,3.89523 52.8787,5.89523 52.5,10.5C 47.291,13.2028 42.6244,12.3694 38.5,8C 40.582,6.16887 42.9154,5.0022 45.5,4.5 Z"/></g>
<g><path style="opacity:0.016" fill="#0e070a" d="M 166.5,11.5 C 165.993,7.05464 167.993,4.72131 172.5,4.5C 176.463,4.5597 179.463,6.22636 181.5,9.5C 181.291,10.086 180.957,10.586 180.5,11C 175.845,11.4992 171.179,11.6658 166.5,11.5 Z"/></g>
<g><path style="opacity:1" fill="#340d1d" d="M 155.5,30.5 C 143.827,29.6328 132.16,28.6328 120.5,27.5C 126.775,26.9222 133.108,25.9222 139.5,24.5C 142.552,20.2177 141.885,16.7177 137.5,14C 122.5,13.3333 107.5,13.3333 92.5,14C 86.3783,15.6513 80.3783,17.4846 74.5,19.5C 76.6467,17.5305 78.98,15.6971 81.5,14C 101.483,12.3004 121.483,12.1337 141.5,13.5C 142.48,14.9814 143.647,16.3147 145,17.5C 145.251,19.433 145.751,21.2663 146.5,23C 149.618,24.3717 152.784,25.5384 156,26.5C 156.195,27.8193 156.028,29.1526 155.5,30.5 Z"/></g>
<g><path style="opacity:0.018" fill="#0d0709" d="M 178.5,19.5 C 177.814,14.8495 179.814,12.1828 184.5,11.5C 186.949,11.98 189.115,12.98 191,14.5C 191.595,15.8989 191.428,17.2322 190.5,18.5C 186.555,19.4909 182.555,19.8242 178.5,19.5 Z"/></g>
<g><path style="opacity:0.698" fill="#0b0709" d="M 156.5,10.5 C 159.939,10.2529 163.272,10.5863 166.5,11.5C 168.786,16.5138 172.786,19.1804 178.5,19.5C 179.719,24.6328 183.052,26.9662 188.5,26.5C 190.351,19.3211 194.518,17.6544 201,21.5C 201.772,21.3552 202.439,21.0219 203,20.5C 204.319,22.2495 204.819,24.2495 204.5,26.5C 199.519,27.0892 194.519,27.5892 189.5,28C 190.309,32.1428 192.809,33.9761 197,33.5C 198.5,33.3333 200,33.1667 201.5,33C 203.563,28.7816 206.896,27.4482 211.5,29C 212.76,30.8138 212.76,32.6471 211.5,34.5C 208.916,35.3928 206.249,35.7261 203.5,35.5C 204.054,40.0833 206.72,42.4166 211.5,42.5C 211.5,43.1667 211.833,43.5 212.5,43.5C 212.441,47.6156 214.441,49.9489 218.5,50.5C 220.496,55.1568 223.829,58.4901 228.5,60.5C 229.59,59.6086 229.59,58.6086 228.5,57.5C 225.305,54.4725 222.305,51.3059 219.5,48C 220.501,42.9594 223.167,41.6261 227.5,44C 228.288,47.0757 228.788,50.2423 229,53.5C 231.333,49.5 233.667,49.5 236,53.5C 236.182,56.2263 236.682,58.8929 237.5,61.5C 239.516,60.2941 241.516,60.2941 243.5,61.5C 242.917,68.0828 242.917,74.7494 243.5,81.5C 238.161,81.8234 237.161,84.1567 240.5,88.5C 239.203,89.8488 239.37,91.1821 241,92.5C 242.039,91.7562 242.539,90.7562 242.5,89.5C 244.151,84.1877 245.317,78.521 246,72.5C 246.333,72.1667 246.667,71.8333 247,71.5C 247.417,72.756 248.25,73.4226 249.5,73.5C 249.5,80.8333 249.5,88.1667 249.5,95.5C 248.85,95.1961 248.183,94.8627 247.5,94.5C 246.504,100.463 246.171,106.463 246.5,112.5C 245.853,113.274 245.52,114.274 245.5,115.5C 247.007,124.102 247.673,132.769 247.5,141.5C 246.699,143.042 246.366,144.708 246.5,146.5C 246.5,147.833 246.5,149.167 246.5,150.5C 246.5,156.833 246.5,163.167 246.5,169.5C 247.5,169.5 248.5,169.5 249.5,169.5C 249.5,177.167 249.5,184.833 249.5,192.5C 247.907,191.652 246.74,190.319 246,188.5C 245.338,183.132 244.172,178.132 242.5,173.5C 240.668,172.282 239.668,172.949 239.5,175.5C 238.631,177.717 238.298,180.05 238.5,182.5C 241.86,181.79 243.693,183.124 244,186.5C 244.726,191.239 244.393,195.905 243,200.5C 240.928,203.154 239.261,202.82 238,199.5C 237.911,195.972 237.244,192.638 236,189.5C 234.89,191.037 233.39,191.703 231.5,191.5C 230.44,195.948 228.107,199.614 224.5,202.5C 223.571,203.689 223.238,205.022 223.5,206.5C 225.5,206.5 227.5,206.5 229.5,206.5C 229.108,203.278 229.608,200.278 231,197.5C 232.509,198.09 234.009,198.756 235.5,199.5C 236.593,203.108 236.76,206.775 236,210.5C 233.894,212.291 231.394,212.958 228.5,212.5C 230.167,219.5 227.5,222.167 220.5,220.5C 220.5,222.833 220.5,225.167 220.5,227.5C 218.181,228.167 215.847,228.334 213.5,228C 211.004,226.446 208.837,224.613 207,222.5C 204.447,223.108 201.947,223.775 199.5,224.5C 198.167,224.5 197.5,225.167 197.5,226.5C 197.5,227.5 197.5,228.5 197.5,229.5C 201.514,229.334 205.514,229.501 209.5,230C 212.474,231.506 212.807,233.172 210.5,235C 207.45,235.679 204.45,236.512 201.5,237.5C 198.93,235.318 196.597,232.984 194.5,230.5C 191.763,231.046 189.096,231.712 186.5,232.5C 181.862,230.504 179.862,231.838 180.5,236.5C 181.524,235.147 182.857,234.48 184.5,234.5C 182.575,238.008 179.575,239.341 175.5,238.5C 175.721,237.265 176.388,236.265 177.5,235.5C 173.288,235.194 172.622,233.694 175.5,231C 168.88,229.863 162.214,229.363 155.5,229.5C 155.5,229.167 155.5,228.833 155.5,228.5C 160.894,228.087 166.227,227.253 171.5,226C 176.673,221.915 182.673,220.082 189.5,220.5C 189.33,219.178 189.663,218.011 190.5,217C 193.478,215.118 196.645,213.618 200,212.5C 201.24,209.588 202.906,206.921 205,204.5C 212.97,198.544 218.47,190.877 221.5,181.5C 223.735,180.772 225.568,179.439 227,177.5C 227.774,173.853 228.441,170.186 229,166.5C 232.212,164.181 234.546,161.181 236,157.5C 236.833,139.491 236.666,121.491 235.5,103.5C 232.785,101.452 230.452,99.1184 228.5,96.5C 228.817,93.4281 228.484,90.4281 227.5,87.5C 225.479,86.1455 223.812,84.4788 222.5,82.5C 221.914,77.1459 220.581,72.1459 218.5,67.5C 215.255,67.7066 213.255,66.2066 212.5,63C 210.654,60.9076 208.321,59.5742 205.5,59C 204.692,56.9124 203.692,54.9124 202.5,53C 196.027,52.5408 191.027,49.5408 187.5,44C 183.364,44.0823 181.031,42.0823 180.5,38C 182.576,36.7562 183.576,34.9229 183.5,32.5C 178.883,33.3276 174.217,33.9942 169.5,34.5C 166.833,34.3333 164.167,34.1667 161.5,34C 160.944,33.6174 160.611,33.1174 160.5,32.5C 161.461,30.7354 161.795,28.7354 161.5,26.5C 162.873,26.6567 164.207,26.49 165.5,26C 165.043,25.586 164.709,25.086 164.5,24.5C 167.107,21.4373 166.774,18.604 163.5,16C 159.706,15.3942 156.373,13.8942 153.5,11.5C 154.325,10.6143 155.325,10.281 156.5,10.5 Z M 236.5,64.5 C 237.477,67.2869 237.81,70.2869 237.5,73.5C 235.5,73.1667 233.5,72.8333 231.5,72.5C 231.167,70.5 230.833,68.5 230.5,66.5C 233.01,66.9465 235.01,66.2798 236.5,64.5 Z M 221.5,208.5 C 222.391,209.261 223.058,210.261 223.5,211.5C 222.262,213.637 220.429,214.971 218,215.5C 217.82,217.488 217.986,219.488 218.5,221.5C 215.753,221.813 213.086,221.48 210.5,220.5C 210.977,219.069 211.643,217.736 212.5,216.5C 215.52,213.811 218.52,211.144 221.5,208.5 Z"/></g>
<g><path style="opacity:0.998" fill="#d41b6d" d="M 125.5,16.5 C 127.248,17.7894 127.581,19.2894 126.5,21C 114.52,23.9999 102.52,26.9999 90.5,30C 87.3479,33.154 83.6813,35.4873 79.5,37C 76.5056,41.3532 72.5056,44.0199 67.5,45C 59.7994,51.2593 53.1328,58.426 47.5,66.5C 45.1057,67.8943 43.439,69.8943 42.5,72.5C 42.372,70.3453 42.872,68.3453 44,66.5C 48.4467,63.6158 51.4467,59.6158 53,54.5C 56.6165,52.4188 59.4498,49.5855 61.5,46C 64.2741,44.2188 67.2741,42.8855 70.5,42C 71.6687,39.9935 72.3354,37.8268 72.5,35.5C 76.8394,36.1539 80.6727,35.1539 84,32.5C 84.7203,30.8876 84.5536,29.3876 83.5,28C 76.5136,25.1419 70.5136,26.4752 65.5,32C 62.5,33 59.5,34 56.5,35C 48.6316,43.0358 40.6316,50.8691 32.5,58.5C 37.0107,51.6619 42.344,45.4952 48.5,40C 51.7974,37.7046 54.7974,35.038 57.5,32C 62.0209,31.5613 65.3542,29.3946 67.5,25.5C 69.9925,24.2264 72.6592,23.5597 75.5,23.5C 83.4934,21.4489 91.4934,19.2822 99.5,17C 108.16,16.5002 116.827,16.3336 125.5,16.5 Z"/></g>
<g><path style="opacity:1" fill="#520b29" d="M 120.5,27.5 C 115.304,29.0868 109.97,29.7535 104.5,29.5C 108.5,28.1667 112.5,26.8333 116.5,25.5C 116.842,24.6618 117.508,24.3284 118.5,24.5C 123.717,24.7582 128.884,24.4249 134,23.5C 136.034,22.0558 136.868,20.0558 136.5,17.5C 128.278,15.0484 119.778,14.0484 111,14.5C 105.833,14.6667 100.667,14.8333 95.5,15C 93.9419,15.21 92.6085,15.71 91.5,16.5C 86.7498,17.7514 82.0832,19.4181 77.5,21.5C 70.2809,22.6818 63.6143,25.0151 57.5,28.5C 61.3081,22.0948 66.9747,19.0948 74.5,19.5C 80.3783,17.4846 86.3783,15.6513 92.5,14C 107.5,13.3333 122.5,13.3333 137.5,14C 141.885,16.7177 142.552,20.2177 139.5,24.5C 133.108,25.9222 126.775,26.9222 120.5,27.5 Z"/></g>
<g><path style="opacity:0.996" fill="#7b0f3e" d="M 118.5,24.5 C 119.263,23.7321 120.263,23.2321 121.5,23C 124.817,22.5017 128.15,22.335 131.5,22.5C 131.833,18.1667 129.833,16.1667 125.5,16.5C 114.318,15.2711 102.985,15.2711 91.5,16.5C 92.6085,15.71 93.9419,15.21 95.5,15C 100.667,14.8333 105.833,14.6667 111,14.5C 119.778,14.0484 128.278,15.0484 136.5,17.5C 136.868,20.0558 136.034,22.0558 134,23.5C 128.884,24.4249 123.717,24.7582 118.5,24.5 Z"/></g>
<g><path style="opacity:0.988" fill="#fb2185" d="M 96.5,19.5 C 102.842,19.3338 109.175,19.5005 115.5,20C 110.437,21.6894 105.437,23.6894 100.5,26C 97.5184,26.498 94.5184,26.6646 91.5,26.5C 91.0172,22.4872 92.6839,20.1539 96.5,19.5 Z"/></g>
<g><path style="opacity:1" fill="#99134e" d="M 125.5,16.5 C 116.827,16.3336 108.16,16.5002 99.5,17C 91.4934,19.2822 83.4934,21.4489 75.5,23.5C 76.1667,22.8333 76.8333,22.1667 77.5,21.5C 82.0832,19.4181 86.7498,17.7514 91.5,16.5C 102.985,15.2711 114.318,15.2711 125.5,16.5 Z"/></g>
<g><path style="opacity:1" fill="#4c4b4b" d="M 155.5,34.5 C 154.244,34.5386 153.244,34.0386 152.5,33C 142.5,32.3333 132.5,32.3333 122.5,33C 118.284,34.6842 113.951,35.8509 109.5,36.5C 111.076,35.8571 112.41,34.8571 113.5,33.5C 118.979,32.1555 124.479,31.1555 130,30.5C 138.192,30.874 146.359,31.5407 154.5,32.5C 154.863,33.1835 155.196,33.8501 155.5,34.5 Z"/></g>
<g><path style="opacity:1" fill="#717071" d="M 155.5,34.5 C 157.993,35.7736 160.659,36.4403 163.5,36.5C 166.429,37.5377 169.429,38.7043 172.5,40C 173.381,40.7083 174.047,41.5416 174.5,42.5C 169.204,40.5191 163.871,39.1858 158.5,38.5C 156.04,37.1092 153.374,35.9425 150.5,35C 140.5,34.3333 130.5,34.3333 120.5,35C 116.04,36.992 111.373,38.1587 106.5,38.5C 107.5,37.8333 108.5,37.1667 109.5,36.5C 113.951,35.8509 118.284,34.6842 122.5,33C 132.5,32.3333 142.5,32.3333 152.5,33C 153.244,34.0386 154.244,34.5386 155.5,34.5 Z"/></g>
<g><path style="opacity:1" fill="#3a3236" d="M 120.5,27.5 C 132.16,28.6328 143.827,29.6328 155.5,30.5C 155.973,31.9063 156.973,32.573 158.5,32.5C 159.672,34.539 161.338,35.8724 163.5,36.5C 160.659,36.4403 157.993,35.7736 155.5,34.5C 155.196,33.8501 154.863,33.1835 154.5,32.5C 146.359,31.5407 138.192,30.874 130,30.5C 124.479,31.1555 118.979,32.1555 113.5,33.5C 113.5,33.1667 113.5,32.8333 113.5,32.5C 116.047,31.0664 118.381,29.3998 120.5,27.5 Z"/></g>
<g><path style="opacity:0.996" fill="#750f3c" d="M 77.5,21.5 C 76.8333,22.1667 76.1667,22.8333 75.5,23.5C 72.6592,23.5597 69.9925,24.2264 67.5,25.5C 64.4418,28.3541 60.7751,30.1874 56.5,31C 53.7974,34.038 50.7974,36.7046 47.5,39C 41.2368,45.0601 35.5702,51.5601 30.5,58.5C 30.3433,57.1266 30.51,55.7932 31,54.5C 39.6299,45.5191 48.4632,36.8525 57.5,28.5C 63.6143,25.0151 70.2809,22.6818 77.5,21.5 Z"/></g>
<g><path style="opacity:0.996" fill="#9b144f" d="M 67.5,25.5 C 65.3542,29.3946 62.0209,31.5613 57.5,32C 54.7974,35.038 51.7974,37.7046 48.5,40C 42.344,45.4952 37.0107,51.6619 32.5,58.5C 32.5,58.8333 32.5,59.1667 32.5,59.5C 29.9248,60.5678 27.7581,62.2345 26,64.5C 25.4079,68.2765 24.4079,71.9431 23,75.5C 22.0646,78.5952 20.2313,80.9286 17.5,82.5C 19.6782,79.4769 21.3449,76.1436 22.5,72.5C 22.7382,66.4581 25.4048,61.7914 30.5,58.5C 35.5702,51.5601 41.2368,45.0601 47.5,39C 50.7974,36.7046 53.7974,34.038 56.5,31C 60.7751,30.1874 64.4418,28.3541 67.5,25.5 Z"/></g>
<g><path style="opacity:0.014" fill="#0e080a" d="M 212.5,43.5 C 211.833,43.5 211.5,43.1667 211.5,42.5C 211.508,38.8197 213.175,36.1531 216.5,34.5C 220.331,36.2711 221.498,39.2711 220,43.5C 217.646,43.8916 215.146,43.8916 212.5,43.5 Z"/></g>
<g><path style="opacity:1" fill="#c0c0c0" d="M 158.5,38.5 C 163.871,39.1858 169.204,40.5191 174.5,42.5C 174.953,43.4584 175.619,44.2917 176.5,45C 182.08,46.1218 186.747,48.7884 190.5,53C 192.628,53.6552 194.628,54.4886 196.5,55.5C 196.369,56.2389 196.536,56.9056 197,57.5C 201.634,61.1321 205.967,65.1321 210,69.5C 211.201,72.7101 213.201,75.3767 216,77.5C 216.931,83.2014 219.764,87.5347 224.5,90.5C 224.5,90.8333 224.5,91.1667 224.5,91.5C 224.5,93.8333 224.5,96.1667 224.5,98.5C 222.529,94.5866 220.029,90.9199 217,87.5C 216.489,85.1218 215.822,82.7885 215,80.5C 209.032,72.6987 202.532,65.3654 195.5,58.5C 191.836,56.9738 188.836,54.4738 186.5,51C 182.495,48.5777 178.162,46.9111 173.5,46C 172.122,44.2866 170.455,42.9533 168.5,42C 163.215,40.974 157.882,40.3073 152.5,40C 139.171,39.5001 125.837,39.3334 112.5,39.5C 114.663,38.5309 116.996,37.6976 119.5,37C 132.603,35.9821 145.603,36.4821 158.5,38.5 Z"/></g>
<g><path style="opacity:1" fill="#434a47" d="M 109.5,36.5 C 108.5,37.1667 107.5,37.8333 106.5,38.5C 100.781,38.9482 96.1143,41.2816 92.5,45.5C 89.7835,45.6785 87.1168,46.1785 84.5,47C 73.6704,55.9978 63.3371,65.4978 53.5,75.5C 55.0512,72.4372 57.2179,69.7705 60,67.5C 60.2734,65.8988 60.7734,64.3988 61.5,63C 68.7874,57.3923 76.1207,51.7257 83.5,46C 88.2379,44.9282 92.2379,42.5948 95.5,39C 100,37.2079 104.667,36.3746 109.5,36.5 Z"/></g>
<g><path style="opacity:1" fill="#e7e6e6" d="M 112.5,39.5 C 125.837,39.3334 139.171,39.5001 152.5,40C 157.882,40.3073 163.215,40.974 168.5,42C 170.455,42.9533 172.122,44.2866 173.5,46C 178.162,46.9111 182.495,48.5777 186.5,51C 188.836,54.4738 191.836,56.9738 195.5,58.5C 189.96,59.3996 186.293,57.2329 184.5,52C 180.433,49.9889 176.1,48.9889 171.5,49C 169.448,45.471 166.448,43.1376 162.5,42C 146.5,41.3333 130.5,41.3333 114.5,42C 111.167,42.6667 107.833,43.3333 104.5,44C 100.756,49.5937 95.4227,51.927 88.5,51C 85.7339,54.9508 82.0672,57.4508 77.5,58.5C 81.8552,55.1385 86.1885,51.8052 90.5,48.5C 94.1064,47.6951 97.1064,45.8618 99.5,43C 103.86,41.4171 108.194,40.2505 112.5,39.5 Z"/></g>
<g><path style="opacity:1" fill="#fdfdfd" d="M 195.5,58.5 C 202.532,65.3654 209.032,72.6987 215,80.5C 215.822,82.7885 216.489,85.1218 217,87.5C 220.029,90.9199 222.529,94.5866 224.5,98.5C 224.5,98.8333 224.5,99.1667 224.5,99.5C 227.095,109.722 228.761,120.222 229.5,131C 229.571,138.847 228.071,146.347 225,153.5C 224,154.167 223,154.833 222,155.5C 221.667,138.833 221.333,122.167 221,105.5C 220.605,102.29 219.105,99.7898 216.5,98C 161.124,97.7266 105.791,97.56 50.5,97.5C 50.3379,95.4727 50.5045,93.4727 51,91.5C 60.0191,80.6477 68.8525,69.6477 77.5,58.5C 82.0672,57.4508 85.7339,54.9508 88.5,51C 95.4227,51.927 100.756,49.5937 104.5,44C 107.833,43.3333 111.167,42.6667 114.5,42C 130.5,41.3333 146.5,41.3333 162.5,42C 166.448,43.1376 169.448,45.471 171.5,49C 176.1,48.9889 180.433,49.9889 184.5,52C 186.293,57.2329 189.96,59.3996 195.5,58.5 Z"/></g>
<g><path style="opacity:0.996" fill="#38091d" d="M 120.5,27.5 C 118.381,29.3998 116.047,31.0664 113.5,32.5C 104.676,29.9176 96.8422,31.5843 90,37.5C 85.5863,38.1172 82.0863,40.1172 79.5,43.5C 78.078,44.925 76.4113,45.925 74.5,46.5C 77.8311,41.0043 82.6645,37.671 89,36.5C 93.2237,32.1449 98.3903,29.8116 104.5,29.5C 109.97,29.7535 115.304,29.0868 120.5,27.5 Z"/></g>
<g><path style="opacity:1" fill="#ef1e7a" d="M 42.5,72.5 C 36.5282,76.1138 34.0282,81.4471 35,88.5C 33.5787,91.0094 31.9121,93.3428 30,95.5C 29.7435,98.557 29.2435,101.557 28.5,104.5C 26.9547,105.452 25.288,105.785 23.5,105.5C 22.3591,102.167 20.5258,99.1673 18,96.5C 17.502,93.5184 17.3354,90.5184 17.5,87.5C 17.5,87.1667 17.5,86.8333 17.5,86.5C 23.769,82.6341 26.9356,76.9674 27,69.5C 30.6772,67.1431 32.5106,63.8098 32.5,59.5C 32.5,59.1667 32.5,58.8333 32.5,58.5C 40.6316,50.8691 48.6316,43.0358 56.5,35C 59.5,34 62.5,33 65.5,32C 70.5136,26.4752 76.5136,25.1419 83.5,28C 84.5536,29.3876 84.7203,30.8876 84,32.5C 80.6727,35.1539 76.8394,36.1539 72.5,35.5C 72.3354,37.8268 71.6687,39.9935 70.5,42C 67.2741,42.8855 64.2741,44.2188 61.5,46C 59.4498,49.5855 56.6165,52.4188 53,54.5C 51.4467,59.6158 48.4467,63.6158 44,66.5C 42.872,68.3453 42.372,70.3453 42.5,72.5 Z"/></g>
<g><path style="opacity:1" fill="#5b5b5b" d="M 163.5,36.5 C 170.461,36.763 176.461,39.263 181.5,44C 186.506,44.9801 190.506,47.6468 193.5,52C 195.5,52.6667 197.5,53.3333 199.5,54C 206.667,59.8333 213.167,66.3333 219,73.5C 219.696,76.4781 220.196,79.4781 220.5,82.5C 219.056,79.5978 217.556,76.5978 216,73.5C 209.884,66.8761 203.384,60.8761 196.5,55.5C 194.628,54.4886 192.628,53.6552 190.5,53C 186.747,48.7884 182.08,46.1218 176.5,45C 175.619,44.2917 174.953,43.4584 174.5,42.5C 174.047,41.5416 173.381,40.7083 172.5,40C 169.429,38.7043 166.429,37.5377 163.5,36.5 Z"/></g>
<g><path style="opacity:1" fill="#999999" d="M 158.5,38.5 C 145.603,36.4821 132.603,35.9821 119.5,37C 116.996,37.6976 114.663,38.5309 112.5,39.5C 108.194,40.2505 103.86,41.4171 99.5,43C 97.1064,45.8618 94.1064,47.6951 90.5,48.5C 89.1266,48.3433 87.7932,48.51 86.5,49C 76.0041,57.6641 66.0041,66.8308 56.5,76.5C 58.4233,73.3968 60.59,70.3968 63,67.5C 67.3144,64.3526 71.1477,60.686 74.5,56.5C 78.5278,54.1506 82.1945,51.3173 85.5,48C 88.1909,47.8442 90.5242,47.0109 92.5,45.5C 96.1143,41.2816 100.781,38.9482 106.5,38.5C 111.373,38.1587 116.04,36.992 120.5,35C 130.5,34.3333 140.5,34.3333 150.5,35C 153.374,35.9425 156.04,37.1092 158.5,38.5 Z"/></g>
<g><path style="opacity:0.996" fill="#9b144f" d="M 125.5,16.5 C 129.833,16.1667 131.833,18.1667 131.5,22.5C 128.15,22.335 124.817,22.5017 121.5,23C 120.263,23.2321 119.263,23.7321 118.5,24.5C 117.508,24.3284 116.842,24.6618 116.5,25.5C 107.98,26.3934 99.6466,28.2267 91.5,31C 88.5847,34.4731 84.9181,36.8065 80.5,38C 77.2253,42.6204 72.892,45.6204 67.5,47C 60.4912,53.535 53.8245,60.3683 47.5,67.5C 47.5,67.1667 47.5,66.8333 47.5,66.5C 53.1328,58.426 59.7994,51.2593 67.5,45C 72.5056,44.0199 76.5056,41.3532 79.5,37C 83.6813,35.4873 87.3479,33.154 90.5,30C 102.52,26.9999 114.52,23.9999 126.5,21C 127.581,19.2894 127.248,17.7894 125.5,16.5 Z"/></g>
<g><path style="opacity:1" fill="#c9c9c9" d="M 90.5,48.5 C 86.1885,51.8052 81.8552,55.1385 77.5,58.5C 74.5828,60.9123 71.7494,63.579 69,66.5C 65.4137,72.0906 61.0804,77.0906 56,81.5C 54.8189,85.8445 52.3189,89.1779 48.5,91.5C 50.1667,88.8333 51.8333,86.1667 53.5,83.5C 53.1496,80.5466 54.1496,78.2133 56.5,76.5C 66.0041,66.8308 76.0041,57.6641 86.5,49C 87.7932,48.51 89.1266,48.3433 90.5,48.5 Z"/></g>
<g><path style="opacity:0.033" fill="#11090c" d="M -0.5,48.5 C 0.833333,48.5 2.16667,48.5 3.5,48.5C 4.83333,54.1667 4.83333,59.8333 3.5,65.5C 2.16667,65.5 0.833333,65.5 -0.5,65.5C -0.5,59.8333 -0.5,54.1667 -0.5,48.5 Z"/></g>
<g><path style="opacity:0.004" fill="#241117" d="M 5.5,54.5 C 8.27478,54.8338 8.94145,56.1671 7.5,58.5C 5.88882,57.6798 5.22216,56.3464 5.5,54.5 Z"/></g>
<g><path style="opacity:1" fill="#0f100f" d="M 113.5,32.5 C 113.5,32.8333 113.5,33.1667 113.5,33.5C 112.41,34.8571 111.076,35.8571 109.5,36.5C 104.667,36.3746 100,37.2079 95.5,39C 92.2379,42.5948 88.2379,44.9282 83.5,46C 76.1207,51.7257 68.7874,57.3923 61.5,63C 60.7734,64.3988 60.2734,65.8988 60,67.5C 57.2179,69.7705 55.0512,72.4372 53.5,75.5C 53.1667,76.8333 52.8333,78.1667 52.5,79.5C 50.567,81.9374 48.4003,84.2707 46,86.5C 45.3333,89.1667 44.6667,91.8333 44,94.5C 43.6174,95.056 43.1174,95.3893 42.5,95.5C 43.1805,91.8809 43.6805,88.2142 44,84.5C 46.1785,83.8839 48.0118,82.7172 49.5,81C 47.6751,79.5341 47.1751,77.7008 48,75.5C 53.0972,70.4047 57.4305,64.738 61,58.5C 64.7988,55.7031 68.2988,52.5364 71.5,49C 73.5,48.3333 75.5,47.6667 77.5,47C 78.8228,46.1841 79.4894,45.0174 79.5,43.5C 82.0863,40.1172 85.5863,38.1172 90,37.5C 96.8422,31.5843 104.676,29.9176 113.5,32.5 Z"/></g>
<g><path style="opacity:1" fill="#8b8b8b" d="M 196.5,55.5 C 203.384,60.8761 209.884,66.8761 216,73.5C 217.556,76.5978 219.056,79.5978 220.5,82.5C 221.429,85.4119 222.762,88.0786 224.5,90.5C 219.764,87.5347 216.931,83.2014 216,77.5C 213.201,75.3767 211.201,72.7101 210,69.5C 205.967,65.1321 201.634,61.1321 197,57.5C 196.536,56.9056 196.369,56.2389 196.5,55.5 Z"/></g>
<g><path style="opacity:0.996" fill="#1b1a1b" d="M 158.5,32.5 C 159.167,32.5 159.833,32.5 160.5,32.5C 160.611,33.1174 160.944,33.6174 161.5,34C 164.167,34.1667 166.833,34.3333 169.5,34.5C 174.217,33.9942 178.883,33.3276 183.5,32.5C 183.576,34.9229 182.576,36.7562 180.5,38C 181.031,42.0823 183.364,44.0823 187.5,44C 191.027,49.5408 196.027,52.5408 202.5,53C 203.692,54.9124 204.692,56.9124 205.5,59C 208.321,59.5742 210.654,60.9076 212.5,63C 213.255,66.2066 215.255,67.7066 218.5,67.5C 220.581,72.1459 221.914,77.1459 222.5,82.5C 221.833,82.5 221.167,82.5 220.5,82.5C 220.196,79.4781 219.696,76.4781 219,73.5C 213.167,66.3333 206.667,59.8333 199.5,54C 197.5,53.3333 195.5,52.6667 193.5,52C 190.506,47.6468 186.506,44.9801 181.5,44C 176.461,39.263 170.461,36.763 163.5,36.5C 161.338,35.8724 159.672,34.539 158.5,32.5 Z"/></g>
<g><path style="opacity:1" fill="#760e3c" d="M 116.5,25.5 C 112.5,26.8333 108.5,28.1667 104.5,29.5C 98.3903,29.8116 93.2237,32.1449 89,36.5C 82.6645,37.671 77.8311,41.0043 74.5,46.5C 73.0413,46.4326 71.7079,46.7659 70.5,47.5C 66.728,50.0941 63.0613,52.9274 59.5,56C 55.1081,61.3007 50.6081,66.4674 46,71.5C 41.0171,81.7691 36.1838,92.1024 31.5,102.5C 33.609,96.6072 35.4423,90.6072 37,84.5C 40.7595,78.9259 44.2595,73.2592 47.5,67.5C 53.8245,60.3683 60.4912,53.535 67.5,47C 72.892,45.6204 77.2253,42.6204 80.5,38C 84.9181,36.8065 88.5847,34.4731 91.5,31C 99.6466,28.2267 107.98,26.3934 116.5,25.5 Z"/></g>
<g><path style="opacity:1" fill="#6b6f6e" d="M 92.5,45.5 C 90.5242,47.0109 88.1909,47.8442 85.5,48C 82.1945,51.3173 78.5278,54.1506 74.5,56.5C 71.1477,60.686 67.3144,64.3526 63,67.5C 60.59,70.3968 58.4233,73.3968 56.5,76.5C 54.1496,78.2133 53.1496,80.5466 53.5,83.5C 50.3941,85.5984 48.0607,88.2651 46.5,91.5C 46.7967,87.6743 48.6301,84.6743 52,82.5C 52.4828,81.552 52.6495,80.552 52.5,79.5C 52.8333,78.1667 53.1667,76.8333 53.5,75.5C 63.3371,65.4978 73.6704,55.9978 84.5,47C 87.1168,46.1785 89.7835,45.6785 92.5,45.5 Z"/></g>
<g><path style="opacity:0.016" fill="#f2e2f1" d="M -0.5,80.5 C 0.166667,80.8333 0.833333,81.1667 1.5,81.5C 1.16667,82.5 0.5,83.1667 -0.5,83.5C -0.5,82.5 -0.5,81.5 -0.5,80.5 Z"/></g>
<g><path style="opacity:0.102" fill="#462e38" d="M 1.5,81.5 C 1.83333,81.5 2.16667,81.5 2.5,81.5C 2.97699,84.9175 1.97699,87.5841 -0.5,89.5C -0.5,87.5 -0.5,85.5 -0.5,83.5C 0.5,83.1667 1.16667,82.5 1.5,81.5 Z"/></g>
<g><path style="opacity:1" fill="#595959" d="M 220.5,82.5 C 221.167,82.5 221.833,82.5 222.5,82.5C 223.812,84.4788 225.479,86.1455 227.5,87.5C 228.484,90.4281 228.817,93.4281 228.5,96.5C 228.343,97.8734 228.51,99.2068 229,100.5C 231.037,103.035 232.87,105.702 234.5,108.5C 235.824,119.993 235.824,131.326 234.5,142.5C 234.666,133.827 234.5,125.16 234,116.5C 233.92,112.39 232.42,109.057 229.5,106.5C 227.38,101.612 225.713,96.6117 224.5,91.5C 224.5,91.1667 224.5,90.8333 224.5,90.5C 222.762,88.0786 221.429,85.4119 220.5,82.5 Z"/></g>
<g><path style="opacity:0.02" fill="#8a8188" d="M 240.5,88.5 C 241.167,88.8333 241.833,89.1667 242.5,89.5C 242.539,90.7562 242.039,91.7562 241,92.5C 239.37,91.1821 239.203,89.8488 240.5,88.5 Z"/></g>
<g><path style="opacity:1" fill="#3f0920" d="M 57.5,28.5 C 48.4632,36.8525 39.6299,45.5191 31,54.5C 30.51,55.7932 30.3433,57.1266 30.5,58.5C 25.4048,61.7914 22.7382,66.4581 22.5,72.5C 15.2099,79.9655 12.3766,88.9655 14,99.5C 15.7409,100.758 17.5742,101.758 19.5,102.5C 21.1596,104.991 23.3262,106.991 26,108.5C 29.3706,107.961 31.2039,105.961 31.5,102.5C 36.1838,92.1024 41.0171,81.7691 46,71.5C 50.6081,66.4674 55.1081,61.3007 59.5,56C 63.0613,52.9274 66.728,50.0941 70.5,47.5C 67.5011,51.3316 64.0011,54.6649 60,57.5C 57.9063,59.9213 56.2396,62.588 55,65.5C 49.6751,67.8165 46.6751,71.8165 46,77.5C 41.675,84.6445 38.8416,92.3112 37.5,100.5C 35.4551,101.923 34.4551,103.923 34.5,106.5C 32.0601,109.114 29.2268,111.114 26,112.5C 24.5657,112.138 23.3991,111.472 22.5,110.5C 21.2055,108.093 19.5389,105.926 17.5,104C 14.3879,103.375 12.5546,101.542 12,98.5C 11.8086,91.2955 12.3086,84.1288 13.5,77C 17.5707,72.9207 20.4041,68.0874 22,62.5C 26.6667,56.5 31.3333,50.5 36,44.5C 40.8129,39.356 45.9795,34.5226 51.5,30C 53.3453,28.872 55.3453,28.372 57.5,28.5 Z"/></g>
<g><path style="opacity:0.996" fill="#c71966" d="M 32.5,59.5 C 32.5106,63.8098 30.6772,67.1431 27,69.5C 26.9356,76.9674 23.769,82.6341 17.5,86.5C 17.5,85.1667 17.5,83.8333 17.5,82.5C 20.2313,80.9286 22.0646,78.5952 23,75.5C 24.4079,71.9431 25.4079,68.2765 26,64.5C 27.7581,62.2345 29.9248,60.5678 32.5,59.5 Z"/></g>
<g><path style="opacity:0.996" fill="#770f3c" d="M 22.5,72.5 C 21.3449,76.1436 19.6782,79.4769 17.5,82.5C 17.5,83.8333 17.5,85.1667 17.5,86.5C 17.5,86.8333 17.5,87.1667 17.5,87.5C 16.2658,89.2014 15.5992,91.2014 15.5,93.5C 16.0297,96.8899 17.363,99.8899 19.5,102.5C 17.5742,101.758 15.7409,100.758 14,99.5C 12.3766,88.9655 15.2099,79.9655 22.5,72.5 Z"/></g>
<g><path style="opacity:1" fill="#16050b" d="M 79.5,43.5 C 79.4894,45.0174 78.8228,46.1841 77.5,47C 75.5,47.6667 73.5,48.3333 71.5,49C 68.2988,52.5364 64.7988,55.7031 61,58.5C 57.4305,64.738 53.0972,70.4047 48,75.5C 47.1751,77.7008 47.6751,79.5341 49.5,81C 48.0118,82.7172 46.1785,83.8839 44,84.5C 43.6805,88.2142 43.1805,91.8809 42.5,95.5C 42.5,95.8333 42.5,96.1667 42.5,96.5C 40.9729,97.9314 39.3062,99.2648 37.5,100.5C 38.8416,92.3112 41.675,84.6445 46,77.5C 46.6751,71.8165 49.6751,67.8165 55,65.5C 56.2396,62.588 57.9063,59.9213 60,57.5C 64.0011,54.6649 67.5011,51.3316 70.5,47.5C 71.7079,46.7659 73.0413,46.4326 74.5,46.5C 76.4113,45.925 78.078,44.925 79.5,43.5 Z"/></g>
<g><path style="opacity:0.996" fill="#af1659" d="M 47.5,66.5 C 47.5,66.8333 47.5,67.1667 47.5,67.5C 44.2595,73.2592 40.7595,78.9259 37,84.5C 35.4423,90.6072 33.609,96.6072 31.5,102.5C 31.2039,105.961 29.3706,107.961 26,108.5C 23.3262,106.991 21.1596,104.991 19.5,102.5C 17.363,99.8899 16.0297,96.8899 15.5,93.5C 15.5992,91.2014 16.2658,89.2014 17.5,87.5C 17.3354,90.5184 17.502,93.5184 18,96.5C 20.5258,99.1673 22.3591,102.167 23.5,105.5C 25.288,105.785 26.9547,105.452 28.5,104.5C 29.2435,101.557 29.7435,98.557 30,95.5C 31.9121,93.3428 33.5787,91.0094 35,88.5C 34.0282,81.4471 36.5282,76.1138 42.5,72.5C 43.439,69.8943 45.1057,67.8943 47.5,66.5 Z"/></g>
<g><path style="opacity:1" fill="#d2d2d2" d="M 189.5,100.5 C 182.826,100.713 176.159,101.046 169.5,101.5C 149,99.841 128.334,99.5077 107.5,100.5C 104.024,99.3567 100.358,99.1901 96.5,100C 93.7259,103.629 90.7259,104.129 87.5,101.5C 92.2547,100.269 97.088,99.2687 102,98.5C 121.329,98.6511 140.662,98.6511 160,98.5C 170.017,98.749 179.85,99.4157 189.5,100.5 Z"/></g>
<g><path style="opacity:1" fill="#aeaeae" d="M 169.5,101.5 C 160.694,100.997 152.027,101.664 143.5,103.5C 132.946,101.201 122.28,100.868 111.5,102.5C 109.667,102.415 108.334,101.748 107.5,100.5C 128.334,99.5077 149,99.841 169.5,101.5 Z"/></g>
<g><path style="opacity:1" fill="#434946" d="M 52.5,79.5 C 52.6495,80.552 52.4828,81.552 52,82.5C 48.6301,84.6743 46.7967,87.6743 46.5,91.5C 43.3539,99.2045 40.8539,107.204 39,115.5C 38.3333,127.5 38.3333,139.5 39,151.5C 39.3826,152.056 39.8826,152.389 40.5,152.5C 40.5,153.833 40.5,155.167 40.5,156.5C 38.8267,155.657 37.66,154.324 37,152.5C 36.3333,138.5 36.3333,124.5 37,110.5C 37.1341,106.083 38.8007,102.416 42,99.5C 42.4828,98.552 42.6495,97.552 42.5,96.5C 42.5,96.1667 42.5,95.8333 42.5,95.5C 43.1174,95.3893 43.6174,95.056 44,94.5C 44.6667,91.8333 45.3333,89.1667 46,86.5C 48.4003,84.2707 50.567,81.9374 52.5,79.5 Z"/></g>
<g><path style="opacity:1" fill="#b0b0b1" d="M 54.5,100.5 C 57.6399,99.3592 60.9733,99.1925 64.5,100C 65.5448,101.526 67.0448,102.359 69,102.5C 72.4979,101.115 76.1646,100.115 80,99.5C 82.7598,99.6462 85.2598,100.313 87.5,101.5C 90.7259,104.129 93.7259,103.629 96.5,100C 100.358,99.1901 104.024,99.3567 107.5,100.5C 104.15,100.335 100.817,100.502 97.5,101C 94.8888,104.376 92.5554,107.876 90.5,111.5C 88.0651,108.514 86.3984,105.181 85.5,101.5C 82.4816,101.335 79.4816,101.502 76.5,102C 74.071,103.363 71.571,104.53 69,105.5C 66.5773,104.374 64.0773,103.374 61.5,102.5C 59.7211,100.656 57.3878,99.9898 54.5,100.5 Z"/></g>
<g><path style="opacity:1" fill="#939694" d="M 53.5,83.5 C 51.8333,86.1667 50.1667,88.8333 48.5,91.5C 48.5,91.8333 48.5,92.1667 48.5,92.5C 47.6773,95.977 47.1773,99.6437 47,103.5C 46.0467,105.455 44.7134,107.122 43,108.5C 42.023,110.74 41.523,113.073 41.5,115.5C 40.2115,124.295 40.2115,132.962 41.5,141.5C 41.5045,145.534 41.8379,149.534 42.5,153.5C 41.8333,153.167 41.1667,152.833 40.5,152.5C 39.8826,152.389 39.3826,152.056 39,151.5C 38.3333,139.5 38.3333,127.5 39,115.5C 40.8539,107.204 43.3539,99.2045 46.5,91.5C 48.0607,88.2651 50.3941,85.5984 53.5,83.5 Z"/></g>
<g><path style="opacity:1" fill="#8d8d8d" d="M 52.5,100.5 C 53.1667,100.5 53.8333,100.5 54.5,100.5C 57.3878,99.9898 59.7211,100.656 61.5,102.5C 57.9929,101.994 54.8263,102.66 52,104.5C 51.5499,108.188 51.7166,111.854 52.5,115.5C 51.1314,113.246 50.1314,110.746 49.5,108C 50.1086,105.292 51.1086,102.792 52.5,100.5 Z"/></g>
<g><path style="opacity:0.997" fill="#a8a8a8" d="M 213.5,100.5 C 213.685,102.196 214.519,103.529 216,104.5C 216.667,120.833 216.667,137.167 216,153.5C 215.617,154.056 215.117,154.389 214.5,154.5C 215.637,138.211 215.804,121.878 215,105.5C 210.163,100.215 205.496,100.215 201,105.5C 200.667,109.167 200.333,112.833 200,116.5C 198.644,117.38 197.144,117.714 195.5,117.5C 194.892,113.528 194.392,109.528 194,105.5C 191.735,102.534 188.735,101.201 185,101.5C 180.629,102.863 176.129,103.529 171.5,103.5C 170.833,102.833 170.167,102.167 169.5,101.5C 176.159,101.046 182.826,100.713 189.5,100.5C 197.623,100.377 205.623,100.377 213.5,100.5 Z"/></g>
<g><path style="opacity:1" fill="#0a0a0a" d="M 100.5,137.5 C 99.1632,142.394 97.8298,147.394 96.5,152.5C 93.8333,153.833 91.1667,153.833 88.5,152.5C 88.1373,151.817 87.8039,151.15 87.5,150.5C 87.3339,144.824 87.5006,139.157 88,133.5C 90,132.833 91.3333,131.5 92,129.5C 94.3753,122.107 96.7086,114.774 99,107.5C 102.55,104.457 105.05,105.123 106.5,109.5C 103.88,118.653 101.88,127.986 100.5,137.5 Z"/></g>
<g><path style="opacity:1" fill="#828282" d="M 107.5,100.5 C 108.334,101.748 109.667,102.415 111.5,102.5C 122.28,100.868 132.946,101.201 143.5,103.5C 152.027,101.664 160.694,100.997 169.5,101.5C 170.167,102.167 170.833,102.833 171.5,103.5C 170.833,103.5 170.167,103.5 169.5,103.5C 163.217,102.416 156.884,102.249 150.5,103C 146.536,105.651 145.536,109.151 147.5,113.5C 143.544,111.478 140.877,112.478 139.5,116.5C 135.6,117.523 134.6,119.857 136.5,123.5C 133.427,123.547 131.094,122.381 129.5,120C 129.759,118.739 130.426,117.739 131.5,117C 138.648,116.053 141.648,112.22 140.5,105.5C 139.378,104.37 138.044,103.703 136.5,103.5C 130.681,102.347 124.681,102.181 118.5,103C 117.667,103.833 116.833,104.667 116,105.5C 115.773,119.683 115.273,133.85 114.5,148C 114.514,149.385 114.848,150.551 115.5,151.5C 116.167,151.5 116.833,151.5 117.5,151.5C 117.833,152.167 118.167,152.833 118.5,153.5C 124.987,154.654 131.654,154.821 138.5,154C 140.65,151.445 140.983,148.612 139.5,145.5C 138.099,144.479 136.765,143.479 135.5,142.5C 133.136,141.443 131.136,139.943 129.5,138C 129.759,136.739 130.426,135.739 131.5,135C 137.166,134.837 139.833,132.004 139.5,126.5C 141.47,130.581 140.303,133.581 136,135.5C 135.833,136.333 135.667,137.167 135.5,138C 136.937,141.106 139.104,143.606 142,145.5C 143.361,150.274 141.861,153.774 137.5,156C 131.175,156.5 124.842,156.666 118.5,156.5C 116.958,155.699 115.292,155.366 113.5,155.5C 113.448,140.842 113.448,126.175 113.5,111.5C 112.303,114.928 110.803,118.261 109,121.5C 107.791,126.793 106.791,132.126 106,137.5C 102.556,141.462 100.89,146.128 101,151.5C 100.634,153.452 99.8005,155.118 98.5,156.5C 94.6286,156.815 90.9619,156.482 87.5,155.5C 90.8499,155.665 94.1832,155.498 97.5,155C 98,154.5 98.5,154 99,153.5C 102.716,139.046 106.216,124.546 109.5,110C 109.464,107.906 109.131,105.906 108.5,104C 103.322,101.446 98.8221,102.279 95,106.5C 91.3673,122.333 88.2006,122.333 85.5,106.5C 84.5,105.833 83.5,105.167 82.5,104.5C 80.7116,103.378 78.7116,103.211 76.5,104C 73.6396,106.86 70.8063,109.694 68,112.5C 66.0841,109.001 63.9175,105.668 61.5,102.5C 64.0773,103.374 66.5773,104.374 69,105.5C 71.571,104.53 74.071,103.363 76.5,102C 79.4816,101.502 82.4816,101.335 85.5,101.5C 86.3984,105.181 88.0651,108.514 90.5,111.5C 92.5554,107.876 94.8888,104.376 97.5,101C 100.817,100.502 104.15,100.335 107.5,100.5 Z"/></g>
<g><path style="opacity:0.999" fill="#040303" d="M 34.5,106.5 C 35.3316,123.328 35.8316,140.328 36,157.5C 37.9199,159.474 39.7532,161.474 41.5,163.5C 36.7139,162.381 34.0473,159.381 33.5,154.5C 30.4121,154.361 27.7454,153.361 25.5,151.5C 25.3505,150.448 25.5172,149.448 26,148.5C 27.7911,146.587 29.7911,144.92 32,143.5C 32.6667,136.833 32.6667,130.167 32,123.5C 28.3228,121.143 26.4894,117.81 26.5,113.5C 30.3951,112.607 33.0618,110.274 34.5,106.5 Z"/></g>
<g><path style="opacity:1" fill="#b2b2b2" d="M 48.5,92.5 C 48.5,95.1667 48.5,97.8333 48.5,100.5C 49.8333,100.5 51.1667,100.5 52.5,100.5C 51.1086,102.792 50.1086,105.292 49.5,108C 50.1314,110.746 51.1314,113.246 52.5,115.5C 52.5,115.833 52.5,116.167 52.5,116.5C 52.5,117.5 52.5,118.5 52.5,119.5C 51.2517,116.516 49.585,113.682 47.5,111C 44.2406,110.753 42.2406,112.253 41.5,115.5C 41.523,113.073 42.023,110.74 43,108.5C 44.7134,107.122 46.0467,105.455 47,103.5C 47.1773,99.6437 47.6773,95.977 48.5,92.5 Z"/></g>
<g><path style="opacity:1" fill="#2a2a2a" d="M 167.5,105.5 C 161.907,105.193 156.407,105.527 151,106.5C 150.333,108.167 150.333,109.833 151,111.5C 153.148,112.977 154.482,114.977 155,117.5C 155.5,128.828 155.667,140.162 155.5,151.5C 154.833,151.5 154.167,151.5 153.5,151.5C 153.5,149.5 153.5,147.5 153.5,145.5C 154.657,136.676 154.824,127.676 154,118.5C 153.106,115.608 151.44,113.274 149,111.5C 148.104,108.975 148.604,106.808 150.5,105C 156.349,104.182 162.015,104.348 167.5,105.5 Z"/></g>
<g><path style="opacity:1" fill="#494949" d="M 169.5,103.5 C 171.391,105.836 171.891,108.502 171,111.5C 168.763,113.647 166.763,115.98 165,118.5C 164.667,129.833 164.333,141.167 164,152.5C 161.159,154.504 157.993,155.004 154.5,154C 153.748,153.329 153.414,152.496 153.5,151.5C 154.167,151.5 154.833,151.5 155.5,151.5C 157.879,154.14 160.379,154.14 163,151.5C 163.333,140.167 163.667,128.833 164,117.5C 166.514,114.841 168.347,111.841 169.5,108.5C 169.36,106.97 168.693,105.97 167.5,105.5C 162.015,104.348 156.349,104.182 150.5,105C 148.604,106.808 148.104,108.975 149,111.5C 151.44,113.274 153.106,115.608 154,118.5C 154.824,127.676 154.657,136.676 153.5,145.5C 153.666,136.827 153.5,128.16 153,119.5C 152.26,117.681 151.093,116.348 149.5,115.5C 148.167,115.5 147.5,114.833 147.5,113.5C 145.536,109.151 146.536,105.651 150.5,103C 156.884,102.249 163.217,102.416 169.5,103.5 Z"/></g>
<g><path style="opacity:1" fill="#383838" d="M 136.5,103.5 C 139.149,105.559 139.982,108.225 139,111.5C 135.336,113.631 131.502,115.298 127.5,116.5C 127.539,115.417 127.873,114.417 128.5,113.5C 131.366,112.792 134.2,112.125 137,111.5C 137.798,109.741 137.631,108.074 136.5,106.5C 133.869,105.276 131.035,104.609 128,104.5C 125.5,104.667 123,104.833 120.5,105C 120,105.5 119.5,106 119,106.5C 118.71,121.515 118.21,136.515 117.5,151.5C 116.833,151.5 116.167,151.5 115.5,151.5C 116.819,136.201 117.653,120.867 118,105.5C 118.5,105 119,104.5 119.5,104C 125.157,103.501 130.824,103.334 136.5,103.5 Z"/></g>
<g><path style="opacity:1" fill="#5e5f5e" d="M 61.5,102.5 C 63.9175,105.668 66.0841,109.001 68,112.5C 70.8063,109.694 73.6396,106.86 76.5,104C 78.7116,103.211 80.7116,103.378 82.5,104.5C 78.7779,103.68 76.4446,105.013 75.5,108.5C 75.5,108.833 75.5,109.167 75.5,109.5C 74.0215,113.285 72.8549,117.285 72,121.5C 70.1862,122.76 68.3529,122.76 66.5,121.5C 65.6667,119.833 64.8333,118.167 64,116.5C 64.0835,112.689 63.2501,109.355 61.5,106.5C 61.0296,105.307 60.0296,104.64 58.5,104.5C 54.9259,104.575 53.2592,106.408 53.5,110C 53.954,118.21 55.7873,126.043 59,133.5C 60.418,139.089 61.418,144.756 62,150.5C 62.3826,151.056 62.8826,151.389 63.5,151.5C 63.5,152.167 63.5,152.833 63.5,153.5C 62.5416,153.047 61.7083,152.381 61,151.5C 58.6897,139.598 55.8564,127.932 52.5,116.5C 52.5,116.167 52.5,115.833 52.5,115.5C 51.7166,111.854 51.5499,108.188 52,104.5C 54.8263,102.66 57.9929,101.994 61.5,102.5 Z"/></g>
<g><path style="opacity:0.035" fill="#bca9b3" d="M 246.5,112.5 C 247.857,113.59 248.857,114.924 249.5,116.5C 249.5,119.167 249.5,121.833 249.5,124.5C 248.508,120.596 247.508,116.596 246.5,112.5 Z"/></g>
<g><path style="opacity:1" fill="#fdfcfc" d="M 56.5,149.5 C 57.5066,152.643 59.1733,155.477 61.5,158C 65.8333,158.667 70.1667,158.667 74.5,158C 76.4552,157.047 78.1218,155.713 79.5,154C 80.7932,153.51 82.1266,153.343 83.5,153.5C 83.2865,155.144 83.6198,156.644 84.5,158C 88.8333,158.667 93.1667,158.667 97.5,158C 98.056,157.617 98.3893,157.117 98.5,156.5C 99.4959,156.586 100.329,156.252 101,155.5C 102.273,152.511 103.439,149.511 104.5,146.5C 105.208,144.622 106.374,142.955 108,141.5C 108.333,141.833 108.667,142.167 109,142.5C 109.172,146.871 109.672,151.204 110.5,155.5C 112.167,156.667 113.833,157.833 115.5,159C 128.176,159.561 140.843,159.395 153.5,158.5C 157.311,159.645 161.311,159.812 165.5,159C 167.223,158.477 168.556,157.477 169.5,156C 170.81,145.344 170.81,134.677 169.5,124C 169.884,120.255 171.718,119.089 175,120.5C 175.333,131.5 175.667,142.5 176,153.5C 176.383,154.056 176.883,154.389 177.5,154.5C 177.511,156.017 178.177,157.184 179.5,158C 185.354,158.665 191.187,158.499 197,157.5C 203.296,159.454 209.796,159.954 216.5,159C 218.329,158.727 219.829,157.893 221,156.5C 222.29,160.73 222.79,165.064 222.5,169.5C 218.73,173.818 215.897,178.818 214,184.5C 210.658,189.008 206.825,193.008 202.5,196.5C 201.37,197.622 200.703,198.956 200.5,200.5C 196.5,201.656 193.5,204.156 191.5,208C 187.69,209.13 184.357,211.13 181.5,214C 177.833,214.333 174.167,214.667 170.5,215C 167.122,219.352 162.788,222.185 157.5,223.5C 156.833,223.5 156.167,223.5 155.5,223.5C 140.496,223.667 125.496,223.5 110.5,223C 107.708,220.01 104.375,218.177 100.5,217.5C 95.6309,215.682 91.2976,212.849 87.5,209C 85.6079,208.027 83.6079,207.36 81.5,207C 77.1667,202 72.8333,197 68.5,192C 67.2068,191.51 65.8734,191.343 64.5,191.5C 64.6567,190.127 64.49,188.793 64,187.5C 59.7293,184.844 57.2293,181.01 56.5,176C 56.6448,175.228 56.9781,174.561 57.5,174C 55.6266,171.791 53.46,169.958 51,168.5C 50.6667,163.833 50.3333,159.167 50,154.5C 48.9133,151.419 47.08,148.919 44.5,147C 42.5442,137.931 42.0442,128.764 43,119.5C 44.0095,116.552 45.8429,115.886 48.5,117.5C 49.3918,126.494 50.2251,135.494 51,144.5C 52.0757,147.079 53.909,148.746 56.5,149.5 Z"/></g>
<g><path style="opacity:1" fill="#5b5b5b" d="M 87.5,155.5 C 85.9039,150.36 84.9039,145.027 84.5,139.5C 85.1174,139.611 85.6174,139.944 86,140.5C 86.1787,144.025 86.6787,147.359 87.5,150.5C 87.8039,151.15 88.1373,151.817 88.5,152.5C 91.1667,153.833 93.8333,153.833 96.5,152.5C 97.8298,147.394 99.1632,142.394 100.5,137.5C 102.525,129.752 105.025,122.085 108,114.5C 110.907,105.914 108.073,102.747 99.5,105C 97.0321,107.228 95.8654,110.062 96,113.5C 92.7126,116.404 90.7126,120.071 90,124.5C 88.9887,125.337 87.8221,125.67 86.5,125.5C 86.1005,119.171 85.7671,112.838 85.5,106.5C 88.2006,122.333 91.3673,122.333 95,106.5C 98.8221,102.279 103.322,101.446 108.5,104C 109.131,105.906 109.464,107.906 109.5,110C 106.216,124.546 102.716,139.046 99,153.5C 98.5,154 98,154.5 97.5,155C 94.1832,155.498 90.8499,155.665 87.5,155.5 Z"/></g>
<g><path style="opacity:1" fill="#d9d9d9" d="M 177.5,154.5 C 176.883,154.389 176.383,154.056 176,153.5C 175.667,142.5 175.333,131.5 175,120.5C 171.718,119.089 169.884,120.255 169.5,124C 170.81,134.677 170.81,145.344 169.5,156C 168.556,157.477 167.223,158.477 165.5,159C 161.311,159.812 157.311,159.645 153.5,158.5C 156.85,158.665 160.183,158.498 163.5,158C 164.931,157.535 166.097,156.701 167,155.5C 168.27,143.904 168.936,132.238 169,120.5C 170.608,116.646 173.274,115.646 177,117.5C 177.5,129.829 177.667,142.162 177.5,154.5 Z"/></g>
<g><path style="opacity:1" fill="#0f0f0f" d="M 127.5,116.5 C 125.416,120.869 126.749,123.869 131.5,125.5C 133.045,126.452 134.712,126.785 136.5,126.5C 136.5,127.833 136.5,129.167 136.5,130.5C 133.187,131.045 129.854,131.545 126.5,132C 122.692,141.857 126.025,146.19 136.5,145C 138.444,147.153 138.944,149.653 138,152.5C 131.59,153.478 125.09,153.811 118.5,153.5C 118.167,152.833 117.833,152.167 117.5,151.5C 118.21,136.515 118.71,121.515 119,106.5C 119.5,106 120,105.5 120.5,105C 123,104.833 125.5,104.667 128,104.5C 131.035,104.609 133.869,105.276 136.5,106.5C 137.631,108.074 137.798,109.741 137,111.5C 134.2,112.125 131.366,112.792 128.5,113.5C 127.873,114.417 127.539,115.417 127.5,116.5 Z"/></g>
<g><path style="opacity:0.122" fill="#3f3338" d="M 246.5,112.5 C 247.508,116.596 248.508,120.596 249.5,124.5C 249.5,129.5 249.5,134.5 249.5,139.5C 248.833,140.167 248.167,140.833 247.5,141.5C 247.673,132.769 247.007,124.102 245.5,115.5C 245.52,114.274 245.853,113.274 246.5,112.5 Z"/></g>
<g><path style="opacity:0.996" fill="#490a25" d="M 16.5,113.5 C 21.3231,114.783 24.6564,117.783 26.5,122.5C 28.9339,123.771 30.4339,125.771 31,128.5C 32.0985,134.064 31.2652,139.231 28.5,144C 26.5,144.667 24.5,144.667 22.5,144C 21.9473,142.122 20.9473,140.622 19.5,139.5C 17.8712,138.375 16.3712,137.041 15,135.5C 10.6459,128.083 8.81256,120.083 9.5,111.5C 12.0786,111.394 14.412,112.061 16.5,113.5 Z"/></g>
<g><path style="opacity:0.996" fill="#b6175d" d="M 21.5,119.5 C 23.4113,120.075 25.078,121.075 26.5,122.5C 26.5,123.167 26.5,123.833 26.5,124.5C 27.1621,128.466 27.4955,132.466 27.5,136.5C 23.2754,137.269 20.6087,135.602 19.5,131.5C 15.8366,128.836 14.6699,125.169 16,120.5C 17.6995,119.594 19.5328,119.261 21.5,119.5 Z"/></g>
<g><path style="opacity:0.991" fill="#f31f7d" d="M 19.5,131.5 C 17.877,128.785 17.2104,125.785 17.5,122.5C 21.1704,122.327 23.6704,123.993 25,127.5C 25.4955,129.473 25.6621,131.473 25.5,133.5C 23.3146,133.296 21.3146,132.63 19.5,131.5 Z"/></g>
<g><path style="opacity:1" fill="#393939" d="M 82.5,104.5 C 83.5,105.167 84.5,105.833 85.5,106.5C 85.7671,112.838 86.1005,119.171 86.5,125.5C 87.8221,125.67 88.9887,125.337 90,124.5C 90.7126,120.071 92.7126,116.404 96,113.5C 95.8654,110.062 97.0321,107.228 99.5,105C 108.073,102.747 110.907,105.914 108,114.5C 105.025,122.085 102.525,129.752 100.5,137.5C 101.88,127.986 103.88,118.653 106.5,109.5C 105.05,105.123 102.55,104.457 99,107.5C 96.7086,114.774 94.3753,122.107 92,129.5C 91.3333,131.5 90,132.833 88,133.5C 87.5006,139.157 87.3339,144.824 87.5,150.5C 86.6787,147.359 86.1787,144.025 86,140.5C 85.6174,139.944 85.1174,139.611 84.5,139.5C 84.838,136.843 84.1713,134.51 82.5,132.5C 80.0621,134.924 78.0621,137.591 76.5,140.5C 76.969,136.263 78.1357,132.263 80,128.5C 80.6368,126.697 81.8035,125.364 83.5,124.5C 84.6632,118.863 84.8299,113.196 84,107.5C 80.8833,104.815 78.05,105.148 75.5,108.5C 76.4446,105.013 78.7779,103.68 82.5,104.5 Z"/></g>
<g><path style="opacity:1" fill="#060606" d="M 74.5,148.5 C 74.5674,149.959 74.2341,151.292 73.5,152.5C 70.5,152.5 67.5,152.5 64.5,152.5C 65.2754,147.452 65.2754,142.452 64.5,137.5C 68.4182,132.976 72.2515,128.309 76,123.5C 76.3333,118.833 76.6667,114.167 77,109.5C 78.3957,107.473 80.0624,107.14 82,108.5C 83.2905,113.11 83.6238,117.777 83,122.5C 76.4809,129.892 73.6476,138.558 74.5,148.5 Z"/></g>
<g><path style="opacity:0.998" fill="#303030" d="M 61.5,106.5 C 63.2501,109.355 64.0835,112.689 64,116.5C 64.8333,118.167 65.6667,119.833 66.5,121.5C 68.3529,122.76 70.1862,122.76 72,121.5C 72.8549,117.285 74.0215,113.285 75.5,109.5C 75.6657,113.846 75.499,118.179 75,122.5C 71.4036,126.415 67.4036,129.748 63,132.5C 63.108,138.812 63.2746,145.145 63.5,151.5C 62.8826,151.389 62.3826,151.056 62,150.5C 61.418,144.756 60.418,139.089 59,133.5C 55.7873,126.043 53.954,118.21 53.5,110C 53.2592,106.408 54.9259,104.575 58.5,104.5C 60.0296,104.64 61.0296,105.307 61.5,106.5 Z"/></g>
<g><path style="opacity:1" fill="#0f0f0f" d="M 61.5,106.5 C 61.1854,111.715 61.852,116.715 63.5,121.5C 63.5494,125.712 61.716,127.045 58,125.5C 55.6559,119.369 54.9892,113.036 56,106.5C 57.8278,105.248 59.6612,105.248 61.5,106.5 Z"/></g>
<g><path style="opacity:1" fill="#5a5a5a" d="M 136.5,103.5 C 138.044,103.703 139.378,104.37 140.5,105.5C 141.648,112.22 138.648,116.053 131.5,117C 130.426,117.739 129.759,118.739 129.5,120C 131.094,122.381 133.427,123.547 136.5,123.5C 137.833,124.167 138.833,125.167 139.5,126.5C 139.833,132.004 137.166,134.837 131.5,135C 130.426,135.739 129.759,136.739 129.5,138C 131.136,139.943 133.136,141.443 135.5,142.5C 128.324,143.015 126.658,140.182 130.5,134C 133.308,133.402 135.808,132.235 138,130.5C 138.667,129.167 138.667,127.833 138,126.5C 135.443,124.811 132.609,123.644 129.5,123C 127.771,121.211 127.104,119.044 127.5,116.5C 131.502,115.298 135.336,113.631 139,111.5C 139.982,108.225 139.149,105.559 136.5,103.5 Z"/></g>
<g><path style="opacity:1" fill="#191919" d="M 76.5,140.5 C 75.9216,143.28 75.2549,145.947 74.5,148.5C 73.6476,138.558 76.4809,129.892 83,122.5C 83.6238,117.777 83.2905,113.11 82,108.5C 80.0624,107.14 78.3957,107.473 77,109.5C 76.6667,114.167 76.3333,118.833 76,123.5C 72.2515,128.309 68.4182,132.976 64.5,137.5C 65.2754,142.452 65.2754,147.452 64.5,152.5C 67.5,152.5 70.5,152.5 73.5,152.5C 70.3752,153.479 67.0419,153.813 63.5,153.5C 63.5,152.833 63.5,152.167 63.5,151.5C 63.2746,145.145 63.108,138.812 63,132.5C 67.4036,129.748 71.4036,126.415 75,122.5C 75.499,118.179 75.6657,113.846 75.5,109.5C 75.5,109.167 75.5,108.833 75.5,108.5C 78.05,105.148 80.8833,104.815 84,107.5C 84.8299,113.196 84.6632,118.863 83.5,124.5C 81.8035,125.364 80.6368,126.697 80,128.5C 78.1357,132.263 76.969,136.263 76.5,140.5 Z"/></g>
<g><path style="opacity:1" fill="#4e4e4e" d="M 84.5,139.5 C 82.9098,137.576 81.0765,137.243 79,138.5C 77.5877,142.728 76.7544,147.061 76.5,151.5C 76.4894,153.017 75.8228,154.184 74.5,155C 71.1667,155.667 67.8333,155.667 64.5,155C 63.944,154.617 63.6107,154.117 63.5,153.5C 67.0419,153.813 70.3752,153.479 73.5,152.5C 74.2341,151.292 74.5674,149.959 74.5,148.5C 75.2549,145.947 75.9216,143.28 76.5,140.5C 78.0621,137.591 80.0621,134.924 82.5,132.5C 84.1713,134.51 84.838,136.843 84.5,139.5 Z"/></g>
<g><path style="opacity:1" fill="#2e2e2e" d="M 228.5,96.5 C 230.452,99.1184 232.785,101.452 235.5,103.5C 236.666,121.491 236.833,139.491 236,157.5C 234.546,161.181 232.212,164.181 229,166.5C 228.441,170.186 227.774,173.853 227,177.5C 225.568,179.439 223.735,180.772 221.5,181.5C 222.742,179.75 224.242,178.083 226,176.5C 226.912,172.205 227.579,167.872 228,163.5C 229.713,162.122 231.047,160.455 232,158.5C 233.439,153.264 234.272,147.931 234.5,142.5C 235.824,131.326 235.824,119.993 234.5,108.5C 232.87,105.702 231.037,103.035 229,100.5C 228.51,99.2068 228.343,97.8734 228.5,96.5 Z"/></g>
<g><path style="opacity:1" fill="#606060" d="M 136.5,103.5 C 130.824,103.334 125.157,103.501 119.5,104C 119,104.5 118.5,105 118,105.5C 117.653,120.867 116.819,136.201 115.5,151.5C 114.848,150.551 114.514,149.385 114.5,148C 115.273,133.85 115.773,119.683 116,105.5C 116.833,104.667 117.667,103.833 118.5,103C 124.681,102.181 130.681,102.347 136.5,103.5 Z"/></g>
<g><path style="opacity:1" fill="#bfbfbf" d="M 213.5,100.5 C 216.766,100.433 218.266,102.099 218,105.5C 218.667,121.167 218.667,136.833 218,152.5C 216.982,154.928 215.148,156.262 212.5,156.5C 212.833,155.5 213.5,154.833 214.5,154.5C 215.117,154.389 215.617,154.056 216,153.5C 216.667,137.167 216.667,120.833 216,104.5C 214.519,103.529 213.685,102.196 213.5,100.5 Z"/></g>
<g><path style="opacity:0.996" fill="#8c1147" d="M 21.5,119.5 C 19.5328,119.261 17.6995,119.594 16,120.5C 14.6699,125.169 15.8366,128.836 19.5,131.5C 20.6087,135.602 23.2754,137.269 27.5,136.5C 27.4955,132.466 27.1621,128.466 26.5,124.5C 28.7555,126.759 29.7555,129.592 29.5,133C 29.6243,135.59 28.9577,137.923 27.5,140C 26.1667,140.667 24.8333,140.667 23.5,140C 21.6327,136.632 18.966,134.132 15.5,132.5C 13.7191,127.972 13.2191,123.305 14,118.5C 15.231,117.892 16.5643,117.559 18,117.5C 19.6811,117.608 20.8478,118.275 21.5,119.5 Z"/></g>
<g><path style="opacity:1" fill="#343434" d="M 127.5,116.5 C 127.104,119.044 127.771,121.211 129.5,123C 132.609,123.644 135.443,124.811 138,126.5C 138.667,127.833 138.667,129.167 138,130.5C 135.808,132.235 133.308,133.402 130.5,134C 126.658,140.182 128.324,143.015 135.5,142.5C 136.765,143.479 138.099,144.479 139.5,145.5C 140.983,148.612 140.65,151.445 138.5,154C 131.654,154.821 124.987,154.654 118.5,153.5C 125.09,153.811 131.59,153.478 138,152.5C 138.944,149.653 138.444,147.153 136.5,145C 126.025,146.19 122.692,141.857 126.5,132C 129.854,131.545 133.187,131.045 136.5,130.5C 136.5,129.167 136.5,127.833 136.5,126.5C 134.712,126.785 133.045,126.452 131.5,125.5C 126.749,123.869 125.416,120.869 127.5,116.5 Z"/></g>
<g><path style="opacity:1" fill="#969696" d="M 52.5,116.5 C 55.8564,127.932 58.6897,139.598 61,151.5C 61.7083,152.381 62.5416,153.047 63.5,153.5C 63.6107,154.117 63.944,154.617 64.5,155C 67.8333,155.667 71.1667,155.667 74.5,155C 75.8228,154.184 76.4894,153.017 76.5,151.5C 77.6253,148.822 79.2919,146.488 81.5,144.5C 82.1667,144.833 82.8333,145.167 83.5,145.5C 84.48,148.086 84.8134,150.753 84.5,153.5C 84.1667,153.5 83.8333,153.5 83.5,153.5C 83.8841,151.335 83.2174,149.668 81.5,148.5C 79.4141,150.883 77.4141,153.383 75.5,156C 71.5,156.667 67.5,156.667 63.5,156C 60.4167,153.107 58.25,149.607 57,145.5C 55.0893,138.462 53.5893,131.462 52.5,124.5C 52.5,122.833 52.5,121.167 52.5,119.5C 52.5,118.5 52.5,117.5 52.5,116.5 Z"/></g>
<g><path style="opacity:1" fill="#b5b5b5" d="M 113.5,155.5 C 112.883,155.389 112.383,155.056 112,154.5C 111.786,149.115 111.286,143.781 110.5,138.5C 108.157,137.275 106.323,137.941 105,140.5C 104.505,142.473 104.338,144.473 104.5,146.5C 103.439,149.511 102.273,152.511 101,155.5C 100.329,156.252 99.4959,156.586 98.5,156.5C 99.8005,155.118 100.634,153.452 101,151.5C 100.89,146.128 102.556,141.462 106,137.5C 106.791,132.126 107.791,126.793 109,121.5C 110.803,118.261 112.303,114.928 113.5,111.5C 113.448,126.175 113.448,140.842 113.5,155.5 Z"/></g>
<g><path style="opacity:1" fill="#797979" d="M 84.5,139.5 C 84.9039,145.027 85.9039,150.36 87.5,155.5C 86.5,154.833 85.5,154.167 84.5,153.5C 84.8134,150.753 84.48,148.086 83.5,145.5C 82.8333,145.167 82.1667,144.833 81.5,144.5C 79.2919,146.488 77.6253,148.822 76.5,151.5C 76.7544,147.061 77.5877,142.728 79,138.5C 81.0765,137.243 82.9098,137.576 84.5,139.5 Z"/></g>
<g><path style="opacity:1" fill="#a3a3a3" d="M 202.5,156.5 C 200.772,155.621 198.939,154.954 197,154.5C 191.895,157.389 186.395,158.222 180.5,157C 179.944,156.617 179.611,156.117 179.5,155.5C 180.167,155.5 180.833,155.5 181.5,155.5C 184.5,155.5 187.5,155.5 190.5,155.5C 192.752,155.084 194.252,153.751 195,151.5C 195.093,147.159 195.093,142.826 195,138.5C 196.784,135.997 198.451,135.997 200,138.5C 200.333,143.5 200.667,148.5 201,153.5C 201.513,154.527 202.013,155.527 202.5,156.5 Z"/></g>
<g><path style="opacity:0.012" fill="#b9a6b0" d="M 249.5,139.5 C 249.5,141.167 249.5,142.833 249.5,144.5C 248.833,144.5 248.5,144.833 248.5,145.5C 247.833,145.833 247.167,146.167 246.5,146.5C 246.366,144.708 246.699,143.042 247.5,141.5C 248.167,140.833 248.833,140.167 249.5,139.5 Z"/></g>
<g><path style="opacity:0.008" fill="#fffafd" d="M 248.5,145.5 C 248.88,147.698 248.213,149.365 246.5,150.5C 246.5,149.167 246.5,147.833 246.5,146.5C 247.167,146.167 247.833,145.833 248.5,145.5 Z"/></g>
<g><path style="opacity:1" fill="#737373" d="M 214.5,154.5 C 213.5,154.833 212.833,155.5 212.5,156.5C 209.167,156.5 205.833,156.5 202.5,156.5C 202.013,155.527 201.513,154.527 201,153.5C 200.667,148.5 200.333,143.5 200,138.5C 198.451,135.997 196.784,135.997 195,138.5C 195.093,142.826 195.093,147.159 195,151.5C 194.252,153.751 192.752,155.084 190.5,155.5C 193.807,151.199 194.474,146.366 192.5,141C 192.447,134.805 195.28,132.971 201,135.5C 202.068,140.906 202.901,146.239 203.5,151.5C 203.414,152.496 203.748,153.329 204.5,154C 206.473,154.495 208.473,154.662 210.5,154.5C 211.496,154.586 212.329,154.252 213,153.5C 213.833,137.49 213.666,121.49 212.5,105.5C 209.005,102.632 205.838,102.965 203,106.5C 202.857,110.619 202.19,114.619 201,118.5C 198.861,119.769 196.695,119.769 194.5,118.5C 193.848,114.139 193.015,109.805 192,105.5C 191.329,104.748 190.496,104.414 189.5,104.5C 185.607,102.761 182.107,103.427 179,106.5C 180.282,121.411 180.782,136.411 180.5,151.5C 180.433,152.959 180.766,154.292 181.5,155.5C 180.833,155.5 180.167,155.5 179.5,155.5C 178.982,141.476 178.148,127.476 177,113.5C 175.867,111.789 174.367,111.289 172.5,112C 170.291,113.873 168.458,116.04 167,118.5C 166.667,130.5 166.333,142.5 166,154.5C 164.004,156.059 161.671,156.726 159,156.5C 154.93,157.041 152.597,155.374 152,151.5C 151.667,140.833 151.333,130.167 151,119.5C 150.209,118.255 149.709,116.922 149.5,115.5C 151.093,116.348 152.26,117.681 153,119.5C 153.5,128.16 153.666,136.827 153.5,145.5C 153.5,147.5 153.5,149.5 153.5,151.5C 153.414,152.496 153.748,153.329 154.5,154C 157.993,155.004 161.159,154.504 164,152.5C 164.333,141.167 164.667,129.833 165,118.5C 166.763,115.98 168.763,113.647 171,111.5C 171.891,108.502 171.391,105.836 169.5,103.5C 170.167,103.5 170.833,103.5 171.5,103.5C 176.129,103.529 180.629,102.863 185,101.5C 188.735,101.201 191.735,102.534 194,105.5C 194.392,109.528 194.892,113.528 195.5,117.5C 197.144,117.714 198.644,117.38 200,116.5C 200.333,112.833 200.667,109.167 201,105.5C 205.496,100.215 210.163,100.215 215,105.5C 215.804,121.878 215.637,138.211 214.5,154.5 Z"/></g>
<g><path style="opacity:1" fill="#505050" d="M 203.5,151.5 C 202.901,146.239 202.068,140.906 201,135.5C 195.28,132.971 192.447,134.805 192.5,141C 194.474,146.366 193.807,151.199 190.5,155.5C 187.5,155.5 184.5,155.5 181.5,155.5C 180.766,154.292 180.433,152.959 180.5,151.5C 180.833,151.5 181.167,151.5 181.5,151.5C 181.5,151.833 181.5,152.167 181.5,152.5C 182.492,154.026 183.992,154.693 186,154.5C 188.034,154.646 189.701,153.98 191,152.5C 191.333,146.833 191.667,141.167 192,135.5C 194.559,132.651 197.726,131.817 201.5,133C 202.191,134.067 202.691,135.234 203,136.5C 203.499,141.489 203.666,146.489 203.5,151.5 Z"/></g>
<g><path style="opacity:1" fill="#252626" d="M 211.5,145.5 C 210.424,139.693 209.757,133.693 209.5,127.5C 210.308,120.84 210.474,114.174 210,107.5C 208.667,106.167 207.333,106.167 206,107.5C 205.814,110.036 205.314,112.369 204.5,114.5C 204.336,111.813 204.503,109.146 205,106.5C 207,105.167 209,105.167 211,106.5C 211.5,119.496 211.667,132.496 211.5,145.5 Z"/></g>
<g><path style="opacity:1" fill="#1a1a1a" d="M 189.5,118.5 C 190.224,120.218 190.891,122.052 191.5,124C 196.263,125.034 200.597,124.201 204.5,121.5C 204.586,122.496 204.252,123.329 203.5,124C 200.782,125.072 198.115,126.238 195.5,127.5C 198.879,128.462 202.046,129.795 205,131.5C 206.619,138.113 206.786,144.78 205.5,151.5C 207.5,151.5 209.5,151.5 211.5,151.5C 211.5,149.5 211.5,147.5 211.5,145.5C 212.96,148.627 212.627,151.627 210.5,154.5C 208.473,154.662 206.473,154.495 204.5,154C 203.748,153.329 203.414,152.496 203.5,151.5C 203.666,146.489 203.499,141.489 203,136.5C 202.691,135.234 202.191,134.067 201.5,133C 197.726,131.817 194.559,132.651 192,135.5C 191.667,141.167 191.333,146.833 191,152.5C 189.701,153.98 188.034,154.646 186,154.5C 183.992,154.693 182.492,154.026 181.5,152.5C 184.448,152.777 187.281,152.444 190,151.5C 189.125,145.227 188.792,138.894 189,132.5C 192.651,129.982 192.984,127.316 190,124.5C 189.505,122.527 189.338,120.527 189.5,118.5 Z"/></g>
<g><path style="opacity:1" fill="#313131" d="M 189.5,104.5 C 191.473,110.252 192.806,116.252 193.5,122.5C 199.013,122.975 202.68,120.642 204.5,115.5C 204.5,117.5 204.5,119.5 204.5,121.5C 200.597,124.201 196.263,125.034 191.5,124C 190.891,122.052 190.224,120.218 189.5,118.5C 189.665,114.818 189.499,111.152 189,107.5C 186.667,106.167 184.333,106.167 182,107.5C 181.5,122.163 181.333,136.83 181.5,151.5C 181.167,151.5 180.833,151.5 180.5,151.5C 180.782,136.411 180.282,121.411 179,106.5C 182.107,103.427 185.607,102.761 189.5,104.5 Z"/></g>
<g><path style="opacity:1" fill="#060606" d="M 211.5,145.5 C 211.5,147.5 211.5,149.5 211.5,151.5C 209.5,151.5 207.5,151.5 205.5,151.5C 206.786,144.78 206.619,138.113 205,131.5C 202.046,129.795 198.879,128.462 195.5,127.5C 198.115,126.238 200.782,125.072 203.5,124C 204.252,123.329 204.586,122.496 204.5,121.5C 204.5,119.5 204.5,117.5 204.5,115.5C 204.5,115.167 204.5,114.833 204.5,114.5C 205.314,112.369 205.814,110.036 206,107.5C 207.333,106.167 208.667,106.167 210,107.5C 210.474,114.174 210.308,120.84 209.5,127.5C 209.757,133.693 210.424,139.693 211.5,145.5 Z"/></g>
<g><path style="opacity:1" fill="#050505" d="M 189.5,118.5 C 189.338,120.527 189.505,122.527 190,124.5C 192.984,127.316 192.651,129.982 189,132.5C 188.792,138.894 189.125,145.227 190,151.5C 187.281,152.444 184.448,152.777 181.5,152.5C 181.5,152.167 181.5,151.833 181.5,151.5C 181.333,136.83 181.5,122.163 182,107.5C 184.333,106.167 186.667,106.167 189,107.5C 189.499,111.152 189.665,114.818 189.5,118.5 Z"/></g>
<g><path style="opacity:1" fill="#474747" d="M 210.5,154.5 C 212.627,151.627 212.96,148.627 211.5,145.5C 211.667,132.496 211.5,119.496 211,106.5C 209,105.167 207,105.167 205,106.5C 204.503,109.146 204.336,111.813 204.5,114.5C 204.5,114.833 204.5,115.167 204.5,115.5C 202.68,120.642 199.013,122.975 193.5,122.5C 192.806,116.252 191.473,110.252 189.5,104.5C 190.496,104.414 191.329,104.748 192,105.5C 193.015,109.805 193.848,114.139 194.5,118.5C 196.695,119.769 198.861,119.769 201,118.5C 202.19,114.619 202.857,110.619 203,106.5C 205.838,102.965 209.005,102.632 212.5,105.5C 213.666,121.49 213.833,137.49 213,153.5C 212.329,154.252 211.496,154.586 210.5,154.5 Z"/></g>
<g><path style="opacity:1" fill="#e8e8e8" d="M 77.5,58.5 C 68.8525,69.6477 60.0191,80.6477 51,91.5C 50.5045,93.4727 50.3379,95.4727 50.5,97.5C 105.791,97.56 161.124,97.7266 216.5,98C 219.105,99.7898 220.605,102.29 221,105.5C 221.333,122.167 221.667,138.833 222,155.5C 223,154.833 224,154.167 225,153.5C 228.071,146.347 229.571,138.847 229.5,131C 228.761,120.222 227.095,109.722 224.5,99.5C 231.545,115.834 233.045,132.834 229,150.5C 227.964,153.295 226.631,155.962 225,158.5C 224.892,162.465 224.059,166.132 222.5,169.5C 222.79,165.064 222.29,160.73 221,156.5C 219.829,157.893 218.329,158.727 216.5,159C 209.796,159.954 203.296,159.454 197,157.5C 191.187,158.499 185.354,158.665 179.5,158C 178.177,157.184 177.511,156.017 177.5,154.5C 178.167,154.833 178.833,155.167 179.5,155.5C 179.611,156.117 179.944,156.617 180.5,157C 186.395,158.222 191.895,157.389 197,154.5C 198.939,154.954 200.772,155.621 202.5,156.5C 205.833,156.5 209.167,156.5 212.5,156.5C 215.148,156.262 216.982,154.928 218,152.5C 218.667,136.833 218.667,121.167 218,105.5C 218.266,102.099 216.766,100.433 213.5,100.5C 205.623,100.377 197.623,100.377 189.5,100.5C 179.85,99.4157 170.017,98.749 160,98.5C 140.662,98.6511 121.329,98.6511 102,98.5C 97.088,99.2687 92.2547,100.269 87.5,101.5C 85.2598,100.313 82.7598,99.6462 80,99.5C 76.1646,100.115 72.4979,101.115 69,102.5C 67.0448,102.359 65.5448,101.526 64.5,100C 60.9733,99.1925 57.6399,99.3592 54.5,100.5C 53.8333,100.5 53.1667,100.5 52.5,100.5C 51.1667,100.5 49.8333,100.5 48.5,100.5C 48.5,97.8333 48.5,95.1667 48.5,92.5C 48.5,92.1667 48.5,91.8333 48.5,91.5C 52.3189,89.1779 54.8189,85.8445 56,81.5C 61.0804,77.0906 65.4137,72.0906 69,66.5C 71.7494,63.579 74.5828,60.9123 77.5,58.5 Z"/></g>
<g><path style="opacity:1" fill="#191919" d="M 167.5,105.5 C 168.693,105.97 169.36,106.97 169.5,108.5C 168.347,111.841 166.514,114.841 164,117.5C 163.667,128.833 163.333,140.167 163,151.5C 160.379,154.14 157.879,154.14 155.5,151.5C 155.667,140.162 155.5,128.828 155,117.5C 154.482,114.977 153.148,112.977 151,111.5C 150.333,109.833 150.333,108.167 151,106.5C 156.407,105.527 161.907,105.193 167.5,105.5 Z"/></g>
<g><path style="opacity:1" fill="#050505" d="M 152.5,106.5 C 157.5,106.5 162.5,106.5 167.5,106.5C 168.227,110.224 166.894,112.891 163.5,114.5C 162.846,116.115 162.346,117.782 162,119.5C 161.5,130.161 161.333,140.828 161.5,151.5C 159.833,151.5 158.167,151.5 156.5,151.5C 156.667,139.162 156.5,126.829 156,114.5C 153.056,112.628 151.889,109.961 152.5,106.5 Z"/></g>
<g><path style="opacity:1" fill="#a9a9a9" d="M 179.5,155.5 C 178.833,155.167 178.167,154.833 177.5,154.5C 177.667,142.162 177.5,129.829 177,117.5C 173.274,115.646 170.608,116.646 169,120.5C 168.936,132.238 168.27,143.904 167,155.5C 166.097,156.701 164.931,157.535 163.5,158C 160.183,158.498 156.85,158.665 153.5,158.5C 149.981,153.968 145.981,153.468 141.5,157C 133.655,157.822 125.989,157.656 118.5,156.5C 124.842,156.666 131.175,156.5 137.5,156C 141.861,153.774 143.361,150.274 142,145.5C 139.104,143.606 136.937,141.106 135.5,138C 135.667,137.167 135.833,136.333 136,135.5C 140.303,133.581 141.47,130.581 139.5,126.5C 138.833,125.167 137.833,124.167 136.5,123.5C 134.6,119.857 135.6,117.523 139.5,116.5C 140.877,112.478 143.544,111.478 147.5,113.5C 147.5,114.833 148.167,115.5 149.5,115.5C 149.709,116.922 150.209,118.255 151,119.5C 151.333,130.167 151.667,140.833 152,151.5C 152.597,155.374 154.93,157.041 159,156.5C 161.671,156.726 164.004,156.059 166,154.5C 166.333,142.5 166.667,130.5 167,118.5C 168.458,116.04 170.291,113.873 172.5,112C 174.367,111.289 175.867,111.789 177,113.5C 178.148,127.476 178.982,141.476 179.5,155.5 Z"/></g>
<g><path style="opacity:1" fill="#e7e7e7" d="M 139.5,116.5 C 142.746,116.135 145.412,117.135 147.5,119.5C 148.79,126.531 148.623,133.531 147,140.5C 144.452,141.417 141.952,141.084 139.5,139.5C 139.069,138.707 138.735,137.873 138.5,137C 140.768,134.63 142.101,131.797 142.5,128.5C 140.685,125.829 139.019,122.996 137.5,120C 137.978,118.697 138.645,117.531 139.5,116.5 Z"/></g>
<g><path style="opacity:1" fill="#37071b" d="M 31.5,178.5 C 29.0801,176.08 27.9134,173.08 28,169.5C 22.5987,166.513 20.0987,161.846 20.5,155.5C 18.0799,155.708 15.7466,155.374 13.5,154.5C 12.2241,153.386 12.2241,152.386 13.5,151.5C 18.0546,148.873 22.3879,149.373 26.5,153C 30.9906,156.324 34.9906,160.157 38.5,164.5C 40.2017,169.225 39.5351,173.558 36.5,177.5C 34.9547,178.452 33.288,178.785 31.5,178.5 Z"/></g>
<g><path style="opacity:1" fill="#c5c5c5" d="M 52.5,124.5 C 53.5893,131.462 55.0893,138.462 57,145.5C 58.25,149.607 60.4167,153.107 63.5,156C 67.5,156.667 71.5,156.667 75.5,156C 77.4141,153.383 79.4141,150.883 81.5,148.5C 83.2174,149.668 83.8841,151.335 83.5,153.5C 82.1266,153.343 80.7932,153.51 79.5,154C 78.1218,155.713 76.4552,157.047 74.5,158C 70.1667,158.667 65.8333,158.667 61.5,158C 59.1733,155.477 57.5066,152.643 56.5,149.5C 53.9433,141.386 52.61,133.053 52.5,124.5 Z"/></g>
<g><path style="opacity:1" fill="#c4c4c4" d="M 83.5,153.5 C 83.8333,153.5 84.1667,153.5 84.5,153.5C 85.5,154.167 86.5,154.833 87.5,155.5C 90.9619,156.482 94.6286,156.815 98.5,156.5C 98.3893,157.117 98.056,157.617 97.5,158C 93.1667,158.667 88.8333,158.667 84.5,158C 83.6198,156.644 83.2865,155.144 83.5,153.5 Z"/></g>
<g><path style="opacity:1" fill="#dcdcdc" d="M 113.5,155.5 C 115.292,155.366 116.958,155.699 118.5,156.5C 125.989,157.656 133.655,157.822 141.5,157C 145.981,153.468 149.981,153.968 153.5,158.5C 140.843,159.395 128.176,159.561 115.5,159C 113.833,157.833 112.167,156.667 110.5,155.5C 109.672,151.204 109.172,146.871 109,142.5C 108.667,142.167 108.333,141.833 108,141.5C 106.374,142.955 105.208,144.622 104.5,146.5C 104.338,144.473 104.505,142.473 105,140.5C 106.323,137.941 108.157,137.275 110.5,138.5C 111.286,143.781 111.786,149.115 112,154.5C 112.383,155.056 112.883,155.389 113.5,155.5 Z"/></g>
<g><path style="opacity:1" fill="#b2b2b2" d="M 224.5,91.5 C 225.713,96.6117 227.38,101.612 229.5,106.5C 230.511,108.372 231.345,110.372 232,112.5C 234.203,126.894 233.87,141.227 231,155.5C 226.161,160.405 224.161,166.405 225,173.5C 220.802,181.2 215.635,188.2 209.5,194.5C 207.742,194.877 206.075,195.544 204.5,196.5C 203.479,198.188 202.145,199.521 200.5,200.5C 200.703,198.956 201.37,197.622 202.5,196.5C 206.825,193.008 210.658,189.008 214,184.5C 215.897,178.818 218.73,173.818 222.5,169.5C 224.059,166.132 224.892,162.465 225,158.5C 226.631,155.962 227.964,153.295 229,150.5C 233.045,132.834 231.545,115.834 224.5,99.5C 224.5,99.1667 224.5,98.8333 224.5,98.5C 224.5,96.1667 224.5,93.8333 224.5,91.5 Z"/></g>
<g><path style="opacity:0.016" fill="#0f080b" d="M -0.5,159.5 C 0.822066,159.33 1.98873,159.663 3,160.5C 5.1531,165.945 4.98643,171.278 2.5,176.5C 1.58317,175.873 0.583168,175.539 -0.5,175.5C -0.5,170.167 -0.5,164.833 -0.5,159.5 Z"/></g>
<g><path style="opacity:0.996" fill="#6a0d36" d="M 23.5,155.5 C 25.6547,155.372 27.6547,155.872 29.5,157C 31.2379,160.741 33.7379,163.908 37,166.5C 37.711,168.899 37.5443,171.232 36.5,173.5C 34.8333,174.833 33.1667,174.833 31.5,173.5C 30.5926,168.355 27.7593,164.688 23,162.5C 22.2967,160.071 22.4634,157.738 23.5,155.5 Z"/></g>
<g><path style="opacity:1" fill="#bfc0c0" d="M 41.5,141.5 C 42.282,144.714 43.1153,148.048 44,151.5C 45.1545,152.743 46.4878,153.743 48,154.5C 48.3333,158.833 48.6667,163.167 49,167.5C 49.8126,171.775 51.6459,175.442 54.5,178.5C 52.8333,177.167 51.1667,175.833 49.5,174.5C 47.4378,167.469 45.1044,160.469 42.5,153.5C 41.8379,149.534 41.5045,145.534 41.5,141.5 Z"/></g>
<g><path style="opacity:1" fill="#636564" d="M 40.5,152.5 C 41.1667,152.833 41.8333,153.167 42.5,153.5C 45.1044,160.469 47.4378,167.469 49.5,174.5C 51.1771,177.025 52.6771,179.691 54,182.5C 54.49,183.793 54.6567,185.127 54.5,186.5C 51.941,182.755 49.1077,179.089 46,175.5C 45.0272,170.524 44.1939,165.524 43.5,160.5C 43.3802,158.412 42.3802,157.078 40.5,156.5C 40.5,155.167 40.5,153.833 40.5,152.5 Z"/></g>
<g><path style="opacity:0.82" fill="#040203" d="M 44.5,186.5 C 45.478,184.544 46.478,182.544 47.5,180.5C 48.4584,180.953 49.2917,181.619 50,182.5C 51.4748,185.921 53.1414,189.254 55,192.5C 55.6708,193.252 56.5041,193.586 57.5,193.5C 66.6972,202.865 76.3638,211.698 86.5,220C 87.7932,220.49 89.1266,220.657 90.5,220.5C 90.8333,220.5 91.1667,220.5 91.5,220.5C 95.5621,222.47 97.2287,225.804 96.5,230.5C 93.4524,230.494 92.9524,231.494 95,233.5C 96.7713,232.696 98.2713,231.529 99.5,230C 105.167,229.333 110.833,229.333 116.5,230C 117.672,230.419 118.672,231.085 119.5,232C 129.5,232.667 139.5,232.667 149.5,232C 151.169,230.331 153.169,229.498 155.5,229.5C 162.214,229.363 168.88,229.863 175.5,231C 172.622,233.694 173.288,235.194 177.5,235.5C 176.388,236.265 175.721,237.265 175.5,238.5C 173.167,238.5 170.833,238.5 168.5,238.5C 166.821,238.285 165.821,238.952 165.5,240.5C 163.817,241.853 162.484,243.52 161.5,245.5C 116.208,246.656 70.8745,246.823 25.5,246C 23.1581,243.624 20.8248,241.291 18.5,239C 15.5184,238.502 12.5184,238.335 9.5,238.5C 9.5,239.5 9.5,240.5 9.5,241.5C 8.16667,241.5 6.83333,241.5 5.5,241.5C 5.5,240.167 5.5,238.833 5.5,237.5C 6.67504,237.719 7.67504,237.386 8.5,236.5C 7.07771,234.11 5.24438,232.11 3,230.5C 2.50051,224.509 2.33385,218.509 2.5,212.5C 3.48224,213.141 4.48224,213.807 5.5,214.5C 7.17559,211.827 8.84226,209.161 10.5,206.5C 13.4746,203.183 17.1413,201.183 21.5,200.5C 21.3287,197.203 21.9954,196.869 23.5,199.5C 26.9705,197.353 30.6372,195.686 34.5,194.5C 33.0812,188.572 29.5812,184.239 24,181.5C 22.386,177.658 20.2193,174.158 17.5,171C 23.5066,167.816 26.6732,169.649 27,176.5C 29.3757,177.376 30.8757,179.042 31.5,181.5C 35.9799,182.312 38.3133,184.979 38.5,189.5C 40.1992,189.66 41.8659,189.494 43.5,189C 44.2524,188.329 44.5858,187.496 44.5,186.5 Z"/></g>
<g><path style="opacity:0.012" fill="#e1d3df" d="M 242.5,173.5 C 242.368,176.007 241.368,176.674 239.5,175.5C 239.668,172.949 240.668,172.282 242.5,173.5 Z"/></g>
<g><path style="opacity:1" fill="#252726" d="M 42.5,96.5 C 42.6495,97.552 42.4828,98.552 42,99.5C 38.8007,102.416 37.1341,106.083 37,110.5C 36.3333,124.5 36.3333,138.5 37,152.5C 37.66,154.324 38.8267,155.657 40.5,156.5C 42.3802,157.078 43.3802,158.412 43.5,160.5C 44.1939,165.524 45.0272,170.524 46,175.5C 49.1077,179.089 51.941,182.755 54.5,186.5C 54.6596,188.153 55.3263,189.486 56.5,190.5C 56.5569,191.609 56.8902,192.609 57.5,193.5C 56.5041,193.586 55.6708,193.252 55,192.5C 53.1414,189.254 51.4748,185.921 50,182.5C 49.2917,181.619 48.4584,180.953 47.5,180.5C 46.5416,180.047 45.7083,179.381 45,178.5C 44.0341,173.321 42.8675,168.321 41.5,163.5C 39.7532,161.474 37.9199,159.474 36,157.5C 35.8316,140.328 35.3316,123.328 34.5,106.5C 34.4551,103.923 35.4551,101.923 37.5,100.5C 39.3062,99.2648 40.9729,97.9314 42.5,96.5 Z"/></g>
<g><path style="opacity:0.994" fill="#1b060f" d="M 34.5,106.5 C 33.0618,110.274 30.3951,112.607 26.5,113.5C 26.4894,117.81 28.3228,121.143 32,123.5C 32.6667,130.167 32.6667,136.833 32,143.5C 29.7911,144.92 27.7911,146.587 26,148.5C 25.5172,149.448 25.3505,150.448 25.5,151.5C 27.7454,153.361 30.4121,154.361 33.5,154.5C 34.0473,159.381 36.7139,162.381 41.5,163.5C 42.8675,168.321 44.0341,173.321 45,178.5C 45.7083,179.381 46.5416,180.047 47.5,180.5C 46.478,182.544 45.478,184.544 44.5,186.5C 39.5,187.5 37.5,185.5 38.5,180.5C 35.6122,181.01 33.2789,180.344 31.5,178.5C 33.288,178.785 34.9547,178.452 36.5,177.5C 39.5351,173.558 40.2017,169.225 38.5,164.5C 34.9906,160.157 30.9906,156.324 26.5,153C 22.3879,149.373 18.0546,148.873 13.5,151.5C 13.4142,150.504 13.7476,149.671 14.5,149C 20.3252,148.082 21.9919,144.915 19.5,139.5C 20.9473,140.622 21.9473,142.122 22.5,144C 24.5,144.667 26.5,144.667 28.5,144C 31.2652,139.231 32.0985,134.064 31,128.5C 30.4339,125.771 28.9339,123.771 26.5,122.5C 24.6564,117.783 21.3231,114.783 16.5,113.5C 18.5,113.5 20.5,113.5 22.5,113.5C 22.5,112.5 22.5,111.5 22.5,110.5C 23.3991,111.472 24.5657,112.138 26,112.5C 29.2268,111.114 32.0601,109.114 34.5,106.5 Z"/></g>
<g><path style="opacity:1" fill="#646464" d="M 229.5,106.5 C 232.42,109.057 233.92,112.39 234,116.5C 234.5,125.16 234.666,133.827 234.5,142.5C 234.272,147.931 233.439,153.264 232,158.5C 231.047,160.455 229.713,162.122 228,163.5C 227.579,167.872 226.912,172.205 226,176.5C 224.242,178.083 222.742,179.75 221.5,181.5C 216.11,187.921 210.944,194.587 206,201.5C 201.607,205.403 197.107,209.069 192.5,212.5C 198.45,206.708 204.117,200.708 209.5,194.5C 215.635,188.2 220.802,181.2 225,173.5C 224.161,166.405 226.161,160.405 231,155.5C 233.87,141.227 234.203,126.894 232,112.5C 231.345,110.372 230.511,108.372 229.5,106.5 Z"/></g>
<g><path style="opacity:1" fill="#686868" d="M 54.5,186.5 C 63.536,195.538 72.8693,204.204 82.5,212.5C 80.8211,212.108 79.1545,211.608 77.5,211C 70.6315,203.964 63.6315,197.131 56.5,190.5C 55.3263,189.486 54.6596,188.153 54.5,186.5 Z"/></g>
<g><path style="opacity:1" fill="#3e3e3e" d="M 56.5,190.5 C 63.6315,197.131 70.6315,203.964 77.5,211C 79.1545,211.608 80.8211,212.108 82.5,212.5C 82.369,213.239 82.5357,213.906 83,214.5C 85.313,216.874 87.813,218.874 90.5,220.5C 89.1266,220.657 87.7932,220.49 86.5,220C 76.3638,211.698 66.6972,202.865 57.5,193.5C 56.8902,192.609 56.5569,191.609 56.5,190.5 Z"/></g>
<g><path style="opacity:1" fill="#989898" d="M 49.5,174.5 C 51.1667,175.833 52.8333,177.167 54.5,178.5C 55.7306,181.961 57.2306,185.294 59,188.5C 65.7792,195.279 72.6126,202.113 79.5,209C 81.1667,209.333 82.8333,209.667 84.5,210C 86.4324,213.437 89.0991,215.937 92.5,217.5C 91.1266,217.657 89.7932,217.49 88.5,217C 86.8863,214.873 84.8863,213.373 82.5,212.5C 72.8693,204.204 63.536,195.538 54.5,186.5C 54.6567,185.127 54.49,183.793 54,182.5C 52.6771,179.691 51.1771,177.025 49.5,174.5 Z"/></g>
<g><path style="opacity:0.004" fill="#231116" d="M -0.5,194.5 C 1.0265,195.492 1.69316,196.992 1.5,199C 1.39174,200.681 0.725071,201.848 -0.5,202.5C -0.5,199.833 -0.5,197.167 -0.5,194.5 Z"/></g>
<g><path style="opacity:1" fill="#e2e2e2" d="M 52.5,119.5 C 52.5,121.167 52.5,122.833 52.5,124.5C 52.61,133.053 53.9433,141.386 56.5,149.5C 53.909,148.746 52.0757,147.079 51,144.5C 50.2251,135.494 49.3918,126.494 48.5,117.5C 45.8429,115.886 44.0095,116.552 43,119.5C 42.0442,128.764 42.5442,137.931 44.5,147C 47.08,148.919 48.9133,151.419 50,154.5C 50.3333,159.167 50.6667,163.833 51,168.5C 53.46,169.958 55.6266,171.791 57.5,174C 56.9781,174.561 56.6448,175.228 56.5,176C 57.2293,181.01 59.7293,184.844 64,187.5C 64.49,188.793 64.6567,190.127 64.5,191.5C 65.8734,191.343 67.2068,191.51 68.5,192C 72.8333,197 77.1667,202 81.5,207C 83.6079,207.36 85.6079,208.027 87.5,209C 91.2976,212.849 95.6309,215.682 100.5,217.5C 97.8333,217.5 95.1667,217.5 92.5,217.5C 89.0991,215.937 86.4324,213.437 84.5,210C 82.8333,209.667 81.1667,209.333 79.5,209C 72.6126,202.113 65.7792,195.279 59,188.5C 57.2306,185.294 55.7306,181.961 54.5,178.5C 51.6459,175.442 49.8126,171.775 49,167.5C 48.6667,163.167 48.3333,158.833 48,154.5C 46.4878,153.743 45.1545,152.743 44,151.5C 43.1153,148.048 42.282,144.714 41.5,141.5C 40.2115,132.962 40.2115,124.295 41.5,115.5C 42.2406,112.253 44.2406,110.753 47.5,111C 49.585,113.682 51.2517,116.516 52.5,119.5 Z"/></g>
<g><path style="opacity:1" fill="#292929" d="M 221.5,181.5 C 218.47,190.877 212.97,198.544 205,204.5C 202.906,206.921 201.24,209.588 200,212.5C 196.645,213.618 193.478,215.118 190.5,217C 189.663,218.011 189.33,219.178 189.5,220.5C 182.673,220.082 176.673,221.915 171.5,226C 166.227,227.253 160.894,228.087 155.5,228.5C 160.268,226.931 165.268,225.765 170.5,225C 174.742,221.137 179.742,218.803 185.5,218C 187.763,216.383 189.763,214.55 191.5,212.5C 191.833,212.5 192.167,212.5 192.5,212.5C 197.107,209.069 201.607,205.403 206,201.5C 210.944,194.587 216.11,187.921 221.5,181.5 Z"/></g>
<g><path style="opacity:1" fill="#dadada" d="M 200.5,200.5 C 197.362,202.807 194.695,205.641 192.5,209C 188.69,210.13 185.357,212.13 182.5,215C 178.612,216.378 174.612,217.378 170.5,218C 167.053,221.873 162.719,223.706 157.5,223.5C 162.788,222.185 167.122,219.352 170.5,215C 174.167,214.667 177.833,214.333 181.5,214C 184.357,211.13 187.69,209.13 191.5,208C 193.5,204.156 196.5,201.656 200.5,200.5 Z"/></g>
<g><path style="opacity:1" fill="#595959" d="M 82.5,212.5 C 84.8863,213.373 86.8863,214.873 88.5,217C 89.7932,217.49 91.1266,217.657 92.5,217.5C 96.6824,218.634 100.349,220.8 103.5,224C 107.254,225.309 110.921,226.475 114.5,227.5C 110.064,227.79 105.73,227.29 101.5,226C 99.981,224.649 98.6477,223.149 97.5,221.5C 95.604,220.534 93.604,220.201 91.5,220.5C 91.1667,220.5 90.8333,220.5 90.5,220.5C 87.813,218.874 85.313,216.874 83,214.5C 82.5357,213.906 82.369,213.239 82.5,212.5 Z"/></g>
<g><path style="opacity:0.008" fill="#dbcfdb" d="M 199.5,224.5 C 199.167,225.5 198.5,226.167 197.5,226.5C 197.5,225.167 198.167,224.5 199.5,224.5 Z"/></g>
<g><path style="opacity:1" fill="#9e9e9e" d="M 209.5,194.5 C 204.117,200.708 198.45,206.708 192.5,212.5C 192.167,212.5 191.833,212.5 191.5,212.5C 188.222,213.809 185.222,215.642 182.5,218C 177.327,218.276 172.994,220.276 169.5,224C 151.308,227.145 132.975,228.311 114.5,227.5C 110.921,226.475 107.254,225.309 103.5,224C 100.349,220.8 96.6824,218.634 92.5,217.5C 95.1667,217.5 97.8333,217.5 100.5,217.5C 104.418,222.762 109.751,225.262 116.5,225C 128.833,225.667 141.167,225.667 153.5,225C 154.416,224.722 155.082,224.222 155.5,223.5C 156.167,223.5 156.833,223.5 157.5,223.5C 162.719,223.706 167.053,221.873 170.5,218C 174.612,217.378 178.612,216.378 182.5,215C 185.357,212.13 188.69,210.13 192.5,209C 194.695,205.641 197.362,202.807 200.5,200.5C 202.145,199.521 203.479,198.188 204.5,196.5C 206.075,195.544 207.742,194.877 209.5,194.5 Z"/></g>
<g><path style="opacity:1" fill="#d2d1d2" d="M 100.5,217.5 C 104.375,218.177 107.708,220.01 110.5,223C 125.496,223.5 140.496,223.667 155.5,223.5C 155.082,224.222 154.416,224.722 153.5,225C 141.167,225.667 128.833,225.667 116.5,225C 109.751,225.262 104.418,222.762 100.5,217.5 Z"/></g>
<g><path style="opacity:1" fill="#646464" d="M 191.5,212.5 C 189.763,214.55 187.763,216.383 185.5,218C 179.742,218.803 174.742,221.137 170.5,225C 165.268,225.765 160.268,226.931 155.5,228.5C 143.188,229.562 130.855,229.728 118.5,229C 116.942,228.79 115.609,228.29 114.5,227.5C 132.975,228.311 151.308,227.145 169.5,224C 172.994,220.276 177.327,218.276 182.5,218C 185.222,215.642 188.222,213.809 191.5,212.5 Z"/></g>
<g><path style="opacity:0.998" fill="#272727" d="M 91.5,220.5 C 93.604,220.201 95.604,220.534 97.5,221.5C 98.6477,223.149 99.981,224.649 101.5,226C 105.73,227.29 110.064,227.79 114.5,227.5C 115.609,228.29 116.942,228.79 118.5,229C 130.855,229.728 143.188,229.562 155.5,228.5C 155.5,228.833 155.5,229.167 155.5,229.5C 153.169,229.498 151.169,230.331 149.5,232C 139.5,232.667 129.5,232.667 119.5,232C 118.672,231.085 117.672,230.419 116.5,230C 110.833,229.333 105.167,229.333 99.5,230C 98.2713,231.529 96.7713,232.696 95,233.5C 92.9524,231.494 93.4524,230.494 96.5,230.5C 97.2287,225.804 95.5621,222.47 91.5,220.5 Z"/></g>
<g><path style="opacity:0.063" fill="#4f3741" d="M 186.5,232.5 C 186.167,233.5 185.5,234.167 184.5,234.5C 182.857,234.48 181.524,235.147 180.5,236.5C 179.862,231.838 181.862,230.504 186.5,232.5 Z"/></g>
<g><path style="opacity:0.004" fill="#231116" d="M -0.5,233.5 C 1.0265,234.492 1.69316,235.992 1.5,238C 1.39174,239.681 0.725071,240.848 -0.5,241.5C -0.5,238.833 -0.5,236.167 -0.5,233.5 Z"/></g>
<g><path style="opacity:0.004" fill="#9b919a" d="M 168.5,238.5 C 167.71,239.401 166.71,240.068 165.5,240.5C 165.821,238.952 166.821,238.285 168.5,238.5 Z"/></g>
<g><path style="opacity:0.019" fill="#0e0709" d="M 183.5,237.5 C 188.5,237.5 193.5,237.5 198.5,237.5C 198.5,239.5 198.5,241.5 198.5,243.5C 194.854,244.283 191.188,244.45 187.5,244C 184.778,242.728 183.444,240.561 183.5,237.5 Z"/></g>
<g><path style="opacity:0.018" fill="#0e070a" d="M 23.5,249.5 C 17.5,249.5 11.5,249.5 5.5,249.5C 5.72142,248.265 6.38809,247.265 7.5,246.5C 12.4113,244.472 17.4113,244.138 22.5,245.5C 23.4287,246.689 23.762,248.022 23.5,249.5 Z"/></g>
<g><path style="opacity:0.014" fill="#11090c" d="M 188.5,249.5 C 179.833,249.5 171.167,249.5 162.5,249.5C 162.167,248.167 161.833,246.833 161.5,245.5C 169.861,244.043 178.195,244.21 186.5,246C 187.823,246.816 188.489,247.983 188.5,249.5 Z"/></g>
</svg>
