<?xml version="1.0" encoding="UTF-8"?>
<!DOCTYPE svg PUBLIC "-//W3C//DTD SVG 1.1//EN" "http://www.w3.org/Graphics/SVG/1.1/DTD/svg11.dtd">
<svg xmlns="http://www.w3.org/2000/svg" version="1.1" width="190px" height="190px" style="shape-rendering:geometricPrecision; text-rendering:geometricPrecision; image-rendering:optimizeQuality; fill-rule:evenodd; clip-rule:evenodd" xmlns:xlink="http://www.w3.org/1999/xlink">
<g><path style="opacity:0.99" fill="#2b364a" d="M 60.5,-0.5 C 83.1667,-0.5 105.833,-0.5 128.5,-0.5C 157.167,11.5 177.5,31.8333 189.5,60.5C 189.5,83.1667 189.5,105.833 189.5,128.5C 178.255,157.412 158.255,177.745 129.5,189.5C 106.167,189.5 82.8333,189.5 59.5,189.5C 30.7451,177.745 10.7451,157.412 -0.5,128.5C -0.5,105.833 -0.5,83.1667 -0.5,60.5C 11.5,31.8333 31.8333,11.5 60.5,-0.5 Z"/></g>
<g><path style="opacity:1" fill="#99bddd" d="M 69.5,146.5 C 71.1807,143.797 72.8474,141.131 74.5,138.5C 80.8756,143.111 87.709,147.111 95,150.5C 100.631,147.273 106.131,143.94 111.5,140.5C 117.83,137.67 123.83,134.337 129.5,130.5C 130.71,130.068 131.71,129.401 132.5,128.5C 136.515,127.409 140.015,125.409 143,122.5C 143.499,118.179 143.666,113.846 143.5,109.5C 143.667,95.1628 143.5,80.8295 143,66.5C 126.963,56.9669 110.796,47.6336 94.5,38.5C 78.2041,47.6336 62.0375,56.9669 46,66.5C 45.5001,80.496 45.3334,94.496 45.5,108.5C 42.8573,113.132 39.8573,117.465 36.5,121.5C 36.3334,101.497 36.5,81.4972 37,61.5C 55.2536,50.2883 73.7536,39.455 92.5,29C 93.8333,28.3333 95.1667,28.3333 96.5,29C 115.246,39.455 133.746,50.2883 152,61.5C 152.833,83.8408 152.666,106.174 151.5,128.5C 132.664,139.753 113.664,150.753 94.5,161.5C 85.9375,156.726 77.6041,151.726 69.5,146.5 Z"/></g>
<g><path style="opacity:1" fill="#868c98" d="M 80.5,67.5 C 84.0187,66.1923 87.6853,66.1923 91.5,67.5C 91.3764,68.1067 91.0431,68.44 90.5,68.5C 87.3752,67.5206 84.0419,67.1872 80.5,67.5 Z"/></g>
<g><path style="opacity:1" fill="#fafbfb" d="M 80.5,67.5 C 84.0419,67.1872 87.3752,67.5206 90.5,68.5C 77.4698,90.7259 63.8032,112.559 49.5,134C 48.5,134.667 47.5,134.667 46.5,134C 43.6612,132.08 40.6612,130.413 37.5,129C 36.565,126.619 36.2317,124.119 36.5,121.5C 39.8573,117.465 42.8573,113.132 45.5,108.5C 53.8331,96.8127 61.8331,84.8127 69.5,72.5C 72.3851,69.19 76.0517,67.5234 80.5,67.5 Z"/></g>
<g><path style="opacity:1" fill="#fbfbfb" d="M 74.5,138.5 C 72.8474,141.131 71.1807,143.797 69.5,146.5C 65.0778,144.594 60.7444,142.428 56.5,140C 55.6433,139.311 54.9767,138.478 54.5,137.5C 68.3743,114.25 82.3743,91.0836 96.5,68C 102.833,67.3333 109.167,67.3333 115.5,68C 101.431,91.3092 87.7647,114.809 74.5,138.5 Z"/></g>
<g><path style="opacity:1" fill="#24a2ed" d="M 143.5,109.5 C 143.666,113.846 143.499,118.179 143,122.5C 140.015,125.409 136.515,127.409 132.5,128.5C 124.338,114.883 116.504,101.216 109,87.5C 112.03,83.3017 114.863,78.9684 117.5,74.5C 118.002,73.479 118.668,73.3123 119.5,74C 127.363,86.0108 135.363,97.8441 143.5,109.5 Z"/></g>
<g><path style="opacity:1" fill="#24a2ed" d="M 129.5,130.5 C 123.83,134.337 117.83,137.67 111.5,140.5C 105.887,131.201 100.221,121.868 94.5,112.5C 97.9175,106.663 101.584,100.996 105.5,95.5C 114.238,106.637 122.238,118.304 129.5,130.5 Z"/></g>
</svg>
