<?xml version="1.0" encoding="UTF-8"?>
<!DOCTYPE svg PUBLIC "-//W3C//DTD SVG 1.1//EN" "http://www.w3.org/Graphics/SVG/1.1/DTD/svg11.dtd">
<svg xmlns="http://www.w3.org/2000/svg" version="1.1" width="100px" height="100px" style="shape-rendering:geometricPrecision; text-rendering:geometricPrecision; image-rendering:optimizeQuality; fill-rule:evenodd; clip-rule:evenodd" xmlns:xlink="http://www.w3.org/1999/xlink">
<g><path style="opacity:1" fill="#d5d9f1" d="M -0.5,-0.5 C 21.5,-0.5 43.5,-0.5 65.5,-0.5C 68.65,3.07508 72.65,5.07508 77.5,5.5C 77.767,7.9711 76.767,9.63777 74.5,10.5C 72.3176,8.1819 69.6509,6.34857 66.5,5C 65.3333,4.83333 64.1667,4.66667 63,4.5C 61.3189,4.60826 60.1522,5.27493 59.5,6.5C 58.2921,5.76589 56.9587,5.43255 55.5,5.5C 55.0825,4.77842 54.4158,4.27842 53.5,4C 42.8286,1.77902 33.162,3.77902 24.5,10C 22.5359,11.451 21.2026,13.2843 20.5,15.5C 19.0937,15.9731 18.427,16.9731 18.5,18.5C 17.7784,18.9175 17.2784,19.5842 17,20.5C 16.5005,26.4908 16.3338,32.4908 16.5,38.5C 15.0532,39.1342 14.3866,40.3009 14.5,42C 14.8386,44.8667 15.8386,47.3667 17.5,49.5C 18.2484,56.8088 18.5817,64.1422 18.5,71.5C 14.7273,70.8224 11.894,72.1558 10,75.5C 9.50775,83.557 10.0078,91.557 11.5,99.5C 7.5,99.5 3.5,99.5 -0.5,99.5C -0.5,66.1667 -0.5,32.8333 -0.5,-0.5 Z"/></g>
<g><path style="opacity:1" fill="#d5d9f2" d="M 65.5,-0.5 C 76.8333,-0.5 88.1667,-0.5 99.5,-0.5C 99.5,32.8333 99.5,66.1667 99.5,99.5C 95.8333,99.5 92.1667,99.5 88.5,99.5C 90.1383,97.0445 89.805,95.0445 87.5,93.5C 85.9059,90.2358 83.5725,87.5691 80.5,85.5C 80.6716,84.5084 80.3382,83.8417 79.5,83.5C 78.4884,82.1283 77.4884,80.795 76.5,79.5C 73.5873,74.5443 74.0873,69.8776 78,65.5C 78.9931,62.5917 79.4931,59.5917 79.5,56.5C 78.5834,49.1642 76.9168,41.9975 74.5,35C 78.9488,20.2464 73.9488,10.7464 59.5,6.5C 60.1522,5.27493 61.3189,4.60826 63,4.5C 64.1667,4.66667 65.3333,4.83333 66.5,5C 69.6509,6.34857 72.3176,8.1819 74.5,10.5C 76.767,9.63777 77.767,7.9711 77.5,5.5C 72.65,5.07508 68.65,3.07508 65.5,-0.5 Z"/></g>
<g><path style="opacity:1" fill="#344430" d="M 55.5,5.5 C 41.7855,2.60134 30.1188,5.93467 20.5,15.5C 21.2026,13.2843 22.5359,11.451 24.5,10C 33.162,3.77902 42.8286,1.77902 53.5,4C 54.4158,4.27842 55.0825,4.77842 55.5,5.5 Z"/></g>
<g><path style="opacity:1" fill="#363e30" d="M 55.5,5.5 C 56.9587,5.43255 58.2921,5.76589 59.5,6.5C 73.9488,10.7464 78.9488,20.2464 74.5,35C 76.9168,41.9975 78.5834,49.1642 79.5,56.5C 79.4931,59.5917 78.9931,62.5917 78,65.5C 74.0873,69.8776 73.5873,74.5443 76.5,79.5C 75.1667,79.5 73.8333,79.5 72.5,79.5C 73.0804,75.8581 73.5804,72.1914 74,68.5C 77.0013,66.1539 78.0013,63.1539 77,59.5C 76.1841,60.8228 75.0174,61.4894 73.5,61.5C 80.2843,55.746 79.951,50.4127 72.5,45.5C 73.5,45.5 74.5,45.5 75.5,45.5C 75.1046,42.3138 74.1046,39.3138 72.5,36.5C 73.3094,34.9291 73.6427,33.2624 73.5,31.5C 73.5,30.1667 73.5,28.8333 73.5,27.5C 74.0277,23.6054 73.5277,19.6054 72,15.5C 70.9609,14.2899 69.7942,13.2899 68.5,12.5C 64.2175,9.97013 59.8842,7.6368 55.5,5.5 Z"/></g>
<g><path style="opacity:1" fill="#537b3e" d="M 68.5,12.5 C 69.7942,13.2899 70.9609,14.2899 72,15.5C 73.5277,19.6054 74.0277,23.6054 73.5,27.5C 71.3035,25.4554 68.9702,25.1221 66.5,26.5C 63.3147,24.963 60.648,25.6296 58.5,28.5C 57.8166,26.8235 56.4832,26.1568 54.5,26.5C 53.668,22.5031 55.168,19.8364 59,18.5C 59.3333,17.5 59.6667,16.5 60,15.5C 60.6891,16.3567 61.5224,17.0233 62.5,17.5C 64.8537,16.9399 67.187,16.2733 69.5,15.5C 68.8728,14.5832 68.5394,13.5832 68.5,12.5 Z"/></g>
<g><path style="opacity:1" fill="#384d30" d="M 18.5,18.5 C 17.9479,25.3142 17.2812,31.9809 16.5,38.5C 16.3338,32.4908 16.5005,26.4908 17,20.5C 17.2784,19.5842 17.7784,18.9175 18.5,18.5 Z"/></g>
<g><path style="opacity:1" fill="#181a16" d="M 66.5,26.5 C 69.8555,28.1853 70.1888,30.1853 67.5,32.5C 65.7085,32.634 64.0418,32.3007 62.5,31.5C 62.281,26.3706 61.6144,26.3706 60.5,31.5C 59.0937,31.0269 58.427,30.0269 58.5,28.5C 60.648,25.6296 63.3147,24.963 66.5,26.5 Z"/></g>
<g><path style="opacity:1" fill="#ecedec" d="M 66.5,26.5 C 68.9702,25.1221 71.3035,25.4554 73.5,27.5C 73.5,28.8333 73.5,30.1667 73.5,31.5C 71.6381,33.4748 69.6381,33.8081 67.5,32.5C 70.1888,30.1853 69.8555,28.1853 66.5,26.5 Z"/></g>
<g><path style="opacity:1" fill="#bebfbc" d="M 62.5,31.5 C 62.0623,32.5063 61.3957,32.5063 60.5,31.5C 61.6144,26.3706 62.281,26.3706 62.5,31.5 Z"/></g>
<g><path style="opacity:1" fill="#567f3f" d="M 54.5,43.5 C 49.4889,43.3341 44.4889,43.5007 39.5,44C 36.3337,44.3221 33.667,45.4887 31.5,47.5C 30.1667,47.5 29.5,48.1667 29.5,49.5C 26.8996,52.7201 26.8996,56.0535 29.5,59.5C 28.1526,60.0283 26.8193,60.195 25.5,60C 26.5914,57.9361 26.7581,55.7695 26,53.5C 25.7398,55.6175 24.7398,57.2842 23,58.5C 22.5026,55.854 22.3359,53.1873 22.5,50.5C 23.5,50.5 24.5,50.5 25.5,50.5C 27.8636,46.4437 29.8636,42.1104 31.5,37.5C 28.8333,36.1667 26.1667,36.1667 23.5,37.5C 24.843,39.7841 24.1764,40.6174 21.5,40C 18.0707,32.7243 19.4041,26.5577 25.5,21.5C 28.1667,22.5 28.1667,23.5 25.5,24.5C 26.1667,24.8333 26.8333,25.1667 27.5,25.5C 29.4534,24.8444 31.4534,24.5111 33.5,24.5C 33.6107,23.8826 33.944,23.3826 34.5,23C 37.5,22.6667 40.5,22.3333 43.5,22C 42.552,21.5172 41.552,21.3505 40.5,21.5C 40.5,20.5 40.5,19.5 40.5,18.5C 36.7651,18.2657 33.4318,19.2657 30.5,21.5C 29.1667,20.5 29.1667,19.5 30.5,18.5C 32.6201,17.1091 34.9534,16.4424 37.5,16.5C 42.1405,17.2308 46.8072,17.5641 51.5,17.5C 51.7495,20.0021 52.0828,22.5021 52.5,25C 52.0229,27.8287 51.0229,30.4954 49.5,33C 50.1868,34.1618 50.3534,35.3284 50,36.5C 45.2404,37.0687 40.4071,37.2354 35.5,37C 37.6175,37.2602 39.2842,38.2602 40.5,40C 37.422,39.9345 34.422,40.1012 31.5,40.5C 32.0253,41.1924 32.6919,41.6924 33.5,42C 40.6787,42.1715 47.6787,42.6715 54.5,43.5 Z"/></g>
<g><path style="opacity:1" fill="#263327" d="M 16.5,38.5 C 16.423,42.2148 16.7564,45.8815 17.5,49.5C 15.8386,47.3667 14.8386,44.8667 14.5,42C 14.3866,40.3009 15.0532,39.1342 16.5,38.5 Z"/></g>
<g><path style="opacity:1" fill="#473f1e" d="M 54.5,43.5 C 59.5111,43.3341 64.5111,43.5007 69.5,44C 70.7375,44.2321 71.7375,44.7321 72.5,45.5C 63.3122,45.702 54.1455,45.3686 45,44.5C 40.3619,44.9516 35.8619,45.9516 31.5,47.5C 33.667,45.4887 36.3337,44.3221 39.5,44C 44.4889,43.5007 49.4889,43.3341 54.5,43.5 Z"/></g>
<g><path style="opacity:1" fill="#a75835" d="M 72.5,45.5 C 79.951,50.4127 80.2843,55.746 73.5,61.5C 59.6161,65.9554 45.9494,65.4554 32.5,60C 28.5364,57.3494 27.5364,53.8494 29.5,49.5C 29.5,48.1667 30.1667,47.5 31.5,47.5C 35.8619,45.9516 40.3619,44.9516 45,44.5C 54.1455,45.3686 63.3122,45.702 72.5,45.5 Z"/></g>
<g><path style="opacity:1" fill="#5f2a13" d="M 61.5,52.5 C 64.1873,52.3359 66.854,52.5026 69.5,53C 60.2175,55.6865 50.8842,56.0198 41.5,54C 45.3243,53.7731 49.1576,53.9397 53,54.5C 56.1498,54.6397 58.9831,53.973 61.5,52.5 Z"/></g>
<g><path style="opacity:1" fill="#598a3d" d="M 55.5,5.5 C 59.8842,7.6368 64.2175,9.97013 68.5,12.5C 68.5394,13.5832 68.8728,14.5832 69.5,15.5C 67.187,16.2733 64.8537,16.9399 62.5,17.5C 61.5224,17.0233 60.6891,16.3567 60,15.5C 59.6667,16.5 59.3333,17.5 59,18.5C 55.168,19.8364 53.668,22.5031 54.5,26.5C 56.4832,26.1568 57.8166,26.8235 58.5,28.5C 58.427,30.0269 59.0937,31.0269 60.5,31.5C 61.3957,32.5063 62.0623,32.5063 62.5,31.5C 64.0418,32.3007 65.7085,32.634 67.5,32.5C 69.6381,33.8081 71.6381,33.4748 73.5,31.5C 73.6427,33.2624 73.3094,34.9291 72.5,36.5C 74.1046,39.3138 75.1046,42.3138 75.5,45.5C 74.5,45.5 73.5,45.5 72.5,45.5C 71.7375,44.7321 70.7375,44.2321 69.5,44C 64.5111,43.5007 59.5111,43.3341 54.5,43.5C 47.6787,42.6715 40.6787,42.1715 33.5,42C 32.6919,41.6924 32.0253,41.1924 31.5,40.5C 34.422,40.1012 37.422,39.9345 40.5,40C 39.2842,38.2602 37.6175,37.2602 35.5,37C 40.4071,37.2354 45.2404,37.0687 50,36.5C 50.3534,35.3284 50.1868,34.1618 49.5,33C 51.0229,30.4954 52.0229,27.8287 52.5,25C 52.0828,22.5021 51.7495,20.0021 51.5,17.5C 46.8072,17.5641 42.1405,17.2308 37.5,16.5C 34.9534,16.4424 32.6201,17.1091 30.5,18.5C 29.1667,19.5 29.1667,20.5 30.5,21.5C 33.4318,19.2657 36.7651,18.2657 40.5,18.5C 40.5,19.5 40.5,20.5 40.5,21.5C 41.552,21.3505 42.552,21.5172 43.5,22C 40.5,22.3333 37.5,22.6667 34.5,23C 33.944,23.3826 33.6107,23.8826 33.5,24.5C 31.4534,24.5111 29.4534,24.8444 27.5,25.5C 26.8333,25.1667 26.1667,24.8333 25.5,24.5C 28.1667,23.5 28.1667,22.5 25.5,21.5C 19.4041,26.5577 18.0707,32.7243 21.5,40C 24.1764,40.6174 24.843,39.7841 23.5,37.5C 26.1667,36.1667 28.8333,36.1667 31.5,37.5C 29.8636,42.1104 27.8636,46.4437 25.5,50.5C 24.5,50.5 23.5,50.5 22.5,50.5C 22.3359,53.1873 22.5026,55.854 23,58.5C 24.7398,57.2842 25.7398,55.6175 26,53.5C 26.7581,55.7695 26.5914,57.9361 25.5,60C 26.8193,60.195 28.1526,60.0283 29.5,59.5C 33.3352,62.3832 37.6685,64.2165 42.5,65C 52.2649,65.9887 61.9316,65.4887 71.5,63.5C 72.7133,63.2528 73.38,62.5862 73.5,61.5C 75.0174,61.4894 76.1841,60.8228 77,59.5C 78.0013,63.1539 77.0013,66.1539 74,68.5C 73.5804,72.1914 73.0804,75.8581 72.5,79.5C 69.9678,82.2289 66.9678,84.2289 63.5,85.5C 52.8333,85.5 42.1667,85.5 31.5,85.5C 30.4863,84.3263 29.153,83.6596 27.5,83.5C 25.3021,81.9019 22.9687,80.5686 20.5,79.5C 19.9084,76.8728 19.5751,74.2062 19.5,71.5C 19.6662,65.4908 19.4995,59.4908 19,53.5C 18.79,51.9419 18.29,50.6085 17.5,49.5C 16.7564,45.8815 16.423,42.2148 16.5,38.5C 17.2812,31.9809 17.9479,25.3142 18.5,18.5C 18.427,16.9731 19.0937,15.9731 20.5,15.5C 30.1188,5.93467 41.7855,2.60134 55.5,5.5 Z"/></g>
<g><path style="opacity:1" fill="#7d8480" d="M 35.5,32.5 C 37.1667,32.5 38.8333,32.5 40.5,32.5C 40.8417,33.3382 41.5084,33.6716 42.5,33.5C 39.3752,34.4794 36.0419,34.8128 32.5,34.5C 33.5,33.8333 34.5,33.1667 35.5,32.5 Z"/></g>
<g><path style="opacity:1" fill="#edeeeb" d="M 31.5,26.5 C 32.3019,27.9516 32.8019,29.6183 33,31.5C 33.6708,32.2524 34.5041,32.5858 35.5,32.5C 34.5,33.1667 33.5,33.8333 32.5,34.5C 30.4727,34.6621 28.4727,34.4955 26.5,34C 26.0426,33.586 25.7093,33.086 25.5,32.5C 27.215,30.1182 29.215,28.1182 31.5,26.5 Z"/></g>
<g><path style="opacity:1" fill="#f4f5f4" d="M 48.5,27.5 C 49.1201,31.5548 47.1201,33.5548 42.5,33.5C 41.5084,33.6716 40.8417,33.3382 40.5,32.5C 42.5089,30.6222 42.8422,28.4556 41.5,26C 43.9216,25.8648 46.2549,26.3648 48.5,27.5 Z"/></g>
<g><path style="opacity:1" fill="#161715" d="M 48.5,27.5 C 46.2549,26.3648 43.9216,25.8648 41.5,26C 42.8422,28.4556 42.5089,30.6222 40.5,32.5C 38.8333,32.5 37.1667,32.5 35.5,32.5C 34.5041,32.5858 33.6708,32.2524 33,31.5C 32.8019,29.6183 32.3019,27.9516 31.5,26.5C 32.1667,25.8333 32.8333,25.1667 33.5,24.5C 37.1306,23.588 40.7973,23.4213 44.5,24C 46.3237,24.66 47.657,25.8267 48.5,27.5 Z"/></g>
<g><path style="opacity:1" fill="#394836" d="M 17.5,49.5 C 18.29,50.6085 18.79,51.9419 19,53.5C 19.4995,59.4908 19.6662,65.4908 19.5,71.5C 19.1667,71.5 18.8333,71.5 18.5,71.5C 18.5817,64.1422 18.2484,56.8088 17.5,49.5 Z"/></g>
<g><path style="opacity:1" fill="#3e3314" d="M 29.5,49.5 C 27.5364,53.8494 28.5364,57.3494 32.5,60C 45.9494,65.4554 59.6161,65.9554 73.5,61.5C 73.38,62.5862 72.7133,63.2528 71.5,63.5C 61.9316,65.4887 52.2649,65.9887 42.5,65C 37.6685,64.2165 33.3352,62.3832 29.5,59.5C 26.8996,56.0535 26.8996,52.7201 29.5,49.5 Z"/></g>
<g><path style="opacity:1" fill="#1d39b0" d="M 18.5,71.5 C 18.8333,71.5 19.1667,71.5 19.5,71.5C 19.5751,74.2062 19.9084,76.8728 20.5,79.5C 18.6565,77.7211 17.9898,75.3878 18.5,72.5C 13.7863,72.2008 12.1196,74.2008 13.5,78.5C 12.3372,80.2852 11.6705,82.2852 11.5,84.5C 12.0598,89.5238 12.7265,94.5238 13.5,99.5C 12.8333,99.5 12.1667,99.5 11.5,99.5C 10.0078,91.557 9.50775,83.557 10,75.5C 11.894,72.1558 14.7273,70.8224 18.5,71.5 Z"/></g>
<g><path style="opacity:1" fill="#1e39b2" d="M 72.5,79.5 C 73.8333,79.5 75.1667,79.5 76.5,79.5C 77.4884,80.795 78.4884,82.1283 79.5,83.5C 77.857,83.5198 76.5237,82.8532 75.5,81.5C 74.8076,82.0253 74.3076,82.6919 74,83.5C 73.4387,82.9781 72.772,82.6448 72,82.5C 69.5237,84.4871 66.6903,85.4871 63.5,85.5C 66.9678,84.2289 69.9678,82.2289 72.5,79.5 Z"/></g>
<g><path style="opacity:1" fill="#2b368e" d="M 80.5,85.5 C 83.5725,87.5691 85.9059,90.2358 87.5,93.5C 84.4275,91.4309 82.0941,88.7642 80.5,85.5 Z"/></g>
<g><path style="opacity:1" fill="#1032ba" d="M 64.5,99.5 C 63.5,99.5 62.5,99.5 61.5,99.5C 61.6243,97.4184 62.6243,95.9184 64.5,95C 63.5494,94.2825 63.3828,93.4491 64,92.5C 67.5372,93.8183 69.3706,92.485 69.5,88.5C 64.1991,89.1773 58.8657,89.6773 53.5,90C 49.9138,91.7676 46.2471,93.2676 42.5,94.5C 42.4431,93.391 42.1098,92.391 41.5,91.5C 46.1338,91.5204 50.4671,90.3538 54.5,88C 61.8258,87.5003 69.1591,87.3337 76.5,87.5C 76.5,88.5 76.5,89.5 76.5,90.5C 73.757,91.3882 71.0904,92.5549 68.5,94C 66.1811,95.1474 64.8477,96.9807 64.5,99.5 Z"/></g>
<g><path style="opacity:1" fill="#1239b5" d="M 27.5,83.5 C 29.153,83.6596 30.4863,84.3263 31.5,85.5C 30.5,85.5 29.5,85.5 28.5,85.5C 28.33,86.8221 28.6634,87.9887 29.5,89C 33.0252,89.1787 36.3586,89.6787 39.5,90.5C 36.1401,90.6159 32.8067,90.9492 29.5,91.5C 28.1667,91.5 26.8333,91.5 25.5,91.5C 26.0906,90.8485 26.7573,90.1818 27.5,89.5C 26.689,88.7836 26.0223,87.9503 25.5,87C 26.4295,85.9231 27.0962,84.7564 27.5,83.5 Z"/></g>
<g><path style="opacity:1" fill="#0a42ec" d="M 79.5,83.5 C 80.3382,83.8417 80.6716,84.5084 80.5,85.5C 82.0941,88.7642 84.4275,91.4309 87.5,93.5C 87.4828,95.5648 87.1495,97.5648 86.5,99.5C 79.1667,99.5 71.8333,99.5 64.5,99.5C 64.8477,96.9807 66.1811,95.1474 68.5,94C 71.0904,92.5549 73.757,91.3882 76.5,90.5C 76.5,89.5 76.5,88.5 76.5,87.5C 69.1591,87.3337 61.8258,87.5003 54.5,88C 50.4671,90.3538 46.1338,91.5204 41.5,91.5C 40.8333,91.1667 40.1667,90.8333 39.5,90.5C 36.3586,89.6787 33.0252,89.1787 29.5,89C 28.6634,87.9887 28.33,86.8221 28.5,85.5C 29.5,85.5 30.5,85.5 31.5,85.5C 42.1667,85.5 52.8333,85.5 63.5,85.5C 66.6903,85.4871 69.5237,84.4871 72,82.5C 72.772,82.6448 73.4387,82.9781 74,83.5C 74.3076,82.6919 74.8076,82.0253 75.5,81.5C 76.5237,82.8532 77.857,83.5198 79.5,83.5 Z"/></g>
<g><path style="opacity:1" fill="#0843f6" d="M 20.5,79.5 C 22.9687,80.5686 25.3021,81.9019 27.5,83.5C 27.0962,84.7564 26.4295,85.9231 25.5,87C 26.0223,87.9503 26.689,88.7836 27.5,89.5C 26.7573,90.1818 26.0906,90.8485 25.5,91.5C 24.5655,92.5676 24.2322,93.901 24.5,95.5C 25.5124,96.4512 27.3458,97.1178 30,97.5C 34.0459,95.9248 38.2126,94.9248 42.5,94.5C 46.2471,93.2676 49.9138,91.7676 53.5,90C 58.8657,89.6773 64.1991,89.1773 69.5,88.5C 69.3706,92.485 67.5372,93.8183 64,92.5C 63.3828,93.4491 63.5494,94.2825 64.5,95C 62.6243,95.9184 61.6243,97.4184 61.5,99.5C 45.5,99.5 29.5,99.5 13.5,99.5C 12.7265,94.5238 12.0598,89.5238 11.5,84.5C 11.6705,82.2852 12.3372,80.2852 13.5,78.5C 12.1196,74.2008 13.7863,72.2008 18.5,72.5C 17.9898,75.3878 18.6565,77.7211 20.5,79.5 Z"/></g>
<g><path style="opacity:1" fill="#507044" d="M 39.5,90.5 C 40.1667,90.8333 40.8333,91.1667 41.5,91.5C 42.1098,92.391 42.4431,93.391 42.5,94.5C 38.2126,94.9248 34.0459,95.9248 30,97.5C 27.3458,97.1178 25.5124,96.4512 24.5,95.5C 25.404,94.791 25.7373,93.791 25.5,92.5C 27.099,92.7678 28.4324,92.4345 29.5,91.5C 32.8067,90.9492 36.1401,90.6159 39.5,90.5 Z"/></g>
<g><path style="opacity:1" fill="#223f76" d="M 25.5,91.5 C 26.8333,91.5 28.1667,91.5 29.5,91.5C 28.4324,92.4345 27.099,92.7678 25.5,92.5C 25.7373,93.791 25.404,94.791 24.5,95.5C 24.2322,93.901 24.5655,92.5676 25.5,91.5 Z"/></g>
<g><path style="opacity:1" fill="#242e7f" d="M 87.5,93.5 C 89.805,95.0445 90.1383,97.0445 88.5,99.5C 87.8333,99.5 87.1667,99.5 86.5,99.5C 87.1495,97.5648 87.4828,95.5648 87.5,93.5 Z"/></g>
</svg>
