<?xml version="1.0" encoding="UTF-8"?>
<!DOCTYPE svg PUBLIC "-//W3C//DTD SVG 1.1//EN" "http://www.w3.org/Graphics/SVG/1.1/DTD/svg11.dtd">
<svg xmlns="http://www.w3.org/2000/svg" version="1.1" width="100px" height="100px" style="shape-rendering:geometricPrecision; text-rendering:geometricPrecision; image-rendering:optimizeQuality; fill-rule:evenodd; clip-rule:evenodd" xmlns:xlink="http://www.w3.org/1999/xlink">
<g><path style="opacity:0.996" fill="#be002b" d="M -0.5,-0.5 C 32.8333,-0.5 66.1667,-0.5 99.5,-0.5C 99.5,30.1667 99.5,60.8333 99.5,91.5C 93.2019,85.7028 87.0352,79.7028 81,73.5C 81.9848,67.8799 83.1515,62.2132 84.5,56.5C 84.2269,53.1164 83.2269,49.9497 81.5,47C 83.0221,42.8202 84.0221,38.4868 84.5,34C 80.5111,31.3876 77.1778,28.0542 74.5,24C 77.2072,22.1363 78.0405,19.6363 77,16.5C 62.0578,17.805 46.7244,17.805 31,16.5C 26.3145,16.1304 24.3145,18.1304 25,22.5C 26.7713,23.3041 28.2713,24.4708 29.5,26C 27.3002,28.2336 25.4669,30.7336 24,33.5C 21.4148,41.0949 19.0815,48.7616 17,56.5C 13.5401,61.0869 10.8735,66.0869 9,71.5C 6.17624,80.785 3.3429,90.1183 0.5,99.5C 0.166667,99.5 -0.166667,99.5 -0.5,99.5C -0.5,66.1667 -0.5,32.8333 -0.5,-0.5 Z"/></g>
<g><path style="opacity:0.999" fill="#6c432c" d="M 99.5,91.5 C 99.5,94.1667 99.5,96.8333 99.5,99.5C 90.5,99.5 81.5,99.5 72.5,99.5C 71.7457,96.909 70.079,95.0757 67.5,94C 59.1699,88.879 50.5032,88.2123 41.5,92C 38.8823,94.1057 36.8823,96.6057 35.5,99.5C 23.8333,99.5 12.1667,99.5 0.5,99.5C 3.3429,90.1183 6.17624,80.785 9,71.5C 10.8735,66.0869 13.5401,61.0869 17,56.5C 19.0815,48.7616 21.4148,41.0949 24,33.5C 25.4669,30.7336 27.3002,28.2336 29.5,26C 28.2713,24.4708 26.7713,23.3041 25,22.5C 24.3145,18.1304 26.3145,16.1304 31,16.5C 46.7244,17.805 62.0578,17.805 77,16.5C 78.0405,19.6363 77.2072,22.1363 74.5,24C 77.1778,28.0542 80.5111,31.3876 84.5,34C 84.0221,38.4868 83.0221,42.8202 81.5,47C 83.2269,49.9497 84.2269,53.1164 84.5,56.5C 83.1515,62.2132 81.9848,67.8799 81,73.5C 87.0352,79.7028 93.2019,85.7028 99.5,91.5 Z"/></g>
<g><path style="opacity:1" fill="#bf805a" d="M 29.5,18.5 C 36.8404,17.9228 37.1737,19.5894 30.5,23.5C 28.2957,22.218 27.9624,20.5514 29.5,18.5 Z"/></g>
<g><path style="opacity:1" fill="#bf825c" d="M 70.5,16.5 C 74.4909,16.6478 75.3243,18.3145 73,21.5C 70.7097,20.1719 69.8764,18.5053 70.5,16.5 Z"/></g>
<g><path style="opacity:1" fill="#573726" d="M 65.5,41.5 C 65.7107,43.4241 66.3774,43.7574 67.5,42.5C 68.3382,42.8417 68.6716,43.5084 68.5,44.5C 67.1266,44.3433 65.7932,44.51 64.5,45C 59.9702,48.3623 55.3035,51.5289 50.5,54.5C 49.3044,54.1543 49.3044,53.6543 50.5,53C 52.8442,52.1628 54.8442,50.8294 56.5,49C 50.0916,48.72 44.0916,47.0533 38.5,44C 37.5494,43.2825 37.3828,42.4491 38,41.5C 40.7066,43.9363 43.8733,45.4363 47.5,46C 52.6178,46.888 57.6178,46.5547 62.5,45C 61.9056,44.5357 61.2389,44.369 60.5,44.5C 61.0189,39.0162 58.3522,36.3495 52.5,36.5C 49.0613,36.2529 45.728,36.5863 42.5,37.5C 40.2646,37.2053 38.2646,37.5386 36.5,38.5C 29.4392,38.4745 28.7726,35.9745 34.5,31C 40.0352,28.2083 45.7018,27.8749 51.5,30C 47.1667,30.3333 42.8333,30.6667 38.5,31C 44.4627,30.887 50.1293,32.0537 55.5,34.5C 55.8333,34.3333 56.1667,34.1667 56.5,34C 55.6721,33.0853 54.6721,32.4186 53.5,32C 57.02,32.4756 59.8533,34.309 62,37.5C 62,36.1667 62,34.8333 62,33.5C 63.02,34.8905 63.8534,36.3905 64.5,38C 63.8333,38.3333 63.1667,38.6667 62.5,39C 63.2266,40.3988 63.7266,41.8988 64,43.5C 64.2784,42.5842 64.7784,41.9175 65.5,41.5 Z"/></g>
<g><path style="opacity:1" fill="#e0e4e6" d="M 36.5,38.5 C 38.2646,37.5386 40.2646,37.2053 42.5,37.5C 42.4431,38.609 42.1098,39.609 41.5,40.5C 39.9505,39.5592 38.2838,38.8925 36.5,38.5 Z"/></g>
<g><path style="opacity:1" fill="#141315" d="M 52.5,36.5 C 53.8333,39.1667 53.8333,41.8333 52.5,44.5C 50.5992,44.5668 48.7659,44.2335 47,43.5C 45.902,42.6161 45.402,41.6161 45.5,40.5C 44.0052,41.7053 42.6719,41.7053 41.5,40.5C 42.1098,39.609 42.4431,38.609 42.5,37.5C 45.728,36.5863 49.0613,36.2529 52.5,36.5 Z"/></g>
<g><path style="opacity:1" fill="#eaeced" d="M 52.5,36.5 C 58.3522,36.3495 61.0189,39.0162 60.5,44.5C 57.8333,44.5 55.1667,44.5 52.5,44.5C 53.8333,41.8333 53.8333,39.1667 52.5,36.5 Z"/></g>
<g><path style="opacity:1" fill="#151517" d="M 75.5,37.5 C 77.7301,39.5351 78.0635,41.8684 76.5,44.5C 73.8333,44.5 71.1667,44.5 68.5,44.5C 68.6716,43.5084 68.3382,42.8417 67.5,42.5C 67.5,41.5 67.5,40.5 67.5,39.5C 68.1667,39.1667 68.8333,38.8333 69.5,38.5C 71.0993,36.2712 73.0993,35.9378 75.5,37.5 Z"/></g>
<g><path style="opacity:1" fill="#e9ebec" d="M 75.5,37.5 C 84.3732,38.9966 84.7066,41.33 76.5,44.5C 78.0635,41.8684 77.7301,39.5351 75.5,37.5 Z"/></g>
<g><path style="opacity:1" fill="#d7d8da" d="M 48.5,38.5 C 52.31,39.7542 52.31,40.7542 48.5,41.5C 48.5,40.5 48.5,39.5 48.5,38.5 Z"/></g>
<g><path style="opacity:1" fill="#f0f2f3" d="M 67.5,39.5 C 67.5,40.5 67.5,41.5 67.5,42.5C 66.3774,43.7574 65.7107,43.4241 65.5,41.5C 65.8333,40.5 66.5,39.8333 67.5,39.5 Z"/></g>
<g><path style="opacity:1" fill="#a8a9ae" d="M 69.5,38.5 C 71.337,38.6395 71.6704,39.3061 70.5,40.5C 69.7025,40.0431 69.3691,39.3764 69.5,38.5 Z"/></g>
<g><path style="opacity:1" fill="#e1e1e3" d="M 73.5,39.5 C 76.6741,39.9522 77.0075,40.9522 74.5,42.5C 73.6143,41.675 73.281,40.675 73.5,39.5 Z"/></g>
<g><path style="opacity:1" fill="#432919" d="M 57.5,51.5 C 72.0699,49.57 78.5699,55.9033 77,70.5C 75.7494,73.3807 73.5827,75.214 70.5,76C 62.8338,77.7332 56.0004,76.2332 50,71.5C 47.6987,63.0921 50.1987,56.4254 57.5,51.5 Z"/></g>
<g><path style="opacity:1" fill="#070302" d="M 60.5,54.5 C 62.8568,54.3367 65.1902,54.5034 67.5,55C 68.7039,58.1907 67.5372,60.3574 64,61.5C 62.9264,60.3816 61.7598,59.3816 60.5,58.5C 59.1931,57.135 59.1931,55.8016 60.5,54.5 Z"/></g>
<g><path style="opacity:1" fill="#40271a" d="M 27.5,70.5 C 42.1749,78.6016 57.8416,81.7683 74.5,80C 73.6721,80.9147 72.6721,81.5814 71.5,82C 58.6869,83.0479 46.3535,81.0479 34.5,76C 31.3596,75.0089 29.0263,73.1756 27.5,70.5 Z"/></g>
<g><path style="opacity:0.992" fill="#a57255" d="M 72.5,99.5 C 60.1667,99.5 47.8333,99.5 35.5,99.5C 36.8823,96.6057 38.8823,94.1057 41.5,92C 50.5032,88.2123 59.1699,88.879 67.5,94C 70.079,95.0757 71.7457,96.909 72.5,99.5 Z"/></g>
</svg>
