<?xml version="1.0" encoding="UTF-8"?>
<!DOCTYPE svg PUBLIC "-//W3C//DTD SVG 1.1//EN" "http://www.w3.org/Graphics/SVG/1.1/DTD/svg11.dtd">
<svg xmlns="http://www.w3.org/2000/svg" version="1.1" width="250px" height="250px" style="shape-rendering:geometricPrecision; text-rendering:geometricPrecision; image-rendering:optimizeQuality; fill-rule:evenodd; clip-rule:evenodd" xmlns:xlink="http://www.w3.org/1999/xlink">
<g><path style="opacity:1" fill="#000001" d="M -0.5,-0.5 C 82.8333,-0.5 166.167,-0.5 249.5,-0.5C 249.5,82.8333 249.5,166.167 249.5,249.5C 166.167,249.5 82.8333,249.5 -0.5,249.5C -0.5,166.167 -0.5,82.8333 -0.5,-0.5 Z"/></g>
<g><path style="opacity:1" fill="#272473" d="M 150.5,13.5 C 148.5,14.1667 146.5,14.8333 144.5,15.5C 134.218,14.5478 123.885,14.2145 113.5,14.5C 111.031,13.6829 108.365,13.1829 105.5,13C 106.416,12.7216 107.082,12.2216 107.5,11.5C 121.975,9.75187 136.308,10.4185 150.5,13.5 Z"/></g>
<g><path style="opacity:1" fill="#302c91" d="M 152.5,14.5 C 159.864,15.5662 166.864,17.7329 173.5,21C 178.24,23.3597 182.574,26.1931 186.5,29.5C 175.119,23.2057 163.785,18.2057 152.5,14.5 Z"/></g>
<g><path style="opacity:1" fill="#0a0912" d="M 134.5,16.5 C 162.049,19.3571 185.549,30.6904 205,50.5C 208.999,55.1709 212.499,60.1709 215.5,65.5C 213.159,67.6563 211.159,70.1563 209.5,73C 207.956,72.5134 206.29,72.0134 204.5,71.5C 204.715,73.1788 204.048,74.1788 202.5,74.5C 200.436,74.313 198.436,73.813 196.5,73C 195.672,71.0077 194.339,69.5077 192.5,68.5C 190.628,65.4181 188.295,62.7514 185.5,60.5C 177.872,53.1986 169.206,47.532 159.5,43.5C 152.658,40.7083 145.658,38.7083 138.5,37.5C 127.296,36.135 115.963,36.3017 104.5,38C 103.944,38.3826 103.611,38.8826 103.5,39.5C 101.901,39.2322 100.568,39.5655 99.5,40.5C 96.284,40.3455 93.6174,41.3455 91.5,43.5C 78.2279,48.4477 67.2279,56.4477 58.5,67.5C 56.4131,68.5846 55.0798,70.2512 54.5,72.5C 51.4977,75.1612 49.4977,78.4945 48.5,82.5C 45.6146,85.9856 43.6146,89.9856 42.5,94.5C 41.0762,96.5145 40.4095,98.8478 40.5,101.5C 39.5418,103.302 38.8751,105.302 38.5,107.5C 36.7686,115.599 36.1019,123.932 36.5,132.5C 32.4521,136.234 28.6187,140.234 25,144.5C 23.5787,146.405 22.412,148.405 21.5,150.5C 21.0133,151.473 20.5133,152.473 20,153.5C 19.8019,151.618 19.3019,149.952 18.5,148.5C 18.1873,143.647 17.5206,138.98 16.5,134.5C 16.5,134.167 16.5,133.833 16.5,133.5C 16.2448,123.758 16.9114,114.092 18.5,104.5C 27.6222,63.8752 51.6222,36.0418 90.5,21C 95.8093,19.5069 101.143,18.3402 106.5,17.5C 115.818,16.8167 125.151,16.4833 134.5,16.5 Z"/></g>
<g><path style="opacity:1" fill="#12112c" d="M 107.5,11.5 C 107.082,12.2216 106.416,12.7216 105.5,13C 108.365,13.1829 111.031,13.6829 113.5,14.5C 70.6091,20.5653 40.1091,43.2319 22,82.5C 19.6927,88.7349 17.8593,95.0683 16.5,101.5C 15.1045,105.591 14.4379,109.924 14.5,114.5C 14.5,120.5 14.5,126.5 14.5,132.5C 13.8333,127.167 13.1667,121.833 12.5,116.5C 12.8437,112.106 13.5103,107.772 14.5,103.5C 25.8593,55.6402 55.526,25.8069 103.5,14C 101.866,13.5065 100.199,13.3398 98.5,13.5C 101.273,12.3428 104.273,11.6761 107.5,11.5 Z"/></g>
<g><path style="opacity:1" fill="#312d91" d="M 98.5,13.5 C 100.199,13.3398 101.866,13.5065 103.5,14C 55.526,25.8069 25.8593,55.6402 14.5,103.5C 13.5489,102.081 13.2155,100.415 13.5,98.5C 23.8089,60.6978 46.8089,33.8645 82.5,18C 87.8219,16.3918 93.1553,14.8918 98.5,13.5 Z"/></g>
<g><path style="opacity:1" fill="#413bc8" d="M 113.5,14.5 C 123.885,14.2145 134.218,14.5478 144.5,15.5C 174.79,21.2939 198.79,36.6272 216.5,61.5C 217.566,62.6921 218.399,62.3588 219,60.5C 219.278,61.4158 219.778,62.0825 220.5,62.5C 220.5,62.8333 220.5,63.1667 220.5,63.5C 219.833,63.5 219.5,63.8333 219.5,64.5C 219.957,67.4056 220.957,70.0722 222.5,72.5C 222.5,73.1667 222.167,73.5 221.5,73.5C 220.5,72.1667 219.5,70.8333 218.5,69.5C 217.974,67.7697 216.974,66.4363 215.5,65.5C 212.499,60.1709 208.999,55.1709 205,50.5C 185.549,30.6904 162.049,19.3571 134.5,16.5C 131.351,15.8349 128.018,15.5016 124.5,15.5C 118.274,15.4359 112.274,16.1025 106.5,17.5C 101.143,18.3402 95.8093,19.5069 90.5,21C 51.6222,36.0418 27.6222,63.8752 18.5,104.5C 17.6618,104.842 17.3284,105.508 17.5,106.5C 16.5489,105.081 16.2155,103.415 16.5,101.5C 17.8593,95.0683 19.6927,88.7349 22,82.5C 40.1091,43.2319 70.6091,20.5653 113.5,14.5 Z"/></g>
<g><path style="opacity:1" fill="#232862" d="M 159.5,26.5 C 159.5,27.8333 159.5,29.1667 159.5,30.5C 159.5,31.1667 159.5,31.8333 159.5,32.5C 159.167,32.5 158.833,32.5 158.5,32.5C 158.715,30.8212 158.048,29.8212 156.5,29.5C 157.167,28.1667 158.167,27.1667 159.5,26.5 Z"/></g>
<g><path style="opacity:1" fill="#313962" d="M 137.5,25.5 C 138.434,26.5676 138.768,27.901 138.5,29.5C 135.615,29.8064 132.948,29.4731 130.5,28.5C 132.833,28.5 135.167,28.5 137.5,28.5C 137.5,27.5 137.5,26.5 137.5,25.5 Z"/></g>
<g><path style="opacity:1" fill="#5262e8" d="M 162.5,25.5 C 162.799,27.604 162.466,29.604 161.5,31.5C 160.817,31.1373 160.15,30.8039 159.5,30.5C 159.5,29.1667 159.5,27.8333 159.5,26.5C 160.209,25.596 161.209,25.2627 162.5,25.5 Z"/></g>
<g><path style="opacity:1" fill="#647bd4" d="M 137.5,25.5 C 137.5,26.5 137.5,27.5 137.5,28.5C 135.167,28.5 132.833,28.5 130.5,28.5C 129.596,27.791 129.263,26.791 129.5,25.5C 132.167,25.5 134.833,25.5 137.5,25.5 Z"/></g>
<g><path style="opacity:1" fill="#505fe5" d="M 94.5,23.5 C 97.1092,24.4431 99.1092,26.1097 100.5,28.5C 100.5,29.8333 99.8333,30.5 98.5,30.5C 95.4823,29.145 94.149,26.8116 94.5,23.5 Z"/></g>
<g><path style="opacity:1" fill="#37406d" d="M 120.5,19.5 C 121.787,23.0649 121.787,26.7316 120.5,30.5C 118.999,29.2485 117.332,28.2485 115.5,27.5C 115.5,27.1667 115.5,26.8333 115.5,26.5C 116.167,26.5 116.5,26.1667 116.5,25.5C 117.794,26.2899 118.961,27.2899 120,28.5C 120.498,25.5184 120.665,22.5184 120.5,19.5 Z"/></g>
<g><path style="opacity:1" fill="#2c3172" d="M 94.5,23.5 C 94.149,26.8116 95.4823,29.145 98.5,30.5C 98.5,30.8333 98.5,31.1667 98.5,31.5C 97.8333,32.1667 97.1667,32.8333 96.5,33.5C 96.7778,31.6536 96.1112,30.3202 94.5,29.5C 93.6143,30.325 93.281,31.325 93.5,32.5C 93.1667,32.5 92.8333,32.5 92.5,32.5C 92.6761,29.2727 93.3428,26.2727 94.5,23.5 Z"/></g>
<g><path style="opacity:1" fill="#343b6e" d="M 105.5,23.5 C 107.833,24.8333 110.167,26.1667 112.5,27.5C 112.5,27.8333 112.5,28.1667 112.5,28.5C 111.833,30.5 111.167,32.5 110.5,34.5C 110.5,32.8333 110.5,31.1667 110.5,29.5C 107.471,24.6528 106.471,24.6528 107.5,29.5C 107.5,30.5 107.5,31.5 107.5,32.5C 105.882,29.8291 105.215,26.8291 105.5,23.5 Z"/></g>
<g><path style="opacity:1" fill="#7084eb" d="M 110.5,29.5 C 109.5,29.5 108.5,29.5 107.5,29.5C 106.471,24.6528 107.471,24.6528 110.5,29.5 Z"/></g>
<g><path style="opacity:1" fill="#5d6ee0" d="M 123.5,23.5 C 124.833,23.5 126.167,23.5 127.5,23.5C 127.5,25.1667 127.5,26.8333 127.5,28.5C 126.609,27.8902 125.609,27.5569 124.5,27.5C 124.5,26.8333 124.167,26.5 123.5,26.5C 123.5,25.5 123.5,24.5 123.5,23.5 Z"/></g>
<g><path style="opacity:1" fill="#4a56d3" d="M 149.5,29.5 C 147.801,29.4729 146.467,28.8062 145.5,27.5C 145.577,26.2502 146.244,25.4169 147.5,25C 145.527,24.5045 143.527,24.3379 141.5,24.5C 141.5,23.5 141.5,22.5 141.5,21.5C 146.718,21.3007 151.385,22.6341 155.5,25.5C 155,25.8333 154.5,26.1667 154,26.5C 152.56,25.8524 151.06,25.5191 149.5,25.5C 149.5,26.8333 149.5,28.1667 149.5,29.5 Z"/></g>
<g><path style="opacity:1" fill="#272b64" d="M 123.5,23.5 C 123.5,23.1667 123.5,22.8333 123.5,22.5C 126.833,22.5 130.167,22.5 133.5,22.5C 133.833,22.5 134.167,22.5 134.5,22.5C 134.5,22.8333 134.5,23.1667 134.5,23.5C 132.5,23.5 130.5,23.5 128.5,23.5C 128.5,25.8333 128.5,28.1667 128.5,30.5C 128.167,30.5 127.833,30.5 127.5,30.5C 127.5,29.8333 127.5,29.1667 127.5,28.5C 127.5,26.8333 127.5,25.1667 127.5,23.5C 126.167,23.5 124.833,23.5 123.5,23.5 Z"/></g>
<g><path style="opacity:1" fill="#5a68e5" d="M 120.5,19.5 C 120.665,22.5184 120.498,25.5184 120,28.5C 118.961,27.2899 117.794,26.2899 116.5,25.5C 116.5,23.5 116.5,21.5 116.5,19.5C 117.833,19.5 119.167,19.5 120.5,19.5 Z"/></g>
<g><path style="opacity:1" fill="#5563e2" d="M 115.5,26.5 C 115.5,26.8333 115.5,27.1667 115.5,27.5C 114.5,27.5 113.5,27.5 112.5,27.5C 110.167,26.1667 107.833,24.8333 105.5,23.5C 104.218,22.2918 104.218,20.9584 105.5,19.5C 108.9,21.8556 112.233,24.1889 115.5,26.5 Z"/></g>
<g><path style="opacity:1" fill="#373eaf" d="M 134.5,23.5 C 134.5,23.1667 134.5,22.8333 134.5,22.5C 135.675,22.719 136.675,22.3857 137.5,21.5C 133.205,20.3391 128.871,20.1725 124.5,21C 127.695,21.1805 130.695,21.6805 133.5,22.5C 130.167,22.5 126.833,22.5 123.5,22.5C 123.5,21.5 123.5,20.5 123.5,19.5C 128.5,19.5 133.5,19.5 138.5,19.5C 138.5,20.8333 138.5,22.1667 138.5,23.5C 137.167,23.5 135.833,23.5 134.5,23.5 Z"/></g>
<g><path style="opacity:1" fill="#4a56f0" d="M 134.5,22.5 C 134.167,22.5 133.833,22.5 133.5,22.5C 130.695,21.6805 127.695,21.1805 124.5,21C 128.871,20.1725 133.205,20.3391 137.5,21.5C 136.675,22.3857 135.675,22.719 134.5,22.5 Z"/></g>
<g><path style="opacity:1" fill="#1b1956" d="M 134.5,16.5 C 125.151,16.4833 115.818,16.8167 106.5,17.5C 112.274,16.1025 118.274,15.4359 124.5,15.5C 128.018,15.5016 131.351,15.8349 134.5,16.5 Z"/></g>
<g><path style="opacity:1" fill="#8aa8d9" d="M 112.5,28.5 C 112.5,28.1667 112.5,27.8333 112.5,27.5C 113.5,27.5 114.5,27.5 115.5,27.5C 117.332,28.2485 118.999,29.2485 120.5,30.5C 121.782,31.7082 121.782,33.0416 120.5,34.5C 117.532,32.8603 114.865,30.8603 112.5,28.5 Z"/></g>
<g><path style="opacity:1" fill="#7388d4" d="M 145.5,27.5 C 146.467,28.8062 147.801,29.4729 149.5,29.5C 148.85,31.4352 148.517,33.4352 148.5,35.5C 147.167,35.5 145.833,35.5 144.5,35.5C 144.401,32.7628 144.735,30.0961 145.5,27.5 Z"/></g>
<g><path style="opacity:1" fill="#95b6ef" d="M 107.5,29.5 C 108.5,29.5 109.5,29.5 110.5,29.5C 110.5,31.1667 110.5,32.8333 110.5,34.5C 108.821,34.7148 107.821,34.0481 107.5,32.5C 107.5,31.5 107.5,30.5 107.5,29.5 Z"/></g>
<g><path style="opacity:1" fill="#a4c7fb" d="M 124.5,27.5 C 125.609,27.5569 126.609,27.8902 127.5,28.5C 127.5,29.1667 127.5,29.8333 127.5,30.5C 130.305,31.3195 133.305,31.8195 136.5,32C 132.514,32.4988 128.514,32.6655 124.5,32.5C 124.5,30.8333 124.5,29.1667 124.5,27.5 Z"/></g>
<g><path style="opacity:1" fill="#6e82f1" d="M 96.5,33.5 C 95.209,33.7373 94.209,33.404 93.5,32.5C 93.281,31.325 93.6143,30.325 94.5,29.5C 96.1112,30.3202 96.7778,31.6536 96.5,33.5 Z"/></g>
<g><path style="opacity:1" fill="#748db3" d="M 123.5,26.5 C 124.167,26.5 124.5,26.8333 124.5,27.5C 124.5,29.1667 124.5,30.8333 124.5,32.5C 128.514,32.6655 132.514,32.4988 136.5,32C 133.305,31.8195 130.305,31.3195 127.5,30.5C 127.833,30.5 128.167,30.5 128.5,30.5C 131.5,30.5 134.5,30.5 137.5,30.5C 137.5,31.5 137.5,32.5 137.5,33.5C 132.833,33.5 128.167,33.5 123.5,33.5C 123.5,31.1667 123.5,28.8333 123.5,26.5 Z"/></g>
<g><path style="opacity:1" fill="#7f9bdc" d="M 100.5,28.5 C 102.867,29.8708 104.533,31.8708 105.5,34.5C 102.231,35.932 99.8977,34.932 98.5,31.5C 98.5,31.1667 98.5,30.8333 98.5,30.5C 99.8333,30.5 100.5,29.8333 100.5,28.5 Z"/></g>
<g><path style="opacity:1" fill="#748bd4" d="M 156.5,29.5 C 158.048,29.8212 158.715,30.8212 158.5,32.5C 156.461,36.2449 153.461,37.5782 149.5,36.5C 151.521,33.8122 153.854,31.4789 156.5,29.5 Z"/></g>
<g><path style="opacity:1" fill="#2c306c" d="M 171.5,33.5 C 173.23,34.0256 174.564,35.0256 175.5,36.5C 174.391,36.5569 173.391,36.8902 172.5,37.5C 172.443,36.391 172.11,35.391 171.5,34.5C 171.5,34.1667 171.5,33.8333 171.5,33.5 Z"/></g>
<g><path style="opacity:1" fill="#7288d5" d="M 162.5,25.5 C 163.815,30.6803 163.815,36.0136 162.5,41.5C 161.833,41.1667 161.167,40.8333 160.5,40.5C 159.52,37.9135 159.187,35.2469 159.5,32.5C 159.5,31.8333 159.5,31.1667 159.5,30.5C 160.15,30.8039 160.817,31.1373 161.5,31.5C 162.466,29.604 162.799,27.604 162.5,25.5 Z"/></g>
<g><path style="opacity:1" fill="#4d5adc" d="M 79.5,38.5 C 78.4324,39.4345 77.099,39.7678 75.5,39.5C 74.0605,37.412 73.3939,35.0786 73.5,32.5C 77.2493,32.6173 79.2493,34.6173 79.5,38.5 Z"/></g>
<g><path style="opacity:1" fill="#768fbc" d="M 92.5,32.5 C 92.8333,32.5 93.1667,32.5 93.5,32.5C 94.209,33.404 95.209,33.7373 96.5,33.5C 97.2436,36.9496 95.9103,38.6162 92.5,38.5C 92.5,36.5 92.5,34.5 92.5,32.5 Z"/></g>
<g><path style="opacity:1" fill="#272384" d="M 138.5,37.5 C 126.738,37.0672 115.071,37.7338 103.5,39.5C 103.611,38.8826 103.944,38.3826 104.5,38C 115.963,36.3017 127.296,36.135 138.5,37.5 Z"/></g>
<g><path style="opacity:1" fill="#433cf5" d="M 138.5,37.5 C 145.658,38.7083 152.658,40.7083 159.5,43.5C 160.615,46.0798 162.615,47.7465 165.5,48.5C 164,48.8333 162.5,49.1667 161,49.5C 156.481,48.8957 151.981,48.229 147.5,47.5C 145.565,46.8505 143.565,46.5172 141.5,46.5C 136.243,45.0249 130.743,44.3582 125,44.5C 118.933,44.3905 113.1,45.0571 107.5,46.5C 104.772,46.1706 102.438,46.8372 100.5,48.5C 84.5223,53.7499 71.3556,63.0833 61,76.5C 58.2098,80.4275 55.7098,84.4275 53.5,88.5C 51.38,88.9298 49.38,88.9298 47.5,88.5C 48.3482,86.5914 48.6816,84.5914 48.5,82.5C 49.4977,78.4945 51.4977,75.1612 54.5,72.5C 56.5869,71.4154 57.9202,69.7488 58.5,67.5C 67.2279,56.4477 78.2279,48.4477 91.5,43.5C 94.3973,42.871 97.064,41.871 99.5,40.5C 100.568,39.5655 101.901,39.2322 103.5,39.5C 115.071,37.7338 126.738,37.0672 138.5,37.5 Z"/></g>
<g><path style="opacity:1" fill="#7b92eb" d="M 171.5,34.5 C 172.11,35.391 172.443,36.391 172.5,37.5C 171.737,39.3684 170.737,41.0351 169.5,42.5C 168.833,41.1667 168.167,39.8333 167.5,38.5C 168.268,37.7375 168.768,36.7375 169,35.5C 169.671,34.7476 170.504,34.4142 171.5,34.5 Z"/></g>
<g><path style="opacity:1" fill="#4650d0" d="M 72.5,39.5 C 71.791,40.404 70.791,40.7373 69.5,40.5C 67.0532,40.615 65.0532,41.615 63.5,43.5C 61.9505,44.4408 60.2838,45.1075 58.5,45.5C 58.5394,44.4168 58.8728,43.4168 59.5,42.5C 61.8333,40.6667 64.1667,38.8333 66.5,37C 68.1667,36.3333 69.8333,36.3333 71.5,37C 72.2524,37.6708 72.5858,38.5041 72.5,39.5 Z"/></g>
<g><path style="opacity:1" fill="#5b6aa0" d="M 79.5,38.5 C 80.1667,39.1667 80.8333,39.8333 81.5,40.5C 80.3995,41.6049 79.7329,42.9382 79.5,44.5C 78.197,42.8577 76.8637,41.1911 75.5,39.5C 77.099,39.7678 78.4324,39.4345 79.5,38.5 Z"/></g>
<g><path style="opacity:1" fill="#93b5e1" d="M 79.5,44.5 C 79.7329,42.9382 80.3995,41.6049 81.5,40.5C 84.0351,39.6513 86.5351,38.6513 89,37.5C 90.2575,37.8499 90.5908,38.5165 90,39.5C 86.4021,41.0498 82.9021,42.7164 79.5,44.5 Z"/></g>
<g><path style="opacity:1" fill="#5b6ce4" d="M 182.5,43.5 C 180.067,43.7271 178.401,42.7271 177.5,40.5C 178.675,40.719 179.675,40.3857 180.5,39.5C 178.971,38.2371 177.305,37.2371 175.5,36.5C 174.564,35.0256 173.23,34.0256 171.5,33.5C 170.596,32.791 170.263,31.791 170.5,30.5C 175.558,32.1398 180.058,34.8065 184,38.5C 184.877,40.6742 184.377,42.3409 182.5,43.5 Z"/></g>
<g><path style="opacity:1" fill="#282588" d="M 99.5,40.5 C 97.064,41.871 94.3973,42.871 91.5,43.5C 93.6174,41.3455 96.284,40.3455 99.5,40.5 Z"/></g>
<g><path style="opacity:1" fill="#87a3d1" d="M 167.5,38.5 C 168.167,39.8333 168.833,41.1667 169.5,42.5C 168.352,44.8379 167.018,44.6712 165.5,42C 165.808,40.5405 166.475,39.3739 167.5,38.5 Z"/></g>
<g><path style="opacity:1" fill="#111021" d="M 69.5,40.5 C 68.7562,42.9859 67.2562,44.9859 65,46.5C 64.6174,45.944 64.1174,45.6107 63.5,45.5C 63.5,44.8333 63.5,44.1667 63.5,43.5C 65.0532,41.615 67.0532,40.615 69.5,40.5 Z"/></g>
<g><path style="opacity:1" fill="#7991dc" d="M 177.5,40.5 C 178.401,42.7271 180.067,43.7271 182.5,43.5C 181.432,44.4345 180.099,44.7678 178.5,44.5C 177.167,44.5 175.833,44.5 174.5,44.5C 174.5,45.5 174.5,46.5 174.5,47.5C 173.197,44.6447 173.197,41.6447 174.5,38.5C 175.518,39.1925 176.518,39.8592 177.5,40.5 Z"/></g>
<g><path style="opacity:1" fill="#6678ef" d="M 188.5,40.5 C 189.833,41.1667 190.833,42.1667 191.5,43.5C 191.5,45.8333 191.5,48.1667 191.5,50.5C 190.167,50.1667 188.833,49.8333 187.5,49.5C 187.19,46.2869 187.523,43.2869 188.5,40.5 Z"/></g>
<g><path style="opacity:1" fill="#303680" d="M 63.5,43.5 C 63.5,44.1667 63.5,44.8333 63.5,45.5C 61.9519,45.8212 61.2852,46.8212 61.5,48.5C 60.5,47.5 59.5,46.5 58.5,45.5C 60.2838,45.1075 61.9505,44.4408 63.5,43.5 Z"/></g>
<g><path style="opacity:1" fill="#1c1a4c" d="M 141.5,46.5 C 130.169,45.2016 118.835,45.2016 107.5,46.5C 113.1,45.0571 118.933,44.3905 125,44.5C 130.743,44.3582 136.243,45.0249 141.5,46.5 Z"/></g>
<g><path style="opacity:1" fill="#26236e" d="M 107.5,46.5 C 105.485,47.9238 103.152,48.5905 100.5,48.5C 102.438,46.8372 104.772,46.1706 107.5,46.5 Z"/></g>
<g><path style="opacity:1" fill="#677bda" d="M 72.5,39.5 C 73.5983,40.6009 73.765,41.9343 73,43.5C 70.648,45.0303 68.4813,46.6969 66.5,48.5C 65.2905,48.9321 64.2905,49.5987 63.5,50.5C 62.5,50.1667 61.8333,49.5 61.5,48.5C 61.2852,46.8212 61.9519,45.8212 63.5,45.5C 64.1174,45.6107 64.6174,45.944 65,46.5C 67.2562,44.9859 68.7562,42.9859 69.5,40.5C 70.791,40.7373 71.791,40.404 72.5,39.5 Z"/></g>
<g><path style="opacity:1" fill="#4741ee" d="M 159.5,43.5 C 169.206,47.532 177.872,53.1986 185.5,60.5C 187.289,63.2919 188.623,66.2919 189.5,69.5C 187.097,69.552 184.764,69.2186 182.5,68.5C 172.159,59.168 160.492,52.168 147.5,47.5C 151.981,48.229 156.481,48.8957 161,49.5C 162.5,49.1667 164,48.8333 165.5,48.5C 162.615,47.7465 160.615,46.0798 159.5,43.5 Z"/></g>
<g><path style="opacity:1" fill="#88a4ca" d="M 178.5,44.5 C 178.5,46.1667 178.5,47.8333 178.5,49.5C 176.62,49.7709 175.287,49.1042 174.5,47.5C 174.5,46.5 174.5,45.5 174.5,44.5C 175.833,44.5 177.167,44.5 178.5,44.5 Z"/></g>
<g><path style="opacity:1" fill="#2d345d" d="M 188.5,40.5 C 187.523,43.2869 187.19,46.2869 187.5,49.5C 187.5,50.1667 187.167,50.5 186.5,50.5C 186.177,46.774 186.511,43.1073 187.5,39.5C 188.107,39.6236 188.44,39.9569 188.5,40.5 Z"/></g>
<g><path style="opacity:1" fill="#14133a" d="M 150.5,13.5 C 151.492,13.3284 152.158,13.6618 152.5,14.5C 163.785,18.2057 175.119,23.2057 186.5,29.5C 198.099,37.9315 208.266,47.9315 217,59.5C 217.692,60.4368 217.525,61.1034 216.5,61.5C 198.79,36.6272 174.79,21.2939 144.5,15.5C 146.5,14.8333 148.5,14.1667 150.5,13.5 Z"/></g>
<g><path style="opacity:1" fill="#5361ed" d="M 57.5,48.5 C 57.719,49.675 57.3857,50.675 56.5,51.5C 55.5832,50.8728 54.5832,50.5394 53.5,50.5C 52.2264,49.8106 52.2264,48.9772 53.5,48C 54.9285,47.4209 56.2618,47.5876 57.5,48.5 Z"/></g>
<g><path style="opacity:1" fill="#7a94c0" d="M 66.5,48.5 C 70.7146,51.2194 70.3813,52.7194 65.5,53C 64.6195,52.2917 63.9528,51.4584 63.5,50.5C 64.2905,49.5987 65.2905,48.9321 66.5,48.5 Z"/></g>
<g><path style="opacity:1" fill="#7590f4" d="M 193.5,48.5 C 196.01,48.0535 198.01,48.7202 199.5,50.5C 197.735,51.4614 195.735,51.7947 193.5,51.5C 193.5,50.5 193.5,49.5 193.5,48.5 Z"/></g>
<g><path style="opacity:1" fill="#596bc5" d="M 57.5,48.5 C 59.1667,49.5 60.5,50.8333 61.5,52.5C 59.5168,52.1568 58.1834,52.8235 57.5,54.5C 55.8333,53.5 54.5,52.1667 53.5,50.5C 54.5832,50.5394 55.5832,50.8728 56.5,51.5C 57.3857,50.675 57.719,49.675 57.5,48.5 Z"/></g>
<g><path style="opacity:1" fill="#4a5996" d="M 191.5,43.5 C 192.167,45.1667 192.833,46.8333 193.5,48.5C 193.5,49.5 193.5,50.5 193.5,51.5C 195.735,51.7947 197.735,51.4614 199.5,50.5C 200.043,50.56 200.376,50.8933 200.5,51.5C 197.572,52.4841 194.572,52.8174 191.5,52.5C 191.5,51.8333 191.5,51.1667 191.5,50.5C 191.5,48.1667 191.5,45.8333 191.5,43.5 Z"/></g>
<g><path style="opacity:1" fill="#9cc0ea" d="M 187.5,49.5 C 188.833,49.8333 190.167,50.1667 191.5,50.5C 191.5,51.1667 191.5,51.8333 191.5,52.5C 189.877,53.7794 188.21,55.1128 186.5,56.5C 184.001,54.6045 184.001,52.6045 186.5,50.5C 187.167,50.5 187.5,50.1667 187.5,49.5 Z"/></g>
<g><path style="opacity:1" fill="#85a3dc" d="M 61.5,52.5 C 62.2299,53.7124 63.2299,54.7124 64.5,55.5C 63.6518,57.2828 62.3185,57.7828 60.5,57C 59.6266,55.955 58.6266,55.1217 57.5,54.5C 58.1834,52.8235 59.5168,52.1568 61.5,52.5 Z"/></g>
<g><path style="opacity:1" fill="#282f63" d="M 50.5,55.5 C 50.5569,56.609 50.8902,57.609 51.5,58.5C 49.6203,58.2291 48.287,58.8958 47.5,60.5C 46.8333,60.5 46.1667,60.5 45.5,60.5C 46.8333,58.5 48.5,56.8333 50.5,55.5 Z"/></g>
<g><path style="opacity:1" fill="#1b1a2f" d="M 128.5,55.5 C 130.908,62.2227 132.074,69.2227 132,76.5C 134.951,78.0761 138.117,78.7428 141.5,78.5C 145.237,80.3727 148.904,82.5394 152.5,85C 155.029,88.6936 158.029,91.8603 161.5,94.5C 161.158,95.3382 160.492,95.6716 159.5,95.5C 158.833,95.1667 158.167,94.8333 157.5,94.5C 155.194,91.5271 152.527,88.8605 149.5,86.5C 144.363,81.2289 138.03,78.8955 130.5,79.5C 130.666,75.1539 130.499,70.8206 130,66.5C 129.844,63.8091 129.011,61.4758 127.5,59.5C 124.459,59.5513 121.792,60.5513 119.5,62.5C 117.366,61.3065 116.033,59.4732 115.5,57C 114.5,56.3333 113.5,56.3333 112.5,57C 107.488,60.8764 103.822,65.7097 101.5,71.5C 99.4195,75.3278 97.0861,78.9945 94.5,82.5C 91.8061,84.5272 89.4728,86.8605 87.5,89.5C 84.7589,91.9754 82.7589,94.9754 81.5,98.5C 79.3926,101.057 78.0592,104.057 77.5,107.5C 76.8333,107.5 76.5,107.833 76.5,108.5C 74.6477,111.551 73.3143,114.884 72.5,118.5C 70.412,120.336 69.0787,122.669 68.5,125.5C 67.0937,125.973 66.427,126.973 66.5,128.5C 64.7073,130.426 63.7073,132.759 63.5,135.5C 60.0748,140.157 58.7414,145.49 59.5,151.5C 58.2521,150.666 57.5854,149.333 57.5,147.5C 58.1878,142.751 59.1878,138.084 60.5,133.5C 63.085,129.621 65.585,125.621 68,121.5C 69.0086,119.975 69.5086,118.308 69.5,116.5C 73.0765,109.648 76.5765,102.648 80,95.5C 84.3371,90.3308 88.8371,85.3308 93.5,80.5C 98.4411,72.228 103.774,64.228 109.5,56.5C 111.186,53.9953 113.519,53.162 116.5,54C 118.038,55.9321 119.205,58.0988 120,60.5C 121.833,58.6667 123.667,56.8333 125.5,55C 126.749,54.2599 127.749,54.4265 128.5,55.5 Z"/></g>
<g><path style="opacity:1" fill="#4e5bd5" d="M 50.5,55.5 C 48.5,56.8333 46.8333,58.5 45.5,60.5C 44.5755,63.1313 42.9088,63.7979 40.5,62.5C 43.1421,58.2245 46.4754,54.5579 50.5,51.5C 51.6256,52.8084 51.6256,54.1417 50.5,55.5 Z"/></g>
<g><path style="opacity:1" fill="#363296" d="M 186.5,29.5 C 190.262,31.4127 193.929,33.5794 197.5,36C 206.477,43.8028 214.144,52.6361 220.5,62.5C 219.778,62.0825 219.278,61.4158 219,60.5C 218.399,62.3588 217.566,62.6921 216.5,61.5C 217.525,61.1034 217.692,60.4368 217,59.5C 208.266,47.9315 198.099,37.9315 186.5,29.5 Z"/></g>
<g><path style="opacity:1" fill="#728ade" d="M 51.5,58.5 C 52.1667,59.1667 52.8333,59.8333 53.5,60.5C 52.4489,61.2223 51.7822,62.2223 51.5,63.5C 49.5956,63.2624 48.2623,62.2624 47.5,60.5C 48.287,58.8958 49.6203,58.2291 51.5,58.5 Z"/></g>
<g><path style="opacity:1" fill="#8aa9dc" d="M 53.5,60.5 C 56.7015,61.8395 57.0348,63.5061 54.5,65.5C 53.2613,65.0576 52.2613,64.3909 51.5,63.5C 51.7822,62.2223 52.4489,61.2223 53.5,60.5 Z"/></g>
<g><path style="opacity:1" fill="#151416" d="M 141.5,46.5 C 143.565,46.5172 145.565,46.8505 147.5,47.5C 160.492,52.168 172.159,59.168 182.5,68.5C 187.235,73.6321 191.235,79.2987 194.5,85.5C 195.626,86.8583 195.626,88.1916 194.5,89.5C 190.964,91.8659 187.297,94.0326 183.5,96C 178.44,96.2061 173.44,95.7061 168.5,94.5C 166.345,94.628 164.345,94.128 162.5,93C 157.886,86.5474 152.22,81.3808 145.5,77.5C 141.79,75.8643 137.79,75.1977 133.5,75.5C 133.666,70.1563 133.499,64.8229 133,59.5C 132.844,56.8091 132.011,54.4758 130.5,52.5C 130.134,51.3054 129.301,50.6387 128,50.5C 125.702,51.9611 123.535,53.6278 121.5,55.5C 118.007,46.5532 113.673,46.2198 108.5,54.5C 103.18,62.4632 97.8465,70.4632 92.5,78.5C 88.898,82.6046 85.0647,86.6046 81,90.5C 77.8891,94.3869 75.5557,98.7202 74,103.5C 68.892,107.299 63.7253,110.966 58.5,114.5C 54.5297,117.491 50.5297,120.491 46.5,123.5C 45.5344,121.604 45.2011,119.604 45.5,117.5C 46.4464,111.437 47.7797,105.437 49.5,99.5C 50.0526,95.5053 51.386,91.8386 53.5,88.5C 55.7098,84.4275 58.2098,80.4275 61,76.5C 71.3556,63.0833 84.5223,53.7499 100.5,48.5C 103.152,48.5905 105.485,47.9238 107.5,46.5C 118.835,45.2016 130.169,45.2016 141.5,46.5 Z"/></g>
<g><path style="opacity:1" fill="#4440d6" d="M 149.5,56.5 C 150.108,59.9583 152.108,62.4583 155.5,64C 152.56,64.212 150.726,65.712 150,68.5C 148.934,65.4369 146.767,63.9369 143.5,64C 146.821,62.5163 148.821,60.0163 149.5,56.5 Z"/></g>
<g><path style="opacity:1" fill="#3e39e6" d="M 89.5,59.5 C 90.8333,59.5 92.1667,59.5 93.5,59.5C 93.5,60.8333 93.5,62.1667 93.5,63.5C 92.1667,63.5 90.8333,63.5 89.5,63.5C 89.5,62.1667 89.5,60.8333 89.5,59.5 Z"/></g>
<g><path style="opacity:1" fill="#4339bf" d="M 138.5,51.5 C 140.337,51.6395 140.67,52.3061 139.5,53.5C 138.702,53.0431 138.369,52.3764 138.5,51.5 Z"/></g>
<g><path style="opacity:1" fill="#3e39cd" d="M 130.5,52.5 C 130.715,54.1788 130.048,55.1788 128.5,55.5C 127.749,54.4265 126.749,54.2599 125.5,55C 123.667,56.8333 121.833,58.6667 120,60.5C 119.205,58.0988 118.038,55.9321 116.5,54C 113.519,53.162 111.186,53.9953 109.5,56.5C 108.662,56.1583 108.328,55.4916 108.5,54.5C 113.673,46.2198 118.007,46.5532 121.5,55.5C 123.535,53.6278 125.702,51.9611 128,50.5C 129.301,50.6387 130.134,51.3054 130.5,52.5 Z"/></g>
<g><path style="opacity:1" fill="#4b45fa" d="M 127.5,59.5 C 128.254,64.4635 128.587,69.4635 128.5,74.5C 119.589,74.2755 110.756,74.9422 102,76.5C 100.189,75.5765 100.355,74.7431 102.5,74C 101.748,73.3292 101.414,72.4959 101.5,71.5C 103.822,65.7097 107.488,60.8764 112.5,57C 113.5,56.3333 114.5,56.3333 115.5,57C 116.033,59.4732 117.366,61.3065 119.5,62.5C 121.792,60.5513 124.459,59.5513 127.5,59.5 Z"/></g>
<g><path style="opacity:1" fill="#3a34a7" d="M 108.5,54.5 C 108.328,55.4916 108.662,56.1583 109.5,56.5C 103.774,64.228 98.4411,72.228 93.5,80.5C 92.6618,80.1583 92.3284,79.4916 92.5,78.5C 97.8465,70.4632 103.18,62.4632 108.5,54.5 Z"/></g>
<g><path style="opacity:1" fill="#87a5cb" d="M 43.5,76.5 C 45.2285,73.3935 47.2285,70.3935 49.5,67.5C 50.325,66.6143 51.325,66.281 52.5,66.5C 51.3078,69.5622 49.8078,72.5622 48,75.5C 46.9805,76.6872 45.8139,77.6872 44.5,78.5C 43.7025,78.0431 43.3691,77.3764 43.5,76.5 Z"/></g>
<g><path style="opacity:1" fill="#3530ae" d="M 58.5,67.5 C 57.9202,69.7488 56.5869,71.4154 54.5,72.5C 55.0798,70.2512 56.4131,68.5846 58.5,67.5 Z"/></g>
<g><path style="opacity:1" fill="#403aa2" d="M 170.5,69.5 C 171.675,69.281 172.675,69.6143 173.5,70.5C 171.948,71.7979 170.948,71.4646 170.5,69.5 Z"/></g>
<g><path style="opacity:1" fill="#070511" d="M 218.5,69.5 C 219.5,70.8333 220.5,72.1667 221.5,73.5C 223.188,77.537 224.855,81.537 226.5,85.5C 226.631,86.3764 226.298,87.0431 225.5,87.5C 222.374,85.8712 219.707,83.7045 217.5,81C 220.468,78.8223 220.135,77.6556 216.5,77.5C 216.802,74.6275 217.469,71.9608 218.5,69.5 Z"/></g>
<g><path style="opacity:1" fill="#5f70df" d="M 39.5,71.5 C 39.7148,73.1788 39.0481,74.1788 37.5,74.5C 36.5,74.5 35.5,74.5 34.5,74.5C 34.1981,69.4896 35.8648,68.4896 39.5,71.5 Z"/></g>
<g><path style="opacity:1" fill="#0a0715" d="M 205.5,92.5 C 204.599,93.2905 203.932,94.2905 203.5,95.5C 202.566,94.4324 202.232,93.099 202.5,91.5C 203.256,89.7334 203.923,87.9001 204.5,86C 204.095,85.0546 203.428,84.3879 202.5,84C 203.84,81.8511 203.173,80.6845 200.5,80.5C 198.54,78.8437 196.54,77.177 194.5,75.5C 196.794,74.6731 199.127,75.0064 201.5,76.5C 203.51,77.6932 205.676,77.6932 208,76.5C 211.026,74.4718 213.359,71.8051 215,68.5C 215.237,71.735 214.737,74.9017 213.5,78C 215.451,82.651 219.118,86.3177 224.5,89C 221.001,88.8905 217.668,88.0571 214.5,86.5C 213.006,86.7092 211.839,87.3759 211,88.5C 208.075,87.8803 206.242,89.2136 205.5,92.5 Z"/></g>
<g><path style="opacity:1" fill="#4844bc" d="M 192.5,68.5 C 194.339,69.5077 195.672,71.0077 196.5,73C 198.436,73.813 200.436,74.313 202.5,74.5C 203.263,75.2679 204.263,75.7679 205.5,76C 204.207,76.49 202.873,76.6567 201.5,76.5C 199.127,75.0064 196.794,74.6731 194.5,75.5C 193.522,75.189 192.855,74.5223 192.5,73.5C 193.535,71.8716 193.535,70.205 192.5,68.5 Z"/></g>
<g><path style="opacity:1" fill="#758ee1" d="M 39.5,71.5 C 42.2974,71.9666 43.6308,73.6333 43.5,76.5C 41.2143,76.405 39.2143,75.7384 37.5,74.5C 39.0481,74.1788 39.7148,73.1788 39.5,71.5 Z"/></g>
<g><path style="opacity:1" fill="#403cb0" d="M 130.5,52.5 C 132.011,54.4758 132.844,56.8091 133,59.5C 133.499,64.8229 133.666,70.1563 133.5,75.5C 137.79,75.1977 141.79,75.8643 145.5,77.5C 143.901,77.2322 142.568,77.5655 141.5,78.5C 138.117,78.7428 134.951,78.0761 132,76.5C 132.074,69.2227 130.908,62.2227 128.5,55.5C 130.048,55.1788 130.715,54.1788 130.5,52.5 Z"/></g>
<g><path style="opacity:1" fill="#5751fa" d="M 127.5,59.5 C 129.011,61.4758 129.844,63.8091 130,66.5C 130.499,70.8206 130.666,75.1539 130.5,79.5C 130.577,80.7498 131.244,81.5831 132.5,82C 131.421,82.956 130.255,83.7894 129,84.5C 126.589,83.8606 124.089,83.5272 121.5,83.5C 113.084,84.8531 104.584,85.8531 96,86.5C 95.1667,86.1667 94.3333,85.8333 93.5,85.5C 94.1272,84.5832 94.4606,83.5832 94.5,82.5C 97.0861,78.9945 99.4195,75.3278 101.5,71.5C 101.414,72.4959 101.748,73.3292 102.5,74C 100.355,74.7431 100.189,75.5765 102,76.5C 110.756,74.9422 119.589,74.2755 128.5,74.5C 128.587,69.4635 128.254,64.4635 127.5,59.5 Z"/></g>
<g><path style="opacity:1" fill="#514ab7" d="M 158.5,75.5 C 160.337,75.6395 160.67,76.3061 159.5,77.5C 158.702,77.0431 158.369,76.3764 158.5,75.5 Z"/></g>
<g><path style="opacity:1" fill="#423e95" d="M 219.5,64.5 C 219.5,63.8333 219.833,63.5 220.5,63.5C 221.376,63.3691 222.043,63.7025 222.5,64.5C 227.906,73.6372 231.906,83.3039 234.5,93.5C 234.565,93.9382 234.399,94.2716 234,94.5C 230.918,85.5885 227.252,76.9218 223,68.5C 221.595,67.2695 220.429,65.9361 219.5,64.5 Z"/></g>
<g><path style="opacity:1" fill="#4743dc" d="M 74.5,74.5 C 76.1992,74.3398 77.8659,74.5065 79.5,75C 80.8133,78.692 79.4799,80.3587 75.5,80C 74.5939,78.3005 74.2606,76.4672 74.5,74.5 Z"/></g>
<g><path style="opacity:1" fill="#7288f7" d="M 37.5,78.5 C 36.8166,80.1765 35.4832,80.8432 33.5,80.5C 31.0299,79.6397 30.8632,78.3064 33,76.5C 34.4705,77.2666 35.9705,77.9332 37.5,78.5 Z"/></g>
<g><path style="opacity:1" fill="#5855ca" d="M 222.5,72.5 C 227.037,79.0906 230.037,86.4239 231.5,94.5C 231.737,95.791 231.404,96.791 230.5,97.5C 230.204,95.597 229.537,93.9303 228.5,92.5C 224.777,91.2058 224.777,90.0391 228.5,89C 227.915,87.6976 227.249,86.531 226.5,85.5C 224.855,81.537 223.188,77.537 221.5,73.5C 222.167,73.5 222.5,73.1667 222.5,72.5 Z"/></g>
<g><path style="opacity:1" fill="#5a55f4" d="M 185.5,60.5 C 188.295,62.7514 190.628,65.4181 192.5,68.5C 193.535,70.205 193.535,71.8716 192.5,73.5C 192.855,74.5223 193.522,75.189 194.5,75.5C 196.54,77.177 198.54,78.8437 200.5,80.5C 199.155,83.3053 200.155,85.1387 203.5,86C 201.187,86.662 198.854,87.162 196.5,87.5C 196.5,86.1667 195.833,85.5 194.5,85.5C 191.235,79.2987 187.235,73.6321 182.5,68.5C 184.764,69.2186 187.097,69.552 189.5,69.5C 188.623,66.2919 187.289,63.2919 185.5,60.5 Z"/></g>
<g><path style="opacity:1" fill="#4440a0" d="M 215.5,65.5 C 216.974,66.4363 217.974,67.7697 218.5,69.5C 217.469,71.9608 216.802,74.6275 216.5,77.5C 220.135,77.6556 220.468,78.8223 217.5,81C 219.707,83.7045 222.374,85.8712 225.5,87.5C 226.298,87.0431 226.631,86.3764 226.5,85.5C 227.249,86.531 227.915,87.6976 228.5,89C 224.777,90.0391 224.777,91.2058 228.5,92.5C 223.904,91.0446 219.237,89.7113 214.5,88.5C 213.538,93.2401 212.038,93.5734 210,89.5C 208.117,90.6526 207.284,92.3193 207.5,94.5C 206.833,93.8333 206.167,93.1667 205.5,92.5C 206.242,89.2136 208.075,87.8803 211,88.5C 211.839,87.3759 213.006,86.7092 214.5,86.5C 217.668,88.0571 221.001,88.8905 224.5,89C 219.118,86.3177 215.451,82.651 213.5,78C 214.737,74.9017 215.237,71.735 215,68.5C 213.359,71.8051 211.026,74.4718 208,76.5C 205.676,77.6932 203.51,77.6932 201.5,76.5C 202.873,76.6567 204.207,76.49 205.5,76C 204.263,75.7679 203.263,75.2679 202.5,74.5C 204.048,74.1788 204.715,73.1788 204.5,71.5C 206.29,72.0134 207.956,72.5134 209.5,73C 211.159,70.1563 213.159,67.6563 215.5,65.5 Z"/></g>
<g><path style="opacity:1" fill="#15152d" d="M 219.5,64.5 C 220.429,65.9361 221.595,67.2695 223,68.5C 227.252,76.9218 230.918,85.5885 234,94.5C 234.399,94.2716 234.565,93.9382 234.5,93.5C 236.213,94.6354 236.88,96.302 236.5,98.5C 235.732,97.7375 235.232,96.7375 235,95.5C 234.833,96.3333 234.667,97.1667 234.5,98C 235.548,102.789 236.215,107.622 236.5,112.5C 236.167,112.5 235.833,112.5 235.5,112.5C 235.011,106.196 233.678,100.196 231.5,94.5C 230.037,86.4239 227.037,79.0906 222.5,72.5C 220.957,70.0722 219.957,67.4056 219.5,64.5 Z"/></g>
<g><path style="opacity:1" fill="#5654de" d="M 181.5,82.5 C 182.833,82.5 184.167,82.5 185.5,82.5C 185.5,83.8333 185.5,85.1667 185.5,86.5C 181.56,87.234 180.227,85.9007 181.5,82.5 Z"/></g>
<g><path style="opacity:1" fill="#84a1ce" d="M 37.5,78.5 C 44.1152,79.8967 45.1152,83.0634 40.5,88C 38.1987,87.8128 37.8653,86.6461 39.5,84.5C 37.1507,83.4571 35.1507,82.1238 33.5,80.5C 35.4832,80.8432 36.8166,80.1765 37.5,78.5 Z"/></g>
<g><path style="opacity:1" fill="#5957cd" d="M 145.5,77.5 C 152.22,81.3808 157.886,86.5474 162.5,93C 164.345,94.128 166.345,94.628 168.5,94.5C 168.158,95.3382 167.492,95.6716 166.5,95.5C 164.708,95.634 163.042,95.3007 161.5,94.5C 158.029,91.8603 155.029,88.6936 152.5,85C 148.904,82.5394 145.237,80.3727 141.5,78.5C 142.568,77.5655 143.901,77.2322 145.5,77.5 Z"/></g>
<g><path style="opacity:1" fill="#4c5ab4" d="M 29.5,88.5 C 28.5946,89.9643 28.5946,91.2976 29.5,92.5C 28.1667,92.5 26.8333,92.5 25.5,92.5C 25.8333,90.5 26.1667,88.5 26.5,86.5C 28.1788,86.2852 29.1788,86.9519 29.5,88.5 Z"/></g>
<g><path style="opacity:1" fill="#4c48c3" d="M 64.5,83.5 C 66.0672,84.6808 66.9005,86.3474 67,88.5C 67.9025,89.7014 69.0692,90.5348 70.5,91C 67.6338,92.1979 65.8005,94.3646 65,97.5C 64.7266,95.8988 64.2266,94.3988 63.5,93C 57.1342,92.1337 57.1342,90.6337 63.5,88.5C 64.4519,86.9547 64.7852,85.288 64.5,83.5 Z"/></g>
<g><path style="opacity:1" fill="#615efc" d="M 130.5,79.5 C 138.03,78.8955 144.363,81.2289 149.5,86.5C 149.793,88.6891 150.293,90.6891 151,92.5C 145.568,92.5991 140.068,92.2657 134.5,91.5C 121.148,93.036 107.981,94.7027 95,96.5C 92.544,94.6787 89.7107,94.012 86.5,94.5C 86.6287,92.7839 86.962,91.1172 87.5,89.5C 89.4728,86.8605 91.8061,84.5272 94.5,82.5C 94.4606,83.5832 94.1272,84.5832 93.5,85.5C 94.3333,85.8333 95.1667,86.1667 96,86.5C 104.584,85.8531 113.084,84.8531 121.5,83.5C 124.089,83.5272 126.589,83.8606 129,84.5C 130.255,83.7894 131.421,82.956 132.5,82C 131.244,81.5831 130.577,80.7498 130.5,79.5 Z"/></g>
<g><path style="opacity:1" fill="#7993f2" d="M 29.5,88.5 C 30.9587,88.4326 32.2921,88.7659 33.5,89.5C 33.3059,91.9118 31.9726,92.9118 29.5,92.5C 28.5946,91.2976 28.5946,89.9643 29.5,88.5 Z"/></g>
<g><path style="opacity:1" fill="#050607" d="M 228.5,92.5 C 229.537,93.9303 230.204,95.597 230.5,97.5C 230.963,100.482 231.296,103.482 231.5,106.5C 232.4,116.802 232.733,127.135 232.5,137.5C 232.5,138.167 232.5,138.833 232.5,139.5C 231.269,144.662 230.269,149.996 229.5,155.5C 212.949,202.286 179.949,228.286 130.5,233.5C 126.833,233.5 123.167,233.5 119.5,233.5C 119.5,231.833 119.5,230.167 119.5,228.5C 119.5,227.833 119.5,227.167 119.5,226.5C 119.5,225.167 119.5,223.833 119.5,222.5C 119.5,220.5 119.5,218.5 119.5,216.5C 118.432,215.566 117.099,215.232 115.5,215.5C 115.5,218.167 115.5,220.833 115.5,223.5C 114.167,221.833 112.833,220.167 111.5,218.5C 110.275,217.063 109.275,215.396 108.5,213.5C 107.743,212.227 107.077,212.227 106.5,213.5C 105.539,215.265 105.205,217.265 105.5,219.5C 104.701,222.43 104.368,225.43 104.5,228.5C 105.833,228.5 107.167,228.5 108.5,228.5C 108.5,227.5 108.5,226.5 108.5,225.5C 109.167,224.833 109.833,224.167 110.5,223.5C 110.833,224.5 111.5,225.167 112.5,225.5C 113.833,227.5 115.167,229.5 116.5,231.5C 112.994,232.498 109.328,232.498 105.5,231.5C 71.5646,225.559 46.2313,207.559 29.5,177.5C 28.3576,174.741 27.0243,172.074 25.5,169.5C 25.8333,169.167 26.1667,168.833 26.5,168.5C 34.1414,169.679 41.8081,169.679 49.5,168.5C 52.3425,173.519 55.6759,178.186 59.5,182.5C 60.5,184.167 61.8333,185.5 63.5,186.5C 71.2728,195.564 80.9395,201.897 92.5,205.5C 93.5336,206.687 94.867,207.52 96.5,208C 101.589,208.957 106.589,210.123 111.5,211.5C 120.324,212.657 129.324,212.824 138.5,212C 141.522,211.902 144.189,211.068 146.5,209.5C 152.094,208.358 157.427,206.525 162.5,204C 165.239,202.974 167.572,201.474 169.5,199.5C 183.885,191.448 194.885,180.115 202.5,165.5C 205.296,160.449 207.63,155.116 209.5,149.5C 209.788,146.061 210.454,142.728 211.5,139.5C 212.477,136.713 212.81,133.713 212.5,130.5C 213.872,122.777 213.539,115.111 211.5,107.5C 210.634,103.04 209.301,98.7066 207.5,94.5C 207.284,92.3193 208.117,90.6526 210,89.5C 212.038,93.5734 213.538,93.2401 214.5,88.5C 219.237,89.7113 223.904,91.0446 228.5,92.5 Z"/></g>
<g><path style="opacity:1" fill="#7e9bcd" d="M 33.5,89.5 C 35.5,89.5 37.5,89.5 39.5,89.5C 39.7035,91.3904 39.0368,92.8904 37.5,94C 34.5806,94.4326 31.914,93.9326 29.5,92.5C 31.9726,92.9118 33.3059,91.9118 33.5,89.5 Z"/></g>
<g><path style="opacity:1" fill="#5a57f6" d="M 48.5,82.5 C 48.6816,84.5914 48.3482,86.5914 47.5,88.5C 49.38,88.9298 51.38,88.9298 53.5,88.5C 51.386,91.8386 50.0526,95.5053 49.5,99.5C 48.5,99.5 47.5,99.5 46.5,99.5C 47.1449,104.315 45.3115,105.981 41,104.5C 40.5172,103.552 40.3505,102.552 40.5,101.5C 41.9238,99.4855 42.5905,97.1522 42.5,94.5C 43.6146,89.9856 45.6146,85.9856 48.5,82.5 Z"/></g>
<g><path style="opacity:1" fill="#686bfc" d="M 149.5,86.5 C 152.527,88.8605 155.194,91.5271 157.5,94.5C 157.762,96.5638 158.929,97.8971 161,98.5C 161.688,99.3317 161.521,99.9984 160.5,100.5C 150.877,100.743 141.21,100.41 131.5,99.5C 129.564,101.978 127.564,101.978 125.5,99.5C 121.491,101.078 117.324,102.078 113,102.5C 112.667,102.167 112.333,101.833 112,101.5C 101.583,103.154 91.083,104.487 80.5,105.5C 80.448,103.097 80.7814,100.764 81.5,98.5C 82.7589,94.9754 84.7589,91.9754 87.5,89.5C 86.962,91.1172 86.6287,92.7839 86.5,94.5C 89.7107,94.012 92.544,94.6787 95,96.5C 107.981,94.7027 121.148,93.036 134.5,91.5C 140.068,92.2657 145.568,92.5991 151,92.5C 150.293,90.6891 149.793,88.6891 149.5,86.5 Z"/></g>
<g><path style="opacity:1" fill="#5a5cc0" d="M 194.5,85.5 C 195.833,85.5 196.5,86.1667 196.5,87.5C 196.577,88.7498 197.244,89.5831 198.5,90C 197.316,91.1455 197.316,92.3121 198.5,93.5C 196.176,94.3298 194.176,95.6631 192.5,97.5C 193.77,98.2876 194.77,99.2876 195.5,100.5C 195.5,102.5 195.5,104.5 195.5,106.5C 194.833,106.5 194.167,106.5 193.5,106.5C 194.592,101.877 192.925,100.044 188.5,101C 189.056,101.383 189.389,101.883 189.5,102.5C 187.952,102.179 187.285,101.179 187.5,99.5C 189.379,96.8852 191.712,94.7186 194.5,93C 194.167,92.8333 193.833,92.6667 193.5,92.5C 188.638,95.7629 183.638,98.7629 178.5,101.5C 177.167,100.833 175.833,100.167 174.5,99.5C 175.873,99.6567 177.207,99.49 178.5,99C 174.325,98.0089 170.325,96.8422 166.5,95.5C 167.492,95.6716 168.158,95.3382 168.5,94.5C 173.44,95.7061 178.44,96.2061 183.5,96C 187.297,94.0326 190.964,91.8659 194.5,89.5C 195.626,88.1916 195.626,86.8583 194.5,85.5 Z"/></g>
<g><path style="opacity:1" fill="#37367c" d="M 202.5,91.5 C 202.232,93.099 202.566,94.4324 203.5,95.5C 202.86,97.332 201.86,97.6653 200.5,96.5C 201.028,94.6639 201.694,92.9972 202.5,91.5 Z"/></g>
<g><path style="opacity:1" fill="#24244c" d="M 161.5,94.5 C 163.042,95.3007 164.708,95.634 166.5,95.5C 170.325,96.8422 174.325,98.0089 178.5,99C 177.207,99.49 175.873,99.6567 174.5,99.5C 169.175,98.9096 164.175,97.5763 159.5,95.5C 160.492,95.6716 161.158,95.3382 161.5,94.5 Z"/></g>
<g><path style="opacity:1" fill="#121118" d="M 198.5,93.5 C 199.301,95.0418 199.634,96.7085 199.5,98.5C 198.833,98.5 198.5,98.8333 198.5,99.5C 197.71,100.609 197.21,101.942 197,103.5C 196.768,102.263 196.268,101.263 195.5,100.5C 194.77,99.2876 193.77,98.2876 192.5,97.5C 194.176,95.6631 196.176,94.3298 198.5,93.5 Z"/></g>
<g><path style="opacity:1" fill="#6c82bd" d="M 29.5,95.5 C 32.1272,96.0916 34.7938,96.4249 37.5,96.5C 37.7678,98.099 37.4345,99.4324 36.5,100.5C 36.5,99.5 36.5,98.5 36.5,97.5C 34.8333,97.5 33.1667,97.5 31.5,97.5C 31.5,98.5 31.5,99.5 31.5,100.5C 31.5634,101.66 31.2301,102.994 30.5,104.5C 28.302,104.88 26.6354,104.213 25.5,102.5C 26.5832,102.539 27.5832,102.873 28.5,103.5C 30.1722,100.894 30.5055,98.2269 29.5,95.5 Z"/></g>
<g><path style="opacity:1" fill="#4040a1" d="M 42.5,94.5 C 42.5905,97.1522 41.9238,99.4855 40.5,101.5C 40.4095,98.8478 41.0762,96.5145 42.5,94.5 Z"/></g>
<g><path style="opacity:1" fill="#676af1" d="M 200.5,80.5 C 203.173,80.6845 203.84,81.8511 202.5,84C 203.428,84.3879 204.095,85.0546 204.5,86C 203.923,87.9001 203.256,89.7334 202.5,91.5C 201.694,92.9972 201.028,94.6639 200.5,96.5C 201.86,97.6653 202.86,97.332 203.5,95.5C 203.932,94.2905 204.599,93.2905 205.5,92.5C 206.167,93.1667 206.833,93.8333 207.5,94.5C 207.5,97.5 207.5,100.5 207.5,103.5C 206.022,103.762 204.689,103.429 203.5,102.5C 201.921,101.333 200.588,99.9998 199.5,98.5C 199.634,96.7085 199.301,95.0418 198.5,93.5C 197.316,92.3121 197.316,91.1455 198.5,90C 197.244,89.5831 196.577,88.7498 196.5,87.5C 198.854,87.162 201.187,86.662 203.5,86C 200.155,85.1387 199.155,83.3053 200.5,80.5 Z"/></g>
<g><path style="opacity:1" fill="#9dc1fa" d="M 36.5,100.5 C 34.8333,100.5 33.1667,100.5 31.5,100.5C 31.5,99.5 31.5,98.5 31.5,97.5C 33.1667,97.5 34.8333,97.5 36.5,97.5C 36.5,98.5 36.5,99.5 36.5,100.5 Z"/></g>
<g><path style="opacity:1" fill="#697eeb" d="M 29.5,95.5 C 30.5055,98.2269 30.1722,100.894 28.5,103.5C 27.5832,102.873 26.5832,102.539 25.5,102.5C 24.1201,102.038 23.4534,101.038 23.5,99.5C 24.0463,97.8653 24.3796,96.1986 24.5,94.5C 26.2161,94.6287 27.8828,94.962 29.5,95.5 Z"/></g>
<g><path style="opacity:1" fill="#5a5cbf" d="M 92.5,78.5 C 92.3284,79.4916 92.6618,80.1583 93.5,80.5C 88.8371,85.3308 84.3371,90.3308 80,95.5C 76.5765,102.648 73.0765,109.648 69.5,116.5C 69.5,115.833 69.5,115.167 69.5,114.5C 69.8769,112.742 70.5435,111.075 71.5,109.5C 71.1667,109.167 70.8333,108.833 70.5,108.5C 67.0834,111.255 63.4167,113.588 59.5,115.5C 58.8333,115.5 58.5,115.167 58.5,114.5C 63.7253,110.966 68.892,107.299 74,103.5C 75.5557,98.7202 77.8891,94.3869 81,90.5C 85.0647,86.6046 88.898,82.6046 92.5,78.5 Z"/></g>
<g><path style="opacity:1" fill="#6f77fc" d="M 157.5,94.5 C 158.167,94.8333 158.833,95.1667 159.5,95.5C 164.175,97.5763 169.175,98.9096 174.5,99.5C 175.833,100.167 177.167,100.833 178.5,101.5C 176.079,103.238 173.412,104.571 170.5,105.5C 168.585,105.216 166.919,105.549 165.5,106.5C 158.314,106.603 151.147,106.27 144,105.5C 133.989,106.836 123.989,108.17 114,109.5C 104.356,108.331 95.0224,109.331 86,112.5C 83.5639,112.454 81.0639,112.121 78.5,111.5C 77.7542,110.264 77.4208,108.93 77.5,107.5C 78.0592,104.057 79.3926,101.057 81.5,98.5C 80.7814,100.764 80.448,103.097 80.5,105.5C 91.083,104.487 101.583,103.154 112,101.5C 112.333,101.833 112.667,102.167 113,102.5C 117.324,102.078 121.491,101.078 125.5,99.5C 127.564,101.978 129.564,101.978 131.5,99.5C 141.21,100.41 150.877,100.743 160.5,100.5C 161.521,99.9984 161.688,99.3317 161,98.5C 158.929,97.8971 157.762,96.5638 157.5,94.5 Z"/></g>
<g><path style="opacity:1" fill="#2c2f4e" d="M 198.5,99.5 C 198.232,101.099 198.566,102.432 199.5,103.5C 198.167,104.833 196.833,106.167 195.5,107.5C 195.5,107.167 195.5,106.833 195.5,106.5C 195.5,104.5 195.5,102.5 195.5,100.5C 196.268,101.263 196.768,102.263 197,103.5C 197.21,101.942 197.71,100.609 198.5,99.5 Z"/></g>
<g><path style="opacity:1" fill="#747ffd" d="M 165.5,106.5 C 159.197,110.333 152.364,111.333 145,109.5C 138.168,110.599 131.335,111.599 124.5,112.5C 123.707,112.069 122.873,111.735 122,111.5C 106.9,113.527 91.7336,114.86 76.5,115.5C 76.5,113.167 76.5,110.833 76.5,108.5C 76.5,107.833 76.8333,107.5 77.5,107.5C 77.4208,108.93 77.7542,110.264 78.5,111.5C 81.0639,112.121 83.5639,112.454 86,112.5C 95.0224,109.331 104.356,108.331 114,109.5C 123.989,108.17 133.989,106.836 144,105.5C 151.147,106.27 158.314,106.603 165.5,106.5 Z"/></g>
<g><path style="opacity:1" fill="#737ef1" d="M 207.5,94.5 C 209.301,98.7066 210.634,103.04 211.5,107.5C 211.5,108.833 211.5,110.167 211.5,111.5C 210.596,112.209 210.263,113.209 210.5,114.5C 208.833,114.5 207.167,114.5 205.5,114.5C 205.737,113.209 205.404,112.209 204.5,111.5C 204.094,108.169 202.76,105.169 200.5,102.5C 199.893,102.624 199.56,102.957 199.5,103.5C 198.566,102.432 198.232,101.099 198.5,99.5C 198.5,98.8333 198.833,98.5 199.5,98.5C 200.588,99.9998 201.921,101.333 203.5,102.5C 204.689,103.429 206.022,103.762 207.5,103.5C 207.5,100.5 207.5,97.5 207.5,94.5 Z"/></g>
<g><path style="opacity:1" fill="#5d6eee" d="M 22.5,108.5 C 23.5,108.5 24.5,108.5 25.5,108.5C 25.5,110.833 25.5,113.167 25.5,115.5C 23.8333,115.5 22.1667,115.5 20.5,115.5C 20.3379,113.473 20.5045,111.473 21,109.5C 21.3826,108.944 21.8826,108.611 22.5,108.5 Z"/></g>
<g><path style="opacity:1" fill="#8eade8" d="M 30.5,104.5 C 32.6648,104.116 34.3315,104.783 35.5,106.5C 33.4544,108.196 31.1211,109.529 28.5,110.5C 28.6236,111.107 28.9569,111.44 29.5,111.5C 30.209,112.404 31.209,112.737 32.5,112.5C 32.5,113.5 32.5,114.5 32.5,115.5C 31.1667,115.5 29.8333,115.5 28.5,115.5C 27.8333,115.5 27.1667,115.5 26.5,115.5C 26.9521,111.949 27.9521,108.615 29.5,105.5C 30.1667,105.5 30.5,105.167 30.5,104.5 Z"/></g>
<g><path style="opacity:1" fill="#7681f9" d="M 187.5,99.5 C 187.285,101.179 187.952,102.179 189.5,102.5C 190.833,105.5 190.833,108.5 189.5,111.5C 183.885,112.573 178.218,112.74 172.5,112C 174.373,110.296 176.04,108.463 177.5,106.5C 180.275,103.395 183.608,101.062 187.5,99.5 Z"/></g>
<g><path style="opacity:1" fill="#666cc4" d="M 231.5,94.5 C 233.678,100.196 235.011,106.196 235.5,112.5C 235.5,113.833 235.5,115.167 235.5,116.5C 234.833,117.167 234.167,117.833 233.5,118.5C 233.917,114.183 233.25,110.183 231.5,106.5C 231.296,103.482 230.963,100.482 230.5,97.5C 231.404,96.791 231.737,95.791 231.5,94.5 Z"/></g>
<g><path style="opacity:1" fill="#3e3f82" d="M 13.5,98.5 C 13.2155,100.415 13.5489,102.081 14.5,103.5C 13.5103,107.772 12.8437,112.106 12.5,116.5C 12.5,117.833 12.5,119.167 12.5,120.5C 11.8333,119.167 11.1667,117.833 10.5,116.5C 10.7708,110.25 11.7708,104.25 13.5,98.5 Z"/></g>
<g><path style="opacity:1" fill="#343765" d="M 53.5,107.5 C 55.0481,107.821 55.7148,108.821 55.5,110.5C 52.7524,110.598 52.0857,109.598 53.5,107.5 Z"/></g>
<g><path style="opacity:1" fill="#6d85df" d="M 29.5,105.5 C 27.9521,108.615 26.9521,111.949 26.5,115.5C 26.1667,115.5 25.8333,115.5 25.5,115.5C 25.5,113.167 25.5,110.833 25.5,108.5C 24.5,108.5 23.5,108.5 22.5,108.5C 24.5093,106.935 26.8427,105.935 29.5,105.5 Z"/></g>
<g><path style="opacity:1" fill="#5e61c7" d="M 16.5,101.5 C 16.2155,103.415 16.5489,105.081 17.5,106.5C 16.9216,109.28 16.2549,111.947 15.5,114.5C 15.1667,114.5 14.8333,114.5 14.5,114.5C 14.4379,109.924 15.1045,105.591 16.5,101.5 Z"/></g>
<g><path style="opacity:1" fill="#727af7" d="M 49.5,99.5 C 47.7797,105.437 46.4464,111.437 45.5,117.5C 44.2555,119.663 43.2555,121.997 42.5,124.5C 40.8762,124.64 39.7096,123.973 39,122.5C 38.5034,120.19 38.3367,117.857 38.5,115.5C 38.5,112.833 38.5,110.167 38.5,107.5C 38.8751,105.302 39.5418,103.302 40.5,101.5C 40.3505,102.552 40.5172,103.552 41,104.5C 45.3115,105.981 47.1449,104.315 46.5,99.5C 47.5,99.5 48.5,99.5 49.5,99.5 Z"/></g>
<g><path style="opacity:1" fill="#7d90f8" d="M 177.5,106.5 C 176.04,108.463 174.373,110.296 172.5,112C 178.218,112.74 183.885,112.573 189.5,111.5C 189.737,112.791 189.404,113.791 188.5,114.5C 186.957,116.396 185.291,118.229 183.5,120C 175.169,120.611 166.836,121.111 158.5,121.5C 158.5,120.5 158.5,119.5 158.5,118.5C 164.693,114.239 171.026,110.239 177.5,106.5 Z"/></g>
<g><path style="opacity:1" fill="#5a6d80" d="M 29.5,111.5 C 30.8333,111.5 32.1667,111.5 33.5,111.5C 33.5,113.167 33.5,114.833 33.5,116.5C 31.5853,116.784 29.9187,116.451 28.5,115.5C 29.8333,115.5 31.1667,115.5 32.5,115.5C 32.5,114.5 32.5,113.5 32.5,112.5C 31.209,112.737 30.209,112.404 29.5,111.5 Z"/></g>
<g><path style="opacity:1" fill="#7b89fd" d="M 170.5,105.5 C 167.451,107.863 164.118,109.863 160.5,111.5C 155.215,112.235 149.882,112.735 144.5,113C 146.246,113.471 147.913,114.138 149.5,115C 144.676,115.114 140.01,115.947 135.5,117.5C 132.409,116.935 129.243,117.269 126,118.5C 125,118.167 124,117.833 123,117.5C 115.18,118.121 107.347,118.788 99.5,119.5C 99.2907,120.086 98.9574,120.586 98.5,121C 89.8137,121.326 81.147,121.826 72.5,122.5C 72.5,121.167 72.5,119.833 72.5,118.5C 73.3143,114.884 74.6477,111.551 76.5,108.5C 76.5,110.833 76.5,113.167 76.5,115.5C 91.7336,114.86 106.9,113.527 122,111.5C 122.873,111.735 123.707,112.069 124.5,112.5C 131.335,111.599 138.168,110.599 145,109.5C 152.364,111.333 159.197,110.333 165.5,106.5C 166.919,105.549 168.585,105.216 170.5,105.5 Z"/></g>
<g><path style="opacity:1" fill="#1f222d" d="M 193.5,106.5 C 192.348,111.659 190.681,116.659 188.5,121.5C 186.745,124.485 184.412,126.985 181.5,129C 177.107,130.956 172.774,132.789 168.5,134.5C 163.424,136.053 159.257,139.053 156,143.5C 154.589,145.65 153.755,147.984 153.5,150.5C 152.671,158.323 152.171,166.323 152,174.5C 151.271,164.473 151.437,154.473 152.5,144.5C 153.674,143.486 154.34,142.153 154.5,140.5C 156.167,139.5 157.5,138.167 158.5,136.5C 164.253,132.747 170.586,130.247 177.5,129C 179.66,128.004 181.327,126.504 182.5,124.5C 185.521,121.794 187.521,118.461 188.5,114.5C 189.404,113.791 189.737,112.791 189.5,111.5C 190.833,108.5 190.833,105.5 189.5,102.5C 189.389,101.883 189.056,101.383 188.5,101C 192.925,100.044 194.592,101.877 193.5,106.5 Z"/></g>
<g><path style="opacity:1" fill="#859afc" d="M 204.5,111.5 C 205.404,112.209 205.737,113.209 205.5,114.5C 207.167,114.5 208.833,114.5 210.5,114.5C 210.263,113.209 210.596,112.209 211.5,111.5C 211.5,112.833 211.5,114.167 211.5,115.5C 211.296,118.518 210.963,121.518 210.5,124.5C 209.5,124.5 208.5,124.5 207.5,124.5C 207.346,122.03 206.346,120.03 204.5,118.5C 204.5,116.167 204.5,113.833 204.5,111.5 Z"/></g>
<g><path style="opacity:1" fill="#7686cf" d="M 193.5,106.5 C 194.167,106.5 194.833,106.5 195.5,106.5C 195.5,106.833 195.5,107.167 195.5,107.5C 194.465,113.28 192.465,118.613 189.5,123.5C 188.662,123.158 188.328,122.492 188.5,121.5C 190.681,116.659 192.348,111.659 193.5,106.5 Z"/></g>
<g><path style="opacity:1" fill="#474c83" d="M 18.5,104.5 C 16.9114,114.092 16.2448,123.758 16.5,133.5C 15.5098,127.355 15.1765,121.022 15.5,114.5C 16.2549,111.947 16.9216,109.28 17.5,106.5C 17.3284,105.508 17.6618,104.842 18.5,104.5 Z"/></g>
<g><path style="opacity:1" fill="#2e3258" d="M 38.5,107.5 C 38.5,110.167 38.5,112.833 38.5,115.5C 37.5119,120.64 37.1786,125.974 37.5,131.5C 37.5,132.167 37.1667,132.5 36.5,132.5C 36.1019,123.932 36.7686,115.599 38.5,107.5 Z"/></g>
<g><path style="opacity:1" fill="#424a74" d="M 211.5,107.5 C 213.539,115.111 213.872,122.777 212.5,130.5C 212.821,125.305 212.487,120.305 211.5,115.5C 211.5,114.167 211.5,112.833 211.5,111.5C 211.5,110.167 211.5,108.833 211.5,107.5 Z"/></g>
<g><path style="opacity:1" fill="#202337" d="M 231.5,106.5 C 233.25,110.183 233.917,114.183 233.5,118.5C 233.823,125.022 233.49,131.355 232.5,137.5C 232.733,127.135 232.4,116.802 231.5,106.5 Z"/></g>
<g><path style="opacity:1" fill="#7288b7" d="M 188.5,121.5 C 188.328,122.492 188.662,123.158 189.5,123.5C 188.772,125.735 187.439,127.568 185.5,129C 181.852,131.658 177.852,133.491 173.5,134.5C 172.167,134.833 170.833,135.167 169.5,135.5C 169.5,134.833 169.167,134.5 168.5,134.5C 172.774,132.789 177.107,130.956 181.5,129C 184.412,126.985 186.745,124.485 188.5,121.5 Z"/></g>
<g><path style="opacity:1" fill="#89a1f8" d="M 188.5,114.5 C 187.521,118.461 185.521,121.794 182.5,124.5C 179.988,124.423 177.988,125.423 176.5,127.5C 169.305,129.707 161.972,130.541 154.5,130C 153.737,129.056 152.737,128.556 151.5,128.5C 150.5,129.167 149.5,129.833 148.5,130.5C 146.484,129.822 144.484,129.156 142.5,128.5C 147.797,125.181 153.131,121.847 158.5,118.5C 158.5,119.5 158.5,120.5 158.5,121.5C 166.836,121.111 175.169,120.611 183.5,120C 185.291,118.229 186.957,116.396 188.5,114.5 Z"/></g>
<g><path style="opacity:1" fill="#879fe9" d="M 211.5,115.5 C 212.487,120.305 212.821,125.305 212.5,130.5C 212.81,133.713 212.477,136.713 211.5,139.5C 211.665,136.482 211.498,133.482 211,130.5C 210.705,135.017 209.038,135.35 206,131.5C 206.03,134.361 205.197,136.695 203.5,138.5C 204.331,131.869 204.664,125.202 204.5,118.5C 206.346,120.03 207.346,122.03 207.5,124.5C 208.5,124.5 209.5,124.5 210.5,124.5C 210.963,121.518 211.296,118.518 211.5,115.5 Z"/></g>
<g><path style="opacity:1" fill="#7584db" d="M 58.5,114.5 C 58.5,115.167 58.8333,115.5 59.5,115.5C 53.1667,120.833 46.8333,126.167 40.5,131.5C 39.5,131.5 38.5,131.5 37.5,131.5C 37.1786,125.974 37.5119,120.64 38.5,115.5C 38.3367,117.857 38.5034,120.19 39,122.5C 39.7096,123.973 40.8762,124.64 42.5,124.5C 43.2555,121.997 44.2555,119.663 45.5,117.5C 45.2011,119.604 45.5344,121.604 46.5,123.5C 50.5297,120.491 54.5297,117.491 58.5,114.5 Z"/></g>
<g><path style="opacity:1" fill="#141415" d="M 204.5,111.5 C 204.5,113.833 204.5,116.167 204.5,118.5C 204.664,125.202 204.331,131.869 203.5,138.5C 203.326,140.861 202.993,143.194 202.5,145.5C 202.167,145.5 201.833,145.5 201.5,145.5C 200.099,145.029 198.766,144.362 197.5,143.5C 197.61,141.902 197.943,140.235 198.5,138.5C 196.527,137.669 194.527,137.502 192.5,138C 193.305,135.866 192.638,134.033 190.5,132.5C 189.417,136.062 187.417,138.728 184.5,140.5C 183.833,140.5 183.5,140.833 183.5,141.5C 182.861,142.097 182.528,142.93 182.5,144C 183.245,145.585 183.745,147.085 184,148.5C 183.333,149.833 182.667,149.833 182,148.5C 180.667,150.5 179,152.167 177,153.5C 176.667,151.5 176.333,149.5 176,147.5C 175.617,146.944 175.117,146.611 174.5,146.5C 174.833,144.5 175.167,142.5 175.5,140.5C 176.552,140.649 177.552,140.483 178.5,140C 177.022,137.943 175.022,136.61 172.5,136C 173.056,135.617 173.389,135.117 173.5,134.5C 177.852,133.491 181.852,131.658 185.5,129C 187.439,127.568 188.772,125.735 189.5,123.5C 192.465,118.613 194.465,113.28 195.5,107.5C 196.833,106.167 198.167,104.833 199.5,103.5C 199.56,102.957 199.893,102.624 200.5,102.5C 202.76,105.169 204.094,108.169 204.5,111.5 Z"/></g>
<g><path style="opacity:1" fill="#556081" d="M 195.5,126.5 C 198.957,126.667 199.29,127.667 196.5,129.5C 195.614,128.675 195.281,127.675 195.5,126.5 Z"/></g>
<g><path style="opacity:1" fill="#111112" d="M 187.5,99.5 C 183.608,101.062 180.275,103.395 177.5,106.5C 171.026,110.239 164.693,114.239 158.5,118.5C 153.131,121.847 147.797,125.181 142.5,128.5C 136.151,131.008 130.151,134.008 124.5,137.5C 116.123,141.579 107.789,145.579 99.5,149.5C 88.46,153.667 77.46,157.667 66.5,161.5C 61.9326,163.02 57.2659,164.354 52.5,165.5C 43.5133,166.385 34.5133,166.552 25.5,166C 20.0343,162.621 19.0343,158.121 22.5,152.5C 27.3465,144.448 33.3465,137.448 40.5,131.5C 46.8333,126.167 53.1667,120.833 59.5,115.5C 63.4167,113.588 67.0834,111.255 70.5,108.5C 70.8333,108.833 71.1667,109.167 71.5,109.5C 70.5435,111.075 69.8769,112.742 69.5,114.5C 65.663,120.17 62.3296,126.17 59.5,132.5C 58.623,135.258 57.4563,137.924 56,140.5C 53.6255,142.539 51.6255,144.872 50,147.5C 48.7426,152.578 50.7426,154.911 56,154.5C 59.1156,154.511 61.949,153.845 64.5,152.5C 79.238,148.477 93.5713,143.477 107.5,137.5C 110.683,135.99 114.016,134.657 117.5,133.5C 119.967,133.245 121.967,132.245 123.5,130.5C 127.39,128.789 131.057,126.789 134.5,124.5C 137.754,124.206 140.421,122.873 142.5,120.5C 148.801,117.956 154.801,114.956 160.5,111.5C 164.118,109.863 167.451,107.863 170.5,105.5C 173.412,104.571 176.079,103.238 178.5,101.5C 183.638,98.7629 188.638,95.7629 193.5,92.5C 193.833,92.6667 194.167,92.8333 194.5,93C 191.712,94.7186 189.379,96.8852 187.5,99.5 Z"/></g>
<g><path style="opacity:1" fill="#869efb" d="M 142.5,120.5 C 140.421,122.873 137.754,124.206 134.5,124.5C 127.738,126.568 120.905,128.568 114,130.5C 113.667,130.167 113.333,129.833 113,129.5C 105.035,131.272 97.0352,132.939 89,134.5C 86.9022,134.552 84.7356,134.218 82.5,133.5C 76.8398,134.92 71.1732,135.253 65.5,134.5C 66.3482,132.591 66.6816,130.591 66.5,128.5C 66.427,126.973 67.0937,125.973 68.5,125.5C 68.5,127.167 68.5,128.833 68.5,130.5C 73.3726,130.12 78.2059,129.453 83,128.5C 83.772,128.645 84.4387,128.978 85,129.5C 87.4607,128.782 89.9607,128.115 92.5,127.5C 93.1667,127.833 93.8333,128.167 94.5,128.5C 101.385,127.316 108.218,125.982 115,124.5C 115.772,124.645 116.439,124.978 117,125.5C 125.668,124.714 134.168,123.047 142.5,120.5 Z"/></g>
<g><path style="opacity:1" fill="#6a78bb" d="M 69.5,114.5 C 69.5,115.167 69.5,115.833 69.5,116.5C 69.5086,118.308 69.0086,119.975 68,121.5C 65.585,125.621 63.085,129.621 60.5,133.5C 60.5,132.833 60.1667,132.5 59.5,132.5C 62.3296,126.17 65.663,120.17 69.5,114.5 Z"/></g>
<g><path style="opacity:1" fill="#7f95fc" d="M 160.5,111.5 C 154.801,114.956 148.801,117.956 142.5,120.5C 134.168,123.047 125.668,124.714 117,125.5C 116.439,124.978 115.772,124.645 115,124.5C 108.218,125.982 101.385,127.316 94.5,128.5C 93.8333,128.167 93.1667,127.833 92.5,127.5C 89.9607,128.115 87.4607,128.782 85,129.5C 84.4387,128.978 83.772,128.645 83,128.5C 78.2059,129.453 73.3726,130.12 68.5,130.5C 68.5,128.833 68.5,127.167 68.5,125.5C 69.0787,122.669 70.412,120.336 72.5,118.5C 72.5,119.833 72.5,121.167 72.5,122.5C 81.147,121.826 89.8137,121.326 98.5,121C 98.9574,120.586 99.2907,120.086 99.5,119.5C 107.347,118.788 115.18,118.121 123,117.5C 124,117.833 125,118.167 126,118.5C 129.243,117.269 132.409,116.935 135.5,117.5C 140.01,115.947 144.676,115.114 149.5,115C 147.913,114.138 146.246,113.471 144.5,113C 149.882,112.735 155.215,112.235 160.5,111.5 Z"/></g>
<g><path style="opacity:1" fill="#4b5181" d="M 236.5,98.5 C 239.407,110.488 240.074,122.488 238.5,134.5C 237.833,135.5 237.167,136.5 236.5,137.5C 237.72,129.018 237.72,120.685 236.5,112.5C 236.215,107.622 235.548,102.789 234.5,98C 234.667,97.1667 234.833,96.3333 235,95.5C 235.232,96.7375 235.732,97.7375 236.5,98.5 Z"/></g>
<g><path style="opacity:1" fill="#8999df" d="M 14.5,114.5 C 14.8333,114.5 15.1667,114.5 15.5,114.5C 15.1765,121.022 15.5098,127.355 16.5,133.5C 16.5,133.833 16.5,134.167 16.5,134.5C 16.3713,136.216 16.038,137.883 15.5,139.5C 14.5318,137.393 14.1984,135.059 14.5,132.5C 14.5,126.5 14.5,120.5 14.5,114.5 Z"/></g>
<g><path style="opacity:1" fill="#3f4a65" d="M 123.5,130.5 C 121.967,132.245 119.967,133.245 117.5,133.5C 119.033,131.755 121.033,130.755 123.5,130.5 Z"/></g>
<g><path style="opacity:1" fill="#8898d5" d="M 235.5,116.5 C 235.599,125.521 235.266,134.521 234.5,143.5C 233.883,143.611 233.383,143.944 233,144.5C 232.506,142.866 232.34,141.199 232.5,139.5C 232.5,138.833 232.5,138.167 232.5,137.5C 233.49,131.355 233.823,125.022 233.5,118.5C 234.167,117.833 234.833,117.167 235.5,116.5 Z"/></g>
<g><path style="opacity:1" fill="#8da8fb" d="M 134.5,124.5 C 131.057,126.789 127.39,128.789 123.5,130.5C 121.033,130.755 119.033,131.755 117.5,133.5C 114.016,134.657 110.683,135.99 107.5,137.5C 92.2313,139.121 77.2313,140.787 62.5,142.5C 62.9926,140.194 63.3259,137.861 63.5,135.5C 63.7073,132.759 64.7073,130.426 66.5,128.5C 66.6816,130.591 66.3482,132.591 65.5,134.5C 71.1732,135.253 76.8398,134.92 82.5,133.5C 84.7356,134.218 86.9022,134.552 89,134.5C 97.0352,132.939 105.035,131.272 113,129.5C 113.333,129.833 113.667,130.167 114,130.5C 120.905,128.568 127.738,126.568 134.5,124.5 Z"/></g>
<g><path style="opacity:1" fill="#5f6b8d" d="M 10.5,116.5 C 11.1667,117.833 11.8333,119.167 12.5,120.5C 12.3845,132.294 13.5511,143.96 16,155.5C 16.9344,156.858 17.7677,158.192 18.5,159.5C 17.7659,160.708 17.4326,162.041 17.5,163.5C 11.6646,148.513 9.33125,132.846 10.5,116.5 Z"/></g>
<g><path style="opacity:1" fill="#91adf8" d="M 182.5,124.5 C 181.327,126.504 179.66,128.004 177.5,129C 170.586,130.247 164.253,132.747 158.5,136.5C 148.619,137.779 138.786,139.112 129,140.5C 128.517,139.552 128.351,138.552 128.5,137.5C 127.167,137.5 125.833,137.5 124.5,137.5C 130.151,134.008 136.151,131.008 142.5,128.5C 144.484,129.156 146.484,129.822 148.5,130.5C 149.5,129.833 150.5,129.167 151.5,128.5C 152.737,128.556 153.737,129.056 154.5,130C 161.972,130.541 169.305,129.707 176.5,127.5C 177.988,125.423 179.988,124.423 182.5,124.5 Z"/></g>
<g><path style="opacity:1" fill="#1f2021" d="M 201.5,145.5 C 199.059,153.051 196.059,160.384 192.5,167.5C 190.833,169.5 189.167,171.5 187.5,173.5C 187.631,172.761 187.464,172.094 187,171.5C 184.693,172.39 183.527,171.39 183.5,168.5C 181.952,168.179 181.285,167.179 181.5,165.5C 182.873,165.657 184.207,165.49 185.5,165C 183.854,163.445 183.521,161.779 184.5,160C 183.207,159.51 181.873,159.343 180.5,159.5C 181.952,158.698 183.618,158.198 185.5,158C 182.426,157.042 179.426,155.875 176.5,154.5C 175.619,151.87 174.952,149.203 174.5,146.5C 175.117,146.611 175.617,146.944 176,147.5C 176.333,149.5 176.667,151.5 177,153.5C 179,152.167 180.667,150.5 182,148.5C 182.667,149.833 183.333,149.833 184,148.5C 183.745,147.085 183.245,145.585 182.5,144C 182.528,142.93 182.861,142.097 183.5,141.5C 183.5,142.833 183.5,144.167 183.5,145.5C 185.199,145.66 186.866,145.494 188.5,145C 190.009,141.331 188.676,139.831 184.5,140.5C 187.417,138.728 189.417,136.062 190.5,132.5C 192.638,134.033 193.305,135.866 192.5,138C 194.527,137.502 196.527,137.669 198.5,138.5C 197.943,140.235 197.61,141.902 197.5,143.5C 198.766,144.362 200.099,145.029 201.5,145.5 Z"/></g>
<g><path style="opacity:1" fill="#171a20" d="M 12.5,116.5 C 13.1667,121.833 13.8333,127.167 14.5,132.5C 14.1984,135.059 14.5318,137.393 15.5,139.5C 15.3359,142.187 15.5026,144.854 16,147.5C 16.2784,148.416 16.7784,149.082 17.5,149.5C 17.6741,151.861 18.0074,154.194 18.5,156.5C 18.5,157.5 18.5,158.5 18.5,159.5C 17.7677,158.192 16.9344,156.858 16,155.5C 13.5511,143.96 12.3845,132.294 12.5,120.5C 12.5,119.167 12.5,117.833 12.5,116.5 Z"/></g>
<g><path style="opacity:1" fill="#798db7" d="M 37.5,131.5 C 38.5,131.5 39.5,131.5 40.5,131.5C 33.3465,137.448 27.3465,144.448 22.5,152.5C 22.6716,151.508 22.3382,150.842 21.5,150.5C 22.412,148.405 23.5787,146.405 25,144.5C 28.6187,140.234 32.4521,136.234 36.5,132.5C 37.1667,132.5 37.5,132.167 37.5,131.5 Z"/></g>
<g><path style="opacity:1" fill="#7c8fb5" d="M 16.5,134.5 C 17.5206,138.98 18.1873,143.647 18.5,148.5C 17.8333,148.5 17.5,148.833 17.5,149.5C 16.7784,149.082 16.2784,148.416 16,147.5C 15.5026,144.854 15.3359,142.187 15.5,139.5C 16.038,137.883 16.3713,136.216 16.5,134.5 Z"/></g>
<g><path style="opacity:1" fill="#91b2e6" d="M 184.5,140.5 C 188.676,139.831 190.009,141.331 188.5,145C 186.866,145.494 185.199,145.66 183.5,145.5C 183.5,144.167 183.5,142.833 183.5,141.5C 183.5,140.833 183.833,140.5 184.5,140.5 Z"/></g>
<g><path style="opacity:1" fill="#99baf8" d="M 158.5,136.5 C 157.5,138.167 156.167,139.5 154.5,140.5C 152.018,141.663 150.684,143.663 150.5,146.5C 148.076,146.192 145.743,146.526 143.5,147.5C 144.167,147.833 144.833,148.167 145.5,148.5C 143.716,149.606 141.882,149.606 140,148.5C 127.467,149.292 114.967,150.126 102.5,151C 102.833,150.667 103.167,150.333 103.5,150C 102.207,149.51 100.873,149.343 99.5,149.5C 107.789,145.579 116.123,141.579 124.5,137.5C 125.833,137.5 127.167,137.5 128.5,137.5C 128.351,138.552 128.517,139.552 129,140.5C 138.786,139.112 148.619,137.779 158.5,136.5 Z"/></g>
<g><path style="opacity:1" fill="#93b0d3" d="M 168.5,134.5 C 169.167,134.5 169.5,134.833 169.5,135.5C 162.426,138.743 157.593,144.076 155,151.5C 154.503,154.146 154.336,156.813 154.5,159.5C 154.5,164.5 154.5,169.5 154.5,174.5C 154.167,174.5 153.833,174.5 153.5,174.5C 153.5,166.5 153.5,158.5 153.5,150.5C 153.755,147.984 154.589,145.65 156,143.5C 159.257,139.053 163.424,136.053 168.5,134.5 Z"/></g>
<g><path style="opacity:1" fill="#94b6f9" d="M 63.5,135.5 C 63.3259,137.861 62.9926,140.194 62.5,142.5C 77.2313,140.787 92.2313,139.121 107.5,137.5C 93.5713,143.477 79.238,148.477 64.5,152.5C 62.5853,152.784 60.9187,152.451 59.5,151.5C 58.7414,145.49 60.0748,140.157 63.5,135.5 Z"/></g>
<g><path style="opacity:1" fill="#616d8e" d="M 238.5,134.5 C 238.624,140.069 237.957,145.402 236.5,150.5C 235.71,151.609 235.21,152.942 235,154.5C 235.056,148.82 235.556,143.154 236.5,137.5C 237.167,136.5 237.833,135.5 238.5,134.5 Z"/></g>
<g><path style="opacity:1" fill="#7e97c1" d="M 59.5,132.5 C 60.1667,132.5 60.5,132.833 60.5,133.5C 59.1878,138.084 58.1878,142.751 57.5,147.5C 57.5854,149.333 58.2521,150.666 59.5,151.5C 60.9187,152.451 62.5853,152.784 64.5,152.5C 61.949,153.845 59.1156,154.511 56,154.5C 50.7426,154.911 48.7426,152.578 50,147.5C 51.6255,144.872 53.6255,142.539 56,140.5C 57.4563,137.924 58.623,135.258 59.5,132.5 Z"/></g>
<g><path style="opacity:1" fill="#171b22" d="M 54.5,144.5 C 54.8652,146.588 54.8652,148.921 54.5,151.5C 53.5,151.5 52.5,151.5 51.5,151.5C 51.1496,148.547 52.1496,146.213 54.5,144.5 Z"/></g>
<g><path style="opacity:1" fill="#9fbefa" d="M 211.5,139.5 C 210.454,142.728 209.788,146.061 209.5,149.5C 207.528,151.319 205.195,152.319 202.5,152.5C 202.5,150.167 202.5,147.833 202.5,145.5C 202.993,143.194 203.326,140.861 203.5,138.5C 205.197,136.695 206.03,134.361 206,131.5C 209.038,135.35 210.705,135.017 211,130.5C 211.498,133.482 211.665,136.482 211.5,139.5 Z"/></g>
<g><path style="opacity:1" fill="#8396b4" d="M 232.5,139.5 C 232.34,141.199 232.506,142.866 233,144.5C 233.383,143.944 233.883,143.611 234.5,143.5C 233.658,148.102 232.324,152.435 230.5,156.5C 230.5,155.833 230.167,155.5 229.5,155.5C 230.269,149.996 231.269,144.662 232.5,139.5 Z"/></g>
<g><path style="opacity:1" fill="#a2c7f9" d="M 154.5,140.5 C 154.34,142.153 153.674,143.486 152.5,144.5C 150.96,146.838 150.294,149.505 150.5,152.5C 149.087,155.219 148.42,158.219 148.5,161.5C 140.848,162.374 133.182,162.541 125.5,162C 123.83,160.025 121.664,159.191 119,159.5C 114.556,160.816 110.056,161.816 105.5,162.5C 105.719,163.675 105.386,164.675 104.5,165.5C 103.167,164.5 101.833,163.5 100.5,162.5C 98.2927,164.029 95.7927,164.695 93,164.5C 87.194,163.57 81.3607,163.57 75.5,164.5C 72.8333,164.167 70.1667,163.833 67.5,163.5C 67.1373,162.817 66.8039,162.15 66.5,161.5C 77.46,157.667 88.46,153.667 99.5,149.5C 100.873,149.343 102.207,149.51 103.5,150C 103.167,150.333 102.833,150.667 102.5,151C 114.967,150.126 127.467,149.292 140,148.5C 141.882,149.606 143.716,149.606 145.5,148.5C 144.833,148.167 144.167,147.833 143.5,147.5C 145.743,146.526 148.076,146.192 150.5,146.5C 150.684,143.663 152.018,141.663 154.5,140.5 Z"/></g>
<g><path style="opacity:1" fill="#a1c2e6" d="M 174.5,146.5 C 174.952,149.203 175.619,151.87 176.5,154.5C 179.426,155.875 182.426,157.042 185.5,158C 183.618,158.198 181.952,158.698 180.5,159.5C 179.833,159.5 179.167,159.5 178.5,159.5C 177.85,159.804 177.183,160.137 176.5,160.5C 175.478,163.441 174.645,166.441 174,169.5C 174.086,165.953 172.92,162.953 170.5,160.5C 167.546,159.375 164.546,158.375 161.5,157.5C 164.833,156.5 168.166,155.5 171.5,154.5C 172.753,151.816 173.753,149.15 174.5,146.5 Z"/></g>
<g><path style="opacity:1" fill="#728497" d="M 18.5,156.5 C 19.2549,159.053 19.9216,161.72 20.5,164.5C 19.9569,164.56 19.6236,164.893 19.5,165.5C 22.5719,172.643 25.9053,179.643 29.5,186.5C 23.6684,179.838 19.6684,172.172 17.5,163.5C 17.4326,162.041 17.7659,160.708 18.5,159.5C 18.5,158.5 18.5,157.5 18.5,156.5 Z"/></g>
<g><path style="opacity:1" fill="#202122" d="M 173.5,134.5 C 173.389,135.117 173.056,135.617 172.5,136C 175.022,136.61 177.022,137.943 178.5,140C 177.552,140.483 176.552,140.649 175.5,140.5C 175.167,142.5 174.833,144.5 174.5,146.5C 173.753,149.15 172.753,151.816 171.5,154.5C 168.166,155.5 164.833,156.5 161.5,157.5C 164.546,158.375 167.546,159.375 170.5,160.5C 172.92,162.953 174.086,165.953 174,169.5C 174.645,166.441 175.478,163.441 176.5,160.5C 177.183,160.137 177.85,159.804 178.5,159.5C 176.804,163.983 175.638,168.65 175,173.5C 173.933,174.191 172.766,174.691 171.5,175C 172.451,175.718 172.617,176.551 172,177.5C 169.335,178.795 168.002,180.795 168,183.5C 169.153,181.503 170.653,181.17 172.5,182.5C 171.653,183.845 170.487,184.845 169,185.5C 168.517,186.448 168.351,187.448 168.5,188.5C 166.058,188.646 165.391,187.813 166.5,186C 165.263,185.768 164.263,185.268 163.5,184.5C 166.084,183.952 167.084,182.285 166.5,179.5C 165.5,179.5 164.5,179.5 163.5,179.5C 164.6,178.442 165.934,177.608 167.5,177C 166.949,175.602 166.616,174.268 166.5,173C 168.108,172.342 169.275,172.842 170,174.5C 171.853,171.011 170.687,169.844 166.5,171C 165.432,175.069 162.932,177.903 159,179.5C 157.987,178.504 157.154,177.504 156.5,176.5C 158.137,174.525 159.804,172.525 161.5,170.5C 163.123,171.476 164.457,170.976 165.5,169C 164.289,167.887 164.289,166.72 165.5,165.5C 165.167,165.167 164.833,164.833 164.5,164.5C 163.167,165.5 161.833,166.5 160.5,167.5C 159.264,166.754 157.93,166.421 156.5,166.5C 156.665,163.482 156.498,160.482 156,157.5C 155.722,158.416 155.222,159.082 154.5,159.5C 154.336,156.813 154.503,154.146 155,151.5C 157.593,144.076 162.426,138.743 169.5,135.5C 170.833,135.167 172.167,134.833 173.5,134.5 Z"/></g>
<g><path style="opacity:1" fill="#778aa1" d="M 164.5,146.5 C 166.048,146.821 166.715,147.821 166.5,149.5C 163.752,149.598 163.086,148.598 164.5,146.5 Z"/></g>
<g><path style="opacity:1" fill="#6f8090" d="M 234.5,155.5 C 234.143,159.263 233.31,162.93 232,166.5C 229.884,170.339 228.05,174.339 226.5,178.5C 226.043,179.298 225.376,179.631 224.5,179.5C 227.655,171.355 230.988,163.355 234.5,155.5 Z"/></g>
<g><path style="opacity:1" fill="#afd4fc" d="M 150.5,152.5 C 150.5,157.167 150.5,161.833 150.5,166.5C 149.069,167.78 148.402,169.447 148.5,171.5C 142.497,172.611 136.663,172.611 131,171.5C 114.529,176.137 97.3621,178.137 79.5,177.5C 73.7805,174.619 69.1138,170.453 65.5,165C 64.5,164.333 63.5,164.333 62.5,165C 63.8228,165.816 64.4894,166.983 64.5,168.5C 64.1667,168.5 63.8333,168.5 63.5,168.5C 62.3734,167.878 61.3734,167.045 60.5,166C 59.365,165.251 58.365,165.417 57.5,166.5C 59.22,169.202 60.8866,171.868 62.5,174.5C 62.9617,176.757 63.9617,178.757 65.5,180.5C 64.8551,181.646 64.0217,182.646 63,183.5C 61.9887,182.663 60.8221,182.33 59.5,182.5C 55.6759,178.186 52.3425,173.519 49.5,168.5C 50.0998,167.1 51.0998,166.1 52.5,165.5C 57.2659,164.354 61.9326,163.02 66.5,161.5C 66.8039,162.15 67.1373,162.817 67.5,163.5C 70.1667,163.833 72.8333,164.167 75.5,164.5C 81.3607,163.57 87.194,163.57 93,164.5C 95.7927,164.695 98.2927,164.029 100.5,162.5C 101.833,163.5 103.167,164.5 104.5,165.5C 105.386,164.675 105.719,163.675 105.5,162.5C 110.056,161.816 114.556,160.816 119,159.5C 121.664,159.191 123.83,160.025 125.5,162C 133.182,162.541 140.848,162.374 148.5,161.5C 148.42,158.219 149.087,155.219 150.5,152.5 Z"/></g>
<g><path style="opacity:1" fill="#a9cbf2" d="M 201.5,145.5 C 201.833,145.5 202.167,145.5 202.5,145.5C 202.5,147.833 202.5,150.167 202.5,152.5C 205.195,152.319 207.528,151.319 209.5,149.5C 207.63,155.116 205.296,160.449 202.5,165.5C 200.492,166.992 198.325,168.325 196,169.5C 194.566,169.138 193.399,168.472 192.5,167.5C 196.059,160.384 199.059,153.051 201.5,145.5 Z"/></g>
<g><path style="opacity:1" fill="#8eabc0" d="M 18.5,148.5 C 19.3019,149.952 19.8019,151.618 20,153.5C 20.5133,152.473 21.0133,151.473 21.5,150.5C 22.3382,150.842 22.6716,151.508 22.5,152.5C 19.0343,158.121 20.0343,162.621 25.5,166C 34.5133,166.552 43.5133,166.385 52.5,165.5C 51.0998,166.1 50.0998,167.1 49.5,168.5C 41.8081,169.679 34.1414,169.679 26.5,168.5C 26.1667,168.833 25.8333,169.167 25.5,169.5C 27.0243,172.074 28.3576,174.741 29.5,177.5C 28.8333,177.5 28.5,177.833 28.5,178.5C 25.6554,174.002 22.9887,169.336 20.5,164.5C 19.9216,161.72 19.2549,159.053 18.5,156.5C 18.0074,154.194 17.6741,151.861 17.5,149.5C 17.5,148.833 17.8333,148.5 18.5,148.5 Z"/></g>
<g><path style="opacity:1" fill="#8ea8ba" d="M 183.5,168.5 C 183.639,166.663 184.306,166.33 185.5,167.5C 185.043,168.298 184.376,168.631 183.5,168.5 Z"/></g>
<g><path style="opacity:1" fill="#44505a" d="M 152.5,144.5 C 151.437,154.473 151.271,164.473 152,174.5C 152.171,166.323 152.671,158.323 153.5,150.5C 153.5,158.5 153.5,166.5 153.5,174.5C 152.976,176.306 152.309,177.972 151.5,179.5C 151.737,178.209 151.404,177.209 150.5,176.5C 150.5,173.167 150.5,169.833 150.5,166.5C 150.5,161.833 150.5,157.167 150.5,152.5C 150.294,149.505 150.96,146.838 152.5,144.5 Z"/></g>
<g><path style="opacity:1" fill="#252a2d" d="M 79.5,177.5 C 84.1522,181.831 89.4855,185.165 95.5,187.5C 108.897,194.346 123.23,197.179 138.5,196C 143.556,195.422 146.556,192.588 147.5,187.5C 148.648,183.911 149.315,180.244 149.5,176.5C 149.833,176.5 150.167,176.5 150.5,176.5C 151.404,177.209 151.737,178.209 151.5,179.5C 150.887,186.006 148.887,192.006 145.5,197.5C 113.902,200.744 86.9015,191.078 64.5,168.5C 64.4894,166.983 63.8228,165.816 62.5,165C 63.5,164.333 64.5,164.333 65.5,165C 69.1138,170.453 73.7805,174.619 79.5,177.5 Z"/></g>
<g><path style="opacity:1" fill="#bce0fc" d="M 150.5,166.5 C 150.5,169.833 150.5,173.167 150.5,176.5C 150.167,176.5 149.833,176.5 149.5,176.5C 147.446,179.008 146.446,182.008 146.5,185.5C 144.354,185.122 142.187,184.788 140,184.5C 130.274,186.945 120.44,188.945 110.5,190.5C 105.378,189.609 100.378,188.609 95.5,187.5C 89.4855,185.165 84.1522,181.831 79.5,177.5C 97.3621,178.137 114.529,176.137 131,171.5C 136.663,172.611 142.497,172.611 148.5,171.5C 148.402,169.447 149.069,167.78 150.5,166.5 Z"/></g>
<g><path style="opacity:1" fill="#131414" d="M 163.5,179.5 C 160.952,181.038 160.952,182.704 163.5,184.5C 164.263,185.268 165.263,185.768 166.5,186C 165.391,187.813 166.058,188.646 168.5,188.5C 168.351,187.448 168.517,186.448 169,185.5C 170.487,184.845 171.653,183.845 172.5,182.5C 170.653,181.17 169.153,181.503 168,183.5C 168.002,180.795 169.335,178.795 172,177.5C 172.617,176.551 172.451,175.718 171.5,175C 172.766,174.691 173.933,174.191 175,173.5C 175.638,168.65 176.804,163.983 178.5,159.5C 179.167,159.5 179.833,159.5 180.5,159.5C 181.873,159.343 183.207,159.51 184.5,160C 183.521,161.779 183.854,163.445 185.5,165C 184.207,165.49 182.873,165.657 181.5,165.5C 181.285,167.179 181.952,168.179 183.5,168.5C 183.527,171.39 184.693,172.39 187,171.5C 187.464,172.094 187.631,172.761 187.5,173.5C 180.787,181.874 172.787,188.874 163.5,194.5C 157.895,197.633 151.895,199.633 145.5,200.5C 145.5,200.167 145.5,199.833 145.5,199.5C 146.492,199.672 147.158,199.338 147.5,198.5C 151.677,191.14 154.01,183.14 154.5,174.5C 154.5,169.5 154.5,164.5 154.5,159.5C 155.222,159.082 155.722,158.416 156,157.5C 156.498,160.482 156.665,163.482 156.5,166.5C 157.93,166.421 159.264,166.754 160.5,167.5C 161.833,166.5 163.167,165.5 164.5,164.5C 164.833,164.833 165.167,165.167 165.5,165.5C 164.289,166.72 164.289,167.887 165.5,169C 164.457,170.976 163.123,171.476 161.5,170.5C 159.804,172.525 158.137,174.525 156.5,176.5C 157.154,177.504 157.987,178.504 159,179.5C 162.932,177.903 165.432,175.069 166.5,171C 170.687,169.844 171.853,171.011 170,174.5C 169.275,172.842 168.108,172.342 166.5,173C 166.616,174.268 166.949,175.602 167.5,177C 165.934,177.608 164.6,178.442 163.5,179.5 Z"/></g>
<g><path style="opacity:1" fill="#bcdffa" d="M 62.5,174.5 C 65.3063,177.728 68.3063,180.728 71.5,183.5C 71.5394,184.583 71.8728,185.583 72.5,186.5C 74.731,188.11 76.731,189.943 78.5,192C 77.4071,193.365 76.0738,193.699 74.5,193C 71.2433,191.738 68.5767,189.738 66.5,187C 65.552,186.517 64.552,186.351 63.5,186.5C 61.8333,185.5 60.5,184.167 59.5,182.5C 60.8221,182.33 61.9887,182.663 63,183.5C 64.0217,182.646 64.8551,181.646 65.5,180.5C 63.9617,178.757 62.9617,176.757 62.5,174.5 Z"/></g>
<g><path style="opacity:1" fill="#7e9297" d="M 224.5,179.5 C 223.728,183.598 221.728,186.931 218.5,189.5C 219.498,185.495 221.498,182.161 224.5,179.5 Z"/></g>
<g><path style="opacity:1" fill="#c3e4f4" d="M 149.5,176.5 C 149.315,180.244 148.648,183.911 147.5,187.5C 146.556,192.588 143.556,195.422 138.5,196C 123.23,197.179 108.897,194.346 95.5,187.5C 100.378,188.609 105.378,189.609 110.5,190.5C 120.44,188.945 130.274,186.945 140,184.5C 142.187,184.788 144.354,185.122 146.5,185.5C 146.446,182.008 147.446,179.008 149.5,176.5 Z"/></g>
<g><path style="opacity:1" fill="#98abb1" d="M 153.5,174.5 C 153.833,174.5 154.167,174.5 154.5,174.5C 154.01,183.14 151.677,191.14 147.5,198.5C 147.158,197.662 146.492,197.328 145.5,197.5C 148.887,192.006 150.887,186.006 151.5,179.5C 152.309,177.972 152.976,176.306 153.5,174.5 Z"/></g>
<g><path style="opacity:1" fill="#b1c9cf" d="M 63.5,168.5 C 63.8333,168.5 64.1667,168.5 64.5,168.5C 86.9015,191.078 113.902,200.744 145.5,197.5C 146.492,197.328 147.158,197.662 147.5,198.5C 147.158,199.338 146.492,199.672 145.5,199.5C 137.889,200.434 130.222,200.767 122.5,200.5C 103.46,197.545 86.4603,190.045 71.5,178C 68.2232,175.234 65.5566,172.067 63.5,168.5 Z"/></g>
<g><path style="opacity:1" fill="#bfe1ef" d="M 202.5,165.5 C 194.885,180.115 183.885,191.448 169.5,199.5C 168.458,198.209 167.292,198.209 166,199.5C 165.015,197.825 164.181,196.158 163.5,194.5C 172.787,188.874 180.787,181.874 187.5,173.5C 189.167,171.5 190.833,169.5 192.5,167.5C 193.399,168.472 194.566,169.138 196,169.5C 198.325,168.325 200.492,166.992 202.5,165.5 Z"/></g>
<g><path style="opacity:1" fill="#1c1d1e" d="M 63.5,168.5 C 65.5566,172.067 68.2232,175.234 71.5,178C 86.4603,190.045 103.46,197.545 122.5,200.5C 128.167,201.167 133.833,201.833 139.5,202.5C 129.087,204.979 118.754,204.979 108.5,202.5C 94.7032,199.101 82.3699,192.768 71.5,183.5C 68.3063,180.728 65.3063,177.728 62.5,174.5C 60.8866,171.868 59.22,169.202 57.5,166.5C 58.365,165.417 59.365,165.251 60.5,166C 61.3734,167.045 62.3734,167.878 63.5,168.5 Z"/></g>
<g><path style="opacity:1" fill="#212528" d="M 235.5,112.5 C 235.833,112.5 236.167,112.5 236.5,112.5C 237.72,120.685 237.72,129.018 236.5,137.5C 235.556,143.154 235.056,148.82 235,154.5C 235.21,152.942 235.71,151.609 236.5,150.5C 236.923,152.781 236.256,154.448 234.5,155.5C 230.988,163.355 227.655,171.355 224.5,179.5C 221.498,182.161 219.498,185.495 218.5,189.5C 215.466,192.505 212.632,195.838 210,199.5C 203.525,206.485 196.692,212.818 189.5,218.5C 185.495,219.498 182.161,221.498 179.5,224.5C 172.595,227.638 165.429,230.304 158,232.5C 157.235,232.43 156.735,232.097 156.5,231.5C 193.881,219.119 218.548,194.119 230.5,156.5C 232.324,152.435 233.658,148.102 234.5,143.5C 235.266,134.521 235.599,125.521 235.5,116.5C 235.5,115.167 235.5,113.833 235.5,112.5 Z"/></g>
<g><path style="opacity:1" fill="#8d9b9c" d="M 218.5,189.5 C 217.316,192.861 215.483,195.861 213,198.5C 206.156,206.525 198.322,213.192 189.5,218.5C 196.692,212.818 203.525,206.485 210,199.5C 212.632,195.838 215.466,192.505 218.5,189.5 Z"/></g>
<g><path style="opacity:1" fill="#8d9a9d" d="M 29.5,186.5 C 42.8152,205.307 59.8152,219.641 80.5,229.5C 74.3653,228.1 68.6987,225.6 63.5,222C 57.5,217.333 51.5,212.667 45.5,208C 40.6457,202.647 35.9791,197.147 31.5,191.5C 30.5435,189.925 29.8769,188.258 29.5,186.5 Z"/></g>
<g><path style="opacity:1" fill="#869495" d="M 189.5,218.5 C 186.931,221.728 183.598,223.728 179.5,224.5C 182.161,221.498 185.495,219.498 189.5,218.5 Z"/></g>
<g><path style="opacity:1" fill="#b7c7c9" d="M 229.5,155.5 C 230.167,155.5 230.5,155.833 230.5,156.5C 218.548,194.119 193.881,219.119 156.5,231.5C 154.901,231.232 153.568,231.566 152.5,232.5C 104.497,242.559 65.3307,228.559 35,190.5C 32.1735,186.845 30.0068,182.845 28.5,178.5C 28.5,177.833 28.8333,177.5 29.5,177.5C 46.2313,207.559 71.5646,225.559 105.5,231.5C 108.507,233.175 111.84,233.841 115.5,233.5C 120.5,234.833 125.5,234.833 130.5,233.5C 179.949,228.286 212.949,202.286 229.5,155.5 Z"/></g>
<g><path style="opacity:1" fill="#6276b9" d="M 133.5,216.5 C 134.568,215.566 135.901,215.232 137.5,215.5C 137.5,218.5 137.5,221.5 137.5,224.5C 136.778,224.082 136.278,223.416 136,222.5C 135.066,223.858 134.232,225.192 133.5,226.5C 133.5,223.833 133.5,221.167 133.5,218.5C 135.528,222.231 136.528,221.565 136.5,216.5C 135.5,216.5 134.5,216.5 133.5,216.5 Z"/></g>
<g><path style="opacity:1" fill="#9cbeec" d="M 98.5,218.5 C 98.8417,219.338 99.5084,219.672 100.5,219.5C 100.702,221.95 100.369,224.283 99.5,226.5C 98.5,226.5 97.5,226.5 96.5,226.5C 96.5,224.833 96.5,223.167 96.5,221.5C 97.1667,220.5 97.8333,219.5 98.5,218.5 Z"/></g>
<g><path style="opacity:1" fill="#84a2e1" d="M 155.5,221.5 C 154.167,222.167 152.833,222.833 151.5,223.5C 150.833,222.833 150.167,222.167 149.5,221.5C 149.5,220.833 149.5,220.167 149.5,219.5C 150.946,218.387 152.613,218.22 154.5,219C 155.252,219.671 155.586,220.504 155.5,221.5 Z"/></g>
<g><path style="opacity:1" fill="#6b81c2" d="M 141.5,216.5 C 141.5,217.833 141.5,219.167 141.5,220.5C 142.5,220.5 143.5,220.5 144.5,220.5C 146.179,220.285 147.179,220.952 147.5,222.5C 141.498,224.494 139.498,222.494 141.5,216.5 Z"/></g>
<g><path style="opacity:1" fill="#3e497d" d="M 151.5,215.5 C 149.594,216.482 147.594,217.482 145.5,218.5C 146.689,219.429 148.022,219.762 149.5,219.5C 149.5,220.167 149.5,220.833 149.5,221.5C 148.833,221.833 148.167,222.167 147.5,222.5C 147.179,220.952 146.179,220.285 144.5,220.5C 144.5,219.167 144.5,217.833 144.5,216.5C 146.806,216.007 149.139,215.674 151.5,215.5 Z"/></g>
<g><path style="opacity:1" fill="#2f3857" d="M 127.5,227.5 C 126.539,225.735 126.205,223.735 126.5,221.5C 126.5,220.167 126.5,218.833 126.5,217.5C 125.5,217.5 124.5,217.5 123.5,217.5C 123.5,218.833 123.5,220.167 123.5,221.5C 123.5,223.833 123.5,226.167 123.5,228.5C 122.517,224.702 122.183,220.702 122.5,216.5C 124.167,216.5 125.833,216.5 127.5,216.5C 127.5,220.167 127.5,223.833 127.5,227.5 Z"/></g>
<g><path style="opacity:1" fill="#728bf0" d="M 119.5,216.5 C 119.5,218.5 119.5,220.5 119.5,222.5C 118.5,222.5 117.5,222.5 116.5,222.5C 116.5,220.5 116.5,218.5 116.5,216.5C 117.5,216.5 118.5,216.5 119.5,216.5 Z"/></g>
<g><path style="opacity:1" fill="#6f86f2" d="M 126.5,221.5 C 125.5,222.833 124.5,222.833 123.5,221.5C 123.5,220.167 123.5,218.833 123.5,217.5C 124.5,217.5 125.5,217.5 126.5,217.5C 126.5,218.833 126.5,220.167 126.5,221.5 Z"/></g>
<g><path style="opacity:1" fill="#3a436f" d="M 106.5,213.5 C 106.182,216.481 107.182,218.815 109.5,220.5C 109.557,221.609 109.89,222.609 110.5,223.5C 109.833,224.167 109.167,224.833 108.5,225.5C 108.975,222.687 107.975,220.687 105.5,219.5C 105.205,217.265 105.539,215.265 106.5,213.5 Z"/></g>
<g><path style="opacity:1" fill="#6a7df8" d="M 133.5,216.5 C 134.5,216.5 135.5,216.5 136.5,216.5C 136.528,221.565 135.528,222.231 133.5,218.5C 133.5,217.833 133.5,217.167 133.5,216.5 Z"/></g>
<g><path style="opacity:1" fill="#5d6ee8" d="M 153.5,214.5 C 152.508,214.328 151.842,214.662 151.5,215.5C 149.139,215.674 146.806,216.007 144.5,216.5C 144.5,217.833 144.5,219.167 144.5,220.5C 143.5,220.5 142.5,220.5 141.5,220.5C 141.5,219.167 141.5,217.833 141.5,216.5C 141.577,215.25 142.244,214.417 143.5,214C 145.134,213.506 146.801,213.34 148.5,213.5C 149.695,213.322 150.862,212.989 152,212.5C 153.03,212.836 153.53,213.503 153.5,214.5 Z"/></g>
<g><path style="opacity:1" fill="#677cdc" d="M 111.5,218.5 C 111.5,219.833 110.833,220.5 109.5,220.5C 107.182,218.815 106.182,216.481 106.5,213.5C 107.077,212.227 107.743,212.227 108.5,213.5C 109.275,215.396 110.275,217.063 111.5,218.5 Z"/></g>
<g><path style="opacity:1" fill="#6d85dd" d="M 100.5,219.5 C 99.5084,219.672 98.8417,219.338 98.5,218.5C 98.5,216.5 98.5,214.5 98.5,212.5C 102.225,212.78 103.392,214.78 102,218.5C 101.617,219.056 101.117,219.389 100.5,219.5 Z"/></g>
<g><path style="opacity:1" fill="#353b8d" d="M 153.5,214.5 C 153.53,213.503 153.03,212.836 152,212.5C 150.862,212.989 149.695,213.322 148.5,213.5C 149.99,211.72 151.99,211.054 154.5,211.5C 154.737,212.791 154.404,213.791 153.5,214.5 Z"/></g>
<g><path style="opacity:1" fill="#626a6a" d="M 146.5,209.5 C 144.189,211.068 141.522,211.902 138.5,212C 129.324,212.824 120.324,212.657 111.5,211.5C 123.24,211.858 134.907,211.192 146.5,209.5 Z"/></g>
<g><path style="opacity:1" fill="#d0f0f3" d="M 163.5,194.5 C 164.181,196.158 165.015,197.825 166,199.5C 167.292,198.209 168.458,198.209 169.5,199.5C 167.572,201.474 165.239,202.974 162.5,204C 157.427,206.525 152.094,208.358 146.5,209.5C 134.907,211.192 123.24,211.858 111.5,211.5C 106.589,210.123 101.589,208.957 96.5,208C 94.867,207.52 93.5336,206.687 92.5,205.5C 92.1961,204.85 91.8627,204.183 91.5,203.5C 92.2624,203.089 93.2624,202.923 94.5,203C 91.972,201.684 91.972,200.517 94.5,199.5C 95.914,200.624 97.414,201.624 99,202.5C 102.071,201.862 105.237,201.862 108.5,202.5C 118.754,204.979 129.087,204.979 139.5,202.5C 141.698,202.125 143.698,201.458 145.5,200.5C 151.895,199.633 157.895,197.633 163.5,194.5 Z"/></g>
<g><path style="opacity:1" fill="#3e4446" d="M 145.5,199.5 C 145.5,199.833 145.5,200.167 145.5,200.5C 143.698,201.458 141.698,202.125 139.5,202.5C 133.833,201.833 128.167,201.167 122.5,200.5C 130.222,200.767 137.889,200.434 145.5,199.5 Z"/></g>
<g><path style="opacity:1" fill="#c2e0ed" d="M 71.5,183.5 C 82.3699,192.768 94.7032,199.101 108.5,202.5C 105.237,201.862 102.071,201.862 99,202.5C 97.414,201.624 95.914,200.624 94.5,199.5C 91.972,200.517 91.972,201.684 94.5,203C 93.2624,202.923 92.2624,203.089 91.5,203.5C 91.8627,204.183 92.1961,204.85 92.5,205.5C 80.9395,201.897 71.2728,195.564 63.5,186.5C 64.552,186.351 65.552,186.517 66.5,187C 68.5767,189.738 71.2433,191.738 74.5,193C 76.0738,193.699 77.4071,193.365 78.5,192C 76.731,189.943 74.731,188.11 72.5,186.5C 71.8728,185.583 71.5394,184.583 71.5,183.5 Z"/></g>
<g><path style="opacity:1" fill="#a5c1c9" d="M 163.5,179.5 C 164.5,179.5 165.5,179.5 166.5,179.5C 167.084,182.285 166.084,183.952 163.5,184.5C 160.952,182.704 160.952,181.038 163.5,179.5 Z"/></g>
<g><path style="opacity:1" fill="#829fdb" d="M 111.5,218.5 C 112.833,220.167 114.167,221.833 115.5,223.5C 115.5,223.833 115.5,224.167 115.5,224.5C 114.209,224.263 113.209,224.596 112.5,225.5C 111.5,225.167 110.833,224.5 110.5,223.5C 109.89,222.609 109.557,221.609 109.5,220.5C 110.833,220.5 111.5,219.833 111.5,218.5 Z"/></g>
<g><path style="opacity:1" fill="#8faee3" d="M 116.5,222.5 C 117.5,222.5 118.5,222.5 119.5,222.5C 119.5,223.833 119.5,225.167 119.5,226.5C 118.026,225.564 117.026,224.23 116.5,222.5 Z"/></g>
<g><path style="opacity:1" fill="#a2c6e5" d="M 105.5,219.5 C 107.975,220.687 108.975,222.687 108.5,225.5C 108.5,226.5 108.5,227.5 108.5,228.5C 107.167,228.5 105.833,228.5 104.5,228.5C 104.368,225.43 104.701,222.43 105.5,219.5 Z"/></g>
<g><path style="opacity:1" fill="#495777" d="M 119.5,216.5 C 118.5,216.5 117.5,216.5 116.5,216.5C 116.5,218.5 116.5,220.5 116.5,222.5C 117.026,224.23 118.026,225.564 119.5,226.5C 119.5,227.167 119.5,227.833 119.5,228.5C 119.167,228.5 118.833,228.5 118.5,228.5C 117.5,227.167 116.5,225.833 115.5,224.5C 115.5,224.167 115.5,223.833 115.5,223.5C 115.5,220.833 115.5,218.167 115.5,215.5C 117.099,215.232 118.432,215.566 119.5,216.5 Z"/></g>
<g><path style="opacity:1" fill="#a7cad1" d="M 155.5,221.5 C 155.756,223.912 154.756,225.579 152.5,226.5C 149.346,228.026 146.013,228.693 142.5,228.5C 142.5,227.5 142.5,226.5 142.5,225.5C 145.539,224.99 148.539,224.323 151.5,223.5C 152.833,222.833 154.167,222.167 155.5,221.5 Z"/></g>
<g><path style="opacity:1" fill="#607178" d="M 96.5,221.5 C 96.5,223.167 96.5,224.833 96.5,226.5C 97.5,226.5 98.5,226.5 99.5,226.5C 98.4324,227.434 97.099,227.768 95.5,227.5C 95.2053,225.265 95.5386,223.265 96.5,221.5 Z"/></g>
<g><path style="opacity:1" fill="#add5e5" d="M 115.5,224.5 C 116.5,225.833 117.5,227.167 118.5,228.5C 118.737,229.791 118.404,230.791 117.5,231.5C 117.167,231.5 116.833,231.5 116.5,231.5C 115.167,229.5 113.833,227.5 112.5,225.5C 113.209,224.596 114.209,224.263 115.5,224.5 Z"/></g>
<g><path style="opacity:1" fill="#a6cbe7" d="M 123.5,221.5 C 124.5,222.833 125.5,222.833 126.5,221.5C 126.205,223.735 126.539,225.735 127.5,227.5C 128.404,228.209 128.737,229.209 128.5,230.5C 126.302,230.88 124.635,230.213 123.5,228.5C 123.5,226.167 123.5,223.833 123.5,221.5 Z"/></g>
<g><path style="opacity:1" fill="#abd1dc" d="M 137.5,224.5 C 137.227,229.332 134.56,231.332 129.5,230.5C 129.5,229.5 129.5,228.5 129.5,227.5C 131.099,227.768 132.432,227.434 133.5,226.5C 134.232,225.192 135.066,223.858 136,222.5C 136.278,223.416 136.778,224.082 137.5,224.5 Z"/></g>
<g><path style="opacity:1" fill="#7e8f8e" d="M 118.5,228.5 C 118.833,228.5 119.167,228.5 119.5,228.5C 119.5,230.167 119.5,231.833 119.5,233.5C 123.167,233.5 126.833,233.5 130.5,233.5C 125.5,234.833 120.5,234.833 115.5,233.5C 117.993,233.869 118.66,233.203 117.5,231.5C 118.404,230.791 118.737,229.791 118.5,228.5 Z"/></g>
<g><path style="opacity:1" fill="#768585" d="M 179.5,224.5 C 179.047,225.458 178.381,226.292 177.5,227C 146.386,241.767 114.552,243.267 82,231.5C 80.9701,231.164 80.4701,230.497 80.5,229.5C 104.313,238.142 128.647,239.642 153.5,234C 155.932,232.913 155.598,232.413 152.5,232.5C 153.568,231.566 154.901,231.232 156.5,231.5C 156.735,232.097 157.235,232.43 158,232.5C 165.429,230.304 172.595,227.638 179.5,224.5 Z"/></g>
<g><path style="opacity:1" fill="#414949" d="M 105.5,231.5 C 109.328,232.498 112.994,232.498 116.5,231.5C 116.833,231.5 117.167,231.5 117.5,231.5C 118.66,233.203 117.993,233.869 115.5,233.5C 111.84,233.841 108.507,233.175 105.5,231.5 Z"/></g>
<g><path style="opacity:1" fill="#2a2f30" d="M 20.5,164.5 C 22.9887,169.336 25.6554,174.002 28.5,178.5C 30.0068,182.845 32.1735,186.845 35,190.5C 65.3307,228.559 104.497,242.559 152.5,232.5C 155.598,232.413 155.932,232.913 153.5,234C 128.647,239.642 104.313,238.142 80.5,229.5C 59.8152,219.641 42.8152,205.307 29.5,186.5C 25.9053,179.643 22.5719,172.643 19.5,165.5C 19.6236,164.893 19.9569,164.56 20.5,164.5 Z"/></g>
</svg>
