<?xml version="1.0" encoding="UTF-8"?>
<!DOCTYPE svg PUBLIC "-//W3C//DTD SVG 1.1//EN" "http://www.w3.org/Graphics/SVG/1.1/DTD/svg11.dtd">
<svg xmlns="http://www.w3.org/2000/svg" version="1.1" width="100px" height="96px" style="shape-rendering:geometricPrecision; text-rendering:geometricPrecision; image-rendering:optimizeQuality; fill-rule:evenodd; clip-rule:evenodd" xmlns:xlink="http://www.w3.org/1999/xlink">
<g><path style="opacity:1" fill="#78777b" d="M -0.5,-0.5 C 32.8333,-0.5 66.1667,-0.5 99.5,-0.5C 99.5,31.5 99.5,63.5 99.5,95.5C 99.1667,95.5 98.8333,95.5 98.5,95.5C 98.5,78.1667 98.5,60.8333 98.5,43.5C 98.5,42.5 98.5,41.5 98.5,40.5C 98.5,38.1667 98.5,35.8333 98.5,33.5C 98.7947,31.2646 98.4614,29.2646 97.5,27.5C 97.5,26.1667 97.5,24.8333 97.5,23.5C 97.5,21.5 97.5,19.5 97.5,17.5C 98.8333,14.5 98.8333,11.5 97.5,8.5C 97.5,8.16667 97.5,7.83333 97.5,7.5C 97.5,5.83333 97.5,4.16667 97.5,2.5C 96.5,2.5 95.5,2.5 94.5,2.5C 91.8333,2.5 89.1667,2.5 86.5,2.5C 86.7148,4.17876 86.0481,5.17876 84.5,5.5C 83.7638,3.77055 82.4305,2.77055 80.5,2.5C 79.8333,2.5 79.1667,2.5 78.5,2.5C 74.7879,2.65836 71.2879,2.65836 68,2.5C 67.5172,3.44802 67.3505,4.44802 67.5,5.5C 66.596,4.79105 66.2627,3.79105 66.5,2.5C 65.5,2.5 64.5,2.5 63.5,2.5C 63.1667,2.5 62.8333,2.5 62.5,2.5C 41.6733,1.50274 20.6733,1.16941 -0.5,1.5C -0.5,0.833333 -0.5,0.166667 -0.5,-0.5 Z"/></g>
<g><path style="opacity:1" fill="#716678" d="M -0.5,2.5 C -0.5,2.16667 -0.5,1.83333 -0.5,1.5C 20.6733,1.16941 41.6733,1.50274 62.5,2.5C 61.8333,2.5 61.1667,2.5 60.5,2.5C 59.7784,2.91753 59.2784,3.5842 59,4.5C 58.5831,3.24402 57.7498,2.57735 56.5,2.5C 55.1667,2.5 53.8333,2.5 52.5,2.5C 50.5,2.5 48.5,2.5 46.5,2.5C 45.8333,2.5 45.1667,2.5 44.5,2.5C 41.4669,2.13152 38.8002,2.79818 36.5,4.5C 35.8166,2.82351 34.4832,2.15684 32.5,2.5C 31.5,2.5 30.5,2.5 29.5,2.5C 28.5,2.5 27.5,2.5 26.5,2.5C 26.7678,4.09903 26.4345,5.43236 25.5,6.5C 25.5,5.16667 25.5,3.83333 25.5,2.5C 20.3054,2.17949 15.3054,2.51283 10.5,3.5C 10.7148,5.17876 10.0481,6.17876 8.5,6.5C 7.46696,4.91453 6.13363,3.58119 4.5,2.5C 3.83333,2.5 3.16667,2.5 2.5,2.5C 1.5,2.5 0.5,2.5 -0.5,2.5 Z"/></g>
<g><path style="opacity:1" fill="#634576" d="M 10.5,3.5 C 15.3054,2.51283 20.3054,2.17949 25.5,2.5C 25.5,3.83333 25.5,5.16667 25.5,6.5C 24.6618,6.84171 24.3284,7.50838 24.5,8.5C 24.1667,8.5 23.8333,8.5 23.5,8.5C 22.391,8.55688 21.391,8.89022 20.5,9.5C 20.8588,7.62901 21.8588,6.12901 23.5,5C 21.8988,4.72662 20.3988,4.22662 19,3.5C 18.7216,4.4158 18.2216,5.08247 17.5,5.5C 17.1667,5.5 16.8333,5.5 16.5,5.5C 16.5299,4.50278 16.0299,3.83611 15,3.5C 13.437,4.72212 11.937,4.72212 10.5,3.5 Z"/></g>
<g><path style="opacity:1" fill="#7082b5" d="M 78.5,2.5 C 79.1667,2.5 79.8333,2.5 80.5,2.5C 80.366,4.29152 80.6993,5.95819 81.5,7.5C 80.609,8.10978 79.609,8.44312 78.5,8.5C 77.4937,8.06233 77.4937,7.39567 78.5,6.5C 78.5,5.16667 78.5,3.83333 78.5,2.5 Z"/></g>
<g><path style="opacity:1" fill="#141912" d="M 32.5,2.5 C 34.4832,2.15684 35.8166,2.82351 36.5,4.5C 37.4475,5.97789 38.7809,6.97789 40.5,7.5C 36.1667,7.5 31.8333,7.5 27.5,7.5C 27.5,7.16667 27.5,6.83333 27.5,6.5C 30.5876,6.80344 32.2542,5.47011 32.5,2.5 Z"/></g>
<g><path style="opacity:1" fill="#937444" d="M 63.5,2.5 C 64.5,2.5 65.5,2.5 66.5,2.5C 66.2627,3.79105 66.596,4.79105 67.5,5.5C 68.1667,6.16667 68.8333,6.83333 69.5,7.5C 68.8333,7.5 68.1667,7.5 67.5,7.5C 64.0897,7.61623 62.7564,5.94956 63.5,2.5 Z"/></g>
<g><path style="opacity:1" fill="#1c1f44" d="M 78.5,2.5 C 78.5,3.83333 78.5,5.16667 78.5,6.5C 77.5,6.5 76.5,6.5 75.5,6.5C 72.8728,5.90843 70.2062,5.5751 67.5,5.5C 67.3505,4.44802 67.5172,3.44802 68,2.5C 71.2879,2.65836 74.7879,2.65836 78.5,2.5 Z"/></g>
<g><path style="opacity:1" fill="#15141e" d="M 94.5,2.5 C 94.3713,4.2161 94.038,5.88277 93.5,7.5C 93.5,10.8333 93.5,14.1667 93.5,17.5C 93.5,22.5 93.5,27.5 93.5,32.5C 93.298,34.9496 93.6314,37.283 94.5,39.5C 94.4877,42.142 95.821,43.4754 98.5,43.5C 98.5,60.8333 98.5,78.1667 98.5,95.5C 98.1667,95.5 97.8333,95.5 97.5,95.5C 97.5,86.1667 97.5,76.8333 97.5,67.5C 97.6663,60.825 97.4996,54.1583 97,47.5C 96.3109,46.6433 95.4776,45.9767 94.5,45.5C 94.4464,46.6869 94.1131,48.0202 93.5,49.5C 92.4763,48.1468 91.143,47.4802 89.5,47.5C 89.5,46.8333 89.5,46.1667 89.5,45.5C 90.9418,44.1805 91.6085,42.5138 91.5,40.5C 90.962,38.8828 90.6287,37.2161 90.5,35.5C 91.2216,35.9175 91.7216,36.5842 92,37.5C 92.6667,31.8333 92.6667,26.1667 92,20.5C 91.6667,22.5 91.3333,24.5 91,26.5C 90.8333,24.8333 90.6667,23.1667 90.5,21.5C 90.265,18.1582 90.9317,15.8249 92.5,14.5C 92.423,12.701 91.923,11.0344 91,9.5C 89.5415,11.4319 88.3748,13.4319 87.5,15.5C 87.494,11.843 86.494,8.50965 84.5,5.5C 86.0481,5.17876 86.7148,4.17876 86.5,2.5C 89.1667,2.5 91.8333,2.5 94.5,2.5 Z"/></g>
<g><path style="opacity:1" fill="#1f2c66" d="M 29.5,2.5 C 30.5,2.5 31.5,2.5 32.5,2.5C 32.2542,5.47011 30.5876,6.80344 27.5,6.5C 28.1667,5.16667 28.8333,3.83333 29.5,2.5 Z"/></g>
<g><path style="opacity:1" fill="#1b2360" d="M 44.5,2.5 C 44.8308,4.32239 45.4975,5.98906 46.5,7.5C 45.5,7.5 44.5,7.5 43.5,7.5C 42.5,7.5 41.5,7.5 40.5,7.5C 38.7809,6.97789 37.4475,5.97789 36.5,4.5C 38.8002,2.79818 41.4669,2.13152 44.5,2.5 Z"/></g>
<g><path style="opacity:1" fill="#779ce0" d="M 46.5,2.5 C 48.5,2.5 50.5,2.5 52.5,2.5C 52.0653,5.83752 52.7319,8.83752 54.5,11.5C 54.5,11.8333 54.5,12.1667 54.5,12.5C 52.9699,11.7888 51.6366,10.7888 50.5,9.5C 50.5086,7.69161 50.0086,6.02494 49,4.5C 47.3745,5.41193 46.5412,4.74526 46.5,2.5 Z"/></g>
<g><path style="opacity:1" fill="#2d2d7b" d="M 56.5,2.5 C 57.7498,2.57735 58.5831,3.24402 59,4.5C 59.2784,3.5842 59.7784,2.91753 60.5,2.5C 60.9754,5.3126 59.9754,7.3126 57.5,8.5C 56.6586,6.6208 56.3253,4.6208 56.5,2.5 Z"/></g>
<g><path style="opacity:1" fill="#c6787c" d="M 2.5,2.5 C 3.16667,2.5 3.83333,2.5 4.5,2.5C 4.5,6.83333 4.5,11.1667 4.5,15.5C 4.16667,15.5 3.83333,15.5 3.5,15.5C 3.41355,11.1434 3.08021,6.81002 2.5,2.5 Z"/></g>
<g><path style="opacity:1" fill="#13111e" d="M 29.5,2.5 C 28.8333,3.83333 28.1667,5.16667 27.5,6.5C 27.5,6.83333 27.5,7.16667 27.5,7.5C 26.391,7.55688 25.391,7.89022 24.5,8.5C 24.3284,7.50838 24.6618,6.84171 25.5,6.5C 26.4345,5.43236 26.7678,4.09903 26.5,2.5C 27.5,2.5 28.5,2.5 29.5,2.5 Z"/></g>
<g><path style="opacity:1" fill="#685263" d="M 67.5,5.5 C 70.2062,5.5751 72.8728,5.90843 75.5,6.5C 76.6664,8.16602 76.6664,9.83268 75.5,11.5C 74.7189,10.2713 74.2189,8.93801 74,7.5C 73.6174,8.05596 73.1174,8.38929 72.5,8.5C 71.791,7.59603 70.791,7.26269 69.5,7.5C 68.8333,6.83333 68.1667,6.16667 67.5,5.5 Z"/></g>
<g><path style="opacity:1" fill="#4c4d8a" d="M 80.5,2.5 C 82.4305,2.77055 83.7638,3.77055 84.5,5.5C 86.494,8.50965 87.494,11.843 87.5,15.5C 86.9709,19.3506 87.6375,22.8506 89.5,26C 88.4734,26.5133 87.4734,27.0133 86.5,27.5C 86.9554,25.9401 86.2888,24.4401 84.5,23C 85.0223,22.0497 85.689,21.2164 86.5,20.5C 85.452,19.452 84.452,18.452 83.5,17.5C 85.3208,13.5342 84.6541,10.2009 81.5,7.5C 80.6993,5.95819 80.366,4.29152 80.5,2.5 Z"/></g>
<g><path style="opacity:1" fill="#231243" d="M 94.5,2.5 C 95.5,2.5 96.5,2.5 97.5,2.5C 97.5,4.16667 97.5,5.83333 97.5,7.5C 96.1667,7.5 94.8333,7.5 93.5,7.5C 94.038,5.88277 94.3713,4.2161 94.5,2.5 Z"/></g>
<g><path style="opacity:1" fill="#7b65af" d="M 52.5,2.5 C 53.8333,2.5 55.1667,2.5 56.5,2.5C 56.3253,4.6208 56.6586,6.6208 57.5,8.5C 57.5,8.83333 57.5,9.16667 57.5,9.5C 57.1667,10.1667 56.8333,10.8333 56.5,11.5C 55.8333,11.5 55.1667,11.5 54.5,11.5C 52.7319,8.83752 52.0653,5.83752 52.5,2.5 Z"/></g>
<g><path style="opacity:1" fill="#101144" d="M 60.5,2.5 C 61.1667,2.5 61.8333,2.5 62.5,2.5C 62.5,4.83333 62.5,7.16667 62.5,9.5C 60.8333,9.5 59.1667,9.5 57.5,9.5C 57.5,9.16667 57.5,8.83333 57.5,8.5C 59.9754,7.3126 60.9754,5.3126 60.5,2.5 Z"/></g>
<g><path style="opacity:1" fill="#548e2a" d="M 27.5,7.5 C 31.8333,7.5 36.1667,7.5 40.5,7.5C 41.5,7.5 42.5,7.5 43.5,7.5C 43.3691,8.37644 43.7025,9.04311 44.5,9.5C 47.4724,10.3195 50.1391,11.6529 52.5,13.5C 54.0144,17.3658 55.681,21.1991 57.5,25C 57.1667,25.5 56.8333,26 56.5,26.5C 49.2167,25.3682 41.8834,25.2015 34.5,26C 31.2211,26.9728 28.2211,28.4728 25.5,30.5C 25.6667,30.8333 25.8333,31.1667 26,31.5C 36.0144,26.4081 46.5144,25.2414 57.5,28C 59.0654,33.0375 58.7321,37.8708 56.5,42.5C 55.8333,42.5 55.1667,42.5 54.5,42.5C 48.1667,42.5 41.8333,42.5 35.5,42.5C 32.447,42.3185 29.447,42.1519 26.5,42C 29.7867,46.31 34.12,48.4767 39.5,48.5C 43.5,48.5 47.5,48.5 51.5,48.5C 52.552,48.3505 53.552,48.5172 54.5,49C 52.5101,50.7506 50.1768,51.7506 47.5,52C 42.5,52.3333 37.5,52.6667 32.5,53C 34.116,54.0771 35.9493,54.5771 38,54.5C 41.8269,53.761 45.6603,53.5943 49.5,54C 48.0439,54.4226 47.5439,55.2559 48,56.5C 51.4219,55.3759 53.9219,53.2092 55.5,50C 60.1548,49.5008 64.8215,49.3342 69.5,49.5C 72.2869,50.4767 75.2869,50.81 78.5,50.5C 79.8734,50.3433 81.2068,50.51 82.5,51C 77.2701,52.1197 72.2701,52.6197 67.5,52.5C 72.667,53.2124 77.667,53.5458 82.5,53.5C 79.6994,54.7659 76.6994,55.5992 73.5,56C 63.1157,55.5109 53.1157,57.0109 43.5,60.5C 40.5,60.5 37.5,60.5 34.5,60.5C 34.2155,62.4147 34.5489,64.0813 35.5,65.5C 35.9528,66.4584 36.6195,67.2917 37.5,68C 42.9711,68.7528 48.3044,68.2528 53.5,66.5C 56.5585,66.5832 59.2252,67.5832 61.5,69.5C 61.5569,70.609 61.8902,71.609 62.5,72.5C 53.8333,72.5 45.1667,72.5 36.5,72.5C 35.209,72.7373 34.209,72.404 33.5,71.5C 31.1617,69.9605 28.4951,69.2938 25.5,69.5C 23.5853,69.7845 21.9187,69.4511 20.5,68.5C 18.5615,66.8372 16.2282,66.1706 13.5,66.5C 13.7373,65.209 13.404,64.209 12.5,63.5C 12.1667,63.5 11.8333,63.5 11.5,63.5C 11.5,62.1667 11.5,60.8333 11.5,59.5C 11.5797,56.2186 10.913,53.2186 9.5,50.5C 9.5,45.8333 9.5,41.1667 9.5,36.5C 9.83333,36.5 10.1667,36.5 10.5,36.5C 12.0739,34.8984 12.7406,32.8984 12.5,30.5C 17.9461,26.7459 20.2794,21.4125 19.5,14.5C 21.1921,12.7952 22.5254,10.7952 23.5,8.5C 23.8333,8.5 24.1667,8.5 24.5,8.5C 25.391,7.89022 26.391,7.55688 27.5,7.5 Z"/></g>
<g><path style="opacity:1" fill="#575dbe" d="M 44.5,2.5 C 45.1667,2.5 45.8333,2.5 46.5,2.5C 46.5412,4.74526 47.3745,5.41193 49,4.5C 50.0086,6.02494 50.5086,7.69161 50.5,9.5C 48.5168,9.84316 47.1834,9.17649 46.5,7.5C 45.4975,5.98906 44.8308,4.32239 44.5,2.5 Z"/></g>
<g><path style="opacity:1" fill="#e3e8ef" d="M 16.5,5.5 C 16.8333,5.5 17.1667,5.5 17.5,5.5C 18.2778,6.15561 18.9444,6.98894 19.5,8C 18.8524,9.43975 18.5191,10.9397 18.5,12.5C 17.209,12.2627 16.209,12.596 15.5,13.5C 14.5,13.5 13.5,13.5 12.5,13.5C 12.1667,12.5 11.5,11.8333 10.5,11.5C 10.281,10.325 10.6143,9.32496 11.5,8.5C 12.6951,6.70298 14.3618,5.70298 16.5,5.5 Z"/></g>
<g><path style="opacity:1" fill="#2c252d" d="M 62.5,2.5 C 62.8333,2.5 63.1667,2.5 63.5,2.5C 62.7564,5.94956 64.0897,7.61623 67.5,7.5C 66.7375,8.26791 65.7375,8.76791 64.5,9C 67.367,9.80073 70.0336,9.63406 72.5,8.5C 73.1174,8.38929 73.6174,8.05596 74,7.5C 74.2189,8.93801 74.7189,10.2713 75.5,11.5C 76.6664,9.83268 76.6664,8.16602 75.5,6.5C 76.5,6.5 77.5,6.5 78.5,6.5C 77.4937,7.39567 77.4937,8.06233 78.5,8.5C 78.5,10.5 78.5,12.5 78.5,14.5C 71.742,10.3891 64.4087,9.38914 56.5,11.5C 56.8333,10.8333 57.1667,10.1667 57.5,9.5C 59.1667,9.5 60.8333,9.5 62.5,9.5C 62.5,7.16667 62.5,4.83333 62.5,2.5 Z"/></g>
<g><path style="opacity:1" fill="#a65c8b" d="M 67.5,7.5 C 68.1667,7.5 68.8333,7.5 69.5,7.5C 70.791,7.26269 71.791,7.59603 72.5,8.5C 70.0336,9.63406 67.367,9.80073 64.5,9C 65.7375,8.76791 66.7375,8.26791 67.5,7.5 Z"/></g>
<g><path style="opacity:1" fill="#b8b6cf" d="M 20.5,9.5 C 20.0679,10.7095 19.4013,11.7095 18.5,12.5C 18.5191,10.9397 18.8524,9.43975 19.5,8C 18.9444,6.98894 18.2778,6.15561 17.5,5.5C 18.2216,5.08247 18.7216,4.4158 19,3.5C 20.3988,4.22662 21.8988,4.72662 23.5,5C 21.8588,6.12901 20.8588,7.62901 20.5,9.5 Z"/></g>
<g><path style="opacity:1" fill="#aea1a5" d="M 10.5,3.5 C 11.937,4.72212 13.437,4.72212 15,3.5C 16.0299,3.83611 16.5299,4.50278 16.5,5.5C 14.3618,5.70298 12.6951,6.70298 11.5,8.5C 10.6143,9.32496 10.281,10.325 10.5,11.5C 11.3635,13.8954 11.3635,16.2287 10.5,18.5C 9.83015,16.7086 9.16348,15.0419 8.5,13.5C 8.5,11.1667 8.5,8.83333 8.5,6.5C 10.0481,6.17876 10.7148,5.17876 10.5,3.5 Z"/></g>
<g><path style="opacity:1" fill="#352b44" d="M 43.5,7.5 C 44.5,7.5 45.5,7.5 46.5,7.5C 47.1834,9.17649 48.5168,9.84316 50.5,9.5C 51.6366,10.7888 52.9699,11.7888 54.5,12.5C 54.1583,13.3382 53.4916,13.6716 52.5,13.5C 50.1391,11.6529 47.4724,10.3195 44.5,9.5C 43.7025,9.04311 43.3691,8.37644 43.5,7.5 Z"/></g>
<g><path style="opacity:1" fill="#548f2a" d="M 78.5,14.5 C 78.8333,14.5 79.1667,14.5 79.5,14.5C 79.3284,15.4916 79.6618,16.1583 80.5,16.5C 80.5,17.1667 80.5,17.8333 80.5,18.5C 80.4326,19.9587 80.7659,21.2921 81.5,22.5C 81.5,23.8333 81.5,25.1667 81.5,26.5C 74.2057,26.1043 66.8724,25.9376 59.5,26C 56.7419,21.3913 55.7419,16.558 56.5,11.5C 64.4087,9.38914 71.742,10.3891 78.5,14.5 Z"/></g>
<g><path style="opacity:1" fill="#bfa0c2" d="M 4.5,2.5 C 6.13363,3.58119 7.46696,4.91453 8.5,6.5C 7.76109,6.36899 7.09442,6.53566 6.5,7C 6.72788,14.3964 6.72788,21.8964 6.5,29.5C 6.16667,29.5 5.83333,29.5 5.5,29.5C 5.59829,26.7524 4.59829,26.0857 2.5,27.5C 4.00026,23.6699 4.66692,19.6699 4.5,15.5C 4.5,11.1667 4.5,6.83333 4.5,2.5 Z"/></g>
<g><path style="opacity:1" fill="#574c5a" d="M 23.5,8.5 C 22.5254,10.7952 21.1921,12.7952 19.5,14.5C 18.2921,13.7659 16.9587,13.4326 15.5,13.5C 16.209,12.596 17.209,12.2627 18.5,12.5C 19.4013,11.7095 20.0679,10.7095 20.5,9.5C 21.391,8.89022 22.391,8.55688 23.5,8.5 Z"/></g>
<g><path style="opacity:1" fill="#cebbe9" d="M 80.5,16.5 C 79.6618,16.1583 79.3284,15.4916 79.5,14.5C 80.2155,10.673 81.2155,10.673 82.5,14.5C 82.2528,15.7133 81.5862,16.38 80.5,16.5 Z"/></g>
<g><path style="opacity:1" fill="#6e2744" d="M -0.5,2.5 C 0.5,2.5 1.5,2.5 2.5,2.5C 3.08021,6.81002 3.41355,11.1434 3.5,15.5C 3.80344,18.5876 2.47011,20.2542 -0.5,20.5C -0.5,14.5 -0.5,8.5 -0.5,2.5 Z"/></g>
<g><path style="opacity:1" fill="#792940" d="M 93.5,7.5 C 94.8333,7.5 96.1667,7.5 97.5,7.5C 97.5,7.83333 97.5,8.16667 97.5,8.5C 98.8333,11.5 98.8333,14.5 97.5,17.5C 96.1667,17.5 94.8333,17.5 93.5,17.5C 93.5,14.1667 93.5,10.8333 93.5,7.5 Z"/></g>
<g><path style="opacity:1" fill="#ae2643" d="M 97.5,8.5 C 97.5,11.1667 97.5,13.8333 97.5,16.5C 96.5,16.5 95.5,16.5 94.5,16.5C 94.5,13.8333 94.5,11.1667 94.5,8.5C 95.5,8.5 96.5,8.5 97.5,8.5 Z"/></g>
<g><path style="opacity:1" fill="#b65391" d="M 81.5,7.5 C 84.6541,10.2009 85.3208,13.5342 83.5,17.5C 82.609,18.1098 81.609,18.4431 80.5,18.5C 80.5,17.8333 80.5,17.1667 80.5,16.5C 81.5862,16.38 82.2528,15.7133 82.5,14.5C 81.2155,10.673 80.2155,10.673 79.5,14.5C 79.1667,14.5 78.8333,14.5 78.5,14.5C 78.5,12.5 78.5,10.5 78.5,8.5C 79.609,8.44312 80.609,8.10978 81.5,7.5 Z"/></g>
<g><path style="opacity:1" fill="#0f1456" d="M 93.5,17.5 C 94.8333,17.5 96.1667,17.5 97.5,17.5C 97.5,19.5 97.5,21.5 97.5,23.5C 95.8212,23.2852 94.8212,23.9519 94.5,25.5C 94.5,27.5 94.5,29.5 94.5,31.5C 94.5,31.8333 94.5,32.1667 94.5,32.5C 94.1667,32.5 93.8333,32.5 93.5,32.5C 93.5,27.5 93.5,22.5 93.5,17.5 Z"/></g>
<g><path style="opacity:1" fill="#bf78bc" d="M 3.5,15.5 C 3.83333,15.5 4.16667,15.5 4.5,15.5C 4.66692,19.6699 4.00026,23.6699 2.5,27.5C 1.5,28.1667 0.5,28.8333 -0.5,29.5C -0.5,26.5 -0.5,23.5 -0.5,20.5C 2.47011,20.2542 3.80344,18.5876 3.5,15.5 Z"/></g>
<g><path style="opacity:1" fill="#711e35" d="M 8.5,6.5 C 8.5,8.83333 8.5,11.1667 8.5,13.5C 8.5,16.5 8.5,19.5 8.5,22.5C 8.82425,26.5546 8.49091,30.5546 7.5,34.5C 6.54811,32.9547 6.21478,31.288 6.5,29.5C 6.72788,21.8964 6.72788,14.3964 6.5,7C 7.09442,6.53566 7.76109,6.36899 8.5,6.5 Z"/></g>
<g><path style="opacity:1" fill="#9882b3" d="M 10.5,11.5 C 11.5,11.8333 12.1667,12.5 12.5,13.5C 12.5,19.1667 12.5,24.8333 12.5,30.5C 10.9261,32.1016 10.2594,34.1016 10.5,36.5C 10.1667,36.5 9.83333,36.5 9.5,36.5C 9.81946,31.6367 9.48612,26.97 8.5,22.5C 8.5,19.5 8.5,16.5 8.5,13.5C 9.16348,15.0419 9.83015,16.7086 10.5,18.5C 11.3635,16.2287 11.3635,13.8954 10.5,11.5 Z"/></g>
<g><path style="opacity:1" fill="#231c2c" d="M 12.5,13.5 C 13.5,13.5 14.5,13.5 15.5,13.5C 16.9587,13.4326 18.2921,13.7659 19.5,14.5C 20.2794,21.4125 17.9461,26.7459 12.5,30.5C 12.5,24.8333 12.5,19.1667 12.5,13.5 Z"/></g>
<g><path style="opacity:1" fill="#242535" d="M 83.5,17.5 C 84.452,18.452 85.452,19.452 86.5,20.5C 85.689,21.2164 85.0223,22.0497 84.5,23C 86.2888,24.4401 86.9554,25.9401 86.5,27.5C 86.5,27.8333 86.5,28.1667 86.5,28.5C 85.1667,28.1667 83.8333,27.8333 82.5,27.5C 82.7845,25.5853 82.4511,23.9187 81.5,22.5C 80.7659,21.2921 80.4326,19.9587 80.5,18.5C 81.609,18.4431 82.609,18.1098 83.5,17.5 Z"/></g>
<g><path style="opacity:1" fill="#08062e" d="M 90.5,35.5 C 89.4314,33.0313 88.0981,30.6979 86.5,28.5C 86.5,28.1667 86.5,27.8333 86.5,27.5C 87.4734,27.0133 88.4734,26.5133 89.5,26C 87.6375,22.8506 86.9709,19.3506 87.5,15.5C 88.3748,13.4319 89.5415,11.4319 91,9.5C 91.923,11.0344 92.423,12.701 92.5,14.5C 90.9317,15.8249 90.265,18.1582 90.5,21.5C 90.6667,23.1667 90.8333,24.8333 91,26.5C 91.3333,24.5 91.6667,22.5 92,20.5C 92.6667,26.1667 92.6667,31.8333 92,37.5C 91.7216,36.5842 91.2216,35.9175 90.5,35.5 Z"/></g>
<g><path style="opacity:1" fill="#4c742b" d="M 54.5,11.5 C 55.1667,11.5 55.8333,11.5 56.5,11.5C 55.7419,16.558 56.7419,21.3913 59.5,26C 66.8724,25.9376 74.2057,26.1043 81.5,26.5C 81.5,25.1667 81.5,23.8333 81.5,22.5C 82.4511,23.9187 82.7845,25.5853 82.5,27.5C 75.1233,28.0628 67.7899,28.0628 60.5,27.5C 60.3229,32.9841 60.3229,38.3174 60.5,43.5C 59.0413,43.5674 57.7079,43.2341 56.5,42.5C 58.7321,37.8708 59.0654,33.0375 57.5,28C 46.5144,25.2414 36.0144,26.4081 26,31.5C 25.8333,31.1667 25.6667,30.8333 25.5,30.5C 28.2211,28.4728 31.2211,26.9728 34.5,26C 41.8834,25.2015 49.2167,25.3682 56.5,26.5C 56.8333,26 57.1667,25.5 57.5,25C 55.681,21.1991 54.0144,17.3658 52.5,13.5C 53.4916,13.6716 54.1583,13.3382 54.5,12.5C 54.5,12.1667 54.5,11.8333 54.5,11.5 Z"/></g>
<g><path style="opacity:1" fill="#509ee2" d="M 97.5,23.5 C 97.5,24.8333 97.5,26.1667 97.5,27.5C 96.8333,26.8333 96.1667,26.1667 95.5,25.5C 95.1667,25.5 94.8333,25.5 94.5,25.5C 94.8212,23.9519 95.8212,23.2852 97.5,23.5 Z"/></g>
<g><path style="opacity:1" fill="#549029" d="M 82.5,27.5 C 83.8333,27.8333 85.1667,28.1667 86.5,28.5C 88.0981,30.6979 89.4314,33.0313 90.5,35.5C 90.6287,37.2161 90.962,38.8828 91.5,40.5C 89.1667,41.8333 86.8333,43.1667 84.5,44.5C 83.8333,44.5 83.1667,44.5 82.5,44.5C 76.5,44.5 70.5,44.5 64.5,44.5C 62.901,44.7678 61.5676,44.4345 60.5,43.5C 60.3229,38.3174 60.3229,32.9841 60.5,27.5C 67.7899,28.0628 75.1233,28.0628 82.5,27.5 Z"/></g>
<g><path style="opacity:1" fill="#b2bfec" d="M 5.5,29.5 C 3.5,30.1667 1.5,30.8333 -0.5,31.5C -0.5,30.8333 -0.5,30.1667 -0.5,29.5C 0.5,28.8333 1.5,28.1667 2.5,27.5C 4.59829,26.0857 5.59829,26.7524 5.5,29.5 Z"/></g>
<g><path style="opacity:1" fill="#271cbf" d="M 94.5,25.5 C 94.8333,25.5 95.1667,25.5 95.5,25.5C 95.3601,27.1238 96.0267,28.2904 97.5,29C 96.9221,30.417 95.9221,31.2504 94.5,31.5C 94.5,29.5 94.5,27.5 94.5,25.5 Z"/></g>
<g><path style="opacity:1" fill="#5063c9" d="M 95.5,25.5 C 96.1667,26.1667 96.8333,26.8333 97.5,27.5C 98.4614,29.2646 98.7947,31.2646 98.5,33.5C 97.2921,32.7659 95.9587,32.4326 94.5,32.5C 94.5,32.1667 94.5,31.8333 94.5,31.5C 95.9221,31.2504 96.9221,30.417 97.5,29C 96.0267,28.2904 95.3601,27.1238 95.5,25.5 Z"/></g>
<g><path style="opacity:1" fill="#6b4086" d="M 8.5,22.5 C 9.48612,26.97 9.81946,31.6367 9.5,36.5C 7.16667,36.5 4.83333,36.5 2.5,36.5C 1.5,36.5 0.5,36.5 -0.5,36.5C -0.5,34.8333 -0.5,33.1667 -0.5,31.5C 1.5,30.8333 3.5,30.1667 5.5,29.5C 5.83333,29.5 6.16667,29.5 6.5,29.5C 6.21478,31.288 6.54811,32.9547 7.5,34.5C 8.49091,30.5546 8.82425,26.5546 8.5,22.5 Z"/></g>
<g><path style="opacity:1" fill="#48652e" d="M 12.5,30.5 C 12.7406,32.8984 12.0739,34.8984 10.5,36.5C 10.2594,34.1016 10.9261,32.1016 12.5,30.5 Z"/></g>
<g><path style="opacity:1" fill="#5ca8d7" d="M 93.5,32.5 C 93.8333,32.5 94.1667,32.5 94.5,32.5C 95.9587,32.4326 97.2921,32.7659 98.5,33.5C 98.5,35.8333 98.5,38.1667 98.5,40.5C 97.2921,39.7659 95.9587,39.4326 94.5,39.5C 93.6314,37.283 93.298,34.9496 93.5,32.5 Z"/></g>
<g><path style="opacity:1" fill="#dae1ee" d="M 2.5,36.5 C 4.83333,36.5 7.16667,36.5 9.5,36.5C 9.5,41.1667 9.5,45.8333 9.5,50.5C 9.5,52.8333 9.5,55.1667 9.5,57.5C 8.12656,57.6567 6.79323,57.49 5.5,57C 4.77715,54.9817 3.77715,53.1484 2.5,51.5C 1.59664,46.7896 1.59664,42.1229 2.5,37.5C 2.5,37.1667 2.5,36.8333 2.5,36.5 Z"/></g>
<g><path style="opacity:1" fill="#3b79d6" d="M -0.5,36.5 C 0.5,36.5 1.5,36.5 2.5,36.5C 2.5,36.8333 2.5,37.1667 2.5,37.5C 1.06521,38.9133 0.0652098,40.58 -0.5,42.5C -0.5,40.5 -0.5,38.5 -0.5,36.5 Z"/></g>
<g><path style="opacity:1" fill="#345bae" d="M 94.5,39.5 C 95.9587,39.4326 97.2921,39.7659 98.5,40.5C 98.5,41.5 98.5,42.5 98.5,43.5C 95.821,43.4754 94.4877,42.142 94.5,39.5 Z"/></g>
<g><path style="opacity:1" fill="#58aae6" d="M 2.5,37.5 C 1.59664,42.1229 1.59664,46.7896 2.5,51.5C 1.97789,49.7809 0.977893,48.4475 -0.5,47.5C -0.5,45.8333 -0.5,44.1667 -0.5,42.5C 0.0652098,40.58 1.06521,38.9133 2.5,37.5 Z"/></g>
<g><path style="opacity:1" fill="#e9ebe8" d="M 35.5,42.5 C 36.5676,43.4345 37.901,43.7678 39.5,43.5C 39.5,45.1667 39.5,46.8333 39.5,48.5C 34.12,48.4767 29.7867,46.31 26.5,42C 29.447,42.1519 32.447,42.3185 35.5,42.5 Z"/></g>
<g><path style="opacity:1" fill="#dcdeda" d="M 91.5,40.5 C 91.6085,42.5138 90.9418,44.1805 89.5,45.5C 87.7454,46.9044 85.7454,47.9044 83.5,48.5C 83.4326,47.0413 83.7659,45.7079 84.5,44.5C 86.8333,43.1667 89.1667,41.8333 91.5,40.5 Z"/></g>
<g><path style="opacity:1" fill="#10120f" d="M 39.5,43.5 C 43.1185,44.2436 46.7852,44.577 50.5,44.5C 50.3691,45.3764 50.7025,46.0431 51.5,46.5C 52.7733,45.7435 52.7733,45.0768 51.5,44.5C 52.472,43.2486 53.1386,43.582 53.5,45.5C 53.0576,46.7387 52.3909,47.7387 51.5,48.5C 47.5,48.5 43.5,48.5 39.5,48.5C 39.5,46.8333 39.5,45.1667 39.5,43.5 Z"/></g>
<g><path style="opacity:1" fill="#dee0de" d="M 54.5,42.5 C 55.1667,42.5 55.8333,42.5 56.5,42.5C 57.7079,43.2341 59.0413,43.5674 60.5,43.5C 61.5676,44.4345 62.901,44.7678 64.5,44.5C 65.5676,45.4345 66.901,45.7678 68.5,45.5C 68.5,46.5 68.5,47.5 68.5,48.5C 63.8333,47.8333 59.1667,47.1667 54.5,46.5C 54.5,45.1667 54.5,43.8333 54.5,42.5 Z"/></g>
<g><path style="opacity:1" fill="#8a8a8b" d="M 50.5,44.5 C 50.8333,44.5 51.1667,44.5 51.5,44.5C 52.7733,45.0768 52.7733,45.7435 51.5,46.5C 50.7025,46.0431 50.3691,45.3764 50.5,44.5 Z"/></g>
<g><path style="opacity:1" fill="#0f130b" d="M 78.5,45.5 C 78.8425,47.2252 79.8425,47.7252 81.5,47C 80.944,46.6174 80.6107,46.1174 80.5,45.5C 81.1667,45.5 81.8333,45.5 82.5,45.5C 82.2627,46.791 82.596,47.791 83.5,48.5C 81.8333,49.1667 80.1667,49.8333 78.5,50.5C 75.2869,50.81 72.2869,50.4767 69.5,49.5C 69.5,48.1667 69.5,46.8333 69.5,45.5C 72.5,45.5 75.5,45.5 78.5,45.5 Z"/></g>
<g><path style="opacity:1" fill="#7c7d7a" d="M 78.5,45.5 C 79.1667,45.5 79.8333,45.5 80.5,45.5C 80.6107,46.1174 80.944,46.6174 81.5,47C 79.8425,47.7252 78.8425,47.2252 78.5,45.5 Z"/></g>
<g><path style="opacity:1" fill="#70746e" d="M 82.5,44.5 C 83.1667,44.5 83.8333,44.5 84.5,44.5C 83.7659,45.7079 83.4326,47.0413 83.5,48.5C 82.596,47.791 82.2627,46.791 82.5,45.5C 82.5,45.1667 82.5,44.8333 82.5,44.5 Z"/></g>
<g><path style="opacity:1" fill="#527b30" d="M 35.5,42.5 C 41.8333,42.5 48.1667,42.5 54.5,42.5C 54.5,43.8333 54.5,45.1667 54.5,46.5C 59.1667,47.1667 63.8333,47.8333 68.5,48.5C 68.5,47.5 68.5,46.5 68.5,45.5C 66.901,45.7678 65.5676,45.4345 64.5,44.5C 70.5,44.5 76.5,44.5 82.5,44.5C 82.5,44.8333 82.5,45.1667 82.5,45.5C 81.8333,45.5 81.1667,45.5 80.5,45.5C 79.8333,45.5 79.1667,45.5 78.5,45.5C 75.5,45.5 72.5,45.5 69.5,45.5C 69.5,46.8333 69.5,48.1667 69.5,49.5C 64.8215,49.3342 60.1548,49.5008 55.5,50C 53.9219,53.2092 51.4219,55.3759 48,56.5C 47.5439,55.2559 48.0439,54.4226 49.5,54C 45.6603,53.5943 41.8269,53.761 38,54.5C 35.9493,54.5771 34.116,54.0771 32.5,53C 37.5,52.6667 42.5,52.3333 47.5,52C 50.1768,51.7506 52.5101,50.7506 54.5,49C 53.552,48.5172 52.552,48.3505 51.5,48.5C 52.3909,47.7387 53.0576,46.7387 53.5,45.5C 53.1386,43.582 52.472,43.2486 51.5,44.5C 51.1667,44.5 50.8333,44.5 50.5,44.5C 46.7852,44.577 43.1185,44.2436 39.5,43.5C 37.901,43.7678 36.5676,43.4345 35.5,42.5 Z"/></g>
<g><path style="opacity:1" fill="#50782e" d="M 89.5,45.5 C 89.5,46.1667 89.5,46.8333 89.5,47.5C 88.2702,49.2972 87.6036,51.2972 87.5,53.5C 85.8333,53.5 84.1667,53.5 82.5,53.5C 77.667,53.5458 72.667,53.2124 67.5,52.5C 72.2701,52.6197 77.2701,52.1197 82.5,51C 81.2068,50.51 79.8734,50.3433 78.5,50.5C 80.1667,49.8333 81.8333,49.1667 83.5,48.5C 85.7454,47.9044 87.7454,46.9044 89.5,45.5 Z"/></g>
<g><path style="opacity:1" fill="#090829" d="M 97.5,67.5 C 96.5,67.5 95.5,67.5 94.5,67.5C 93.4097,63.5585 91.743,59.8919 89.5,56.5C 89.573,54.9731 88.9063,53.9731 87.5,53.5C 87.6036,51.2972 88.2702,49.2972 89.5,47.5C 91.143,47.4802 92.4763,48.1468 93.5,49.5C 94.1131,48.0202 94.4464,46.6869 94.5,45.5C 95.4776,45.9767 96.3109,46.6433 97,47.5C 97.4996,54.1583 97.6663,60.825 97.5,67.5 Z"/></g>
<g><path style="opacity:1" fill="#49593d" d="M 9.5,50.5 C 10.913,53.2186 11.5797,56.2186 11.5,59.5C 10.8333,59.5 10.5,59.1667 10.5,58.5C 10.5,57.8333 10.1667,57.5 9.5,57.5C 9.5,55.1667 9.5,52.8333 9.5,50.5 Z"/></g>
<g><path style="opacity:1" fill="#86583e" d="M 85.5,57.5 C 85.3059,59.9118 83.9726,60.9118 81.5,60.5C 78.1889,60.3072 75.5223,61.3072 73.5,63.5C 71.5,65.1667 69.5,66.8333 67.5,68.5C 66.596,67.791 66.2627,66.791 66.5,65.5C 69.0692,64.6044 71.0692,62.9377 72.5,60.5C 69.3553,59.1968 66.3553,59.1968 63.5,60.5C 62.6618,60.8417 62.3284,61.5084 62.5,62.5C 61.8999,61.0998 60.8999,60.0998 59.5,59.5C 67.9905,58.488 76.6572,57.8214 85.5,57.5 Z"/></g>
<g><path style="opacity:1" fill="#6a6136" d="M 43.5,60.5 C 41.0521,61.4731 38.3854,61.8064 35.5,61.5C 35.5,62.8333 35.5,64.1667 35.5,65.5C 34.5489,64.0813 34.2155,62.4147 34.5,60.5C 37.5,60.5 40.5,60.5 43.5,60.5 Z"/></g>
<g><path style="opacity:1" fill="#18110d" d="M 59.5,59.5 C 60.8999,60.0998 61.8999,61.0998 62.5,62.5C 62.5,63.1667 62.5,63.8333 62.5,64.5C 62.5299,65.4972 62.0299,66.1639 61,66.5C 58.077,65.1906 55.2437,63.6906 52.5,62C 54.5692,60.4766 56.9026,59.6432 59.5,59.5 Z"/></g>
<g><path style="opacity:1" fill="#160f0b" d="M 63.5,60.5 C 66.3553,59.1968 69.3553,59.1968 72.5,60.5C 71.0692,62.9377 69.0692,64.6044 66.5,65.5C 65.8333,65.5 65.5,65.1667 65.5,64.5C 65.3404,62.847 64.6737,61.5137 63.5,60.5 Z"/></g>
<g><path style="opacity:1" fill="#51482d" d="M 81.5,60.5 C 80.0736,61.3412 78.7403,62.3412 77.5,63.5C 76.2946,62.3143 74.9613,62.3143 73.5,63.5C 75.5223,61.3072 78.1889,60.3072 81.5,60.5 Z"/></g>
<g><path style="opacity:1" fill="#030305" d="M 89.5,56.5 C 91.743,59.8919 93.4097,63.5585 94.5,67.5C 95.5,67.5 96.5,67.5 97.5,67.5C 97.5,76.8333 97.5,86.1667 97.5,95.5C 91.8333,95.5 86.1667,95.5 80.5,95.5C 80.9688,89.7707 78.8021,85.4373 74,82.5C 72.9701,82.8361 72.4701,83.5028 72.5,84.5C 71.6618,84.1583 71.3284,83.4916 71.5,82.5C 73.8317,78.5406 75.165,74.2073 75.5,69.5C 76.8333,68.5 76.8333,67.5 75.5,66.5C 76.1667,65.5 76.8333,64.5 77.5,63.5C 78.7403,62.3412 80.0736,61.3412 81.5,60.5C 83.9726,60.9118 85.3059,59.9118 85.5,57.5C 86.8333,57.1667 88.1667,56.8333 89.5,56.5 Z"/></g>
<g><path style="opacity:1" fill="#434c9a" d="M -0.5,47.5 C 0.977893,48.4475 1.97789,49.7809 2.5,51.5C 3.77715,53.1484 4.77715,54.9817 5.5,57C 6.79323,57.49 8.12656,57.6567 9.5,57.5C 10.1667,57.5 10.5,57.8333 10.5,58.5C 8.5,58.5 6.5,58.5 4.5,58.5C 4.26344,61.6473 3.43011,64.6473 2,67.5C 1.2917,68.3805 0.458367,69.0472 -0.5,69.5C -0.5,62.1667 -0.5,54.8333 -0.5,47.5 Z"/></g>
<g><path style="opacity:1" fill="#9e623e" d="M 82.5,53.5 C 84.1667,53.5 85.8333,53.5 87.5,53.5C 88.9063,53.9731 89.573,54.9731 89.5,56.5C 88.1667,56.8333 86.8333,57.1667 85.5,57.5C 76.6572,57.8214 67.9905,58.488 59.5,59.5C 56.9026,59.6432 54.5692,60.4766 52.5,62C 55.2437,63.6906 58.077,65.1906 61,66.5C 62.0299,66.1639 62.5299,65.4972 62.5,64.5C 62.8333,64.5 63.1667,64.5 63.5,64.5C 63.6287,66.2161 63.962,67.8828 64.5,69.5C 63.5,69.5 62.5,69.5 61.5,69.5C 59.2252,67.5832 56.5585,66.5832 53.5,66.5C 48.3044,68.2528 42.9711,68.7528 37.5,68C 36.6195,67.2917 35.9528,66.4584 35.5,65.5C 35.5,64.1667 35.5,62.8333 35.5,61.5C 38.3854,61.8064 41.0521,61.4731 43.5,60.5C 53.1157,57.0109 63.1157,55.5109 73.5,56C 76.6994,55.5992 79.6994,54.7659 82.5,53.5 Z"/></g>
<g><path style="opacity:1" fill="#cc7a36" d="M 63.5,60.5 C 64.6737,61.5137 65.3404,62.847 65.5,64.5C 64.8333,64.5 64.1667,64.5 63.5,64.5C 63.1667,64.5 62.8333,64.5 62.5,64.5C 62.5,63.8333 62.5,63.1667 62.5,62.5C 62.3284,61.5084 62.6618,60.8417 63.5,60.5 Z"/></g>
<g><path style="opacity:1" fill="#1c1a56" d="M 10.5,58.5 C 10.5,59.1667 10.8333,59.5 11.5,59.5C 11.5,60.8333 11.5,62.1667 11.5,63.5C 10.1557,68.7159 6.98902,70.7159 2,69.5C 1.2917,70.3805 0.458367,71.0472 -0.5,71.5C -0.5,70.8333 -0.5,70.1667 -0.5,69.5C 0.458367,69.0472 1.2917,68.3805 2,67.5C 3.43011,64.6473 4.26344,61.6473 4.5,58.5C 6.5,58.5 8.5,58.5 10.5,58.5 Z"/></g>
<g><path style="opacity:1" fill="#726dc4" d="M 5.5,60.5 C 6.87344,60.3433 8.20677,60.51 9.5,61C 5.37833,68.0801 4.045,67.9135 5.5,60.5 Z"/></g>
<g><path style="opacity:1" fill="#545b50" d="M 12.5,63.5 C 13.404,64.209 13.7373,65.209 13.5,66.5C 16.2282,66.1706 18.5615,66.8372 20.5,68.5C 18.139,68.3259 15.8056,67.9926 13.5,67.5C 13.5,68.5 13.5,69.5 13.5,70.5C 12.8333,70.5 12.5,70.1667 12.5,69.5C 12.5,67.5 12.5,65.5 12.5,63.5 Z"/></g>
<g><path style="opacity:1" fill="#52812f" d="M 77.5,63.5 C 76.8333,64.5 76.1667,65.5 75.5,66.5C 73.5956,66.7376 72.2623,67.7376 71.5,69.5C 69.2025,72.3465 67.8691,72.0132 67.5,68.5C 69.5,66.8333 71.5,65.1667 73.5,63.5C 74.9613,62.3143 76.2946,62.3143 77.5,63.5 Z"/></g>
<g><path style="opacity:1" fill="#5b6155" d="M 75.5,66.5 C 76.8333,67.5 76.8333,68.5 75.5,69.5C 75.631,68.7611 75.4643,68.0944 75,67.5C 74.1841,68.8228 73.0174,69.4894 71.5,69.5C 72.2623,67.7376 73.5956,66.7376 75.5,66.5 Z"/></g>
<g><path style="opacity:1" fill="#f1f1f1" d="M 20.5,68.5 C 21.9187,69.4511 23.5853,69.7845 25.5,69.5C 27.78,71.2227 30.4467,71.8893 33.5,71.5C 34.209,72.404 35.209,72.7373 36.5,72.5C 41.7486,72.8587 46.7486,73.8587 51.5,75.5C 50.7814,77.7638 50.448,80.0971 50.5,82.5C 49.6618,82.8417 49.3284,83.5084 49.5,84.5C 40.0155,81.2272 30.6822,77.5605 21.5,73.5C 18.6202,73.0598 15.9535,72.0598 13.5,70.5C 13.5,69.5 13.5,68.5 13.5,67.5C 15.8056,67.9926 18.139,68.3259 20.5,68.5 Z"/></g>
<g><path style="opacity:1" fill="#dddcd7" d="M 63.5,64.5 C 64.1667,64.5 64.8333,64.5 65.5,64.5C 65.5,65.1667 65.8333,65.5 66.5,65.5C 66.2627,66.791 66.596,67.791 67.5,68.5C 67.8691,72.0132 69.2025,72.3465 71.5,69.5C 73.0174,69.4894 74.1841,68.8228 75,67.5C 75.4643,68.0944 75.631,68.7611 75.5,69.5C 75.165,74.2073 73.8317,78.5406 71.5,82.5C 71.1667,82.5 70.8333,82.5 70.5,82.5C 71.926,79.3499 71.7593,76.3499 70,73.5C 69.433,76.1677 68.933,78.8344 68.5,81.5C 67.8333,81.5 67.1667,81.5 66.5,81.5C 65.2387,77.6265 64.572,73.6265 64.5,69.5C 63.962,67.8828 63.6287,66.2161 63.5,64.5 Z"/></g>
<g><path style="opacity:1" fill="#535e47" d="M 25.5,69.5 C 28.4951,69.2938 31.1617,69.9605 33.5,71.5C 30.4467,71.8893 27.78,71.2227 25.5,69.5 Z"/></g>
<g><path style="opacity:1" fill="#050406" d="M 12.5,69.5 C 12.5,70.1667 12.8333,70.5 13.5,70.5C 15.9535,72.0598 18.6202,73.0598 21.5,73.5C 21.4142,74.4959 21.7476,75.3292 22.5,76C 24.6917,76.926 26.6917,78.0927 28.5,79.5C 35.1239,84.2845 41.6239,89.2845 48,94.5C 48.2321,93.2625 48.7321,92.2625 49.5,91.5C 49.5,92.8333 49.5,94.1667 49.5,95.5C 32.8333,95.5 16.1667,95.5 -0.5,95.5C -0.5,92.5 -0.5,89.5 -0.5,86.5C 0.806777,87.1534 2.14011,87.8201 3.5,88.5C 4.42073,86.2235 5.0874,83.8901 5.5,81.5C 7.8435,77.4232 10.1768,73.4232 12.5,69.5 Z"/></g>
<g><path style="opacity:1" fill="#696f65" d="M 36.5,72.5 C 45.1667,72.5 53.8333,72.5 62.5,72.5C 63.1667,72.5 63.5,72.8333 63.5,73.5C 59.351,72.9197 55.6843,73.5864 52.5,75.5C 52.1667,75.5 51.8333,75.5 51.5,75.5C 46.7486,73.8587 41.7486,72.8587 36.5,72.5 Z"/></g>
<g><path style="opacity:1" fill="#f2f2f2" d="M 63.5,73.5 C 63.5751,76.2062 63.9084,78.8728 64.5,81.5C 61.6027,82.129 58.936,83.129 56.5,84.5C 55.8333,84.5 55.1667,84.5 54.5,84.5C 54.5946,81.3033 53.9279,78.3033 52.5,75.5C 55.6843,73.5864 59.351,72.9197 63.5,73.5 Z"/></g>
<g><path style="opacity:1" fill="#1e397d" d="M 11.5,63.5 C 11.8333,63.5 12.1667,63.5 12.5,63.5C 12.5,65.5 12.5,67.5 12.5,69.5C 10.1768,73.4232 7.8435,77.4232 5.5,81.5C 3.14166,81.2525 1.14166,81.9192 -0.5,83.5C -0.5,79.5 -0.5,75.5 -0.5,71.5C 0.458367,71.0472 1.2917,70.3805 2,69.5C 6.98902,70.7159 10.1557,68.7159 11.5,63.5 Z"/></g>
<g><path style="opacity:1" fill="#e3de6f" d="M 70.5,82.5 C 69.5084,82.6716 68.8417,82.3382 68.5,81.5C 68.933,78.8344 69.433,76.1677 70,73.5C 71.7593,76.3499 71.926,79.3499 70.5,82.5 Z"/></g>
<g><path style="opacity:1" fill="#e9e377" d="M 61.5,69.5 C 62.5,69.5 63.5,69.5 64.5,69.5C 64.572,73.6265 65.2387,77.6265 66.5,81.5C 65.8333,84.1667 65.1667,84.1667 64.5,81.5C 63.9084,78.8728 63.5751,76.2062 63.5,73.5C 63.5,72.8333 63.1667,72.5 62.5,72.5C 61.8902,71.609 61.5569,70.609 61.5,69.5 Z"/></g>
<g><path style="opacity:1" fill="#96372e" d="M 51.5,75.5 C 51.8333,75.5 52.1667,75.5 52.5,75.5C 53.9279,78.3033 54.5946,81.3033 54.5,84.5C 53.5902,82.9812 52.7568,81.3146 52,79.5C 51.7679,80.7375 51.2679,81.7375 50.5,82.5C 50.448,80.0971 50.7814,77.7638 51.5,75.5 Z"/></g>
<g><path style="opacity:1" fill="#868585" d="M 21.5,73.5 C 30.6822,77.5605 40.0155,81.2272 49.5,84.5C 49.5,85.1667 49.5,85.8333 49.5,86.5C 43.4111,84.2912 37.4111,81.7912 31.5,79C 30.2506,78.2599 29.2506,78.4265 28.5,79.5C 26.6917,78.0927 24.6917,76.926 22.5,76C 21.7476,75.3292 21.4142,74.4959 21.5,73.5 Z"/></g>
<g><path style="opacity:1" fill="#0a1641" d="M 5.5,81.5 C 5.0874,83.8901 4.42073,86.2235 3.5,88.5C 2.14011,87.8201 0.806777,87.1534 -0.5,86.5C -0.5,85.5 -0.5,84.5 -0.5,83.5C 1.14166,81.9192 3.14166,81.2525 5.5,81.5 Z"/></g>
<g><path style="opacity:1" fill="#eaeae9" d="M 28.5,79.5 C 29.2506,78.4265 30.2506,78.2599 31.5,79C 37.4111,81.7912 43.4111,84.2912 49.5,86.5C 49.5,86.8333 49.5,87.1667 49.5,87.5C 49.5,88.8333 49.5,90.1667 49.5,91.5C 48.7321,92.2625 48.2321,93.2625 48,94.5C 41.6239,89.2845 35.1239,84.2845 28.5,79.5 Z"/></g>
<g><path style="opacity:1" fill="#dd3124" d="M 54.5,84.5 C 53.8166,86.1765 52.4832,86.8432 50.5,86.5C 50.5,85.1667 50.5,83.8333 50.5,82.5C 51.2679,81.7375 51.7679,80.7375 52,79.5C 52.7568,81.3146 53.5902,82.9812 54.5,84.5 Z"/></g>
<g><path style="opacity:1" fill="#849295" d="M 64.5,81.5 C 65.1667,84.1667 65.8333,84.1667 66.5,81.5C 67.1667,81.5 67.8333,81.5 68.5,81.5C 68.8417,82.3382 69.5084,82.6716 70.5,82.5C 70.8333,82.5 71.1667,82.5 71.5,82.5C 71.3284,83.4916 71.6618,84.1583 72.5,84.5C 72.5,84.8333 72.5,85.1667 72.5,85.5C 69.586,85.1949 66.9193,85.1949 64.5,85.5C 64.1667,85.5 63.8333,85.5 63.5,85.5C 63.5299,84.5028 63.0299,83.8361 62,83.5C 60.1997,84.3195 58.3664,84.9862 56.5,85.5C 56.5,85.1667 56.5,84.8333 56.5,84.5C 58.936,83.129 61.6027,82.129 64.5,81.5 Z"/></g>
<g><path style="opacity:1" fill="#6e2c26" d="M 50.5,82.5 C 50.5,83.8333 50.5,85.1667 50.5,86.5C 52.4832,86.8432 53.8166,86.1765 54.5,84.5C 55.1667,84.5 55.8333,84.5 56.5,84.5C 56.5,84.8333 56.5,85.1667 56.5,85.5C 55.8333,86.5 55.1667,87.5 54.5,88.5C 52.7839,88.3713 51.1172,88.038 49.5,87.5C 49.5,87.1667 49.5,86.8333 49.5,86.5C 49.5,85.8333 49.5,85.1667 49.5,84.5C 49.3284,83.5084 49.6618,82.8417 50.5,82.5 Z"/></g>
<g><path style="opacity:1" fill="#e2dede" d="M 63.5,85.5 C 59.8661,87.1473 56.8661,89.4806 54.5,92.5C 54.5,91.1667 54.5,89.8333 54.5,88.5C 55.1667,87.5 55.8333,86.5 56.5,85.5C 58.3664,84.9862 60.1997,84.3195 62,83.5C 63.0299,83.8361 63.5299,84.5028 63.5,85.5 Z"/></g>
<g><path style="opacity:1" fill="#c6c4c6" d="M 72.5,85.5 C 72.5,86.8333 72.5,88.1667 72.5,89.5C 71.8333,89.5 71.1667,89.5 70.5,89.5C 69.5041,89.4142 68.6708,89.7476 68,90.5C 65.8282,89.4911 64.6615,87.8244 64.5,85.5C 66.9193,85.1949 69.586,85.1949 72.5,85.5 Z"/></g>
<g><path style="opacity:1" fill="#1c2315" d="M 72.5,85.5 C 74.8445,85.979 76.1778,87.479 76.5,90C 75.8307,91.8475 74.4974,93.0142 72.5,93.5C 72.9302,92.2883 72.9302,90.955 72.5,89.5C 72.5,88.1667 72.5,86.8333 72.5,85.5 Z"/></g>
<g><path style="opacity:1" fill="#d93023" d="M 49.5,87.5 C 51.1172,88.038 52.7839,88.3713 54.5,88.5C 54.5,89.8333 54.5,91.1667 54.5,92.5C 54.5,93.5 54.5,94.5 54.5,95.5C 52.8333,95.5 51.1667,95.5 49.5,95.5C 49.5,94.1667 49.5,92.8333 49.5,91.5C 49.5,90.1667 49.5,88.8333 49.5,87.5 Z"/></g>
<g><path style="opacity:1" fill="#4c712e" d="M 63.5,85.5 C 63.8333,85.5 64.1667,85.5 64.5,85.5C 64.6615,87.8244 65.8282,89.4911 68,90.5C 68.6708,89.7476 69.5041,89.4142 70.5,89.5C 70.0744,91.2849 68.9078,92.2849 67,92.5C 64.7825,91.7821 62.6159,91.2821 60.5,91C 62.9929,92.4186 65.3263,93.9186 67.5,95.5C 63.1667,95.5 58.8333,95.5 54.5,95.5C 54.5,94.5 54.5,93.5 54.5,92.5C 56.8661,89.4806 59.8661,87.1473 63.5,85.5 Z"/></g>
<g><path style="opacity:1" fill="#548a2c" d="M 80.5,95.5 C 76.1667,95.5 71.8333,95.5 67.5,95.5C 65.3263,93.9186 62.9929,92.4186 60.5,91C 62.6159,91.2821 64.7825,91.7821 67,92.5C 68.9078,92.2849 70.0744,91.2849 70.5,89.5C 71.1667,89.5 71.8333,89.5 72.5,89.5C 72.9302,90.955 72.9302,92.2883 72.5,93.5C 74.4974,93.0142 75.8307,91.8475 76.5,90C 76.1778,87.479 74.8445,85.979 72.5,85.5C 72.5,85.1667 72.5,84.8333 72.5,84.5C 72.4701,83.5028 72.9701,82.8361 74,82.5C 78.8021,85.4373 80.9688,89.7707 80.5,95.5 Z"/></g>
</svg>
