<?xml version="1.0" encoding="UTF-8"?>
<!DOCTYPE svg PUBLIC "-//W3C//DTD SVG 1.1//EN" "http://www.w3.org/Graphics/SVG/1.1/DTD/svg11.dtd">
<svg xmlns="http://www.w3.org/2000/svg" version="1.1" width="250px" height="250px" style="shape-rendering:geometricPrecision; text-rendering:geometricPrecision; image-rendering:optimizeQuality; fill-rule:evenodd; clip-rule:evenodd" xmlns:xlink="http://www.w3.org/1999/xlink">
<g><path style="opacity:1" fill="#7c3fe3" d="M -0.5,-0.5 C 82.8333,-0.5 166.167,-0.5 249.5,-0.5C 249.5,82.8333 249.5,166.167 249.5,249.5C 166.167,249.5 82.8333,249.5 -0.5,249.5C -0.5,166.167 -0.5,82.8333 -0.5,-0.5 Z"/></g>
<g><path style="opacity:1" fill="#a377eb" d="M 121.5,43.5 C 122.449,42.8476 123.615,42.5143 125,42.5C 127.008,42.3068 128.508,42.9735 129.5,44.5C 126.904,43.7347 124.237,43.4013 121.5,43.5 Z"/></g>
<g><path style="opacity:1" fill="#fdfcfe" d="M 121.5,43.5 C 124.237,43.4013 126.904,43.7347 129.5,44.5C 138.5,53.8333 147.5,63.1667 156.5,72.5C 158.046,74.8825 158.713,77.5491 158.5,80.5C 151.833,87.5 145.167,94.5 138.5,101.5C 137.007,102.312 136.34,103.645 136.5,105.5C 136.52,106.726 136.853,107.726 137.5,108.5C 138.272,109.694 139.272,110.694 140.5,111.5C 141.449,112.152 142.615,112.486 144,112.5C 146.008,112.693 147.508,112.026 148.5,110.5C 154.631,103.869 160.964,97.3685 167.5,91C 169.365,89.6986 171.365,89.3653 173.5,90C 183.971,99.4698 194.137,109.303 204,119.5C 205.422,122.03 205.755,124.697 205,127.5C 195.585,137.917 185.752,148.084 175.5,158C 173.305,159.373 170.971,159.706 168.5,159C 161.136,151.302 153.47,143.969 145.5,137C 142.225,136.018 139.559,136.851 137.5,139.5C 136.366,141.966 136.199,144.633 137,147.5C 137.383,148.056 137.883,148.389 138.5,148.5C 144.833,154.167 150.833,160.167 156.5,166.5C 157.933,168.558 158.6,170.892 158.5,173.5C 149.424,184.08 139.758,194.246 129.5,204C 126.634,205.457 123.634,205.79 120.5,205C 95.3333,179.833 70.1667,154.667 45,129.5C 42.697,125.332 43.197,121.665 46.5,118.5C 50.8333,116.167 54.1667,112.833 56.5,108.5C 56.8333,107.5 57.5,106.833 58.5,106.5C 64.2416,102.265 69.5749,97.432 74.5,92C 76.8098,91.5034 79.1432,91.3367 81.5,91.5C 88.6315,98.1307 95.6315,104.964 102.5,112C 106.562,113.336 109.562,112.169 111.5,108.5C 113.184,105.282 112.517,102.615 109.5,100.5C 103.5,94.1667 97.5,87.8333 91.5,81.5C 91.3677,78.4299 91.701,75.4299 92.5,72.5C 101.833,62.5 111.5,52.8333 121.5,43.5 Z"/></g>
<g><path style="opacity:1" fill="#dfcff8" d="M 92.5,72.5 C 91.701,75.4299 91.3677,78.4299 91.5,81.5C 90.0532,80.8658 89.3866,79.6991 89.5,78C 89.6132,75.6013 90.6132,73.7679 92.5,72.5 Z"/></g>
<g><path style="opacity:1" fill="#d7c4f6" d="M 156.5,72.5 C 159.517,74.6154 160.184,77.282 158.5,80.5C 158.713,77.5491 158.046,74.8825 156.5,72.5 Z"/></g>
<g><path style="opacity:1" fill="#ddcdf7" d="M 81.5,91.5 C 79.1432,91.3367 76.8098,91.5034 74.5,92C 69.5749,97.432 64.2416,102.265 58.5,106.5C 63.9213,99.7416 70.2547,94.0749 77.5,89.5C 79.1705,89.6682 80.5039,90.3349 81.5,91.5 Z"/></g>
<g><path style="opacity:1" fill="#c3a7f2" d="M 138.5,101.5 C 137.781,103.764 137.448,106.097 137.5,108.5C 136.853,107.726 136.52,106.726 136.5,105.5C 136.34,103.645 137.007,102.312 138.5,101.5 Z"/></g>
<g><path style="opacity:1" fill="#aa82ec" d="M 109.5,100.5 C 112.517,102.615 113.184,105.282 111.5,108.5C 111.713,105.549 111.046,102.882 109.5,100.5 Z"/></g>
<g><path style="opacity:1" fill="#d3bdf5" d="M 148.5,110.5 C 147.508,112.026 146.008,112.693 144,112.5C 142.615,112.486 141.449,112.152 140.5,111.5C 143.237,111.599 145.904,111.265 148.5,110.5 Z"/></g>
<g><path style="opacity:1" fill="#ddccf7" d="M 56.5,108.5 C 54.1667,112.833 50.8333,116.167 46.5,118.5C 49.5,114.833 52.8333,111.5 56.5,108.5 Z"/></g>
<g><path style="opacity:1" fill="#d0b9f5" d="M 137.5,139.5 C 137.368,142.57 137.701,145.57 138.5,148.5C 137.883,148.389 137.383,148.056 137,147.5C 136.199,144.633 136.366,141.966 137.5,139.5 Z"/></g>
<g><path style="opacity:1" fill="#d9c6f6" d="M 156.5,166.5 C 159.449,168.265 160.115,170.598 158.5,173.5C 158.6,170.892 157.933,168.558 156.5,166.5 Z"/></g>
</svg>
