<?xml version="1.0" encoding="UTF-8"?>
<!DOCTYPE svg PUBLIC "-//W3C//DTD SVG 1.1//EN" "http://www.w3.org/Graphics/SVG/1.1/DTD/svg11.dtd">
<svg xmlns="http://www.w3.org/2000/svg" version="1.1" width="100px" height="100px" style="shape-rendering:geometricPrecision; text-rendering:geometricPrecision; image-rendering:optimizeQuality; fill-rule:evenodd; clip-rule:evenodd" xmlns:xlink="http://www.w3.org/1999/xlink">
<g><path style="opacity:1" fill="#08090b" d="M 7.5,-0.5 C 12.5,-0.5 17.5,-0.5 22.5,-0.5C 22.5,0.833333 22.5,2.16667 22.5,3.5C 24.8268,3.33538 26.9935,2.66871 29,1.5C 31.8333,3 34.6667,4.5 37.5,6C 35.4553,7.66672 33.622,9.50005 32,11.5C 31.3333,10.8333 30.6667,10.1667 30,9.5C 29,10.8333 28,12.1667 27,13.5C 26.3292,12.7476 25.4959,12.4142 24.5,12.5C 23.6587,11.9907 23.1587,12.6573 23,14.5C 20.3148,13.3164 18.1481,11.4831 16.5,9C 15.5165,8.40921 14.8499,8.74254 14.5,10C 13.5071,12.4528 13.3405,14.9528 14,17.5C 14.4226,16.0439 15.2559,15.5439 16.5,16C 12.9527,19.49 11.786,23.6566 13,28.5C 14.9928,30.3782 17.1595,30.7115 19.5,29.5C 18.4783,28.646 17.6449,27.646 17,26.5C 15.5135,27.7414 14.6801,27.2414 14.5,25C 14.8333,24.1667 15.1667,23.3333 15.5,22.5C 17.9176,23.4572 20.0843,24.7905 22,26.5C 22.8469,23.5096 21.6802,22.1762 18.5,22.5C 18.5,21.1667 18.5,19.8333 18.5,18.5C 20.9928,18.6709 22.8261,17.6709 24,15.5C 25.4139,16.4132 26.9139,16.4132 28.5,15.5C 29.4657,18.1247 30.4657,18.1247 31.5,15.5C 32.1067,15.6236 32.44,15.9569 32.5,16.5C 31.1275,18.3495 31.6275,19.6828 34,20.5C 34.2401,22.8516 35.0735,24.8516 36.5,26.5C 37.3084,29.4958 35.975,31.4958 32.5,32.5C 31.8333,31.8333 31.1667,31.1667 30.5,30.5C 29.7255,32.3964 28.7255,34.063 27.5,35.5C 26.8485,36.0906 26.1818,36.7573 25.5,37.5C 23.802,36.3192 22.1353,36.3192 20.5,37.5C 21.3751,39.7725 23.0418,40.7725 25.5,40.5C 25.5,41.8333 25.5,43.1667 25.5,44.5C 25.8098,48.3315 24.1431,49.8315 20.5,49C 21.7836,47.7025 21.6169,46.5358 20,45.5C 19.3333,46.8333 18.3333,47.8333 17,48.5C 16.6886,47.2575 17.1886,46.2575 18.5,45.5C 17.3333,43.8333 16.1667,42.1667 15,40.5C 11.6539,42.4224 11.6539,43.0891 15,42.5C 15.7319,44.7055 15.0652,46.3722 13,47.5C 12.5002,56.1603 12.3336,64.8269 12.5,73.5C 12.334,78.8437 12.5006,84.1771 13,89.5C 13.3333,88.8333 13.6667,88.1667 14,87.5C 14.9683,91.9772 17.4683,93.3105 21.5,91.5C 21.8925,89.7162 22.5592,88.0495 23.5,86.5C 26.1684,84.3311 28.6684,81.9978 31,79.5C 31.5,79.8333 32,80.1667 32.5,80.5C 27.1351,92.1413 29.4684,94.1413 39.5,86.5C 35.963,85.4175 34.463,83.0841 35,79.5C 37.3333,80.8333 39.6667,82.1667 42,83.5C 42.4828,82.552 42.6495,81.552 42.5,80.5C 43.1314,78.0248 44.1314,75.6915 45.5,73.5C 46.6291,71.3718 46.7958,69.0385 46,66.5C 45.6174,67.056 45.1174,67.3893 44.5,67.5C 45.4112,58.8742 45.7445,50.2075 45.5,41.5C 49.7083,41.7937 50.375,43.4604 47.5,46.5C 48.1702,48.8631 48.8368,51.1964 49.5,53.5C 49.25,56.214 49.0833,58.8806 49,61.5C 50.3747,59.0632 50.8747,56.3965 50.5,53.5C 50.7599,47.828 51.0932,42.1613 51.5,36.5C 52.9587,36.4326 54.2921,36.7659 55.5,37.5C 55.3343,41.8461 55.501,46.1794 56,50.5C 56.4955,48.5273 56.6621,46.5273 56.5,44.5C 57.8333,44.5 59.1667,44.5 60.5,44.5C 60.5198,46.143 59.8532,47.4763 58.5,48.5C 59.9114,52.7127 60.5781,57.046 60.5,61.5C 60.4921,64.5448 60.1587,67.5448 59.5,70.5C 58.9033,70.7352 58.5699,71.2352 58.5,72C 59.3479,73.6664 60.3479,75.1664 61.5,76.5C 60.6572,81.0943 61.9906,84.7609 65.5,87.5C 65.7329,89.0618 66.3995,90.3951 67.5,91.5C 74.0326,91.8666 80.6992,92.1999 87.5,92.5C 88.1174,92.3893 88.6174,92.056 89,91.5C 89.8289,86.467 89.6623,81.467 88.5,76.5C 87.1861,77.3128 86.0195,78.3128 85,79.5C 85.6442,76.7777 86.8108,74.111 88.5,71.5C 88.3333,70.8333 88.1667,70.1667 88,69.5C 86.6333,73.4304 84.1333,74.7637 80.5,73.5C 80.5,72.8333 80.5,72.1667 80.5,71.5C 81.2765,69.0491 81.2765,66.7157 80.5,64.5C 82.0777,63.7022 83.7444,63.2022 85.5,63C 84.552,62.5172 83.552,62.3505 82.5,62.5C 81.5504,59.9321 81.5504,57.4321 82.5,55C 81.8333,54.6667 81.1667,54.3333 80.5,54C 81.7144,52.0211 83.3811,50.5211 85.5,49.5C 84.1482,48.4756 82.8149,47.4756 81.5,46.5C 81.3284,45.5084 81.6618,44.8417 82.5,44.5C 84.2025,43.9249 85.8691,43.0915 87.5,42C 86.6721,41.0853 85.6721,40.4186 84.5,40C 87.4403,38.9531 88.7737,36.7864 88.5,33.5C 86.5365,27.6454 85.2032,21.6454 84.5,15.5C 83.791,9.99742 82.4577,4.66409 80.5,-0.5C 81.1667,-0.5 81.8333,-0.5 82.5,-0.5C 84.4393,8.94147 86.606,18.2748 89,27.5C 89.2655,21.4033 90.0989,15.4033 91.5,9.5C 90.696,8.05893 90.0294,6.55893 89.5,5C 90.8847,3.40287 91.5514,1.56954 91.5,-0.5C 94.1667,-0.5 96.8333,-0.5 99.5,-0.5C 99.5,3.83333 99.5,8.16667 99.5,12.5C 98.8826,12.6107 98.3826,12.944 98,13.5C 97.2928,22.046 97.7928,30.3794 99.5,38.5C 99.5,58.8333 99.5,79.1667 99.5,99.5C 66.1667,99.5 32.8333,99.5 -0.5,99.5C -0.5,80.5 -0.5,61.5 -0.5,42.5C 4.06829,43.8981 4.40162,43.3981 0.5,41C 1.44802,40.5172 2.44802,40.3505 3.5,40.5C 2.61793,36.2841 2.61793,32.1174 3.5,28C 3.16667,26.5 2.83333,25 2.5,23.5C 1.91395,23.7093 1.41395,24.0426 1,24.5C 0.76791,23.2625 0.26791,22.2625 -0.5,21.5C -0.5,17.1667 -0.5,12.8333 -0.5,8.5C 1.5273,8.66212 3.5273,8.49546 5.5,8C 4.83333,7.66667 4.16667,7.33333 3.5,7C 4.26378,4.93066 4.76378,2.76399 5,0.5C 8.20817,5.9954 9.04151,5.66207 7.5,-0.5 Z"/></g>
<g><path style="opacity:1" fill="#151f28" d="M -0.5,-0.5 C 2.16667,-0.5 4.83333,-0.5 7.5,-0.5C 9.04151,5.66207 8.20817,5.9954 5,0.5C 4.76378,2.76399 4.26378,4.93066 3.5,7C 4.16667,7.33333 4.83333,7.66667 5.5,8C 3.5273,8.49546 1.5273,8.66212 -0.5,8.5C -0.5,5.5 -0.5,2.5 -0.5,-0.5 Z"/></g>
<g><path style="opacity:1" fill="#576875" d="M 22.5,-0.5 C 38.1667,-0.5 53.8333,-0.5 69.5,-0.5C 70.398,2.39562 72.0647,4.72895 74.5,6.5C 74.6399,8.12377 73.9733,9.29044 72.5,10C 74.2834,11.7387 75.9501,13.5721 77.5,15.5C 77.0431,16.2975 76.3764,16.6309 75.5,16.5C 74.7784,16.0825 74.2784,15.4158 74,14.5C 72.522,14.2102 71.022,14.2102 69.5,14.5C 62.8354,4.16441 53.8354,1.33108 42.5,6C 41.6195,6.7083 40.9528,7.54163 40.5,8.5C 39.7611,8.36899 39.0944,8.53566 38.5,9C 36.636,11.6877 34.636,14.1877 32.5,16.5C 32.44,15.9569 32.1067,15.6236 31.5,15.5C 30.4657,18.1247 29.4657,18.1247 28.5,15.5C 26.7809,14.9779 25.4475,13.9779 24.5,12.5C 25.4959,12.4142 26.3292,12.7476 27,13.5C 28,12.1667 29,10.8333 30,9.5C 30.6667,10.1667 31.3333,10.8333 32,11.5C 33.622,9.50005 35.4553,7.66672 37.5,6C 34.6667,4.5 31.8333,3 29,1.5C 26.9935,2.66871 24.8268,3.33538 22.5,3.5C 22.5,2.16667 22.5,0.833333 22.5,-0.5 Z"/></g>
<g><path style="opacity:1" fill="#ece9e0" d="M 60.5,61.5 C 60.5781,57.046 59.9114,52.7127 58.5,48.5C 59.8532,47.4763 60.5198,46.143 60.5,44.5C 59.1667,44.5 57.8333,44.5 56.5,44.5C 56.6621,46.5273 56.4955,48.5273 56,50.5C 55.501,46.1794 55.3343,41.8461 55.5,37.5C 56.1002,40.6247 57.2669,40.958 59,38.5C 60.7461,32.108 58.2461,29.108 51.5,29.5C 52.5617,26.8971 52.7284,24.2305 52,21.5C 51.5495,24.1059 50.0495,25.4392 47.5,25.5C 49.3958,33.4719 48.3958,34.1386 44.5,27.5C 43.914,27.7093 43.414,28.0426 43,28.5C 42.6762,20.0652 40.5095,19.3985 36.5,26.5C 35.0735,24.8516 34.2401,22.8516 34,20.5C 31.6275,19.6828 31.1275,18.3495 32.5,16.5C 34.636,14.1877 36.636,11.6877 38.5,9C 39.0944,8.53566 39.7611,8.36899 40.5,8.5C 42.5518,9.0527 42.8852,10.0527 41.5,11.5C 41.631,10.7611 41.4643,10.0944 41,9.5C 39.702,10.9456 39.5354,12.2789 40.5,13.5C 40.0825,14.2216 39.4158,14.7216 38.5,15C 40.7801,15.2326 42.7801,16.066 44.5,17.5C 47.8333,16.8332 49.1667,14.8332 48.5,11.5C 47.5,11.5 46.5,11.5 45.5,11.5C 45.3398,9.80081 45.5065,8.13414 46,6.5C 47,7.83333 48,7.83333 49,6.5C 51.114,9.50634 52.4474,12.8397 53,16.5C 53.804,17.8045 54.9707,18.4712 56.5,18.5C 58.9673,17.5787 61.3006,16.7453 63.5,16C 63.7111,19.8044 65.2111,22.9711 68,25.5C 68.3594,29.1862 69.1927,32.6862 70.5,36C 70.159,38.8078 69.159,41.3078 67.5,43.5C 67.6667,44.5 67.8333,45.5 68,46.5C 69.3513,44.981 70.8513,43.6477 72.5,42.5C 73.94,46.642 72.7734,49.9753 69,52.5C 67.6743,57.1603 65.3409,61.1603 62,64.5C 61.7679,63.2625 61.2679,62.2625 60.5,61.5 Z"/></g>
<g><path style="opacity:1" fill="#3f5463" d="M 69.5,-0.5 C 73.1667,-0.5 76.8333,-0.5 80.5,-0.5C 82.4577,4.66409 83.791,9.99742 84.5,15.5C 81.1982,14.3606 79.0315,12.0272 78,8.5C 77.1841,7.17723 76.0174,6.51056 74.5,6.5C 72.0647,4.72895 70.398,2.39562 69.5,-0.5 Z"/></g>
<g><path style="opacity:1" fill="#2e485a" d="M 82.5,-0.5 C 85.5,-0.5 88.5,-0.5 91.5,-0.5C 91.5514,1.56954 90.8847,3.40287 89.5,5C 90.0294,6.55893 90.696,8.05893 91.5,9.5C 90.0989,15.4033 89.2655,21.4033 89,27.5C 86.606,18.2748 84.4393,8.94147 82.5,-0.5 Z"/></g>
<g><path style="opacity:1" fill="#3d3e3a" d="M 41.5,11.5 C 41.6716,12.4916 41.3382,13.1583 40.5,13.5C 39.5354,12.2789 39.702,10.9456 41,9.5C 41.4643,10.0944 41.631,10.7611 41.5,11.5 Z"/></g>
<g><path style="opacity:1" fill="#1f3d50" d="M 9.5,13.5 C 10.9468,14.1342 11.6134,15.3009 11.5,17C 11.204,18.8882 10.704,20.7216 10,22.5C 9.13008,21.8921 8.63008,21.0588 8.5,20C 8.5567,17.8789 8.89004,15.7122 9.5,13.5 Z"/></g>
<g><path style="opacity:1" fill="#2e4a5c" d="M 24.5,12.5 C 25.4475,13.9779 26.7809,14.9779 28.5,15.5C 26.9139,16.4132 25.4139,16.4132 24,15.5C 22.8261,17.6709 20.9928,18.6709 18.5,18.5C 18.5,19.8333 18.5,21.1667 18.5,22.5C 21.6802,22.1762 22.8469,23.5096 22,26.5C 20.0843,24.7905 17.9176,23.4572 15.5,22.5C 15.1667,23.3333 14.8333,24.1667 14.5,25C 14.6801,27.2414 15.5135,27.7414 17,26.5C 17.6449,27.646 18.4783,28.646 19.5,29.5C 17.1595,30.7115 14.9928,30.3782 13,28.5C 11.786,23.6566 12.9527,19.49 16.5,16C 15.2559,15.5439 14.4226,16.0439 14,17.5C 13.3405,14.9528 13.5071,12.4528 14.5,10C 14.8499,8.74254 15.5165,8.40921 16.5,9C 18.1481,11.4831 20.3148,13.3164 23,14.5C 23.1587,12.6573 23.6587,11.9907 24.5,12.5 Z"/></g>
<g><path style="opacity:1" fill="#183649" d="M 99.5,12.5 C 99.5,21.1667 99.5,29.8333 99.5,38.5C 97.7928,30.3794 97.2928,22.046 98,13.5C 98.3826,12.944 98.8826,12.6107 99.5,12.5 Z"/></g>
<g><path style="opacity:1" fill="#1f3f56" d="M 5.5,13.5 C 7.9397,16.9416 8.10636,20.6083 6,24.5C 5.50137,20.8484 5.3347,17.1817 5.5,13.5 Z"/></g>
<g><path style="opacity:1" fill="#41657c" d="M 74.5,6.5 C 76.0174,6.51056 77.1841,7.17723 78,8.5C 79.0315,12.0272 81.1982,14.3606 84.5,15.5C 85.2032,21.6454 86.5365,27.6454 88.5,33.5C 88.7737,36.7864 87.4403,38.9531 84.5,40C 85.6721,40.4186 86.6721,41.0853 87.5,42C 85.8691,43.0915 84.2025,43.9249 82.5,44.5C 82.4762,39.3553 82.8096,34.1887 83.5,29C 81.3956,24.4113 78.7289,20.2446 75.5,16.5C 76.3764,16.6309 77.0431,16.2975 77.5,15.5C 75.9501,13.5721 74.2834,11.7387 72.5,10C 73.9733,9.29044 74.6399,8.12377 74.5,6.5 Z"/></g>
<g><path style="opacity:1" fill="#254a63" d="M 91.5,21.5 C 92.7479,22.3339 93.4146,23.6672 93.5,25.5C 93.1667,26.8333 92.8333,28.1667 92.5,29.5C 91.52,26.9135 91.1866,24.2469 91.5,21.5 Z"/></g>
<g><path style="opacity:1" fill="#f8f7eb" d="M 69.5,14.5 C 77.1494,29.939 77.4827,45.6057 70.5,61.5C 68.2158,65.7843 64.8825,69.1176 60.5,71.5C 59.8933,71.3764 59.56,71.0431 59.5,70.5C 60.1587,67.5448 60.4921,64.5448 60.5,61.5C 61.2679,62.2625 61.7679,63.2625 62,64.5C 65.3409,61.1603 67.6743,57.1603 69,52.5C 72.7734,49.9753 73.94,46.642 72.5,42.5C 70.8513,43.6477 69.3513,44.981 68,46.5C 67.8333,45.5 67.6667,44.5 67.5,43.5C 69.159,41.3078 70.159,38.8078 70.5,36C 69.1927,32.6862 68.3594,29.1862 68,25.5C 65.2111,22.9711 63.7111,19.8044 63.5,16C 61.3006,16.7453 58.9673,17.5787 56.5,18.5C 54.9707,18.4712 53.804,17.8045 53,16.5C 52.4474,12.8397 51.114,9.50634 49,6.5C 48,7.83333 47,7.83333 46,6.5C 45.5065,8.13414 45.3398,9.80081 45.5,11.5C 46.5,11.5 47.5,11.5 48.5,11.5C 49.1667,14.8332 47.8333,16.8332 44.5,17.5C 42.7801,16.066 40.7801,15.2326 38.5,15C 39.4158,14.7216 40.0825,14.2216 40.5,13.5C 41.3382,13.1583 41.6716,12.4916 41.5,11.5C 42.8852,10.0527 42.5518,9.0527 40.5,8.5C 40.9528,7.54163 41.6195,6.7083 42.5,6C 53.8354,1.33108 62.8354,4.16441 69.5,14.5 Z"/></g>
<g><path style="opacity:1" fill="#17242f" d="M -0.5,21.5 C 0.26791,22.2625 0.76791,23.2625 1,24.5C 1.41395,24.0426 1.91395,23.7093 2.5,23.5C 2.83333,25 3.16667,26.5 3.5,28C 2.61793,32.1174 2.61793,36.2841 3.5,40.5C 2.44802,40.3505 1.44802,40.5172 0.5,41C 4.40162,43.3981 4.06829,43.8981 -0.5,42.5C -0.5,35.5 -0.5,28.5 -0.5,21.5 Z"/></g>
<g><path style="opacity:1" fill="#5c7e96" d="M 75.5,16.5 C 78.7289,20.2446 81.3956,24.4113 83.5,29C 82.8096,34.1887 82.4762,39.3553 82.5,44.5C 81.6618,44.8417 81.3284,45.5084 81.5,46.5C 80.2615,50.3216 78.7615,53.3216 77,55.5C 76.6667,55.1667 76.3333,54.8333 76,54.5C 76.5318,58.7822 74.6985,61.1155 70.5,61.5C 77.4827,45.6057 77.1494,29.939 69.5,14.5C 71.022,14.2102 72.522,14.2102 74,14.5C 74.2784,15.4158 74.7784,16.0825 75.5,16.5 Z"/></g>
<g><path style="opacity:1" fill="#f4f3e7" d="M 55.5,37.5 C 54.2921,36.7659 52.9587,36.4326 51.5,36.5C 51.0932,42.1613 50.7599,47.828 50.5,53.5C 50.1667,53.5 49.8333,53.5 49.5,53.5C 48.8368,51.1964 48.1702,48.8631 47.5,46.5C 50.375,43.4604 49.7083,41.7937 45.5,41.5C 45.7445,50.2075 45.4112,58.8742 44.5,67.5C 43.8333,67.5 43.5,67.8333 43.5,68.5C 43.0133,69.4734 42.5133,70.4734 42,71.5C 31.6025,61.8206 26.7692,49.8206 27.5,35.5C 28.7255,34.063 29.7255,32.3964 30.5,30.5C 31.1667,31.1667 31.8333,31.8333 32.5,32.5C 35.975,31.4958 37.3084,29.4958 36.5,26.5C 40.5095,19.3985 42.6762,20.0652 43,28.5C 43.414,28.0426 43.914,27.7093 44.5,27.5C 48.3958,34.1386 49.3958,33.4719 47.5,25.5C 50.0495,25.4392 51.5495,24.1059 52,21.5C 52.7284,24.2305 52.5617,26.8971 51.5,29.5C 58.2461,29.108 60.7461,32.108 59,38.5C 57.2669,40.958 56.1002,40.6247 55.5,37.5 Z"/></g>
<g><path style="opacity:1" fill="#181f28" d="M 10.5,70.5 C 8.98045,72.5884 7.98045,74.9217 7.5,77.5C 7.62157,73.6197 7.12157,69.6197 6,65.5C 5.80779,67.5767 5.30779,69.5767 4.5,71.5C 4.16667,70.8333 3.83333,70.1667 3.5,69.5C 4.9776,64.5684 6.14427,59.5684 7,54.5C 8.06743,55.1905 9.23409,55.6905 10.5,56C 9.60771,60.7638 9.60771,65.5971 10.5,70.5 Z"/></g>
<g><path style="opacity:1" fill="#52514d" d="M 49.5,53.5 C 49.8333,53.5 50.1667,53.5 50.5,53.5C 50.8747,56.3965 50.3747,59.0632 49,61.5C 49.0833,58.8806 49.25,56.214 49.5,53.5 Z"/></g>
<g><path style="opacity:1" fill="#181b1f" d="M 25.5,44.5 C 26.5423,48.2129 26.7089,52.2129 26,56.5C 23.8683,59.7863 21.0349,60.453 17.5,58.5C 17.281,59.675 17.6143,60.675 18.5,61.5C 20.8392,60.276 23.1725,60.276 25.5,61.5C 25.2907,62.086 24.9574,62.586 24.5,63C 27.4637,63.8403 27.797,64.8403 25.5,66C 26.3366,67.0113 26.67,68.1779 26.5,69.5C 23.1538,67.6764 19.4872,67.0097 15.5,67.5C 15.5,69.5 15.5,71.5 15.5,73.5C 14.6586,75.3792 14.3253,77.3792 14.5,79.5C 13.8333,77.5 13.1667,75.5 12.5,73.5C 12.3336,64.8269 12.5002,56.1603 13,47.5C 15.0652,46.3722 15.7319,44.7055 15,42.5C 11.6539,43.0891 11.6539,42.4224 15,40.5C 16.1667,42.1667 17.3333,43.8333 18.5,45.5C 17.1886,46.2575 16.6886,47.2575 17,48.5C 18.3333,47.8333 19.3333,46.8333 20,45.5C 21.6169,46.5358 21.7836,47.7025 20.5,49C 24.1431,49.8315 25.8098,48.3315 25.5,44.5 Z"/></g>
<g><path style="opacity:1" fill="#d3d1ca" d="M 55.5,70.5 C 54.7784,70.9175 54.2784,71.5842 54,72.5C 53.8356,66.4725 54.3356,60.4725 55.5,54.5C 56.6119,59.8285 56.6119,65.1619 55.5,70.5 Z"/></g>
<g><path style="opacity:1" fill="#151a20" d="M 90.5,30.5 C 91.5,30.5 92.5,30.5 93.5,30.5C 93.7576,46.917 93.7576,63.2503 93.5,79.5C 93.262,76.0292 92.762,72.3625 92,68.5C 91.6667,69.8333 91.3333,71.1667 91,72.5C 90.8333,67.8333 90.6667,63.1667 90.5,58.5C 90.531,53.4155 91.1977,48.5822 92.5,44C 90.2849,42.0574 90.2849,40.3907 92.5,39C 91.7069,37.9148 91.0402,36.7481 90.5,35.5C 91.0522,33.9974 91.0522,32.3307 90.5,30.5 Z"/></g>
<g><path style="opacity:1" fill="#56799b" d="M 81.5,46.5 C 82.8149,47.4756 84.1482,48.4756 85.5,49.5C 83.3811,50.5211 81.7144,52.0211 80.5,54C 81.1667,54.3333 81.8333,54.6667 82.5,55C 81.5504,57.4321 81.5504,59.9321 82.5,62.5C 83.552,62.3505 84.552,62.5172 85.5,63C 83.7444,63.2022 82.0777,63.7022 80.5,64.5C 81.2765,66.7157 81.2765,69.0491 80.5,71.5C 80.4959,69.1579 79.6625,67.1579 78,65.5C 74.6667,69.1667 71.3333,72.8333 68,76.5C 67.6667,75.8333 67.3333,75.1667 67,74.5C 65.6394,77.1179 63.8061,77.7846 61.5,76.5C 60.3479,75.1664 59.3479,73.6664 58.5,72C 58.5699,71.2352 58.9033,70.7352 59.5,70.5C 59.56,71.0431 59.8933,71.3764 60.5,71.5C 64.8825,69.1176 68.2158,65.7843 70.5,61.5C 74.6985,61.1155 76.5318,58.7822 76,54.5C 76.3333,54.8333 76.6667,55.1667 77,55.5C 78.7615,53.3216 80.2615,50.3216 81.5,46.5 Z"/></g>
<g><path style="opacity:1" fill="#577898" d="M 27.5,35.5 C 26.7692,49.8206 31.6025,61.8206 42,71.5C 42.5133,70.4734 43.0133,69.4734 43.5,68.5C 44.6527,69.3132 44.6527,70.3132 43.5,71.5C 44.2427,72.1818 44.9094,72.8485 45.5,73.5C 44.1314,75.6915 43.1314,78.0248 42.5,80.5C 42.1961,79.8501 41.8627,79.1835 41.5,78.5C 39.7045,77.8586 38.2045,76.8586 37,75.5C 36.6667,75.8333 36.3333,76.1667 36,76.5C 33.2327,73.5577 30.066,71.2244 26.5,69.5C 26.67,68.1779 26.3366,67.0113 25.5,66C 27.797,64.8403 27.4637,63.8403 24.5,63C 24.9574,62.586 25.2907,62.086 25.5,61.5C 23.1725,60.276 20.8392,60.276 18.5,61.5C 17.6143,60.675 17.281,59.675 17.5,58.5C 21.0349,60.453 23.8683,59.7863 26,56.5C 26.7089,52.2129 26.5423,48.2129 25.5,44.5C 25.5,43.1667 25.5,41.8333 25.5,40.5C 23.0418,40.7725 21.3751,39.7725 20.5,37.5C 22.1353,36.3192 23.802,36.3192 25.5,37.5C 26.1818,36.7573 26.8485,36.0906 27.5,35.5 Z"/></g>
<g><path style="opacity:1" fill="#365d88" d="M 26.5,69.5 C 30.066,71.2244 33.2327,73.5577 36,76.5C 36.3333,76.1667 36.6667,75.8333 37,75.5C 38.2045,76.8586 39.7045,77.8586 41.5,78.5C 41.8627,79.1835 42.1961,79.8501 42.5,80.5C 42.6495,81.552 42.4828,82.552 42,83.5C 39.6667,82.1667 37.3333,80.8333 35,79.5C 34.463,83.0841 35.963,85.4175 39.5,86.5C 29.4684,94.1413 27.1351,92.1413 32.5,80.5C 32,80.1667 31.5,79.8333 31,79.5C 28.6684,81.9978 26.1684,84.3311 23.5,86.5C 23.0449,80.7964 20.3783,76.4631 15.5,73.5C 15.5,71.5 15.5,69.5 15.5,67.5C 19.4872,67.0097 23.1538,67.6764 26.5,69.5 Z"/></g>
<g><path style="opacity:1" fill="#a8a8a3" d="M 45.5,73.5 C 44.9094,72.8485 44.2427,72.1818 43.5,71.5C 44.6527,70.3132 44.6527,69.3132 43.5,68.5C 43.5,67.8333 43.8333,67.5 44.5,67.5C 45.1174,67.3893 45.6174,67.056 46,66.5C 46.7958,69.0385 46.6291,71.3718 45.5,73.5 Z"/></g>
<g><path style="opacity:1" fill="#f6f6ee" d="M 49.5,66.5 C 50.7928,68.3635 50.7928,70.3635 49.5,72.5C 48.4808,70.5405 48.4808,68.5405 49.5,66.5 Z"/></g>
<g><path style="opacity:1" fill="#cdcec6" d="M 55.5,70.5 C 56.2216,70.0825 56.7216,69.4158 57,68.5C 57.7975,70.2588 57.6309,71.9255 56.5,73.5C 55.6143,72.675 55.281,71.675 55.5,70.5 Z"/></g>
<g><path style="opacity:1" fill="#2a5282" d="M 87.5,92.5 C 87.5,90.5 87.5,88.5 87.5,86.5C 85.8762,86.6399 84.7096,85.9733 84,84.5C 83.6667,86.5 83.3333,88.5 83,90.5C 81.9383,89.9032 80.7716,89.5698 79.5,89.5C 75.6361,91.0257 71.6361,91.6923 67.5,91.5C 66.3995,90.3951 65.7329,89.0618 65.5,87.5C 70.9158,83.3986 75.9158,78.7319 80.5,73.5C 84.1333,74.7637 86.6333,73.4304 88,69.5C 88.1667,70.1667 88.3333,70.8333 88.5,71.5C 86.8108,74.111 85.6442,76.7777 85,79.5C 86.0195,78.3128 87.1861,77.3128 88.5,76.5C 89.6623,81.467 89.8289,86.467 89,91.5C 88.6174,92.056 88.1174,92.3893 87.5,92.5 Z"/></g>
<g><path style="opacity:1" fill="#416996" d="M 80.5,71.5 C 80.5,72.1667 80.5,72.8333 80.5,73.5C 75.9158,78.7319 70.9158,83.3986 65.5,87.5C 61.9906,84.7609 60.6572,81.0943 61.5,76.5C 63.8061,77.7846 65.6394,77.1179 67,74.5C 67.3333,75.1667 67.6667,75.8333 68,76.5C 71.3333,72.8333 74.6667,69.1667 78,65.5C 79.6625,67.1579 80.4959,69.1579 80.5,71.5 Z"/></g>
<g><path style="opacity:1" fill="#1b4373" d="M 3.5,73.5 C 4.22158,73.9175 4.72158,74.5842 5,75.5C 5.66667,79.5 5.66667,83.5 5,87.5C 3.77478,82.9147 3.27478,78.248 3.5,73.5 Z"/></g>
<g><path style="opacity:1" fill="#244e82" d="M 15.5,73.5 C 20.3783,76.4631 23.0449,80.7964 23.5,86.5C 22.5592,88.0495 21.8925,89.7162 21.5,91.5C 18.619,91.3024 16.619,89.8024 15.5,87C 14.6777,84.5661 14.3444,82.0661 14.5,79.5C 14.3253,77.3792 14.6586,75.3792 15.5,73.5 Z"/></g>
<g><path style="opacity:1" fill="#13263f" d="M 12.5,73.5 C 13.1667,75.5 13.8333,77.5 14.5,79.5C 14.3444,82.0661 14.6777,84.5661 15.5,87C 16.619,89.8024 18.619,91.3024 21.5,91.5C 17.4683,93.3105 14.9683,91.9772 14,87.5C 13.6667,88.1667 13.3333,88.8333 13,89.5C 12.5006,84.1771 12.334,78.8437 12.5,73.5 Z"/></g>
<g><path style="opacity:1" fill="#1a3f6e" d="M 10.5,70.5 C 11.5375,76.3541 11.5375,82.1875 10.5,88C 9.86258,89.7126 8.86258,89.8793 7.5,88.5C 6.24179,84.7897 6.24179,81.123 7.5,77.5C 7.98045,74.9217 8.98045,72.5884 10.5,70.5 Z"/></g>
<g><path style="opacity:1" fill="#161a20" d="M 74.5,84.5 C 75.5735,85.2506 75.7401,86.2506 75,87.5C 71.4733,90.6212 69.9733,89.9545 70.5,85.5C 72.099,85.7678 73.4324,85.4345 74.5,84.5 Z"/></g>
<g><path style="opacity:1" fill="#142c4d" d="M 92.5,82.5 C 93.3689,84.984 94.0356,87.6507 94.5,90.5C 94.1667,91.1667 93.8333,91.8333 93.5,92.5C 92.513,89.2317 92.1796,85.8984 92.5,82.5 Z"/></g>
<g><path style="opacity:1" fill="#131f34" d="M 87.5,92.5 C 80.6992,92.1999 74.0326,91.8666 67.5,91.5C 71.6361,91.6923 75.6361,91.0257 79.5,89.5C 80.7716,89.5698 81.9383,89.9032 83,90.5C 83.3333,88.5 83.6667,86.5 84,84.5C 84.7096,85.9733 85.8762,86.6399 87.5,86.5C 87.5,88.5 87.5,90.5 87.5,92.5 Z"/></g>
</svg>
