<?xml version="1.0" encoding="UTF-8"?>
<!DOCTYPE svg PUBLIC "-//W3C//DTD SVG 1.1//EN" "http://www.w3.org/Graphics/SVG/1.1/DTD/svg11.dtd">
<svg xmlns="http://www.w3.org/2000/svg" version="1.1" width="108px" height="112px" style="shape-rendering:geometricPrecision; text-rendering:geometricPrecision; image-rendering:optimizeQuality; fill-rule:evenodd; clip-rule:evenodd" xmlns:xlink="http://www.w3.org/1999/xlink">
<g><path style="opacity:1" fill="#fcfcfc" d="M 52.5,0.5 C 52.5,0.166667 52.5,-0.166667 52.5,-0.5C 70.8333,-0.5 89.1667,-0.5 107.5,-0.5C 107.5,0.166667 107.5,0.833333 107.5,1.5C 92.4928,1.4283 77.4928,1.09496 62.5,0.5C 59.1667,0.5 55.8333,0.5 52.5,0.5 Z"/></g>
<g><path style="opacity:1" fill="#fcfcfc" d="M 36.5,2.5 C 32.3447,3.74169 28.678,5.74169 25.5,8.5C 23.5956,8.73758 22.2623,9.73758 21.5,11.5C 13.6711,16.3289 8.00444,22.9956 4.5,31.5C 3.03374,32.347 2.20041,33.6803 2,35.5C 1.50014,23.8381 1.33347,12.1714 1.5,0.5C 13.3783,0.145308 25.045,0.811975 36.5,2.5 Z"/></g>
<g><path style="opacity:1" fill="#6b5543" d="M 52.5,0.5 C 55.8333,0.5 59.1667,0.5 62.5,0.5C 63.8333,1.16667 65.1667,1.83333 66.5,2.5C 58.1422,1.27507 49.8089,1.27507 41.5,2.5C 44.6843,0.586352 48.351,-0.0803144 52.5,0.5 Z"/></g>
<g><path style="opacity:1" fill="#fbfbfb" d="M 103.5,37.5 C 103.163,33.164 101.496,29.4974 98.5,26.5C 98.2624,24.5956 97.2624,23.2623 95.5,22.5C 93.9059,19.2358 91.5725,16.5691 88.5,14.5C 85.4873,11.6644 82.154,9.33109 78.5,7.5C 76.7906,5.18698 74.4572,3.68698 71.5,3C 83.1619,2.50014 94.8286,2.33347 106.5,2.5C 106.333,14.5115 105.833,26.5115 105,38.5C 104.617,37.944 104.117,37.6107 103.5,37.5 Z"/></g>
<g><path style="opacity:1" fill="#d7a541" d="M 66.5,2.5 C 70.4417,4.16583 74.4417,5.8325 78.5,7.5C 82.154,9.33109 85.4873,11.6644 88.5,14.5C 88.8588,16.371 89.8588,17.871 91.5,19C 90.7562,20.0386 89.7562,20.5386 88.5,20.5C 88.0679,19.2905 87.4013,18.2905 86.5,17.5C 84.7952,15.8079 82.7952,14.4746 80.5,13.5C 79.8333,12.8333 79.1667,12.1667 78.5,11.5C 55.0607,-0.559321 34.0607,2.77401 15.5,21.5C 14.4265,20.7494 14.2599,19.7494 15,18.5C 17.3722,16.2968 19.5389,13.9635 21.5,11.5C 22.2623,9.73758 23.5956,8.73758 25.5,8.5C 30.4671,7.01162 35.1338,5.01162 39.5,2.5C 40.1667,2.5 40.8333,2.5 41.5,2.5C 49.8089,1.27507 58.1422,1.27507 66.5,2.5 Z"/></g>
<g><path style="opacity:1" fill="#b38c64" d="M 36.5,2.5 C 37.5,2.5 38.5,2.5 39.5,2.5C 35.1338,5.01162 30.4671,7.01162 25.5,8.5C 28.678,5.74169 32.3447,3.74169 36.5,2.5 Z"/></g>
<g><path style="opacity:1" fill="#602c14" d="M 59.5,9.5 C 55.1539,9.33432 50.8206,9.50098 46.5,10C 48.1667,10.3333 49.8333,10.6667 51.5,11C 52.7111,12.1131 52.7111,13.2798 51.5,14.5C 53.0453,15.4519 54.712,15.7852 56.5,15.5C 56.5,14.5 56.5,13.5 56.5,12.5C 60.5341,12.4955 64.5341,12.1621 68.5,11.5C 71.8142,12.7074 75.1475,12.7074 78.5,11.5C 79.1667,12.1667 79.8333,12.8333 80.5,13.5C 79.0646,14.0965 77.398,14.0965 75.5,13.5C 65.6603,14.4596 55.8269,15.7929 46,17.5C 45.0497,16.9777 44.2164,16.311 43.5,15.5C 40.2979,16.1272 37.1312,16.7939 34,17.5C 33.3076,16.9747 32.8076,16.3081 32.5,15.5C 38.0538,14.1941 43.5538,14.1941 49,15.5C 49.6924,14.9747 50.1924,14.3081 50.5,13.5C 45.2079,12.5052 39.8746,12.1718 34.5,12.5C 42.4055,8.44601 50.7388,7.44601 59.5,9.5 Z"/></g>
<g><path style="opacity:1" fill="#843a1b" d="M 59.5,9.5 C 62.8774,9.06786 65.8774,9.73452 68.5,11.5C 64.5341,12.1621 60.5341,12.4955 56.5,12.5C 56.5,13.5 56.5,14.5 56.5,15.5C 54.712,15.7852 53.0453,15.4519 51.5,14.5C 52.7111,13.2798 52.7111,12.1131 51.5,11C 49.8333,10.6667 48.1667,10.3333 46.5,10C 50.8206,9.50098 55.1539,9.33432 59.5,9.5 Z"/></g>
<g><path style="opacity:1" fill="#9f5b29" d="M 75.5,13.5 C 77.398,14.0965 79.0646,14.0965 80.5,13.5C 82.7952,14.4746 84.7952,15.8079 86.5,17.5C 85.596,18.209 85.2627,19.209 85.5,20.5C 82.7531,20.8134 80.0865,20.48 77.5,19.5C 77.8333,18.8333 78.1667,18.1667 78.5,17.5C 77.4756,16.1482 76.4756,14.8149 75.5,13.5 Z"/></g>
<g><path style="opacity:1" fill="#713c1b" d="M 34.5,12.5 C 39.8746,12.1718 45.2079,12.5052 50.5,13.5C 50.1924,14.3081 49.6924,14.9747 49,15.5C 43.5538,14.1941 38.0538,14.1941 32.5,15.5C 32.8076,16.3081 33.3076,16.9747 34,17.5C 37.1312,16.7939 40.2979,16.1272 43.5,15.5C 44.2164,16.311 45.0497,16.9777 46,17.5C 55.8269,15.7929 65.6603,14.4596 75.5,13.5C 76.4756,14.8149 77.4756,16.1482 78.5,17.5C 78.1667,18.1667 77.8333,18.8333 77.5,19.5C 80.0865,20.48 82.7531,20.8134 85.5,20.5C 85.2627,19.209 85.596,18.209 86.5,17.5C 87.4013,18.2905 88.0679,19.2905 88.5,20.5C 84.1413,22.8868 79.6413,22.8868 75,20.5C 74.8374,22.3867 75.6707,23.8867 77.5,25C 81.5,25.3333 85.5,25.6667 89.5,26C 87.1671,27.043 84.8337,27.8763 82.5,28.5C 81.9569,28.56 81.6236,28.8933 81.5,29.5C 85.92,34.34 88.7533,40.0067 90,46.5C 90.3333,46.1667 90.6667,45.8333 91,45.5C 92.0391,46.7101 93.2058,47.7101 94.5,48.5C 95.8333,49.1667 97.1667,49.8333 98.5,50.5C 96.4357,50.687 94.4357,51.187 92.5,52C 93.7932,52.49 95.1266,52.6567 96.5,52.5C 96.3677,55.5701 96.701,58.5701 97.5,61.5C 96.8902,62.391 96.5569,63.391 96.5,64.5C 90.9478,63.007 87.9478,65.007 87.5,70.5C 85.1639,76.1694 81.1639,80.1694 75.5,82.5C 75.5,82.1667 75.5,81.8333 75.5,81.5C 86.811,72.6896 90.9776,61.0229 88,46.5C 84.3773,32.3774 75.544,23.3774 61.5,19.5C 42.0718,15.9643 27.9052,22.9643 19,40.5C 14.9272,52.4327 16.2605,63.7661 23,74.5C 25.7111,78.7123 29.2111,82.0456 33.5,84.5C 33.5,85.1667 33.5,85.8333 33.5,86.5C 32.8333,86.5 32.1667,86.5 31.5,86.5C 29.8333,84.1667 27.8333,82.1667 25.5,80.5C 23.3336,78.1633 21.3336,75.6633 19.5,73C 16.7728,72.1816 14.1062,72.3483 11.5,73.5C 13.36,77.2402 15.6934,80.5735 18.5,83.5C 19.1667,84.5 19.8333,85.5 20.5,86.5C 20.3723,88.1292 21.3723,89.4625 23.5,90.5C 23.4827,92.0281 22.816,92.5281 21.5,92C 15.2734,87.0063 10.9401,80.8396 8.5,73.5C 9.27775,72.8444 9.94442,72.0111 10.5,71C 9.85242,69.5603 9.51909,68.0603 9.5,66.5C 11.5,66.8333 13.5,67.1667 15.5,67.5C 15.5,66.5 15.5,65.5 15.5,64.5C 4.83333,64.1667 4.83333,63.8333 15.5,63.5C 15.7947,61.2646 15.4614,59.2646 14.5,57.5C 14.5,55.1667 14.5,52.8333 14.5,50.5C 12.3021,49.8347 9.96877,49.1681 7.5,48.5C 9.74269,47.5258 12.076,47.1924 14.5,47.5C 15.4345,46.4324 15.7678,45.099 15.5,43.5C 13.4727,43.6621 11.4727,43.4955 9.5,43C 12.0432,42.8603 14.3766,42.1937 16.5,41C 13.5,40.6667 10.5,40.3333 7.5,40C 13.5694,40.8022 17.9028,38.6355 20.5,33.5C 16.6875,32.8329 13.0208,32.1663 9.5,31.5C 13.7899,30.8889 18.1233,30.2223 22.5,29.5C 20.2338,28.6858 17.9005,28.1858 15.5,28C 18.8818,27.8236 22.2152,27.3236 25.5,26.5C 22.8929,25.6816 20.2263,25.1816 17.5,25C 21.5,24.6667 25.5,24.3333 29.5,24C 30.1667,23.3333 30.8333,22.6667 31.5,22C 28.1667,21.6667 24.8333,21.3333 21.5,21C 22.056,20.6174 22.3893,20.1174 22.5,19.5C 22.8333,19.5 23.1667,19.5 23.5,19.5C 25.7638,18.7814 28.0971,18.448 30.5,18.5C 31.0522,16.6693 31.0522,15.0026 30.5,13.5C 31.6888,12.5713 33.0222,12.238 34.5,12.5 Z"/></g>
<g><path style="opacity:1" fill="#955427" d="M 78.5,11.5 C 75.1475,12.7074 71.8142,12.7074 68.5,11.5C 65.8774,9.73452 62.8774,9.06786 59.5,9.5C 50.7388,7.44601 42.4055,8.44601 34.5,12.5C 33.0222,12.238 31.6888,12.5713 30.5,13.5C 31.0522,15.0026 31.0522,16.6693 30.5,18.5C 28.0971,18.448 25.7638,18.7814 23.5,19.5C 25.4293,17.8518 27.4293,16.1851 29.5,14.5C 29.1667,14.1667 28.8333,13.8333 28.5,13.5C 26.5,14.8333 24.5,16.1667 22.5,17.5C 21.2267,18.2565 21.2267,18.9232 22.5,19.5C 22.3893,20.1174 22.056,20.6174 21.5,21C 24.8333,21.3333 28.1667,21.6667 31.5,22C 30.8333,22.6667 30.1667,23.3333 29.5,24C 25.5,24.3333 21.5,24.6667 17.5,25C 20.2263,25.1816 22.8929,25.6816 25.5,26.5C 22.2152,27.3236 18.8818,27.8236 15.5,28C 17.9005,28.1858 20.2338,28.6858 22.5,29.5C 18.1233,30.2223 13.7899,30.8889 9.5,31.5C 11.0751,27.9219 13.0751,24.5886 15.5,21.5C 34.0607,2.77401 55.0607,-0.559321 78.5,11.5 Z"/></g>
<g><path style="opacity:1" fill="#ba722e" d="M 23.5,19.5 C 23.1667,19.5 22.8333,19.5 22.5,19.5C 21.2267,18.9232 21.2267,18.2565 22.5,17.5C 24.5,16.1667 26.5,14.8333 28.5,13.5C 28.8333,13.8333 29.1667,14.1667 29.5,14.5C 27.4293,16.1851 25.4293,17.8518 23.5,19.5 Z"/></g>
<g><path style="opacity:1" fill="#e5b042" d="M 61.5,19.5 C 61.9175,20.2216 62.5842,20.7216 63.5,21C 61.6627,22.9525 59.3294,23.9525 56.5,24C 55.0216,26.0569 53.0216,27.3902 50.5,28C 45.4565,29.1775 40.4565,30.5108 35.5,32C 32.336,34.9054 30.336,38.4054 29.5,42.5C 30.5,42.5 31.5,42.5 32.5,42.5C 33.0085,46.7359 34.0085,50.7359 35.5,54.5C 35.5,55.1667 35.8333,55.5 36.5,55.5C 37.4177,59.7516 40.0844,62.4183 44.5,63.5C 45.6517,66.1062 45.8184,68.7728 45,71.5C 40.4508,74.2583 37.6175,78.2583 36.5,83.5C 35.609,84.1098 34.609,84.4431 33.5,84.5C 29.2111,82.0456 25.7111,78.7123 23,74.5C 16.2605,63.7661 14.9272,52.4327 19,40.5C 27.9052,22.9643 42.0718,15.9643 61.5,19.5 Z"/></g>
<g><path style="opacity:1" fill="#dcaa3f" d="M 61.5,19.5 C 75.544,23.3774 84.3773,32.3774 88,46.5C 90.9776,61.0229 86.811,72.6896 75.5,81.5C 74.6799,79.8599 73.8466,78.1932 73,76.5C 68.3792,73.7102 64.2126,70.3769 60.5,66.5C 63.3366,66.7294 66.3366,66.896 69.5,67C 70.0465,67.9246 70.7132,68.7579 71.5,69.5C 73.3813,67.2663 75.7147,65.933 78.5,65.5C 78.2011,67.604 78.5344,69.604 79.5,71.5C 80.8079,68.2937 81.4746,64.9604 81.5,61.5C 82.5,61.5 83.5,61.5 84.5,61.5C 84.6495,60.448 84.4828,59.448 84,58.5C 79.749,54.1241 74.5823,51.4574 68.5,50.5C 67.8302,52.2914 67.1635,53.9581 66.5,55.5C 66.3359,52.8127 66.5026,50.146 67,47.5C 70.154,44.5504 70.3206,41.3837 67.5,38C 57.4308,34.9503 47.4308,34.7836 37.5,37.5C 34.6913,37.5878 33.358,39.0878 33.5,42C 33.6995,44.399 34.6995,46.399 36.5,48C 35.7135,50.0989 35.3801,52.2655 35.5,54.5C 34.0085,50.7359 33.0085,46.7359 32.5,42.5C 31.5,42.5 30.5,42.5 29.5,42.5C 30.336,38.4054 32.336,34.9054 35.5,32C 40.4565,30.5108 45.4565,29.1775 50.5,28C 53.0216,27.3902 55.0216,26.0569 56.5,24C 59.3294,23.9525 61.6627,22.9525 63.5,21C 62.5842,20.7216 61.9175,20.2216 61.5,19.5 Z"/></g>
<g><path style="opacity:1" fill="#98592d" d="M 88.5,14.5 C 91.5725,16.5691 93.9059,19.2358 95.5,22.5C 94.5178,21.8592 93.5178,21.1925 92.5,20.5C 92.1667,20.8333 91.8333,21.1667 91.5,21.5C 93.5616,25.2035 95.5616,28.8702 97.5,32.5C 93.4862,32.6655 89.4862,32.4988 85.5,32C 84.8366,30.4815 83.8366,29.3149 82.5,28.5C 84.8337,27.8763 87.1671,27.043 89.5,26C 85.5,25.6667 81.5,25.3333 77.5,25C 75.6707,23.8867 74.8374,22.3867 75,20.5C 79.6413,22.8868 84.1413,22.8868 88.5,20.5C 89.7562,20.5386 90.7562,20.0386 91.5,19C 89.8588,17.871 88.8588,16.371 88.5,14.5 Z"/></g>
<g><path style="opacity:1" fill="#c2944a" d="M 21.5,11.5 C 19.5389,13.9635 17.3722,16.2968 15,18.5C 14.2599,19.7494 14.4265,20.7494 15.5,21.5C 13.0751,24.5886 11.0751,27.9219 9.5,31.5C 9.16667,31.5 8.83333,31.5 8.5,31.5C 8.63101,30.7611 8.46434,30.0944 8,29.5C 6.59524,30.7305 5.42857,32.0639 4.5,33.5C 4.5,32.8333 4.5,32.1667 4.5,31.5C 8.00444,22.9956 13.6711,16.3289 21.5,11.5 Z"/></g>
<g><path style="opacity:1" fill="#ba9063" d="M 98.5,26.5 C 101.496,29.4974 103.163,33.164 103.5,37.5C 101.262,34.1292 99.595,30.4625 98.5,26.5 Z"/></g>
<g><path style="opacity:1" fill="#dad9d8" d="M -0.5,-0.5 C 17.1667,-0.5 34.8333,-0.5 52.5,-0.5C 52.5,-0.166667 52.5,0.166667 52.5,0.5C 48.351,-0.0803144 44.6843,0.586352 41.5,2.5C 40.8333,2.5 40.1667,2.5 39.5,2.5C 38.5,2.5 37.5,2.5 36.5,2.5C 25.045,0.811975 13.3783,0.145308 1.5,0.5C 1.33347,12.1714 1.50014,23.8381 2,35.5C 2.20041,33.6803 3.03374,32.347 4.5,31.5C 4.5,32.1667 4.5,32.8333 4.5,33.5C 3.65536,34.6715 2.98869,36.0048 2.5,37.5C 1.5,39.5 0.5,41.5 -0.5,43.5C -0.5,28.8333 -0.5,14.1667 -0.5,-0.5 Z"/></g>
<g><path style="opacity:1" fill="#cecccb" d="M 62.5,0.5 C 77.4928,1.09496 92.4928,1.4283 107.5,1.5C 107.5,18.8333 107.5,36.1667 107.5,53.5C 107.167,53.5 106.833,53.5 106.5,53.5C 106.802,50.9407 106.468,48.6074 105.5,46.5C 105.405,44.2143 104.738,42.2143 103.5,40.5C 103.5,39.5 103.5,38.5 103.5,37.5C 104.117,37.6107 104.617,37.944 105,38.5C 105.833,26.5115 106.333,14.5115 106.5,2.5C 94.8286,2.33347 83.1619,2.50014 71.5,3C 74.4572,3.68698 76.7906,5.18698 78.5,7.5C 74.4417,5.8325 70.4417,4.16583 66.5,2.5C 65.1667,1.83333 63.8333,1.16667 62.5,0.5 Z"/></g>
<g><path style="opacity:1" fill="#2c180a" d="M 82.5,28.5 C 83.8366,29.3149 84.8366,30.4815 85.5,32C 89.4862,32.4988 93.4862,32.6655 97.5,32.5C 96.7205,33.9204 95.7205,34.7537 94.5,35C 96.2523,38.6608 97.2523,42.4941 97.5,46.5C 96.5,47.1667 95.5,47.8333 94.5,48.5C 93.2058,47.7101 92.0391,46.7101 91,45.5C 90.6667,45.8333 90.3333,46.1667 90,46.5C 88.7533,40.0067 85.92,34.34 81.5,29.5C 81.6236,28.8933 81.9569,28.56 82.5,28.5 Z"/></g>
<g><path style="opacity:1" fill="#965934" d="M 37.5,37.5 C 38.9778,37.238 40.3112,37.5713 41.5,38.5C 39.585,40.0712 38.585,42.0712 38.5,44.5C 37.5,44.5 36.5,44.5 35.5,44.5C 35.1658,41.812 35.8325,39.4786 37.5,37.5 Z"/></g>
<g><path style="opacity:1" fill="#a3652e" d="M 8.5,31.5 C 8.83333,31.5 9.16667,31.5 9.5,31.5C 13.0208,32.1663 16.6875,32.8329 20.5,33.5C 17.9028,38.6355 13.5694,40.8022 7.5,40C 10.5,40.3333 13.5,40.6667 16.5,41C 14.3766,42.1937 12.0432,42.8603 9.5,43C 11.4727,43.4955 13.4727,43.6621 15.5,43.5C 15.7678,45.099 15.4345,46.4324 14.5,47.5C 14.5,46.5 14.5,45.5 14.5,44.5C 11.8333,44.5 9.16667,44.5 6.5,44.5C 5.67081,49.453 5.33748,54.453 5.5,59.5C 9.12328,59.3508 9.45661,58.1842 6.5,56C 7.23348,54.2341 7.56681,52.4008 7.5,50.5C 9.83333,50.5 12.1667,50.5 14.5,50.5C 14.5,52.8333 14.5,55.1667 14.5,57.5C 15.4614,59.2646 15.7947,61.2646 15.5,63.5C 4.83333,63.8333 4.83333,64.1667 15.5,64.5C 15.5,65.5 15.5,66.5 15.5,67.5C 13.5,67.1667 11.5,66.8333 9.5,66.5C 9.51909,68.0603 9.85242,69.5603 10.5,71C 9.94442,72.0111 9.27775,72.8444 8.5,73.5C 1.97255,59.5465 1.97255,45.5465 8.5,31.5 Z"/></g>
<g><path style="opacity:1" fill="#3c2c12" d="M 37.5,37.5 C 35.8325,39.4786 35.1658,41.812 35.5,44.5C 36.5,44.5 37.5,44.5 38.5,44.5C 38.1667,46.5 37.8333,48.5 37.5,50.5C 36.5489,51.9187 36.2155,53.5853 36.5,55.5C 35.8333,55.5 35.5,55.1667 35.5,54.5C 35.3801,52.2655 35.7135,50.0989 36.5,48C 34.6995,46.399 33.6995,44.399 33.5,42C 33.358,39.0878 34.6913,37.5878 37.5,37.5 Z"/></g>
<g><path style="opacity:1" fill="#c49557" d="M 61.5,42.5 C 68.6143,52.6584 66.281,59.3251 54.5,62.5C 49.1635,62.7491 44.1635,61.5825 39.5,59C 37.8207,56.4355 37.154,53.6021 37.5,50.5C 37.8333,48.5 38.1667,46.5 38.5,44.5C 39.8333,43.8333 40.8333,42.8333 41.5,41.5C 44.8879,39.946 48.0546,40.2794 51,42.5C 54.5108,41.2173 58.0108,41.2173 61.5,42.5 Z"/></g>
<g><path style="opacity:1" fill="#78491f" d="M 97.5,32.5 C 98.4942,35.1237 99.4942,37.7903 100.5,40.5C 100.913,43.3202 99.913,45.3202 97.5,46.5C 97.2523,42.4941 96.2523,38.6608 94.5,35C 95.7205,34.7537 96.7205,33.9204 97.5,32.5 Z"/></g>
<g><path style="opacity:1" fill="#dcab45" d="M 8.5,31.5 C 1.97255,45.5465 1.97255,59.5465 8.5,73.5C 10.9401,80.8396 15.2734,87.0063 21.5,92C 22.816,92.5281 23.4827,92.0281 23.5,90.5C 24.2389,90.369 24.9056,90.5357 25.5,91C 22.2944,95.9591 23.2944,99.9591 28.5,103C 29.4368,103.692 30.1034,103.525 30.5,102.5C 33.4243,102.898 35.7576,104.231 37.5,106.5C 35.4352,106.483 33.4352,106.15 31.5,105.5C 26.8955,103.895 23.5622,100.895 21.5,96.5C 18.1667,92.5 14.5,88.8333 10.5,85.5C 9.83333,84.8333 9.16667,84.1667 8.5,83.5C 7.86776,79.5686 6.20109,76.2353 3.5,73.5C 2.54885,72.0813 2.21552,70.4147 2.5,68.5C -0.132419,58.1921 -0.132419,47.8588 2.5,37.5C 2.98869,36.0048 3.65536,34.6715 4.5,33.5C 5.42857,32.0639 6.59524,30.7305 8,29.5C 8.46434,30.0944 8.63101,30.7611 8.5,31.5 Z"/></g>
<g><path style="opacity:1" fill="#201b15" d="M 41.5,47.5 C 46.1585,47.0146 47.4919,48.848 45.5,53C 44.2068,53.49 42.8734,53.6567 41.5,53.5C 41.5,51.5 41.5,49.5 41.5,47.5 Z"/></g>
<g><path style="opacity:1" fill="#201a12" d="M 56.5,47.5 C 60.485,47.6294 61.8183,49.4628 60.5,53C 58.8659,53.4935 57.1992,53.6602 55.5,53.5C 55.3253,51.3792 55.6586,49.3792 56.5,47.5 Z"/></g>
<g><path style="opacity:1" fill="#ddac42" d="M 95.5,22.5 C 97.2624,23.2623 98.2624,24.5956 98.5,26.5C 99.595,30.4625 101.262,34.1292 103.5,37.5C 103.5,38.5 103.5,39.5 103.5,40.5C 104.341,47.4648 104.674,54.4648 104.5,61.5C 102.361,68.7372 100.027,76.0705 97.5,83.5C 96.1667,85.1667 94.8333,86.8333 93.5,88.5C 91.1667,90.1667 89.1667,92.1667 87.5,94.5C 87.1667,94.5 86.8333,94.5 86.5,94.5C 85.209,94.7373 84.209,94.404 83.5,93.5C 89.0077,88.6682 93.3411,83.0015 96.5,76.5C 102.704,65.0032 104.037,53.0032 100.5,40.5C 99.4942,37.7903 98.4942,35.1237 97.5,32.5C 95.5616,28.8702 93.5616,25.2035 91.5,21.5C 91.8333,21.1667 92.1667,20.8333 92.5,20.5C 93.5178,21.1925 94.5178,21.8592 95.5,22.5 Z"/></g>
<g><path style="opacity:1" fill="#d38b3c" d="M 14.5,47.5 C 12.076,47.1924 9.74269,47.5258 7.5,48.5C 9.96877,49.1681 12.3021,49.8347 14.5,50.5C 12.1667,50.5 9.83333,50.5 7.5,50.5C 7.56681,52.4008 7.23348,54.2341 6.5,56C 9.45661,58.1842 9.12328,59.3508 5.5,59.5C 5.33748,54.453 5.67081,49.453 6.5,44.5C 9.16667,44.5 11.8333,44.5 14.5,44.5C 14.5,45.5 14.5,46.5 14.5,47.5 Z"/></g>
<g><path style="opacity:1" fill="#7b624f" d="M 2.5,37.5 C -0.132419,47.8588 -0.132419,58.1921 2.5,68.5C 1.5,67.1667 0.5,65.8333 -0.5,64.5C -0.5,57.5 -0.5,50.5 -0.5,43.5C 0.5,41.5 1.5,39.5 2.5,37.5 Z"/></g>
<g><path style="opacity:1" fill="#c98d3c" d="M 103.5,40.5 C 104.738,42.2143 105.405,44.2143 105.5,46.5C 105.821,51.6946 105.487,56.6946 104.5,61.5C 104.674,54.4648 104.341,47.4648 103.5,40.5 Z"/></g>
<g><path style="opacity:1" fill="#b78035" d="M 98.5,50.5 C 99.7479,51.3339 100.415,52.6672 100.5,54.5C 100.37,56.3749 100.037,58.2082 99.5,60C 99.1639,61.0299 98.4972,61.5299 97.5,61.5C 96.701,58.5701 96.3677,55.5701 96.5,52.5C 95.1266,52.6567 93.7932,52.49 92.5,52C 94.4357,51.187 96.4357,50.687 98.5,50.5 Z"/></g>
<g><path style="opacity:1" fill="#fdfdfd" d="M 106.5,53.5 C 106.833,53.5 107.167,53.5 107.5,53.5C 107.5,72.8333 107.5,92.1667 107.5,111.5C 71.5,111.5 35.5,111.5 -0.5,111.5C -0.5,110.167 -0.5,108.833 -0.5,107.5C 13.5099,107.5 27.5099,107.834 41.5,108.5C 46.1667,108.5 50.8333,108.5 55.5,108.5C 71.9916,109.497 88.6583,109.83 105.5,109.5C 105.806,93.8326 106.139,78.1659 106.5,62.5C 106.5,59.5 106.5,56.5 106.5,53.5 Z"/></g>
<g><path style="opacity:1" fill="#623922" d="M 49.5,53.5 C 52.2048,53.3802 52.8715,54.3802 51.5,56.5C 53.967,58.2857 53.8004,59.9524 51,61.5C 48.1996,59.9524 48.033,58.2857 50.5,56.5C 49.8728,55.5832 49.5394,54.5832 49.5,53.5 Z"/></g>
<g><path style="opacity:1" fill="#ecb945" d="M 60.5,66.5 C 59.1882,65.8549 58.1882,64.8549 57.5,63.5C 61.8021,62.1928 64.8021,59.5262 66.5,55.5C 67.1635,53.9581 67.8302,52.2914 68.5,50.5C 74.5823,51.4574 79.749,54.1241 84,58.5C 84.4828,59.448 84.6495,60.448 84.5,61.5C 83.5,61.5 82.5,61.5 81.5,61.5C 81.4746,64.9604 80.8079,68.2937 79.5,71.5C 78.5344,69.604 78.2011,67.604 78.5,65.5C 75.7147,65.933 73.3813,67.2663 71.5,69.5C 70.7132,68.7579 70.0465,67.9246 69.5,67C 66.3366,66.896 63.3366,66.7294 60.5,66.5 Z"/></g>
<g><path style="opacity:1" fill="#443017" d="M 66.5,55.5 C 64.8021,59.5262 61.8021,62.1928 57.5,63.5C 58.1882,64.8549 59.1882,65.8549 60.5,66.5C 64.2126,70.3769 68.3792,73.7102 73,76.5C 73.8466,78.1932 74.6799,79.8599 75.5,81.5C 75.5,81.8333 75.5,82.1667 75.5,82.5C 75.7373,83.791 75.404,84.791 74.5,85.5C 73.8966,79.2019 70.5633,76.8685 64.5,78.5C 65.5896,79.6086 65.5896,80.6086 64.5,81.5C 62.9288,79.585 60.9288,78.585 58.5,78.5C 58.811,77.5222 59.4777,76.8555 60.5,76.5C 65.3966,77.0761 66.3966,75.2427 63.5,71C 62.1667,71 60.8333,71 59.5,71C 60.4506,70.2825 60.6172,69.4491 60,68.5C 58.2502,66.576 56.4169,64.9093 54.5,63.5C 54.5,63.1667 54.5,62.8333 54.5,62.5C 66.281,59.3251 68.6143,52.6584 61.5,42.5C 55.1708,34.8876 48.5041,34.5543 41.5,41.5C 40.8333,42.8333 39.8333,43.8333 38.5,44.5C 38.585,42.0712 39.585,40.0712 41.5,38.5C 40.3112,37.5713 38.9778,37.238 37.5,37.5C 47.4308,34.7836 57.4308,34.9503 67.5,38C 70.3206,41.3837 70.154,44.5504 67,47.5C 66.5026,50.146 66.3359,52.8127 66.5,55.5 Z"/></g>
<g><path style="opacity:1" fill="#ad5f3e" d="M 61.5,39.5 C 66.2102,37.891 67.5435,39.5577 65.5,44.5C 63.9178,42.9853 62.5845,41.3186 61.5,39.5 Z"/></g>
<g><path style="opacity:1" fill="#916733" d="M 61.5,42.5 C 58.0108,41.2173 54.5108,41.2173 51,42.5C 48.0546,40.2794 44.8879,39.946 41.5,41.5C 48.5041,34.5543 55.1708,34.8876 61.5,42.5 Z"/></g>
<g><path style="opacity:1" fill="#9b5d2a" d="M 100.5,40.5 C 104.037,53.0032 102.704,65.0032 96.5,76.5C 96.2178,75.2223 95.5511,74.2223 94.5,73.5C 95.7967,71.0071 96.7967,68.3404 97.5,65.5C 97.3764,64.8933 97.0431,64.56 96.5,64.5C 96.5569,63.391 96.8902,62.391 97.5,61.5C 98.4972,61.5299 99.1639,61.0299 99.5,60C 100.037,58.2082 100.37,56.3749 100.5,54.5C 100.415,52.6672 99.7479,51.3339 98.5,50.5C 97.1667,49.8333 95.8333,49.1667 94.5,48.5C 95.5,47.8333 96.5,47.1667 97.5,46.5C 99.913,45.3202 100.913,43.3202 100.5,40.5 Z"/></g>
<g><path style="opacity:1" fill="#d99a3f" d="M 14.5,57.5 C 14.6309,58.3764 14.2975,59.0431 13.5,59.5C 12.6043,58.4937 11.9377,58.4937 11.5,59.5C 15.4828,61.3096 15.1494,62.3096 10.5,62.5C 5.23402,61.8007 5.23402,61.134 10.5,60.5C 10.6126,57.9512 9.94592,55.6179 8.5,53.5C 10.0453,52.5481 11.712,52.2148 13.5,52.5C 13.2155,54.4147 13.5489,56.0813 14.5,57.5 Z"/></g>
<g><path style="opacity:1" fill="#512f12" d="M 96.5,64.5 C 97.0431,64.56 97.3764,64.8933 97.5,65.5C 96.7967,68.3404 95.7967,71.0071 94.5,73.5C 94.1667,73.5 93.8333,73.5 93.5,73.5C 91.7496,72.1302 89.7496,71.1302 87.5,70.5C 87.9478,65.007 90.9478,63.007 96.5,64.5 Z"/></g>
<g><path style="opacity:1" fill="#9b7752" d="M 105.5,46.5 C 106.468,48.6074 106.802,50.9407 106.5,53.5C 106.5,56.5 106.5,59.5 106.5,62.5C 104.757,65.4952 103.757,68.8285 103.5,72.5C 102.233,76.5827 100.233,80.2494 97.5,83.5C 100.027,76.0705 102.361,68.7372 104.5,61.5C 105.487,56.6946 105.821,51.6946 105.5,46.5 Z"/></g>
<g><path style="opacity:1" fill="#f9f9f9" d="M -0.5,64.5 C 0.5,65.8333 1.5,67.1667 2.5,68.5C 2.21552,70.4147 2.54885,72.0813 3.5,73.5C 4.13224,77.4314 5.79891,80.7647 8.5,83.5C 9.16667,84.1667 9.83333,84.8333 10.5,85.5C 13.1667,90.1667 16.8333,93.8333 21.5,96.5C 23.5622,100.895 26.8955,103.895 31.5,105.5C 21.0131,106.494 10.3464,106.828 -0.5,106.5C -0.5,92.5 -0.5,78.5 -0.5,64.5 Z"/></g>
<g><path style="opacity:1" fill="#ecd1a4" d="M 50.5,64.5 C 50.5,67.5 50.5,70.5 50.5,73.5C 50.1667,74.1667 49.8333,74.8333 49.5,75.5C 48.8333,75.5 48.1667,75.5 47.5,75.5C 47.5,71.8333 47.5,68.1667 47.5,64.5C 48.5,64.5 49.5,64.5 50.5,64.5 Z"/></g>
<g><path style="opacity:1" fill="#c19456" d="M 54.5,63.5 C 56.4169,64.9093 58.2502,66.576 60,68.5C 60.6172,69.4491 60.4506,70.2825 59.5,71C 60.8333,71 62.1667,71 63.5,71C 66.3966,75.2427 65.3966,77.0761 60.5,76.5C 59.4777,76.8555 58.811,77.5222 58.5,78.5C 56.8333,78.5 55.1667,78.5 53.5,78.5C 53.0472,77.5416 52.3805,76.7083 51.5,76C 54.2292,75.9953 56.2292,74.8287 57.5,72.5C 57.1667,72.1667 56.8333,71.8333 56.5,71.5C 54.8211,73.1045 52.8211,73.7711 50.5,73.5C 50.5,70.5 50.5,67.5 50.5,64.5C 51.9587,64.5674 53.2921,64.2341 54.5,63.5 Z"/></g>
<g><path style="opacity:1" fill="#fbfafa" d="M 103.5,72.5 C 104.495,84.3217 104.828,96.3217 104.5,108.5C 94.4944,108.666 84.4944,108.5 74.5,108C 73.8333,107.667 73.1667,107.333 72.5,107C 74.6526,106.901 76.3192,106.067 77.5,104.5C 81.1543,101.841 84.1543,98.5078 86.5,94.5C 86.8333,94.5 87.1667,94.5 87.5,94.5C 90.5,93.5 92.5,91.5 93.5,88.5C 94.8333,86.8333 96.1667,85.1667 97.5,83.5C 100.233,80.2494 102.233,76.5827 103.5,72.5 Z"/></g>
<g><path style="opacity:1" fill="#b39273" d="M 3.5,73.5 C 6.20109,76.2353 7.86776,79.5686 8.5,83.5C 5.79891,80.7647 4.13224,77.4314 3.5,73.5 Z"/></g>
<g><path style="opacity:1" fill="#6a4c26" d="M 53.5,78.5 C 51.7179,79.7196 49.7179,80.3862 47.5,80.5C 47.3915,78.4862 48.0582,76.8195 49.5,75.5C 49.8333,74.8333 50.1667,74.1667 50.5,73.5C 52.8211,73.7711 54.8211,73.1045 56.5,71.5C 56.8333,71.8333 57.1667,72.1667 57.5,72.5C 56.2292,74.8287 54.2292,75.9953 51.5,76C 52.3805,76.7083 53.0472,77.5416 53.5,78.5 Z"/></g>
<g><path style="opacity:1" fill="#251d13" d="M 47.5,75.5 C 48.1667,75.5 48.8333,75.5 49.5,75.5C 48.0582,76.8195 47.3915,78.4862 47.5,80.5C 49.7179,80.3862 51.7179,79.7196 53.5,78.5C 55.1667,78.5 56.8333,78.5 58.5,78.5C 55.9154,79.0022 53.582,80.1689 51.5,82C 48.1961,83.0419 46.0295,81.8753 45,78.5C 43.2739,79.5762 41.4406,79.7429 39.5,79C 42.5651,78.6317 45.2318,77.465 47.5,75.5 Z"/></g>
<g><path style="opacity:1" fill="#261307" d="M 25.5,80.5 C 23.5395,82.1128 21.2061,83.1128 18.5,83.5C 15.6934,80.5735 13.36,77.2402 11.5,73.5C 14.1062,72.3483 16.7728,72.1816 19.5,73C 21.3336,75.6633 23.3336,78.1633 25.5,80.5 Z"/></g>
<g><path style="opacity:1" fill="#5d4428" d="M 37.5,50.5 C 37.154,53.6021 37.8207,56.4355 39.5,59C 44.1635,61.5825 49.1635,62.7491 54.5,62.5C 54.5,62.8333 54.5,63.1667 54.5,63.5C 53.2921,64.2341 51.9587,64.5674 50.5,64.5C 49.5,64.5 48.5,64.5 47.5,64.5C 47.5,68.1667 47.5,71.8333 47.5,75.5C 45.2318,77.465 42.5651,78.6317 39.5,79C 41.4406,79.7429 43.2739,79.5762 45,78.5C 46.0295,81.8753 48.1961,83.0419 51.5,82C 53.582,80.1689 55.9154,79.0022 58.5,78.5C 60.9288,78.585 62.9288,79.585 64.5,81.5C 65.5896,80.6086 65.5896,79.6086 64.5,78.5C 70.5633,76.8685 73.8966,79.2019 74.5,85.5C 73.5084,85.3284 72.8417,85.6618 72.5,86.5C 60.792,83.0876 48.9586,82.7542 37,85.5C 36.5357,84.9056 36.369,84.2389 36.5,83.5C 37.6175,78.2583 40.4508,74.2583 45,71.5C 45.8184,68.7728 45.6517,66.1062 44.5,63.5C 40.0844,62.4183 37.4177,59.7516 36.5,55.5C 36.2155,53.5853 36.5489,51.9187 37.5,50.5 Z"/></g>
<g><path style="opacity:1" fill="#381e08" d="M 25.5,80.5 C 27.8333,82.1667 29.8333,84.1667 31.5,86.5C 29.0721,87.2122 26.7388,88.2122 24.5,89.5C 23.1482,88.4756 21.8149,87.4756 20.5,86.5C 19.8333,85.5 19.1667,84.5 18.5,83.5C 21.2061,83.1128 23.5395,82.1128 25.5,80.5 Z"/></g>
<g><path style="opacity:1" fill="#9e7649" d="M 10.5,85.5 C 14.5,88.8333 18.1667,92.5 21.5,96.5C 16.8333,93.8333 13.1667,90.1667 10.5,85.5 Z"/></g>
<g><path style="opacity:1" fill="#1d1006" d="M 87.5,70.5 C 89.7496,71.1302 91.7496,72.1302 93.5,73.5C 90.9612,80.9063 86.2946,86.573 79.5,90.5C 77.1246,89.0983 74.7912,87.765 72.5,86.5C 72.8417,85.6618 73.5084,85.3284 74.5,85.5C 75.404,84.791 75.7373,83.791 75.5,82.5C 81.1639,80.1694 85.1639,76.1694 87.5,70.5 Z"/></g>
<g><path style="opacity:1" fill="#d69539" d="M 73.5,89.5 C 72.325,89.281 71.325,89.6143 70.5,90.5C 76.518,98.1438 74.518,102.477 64.5,103.5C 53.9689,106.694 43.6356,105.861 33.5,101C 30.7651,98.4654 28.7651,95.6321 27.5,92.5C 27.369,91.7611 27.5357,91.0944 28,90.5C 29.8121,89.0229 31.6455,87.6896 33.5,86.5C 42.4946,85.7918 51.4946,85.6251 60.5,86C 65.1466,86.5384 69.48,87.7051 73.5,89.5 Z"/></g>
<g><path style="opacity:1" fill="#79481e" d="M 93.5,73.5 C 93.8333,73.5 94.1667,73.5 94.5,73.5C 95.5511,74.2223 96.2178,75.2223 96.5,76.5C 93.3411,83.0015 89.0077,88.6682 83.5,93.5C 81.5956,93.2624 80.2623,92.2624 79.5,90.5C 86.2946,86.573 90.9612,80.9063 93.5,73.5 Z"/></g>
<g><path style="opacity:1" fill="#ecba49" d="M 64.5,103.5 C 53.2535,106.114 42.7535,104.448 33,98.5C 32.3333,96.8333 32.3333,95.1667 33,93.5C 35.9696,91.5987 39.1363,90.0987 42.5,89C 50.222,88.1883 57.8887,88.5217 65.5,90C 67.0009,91.2515 68.6675,92.2515 70.5,93C 72.5763,94.8841 72.9097,97.0508 71.5,99.5C 68.9409,100.608 66.6076,101.941 64.5,103.5 Z"/></g>
<g><path style="opacity:1" fill="#b1742f" d="M 20.5,86.5 C 21.8149,87.4756 23.1482,88.4756 24.5,89.5C 26.7388,88.2122 29.0721,87.2122 31.5,86.5C 32.1667,86.5 32.8333,86.5 33.5,86.5C 31.6455,87.6896 29.8121,89.0229 28,90.5C 27.5357,91.0944 27.369,91.7611 27.5,92.5C 26.3065,92.9704 25.6399,93.9704 25.5,95.5C 26.0141,98.6773 27.6807,101.011 30.5,102.5C 30.1034,103.525 29.4368,103.692 28.5,103C 23.2944,99.9591 22.2944,95.9591 25.5,91C 24.9056,90.5357 24.2389,90.369 23.5,90.5C 21.3723,89.4625 20.3723,88.1292 20.5,86.5 Z"/></g>
<g><path style="opacity:1" fill="#b5a79d" d="M 93.5,88.5 C 92.5,91.5 90.5,93.5 87.5,94.5C 89.1667,92.1667 91.1667,90.1667 93.5,88.5 Z"/></g>
<g><path style="opacity:1" fill="#e9a73e" d="M 73.5,89.5 C 76.6565,91.1589 78.9899,93.6589 80.5,97C 79.5606,98.9439 78.2273,100.611 76.5,102C 66.5613,105.999 56.228,107.499 45.5,106.5C 42.8333,106.5 40.1667,106.5 37.5,106.5C 35.7576,104.231 33.4243,102.898 30.5,102.5C 27.6807,101.011 26.0141,98.6773 25.5,95.5C 25.6399,93.9704 26.3065,92.9704 27.5,92.5C 28.7651,95.6321 30.7651,98.4654 33.5,101C 43.6356,105.861 53.9689,106.694 64.5,103.5C 74.518,102.477 76.518,98.1438 70.5,90.5C 71.325,89.6143 72.325,89.281 73.5,89.5 Z"/></g>
<g><path style="opacity:1" fill="#fcf5e0" d="M 50.5,98.5 C 52.337,98.6395 52.6704,99.3061 51.5,100.5C 50.7025,100.043 50.3691,99.3764 50.5,98.5 Z"/></g>
<g><path style="opacity:1" fill="#fdf5e4" d="M 54.5,92.5 C 60.4877,92.664 61.821,95.164 58.5,100C 53.6363,99.7743 52.303,97.2743 54.5,92.5 Z"/></g>
<g><path style="opacity:1" fill="#f2c868" d="M 55.5,94.5 C 56.5862,94.62 57.2528,95.2867 57.5,96.5C 57.1667,97.1667 56.8333,97.8333 56.5,98.5C 55.5713,97.3112 55.238,95.9778 55.5,94.5 Z"/></g>
<g><path style="opacity:1" fill="#fdf6e5" d="M 44.5,92.5 C 46.1667,92.5 47.8333,92.5 49.5,92.5C 48.9475,94.9393 48.9475,97.2727 49.5,99.5C 47.8333,100.833 46.1667,100.833 44.5,99.5C 45.3829,98.452 46.0496,97.2853 46.5,96C 45.5705,94.9231 44.9038,93.7564 44.5,92.5 Z"/></g>
<g><path style="opacity:1" fill="#cac9c7" d="M 31.5,105.5 C 33.4352,106.15 35.4352,106.483 37.5,106.5C 38.8333,107.167 40.1667,107.833 41.5,108.5C 27.5099,107.834 13.5099,107.5 -0.5,107.5C -0.5,107.167 -0.5,106.833 -0.5,106.5C 10.3464,106.828 21.0131,106.494 31.5,105.5 Z"/></g>
<g><path style="opacity:1" fill="#c38837" d="M 36.5,83.5 C 36.369,84.2389 36.5357,84.9056 37,85.5C 48.9586,82.7542 60.792,83.0876 72.5,86.5C 74.7912,87.765 77.1246,89.0983 79.5,90.5C 80.2623,92.2624 81.5956,93.2624 83.5,93.5C 84.209,94.404 85.209,94.7373 86.5,94.5C 84.1543,98.5078 81.1543,101.841 77.5,104.5C 73.1376,105.372 68.8043,106.372 64.5,107.5C 57.9779,107.823 51.6446,107.49 45.5,106.5C 56.228,107.499 66.5613,105.999 76.5,102C 78.2273,100.611 79.5606,98.9439 80.5,97C 78.9899,93.6589 76.6565,91.1589 73.5,89.5C 69.48,87.7051 65.1466,86.5384 60.5,86C 51.4946,85.6251 42.4946,85.7918 33.5,86.5C 33.5,85.8333 33.5,85.1667 33.5,84.5C 34.609,84.4431 35.609,84.1098 36.5,83.5 Z"/></g>
<g><path style="opacity:1" fill="#a17b40" d="M 37.5,106.5 C 40.1667,106.5 42.8333,106.5 45.5,106.5C 51.6446,107.49 57.9779,107.823 64.5,107.5C 61.7131,108.477 58.7131,108.81 55.5,108.5C 50.8333,108.5 46.1667,108.5 41.5,108.5C 40.1667,107.833 38.8333,107.167 37.5,106.5 Z"/></g>
<g><path style="opacity:1" fill="#c8c6c3" d="M 106.5,62.5 C 106.139,78.1659 105.806,93.8326 105.5,109.5C 88.6583,109.83 71.9916,109.497 55.5,108.5C 58.7131,108.81 61.7131,108.477 64.5,107.5C 68.8043,106.372 73.1376,105.372 77.5,104.5C 76.3192,106.067 74.6526,106.901 72.5,107C 73.1667,107.333 73.8333,107.667 74.5,108C 84.4944,108.5 94.4944,108.666 104.5,108.5C 104.828,96.3217 104.495,84.3217 103.5,72.5C 103.757,68.8285 104.757,65.4952 106.5,62.5 Z"/></g>
</svg>
