<?xml version="1.0" encoding="UTF-8"?>
<!DOCTYPE svg PUBLIC "-//W3C//DTD SVG 1.1//EN" "http://www.w3.org/Graphics/SVG/1.1/DTD/svg11.dtd">
<svg xmlns="http://www.w3.org/2000/svg" version="1.1" width="128px" height="128px" style="shape-rendering:geometricPrecision; text-rendering:geometricPrecision; image-rendering:optimizeQuality; fill-rule:evenodd; clip-rule:evenodd" xmlns:xlink="http://www.w3.org/1999/xlink">
<g><path style="opacity:1" fill="#fefefe" d="M -0.5,-0.5 C 42.1667,-0.5 84.8333,-0.5 127.5,-0.5C 127.5,42.1667 127.5,84.8333 127.5,127.5C 84.8333,127.5 42.1667,127.5 -0.5,127.5C -0.5,84.8333 -0.5,42.1667 -0.5,-0.5 Z"/></g>
<g><path style="opacity:1" fill="#e2d6ea" d="M 43.5,34.5 C 43.5,33.8333 43.8333,33.5 44.5,33.5C 56.1667,33.5 67.8333,33.5 79.5,33.5C 74.4093,36.2039 69.076,38.5373 63.5,40.5C 57.0143,38.0422 50.3476,36.0422 43.5,34.5 Z"/></g>
<g><path style="opacity:1" fill="#c8a2c6" d="M 79.5,33.5 C 81.9971,34.1293 83.3304,35.796 83.5,38.5C 85.6762,43.5278 88.3429,48.1944 91.5,52.5C 92.5481,56.2644 93.8815,59.931 95.5,63.5C 84.7961,56.1539 74.1295,48.8206 63.5,41.5C 63.5,41.1667 63.5,40.8333 63.5,40.5C 69.076,38.5373 74.4093,36.2039 79.5,33.5 Z"/></g>
<g><path style="opacity:1" fill="#cac8e8" d="M 43.5,34.5 C 50.3476,36.0422 57.0143,38.0422 63.5,40.5C 63.5,40.8333 63.5,41.1667 63.5,41.5C 63.1667,41.5 62.8333,41.5 62.5,41.5C 51.8049,48.5104 41.1382,55.5104 30.5,62.5C 34.2887,52.922 38.6221,43.5887 43.5,34.5 Z"/></g>
<g><path style="opacity:1" fill="#9b90c0" d="M 62.5,41.5 C 62.5,56.1667 62.5,70.8333 62.5,85.5C 62.1667,85.5 61.8333,85.5 61.5,85.5C 51.4453,78.1161 41.112,71.1161 30.5,64.5C 30.5,63.8333 30.5,63.1667 30.5,62.5C 41.1382,55.5104 51.8049,48.5104 62.5,41.5 Z"/></g>
<g><path style="opacity:1" fill="#8168a0" d="M 62.5,41.5 C 62.8333,41.5 63.1667,41.5 63.5,41.5C 74.1295,48.8206 84.7961,56.1539 95.5,63.5C 95.5,63.8333 95.5,64.1667 95.5,64.5C 95.1667,64.5 94.8333,64.5 94.5,64.5C 83.8333,71.5 73.1667,78.5 62.5,85.5C 62.5,70.8333 62.5,56.1667 62.5,41.5 Z"/></g>
<g><path style="opacity:1" fill="#bebcbe" d="M 83.5,38.5 C 84.4959,38.4142 85.3292,38.7476 86,39.5C 87.8696,43.8957 89.7029,48.229 91.5,52.5C 88.3429,48.1944 85.6762,43.5278 83.5,38.5 Z"/></g>
<g><path style="opacity:1" fill="#c4c3c4" d="M 91.5,52.5 C 94.2933,56.4227 96.2933,60.756 97.5,65.5C 96.5577,69.5918 95.3911,73.5918 94,77.5C 92.629,80.2661 90.7957,82.5994 88.5,84.5C 91.9464,78.2633 94.2797,71.5966 95.5,64.5C 95.5,64.1667 95.5,63.8333 95.5,63.5C 93.8815,59.931 92.5481,56.2644 91.5,52.5 Z"/></g>
<g><path style="opacity:1" fill="#e9e9e9" d="M 44.5,33.5 C 57.6603,32.3396 70.9936,32.173 84.5,33C 89.7304,41.961 94.5638,51.1277 99,60.5C 99.6667,63.5 99.6667,66.5 99,69.5C 95.1998,77.8845 91.1998,86.2179 87,94.5C 85.5806,95.4601 84.0806,96.2935 82.5,97C 69.8333,97.6667 57.1667,97.6667 44.5,97C 38.641,86.949 33.3077,76.6156 28.5,66C 29.0848,64.6976 29.7515,63.531 30.5,62.5C 30.5,63.1667 30.5,63.8333 30.5,64.5C 34.7382,74.6453 39.7382,84.312 45.5,93.5C 45.5,94.1667 45.8333,94.5 46.5,94.5C 51.9597,95.8291 57.793,96.4958 64,96.5C 69.8333,96.3333 75.6667,96.1667 81.5,96C 85.497,93.1716 87.8303,89.3383 88.5,84.5C 90.7957,82.5994 92.629,80.2661 94,77.5C 95.3911,73.5918 96.5577,69.5918 97.5,65.5C 96.2933,60.756 94.2933,56.4227 91.5,52.5C 89.7029,48.229 87.8696,43.8957 86,39.5C 85.3292,38.7476 84.4959,38.4142 83.5,38.5C 83.3304,35.796 81.9971,34.1293 79.5,33.5C 67.8333,33.5 56.1667,33.5 44.5,33.5 Z"/></g>
<g><path style="opacity:1" fill="#793973" d="M 61.5,86.5 C 62.8734,86.3433 64.2068,86.51 65.5,87C 70.1918,88.7131 74.5252,90.8797 78.5,93.5C 67.8333,93.5 57.1667,93.5 46.5,93.5C 51.0387,90.4 56.0387,88.0667 61.5,86.5 Z"/></g>
<g><path style="opacity:1" fill="#9b999b" d="M 94.5,64.5 C 94.8333,64.5 95.1667,64.5 95.5,64.5C 94.2797,71.5966 91.9464,78.2633 88.5,84.5C 86.1372,87.3819 84.1372,90.5486 82.5,94C 70.5046,94.4999 58.5046,94.6665 46.5,94.5C 45.8333,94.5 45.5,94.1667 45.5,93.5C 45.8333,93.5 46.1667,93.5 46.5,93.5C 57.1667,93.5 67.8333,93.5 78.5,93.5C 79.675,93.719 80.675,93.3857 81.5,92.5C 86.4085,83.3544 90.7418,74.021 94.5,64.5 Z"/></g>
<g><path style="opacity:1" fill="#7d4576" d="M 94.5,64.5 C 90.7418,74.021 86.4085,83.3544 81.5,92.5C 80.675,93.3857 79.675,93.719 78.5,93.5C 74.5252,90.8797 70.1918,88.7131 65.5,87C 64.2068,86.51 62.8734,86.3433 61.5,86.5C 61.5,86.1667 61.5,85.8333 61.5,85.5C 61.8333,85.5 62.1667,85.5 62.5,85.5C 73.1667,78.5 83.8333,71.5 94.5,64.5 Z"/></g>
<g><path style="opacity:1" fill="#88739f" d="M 30.5,64.5 C 41.112,71.1161 51.4453,78.1161 61.5,85.5C 61.5,85.8333 61.5,86.1667 61.5,86.5C 56.0387,88.0667 51.0387,90.4 46.5,93.5C 46.1667,93.5 45.8333,93.5 45.5,93.5C 39.7382,84.312 34.7382,74.6453 30.5,64.5 Z"/></g>
<g><path style="opacity:1" fill="#c6c7c6" d="M 88.5,84.5 C 87.8303,89.3383 85.497,93.1716 81.5,96C 75.6667,96.1667 69.8333,96.3333 64,96.5C 57.793,96.4958 51.9597,95.8291 46.5,94.5C 58.5046,94.6665 70.5046,94.4999 82.5,94C 84.1372,90.5486 86.1372,87.3819 88.5,84.5 Z"/></g>
</svg>
