<?xml version="1.0" encoding="UTF-8"?>
<!DOCTYPE svg PUBLIC "-//W3C//DTD SVG 1.1//EN" "http://www.w3.org/Graphics/SVG/1.1/DTD/svg11.dtd">
<svg xmlns="http://www.w3.org/2000/svg" version="1.1" width="182px" height="200px" style="shape-rendering:geometricPrecision; text-rendering:geometricPrecision; image-rendering:optimizeQuality; fill-rule:evenodd; clip-rule:evenodd" xmlns:xlink="http://www.w3.org/1999/xlink">
<g><path style="opacity:1" fill="#609348" d="M -0.5,-0.5 C 60.1667,-0.5 120.833,-0.5 181.5,-0.5C 181.5,66.1667 181.5,132.833 181.5,199.5C 179.167,199.5 176.833,199.5 174.5,199.5C 171.159,192.143 166.826,185.476 161.5,179.5C 159.477,174.413 157.477,169.413 155.5,164.5C 153.261,157.609 151.094,150.609 149,143.5C 148.617,142.944 148.117,142.611 147.5,142.5C 144.695,132.947 142.362,123.28 140.5,113.5C 140.672,112.508 140.338,111.842 139.5,111.5C 136.283,92.7197 132.449,74.053 128,55.5C 125.549,48.5964 122.549,41.9297 119,35.5C 117.951,33.3825 116.451,31.7158 114.5,30.5C 108.849,21.3367 100.516,16.8367 89.5,17C 81.295,9.78389 71.9616,7.28389 61.5,9.5C 57.5842,9.0255 54.2509,10.0255 51.5,12.5C 45.2853,14.6093 39.6186,17.7759 34.5,22C 30.8791,25.4408 27.8791,29.2741 25.5,33.5C 20.9034,39.3664 17.9034,46.0331 16.5,53.5C 16.5,53.8333 16.5,54.1667 16.5,54.5C 15.71,55.6085 15.21,56.9419 15,58.5C 14.5525,67.503 14.0525,76.503 13.5,85.5C 15.8173,100.073 16.8173,114.739 16.5,129.5C 16.3284,130.492 16.6618,131.158 17.5,131.5C 17.8257,134.311 18.6591,136.978 20,139.5C 19.8416,136.498 19.3416,133.498 18.5,130.5C 18.3433,129.127 18.51,127.793 19,126.5C 19.8159,127.823 20.9826,128.489 22.5,128.5C 22.8333,128.5 23.1667,128.5 23.5,128.5C 26.9354,136.714 32.2687,143.381 39.5,148.5C 39.4431,147.391 39.1098,146.391 38.5,145.5C 37.9888,142.307 37.3222,139.141 36.5,136C 36.7885,133.813 37.1218,131.646 37.5,129.5C 46.9491,126.359 56.6158,125.692 66.5,127.5C 70.5948,129.279 74.9281,130.612 79.5,131.5C 81.5145,132.924 83.8478,133.59 86.5,133.5C 87.1667,133.5 87.8333,133.5 88.5,133.5C 89.209,134.404 90.209,134.737 91.5,134.5C 93.5313,134.972 95.1979,135.972 96.5,137.5C 97.1174,137.389 97.6174,137.056 98,136.5C 98.0827,142.942 98.7493,149.275 100,155.5C 100.179,151.975 100.679,148.641 101.5,145.5C 103.459,150.967 106.792,155.467 111.5,159C 119.975,164.571 128.975,169.071 138.5,172.5C 150.114,178.116 157.781,187.116 161.5,199.5C 107.5,199.5 53.5,199.5 -0.5,199.5C -0.5,132.833 -0.5,66.1667 -0.5,-0.5 Z"/></g>
<g><path style="opacity:1" fill="#15170f" d="M 61.5,9.5 C 58.3811,10.8699 55.0477,11.8699 51.5,12.5C 54.2509,10.0255 57.5842,9.0255 61.5,9.5 Z"/></g>
<g><path style="opacity:1" fill="#472b18" d="M 61.5,9.5 C 68.715,8.74867 75.3817,10.082 81.5,13.5C 78.8265,14.7026 76.1599,14.7026 73.5,13.5C 70.3653,14.5109 68.6986,16.6775 68.5,20C 68.7845,21.9562 68.7845,24.1229 68.5,26.5C 61.9166,26.1281 56.5832,28.4614 52.5,33.5C 51.8333,34.5 51.1667,35.5 50.5,36.5C 46.8333,40.5 43.1667,44.5 39.5,48.5C 37.3592,48.2507 35.1926,47.9174 33,47.5C 30.9131,50.0703 29.0798,52.737 27.5,55.5C 26.2264,54.8106 26.2264,53.9772 27.5,53C 23.3714,50.4917 20.8714,51.6584 20,56.5C 19.2569,54.3553 18.4235,54.1886 17.5,56C 18.0441,58.3997 18.7108,60.733 19.5,63C 20.9961,63.5074 22.1627,63.0074 23,61.5C 23.3826,62.056 23.8826,62.3893 24.5,62.5C 22.5289,65.5742 21.6956,68.9075 22,72.5C 22.6189,69.9682 23.6189,67.6349 25,65.5C 25.3173,67.3008 25.984,67.6341 27,66.5C 26.635,69.7938 26.135,73.1272 25.5,76.5C 25.6932,81.4385 24.6932,86.1051 22.5,90.5C 21.2147,91.7853 19.8814,93.1186 18.5,94.5C 17.8133,92.7256 16.9799,91.0589 16,89.5C 15.2787,77.8114 15.4454,66.1447 16.5,54.5C 16.5,54.1667 16.5,53.8333 16.5,53.5C 18.4769,50.0074 20.3103,46.3407 22,42.5C 22.3333,44.5 22.6667,46.5 23,48.5C 25.8295,42.4961 28.8295,36.8295 32,31.5C 29.2706,33.8911 26.9372,36.5578 25,39.5C 24.5,39.1667 24,38.8333 23.5,38.5C 24.4565,36.9246 25.1231,35.258 25.5,33.5C 27.8791,29.2741 30.8791,25.4408 34.5,22C 39.6186,17.7759 45.2853,14.6093 51.5,12.5C 55.0477,11.8699 58.3811,10.8699 61.5,9.5 Z"/></g>
<g><path style="opacity:1" fill="#653c23" d="M 81.5,13.5 C 81.8333,13.5 82.1667,13.5 82.5,13.5C 82.6495,14.552 82.4828,15.552 82,16.5C 79.9453,18.5549 78.2787,20.8883 77,23.5C 75.4941,25.1742 73.6607,26.1742 71.5,26.5C 70.5,26.5 69.5,26.5 68.5,26.5C 68.7845,24.1229 68.7845,21.9562 68.5,20C 68.6986,16.6775 70.3653,14.5109 73.5,13.5C 76.1599,14.7026 78.8265,14.7026 81.5,13.5 Z"/></g>
<g><path style="opacity:1" fill="#28190e" d="M 55.5,16.5 C 58.2469,16.1866 60.9135,16.52 63.5,17.5C 58.1828,18.9925 53.1828,21.1592 48.5,24C 39.7757,31.6422 32.609,40.4755 27,50.5C 31.1442,34.8416 40.6442,23.5082 55.5,16.5 Z"/></g>
<g><path style="opacity:1" fill="#0c0b05" d="M 61.5,9.5 C 71.9616,7.28389 81.295,9.78389 89.5,17C 100.516,16.8367 108.849,21.3367 114.5,30.5C 112.203,28.7059 110.037,26.7059 108,24.5C 107.667,25.1667 107.333,25.8333 107,26.5C 101.978,19.1564 95.4776,17.3231 87.5,21C 84.6438,25.7695 84.1438,25.6028 86,20.5C 86.8333,19.6667 87.6667,18.8333 88.5,18C 86.6491,16.2476 84.6491,14.7476 82.5,13.5C 82.1667,13.5 81.8333,13.5 81.5,13.5C 75.3817,10.082 68.715,8.74867 61.5,9.5 Z"/></g>
<g><path style="opacity:1" fill="#28190e" d="M 75.5,31.5 C 67.7152,31.1317 60.0486,31.7984 52.5,33.5C 56.5832,28.4614 61.9166,26.1281 68.5,26.5C 69.5,26.5 70.5,26.5 71.5,26.5C 70.3998,27.5585 69.0664,28.3918 67.5,29C 73.9866,31.067 78.8199,29.2337 82,23.5C 81.5243,27.4814 79.3576,30.1481 75.5,31.5 Z"/></g>
<g><path style="opacity:1" fill="#609348" d="M 75.5,31.5 C 84.7486,31.7309 91.4152,36.0643 95.5,44.5C 96.8614,50.9169 96.5281,57.2503 94.5,63.5C 93.1667,63.5 91.8333,63.5 90.5,63.5C 85.9677,63.1818 81.6344,63.5151 77.5,64.5C 75.953,65.7682 74.953,67.4348 74.5,69.5C 71.5722,70.5914 69.4055,72.5914 68,75.5C 67.233,70.5055 68.0664,65.8389 70.5,61.5C 69.6446,60.707 68.8113,61.0403 68,62.5C 65.6597,66.5554 64.993,70.8887 66,75.5C 66.4169,76.756 67.2502,77.4226 68.5,77.5C 69.3918,80.2921 71.3918,81.6254 74.5,81.5C 75.209,82.404 76.209,82.7373 77.5,82.5C 81.3628,83.3272 85.3628,84.1606 89.5,85C 83.3711,85.6539 77.3711,85.3206 71.5,84C 80.4183,89.1515 88.9183,88.6515 97,82.5C 99.0737,85.1374 98.907,87.6374 96.5,90C 100.045,93.4097 101.212,97.5763 100,102.5C 98.495,107.355 95.6617,111.188 91.5,114C 95.7665,113.948 99.2665,112.115 102,108.5C 102.167,110.667 102.333,112.833 102.5,115C 102.467,117.61 101.8,119.777 100.5,121.5C 95.6618,119.855 90.6618,118.855 85.5,118.5C 80.8696,117.771 76.2029,117.437 71.5,117.5C 57.3431,116.504 43.0097,116.171 28.5,116.5C 26.6558,115.796 26.1558,114.463 27,112.5C 28.016,113.634 28.6827,113.301 29,111.5C 29.7175,112.451 30.5509,112.617 31.5,112C 27.5916,108.783 25.9249,104.616 26.5,99.5C 26.0857,95.6898 27.0857,92.3565 29.5,89.5C 30.3957,90.5063 31.0623,90.5063 31.5,89.5C 30.0408,86.2488 31.0408,83.9155 34.5,82.5C 36.8241,82.8773 37.4908,83.8773 36.5,85.5C 39.1062,86.6517 41.7728,86.8184 44.5,86C 42.5,85.6667 40.5,85.3333 38.5,85C 41.5,84.6667 44.5,84.3333 47.5,84C 44.086,83.7031 40.7527,83.0365 37.5,82C 43.1231,80.971 48.7898,80.471 54.5,80.5C 54.162,83.0115 54.162,85.3448 54.5,87.5C 57.0826,84.0292 57.0826,80.6959 54.5,77.5C 53.8333,76.8333 53.1667,76.1667 52.5,75.5C 51.6411,72.5479 49.6411,70.7146 46.5,70C 48.437,69.8784 49.7703,69.045 50.5,67.5C 50.0472,66.5416 49.3805,65.7083 48.5,65C 45.5107,63.7273 42.5107,62.5606 39.5,61.5C 38.943,52.2791 42.443,44.9457 50,39.5C 50.4828,38.552 50.6495,37.552 50.5,36.5C 51.1667,35.5 51.8333,34.5 52.5,33.5C 60.0486,31.7984 67.7152,31.1317 75.5,31.5 Z"/></g>
<g><path style="opacity:1" fill="#2c1b10" d="M 16.5,53.5 C 17.9034,46.0331 20.9034,39.3664 25.5,33.5C 25.1231,35.258 24.4565,36.9246 23.5,38.5C 24,38.8333 24.5,39.1667 25,39.5C 26.9372,36.5578 29.2706,33.8911 32,31.5C 28.8295,36.8295 25.8295,42.4961 23,48.5C 22.6667,46.5 22.3333,44.5 22,42.5C 20.3103,46.3407 18.4769,50.0074 16.5,53.5 Z"/></g>
<g><path style="opacity:1" fill="#4d7639" d="M 50.5,36.5 C 50.6495,37.552 50.4828,38.552 50,39.5C 42.443,44.9457 38.943,52.2791 39.5,61.5C 36.1379,61.0695 33.3046,62.0695 31,64.5C 30.8333,63.8333 30.6667,63.1667 30.5,62.5C 33.5167,57.8222 36.5167,53.1555 39.5,48.5C 43.1667,44.5 46.8333,40.5 50.5,36.5 Z"/></g>
<g><path style="opacity:1" fill="#3a2314" d="M 39.5,48.5 C 36.5167,53.1555 33.5167,57.8222 30.5,62.5C 30.6667,63.1667 30.8333,63.8333 31,64.5C 33.3046,62.0695 36.1379,61.0695 39.5,61.5C 42.5107,62.5606 45.5107,63.7273 48.5,65C 49.3805,65.7083 50.0472,66.5416 50.5,67.5C 49.2579,68.0434 47.9245,68.3767 46.5,68.5C 42.8361,67.3279 39.1694,65.9945 35.5,64.5C 32.9268,64.4532 30.9268,65.4532 29.5,67.5C 30.2624,67.9106 31.2624,68.0773 32.5,68C 28.8432,69.8507 26.5099,72.6841 25.5,76.5C 26.135,73.1272 26.635,69.7938 27,66.5C 25.984,67.6341 25.3173,67.3008 25,65.5C 23.6189,67.6349 22.6189,69.9682 22,72.5C 21.6956,68.9075 22.5289,65.5742 24.5,62.5C 25.2271,60.0462 26.2271,57.7128 27.5,55.5C 29.0798,52.737 30.9131,50.0703 33,47.5C 35.1926,47.9174 37.3592,48.2507 39.5,48.5 Z"/></g>
<g><path style="opacity:1" fill="#4d7638" d="M 95.5,44.5 C 97.5,46.5 99.5,48.5 101.5,50.5C 105.846,58.2127 108.18,66.5461 108.5,75.5C 107.313,77.7402 106.646,80.2402 106.5,83C 107.754,88.4339 108.421,93.9339 108.5,99.5C 106.877,103.978 105.544,108.645 104.5,113.5C 104.037,116.482 103.704,119.482 103.5,122.5C 102.5,122.5 101.5,122.5 100.5,122.5C 100.5,122.167 100.5,121.833 100.5,121.5C 101.8,119.777 102.467,117.61 102.5,115C 102.333,112.833 102.167,110.667 102,108.5C 99.2665,112.115 95.7665,113.948 91.5,114C 95.6617,111.188 98.495,107.355 100,102.5C 101.212,97.5763 100.045,93.4097 96.5,90C 98.907,87.6374 99.0737,85.1374 97,82.5C 88.9183,88.6515 80.4183,89.1515 71.5,84C 77.3711,85.3206 83.3711,85.6539 89.5,85C 85.3628,84.1606 81.3628,83.3272 77.5,82.5C 83.1415,82.9498 88.4749,81.9498 93.5,79.5C 96.0514,79.3318 96.7181,78.3318 95.5,76.5C 93.1934,74.9532 90.5267,74.2865 87.5,74.5C 82.9446,74.6253 78.6113,75.292 74.5,76.5C 72.5,76.8333 70.5,77.1667 68.5,77.5C 67.2502,77.4226 66.4169,76.756 66,75.5C 64.993,70.8887 65.6597,66.5554 68,62.5C 68.8113,61.0403 69.6446,60.707 70.5,61.5C 68.0664,65.8389 67.233,70.5055 68,75.5C 69.4055,72.5914 71.5722,70.5914 74.5,69.5C 78.7047,68.0897 83.038,67.423 87.5,67.5C 88.9972,68.3058 90.6639,68.9724 92.5,69.5C 93.6956,69.1543 93.6956,68.6543 92.5,68C 88.7741,66.9568 89.1074,66.4568 93.5,66.5C 96.2626,66.7438 98.4293,68.0771 100,70.5C 100.163,68.6133 99.3293,67.1133 97.5,66C 95.0731,65.0977 92.7397,64.2644 90.5,63.5C 91.8333,63.5 93.1667,63.5 94.5,63.5C 96.5281,57.2503 96.8614,50.9169 95.5,44.5 Z"/></g>
<g><path style="opacity:1" fill="#673d24" d="M 27.5,55.5 C 26.2271,57.7128 25.2271,60.0462 24.5,62.5C 23.8826,62.3893 23.3826,62.056 23,61.5C 22.1627,63.0074 20.9961,63.5074 19.5,63C 18.7108,60.733 18.0441,58.3997 17.5,56C 18.4235,54.1886 19.2569,54.3553 20,56.5C 20.8714,51.6584 23.3714,50.4917 27.5,53C 26.2264,53.9772 26.2264,54.8106 27.5,55.5 Z"/></g>
<g><path style="opacity:1" fill="#11160a" d="M 77.5,64.5 C 81.6344,63.5151 85.9677,63.1818 90.5,63.5C 92.7397,64.2644 95.0731,65.0977 97.5,66C 99.3293,67.1133 100.163,68.6133 100,70.5C 98.4293,68.0771 96.2626,66.7438 93.5,66.5C 91.7354,65.5386 89.7354,65.2053 87.5,65.5C 84.3752,64.5206 81.0419,64.1872 77.5,64.5 Z"/></g>
<g><path style="opacity:1" fill="#391f13" d="M 77.5,64.5 C 81.0419,64.1872 84.3752,64.5206 87.5,65.5C 87.5,66.1667 87.5,66.8333 87.5,67.5C 83.038,67.423 78.7047,68.0897 74.5,69.5C 74.953,67.4348 75.953,65.7682 77.5,64.5 Z"/></g>
<g><path style="opacity:1" fill="#273d1d" d="M 87.5,65.5 C 89.7354,65.2053 91.7354,65.5386 93.5,66.5C 89.1074,66.4568 88.7741,66.9568 92.5,68C 93.6956,68.6543 93.6956,69.1543 92.5,69.5C 90.6639,68.9724 88.9972,68.3058 87.5,67.5C 87.5,66.8333 87.5,66.1667 87.5,65.5 Z"/></g>
<g><path style="opacity:1" fill="#0d0e07" d="M 114.5,30.5 C 116.451,31.7158 117.951,33.3825 119,35.5C 122.549,41.9297 125.549,48.5964 128,55.5C 132.449,74.053 136.283,92.7197 139.5,111.5C 138.732,110.737 138.232,109.737 138,108.5C 137.641,111.544 136.974,111.878 136,109.5C 134.012,87.228 129.345,65.5613 122,44.5C 119.729,39.6204 117.229,34.9537 114.5,30.5 Z"/></g>
<g><path style="opacity:1" fill="#355225" d="M 59.5,64.5 C 60.6378,67.3035 60.8045,70.3035 60,73.5C 59.5756,75.6145 58.4089,76.4479 56.5,76C 59.0126,72.6233 60.0126,68.79 59.5,64.5 Z"/></g>
<g><path style="opacity:1" fill="#e1e1e1" d="M 35.5,73.5 C 35.5,74.8333 35.5,76.1667 35.5,77.5C 32.5178,77.8956 29.8511,77.2289 27.5,75.5C 27.6236,74.8933 27.9569,74.56 28.5,74.5C 30.7638,73.7814 33.0971,73.448 35.5,73.5 Z"/></g>
<g><path style="opacity:1" fill="#060806" d="M 35.5,72.5 C 40.2193,72.8885 44.886,73.5551 49.5,74.5C 49.5,76.1667 49.5,77.8333 49.5,79.5C 46.2869,79.81 43.2869,79.4767 40.5,78.5C 38.7085,78.634 37.0418,78.3007 35.5,77.5C 35.5,76.1667 35.5,74.8333 35.5,73.5C 35.5,73.1667 35.5,72.8333 35.5,72.5 Z"/></g>
<g><path style="opacity:1" fill="#0f0f0e" d="M 95.5,76.5 C 93.9519,76.8212 93.2852,77.8212 93.5,79.5C 88.4749,81.9498 83.1415,82.9498 77.5,82.5C 76.209,82.7373 75.209,82.404 74.5,81.5C 75.6491,81.2089 76.3158,80.3756 76.5,79C 76.3158,77.6244 75.6491,76.7911 74.5,76.5C 78.6113,75.292 82.9446,74.6253 87.5,74.5C 90.5267,74.2865 93.1934,74.9532 95.5,76.5 Z"/></g>
<g><path style="opacity:1" fill="#9e9e9e" d="M 40.5,78.5 C 39.791,77.596 38.791,77.2627 37.5,77.5C 37.238,76.0222 37.5713,74.6888 38.5,73.5C 39.8986,75.1033 41.5653,76.4366 43.5,77.5C 42.675,78.3857 41.675,78.719 40.5,78.5 Z"/></g>
<g><path style="opacity:1" fill="#d8d7d8" d="M 74.5,76.5 C 75.6491,76.7911 76.3158,77.6244 76.5,79C 76.3158,80.3756 75.6491,81.2089 74.5,81.5C 71.3918,81.6254 69.3918,80.2921 68.5,77.5C 70.5,77.1667 72.5,76.8333 74.5,76.5 Z"/></g>
<g><path style="opacity:1" fill="#adafac" d="M 95.5,76.5 C 96.7181,78.3318 96.0514,79.3318 93.5,79.5C 93.2852,77.8212 93.9519,76.8212 95.5,76.5 Z"/></g>
<g><path style="opacity:1" fill="#4a7336" d="M 50.5,67.5 C 49.7703,69.045 48.437,69.8784 46.5,70C 49.6411,70.7146 51.6411,72.5479 52.5,75.5C 51.391,75.4431 50.391,75.1098 49.5,74.5C 44.886,73.5551 40.2193,72.8885 35.5,72.5C 33.4727,72.3379 31.4727,72.5045 29.5,73C 28.944,73.3826 28.6107,73.8826 28.5,74.5C 27.9569,74.56 27.6236,74.8933 27.5,75.5C 29.8511,77.2289 32.5178,77.8956 35.5,77.5C 37.0418,78.3007 38.7085,78.634 40.5,78.5C 43.2869,79.4767 46.2869,79.81 49.5,79.5C 51.7812,79.9227 53.4479,79.256 54.5,77.5C 57.0826,80.6959 57.0826,84.0292 54.5,87.5C 54.162,85.3448 54.162,83.0115 54.5,80.5C 48.7898,80.471 43.1231,80.971 37.5,82C 40.7527,83.0365 44.086,83.7031 47.5,84C 44.5,84.3333 41.5,84.6667 38.5,85C 40.5,85.3333 42.5,85.6667 44.5,86C 41.7728,86.8184 39.1062,86.6517 36.5,85.5C 37.4908,83.8773 36.8241,82.8773 34.5,82.5C 31.0408,83.9155 30.0408,86.2488 31.5,89.5C 31.0623,90.5063 30.3957,90.5063 29.5,89.5C 27.0857,92.3565 26.0857,95.6898 26.5,99.5C 25.9249,104.616 27.5916,108.783 31.5,112C 30.5509,112.617 29.7175,112.451 29,111.5C 28.6827,113.301 28.016,113.634 27,112.5C 26.1558,114.463 26.6558,115.796 28.5,116.5C 27.791,117.404 26.791,117.737 25.5,117.5C 23.2108,113.813 22.8775,109.813 24.5,105.5C 22.8471,100.64 22.1804,95.6401 22.5,90.5C 24.6932,86.1051 25.6932,81.4385 25.5,76.5C 26.5099,72.6841 28.8432,69.8507 32.5,68C 31.2624,68.0773 30.2624,67.9106 29.5,67.5C 30.9268,65.4532 32.9268,64.4532 35.5,64.5C 39.1694,65.9945 42.8361,67.3279 46.5,68.5C 47.9245,68.3767 49.2579,68.0434 50.5,67.5 Z"/></g>
<g><path style="opacity:1" fill="#525251" d="M 35.5,72.5 C 35.5,72.8333 35.5,73.1667 35.5,73.5C 33.0971,73.448 30.7638,73.7814 28.5,74.5C 28.6107,73.8826 28.944,73.3826 29.5,73C 31.4727,72.5045 33.4727,72.3379 35.5,72.5 Z"/></g>
<g><path style="opacity:1" fill="#b2b1b2" d="M 49.5,74.5 C 50.391,75.1098 51.391,75.4431 52.5,75.5C 53.1667,76.1667 53.8333,76.8333 54.5,77.5C 53.4479,79.256 51.7812,79.9227 49.5,79.5C 49.5,77.8333 49.5,76.1667 49.5,74.5 Z"/></g>
<g><path style="opacity:1" fill="#a3a3a3" d="M 83.5,78.5 C 84.675,78.281 85.675,78.6143 86.5,79.5C 84.9483,80.7979 83.9483,80.4646 83.5,78.5 Z"/></g>
<g><path style="opacity:1" fill="#d5d5d5" d="M 78.5,76.5 C 81.0848,77.4654 81.5848,78.7988 80,80.5C 77.5003,79.8424 77.0003,78.5091 78.5,76.5 Z"/></g>
<g><path style="opacity:1" fill="#472a18" d="M 82.5,13.5 C 84.6491,14.7476 86.6491,16.2476 88.5,18C 87.6667,18.8333 86.8333,19.6667 86,20.5C 84.1438,25.6028 84.6438,25.7695 87.5,21C 95.4776,17.3231 101.978,19.1564 107,26.5C 107.333,25.8333 107.667,25.1667 108,24.5C 110.037,26.7059 112.203,28.7059 114.5,30.5C 117.229,34.9537 119.729,39.6204 122,44.5C 129.345,65.5613 134.012,87.228 136,109.5C 136.974,111.878 137.641,111.544 138,108.5C 138.232,109.737 138.732,110.737 139.5,111.5C 140.338,111.842 140.672,112.508 140.5,113.5C 139.876,113.917 139.543,114.584 139.5,115.5C 141.347,123.889 143.347,132.222 145.5,140.5C 144.183,140.179 142.849,139.846 141.5,139.5C 140.353,139.818 139.519,140.484 139,141.5C 138.558,139.321 137.558,138.655 136,139.5C 134.829,137.384 133.329,136.718 131.5,137.5C 133.86,142.22 136.193,146.886 138.5,151.5C 141.306,158.443 145.139,164.776 150,170.5C 147.409,164.664 144.242,158.998 140.5,153.5C 141.15,153.196 141.817,152.863 142.5,152.5C 143.868,149.11 145.201,145.776 146.5,142.5C 146.833,142.5 147.167,142.5 147.5,142.5C 149.219,148.827 151.052,155.161 153,161.5C 153.852,162.571 154.685,163.571 155.5,164.5C 155.631,165.239 155.464,165.906 155,166.5C 154.346,165.304 153.846,165.304 153.5,166.5C 155.941,171.065 158.608,175.398 161.5,179.5C 166.826,185.476 171.159,192.143 174.5,199.5C 170.167,199.5 165.833,199.5 161.5,199.5C 157.781,187.116 150.114,178.116 138.5,172.5C 138.264,170.951 138.264,169.451 138.5,168C 130.859,164.844 124.192,160.344 118.5,154.5C 116.75,150.665 114.75,146.999 112.5,143.5C 111.451,136.535 110.617,129.535 110,122.5C 107.474,124.919 105.64,124.253 104.5,120.5C 105.223,118.218 105.557,115.884 105.5,113.5C 105.328,112.508 105.662,111.842 106.5,111.5C 108.688,112.623 111.021,112.623 113.5,111.5C 114.558,112.6 115.392,113.934 116,115.5C 116.333,115.167 116.667,114.833 117,114.5C 118.333,117.833 119.667,121.167 121,124.5C 119.436,117.129 117.436,109.795 115,102.5C 112.75,89.5808 111.083,76.5808 110,63.5C 108.885,59.2707 107.219,55.2707 105,51.5C 103.855,51.3809 102.688,51.0476 101.5,50.5C 99.5,48.5 97.5,46.5 95.5,44.5C 91.4152,36.0643 84.7486,31.7309 75.5,31.5C 79.3576,30.1481 81.5243,27.4814 82,23.5C 78.8199,29.2337 73.9866,31.067 67.5,29C 69.0664,28.3918 70.3998,27.5585 71.5,26.5C 73.6607,26.1742 75.4941,25.1742 77,23.5C 78.2787,20.8883 79.9453,18.5549 82,16.5C 82.4828,15.552 82.6495,14.552 82.5,13.5 Z"/></g>
<g><path style="opacity:1" fill="#663d24" d="M 117.5,76.5 C 120.167,76.5 122.833,76.5 125.5,76.5C 126.401,79.8717 126.401,83.205 125.5,86.5C 123.359,87.3226 121.193,88.3226 119,89.5C 117.467,88.3047 115.967,88.3047 114.5,89.5C 114.167,88.6667 113.833,87.8333 113.5,87C 115.704,83.8972 117.037,80.3972 117.5,76.5 Z"/></g>
<g><path style="opacity:1" fill="#190e07" d="M 115.5,50.5 C 116.401,51.2905 117.068,52.2905 117.5,53.5C 119.68,56.8711 120.514,60.5378 120,64.5C 118.734,59.6642 117.234,54.9975 115.5,50.5 Z"/></g>
<g><path style="opacity:1" fill="#663d24" d="M 117.5,53.5 C 117.068,52.2905 116.401,51.2905 115.5,50.5C 115.152,48.2872 114.319,46.2872 113,44.5C 113.099,47.5661 113.266,50.5661 113.5,53.5C 112.5,53.5 111.5,53.5 110.5,53.5C 109.415,49.9117 108.082,46.4117 106.5,43C 106.955,41.276 107.788,39.776 109,38.5C 109.5,39 110,39.5 110.5,40C 112.791,40.0154 114.958,40.1821 117,40.5C 119.849,45.097 120.015,49.4303 117.5,53.5 Z"/></g>
<g><path style="opacity:1" fill="#28190e" d="M 92.5,24.5 C 92.56,23.9569 92.8933,23.6236 93.5,23.5C 99.4016,26.8858 103.568,31.5525 106,37.5C 101.446,34.4677 96.9465,31.301 92.5,28C 92.0628,26.5386 92.0628,25.3719 92.5,24.5 Z"/></g>
<g><path style="opacity:1" fill="#140b05" d="M 101.5,50.5 C 102.688,51.0476 103.855,51.3809 105,51.5C 107.219,55.2707 108.885,59.2707 110,63.5C 111.083,76.5808 112.75,89.5808 115,102.5C 117.436,109.795 119.436,117.129 121,124.5C 119.667,121.167 118.333,117.833 117,114.5C 116.667,114.833 116.333,115.167 116,115.5C 115.392,113.934 114.558,112.6 113.5,111.5C 114.11,110.609 114.443,109.609 114.5,108.5C 115.043,108.44 115.376,108.107 115.5,107.5C 112.947,96.838 110.614,86.1713 108.5,75.5C 108.18,66.5461 105.846,58.2127 101.5,50.5 Z"/></g>
<g><path style="opacity:1" fill="#304a22" d="M 71.5,95.5 C 66.8772,91.5682 65.3772,86.5682 67,80.5C 67.6245,85.8022 69.1245,90.8022 71.5,95.5 Z"/></g>
<g><path style="opacity:1" fill="#170c06" d="M 127.5,83.5 C 129.444,90.5904 130.277,97.9237 130,105.5C 128.684,98.2373 127.851,90.904 127.5,83.5 Z"/></g>
<g><path style="opacity:1" fill="#3a2114" d="M 16.5,54.5 C 15.4454,66.1447 15.2787,77.8114 16,89.5C 16.9799,91.0589 17.8133,92.7256 18.5,94.5C 19.8814,93.1186 21.2147,91.7853 22.5,90.5C 22.1804,95.6401 22.8471,100.64 24.5,105.5C 22.8775,109.813 23.2108,113.813 25.5,117.5C 23.5248,119.137 21.5248,120.804 19.5,122.5C 19.762,121.022 19.4287,119.689 18.5,118.5C 17.8329,122.313 17.1663,125.979 16.5,129.5C 16.8173,114.739 15.8173,100.073 13.5,85.5C 14.0525,76.503 14.5525,67.503 15,58.5C 15.21,56.9419 15.71,55.6085 16.5,54.5 Z"/></g>
<g><path style="opacity:1" fill="#2a1a0f" d="M 108.5,75.5 C 110.614,86.1713 112.947,96.838 115.5,107.5C 115.376,108.107 115.043,108.44 114.5,108.5C 112.659,106.151 111.326,103.485 110.5,100.5C 110.158,99.6618 109.492,99.3284 108.5,99.5C 108.421,93.9339 107.754,88.4339 106.5,83C 106.646,80.2402 107.313,77.7402 108.5,75.5 Z"/></g>
<g><path style="opacity:1" fill="#2e4721" d="M 71.5,95.5 C 73.7802,96.6401 76.1136,97.8068 78.5,99C 75.3856,99.4428 73.0523,98.2762 71.5,95.5 Z"/></g>
<g><path style="opacity:1" fill="#233819" d="M 108.5,99.5 C 109.492,99.3284 110.158,99.6618 110.5,100.5C 109.414,100.62 108.747,101.287 108.5,102.5C 107.672,105.479 107.005,108.479 106.5,111.5C 105.662,111.842 105.328,112.508 105.5,113.5C 105.167,113.5 104.833,113.5 104.5,113.5C 105.544,108.645 106.877,103.978 108.5,99.5 Z"/></g>
<g><path style="opacity:1" fill="#4c7437" d="M 110.5,100.5 C 111.326,103.485 112.659,106.151 114.5,108.5C 114.443,109.609 114.11,110.609 113.5,111.5C 111.021,112.623 108.688,112.623 106.5,111.5C 107.005,108.479 107.672,105.479 108.5,102.5C 108.747,101.287 109.414,100.62 110.5,100.5 Z"/></g>
<g><path style="opacity:1" fill="#a85831" d="M 71.5,117.5 C 76.2029,117.437 80.8696,117.771 85.5,118.5C 86.6414,120.451 86.6414,122.451 85.5,124.5C 81.5568,123.514 77.5568,122.848 73.5,122.5C 71.7078,121.691 69.7078,121.191 67.5,121C 60.1742,120.5 52.8409,120.334 45.5,120.5C 43.1667,120.5 40.8333,120.5 38.5,120.5C 38.5,119.5 38.5,118.5 38.5,117.5C 49.5,117.5 60.5,117.5 71.5,117.5 Z"/></g>
<g><path style="opacity:1" fill="#416235" d="M 19.5,122.5 C 19.615,124.947 20.615,126.947 22.5,128.5C 20.9826,128.489 19.8159,127.823 19,126.5C 18.51,127.793 18.3433,129.127 18.5,130.5C 17.8333,130.5 17.5,130.833 17.5,131.5C 16.6618,131.158 16.3284,130.492 16.5,129.5C 17.1663,125.979 17.8329,122.313 18.5,118.5C 19.4287,119.689 19.762,121.022 19.5,122.5 Z"/></g>
<g><path style="opacity:1" fill="#7b3f23" d="M 28.5,116.5 C 43.0097,116.171 57.3431,116.504 71.5,117.5C 60.5,117.5 49.5,117.5 38.5,117.5C 38.5,118.5 38.5,119.5 38.5,120.5C 40.8333,120.5 43.1667,120.5 45.5,120.5C 51.8333,121.167 58.1667,121.833 64.5,122.5C 53.4562,122.181 42.4562,122.681 31.5,124C 34.9752,124.447 38.3085,125.28 41.5,126.5C 40.3915,127.29 39.0581,127.79 37.5,128C 32.8452,128.499 28.1785,128.666 23.5,128.5C 23.1667,128.5 22.8333,128.5 22.5,128.5C 20.615,126.947 19.615,124.947 19.5,122.5C 21.5248,120.804 23.5248,119.137 25.5,117.5C 26.791,117.737 27.791,117.404 28.5,116.5 Z"/></g>
<g><path style="opacity:1" fill="#160c05" d="M 125.5,115.5 C 127.896,119.52 129.396,123.853 130,128.5C 127.775,124.323 126.275,119.99 125.5,115.5 Z"/></g>
<g><path style="opacity:1" fill="#130703" d="M 45.5,120.5 C 52.8409,120.334 60.1742,120.5 67.5,121C 69.7078,121.191 71.7078,121.691 73.5,122.5C 70.5,122.5 67.5,122.5 64.5,122.5C 58.1667,121.833 51.8333,121.167 45.5,120.5 Z"/></g>
<g><path style="opacity:1" fill="#1d0f06" d="M 73.5,122.5 C 77.5568,122.848 81.5568,123.514 85.5,124.5C 85.5,125.167 85.1667,125.5 84.5,125.5C 80.521,125.258 76.8544,124.258 73.5,122.5 Z"/></g>
<g><path style="opacity:1" fill="#824425" d="M 85.5,118.5 C 90.6618,118.855 95.6618,119.855 100.5,121.5C 100.5,121.833 100.5,122.167 100.5,122.5C 104.811,124.886 105.477,128.053 102.5,132C 97.964,133.379 93.2973,133.879 88.5,133.5C 87.8333,133.5 87.1667,133.5 86.5,133.5C 84.5615,131.837 82.2282,131.171 79.5,131.5C 74.9281,130.612 70.5948,129.279 66.5,127.5C 70.6151,128.88 74.4485,128.213 78,125.5C 78.1667,125.833 78.3333,126.167 78.5,126.5C 77.3349,127.584 76.0016,128.417 74.5,129C 77.659,130.561 80.8257,130.728 84,129.5C 84.49,128.207 84.6567,126.873 84.5,125.5C 85.1667,125.5 85.5,125.167 85.5,124.5C 86.6414,122.451 86.6414,120.451 85.5,118.5 Z"/></g>
<g><path style="opacity:1" fill="#ac5b32" d="M 64.5,122.5 C 67.5,122.5 70.5,122.5 73.5,122.5C 76.8544,124.258 80.521,125.258 84.5,125.5C 84.6567,126.873 84.49,128.207 84,129.5C 80.8257,130.728 77.659,130.561 74.5,129C 76.0016,128.417 77.3349,127.584 78.5,126.5C 78.3333,126.167 78.1667,125.833 78,125.5C 74.4485,128.213 70.6151,128.88 66.5,127.5C 62.6089,125.993 58.4422,125.326 54,125.5C 49.8081,125.658 45.6414,125.991 41.5,126.5C 38.3085,125.28 34.9752,124.447 31.5,124C 42.4562,122.681 53.4562,122.181 64.5,122.5 Z"/></g>
<g><path style="opacity:1" fill="#090906" d="M 140.5,113.5 C 142.362,123.28 144.695,132.947 147.5,142.5C 147.167,142.5 146.833,142.5 146.5,142.5C 146.672,141.508 146.338,140.842 145.5,140.5C 143.347,132.222 141.347,123.889 139.5,115.5C 139.543,114.584 139.876,113.917 140.5,113.5 Z"/></g>
<g><path style="opacity:1" fill="#362013" d="M 104.5,113.5 C 104.833,113.5 105.167,113.5 105.5,113.5C 105.557,115.884 105.223,118.218 104.5,120.5C 105.64,124.253 107.474,124.919 110,122.5C 110.617,129.535 111.451,136.535 112.5,143.5C 112.824,148.139 114.824,151.806 118.5,154.5C 124.192,160.344 130.859,164.844 138.5,168C 138.264,169.451 138.264,170.951 138.5,172.5C 128.975,169.071 119.975,164.571 111.5,159C 106.792,155.467 103.459,150.967 101.5,145.5C 99.8597,142.15 99.0263,138.483 99,134.5C 96.7116,134.737 94.2116,134.737 91.5,134.5C 90.209,134.737 89.209,134.404 88.5,133.5C 93.2973,133.879 97.964,133.379 102.5,132C 105.477,128.053 104.811,124.886 100.5,122.5C 101.5,122.5 102.5,122.5 103.5,122.5C 103.704,119.482 104.037,116.482 104.5,113.5 Z"/></g>
<g><path style="opacity:1" fill="#4d7538" d="M 37.5,129.5 C 37.1218,131.646 36.7885,133.813 36.5,136C 37.3222,139.141 37.9888,142.307 38.5,145.5C 34.8358,141.153 31.5025,136.487 28.5,131.5C 31.2659,129.871 34.2659,129.205 37.5,129.5 Z"/></g>
<g><path style="opacity:1" fill="#1b1309" d="M 79.5,131.5 C 82.2282,131.171 84.5615,131.837 86.5,133.5C 83.8478,133.59 81.5145,132.924 79.5,131.5 Z"/></g>
<g><path style="opacity:1" fill="#192016" d="M 18.5,130.5 C 19.3416,133.498 19.8416,136.498 20,139.5C 18.6591,136.978 17.8257,134.311 17.5,131.5C 17.5,130.833 17.8333,130.5 18.5,130.5 Z"/></g>
<g><path style="opacity:1" fill="#2b1b10" d="M 66.5,127.5 C 56.6158,125.692 46.9491,126.359 37.5,129.5C 34.2659,129.205 31.2659,129.871 28.5,131.5C 31.5025,136.487 34.8358,141.153 38.5,145.5C 39.1098,146.391 39.4431,147.391 39.5,148.5C 32.2687,143.381 26.9354,136.714 23.5,128.5C 28.1785,128.666 32.8452,128.499 37.5,128C 39.0581,127.79 40.3915,127.29 41.5,126.5C 45.6414,125.991 49.8081,125.658 54,125.5C 58.4422,125.326 62.6089,125.993 66.5,127.5 Z"/></g>
<g><path style="opacity:1" fill="#1e2e16" d="M 96.5,137.5 C 95.8524,140.323 94.1858,141.823 91.5,142C 93.0375,140.293 94.7041,138.793 96.5,137.5 Z"/></g>
<g><path style="opacity:1" fill="#2c4821" d="M 91.5,134.5 C 94.2116,134.737 96.7116,134.737 99,134.5C 99.0263,138.483 99.8597,142.15 101.5,145.5C 100.679,148.641 100.179,151.975 100,155.5C 98.7493,149.275 98.0827,142.942 98,136.5C 97.6174,137.056 97.1174,137.389 96.5,137.5C 95.1979,135.972 93.5313,134.972 91.5,134.5 Z"/></g>
<g><path style="opacity:1" fill="#653c24" d="M 145.5,140.5 C 146.338,140.842 146.672,141.508 146.5,142.5C 145.201,145.776 143.868,149.11 142.5,152.5C 141.817,152.863 141.15,153.196 140.5,153.5C 140.167,152.5 139.5,151.833 138.5,151.5C 136.193,146.886 133.86,142.22 131.5,137.5C 133.329,136.718 134.829,137.384 136,139.5C 137.558,138.655 138.558,139.321 139,141.5C 139.519,140.484 140.353,139.818 141.5,139.5C 142.849,139.846 144.183,140.179 145.5,140.5 Z"/></g>
<g><path style="opacity:1" fill="#192215" d="M 23.5,144.5 C 21.9153,143.998 21.4153,142.998 22,141.5C 23.0386,142.244 23.5386,143.244 23.5,144.5 Z"/></g>
<g><path style="opacity:1" fill="#0b0402" d="M 121.5,133.5 C 126.31,143.119 131.644,152.452 137.5,161.5C 129.609,153.729 124.276,144.395 121.5,133.5 Z"/></g>
<g><path style="opacity:1" fill="#293622" d="M 23.5,144.5 C 24.8333,145.167 25.8333,146.167 26.5,147.5C 24.5,147.5 23.5,146.5 23.5,144.5 Z"/></g>
<g><path style="opacity:1" fill="#17170f" d="M 147.5,142.5 C 148.117,142.611 148.617,142.944 149,143.5C 151.094,150.609 153.261,157.609 155.5,164.5C 154.685,163.571 153.852,162.571 153,161.5C 151.052,155.161 149.219,148.827 147.5,142.5 Z"/></g>
<g><path style="opacity:1" fill="#394f2e" d="M 26.5,147.5 C 29.3244,148.945 32.3244,150.111 35.5,151C 31.438,152.336 28.438,151.169 26.5,147.5 Z"/></g>
<g><path style="opacity:1" fill="#344c29" d="M 39.5,148.5 C 41.8333,150.167 43.8333,152.167 45.5,154.5C 42.5,153.5 40.5,151.5 39.5,148.5 Z"/></g>
<g><path style="opacity:1" fill="#0c0502" d="M 112.5,143.5 C 114.75,146.999 116.75,150.665 118.5,154.5C 114.824,151.806 112.824,148.139 112.5,143.5 Z"/></g>
<g><path style="opacity:1" fill="#2f1d10" d="M 121.5,133.5 C 124.276,144.395 129.609,153.729 137.5,161.5C 140.002,163.17 142.002,165.336 143.5,168C 142.5,168.667 141.5,168.667 140.5,168C 127.114,156.393 119.78,141.893 118.5,124.5C 120.101,127.304 121.101,130.304 121.5,133.5 Z"/></g>
<g><path style="opacity:1" fill="#334b27" d="M 45.5,154.5 C 47.8185,154.992 49.8185,155.992 51.5,157.5C 51.5,158.167 51.8333,158.5 52.5,158.5C 52.5079,161.545 52.8413,164.545 53.5,167.5C 51.1114,163.068 48.4447,158.735 45.5,154.5 Z"/></g>
<g><path style="opacity:1" fill="#131a0e" d="M 51.5,157.5 C 57.4939,158.761 63.4939,158.761 69.5,157.5C 64.0732,159.755 58.4065,160.088 52.5,158.5C 51.8333,158.5 51.5,158.167 51.5,157.5 Z"/></g>
<g><path style="opacity:1" fill="#4d7639" d="M 53.5,167.5 C 52.8413,164.545 52.5079,161.545 52.5,158.5C 58.4065,160.088 64.0732,159.755 69.5,157.5C 72.7675,155.697 76.1009,154.197 79.5,153C 74.3094,158.435 67.976,162.102 60.5,164C 57.922,166.074 55.922,168.574 54.5,171.5C 53.5713,170.311 53.238,168.978 53.5,167.5 Z"/></g>
<g><path style="opacity:1" fill="#090301" d="M 138.5,151.5 C 139.5,151.833 140.167,152.5 140.5,153.5C 144.242,158.998 147.409,164.664 150,170.5C 145.139,164.776 141.306,158.443 138.5,151.5 Z"/></g>
<g><path style="opacity:1" fill="#160e08" d="M 155.5,164.5 C 157.477,169.413 159.477,174.413 161.5,179.5C 158.608,175.398 155.941,171.065 153.5,166.5C 153.846,165.304 154.346,165.304 155,166.5C 155.464,165.906 155.631,165.239 155.5,164.5 Z"/></g>
<g><path style="opacity:1" fill="#8a8c88" d="M 147.5,191.5 C 148.239,191.369 148.906,191.536 149.5,192C 148,193.5 146.5,195 145,196.5C 144.751,194.332 145.584,192.665 147.5,191.5 Z"/></g>
</svg>
