<?xml version="1.0" encoding="UTF-8"?>
<!DOCTYPE svg PUBLIC "-//W3C//DTD SVG 1.1//EN" "http://www.w3.org/Graphics/SVG/1.1/DTD/svg11.dtd">
<svg xmlns="http://www.w3.org/2000/svg" version="1.1" width="100px" height="100px" style="shape-rendering:geometricPrecision; text-rendering:geometricPrecision; image-rendering:optimizeQuality; fill-rule:evenodd; clip-rule:evenodd" xmlns:xlink="http://www.w3.org/1999/xlink">
<g><path style="opacity:1" fill="#fd01ff" d="M -0.5,-0.5 C 32.8333,-0.5 66.1667,-0.5 99.5,-0.5C 99.5,32.8333 99.5,66.1667 99.5,99.5C 66.1667,99.5 32.8333,99.5 -0.5,99.5C -0.5,66.1667 -0.5,32.8333 -0.5,-0.5 Z"/></g>
<g><path style="opacity:1" fill="#ad8ba3" d="M 43.5,4.5 C 47.0108,6.61777 50.5108,6.61777 54,4.5C 55.6833,5.17648 55.8499,6.17648 54.5,7.5C 53.8826,7.38929 53.3826,7.05596 53,6.5C 51.3123,8.04486 49.3123,9.04486 47,9.5C 46.6667,9.16667 46.3333,8.83333 46,8.5C 44.1852,9.24439 42.3519,9.91106 40.5,10.5C 40.2782,7.92357 38.9449,7.09024 36.5,8C 37.1667,8.33333 37.8333,8.66667 38.5,9C 37.1667,9.66667 37.1667,10.3333 38.5,11C 36.8876,11.7203 35.3876,11.5536 34,10.5C 33.6848,11.9078 34.0181,13.2411 35,14.5C 36.881,13.6456 38.7143,13.9789 40.5,15.5C 40.9106,14.7376 41.0773,13.7376 41,12.5C 41.7697,13.5981 42.603,13.5981 43.5,12.5C 46.3915,11.5975 49.3915,11.2641 52.5,11.5C 51.1032,13.3793 49.4365,15.0459 47.5,16.5C 46.7492,15.624 46.2492,14.624 46,13.5C 45.7679,14.7375 45.2679,15.7375 44.5,16.5C 42.3536,19.7625 40.8536,19.7625 40,16.5C 38.7212,18.9371 37.2212,19.4371 35.5,18C 35.8333,17.6667 36.1667,17.3333 36.5,17C 34.9651,16.5038 33.4651,16.6705 32,17.5C 31.5,17.1667 31,16.8333 30.5,16.5C 33.0789,14.5623 33.0789,12.729 30.5,11C 33.4016,10.0814 33.7349,9.24811 31.5,8.5C 31.9371,6.92558 32.9371,5.75891 34.5,5C 37.5676,3.93664 40.5676,3.76998 43.5,4.5 Z"/></g>
<g><path style="opacity:1" fill="#65d14c" d="M 54.5,7.5 C 55.1667,7.5 55.8333,7.5 56.5,7.5C 59.7898,6.74247 62.9564,6.74247 66,7.5C 67.1667,8.66667 68.3333,9.83333 69.5,11C 67.378,12.0809 65.378,12.7476 63.5,13C 64.2529,14.487 65.0862,14.6537 66,13.5C 66.4828,14.448 66.6495,15.448 66.5,16.5C 65.8333,16.1667 65.1667,15.8333 64.5,15.5C 63.1634,14.6851 62.1634,13.5185 61.5,12C 60.552,11.5172 59.552,11.3505 58.5,11.5C 56.8333,11.5 55.1667,11.5 53.5,11.5C 53.1667,11.5 52.8333,11.5 52.5,11.5C 49.3915,11.2641 46.3915,11.5975 43.5,12.5C 42.5,11.8333 41.5,11.1667 40.5,10.5C 42.3519,9.91106 44.1852,9.24439 46,8.5C 46.3333,8.83333 46.6667,9.16667 47,9.5C 49.3123,9.04486 51.3123,8.04486 53,6.5C 53.3826,7.05596 53.8826,7.38929 54.5,7.5 Z"/></g>
<g><path style="opacity:1" fill="#9fbc74" d="M 40.5,10.5 C 41.5,11.1667 42.5,11.8333 43.5,12.5C 42.603,13.5981 41.7697,13.5981 41,12.5C 41.0773,13.7376 40.9106,14.7376 40.5,15.5C 38.7143,13.9789 36.881,13.6456 35,14.5C 34.0181,13.2411 33.6848,11.9078 34,10.5C 35.3876,11.5536 36.8876,11.7203 38.5,11C 37.1667,10.3333 37.1667,9.66667 38.5,9C 37.8333,8.66667 37.1667,8.33333 36.5,8C 38.9449,7.09024 40.2782,7.92357 40.5,10.5 Z"/></g>
<g><path style="opacity:1" fill="#966c8d" d="M 77.5,27.5 C 75.9157,28.3818 74.249,29.2152 72.5,30C 73.7112,30.8928 73.7112,31.7261 72.5,32.5C 68.3271,29.8552 68.6604,28.1885 73.5,27.5C 73.9199,23.2036 72.2532,22.5369 68.5,25.5C 67.5832,24.8728 66.5832,24.5394 65.5,24.5C 65.4614,23.2438 65.9614,22.2438 67,21.5C 68.049,23.1066 69.549,23.7733 71.5,23.5C 73.1837,19.1648 71.8504,17.4981 67.5,18.5C 65.3023,18.5912 64.9689,17.9245 66.5,16.5C 66.6495,15.448 66.4828,14.448 66,13.5C 65.0862,14.6537 64.2529,14.487 63.5,13C 65.378,12.7476 67.378,12.0809 69.5,11C 68.3333,9.83333 67.1667,8.66667 66,7.5C 62.9564,6.74247 59.7898,6.74247 56.5,7.5C 60.0463,3.94436 64.0463,3.61103 68.5,6.5C 70.524,8.68983 72.3573,11.0232 74,13.5C 74.769,16.0991 74.6023,18.5991 73.5,21C 75.0139,22.439 75.3473,23.939 74.5,25.5C 75.6016,26.1757 76.6016,26.8423 77.5,27.5 Z"/></g>
<g><path style="opacity:1" fill="#64ce58" d="M 42.5,22.5 C 43.5659,23.6921 44.3992,23.3588 45,21.5C 45.9025,22.7014 47.0692,23.5348 48.5,24C 47.944,24.3826 47.6107,24.8826 47.5,25.5C 48.2389,25.369 48.9056,25.5357 49.5,26C 48.7476,26.6708 48.4142,27.5041 48.5,28.5C 46.5,28.5 44.5,28.5 42.5,28.5C 41.7375,27.7321 40.7375,27.2321 39.5,27C 41.9351,25.9966 41.6018,25.4966 38.5,25.5C 35.1919,25.3832 34.8586,26.0499 37.5,27.5C 37.1667,28.5 36.5,29.1667 35.5,29.5C 33.606,26.9666 31.106,25.2999 28,24.5C 27.161,19.5648 29.3277,17.5648 34.5,18.5C 34.2308,20.4286 34.7308,22.0953 36,23.5C 36.3333,22.8333 36.6667,22.1667 37,21.5C 38.5557,23.6348 40.3891,23.9681 42.5,22.5 Z"/></g>
<g><path style="opacity:1" fill="#51c954" d="M 65.5,24.5 C 65.1667,24.5 64.8333,24.5 64.5,24.5C 64.461,21.911 65.461,19.911 67.5,18.5C 71.8504,17.4981 73.1837,19.1648 71.5,23.5C 69.549,23.7733 68.049,23.1066 67,21.5C 65.9614,22.2438 65.4614,23.2438 65.5,24.5 Z"/></g>
<g><path style="opacity:1" fill="#8c48af" d="M 64.5,15.5 C 65.1667,15.8333 65.8333,16.1667 66.5,16.5C 64.9689,17.9245 65.3023,18.5912 67.5,18.5C 65.461,19.911 64.461,21.911 64.5,24.5C 62.3021,26.0981 59.9687,27.4314 57.5,28.5C 57.5,27.5 57.5,26.5 57.5,25.5C 60.5983,25.5875 60.9316,25.0875 58.5,24C 59.7487,22.1759 60.9153,22.3426 62,24.5C 63.756,23.5787 63.9227,22.412 62.5,21C 63.8561,19.4329 64.5228,17.5996 64.5,15.5 Z"/></g>
<g><path style="opacity:1" fill="#9297de" d="M 47.5,25.5 C 47.5299,26.4972 47.0299,27.1639 46,27.5C 46.0577,26.02 44.8911,25.1867 42.5,25C 44.265,24.3603 45.9317,24.5269 47.5,25.5 Z"/></g>
<g><path style="opacity:1" fill="#ccc7c1" d="M 80.5,37.5 C 80.2196,34.6118 81.5529,33.1118 84.5,33C 83.9558,32.2828 83.2891,31.7828 82.5,31.5C 81.3121,30.3157 80.1455,30.3157 79,31.5C 77.1759,30.2513 77.3426,29.0847 79.5,28C 78.9056,27.5357 78.2389,27.369 77.5,27.5C 76.6016,26.8423 75.6016,26.1757 74.5,25.5C 75.3473,23.939 75.0139,22.439 73.5,21C 74.6023,18.5991 74.769,16.0991 74,13.5C 72.3573,11.0232 70.524,8.68983 68.5,6.5C 64.0463,3.61103 60.0463,3.94436 56.5,7.5C 55.8333,7.5 55.1667,7.5 54.5,7.5C 55.8499,6.17648 55.6833,5.17648 54,4.5C 50.5108,6.61777 47.0108,6.61777 43.5,4.5C 48.6508,3.78811 53.8175,3.12145 59,2.5C 66.1321,1.7727 71.4654,4.43937 75,10.5C 75.7971,15.1745 76.6304,19.8412 77.5,24.5C 81.2443,26.1207 84.7443,28.1207 88,30.5C 90.1157,37.8856 87.6157,40.219 80.5,37.5 Z"/></g>
<g><path style="opacity:1" fill="#2608b2" d="M 45.5,50.5 C 46.1667,50.5 46.5,50.1667 46.5,49.5C 48.6977,49.4088 49.0311,50.0755 47.5,51.5C 44.867,51.6908 42.5337,53.0241 40.5,55.5C 38.7975,54.9249 37.1309,54.0915 35.5,53C 37.8912,52.3086 37.8912,51.3086 35.5,50C 36.7059,48.9823 36.3726,48.4823 34.5,48.5C 33.3527,48.8178 32.5194,49.4844 32,50.5C 30.9188,48.2329 29.4188,48.0662 27.5,50C 28.7836,51.2975 28.6169,52.4642 27,53.5C 26.6526,56.7424 27.8193,59.5757 30.5,62C 33.7536,63.4118 37.2536,65.2451 41,67.5C 43.8195,65.6232 46.6528,65.2899 49.5,66.5C 47.0733,66.523 44.74,67.023 42.5,68C 44.299,69.0363 45.9657,69.2029 47.5,68.5C 48.209,69.404 49.209,69.7373 50.5,69.5C 52.2646,70.4614 54.2646,70.7947 56.5,70.5C 57.5,70.5 58.5,70.5 59.5,70.5C 61.8418,70.7748 61.8418,71.6081 59.5,73C 56.8807,73.1515 54.5473,73.9848 52.5,75.5C 53.6155,76.5984 53.6155,77.7651 52.5,79C 53.1242,81.0851 54.1242,82.9184 55.5,84.5C 55.5858,85.4959 55.2524,86.3292 54.5,87C 52.221,87.4728 50.221,88.4728 48.5,90C 50.0846,90.0848 51.4179,90.2514 52.5,90.5C 50.9547,91.4519 49.288,91.7852 47.5,91.5C 47.5,90.5 47.5,89.5 47.5,88.5C 42.4381,88.6977 37.6047,88.6977 33,88.5C 32,89.1667 31,89.8333 30,90.5C 28,89.1667 26,89.1667 24,90.5C 24.0773,89.2624 23.9106,88.2624 23.5,87.5C 21.7295,88.0354 21.3961,88.8687 22.5,90C 21.2068,90.49 19.8734,90.6567 18.5,90.5C 18.3573,88.7376 18.6906,87.0709 19.5,85.5C 17.6721,84.2048 15.6721,83.2048 13.5,82.5C 12.433,80.4414 11.0996,78.608 9.5,77C 10.1667,75.3333 10.8333,73.6667 11.5,72C 8.83333,71.3333 8.83333,70.6667 11.5,70C 11.0426,69.586 10.7093,69.086 10.5,68.5C 11.5186,64.0061 12.8519,59.6727 14.5,55.5C 13.8333,54.1667 13.1667,52.8333 12.5,51.5C 17.8333,50.1667 17.8333,48.8333 12.5,47.5C 12.9186,46.3279 13.5853,45.3279 14.5,44.5C 14.2964,45.5294 14.7964,46.5294 16,47.5C 16.3173,45.6992 16.984,45.3659 18,46.5C 20.8654,40.7692 23.6987,35.1026 26.5,29.5C 28.3307,30.0522 29.9974,30.0522 31.5,29.5C 34.077,31.8454 33.9104,33.8454 31,35.5C 30.3828,36.4491 30.5494,37.2825 31.5,38C 28.7316,41.5354 29.7316,43.3688 34.5,43.5C 34.3505,42.448 34.5172,41.448 35,40.5C 36.0194,42.2694 36.186,43.9361 35.5,45.5C 37.4521,49.8095 40.7854,51.4761 45.5,50.5 Z"/></g>
<g><path style="opacity:1" fill="#96a86b" d="M 42.5,28.5 C 44.5,28.5 46.5,28.5 48.5,28.5C 49.9311,28.8807 50.7645,29.8807 51,31.5C 51.9737,27.9048 52.8071,28.2382 53.5,32.5C 51.8828,33.038 50.2161,33.3713 48.5,33.5C 48.9059,31.8908 48.9059,30.5575 48.5,29.5C 47.4625,31.6277 46.1292,32.6277 44.5,32.5C 45.325,33.3857 46.325,33.719 47.5,33.5C 47.4828,35.5648 47.1495,37.5648 46.5,39.5C 45.1667,39.5 43.8333,39.5 42.5,39.5C 39.8156,36.9918 40.1489,34.8252 43.5,33C 42.0993,32.5899 40.766,32.0899 39.5,31.5C 39.8564,29.8102 40.8564,28.8102 42.5,28.5 Z"/></g>
<g><path style="opacity:1" fill="#8e748e" d="M 58.5,11.5 C 59.552,11.3505 60.552,11.5172 61.5,12C 62.1634,13.5185 63.1634,14.6851 64.5,15.5C 64.5228,17.5996 63.8561,19.4329 62.5,21C 63.9227,22.412 63.756,23.5787 62,24.5C 60.9153,22.3426 59.7487,22.1759 58.5,24C 60.9316,25.0875 60.5983,25.5875 57.5,25.5C 57.5,26.5 57.5,27.5 57.5,28.5C 57.0618,28.4346 56.7284,28.6012 56.5,29C 59.1447,32.1641 58.1447,33.3307 53.5,32.5C 52.8071,28.2382 51.9737,27.9048 51,31.5C 50.7645,29.8807 49.9311,28.8807 48.5,28.5C 48.4142,27.5041 48.7476,26.6708 49.5,26C 48.9056,25.5357 48.2389,25.369 47.5,25.5C 47.6107,24.8826 47.944,24.3826 48.5,24C 47.0692,23.5348 45.9025,22.7014 45,21.5C 44.3992,23.3588 43.5659,23.6921 42.5,22.5C 42.9382,22.5654 43.2716,22.3988 43.5,22C 42.8333,21.6667 42.1667,21.3333 41.5,21C 43.5,20.3333 45.5,20.3333 47.5,21C 48.7256,22.6349 50.059,24.1349 51.5,25.5C 51.9679,23.8868 51.3013,22.3868 49.5,21C 52.142,20.7445 53.9753,21.9112 55,24.5C 56.6458,22.9452 56.9791,21.2785 56,19.5C 56.7175,20.4506 57.5509,20.6172 58.5,20C 54.8654,16.5194 55.8654,14.5194 61.5,14C 60.0577,13.6232 59.0577,12.7899 58.5,11.5 Z"/></g>
<g><path style="opacity:1" fill="#9f4e8b" d="M 77.5,27.5 C 78.2389,27.369 78.9056,27.5357 79.5,28C 77.3426,29.0847 77.1759,30.2513 79,31.5C 80.1455,30.3157 81.3121,30.3157 82.5,31.5C 79.7866,33.5826 77.12,33.5826 74.5,31.5C 75.9095,30.4305 76.9095,29.0972 77.5,27.5 Z"/></g>
<g><path style="opacity:1" fill="#8c789b" d="M 53.5,32.5 C 54.4832,34.2912 55.8165,35.7912 57.5,37C 55.5188,37.6054 55.1854,38.6054 56.5,40C 54.6577,39.932 52.991,40.0986 51.5,40.5C 50.2652,40.2786 49.2652,39.6119 48.5,38.5C 47.8165,38.8627 47.1499,39.1961 46.5,39.5C 47.1495,37.5648 47.4828,35.5648 47.5,33.5C 46.325,33.719 45.325,33.3857 44.5,32.5C 46.1292,32.6277 47.4625,31.6277 48.5,29.5C 48.9059,30.5575 48.9059,31.8908 48.5,33.5C 50.2161,33.3713 51.8828,33.038 53.5,32.5 Z"/></g>
<g><path style="opacity:1" fill="#864a97" d="M 39.5,31.5 C 40.766,32.0899 42.0993,32.5899 43.5,33C 40.1489,34.8252 39.8156,36.9918 42.5,39.5C 44.0311,40.9245 43.6977,41.5912 41.5,41.5C 39.8494,40.453 38.1828,39.2863 36.5,38C 36.7036,35.1053 37.7036,32.9386 39.5,31.5 Z"/></g>
<g><path style="opacity:1" fill="#9f9a7c" d="M 77.5,27.5 C 76.9095,29.0972 75.9095,30.4305 74.5,31.5C 77.12,33.5826 79.7866,33.5826 82.5,31.5C 83.2891,31.7828 83.9558,32.2828 84.5,33C 81.5529,33.1118 80.2196,34.6118 80.5,37.5C 80.5,38.1667 80.1667,38.5 79.5,38.5C 79.631,37.7611 79.4643,37.0944 79,36.5C 77.459,38.477 76.959,40.477 77.5,42.5C 77.3473,47.5018 75.014,49.6685 70.5,49C 71.3333,49.8333 72.1667,50.6667 73,51.5C 74.1827,50.269 75.3493,50.269 76.5,51.5C 77.7111,52.7202 77.7111,53.8869 76.5,55C 77.5,55.3333 78.5,55.6667 79.5,56C 76.1041,57.392 75.4374,59.2254 77.5,61.5C 76.6602,62.735 75.6602,63.735 74.5,64.5C 73.3079,63.4341 73.6412,62.6008 75.5,62C 74.051,60.8978 72.7177,59.7311 71.5,58.5C 72.0312,56.3763 73.3645,54.8763 75.5,54C 73.728,52.5132 71.728,52.1799 69.5,53C 70.8333,53.6667 70.8333,54.3333 69.5,55C 65.1638,55.8334 63.1638,54.0001 63.5,49.5C 65.7957,49.1959 66.129,48.1959 64.5,46.5C 65.552,46.3505 66.552,46.5172 67.5,47C 66.5494,47.7175 66.3828,48.5509 67,49.5C 68.6167,48.4606 69.7834,47.4606 70.5,46.5C 71.3864,47.7759 72.3864,47.7759 73.5,46.5C 75.9779,44.4363 75.9779,42.4363 73.5,40.5C 74.5294,40.7036 75.5294,40.2036 76.5,39C 73.8334,37.074 71.1667,34.4073 68.5,31C 67.5632,30.3083 66.8966,30.475 66.5,31.5C 65.1779,31.67 64.0113,31.3366 63,30.5C 62.1729,31.6621 61.3396,32.8288 60.5,34C 61.9674,35.7816 63.3007,37.6149 64.5,39.5C 62.2151,40.5463 59.8817,40.5463 57.5,39.5C 57.0807,42.3245 58.0807,44.4912 60.5,46C 59.1667,46.6667 59.1667,47.3333 60.5,48C 59.3774,49.0437 58.0441,49.7104 56.5,50C 57.0944,50.4643 57.7611,50.631 58.5,50.5C 57.6993,52.5084 56.366,53.0084 54.5,52C 55.7836,53.2975 55.6169,54.4642 54,55.5C 53.6667,55.1667 53.3333,54.8333 53,54.5C 52.2599,55.7494 52.4265,56.7494 53.5,57.5C 54.5981,58.397 54.5981,59.2303 53.5,60C 54.4162,60.3742 55.2496,60.8742 56,61.5C 55.9227,60.2624 56.0894,59.2624 56.5,58.5C 57.1667,59.8333 57.8333,61.1667 58.5,62.5C 59.1924,61.9747 59.6924,61.3081 60,60.5C 60.7504,61.1258 61.5838,61.6258 62.5,62C 60.0341,64.5333 58.0341,67.3666 56.5,70.5C 54.2646,70.7947 52.2646,70.4614 50.5,69.5C 52.3032,68.9536 53.9698,68.1203 55.5,67C 52.8333,66.3333 52.8333,65.6667 55.5,65C 53.6711,64.7265 52.1711,63.8932 51,62.5C 49.8173,63.731 48.6507,63.731 47.5,62.5C 48.1445,61.2679 48.3112,59.9346 48,58.5C 49.3159,61.028 50.4826,61.028 51.5,58.5C 50.0499,57.1502 49.3832,55.4835 49.5,53.5C 49.5614,51.4078 50.5614,49.9078 52.5,49C 52.2716,48.6012 51.9382,48.4346 51.5,48.5C 51.5,45.8333 51.5,43.1667 51.5,40.5C 52.991,40.0986 54.6577,39.932 56.5,40C 55.1854,38.6054 55.5188,37.6054 57.5,37C 55.8165,35.7912 54.4832,34.2912 53.5,32.5C 58.1447,33.3307 59.1447,32.1641 56.5,29C 56.7284,28.6012 57.0618,28.4346 57.5,28.5C 59.9687,27.4314 62.3021,26.0981 64.5,24.5C 64.8333,24.5 65.1667,24.5 65.5,24.5C 66.5832,24.5394 67.5832,24.8728 68.5,25.5C 72.2532,22.5369 73.9199,23.2036 73.5,27.5C 68.6604,28.1885 68.3271,29.8552 72.5,32.5C 73.7112,31.7261 73.7112,30.8928 72.5,30C 74.249,29.2152 75.9157,28.3818 77.5,27.5 Z"/></g>
<g><path style="opacity:1" fill="#6450b8" d="M 66.5,31.5 C 65.7375,32.2679 64.7375,32.7679 63.5,33C 64.3081,33.3076 64.9747,33.8076 65.5,34.5C 65.0143,36.3039 64.681,37.9706 64.5,39.5C 63.3007,37.6149 61.9674,35.7816 60.5,34C 61.3396,32.8288 62.1729,31.6621 63,30.5C 64.0113,31.3366 65.1779,31.67 66.5,31.5 Z"/></g>
<g><path style="opacity:1" fill="#564a4e" d="M 51.5,40.5 C 51.5,43.1667 51.5,45.8333 51.5,48.5C 49.5853,48.2155 47.9187,48.5489 46.5,49.5C 46.5,50.1667 46.1667,50.5 45.5,50.5C 45.631,49.7611 45.4643,49.0944 45,48.5C 44.1072,49.7112 43.2739,49.7112 42.5,48.5C 43.1667,47.8333 43.8333,47.1667 44.5,46.5C 43.6034,46.3309 42.6034,45.9976 41.5,45.5C 40.1931,44.135 40.1931,42.8016 41.5,41.5C 43.6977,41.5912 44.0311,40.9245 42.5,39.5C 43.8333,39.5 45.1667,39.5 46.5,39.5C 47.1499,39.1961 47.8165,38.8627 48.5,38.5C 49.2652,39.6119 50.2652,40.2786 51.5,40.5 Z"/></g>
<g><path style="opacity:1" fill="#a87887" d="M 70.5,46.5 C 70.5106,44.9826 71.1772,43.8159 72.5,43C 69.7052,40.0551 66.8719,40.2218 64,43.5C 63.5304,44.5768 63.6971,45.5768 64.5,46.5C 66.129,48.1959 65.7957,49.1959 63.5,49.5C 62.7784,49.9175 62.2784,50.5842 62,51.5C 60.9887,50.6634 59.8221,50.33 58.5,50.5C 57.7611,50.631 57.0944,50.4643 56.5,50C 58.0441,49.7104 59.3774,49.0437 60.5,48C 59.1667,47.3333 59.1667,46.6667 60.5,46C 58.0807,44.4912 57.0807,42.3245 57.5,39.5C 59.8817,40.5463 62.2151,40.5463 64.5,39.5C 64.681,37.9706 65.0143,36.3039 65.5,34.5C 64.9747,33.8076 64.3081,33.3076 63.5,33C 64.7375,32.7679 65.7375,32.2679 66.5,31.5C 66.8966,30.475 67.5632,30.3083 68.5,31C 71.1667,34.4073 73.8334,37.074 76.5,39C 75.5294,40.2036 74.5294,40.7036 73.5,40.5C 75.9779,42.4363 75.9779,44.4363 73.5,46.5C 72.3864,47.7759 71.3864,47.7759 70.5,46.5 Z"/></g>
<g><path style="opacity:1" fill="#2d2a29" d="M 70.5,46.5 C 69.7834,47.4606 68.6167,48.4606 67,49.5C 66.3828,48.5509 66.5494,47.7175 67.5,47C 66.552,46.5172 65.552,46.3505 64.5,46.5C 63.6971,45.5768 63.5304,44.5768 64,43.5C 66.8719,40.2218 69.7052,40.0551 72.5,43C 71.1772,43.8159 70.5106,44.9826 70.5,46.5 Z"/></g>
<g><path style="opacity:1" fill="#88c15f" d="M 46.5,49.5 C 47.9187,48.5489 49.5853,48.2155 51.5,48.5C 51.9382,48.4346 52.2716,48.6012 52.5,49C 50.5614,49.9078 49.5614,51.4078 49.5,53.5C 48.7784,53.9175 48.2784,54.5842 48,55.5C 47.9378,53.8853 47.7711,52.5519 47.5,51.5C 49.0311,50.0755 48.6977,49.4088 46.5,49.5 Z"/></g>
<g><path style="opacity:1" fill="#3f08b2" d="M 63.5,49.5 C 63.1638,54.0001 65.1638,55.8334 69.5,55C 70.8333,54.3333 70.8333,53.6667 69.5,53C 71.728,52.1799 73.728,52.5132 75.5,54C 73.3645,54.8763 72.0312,56.3763 71.5,58.5C 65.8574,58.5123 59.8574,58.179 53.5,57.5C 52.4265,56.7494 52.2599,55.7494 53,54.5C 53.3333,54.8333 53.6667,55.1667 54,55.5C 55.6169,54.4642 55.7836,53.2975 54.5,52C 56.366,53.0084 57.6993,52.5084 58.5,50.5C 59.8221,50.33 60.9887,50.6634 62,51.5C 62.2784,50.5842 62.7784,49.9175 63.5,49.5 Z"/></g>
<g><path style="opacity:1" fill="#aea894" d="M 31.5,8.5 C 33.7349,9.24811 33.4016,10.0814 30.5,11C 33.0789,12.729 33.0789,14.5623 30.5,16.5C 31,16.8333 31.5,17.1667 32,17.5C 33.4651,16.6705 34.9651,16.5038 36.5,17C 36.1667,17.3333 35.8333,17.6667 35.5,18C 37.2212,19.4371 38.7212,18.9371 40,16.5C 40.8536,19.7625 42.3536,19.7625 44.5,16.5C 44.369,17.2389 44.5357,17.9056 45,18.5C 46.6597,18.6759 48.3264,18.0093 50,16.5C 51.3333,17.1667 52.3333,18.1667 53,19.5C 54.113,18.2396 54.2797,17.073 53.5,16C 54.1667,15.6667 54.8333,15.3333 55.5,15C 54.0267,14.2904 53.3601,13.1238 53.5,11.5C 55.1667,11.5 56.8333,11.5 58.5,11.5C 59.0577,12.7899 60.0577,13.6232 61.5,14C 55.8654,14.5194 54.8654,16.5194 58.5,20C 57.5509,20.6172 56.7175,20.4506 56,19.5C 56.9791,21.2785 56.6458,22.9452 55,24.5C 53.9753,21.9112 52.142,20.7445 49.5,21C 51.3013,22.3868 51.9679,23.8868 51.5,25.5C 50.059,24.1349 48.7256,22.6349 47.5,21C 45.5,20.3333 43.5,20.3333 41.5,21C 42.1667,21.3333 42.8333,21.6667 43.5,22C 43.2716,22.3988 42.9382,22.5654 42.5,22.5C 40.3891,23.9681 38.5557,23.6348 37,21.5C 36.6667,22.1667 36.3333,22.8333 36,23.5C 34.7308,22.0953 34.2308,20.4286 34.5,18.5C 29.3277,17.5648 27.161,19.5648 28,24.5C 31.106,25.2999 33.606,26.9666 35.5,29.5C 36.5,29.1667 37.1667,28.5 37.5,27.5C 34.8586,26.0499 35.1919,25.3832 38.5,25.5C 41.6018,25.4966 41.9351,25.9966 39.5,27C 40.7375,27.2321 41.7375,27.7321 42.5,28.5C 40.8564,28.8102 39.8564,29.8102 39.5,31.5C 37.7036,32.9386 36.7036,35.1053 36.5,38C 38.1828,39.2863 39.8494,40.453 41.5,41.5C 40.1931,42.8016 40.1931,44.135 41.5,45.5C 42.6034,45.9976 43.6034,46.3309 44.5,46.5C 43.8333,47.1667 43.1667,47.8333 42.5,48.5C 43.2739,49.7112 44.1072,49.7112 45,48.5C 45.4643,49.0944 45.631,49.7611 45.5,50.5C 40.7854,51.4761 37.4521,49.8095 35.5,45.5C 36.186,43.9361 36.0194,42.2694 35,40.5C 34.5172,41.448 34.3505,42.448 34.5,43.5C 29.7316,43.3688 28.7316,41.5354 31.5,38C 30.5494,37.2825 30.3828,36.4491 31,35.5C 33.9104,33.8454 34.077,31.8454 31.5,29.5C 29.9974,30.0522 28.3307,30.0522 26.5,29.5C 23.6987,35.1026 20.8654,40.7692 18,46.5C 16.984,45.3659 16.3173,45.6992 16,47.5C 14.7964,46.5294 14.2964,45.5294 14.5,44.5C 13.5853,45.3279 12.9186,46.3279 12.5,47.5C 17.8333,48.8333 17.8333,50.1667 12.5,51.5C 13.1667,52.8333 13.8333,54.1667 14.5,55.5C 12.8519,59.6727 11.5186,64.0061 10.5,68.5C 10.7093,69.086 11.0426,69.586 11.5,70C 8.83333,70.6667 8.83333,71.3333 11.5,72C 10.8333,73.6667 10.1667,75.3333 9.5,77C 11.0996,78.608 12.433,80.4414 13.5,82.5C 15.6721,83.2048 17.6721,84.2048 19.5,85.5C 18.6906,87.0709 18.3573,88.7376 18.5,90.5C 19.8734,90.6567 21.2068,90.49 22.5,90C 21.3961,88.8687 21.7295,88.0354 23.5,87.5C 23.9106,88.2624 24.0773,89.2624 24,90.5C 26,89.1667 28,89.1667 30,90.5C 31,89.8333 32,89.1667 33,88.5C 37.6047,88.6977 42.4381,88.6977 47.5,88.5C 47.5,89.5 47.5,90.5 47.5,91.5C 49.288,91.7852 50.9547,91.4519 52.5,90.5C 51.4179,90.2514 50.0846,90.0848 48.5,90C 50.221,88.4728 52.221,87.4728 54.5,87C 55.2524,86.3292 55.5858,85.4959 55.5,84.5C 56.8066,86.4599 58.1399,88.4599 59.5,90.5C 59.5,91.1667 59.5,91.8333 59.5,92.5C 57.9657,91.7971 56.299,91.9637 54.5,93C 43.8333,93.6667 33.1667,93.6667 22.5,93C 11.6006,91.6117 5.93392,85.7784 5.5,75.5C 5.33472,57.4943 10.8347,41.4943 22,27.5C 21.61,20.8718 23.4434,15.0385 27.5,10C 28.745,9.20858 30.0783,8.70858 31.5,8.5 Z"/></g>
<g><path style="opacity:1" fill="#ab489c" d="M 52.5,11.5 C 52.8333,11.5 53.1667,11.5 53.5,11.5C 53.3601,13.1238 54.0267,14.2904 55.5,15C 54.8333,15.3333 54.1667,15.6667 53.5,16C 54.2797,17.073 54.113,18.2396 53,19.5C 52.3333,18.1667 51.3333,17.1667 50,16.5C 48.3264,18.0093 46.6597,18.6759 45,18.5C 44.5357,17.9056 44.369,17.2389 44.5,16.5C 45.2679,15.7375 45.7679,14.7375 46,13.5C 46.2492,14.624 46.7492,15.624 47.5,16.5C 49.4365,15.0459 51.1032,13.3793 52.5,11.5 Z"/></g>
<g><path style="opacity:1" fill="#979273" d="M 40.5,55.5 C 40.0472,56.4584 39.3805,57.2917 38.5,58C 41.0278,58.6689 41.0278,59.5022 38.5,60.5C 36.4345,59.3898 35.6011,60.0564 36,62.5C 38.3416,62.3684 40.6749,63.0351 43,64.5C 45.516,63.5709 48.016,63.9042 50.5,65.5C 50.3764,66.1067 50.0431,66.44 49.5,66.5C 46.6528,65.2899 43.8195,65.6232 41,67.5C 37.2536,65.2451 33.7536,63.4118 30.5,62C 27.8193,59.5757 26.6526,56.7424 27,53.5C 28.6169,52.4642 28.7836,51.2975 27.5,50C 29.4188,48.0662 30.9188,48.2329 32,50.5C 32.5194,49.4844 33.3527,48.8178 34.5,48.5C 36.3726,48.4823 36.7059,48.9823 35.5,50C 37.8912,51.3086 37.8912,52.3086 35.5,53C 37.1309,54.0915 38.7975,54.9249 40.5,55.5 Z"/></g>
<g><path style="opacity:1" fill="#9e66a2" d="M 47.5,51.5 C 47.7711,52.5519 47.9378,53.8853 48,55.5C 48.2784,54.5842 48.7784,53.9175 49.5,53.5C 49.3832,55.4835 50.0499,57.1502 51.5,58.5C 50.4826,61.028 49.3159,61.028 48,58.5C 48.3112,59.9346 48.1445,61.2679 47.5,62.5C 48.6507,63.731 49.8173,63.731 51,62.5C 52.1711,63.8932 53.6711,64.7265 55.5,65C 52.8333,65.6667 52.8333,66.3333 55.5,67C 53.9698,68.1203 52.3032,68.9536 50.5,69.5C 49.209,69.7373 48.209,69.404 47.5,68.5C 48.5,68.1667 49.1667,67.5 49.5,66.5C 50.0431,66.44 50.3764,66.1067 50.5,65.5C 48.016,63.9042 45.516,63.5709 43,64.5C 40.6749,63.0351 38.3416,62.3684 36,62.5C 35.6011,60.0564 36.4345,59.3898 38.5,60.5C 41.0278,59.5022 41.0278,58.6689 38.5,58C 39.3805,57.2917 40.0472,56.4584 40.5,55.5C 42.5337,53.0241 44.867,51.6908 47.5,51.5 Z"/></g>
<g><path style="opacity:1" fill="#984da7" d="M 71.5,58.5 C 72.7177,59.7311 74.051,60.8978 75.5,62C 73.6412,62.6008 73.3079,63.4341 74.5,64.5C 74.7214,65.7348 75.3881,66.7348 76.5,67.5C 76.0576,68.7387 75.3909,69.7387 74.5,70.5C 71.9028,70.2792 71.9028,69.7792 74.5,69C 73.8333,68.6667 73.1667,68.3333 72.5,68C 72.8346,66.4974 72.8346,65.164 72.5,64C 70.6503,61.9672 69.9836,61.9672 70.5,64C 69.9056,64.4643 69.2389,64.631 68.5,64.5C 69.2055,62.3284 70.2055,60.3284 71.5,58.5 Z"/></g>
<g><path style="opacity:1" fill="#966773" d="M 53.5,57.5 C 59.8574,58.179 65.8574,58.5123 71.5,58.5C 70.2055,60.3284 69.2055,62.3284 68.5,64.5C 68.4142,65.4959 68.7476,66.3292 69.5,67C 67.892,67.658 66.7253,67.158 66,65.5C 64.3831,66.5358 64.2164,67.7025 65.5,69C 64.5838,69.3742 63.7504,69.8742 63,70.5C 62,69.1667 61,67.8333 60,66.5C 59.51,67.7932 59.3433,69.1266 59.5,70.5C 58.5,70.5 57.5,70.5 56.5,70.5C 58.0341,67.3666 60.0341,64.5333 62.5,62C 61.5838,61.6258 60.7504,61.1258 60,60.5C 59.6924,61.3081 59.1924,61.9747 58.5,62.5C 57.8333,61.1667 57.1667,59.8333 56.5,58.5C 56.0894,59.2624 55.9227,60.2624 56,61.5C 55.2496,60.8742 54.4162,60.3742 53.5,60C 54.5981,59.2303 54.5981,58.397 53.5,57.5 Z"/></g>
<g><path style="opacity:1" fill="#a6b86d" d="M 49.5,66.5 C 49.1667,67.5 48.5,68.1667 47.5,68.5C 45.9657,69.2029 44.299,69.0363 42.5,68C 44.74,67.023 47.0733,66.523 49.5,66.5 Z"/></g>
<g><path style="opacity:1" fill="#beb4c1" d="M 79.5,38.5 C 79.7507,41.909 79.4173,45.2423 78.5,48.5C 80.0058,50.6545 81.0058,52.9879 81.5,55.5C 80.1432,60.9263 78.4765,66.2596 76.5,71.5C 84.5324,76.2335 88.3657,83.2335 88,92.5C 80.6541,96.9089 72.9874,97.5756 65,94.5C 64.6667,94.8333 64.3333,95.1667 64,95.5C 62.3853,94.6138 60.8853,93.6138 59.5,92.5C 59.5,91.8333 59.5,91.1667 59.5,90.5C 60.1499,90.1961 60.8165,89.8627 61.5,89.5C 62.3816,90.7598 63.3816,91.9264 64.5,93C 65.4368,93.6917 66.1034,93.525 66.5,92.5C 66.3284,91.5084 66.6618,90.8417 67.5,90.5C 68.0899,91.766 68.5899,93.0993 69,94.5C 69.9991,90.7628 71.3325,90.7628 73,94.5C 74,93.1667 75,93.1667 76,94.5C 76.3768,93.0577 77.2101,92.0577 78.5,91.5C 78.7828,92.2891 79.2828,92.9558 80,93.5C 80.8505,90.3876 82.0172,90.0542 83.5,92.5C 84.557,90.9968 85.2237,89.3302 85.5,87.5C 84.6213,83.0523 82.288,79.7189 78.5,77.5C 77.1667,77.1667 75.8333,76.8333 74.5,76.5C 73.3501,77.8502 72.6834,77.6836 72.5,76C 73.0769,74.0999 73.7435,72.2666 74.5,70.5C 75.3909,69.7387 76.0576,68.7387 76.5,67.5C 75.3881,66.7348 74.7214,65.7348 74.5,64.5C 75.6602,63.735 76.6602,62.735 77.5,61.5C 75.4374,59.2254 76.1041,57.392 79.5,56C 78.5,55.6667 77.5,55.3333 76.5,55C 77.7111,53.8869 77.7111,52.7202 76.5,51.5C 75.3493,50.269 74.1827,50.269 73,51.5C 72.1667,50.6667 71.3333,49.8333 70.5,49C 75.014,49.6685 77.3473,47.5018 77.5,42.5C 76.959,40.477 77.459,38.477 79,36.5C 79.4643,37.0944 79.631,37.7611 79.5,38.5 Z"/></g>
<g><path style="opacity:1" fill="#839063" d="M 74.5,70.5 C 73.7435,72.2666 73.0769,74.0999 72.5,76C 72.6834,77.6836 73.3501,77.8502 74.5,76.5C 73.8288,77.8471 73.8288,79.0138 74.5,80C 71.7738,80.7858 68.9404,81.2858 66,81.5C 64.9412,81.3699 64.1079,80.8699 63.5,80C 65.9895,78.5303 68.3228,77.5303 70.5,77C 69.1667,76.3333 67.8333,75.6667 66.5,75C 68.0441,74.7104 69.3774,74.0437 70.5,73C 68.1224,72.0255 68.4557,71.3589 71.5,71C 68.4557,70.6411 68.1224,69.9745 70.5,69C 70,68.8333 69.5,68.6667 69,68.5C 66.996,70.8395 64.496,72.3395 61.5,73C 61.8333,73.3333 62.1667,73.6667 62.5,74C 59.8333,75 59.8333,76 62.5,77C 61.8333,77.3333 61.1667,77.6667 60.5,78C 61.5171,79.0495 61.6838,80.2161 61,81.5C 60.5774,80.0439 59.7441,79.5439 58.5,80C 58.3349,81.1169 58.0016,82.2836 57.5,83.5C 59.1217,85.641 61.1217,87.3076 63.5,88.5C 64.5,89.8333 65.5,91.1667 66.5,92.5C 66.1034,93.525 65.4368,93.6917 64.5,93C 63.3816,91.9264 62.3816,90.7598 61.5,89.5C 60.8165,89.8627 60.1499,90.1961 59.5,90.5C 58.1399,88.4599 56.8066,86.4599 55.5,84.5C 54.1242,82.9184 53.1242,81.0851 52.5,79C 53.6155,77.7651 53.6155,76.5984 52.5,75.5C 54.5473,73.9848 56.8807,73.1515 59.5,73C 61.8418,71.6081 61.8418,70.7748 59.5,70.5C 59.3433,69.1266 59.51,67.7932 60,66.5C 61,67.8333 62,69.1667 63,70.5C 63.7504,69.8742 64.5838,69.3742 65.5,69C 64.2164,67.7025 64.3831,66.5358 66,65.5C 66.7253,67.158 67.892,67.658 69.5,67C 68.7476,66.3292 68.4142,65.4959 68.5,64.5C 69.2389,64.631 69.9056,64.4643 70.5,64C 69.9836,61.9672 70.6503,61.9672 72.5,64C 72.8346,65.164 72.8346,66.4974 72.5,68C 73.1667,68.3333 73.8333,68.6667 74.5,69C 71.9028,69.7792 71.9028,70.2792 74.5,70.5 Z"/></g>
<g><path style="opacity:1" fill="#9a7585" d="M 74.5,76.5 C 75.8333,76.8333 77.1667,77.1667 78.5,77.5C 79.591,80.3935 79.591,82.8935 78.5,85C 76.3901,84.6534 74.3901,84.8201 72.5,85.5C 71.3943,86.7298 70.3943,87.8964 69.5,89C 67.5355,89.624 65.8689,89.124 64.5,87.5C 63.8933,87.6236 63.56,87.9569 63.5,88.5C 61.1217,87.3076 59.1217,85.641 57.5,83.5C 58.0016,82.2836 58.3349,81.1169 58.5,80C 59.7441,79.5439 60.5774,80.0439 61,81.5C 61.6838,80.2161 61.5171,79.0495 60.5,78C 61.1667,77.6667 61.8333,77.3333 62.5,77C 59.8333,76 59.8333,75 62.5,74C 62.1667,73.6667 61.8333,73.3333 61.5,73C 64.496,72.3395 66.996,70.8395 69,68.5C 69.5,68.6667 70,68.8333 70.5,69C 68.1224,69.9745 68.4557,70.6411 71.5,71C 68.4557,71.3589 68.1224,72.0255 70.5,73C 69.3774,74.0437 68.0441,74.7104 66.5,75C 67.8333,75.6667 69.1667,76.3333 70.5,77C 68.3228,77.5303 65.9895,78.5303 63.5,80C 64.1079,80.8699 64.9412,81.3699 66,81.5C 68.9404,81.2858 71.7738,80.7858 74.5,80C 73.8288,79.0138 73.8288,77.8471 74.5,76.5 Z"/></g>
<g><path style="opacity:1" fill="#94a06c" d="M 78.5,77.5 C 82.288,79.7189 84.6213,83.0523 85.5,87.5C 85.2237,89.3302 84.557,90.9968 83.5,92.5C 82.0172,90.0542 80.8505,90.3876 80,93.5C 79.2828,92.9558 78.7828,92.2891 78.5,91.5C 77.2101,92.0577 76.3768,93.0577 76,94.5C 75,93.1667 74,93.1667 73,94.5C 71.3325,90.7628 69.9991,90.7628 69,94.5C 68.5899,93.0993 68.0899,91.766 67.5,90.5C 71.881,90.8674 73.5476,89.2007 72.5,85.5C 74.3901,84.8201 76.3901,84.6534 78.5,85C 79.591,82.8935 79.591,80.3935 78.5,77.5 Z"/></g>
<g><path style="opacity:1" fill="#9c6dbf" d="M 78.5,91.5 C 78.0825,90.7784 77.4158,90.2784 76.5,90C 78.7656,88.486 79.9323,86.3193 80,83.5C 80.3333,85.1667 80.6667,86.8333 81,88.5C 82.0432,84.7741 82.5432,85.1074 82.5,89.5C 80.8007,89.5271 79.4674,90.1938 78.5,91.5 Z"/></g>
<g><path style="opacity:1" fill="#ad33b6" d="M 72.5,85.5 C 73.5476,89.2007 71.881,90.8674 67.5,90.5C 66.6618,90.8417 66.3284,91.5084 66.5,92.5C 65.5,91.1667 64.5,89.8333 63.5,88.5C 63.56,87.9569 63.8933,87.6236 64.5,87.5C 65.8689,89.124 67.5355,89.624 69.5,89C 70.3943,87.8964 71.3943,86.7298 72.5,85.5 Z"/></g>
</svg>
