<?xml version="1.0" encoding="UTF-8"?>
<!DOCTYPE svg PUBLIC "-//W3C//DTD SVG 1.1//EN" "http://www.w3.org/Graphics/SVG/1.1/DTD/svg11.dtd">
<svg xmlns="http://www.w3.org/2000/svg" version="1.1" width="256px" height="256px" style="shape-rendering:geometricPrecision; text-rendering:geometricPrecision; image-rendering:optimizeQuality; fill-rule:evenodd; clip-rule:evenodd" xmlns:xlink="http://www.w3.org/1999/xlink">
<g><path style="opacity:1" fill="#de1f07" d="M 202.5,36.5 C 195.269,32.8779 188.269,28.7112 181.5,24C 146.776,8.13856 111.776,7.47189 76.5,22C 69.3827,25.9715 62.716,30.4715 56.5,35.5C 52.1467,35.2354 47.8134,34.7354 43.5,34C 44.3734,32.955 45.3734,32.1217 46.5,31.5C 51.9648,26.36 57.9648,22.0267 64.5,18.5C 99.2095,0.338409 135.209,-2.49492 172.5,10C 186.94,15.7171 199.94,23.7171 211.5,34C 208.534,35.0473 205.534,35.8806 202.5,36.5 Z"/></g>
<g><path style="opacity:1" fill="#1e0702" d="M 202.5,36.5 C 201.07,37.5375 199.403,38.2041 197.5,38.5C 194.185,34.6504 190.185,31.4838 185.5,29C 147.378,8.72948 109.044,8.39615 70.5,28C 65.4229,30.2573 61.0896,33.424 57.5,37.5C 56.6618,37.1583 56.3284,36.4916 56.5,35.5C 62.716,30.4715 69.3827,25.9715 76.5,22C 111.776,7.47189 146.776,8.13856 181.5,24C 188.269,28.7112 195.269,32.8779 202.5,36.5 Z"/></g>
<g><path style="opacity:1" fill="#2d0e04" d="M 69.5,13.5 C 67.5635,14.9541 65.8968,16.6207 64.5,18.5C 57.9648,22.0267 51.9648,26.36 46.5,31.5C 46.631,30.7611 46.4643,30.0944 46,29.5C 45,30.5 44,31.5 43,32.5C 42.6012,32.2716 42.4346,31.9382 42.5,31.5C 50.4067,23.9386 59.4067,17.9386 69.5,13.5 Z"/></g>
<g><path style="opacity:1" fill="#e42c14" d="M 197.5,38.5 C 191.351,41.4087 185.684,45.0753 180.5,49.5C 179.25,49.4226 178.417,48.756 178,47.5C 177.692,48.3081 177.192,48.9747 176.5,49.5C 174.737,49.3062 172.903,49.3062 171,49.5C 170.667,48.5 170.333,47.5 170,46.5C 167.964,47.102 166.13,48.102 164.5,49.5C 163.692,49.1924 163.025,48.6924 162.5,48C 163.5,47 164.5,46 165.5,45C 163.213,44.9717 161.213,45.805 159.5,47.5C 159.719,46.325 159.386,45.325 158.5,44.5C 155.441,44.0709 152.441,43.0709 149.5,41.5C 149.5,40.1667 149.5,38.8333 149.5,37.5C 145.764,38.3243 142.264,38.991 139,39.5C 137.702,36.2103 135.202,34.7103 131.5,35C 130.663,33.9887 130.33,32.8221 130.5,31.5C 129.5,31.5 128.5,31.5 127.5,31.5C 127.307,27.551 126.807,27.551 126,31.5C 124.775,27.82 123.942,28.1534 123.5,32.5C 121.176,32.9949 119.009,32.9949 117,32.5C 113.973,33.6044 110.806,35.271 107.5,37.5C 104.785,34.7541 102.452,34.9208 100.5,38C 100.905,38.9454 101.572,39.6121 102.5,40C 101.234,40.3095 100.067,40.8095 99,41.5C 97.8455,40.2567 96.5122,39.2567 95,38.5C 93.2041,39.767 91.3707,39.767 89.5,38.5C 88.707,39.3554 89.0403,40.1887 90.5,41C 88.925,40.621 87.425,40.7877 86,41.5C 83.8705,37.6113 82.8705,37.9446 83,42.5C 83.3333,41.8333 83.6667,41.1667 84,40.5C 85.2705,41.7046 85.9372,43.0379 86,44.5C 83.7345,44.8617 81.5678,44.195 79.5,42.5C 77.997,43.5227 76.497,44.5227 75,45.5C 72.7561,45.0949 70.5894,44.7616 68.5,44.5C 65.0026,41.917 61.3359,39.5836 57.5,37.5C 61.0896,33.424 65.4229,30.2573 70.5,28C 109.044,8.39615 147.378,8.72948 185.5,29C 190.185,31.4838 194.185,34.6504 197.5,38.5 Z"/></g>
<g><path style="opacity:0.999" fill="#130b0a" d="M 111.5,-0.5 C 122.167,-0.5 132.833,-0.5 143.5,-0.5C 193.489,7.98005 228.323,35.6467 248,82.5C 251.314,92.0953 253.814,101.762 255.5,111.5C 255.5,122.167 255.5,132.833 255.5,143.5C 247.02,193.489 219.353,228.323 172.5,248C 162.905,251.314 153.238,253.814 143.5,255.5C 132.833,255.5 122.167,255.5 111.5,255.5C 91.8143,252.827 73.8143,245.827 57.5,234.5C 45.1881,224.854 33.8548,214.188 23.5,202.5C 10.7918,184.75 2.79181,165.083 -0.5,143.5C -0.5,132.833 -0.5,122.167 -0.5,111.5C 4.39178,79.714 18.7251,53.0473 42.5,31.5C 42.4346,31.9382 42.6012,32.2716 43,32.5C 44,31.5 45,30.5 46,29.5C 46.4643,30.0944 46.631,30.7611 46.5,31.5C 45.3734,32.1217 44.3734,32.955 43.5,34C 47.8134,34.7354 52.1467,35.2354 56.5,35.5C 56.3284,36.4916 56.6618,37.1583 57.5,37.5C 61.3359,39.5836 65.0026,41.917 68.5,44.5C 71.4744,47.1379 74.4744,49.8046 77.5,52.5C 80.1667,55.8333 83.1667,58.8333 86.5,61.5C 89.5021,64.8425 92.5021,68.1758 95.5,71.5C 104.723,67.3892 114.39,65.7226 124.5,66.5C 136.987,66.0974 149.154,67.7641 161,71.5C 164.689,67.3121 168.189,62.9788 171.5,58.5C 174.833,55.8333 177.833,52.8333 180.5,49.5C 185.684,45.0753 191.351,41.4087 197.5,38.5C 199.403,38.2041 201.07,37.5375 202.5,36.5C 205.534,35.8806 208.534,35.0473 211.5,34C 199.94,23.7171 186.94,15.7171 172.5,10C 135.209,-2.49492 99.2095,0.338409 64.5,18.5C 65.8968,16.6207 67.5635,14.9541 69.5,13.5C 82.6542,6.22638 96.6542,1.55972 111.5,-0.5 Z"/></g>
<g><path style="opacity:1" fill="#ede2d1" d="M 60.5,45.5 C 58.742,45.1231 57.0754,44.4565 55.5,43.5C 53.5545,47.1703 51.2212,50.8369 48.5,54.5C 46,58.1974 45,62.3641 45.5,67C 45.7861,73.5469 46.4528,80.0469 47.5,86.5C 47.7076,88.9201 47.3742,91.2534 46.5,93.5C 47.2472,93.7365 48.0805,94.0698 49,94.5C 50.6282,98.3247 50.7948,102.158 49.5,106C 50.2101,111.621 50.8768,117.288 51.5,123C 51.1918,124.459 50.5251,125.626 49.5,126.5C 46.1019,114.016 43.2686,101.349 41,88.5C 39.3362,76.2091 38.6695,63.8758 39,51.5C 40.1119,47.4541 41.6119,43.6208 43.5,40C 50.2178,38.9228 55.8845,40.7562 60.5,45.5 Z"/></g>
<g><path style="opacity:1" fill="#eb452f" d="M 159.5,47.5 C 161.213,45.805 163.213,44.9717 165.5,45C 164.5,46 163.5,47 162.5,48C 163.025,48.6924 163.692,49.1924 164.5,49.5C 166.13,48.102 167.964,47.102 170,46.5C 170.333,47.5 170.667,48.5 171,49.5C 172.903,49.3062 174.737,49.3062 176.5,49.5C 177.192,48.9747 177.692,48.3081 178,47.5C 178.417,48.756 179.25,49.4226 180.5,49.5C 177.833,52.8333 174.833,55.8333 171.5,58.5C 170.178,58.67 169.011,58.3366 168,57.5C 166.672,59.4947 165.005,61.1613 163,62.5C 160.214,60.941 157.381,60.6076 154.5,61.5C 153.416,60.3349 152.583,59.0016 152,57.5C 151.667,57.8333 151.333,58.1667 151,58.5C 148.502,55.1903 146.002,55.0236 143.5,58C 141.343,58.0781 139.343,58.2448 137.5,58.5C 137.36,57.4305 137.36,56.2639 137.5,55C 137,54.5 136.5,54 136,53.5C 135.691,54.7659 135.191,55.9326 134.5,57C 130.811,58.1091 127.145,59.2757 123.5,60.5C 122.15,59.0499 120.484,58.3832 118.5,58.5C 118.033,60.711 117.033,62.711 115.5,64.5C 114.304,64.1543 114.304,63.6543 115.5,63C 112.358,59.3751 108.692,58.0417 104.5,59C 104.64,60.2639 104.64,61.4305 104.5,62.5C 103.251,60.5245 101.751,60.1912 100,61.5C 99.7837,59.6161 99.117,57.9494 98,56.5C 97.5,57.5 97,58.5 96.5,59.5C 96.8457,60.6956 97.3457,60.6956 98,59.5C 99.0879,62.4925 98.4213,63.4925 96,62.5C 94.4411,63.0294 92.9411,63.696 91.5,64.5C 90.5713,63.3112 90.238,61.9778 90.5,60.5C 89.0413,60.4326 87.7079,60.7659 86.5,61.5C 83.1667,58.8333 80.1667,55.8333 77.5,52.5C 84.0277,54.0555 90.5277,55.0555 97,55.5C 97.5,55 98,54.5 98.5,54C 97.376,53.7508 96.376,53.2508 95.5,52.5C 96.2472,52.2635 97.0805,51.9302 98,51.5C 99.8029,49.5155 100.803,47.5155 101,45.5C 102,46.8333 103,48.1667 104,49.5C 106.193,48.2274 108.36,47.894 110.5,48.5C 112.738,43.5685 115.571,43.2351 119,47.5C 119.869,44.2374 121.203,43.9041 123,46.5C 124.113,45.2889 125.28,45.2889 126.5,46.5C 127.486,42.625 128.653,42.625 130,46.5C 133,46.1667 134.667,44.5 135,41.5C 135.308,42.3081 135.808,42.9747 136.5,43.5C 137.451,42.6744 138.451,42.5078 139.5,43C 140.147,44.6095 140.98,46.1095 142,47.5C 142.333,47.1667 142.667,46.8333 143,46.5C 144.493,48.3476 146.326,49.1809 148.5,49C 147.72,47.927 147.887,46.7604 149,45.5C 149.542,50.7208 150.376,50.7208 151.5,45.5C 152.5,46.1667 153.5,46.8333 154.5,47.5C 156.003,46.9478 157.669,46.9478 159.5,47.5 Z"/></g>
<g><path style="opacity:1" fill="#ea3d25" d="M 159.5,47.5 C 157.669,46.9478 156.003,46.9478 154.5,47.5C 153.5,46.8333 152.5,46.1667 151.5,45.5C 150.376,50.7208 149.542,50.7208 149,45.5C 147.887,46.7604 147.72,47.927 148.5,49C 146.326,49.1809 144.493,48.3476 143,46.5C 142.667,46.8333 142.333,47.1667 142,47.5C 140.98,46.1095 140.147,44.6095 139.5,43C 138.451,42.5078 137.451,42.6744 136.5,43.5C 135.808,42.9747 135.308,42.3081 135,41.5C 134.667,44.5 133,46.1667 130,46.5C 128.653,42.625 127.486,42.625 126.5,46.5C 125.28,45.2889 124.113,45.2889 123,46.5C 121.203,43.9041 119.869,44.2374 119,47.5C 115.571,43.2351 112.738,43.5685 110.5,48.5C 108.36,47.894 106.193,48.2274 104,49.5C 103,48.1667 102,46.8333 101,45.5C 100.803,47.5155 99.8029,49.5155 98,51.5C 97.0805,51.9302 96.2472,52.2635 95.5,52.5C 96.376,53.2508 97.376,53.7508 98.5,54C 98,54.5 97.5,55 97,55.5C 90.5277,55.0555 84.0277,54.0555 77.5,52.5C 74.4744,49.8046 71.4744,47.1379 68.5,44.5C 70.5894,44.7616 72.7561,45.0949 75,45.5C 76.497,44.5227 77.997,43.5227 79.5,42.5C 81.5678,44.195 83.7345,44.8617 86,44.5C 85.9372,43.0379 85.2705,41.7046 84,40.5C 83.6667,41.1667 83.3333,41.8333 83,42.5C 82.8705,37.9446 83.8705,37.6113 86,41.5C 87.425,40.7877 88.925,40.621 90.5,41C 89.0403,40.1887 88.707,39.3554 89.5,38.5C 91.3707,39.767 93.2041,39.767 95,38.5C 96.5122,39.2567 97.8455,40.2567 99,41.5C 100.067,40.8095 101.234,40.3095 102.5,40C 101.572,39.6121 100.905,38.9454 100.5,38C 102.452,34.9208 104.785,34.7541 107.5,37.5C 110.806,35.271 113.973,33.6044 117,32.5C 119.009,32.9949 121.176,32.9949 123.5,32.5C 123.942,28.1534 124.775,27.82 126,31.5C 126.807,27.551 127.307,27.551 127.5,31.5C 128.5,31.5 129.5,31.5 130.5,31.5C 130.33,32.8221 130.663,33.9887 131.5,35C 135.202,34.7103 137.702,36.2103 139,39.5C 142.264,38.991 145.764,38.3243 149.5,37.5C 149.5,38.8333 149.5,40.1667 149.5,41.5C 152.441,43.0709 155.441,44.0709 158.5,44.5C 159.386,45.325 159.719,46.325 159.5,47.5 Z"/></g>
<g><path style="opacity:1" fill="#c0bab2" d="M 217.5,72.5 C 217.666,65.825 217.5,59.1583 217,52.5C 216.273,48.3111 214.773,44.4778 212.5,41C 206.544,41.4269 200.878,43.0936 195.5,46C 190.005,49.9996 184.671,54.1663 179.5,58.5C 186.375,49.4953 195.375,43.3286 206.5,40C 208.833,39.3333 211.167,39.3333 213.5,40C 215.668,43.1741 217.168,46.6741 218,50.5C 218.822,58.0118 218.655,65.3451 217.5,72.5 Z"/></g>
<g><path style="opacity:1" fill="#f1d4a7" d="M 60.5,45.5 C 64.704,47.0332 68.0374,49.6998 70.5,53.5C 68.5742,52.7577 66.7409,51.7577 65,50.5C 64.3741,52.9913 63.5407,52.9913 62.5,50.5C 61.7579,52.1082 61.5913,53.7749 62,55.5C 61.1841,56.8228 60.0174,57.4894 58.5,57.5C 55.528,55.3502 52.1947,54.3502 48.5,54.5C 51.2212,50.8369 53.5545,47.1703 55.5,43.5C 57.0754,44.4565 58.742,45.1231 60.5,45.5 Z"/></g>
<g><path style="opacity:1" fill="#c2b8ac" d="M 70.5,53.5 C 74.8548,55.8548 78.1881,59.1881 80.5,63.5C 78.329,61.4998 75.9957,59.6665 73.5,58C 71.8588,56.871 70.8588,55.371 70.5,53.5 Z"/></g>
<g><path style="opacity:1" fill="#ed8917" d="M 48.5,54.5 C 52.1947,54.3502 55.528,55.3502 58.5,57.5C 63.4756,61.4697 68.4756,65.4697 73.5,69.5C 76.8113,73.1466 80.1446,76.8133 83.5,80.5C 78.1597,84.5116 73.1597,88.845 68.5,93.5C 64.4078,97.2577 61.0745,101.591 58.5,106.5C 56.8267,107.343 55.66,108.676 55,110.5C 54.6174,109.944 54.1174,109.611 53.5,109.5C 52.45,101.475 50.45,93.808 47.5,86.5C 46.4528,80.0469 45.7861,73.5469 45.5,67C 45,62.3641 46,58.1974 48.5,54.5 Z"/></g>
<g><path style="opacity:1" fill="#f2c682" d="M 70.5,53.5 C 70.8588,55.371 71.8588,56.871 73.5,58C 75.9957,59.6665 78.329,61.4998 80.5,63.5C 80.5,64.1667 80.5,64.8333 80.5,65.5C 79.2658,68.54 76.9324,69.8733 73.5,69.5C 68.4756,65.4697 63.4756,61.4697 58.5,57.5C 60.0174,57.4894 61.1841,56.8228 62,55.5C 61.5913,53.7749 61.7579,52.1082 62.5,50.5C 63.5407,52.9913 64.3741,52.9913 65,50.5C 66.7409,51.7577 68.5742,52.7577 70.5,53.5 Z"/></g>
<g><path style="opacity:1" fill="#e9503c" d="M 171.5,58.5 C 168.189,62.9788 164.689,67.3121 161,71.5C 149.154,67.7641 136.987,66.0974 124.5,66.5C 114.39,65.7226 104.723,67.3892 95.5,71.5C 92.5021,68.1758 89.5021,64.8425 86.5,61.5C 87.7079,60.7659 89.0413,60.4326 90.5,60.5C 90.238,61.9778 90.5713,63.3112 91.5,64.5C 92.9411,63.696 94.4411,63.0294 96,62.5C 98.4213,63.4925 99.0879,62.4925 98,59.5C 97.3457,60.6956 96.8457,60.6956 96.5,59.5C 97,58.5 97.5,57.5 98,56.5C 99.117,57.9494 99.7837,59.6161 100,61.5C 101.751,60.1912 103.251,60.5245 104.5,62.5C 104.64,61.4305 104.64,60.2639 104.5,59C 108.692,58.0417 112.358,59.3751 115.5,63C 114.304,63.6543 114.304,64.1543 115.5,64.5C 117.033,62.711 118.033,60.711 118.5,58.5C 120.484,58.3832 122.15,59.0499 123.5,60.5C 127.145,59.2757 130.811,58.1091 134.5,57C 135.191,55.9326 135.691,54.7659 136,53.5C 136.5,54 137,54.5 137.5,55C 137.36,56.2639 137.36,57.4305 137.5,58.5C 139.343,58.2448 141.343,58.0781 143.5,58C 146.002,55.0236 148.502,55.1903 151,58.5C 151.333,58.1667 151.667,57.8333 152,57.5C 152.583,59.0016 153.416,60.3349 154.5,61.5C 157.381,60.6076 160.214,60.941 163,62.5C 165.005,61.1613 166.672,59.4947 168,57.5C 169.011,58.3366 170.178,58.67 171.5,58.5 Z"/></g>
<g><path style="opacity:1" fill="#c5bdb0" d="M 80.5,63.5 C 84.8976,66.8947 88.5643,70.8947 91.5,75.5C 87.8333,72.1667 84.1667,68.8333 80.5,65.5C 80.5,64.8333 80.5,64.1667 80.5,63.5 Z"/></g>
<g><path style="opacity:1" fill="#220901" d="M 33.5,57.5 C 33.5569,58.609 33.8902,59.609 34.5,60.5C 24.3503,72.7256 17.5169,86.7256 14,102.5C 8.56563,132.405 13.399,160.405 28.5,186.5C 30.3222,189.472 32.1555,192.472 34,195.5C 34.69,196.738 35.19,196.738 35.5,195.5C 37.5124,197.208 37.8458,199.208 36.5,201.5C 5.59082,161.42 1.09082,118.42 23,72.5C 26.5222,67.4335 30.0222,62.4335 33.5,57.5 Z"/></g>
<g><path style="opacity:1" fill="#cebfaa" d="M 179.5,58.5 C 174.47,64.5248 169.47,70.5248 164.5,76.5C 168.083,69.2565 173.083,63.2565 179.5,58.5 Z"/></g>
<g><path style="opacity:1" fill="#f3bf6e" d="M 80.5,65.5 C 84.1667,68.8333 87.8333,72.1667 91.5,75.5C 91.5,76.1667 91.5,76.8333 91.5,77.5C 90.2921,76.7659 88.9587,76.4326 87.5,76.5C 86.4918,81.9212 85.4918,87.0879 84.5,92C 85.2266,93.3988 85.7266,94.8988 86,96.5C 86.7175,95.5494 87.5509,95.3828 88.5,96C 87.9288,97.2051 87.2621,98.3717 86.5,99.5C 85.2836,100.002 84.1169,100.335 83,100.5C 82.8333,101.333 82.6667,102.167 82.5,103C 82.8553,107.013 83.522,111.179 84.5,115.5C 77.6085,118.946 75.4418,124.279 78,131.5C 79.6477,133.028 81.6477,133.695 84,133.5C 87.1671,133.099 90.3337,132.766 93.5,132.5C 92.1225,133.234 90.6225,133.901 89,134.5C 90.0656,137.851 89.5656,141.017 87.5,144C 88.0253,144.692 88.6919,145.192 89.5,145.5C 94.129,144.667 97.129,146.667 98.5,151.5C 92.8246,149.328 87.4913,146.495 82.5,143C 79.2231,141.857 75.8898,141.023 72.5,140.5C 72.0137,137.077 72.0137,133.411 72.5,129.5C 71.9747,128.808 71.3081,128.308 70.5,128C 71.1984,127.029 71.1984,125.863 70.5,124.5C 71.1667,122.5 71.8333,120.5 72.5,118.5C 72.5957,114.731 72.2624,110.898 71.5,107C 72.8045,106.196 73.4712,105.029 73.5,103.5C 73.2576,101.392 72.9242,99.2254 72.5,97C 73.8111,94.7175 74.4778,92.5508 74.5,90.5C 74.3333,90.1667 74.1667,89.8333 74,89.5C 72.8526,91.8189 71.0193,93.1523 68.5,93.5C 73.1597,88.845 78.1597,84.5116 83.5,80.5C 80.1446,76.8133 76.8113,73.1466 73.5,69.5C 76.9324,69.8733 79.2658,68.54 80.5,65.5 Z"/></g>
<g><path style="opacity:1" fill="#bdb6ae" d="M 102.5,74.5 C 99.2006,76.4835 95.5339,77.4835 91.5,77.5C 91.5,76.8333 91.5,76.1667 91.5,75.5C 92.2646,75.9234 93.0979,76.2568 94,76.5C 96.7236,75.3132 99.5569,74.6465 102.5,74.5 Z"/></g>
<g><path style="opacity:1" fill="#cfc2ae" d="M 164.5,76.5 C 164.631,77.3764 164.298,78.0431 163.5,78.5C 152.149,74.6966 140.482,72.6966 128.5,72.5C 127.167,72.5 125.833,72.5 124.5,72.5C 118.419,72.514 112.419,73.1807 106.5,74.5C 105.167,74.5 103.833,74.5 102.5,74.5C 110.514,72.0538 118.847,71.0538 127.5,71.5C 140.081,71.4842 152.414,73.1508 164.5,76.5 Z"/></g>
<g><path style="opacity:1" fill="#e4daca" d="M 217.5,72.5 C 217.461,76.7329 216.795,80.7329 215.5,84.5C 215.344,80.2357 216.011,76.2357 217.5,72.5 Z"/></g>
<g><path style="opacity:1" fill="#f3ad42" d="M 124.5,72.5 C 122.031,73.3171 119.365,73.8171 116.5,74C 117.711,74.8928 117.711,75.7261 116.5,76.5C 114.809,74.7438 112.809,74.2438 110.5,75C 111.167,76.3333 112.167,77.3333 113.5,78C 109.129,79.2072 108.795,81.5406 112.5,85C 112.507,86.5827 112.174,88.2494 111.5,90C 112.833,90.6667 113.833,91.6667 114.5,93C 113.151,94.6354 113.318,96.1354 115,97.5C 115.333,96.1667 115.667,94.8333 116,93.5C 117.976,94.4279 119.809,95.5946 121.5,97C 120.874,97.7504 120.374,98.5838 120,99.5C 119.333,98.1667 118.667,96.8333 118,95.5C 117.482,98.0226 116.148,100.023 114,101.5C 113.911,98.1514 112.744,97.6514 110.5,100C 112.259,101.008 113.426,102.508 114,104.5C 115,103.167 116,101.833 117,100.5C 120.568,101.751 120.901,104.084 118,107.5C 117.577,106.044 116.744,105.544 115.5,106C 117.937,107.767 118.604,109.933 117.5,112.5C 118.868,113.594 120.035,113.26 121,111.5C 120.852,112.825 121.018,113.992 121.5,115C 120.333,115.5 119.5,116.333 119,117.5C 118.751,116.376 118.251,115.376 117.5,114.5C 117.167,114.667 116.833,114.833 116.5,115C 116.833,116.667 117.167,118.333 117.5,120C 113.869,120.206 113.535,121.373 116.5,123.5C 117.086,123.291 117.586,122.957 118,122.5C 118.236,124.764 118.736,126.931 119.5,129C 118.833,129.667 118.167,130.333 117.5,131C 119.155,133.247 119.488,135.58 118.5,138C 119.308,138.308 119.975,138.808 120.5,139.5C 119.019,140.48 117.685,141.647 116.5,143C 116.413,145.13 116.413,147.297 116.5,149.5C 114.47,149.894 112.137,150.227 109.5,150.5C 108.972,149.279 108.305,148.113 107.5,147C 108.167,146.667 108.833,146.333 109.5,146C 107.647,143.429 105.981,140.762 104.5,138C 105.515,136.304 106.015,134.137 106,131.5C 102.535,135.668 102.035,135.502 104.5,131C 104.235,128.849 103.235,127.182 101.5,126C 104.278,123.69 106.278,120.857 107.5,117.5C 106.624,116.749 105.624,116.249 104.5,116C 104.957,115.586 105.291,115.086 105.5,114.5C 104.833,114.167 104.167,113.833 103.5,113.5C 104.443,110.6 106.11,108.267 108.5,106.5C 107.289,105.28 107.289,104.113 108.5,103C 107.07,101.326 105.736,100.326 104.5,100C 105.35,98.7141 106.517,98.8808 108,100.5C 107.256,98.8353 107.423,97.1686 108.5,95.5C 108.167,94.8333 107.833,94.1667 107.5,93.5C 106.108,94.6053 104.941,95.9386 104,97.5C 103.333,96.1667 103.333,94.8333 104,93.5C 106.368,91.3156 107.035,88.6489 106,85.5C 105.667,87.1667 105.333,88.8333 105,90.5C 104.801,88.5975 103.967,87.0975 102.5,86C 103.5,83.6667 104.5,81.3333 105.5,79C 103.888,78.2797 102.388,78.4464 101,79.5C 100.283,78.9558 99.7828,78.2891 99.5,77.5C 101.987,76.6772 104.321,75.6772 106.5,74.5C 112.419,73.1807 118.419,72.514 124.5,72.5 Z"/></g>
<g><path style="opacity:1" fill="#efd2a9" d="M 215.5,84.5 C 215.435,87.4282 214.768,90.0948 213.5,92.5C 213.111,89.4467 213.777,86.78 215.5,84.5 Z"/></g>
<g><path style="opacity:1" fill="#6b1a11" d="M 35.5,88.5 C 36.9238,90.5145 37.5905,92.8478 37.5,95.5C 36.0762,93.4855 35.4095,91.1522 35.5,88.5 Z"/></g>
<g><path style="opacity:1" fill="#f3b65b" d="M 102.5,74.5 C 103.833,74.5 105.167,74.5 106.5,74.5C 104.321,75.6772 101.987,76.6772 99.5,77.5C 98.6236,77.3691 97.9569,77.7025 97.5,78.5C 96.5955,82.9572 96.5955,88.2906 97.5,94.5C 95.0087,95.5407 95.0087,96.3741 97.5,97C 96.1667,98 96.1667,99 97.5,100C 96.7894,101.255 95.956,102.421 95,103.5C 94.6667,103.167 94.3333,102.833 94,102.5C 93.1748,106.687 94.0082,110.52 96.5,114C 95.9781,114.561 95.6448,115.228 95.5,116C 96.5061,117.338 97.5061,118.671 98.5,120C 98.0338,121.299 98.0338,122.799 98.5,124.5C 96.7869,121.275 94.4536,118.441 91.5,116C 89.1902,115.503 86.8568,115.337 84.5,115.5C 83.522,111.179 82.8553,107.013 82.5,103C 82.6667,102.167 82.8333,101.333 83,100.5C 84.1169,100.335 85.2836,100.002 86.5,99.5C 87.2621,98.3717 87.9288,97.2051 88.5,96C 87.5509,95.3828 86.7175,95.5494 86,96.5C 85.7266,94.8988 85.2266,93.3988 84.5,92C 85.4918,87.0879 86.4918,81.9212 87.5,76.5C 88.9587,76.4326 90.2921,76.7659 91.5,77.5C 95.5339,77.4835 99.2006,76.4835 102.5,74.5 Z"/></g>
<g><path style="opacity:1" fill="#e32d15" d="M 34.5,60.5 C 34.5378,69.8464 34.8711,79.1797 35.5,88.5C 35.4095,91.1522 36.0762,93.4855 37.5,95.5C 38.245,100.891 39.245,106.224 40.5,111.5C 40.4332,113.401 40.7665,115.234 41.5,117C 40.763,119.799 39.9297,119.966 39,117.5C 37.6321,119.027 37.1321,120.527 37.5,122C 38.1079,122.87 38.9412,123.37 40,123.5C 41.098,122.616 41.598,121.616 41.5,120.5C 42.7199,120.887 43.3865,121.72 43.5,123C 43.0172,125.841 41.8505,128.674 40,131.5C 39.3457,130.304 38.8457,130.304 38.5,131.5C 39.0525,133.727 39.0525,136.061 38.5,138.5C 33.8419,153.461 31.5086,168.795 31.5,184.5C 31.1788,186.048 30.1788,186.715 28.5,186.5C 13.399,160.405 8.56563,132.405 14,102.5C 17.5169,86.7256 24.3503,72.7256 34.5,60.5 Z"/></g>
<g><path style="opacity:1" fill="#eccfa2" d="M 213.5,92.5 C 213.5,93.8333 213.5,95.1667 213.5,96.5C 212.833,97.5 212.167,98.5 211.5,99.5C 211.41,96.8478 212.076,94.5145 213.5,92.5 Z"/></g>
<g><path style="opacity:1" fill="#e22911" d="M 224.5,65.5 C 244.864,99.1985 248.031,134.532 234,171.5C 230.807,177.886 227.64,184.22 224.5,190.5C 223.35,191.85 222.683,191.684 222.5,190C 224.773,180.915 225.106,171.749 223.5,162.5C 223.212,159.134 223.046,155.8 223,152.5C 223.333,152.833 223.667,153.167 224,153.5C 225.063,152.562 226.23,151.562 227.5,150.5C 228.809,147.348 228.476,144.348 226.5,141.5C 227.376,140.749 228.376,140.249 229.5,140C 228.167,137.667 226.833,135.333 225.5,133C 227.013,130.977 228.346,131.144 229.5,133.5C 230.739,131.993 230.405,130.826 228.5,130C 227.5,129.333 226.5,129.333 225.5,130C 221.313,137.184 220.646,136.684 223.5,128.5C 225.655,128.628 227.655,128.128 229.5,127C 228.332,125.594 228.665,124.428 230.5,123.5C 229.726,122.289 228.893,122.289 228,123.5C 226.978,122.646 226.145,121.646 225.5,120.5C 226.909,120.346 228.576,120.179 230.5,120C 227.332,119.418 226.999,118.418 229.5,117C 227.842,116.275 227.342,115.108 228,113.5C 229.243,114.336 230.41,114.003 231.5,112.5C 229.11,110.733 227.443,108.4 226.5,105.5C 223.833,106.5 223.833,107.5 226.5,108.5C 225.726,109.711 224.893,109.711 224,108.5C 222.894,104.296 222.727,99.9627 223.5,95.5C 222.167,95.5 220.833,95.5 219.5,95.5C 219.737,96.791 219.404,97.791 218.5,98.5C 220.012,87.2843 222.012,76.2843 224.5,65.5 Z"/></g>
<g><path style="opacity:1" fill="#c9baa6" d="M 213.5,96.5 C 211.48,105.246 209.147,113.913 206.5,122.5C 208.906,128.719 210.906,135.052 212.5,141.5C 209.607,135.366 206.94,129.033 204.5,122.5C 207.042,114.876 209.375,107.209 211.5,99.5C 212.167,98.5 212.833,97.5 213.5,96.5 Z"/></g>
<g><path style="opacity:1" fill="#fefcf8" d="M 84.5,115.5 C 86.8568,115.337 89.1902,115.503 91.5,116C 94.4536,118.441 96.7869,121.275 98.5,124.5C 99.2686,128.725 97.6019,131.391 93.5,132.5C 90.3337,132.766 87.1671,133.099 84,133.5C 81.6477,133.695 79.6477,133.028 78,131.5C 75.4418,124.279 77.6085,118.946 84.5,115.5 Z"/></g>
<g><path style="opacity:1" fill="#f3c888" d="M 72.5,140.5 C 71.8875,144.163 71.7208,147.83 72,151.5C 74.1565,154.976 76.9898,157.643 80.5,159.5C 78.8008,159.34 77.1341,159.506 75.5,160C 76.4239,160.85 76.4239,161.85 75.5,163C 75.8333,163.5 76.1667,164 76.5,164.5C 77.6086,163.41 78.6086,163.41 79.5,164.5C 78.8099,167.068 78.4766,169.568 78.5,172C 80.5388,174.385 80.5388,176.552 78.5,178.5C 79.9023,179.842 79.5689,180.676 77.5,181C 78.8764,183.543 80.043,183.709 81,181.5C 81.662,183.813 82.162,186.146 82.5,188.5C 76.7904,184.645 70.7904,181.312 64.5,178.5C 63.4059,176.388 62.4059,174.221 61.5,172C 61.2814,168.386 61.948,164.72 63.5,161C 61.964,156.485 60.964,151.818 60.5,147C 61.1667,144.667 61.8333,142.333 62.5,140C 61.77,129.254 61.77,118.42 62.5,107.5C 61.2724,105.824 59.9391,105.491 58.5,106.5C 61.0745,101.591 64.4078,97.2577 68.5,93.5C 71.0193,93.1523 72.8526,91.8189 74,89.5C 74.1667,89.8333 74.3333,90.1667 74.5,90.5C 74.4778,92.5508 73.8111,94.7175 72.5,97C 72.9242,99.2254 73.2576,101.392 73.5,103.5C 73.4712,105.029 72.8045,106.196 71.5,107C 72.2624,110.898 72.5957,114.731 72.5,118.5C 71.8333,120.5 71.1667,122.5 70.5,124.5C 71.1984,125.863 71.1984,127.029 70.5,128C 71.3081,128.308 71.9747,128.808 72.5,129.5C 72.0137,133.411 72.0137,137.077 72.5,140.5 Z"/></g>
<g><path style="opacity:1" fill="#f2a32b" d="M 217.5,72.5 C 216.011,76.2357 215.344,80.2357 215.5,84.5C 213.777,86.78 213.111,89.4467 213.5,92.5C 212.076,94.5145 211.41,96.8478 211.5,99.5C 209.375,107.209 207.042,114.876 204.5,122.5C 206.94,129.033 209.607,135.366 212.5,141.5C 215.459,153.337 217.459,165.337 218.5,177.5C 217.167,177.5 215.833,177.5 214.5,177.5C 199.868,175.158 186.535,178.491 174.5,187.5C 173.883,187.389 173.383,187.056 173,186.5C 172.577,187.956 171.744,188.456 170.5,188C 171.634,186.984 171.301,186.317 169.5,186C 170.5,185 171.5,184 172.5,183C 170.009,182.374 170.009,181.541 172.5,180.5C 170.577,179.692 168.577,179.192 166.5,179C 166.167,176.476 165,173.976 163,171.5C 162.085,172.328 161.419,173.328 161,174.5C 159.902,173.033 158.402,172.199 156.5,172C 158.833,171 161.167,170 163.5,169C 162.01,167.228 160.343,167.061 158.5,168.5C 157.261,166.993 157.595,165.826 159.5,165C 160.793,164.51 162.127,164.343 163.5,164.5C 163.326,167.845 164.659,169.012 167.5,168C 166.04,168.811 165.707,169.645 166.5,170.5C 170.374,169.419 171.541,167.085 170,163.5C 170.451,165.929 171.285,166.096 172.5,164C 171.748,163.329 171.414,162.496 171.5,161.5C 176.662,159.507 181.162,156.507 185,152.5C 185.499,148.514 185.666,144.514 185.5,140.5C 171.596,143.284 159.929,149.951 150.5,160.5C 150.567,158.599 150.233,156.766 149.5,155C 149.892,153.989 150.559,153.489 151.5,153.5C 150.248,151.999 149.248,150.332 148.5,148.5C 147.051,151.893 144.718,153.06 141.5,152C 141.83,155.356 143.497,157.689 146.5,159C 143.901,161.044 141.901,160.711 140.5,158C 141.345,156.442 140.679,155.442 138.5,155C 140.396,153.192 140.896,151.025 140,148.5C 137.017,148.383 133.85,147.883 130.5,147C 132.604,145.307 134.104,143.14 135,140.5C 135.654,141.696 136.154,141.696 136.5,140.5C 136.267,136.541 135.767,132.541 135,128.5C 135.333,127.833 135.667,127.167 136,126.5C 138.292,127.601 139.792,126.768 140.5,124C 139.687,122.115 138.353,121.449 136.5,122C 137.517,123.049 137.684,124.216 137,125.5C 134.616,123.121 133.116,120.287 132.5,117C 134.545,116.07 135.379,114.57 135,112.5C 134,113.167 133,113.833 132,114.5C 131.383,113.551 131.549,112.718 132.5,112C 131.328,111.581 130.328,110.915 129.5,110C 132.003,109.871 134.003,108.871 135.5,107C 133.503,106.24 131.837,105.74 130.5,105.5C 131.667,101.833 132.833,98.1667 134,94.5C 134.807,98.449 135.307,98.449 135.5,94.5C 138.263,93.5449 137.263,93.3782 132.5,94C 130.663,95.4803 128.663,95.4803 126.5,94C 127.428,93.6121 128.095,92.9454 128.5,92C 127.491,90.8319 126.491,89.6652 125.5,88.5C 126.5,87.6667 127.5,86.8333 128.5,86C 126.392,85.6401 124.392,84.9734 122.5,84C 123.572,82.7163 124.905,82.3829 126.5,83C 123.394,78.3016 124.227,77.4683 129,80.5C 129.772,80.3552 130.439,80.0219 131,79.5C 130.598,81.3292 129.931,82.9959 129,84.5C 131.176,84.5716 133.176,84.2383 135,83.5C 135.667,82.8333 135.667,82.1667 135,81.5C 134.346,82.6956 133.846,82.6956 133.5,81.5C 133.833,80.8333 134.167,80.1667 134.5,79.5C 132.5,78.8333 130.5,78.1667 128.5,77.5C 129.262,77.0894 130.262,76.9227 131.5,77C 130.117,75.7292 129.117,74.2292 128.5,72.5C 140.482,72.6966 152.149,74.6966 163.5,78.5C 164.298,78.0431 164.631,77.3764 164.5,76.5C 169.47,70.5248 174.47,64.5248 179.5,58.5C 184.671,54.1663 190.005,49.9996 195.5,46C 200.878,43.0936 206.544,41.4269 212.5,41C 214.773,44.4778 216.273,48.3111 217,52.5C 217.5,59.1583 217.666,65.825 217.5,72.5 Z"/></g>
<g><path style="opacity:1" fill="#fffaf4" d="M 164.5,115.5 C 173.406,114.24 178.406,118.073 179.5,127C 179.297,129.406 178.297,131.406 176.5,133C 171.833,133.667 167.167,133.667 162.5,133C 158.335,131.517 156.835,128.684 158,124.5C 159.611,121.062 161.777,118.062 164.5,115.5 Z"/></g>
<g><path style="opacity:1" fill="#ed8814" d="M 206.5,53.5 C 208.453,54.6258 209.953,56.2925 211,58.5C 212.116,76.3561 208.949,93.3561 201.5,109.5C 194.184,97.851 184.85,88.1843 173.5,80.5C 182.484,68.831 193.484,59.831 206.5,53.5 Z"/></g>
<g><path style="opacity:1" fill="#e6361f" d="M 223.5,162.5 C 221.501,156.074 220.001,149.407 219,142.5C 216.48,135.601 213.98,128.767 211.5,122C 213.568,113.975 215.901,106.141 218.5,98.5C 219.404,97.791 219.737,96.791 219.5,95.5C 220.833,95.5 222.167,95.5 223.5,95.5C 222.727,99.9627 222.894,104.296 224,108.5C 224.893,109.711 225.726,109.711 226.5,108.5C 223.833,107.5 223.833,106.5 226.5,105.5C 227.443,108.4 229.11,110.733 231.5,112.5C 230.41,114.003 229.243,114.336 228,113.5C 227.342,115.108 227.842,116.275 229.5,117C 226.999,118.418 227.332,119.418 230.5,120C 228.576,120.179 226.909,120.346 225.5,120.5C 226.145,121.646 226.978,122.646 228,123.5C 228.893,122.289 229.726,122.289 230.5,123.5C 228.665,124.428 228.332,125.594 229.5,127C 227.655,128.128 225.655,128.628 223.5,128.5C 220.646,136.684 221.313,137.184 225.5,130C 226.5,129.333 227.5,129.333 228.5,130C 230.405,130.826 230.739,131.993 229.5,133.5C 228.346,131.144 227.013,130.977 225.5,133C 226.833,135.333 228.167,137.667 229.5,140C 228.376,140.249 227.376,140.749 226.5,141.5C 228.476,144.348 228.809,147.348 227.5,150.5C 226.23,151.562 225.063,152.562 224,153.5C 223.667,153.167 223.333,152.833 223,152.5C 223.046,155.8 223.212,159.134 223.5,162.5 Z"/></g>
<g><path style="opacity:1" fill="#c73320" d="M 40.5,111.5 C 42.204,114.938 43.5373,118.604 44.5,122.5C 42.7979,128.023 40.7979,133.357 38.5,138.5C 39.0525,136.061 39.0525,133.727 38.5,131.5C 38.8457,130.304 39.3457,130.304 40,131.5C 41.8505,128.674 43.0172,125.841 43.5,123C 43.3865,121.72 42.7199,120.887 41.5,120.5C 41.598,121.616 41.098,122.616 40,123.5C 38.9412,123.37 38.1079,122.87 37.5,122C 37.1321,120.527 37.6321,119.027 39,117.5C 39.9297,119.966 40.763,119.799 41.5,117C 40.7665,115.234 40.4332,113.401 40.5,111.5 Z"/></g>
<g><path style="opacity:1" fill="#f2b04c" d="M 99.5,77.5 C 99.7828,78.2891 100.283,78.9558 101,79.5C 102.388,78.4464 103.888,78.2797 105.5,79C 104.5,81.3333 103.5,83.6667 102.5,86C 103.967,87.0975 104.801,88.5975 105,90.5C 105.333,88.8333 105.667,87.1667 106,85.5C 107.035,88.6489 106.368,91.3156 104,93.5C 103.333,94.8333 103.333,96.1667 104,97.5C 104.941,95.9386 106.108,94.6053 107.5,93.5C 107.833,94.1667 108.167,94.8333 108.5,95.5C 107.423,97.1686 107.256,98.8353 108,100.5C 106.517,98.8808 105.35,98.7141 104.5,100C 105.736,100.326 107.07,101.326 108.5,103C 107.289,104.113 107.289,105.28 108.5,106.5C 106.11,108.267 104.443,110.6 103.5,113.5C 104.167,113.833 104.833,114.167 105.5,114.5C 105.291,115.086 104.957,115.586 104.5,116C 105.624,116.249 106.624,116.749 107.5,117.5C 106.278,120.857 104.278,123.69 101.5,126C 103.235,127.182 104.235,128.849 104.5,131C 102.035,135.502 102.535,135.668 106,131.5C 106.015,134.137 105.515,136.304 104.5,138C 105.981,140.762 107.647,143.429 109.5,146C 108.833,146.333 108.167,146.667 107.5,147C 108.305,148.113 108.972,149.279 109.5,150.5C 110.254,152.505 111.421,153.172 113,152.5C 113.712,154.847 114.879,156.847 116.5,158.5C 116.833,158.167 117.167,157.833 117.5,157.5C 115.34,155.907 115.173,154.24 117,152.5C 117.619,155.579 119.119,158.079 121.5,160C 127.874,160.311 134.207,160.977 140.5,162C 141.056,162.383 141.389,162.883 141.5,163.5C 128.451,159.257 116.451,161.09 105.5,169C 100.892,173.099 96.8918,177.599 93.5,182.5C 92.1411,181.993 91.1411,180.993 90.5,179.5C 89.6043,180.506 88.9377,180.506 88.5,179.5C 88.5246,177.37 89.0246,175.37 90,173.5C 91.3988,172.773 92.8988,172.273 94.5,172C 93.234,169.43 91.5673,167.93 89.5,167.5C 90.2739,166.289 91.1072,166.289 92,167.5C 92.49,166.207 92.6567,164.873 92.5,163.5C 94.3792,164.341 96.3792,164.675 98.5,164.5C 101.187,164.664 103.854,164.497 106.5,164C 106.957,163.586 107.291,163.086 107.5,162.5C 105.188,158.172 102.188,154.505 98.5,151.5C 97.129,146.667 94.129,144.667 89.5,145.5C 88.6919,145.192 88.0253,144.692 87.5,144C 89.5656,141.017 90.0656,137.851 89,134.5C 90.6225,133.901 92.1225,133.234 93.5,132.5C 97.6019,131.391 99.2686,128.725 98.5,124.5C 98.0338,122.799 98.0338,121.299 98.5,120C 97.5061,118.671 96.5061,117.338 95.5,116C 95.6448,115.228 95.9781,114.561 96.5,114C 94.0082,110.52 93.1748,106.687 94,102.5C 94.3333,102.833 94.6667,103.167 95,103.5C 95.956,102.421 96.7894,101.255 97.5,100C 96.1667,99 96.1667,98 97.5,97C 95.0087,96.3741 95.0087,95.5407 97.5,94.5C 96.5955,88.2906 96.5955,82.9572 97.5,78.5C 97.9569,77.7025 98.6236,77.3691 99.5,77.5 Z"/></g>
<g><path style="opacity:1" fill="#0d0b08" d="M 72.5,140.5 C 75.8898,141.023 79.2231,141.857 82.5,143C 87.4913,146.495 92.8246,149.328 98.5,151.5C 102.188,154.505 105.188,158.172 107.5,162.5C 107.291,163.086 106.957,163.586 106.5,164C 103.854,164.497 101.187,164.664 98.5,164.5C 94.7607,162.898 90.7607,161.898 86.5,161.5C 84.5,160.833 82.5,160.167 80.5,159.5C 76.9898,157.643 74.1565,154.976 72,151.5C 71.7208,147.83 71.8875,144.163 72.5,140.5 Z"/></g>
<g><path style="opacity:1" fill="#c7bdae" d="M 212.5,141.5 C 218.794,155.624 220.794,170.291 218.5,185.5C 218.5,183.167 218.5,180.833 218.5,178.5C 216.901,178.768 215.568,178.434 214.5,177.5C 215.833,177.5 217.167,177.5 218.5,177.5C 217.459,165.337 215.459,153.337 212.5,141.5 Z"/></g>
<g><path style="opacity:1" fill="#0c0907" d="M 171.5,161.5 C 170.833,161.5 170.167,161.5 169.5,161.5C 166.933,161.721 164.599,162.388 162.5,163.5C 158.519,164.021 154.519,164.354 150.5,164.5C 150.5,163.167 150.5,161.833 150.5,160.5C 159.929,149.951 171.596,143.284 185.5,140.5C 185.666,144.514 185.499,148.514 185,152.5C 181.162,156.507 176.662,159.507 171.5,161.5 Z"/></g>
<g><path style="opacity:1" fill="#f4e0c0" d="M 47.5,86.5 C 50.45,93.808 52.45,101.475 53.5,109.5C 54.1703,124.837 54.5036,140.171 54.5,155.5C 54.1462,158.442 53.4795,161.275 52.5,164C 54.5323,167.548 54.8657,171.214 53.5,175C 54.4158,175.278 55.0825,175.778 55.5,176.5C 51.5,176.5 47.5,176.5 43.5,176.5C 43.0618,176.565 42.7284,176.399 42.5,176C 44.413,173.366 45.413,170.366 45.5,167C 44.7866,164.484 44.4532,162.151 44.5,160C 45.7892,156.146 46.1226,152.313 45.5,148.5C 46.2199,143.863 46.7199,139.197 47,134.5C 48.4456,132.059 49.2789,129.392 49.5,126.5C 50.5251,125.626 51.1918,124.459 51.5,123C 50.8768,117.288 50.2101,111.621 49.5,106C 50.7948,102.158 50.6282,98.3247 49,94.5C 48.0805,94.0698 47.2472,93.7365 46.5,93.5C 47.3742,91.2534 47.7076,88.9201 47.5,86.5 Z"/></g>
<g><path style="opacity:1" fill="#210801" d="M 225.5,64.5 C 238.644,82.9415 244.977,103.608 244.5,126.5C 244.85,150.771 238.184,172.771 224.5,192.5C 224.5,191.833 224.5,191.167 224.5,190.5C 227.64,184.22 230.807,177.886 234,171.5C 248.031,134.532 244.864,99.1985 224.5,65.5C 225.167,65.5 225.5,65.1667 225.5,64.5 Z"/></g>
<g><path style="opacity:1" fill="#f1a633" d="M 124.5,72.5 C 125.833,72.5 127.167,72.5 128.5,72.5C 129.117,74.2292 130.117,75.7292 131.5,77C 130.262,76.9227 129.262,77.0894 128.5,77.5C 130.5,78.1667 132.5,78.8333 134.5,79.5C 134.167,80.1667 133.833,80.8333 133.5,81.5C 133.846,82.6956 134.346,82.6956 135,81.5C 135.667,82.1667 135.667,82.8333 135,83.5C 133.176,84.2383 131.176,84.5716 129,84.5C 129.931,82.9959 130.598,81.3292 131,79.5C 130.439,80.0219 129.772,80.3552 129,80.5C 124.227,77.4683 123.394,78.3016 126.5,83C 124.905,82.3829 123.572,82.7163 122.5,84C 124.392,84.9734 126.392,85.6401 128.5,86C 127.5,86.8333 126.5,87.6667 125.5,88.5C 126.491,89.6652 127.491,90.8319 128.5,92C 128.095,92.9454 127.428,93.6121 126.5,94C 128.663,95.4803 130.663,95.4803 132.5,94C 137.263,93.3782 138.263,93.5449 135.5,94.5C 135.307,98.449 134.807,98.449 134,94.5C 132.833,98.1667 131.667,101.833 130.5,105.5C 131.837,105.74 133.503,106.24 135.5,107C 134.003,108.871 132.003,109.871 129.5,110C 130.328,110.915 131.328,111.581 132.5,112C 131.549,112.718 131.383,113.551 132,114.5C 133,113.833 134,113.167 135,112.5C 135.379,114.57 134.545,116.07 132.5,117C 133.116,120.287 134.616,123.121 137,125.5C 137.684,124.216 137.517,123.049 136.5,122C 138.353,121.449 139.687,122.115 140.5,124C 139.792,126.768 138.292,127.601 136,126.5C 135.667,127.167 135.333,127.833 135,128.5C 135.767,132.541 136.267,136.541 136.5,140.5C 136.154,141.696 135.654,141.696 135,140.5C 134.104,143.14 132.604,145.307 130.5,147C 133.85,147.883 137.017,148.383 140,148.5C 140.896,151.025 140.396,153.192 138.5,155C 140.679,155.442 141.345,156.442 140.5,158C 141.901,160.711 143.901,161.044 146.5,159C 143.497,157.689 141.83,155.356 141.5,152C 144.718,153.06 147.051,151.893 148.5,148.5C 149.248,150.332 150.248,151.999 151.5,153.5C 150.559,153.489 149.892,153.989 149.5,155C 150.233,156.766 150.567,158.599 150.5,160.5C 150.5,161.833 150.5,163.167 150.5,164.5C 154.519,164.354 158.519,164.021 162.5,163.5C 165.228,163.829 167.562,163.163 169.5,161.5C 170.167,161.5 170.833,161.5 171.5,161.5C 171.414,162.496 171.748,163.329 172.5,164C 171.285,166.096 170.451,165.929 170,163.5C 171.541,167.085 170.374,169.419 166.5,170.5C 165.707,169.645 166.04,168.811 167.5,168C 164.659,169.012 163.326,167.845 163.5,164.5C 162.127,164.343 160.793,164.51 159.5,165C 157.595,165.826 157.261,166.993 158.5,168.5C 160.343,167.061 162.01,167.228 163.5,169C 161.167,170 158.833,171 156.5,172C 158.402,172.199 159.902,173.033 161,174.5C 161.419,173.328 162.085,172.328 163,171.5C 165,173.976 166.167,176.476 166.5,179C 168.577,179.192 170.577,179.692 172.5,180.5C 170.009,181.541 170.009,182.374 172.5,183C 171.5,184 170.5,185 169.5,186C 171.301,186.317 171.634,186.984 170.5,188C 171.744,188.456 172.577,187.956 173,186.5C 173.383,187.056 173.883,187.389 174.5,187.5C 172.83,190.002 170.664,192.002 168,193.5C 163.066,179.906 154.233,169.906 141.5,163.5C 141.389,162.883 141.056,162.383 140.5,162C 134.207,160.977 127.874,160.311 121.5,160C 119.119,158.079 117.619,155.579 117,152.5C 115.173,154.24 115.34,155.907 117.5,157.5C 117.167,157.833 116.833,158.167 116.5,158.5C 114.879,156.847 113.712,154.847 113,152.5C 111.421,153.172 110.254,152.505 109.5,150.5C 112.137,150.227 114.47,149.894 116.5,149.5C 116.413,147.297 116.413,145.13 116.5,143C 117.685,141.647 119.019,140.48 120.5,139.5C 119.975,138.808 119.308,138.308 118.5,138C 119.488,135.58 119.155,133.247 117.5,131C 118.167,130.333 118.833,129.667 119.5,129C 118.736,126.931 118.236,124.764 118,122.5C 117.586,122.957 117.086,123.291 116.5,123.5C 113.535,121.373 113.869,120.206 117.5,120C 117.167,118.333 116.833,116.667 116.5,115C 116.833,114.833 117.167,114.667 117.5,114.5C 118.251,115.376 118.751,116.376 119,117.5C 119.5,116.333 120.333,115.5 121.5,115C 121.018,113.992 120.852,112.825 121,111.5C 120.035,113.26 118.868,113.594 117.5,112.5C 118.604,109.933 117.937,107.767 115.5,106C 116.744,105.544 117.577,106.044 118,107.5C 120.901,104.084 120.568,101.751 117,100.5C 116,101.833 115,103.167 114,104.5C 113.426,102.508 112.259,101.008 110.5,100C 112.744,97.6514 113.911,98.1514 114,101.5C 116.148,100.023 117.482,98.0226 118,95.5C 118.667,96.8333 119.333,98.1667 120,99.5C 120.374,98.5838 120.874,97.7504 121.5,97C 119.809,95.5946 117.976,94.4279 116,93.5C 115.667,94.8333 115.333,96.1667 115,97.5C 113.318,96.1354 113.151,94.6354 114.5,93C 113.833,91.6667 112.833,90.6667 111.5,90C 112.174,88.2494 112.507,86.5827 112.5,85C 108.795,81.5406 109.129,79.2072 113.5,78C 112.167,77.3333 111.167,76.3333 110.5,75C 112.809,74.2438 114.809,74.7438 116.5,76.5C 117.711,75.7261 117.711,74.8928 116.5,74C 119.365,73.8171 122.031,73.3171 124.5,72.5 Z"/></g>
<g><path style="opacity:1" fill="#dd1f07" d="M 174.5,242.5 C 173.508,242.672 172.842,242.338 172.5,241.5C 194.35,229.984 211.683,213.651 224.5,192.5C 238.184,172.771 244.85,150.771 244.5,126.5C 244.977,103.608 238.644,82.9415 225.5,64.5C 224.189,57.6458 222.522,50.8125 220.5,44C 222.387,43.8374 223.887,44.6707 225,46.5C 251.971,81.0757 259.971,119.742 249,162.5C 240.149,190.673 223.649,213.173 199.5,230C 191.381,234.726 183.048,238.893 174.5,242.5 Z"/></g>
<g><path style="opacity:1" fill="#78592b" d="M 86.5,161.5 C 90.7607,161.898 94.7607,162.898 98.5,164.5C 96.3792,164.675 94.3792,164.341 92.5,163.5C 90.2143,163.405 88.2143,162.738 86.5,161.5 Z"/></g>
<g><path style="opacity:1" fill="#724b11" d="M 169.5,161.5 C 167.562,163.163 165.228,163.829 162.5,163.5C 164.599,162.388 166.933,161.721 169.5,161.5 Z"/></g>
<g><path style="opacity:1" fill="#e8e2d9" d="M 49.5,126.5 C 49.2789,129.392 48.4456,132.059 47,134.5C 46.7199,139.197 46.2199,143.863 45.5,148.5C 46.1226,152.313 45.7892,156.146 44.5,160C 44.4532,162.151 44.7866,164.484 45.5,167C 45.413,170.366 44.413,173.366 42.5,176C 42.7284,176.399 43.0618,176.565 43.5,176.5C 42.0028,177.306 40.3361,177.972 38.5,178.5C 37.5258,180.743 37.1924,183.076 37.5,185.5C 35.608,164.72 39.608,145.053 49.5,126.5 Z"/></g>
<g><path style="opacity:1" fill="#f3d6a9" d="M 64.5,178.5 C 61.2186,178.58 58.2186,177.913 55.5,176.5C 55.0825,175.778 54.4158,175.278 53.5,175C 54.8657,171.214 54.5323,167.548 52.5,164C 53.4795,161.275 54.1462,158.442 54.5,155.5C 54.5036,140.171 54.1703,124.837 53.5,109.5C 54.1174,109.611 54.6174,109.944 55,110.5C 55.66,108.676 56.8267,107.343 58.5,106.5C 59.9391,105.491 61.2724,105.824 62.5,107.5C 61.77,118.42 61.77,129.254 62.5,140C 61.8333,142.333 61.1667,144.667 60.5,147C 60.964,151.818 61.964,156.485 63.5,161C 61.948,164.72 61.2814,168.386 61.5,172C 62.4059,174.221 63.4059,176.388 64.5,178.5 Z"/></g>
<g><path style="opacity:1" fill="#f3bc66" d="M 80.5,159.5 C 82.5,160.167 84.5,160.833 86.5,161.5C 88.2143,162.738 90.2143,163.405 92.5,163.5C 92.6567,164.873 92.49,166.207 92,167.5C 91.1072,166.289 90.2739,166.289 89.5,167.5C 91.5673,167.93 93.234,169.43 94.5,172C 92.8988,172.273 91.3988,172.773 90,173.5C 89.0246,175.37 88.5246,177.37 88.5,179.5C 88.9377,180.506 89.6043,180.506 90.5,179.5C 91.1411,180.993 92.1411,181.993 93.5,182.5C 92.1025,186.295 90.4358,189.961 88.5,193.5C 86.0189,192.28 84.0189,190.614 82.5,188.5C 82.162,186.146 81.662,183.813 81,181.5C 80.043,183.709 78.8764,183.543 77.5,181C 79.5689,180.676 79.9023,179.842 78.5,178.5C 80.5388,176.552 80.5388,174.385 78.5,172C 78.4766,169.568 78.8099,167.068 79.5,164.5C 78.6086,163.41 77.6086,163.41 76.5,164.5C 76.1667,164 75.8333,163.5 75.5,163C 76.4239,161.85 76.4239,160.85 75.5,160C 77.1341,159.506 78.8008,159.34 80.5,159.5 Z"/></g>
<g><path style="opacity:1" fill="#a71908" d="M 31.5,184.5 C 32.8087,188.086 34.1421,191.752 35.5,195.5C 35.19,196.738 34.69,196.738 34,195.5C 32.1555,192.472 30.3222,189.472 28.5,186.5C 30.1788,186.715 31.1788,186.048 31.5,184.5 Z"/></g>
<g><path style="opacity:1" fill="#d91e07" d="M 33.5,57.5 C 30.0222,62.4335 26.5222,67.4335 23,72.5C 1.09082,118.42 5.59082,161.42 36.5,201.5C 43.9642,209.465 51.6309,217.298 59.5,225C 67.3923,230.77 75.3923,236.27 83.5,241.5C 82.791,242.404 81.791,242.737 80.5,242.5C 35.8161,222.819 9.64943,188.819 2,140.5C -1.57679,102.226 9.75654,69.2264 36,41.5C 35.6841,46.8742 34.8508,52.2075 33.5,57.5 Z"/></g>
<g><path style="opacity:1" fill="#f1f2ef" d="M 141.5,163.5 C 154.233,169.906 163.066,179.906 168,193.5C 170.664,192.002 172.83,190.002 174.5,187.5C 186.535,178.491 199.868,175.158 214.5,177.5C 215.568,178.434 216.901,178.768 218.5,178.5C 218.5,180.833 218.5,183.167 218.5,185.5C 216.885,192.312 214.052,198.645 210,204.5C 188.123,231.579 159.79,246.579 125,249.5C 91.8134,243.747 64.8134,227.747 44,201.5C 40.9751,196.459 38.8084,191.126 37.5,185.5C 37.1924,183.076 37.5258,180.743 38.5,178.5C 40.3361,177.972 42.0028,177.306 43.5,176.5C 47.5,176.5 51.5,176.5 55.5,176.5C 58.2186,177.913 61.2186,178.58 64.5,178.5C 70.7904,181.312 76.7904,184.645 82.5,188.5C 84.0189,190.614 86.0189,192.28 88.5,193.5C 90.4358,189.961 92.1025,186.295 93.5,182.5C 96.8918,177.599 100.892,173.099 105.5,169C 116.451,161.09 128.451,159.257 141.5,163.5 Z"/></g>
<g><path style="opacity:1" fill="#636363" d="M 126.5,198.5 C 127.156,199.622 127.489,200.955 127.5,202.5C 127.415,204.333 126.748,205.666 125.5,206.5C 126.388,203.946 126.721,201.279 126.5,198.5 Z"/></g>
<g><path style="opacity:1" fill="#0c0c0c" d="M 110.5,207.5 C 113.017,208.973 115.85,209.64 119,209.5C 121.033,209.494 122.866,209.161 124.5,208.5C 124.328,207.508 124.662,206.842 125.5,206.5C 126.748,205.666 127.415,204.333 127.5,202.5C 127.489,200.955 127.156,199.622 126.5,198.5C 116.501,193.752 112.667,185.752 115,174.5C 115.5,174 116,173.5 116.5,173C 123.833,172.333 131.167,172.333 138.5,173C 143.163,180.995 142.163,188.328 135.5,195C 133.783,196.559 131.783,197.392 129.5,197.5C 128.85,201.607 129.85,205.107 132.5,208C 137.557,208.042 142.557,208.208 147.5,208.5C 145.093,212.256 143.093,216.256 141.5,220.5C 140.516,217.572 140.183,214.572 140.5,211.5C 131.833,211.5 123.167,211.5 114.5,211.5C 114.665,214.518 114.498,217.518 114,220.5C 111.7,216.037 109.2,211.704 106.5,207.5C 107.7,206.708 109.033,206.708 110.5,207.5 Z"/></g>
<g><path style="opacity:1" fill="#515150" d="M 110.5,207.5 C 115.13,208.229 119.797,208.563 124.5,208.5C 122.866,209.161 121.033,209.494 119,209.5C 115.85,209.64 113.017,208.973 110.5,207.5 Z"/></g>
<g><path style="opacity:0.376" fill="#2d2d2d" d="M 23.5,202.5 C 33.8548,214.188 45.1881,224.854 57.5,234.5C 43.9431,226.279 32.6097,215.612 23.5,202.5 Z"/></g>
<g><path style="opacity:1" fill="#565656" d="M 135.5,215.5 C 130.305,215.179 125.305,215.513 120.5,216.5C 119.957,216.44 119.624,216.107 119.5,215.5C 124.986,214.185 130.32,214.185 135.5,215.5 Z"/></g>
<g><path style="opacity:1" fill="#161616" d="M 120.5,216.5 C 125.305,215.513 130.305,215.179 135.5,215.5C 135.189,216.478 134.522,217.145 133.5,217.5C 131.166,216.159 129.499,216.826 128.5,219.5C 127.167,218.5 125.833,217.5 124.5,216.5C 123.135,217.807 121.802,217.807 120.5,216.5 Z"/></g>
<g><path style="opacity:1" fill="#a31505" d="M 83.5,241.5 C 88.6986,243.93 94.0319,246.097 99.5,248C 92.8178,247.271 86.4845,245.438 80.5,242.5C 81.791,242.737 82.791,242.404 83.5,241.5 Z"/></g>
<g><path style="opacity:1" fill="#8c1205" d="M 172.5,241.5 C 172.842,242.338 173.508,242.672 174.5,242.5C 170.921,244.969 166.921,246.136 162.5,246C 165.741,244.211 169.074,242.711 172.5,241.5 Z"/></g>
</svg>
