<?xml version="1.0" encoding="UTF-8"?>
<!DOCTYPE svg PUBLIC "-//W3C//DTD SVG 1.1//EN" "http://www.w3.org/Graphics/SVG/1.1/DTD/svg11.dtd">
<svg xmlns="http://www.w3.org/2000/svg" version="1.1" width="250px" height="250px" style="shape-rendering:geometricPrecision; text-rendering:geometricPrecision; image-rendering:optimizeQuality; fill-rule:evenodd; clip-rule:evenodd" xmlns:xlink="http://www.w3.org/1999/xlink">
<g><path style="opacity:1" fill="#f5f5f5" d="M -0.5,-0.5 C 82.8333,-0.5 166.167,-0.5 249.5,-0.5C 249.5,82.8333 249.5,166.167 249.5,249.5C 166.167,249.5 82.8333,249.5 -0.5,249.5C -0.5,166.167 -0.5,82.8333 -0.5,-0.5 Z"/></g>
<g><path style="opacity:1" fill="#044041" d="M 130.5,54.5 C 130.5,58.8333 130.5,63.1667 130.5,67.5C 134.702,67.8168 138.702,67.4834 142.5,66.5C 142.833,66.5 143.167,66.5 143.5,66.5C 143.5,66.8333 143.5,67.1667 143.5,67.5C 143.5,71.1667 143.5,74.8333 143.5,78.5C 147.298,79.4834 151.298,79.8168 155.5,79.5C 155.5,83.5 155.5,87.5 155.5,91.5C 148.833,91.5 142.167,91.5 135.5,91.5C 135.5,94.1667 135.5,96.8333 135.5,99.5C 120.833,99.5 106.167,99.5 91.5,99.5C 91.8064,96.6146 91.4731,93.9479 90.5,91.5C 75.5,91.5 60.5,91.5 45.5,91.5C 43.2913,84.7448 40.7913,78.0781 38,71.5C 36.3038,63.1363 37.8038,55.4696 42.5,48.5C 42.6097,50.0982 42.943,51.7648 43.5,53.5C 72.4923,54.4998 101.492,54.8332 130.5,54.5 Z"/></g>
<g><path style="opacity:1" fill="#144444" d="M 155.5,66.5 C 151.5,66.5 147.5,66.5 143.5,66.5C 143.167,66.5 142.833,66.5 142.5,66.5C 142.5,62.5 142.5,58.5 142.5,54.5C 146.833,54.5 151.167,54.5 155.5,54.5C 155.5,58.5 155.5,62.5 155.5,66.5 Z"/></g>
<g><path style="opacity:1" fill="#698889" d="M 130.5,54.5 C 131.483,58.2984 131.817,62.2984 131.5,66.5C 135.167,66.5 138.833,66.5 142.5,66.5C 138.702,67.4834 134.702,67.8168 130.5,67.5C 130.5,63.1667 130.5,58.8333 130.5,54.5 Z"/></g>
<g><path style="opacity:1" fill="#688888" d="M 143.5,67.5 C 143.5,67.1667 143.5,66.8333 143.5,66.5C 147.5,66.5 151.5,66.5 155.5,66.5C 159.833,66.5 164.167,66.5 168.5,66.5C 168.818,71.0323 168.485,75.3656 167.5,79.5C 167.5,75.5 167.5,71.5 167.5,67.5C 163.5,67.5 159.5,67.5 155.5,67.5C 155.167,67.5 154.833,67.5 154.5,67.5C 150.833,67.5 147.167,67.5 143.5,67.5 Z"/></g>
<g><path style="opacity:1" fill="#eff8f8" d="M 143.5,67.5 C 147.167,67.5 150.833,67.5 154.5,67.5C 154.5,71.1667 154.5,74.8333 154.5,78.5C 150.833,78.5 147.167,78.5 143.5,78.5C 143.5,74.8333 143.5,71.1667 143.5,67.5 Z"/></g>
<g><path style="opacity:1" fill="#ebf6f5" d="M 220.5,67.5 C 220.818,62.9677 220.485,58.6344 219.5,54.5C 215.5,54.5 211.5,54.5 207.5,54.5C 207.5,58.5 207.5,62.5 207.5,66.5C 210.625,67.4794 213.958,67.8128 217.5,67.5C 214.311,68.1661 210.977,68.8328 207.5,69.5C 206.383,74.1415 206.383,78.8082 207.5,83.5C 202.167,83.5 196.833,83.5 191.5,83.5C 191.657,84.8734 191.49,86.2068 191,87.5C 189.181,84.8321 189.015,81.9988 190.5,79C 189.003,76.3425 188.003,73.5092 187.5,70.5C 183.826,69.7675 180.159,69.1008 176.5,68.5C 174.17,72.4196 173.003,72.0862 173,67.5C 174.016,68.6341 174.683,68.3008 175,66.5C 175.176,62.3123 175.676,58.3123 176.5,54.5C 180.973,49.5255 185.806,49.1922 191,53.5C 191.093,57.2475 191.26,60.9142 191.5,64.5C 191.833,64.8333 192.167,65.1667 192.5,65.5C 193.216,64.689 194.05,64.0223 195,63.5C 197.524,66.0691 200.024,66.0691 202.5,63.5C 203.496,58.5383 204.163,53.5383 204.5,48.5C 210.946,49.7441 217.112,51.7441 223,54.5C 223.725,57.3766 223.225,60.0433 221.5,62.5C 224.158,64.6971 223.825,66.3638 220.5,67.5 Z"/></g>
<g><path style="opacity:1" fill="#5a7b7a" d="M 219.5,54.5 C 220.485,58.6344 220.818,62.9677 220.5,67.5C 219.5,67.5 218.5,67.5 217.5,67.5C 213.958,67.8128 210.625,67.4794 207.5,66.5C 211.5,66.5 215.5,66.5 219.5,66.5C 219.5,62.5 219.5,58.5 219.5,54.5 Z"/></g>
<g><path style="opacity:1" fill="#557474" d="M 176.5,54.5 C 176.833,54.5 177.167,54.5 177.5,54.5C 177.5,58.5 177.5,62.5 177.5,66.5C 181.167,66.5 184.833,66.5 188.5,66.5C 188.5,62.5 188.5,58.5 188.5,54.5C 189.485,58.6344 189.818,62.9677 189.5,67.5C 185.167,67.5 180.833,67.5 176.5,67.5C 176.5,63.1667 176.5,58.8333 176.5,54.5 Z"/></g>
<g><path style="opacity:1" fill="#083d3d" d="M 177.5,54.5 C 181.167,54.5 184.833,54.5 188.5,54.5C 188.5,58.5 188.5,62.5 188.5,66.5C 184.833,66.5 181.167,66.5 177.5,66.5C 177.5,62.5 177.5,58.5 177.5,54.5 Z"/></g>
<g><path style="opacity:1" fill="#0a3d3f" d="M 219.5,54.5 C 219.5,58.5 219.5,62.5 219.5,66.5C 215.5,66.5 211.5,66.5 207.5,66.5C 207.5,62.5 207.5,58.5 207.5,54.5C 211.5,54.5 215.5,54.5 219.5,54.5 Z"/></g>
<g><path style="opacity:1" fill="#73918f" d="M 192.5,67.5 C 196.634,66.5151 200.968,66.1818 205.5,66.5C 205.818,71.0323 205.485,75.3656 204.5,79.5C 204.5,75.5 204.5,71.5 204.5,67.5C 200.5,67.5 196.5,67.5 192.5,67.5 Z"/></g>
<g><path style="opacity:1" fill="#0a3e3e" d="M 192.5,67.5 C 196.5,67.5 200.5,67.5 204.5,67.5C 204.5,71.5 204.5,75.5 204.5,79.5C 200.5,79.5 196.5,79.5 192.5,79.5C 192.5,75.5 192.5,71.5 192.5,67.5 Z"/></g>
<g><path style="opacity:1" fill="#093e3e" d="M 155.5,67.5 C 159.5,67.5 163.5,67.5 167.5,67.5C 167.5,71.5 167.5,75.5 167.5,79.5C 163.5,79.5 159.5,79.5 155.5,79.5C 155.5,75.5 155.5,71.5 155.5,67.5 Z"/></g>
<g><path style="opacity:1" fill="#a5babb" d="M 154.5,67.5 C 154.833,67.5 155.167,67.5 155.5,67.5C 155.5,71.5 155.5,75.5 155.5,79.5C 151.298,79.8168 147.298,79.4834 143.5,78.5C 147.167,78.5 150.833,78.5 154.5,78.5C 154.5,74.8333 154.5,71.1667 154.5,67.5 Z"/></g>
<g><path style="opacity:1" fill="#0d3e3f" d="M 182.5,79.5 C 182.5,83.5 182.5,87.5 182.5,91.5C 178.5,91.5 174.5,91.5 170.5,91.5C 170.5,87.5 170.5,83.5 170.5,79.5C 174.5,79.5 178.5,79.5 182.5,79.5 Z"/></g>
<g><path style="opacity:1" fill="#819e9e" d="M 182.5,79.5 C 183.485,83.6344 183.818,87.9677 183.5,92.5C 178.968,92.8182 174.634,92.4849 170.5,91.5C 174.5,91.5 178.5,91.5 182.5,91.5C 182.5,87.5 182.5,83.5 182.5,79.5 Z"/></g>
<g><path style="opacity:1" fill="#04686c" d="M 90.5,100.5 C 91.1667,114.672 91.8333,129.006 92.5,143.5C 93.4993,129.182 93.8326,114.849 93.5,100.5C 106.833,100.5 120.167,100.5 133.5,100.5C 133.5,117.167 133.5,133.833 133.5,150.5C 119.656,150.171 105.99,150.504 92.5,151.5C 91.8333,151.5 91.1667,151.5 90.5,151.5C 90.5,134.5 90.5,117.5 90.5,100.5 Z"/></g>
<g><path style="opacity:1" fill="#b6dddf" d="M 45.5,91.5 C 60.5,91.5 75.5,91.5 90.5,91.5C 90.5,94.5 90.5,97.5 90.5,100.5C 90.5,117.5 90.5,134.5 90.5,151.5C 90.5,167.167 90.5,182.833 90.5,198.5C 89.5017,165.671 89.1684,132.671 89.5,99.5C 89.5,97.1667 89.5,94.8333 89.5,92.5C 74.6572,92.8293 59.9905,92.496 45.5,91.5 Z"/></g>
<g><path style="opacity:1" fill="#0e605f" d="M 90.5,91.5 C 91.4731,93.9479 91.8064,96.6146 91.5,99.5C 106.167,99.5 120.833,99.5 135.5,99.5C 135.5,116.5 135.5,133.5 135.5,150.5C 134.833,150.5 134.167,150.5 133.5,150.5C 133.5,133.833 133.5,117.167 133.5,100.5C 120.167,100.5 106.833,100.5 93.5,100.5C 93.8326,114.849 93.4993,129.182 92.5,143.5C 91.8333,129.006 91.1667,114.672 90.5,100.5C 90.5,97.5 90.5,94.5 90.5,91.5 Z"/></g>
<g><path style="opacity:1" fill="#e5fdfe" d="M 89.5,99.5 C 89.1684,132.671 89.5017,165.671 90.5,198.5C 105.324,199.496 120.324,199.829 135.5,199.5C 121.491,201.188 107.158,202.188 92.5,202.5C 91.1861,201.687 90.0195,200.687 89,199.5C 88.1692,165.997 88.3358,132.664 89.5,99.5 Z"/></g>
<g><path style="opacity:1" fill="#06969c" d="M 90.5,151.5 C 91.1667,151.5 91.8333,151.5 92.5,151.5C 106.5,151.5 120.5,151.5 134.5,151.5C 134.5,166.833 134.5,182.167 134.5,197.5C 120.5,197.5 106.5,197.5 92.5,197.5C 92.6621,195.473 92.4955,193.473 92,191.5C 91.5034,193.81 91.3367,196.143 91.5,198.5C 106.167,198.5 120.833,198.5 135.5,198.5C 135.5,198.833 135.5,199.167 135.5,199.5C 120.324,199.829 105.324,199.496 90.5,198.5C 90.5,182.833 90.5,167.167 90.5,151.5 Z"/></g>
<g><path style="opacity:1" fill="#1d858a" d="M 92.5,151.5 C 105.99,150.504 119.656,150.171 133.5,150.5C 134.167,150.5 134.833,150.5 135.5,150.5C 135.5,166.5 135.5,182.5 135.5,198.5C 120.833,198.5 106.167,198.5 91.5,198.5C 91.3367,196.143 91.5034,193.81 92,191.5C 92.4955,193.473 92.6621,195.473 92.5,197.5C 106.5,197.5 120.5,197.5 134.5,197.5C 134.5,182.167 134.5,166.833 134.5,151.5C 120.5,151.5 106.5,151.5 92.5,151.5 Z"/></g>
</svg>
