<?xml version="1.0" encoding="UTF-8"?>
<!DOCTYPE svg PUBLIC "-//W3C//DTD SVG 1.1//EN" "http://www.w3.org/Graphics/SVG/1.1/DTD/svg11.dtd">
<svg xmlns="http://www.w3.org/2000/svg" version="1.1" width="100px" height="100px" style="shape-rendering:geometricPrecision; text-rendering:geometricPrecision; image-rendering:optimizeQuality; fill-rule:evenodd; clip-rule:evenodd" xmlns:xlink="http://www.w3.org/1999/xlink">
<g><path style="opacity:1" fill="#fafaf9" d="M -0.5,-0.5 C 7.5,-0.5 15.5,-0.5 23.5,-0.5C 23.5,0.5 23.5,1.5 23.5,2.5C 15.7921,1.20254 13.1255,4.20254 15.5,11.5C 18.8306,11.0181 21.4973,12.0181 23.5,14.5C 21.2281,19.9391 18.7281,25.2724 16,30.5C 16.0221,37.1293 14.3554,43.4627 11,49.5C 8.57035,50.9648 6.07035,52.2982 3.5,53.5C 5.16389,54.2231 6.83056,53.8897 8.5,52.5C 9.29755,52.9569 9.63088,53.6236 9.5,54.5C 8.26007,57.024 7.0934,59.6907 6,62.5C 5.66667,67.8333 5.33333,73.1667 5,78.5C 3.41099,83.6524 1.57766,88.6524 -0.5,93.5C -0.5,62.1667 -0.5,30.8333 -0.5,-0.5 Z"/></g>
<g><path style="opacity:1" fill="#fafbfa" d="M 83.5,-0.5 C 88.8333,-0.5 94.1667,-0.5 99.5,-0.5C 99.5,32.8333 99.5,66.1667 99.5,99.5C 87.8333,99.5 76.1667,99.5 64.5,99.5C 67.4081,98.0459 70.4081,96.5459 73.5,95C 75.2373,90.2644 78.5706,87.2644 83.5,86C 89.4477,81.6793 91.781,75.846 90.5,68.5C 95.4008,64.0591 96.5675,58.7258 94,52.5C 92.8549,51.3636 91.6883,50.3636 90.5,49.5C 90.1777,38.7003 88.8443,28.0336 86.5,17.5C 84.6587,11.642 83.6587,5.64199 83.5,-0.5 Z"/></g>
<g><path style="opacity:1" fill="#2a130f" d="M 53.5,-0.5 C 54.8333,-0.5 56.1667,-0.5 57.5,-0.5C 58.7927,1.29585 60.2927,2.96252 62,4.5C 61.9421,2.5646 61.1088,0.89793 59.5,-0.5C 60.5,-0.5 61.5,-0.5 62.5,-0.5C 64.757,3.75949 66.9237,8.09283 69,12.5C 69.765,14.0657 69.5983,15.3991 68.5,16.5C 67.9553,14.4068 67.122,12.4068 66,10.5C 65.8784,12.437 65.045,13.7703 63.5,14.5C 62.4178,8.00313 59.0845,3.00313 53.5,-0.5 Z"/></g>
<g><path style="opacity:1" fill="#997b6f" d="M 57.5,-0.5 C 58.1667,-0.5 58.8333,-0.5 59.5,-0.5C 61.1088,0.89793 61.9421,2.5646 62,4.5C 60.2927,2.96252 58.7927,1.29585 57.5,-0.5 Z"/></g>
<g><path style="opacity:1" fill="#906f64" d="M 51.5,-0.5 C 52.1667,-0.5 52.8333,-0.5 53.5,-0.5C 59.0845,3.00313 62.4178,8.00313 63.5,14.5C 60.2905,8.94746 56.2905,3.94746 51.5,-0.5 Z"/></g>
<g><path style="opacity:1" fill="#674840" d="M 44.5,-0.5 C 44.8333,-0.5 45.1667,-0.5 45.5,-0.5C 46.6357,2.38116 47.9691,5.21449 49.5,8C 47.78,7.28997 46.1133,6.1233 44.5,4.5C 43.8933,4.62358 43.56,4.95691 43.5,5.5C 42.9033,5.2648 42.5699,4.7648 42.5,4C 43.7073,2.69981 44.3739,1.19981 44.5,-0.5 Z"/></g>
<g><path style="opacity:1" fill="#26110d" d="M 29.5,-0.5 C 30.1667,-0.5 30.8333,-0.5 31.5,-0.5C 35.4356,3.93794 39.6022,8.27127 44,12.5C 44.4696,13.5768 44.3029,14.5768 43.5,15.5C 42.7611,15.631 42.0944,15.4643 41.5,15C 37.534,10.0325 33.2007,5.36584 28.5,1C 29.056,0.617425 29.3893,0.117425 29.5,-0.5 Z"/></g>
<g><path style="opacity:1" fill="#1f0e0a" d="M 45.5,-0.5 C 47.5,-0.5 49.5,-0.5 51.5,-0.5C 56.2905,3.94746 60.2905,8.94746 63.5,14.5C 63.5,15.1667 63.5,15.8333 63.5,16.5C 62.6522,17.625 61.6522,17.625 60.5,16.5C 58.3962,10.8814 54.8962,6.21477 50,2.5C 49.6848,3.90775 50.0181,5.24109 51,6.5C 53.3333,8.83333 55.6667,11.1667 58,13.5C 58.49,14.7932 58.6567,16.1266 58.5,17.5C 57.209,17.7373 56.209,17.404 55.5,16.5C 54.9688,14.4559 53.8022,12.7893 52,11.5C 51.51,12.7932 51.3433,14.1266 51.5,15.5C 51.1667,15.5 50.8333,15.5 50.5,15.5C 47.9488,12.3693 45.6155,9.03594 43.5,5.5C 43.56,4.95691 43.8933,4.62358 44.5,4.5C 46.1133,6.1233 47.78,7.28997 49.5,8C 47.9691,5.21449 46.6357,2.38116 45.5,-0.5 Z"/></g>
<g><path style="opacity:1" fill="#917268" d="M 60.5,16.5 C 59.8333,16.8333 59.1667,17.1667 58.5,17.5C 58.6567,16.1266 58.49,14.7932 58,13.5C 55.6667,11.1667 53.3333,8.83333 51,6.5C 50.0181,5.24109 49.6848,3.90775 50,2.5C 54.8962,6.21477 58.3962,10.8814 60.5,16.5 Z"/></g>
<g><path style="opacity:1" fill="#806a60" d="M 62.5,-0.5 C 63.1667,-0.5 63.8333,-0.5 64.5,-0.5C 67.8738,4.65092 69.8738,10.3176 70.5,16.5C 71.5,16.5 72.5,16.5 73.5,16.5C 71.8333,17.8333 70.1667,17.8333 68.5,16.5C 69.5983,15.3991 69.765,14.0657 69,12.5C 66.9237,8.09283 64.757,3.75949 62.5,-0.5 Z"/></g>
<g><path style="opacity:1" fill="#a8806d" d="M 66.5,-0.5 C 67.5,-0.5 68.5,-0.5 69.5,-0.5C 72.7494,4.57977 74.416,10.2464 74.5,16.5C 74.1667,16.5 73.8333,16.5 73.5,16.5C 71.7556,10.6026 69.4223,4.93592 66.5,-0.5 Z"/></g>
<g><path style="opacity:1" fill="#bb7e5e" d="M 77.5,-0.5 C 79.5,-0.5 81.5,-0.5 83.5,-0.5C 83.6587,5.64199 84.6587,11.642 86.5,17.5C 85.596,18.209 85.2627,19.209 85.5,20.5C 84.7656,19.1225 84.0989,17.6225 83.5,16C 82.4232,15.5304 81.4232,15.6971 80.5,16.5C 81.1095,10.4412 80.1095,4.77449 77.5,-0.5 Z"/></g>
<g><path style="opacity:1" fill="#bb7759" d="M 31.5,-0.5 C 35.8333,-0.5 40.1667,-0.5 44.5,-0.5C 44.3739,1.19981 43.7073,2.69981 42.5,4C 42.5699,4.7648 42.9033,5.2648 43.5,5.5C 45.6155,9.03594 47.9488,12.3693 50.5,15.5C 48.3743,16.1032 46.0409,16.1032 43.5,15.5C 44.3029,14.5768 44.4696,13.5768 44,12.5C 39.6022,8.27127 35.4356,3.93794 31.5,-0.5 Z"/></g>
<g><path style="opacity:1" fill="#250e06" d="M 64.5,-0.5 C 65.1667,-0.5 65.8333,-0.5 66.5,-0.5C 69.4223,4.93592 71.7556,10.6026 73.5,16.5C 72.5,16.5 71.5,16.5 70.5,16.5C 69.8738,10.3176 67.8738,4.65092 64.5,-0.5 Z"/></g>
<g><path style="opacity:1" fill="#b97d5b" d="M 23.5,-0.5 C 25.5,-0.5 27.5,-0.5 29.5,-0.5C 29.3893,0.117425 29.056,0.617425 28.5,1C 33.2007,5.36584 37.534,10.0325 41.5,15C 42.0944,15.4643 42.7611,15.631 43.5,15.5C 41.7857,16.7384 39.7857,17.405 37.5,17.5C 33.982,9.23169 27.6486,5.23169 18.5,5.5C 18.5,6.5 18.5,7.5 18.5,8.5C 25.7279,8.0483 31.0613,11.0483 34.5,17.5C 33.6618,17.8417 33.3284,18.5084 33.5,19.5C 31.8561,19.2865 30.3561,19.6198 29,20.5C 30.1735,18.1403 29.3402,16.807 26.5,16.5C 26.1788,14.9519 25.1788,14.2852 23.5,14.5C 21.4973,12.0181 18.8306,11.0181 15.5,11.5C 13.1255,4.20254 15.7921,1.20254 23.5,2.5C 23.5,1.5 23.5,0.5 23.5,-0.5 Z"/></g>
<g><path style="opacity:1" fill="#2c100a" d="M 37.5,17.5 C 37.1667,17.5 36.8333,17.5 36.5,17.5C 35.8333,17.5 35.1667,17.5 34.5,17.5C 31.0613,11.0483 25.7279,8.0483 18.5,8.5C 18.5,7.5 18.5,6.5 18.5,5.5C 27.6486,5.23169 33.982,9.23169 37.5,17.5 Z"/></g>
<g><path style="opacity:1" fill="#987b65" d="M 55.5,16.5 C 54.0413,16.5674 52.7079,16.2341 51.5,15.5C 51.3433,14.1266 51.51,12.7932 52,11.5C 53.8022,12.7893 54.9688,14.4559 55.5,16.5 Z"/></g>
<g><path style="opacity:1" fill="#94766a" d="M 68.5,16.5 C 66.8333,16.5 65.1667,16.5 63.5,16.5C 63.5,15.8333 63.5,15.1667 63.5,14.5C 65.045,13.7703 65.8784,12.437 66,10.5C 67.122,12.4068 67.9553,14.4068 68.5,16.5 Z"/></g>
<g><path style="opacity:1" fill="#22130f" d="M 69.5,-0.5 C 70.5,-0.5 71.5,-0.5 72.5,-0.5C 74.5593,4.27983 75.8926,9.27983 76.5,14.5C 77.6517,11.8938 77.8184,9.22716 77,6.5C 75.0972,4.55901 74.2639,2.22568 74.5,-0.5C 75.5,-0.5 76.5,-0.5 77.5,-0.5C 80.1095,4.77449 81.1095,10.4412 80.5,16.5C 78.7033,16.9349 76.7033,16.9349 74.5,16.5C 74.416,10.2464 72.7494,4.57977 69.5,-0.5 Z"/></g>
<g><path style="opacity:1" fill="#926f60" d="M 72.5,-0.5 C 73.1667,-0.5 73.8333,-0.5 74.5,-0.5C 74.2639,2.22568 75.0972,4.55901 77,6.5C 77.8184,9.22716 77.6517,11.8938 76.5,14.5C 75.8926,9.27983 74.5593,4.27983 72.5,-0.5 Z"/></g>
<g><path style="opacity:1" fill="#f9f9f8" d="M 43.5,15.5 C 46.0409,16.1032 48.3743,16.1032 50.5,15.5C 50.8333,15.5 51.1667,15.5 51.5,15.5C 52.7079,16.2341 54.0413,16.5674 55.5,16.5C 56.209,17.404 57.209,17.7373 58.5,17.5C 59.1667,17.1667 59.8333,16.8333 60.5,16.5C 61.6522,17.625 62.6522,17.625 63.5,16.5C 65.1667,16.5 66.8333,16.5 68.5,16.5C 70.1667,17.8333 71.8333,17.8333 73.5,16.5C 73.8333,16.5 74.1667,16.5 74.5,16.5C 76.7033,16.9349 78.7033,16.9349 80.5,16.5C 81.4232,15.6971 82.4232,15.5304 83.5,16C 84.0989,17.6225 84.7656,19.1225 85.5,20.5C 87.1817,26.6771 87.8483,33.0104 87.5,39.5C 87.6633,41.8568 87.4966,44.1902 87,46.5C 86.2825,47.4506 85.4491,47.6172 84.5,47C 86.229,45.2111 86.8957,43.0444 86.5,40.5C 84.4352,40.5172 82.4352,40.8505 80.5,41.5C 76.7955,42.8494 73.1288,43.1827 69.5,42.5C 69.1344,41.3054 68.301,40.6387 67,40.5C 64.8352,42.9639 62.8352,42.9639 61,40.5C 59.9025,41.9675 58.4025,42.8008 56.5,43C 59.1667,43.6667 59.1667,44.3333 56.5,45C 57.4158,45.2784 58.0825,45.7784 58.5,46.5C 57.5,46.5 56.5,46.5 55.5,46.5C 53.9402,44.5712 51.9402,43.2378 49.5,42.5C 48.1879,42.8243 47.3546,43.4909 47,44.5C 45.7387,44.2409 44.7387,43.5742 44,42.5C 42.0574,44.7151 40.3907,44.7151 39,42.5C 37.4773,44.6201 35.6439,44.9535 33.5,43.5C 32.913,44.2334 32.913,45.2334 33.5,46.5C 34.4916,46.3284 35.1583,46.6618 35.5,47.5C 31.7891,48.3354 28.9558,50.3354 27,53.5C 22.7592,50.2734 17.9259,48.7734 12.5,49C 14.7358,45.9647 16.4024,42.6314 17.5,39C 21.9177,38.7923 26.251,38.1256 30.5,37C 32.7337,35.3621 34.067,33.1955 34.5,30.5C 35.2827,26.3066 35.9494,21.9732 36.5,17.5C 36.8333,17.5 37.1667,17.5 37.5,17.5C 39.7857,17.405 41.7857,16.7384 43.5,15.5 Z"/></g>
<g><path style="opacity:1" fill="#8b8180" d="M 34.5,17.5 C 35.1667,17.5 35.8333,17.5 36.5,17.5C 35.9494,21.9732 35.2827,26.3066 34.5,30.5C 34.815,26.6286 34.4816,22.9619 33.5,19.5C 33.3284,18.5084 33.6618,17.8417 34.5,17.5 Z"/></g>
<g><path style="opacity:1" fill="#e1e0df" d="M 26.5,16.5 C 29.3402,16.807 30.1735,18.1403 29,20.5C 30.3561,19.6198 31.8561,19.2865 33.5,19.5C 34.0688,24.777 33.2355,29.777 31,34.5C 26.8599,37.4607 22.3599,38.1273 17.5,36.5C 19.7245,29.4967 22.7245,22.83 26.5,16.5 Z"/></g>
<g><path style="opacity:1" fill="#474746" d="M 86.5,17.5 C 88.8443,28.0336 90.1777,38.7003 90.5,49.5C 89.8333,49.5 89.1667,49.5 88.5,49.5C 88.8128,45.9581 88.4794,42.6248 87.5,39.5C 87.8483,33.0104 87.1817,26.6771 85.5,20.5C 85.2627,19.209 85.596,18.209 86.5,17.5 Z"/></g>
<g><path style="opacity:1" fill="#656663" d="M 49.5,42.5 C 49.7778,44.3464 49.1112,45.6798 47.5,46.5C 44.7465,46.1035 41.7465,45.7702 38.5,45.5C 37.2223,45.7822 36.2223,46.4489 35.5,47.5C 35.1583,46.6618 34.4916,46.3284 33.5,46.5C 32.913,45.2334 32.913,44.2334 33.5,43.5C 35.6439,44.9535 37.4773,44.6201 39,42.5C 40.3907,44.7151 42.0574,44.7151 44,42.5C 44.7387,43.5742 45.7387,44.2409 47,44.5C 47.3546,43.4909 48.1879,42.8243 49.5,42.5 Z"/></g>
<g><path style="opacity:1" fill="#e6e6e5" d="M 87.5,39.5 C 88.4794,42.6248 88.8128,45.9581 88.5,49.5C 81.8667,48.2659 76.2,49.9326 71.5,54.5C 69.8555,52.0748 68.6888,49.4081 68,46.5C 67.5065,48.1341 67.3398,49.8008 67.5,51.5C 61.9989,50.6395 57.1655,51.9729 53,55.5C 51.8783,53.3762 50.3783,51.5429 48.5,50C 44.8019,48.8075 41.4686,47.3075 38.5,45.5C 41.7465,45.7702 44.7465,46.1035 47.5,46.5C 49.1112,45.6798 49.7778,44.3464 49.5,42.5C 51.9402,43.2378 53.9402,44.5712 55.5,46.5C 54.3572,48.1007 55.0239,48.7674 57.5,48.5C 60.1104,48.3528 62.4437,47.5194 64.5,46C 62.5116,45.8195 60.5116,45.9862 58.5,46.5C 58.0825,45.7784 57.4158,45.2784 56.5,45C 59.1667,44.3333 59.1667,43.6667 56.5,43C 58.4025,42.8008 59.9025,41.9675 61,40.5C 62.8352,42.9639 64.8352,42.9639 67,40.5C 68.301,40.6387 69.1344,41.3054 69.5,42.5C 67.8967,42.3118 66.5634,42.8118 65.5,44C 68.1573,44.1718 70.9907,44.6718 74,45.5C 77.5642,45.1007 81.0642,44.4341 84.5,43.5C 85.521,42.9984 85.6877,42.3317 85,41.5C 83.3845,42.8009 81.8845,42.8009 80.5,41.5C 82.4352,40.8505 84.4352,40.5172 86.5,40.5C 86.8957,43.0444 86.229,45.2111 84.5,47C 85.4491,47.6172 86.2825,47.4506 87,46.5C 87.4966,44.1902 87.6633,41.8568 87.5,39.5 Z"/></g>
<g><path style="opacity:1" fill="#434343" d="M 80.5,41.5 C 81.8845,42.8009 83.3845,42.8009 85,41.5C 85.6877,42.3317 85.521,42.9984 84.5,43.5C 81.0642,44.4341 77.5642,45.1007 74,45.5C 70.9907,44.6718 68.1573,44.1718 65.5,44C 66.5634,42.8118 67.8967,42.3118 69.5,42.5C 73.1288,43.1827 76.7955,42.8494 80.5,41.5 Z"/></g>
<g><path style="opacity:1" fill="#4f4f4e" d="M 33.5,46.5 C 30.3214,48.0363 27.1548,49.0363 24,49.5C 23.5172,48.552 23.3505,47.552 23.5,46.5C 25.4835,46.6168 27.1502,45.9501 28.5,44.5C 29.8498,45.9501 31.5165,46.6168 33.5,46.5 Z"/></g>
<g><path style="opacity:1" fill="#454545" d="M 55.5,46.5 C 56.5,46.5 57.5,46.5 58.5,46.5C 60.5116,45.9862 62.5116,45.8195 64.5,46C 62.4437,47.5194 60.1104,48.3528 57.5,48.5C 55.0239,48.7674 54.3572,48.1007 55.5,46.5 Z"/></g>
<g><path style="opacity:1" fill="#fafafa" d="M 73.5,68.5 C 72.596,69.209 72.2627,70.209 72.5,71.5C 70.712,71.2148 69.0453,71.5481 67.5,72.5C 72.1318,74.7113 74.4651,73.378 74.5,68.5C 74.811,67.5222 75.4777,66.8555 76.5,66.5C 81.0308,67.8106 85.5308,67.8106 90,66.5C 90.4643,67.0944 90.631,67.7611 90.5,68.5C 89.5796,77.9445 84.5796,84.4445 75.5,88C 74.3601,89.9734 73.0267,91.8067 71.5,93.5C 66.6911,96.3176 61.6911,98.3176 56.5,99.5C 37.5,99.5 18.5,99.5 -0.5,99.5C -0.5,98.5 -0.5,97.5 -0.5,96.5C 0.789915,95.9423 1.62325,94.9423 2,93.5C 2.90954,88.7039 4.24288,84.0372 6,79.5C 6.33333,74.1667 6.66667,68.8333 7,63.5C 8.90763,60.7935 9.74097,57.7935 9.5,54.5C 15.1619,49.2873 20.8286,49.6206 26.5,55.5C 27.0009,63.8282 31.5009,67.8282 40,67.5C 41.825,67.0566 43.6583,66.7233 45.5,66.5C 45.9865,69.8273 47.8198,72.1606 51,73.5C 51.5,73.1667 52,72.8333 52.5,72.5C 48.418,71.3045 46.7513,68.8045 47.5,65C 48.7932,64.51 50.1266,64.3433 51.5,64.5C 52.8609,55.9768 57.8609,52.1435 66.5,53C 70.055,55.2105 71.8884,58.3771 72,62.5C 74.6119,64.0369 75.1119,66.0369 73.5,68.5 Z"/></g>
<g><path style="opacity:1" fill="#1c1c1b" d="M 23.5,14.5 C 25.1788,14.2852 26.1788,14.9519 26.5,16.5C 22.7245,22.83 19.7245,29.4967 17.5,36.5C 22.3599,38.1273 26.8599,37.4607 31,34.5C 33.2355,29.777 34.0688,24.777 33.5,19.5C 34.4816,22.9619 34.815,26.6286 34.5,30.5C 34.067,33.1955 32.7337,35.3621 30.5,37C 26.251,38.1256 21.9177,38.7923 17.5,39C 16.4024,42.6314 14.7358,45.9647 12.5,49C 17.9259,48.7734 22.7592,50.2734 27,53.5C 28.9558,50.3354 31.7891,48.3354 35.5,47.5C 36.2223,46.4489 37.2223,45.7822 38.5,45.5C 41.4686,47.3075 44.8019,48.8075 48.5,50C 50.3783,51.5429 51.8783,53.3762 53,55.5C 57.1655,51.9729 61.9989,50.6395 67.5,51.5C 67.3398,49.8008 67.5065,48.1341 68,46.5C 68.6888,49.4081 69.8555,52.0748 71.5,54.5C 76.2,49.9326 81.8667,48.2659 88.5,49.5C 89.1667,49.5 89.8333,49.5 90.5,49.5C 91.6883,50.3636 92.8549,51.3636 94,52.5C 96.5675,58.7258 95.4008,64.0591 90.5,68.5C 90.631,67.7611 90.4643,67.0944 90,66.5C 85.5308,67.8106 81.0308,67.8106 76.5,66.5C 75.4777,66.8555 74.811,67.5222 74.5,68.5C 74.1667,68.5 73.8333,68.5 73.5,68.5C 75.1119,66.0369 74.6119,64.0369 72,62.5C 71.8884,58.3771 70.055,55.2105 66.5,53C 57.8609,52.1435 52.8609,55.9768 51.5,64.5C 50.1266,64.3433 48.7932,64.51 47.5,65C 46.7513,68.8045 48.418,71.3045 52.5,72.5C 52,72.8333 51.5,73.1667 51,73.5C 47.8198,72.1606 45.9865,69.8273 45.5,66.5C 43.6583,66.7233 41.825,67.0566 40,67.5C 31.5009,67.8282 27.0009,63.8282 26.5,55.5C 20.8286,49.6206 15.1619,49.2873 9.5,54.5C 9.63088,53.6236 9.29755,52.9569 8.5,52.5C 6.83056,53.8897 5.16389,54.2231 3.5,53.5C 6.07035,52.2982 8.57035,50.9648 11,49.5C 14.3554,43.4627 16.0221,37.1293 16,30.5C 18.7281,25.2724 21.2281,19.9391 23.5,14.5 Z"/></g>
<g><path style="opacity:1" fill="#6c6c6a" d="M 91.5,52.5 C 91.372,54.6547 91.872,56.6547 93,58.5C 93.4828,57.552 93.6495,56.552 93.5,55.5C 94.8847,58.2849 94.218,60.6183 91.5,62.5C 91.8294,59.7718 91.1628,57.4385 89.5,55.5C 89.5,55.1667 89.5,54.8333 89.5,54.5C 89.5,53.8333 89.5,53.1667 89.5,52.5C 90.3957,51.4937 91.0623,51.4937 91.5,52.5 Z"/></g>
<g><path style="opacity:1" fill="#727270" d="M 83.5,54.5 C 83.5,56.1667 83.5,57.8333 83.5,59.5C 80.5185,59.8176 78.1852,58.8176 76.5,56.5C 76.5,56.1667 76.5,55.8333 76.5,55.5C 78.861,55.3259 81.1944,54.9926 83.5,54.5 Z"/></g>
<g><path style="opacity:1" fill="#10100f" d="M 83.5,54.5 C 85.5,54.5 87.5,54.5 89.5,54.5C 89.5,54.8333 89.5,55.1667 89.5,55.5C 88.71,56.6085 88.21,57.9419 88,59.5C 86.7012,59.0338 85.2012,59.0338 83.5,59.5C 83.5,57.8333 83.5,56.1667 83.5,54.5 Z"/></g>
<g><path style="opacity:1" fill="#eaeae8" d="M 36.5,48.5 C 43.6603,48.2341 48.6603,51.2341 51.5,57.5C 51.2811,58.938 50.7811,60.2713 50,61.5C 42.9611,66.8247 35.9611,66.8247 29,61.5C 27.4089,54.6707 29.9089,50.3374 36.5,48.5 Z"/></g>
<g><path style="opacity:1" fill="#f6f6f4" d="M 36.5,54.5 C 36.5,56.1667 36.5,57.8333 36.5,59.5C 34.2729,58.5994 33.2729,56.9328 33.5,54.5C 34.5,54.5 35.5,54.5 36.5,54.5 Z"/></g>
<g><path style="opacity:1" fill="#626260" d="M 40.5,53.5 C 38.901,53.2322 37.5676,53.5655 36.5,54.5C 35.5,54.5 34.5,54.5 33.5,54.5C 33.2729,56.9328 34.2729,58.5994 36.5,59.5C 38.5,59.5 40.5,59.5 42.5,59.5C 42.5271,57.8007 43.1938,56.4674 44.5,55.5C 45.9217,55.7086 47.255,56.2086 48.5,57C 47.1667,57.6667 46.1667,58.6667 45.5,60C 41.8333,60.6667 38.1667,60.6667 34.5,60C 33.3413,58.1733 32.008,56.5067 30.5,55C 33.6527,52.4784 36.986,51.9784 40.5,53.5 Z"/></g>
<g><path style="opacity:1" fill="#dddddb" d="M 91.5,52.5 C 92.9063,52.9731 93.573,53.9731 93.5,55.5C 93.6495,56.552 93.4828,57.552 93,58.5C 91.872,56.6547 91.372,54.6547 91.5,52.5 Z"/></g>
<g><path style="opacity:1" fill="#0c0c0b" d="M 40.5,53.5 C 41.8333,54.1667 43.1667,54.8333 44.5,55.5C 43.1938,56.4674 42.5271,57.8007 42.5,59.5C 40.5,59.5 38.5,59.5 36.5,59.5C 36.5,57.8333 36.5,56.1667 36.5,54.5C 37.5676,53.5655 38.901,53.2322 40.5,53.5 Z"/></g>
<g><path style="opacity:1" fill="#e2e2e0" d="M 89.5,52.5 C 89.5,53.1667 89.5,53.8333 89.5,54.5C 87.5,54.5 85.5,54.5 83.5,54.5C 81.1944,54.9926 78.861,55.3259 76.5,55.5C 76.1367,53.0885 77.1367,51.5885 79.5,51C 82.5,50.3333 85.5,50.3333 88.5,51C 89.056,51.3826 89.3893,51.8826 89.5,52.5 Z"/></g>
<g><path style="opacity:1" fill="#464a4c" d="M 30.5,23.5 C 33.0414,24.6228 33.0414,25.9561 30.5,27.5C 30.0941,26.4425 30.0941,25.1092 30.5,23.5 Z"/></g>
<g><path style="opacity:1" fill="#3d3f40" d="M 24.5,25.5 C 25.675,25.281 26.675,25.6143 27.5,26.5C 25.9483,27.7979 24.9483,27.4646 24.5,25.5 Z"/></g>
<g><path style="opacity:1" fill="#dedfda" d="M 73.5,60.5 C 75.0847,61.0024 75.5847,62.0024 75,63.5C 73.9614,62.7562 73.4614,61.7562 73.5,60.5 Z"/></g>
<g><path style="opacity:1" fill="#f0f1ee" d="M 76.5,56.5 C 78.1852,58.8176 80.5185,59.8176 83.5,59.5C 85.2012,59.0338 86.7012,59.0338 88,59.5C 88.21,57.9419 88.71,56.6085 89.5,55.5C 91.1628,57.4385 91.8294,59.7718 91.5,62.5C 87.916,66.5831 83.5826,67.4165 78.5,65C 77.0273,62.0332 75.3607,59.1999 73.5,56.5C 74.5352,52.6179 75.5352,52.6179 76.5,56.5 Z"/></g>
<g><path style="opacity:1" fill="#3f3f3f" d="M 57.5,69.5 C 58.9778,69.238 60.3112,69.5713 61.5,70.5C 60.8333,70.8333 60.1667,71.1667 59.5,71.5C 58.2867,71.2528 57.62,70.5862 57.5,69.5 Z"/></g>
<g><path style="opacity:1" fill="#5a5a58" d="M 73.5,68.5 C 73.8333,68.5 74.1667,68.5 74.5,68.5C 74.4651,73.378 72.1318,74.7113 67.5,72.5C 69.0453,71.5481 70.712,71.2148 72.5,71.5C 72.2627,70.209 72.596,69.209 73.5,68.5 Z"/></g>
<g><path style="opacity:1" fill="#171717" d="M 9.5,54.5 C 9.74097,57.7935 8.90763,60.7935 7,63.5C 6.66667,68.8333 6.33333,74.1667 6,79.5C 4.24288,84.0372 2.90954,88.7039 2,93.5C 1.62325,94.9423 0.789915,95.9423 -0.5,96.5C -0.5,95.5 -0.5,94.5 -0.5,93.5C 1.57766,88.6524 3.41099,83.6524 5,78.5C 5.33333,73.1667 5.66667,67.8333 6,62.5C 7.0934,59.6907 8.26007,57.024 9.5,54.5 Z"/></g>
<g><path style="opacity:1" fill="#404040" d="M 75.5,78.5 C 76.6921,79.5659 76.3588,80.3992 74.5,81C 70.0403,82.0735 65.5403,82.9069 61,83.5C 56.5452,83.4013 52.3785,82.4013 48.5,80.5C 48.6667,80.1667 48.8333,79.8333 49,79.5C 49.7504,80.1258 50.5838,80.6258 51.5,81C 59.836,82.0826 67.836,81.2493 75.5,78.5 Z"/></g>
<g><path style="opacity:1" fill="#1e1e1e" d="M 90.5,68.5 C 91.781,75.846 89.4477,81.6793 83.5,86C 78.5706,87.2644 75.2373,90.2644 73.5,95C 70.4081,96.5459 67.4081,98.0459 64.5,99.5C 61.8333,99.5 59.1667,99.5 56.5,99.5C 61.6911,98.3176 66.6911,96.3176 71.5,93.5C 73.0267,91.8067 74.3601,89.9734 75.5,88C 84.5796,84.4445 89.5796,77.9445 90.5,68.5 Z"/></g>
</svg>
