<?xml version="1.0" encoding="UTF-8"?>
<!DOCTYPE svg PUBLIC "-//W3C//DTD SVG 1.1//EN" "http://www.w3.org/Graphics/SVG/1.1/DTD/svg11.dtd">
<svg xmlns="http://www.w3.org/2000/svg" version="1.1" width="248px" height="250px" style="shape-rendering:geometricPrecision; text-rendering:geometricPrecision; image-rendering:optimizeQuality; fill-rule:evenodd; clip-rule:evenodd" xmlns:xlink="http://www.w3.org/1999/xlink">
<g><path style="opacity:1" fill="#9b62ff" d="M 87.5,49.5 C 84.1667,49.5 80.8333,49.5 77.5,49.5C 76.503,68.326 76.1697,87.326 76.5,106.5C 75.6712,99.3448 75.1712,92.0115 75,84.5C 58.3957,118.858 41.7291,153.524 25,188.5C 23.6032,190.07 22.1032,191.404 20.5,192.5C 16.1559,187.153 12.8226,181.153 10.5,174.5C 11.4293,173.685 12.4293,172.852 13.5,172C 15.9728,164.044 19.6394,156.377 24.5,149C 24.1667,148.667 23.8333,148.333 23.5,148C 47.6404,100.405 70.6404,53.0713 92.5,6C 92.2716,5.60123 91.9382,5.43456 91.5,5.5C 93.78,3.77733 96.4467,3.11066 99.5,3.5C 102.493,2.86539 105.493,2.69872 108.5,3C 103.492,3.86927 103.825,4.53594 109.5,5C 107.009,5.62595 107.009,6.45928 109.5,7.5C 106.047,8.47856 105.714,9.97856 108.5,12C 107.004,12.5074 105.837,12.0074 105,10.5C 104.86,12.2555 105.36,13.9222 106.5,15.5C 103.111,18.5681 100.445,22.2348 98.5,26.5C 99.6087,27.9647 99.1087,28.9647 97,29.5C 96.7674,31.7801 95.934,33.7801 94.5,35.5C 95.6293,37.5294 95.1293,37.8627 93,36.5C 92.5,37.6667 91.6667,38.5 90.5,39C 90.5,41.6667 90.5,44.3333 90.5,47C 87.8333,47.3333 85.1667,47.6667 82.5,48C 84.3817,48.1981 86.0484,48.6981 87.5,49.5 Z"/></g>
<g><path style="opacity:1" fill="#8e61ff" d="M 91.5,5.5 C 91.9382,5.43456 92.2716,5.60123 92.5,6C 70.6404,53.0713 47.6404,100.405 23.5,148C 23.8333,148.333 24.1667,148.667 24.5,149C 19.6394,156.377 15.9728,164.044 13.5,172C 12.4293,172.852 11.4293,173.685 10.5,174.5C 6.855,166.898 4.18833,158.898 2.5,150.5C 3.26791,149.737 3.76791,148.737 4,147.5C 4.31732,149.301 4.98398,149.634 6,148.5C 26.2208,105.091 47.2208,61.4247 69,17.5C 69.7252,15.8425 69.2252,14.8425 67.5,14.5C 74.8444,9.93823 82.8444,6.93823 91.5,5.5 Z"/></g>
<g><path style="opacity:1" fill="#815fff" d="M 67.5,14.5 C 69.2252,14.8425 69.7252,15.8425 69,17.5C 47.2208,61.4247 26.2208,105.091 6,148.5C 4.98398,149.634 4.31732,149.301 4,147.5C 3.76791,148.737 3.26791,149.737 2.5,150.5C 1.60393,145.353 0.603935,140.353 -0.5,135.5C -0.5,127.833 -0.5,120.167 -0.5,112.5C 5.37539,68.0525 28.0421,35.3858 67.5,14.5 Z"/></g>
<g><path style="opacity:1" fill="#e871fc" d="M 208.5,35.5 C 209.5,35.8333 210.167,36.5 210.5,37.5C 196.579,65.6766 182.912,94.0099 169.5,122.5C 167.391,121.609 165.391,120.442 163.5,119C 170.919,109.834 174.252,99.3336 173.5,87.5C 174.319,90.3054 174.819,93.3054 175,96.5C 185.764,76.2067 195.764,55.8734 205,35.5C 205.986,34.8288 207.153,34.8288 208.5,35.5 Z"/></g>
<g><path style="opacity:1" fill="#e974f6" d="M 210.5,37.5 C 212.167,38.5 213.5,39.8333 214.5,41.5C 200.205,69.8272 186.538,98.1605 173.5,126.5C 171.833,125.5 170.5,124.167 169.5,122.5C 182.912,94.0099 196.579,65.6766 210.5,37.5 Z"/></g>
<g><path style="opacity:1" fill="#ea78f0" d="M 214.5,41.5 C 215.833,42.1667 216.833,43.1667 217.5,44.5C 203.799,73.2314 190.133,101.898 176.5,130.5C 175.512,129.205 174.512,127.872 173.5,126.5C 186.538,98.1605 200.205,69.8272 214.5,41.5 Z"/></g>
<g><path style="opacity:1" fill="#eb7dea" d="M 217.5,44.5 C 219.218,46.2228 220.551,48.2228 221.5,50.5C 206.722,78.5315 192.722,106.865 179.5,135.5C 178.248,133.999 177.248,132.332 176.5,130.5C 190.133,101.898 203.799,73.2314 217.5,44.5 Z"/></g>
<g><path style="opacity:1" fill="#fefdfe" d="M 77.5,49.5 C 80.8333,49.5 84.1667,49.5 87.5,49.5C 99.8333,49.5 112.167,49.5 124.5,49.5C 128.5,49.5 132.5,49.5 136.5,49.5C 143.99,51.1158 150.99,54.1158 157.5,58.5C 161.904,61.9006 165.571,65.9006 168.5,70.5C 170.944,75.9442 172.611,81.6108 173.5,87.5C 174.252,99.3336 170.919,109.834 163.5,119C 165.391,120.442 167.391,121.609 169.5,122.5C 170.5,124.167 171.833,125.5 173.5,126.5C 174.512,127.872 175.512,129.205 176.5,130.5C 177.248,132.332 178.248,133.999 179.5,135.5C 180.167,136.833 180.833,138.167 181.5,139.5C 183.004,143.348 184.004,147.348 184.5,151.5C 185.406,167.126 180.073,180.126 168.5,190.5C 164.047,193.393 159.38,195.727 154.5,197.5C 151.99,197.927 149.657,198.593 147.5,199.5C 145.833,199.5 144.167,199.5 142.5,199.5C 139.833,199.5 137.167,199.5 134.5,199.5C 122.167,199.5 109.833,199.5 97.5,199.5C 90.8333,199.5 84.1667,199.5 77.5,199.5C 77.5,149.5 77.5,99.5 77.5,49.5 Z"/></g>
<g><path style="opacity:1" fill="#ec81e4" d="M 221.5,50.5 C 223.262,51.2623 224.262,52.5956 224.5,54.5C 211.255,81.703 198.088,109.036 185,136.5C 183.961,137.71 182.794,138.71 181.5,139.5C 180.833,138.167 180.167,136.833 179.5,135.5C 192.722,106.865 206.722,78.5315 221.5,50.5 Z"/></g>
<g><path style="opacity:1" fill="#ef8ed3" d="M 227.5,58.5 C 230.258,61.678 232.258,65.3447 233.5,69.5C 232.462,73.1181 231.295,76.7847 230,80.5C 203.377,134.12 177.21,187.953 151.5,242C 151.743,242.902 152.077,243.735 152.5,244.5C 150.958,245.301 149.292,245.634 147.5,245.5C 145.266,243.519 145.1,241.185 147,238.5C 154.349,223.824 161.682,209.158 169,194.5C 169.765,192.934 169.598,191.601 168.5,190.5C 180.073,180.126 185.406,167.126 184.5,151.5C 199.204,123.761 213.037,95.7612 226,67.5C 227.149,64.6074 227.649,61.6074 227.5,58.5 Z"/></g>
<g><path style="opacity:1" fill="#f093cb" d="M 233.5,69.5 C 235.008,71.1815 236.008,73.1815 236.5,75.5C 230.985,90.859 224.152,105.526 216,119.5C 212.08,129.839 207.247,139.673 201.5,149C 201.833,149.333 202.167,149.667 202.5,150C 198.55,155.733 195.55,161.9 193.5,168.5C 185.971,181.713 179.137,195.713 173,210.5C 168.136,218.859 163.803,227.859 160,237.5C 158.5,239 157,240.5 155.5,242C 156.056,242.383 156.389,242.883 156.5,243.5C 155.167,243.833 153.833,244.167 152.5,244.5C 152.077,243.735 151.743,242.902 151.5,242C 177.21,187.953 203.377,134.12 230,80.5C 231.295,76.7847 232.462,73.1181 233.5,69.5 Z"/></g>
<g><path style="opacity:1" fill="#f198c4" d="M 236.5,75.5 C 238.267,77.7916 239.267,80.4582 239.5,83.5C 220.082,125.998 199.915,167.998 179,209.5C 173.949,219.601 169.449,229.935 165.5,240.5C 162.579,241.696 159.579,242.696 156.5,243.5C 156.389,242.883 156.056,242.383 155.5,242C 157,240.5 158.5,239 160,237.5C 163.803,227.859 168.136,218.859 173,210.5C 179.137,195.713 185.971,181.713 193.5,168.5C 195.55,161.9 198.55,155.733 202.5,150C 202.167,149.667 201.833,149.333 201.5,149C 207.247,139.673 212.08,129.839 216,119.5C 224.152,105.526 230.985,90.859 236.5,75.5 Z"/></g>
<g><path style="opacity:1" fill="#ed87dc" d="M 224.5,54.5 C 225.974,55.4363 226.974,56.7697 227.5,58.5C 227.649,61.6074 227.149,64.6074 226,67.5C 213.037,95.7612 199.204,123.761 184.5,151.5C 184.004,147.348 183.004,143.348 181.5,139.5C 182.794,138.71 183.961,137.71 185,136.5C 198.088,109.036 211.255,81.703 224.5,54.5 Z"/></g>
<g><path style="opacity:1" fill="#f29dbe" d="M 239.5,83.5 C 241.072,86.2154 242.072,89.2154 242.5,92.5C 242.5,93.5 242.5,94.5 242.5,95.5C 241.325,95.281 240.325,95.6143 239.5,96.5C 217.567,142.865 195.234,189.032 172.5,235C 173.252,235.671 173.586,236.504 173.5,237.5C 170.838,238.499 168.172,239.499 165.5,240.5C 169.449,229.935 173.949,219.601 179,209.5C 199.915,167.998 220.082,125.998 239.5,83.5 Z"/></g>
<g><path style="opacity:1" fill="#f3a1b8" d="M 242.5,92.5 C 243.451,93.9187 243.784,95.5853 243.5,97.5C 242.419,103.167 240.086,108.334 236.5,113C 236.833,113.333 237.167,113.667 237.5,114C 218.623,151.755 199.957,189.755 181.5,228C 180.245,229.887 180.245,231.72 181.5,233.5C 178.833,234.833 176.167,236.167 173.5,237.5C 173.586,236.504 173.252,235.671 172.5,235C 195.234,189.032 217.567,142.865 239.5,96.5C 240.325,95.6143 241.325,95.281 242.5,95.5C 242.5,94.5 242.5,93.5 242.5,92.5 Z"/></g>
<g><path style="opacity:1" fill="#a965ff" d="M 76.5,106.5 C 76.5,117.833 76.5,129.167 76.5,140.5C 75.6721,134.347 75.1721,128.013 75,121.5C 68.5408,136.921 61.0408,152.087 52.5,167C 52.1654,168.164 52.1654,169.497 52.5,171C 46.5116,182.264 40.5116,193.597 34.5,205C 35.4581,206.147 35.1247,207.147 33.5,208C 35.7899,209.777 37.4566,211.944 38.5,214.5C 31.3721,208.044 25.3721,200.71 20.5,192.5C 22.1032,191.404 23.6032,190.07 25,188.5C 41.7291,153.524 58.3957,118.858 75,84.5C 75.1712,92.0115 75.6712,99.3448 76.5,106.5 Z"/></g>
<g><path style="opacity:1" fill="#f4a5b2" d="M 243.5,97.5 C 245.118,100.171 245.785,103.171 245.5,106.5C 244.141,111.553 242.308,116.553 240,121.5C 222.077,158.01 204.243,194.344 186.5,230.5C 185.035,231.737 183.368,232.737 181.5,233.5C 180.245,231.72 180.245,229.887 181.5,228C 199.957,189.755 218.623,151.755 237.5,114C 237.167,113.667 236.833,113.333 236.5,113C 240.086,108.334 242.419,103.167 243.5,97.5 Z"/></g>
<g><path style="opacity:1" fill="#f5aaab" d="M 245.5,106.5 C 246.43,110.4 246.763,114.4 246.5,118.5C 230.407,153.324 213.407,188.658 195.5,224.5C 193.054,227.231 190.054,229.231 186.5,230.5C 204.243,194.344 222.077,158.01 240,121.5C 242.308,116.553 244.141,111.553 245.5,106.5 Z"/></g>
<g><path style="opacity:1" fill="#b366ff" d="M 76.5,140.5 C 76.6664,148.84 76.4997,157.173 76,165.5C 75.6667,164.833 75.3333,164.167 75,163.5C 70.8126,171.875 66.6459,180.208 62.5,188.5C 59.9559,196.153 56.2892,203.653 51.5,211C 51.8333,211.333 52.1667,211.667 52.5,212C 50.5,214.667 48.5,217.333 46.5,220C 47.056,220.383 47.3893,220.883 47.5,221.5C 44.2085,219.542 41.2085,217.209 38.5,214.5C 37.4566,211.944 35.7899,209.777 33.5,208C 35.1247,207.147 35.4581,206.147 34.5,205C 40.5116,193.597 46.5116,182.264 52.5,171C 52.1654,169.497 52.1654,168.164 52.5,167C 61.0408,152.087 68.5408,136.921 75,121.5C 75.1721,128.013 75.6721,134.347 76.5,140.5 Z"/></g>
<g><path style="opacity:1" fill="#f6afa5" d="M 246.5,118.5 C 246.823,125.022 246.49,131.355 245.5,137.5C 245.649,136.448 245.483,135.448 245,134.5C 233.541,158.426 221.541,182.76 209,207.5C 207.709,209.844 207.209,212.177 207.5,214.5C 203.909,218.299 199.909,221.633 195.5,224.5C 213.407,188.658 230.407,153.324 246.5,118.5 Z"/></g>
<g><path style="opacity:1" fill="#fefefe" d="M -0.5,-0.5 C 82.1667,-0.5 164.833,-0.5 247.5,-0.5C 247.5,82.8333 247.5,166.167 247.5,249.5C 164.833,249.5 82.1667,249.5 -0.5,249.5C -0.5,211.5 -0.5,173.5 -0.5,135.5C 0.603935,140.353 1.60393,145.353 2.5,150.5C 4.18833,158.898 6.855,166.898 10.5,174.5C 12.8226,181.153 16.1559,187.153 20.5,192.5C 25.3721,200.71 31.3721,208.044 38.5,214.5C 41.2085,217.209 44.2085,219.542 47.5,221.5C 51.4243,225.802 56.0909,229.136 61.5,231.5C 66.5156,234.674 71.8489,237.341 77.5,239.5C 85.4189,243.23 93.7522,245.564 102.5,246.5C 105.287,247.477 108.287,247.81 111.5,247.5C 117.5,248.833 123.5,248.833 129.5,247.5C 131.5,247.5 133.5,247.5 135.5,247.5C 139.618,247.47 143.618,246.803 147.5,245.5C 149.292,245.634 150.958,245.301 152.5,244.5C 153.833,244.167 155.167,243.833 156.5,243.5C 159.579,242.696 162.579,241.696 165.5,240.5C 168.172,239.499 170.838,238.499 173.5,237.5C 176.167,236.167 178.833,234.833 181.5,233.5C 183.368,232.737 185.035,231.737 186.5,230.5C 190.054,229.231 193.054,227.231 195.5,224.5C 199.909,221.633 203.909,218.299 207.5,214.5C 230,193.832 242.667,168.165 245.5,137.5C 246.49,131.355 246.823,125.022 246.5,118.5C 246.763,114.4 246.43,110.4 245.5,106.5C 245.785,103.171 245.118,100.171 243.5,97.5C 243.784,95.5853 243.451,93.9187 242.5,92.5C 242.072,89.2154 241.072,86.2154 239.5,83.5C 239.267,80.4582 238.267,77.7916 236.5,75.5C 236.008,73.1815 235.008,71.1815 233.5,69.5C 232.258,65.3447 230.258,61.678 227.5,58.5C 226.974,56.7697 225.974,55.4363 224.5,54.5C 224.262,52.5956 223.262,51.2623 221.5,50.5C 220.551,48.2228 219.218,46.2228 217.5,44.5C 216.833,43.1667 215.833,42.1667 214.5,41.5C 213.5,39.8333 212.167,38.5 210.5,37.5C 210.167,36.5 209.5,35.8333 208.5,35.5C 203.771,30.4393 198.438,26.106 192.5,22.5C 187.823,18.4905 182.489,15.4905 176.5,13.5C 172.156,10.9346 167.49,8.93457 162.5,7.5C 157.939,5.85907 153.272,4.52574 148.5,3.5C 132.015,-0.387357 115.681,-0.387357 99.5,3.5C 96.4467,3.11066 93.78,3.77733 91.5,5.5C 82.8444,6.93823 74.8444,9.93823 67.5,14.5C 28.0421,35.3858 5.37539,68.0525 -0.5,112.5C -0.5,74.8333 -0.5,37.1667 -0.5,-0.5 Z"/></g>
<g><path style="opacity:1" fill="#c66dff" d="M 116.5,72.5 C 118.527,72.3379 120.527,72.5045 122.5,73C 128.749,78.7442 134.416,84.9109 139.5,91.5C 139.281,92.938 138.781,94.2713 138,95.5C 133.167,100.333 128.333,105.167 123.5,110C 119.338,112.572 116.172,111.738 114,107.5C 113.333,96.8333 113.333,86.1667 114,75.5C 115.045,74.6266 115.878,73.6266 116.5,72.5 Z"/></g>
<g><path style="opacity:1" fill="#e26dff" d="M 192.5,22.5 C 198.438,26.106 203.771,30.4393 208.5,35.5C 207.153,34.8288 205.986,34.8288 205,35.5C 195.764,55.8734 185.764,76.2067 175,96.5C 174.819,93.3054 174.319,90.3054 173.5,87.5C 172.611,81.6108 170.944,75.9442 168.5,70.5C 175.714,54.4033 183.214,38.4033 191,22.5C 191.69,23.7383 192.19,23.7383 192.5,22.5 Z"/></g>
<g><path style="opacity:1" fill="#d56bff" d="M 176.5,13.5 C 182.489,15.4905 187.823,18.4905 192.5,22.5C 192.19,23.7383 191.69,23.7383 191,22.5C 183.214,38.4033 175.714,54.4033 168.5,70.5C 165.571,65.9006 161.904,61.9006 157.5,58.5C 157.489,56.9826 156.823,55.8159 155.5,55C 158.801,51.5706 160.967,47.4039 162,42.5C 165.138,36.57 168.638,30.7367 172.5,25C 172.167,24.6667 171.833,24.3333 171.5,24C 173.751,20.3513 175.417,16.8513 176.5,13.5 Z"/></g>
<g><path style="opacity:1" fill="#c96aff" d="M 162.5,7.5 C 167.49,8.93457 172.156,10.9346 176.5,13.5C 175.417,16.8513 173.751,20.3513 171.5,24C 171.833,24.3333 172.167,24.6667 172.5,25C 168.638,30.7367 165.138,36.57 162,42.5C 160.967,47.4039 158.801,51.5706 155.5,55C 156.823,55.8159 157.489,56.9826 157.5,58.5C 150.99,54.1158 143.99,51.1158 136.5,49.5C 137.873,49.6567 139.207,49.49 140.5,49C 140.167,48.6667 139.833,48.3333 139.5,48C 142.946,42.2261 146.112,36.7261 149,31.5C 151.881,23.42 155.381,16.0867 159.5,9.5C 159.291,8.91395 158.957,8.41395 158.5,8C 160.019,8.33077 161.352,8.1641 162.5,7.5 Z"/></g>
<g><path style="opacity:1" fill="#ba67ff" d="M 148.5,3.5 C 153.272,4.52574 157.939,5.85907 162.5,7.5C 161.352,8.1641 160.019,8.33077 158.5,8C 158.957,8.41395 159.291,8.91395 159.5,9.5C 155.381,16.0867 151.881,23.42 149,31.5C 146.112,36.7261 142.946,42.2261 139.5,48C 139.833,48.3333 140.167,48.6667 140.5,49C 139.207,49.49 137.873,49.6567 136.5,49.5C 132.5,49.5 128.5,49.5 124.5,49.5C 123.737,48.7321 122.737,48.2321 121.5,48C 128.225,33.7526 135.225,19.586 142.5,5.5C 144.631,4.83129 146.631,4.16462 148.5,3.5 Z"/></g>
<g><path style="opacity:1" fill="#ab66ff" d="M 148.5,3.5 C 146.631,4.16462 144.631,4.83129 142.5,5.5C 135.225,19.586 128.225,33.7526 121.5,48C 122.737,48.2321 123.737,48.7321 124.5,49.5C 112.167,49.5 99.8333,49.5 87.5,49.5C 86.0484,48.6981 84.3817,48.1981 82.5,48C 85.1667,47.6667 87.8333,47.3333 90.5,47C 90.5,44.3333 90.5,41.6667 90.5,39C 91.6667,38.5 92.5,37.6667 93,36.5C 95.1293,37.8627 95.6293,37.5294 94.5,35.5C 95.934,33.7801 96.7674,31.7801 97,29.5C 99.1087,28.9647 99.6087,27.9647 98.5,26.5C 100.445,22.2348 103.111,18.5681 106.5,15.5C 105.36,13.9222 104.86,12.2555 105,10.5C 105.837,12.0074 107.004,12.5074 108.5,12C 105.714,9.97856 106.047,8.47856 109.5,7.5C 107.009,6.45928 107.009,5.62595 109.5,5C 103.825,4.53594 103.492,3.86927 108.5,3C 105.493,2.69872 102.493,2.86539 99.5,3.5C 115.681,-0.387357 132.015,-0.387357 148.5,3.5 Z"/></g>
<g><path style="opacity:1" fill="#dd70ff" d="M 131.5,136.5 C 134.652,135.959 137.152,136.959 139,139.5C 139.667,150.5 139.667,161.5 139,172.5C 136.79,175.29 133.956,176.123 130.5,175C 124.079,169.251 118.412,162.917 113.5,156C 118.646,148.689 124.646,142.189 131.5,136.5 Z"/></g>
<g><path style="opacity:1" fill="#f7b69d" d="M 245.5,137.5 C 242.667,168.165 230,193.832 207.5,214.5C 207.209,212.177 207.709,209.844 209,207.5C 221.541,182.76 233.541,158.426 245,134.5C 245.483,135.448 245.649,136.448 245.5,137.5 Z"/></g>
<g><path style="opacity:1" fill="#bf69ff" d="M 77.5,49.5 C 77.5,99.5 77.5,149.5 77.5,199.5C 74.2461,203.146 71.5794,207.313 69.5,212C 69.8333,212.333 70.1667,212.667 70.5,213C 67.3105,218.244 64.3105,223.577 61.5,229C 61.9054,229.945 62.572,230.612 63.5,231C 62.9056,231.464 62.2389,231.631 61.5,231.5C 56.0909,229.136 51.4243,225.802 47.5,221.5C 47.3893,220.883 47.056,220.383 46.5,220C 48.5,217.333 50.5,214.667 52.5,212C 52.1667,211.667 51.8333,211.333 51.5,211C 56.2892,203.653 59.9559,196.153 62.5,188.5C 66.6459,180.208 70.8126,171.875 75,163.5C 75.3333,164.167 75.6667,164.833 76,165.5C 76.4997,157.173 76.6664,148.84 76.5,140.5C 76.5,129.167 76.5,117.833 76.5,106.5C 76.1697,87.326 76.503,68.326 77.5,49.5 Z"/></g>
<g><path style="opacity:1" fill="#ee8ad8" d="M 168.5,190.5 C 169.598,191.601 169.765,192.934 169,194.5C 161.682,209.158 154.349,223.824 147,238.5C 145.1,241.185 145.266,243.519 147.5,245.5C 143.618,246.803 139.618,247.47 135.5,247.5C 137.133,242.234 139.799,237.567 143.5,233.5C 143.112,231.359 143.112,229.359 143.5,227.5C 144.242,226.713 145.075,226.047 146,225.5C 146.761,222.091 148.261,219.091 150.5,216.5C 150.291,215.914 149.957,215.414 149.5,215C 150.833,214 152.167,213 153.5,212C 153.167,211.667 152.833,211.333 152.5,211C 154.552,207.728 156.218,204.228 157.5,200.5C 157.121,198.787 156.121,197.787 154.5,197.5C 159.38,195.727 164.047,193.393 168.5,190.5 Z"/></g>
<g><path style="opacity:1" fill="#ec82e2" d="M 154.5,197.5 C 156.121,197.787 157.121,198.787 157.5,200.5C 156.218,204.228 154.552,207.728 152.5,211C 152.833,211.333 153.167,211.667 153.5,212C 152.167,213 150.833,214 149.5,215C 149.957,215.414 150.291,215.914 150.5,216.5C 148.261,219.091 146.761,222.091 146,225.5C 145.075,226.047 144.242,226.713 143.5,227.5C 143.112,229.359 143.112,231.359 143.5,233.5C 139.799,237.567 137.133,242.234 135.5,247.5C 133.5,247.5 131.5,247.5 129.5,247.5C 128.602,246.842 127.602,246.176 126.5,245.5C 133.169,229.711 140.836,214.544 149.5,200C 148.906,199.536 148.239,199.369 147.5,199.5C 149.657,198.593 151.99,197.927 154.5,197.5 Z"/></g>
<g><path style="opacity:1" fill="#cf6aff" d="M 77.5,199.5 C 84.1667,199.5 90.8333,199.5 97.5,199.5C 93.0672,206.855 88.7339,214.355 84.5,222C 84.8333,222.333 85.1667,222.667 85.5,223C 82.3505,228.291 79.6838,233.791 77.5,239.5C 71.8489,237.341 66.5156,234.674 61.5,231.5C 62.2389,231.631 62.9056,231.464 63.5,231C 62.572,230.612 61.9054,229.945 61.5,229C 64.3105,223.577 67.3105,218.244 70.5,213C 70.1667,212.667 69.8333,212.333 69.5,212C 71.5794,207.313 74.2461,203.146 77.5,199.5 Z"/></g>
<g><path style="opacity:1" fill="#e26dfe" d="M 97.5,199.5 C 109.833,199.5 122.167,199.5 134.5,199.5C 133.469,200.249 132.302,200.915 131,201.5C 123.255,216.321 116.088,231.321 109.5,246.5C 107.167,246.5 104.833,246.5 102.5,246.5C 93.7522,245.564 85.4189,243.23 77.5,239.5C 79.6838,233.791 82.3505,228.291 85.5,223C 85.1667,222.667 84.8333,222.333 84.5,222C 88.7339,214.355 93.0672,206.855 97.5,199.5 Z"/></g>
<g><path style="opacity:1" fill="#ea77f2" d="M 134.5,199.5 C 137.167,199.5 139.833,199.5 142.5,199.5C 135.597,215.06 128.264,230.394 120.5,245.5C 121.729,246.281 123.062,246.781 124.5,247C 120.179,247.499 115.846,247.666 111.5,247.5C 108.287,247.81 105.287,247.477 102.5,246.5C 104.833,246.5 107.167,246.5 109.5,246.5C 116.088,231.321 123.255,216.321 131,201.5C 132.302,200.915 133.469,200.249 134.5,199.5 Z"/></g>
<g><path style="opacity:1" fill="#eb7fea" d="M 142.5,199.5 C 144.167,199.5 145.833,199.5 147.5,199.5C 148.239,199.369 148.906,199.536 149.5,200C 140.836,214.544 133.169,229.711 126.5,245.5C 127.602,246.176 128.602,246.842 129.5,247.5C 123.5,248.833 117.5,248.833 111.5,247.5C 115.846,247.666 120.179,247.499 124.5,247C 123.062,246.781 121.729,246.281 120.5,245.5C 128.264,230.394 135.597,215.06 142.5,199.5 Z"/></g>
</svg>
