<?xml version="1.0" encoding="UTF-8"?>
<!DOCTYPE svg PUBLIC "-//W3C//DTD SVG 1.1//EN" "http://www.w3.org/Graphics/SVG/1.1/DTD/svg11.dtd">
<svg xmlns="http://www.w3.org/2000/svg" version="1.1" width="250px" height="250px" style="shape-rendering:geometricPrecision; text-rendering:geometricPrecision; image-rendering:optimizeQuality; fill-rule:evenodd; clip-rule:evenodd" xmlns:xlink="http://www.w3.org/1999/xlink">
<g><path style="opacity:1" fill="#697ebb" d="M 130.5,5.5 C 127.461,4.99003 124.461,4.32336 121.5,3.5C 122.261,2.60908 123.261,1.94242 124.5,1.5C 126.813,2.50047 128.813,3.83381 130.5,5.5 Z"/></g>
<g><path style="opacity:1" fill="#5a71b5" d="M 121.5,3.5 C 118.499,7.3411 114.499,9.67444 109.5,10.5C 113.164,7.66537 117.164,5.33204 121.5,3.5 Z"/></g>
<g><path style="opacity:1" fill="#2a59d9" d="M 176.5,34.5 C 178.76,36.6503 181.093,38.8169 183.5,41C 186.629,42.3988 189.629,44.0655 192.5,46C 194.134,46.4935 195.801,46.6602 197.5,46.5C 199.214,49.4942 201.88,51.3276 205.5,52C 206.304,53.7713 207.471,55.2713 209,56.5C 211.818,56.3149 214.318,57.4816 216.5,60C 219.923,59.8551 221.923,61.3551 222.5,64.5C 224.144,64.2865 225.644,64.6198 227,65.5C 227.667,104.167 227.667,142.833 227,181.5C 226.52,183.133 225.687,184.466 224.5,185.5C 223.074,186.341 221.74,187.341 220.5,188.5C 218.323,188.586 216.323,189.253 214.5,190.5C 206.516,195.829 198.182,200.662 189.5,205C 188.177,205.816 187.511,206.983 187.5,208.5C 185.847,208.66 184.514,209.326 183.5,210.5C 180.873,211.092 178.206,211.425 175.5,211.5C 175.5,212.5 175.5,213.5 175.5,214.5C 171.03,214.735 167.363,216.568 164.5,220C 160.884,221.487 157.217,222.82 153.5,224C 150.815,227.683 147.482,230.683 143.5,233C 138.124,236.019 132.791,239.019 127.5,242C 122.242,241.713 117.576,239.713 113.5,236C 111.091,234.293 108.425,233.46 105.5,233.5C 100.849,230.957 96.1821,228.29 91.5,225.5C 91.5,224.5 91.5,223.5 91.5,222.5C 88.626,221.156 85.626,219.99 82.5,219C 77.7508,215.124 72.4175,212.624 66.5,211.5C 62.0389,208.934 57.3722,206.934 52.5,205.5C 51.7888,203.97 50.7888,202.637 49.5,201.5C 49.5858,200.504 49.2524,199.671 48.5,199C 45.9718,198.486 43.8051,197.32 42,195.5C 41.3828,194.551 41.5494,193.718 42.5,193C 41.0654,193.311 39.7321,193.145 38.5,192.5C 37.6143,191.675 37.281,190.675 37.5,189.5C 33.2784,188.363 28.9451,187.363 24.5,186.5C 24.7163,184.319 23.883,182.653 22,181.5C 21.8326,143.998 21.3326,106.664 20.5,69.5C 20.5,67.5 20.5,65.5 20.5,63.5C 21.8734,63.6567 23.2068,63.49 24.5,63C 32.2745,58.6256 40.2745,54.6256 48.5,51C 50.4388,49.5679 51.7721,47.7346 52.5,45.5C 52.5,44.8333 52.5,44.1667 52.5,43.5C 56.8429,43.0026 60.1763,41.0026 62.5,37.5C 66.0476,37.0507 69.381,36.0507 72.5,34.5C 79.5234,30.3269 86.8568,26.8269 94.5,24C 95.3862,22.3853 96.3862,20.8853 97.5,19.5C 99.6626,17.9172 101.996,16.5839 104.5,15.5C 110.268,12.9602 115.935,10.1268 121.5,7C 123.833,6.33333 126.167,6.33333 128.5,7C 132.573,12.0381 137.906,15.0381 144.5,16C 145.167,17 145.833,18 146.5,19C 150.8,21.9835 155.466,24.1502 160.5,25.5C 160.48,27.143 161.147,28.4763 162.5,29.5C 167.382,30.6099 172.049,32.2766 176.5,34.5 Z M 129.5,56.5 C 130.659,58.2503 132.326,59.2503 134.5,59.5C 143.5,65.3357 152.833,70.6691 162.5,75.5C 165.976,78.6232 169.976,80.9565 174.5,82.5C 177.494,84.9998 180.827,86.9998 184.5,88.5C 185.656,112.094 185.822,135.761 185,159.5C 178.328,163.363 171.828,167.363 165.5,171.5C 159.332,174.08 153.665,177.414 148.5,181.5C 146.326,181.75 144.659,182.75 143.5,184.5C 140.669,185.079 138.336,186.412 136.5,188.5C 132.167,190.5 127.833,192.5 123.5,194.5C 123.167,194.5 122.833,194.5 122.5,194.5C 120.206,192.347 117.54,190.68 114.5,189.5C 114.158,188.662 113.492,188.328 112.5,188.5C 106.43,184.442 100.097,180.775 93.5,177.5C 92.4863,176.326 91.153,175.66 89.5,175.5C 84.4551,171.805 79.1218,168.472 73.5,165.5C 73.1667,165.5 72.8333,165.5 72.5,165.5C 71.1007,164.11 69.4341,163.11 67.5,162.5C 66.7095,161.599 65.7095,160.932 64.5,160.5C 63.1667,136.5 63.1667,112.5 64.5,88.5C 67.5396,87.3197 70.2063,85.653 72.5,83.5C 76.8362,81.668 80.8362,79.3346 84.5,76.5C 90.8302,73.6704 96.8302,70.337 102.5,66.5C 106.535,64.1517 110.535,61.8184 114.5,59.5C 117.735,57.966 120.901,56.2994 124,54.5C 125.8,55.3195 127.634,55.9862 129.5,56.5 Z"/></g>
<g><path style="opacity:1" fill="#6c81be" d="M 131.5,5.5 C 137.206,8.34682 142.539,11.6802 147.5,15.5C 142.645,14.4733 138.311,12.4733 134.5,9.5C 133.066,8.41159 132.066,7.07826 131.5,5.5 Z"/></g>
<g><path style="opacity:1" fill="#315ac7" d="M 121.5,3.5 C 124.461,4.32336 127.461,4.99003 130.5,5.5C 130.833,5.5 131.167,5.5 131.5,5.5C 132.066,7.07826 133.066,8.41159 134.5,9.5C 138.311,12.4733 142.645,14.4733 147.5,15.5C 148.985,18.0827 151.318,19.416 154.5,19.5C 155.066,21.0783 156.066,22.4116 157.5,23.5C 164.028,26.9272 170.361,30.5939 176.5,34.5C 172.049,32.2766 167.382,30.6099 162.5,29.5C 161.147,28.4763 160.48,27.143 160.5,25.5C 155.466,24.1502 150.8,21.9835 146.5,19C 145.833,18 145.167,17 144.5,16C 137.906,15.0381 132.573,12.0381 128.5,7C 126.167,6.33333 123.833,6.33333 121.5,7C 115.935,10.1268 110.268,12.9602 104.5,15.5C 104.5,14.8333 104.5,14.1667 104.5,13.5C 106.848,13.4077 108.514,12.4077 109.5,10.5C 114.499,9.67444 118.499,7.3411 121.5,3.5 Z"/></g>
<g><path style="opacity:1" fill="#637ab7" d="M 109.5,10.5 C 108.514,12.4077 106.848,13.4077 104.5,13.5C 105.659,11.7497 107.326,10.7497 109.5,10.5 Z"/></g>
<g><path style="opacity:1" fill="#627ab8" d="M 147.5,15.5 C 150.331,16.0787 152.664,17.412 154.5,19.5C 151.318,19.416 148.985,18.0827 147.5,15.5 Z"/></g>
<g><path style="opacity:1" fill="#566eb7" d="M 104.5,13.5 C 104.5,14.1667 104.5,14.8333 104.5,15.5C 101.996,16.5839 99.6626,17.9172 97.5,19.5C 96.1667,19.5 94.8333,19.5 93.5,19.5C 96.678,16.7417 100.345,14.7417 104.5,13.5 Z"/></g>
<g><path style="opacity:1" fill="#5974b6" d="M 93.5,19.5 C 92.2642,22.6213 89.9308,23.9546 86.5,23.5C 88.6626,21.9172 90.9959,20.5839 93.5,19.5 Z"/></g>
<g><path style="opacity:1" fill="#5f76bb" d="M 154.5,19.5 C 165.998,25.0786 176.998,31.412 187.5,38.5C 183.931,36.8815 180.264,35.5481 176.5,34.5C 170.361,30.5939 164.028,26.9272 157.5,23.5C 156.066,22.4116 155.066,21.0783 154.5,19.5 Z"/></g>
<g><path style="opacity:1" fill="#5972b7" d="M 86.5,23.5 C 83.4117,27.0645 79.5784,29.7312 75,31.5C 73.6898,32.1301 72.8565,33.1301 72.5,34.5C 69.381,36.0507 66.0476,37.0507 62.5,37.5C 70.1639,32.332 78.1639,27.6653 86.5,23.5 Z"/></g>
<g><path style="opacity:1" fill="#3159c6" d="M 93.5,19.5 C 94.8333,19.5 96.1667,19.5 97.5,19.5C 96.3862,20.8853 95.3862,22.3853 94.5,24C 86.8568,26.8269 79.5234,30.3269 72.5,34.5C 72.8565,33.1301 73.6898,32.1301 75,31.5C 79.5784,29.7312 83.4117,27.0645 86.5,23.5C 89.9308,23.9546 92.2642,22.6213 93.5,19.5 Z"/></g>
<g><path style="opacity:1" fill="#566eb4" d="M 62.5,37.5 C 60.1763,41.0026 56.8429,43.0026 52.5,43.5C 55.4937,41.0002 58.827,39.0002 62.5,37.5 Z"/></g>
<g><path style="opacity:1" fill="#3059c9" d="M 176.5,34.5 C 180.264,35.5481 183.931,36.8815 187.5,38.5C 187.414,39.4959 187.748,40.3292 188.5,41C 191.022,42.3409 193.689,43.1743 196.5,43.5C 197.11,44.391 197.443,45.391 197.5,46.5C 195.801,46.6602 194.134,46.4935 192.5,46C 189.629,44.0655 186.629,42.3988 183.5,41C 181.093,38.8169 178.76,36.6503 176.5,34.5 Z"/></g>
<g><path style="opacity:1" fill="#5e75b9" d="M 187.5,38.5 C 190.76,39.7738 193.76,41.4405 196.5,43.5C 193.689,43.1743 191.022,42.3409 188.5,41C 187.748,40.3292 187.414,39.4959 187.5,38.5 Z"/></g>
<g><path style="opacity:1" fill="#7084c6" d="M 196.5,43.5 C 198.027,43.427 199.027,44.0937 199.5,45.5C 198.833,45.8333 198.167,46.1667 197.5,46.5C 197.443,45.391 197.11,44.391 196.5,43.5 Z"/></g>
<g><path style="opacity:1" fill="#6078bb" d="M 199.5,45.5 C 206.332,48.4124 212.666,52.0791 218.5,56.5C 212.097,54.4647 206.097,51.6314 200.5,48C 199.748,47.3292 199.414,46.4959 199.5,45.5 Z"/></g>
<g><path style="opacity:1" fill="#5871b5" d="M 52.5,43.5 C 52.5,44.1667 52.5,44.8333 52.5,45.5C 49.1621,47.6659 45.4954,48.9993 41.5,49.5C 44.678,46.7417 48.3447,44.7417 52.5,43.5 Z"/></g>
<g><path style="opacity:1" fill="#305ac8" d="M 52.5,45.5 C 51.7721,47.7346 50.4388,49.5679 48.5,51C 40.2745,54.6256 32.2745,58.6256 24.5,63C 23.2068,63.49 21.8734,63.6567 20.5,63.5C 20.5,63.1667 20.5,62.8333 20.5,62.5C 22.4553,62.2014 23.7886,61.2014 24.5,59.5C 31.3416,57.9216 37.0082,54.5883 41.5,49.5C 45.4954,48.9993 49.1621,47.6659 52.5,45.5 Z"/></g>
<g><path style="opacity:1" fill="#5a73b6" d="M 41.5,49.5 C 37.0082,54.5883 31.3416,57.9216 24.5,59.5C 29.9942,55.9179 35.6608,52.5845 41.5,49.5 Z"/></g>
<g><path style="opacity:1" fill="#566fba" d="M 129.5,56.5 C 127.634,55.9862 125.8,55.3195 124,54.5C 120.901,56.2994 117.735,57.966 114.5,59.5C 114.5,58.5 114.5,57.5 114.5,56.5C 117.084,56.4312 119.084,55.2645 120.5,53C 123.531,52.5046 126.531,52.6713 129.5,53.5C 129.5,54.5 129.5,55.5 129.5,56.5 Z"/></g>
<g><path style="opacity:1" fill="#5f77bd" d="M 129.5,56.5 C 132.285,55.9162 133.952,56.9162 134.5,59.5C 132.326,59.2503 130.659,58.2503 129.5,56.5 Z"/></g>
<g><path style="opacity:1" fill="#5e75ba" d="M 114.5,59.5 C 110.535,61.8184 106.535,64.1517 102.5,66.5C 102.5,65.5 102.5,64.5 102.5,63.5C 104.553,63.5979 106.22,62.9313 107.5,61.5C 109.515,60.0762 111.848,59.4095 114.5,59.5 Z"/></g>
<g><path style="opacity:1" fill="#687eba" d="M 24.5,59.5 C 23.7886,61.2014 22.4553,62.2014 20.5,62.5C 20.1667,62.5 19.8333,62.5 19.5,62.5C 20.6594,60.7497 22.326,59.7497 24.5,59.5 Z"/></g>
<g><path style="opacity:1" fill="#304ea3" d="M 18.5,62.5 C 18.8333,62.5 19.1667,62.5 19.5,62.5C 19.8333,62.5 20.1667,62.5 20.5,62.5C 20.5,62.8333 20.5,63.1667 20.5,63.5C 19.1706,104.069 19.1706,144.736 20.5,185.5C 18.5056,144.847 17.839,103.847 18.5,62.5 Z"/></g>
<g><path style="opacity:1" fill="#305acc" d="M 199.5,45.5 C 199.414,46.4959 199.748,47.3292 200.5,48C 206.097,51.6314 212.097,54.4647 218.5,56.5C 221.504,59.6573 224.837,62.3239 228.5,64.5C 228.816,104.864 228.483,145.197 227.5,185.5C 226.5,185.5 225.5,185.5 224.5,185.5C 225.687,184.466 226.52,183.133 227,181.5C 227.667,142.833 227.667,104.167 227,65.5C 225.644,64.6198 224.144,64.2865 222.5,64.5C 221.923,61.3551 219.923,59.8551 216.5,60C 214.318,57.4816 211.818,56.3149 209,56.5C 207.471,55.2713 206.304,53.7713 205.5,52C 201.88,51.3276 199.214,49.4942 197.5,46.5C 198.167,46.1667 198.833,45.8333 199.5,45.5 Z"/></g>
<g><path style="opacity:1" fill="#355aba" d="M 228.5,64.5 C 229.499,104.997 229.832,145.663 229.5,186.5C 227.011,186.241 225.344,187.241 224.5,189.5C 223.167,189.5 221.833,189.5 220.5,189.5C 220.5,189.167 220.5,188.833 220.5,188.5C 221.74,187.341 223.074,186.341 224.5,185.5C 225.5,185.5 226.5,185.5 227.5,185.5C 228.483,145.197 228.816,104.864 228.5,64.5 Z"/></g>
<g><path style="opacity:1" fill="#5972b7" d="M 134.5,59.5 C 139.089,60.5531 143.422,62.3865 147.5,65C 151.241,67.7323 155.241,70.0657 159.5,72C 161.063,72.7589 162.063,73.9256 162.5,75.5C 152.833,70.6691 143.5,65.3357 134.5,59.5 Z"/></g>
<g><path style="opacity:1" fill="#2d5ad0" d="M 20.5,69.5 C 21.3326,106.664 21.8326,143.998 22,181.5C 23.883,182.653 24.7163,184.319 24.5,186.5C 28.9451,187.363 33.2784,188.363 37.5,189.5C 37.281,190.675 37.6143,191.675 38.5,192.5C 39.7321,193.145 41.0654,193.311 42.5,193C 41.5494,193.718 41.3828,194.551 42,195.5C 43.8051,197.32 45.9718,198.486 48.5,199C 49.2524,199.671 49.5858,200.504 49.5,201.5C 48.1667,201.5 46.8333,201.5 45.5,201.5C 43.2802,198.713 40.6136,196.38 37.5,194.5C 36.4324,193.566 35.099,193.232 33.5,193.5C 33.5,192.5 33.5,191.5 33.5,190.5C 31.8333,190.5 30.1667,190.5 28.5,190.5C 26.5368,189.18 24.5368,187.846 22.5,186.5C 22.0133,185.527 21.5133,184.527 21,183.5C 20.5,145.501 20.3333,107.501 20.5,69.5 Z"/></g>
<g><path style="opacity:1" fill="#305aca" d="M 107.5,61.5 C 106.22,62.9313 104.553,63.5979 102.5,63.5C 102.5,64.5 102.5,65.5 102.5,66.5C 94.9371,67.2757 88.9371,70.6091 84.5,76.5C 81.6726,76.5838 79.006,77.2504 76.5,78.5C 85.3983,70.5442 95.7317,64.8775 107.5,61.5 Z"/></g>
<g><path style="opacity:1" fill="#5c73b8" d="M 102.5,66.5 C 96.8302,70.337 90.8302,73.6704 84.5,76.5C 88.9371,70.6091 94.9371,67.2757 102.5,66.5 Z"/></g>
<g><path style="opacity:1" fill="#345cc7" d="M 20.5,63.5 C 20.5,65.5 20.5,67.5 20.5,69.5C 20.3333,107.501 20.5,145.501 21,183.5C 21.5133,184.527 22.0133,185.527 22.5,186.5C 21.5084,186.672 20.8417,186.338 20.5,185.5C 19.1706,144.736 19.1706,104.069 20.5,63.5 Z"/></g>
<g><path style="opacity:1" fill="#5e76b9" d="M 162.5,75.5 C 167.465,76.3111 171.465,78.6444 174.5,82.5C 169.976,80.9565 165.976,78.6232 162.5,75.5 Z"/></g>
<g><path style="opacity:1" fill="#5a71b7" d="M 84.5,76.5 C 80.8362,79.3346 76.8362,81.668 72.5,83.5C 73.3696,81.7263 74.703,80.393 76.5,79.5C 76.5,79.1667 76.5,78.8333 76.5,78.5C 79.006,77.2504 81.6726,76.5838 84.5,76.5 Z"/></g>
<g><path style="opacity:1" fill="#7186bd" d="M 218.5,56.5 C 223.178,57.9222 227.345,60.2556 231,63.5C 231.667,104.167 231.667,144.833 231,185.5C 230.617,186.056 230.117,186.389 229.5,186.5C 229.832,145.663 229.499,104.997 228.5,64.5C 224.837,62.3239 221.504,59.6573 218.5,56.5 Z"/></g>
<g><path style="opacity:1" fill="#6077ba" d="M 174.5,82.5 C 177.918,82.9243 180.918,84.2576 183.5,86.5C 183.833,87.1667 184.167,87.8333 184.5,88.5C 180.827,86.9998 177.494,84.9998 174.5,82.5 Z"/></g>
<g><path style="opacity:1" fill="#5b74b6" d="M 72.5,83.5 C 70.2063,85.653 67.5396,87.3197 64.5,88.5C 64.1667,88.5 63.8333,88.5 63.5,88.5C 63.5,88.1667 63.5,87.8333 63.5,87.5C 66.0819,85.2576 69.0819,83.9243 72.5,83.5 Z"/></g>
<g><path style="opacity:1" fill="#2d5acf" d="M 76.5,79.5 C 74.703,80.393 73.3696,81.7263 72.5,83.5C 69.0819,83.9243 66.0819,85.2576 63.5,87.5C 62.1667,87.5 61.5,88.1667 61.5,89.5C 60.5025,112.327 60.1692,135.327 60.5,158.5C 59.3369,135.337 59.1703,112.004 60,88.5C 64.1483,83.2195 69.6483,80.2195 76.5,79.5 Z"/></g>
<g><path style="opacity:1" fill="#355cc3" d="M 61.5,89.5 C 61.1691,113.339 61.5024,137.006 62.5,160.5C 63.1667,160.5 63.8333,160.5 64.5,160.5C 65.7095,160.932 66.7095,161.599 67.5,162.5C 68.1098,163.391 68.4431,164.391 68.5,165.5C 66.1932,164.347 63.8599,163.18 61.5,162C 60.6634,160.989 60.33,159.822 60.5,158.5C 60.1692,135.327 60.5025,112.327 61.5,89.5 Z"/></g>
<g><path style="opacity:1" fill="#2e50a2" d="M 63.5,87.5 C 63.5,87.8333 63.5,88.1667 63.5,88.5C 62.5024,112.328 62.1691,136.328 62.5,160.5C 61.5024,137.006 61.1691,113.339 61.5,89.5C 61.5,88.1667 62.1667,87.5 63.5,87.5 Z"/></g>
<g><path style="opacity:1" fill="#9fb6ea" d="M 63.5,88.5 C 63.8333,88.5 64.1667,88.5 64.5,88.5C 63.1667,112.5 63.1667,136.5 64.5,160.5C 63.8333,160.5 63.1667,160.5 62.5,160.5C 62.1691,136.328 62.5024,112.328 63.5,88.5 Z"/></g>
<g><path style="opacity:1" fill="#536eae" d="M 184.5,88.5 C 186.49,111.476 187.157,134.809 186.5,158.5C 186.5,159.167 186.5,159.833 186.5,160.5C 183.666,162.75 180.666,164.916 177.5,167C 173.482,168.615 169.482,170.115 165.5,171.5C 171.828,167.363 178.328,163.363 185,159.5C 185.822,135.761 185.656,112.094 184.5,88.5 Z"/></g>
<g><path style="opacity:1" fill="#2f5ac7" d="M 187.5,88.5 C 188.663,111.996 188.83,135.663 188,159.5C 187.617,160.056 187.117,160.389 186.5,160.5C 186.5,159.833 186.5,159.167 186.5,158.5C 187.498,135.339 187.831,112.006 187.5,88.5 Z"/></g>
<g><path style="opacity:1" fill="#3257b0" d="M 183.5,86.5 C 185.153,86.6596 186.486,87.3263 187.5,88.5C 187.831,112.006 187.498,135.339 186.5,158.5C 187.157,134.809 186.49,111.476 184.5,88.5C 184.167,87.8333 183.833,87.1667 183.5,86.5 Z"/></g>
<g><path style="opacity:1" fill="#7087c5" d="M 67.5,162.5 C 69.4341,163.11 71.1007,164.11 72.5,165.5C 71.5,165.5 70.5,165.5 69.5,165.5C 69.1667,165.5 68.8333,165.5 68.5,165.5C 68.4431,164.391 68.1098,163.391 67.5,162.5 Z"/></g>
<g><path style="opacity:1" fill="#395dc1" d="M 69.5,165.5 C 70.5,165.5 71.5,165.5 72.5,165.5C 72.8333,165.5 73.1667,165.5 73.5,165.5C 73.281,166.675 73.6143,167.675 74.5,168.5C 79.1712,171.671 84.1712,174.004 89.5,175.5C 91.153,175.66 92.4863,176.326 93.5,177.5C 93.8333,178.167 94.1667,178.833 94.5,179.5C 87.483,177.03 80.6497,174.03 74,170.5C 72.3157,168.983 70.8157,167.317 69.5,165.5 Z"/></g>
<g><path style="opacity:1" fill="#5b73b6" d="M 73.5,165.5 C 79.1218,168.472 84.4551,171.805 89.5,175.5C 84.1712,174.004 79.1712,171.671 74.5,168.5C 73.6143,167.675 73.281,166.675 73.5,165.5 Z"/></g>
<g><path style="opacity:1" fill="#5a71b6" d="M 165.5,171.5 C 163.378,174.633 160.711,176.967 157.5,178.5C 154.574,179.698 151.574,180.698 148.5,181.5C 153.665,177.414 159.332,174.08 165.5,171.5 Z"/></g>
<g><path style="opacity:1" fill="#637abb" d="M 93.5,177.5 C 100.097,180.775 106.43,184.442 112.5,188.5C 108.367,187.231 104.367,185.564 100.5,183.5C 98.322,182.343 96.322,181.01 94.5,179.5C 94.1667,178.833 93.8333,178.167 93.5,177.5 Z"/></g>
<g><path style="opacity:1" fill="#617ab7" d="M 148.5,181.5 C 147.514,183.408 145.848,184.408 143.5,184.5C 144.659,182.75 146.326,181.75 148.5,181.5 Z"/></g>
<g><path style="opacity:1" fill="#788dc6" d="M 229.5,186.5 C 228.101,187.89 226.434,188.89 224.5,189.5C 225.344,187.241 227.011,186.241 229.5,186.5 Z"/></g>
<g><path style="opacity:1" fill="#6d84c3" d="M 18.5,62.5 C 17.839,103.847 18.5056,144.847 20.5,185.5C 20.8417,186.338 21.5084,186.672 22.5,186.5C 24.5368,187.846 26.5368,189.18 28.5,190.5C 28.8333,191.167 29.1667,191.833 29.5,192.5C 25.7274,190.779 22.0608,188.779 18.5,186.5C 17.1693,145.002 17.1693,103.669 18.5,62.5 Z"/></g>
<g><path style="opacity:1" fill="#3e5ebb" d="M 28.5,190.5 C 30.1667,190.5 31.8333,190.5 33.5,190.5C 33.5,191.5 33.5,192.5 33.5,193.5C 35.099,193.232 36.4324,193.566 37.5,194.5C 36.1667,194.5 34.8333,194.5 33.5,194.5C 31.847,194.34 30.5137,193.674 29.5,192.5C 29.1667,191.833 28.8333,191.167 28.5,190.5 Z"/></g>
<g><path style="opacity:1" fill="#5a72b8" d="M 33.5,194.5 C 34.8333,194.5 36.1667,194.5 37.5,194.5C 40.6136,196.38 43.2802,198.713 45.5,201.5C 40.9758,199.957 36.9758,197.623 33.5,194.5 Z"/></g>
<g><path style="opacity:1" fill="#345bc9" d="M 157.5,178.5 C 155.647,180.446 153.314,181.946 150.5,183C 149.773,184.399 149.273,185.899 149,187.5C 148.667,187.167 148.333,186.833 148,186.5C 147.409,189.145 146.075,189.811 144,188.5C 140.523,189.158 137.69,190.824 135.5,193.5C 131.819,195.257 127.986,196.59 124,197.5C 118.956,196.73 114.789,194.564 111.5,191C 107.064,189.359 103.397,186.859 100.5,183.5C 104.367,185.564 108.367,187.231 112.5,188.5C 113.492,188.328 114.158,188.662 114.5,189.5C 114.414,190.496 114.748,191.329 115.5,192C 117.854,192.847 120.188,193.68 122.5,194.5C 122.833,194.5 123.167,194.5 123.5,194.5C 124.601,195.598 125.934,195.765 127.5,195C 131.344,193.768 134.344,191.602 136.5,188.5C 139.857,188.784 142.191,187.451 143.5,184.5C 145.848,184.408 147.514,183.408 148.5,181.5C 151.574,180.698 154.574,179.698 157.5,178.5 Z"/></g>
<g><path style="opacity:1" fill="#556fb6" d="M 136.5,188.5 C 134.344,191.602 131.344,193.768 127.5,195C 125.934,195.765 124.601,195.598 123.5,194.5C 127.833,192.5 132.167,190.5 136.5,188.5 Z"/></g>
<g><path style="opacity:1" fill="#6e83bf" d="M 114.5,189.5 C 117.54,190.68 120.206,192.347 122.5,194.5C 120.188,193.68 117.854,192.847 115.5,192C 114.748,191.329 114.414,190.496 114.5,189.5 Z"/></g>
<g><path style="opacity:1" fill="#4e68b3" d="M 143.5,184.5 C 142.191,187.451 139.857,188.784 136.5,188.5C 138.336,186.412 140.669,185.079 143.5,184.5 Z"/></g>
<g><path style="opacity:1" fill="#5d75bb" d="M 220.5,189.5 C 221.833,189.5 223.167,189.5 224.5,189.5C 214.833,195.669 204.833,201.336 194.5,206.5C 194.5,205.5 194.5,204.5 194.5,203.5C 195.873,203.657 197.207,203.49 198.5,203C 205.753,198.221 213.086,193.721 220.5,189.5 Z"/></g>
<g><path style="opacity:1" fill="#2f59c9" d="M 220.5,188.5 C 220.5,188.833 220.5,189.167 220.5,189.5C 213.086,193.721 205.753,198.221 198.5,203C 197.207,203.49 195.873,203.657 194.5,203.5C 194.5,204.5 194.5,205.5 194.5,206.5C 192.071,206.884 189.737,207.551 187.5,208.5C 187.511,206.983 188.177,205.816 189.5,205C 198.182,200.662 206.516,195.829 214.5,190.5C 216.323,189.253 218.323,188.586 220.5,188.5 Z"/></g>
<g><path style="opacity:1" fill="#6078b9" d="M 45.5,201.5 C 46.8333,201.5 48.1667,201.5 49.5,201.5C 50.7888,202.637 51.7888,203.97 52.5,205.5C 49.6689,204.921 47.3356,203.588 45.5,201.5 Z"/></g>
<g><path style="opacity:1" fill="#5b73b8" d="M 52.5,205.5 C 57.3722,206.934 62.0389,208.934 66.5,211.5C 69.464,212.808 71.7974,214.808 73.5,217.5C 66.0035,214.255 59.0035,210.255 52.5,205.5 Z"/></g>
<g><path style="opacity:1" fill="#3059cb" d="M 66.5,211.5 C 72.4175,212.624 77.7508,215.124 82.5,219C 85.626,219.99 88.626,221.156 91.5,222.5C 91.5,223.5 91.5,224.5 91.5,225.5C 90.8333,225.5 90.1667,225.5 89.5,225.5C 86.9181,223.258 83.9181,221.924 80.5,221.5C 80.6162,218.09 78.9496,216.756 75.5,217.5C 74.8333,217.5 74.1667,217.5 73.5,217.5C 71.7974,214.808 69.464,212.808 66.5,211.5 Z"/></g>
<g><path style="opacity:1" fill="#5971ba" d="M 194.5,206.5 C 186.836,211.668 178.836,216.335 170.5,220.5C 170.721,219.265 171.388,218.265 172.5,217.5C 176.401,215.392 180.067,213.059 183.5,210.5C 184.514,209.326 185.847,208.66 187.5,208.5C 189.737,207.551 192.071,206.884 194.5,206.5 Z"/></g>
<g><path style="opacity:1" fill="#8ca2d3" d="M 73.5,217.5 C 74.1667,217.5 74.8333,217.5 75.5,217.5C 75.8333,218.167 76.1667,218.833 76.5,219.5C 74.9731,219.573 73.9731,218.906 73.5,217.5 Z"/></g>
<g><path style="opacity:1" fill="#4462b9" d="M 75.5,217.5 C 78.9496,216.756 80.6162,218.09 80.5,221.5C 78.847,221.34 77.5137,220.674 76.5,219.5C 76.1667,218.833 75.8333,218.167 75.5,217.5 Z"/></g>
<g><path style="opacity:1" fill="#617aba" d="M 170.5,220.5 C 167.124,223.194 163.457,225.527 159.5,227.5C 159.5,226.5 159.5,225.5 159.5,224.5C 163.045,222.763 166.712,221.43 170.5,220.5 Z"/></g>
<g><path style="opacity:1" fill="#6177b9" d="M 80.5,221.5 C 83.9181,221.924 86.9181,223.258 89.5,225.5C 89.8333,226.167 90.1667,226.833 90.5,227.5C 86.827,226 83.4937,224 80.5,221.5 Z"/></g>
<g><path style="opacity:1" fill="#4361b6" d="M 89.5,225.5 C 90.1667,225.5 90.8333,225.5 91.5,225.5C 96.1821,228.29 100.849,230.957 105.5,233.5C 106.789,234.637 107.789,235.97 108.5,237.5C 106.847,237.34 105.514,236.674 104.5,235.5C 104.027,234.094 103.027,233.427 101.5,233.5C 99.847,233.34 98.5137,232.674 97.5,231.5C 97.0269,230.094 96.0269,229.427 94.5,229.5C 92.847,229.34 91.5137,228.674 90.5,227.5C 90.1667,226.833 89.8333,226.167 89.5,225.5 Z"/></g>
<g><path style="opacity:1" fill="#647bb9" d="M 158.5,227.5 C 157.341,229.25 155.674,230.25 153.5,230.5C 154.048,227.916 155.715,226.916 158.5,227.5 Z"/></g>
<g><path style="opacity:1" fill="#859ccd" d="M 94.5,229.5 C 96.0269,229.427 97.0269,230.094 97.5,231.5C 95.9731,231.573 94.9731,230.906 94.5,229.5 Z"/></g>
<g><path style="opacity:1" fill="#6279b9" d="M 153.5,230.5 C 152.101,231.89 150.434,232.89 148.5,233.5C 149.048,230.916 150.715,229.916 153.5,230.5 Z"/></g>
<g><path style="opacity:1" fill="#889dce" d="M 101.5,233.5 C 103.027,233.427 104.027,234.094 104.5,235.5C 102.973,235.573 101.973,234.906 101.5,233.5 Z"/></g>
<g><path style="opacity:1" fill="#6a81bb" d="M 148.5,233.5 C 147.101,234.89 145.434,235.89 143.5,236.5C 144.048,233.916 145.715,232.916 148.5,233.5 Z"/></g>
<g><path style="opacity:1" fill="#315aca" d="M 183.5,210.5 C 180.067,213.059 176.401,215.392 172.5,217.5C 171.388,218.265 170.721,219.265 170.5,220.5C 166.712,221.43 163.045,222.763 159.5,224.5C 159.5,225.5 159.5,226.5 159.5,227.5C 159.167,227.5 158.833,227.5 158.5,227.5C 155.715,226.916 154.048,227.916 153.5,230.5C 150.715,229.916 149.048,230.916 148.5,233.5C 145.715,232.916 144.048,233.916 143.5,236.5C 142.486,237.674 141.153,238.34 139.5,238.5C 136.715,237.916 135.048,238.916 134.5,241.5C 131.36,242.471 128.193,243.471 125,244.5C 120.657,242.745 116.491,240.578 112.5,238C 111.207,237.51 109.873,237.343 108.5,237.5C 107.789,235.97 106.789,234.637 105.5,233.5C 108.425,233.46 111.091,234.293 113.5,236C 117.576,239.713 122.242,241.713 127.5,242C 132.791,239.019 138.124,236.019 143.5,233C 147.482,230.683 150.815,227.683 153.5,224C 157.217,222.82 160.884,221.487 164.5,220C 167.363,216.568 171.03,214.735 175.5,214.5C 175.5,213.5 175.5,212.5 175.5,211.5C 178.206,211.425 180.873,211.092 183.5,210.5 Z"/></g>
<g><path style="opacity:1" fill="#637ab7" d="M 139.5,238.5 C 138.341,240.25 136.674,241.25 134.5,241.5C 135.048,238.916 136.715,237.916 139.5,238.5 Z"/></g>
<g><path style="opacity:1" fill="#5c72b6" d="M 108.5,237.5 C 109.873,237.343 111.207,237.51 112.5,238C 116.491,240.578 120.657,242.745 125,244.5C 128.193,243.471 131.36,242.471 134.5,241.5C 131.562,243.977 128.229,245.977 124.5,247.5C 118.861,244.501 113.527,241.168 108.5,237.5 Z"/></g>
</svg>
