<?xml version="1.0" encoding="UTF-8"?>
<!DOCTYPE svg PUBLIC "-//W3C//DTD SVG 1.1//EN" "http://www.w3.org/Graphics/SVG/1.1/DTD/svg11.dtd">
<svg xmlns="http://www.w3.org/2000/svg" version="1.1" width="250px" height="250px" style="shape-rendering:geometricPrecision; text-rendering:geometricPrecision; image-rendering:optimizeQuality; fill-rule:evenodd; clip-rule:evenodd" xmlns:xlink="http://www.w3.org/1999/xlink">
<g><path style="opacity:1" fill="#fbfbfb" d="M -0.5,-0.5 C 82.8333,-0.5 166.167,-0.5 249.5,-0.5C 249.5,82.8333 249.5,166.167 249.5,249.5C 166.167,249.5 82.8333,249.5 -0.5,249.5C -0.5,166.167 -0.5,82.8333 -0.5,-0.5 Z"/></g>
<g><path style="opacity:1" fill="#818181" d="M 108.5,12.5 C 111.976,11.3567 115.642,11.1901 119.5,12C 120.056,12.3826 120.389,12.8826 120.5,13.5C 116.566,12.6403 112.566,12.307 108.5,12.5 Z"/></g>
<g><path style="opacity:1" fill="#101010" d="M 108.5,12.5 C 112.566,12.307 116.566,12.6403 120.5,13.5C 122.901,14.7458 124.401,16.7458 125,19.5C 127.674,36.0038 121.174,42.0038 105.5,37.5C 101.458,33.0034 99.7917,27.6701 100.5,21.5C 101.109,16.6839 103.775,13.6839 108.5,12.5 Z"/></g>
<g><path style="opacity:1" fill="#0d0d0d" d="M 137.5,12.5 C 151.906,11.7438 157.406,18.4104 154,32.5C 150.122,39.2478 144.288,41.4145 136.5,39C 134.024,37.5704 131.858,35.737 130,33.5C 129.161,28.0788 129.494,22.7455 131,17.5C 132.805,15.1743 134.972,13.5077 137.5,12.5 Z"/></g>
<g><path style="opacity:1" fill="#0f0f0f" d="M 96.5,19.5 C 98.204,26.3295 100.204,32.9962 102.5,39.5C 102.218,40.7777 101.551,41.7777 100.5,42.5C 99.0536,43.6129 97.3869,43.7796 95.5,43C 92.0245,40.1968 88.5245,37.3635 85,34.5C 85.1315,38.0514 85.9648,41.3847 87.5,44.5C 87.2178,45.7777 86.5511,46.7777 85.5,47.5C 84.1667,47.5 82.8333,47.5 81.5,47.5C 81.7373,46.209 81.404,45.209 80.5,44.5C 78.6078,37.9506 76.2745,31.4506 73.5,25C 74.418,23.0817 75.918,21.915 78,21.5C 82.8985,23.7398 87.2319,26.7398 91,30.5C 90.8888,26.55 90.0554,22.7167 88.5,19C 90.6585,18.088 92.8252,17.2546 95,16.5C 95.2321,17.7375 95.7321,18.7375 96.5,19.5 Z"/></g>
<g><path style="opacity:1" fill="#131313" d="M 176.5,21.5 C 177.997,22.3058 179.664,22.9724 181.5,23.5C 182.298,23.9569 182.631,24.6236 182.5,25.5C 181.839,26.7175 181.172,28.0508 180.5,29.5C 178.5,28.8333 176.5,28.1667 174.5,27.5C 173.828,28.9492 173.161,30.2825 172.5,31.5C 171.388,33.5994 170.721,35.9327 170.5,38.5C 169.469,40.9608 168.802,43.6275 168.5,46.5C 167.5,46.5 166.5,46.5 165.5,46.5C 164.791,45.596 163.791,45.2627 162.5,45.5C 162.5,43.5 162.5,41.5 162.5,39.5C 164.591,34.8094 165.924,29.8094 166.5,24.5C 164.5,24.1667 162.5,23.8333 160.5,23.5C 160.132,20.9442 160.966,18.9442 163,17.5C 167.686,18.6246 172.186,19.9579 176.5,21.5 Z"/></g>
<g><path style="opacity:1" fill="#f5f5f5" d="M 117.5,20.5 C 117.5,23.8333 117.5,27.1667 117.5,30.5C 115.712,33.0821 113.378,33.7488 110.5,32.5C 107.323,28.1466 106.989,23.6466 109.5,19C 112.498,18.1093 115.164,18.6093 117.5,20.5 Z"/></g>
<g><path style="opacity:1" fill="#f0f0f0" d="M 147.5,22.5 C 147.296,25.5176 146.963,28.5176 146.5,31.5C 145.833,31.5 145.5,31.8333 145.5,32.5C 142.763,32.5987 140.096,32.2653 137.5,31.5C 136.359,28.3601 136.192,25.0267 137,21.5C 138.864,18.7928 141.364,17.9595 144.5,19C 146.426,19.4224 147.426,20.5891 147.5,22.5 Z"/></g>
<g><path style="opacity:1" fill="#a0a0a0" d="M 176.5,21.5 C 178.591,21.3184 180.591,21.6518 182.5,22.5C 183.776,23.6136 183.776,24.6136 182.5,25.5C 182.631,24.6236 182.298,23.9569 181.5,23.5C 179.664,22.9724 177.997,22.3058 176.5,21.5 Z"/></g>
<g><path style="opacity:1" fill="#909090" d="M 147.5,22.5 C 148.815,25.6274 148.482,28.6274 146.5,31.5C 146.963,28.5176 147.296,25.5176 147.5,22.5 Z"/></g>
<g><path style="opacity:1" fill="#b9b9b9" d="M 117.5,20.5 C 118.734,22.2014 119.401,24.2014 119.5,26.5C 119.66,28.3545 118.993,29.6879 117.5,30.5C 117.5,27.1667 117.5,23.8333 117.5,20.5 Z"/></g>
<g><path style="opacity:1" fill="#101010" d="M 63.5,41.5 C 63.7828,42.2891 64.2828,42.9558 65,43.5C 68.0567,42.5495 71.2234,42.2161 74.5,42.5C 74.8333,43.5 75.5,44.1667 76.5,44.5C 76.6323,47.5701 76.299,50.5701 75.5,53.5C 74.8333,53.8333 74.1667,54.1667 73.5,54.5C 72.6588,55.9264 71.6588,57.2597 70.5,58.5C 68.8567,58.6495 67.19,58.9829 65.5,59.5C 63.1667,59.5 60.8333,59.5 58.5,59.5C 58.2587,57.1137 58.9254,55.1137 60.5,53.5C 61.8333,53.5 63.1667,53.5 64.5,53.5C 64.5,52.1667 64.5,50.8333 64.5,49.5C 59.1488,51.6816 54.6488,50.6816 51,46.5C 50.8333,45.5 50.6667,44.5 50.5,43.5C 52.7882,39.7474 54.7882,36.2474 56.5,33C 60.1124,33.2584 63.7791,33.2584 67.5,33C 69.4919,37.152 68.1585,38.9854 63.5,38.5C 63.5,39.5 63.5,40.5 63.5,41.5 Z"/></g>
<g><path style="opacity:1" fill="#a6a6a6" d="M 137.5,31.5 C 140.096,32.2653 142.763,32.5987 145.5,32.5C 144.551,33.1524 143.385,33.4857 142,33.5C 139.992,33.6932 138.492,33.0265 137.5,31.5 Z"/></g>
<g><path style="opacity:1" fill="#b3b3b3" d="M 96.5,19.5 C 97.1614,20.7175 97.8281,22.0508 98.5,23.5C 99.1818,22.7573 99.8485,22.0906 100.5,21.5C 99.7917,27.6701 101.458,33.0034 105.5,37.5C 104.504,37.5858 103.671,37.2524 103,36.5C 102.517,37.448 102.351,38.448 102.5,39.5C 100.204,32.9962 98.204,26.3295 96.5,19.5 Z"/></g>
<g><path style="opacity:1" fill="#afafaf" d="M 172.5,31.5 C 172.829,34.2282 172.163,36.5615 170.5,38.5C 170.721,35.9327 171.388,33.5994 172.5,31.5 Z"/></g>
<g><path style="opacity:1" fill="#7f7f7f" d="M 63.5,41.5 C 67.3714,41.185 71.0381,41.5184 74.5,42.5C 71.2234,42.2161 68.0567,42.5495 65,43.5C 64.2828,42.9558 63.7828,42.2891 63.5,41.5 Z"/></g>
<g><path style="opacity:1" fill="#6b6b6b" d="M 102.5,39.5 C 103.404,40.209 103.737,41.209 103.5,42.5C 102.5,42.5 101.5,42.5 100.5,42.5C 101.551,41.7777 102.218,40.7777 102.5,39.5 Z"/></g>
<g><path style="opacity:1" fill="#c1c1c1" d="M 57.5,41.5 C 58.9221,41.7496 59.9221,42.583 60.5,44C 57.457,44.8625 56.457,44.0291 57.5,41.5 Z"/></g>
<g><path style="opacity:1" fill="#9e9e9e" d="M 162.5,39.5 C 162.5,41.5 162.5,43.5 162.5,45.5C 163.791,45.2627 164.791,45.596 165.5,46.5C 164.167,46.5 162.833,46.5 161.5,46.5C 161.198,43.9407 161.532,41.6074 162.5,39.5 Z"/></g>
<g><path style="opacity:1" fill="#6f6f6f" d="M 87.5,44.5 C 88.404,45.209 88.7373,46.209 88.5,47.5C 87.5,47.5 86.5,47.5 85.5,47.5C 86.5511,46.7777 87.2178,45.7777 87.5,44.5 Z"/></g>
<g><path style="opacity:1" fill="#dadada" d="M 67.5,48.5 C 68.3864,47.2241 69.3864,47.2241 70.5,48.5C 69.4508,51.0452 68.4508,51.0452 67.5,48.5 Z"/></g>
<g><path style="opacity:1" fill="#7b7b7b" d="M 76.5,44.5 C 77.6341,46.9664 77.8007,49.633 77,52.5C 76.6174,53.056 76.1174,53.3893 75.5,53.5C 76.299,50.5701 76.6323,47.5701 76.5,44.5 Z"/></g>
<g><path style="opacity:1" fill="#4e4e4e" d="M 80.5,44.5 C 81.404,45.209 81.7373,46.209 81.5,47.5C 82.8333,47.5 84.1667,47.5 85.5,47.5C 84.0813,48.4511 82.4147,48.7845 80.5,48.5C 80.5,47.1667 80.5,45.8333 80.5,44.5 Z"/></g>
<g><path style="opacity:1" fill="#727272" d="M 73.5,54.5 C 73.5,55.8333 73.5,57.1667 73.5,58.5C 72.5,58.5 71.5,58.5 70.5,58.5C 71.6588,57.2597 72.6588,55.9264 73.5,54.5 Z"/></g>
<g><path style="opacity:1" fill="#888888" d="M 188.5,48.5 C 188.5,51.1667 188.5,53.8333 188.5,56.5C 191.167,56.5 193.833,56.5 196.5,56.5C 196.5,53.8333 196.5,51.1667 196.5,48.5C 197.477,51.2869 197.81,54.2869 197.5,57.5C 194.167,57.5 190.833,57.5 187.5,57.5C 187.19,54.2869 187.523,51.2869 188.5,48.5 Z"/></g>
<g><path style="opacity:1" fill="#010101" d="M 188.5,48.5 C 191.167,48.5 193.833,48.5 196.5,48.5C 196.5,51.1667 196.5,53.8333 196.5,56.5C 193.833,56.5 191.167,56.5 188.5,56.5C 188.5,53.8333 188.5,51.1667 188.5,48.5 Z"/></g>
<g><path style="opacity:1" fill="#c3c3c3" d="M 60.5,53.5 C 58.9254,55.1137 58.2587,57.1137 58.5,59.5C 60.8333,59.5 63.1667,59.5 65.5,59.5C 63.0948,60.7682 60.4282,61.4349 57.5,61.5C 57.5,58.8333 57.5,56.1667 57.5,53.5C 58.5,53.5 59.5,53.5 60.5,53.5 Z"/></g>
<g><path style="opacity:1" fill="#aeaeae" d="M 44.5,63.5 C 41.7628,63.4013 39.0961,63.7347 36.5,64.5C 37.4919,62.9735 38.9919,62.3068 41,62.5C 42.3847,62.5143 43.5514,62.8476 44.5,63.5 Z"/></g>
<g><path style="opacity:1" fill="#0d0d0d" d="M 44.5,63.5 C 44.8333,66.1667 45.1667,68.8333 45.5,71.5C 43.2646,71.2053 41.2646,71.5386 39.5,72.5C 38.0221,71.5525 37.0221,70.2191 36.5,68.5C 35.1667,67.1667 35.1667,65.8333 36.5,64.5C 39.0961,63.7347 41.7628,63.4013 44.5,63.5 Z"/></g>
<g><path style="opacity:1" fill="#111111" d="M 210.5,69.5 C 212.75,68.8698 214.75,67.8698 216.5,66.5C 218.438,64.8372 220.772,64.1706 223.5,64.5C 224.115,68.847 225.615,72.847 228,76.5C 228.821,79.5541 228.655,82.5541 227.5,85.5C 223.323,87.0436 219.99,89.5436 217.5,93C 213.754,96.0679 209.92,96.2346 206,93.5C 203.742,87.7034 201.242,82.0368 198.5,76.5C 198.608,75.5581 198.941,74.7247 199.5,74C 203.226,72.5644 206.893,71.0644 210.5,69.5 Z"/></g>
<g><path style="opacity:1" fill="#9b9b9b" d="M 216.5,66.5 C 214.75,67.8698 212.75,68.8698 210.5,69.5C 211.784,67.3862 213.784,66.3862 216.5,66.5 Z"/></g>
<g><path style="opacity:1" fill="#717171" d="M 36.5,68.5 C 37.0221,70.2191 38.0221,71.5525 39.5,72.5C 38.791,73.404 37.791,73.7373 36.5,73.5C 36.5,71.8333 36.5,70.1667 36.5,68.5 Z"/></g>
<g><path style="opacity:1" fill="#dbdbdb" d="M 216.5,73.5 C 219.659,73.9168 221.659,75.7502 222.5,79C 222.333,80.5 221.5,81.3333 220,81.5C 216.554,79.6258 215.387,76.9591 216.5,73.5 Z"/></g>
<g><path style="opacity:1" fill="#070707" d="M 151.5,93.5 C 152.32,99.7974 152.653,106.131 152.5,112.5C 149.884,119.36 145.551,125.027 139.5,129.5C 146.886,132.906 154.22,136.406 161.5,140C 172.639,148.8 181.972,159.134 189.5,171C 181.689,184.319 170.689,193.819 156.5,199.5C 156.939,181.69 150.939,166.523 138.5,154C 127.757,146.575 116.424,145.575 104.5,151C 97.0172,157.495 91.6839,165.329 88.5,174.5C 87.072,182.115 86.072,189.781 85.5,197.5C 80.5189,194.67 75.8523,191.336 71.5,187.5C 71.2601,184.421 71.5934,181.421 72.5,178.5C 72.1667,178.167 71.8333,177.833 71.5,177.5C 70.6376,178.766 69.9709,180.099 69.5,181.5C 69.719,182.675 69.3857,183.675 68.5,184.5C 66.411,182.42 64.7444,180.087 63.5,177.5C 69.0476,164.058 77.0476,152.224 87.5,142C 92.6254,139.372 97.6254,136.538 102.5,133.5C 104.698,133.125 106.698,132.458 108.5,131.5C 104.479,129.63 100.479,127.463 96.5,125C 89.1405,118.074 86.4739,109.574 88.5,99.5C 89.1667,99.8333 89.8333,100.167 90.5,100.5C 90.0246,103.313 91.0246,105.313 93.5,106.5C 94.1667,107.167 94.8333,107.833 95.5,108.5C 93.0063,111.253 93.0063,113.92 95.5,116.5C 98.1459,117.164 100.979,117.498 104,117.5C 108.758,117.634 113.258,116.968 117.5,115.5C 118.93,114.463 120.597,113.796 122.5,113.5C 123.152,112.551 123.486,111.385 123.5,110C 123.693,107.992 123.026,106.492 121.5,105.5C 114.642,103.226 107.642,102.892 100.5,104.5C 105.278,98.4794 104.278,93.8127 97.5,90.5C 95.9271,90.7517 94.5938,91.4183 93.5,92.5C 92.6618,92.1583 92.3284,91.4916 92.5,90.5C 102.77,77.2128 116.437,72.0461 133.5,75C 141.764,79.0951 147.764,85.2617 151.5,93.5 Z"/></g>
<g><path style="opacity:1" fill="#6a6a6a" d="M 208.5,77.5 C 208.082,78.2216 207.416,78.7216 206.5,79C 207.337,80.0113 207.67,81.1779 207.5,82.5C 207.67,81.1779 207.337,80.0113 206.5,79C 207.416,78.7216 208.082,78.2216 208.5,77.5 Z"/></g>
<g><path style="opacity:1" fill="#e7e7e7" d="M 208.5,77.5 C 211.655,78.8981 213.321,81.3981 213.5,85C 213.612,86.6624 212.946,87.8291 211.5,88.5C 209.648,86.7813 208.314,84.7813 207.5,82.5C 207.67,81.1779 207.337,80.0113 206.5,79C 207.416,78.7216 208.082,78.2216 208.5,77.5 Z"/></g>
<g><path style="opacity:1" fill="#0f0f0f" d="M 29.5,100.5 C 28.1667,100.5 26.8333,100.5 25.5,100.5C 25.5,101.5 25.5,102.5 25.5,103.5C 27.1667,103.5 28.8333,103.5 30.5,103.5C 32.2646,104.461 34.2646,104.795 36.5,104.5C 36.6621,106.527 36.4955,108.527 36,110.5C 34.6439,111.38 33.1439,111.714 31.5,111.5C 24.3124,109.593 16.9791,107.927 9.5,106.5C 9.99255,104.194 10.3259,101.861 10.5,99.5C 15.9895,98.1178 21.3229,96.2844 26.5,94C 22.3135,92.1908 17.9802,90.6908 13.5,89.5C 14.3482,87.5914 14.6816,85.5914 14.5,83.5C 23.2181,85.3763 31.8848,87.3763 40.5,89.5C 40.6602,91.1992 40.4935,92.8659 40,94.5C 36.7129,97.0312 33.2129,99.0312 29.5,100.5 Z"/></g>
<g><path style="opacity:1" fill="#cfcfcf" d="M 128.5,90.5 C 129.873,90.3433 131.207,90.51 132.5,91C 133.878,92.7134 135.545,94.0467 137.5,95C 139.923,101.78 137.59,105.946 130.5,107.5C 128.626,107.61 127.126,106.944 126,105.5C 122.037,99.4818 122.87,94.4818 128.5,90.5 Z"/></g>
<g><path style="opacity:1" fill="#bbbbbb" d="M 100.5,104.5 C 99.8333,104.5 99.1667,104.5 98.5,104.5C 97.2196,105.931 95.5529,106.598 93.5,106.5C 91.0246,105.313 90.0246,103.313 90.5,100.5C 90.5393,97.4649 91.5393,94.7982 93.5,92.5C 94.5938,91.4183 95.9271,90.7517 97.5,90.5C 104.278,93.8127 105.278,98.4794 100.5,104.5 Z"/></g>
<g><path style="opacity:1" fill="#0e0e0e" d="M 98.5,104.5 C 96.8008,104.66 95.1341,104.494 93.5,104C 91.5638,99.4216 92.7305,95.9216 97,93.5C 99.5277,94.1969 100.694,95.8636 100.5,98.5C 100.389,100.714 99.722,102.714 98.5,104.5 Z"/></g>
<g><path style="opacity:1" fill="#101010" d="M 128.5,94.5 C 135.815,94.2828 137.481,97.4495 133.5,104C 126.261,104.181 124.594,101.014 128.5,94.5 Z"/></g>
<g><path style="opacity:1" fill="#101010" d="M 236.5,97.5 C 236.549,101.078 237.215,104.411 238.5,107.5C 239.473,109.948 239.806,112.615 239.5,115.5C 237.5,115.167 235.5,114.833 233.5,114.5C 233.448,110.802 233.114,107.135 232.5,103.5C 231.167,103.5 229.833,103.5 228.5,103.5C 228.552,107.198 228.886,110.865 229.5,114.5C 228.167,114.5 226.833,114.5 225.5,114.5C 223.557,112.029 222.557,109.029 222.5,105.5C 220.5,105.5 218.5,105.5 216.5,105.5C 216.263,106.791 216.596,107.791 217.5,108.5C 218.743,111.633 219.243,114.967 219,118.5C 218.121,121.346 216.454,122.013 214,120.5C 213.216,113.985 211.716,107.651 209.5,101.5C 209.709,100.914 210.043,100.414 210.5,100C 218.199,99.4118 225.699,97.9118 233,95.5C 234.699,95.3866 235.866,96.0532 236.5,97.5 Z"/></g>
<g><path style="opacity:1" fill="#444444" d="M 92.5,90.5 C 92.3284,91.4916 92.6618,92.1583 93.5,92.5C 91.5393,94.7982 90.5393,97.4649 90.5,100.5C 89.8333,100.167 89.1667,99.8333 88.5,99.5C 89.0881,96.1113 90.4214,93.1113 92.5,90.5 Z"/></g>
<g><path style="opacity:1" fill="#a9a9a9" d="M 29.5,100.5 C 28.7375,101.268 27.7375,101.768 26.5,102C 28.0581,102.21 29.3915,102.71 30.5,103.5C 28.8333,103.5 27.1667,103.5 25.5,103.5C 25.5,102.5 25.5,101.5 25.5,100.5C 26.8333,100.5 28.1667,100.5 29.5,100.5 Z"/></g>
<g><path style="opacity:1" fill="#fafafa" d="M 121.5,105.5 C 122.265,108.096 122.599,110.763 122.5,113.5C 120.597,113.796 118.93,114.463 117.5,115.5C 110.191,116.248 102.858,116.582 95.5,116.5C 93.0063,113.92 93.0063,111.253 95.5,108.5C 97.754,107.876 99.4206,106.543 100.5,104.5C 107.642,102.892 114.642,103.226 121.5,105.5 Z"/></g>
<g><path style="opacity:1" fill="#3b3b3b" d="M 151.5,93.5 C 152.222,93.9175 152.722,94.5842 153,95.5C 153.818,101.349 153.652,107.015 152.5,112.5C 152.653,106.131 152.32,99.7974 151.5,93.5 Z"/></g>
<g><path style="opacity:1" fill="#5b5b5b" d="M 236.5,97.5 C 238.011,100.544 238.678,103.878 238.5,107.5C 237.215,104.411 236.549,101.078 236.5,97.5 Z"/></g>
<g><path style="opacity:1" fill="#989898" d="M 225.5,114.5 C 224.791,115.404 223.791,115.737 222.5,115.5C 222.492,112.455 222.159,109.455 221.5,106.5C 219.517,106.157 218.183,106.824 217.5,108.5C 216.596,107.791 216.263,106.791 216.5,105.5C 218.5,105.5 220.5,105.5 222.5,105.5C 222.557,109.029 223.557,112.029 225.5,114.5 Z"/></g>
<g><path style="opacity:1" fill="#515151" d="M 98.5,104.5 C 99.1667,104.5 99.8333,104.5 100.5,104.5C 99.4206,106.543 97.754,107.876 95.5,108.5C 94.8333,107.833 94.1667,107.167 93.5,106.5C 95.5529,106.598 97.2196,105.931 98.5,104.5 Z"/></g>
<g><path style="opacity:1" fill="#a7a7a7" d="M 121.5,105.5 C 123.026,106.492 123.693,107.992 123.5,110C 123.486,111.385 123.152,112.551 122.5,113.5C 122.599,110.763 122.265,108.096 121.5,105.5 Z"/></g>
<g><path style="opacity:1" fill="#9f9f9f" d="M 36.5,104.5 C 37.6291,106.628 37.7958,108.961 37,111.5C 35.0565,112.807 33.2232,112.807 31.5,111.5C 33.1439,111.714 34.6439,111.38 36,110.5C 36.4955,108.527 36.6621,106.527 36.5,104.5 Z"/></g>
<g><path style="opacity:1" fill="#777777" d="M 117.5,115.5 C 113.258,116.968 108.758,117.634 104,117.5C 100.979,117.498 98.1459,117.164 95.5,116.5C 102.858,116.582 110.191,116.248 117.5,115.5 Z"/></g>
<g><path style="opacity:1" fill="#d4d4d4" d="M 34.5,119.5 C 25.5,119.5 16.5,119.5 7.5,119.5C 7.5,121.5 7.5,123.5 7.5,125.5C 6.53178,123.393 6.19845,121.059 6.5,118.5C 16.015,118.173 25.3483,118.506 34.5,119.5 Z"/></g>
<g><path style="opacity:1" fill="#0d0d0d" d="M 34.5,119.5 C 34.5,121.833 34.5,124.167 34.5,126.5C 25.4978,126.214 16.4978,125.881 7.5,125.5C 7.5,123.5 7.5,121.5 7.5,119.5C 16.5,119.5 25.5,119.5 34.5,119.5 Z"/></g>
<g><path style="opacity:1" fill="#111111" d="M 240.5,129.5 C 240.769,133.931 240.436,138.265 239.5,142.5C 238.491,145.72 236.491,146.386 233.5,144.5C 233.782,141.09 234.449,137.757 235.5,134.5C 234.38,132.404 232.88,132.07 231,133.5C 230.47,143.048 225.637,146.881 216.5,145C 215.107,143.829 214.273,142.329 214,140.5C 213.337,135.463 213.504,130.463 214.5,125.5C 216.924,125.192 219.257,125.526 221.5,126.5C 219.855,130.325 219.188,134.325 219.5,138.5C 220.822,138.67 221.989,138.337 223,137.5C 223.876,133.659 225.209,129.993 227,126.5C 232.57,123.284 237.07,124.284 240.5,129.5 Z"/></g>
<g><path style="opacity:1" fill="#757575" d="M 108.5,131.5 C 106.698,132.458 104.698,133.125 102.5,133.5C 103.99,131.72 105.99,131.054 108.5,131.5 Z"/></g>
<g><path style="opacity:1" fill="#0f0f0f" d="M 31.5,139.5 C 31.8333,142.833 32.1667,146.167 32.5,149.5C 32.385,151.947 31.385,153.947 29.5,155.5C 27.597,155.796 25.9303,156.463 24.5,157.5C 19.9637,158.802 15.297,158.802 10.5,157.5C 8.58627,155.798 7.08627,153.798 6,151.5C 2.55454,139.028 7.22121,133.028 20,133.5C 25.5965,132.544 29.4298,134.544 31.5,139.5 Z"/></g>
<g><path style="opacity:1" fill="#aaaaaa" d="M 240.5,129.5 C 241.163,131.473 241.496,133.639 241.5,136C 241.467,138.61 240.8,140.777 239.5,142.5C 240.436,138.265 240.769,133.931 240.5,129.5 Z"/></g>
<g><path style="opacity:1" fill="#e9e9e9" d="M 23.5,150.5 C 20.8333,150.833 18.1667,151.167 15.5,151.5C 12.0021,149.542 10.8354,146.542 12,142.5C 16.8429,138.781 21.5096,138.781 26,142.5C 26.9772,145.817 26.1438,148.484 23.5,150.5 Z"/></g>
<g><path style="opacity:1" fill="#555555" d="M 31.5,139.5 C 33.5314,142.708 33.8647,146.041 32.5,149.5C 32.1667,146.167 31.8333,142.833 31.5,139.5 Z"/></g>
<g><path style="opacity:1" fill="#636363" d="M 23.5,150.5 C 20.96,152.413 18.2933,152.746 15.5,151.5C 18.1667,151.167 20.8333,150.833 23.5,150.5 Z"/></g>
<g><path style="opacity:1" fill="#101010" d="M 239.5,154.5 C 238.641,161.317 237.308,167.983 235.5,174.5C 233.738,174.643 232.071,174.309 230.5,173.5C 230.167,170.833 229.833,168.167 229.5,165.5C 225.023,164.595 220.689,163.595 216.5,162.5C 215.081,161.549 213.415,161.216 211.5,161.5C 211.5,160.5 211.5,159.5 211.5,158.5C 212.29,157.391 212.79,156.058 213,154.5C 217.457,155.809 221.957,156.809 226.5,157.5C 228.607,158.468 230.941,158.802 233.5,158.5C 233.5,156.5 233.5,154.5 233.5,152.5C 236.082,152.025 238.082,152.692 239.5,154.5 Z"/></g>
<g><path style="opacity:1" fill="#adadad" d="M 239.5,154.5 C 238.082,152.692 236.082,152.025 233.5,152.5C 233.5,154.5 233.5,156.5 233.5,158.5C 230.941,158.802 228.607,158.468 226.5,157.5C 228.5,157.5 230.5,157.5 232.5,157.5C 232.5,155.5 232.5,153.5 232.5,151.5C 235.167,151.5 237.833,151.5 240.5,151.5C 240.737,152.791 240.404,153.791 239.5,154.5 Z"/></g>
<g><path style="opacity:1" fill="#959595" d="M 29.5,155.5 C 30.209,156.404 31.209,156.737 32.5,156.5C 31.5,157.167 30.5,157.833 29.5,158.5C 27.9582,157.699 26.2915,157.366 24.5,157.5C 25.9303,156.463 27.597,155.796 29.5,155.5 Z"/></g>
<g><path style="opacity:1" fill="#0d0d0d" d="M 28.5,182.5 C 25.8728,181.908 23.2062,181.575 20.5,181.5C 14.5218,176.952 12.5218,170.952 14.5,163.5C 16.1667,163.5 17.8333,163.5 19.5,163.5C 20.0885,166.61 20.7552,169.61 21.5,172.5C 25.7897,176.411 29.9564,176.078 34,171.5C 35.302,166.121 33.802,161.788 29.5,158.5C 30.5,157.833 31.5,157.167 32.5,156.5C 34.7569,155.197 36.5902,155.864 38,158.5C 44.6749,170.669 41.5082,178.669 28.5,182.5 Z"/></g>
<g><path style="opacity:1" fill="#757575" d="M 211.5,158.5 C 211.5,159.5 211.5,160.5 211.5,161.5C 213.415,161.216 215.081,161.549 216.5,162.5C 214.5,162.5 212.5,162.5 210.5,162.5C 210.232,160.901 210.566,159.568 211.5,158.5 Z"/></g>
<g><path style="opacity:1" fill="#aeaeae" d="M 19.5,163.5 C 21.3878,165.988 22.0545,168.988 21.5,172.5C 20.7552,169.61 20.0885,166.61 19.5,163.5 Z"/></g>
<g><path style="opacity:1" fill="#0e0e0e" d="M 204.5,174.5 C 212.569,178.753 219.902,183.92 226.5,190C 224.015,193.823 221.515,197.656 219,201.5C 213.451,207.08 208.617,206.414 204.5,199.5C 198.829,200.991 195.162,198.824 193.5,193C 194,191.5 194.5,190 195,188.5C 198.434,183.949 201.601,179.282 204.5,174.5 Z"/></g>
<g><path style="opacity:1" fill="#757575" d="M 20.5,181.5 C 23.2062,181.575 25.8728,181.908 28.5,182.5C 25.7067,183.746 23.04,183.413 20.5,181.5 Z"/></g>
<g><path style="opacity:1" fill="#525252" d="M 71.5,187.5 C 70.8333,185.5 70.1667,183.5 69.5,181.5C 69.9709,180.099 70.6376,178.766 71.5,177.5C 71.8333,177.833 72.1667,178.167 72.5,178.5C 71.5934,181.421 71.2601,184.421 71.5,187.5 Z"/></g>
<g><path style="opacity:1" fill="#101010" d="M 42.5,195.5 C 42.9731,196.906 43.9731,197.573 45.5,197.5C 47.9287,201.458 49.9287,201.291 51.5,197C 49.3577,194.532 46.8577,192.365 44,190.5C 43.187,188.564 42.687,186.564 42.5,184.5C 44.2624,184.357 45.9291,184.691 47.5,185.5C 52.4955,188.504 56.8289,192.171 60.5,196.5C 56.0617,203.699 50.895,210.366 45,216.5C 39.2804,213.452 34.1138,209.619 29.5,205C 30.9999,203.885 32.6666,203.052 34.5,202.5C 37.672,204.252 40.672,206.252 43.5,208.5C 44.8876,207.409 45.3876,206.076 45,204.5C 42.54,203.042 40.3734,201.209 38.5,199C 39.1667,197.667 39.8333,196.333 40.5,195C 41.4368,194.308 42.1034,194.475 42.5,195.5 Z"/></g>
<g><path style="opacity:1" fill="#dfdfdf" d="M 205.5,183.5 C 208.646,183.794 209.813,185.461 209,188.5C 207.303,189.364 206.137,190.697 205.5,192.5C 203.955,193.452 202.288,193.785 200.5,193.5C 201.282,189.72 202.948,186.387 205.5,183.5 Z"/></g>
<g><path style="opacity:1" fill="#737373" d="M 88.5,174.5 C 88.1067,182.518 87.44,190.518 86.5,198.5C 85.8933,198.376 85.56,198.043 85.5,197.5C 86.072,189.781 87.072,182.115 88.5,174.5 Z"/></g>
<g><path style="opacity:1" fill="#d6d6d6" d="M 214.5,189.5 C 216.2,190.016 217.533,191.016 218.5,192.5C 216.488,194.345 214.655,196.345 213,198.5C 211.5,198.333 210.667,197.5 210.5,196C 211.25,193.429 212.583,191.262 214.5,189.5 Z"/></g>
<g><path style="opacity:1" fill="#121212" d="M 191.5,200.5 C 188.284,200.345 185.617,201.345 183.5,203.5C 183.5,204.167 183.167,204.5 182.5,204.5C 180.534,205.255 180.2,206.421 181.5,208C 183.775,208.405 185.775,207.905 187.5,206.5C 191.28,204.053 195.113,204.053 199,206.5C 201.262,211.163 200.762,215.496 197.5,219.5C 195.321,220.757 193.321,222.257 191.5,224C 189.527,224.495 187.527,224.662 185.5,224.5C 185.185,222.774 185.019,221.107 185,219.5C 189.663,218.944 192.83,216.61 194.5,212.5C 190.323,213.058 186.156,213.724 182,214.5C 178.973,214.923 176.64,213.923 175,211.5C 174.183,208.036 174.517,204.702 176,201.5C 179.671,198.083 183.837,195.917 188.5,195C 190.16,196.488 191.16,198.321 191.5,200.5 Z"/></g>
<g><path style="opacity:1" fill="#797979" d="M 42.5,195.5 C 44.0269,195.427 45.0269,196.094 45.5,197.5C 43.9731,197.573 42.9731,196.906 42.5,195.5 Z"/></g>
<g><path style="opacity:1" fill="#121212" d="M 66.5,208.5 C 64.3592,209.755 63.6926,211.422 64.5,213.5C 65.8549,212.812 66.8549,211.812 67.5,210.5C 72.2737,207.097 75.2737,208.097 76.5,213.5C 75.1997,216.024 75.1997,218.691 76.5,221.5C 77.2975,221.043 77.6309,220.376 77.5,219.5C 78.9722,215.896 80.9722,212.562 83.5,209.5C 85.8492,210.557 87.8492,212.057 89.5,214C 84.9618,220.749 80.9618,227.749 77.5,235C 74.9649,235.617 72.6316,235.117 70.5,233.5C 69.5091,229.555 69.1758,225.555 69.5,221.5C 70.4511,220.081 70.7845,218.415 70.5,216.5C 68.6203,216.229 67.287,216.896 66.5,218.5C 63.178,220.402 60.0114,222.402 57,224.5C 54.1058,224.305 51.9392,222.972 50.5,220.5C 54.4777,213.695 58.6444,207.028 63,200.5C 65.0811,199.667 67.2478,199.667 69.5,200.5C 69.0598,203.38 68.0598,206.046 66.5,208.5 Z"/></g>
<g><path style="opacity:1" fill="#8e8e8e" d="M 191.5,200.5 C 189.064,201.871 186.397,202.871 183.5,203.5C 185.617,201.345 188.284,200.345 191.5,200.5 Z"/></g>
<g><path style="opacity:1" fill="#ababab" d="M 182.5,204.5 C 183.552,206.256 185.219,206.923 187.5,206.5C 185.775,207.905 183.775,208.405 181.5,208C 180.2,206.421 180.534,205.255 182.5,204.5 Z"/></g>
<g><path style="opacity:1" fill="#a7a7a7" d="M 66.5,208.5 C 66.3284,209.492 66.6618,210.158 67.5,210.5C 66.8549,211.812 65.8549,212.812 64.5,213.5C 63.6926,211.422 64.3592,209.755 66.5,208.5 Z"/></g>
<g><path style="opacity:1" fill="#131313" d="M 166.5,217.5 C 164.034,216.366 161.367,216.199 158.5,217C 157.944,217.383 157.611,217.883 157.5,218.5C 155.852,219.81 154.186,221.143 152.5,222.5C 149.642,220.08 149.309,217.58 151.5,215C 165.014,205.105 173.681,208.271 177.5,224.5C 177.327,228.168 175.993,231.334 173.5,234C 168.755,236.872 163.755,237.706 158.5,236.5C 158.357,234.738 158.691,233.071 159.5,231.5C 167.925,232.247 171.092,228.58 169,220.5C 168.623,219.058 167.79,218.058 166.5,217.5 Z"/></g>
<g><path style="opacity:1" fill="#141414" d="M 111.5,218.5 C 111.5,220.167 111.5,221.833 111.5,223.5C 109.736,230.379 108.069,237.379 106.5,244.5C 99.7228,243.593 93.0562,242.26 86.5,240.5C 86.393,238.097 87.393,236.264 89.5,235C 92.5178,234.999 95.5178,235.499 98.5,236.5C 100,236.547 101,235.881 101.5,234.5C 99.2971,232.284 96.6304,230.95 93.5,230.5C 92.5481,228.955 92.2148,227.288 92.5,225.5C 94.7354,225.205 96.7354,225.539 98.5,226.5C 99.9187,227.451 101.585,227.784 103.5,227.5C 105.402,222.074 103.402,220.074 97.5,221.5C 93.4937,220.827 91.1604,218.494 90.5,214.5C 97.7109,214.794 104.711,216.128 111.5,218.5 Z"/></g>
<g><path style="opacity:1" fill="#8a8a8a" d="M 166.5,217.5 C 163.43,217.368 160.43,217.701 157.5,218.5C 157.611,217.883 157.944,217.383 158.5,217C 161.367,216.199 164.034,216.366 166.5,217.5 Z"/></g>
<g><path style="opacity:1" fill="#a1a1a1" d="M 69.5,221.5 C 69.6567,220.127 69.49,218.793 69,217.5C 68.3292,218.252 67.4959,218.586 66.5,218.5C 67.287,216.896 68.6203,216.229 70.5,216.5C 70.7845,218.415 70.4511,220.081 69.5,221.5 Z"/></g>
<g><path style="opacity:1" fill="#090909" d="M 113.5,217.5 C 115.5,217.5 117.5,217.5 119.5,217.5C 119.334,221.846 119.501,226.179 120,230.5C 120.717,229.956 121.217,229.289 121.5,228.5C 122.486,226.574 123.486,224.574 124.5,222.5C 128.203,220.848 130.869,221.848 132.5,225.5C 133.313,227.261 134.313,228.928 135.5,230.5C 136.485,226.366 136.818,222.032 136.5,217.5C 138.167,217.5 139.833,217.5 141.5,217.5C 141.175,224.687 141.509,231.687 142.5,238.5C 143.451,239.919 143.784,241.585 143.5,243.5C 140.5,243.5 137.5,243.5 134.5,243.5C 133.642,239.452 131.975,235.785 129.5,232.5C 129.489,230.314 128.489,229.481 126.5,230C 125.399,232.472 124.399,234.972 123.5,237.5C 122.527,239.3 121.527,241.134 120.5,243C 118.19,243.497 115.857,243.663 113.5,243.5C 113.5,234.833 113.5,226.167 113.5,217.5 Z"/></g>
<g><path style="opacity:1" fill="#7d7d7d" d="M 76.5,213.5 C 76.2053,215.735 76.5386,217.735 77.5,219.5C 77.6309,220.376 77.2975,221.043 76.5,221.5C 75.1997,218.691 75.1997,216.024 76.5,213.5 Z"/></g>
<g><path style="opacity:1" fill="#7e7e7e" d="M 132.5,225.5 C 130.869,221.848 128.203,220.848 124.5,222.5C 125.152,221.275 126.319,220.608 128,220.5C 131.337,220.504 132.837,222.17 132.5,225.5 Z"/></g>
<g><path style="opacity:1" fill="#afafaf" d="M 113.5,216.5 C 113.5,216.833 113.5,217.167 113.5,217.5C 113.5,226.167 113.5,234.833 113.5,243.5C 112.833,236.833 112.167,230.167 111.5,223.5C 111.5,221.833 111.5,220.167 111.5,218.5C 112.167,217.833 112.833,217.167 113.5,216.5 Z"/></g>
<g><path style="opacity:1" fill="#9b9b9b" d="M 97.5,221.5 C 103.402,220.074 105.402,222.074 103.5,227.5C 101.585,227.784 99.9187,227.451 98.5,226.5C 99.8333,226.5 101.167,226.5 102.5,226.5C 102.5,225.167 102.5,223.833 102.5,222.5C 100.585,222.784 98.9187,222.451 97.5,221.5 Z"/></g>
<g><path style="opacity:1" fill="#727272" d="M 113.5,217.5 C 113.5,217.167 113.5,216.833 113.5,216.5C 115.833,216.5 118.167,216.5 120.5,216.5C 120.183,220.702 120.517,224.702 121.5,228.5C 121.217,229.289 120.717,229.956 120,230.5C 119.501,226.179 119.334,221.846 119.5,217.5C 117.5,217.5 115.5,217.5 113.5,217.5 Z"/></g>
<g><path style="opacity:1" fill="#bdbdbd" d="M 129.5,232.5 C 128.85,232.196 128.183,231.863 127.5,231.5C 126.697,234.022 125.364,236.022 123.5,237.5C 124.399,234.972 125.399,232.472 126.5,230C 128.489,229.481 129.489,230.314 129.5,232.5 Z"/></g>
<g><path style="opacity:1" fill="#414141" d="M 142.5,238.5 C 141.509,231.687 141.175,224.687 141.5,217.5C 139.833,217.5 138.167,217.5 136.5,217.5C 136.818,222.032 136.485,226.366 135.5,230.5C 135.5,225.833 135.5,221.167 135.5,216.5C 137.833,216.5 140.167,216.5 142.5,216.5C 142.5,223.833 142.5,231.167 142.5,238.5 Z"/></g>
</svg>
