<?xml version="1.0" encoding="UTF-8"?>
<!DOCTYPE svg PUBLIC "-//W3C//DTD SVG 1.1//EN" "http://www.w3.org/Graphics/SVG/1.1/DTD/svg11.dtd">
<svg xmlns="http://www.w3.org/2000/svg" version="1.1" width="256px" height="256px" style="shape-rendering:geometricPrecision; text-rendering:geometricPrecision; image-rendering:optimizeQuality; fill-rule:evenodd; clip-rule:evenodd" xmlns:xlink="http://www.w3.org/1999/xlink">
<g><path style="opacity:0.995" fill="#2875ca" d="M 111.5,-0.5 C 122.167,-0.5 132.833,-0.5 143.5,-0.5C 197.548,8.7041 233.382,39.3708 251,91.5C 252.715,98.2585 254.215,104.925 255.5,111.5C 255.5,122.167 255.5,132.833 255.5,143.5C 246.296,197.548 215.629,233.382 163.5,251C 156.741,252.715 150.075,254.215 143.5,255.5C 132.833,255.5 122.167,255.5 111.5,255.5C 57.4517,246.296 21.6184,215.629 4,163.5C 2.28494,156.741 0.784944,150.075 -0.5,143.5C -0.5,132.833 -0.5,122.167 -0.5,111.5C 8.7041,57.4517 39.3708,21.6184 91.5,4C 98.2585,2.28494 104.925,0.784944 111.5,-0.5 Z"/></g>
<g><path style="opacity:1" fill="#fbfcfe" d="M 98.5,36.5 C 100.39,36.2965 101.89,36.9632 103,38.5C 103.667,42.8333 103.667,47.1667 103,51.5C 55.7147,73.4066 39.3814,109.407 54,159.5C 59.1549,172.648 67.3216,183.482 78.5,192C 86.4517,197.225 94.6183,202.058 103,206.5C 106.055,220.774 101.221,224.274 88.5,217C 47.4699,195.793 28.6365,161.959 32,115.5C 39.2043,76.4704 61.371,50.1371 98.5,36.5 Z"/></g>
<g><path style="opacity:1" fill="#fbfcfe" d="M 152.5,37.5 C 173.57,42.292 190.737,53.292 204,70.5C 223.27,97.6783 228.27,127.345 219,159.5C 208.157,191.009 186.824,211.676 155,221.5C 153.739,221.241 152.739,220.574 152,219.5C 151.333,215.167 151.333,210.833 152,206.5C 195.757,186.988 213.091,153.654 204,106.5C 199.044,90.7624 190.211,77.5957 177.5,67C 169.051,61.6946 160.551,56.528 152,51.5C 151.283,46.7804 151.45,42.1138 152.5,37.5 Z"/></g>
<g><path style="opacity:1" fill="#fafcfd" d="M 121.5,64.5 C 125.182,64.3347 128.848,64.5014 132.5,65C 133.416,65.3742 134.25,65.8742 135,66.5C 135.499,71.4889 135.666,76.4889 135.5,81.5C 147.058,83.2243 154.891,89.5576 159,100.5C 159.667,102.5 159.667,104.5 159,106.5C 154.252,107.635 149.419,107.802 144.5,107C 139.265,95.1256 130.265,91.1256 117.5,95C 107.203,101.884 106.87,109.218 116.5,117C 125.698,119.579 135.032,121.579 144.5,123C 160.814,129.133 166.314,140.633 161,157.5C 156.313,168.258 148.146,174.258 136.5,175.5C 136.666,180.179 136.499,184.845 136,189.5C 134.494,192.937 131.827,194.27 128,193.5C 126.167,193.333 124.333,193.167 122.5,193C 121.333,192.5 120.5,191.667 120,190.5C 119.501,185.511 119.334,180.511 119.5,175.5C 103.897,174.232 94.5639,165.899 91.5,150.5C 91.5698,149.228 91.9032,148.062 92.5,147C 97.1667,146.333 101.833,146.333 106.5,147C 110.32,159.921 118.987,165.254 132.5,163C 144.899,159.261 148.233,151.761 142.5,140.5C 139.495,138.329 136.161,136.829 132.5,136C 122.906,134.69 113.572,132.357 104.5,129C 96.6009,123.873 92.6009,116.54 92.5,107C 94.3792,91.6211 103.046,83.1211 118.5,81.5C 118.334,76.8215 118.501,72.1548 119,67.5C 120.045,66.6266 120.878,65.6266 121.5,64.5 Z"/></g>
</svg>
