<?xml version="1.0" encoding="UTF-8"?>
<!DOCTYPE svg PUBLIC "-//W3C//DTD SVG 1.1//EN" "http://www.w3.org/Graphics/SVG/1.1/DTD/svg11.dtd">
<svg xmlns="http://www.w3.org/2000/svg" version="1.1" width="250px" height="250px" style="shape-rendering:geometricPrecision; text-rendering:geometricPrecision; image-rendering:optimizeQuality; fill-rule:evenodd; clip-rule:evenodd" xmlns:xlink="http://www.w3.org/1999/xlink">
<g><path style="opacity:0.963" fill="#029393" d="M 50.5,26.5 C 100.834,26.3333 151.168,26.5 201.5,27C 204.531,30.2303 207.197,33.7303 209.5,37.5C 220.564,57.9623 232.397,77.9623 245,97.5C 246.434,101.406 246.767,105.406 246,109.5C 208.297,147.239 169.797,184.739 130.5,222C 126.5,222.667 122.5,222.667 118.5,222C 79.9061,184.73 41.5728,147.73 3.5,111C 2.11658,106.448 2.28325,101.948 4,97.5C 4.92458,96.9535 5.75792,96.2868 6.5,95.5C 20.4559,71.8909 35.1226,48.8909 50.5,26.5 Z"/></g>
<g><path style="opacity:1" fill="#fcfdfd" d="M 72.5,58.5 C 107.167,58.5 141.833,58.5 176.5,58.5C 176.5,64.5 176.5,70.5 176.5,76.5C 163.5,76.5 150.5,76.5 137.5,76.5C 137.5,81.5 137.5,86.5 137.5,91.5C 140.167,91.5 142.833,91.5 145.5,91.5C 145.833,91.5 146.167,91.5 146.5,91.5C 151.332,92.3996 156.332,93.0662 161.5,93.5C 169.235,94.4323 176.568,96.5989 183.5,100C 184.333,100.833 185.167,101.667 186,102.5C 186.667,108.833 186.667,115.167 186,121.5C 182.312,124.759 178.146,127.092 173.5,128.5C 166.064,129.939 158.73,131.272 151.5,132.5C 146.93,133.441 142.263,133.774 137.5,133.5C 137.5,144.5 137.5,155.5 137.5,166.5C 129.167,166.5 120.833,166.5 112.5,166.5C 112.828,155.654 112.494,144.987 111.5,134.5C 110.432,133.566 109.099,133.232 107.5,133.5C 101.699,132.318 95.6985,131.652 89.5,131.5C 87.5,131.167 85.5,130.833 83.5,130.5C 83.3893,129.883 83.056,129.383 82.5,129C 78.506,128.055 74.506,127.222 70.5,126.5C 67.0797,125.643 64.7464,123.643 63.5,120.5C 63.1984,117.941 63.5318,115.607 64.5,113.5C 71.6858,117.618 79.3524,120.451 87.5,122C 105.132,124.388 122.799,124.888 140.5,123.5C 147.082,123.844 153.416,123.177 159.5,121.5C 164.778,120.245 170.111,119.245 175.5,118.5C 177.967,118.245 179.967,117.245 181.5,115.5C 182.765,114.521 184.099,113.521 185.5,112.5C 179.786,107.701 173.119,105.034 165.5,104.5C 165.389,103.883 165.056,103.383 164.5,103C 161.854,102.503 159.187,102.336 156.5,102.5C 156.167,102.5 155.833,102.5 155.5,102.5C 149.712,101.19 143.712,100.523 137.5,100.5C 137.5,105.167 137.5,109.833 137.5,114.5C 129.167,114.5 120.833,114.5 112.5,114.5C 112.5,109.833 112.5,105.167 112.5,100.5C 108.298,100.183 104.298,100.517 100.5,101.5C 100.167,101.5 99.8333,101.5 99.5,101.5C 94.4814,101.752 89.4814,102.252 84.5,103C 83.944,103.383 83.6107,103.883 83.5,104.5C 76.2693,104.685 69.9359,107.018 64.5,111.5C 63.5233,108.713 63.19,105.713 63.5,102.5C 65.3356,100.412 67.6689,99.0787 70.5,98.5C 73.3973,97.871 76.064,96.871 78.5,95.5C 89.1865,92.2435 100.187,90.5769 111.5,90.5C 111.5,85.8333 111.5,81.1667 111.5,76.5C 98.5,76.5 85.5,76.5 72.5,76.5C 72.5,70.5 72.5,64.5 72.5,58.5 Z"/></g>
<g><path style="opacity:0.902" fill="#9ad4d4" d="M 72.5,58.5 C 107.329,57.5016 142.329,57.1683 177.5,57.5C 177.5,63.8333 177.5,70.1667 177.5,76.5C 177.167,76.5 176.833,76.5 176.5,76.5C 176.5,70.5 176.5,64.5 176.5,58.5C 141.833,58.5 107.167,58.5 72.5,58.5 Z"/></g>
<g><path style="opacity:0.973" fill="#81c9c9" d="M 176.5,76.5 C 176.833,76.5 177.167,76.5 177.5,76.5C 164.677,77.4955 151.677,77.8288 138.5,77.5C 138.5,81.8333 138.5,86.1667 138.5,90.5C 141.059,90.1984 143.393,90.5318 145.5,91.5C 142.833,91.5 140.167,91.5 137.5,91.5C 137.5,86.5 137.5,81.5 137.5,76.5C 150.5,76.5 163.5,76.5 176.5,76.5 Z"/></g>
<g><path style="opacity:0.906" fill="#77c4c4" d="M 146.5,91.5 C 150.514,91.3345 154.514,91.5012 158.5,92C 159.737,92.2321 160.737,92.7321 161.5,93.5C 156.332,93.0662 151.332,92.3996 146.5,91.5 Z"/></g>
<g><path style="opacity:0.918" fill="#b8e0e0" d="M 78.5,95.5 C 76.064,96.871 73.3973,97.871 70.5,98.5C 72.6174,96.3455 75.284,95.3455 78.5,95.5 Z"/></g>
<g><path style="opacity:0.998" fill="#179797" d="M 99.5,101.5 C 99.8333,101.5 100.167,101.5 100.5,101.5C 104.167,101.5 107.833,101.5 111.5,101.5C 111.182,106.032 111.515,110.366 112.5,114.5C 120.833,114.5 129.167,114.5 137.5,114.5C 138.485,110.366 138.818,106.032 138.5,101.5C 144.152,102.032 149.819,102.365 155.5,102.5C 155.833,102.5 156.167,102.5 156.5,102.5C 159.345,103.344 162.345,104.01 165.5,104.5C 173.119,105.034 179.786,107.701 185.5,112.5C 184.099,113.521 182.765,114.521 181.5,115.5C 179.033,115.755 177.033,116.755 175.5,118.5C 170.111,119.245 164.778,120.245 159.5,121.5C 152.974,121.697 146.641,122.364 140.5,123.5C 122.799,124.888 105.132,124.388 87.5,122C 79.3524,120.451 71.6858,117.618 64.5,113.5C 64.5,112.833 64.5,112.167 64.5,111.5C 69.9359,107.018 76.2693,104.685 83.5,104.5C 89.0087,103.818 94.342,102.818 99.5,101.5 Z"/></g>
<g><path style="opacity:0.851" fill="#8dcecd" d="M 99.5,101.5 C 94.342,102.818 89.0087,103.818 83.5,104.5C 83.6107,103.883 83.944,103.383 84.5,103C 89.4814,102.252 94.4814,101.752 99.5,101.5 Z"/></g>
<g><path style="opacity:0.875" fill="#75c3c3" d="M 155.5,102.5 C 149.819,102.365 144.152,102.032 138.5,101.5C 138.818,106.032 138.485,110.366 137.5,114.5C 137.5,109.833 137.5,105.167 137.5,100.5C 143.712,100.523 149.712,101.19 155.5,102.5 Z"/></g>
<g><path style="opacity:0.941" fill="#b4dede" d="M 156.5,102.5 C 159.187,102.336 161.854,102.503 164.5,103C 165.056,103.383 165.389,103.883 165.5,104.5C 162.345,104.01 159.345,103.344 156.5,102.5 Z"/></g>
<g><path style="opacity:0.89" fill="#a1d6d6" d="M 100.5,101.5 C 104.298,100.517 108.298,100.183 112.5,100.5C 112.5,105.167 112.5,109.833 112.5,114.5C 111.515,110.366 111.182,106.032 111.5,101.5C 107.833,101.5 104.167,101.5 100.5,101.5 Z"/></g>
<g><path style="opacity:0.858" fill="#addcdc" d="M 63.5,102.5 C 63.19,105.713 63.5233,108.713 64.5,111.5C 64.5,112.167 64.5,112.833 64.5,113.5C 63.5318,115.607 63.1984,117.941 63.5,120.5C 62.1667,114.5 62.1667,108.5 63.5,102.5 Z"/></g>
<g><path style="opacity:0.957" fill="#c0e3e3" d="M 181.5,115.5 C 179.967,117.245 177.967,118.245 175.5,118.5C 177.033,116.755 179.033,115.755 181.5,115.5 Z"/></g>
<g><path style="opacity:0.937" fill="#72c2c2" d="M 159.5,121.5 C 153.416,123.177 147.082,123.844 140.5,123.5C 146.641,122.364 152.974,121.697 159.5,121.5 Z"/></g>
<g><path style="opacity:0.961" fill="#c8e7e7" d="M 70.5,126.5 C 74.506,127.222 78.506,128.055 82.5,129C 83.056,129.383 83.3893,129.883 83.5,130.5C 78.8423,129.911 74.509,128.578 70.5,126.5 Z"/></g>
<g><path style="opacity:0.953" fill="#63b9b9" d="M 173.5,128.5 C 173.389,129.117 173.056,129.617 172.5,130C 165.622,131.883 158.622,132.716 151.5,132.5C 158.73,131.272 166.064,129.939 173.5,128.5 Z"/></g>
<g><path style="opacity:0.894" fill="#a7d9d9" d="M 89.5,131.5 C 95.6985,131.652 101.699,132.318 107.5,133.5C 101.261,133.724 95.2614,133.057 89.5,131.5 Z"/></g>
<g><path style="opacity:0.973" fill="#85cbcb" d="M 111.5,134.5 C 112.494,144.987 112.828,155.654 112.5,166.5C 120.833,166.5 129.167,166.5 137.5,166.5C 129.016,167.493 120.349,167.826 111.5,167.5C 111.5,156.5 111.5,145.5 111.5,134.5 Z"/></g>
</svg>
