<?xml version="1.0" encoding="UTF-8"?>
<!DOCTYPE svg PUBLIC "-//W3C//DTD SVG 1.1//EN" "http://www.w3.org/Graphics/SVG/1.1/DTD/svg11.dtd">
<svg xmlns="http://www.w3.org/2000/svg" version="1.1" width="250px" height="250px" style="shape-rendering:geometricPrecision; text-rendering:geometricPrecision; image-rendering:optimizeQuality; fill-rule:evenodd; clip-rule:evenodd" xmlns:xlink="http://www.w3.org/1999/xlink">
<g><path style="opacity:0.568" fill="#060606" d="M -0.5,143.5 C -0.5,141.833 -0.5,140.167 -0.5,138.5C 4.63186,129.285 12.2985,126.451 22.5,130C 30.7075,134.603 39.0408,138.937 47.5,143C 56.1961,144.812 63.8627,142.812 70.5,137C 80.488,127.519 89.1546,117.019 96.5,105.5C 92.0023,103.556 87.3356,102.223 82.5,101.5C 81.803,105.377 81.1363,109.21 80.5,113C 74.8777,112.352 69.2111,111.518 63.5,110.5C 64.93,117.957 67.2633,125.123 70.5,132C 69.8621,135.293 67.8621,136.293 64.5,135C 51.8215,124.362 43.3215,111.195 39,95.5C 51.5852,83.4554 66.4185,75.4554 83.5,71.5C 83.8962,66.6573 85.2295,62.1573 87.5,58C 99.2413,54.1974 110.908,50.1974 122.5,46C 131.767,38.7359 140.434,30.7359 148.5,22C 155.344,20.1974 157.011,22.5308 153.5,29C 169.584,22.3637 186.25,17.197 203.5,13.5C 207.848,15.06 208.515,17.56 205.5,21C 194.889,27.9449 184.556,35.2782 174.5,43C 188.594,43.0342 202.594,43.7009 216.5,45C 217.935,47.2672 217.602,49.2672 215.5,51C 208.554,53.8061 201.888,57.1394 195.5,61C 211.798,68.4746 224.798,79.6412 234.5,94.5C 234.225,96.6089 233.058,97.9422 231,98.5C 227.472,97.5765 223.972,96.5765 220.5,95.5C 220.167,95.8333 219.833,96.1667 219.5,96.5C 225.578,115.112 227.412,134.112 225,153.5C 223.806,155.525 222.306,155.859 220.5,154.5C 221.383,165.053 218.717,174.719 212.5,183.5C 210.051,184.91 207.884,184.576 206,182.5C 202.204,172.459 203.037,162.792 208.5,153.5C 208.154,152.304 207.654,152.304 207,153.5C 203.467,158.6 201.634,164.266 201.5,170.5C 202.589,176.908 203.756,183.241 205,189.5C 190.996,209.745 171.83,221.079 147.5,223.5C 142.571,228.752 137.737,228.752 133,223.5C 132.5,225.333 131.333,226.5 129.5,227C 92.9536,229.135 63.4536,215.968 41,187.5C 34.1025,176.871 29.2692,165.371 26.5,153C 26.4393,151.289 27.1059,149.956 28.5,149C 23.1149,142.969 16.4482,140.302 8.5,141C 6.22327,144.422 3.22327,145.256 -0.5,143.5 Z M 100.5,94.5 C 101.552,94.3505 102.552,94.5172 103.5,95C 102.213,96.4095 101.046,97.9095 100,99.5C 99.3603,97.735 99.5269,96.0683 100.5,94.5 Z M 149.5,99.5 C 160.514,97.9838 166.514,102.65 167.5,113.5C 167.449,117.821 166.282,121.821 164,125.5C 149.622,142.6 133.455,157.767 115.5,171C 105.586,178.912 97.0861,188.078 90,198.5C 88.3921,201.382 87.0587,204.382 86,207.5C 61.5753,196.908 44.4086,179.242 34.5,154.5C 34.8333,154.167 35.1667,153.833 35.5,153.5C 54.1266,162.543 70.96,159.877 86,145.5C 87.7497,148.246 88.7497,151.246 89,154.5C 90.4733,156.007 92.3066,156.674 94.5,156.5C 105.79,152.529 117.123,148.529 128.5,144.5C 131.364,143.242 132.03,141.242 130.5,138.5C 127.995,136.747 125.329,135.247 122.5,134C 124.906,131.418 124.906,128.752 122.5,126C 126.775,112.224 135.775,103.391 149.5,99.5 Z M 211.5,147.5 C 214.462,139.458 216.296,139.791 217,148.5C 215.301,147.594 213.467,147.261 211.5,147.5 Z M 162.5,162.5 C 162.573,164.027 161.906,165.027 160.5,165.5C 160.427,163.973 161.094,162.973 162.5,162.5 Z M 160.5,165.5 C 154.346,176.484 149.846,188.15 147,200.5C 146.667,197.5 146.333,194.5 146,191.5C 144.644,190.62 143.144,190.286 141.5,190.5C 147.481,181.859 153.814,173.525 160.5,165.5 Z"/></g>
<g><path style="opacity:0.536" fill="#060606" d="M 96.5,21.5 C 100.846,21.3343 105.179,21.501 109.5,22C 112.588,23.3356 113.588,25.5023 112.5,28.5C 84.9004,35.5371 62.4004,50.2037 45,72.5C 40.5536,79.0583 36.8869,86.0583 34,93.5C 31.9592,94.4231 29.7925,94.7564 27.5,94.5C 27.67,93.1779 27.3366,92.0113 26.5,91C 38.4782,56.1878 61.8115,33.0211 96.5,21.5 Z"/></g>
<g><path style="opacity:1" fill="#4d4d4d" d="M 187.5,24.5 C 186.833,24.8333 186.167,25.1667 185.5,25.5C 184.5,24.5 183.5,23.5 182.5,22.5C 189.202,19.91 196.202,18.41 203.5,18C 198.032,19.9029 192.699,22.0696 187.5,24.5 Z"/></g>
<g><path style="opacity:0.988" fill="#b8b8b8" d="M 104.5,26.5 C 101.848,26.4095 99.5145,27.0762 97.5,28.5C 95.3792,28.3253 93.3792,28.6586 91.5,29.5C 90.791,28.596 89.791,28.2627 88.5,28.5C 95.1584,24.6345 102.158,23.8012 109.5,26C 107.866,26.4935 106.199,26.6602 104.5,26.5 Z"/></g>
<g><path style="opacity:1" fill="#8c8c8c" d="M 182.5,22.5 C 183.5,23.5 184.5,24.5 185.5,25.5C 181.944,26.7229 178.611,28.3896 175.5,30.5C 175.5,29.5 175.5,28.5 175.5,27.5C 177.346,27.7778 178.68,27.1112 179.5,25.5C 177.674,25.0798 175.674,25.0798 173.5,25.5C 176.254,24.0541 179.254,23.0541 182.5,22.5 Z"/></g>
<g><path style="opacity:0.998" fill="#444444" d="M 104.5,26.5 C 102.485,27.9238 100.152,28.5905 97.5,28.5C 99.5145,27.0762 101.848,26.4095 104.5,26.5 Z"/></g>
<g><path style="opacity:1" fill="#cacaca" d="M 175.5,30.5 C 174.395,31.6005 173.062,32.2671 171.5,32.5C 171.189,31.5222 170.522,30.8555 169.5,30.5C 167.833,31.1667 166.167,31.8333 164.5,32.5C 162.929,31.6906 161.262,31.3573 159.5,31.5C 163.844,28.9346 168.51,26.9346 173.5,25.5C 175.674,25.0798 177.674,25.0798 179.5,25.5C 178.68,27.1112 177.346,27.7778 175.5,27.5C 175.5,28.5 175.5,29.5 175.5,30.5 Z"/></g>
<g><path style="opacity:0.992" fill="#999999" d="M 149.5,29.5 C 148.5,30.1667 147.5,30.8333 146.5,31.5C 145.833,31.5 145.167,31.5 144.5,31.5C 146.461,29.0365 148.628,26.7032 151,24.5C 151.182,26.3302 150.682,27.9969 149.5,29.5 Z"/></g>
<g><path style="opacity:0.996" fill="#dddddd" d="M 88.5,28.5 C 89.791,28.2627 90.791,28.596 91.5,29.5C 83.375,32.6258 75.7083,36.6258 68.5,41.5C 67.6618,41.1583 67.3284,40.4916 67.5,39.5C 73.7885,34.5615 80.7885,30.8949 88.5,28.5 Z"/></g>
<g><path style="opacity:0.984" fill="#4d4d4d" d="M 97.5,28.5 C 79.0384,36.2388 62.705,47.2388 48.5,61.5C 54.1728,53.8272 60.8394,47.1606 68.5,41.5C 75.7083,36.6258 83.375,32.6258 91.5,29.5C 93.3792,28.6586 95.3792,28.3253 97.5,28.5 Z"/></g>
<g><path style="opacity:0.982" fill="#484848" d="M 149.5,29.5 C 148.424,32.6484 147.091,35.6484 145.5,38.5C 145.5,38.8333 145.5,39.1667 145.5,39.5C 144.127,39.6567 142.793,39.49 141.5,39C 143.415,36.6004 145.081,34.1004 146.5,31.5C 147.5,30.8333 148.5,30.1667 149.5,29.5 Z"/></g>
<g><path style="opacity:1" fill="#1f1f1f" d="M 187.5,24.5 C 187.721,25.7348 188.388,26.7348 189.5,27.5C 187.424,29.2877 185.257,30.9544 183,32.5C 181.915,31.7069 180.748,31.0402 179.5,30.5C 178.304,30.8457 178.304,31.3457 179.5,32C 178.175,31.8516 177.008,32.0183 176,32.5C 173.25,37.3464 169.75,42.1797 165.5,47C 166.793,47.49 168.127,47.6567 169.5,47.5C 166.713,48.4767 163.713,48.81 160.5,48.5C 160.218,47.2223 159.551,46.2223 158.5,45.5C 162.629,41.2706 166.962,37.2706 171.5,33.5C 171.5,33.1667 171.5,32.8333 171.5,32.5C 173.062,32.2671 174.395,31.6005 175.5,30.5C 178.611,28.3896 181.944,26.7229 185.5,25.5C 186.167,25.1667 186.833,24.8333 187.5,24.5 Z"/></g>
<g><path style="opacity:1" fill="#454545" d="M 171.5,33.5 C 166.962,37.2706 162.629,41.2706 158.5,45.5C 157.624,45.6309 156.957,45.2975 156.5,44.5C 160.633,39.605 165.633,35.9384 171.5,33.5 Z"/></g>
<g><path style="opacity:0.91" fill="#747474" d="M 177.5,47.5 C 189.34,46.1755 201.34,46.1755 213.5,47.5C 213.043,48.2975 212.376,48.6309 211.5,48.5C 201.347,47.5058 191.014,47.1724 180.5,47.5C 179.5,47.5 178.5,47.5 177.5,47.5 Z"/></g>
<g><path style="opacity:1" fill="#c6c6c6" d="M 144.5,31.5 C 145.167,31.5 145.833,31.5 146.5,31.5C 145.081,34.1004 143.415,36.6004 141.5,39C 142.793,39.49 144.127,39.6567 145.5,39.5C 141.424,41.7488 137.091,43.7488 132.5,45.5C 130.183,46.8198 128.183,48.4864 126.5,50.5C 125.817,50.1373 125.15,49.8039 124.5,49.5C 131.439,43.8987 138.106,37.8987 144.5,31.5 Z"/></g>
<g><path style="opacity:1" fill="#c3c3c3" d="M 67.5,39.5 C 67.3284,40.4916 67.6618,41.1583 68.5,41.5C 60.8394,47.1606 54.1728,53.8272 48.5,61.5C 45.6007,64.9516 42.9341,68.6183 40.5,72.5C 39.8333,72.5 39.5,72.1667 39.5,71.5C 46.3115,58.6845 55.6448,48.0178 67.5,39.5 Z"/></g>
<g><path style="opacity:1" fill="#222222" d="M 209.5,48.5 C 204.855,51.8262 199.855,54.6595 194.5,57C 192.234,58.4264 190.568,60.2598 189.5,62.5C 187.447,62.5979 185.78,61.9313 184.5,60.5C 188.457,57.5565 192.457,54.5565 196.5,51.5C 200.681,50.3396 205.015,49.3396 209.5,48.5 Z"/></g>
<g><path style="opacity:1" fill="#434343" d="M 196.5,51.5 C 192.457,54.5565 188.457,57.5565 184.5,60.5C 182.632,59.7368 180.965,58.7368 179.5,57.5C 184.667,54.3317 190.334,52.3317 196.5,51.5 Z"/></g>
<g><path style="opacity:1" fill="#d3d3d3" d="M 124.5,49.5 C 124.013,50.4734 123.513,51.4734 123,52.5C 120.871,51.1373 120.371,51.4706 121.5,53.5C 119.887,54.4274 118.221,55.2607 116.5,56C 117.094,56.4643 117.761,56.631 118.5,56.5C 114.833,57.8333 111.167,59.1667 107.5,60.5C 106.833,60.5 106.167,60.5 105.5,60.5C 101.441,61.141 97.608,62.4743 94,64.5C 92.5936,63.5862 91.0936,62.9195 89.5,62.5C 89.5774,61.2502 90.244,60.4169 91.5,60C 102.549,56.5947 113.549,53.0947 124.5,49.5 Z"/></g>
<g><path style="opacity:1" fill="#5a595a" d="M 141.5,59.5 C 141.631,60.3764 141.298,61.0431 140.5,61.5C 135.23,60.5488 129.897,60.2154 124.5,60.5C 122.486,60.3915 120.82,61.0582 119.5,62.5C 117.314,61.7302 115.148,60.7302 113,59.5C 111.234,60.2335 109.401,60.5668 107.5,60.5C 111.167,59.1667 114.833,57.8333 118.5,56.5C 123.114,55.4498 127.78,55.2832 132.5,56C 135.327,57.6636 138.327,58.8303 141.5,59.5 Z"/></g>
<g><path style="opacity:1" fill="#444444" d="M 177.5,58.5 C 177.5,59.5 177.5,60.5 177.5,61.5C 175.94,61.4809 174.44,61.1476 173,60.5C 171.449,62.894 169.282,64.2273 166.5,64.5C 162.144,63.4893 158.144,61.6559 154.5,59C 162.133,56.2163 169.8,56.0497 177.5,58.5 Z"/></g>
<g><path style="opacity:1" fill="#2f232f" d="M 119.5,62.5 C 117.668,63.2485 116.001,64.2485 114.5,65.5C 113.609,66.1098 112.609,66.4431 111.5,66.5C 107.199,63.2044 103.699,63.8711 101,68.5C 99.187,67.3909 98.3537,68.0576 98.5,70.5C 100.099,70.2322 101.432,70.5655 102.5,71.5C 100.632,72.2632 98.9649,73.2632 97.5,74.5C 96.1667,74.5 94.8333,74.5 93.5,74.5C 93.7706,72.5695 94.7706,71.2362 96.5,70.5C 96.5,69.5 96.5,68.5 96.5,67.5C 98.9368,65.0165 101.937,63.6832 105.5,63.5C 105.5,62.5 105.5,61.5 105.5,60.5C 106.167,60.5 106.833,60.5 107.5,60.5C 109.401,60.5668 111.234,60.2335 113,59.5C 115.148,60.7302 117.314,61.7302 119.5,62.5 Z"/></g>
<g><path style="opacity:1" fill="#8a8a8a" d="M 141.5,59.5 C 143.022,60.1909 144.022,61.3576 144.5,63C 143.993,65.5411 143.326,68.0411 142.5,70.5C 136.147,67.6603 130.147,64.327 124.5,60.5C 129.897,60.2154 135.23,60.5488 140.5,61.5C 141.298,61.0431 141.631,60.3764 141.5,59.5 Z"/></g>
<g><path style="opacity:1" fill="#5c5c5c" d="M 177.5,58.5 C 177.833,58.5 178.167,58.5 178.5,58.5C 178.796,60.403 179.463,62.0697 180.5,63.5C 180.987,64.4734 181.487,65.4734 182,66.5C 184.326,68.0657 186.492,69.7324 188.5,71.5C 185.508,69.6646 183.342,70.3312 182,73.5C 180.667,72.1667 179.333,70.8333 178,69.5C 177.617,70.056 177.117,70.3893 176.5,70.5C 175.518,69.8592 174.518,69.1925 173.5,68.5C 172.893,68.6236 172.56,68.9569 172.5,69.5C 170.475,67.8036 168.475,66.137 166.5,64.5C 169.282,64.2273 171.449,62.894 173,60.5C 174.44,61.1476 175.94,61.4809 177.5,61.5C 177.5,60.5 177.5,59.5 177.5,58.5 Z"/></g>
<g><path style="opacity:1" fill="#383738" d="M 105.5,60.5 C 105.5,61.5 105.5,62.5 105.5,63.5C 101.937,63.6832 98.9368,65.0165 96.5,67.5C 95.2921,66.7659 93.9587,66.4326 92.5,66.5C 92.5,67.8333 92.5,69.1667 92.5,70.5C 93.8333,70.5 95.1667,70.5 96.5,70.5C 94.7706,71.2362 93.7706,72.5695 93.5,74.5C 92.609,73.8902 91.609,73.5569 90.5,73.5C 90.7157,70.5683 90.049,67.9017 88.5,65.5C 88.685,64.4163 89.0183,63.4163 89.5,62.5C 91.0936,62.9195 92.5936,63.5862 94,64.5C 97.608,62.4743 101.441,61.141 105.5,60.5 Z"/></g>
<g><path style="opacity:1" fill="#45173e" d="M 111.5,66.5 C 108.696,68.4046 105.696,70.0713 102.5,71.5C 101.432,70.5655 100.099,70.2322 98.5,70.5C 98.3537,68.0576 99.187,67.3909 101,68.5C 103.699,63.8711 107.199,63.2044 111.5,66.5 Z"/></g>
<g><path style="opacity:1" fill="#f1f1f1" d="M 171.5,32.5 C 171.5,32.8333 171.5,33.1667 171.5,33.5C 165.633,35.9384 160.633,39.605 156.5,44.5C 156.957,45.2975 157.624,45.6309 158.5,45.5C 159.551,46.2223 160.218,47.2223 160.5,48.5C 161.078,50.4435 162.078,50.7768 163.5,49.5C 167.028,50.9213 170.694,51.588 174.5,51.5C 174.5,50.5 174.5,49.5 174.5,48.5C 176.735,48.7947 178.735,48.4614 180.5,47.5C 191.014,47.1724 201.347,47.5058 211.5,48.5C 210.833,48.5 210.167,48.5 209.5,48.5C 205.015,49.3396 200.681,50.3396 196.5,51.5C 190.334,52.3317 184.667,54.3317 179.5,57.5C 178.833,57.5 178.5,57.8333 178.5,58.5C 178.167,58.5 177.833,58.5 177.5,58.5C 169.8,56.0497 162.133,56.2163 154.5,59C 158.144,61.6559 162.144,63.4893 166.5,64.5C 168.475,66.137 170.475,67.8036 172.5,69.5C 178.088,74.0813 182.088,79.748 184.5,86.5C 183.665,87.9432 182.332,88.9432 180.5,89.5C 179.125,91.1634 179.458,92.4968 181.5,93.5C 179.784,94.5487 178.451,95.882 177.5,97.5C 177.5,96.8333 177.167,96.5 176.5,96.5C 174.484,91.3123 171.15,87.1457 166.5,84C 159.085,80.3067 151.585,76.8067 144,73.5C 139.928,75.7867 135.761,77.9533 131.5,80C 128.445,80.6342 125.445,80.4675 122.5,79.5C 118.154,79.3343 113.821,79.501 109.5,80C 106.478,80.0984 103.811,80.9318 101.5,82.5C 92.8621,83.7641 84.5287,85.7641 76.5,88.5C 73.5923,89.2872 70.9256,90.6205 68.5,92.5C 67.6618,92.8417 67.3284,93.5084 67.5,94.5C 62.8283,94.8314 58.495,96.1648 54.5,98.5C 53.7611,98.631 53.0944,98.4643 52.5,98C 51.9461,95.3878 52.6128,92.8878 54.5,90.5C 54.1373,89.8165 53.8039,89.1499 53.5,88.5C 56.4658,86.0116 59.7991,84.0116 63.5,82.5C 65.8194,83.167 68.1527,83.3336 70.5,83C 75.8498,80.4788 81.1831,78.3122 86.5,76.5C 87.9952,76.0113 89.3285,75.3446 90.5,74.5C 90.5,74.1667 90.5,73.8333 90.5,73.5C 91.609,73.5569 92.609,73.8902 93.5,74.5C 94.8333,74.5 96.1667,74.5 97.5,74.5C 103.126,73.1916 108.459,71.0249 113.5,68C 114.252,67.3292 114.586,66.4959 114.5,65.5C 116.001,64.2485 117.668,63.2485 119.5,62.5C 120.82,61.0582 122.486,60.3915 124.5,60.5C 130.147,64.327 136.147,67.6603 142.5,70.5C 143.326,68.0411 143.993,65.5411 144.5,63C 144.022,61.3576 143.022,60.1909 141.5,59.5C 138.327,58.8303 135.327,57.6636 132.5,56C 127.78,55.2832 123.114,55.4498 118.5,56.5C 117.761,56.631 117.094,56.4643 116.5,56C 118.221,55.2607 119.887,54.4274 121.5,53.5C 120.371,51.4706 120.871,51.1373 123,52.5C 123.513,51.4734 124.013,50.4734 124.5,49.5C 125.15,49.8039 125.817,50.1373 126.5,50.5C 128.183,48.4864 130.183,46.8198 132.5,45.5C 137.091,43.7488 141.424,41.7488 145.5,39.5C 145.5,39.1667 145.5,38.8333 145.5,38.5C 150.167,36.1667 154.833,33.8333 159.5,31.5C 161.262,31.3573 162.929,31.6906 164.5,32.5C 166.167,31.8333 167.833,31.1667 169.5,30.5C 170.522,30.8555 171.189,31.5222 171.5,32.5 Z"/></g>
<g><path style="opacity:1" fill="#b3b3b3" d="M 169.5,47.5 C 172.167,47.5 174.833,47.5 177.5,47.5C 178.5,47.5 179.5,47.5 180.5,47.5C 178.735,48.4614 176.735,48.7947 174.5,48.5C 174.5,49.5 174.5,50.5 174.5,51.5C 170.694,51.588 167.028,50.9213 163.5,49.5C 162.078,50.7768 161.078,50.4435 160.5,48.5C 163.713,48.81 166.713,48.4767 169.5,47.5 Z"/></g>
<g><path style="opacity:1" fill="#cac3ce" d="M 96.5,67.5 C 96.5,68.5 96.5,69.5 96.5,70.5C 95.1667,70.5 93.8333,70.5 92.5,70.5C 92.5,69.1667 92.5,67.8333 92.5,66.5C 93.9587,66.4326 95.2921,66.7659 96.5,67.5 Z"/></g>
<g><path style="opacity:1" fill="#c0c0c0" d="M 179.5,57.5 C 180.965,58.7368 182.632,59.7368 184.5,60.5C 185.78,61.9313 187.447,62.5979 189.5,62.5C 193.889,64.1916 198.222,66.1916 202.5,68.5C 202.33,69.8221 202.663,70.9887 203.5,72C 201.893,73.049 201.227,74.549 201.5,76.5C 199.745,75.9278 198.078,75.0945 196.5,74C 193.118,69.8067 189.118,66.3067 184.5,63.5C 183.042,62.218 181.708,62.218 180.5,63.5C 179.463,62.0697 178.796,60.403 178.5,58.5C 178.5,57.8333 178.833,57.5 179.5,57.5 Z"/></g>
<g><path style="opacity:1" fill="#d1afdf" d="M 114.5,65.5 C 114.586,66.4959 114.252,67.3292 113.5,68C 108.459,71.0249 103.126,73.1916 97.5,74.5C 98.9649,73.2632 100.632,72.2632 102.5,71.5C 105.696,70.0713 108.696,68.4046 111.5,66.5C 112.609,66.4431 113.609,66.1098 114.5,65.5 Z"/></g>
<g><path style="opacity:1" fill="#e8e8e8" d="M 201.5,76.5 C 202.802,78.8218 204.802,80.1551 207.5,80.5C 209.778,81.1846 211.112,82.1846 211.5,83.5C 208.061,83.7471 204.728,83.4137 201.5,82.5C 198.072,77.7363 193.738,74.0696 188.5,71.5C 186.492,69.7324 184.326,68.0657 182,66.5C 181.487,65.4734 180.987,64.4734 180.5,63.5C 181.708,62.218 183.042,62.218 184.5,63.5C 189.118,66.3067 193.118,69.8067 196.5,74C 198.078,75.0945 199.745,75.9278 201.5,76.5 Z"/></g>
<g><path style="opacity:0.969" fill="#707070" d="M 39.5,71.5 C 39.5,72.1667 39.8333,72.5 40.5,72.5C 37.4099,77.6794 34.5765,83.0128 32,88.5C 33.3884,82.3857 35.8884,76.719 39.5,71.5 Z"/></g>
<g><path style="opacity:1" fill="#7d7d7d" d="M 90.5,74.5 C 89.3285,75.3446 87.9952,76.0113 86.5,76.5C 83.8333,76.5 81.1667,76.5 78.5,76.5C 82.2095,74.8643 86.2095,74.1977 90.5,74.5 Z"/></g>
<g><path style="opacity:1" fill="#a8a8a8" d="M 202.5,68.5 C 205.871,70.8458 209.204,73.1792 212.5,75.5C 211.5,75.5 210.5,75.5 209.5,75.5C 209.608,77.5138 208.942,79.1805 207.5,80.5C 204.802,80.1551 202.802,78.8218 201.5,76.5C 201.227,74.549 201.893,73.049 203.5,72C 202.663,70.9887 202.33,69.8221 202.5,68.5 Z"/></g>
<g><path style="opacity:1" fill="#c6c6c6" d="M 78.5,76.5 C 81.1667,76.5 83.8333,76.5 86.5,76.5C 81.1831,78.3122 75.8498,80.4788 70.5,83C 68.1527,83.3336 65.8194,83.167 63.5,82.5C 68.1049,79.7376 73.1049,77.7376 78.5,76.5 Z"/></g>
<g><path style="opacity:1" fill="#5f5f5f" d="M 176.5,96.5 C 175.527,95.2086 174.527,95.2086 173.5,96.5C 172.231,94.8199 170.564,93.6532 168.5,93C 163.829,92.4625 159.162,91.9625 154.5,91.5C 153.504,91.5858 152.671,91.2524 152,90.5C 150.69,88.8678 150.19,87.2012 150.5,85.5C 147.457,87.615 144.124,88.9483 140.5,89.5C 140.881,91.9418 140.214,92.6085 138.5,91.5C 138.891,92.7185 138.224,93.5518 136.5,94C 134.527,94.4955 132.527,94.6621 130.5,94.5C 129.965,91.7615 130.965,89.9282 133.5,89C 133.619,87.7188 133.119,86.5521 132,85.5C 129.253,87.4925 127.086,89.9925 125.5,93C 124.584,93.3742 123.75,93.8742 123,94.5C 122.833,94.1667 122.667,93.8333 122.5,93.5C 123.64,91.5266 124.973,89.6933 126.5,88C 125.594,86.3005 125.261,84.4672 125.5,82.5C 124.5,82.5 123.5,82.5 122.5,82.5C 122.5,81.5 122.5,80.5 122.5,79.5C 125.445,80.4675 128.445,80.6342 131.5,80C 135.761,77.9533 139.928,75.7867 144,73.5C 151.585,76.8067 159.085,80.3067 166.5,84C 171.15,87.1457 174.484,91.3123 176.5,96.5 Z"/></g>
<g><path style="opacity:1" fill="#cecece" d="M 212.5,75.5 C 214.833,77.1667 216.833,79.1667 218.5,81.5C 217.952,84.0838 216.285,85.0838 213.5,84.5C 212.833,84.5 212.167,84.5 211.5,84.5C 211.5,84.1667 211.5,83.8333 211.5,83.5C 211.112,82.1846 209.778,81.1846 207.5,80.5C 208.942,79.1805 209.608,77.5138 209.5,75.5C 210.5,75.5 211.5,75.5 212.5,75.5 Z"/></g>
<g><path style="opacity:1" fill="#373737" d="M 188.5,71.5 C 193.738,74.0696 198.072,77.7363 201.5,82.5C 201.279,83.7348 200.612,84.7348 199.5,85.5C 200.035,87.2705 200.869,87.6039 202,86.5C 202.186,89.0356 202.686,91.369 203.5,93.5C 204.167,96.1667 204.833,98.8333 205.5,101.5C 205.17,104.157 204.837,106.824 204.5,109.5C 205.716,113.084 206.383,116.751 206.5,120.5C 204.938,120.267 203.605,119.6 202.5,118.5C 200.108,117.258 200.275,115.925 203,114.5C 203.303,110.471 203.803,106.471 204.5,102.5C 201.823,95.6596 199.489,88.9929 197.5,82.5C 194.736,80.2975 192.736,81.1309 191.5,85C 194.39,86.8918 194.056,87.7251 190.5,87.5C 187.006,80.8333 182.34,75.1666 176.5,70.5C 177.117,70.3893 177.617,70.056 178,69.5C 179.333,70.8333 180.667,72.1667 182,73.5C 183.342,70.3312 185.508,69.6646 188.5,71.5 Z"/></g>
<g><path style="opacity:1" fill="#686868" d="M 201.5,82.5 C 204.728,83.4137 208.061,83.7471 211.5,83.5C 211.5,83.8333 211.5,84.1667 211.5,84.5C 210.761,84.369 210.094,84.5357 209.5,85C 211.208,87.0435 213.208,88.7101 215.5,90C 214.584,90.2784 213.918,90.7784 213.5,91.5C 210.337,89.9369 207.17,88.2702 204,86.5C 203.503,88.8098 203.337,91.1432 203.5,93.5C 202.686,91.369 202.186,89.0356 202,86.5C 200.869,87.6039 200.035,87.2705 199.5,85.5C 200.612,84.7348 201.279,83.7348 201.5,82.5 Z"/></g>
<g><path style="opacity:1" fill="#212121" d="M 202.5,118.5 C 201.238,118.907 199.905,119.24 198.5,119.5C 199.167,120.167 199.833,120.833 200.5,121.5C 198.548,122.103 196.548,121.77 194.5,120.5C 193.817,120.863 193.15,121.196 192.5,121.5C 193.15,119.565 193.483,117.565 193.5,115.5C 197.223,115.642 198.056,114.309 196,111.5C 195.187,106.185 194.521,100.852 194,95.5C 193.304,92.5624 192.138,89.8957 190.5,87.5C 194.056,87.7251 194.39,86.8918 191.5,85C 192.736,81.1309 194.736,80.2975 197.5,82.5C 199.489,88.9929 201.823,95.6596 204.5,102.5C 203.803,106.471 203.303,110.471 203,114.5C 200.275,115.925 200.108,117.258 202.5,118.5 Z"/></g>
<g><path style="opacity:1" fill="#313131" d="M 101.5,82.5 C 103.258,83.9985 105.091,84.3319 107,83.5C 109.644,87.4527 112.144,87.286 114.5,83C 116.319,82.2172 117.652,82.7172 118.5,84.5C 116.528,86.4153 115.528,88.7486 115.5,91.5C 113.833,91.5 112.167,91.5 110.5,91.5C 110.536,95.1075 108.869,97.4408 105.5,98.5C 106.557,96.0587 107.89,93.7254 109.5,91.5C 105.194,90.5766 100.861,90.5766 96.5,91.5C 96.7947,93.7354 96.4614,95.7354 95.5,97.5C 95.762,96.0222 95.4287,94.6888 94.5,93.5C 92.5781,92.289 90.7448,90.9557 89,89.5C 88.6848,90.9078 89.0181,92.2411 90,93.5C 92.1019,95.0948 93.6019,97.0948 94.5,99.5C 90.476,99.4971 86.476,99.1638 82.5,98.5C 80.5453,98.7245 78.8787,99.3911 77.5,100.5C 77.5323,98.3812 76.5323,97.0478 74.5,96.5C 74.8283,93.9956 76.1616,92.1622 78.5,91C 77.6195,90.2917 76.9528,89.4584 76.5,88.5C 84.5287,85.7641 92.8621,83.7641 101.5,82.5 Z"/></g>
<g><path style="opacity:1" fill="#484848" d="M 122.5,79.5 C 122.5,80.5 122.5,81.5 122.5,82.5C 123.5,82.5 124.5,82.5 125.5,82.5C 125.261,84.4672 125.594,86.3005 126.5,88C 124.973,89.6933 123.64,91.5266 122.5,93.5C 122.667,93.8333 122.833,94.1667 123,94.5C 123.75,93.8742 124.584,93.3742 125.5,93C 127.086,89.9925 129.253,87.4925 132,85.5C 133.119,86.5521 133.619,87.7188 133.5,89C 130.965,89.9282 129.965,91.7615 130.5,94.5C 132.527,94.6621 134.527,94.4955 136.5,94C 138.224,93.5518 138.891,92.7185 138.5,91.5C 140.214,92.6085 140.881,91.9418 140.5,89.5C 144.124,88.9483 147.457,87.615 150.5,85.5C 150.19,87.2012 150.69,88.8678 152,90.5C 152.671,91.2524 153.504,91.5858 154.5,91.5C 149.527,94.7143 144.36,95.7143 139,94.5C 135.934,95.7133 132.767,96.5466 129.5,97C 126.702,98.3052 124.035,99.8052 121.5,101.5C 120.833,101.333 120.167,101.167 119.5,101C 121.422,99.54 122.089,97.8733 121.5,96C 119.697,95.3632 118.364,94.1965 117.5,92.5C 115.974,92.9943 114.641,93.661 113.5,94.5C 108.662,99.3516 104.996,105.018 102.5,111.5C 101.833,111.833 101.167,112.167 100.5,112.5C 100.715,110.821 100.048,109.821 98.5,109.5C 100.711,105.685 103.045,102.019 105.5,98.5C 108.869,97.4408 110.536,95.1075 110.5,91.5C 112.167,91.5 113.833,91.5 115.5,91.5C 115.528,88.7486 116.528,86.4153 118.5,84.5C 117.652,82.7172 116.319,82.2172 114.5,83C 112.144,87.286 109.644,87.4527 107,83.5C 105.091,84.3319 103.258,83.9985 101.5,82.5C 103.811,80.9318 106.478,80.0984 109.5,80C 113.821,79.501 118.154,79.3343 122.5,79.5 Z"/></g>
<g><path style="opacity:1" fill="#c8c8c8" d="M 184.5,86.5 C 186.267,88.7916 187.267,91.4582 187.5,94.5C 187.662,96.5273 187.495,98.5273 187,100.5C 185.301,99.5939 183.467,99.2606 181.5,99.5C 182.01,102.388 181.344,104.721 179.5,106.5C 179.634,104.708 179.301,103.042 178.5,101.5C 178.567,100.041 178.234,98.7079 177.5,97.5C 178.451,95.882 179.784,94.5487 181.5,93.5C 179.458,92.4968 179.125,91.1634 180.5,89.5C 182.332,88.9432 183.665,87.9432 184.5,86.5 Z"/></g>
<g><path style="opacity:1" fill="#1f1f1f" d="M 211.5,84.5 C 212.167,84.5 212.833,84.5 213.5,84.5C 219.137,87.32 224.47,90.6533 229.5,94.5C 225.77,93.2027 221.936,92.2027 218,91.5C 216.615,91.5143 215.449,91.8476 214.5,92.5C 214.167,92.5 213.833,92.5 213.5,92.5C 213.5,92.1667 213.5,91.8333 213.5,91.5C 213.918,90.7784 214.584,90.2784 215.5,90C 213.208,88.7101 211.208,87.0435 209.5,85C 210.094,84.5357 210.761,84.369 211.5,84.5 Z"/></g>
<g><path style="opacity:1" fill="#656565" d="M 76.5,88.5 C 76.9528,89.4584 77.6195,90.2917 78.5,91C 76.1616,92.1622 74.8283,93.9956 74.5,96.5C 72.1184,95.6493 70.1184,94.316 68.5,92.5C 70.9256,90.6205 73.5923,89.2872 76.5,88.5 Z"/></g>
<g><path style="opacity:1" fill="#969696" d="M 218.5,81.5 C 222.753,84.6108 226.586,88.2775 230,92.5C 230.692,93.4368 230.525,94.1034 229.5,94.5C 224.47,90.6533 219.137,87.32 213.5,84.5C 216.285,85.0838 217.952,84.0838 218.5,81.5 Z"/></g>
<g><path style="opacity:1" fill="#909090" d="M 95.5,97.5 C 95.6716,98.4916 95.3382,99.1583 94.5,99.5C 93.6019,97.0948 92.1019,95.0948 90,93.5C 89.0181,92.2411 88.6848,90.9078 89,89.5C 90.7448,90.9557 92.5781,92.289 94.5,93.5C 95.4287,94.6888 95.762,96.0222 95.5,97.5 Z"/></g>
<g><path style="opacity:1" fill="#eaeaea" d="M 213.5,91.5 C 213.5,91.8333 213.5,92.1667 213.5,92.5C 212.617,94.9095 211.45,97.2429 210,99.5C 209.381,104.199 209.547,109.033 210.5,114C 210.167,115.833 209.833,117.667 209.5,119.5C 208.817,119.863 208.15,120.196 207.5,120.5C 207.844,113.918 207.177,107.584 205.5,101.5C 204.833,98.8333 204.167,96.1667 203.5,93.5C 203.337,91.1432 203.503,88.8098 204,86.5C 207.17,88.2702 210.337,89.9369 213.5,91.5 Z"/></g>
<g><path style="opacity:0.999" fill="#b8b8b8" d="M 53.5,88.5 C 53.8039,89.1499 54.1373,89.8165 54.5,90.5C 52.6128,92.8878 51.9461,95.3878 52.5,98C 53.0944,98.4643 53.7611,98.631 54.5,98.5C 54.1583,99.3382 53.4916,99.6716 52.5,99.5C 49.0878,98.9579 46.0878,97.6246 43.5,95.5C 46.4835,92.6742 49.8168,90.3409 53.5,88.5 Z"/></g>
<g><path style="opacity:1" fill="#cfcfcf" d="M 68.5,92.5 C 70.1184,94.316 72.1184,95.6493 74.5,96.5C 74.1667,98.8333 72.8333,100.167 70.5,100.5C 69.4706,98.4832 68.4706,96.4832 67.5,94.5C 67.3284,93.5084 67.6618,92.8417 68.5,92.5 Z"/></g>
<g><path style="opacity:1" fill="#2d2d2d" d="M 154.5,91.5 C 159.162,91.9625 163.829,92.4625 168.5,93C 170.564,93.6532 172.231,94.8199 173.5,96.5C 174.527,95.2086 175.527,95.2086 176.5,96.5C 177.167,96.5 177.5,96.8333 177.5,97.5C 178.234,98.7079 178.567,100.041 178.5,101.5C 174.531,99.8488 170.865,97.6822 167.5,95C 164.398,95.0762 161.398,94.9095 158.5,94.5C 149.944,96.6023 141.61,97.769 133.5,98C 127.02,101.65 121.687,106.484 117.5,112.5C 116.298,109.586 114.298,108.586 111.5,109.5C 112.343,105.14 113.676,100.973 115.5,97C 115.316,95.6244 114.649,94.7911 113.5,94.5C 114.641,93.661 115.974,92.9943 117.5,92.5C 118.364,94.1965 119.697,95.3632 121.5,96C 122.089,97.8733 121.422,99.54 119.5,101C 120.167,101.167 120.833,101.333 121.5,101.5C 124.035,99.8052 126.702,98.3052 129.5,97C 132.767,96.5466 135.934,95.7133 139,94.5C 144.36,95.7143 149.527,94.7143 154.5,91.5 Z"/></g>
<g><path style="opacity:1" fill="#848484" d="M 74.5,96.5 C 76.5323,97.0478 77.5323,98.3812 77.5,100.5C 77.5,101.5 77.5,102.5 77.5,103.5C 76.0387,102.314 74.7054,102.314 73.5,103.5C 72.1667,102.833 71.1667,101.833 70.5,100.5C 72.8333,100.167 74.1667,98.8333 74.5,96.5 Z"/></g>
<g><path style="opacity:0.994" fill="#181818" d="M 158.5,94.5 C 161.398,94.9095 164.398,95.0762 167.5,95C 170.865,97.6822 174.531,99.8488 178.5,101.5C 179.301,103.042 179.634,104.708 179.5,106.5C 179.5,107.833 179.5,109.167 179.5,110.5C 179.167,111.833 178.833,113.167 178.5,114.5C 176.692,113.093 174.692,111.926 172.5,111C 170.818,108.31 169.318,105.477 168,102.5C 164.784,99.678 161.617,97.0113 158.5,94.5 Z"/></g>
<g><path style="opacity:1" fill="#4f4f4f" d="M 67.5,94.5 C 68.4706,96.4832 69.4706,98.4832 70.5,100.5C 68.8071,101.804 67.1404,103.137 65.5,104.5C 65.8627,105.183 66.1961,105.85 66.5,106.5C 64.1667,106.5 61.8333,106.5 59.5,106.5C 59.5,107.5 59.5,108.5 59.5,109.5C 57.4141,105.676 55.7474,106.01 54.5,110.5C 53.4675,109.088 52.8008,107.422 52.5,105.5C 53.8165,103.482 53.8165,101.482 52.5,99.5C 53.4916,99.6716 54.1583,99.3382 54.5,98.5C 58.495,96.1648 62.8283,94.8314 67.5,94.5 Z"/></g>
<g><path style="opacity:1" fill="#b6b6b6" d="M 213.5,92.5 C 213.833,92.5 214.167,92.5 214.5,92.5C 215.038,94.1172 215.371,95.7839 215.5,97.5C 214.665,98.9432 213.332,99.9432 211.5,100.5C 212.5,101.333 213.5,102.167 214.5,103C 210.945,102.657 210.612,103.99 213.5,107C 211.342,108.312 211.009,109.978 212.5,112C 214.332,112.748 215.999,113.748 217.5,115C 212.907,114.095 211.24,115.928 212.5,120.5C 212.145,121.522 211.478,122.189 210.5,122.5C 208.973,122.573 207.973,121.906 207.5,120.5C 208.15,120.196 208.817,119.863 209.5,119.5C 209.833,117.667 210.167,115.833 210.5,114C 209.547,109.033 209.381,104.199 210,99.5C 211.45,97.2429 212.617,94.9095 213.5,92.5 Z"/></g>
<g><path style="opacity:1" fill="#7f7f7f" d="M 187.5,94.5 C 188.485,98.6344 188.818,102.968 188.5,107.5C 186.84,105.752 184.84,105.252 182.5,106C 182.833,106.333 183.167,106.667 183.5,107C 182.264,108.388 180.931,109.554 179.5,110.5C 179.5,109.167 179.5,107.833 179.5,106.5C 181.344,104.721 182.01,102.388 181.5,99.5C 183.467,99.2606 185.301,99.5939 187,100.5C 187.495,98.5273 187.662,96.5273 187.5,94.5 Z"/></g>
<g><path style="opacity:0.998" fill="#212121" d="M 43.5,95.5 C 46.0878,97.6246 49.0878,98.9579 52.5,99.5C 53.8165,101.482 53.8165,103.482 52.5,105.5C 52.8008,107.422 53.4675,109.088 54.5,110.5C 57.2092,116.19 59.8759,121.857 62.5,127.5C 60.1246,125.776 57.9579,123.776 56,121.5C 55.6667,119.833 55.3333,118.167 55,116.5C 52.1769,114.352 51.1769,111.685 52,108.5C 49.7497,107.292 47.583,105.959 45.5,104.5C 47.0777,103.702 48.7444,103.202 50.5,103C 48.6732,101.043 46.8399,99.8761 45,99.5C 44.3551,98.354 43.5217,97.354 42.5,96.5C 42.6236,95.8933 42.9569,95.56 43.5,95.5 Z"/></g>
<g><path style="opacity:1" fill="#b6b6b6" d="M 77.5,103.5 C 77.4824,109.601 76.149,109.601 73.5,103.5C 74.7054,102.314 76.0387,102.314 77.5,103.5 Z"/></g>
<g><path style="opacity:0.961" fill="#353535" d="M 70.5,100.5 C 71.1667,101.833 72.1667,102.833 73.5,103.5C 76.149,109.601 77.4824,109.601 77.5,103.5C 78.4614,105.265 78.7947,107.265 78.5,109.5C 74.3811,108.903 70.3811,107.903 66.5,106.5C 66.1961,105.85 65.8627,105.183 65.5,104.5C 67.1404,103.137 68.8071,101.804 70.5,100.5 Z"/></g>
<g><path style="opacity:1" fill="#8e8e8e" d="M 215.5,97.5 C 218.754,105.412 220.754,113.745 221.5,122.5C 221.663,124.857 221.497,127.19 221,129.5C 220.292,130.381 219.458,131.047 218.5,131.5C 216.547,127.88 213.881,124.88 210.5,122.5C 211.478,122.189 212.145,121.522 212.5,120.5C 211.24,115.928 212.907,114.095 217.5,115C 215.999,113.748 214.332,112.748 212.5,112C 211.009,109.978 211.342,108.312 213.5,107C 210.612,103.99 210.945,102.657 214.5,103C 213.5,102.167 212.5,101.333 211.5,100.5C 213.332,99.9432 214.665,98.9432 215.5,97.5 Z"/></g>
<g><path style="opacity:1" fill="#727272" d="M 205.5,101.5 C 207.177,107.584 207.844,113.918 207.5,120.5C 207.167,120.5 206.833,120.5 206.5,120.5C 206.383,116.751 205.716,113.084 204.5,109.5C 204.837,106.824 205.17,104.157 205.5,101.5 Z"/></g>
<g><path style="opacity:1" fill="#555555" d="M 188.5,107.5 C 188.768,109.099 188.434,110.432 187.5,111.5C 185.143,111.337 182.81,111.503 180.5,112C 182.208,113.51 183.874,115.01 185.5,116.5C 183.836,117.223 182.169,116.89 180.5,115.5C 178.935,120.299 176.602,124.633 173.5,128.5C 173.565,128.062 173.399,127.728 173,127.5C 170.815,129.54 168.315,130.874 165.5,131.5C 165.598,134.248 164.598,134.914 162.5,133.5C 166.472,129.224 169.139,124.224 170.5,118.5C 175.075,120.879 177.742,119.546 178.5,114.5C 178.833,113.167 179.167,111.833 179.5,110.5C 180.931,109.554 182.264,108.388 183.5,107C 183.167,106.667 182.833,106.333 182.5,106C 184.84,105.252 186.84,105.752 188.5,107.5 Z"/></g>
<g><path style="opacity:1" fill="#5a5a5a" d="M 117.5,112.5 C 116.659,114.379 116.325,116.379 116.5,118.5C 116.617,120.484 115.95,122.15 114.5,123.5C 116.375,124.409 117.708,125.743 118.5,127.5C 116.801,127.66 115.134,127.494 113.5,127C 113.491,125.27 113.158,123.437 112.5,121.5C 110.518,122.623 108.518,122.623 106.5,121.5C 109.374,120.319 112.207,118.986 115,117.5C 115.167,117 115.333,116.5 115.5,116C 113.672,114.337 112.005,112.504 110.5,110.5C 110.624,109.893 110.957,109.56 111.5,109.5C 114.298,108.586 116.298,109.586 117.5,112.5 Z"/></g>
<g><path style="opacity:1" fill="#c6c6c6" d="M 98.5,109.5 C 100.048,109.821 100.715,110.821 100.5,112.5C 94.6113,122.931 87.2779,132.264 78.5,140.5C 78.0618,140.565 77.7284,140.399 77.5,140C 80.3564,137.454 82.0231,134.287 82.5,130.5C 88.0874,123.641 93.4207,116.641 98.5,109.5 Z"/></g>
<g><path style="opacity:1" fill="#b4b4b4" d="M 59.5,109.5 C 60.4142,116.117 62.4142,122.45 65.5,128.5C 65.3333,128.833 65.1667,129.167 65,129.5C 64.2917,128.619 63.4584,127.953 62.5,127.5C 59.8759,121.857 57.2092,116.19 54.5,110.5C 55.7474,106.01 57.4141,105.676 59.5,109.5 Z"/></g>
<g><path style="opacity:0.98" fill="#343434" d="M 116.5,118.5 C 118.311,118.572 119.644,119.405 120.5,121C 119.678,123.434 119.344,125.934 119.5,128.5C 118.833,128.5 118.5,128.167 118.5,127.5C 117.708,125.743 116.375,124.409 114.5,123.5C 115.95,122.15 116.617,120.484 116.5,118.5 Z"/></g>
<g><path style="opacity:1" fill="#2a2a2a" d="M 202.5,118.5 C 203.605,119.6 204.938,120.267 206.5,120.5C 206.833,120.5 207.167,120.5 207.5,120.5C 207.973,121.906 208.973,122.573 210.5,122.5C 213.881,124.88 216.547,127.88 218.5,131.5C 218.328,132.492 218.662,133.158 219.5,133.5C 219.909,137.876 220.575,142.21 221.5,146.5C 219.924,143.648 218.424,140.648 217,137.5C 215.961,136.29 214.794,135.29 213.5,134.5C 211.487,132.635 209.154,130.968 206.5,129.5C 205.702,129.957 205.369,130.624 205.5,131.5C 201.602,128.204 197.269,125.37 192.5,123C 191.262,122.31 191.262,121.81 192.5,121.5C 193.15,121.196 193.817,120.863 194.5,120.5C 196.548,121.77 198.548,122.103 200.5,121.5C 199.833,120.833 199.167,120.167 198.5,119.5C 199.905,119.24 201.238,118.907 202.5,118.5 Z"/></g>
<g><path style="opacity:1" fill="#a6a6a6" d="M 106.5,121.5 C 108.518,122.623 110.518,122.623 112.5,121.5C 113.158,123.437 113.491,125.27 113.5,127C 115.134,127.494 116.801,127.66 118.5,127.5C 118.5,128.167 118.833,128.5 119.5,128.5C 119.38,129.586 118.713,130.253 117.5,130.5C 116.151,130.154 114.817,129.821 113.5,129.5C 109.774,127.645 106.441,125.312 103.5,122.5C 104.609,122.443 105.609,122.11 106.5,121.5 Z"/></g>
<g><path style="opacity:1" fill="#464646" d="M 103.5,122.5 C 106.441,125.312 109.774,127.645 113.5,129.5C 112.448,129.351 111.448,129.517 110.5,130C 112.407,131.756 114.407,133.256 116.5,134.5C 113.08,134.926 110.247,133.926 108,131.5C 106.553,131.945 105.22,132.612 104,133.5C 102.862,133.011 101.695,132.678 100.5,132.5C 101.949,128.634 104.616,127.467 108.5,129C 106.751,127.708 104.918,126.542 103,125.5C 102.26,124.251 102.427,123.251 103.5,122.5 Z"/></g>
<g><path style="opacity:1" fill="#828282" d="M 221.5,122.5 C 222.479,125.625 222.813,128.958 222.5,132.5C 221.209,132.263 220.209,132.596 219.5,133.5C 218.662,133.158 218.328,132.492 218.5,131.5C 219.458,131.047 220.292,130.381 221,129.5C 221.497,127.19 221.663,124.857 221.5,122.5 Z"/></g>
<g><path style="opacity:0.996" fill="#8c8c8c" d="M 16.5,132.5 C 15.1266,132.343 13.7932,132.51 12.5,133C 13.4158,133.278 14.0825,133.778 14.5,134.5C 11.7718,134.171 9.4385,134.837 7.5,136.5C 6.54163,136.953 5.7083,137.619 5,138.5C 5.68042,135.151 7.84708,132.984 11.5,132C 13.3869,131.22 15.0536,131.387 16.5,132.5 Z"/></g>
<g><path style="opacity:1" fill="#888888" d="M 173.5,128.5 C 173.25,130.674 172.25,132.341 170.5,133.5C 169.614,132.224 168.614,132.224 167.5,133.5C 167.006,135.026 166.339,136.359 165.5,137.5C 164.791,136.596 163.791,136.263 162.5,136.5C 162.5,135.5 162.5,134.5 162.5,133.5C 164.598,134.914 165.598,134.248 165.5,131.5C 168.315,130.874 170.815,129.54 173,127.5C 173.399,127.728 173.565,128.062 173.5,128.5 Z"/></g>
<g><path style="opacity:1" fill="#5d5d5d" d="M 213.5,134.5 C 212.833,134.5 212.5,134.833 212.5,135.5C 210.234,135.141 208.401,135.808 207,137.5C 206.329,136.748 205.496,136.414 204.5,136.5C 204.5,136.167 204.5,135.833 204.5,135.5C 205.234,134.292 205.567,132.959 205.5,131.5C 205.369,130.624 205.702,129.957 206.5,129.5C 209.154,130.968 211.487,132.635 213.5,134.5 Z"/></g>
<g><path style="opacity:0.996" fill="#a6a6a6" d="M 82.5,130.5 C 82.0231,134.287 80.3564,137.454 77.5,140C 77.7284,140.399 78.0618,140.565 78.5,140.5C 77.8333,141.5 77.1667,142.5 76.5,143.5C 72.5768,146.294 68.2434,148.294 63.5,149.5C 62.3143,148.295 62.3143,146.961 63.5,145.5C 64.1667,145.167 64.8333,144.833 65.5,144.5C 69.467,144.734 72.8003,143.4 75.5,140.5C 76.4287,139.311 76.762,137.978 76.5,136.5C 78.1667,134.167 80.1667,132.167 82.5,130.5 Z"/></g>
<g><path style="opacity:1" fill="#c6c6c6" d="M 117.5,135.5 C 120.14,136.82 122.807,138.153 125.5,139.5C 122.348,140.239 119.015,140.239 115.5,139.5C 113.302,137.558 113.969,136.225 117.5,135.5 Z"/></g>
<g><path style="opacity:1" fill="#979797" d="M 116.5,134.5 C 117.167,134.5 117.5,134.833 117.5,135.5C 113.969,136.225 113.302,137.558 115.5,139.5C 112.833,139.167 110.167,138.833 107.5,138.5C 108.209,137.596 109.209,137.263 110.5,137.5C 110.709,135.286 109.876,133.619 108,132.5C 106.095,134.423 104.928,136.756 104.5,139.5C 100.981,138.036 97.3139,137.036 93.5,136.5C 95.964,135.433 98.2974,134.1 100.5,132.5C 101.695,132.678 102.862,133.011 104,133.5C 105.22,132.612 106.553,131.945 108,131.5C 110.247,133.926 113.08,134.926 116.5,134.5 Z"/></g>
<g><path style="opacity:1" fill="#d8d8d8" d="M 107.5,138.5 C 106.609,139.11 105.609,139.443 104.5,139.5C 104.928,136.756 106.095,134.423 108,132.5C 109.876,133.619 110.709,135.286 110.5,137.5C 109.209,137.263 108.209,137.596 107.5,138.5 Z"/></g>
<g><path style="opacity:0.978" fill="#c9c9c9" d="M 222.5,132.5 C 222.819,137.363 222.486,142.03 221.5,146.5C 220.575,142.21 219.909,137.876 219.5,133.5C 220.209,132.596 221.209,132.263 222.5,132.5 Z"/></g>
<g><path style="opacity:0.996" fill="#282828" d="M 204.5,135.5 C 204.5,135.833 204.5,136.167 204.5,136.5C 202.852,137.81 201.186,139.143 199.5,140.5C 198.264,139.754 196.93,139.421 195.5,139.5C 196.635,138.526 197.635,137.359 198.5,136C 197.407,134.635 196.074,134.301 194.5,135C 193.167,136 193.167,137 194.5,138C 193.551,138.617 192.718,138.451 192,137.5C 191.167,138.333 190.333,139.167 189.5,140C 190.672,140.419 191.672,141.085 192.5,142C 190.874,141.805 189.207,141.805 187.5,142C 185.097,144.531 183.43,147.364 182.5,150.5C 182.106,148.29 180.773,146.957 178.5,146.5C 180.156,143.861 181.822,141.195 183.5,138.5C 185.401,137.769 187.401,137.769 189.5,138.5C 189.439,136.408 188.439,134.908 186.5,134C 187.167,133.667 187.833,133.333 188.5,133C 188.5,132 188.5,131 188.5,130C 190.5,128 192.5,128 194.5,130C 193.833,130.333 193.167,130.667 192.5,131C 192.982,132.008 193.148,133.175 193,134.5C 194.019,133.313 195.186,132.313 196.5,131.5C 198.955,133.297 201.622,134.63 204.5,135.5 Z"/></g>
<g><path style="opacity:1" fill="#2e2e2e" d="M 102.5,111.5 C 103.582,113.823 103.415,116.157 102,118.5C 95.9095,128.252 88.7429,137.085 80.5,145C 79.1351,144.857 77.8018,144.357 76.5,143.5C 77.1667,142.5 77.8333,141.5 78.5,140.5C 87.2779,132.264 94.6113,122.931 100.5,112.5C 101.167,112.167 101.833,111.833 102.5,111.5 Z"/></g>
<g><path style="opacity:0.985" fill="#353535" d="M 14.5,134.5 C 18.797,135.146 22.797,136.646 26.5,139C 31.0594,142.437 35.7261,145.604 40.5,148.5C 39.0695,148.421 37.7362,148.754 36.5,149.5C 31.3617,146.195 26.3617,142.695 21.5,139C 17.0492,137.026 12.3825,136.193 7.5,136.5C 9.4385,134.837 11.7718,134.171 14.5,134.5 Z"/></g>
<g><path style="opacity:1" fill="#767676" d="M 76.5,136.5 C 76.762,137.978 76.4287,139.311 75.5,140.5C 72.8003,143.4 69.467,144.734 65.5,144.5C 69.3059,142.09 72.9725,139.423 76.5,136.5 Z"/></g>
<g><path style="opacity:1" fill="#dbdbdb" d="M 16.5,132.5 C 18.5643,132.687 20.5643,133.187 22.5,134C 31.1313,139.143 39.798,143.976 48.5,148.5C 47.0813,149.451 45.4147,149.784 43.5,149.5C 42.609,148.89 41.609,148.557 40.5,148.5C 35.7261,145.604 31.0594,142.437 26.5,139C 22.797,136.646 18.797,135.146 14.5,134.5C 14.0825,133.778 13.4158,133.278 12.5,133C 13.7932,132.51 15.1266,132.343 16.5,132.5 Z"/></g>
<g><path style="opacity:1" fill="#707070" d="M 162.5,133.5 C 162.5,134.5 162.5,135.5 162.5,136.5C 163.791,136.263 164.791,136.596 165.5,137.5C 164.152,138.186 162.985,139.186 162,140.5C 161.667,140.167 161.333,139.833 161,139.5C 160.667,141.167 160.333,142.833 160,144.5C 157.6,146.729 155.433,149.063 153.5,151.5C 150.888,152.779 148.555,154.445 146.5,156.5C 143.833,156.833 141.167,157.167 138.5,157.5C 146.833,149.833 154.833,141.833 162.5,133.5 Z"/></g>
<g><path style="opacity:0.992" fill="#111111" d="M 195.5,139.5 C 194.285,143.332 192.619,146.999 190.5,150.5C 190.846,151.696 191.346,151.696 192,150.5C 192.5,151.5 193,152.5 193.5,153.5C 191.979,153.88 190.313,154.046 188.5,154C 190.333,155.167 192.167,156.333 194,157.5C 194.422,155.645 194.922,153.811 195.5,152C 198.64,146.882 201.64,141.715 204.5,136.5C 205.496,136.414 206.329,136.748 207,137.5C 208.401,135.808 210.234,135.141 212.5,135.5C 210.039,142.422 206.539,148.756 202,154.5C 199.536,159.705 198.036,165.038 197.5,170.5C 197.5,170.167 197.5,169.833 197.5,169.5C 197.799,167.396 197.466,165.396 196.5,163.5C 195.158,165.005 193.492,165.672 191.5,165.5C 193.167,159.985 191.167,157.985 185.5,159.5C 184.873,160.417 184.539,161.417 184.5,162.5C 183.18,164.463 181.846,166.463 180.5,168.5C 180.5,168.833 180.5,169.167 180.5,169.5C 177.507,173.215 175.84,177.548 175.5,182.5C 172.528,188.431 169.861,194.431 167.5,200.5C 167.35,195.7 168.016,191.033 169.5,186.5C 170.985,182.895 172.319,179.228 173.5,175.5C 174.952,173.174 176.286,170.674 177.5,168C 176.66,166.233 175.327,164.899 173.5,164C 174.582,162.67 175.249,161.17 175.5,159.5C 178.075,156.681 180.408,153.681 182.5,150.5C 183.43,147.364 185.097,144.531 187.5,142C 189.207,141.805 190.874,141.805 192.5,142C 191.672,141.085 190.672,140.419 189.5,140C 190.333,139.167 191.167,138.333 192,137.5C 192.718,138.451 193.551,138.617 194.5,138C 193.167,137 193.167,136 194.5,135C 196.074,134.301 197.407,134.635 198.5,136C 197.635,137.359 196.635,138.526 195.5,139.5 Z"/></g>
<g><path style="opacity:1" fill="#414141" d="M 204.5,136.5 C 201.64,141.715 198.64,146.882 195.5,152C 194.922,153.811 194.422,155.645 194,157.5C 192.167,156.333 190.333,155.167 188.5,154C 190.313,154.046 191.979,153.88 193.5,153.5C 193,152.5 192.5,151.5 192,150.5C 191.346,151.696 190.846,151.696 190.5,150.5C 192.619,146.999 194.285,143.332 195.5,139.5C 196.93,139.421 198.264,139.754 199.5,140.5C 201.186,139.143 202.852,137.81 204.5,136.5 Z"/></g>
<g><path style="opacity:1" fill="#afafaf" d="M 170.5,133.5 C 165.636,140.571 160.303,147.238 154.5,153.5C 154.672,152.508 154.338,151.842 153.5,151.5C 155.433,149.063 157.6,146.729 160,144.5C 160.333,142.833 160.667,141.167 161,139.5C 161.333,139.833 161.667,140.167 162,140.5C 162.985,139.186 164.152,138.186 165.5,137.5C 166.339,136.359 167.006,135.026 167.5,133.5C 168.614,132.224 169.614,132.224 170.5,133.5 Z"/></g>
<g><path style="opacity:1" fill="#7c7c7c" d="M 96.5,142.5 C 98.4233,142.795 100.09,143.628 101.5,145C 98.5364,147.686 95.203,148.186 91.5,146.5C 91.0618,146.565 90.7284,146.399 90.5,146C 92.8791,145.284 94.8791,144.117 96.5,142.5 Z"/></g>
<g><path style="opacity:1" fill="#575757" d="M 63.5,145.5 C 62.3143,146.961 62.3143,148.295 63.5,149.5C 60.9471,150.255 58.2804,150.922 55.5,151.5C 55.5774,150.25 56.244,149.417 57.5,149C 56.944,148.617 56.6107,148.117 56.5,147.5C 58.8333,146.833 61.1667,146.167 63.5,145.5 Z"/></g>
<g><path style="opacity:0.996" fill="#1d1d1d" d="M 93.5,136.5 C 97.3139,137.036 100.981,138.036 104.5,139.5C 105.609,139.443 106.609,139.11 107.5,138.5C 110.167,138.833 112.833,139.167 115.5,139.5C 119.015,140.239 122.348,140.239 125.5,139.5C 126.289,139.783 126.956,140.283 127.5,141C 122.721,141.926 118.054,143.259 113.5,145C 107.237,149.587 100.237,152.087 92.5,152.5C 92.4828,150.435 92.1495,148.435 91.5,146.5C 95.203,148.186 98.5364,147.686 101.5,145C 100.09,143.628 98.4233,142.795 96.5,142.5C 97.4124,141.262 97.5791,139.928 97,138.5C 95.4207,139.172 94.254,138.505 93.5,136.5 Z"/></g>
<g><path style="opacity:0.996" fill="#1a1a1a" d="M 187.5,111.5 C 187.007,113.806 186.674,116.139 186.5,118.5C 183.387,118.065 182.721,119.065 184.5,121.5C 183.469,123.382 182.635,125.382 182,127.5C 180.053,128.11 178.219,128.943 176.5,130C 177.059,130.725 177.392,131.558 177.5,132.5C 172.656,141.683 166.989,150.349 160.5,158.5C 156.63,155.459 153.63,156.126 151.5,160.5C 152.981,161.48 154.315,162.647 155.5,164C 153.953,164.333 152.62,163.833 151.5,162.5C 148.668,164.364 145.668,165.697 142.5,166.5C 146.5,162.167 150.5,157.833 154.5,153.5C 160.303,147.238 165.636,140.571 170.5,133.5C 172.25,132.341 173.25,130.674 173.5,128.5C 176.602,124.633 178.935,120.299 180.5,115.5C 182.169,116.89 183.836,117.223 185.5,116.5C 183.874,115.01 182.208,113.51 180.5,112C 182.81,111.503 185.143,111.337 187.5,111.5 Z"/></g>
<g><path style="opacity:1" fill="#8a8a8a" d="M 56.5,147.5 C 56.6107,148.117 56.944,148.617 57.5,149C 56.244,149.417 55.5774,150.25 55.5,151.5C 51.2949,151.283 47.2949,150.617 43.5,149.5C 45.4147,149.784 47.0813,149.451 48.5,148.5C 51.0545,147.612 53.7212,147.279 56.5,147.5 Z"/></g>
<g><path style="opacity:0.997" fill="#585858" d="M 178.5,146.5 C 180.773,146.957 182.106,148.29 182.5,150.5C 180.408,153.681 178.075,156.681 175.5,159.5C 172.412,158.757 171.745,157.09 173.5,154.5C 174.669,151.489 176.336,148.822 178.5,146.5 Z"/></g>
<g><path style="opacity:1" fill="#c8c8c8" d="M 215.5,167.5 C 212.739,168.085 211.073,167.085 210.5,164.5C 212.33,160.361 213.33,156.028 213.5,151.5C 213.435,151.062 213.601,150.728 214,150.5C 216.652,155.988 217.152,161.654 215.5,167.5 Z"/></g>
<g><path style="opacity:1" fill="#838383" d="M 138.5,157.5 C 138.511,159.017 139.177,160.184 140.5,161C 139.167,161 137.833,161 136.5,161C 136.833,161.333 137.167,161.667 137.5,162C 135.294,165.03 132.294,166.197 128.5,165.5C 131.52,162.484 134.854,159.817 138.5,157.5 Z"/></g>
<g><path style="opacity:1" fill="#343434" d="M 197.5,169.5 C 194.855,170.863 192.522,170.363 190.5,168C 191.167,167.667 191.833,167.333 192.5,167C 189.968,165.235 187.301,163.735 184.5,162.5C 184.539,161.417 184.873,160.417 185.5,159.5C 191.167,157.985 193.167,159.985 191.5,165.5C 193.492,165.672 195.158,165.005 196.5,163.5C 197.466,165.396 197.799,167.396 197.5,169.5 Z"/></g>
<g><path style="opacity:1" fill="#d5d5d5" d="M 153.5,151.5 C 154.338,151.842 154.672,152.508 154.5,153.5C 150.5,157.833 146.5,162.167 142.5,166.5C 141.833,166.5 141.5,166.833 141.5,167.5C 139.194,170.473 136.527,173.14 133.5,175.5C 132.399,174.402 131.066,174.235 129.5,175C 130.696,175.654 130.696,176.154 129.5,176.5C 128.378,175.37 127.044,174.703 125.5,174.5C 128.591,172.579 131.258,170.079 133.5,167C 138.854,164.633 143.188,161.133 146.5,156.5C 148.555,154.445 150.888,152.779 153.5,151.5 Z"/></g>
<g><path style="opacity:1" fill="#676767" d="M 184.5,162.5 C 187.301,163.735 189.968,165.235 192.5,167C 191.833,167.333 191.167,167.667 190.5,168C 192.522,170.363 194.855,170.863 197.5,169.5C 197.5,169.833 197.5,170.167 197.5,170.5C 197.5,171.833 197.5,173.167 197.5,174.5C 196.153,173.972 194.819,173.805 193.5,174C 195.037,175.11 195.703,176.61 195.5,178.5C 194.178,178.33 193.011,178.663 192,179.5C 191.292,178.619 190.458,177.953 189.5,177.5C 190.598,176.603 190.598,175.77 189.5,175C 190.167,174.667 190.833,174.333 191.5,174C 188.09,171.628 184.423,169.795 180.5,168.5C 181.846,166.463 183.18,164.463 184.5,162.5 Z"/></g>
<g><path style="opacity:1" fill="#797979" d="M 213.5,151.5 C 213.33,156.028 212.33,160.361 210.5,164.5C 211.073,167.085 212.739,168.085 215.5,167.5C 215.233,169.965 214.566,172.299 213.5,174.5C 212.504,174.586 211.671,174.252 211,173.5C 210.506,171.866 210.34,170.199 210.5,168.5C 208.821,168.715 207.821,168.048 207.5,166.5C 209.129,161.265 211.129,156.265 213.5,151.5 Z"/></g>
<g><path style="opacity:1" fill="#929292" d="M 146.5,156.5 C 143.188,161.133 138.854,164.633 133.5,167C 131.258,170.079 128.591,172.579 125.5,174.5C 124.493,176.522 122.826,177.855 120.5,178.5C 117.261,178.413 114.261,179.08 111.5,180.5C 116.844,175.157 122.511,170.157 128.5,165.5C 132.294,166.197 135.294,165.03 137.5,162C 137.167,161.667 136.833,161.333 136.5,161C 137.833,161 139.167,161 140.5,161C 139.177,160.184 138.511,159.017 138.5,157.5C 141.167,157.167 143.833,156.833 146.5,156.5 Z"/></g>
<g><path style="opacity:1" fill="#595959" d="M 168.5,161.5 C 169.973,162.072 171.307,162.905 172.5,164C 171.576,166.089 170.576,168.589 169.5,171.5C 169.833,172.167 170.167,172.833 170.5,173.5C 169.066,174.23 167.9,175.23 167,176.5C 165.312,175.675 165.145,174.675 166.5,173.5C 165.423,172.295 164.09,171.628 162.5,171.5C 164,167.827 166,164.494 168.5,161.5 Z"/></g>
<g><path style="opacity:1" fill="#3e3e3e" d="M 173.5,154.5 C 171.745,157.09 172.412,158.757 175.5,159.5C 175.249,161.17 174.582,162.67 173.5,164C 175.327,164.899 176.66,166.233 177.5,168C 176.286,170.674 174.952,173.174 173.5,175.5C 173.565,175.062 173.399,174.728 173,174.5C 171.294,176.873 169.294,178.873 167,180.5C 164.447,179.777 162.28,178.444 160.5,176.5C 161.381,175.029 162.714,174.196 164.5,174C 163.756,172.961 162.756,172.461 161.5,172.5C 161.5,171.833 161.833,171.5 162.5,171.5C 164.09,171.628 165.423,172.295 166.5,173.5C 165.145,174.675 165.312,175.675 167,176.5C 167.9,175.23 169.066,174.23 170.5,173.5C 170.167,172.833 169.833,172.167 169.5,171.5C 170.576,168.589 171.576,166.089 172.5,164C 171.307,162.905 169.973,162.072 168.5,161.5C 169.811,158.865 171.478,156.531 173.5,154.5 Z"/></g>
<g><path style="opacity:0.929" fill="#6b6b6b" d="M 41.5,175.5 C 40.8333,175.5 40.5,175.833 40.5,176.5C 35.1551,169.296 31.6551,161.296 30,152.5C 33.3038,160.441 37.1371,168.108 41.5,175.5 Z"/></g>
<g><path style="opacity:1" fill="#393939" d="M 207.5,166.5 C 207.821,168.048 208.821,168.715 210.5,168.5C 210.34,170.199 210.506,171.866 211,173.5C 211.671,174.252 212.504,174.586 213.5,174.5C 212.66,176.853 211.326,178.853 209.5,180.5C 207.471,175.809 206.804,171.142 207.5,166.5 Z"/></g>
<g><path style="opacity:0.992" fill="#8a8a8a" d="M 197.5,174.5 C 199.347,178.225 200.681,182.225 201.5,186.5C 200.001,187.494 198.334,187.494 196.5,186.5C 196.414,185.504 196.748,184.671 197.5,184C 192.833,184.157 190.166,181.991 189.5,177.5C 190.458,177.953 191.292,178.619 192,179.5C 193.011,178.663 194.178,178.33 195.5,178.5C 195.703,176.61 195.037,175.11 193.5,174C 194.819,173.805 196.153,173.972 197.5,174.5 Z"/></g>
<g><path style="opacity:1" fill="#424242" d="M 141.5,167.5 C 141.539,168.583 141.873,169.583 142.5,170.5C 141.675,171.386 140.675,171.719 139.5,171.5C 139.66,173.199 139.494,174.866 139,176.5C 135.715,181.454 132.048,186.12 128,190.5C 127.694,194.033 126.861,197.367 125.5,200.5C 125.697,202.996 126.697,204.996 128.5,206.5C 128.037,209.482 127.704,212.482 127.5,215.5C 126.221,214.032 124.554,213.365 122.5,213.5C 122.36,211.876 123.027,210.71 124.5,210C 123.672,209.085 122.672,208.419 121.5,208C 122.167,207.667 122.833,207.333 123.5,207C 122.663,205.989 122.33,204.822 122.5,203.5C 122.5,202.5 122.5,201.5 122.5,200.5C 123.558,198.251 124.891,196.085 126.5,194C 124.845,192.699 123.511,191.199 122.5,189.5C 126.143,184.852 129.81,180.185 133.5,175.5C 136.527,173.14 139.194,170.473 141.5,167.5 Z"/></g>
<g><path style="opacity:1" fill="#ececec" d="M 125.5,174.5 C 127.044,174.703 128.378,175.37 129.5,176.5C 130.696,176.154 130.696,175.654 129.5,175C 131.066,174.235 132.399,174.402 133.5,175.5C 129.81,180.185 126.143,184.852 122.5,189.5C 120.457,190.579 119.124,192.246 118.5,194.5C 117.094,194.973 116.427,195.973 116.5,197.5C 115.114,199.613 115.448,201.613 117.5,203.5C 116.579,205.756 114.912,206.756 112.5,206.5C 110.123,205.328 107.79,205.661 105.5,207.5C 103.5,207.5 101.5,207.5 99.5,207.5C 99.5168,204.116 100.517,201.116 102.5,198.5C 103.449,196.223 104.782,194.223 106.5,192.5C 109.178,189.183 112.178,186.017 115.5,183C 116.448,182.517 117.448,182.351 118.5,182.5C 118.527,180.801 119.194,179.467 120.5,178.5C 122.826,177.855 124.493,176.522 125.5,174.5 Z"/></g>
<g><path style="opacity:1" fill="#1b1b1b" d="M 142.5,166.5 C 142.901,170.266 144.901,172.766 148.5,174C 144.121,179.316 139.955,184.816 136,190.5C 133.186,195.82 130.686,201.153 128.5,206.5C 126.697,204.996 125.697,202.996 125.5,200.5C 126.861,197.367 127.694,194.033 128,190.5C 132.048,186.12 135.715,181.454 139,176.5C 139.494,174.866 139.66,173.199 139.5,171.5C 140.675,171.719 141.675,171.386 142.5,170.5C 141.873,169.583 141.539,168.583 141.5,167.5C 141.5,166.833 141.833,166.5 142.5,166.5 Z"/></g>
<g><path style="opacity:1" fill="#b9b9b9" d="M 120.5,178.5 C 119.194,179.467 118.527,180.801 118.5,182.5C 117.448,182.351 116.448,182.517 115.5,183C 112.178,186.017 109.178,189.183 106.5,192.5C 107.812,188.996 109.812,185.83 112.5,183C 111.748,182.329 111.414,181.496 111.5,180.5C 114.261,179.08 117.261,178.413 120.5,178.5 Z"/></g>
<g><path style="opacity:1" fill="#5c5c5c" d="M 161.5,172.5 C 162.756,172.461 163.756,172.961 164.5,174C 162.714,174.196 161.381,175.029 160.5,176.5C 162.28,178.444 164.447,179.777 167,180.5C 169.294,178.873 171.294,176.873 173,174.5C 173.399,174.728 173.565,175.062 173.5,175.5C 172.319,179.228 170.985,182.895 169.5,186.5C 167.862,187.159 166.195,187.826 164.5,188.5C 164.089,187.738 163.923,186.738 164,185.5C 163.148,186.571 162.315,187.571 161.5,188.5C 161.586,186.323 162.253,184.323 163.5,182.5C 161.985,180.918 160.319,179.584 158.5,178.5C 158.975,176.216 159.975,174.216 161.5,172.5 Z"/></g>
<g><path style="opacity:1" fill="#bfbfbf" d="M 189.5,177.5 C 190.166,181.991 192.833,184.157 197.5,184C 196.748,184.671 196.414,185.504 196.5,186.5C 195.167,186.5 193.833,186.5 192.5,186.5C 191.081,185.549 189.415,185.216 187.5,185.5C 186.964,182.302 187.631,179.635 189.5,177.5 Z"/></g>
<g><path style="opacity:0.997" fill="#797979" d="M 111.5,180.5 C 111.414,181.496 111.748,182.329 112.5,183C 109.812,185.83 107.812,188.996 106.5,192.5C 104.782,194.223 103.449,196.223 102.5,198.5C 101.357,198.908 100.357,199.575 99.5,200.5C 98.7993,203.321 97.7993,205.988 96.5,208.5C 96.7472,209.713 97.4138,210.38 98.5,210.5C 98.5,210.833 98.5,211.167 98.5,211.5C 97.391,211.557 96.391,211.89 95.5,212.5C 93.4194,210.211 92.4194,207.711 92.5,205C 93.448,204.517 94.448,204.351 95.5,204.5C 95.634,202.708 95.3007,201.042 94.5,199.5C 98.4055,191.594 104.072,185.261 111.5,180.5 Z"/></g>
<g><path style="opacity:0.997" fill="#292929" d="M 158.5,178.5 C 160.319,179.584 161.985,180.918 163.5,182.5C 162.253,184.323 161.586,186.323 161.5,188.5C 160.207,191.679 159.54,195.012 159.5,198.5C 159.5,199.167 159.167,199.5 158.5,199.5C 158.5,197.833 158.5,196.167 158.5,194.5C 156.857,194.52 155.524,193.853 154.5,192.5C 153.808,193.025 153.308,193.692 153,194.5C 152.601,194.272 152.435,193.938 152.5,193.5C 153.738,188.105 155.738,183.105 158.5,178.5 Z"/></g>
<g><path style="opacity:1" fill="#6c6c6c" d="M 180.5,169.5 C 183.556,170.387 185.889,172.22 187.5,175C 186.833,175.333 186.167,175.667 185.5,176C 186.517,177.049 186.684,178.216 186,179.5C 183.833,177.536 181.499,177.202 179,178.5C 178.333,179.167 178.333,179.833 179,180.5C 182.143,178.828 184.643,179.494 186.5,182.5C 185.224,183.645 183.891,183.645 182.5,182.5C 179.06,183.755 178.727,185.755 181.5,188.5C 180.812,189.855 179.812,190.855 178.5,191.5C 175.612,190.46 175.279,189.127 177.5,187.5C 178.246,186.264 178.579,184.93 178.5,183.5C 177.209,183.737 176.209,183.404 175.5,182.5C 175.84,177.548 177.507,173.215 180.5,169.5 Z"/></g>
<g><path style="opacity:1" fill="#8b8b8b" d="M 180.5,169.5 C 180.5,169.167 180.5,168.833 180.5,168.5C 184.423,169.795 188.09,171.628 191.5,174C 190.833,174.333 190.167,174.667 189.5,175C 190.598,175.77 190.598,176.603 189.5,177.5C 187.631,179.635 186.964,182.302 187.5,185.5C 185.182,188.786 182.849,192.12 180.5,195.5C 176.363,195.779 174.863,197.779 176,201.5C 175.051,203.093 173.885,204.426 172.5,205.5C 170.847,205.34 169.514,204.674 168.5,203.5C 169.496,203.586 170.329,203.252 171,202.5C 173.356,198.66 175.856,194.994 178.5,191.5C 179.812,190.855 180.812,189.855 181.5,188.5C 178.727,185.755 179.06,183.755 182.5,182.5C 183.891,183.645 185.224,183.645 186.5,182.5C 184.643,179.494 182.143,178.828 179,180.5C 178.333,179.833 178.333,179.167 179,178.5C 181.499,177.202 183.833,177.536 186,179.5C 186.684,178.216 186.517,177.049 185.5,176C 186.167,175.667 186.833,175.333 187.5,175C 185.889,172.22 183.556,170.387 180.5,169.5 Z"/></g>
<g><path style="opacity:1" fill="#575757" d="M 175.5,182.5 C 176.209,183.404 177.209,183.737 178.5,183.5C 178.579,184.93 178.246,186.264 177.5,187.5C 175.279,189.127 175.612,190.46 178.5,191.5C 175.856,194.994 173.356,198.66 171,202.5C 170.329,203.252 169.496,203.586 168.5,203.5C 167.833,203.5 167.5,203.167 167.5,202.5C 167.5,201.833 167.5,201.167 167.5,200.5C 169.861,194.431 172.528,188.431 175.5,182.5 Z"/></g>
<g><path style="opacity:0.999" fill="#191919" d="M 192.5,186.5 C 193.833,186.5 195.167,186.5 196.5,186.5C 198.334,187.494 200.001,187.494 201.5,186.5C 202.043,186.56 202.376,186.893 202.5,187.5C 200.659,188.23 198.825,188.897 197,189.5C 197.51,191.38 197.343,193.213 196.5,195C 189.833,202.169 182.167,208.003 173.5,212.5C 173.44,211.957 173.107,211.624 172.5,211.5C 169.971,212.96 167.304,213.46 164.5,213C 167.304,211.992 169.637,210.492 171.5,208.5C 173.772,207.559 175.772,206.226 177.5,204.5C 178.82,203.058 180.486,202.392 182.5,202.5C 182.351,201.448 182.517,200.448 183,199.5C 185.867,197.249 188.2,194.583 190,191.5C 190.711,189.633 190.211,188.133 188.5,187C 189.793,186.51 191.127,186.343 192.5,186.5 Z"/></g>
<g><path style="opacity:1" fill="#727272" d="M 122.5,189.5 C 123.511,191.199 124.845,192.699 126.5,194C 124.891,196.085 123.558,198.251 122.5,200.5C 121.402,199.603 121.402,198.77 122.5,198C 121.25,195.983 119.917,194.816 118.5,194.5C 119.124,192.246 120.457,190.579 122.5,189.5 Z"/></g>
<g><path style="opacity:1" fill="#959595" d="M 169.5,186.5 C 168.016,191.033 167.35,195.7 167.5,200.5C 167.5,201.167 167.5,201.833 167.5,202.5C 166.833,202.5 166.5,202.167 166.5,201.5C 166.177,196.161 163.843,195.161 159.5,198.5C 159.54,195.012 160.207,191.679 161.5,188.5C 162.315,187.571 163.148,186.571 164,185.5C 163.923,186.738 164.089,187.738 164.5,188.5C 166.195,187.826 167.862,187.159 169.5,186.5 Z"/></g>
<g><path style="opacity:1" fill="#929292" d="M 118.5,194.5 C 119.917,194.816 121.25,195.983 122.5,198C 121.402,198.77 121.402,199.603 122.5,200.5C 122.5,201.5 122.5,202.5 122.5,203.5C 121.833,204.5 121.167,205.5 120.5,206.5C 120.423,205.25 119.756,204.417 118.5,204C 120.158,203.275 120.658,202.108 120,200.5C 118.271,200.026 117.105,199.026 116.5,197.5C 116.427,195.973 117.094,194.973 118.5,194.5 Z"/></g>
<g><path style="opacity:1" fill="#343434" d="M 187.5,185.5 C 189.415,185.216 191.081,185.549 192.5,186.5C 191.127,186.343 189.793,186.51 188.5,187C 190.211,188.133 190.711,189.633 190,191.5C 188.2,194.583 185.867,197.249 183,199.5C 182.517,200.448 182.351,201.448 182.5,202.5C 180.486,202.392 178.82,203.058 177.5,204.5C 176.924,200.888 177.924,197.888 180.5,195.5C 182.849,192.12 185.182,188.786 187.5,185.5 Z"/></g>
<g><path style="opacity:1" fill="#bfbfbf" d="M 166.5,201.5 C 165.85,201.196 165.183,200.863 164.5,200.5C 163.158,202.005 161.492,202.672 159.5,202.5C 159.5,204.167 159.5,205.833 159.5,207.5C 159.167,207.5 158.833,207.5 158.5,207.5C 158.5,204.833 158.5,202.167 158.5,199.5C 159.167,199.5 159.5,199.167 159.5,198.5C 163.843,195.161 166.177,196.161 166.5,201.5 Z"/></g>
<g><path style="opacity:0.965" fill="#a0a0a0" d="M 142.5,210.5 C 141.683,208.031 141.183,205.365 141,202.5C 140.79,204.058 140.29,205.391 139.5,206.5C 139.5,204.5 139.5,202.5 139.5,200.5C 139.795,198.577 140.628,196.91 142,195.5C 142.499,200.489 142.666,205.489 142.5,210.5 Z"/></g>
<g><path style="opacity:1" fill="#565656" d="M 180.5,195.5 C 177.924,197.888 176.924,200.888 177.5,204.5C 175.772,206.226 173.772,207.559 171.5,208.5C 171.167,208.5 170.833,208.5 170.5,208.5C 171.167,207.5 171.833,206.5 172.5,205.5C 173.885,204.426 175.051,203.093 176,201.5C 174.863,197.779 176.363,195.779 180.5,195.5 Z"/></g>
<g><path style="opacity:0.988" fill="#cbcbcb" d="M 41.5,175.5 C 51.0851,190.088 63.7518,201.088 79.5,208.5C 79.5,209.833 78.8333,210.5 77.5,210.5C 71.7267,208.112 66.3934,204.945 61.5,201C 54.6893,195.474 48.6893,189.307 43.5,182.5C 42.5294,180.517 41.5294,178.517 40.5,176.5C 40.5,175.833 40.8333,175.5 41.5,175.5 Z"/></g>
<g><path style="opacity:1" fill="#bbbbbb" d="M 116.5,197.5 C 117.105,199.026 118.271,200.026 120,200.5C 120.658,202.108 120.158,203.275 118.5,204C 119.756,204.417 120.423,205.25 120.5,206.5C 120.379,209.105 119.379,211.105 117.5,212.5C 115.367,210.909 113.701,208.909 112.5,206.5C 114.912,206.756 116.579,205.756 117.5,203.5C 115.448,201.613 115.114,199.613 116.5,197.5 Z"/></g>
<g><path style="opacity:1" fill="#e3e3e3" d="M 166.5,201.5 C 166.5,202.167 166.833,202.5 167.5,202.5C 167.5,203.167 167.833,203.5 168.5,203.5C 169.514,204.674 170.847,205.34 172.5,205.5C 171.833,206.5 171.167,207.5 170.5,208.5C 167.221,209.492 163.888,209.659 160.5,209C 159.944,208.617 159.611,208.117 159.5,207.5C 159.5,205.833 159.5,204.167 159.5,202.5C 161.492,202.672 163.158,202.005 164.5,200.5C 165.183,200.863 165.85,201.196 166.5,201.5 Z"/></g>
<g><path style="opacity:1" fill="#373737" d="M 94.5,199.5 C 95.3007,201.042 95.634,202.708 95.5,204.5C 94.448,204.351 93.448,204.517 92.5,205C 92.4194,207.711 93.4194,210.211 95.5,212.5C 93.9161,213.769 92.0828,214.769 90,215.5C 88.9302,215.472 88.0968,215.139 87.5,214.5C 88.8734,214.657 90.2068,214.49 91.5,214C 90.0577,213.623 89.0577,212.79 88.5,211.5C 89.9873,207.192 91.9873,203.192 94.5,199.5 Z"/></g>
<g><path style="opacity:1" fill="#bcbcbc" d="M 102.5,198.5 C 100.517,201.116 99.5168,204.116 99.5,207.5C 101.5,207.5 103.5,207.5 105.5,207.5C 103.491,209.065 101.157,210.065 98.5,210.5C 97.4138,210.38 96.7472,209.713 96.5,208.5C 97.7993,205.988 98.7993,203.321 99.5,200.5C 100.357,199.575 101.357,198.908 102.5,198.5 Z"/></g>
<g><path style="opacity:1" fill="#444444" d="M 112.5,206.5 C 113.701,208.909 115.367,210.909 117.5,212.5C 117.782,213.778 118.449,214.778 119.5,215.5C 118.469,216.355 117.303,217.022 116,217.5C 114.333,216.167 112.667,216.167 111,217.5C 108.536,216.839 106.036,216.339 103.5,216C 102.589,213.585 100.922,212.085 98.5,211.5C 98.5,211.167 98.5,210.833 98.5,210.5C 101.157,210.065 103.491,209.065 105.5,207.5C 107.79,205.661 110.123,205.328 112.5,206.5 Z"/></g>
<g><path style="opacity:1" fill="#6d6d6d" d="M 139.5,200.5 C 139.5,202.5 139.5,204.5 139.5,206.5C 139.5,209.833 139.5,213.167 139.5,216.5C 138.77,212.939 138.103,209.273 137.5,205.5C 137.402,203.447 138.069,201.78 139.5,200.5 Z"/></g>
<g><path style="opacity:1" fill="#191919" d="M 158.5,199.5 C 158.5,202.167 158.5,204.833 158.5,207.5C 158.962,209.757 159.962,211.757 161.5,213.5C 158.208,215.979 154.541,217.646 150.5,218.5C 148.98,209.88 149.646,201.546 152.5,193.5C 152.435,193.938 152.601,194.272 153,194.5C 153.308,193.692 153.808,193.025 154.5,192.5C 155.524,193.853 156.857,194.52 158.5,194.5C 158.5,196.167 158.5,197.833 158.5,199.5 Z"/></g>
<g><path style="opacity:1" fill="#9e9e9e" d="M 79.5,208.5 C 82.2084,210.353 85.2084,211.353 88.5,211.5C 89.0577,212.79 90.0577,213.623 91.5,214C 90.2068,214.49 88.8734,214.657 87.5,214.5C 83.8512,213.733 80.5178,212.4 77.5,210.5C 78.8333,210.5 79.5,209.833 79.5,208.5 Z"/></g>
<g><path style="opacity:0.999" fill="#323232" d="M 137.5,205.5 C 138.103,209.273 138.77,212.939 139.5,216.5C 138.756,219.95 140.09,221.616 143.5,221.5C 143.389,222.117 143.056,222.617 142.5,223C 140.527,223.495 138.527,223.662 136.5,223.5C 136.177,217.31 136.51,211.31 137.5,205.5 Z"/></g>
<g><path style="opacity:1" fill="#d5d5d5" d="M 142.5,210.5 C 142.724,214.179 143.058,217.846 143.5,221.5C 140.09,221.616 138.756,219.95 139.5,216.5C 139.5,213.167 139.5,209.833 139.5,206.5C 140.29,205.391 140.79,204.058 141,202.5C 141.183,205.365 141.683,208.031 142.5,210.5 Z"/></g>
<g><path style="opacity:0.949" fill="#323232" d="M 158.5,207.5 C 158.833,207.5 159.167,207.5 159.5,207.5C 159.611,208.117 159.944,208.617 160.5,209C 163.888,209.659 167.221,209.492 170.5,208.5C 170.833,208.5 171.167,208.5 171.5,208.5C 169.637,210.492 167.304,211.992 164.5,213C 167.304,213.46 169.971,212.96 172.5,211.5C 173.107,211.624 173.44,211.957 173.5,212.5C 166.842,215.993 159.842,218.66 152.5,220.5C 151.287,220.253 150.62,219.586 150.5,218.5C 154.541,217.646 158.208,215.979 161.5,213.5C 159.962,211.757 158.962,209.757 158.5,207.5 Z"/></g>
<g><path style="opacity:1" fill="#6f6f6f" d="M 122.5,203.5 C 122.33,204.822 122.663,205.989 123.5,207C 122.833,207.333 122.167,207.667 121.5,208C 122.672,208.419 123.672,209.085 124.5,210C 123.027,210.71 122.36,211.876 122.5,213.5C 124.554,213.365 126.221,214.032 127.5,215.5C 127.5,216.5 127.5,217.5 127.5,218.5C 126.167,218.5 124.833,218.5 123.5,218.5C 122.128,217.488 120.795,216.488 119.5,215.5C 118.449,214.778 117.782,213.778 117.5,212.5C 119.379,211.105 120.379,209.105 120.5,206.5C 121.167,205.5 121.833,204.5 122.5,203.5 Z"/></g>
<g><path style="opacity:0.995" fill="#191919" d="M 43.5,182.5 C 48.6893,189.307 54.6893,195.474 61.5,201C 66.3934,204.945 71.7267,208.112 77.5,210.5C 80.5178,212.4 83.8512,213.733 87.5,214.5C 88.0968,215.139 88.9302,215.472 90,215.5C 92.0828,214.769 93.9161,213.769 95.5,212.5C 96.391,211.89 97.391,211.557 98.5,211.5C 100.922,212.085 102.589,213.585 103.5,216C 106.036,216.339 108.536,216.839 111,217.5C 112.667,216.167 114.333,216.167 116,217.5C 117.303,217.022 118.469,216.355 119.5,215.5C 120.795,216.488 122.128,217.488 123.5,218.5C 124.648,221.087 126.315,222.087 128.5,221.5C 129.043,221.56 129.376,221.893 129.5,222.5C 124.533,223.662 119.533,223.829 114.5,223C 103.268,221.76 92.6012,219.426 82.5,216C 69.2121,210.087 57.7121,201.587 48,190.5C 45.8431,188.183 44.3431,185.516 43.5,182.5 Z"/></g>
<g><path style="opacity:1" fill="#b5b5b5" d="M 123.5,218.5 C 124.833,218.5 126.167,218.5 127.5,218.5C 128.404,219.209 128.737,220.209 128.5,221.5C 126.315,222.087 124.648,221.087 123.5,218.5 Z"/></g>
</svg>
