<?xml version="1.0" encoding="UTF-8"?>
<!DOCTYPE svg PUBLIC "-//W3C//DTD SVG 1.1//EN" "http://www.w3.org/Graphics/SVG/1.1/DTD/svg11.dtd">
<svg xmlns="http://www.w3.org/2000/svg" version="1.1" width="50px" height="50px" style="shape-rendering:geometricPrecision; text-rendering:geometricPrecision; image-rendering:optimizeQuality; fill-rule:evenodd; clip-rule:evenodd" xmlns:xlink="http://www.w3.org/1999/xlink">
<g><path style="opacity:0.925" fill="#ff6b25" d="M 16.5,-0.5 C 21.8333,-0.5 27.1667,-0.5 32.5,-0.5C 34.1815,1.00751 36.1815,2.00751 38.5,2.5C 38.5,3.16667 38.8333,3.5 39.5,3.5C 39.5,3.83333 39.5,4.16667 39.5,4.5C 39.0618,4.43456 38.7284,4.60123 38.5,5C 39.5,6 40.5,7 41.5,8C 39.1224,8.97448 39.4557,9.64114 42.5,10C 41.2625,10.2321 40.2625,10.7321 39.5,11.5C 38.596,10.791 38.2627,9.79105 38.5,8.5C 37.1667,8.5 35.8333,8.5 34.5,8.5C 34.33,9.82207 34.6634,10.9887 35.5,12C 34.5842,12.2784 33.9175,12.7784 33.5,13.5C 32.8333,12.8333 32.1667,12.1667 31.5,11.5C 30.2921,10.7659 28.9587,10.4326 27.5,10.5C 22.6523,9.18635 17.6523,9.18635 12.5,10.5C 12.6236,11.1067 12.9569,11.44 13.5,11.5C 15.2659,13.7706 17.2659,15.9373 19.5,18C 28.5035,17.16 31.8369,20.9933 29.5,29.5C 29.5,29.8333 29.5,30.1667 29.5,30.5C 29.1667,30.5 28.8333,30.5 28.5,30.5C 26.0521,29.5269 23.3854,29.1936 20.5,29.5C 20.81,26.2869 20.4767,23.2869 19.5,20.5C 17.1891,17.853 14.8558,15.1864 12.5,12.5C 12.1667,14.8333 11.8333,17.1667 11.5,19.5C 12.2876,24.3102 13.2876,28.9769 14.5,33.5C 13.5,33.5 12.5,33.5 11.5,33.5C 11.5,35.1667 11.5,36.8333 11.5,38.5C 14.977,39.3227 18.6437,39.8227 22.5,40C 18.8484,40.4986 15.1817,40.6653 11.5,40.5C 11.719,41.675 11.3857,42.675 10.5,43.5C 8.51708,42.018 6.68375,40.3513 5,38.5C 4.60123,38.7284 4.43456,39.0618 4.5,39.5C 4.16667,39.5 3.83333,39.5 3.5,39.5C 3.5,38.8333 3.16667,38.5 2.5,38.5C 2.3404,36.847 1.67373,35.5137 0.5,34.5C 0.67158,33.5084 0.338246,32.8417 -0.5,32.5C -0.5,27.1667 -0.5,21.8333 -0.5,16.5C 0.338246,16.1583 0.67158,15.4916 0.5,14.5C 1.67373,13.4863 2.3404,12.153 2.5,10.5C 3.16667,10.5 3.5,10.1667 3.5,9.5C 5.16667,7.16667 7.16667,5.16667 9.5,3.5C 10.1667,3.5 10.5,3.16667 10.5,2.5C 12.8185,2.00751 14.8185,1.00751 16.5,-0.5 Z"/></g>
<g><path style="opacity:0.008" fill="#ff6811" d="M 10.5,2.5 C 9.83333,2.5 9.5,2.83333 9.5,3.5C 7.02482,3.2533 7.02482,2.58664 9.5,1.5C 10.1067,1.62358 10.44,1.95691 10.5,2.5 Z"/></g>
<g><path style="opacity:0.012" fill="#ff5708" d="M 38.5,2.5 C 39.4971,1.28749 40.4971,1.45415 41.5,3C 40.9056,3.46434 40.2389,3.63101 39.5,3.5C 38.8333,3.5 38.5,3.16667 38.5,2.5 Z"/></g>
<g><path style="opacity:0.02" fill="#ff5d1c" d="M 3.5,9.5 C 2.83333,9.5 2.5,9.83333 2.5,10.5C 1.28749,9.50289 1.45415,8.50289 3,7.5C 3.46434,8.09442 3.63101,8.76109 3.5,9.5 Z"/></g>
<g><path style="opacity:1" fill="#ffa58f" d="M 27.5,10.5 C 22.6367,10.1805 17.97,10.5139 13.5,11.5C 12.9569,11.44 12.6236,11.1067 12.5,10.5C 17.6523,9.18635 22.6523,9.18635 27.5,10.5 Z"/></g>
<g><path style="opacity:0.02" fill="#ff5d1c" d="M 46.5,10.5 C 46.5,9.83333 46.1667,9.5 45.5,9.5C 45.7467,7.02482 46.4134,7.02482 47.5,9.5C 47.3764,10.1067 47.0431,10.44 46.5,10.5 Z"/></g>
<g><path style="opacity:1" fill="#fffaf9" d="M 13.5,11.5 C 17.97,10.5139 22.6367,10.1805 27.5,10.5C 28.9587,10.4326 30.2921,10.7659 31.5,11.5C 29.7618,17.9271 32.0951,20.5938 38.5,19.5C 38.5,19.8333 38.5,20.1667 38.5,20.5C 36.5,24.5 33.5,27.5 29.5,29.5C 31.8369,20.9933 28.5035,17.16 19.5,18C 17.2659,15.9373 15.2659,13.7706 13.5,11.5 Z"/></g>
<g><path style="opacity:1" fill="#fffbfa" d="M 39.5,11.5 C 40.5,11.5 41.5,11.5 42.5,11.5C 42.5,12.5 42.5,13.5 42.5,14.5C 41.5,14.5 40.5,14.5 39.5,14.5C 39.5,13.5 39.5,12.5 39.5,11.5 Z"/></g>
<g><path style="opacity:1" fill="#ffa88e" d="M 39.5,11.5 C 39.5,12.5 39.5,13.5 39.5,14.5C 38.8333,15.5 38.1667,16.5 37.5,17.5C 37.5,16.1667 37.5,14.8333 37.5,13.5C 36.1667,13.5 34.8333,13.5 33.5,13.5C 33.9175,12.7784 34.5842,12.2784 35.5,12C 34.6634,10.9887 34.33,9.82207 34.5,8.5C 35.8333,8.5 37.1667,8.5 38.5,8.5C 38.2627,9.79105 38.596,10.791 39.5,11.5 Z"/></g>
<g><path style="opacity:0.935" fill="#ff6d29" d="M 39.5,4.5 C 42.135,5.47349 44.135,7.14016 45.5,9.5C 46.1667,9.5 46.5,9.83333 46.5,10.5C 46.6596,12.153 47.3263,13.4863 48.5,14.5C 48.3284,15.4916 48.6618,16.1583 49.5,16.5C 49.5,21.8333 49.5,27.1667 49.5,32.5C 48.6618,32.8417 48.3284,33.5084 48.5,34.5C 47.6618,34.8417 47.3284,35.5084 47.5,36.5C 46.6618,36.8417 46.3284,37.5084 46.5,38.5C 45.8333,38.5 45.5,38.8333 45.5,39.5C 43.8333,41.8333 41.8333,43.8333 39.5,45.5C 38.8333,45.5 38.5,45.8333 38.5,46.5C 37.5084,46.3284 36.8417,46.6618 36.5,47.5C 35.5084,47.3284 34.8417,47.6618 34.5,48.5C 33.5084,48.3284 32.8417,48.6618 32.5,49.5C 27.1667,49.5 21.8333,49.5 16.5,49.5C 16.1583,48.6618 15.4916,48.3284 14.5,48.5C 13.4863,47.3263 12.153,46.6596 10.5,46.5C 10.5,45.8333 10.1667,45.5 9.5,45.5C 7.14016,44.135 5.47349,42.135 4.5,39.5C 4.43456,39.0618 4.60123,38.7284 5,38.5C 6.68375,40.3513 8.51708,42.018 10.5,43.5C 11.3857,42.675 11.719,41.675 11.5,40.5C 15.1817,40.6653 18.8484,40.4986 22.5,40C 18.6437,39.8227 14.977,39.3227 11.5,38.5C 15.1667,38.5 18.8333,38.5 22.5,38.5C 23.1667,38.5 23.8333,38.5 24.5,38.5C 27.8934,38.9383 30.8934,38.1049 33.5,36C 32.2899,34.9609 31.2899,33.7942 30.5,32.5C 30.1667,31.8333 29.8333,31.1667 29.5,30.5C 30.1667,30.5 30.8333,30.5 31.5,30.5C 32.9692,35.3171 35.1358,35.6504 38,31.5C 39.0793,28.9373 39.5793,26.2706 39.5,23.5C 39.7373,22.209 39.404,21.209 38.5,20.5C 38.5,20.1667 38.5,19.8333 38.5,19.5C 38.1667,18.8333 37.8333,18.1667 37.5,17.5C 38.1667,16.5 38.8333,15.5 39.5,14.5C 40.5,14.5 41.5,14.5 42.5,14.5C 42.5,13.5 42.5,12.5 42.5,11.5C 41.5,11.5 40.5,11.5 39.5,11.5C 40.2625,10.7321 41.2625,10.2321 42.5,10C 39.4557,9.64114 39.1224,8.97448 41.5,8C 40.5,7 39.5,6 38.5,5C 38.7284,4.60123 39.0618,4.43456 39.5,4.5 Z"/></g>
<g><path style="opacity:0.004" fill="#ffcb1d" d="M -0.5,12.5 C 0.338246,12.8417 0.67158,13.5084 0.5,14.5C 0.166667,14.5 -0.166667,14.5 -0.5,14.5C -0.5,13.8333 -0.5,13.1667 -0.5,12.5 Z"/></g>
<g><path style="opacity:1" fill="#fff9f8" d="M 19.5,20.5 C 19.5,23.8333 19.5,27.1667 19.5,30.5C 22.5,30.5 25.5,30.5 28.5,30.5C 26.9092,33.4309 24.9092,36.0976 22.5,38.5C 18.8333,38.5 15.1667,38.5 11.5,38.5C 11.5,36.8333 11.5,35.1667 11.5,33.5C 12.5,33.5 13.5,33.5 14.5,33.5C 13.2876,28.9769 12.2876,24.3102 11.5,19.5C 11.8333,17.1667 12.1667,14.8333 12.5,12.5C 14.8558,15.1864 17.1891,17.853 19.5,20.5 Z"/></g>
<g><path style="opacity:1" fill="#fffefe" d="M 33.5,13.5 C 34.8333,13.5 36.1667,13.5 37.5,13.5C 37.5,14.8333 37.5,16.1667 37.5,17.5C 36.1667,17.5 34.8333,17.5 33.5,17.5C 33.5,16.1667 33.5,14.8333 33.5,13.5 Z"/></g>
<g><path style="opacity:0.004" fill="#ffcb1d" d="M 49.5,12.5 C 49.5,13.1667 49.5,13.8333 49.5,14.5C 49.1667,14.5 48.8333,14.5 48.5,14.5C 48.3284,13.5084 48.6618,12.8417 49.5,12.5 Z"/></g>
<g><path style="opacity:1" fill="#ffa792" d="M 31.5,11.5 C 32.1667,12.1667 32.8333,12.8333 33.5,13.5C 33.5,14.8333 33.5,16.1667 33.5,17.5C 34.8333,17.5 36.1667,17.5 37.5,17.5C 37.8333,18.1667 38.1667,18.8333 38.5,19.5C 32.0951,20.5938 29.7618,17.9271 31.5,11.5 Z"/></g>
<g><path style="opacity:1" fill="#fff3f0" d="M 39.5,23.5 C 39.5793,26.2706 39.0793,28.9373 38,31.5C 35.1358,35.6504 32.9692,35.3171 31.5,30.5C 34.1667,28.1667 36.8333,25.8333 39.5,23.5 Z"/></g>
<g><path style="opacity:1" fill="#ffa690" d="M 38.5,20.5 C 39.404,21.209 39.7373,22.209 39.5,23.5C 36.8333,25.8333 34.1667,28.1667 31.5,30.5C 30.8333,30.5 30.1667,30.5 29.5,30.5C 29.5,30.1667 29.5,29.8333 29.5,29.5C 33.5,27.5 36.5,24.5 38.5,20.5 Z"/></g>
<g><path style="opacity:1" fill="#ffefec" d="M 8.5,27.5 C 12.5,26.8333 14.1667,28.5 13.5,32.5C 11.8333,32.5 10.1667,32.5 8.5,32.5C 8.5,30.8333 8.5,29.1667 8.5,27.5 Z"/></g>
<g><path style="opacity:1" fill="#ffc0b2" d="M 19.5,20.5 C 20.4767,23.2869 20.81,26.2869 20.5,29.5C 23.3854,29.1936 26.0521,29.5269 28.5,30.5C 25.5,30.5 22.5,30.5 19.5,30.5C 19.5,27.1667 19.5,23.8333 19.5,20.5 Z"/></g>
<g><path style="opacity:1" fill="#ffe3dd" d="M 3.5,29.5 C 6.5,29.1667 7.83333,30.5 7.5,33.5C 6.16667,33.5 4.83333,33.5 3.5,33.5C 3.5,32.1667 3.5,30.8333 3.5,29.5 Z"/></g>
<g><path style="opacity:1" fill="#ffae9a" d="M 28.5,30.5 C 28.8333,30.5 29.1667,30.5 29.5,30.5C 29.8333,31.1667 30.1667,31.8333 30.5,32.5C 28.1667,34.1667 26.1667,36.1667 24.5,38.5C 23.8333,38.5 23.1667,38.5 22.5,38.5C 24.9092,36.0976 26.9092,33.4309 28.5,30.5 Z"/></g>
<g><path style="opacity:1" fill="#fff2ef" d="M 30.5,32.5 C 31.2899,33.7942 32.2899,34.9609 33.5,36C 30.8934,38.1049 27.8934,38.9383 24.5,38.5C 26.1667,36.1667 28.1667,34.1667 30.5,32.5 Z"/></g>
<g><path style="opacity:0.024" fill="#ff9527" d="M -0.5,34.5 C -0.166667,34.5 0.166667,34.5 0.5,34.5C 0.67158,35.4916 0.338246,36.1583 -0.5,36.5C -0.5,35.8333 -0.5,35.1667 -0.5,34.5 Z"/></g>
<g><path style="opacity:0.024" fill="#ff9527" d="M 48.5,34.5 C 48.8333,34.5 49.1667,34.5 49.5,34.5C 49.5,35.1667 49.5,35.8333 49.5,36.5C 49.1667,36.5 48.8333,36.5 48.5,36.5C 48.5,35.8333 48.5,35.1667 48.5,34.5 Z"/></g>
<g><path style="opacity:1" fill="#ffcabe" d="M 6.5,34.5 C 7.83333,34.5 9.16667,34.5 10.5,34.5C 10.5,35.5 10.5,36.5 10.5,37.5C 9.16667,37.5 7.83333,37.5 6.5,37.5C 6.5,36.5 6.5,35.5 6.5,34.5 Z"/></g>
<g><path style="opacity:0.012" fill="#fe5500" d="M 47.5,36.5 C 47.8333,36.5 48.1667,36.5 48.5,36.5C 48.6716,37.4916 48.3382,38.1583 47.5,38.5C 47.5,37.8333 47.5,37.1667 47.5,36.5 Z"/></g>
<g><path style="opacity:0.012" fill="#ff5708" d="M 2.5,38.5 C 3.16667,38.5 3.5,38.8333 3.5,39.5C 3.2533,41.9752 2.58664,41.9752 1.5,39.5C 1.62358,38.8933 1.95691,38.56 2.5,38.5 Z"/></g>
<g><path style="opacity:0.012" fill="#ff5708" d="M 46.5,38.5 C 46.8333,38.5 47.1667,38.5 47.5,38.5C 46.968,41.4596 46.3013,41.7929 45.5,39.5C 46.1667,39.5 46.5,39.1667 46.5,38.5 Z"/></g>
<g><path style="opacity:0.02" fill="#ff5d1c" d="M 9.5,45.5 C 10.1667,45.5 10.5,45.8333 10.5,46.5C 9.50289,47.7125 8.50289,47.5458 7.5,46C 8.09442,45.5357 8.76109,45.369 9.5,45.5 Z"/></g>
<g><path style="opacity:0.004" fill="#ff490f" d="M 39.5,45.5 C 41.7929,46.3013 41.4596,46.968 38.5,47.5C 38.5,47.1667 38.5,46.8333 38.5,46.5C 39.1667,46.5 39.5,46.1667 39.5,45.5 Z"/></g>
<g><path style="opacity:0.012" fill="#fe5500" d="M 36.5,48.5 C 36.5,48.1667 36.5,47.8333 36.5,47.5C 37.1667,47.5 37.8333,47.5 38.5,47.5C 38.1583,48.3382 37.4916,48.6716 36.5,48.5 Z"/></g>
<g><path style="opacity:0.004" fill="#ffcb1d" d="M 12.5,49.5 C 12.8417,48.6618 13.5084,48.3284 14.5,48.5C 14.5,48.8333 14.5,49.1667 14.5,49.5C 13.8333,49.5 13.1667,49.5 12.5,49.5 Z"/></g>
<g><path style="opacity:0.024" fill="#ff9527" d="M 34.5,49.5 C 34.5,49.1667 34.5,48.8333 34.5,48.5C 35.1667,48.5 35.8333,48.5 36.5,48.5C 36.5,48.8333 36.5,49.1667 36.5,49.5C 35.8333,49.5 35.1667,49.5 34.5,49.5 Z"/></g>
</svg>
