<?xml version="1.0" encoding="UTF-8"?>
<!DOCTYPE svg PUBLIC "-//W3C//DTD SVG 1.1//EN" "http://www.w3.org/Graphics/SVG/1.1/DTD/svg11.dtd">
<svg xmlns="http://www.w3.org/2000/svg" version="1.1" width="250px" height="250px" style="shape-rendering:geometricPrecision; text-rendering:geometricPrecision; image-rendering:optimizeQuality; fill-rule:evenodd; clip-rule:evenodd" xmlns:xlink="http://www.w3.org/1999/xlink">
<g><path style="opacity:1" fill="#fcfcfc" d="M -0.5,-0.5 C 82.8333,-0.5 166.167,-0.5 249.5,-0.5C 249.5,82.8333 249.5,166.167 249.5,249.5C 166.167,249.5 82.8333,249.5 -0.5,249.5C -0.5,166.167 -0.5,82.8333 -0.5,-0.5 Z"/></g>
<g><path style="opacity:1" fill="#232321" d="M 113.5,6.5 C 154.305,4.66295 188.472,18.6629 216,48.5C 246.729,87.1804 252.729,129.514 234,175.5C 207.612,225.765 165.779,248.932 108.5,245C 51.9309,233.764 18.0976,199.931 7,143.5C 1.4259,89.8159 21.5926,48.9826 67.5,21C 82.1428,13.6781 97.4761,8.84478 113.5,6.5 Z"/></g>
<g><path style="opacity:1" fill="#fbfbfb" d="M 26.5,102.5 C 27.9238,100.485 28.5905,98.1522 28.5,95.5C 40.2232,60.9432 63.5566,38.4432 98.5,28C 146.468,18.7501 184.301,33.9168 212,73.5C 233.672,114.444 230.838,153.444 203.5,190.5C 174.59,222.535 138.924,233.702 96.5,224C 54.9047,209.741 30.7381,180.907 24,137.5C 22.8551,125.622 23.6884,113.955 26.5,102.5 Z"/></g>
<g><path style="opacity:1" fill="#232422" d="M 87.5,68.5 C 95.5069,68.3336 103.507,68.5003 111.5,69C 116.479,70.2397 120.979,72.4064 125,75.5C 128.706,72.4646 132.872,70.2979 137.5,69C 147.643,67.915 157.643,68.5817 167.5,71C 174.478,74.6429 179.311,80.1429 182,87.5C 182.5,117.165 182.667,146.831 182.5,176.5C 176.833,176.5 171.167,176.5 165.5,176.5C 165.667,147.831 165.5,119.165 165,90.5C 163.048,88.1064 160.548,86.6064 157.5,86C 151.5,85.3333 145.5,85.3333 139.5,86C 135.844,88.1491 133.844,91.3158 133.5,95.5C 127.833,95.5 122.167,95.5 116.5,95.5C 116.682,90.5115 114.349,87.3448 109.5,86C 103.5,85.3333 97.5,85.3333 91.5,86C 88.8976,86.8834 86.7309,88.3834 85,90.5C 84.5,119.165 84.3334,147.831 84.5,176.5C 78.8333,176.5 73.1667,176.5 67.5,176.5C 67.3334,146.831 67.5,117.165 68,87.5C 71.7819,78.216 78.2819,71.8827 87.5,68.5 Z"/></g>
<g><path style="opacity:1" fill="#ababab" d="M 28.5,95.5 C 28.5905,98.1522 27.9238,100.485 26.5,102.5C 26.4095,99.8478 27.0762,97.5145 28.5,95.5 Z"/></g>
<g><path style="opacity:1" fill="#959593" d="M 143.5,99.5 C 148.348,98.1863 153.348,98.1863 158.5,99.5C 158.376,100.107 158.043,100.44 157.5,100.5C 153.03,99.5139 148.363,99.1805 143.5,99.5 Z"/></g>
<g><path style="opacity:1" fill="#242423" d="M 116.5,115.5 C 118.924,115.192 121.257,115.526 123.5,116.5C 121.144,119.022 118.977,121.688 117,124.5C 116.502,121.518 116.335,118.518 116.5,115.5 Z"/></g>
<g><path style="opacity:1" fill="#2b2b2b" d="M 131.5,138.5 C 133.369,140.635 134.036,143.302 133.5,146.5C 131.076,146.808 128.743,146.474 126.5,145.5C 128.605,143.408 130.272,141.075 131.5,138.5 Z"/></g>
<g><path style="opacity:1" fill="#b2b2b1" d="M 120.5,147.5 C 133.141,149.156 146.141,150.156 159.5,150.5C 159.376,151.107 159.043,151.44 158.5,151.5C 145.327,150.833 131.994,150.167 118.5,149.5C 118.855,148.478 119.522,147.811 120.5,147.5 Z"/></g>
<g><path style="opacity:1" fill="#222220" d="M 143.5,99.5 C 148.363,99.1805 153.03,99.5139 157.5,100.5C 144.816,115.855 132.483,131.522 120.5,147.5C 119.522,147.811 118.855,148.478 118.5,149.5C 131.994,150.167 145.327,150.833 158.5,151.5C 155.25,155.022 152.25,158.689 149.5,162.5C 130.659,162.83 111.993,162.497 93.5,161.5C 106.143,145.185 118.809,128.852 131.5,112.5C 119.848,111.667 108.181,111.167 96.5,111C 99.3128,107.353 102.313,103.853 105.5,100.5C 118.149,99.5009 130.816,99.1676 143.5,99.5 Z"/></g>
<g><path style="opacity:1" fill="#6b6b69" d="M 93.5,161.5 C 111.993,162.497 130.659,162.83 149.5,162.5C 130.662,163.828 111.662,163.828 92.5,162.5C 92.6236,161.893 92.9569,161.56 93.5,161.5 Z"/></g>
<g><path style="opacity:1" fill="#282826" d="M 116.5,166.5 C 122.167,166.5 127.833,166.5 133.5,166.5C 133.5,169.833 133.5,173.167 133.5,176.5C 127.833,176.5 122.167,176.5 116.5,176.5C 116.5,173.167 116.5,169.833 116.5,166.5 Z"/></g>
</svg>
