<?xml version="1.0" encoding="UTF-8"?>
<!DOCTYPE svg PUBLIC "-//W3C//DTD SVG 1.1//EN" "http://www.w3.org/Graphics/SVG/1.1/DTD/svg11.dtd">
<svg xmlns="http://www.w3.org/2000/svg" version="1.1" width="249px" height="250px" style="shape-rendering:geometricPrecision; text-rendering:geometricPrecision; image-rendering:optimizeQuality; fill-rule:evenodd; clip-rule:evenodd" xmlns:xlink="http://www.w3.org/1999/xlink">
<g><path style="opacity:0.986" fill="#171511" d="M 106.5,-0.5 C 120.167,-0.5 133.833,-0.5 147.5,-0.5C 198.134,10.4682 231.801,40.4682 248.5,89.5C 248.5,95.5 248.5,101.5 248.5,107.5C 247.192,101.263 245.692,94.9293 244,88.5C 241.88,87.3947 239.713,87.3947 237.5,88.5C 236.833,88.5 236.5,88.1667 236.5,87.5C 238.179,87.1077 239.846,86.6077 241.5,86C 242.791,84.7083 242.791,83.5417 241.5,82.5C 237.804,72.1065 232.804,62.4399 226.5,53.5C 226.068,52.2905 225.401,51.2905 224.5,50.5C 224.167,49.5 223.5,48.8333 222.5,48.5C 219.542,43.8744 215.876,39.8744 211.5,36.5C 209.451,33.4503 206.784,31.117 203.5,29.5C 202.694,28.2719 201.694,27.2719 200.5,26.5C 199.71,25.5987 198.71,24.9321 197.5,24.5C 196.5,23.8333 195.5,23.1667 194.5,22.5C 185.204,15.8346 175.204,11.5013 164.5,9.5C 164.167,9.5 163.833,9.5 163.5,9.5C 163.306,7.08824 161.973,6.08824 159.5,6.5C 149.007,3.86276 138.341,2.52942 127.5,2.5C 126.833,2.5 126.167,2.5 125.5,2.5C 124.833,2.5 124.167,2.5 123.5,2.5C 112.502,2.30865 101.836,3.97532 91.5,7.5C 88.5145,7.90277 85.8478,8.90277 83.5,10.5C 73.7725,13.863 64.7725,18.5297 56.5,24.5C 55.6618,24.8417 55.3284,25.5084 55.5,26.5C 55.1667,26.5 54.8333,26.5 54.5,26.5C 43.8243,33.4965 35.491,42.1632 29.5,52.5C 29.5,52.8333 29.5,53.1667 29.5,53.5C 29.1667,53.5 28.8333,53.5 28.5,53.5C 20.5518,62.3816 14.8851,72.715 11.5,84.5C 10.596,85.209 10.2627,86.209 10.5,87.5C 9.66175,87.8417 9.32842,88.5084 9.5,89.5C 7.13839,96.9762 5.80506,104.643 5.5,112.5C 4.51836,115.962 4.18503,119.629 4.5,123.5C 14.8333,123.5 25.1667,123.5 35.5,123.5C 35.5,121.833 35.5,120.167 35.5,118.5C 35.5,117.5 35.5,116.5 35.5,115.5C 36.8333,119.5 36.8333,123.5 35.5,127.5C 35.5,126.5 35.5,125.5 35.5,124.5C 25.1667,124.5 14.8333,124.5 4.5,124.5C 4.26269,125.791 4.59603,126.791 5.5,127.5C 4.89984,138.425 6.23317,149.091 9.5,159.5C 9.78219,160.778 10.4489,161.778 11.5,162.5C 10.1667,163.167 10.1667,163.833 11.5,164.5C 14.6022,174.705 19.2689,184.038 25.5,192.5C 25.8333,193.167 26.1667,193.833 26.5,194.5C 26.8417,195.338 27.5084,195.672 28.5,195.5C 28.6225,198.292 29.9558,200.292 32.5,201.5C 34.0941,204.764 36.4275,207.431 39.5,209.5C 43.6087,214.948 48.6087,219.281 54.5,222.5C 54.8333,222.5 55.1667,222.5 55.5,222.5C 55.427,224.027 56.0937,225.027 57.5,225.5C 64.7054,230.369 72.3721,234.369 80.5,237.5C 82.3516,238.961 84.5182,239.961 87,240.5C 88.0299,240.164 88.5299,239.497 88.5,238.5C 88.8333,238.5 89.1667,238.5 89.5,238.5C 89.4877,241.142 90.821,242.475 93.5,242.5C 103.865,245.897 114.532,247.23 125.5,246.5C 126.167,246.5 126.833,246.5 127.5,246.5C 128.167,246.5 128.833,246.5 129.5,246.5C 138.307,246.587 146.974,245.587 155.5,243.5C 158.112,242.629 160.779,241.963 163.5,241.5C 164.167,241.5 164.5,241.167 164.5,240.5C 176.443,237.028 187.443,231.695 197.5,224.5C 198.5,224.167 199.167,223.5 199.5,222.5C 209.153,215.847 217.486,207.847 224.5,198.5C 225.401,197.71 226.068,196.71 226.5,195.5C 233.545,186.102 238.878,175.769 242.5,164.5C 243.404,163.791 243.737,162.791 243.5,161.5C 244.531,159.039 245.198,156.373 245.5,153.5C 246.613,149.767 247.613,146.1 248.5,142.5C 248.5,148.5 248.5,154.5 248.5,160.5C 231.511,208.486 198.178,238.153 148.5,249.5C 134.167,249.5 119.833,249.5 105.5,249.5C 58.205,239.383 25.705,211.716 8,166.5C -8.2245,111.891 4.60883,65.3907 46.5,27C 64.2746,12.9115 84.2746,3.74485 106.5,-0.5 Z"/></g>
<g><path style="opacity:1" fill="#dc9414" d="M 123.5,2.5 C 124.167,2.5 124.833,2.5 125.5,2.5C 125.5,11.8333 125.5,21.1667 125.5,30.5C 116.833,31.8333 108.167,31.8333 99.5,30.5C 107.5,30.5 115.5,30.5 123.5,30.5C 123.5,21.1667 123.5,11.8333 123.5,2.5 Z"/></g>
<g><path style="opacity:1" fill="#fbd224" d="M 123.5,2.5 C 123.5,11.8333 123.5,21.1667 123.5,30.5C 115.5,30.5 107.5,30.5 99.5,30.5C 98.209,30.7373 97.209,30.404 96.5,29.5C 94.8982,23.0285 92.8982,16.6951 90.5,10.5C 90.5569,9.39105 90.8902,8.39105 91.5,7.5C 101.836,3.97532 112.502,2.30865 123.5,2.5 Z"/></g>
<g><path style="opacity:1" fill="#fbd224" d="M 127.5,2.5 C 138.341,2.52942 149.007,3.86276 159.5,6.5C 159.982,7.41635 160.315,8.41635 160.5,9.5C 158.427,14.719 156.76,20.0524 155.5,25.5C 146.502,28.4308 137.168,30.0974 127.5,30.5C 127.5,21.1667 127.5,11.8333 127.5,2.5 Z"/></g>
<g><path style="opacity:1" fill="#caa661" d="M 91.5,7.5 C 90.8902,8.39105 90.5569,9.39105 90.5,10.5C 90.1667,10.5 89.8333,10.5 89.5,10.5C 88.5,10.8333 87.8333,11.5 87.5,12.5C 87.1667,12.5 86.8333,12.5 86.5,12.5C 86.1788,10.9519 85.1788,10.2852 83.5,10.5C 85.8478,8.90277 88.5145,7.90277 91.5,7.5 Z"/></g>
<g><path style="opacity:1" fill="#f5ce24" d="M 194.5,22.5 C 192.234,26.4356 189.234,29.7689 185.5,32.5C 181.489,29.4927 177.155,26.9927 172.5,25C 168.848,24.5014 165.182,24.3347 161.5,24.5C 160.876,24.0831 160.543,23.4164 160.5,22.5C 161.84,18.1489 163.173,13.8156 164.5,9.5C 175.204,11.5013 185.204,15.8346 194.5,22.5 Z"/></g>
<g><path style="opacity:1" fill="#f9e281" d="M 83.5,10.5 C 85.1788,10.2852 86.1788,10.9519 86.5,12.5C 81.1667,18.1667 75.8333,23.8333 70.5,29.5C 67.8646,30.8109 65.5313,32.4776 63.5,34.5C 60.2078,31.9427 57.8744,28.6094 56.5,24.5C 64.7725,18.5297 73.7725,13.863 83.5,10.5 Z"/></g>
<g><path style="opacity:1" fill="#51400e" d="M 89.5,10.5 C 89.8333,10.5 90.1667,10.5 90.5,10.5C 92.8982,16.6951 94.8982,23.0285 96.5,29.5C 92.3989,30.7908 88.3989,30.7908 84.5,29.5C 87.1667,29.5 89.8333,29.5 92.5,29.5C 93.4972,29.5299 94.1639,29.0299 94.5,28C 92.7185,22.1606 91.0518,16.3273 89.5,10.5 Z"/></g>
<g><path style="opacity:1" fill="#ee9c13" d="M 159.5,6.5 C 161.973,6.08824 163.306,7.08824 163.5,9.5C 161.462,13.9399 159.796,18.6066 158.5,23.5C 158.179,25.0481 157.179,25.7148 155.5,25.5C 156.76,20.0524 158.427,14.719 160.5,9.5C 160.315,8.41635 159.982,7.41635 159.5,6.5 Z"/></g>
<g><path style="opacity:1" fill="#47380d" d="M 163.5,9.5 C 163.833,9.5 164.167,9.5 164.5,9.5C 163.173,13.8156 161.84,18.1489 160.5,22.5C 160.543,23.4164 160.876,24.0831 161.5,24.5C 161.44,25.0431 161.107,25.3764 160.5,25.5C 159.818,24.7573 159.151,24.0906 158.5,23.5C 159.796,18.6066 161.462,13.9399 163.5,9.5 Z"/></g>
<g><path style="opacity:1" fill="#fbd226" d="M 86.5,12.5 C 86.8333,12.5 87.1667,12.5 87.5,12.5C 89.3651,18.0966 91.0318,23.7632 92.5,29.5C 89.8333,29.5 87.1667,29.5 84.5,29.5C 79.8333,29.5 75.1667,29.5 70.5,29.5C 75.8333,23.8333 81.1667,18.1667 86.5,12.5 Z"/></g>
<g><path style="opacity:1" fill="#ee9913" d="M 89.5,10.5 C 91.0518,16.3273 92.7185,22.1606 94.5,28C 94.1639,29.0299 93.4972,29.5299 92.5,29.5C 91.0318,23.7632 89.3651,18.0966 87.5,12.5C 87.8333,11.5 88.5,10.8333 89.5,10.5 Z"/></g>
<g><path style="opacity:1" fill="#5c4209" d="M 125.5,2.5 C 126.167,2.5 126.833,2.5 127.5,2.5C 127.5,11.8333 127.5,21.1667 127.5,30.5C 126.833,30.5 126.167,30.5 125.5,30.5C 125.5,21.1667 125.5,11.8333 125.5,2.5 Z"/></g>
<g><path style="opacity:1" fill="#130d04" d="M 158.5,23.5 C 159.151,24.0906 159.818,24.7573 160.5,25.5C 161.107,25.3764 161.44,25.0431 161.5,24.5C 165.182,24.3347 168.848,24.5014 172.5,25C 177.155,26.9927 181.489,29.4927 185.5,32.5C 186.899,33.8897 188.566,34.8897 190.5,35.5C 190.5,36.1667 190.833,36.5 191.5,36.5C 192.29,37.4013 193.29,38.0679 194.5,38.5C 196.975,41.2411 199.975,43.2411 203.5,44.5C 205.127,46.6298 206.96,48.6298 209,50.5C 210.411,52.6504 211.245,54.9837 211.5,57.5C 211.5,58.5 211.5,59.5 211.5,60.5C 211.198,63.0593 211.532,65.3926 212.5,67.5C 212.95,75.8257 214.617,83.8257 217.5,91.5C 217.5,92.1667 217.5,92.8333 217.5,93.5C 217.205,95.7354 217.539,97.7354 218.5,99.5C 218.5,99.8333 218.5,100.167 218.5,100.5C 218.5,108.167 218.5,115.833 218.5,123.5C 228.5,123.5 238.5,123.5 248.5,123.5C 248.5,123.833 248.5,124.167 248.5,124.5C 238.5,124.5 228.5,124.5 218.5,124.5C 217.217,132.914 215.55,141.248 213.5,149.5C 212.375,150.348 212.375,151.348 213.5,152.5C 212.508,152.328 211.842,152.662 211.5,153.5C 208.953,160.926 205.619,167.926 201.5,174.5C 200.833,174.5 200.5,174.833 200.5,175.5C 199.662,175.842 199.328,176.508 199.5,177.5C 194.157,183.843 188.157,189.509 181.5,194.5C 180.5,194.833 179.833,195.5 179.5,196.5C 178.508,196.328 177.842,196.662 177.5,197.5C 171.112,201.361 164.446,204.694 157.5,207.5C 156.508,207.328 155.842,207.662 155.5,208.5C 154.833,208.833 154.167,209.167 153.5,209.5C 145.557,210.935 137.557,211.935 129.5,212.5C 125.5,212.5 121.5,212.5 117.5,212.5C 114.167,212.167 110.833,211.833 107.5,211.5C 105.626,210.715 103.626,210.048 101.5,209.5C 100.432,208.566 99.099,208.232 97.5,208.5C 91.457,206.599 85.7903,203.932 80.5,200.5C 76.3656,199.515 72.0323,199.182 67.5,199.5C 62.1993,199.175 57.1993,197.842 52.5,195.5C 49.1835,193.863 45.8501,192.196 42.5,190.5C 42.1667,189.5 41.5,188.833 40.5,188.5C 40.1583,187.662 39.4916,187.328 38.5,187.5C 37.5,185.833 36.1667,184.5 34.5,183.5C 29.2217,177.282 25.2217,170.282 22.5,162.5C 23.1834,160.824 24.5168,160.157 26.5,160.5C 29.2035,160.955 31.8702,161.622 34.5,162.5C 36.8186,161.207 38.1519,159.207 38.5,156.5C 39.3382,156.158 39.6716,155.492 39.5,154.5C 40.625,153.652 40.625,152.652 39.5,151.5C 40.1667,150.833 40.8333,150.167 41.5,149.5C 42.6396,155.121 45.3063,159.788 49.5,163.5C 55.3291,170.084 62.6624,174.084 71.5,175.5C 71.5,175.833 71.5,176.167 71.5,176.5C 58.5648,174.704 48.5648,168.371 41.5,157.5C 39.8888,158.32 39.2222,159.654 39.5,161.5C 38.5655,162.568 38.2322,163.901 38.5,165.5C 34.5182,164.508 30.5182,163.508 26.5,162.5C 25.8333,162.833 25.1667,163.167 24.5,163.5C 36.9355,190.719 57.9355,201.552 87.5,196C 112.682,187.64 125.349,170.14 125.5,143.5C 125.5,140.5 125.5,137.5 125.5,134.5C 124.081,133.549 122.415,133.216 120.5,133.5C 115.232,135.032 109.899,136.366 104.5,137.5C 104.278,140.39 104.945,143.057 106.5,145.5C 110.792,146.274 115.125,146.274 119.5,145.5C 119.5,145.833 119.5,146.167 119.5,146.5C 119.154,150.852 117.488,154.519 114.5,157.5C 115.086,155.16 116.086,152.993 117.5,151C 114.773,150.182 112.106,150.348 109.5,151.5C 110.999,152.904 110.666,153.57 108.5,153.5C 107.584,153.457 106.917,153.124 106.5,152.5C 103.75,149.945 100.75,147.612 97.5,145.5C 96.479,146.002 96.3123,146.668 97,147.5C 99.0153,148.697 100.849,150.03 102.5,151.5C 93.4719,151.54 84.4719,151.04 75.5,150C 73.3921,149.64 71.3921,148.973 69.5,148C 61.9686,140.803 54.8019,133.303 48,125.5C 46.1804,120.494 44.6804,115.494 43.5,110.5C 43.362,105.364 42.5287,100.364 41,95.5C 40.5357,96.0944 40.369,96.7611 40.5,97.5C 39.596,96.791 39.2627,95.791 39.5,94.5C 40.0523,87.6165 41.0523,80.7831 42.5,74C 41.8368,69.5138 40.5034,65.3471 38.5,61.5C 38.5,61.1667 38.5,60.8333 38.5,60.5C 38.8333,60.5 39.1667,60.5 39.5,60.5C 49.0669,57.9335 55.4003,51.9335 58.5,42.5C 59.5,40.5 60.5,38.5 61.5,36.5C 62.5,36.1667 63.1667,35.5 63.5,34.5C 65.5313,32.4776 67.8646,30.8109 70.5,29.5C 75.1667,29.5 79.8333,29.5 84.5,29.5C 88.3989,30.7908 92.3989,30.7908 96.5,29.5C 97.209,30.404 98.209,30.7373 99.5,30.5C 108.167,31.8333 116.833,31.8333 125.5,30.5C 126.167,30.5 126.833,30.5 127.5,30.5C 137.168,30.0974 146.502,28.4308 155.5,25.5C 157.179,25.7148 158.179,25.0481 158.5,23.5 Z"/></g>
<g><path style="opacity:1" fill="#f0c976" d="M 194.5,22.5 C 195.5,23.1667 196.5,23.8333 197.5,24.5C 195.416,28.3359 193.083,32.0026 190.5,35.5C 188.566,34.8897 186.899,33.8897 185.5,32.5C 189.234,29.7689 192.234,26.4356 194.5,22.5 Z"/></g>
<g><path style="opacity:1" fill="#f7e081" d="M 200.5,26.5 C 201.694,27.2719 202.694,28.2719 203.5,29.5C 200.167,32.1667 197.167,35.1667 194.5,38.5C 193.29,38.0679 192.29,37.4013 191.5,36.5C 193.616,32.1897 196.616,28.8564 200.5,26.5 Z"/></g>
<g><path style="opacity:1" fill="#f9d603" d="M 146.5,59.5 C 130.508,60.1633 114.508,61.83 98.5,64.5C 85.5287,59.6775 73.1953,53.8442 61.5,47C 66.4577,33.6929 75.791,29.5262 89.5,34.5C 88.4324,35.4345 87.099,35.7678 85.5,35.5C 80.8215,35.3342 76.1548,35.5008 71.5,36C 69.8753,36.8525 69.5419,37.8525 70.5,39C 85.4971,39.8667 100.497,40.2 115.5,40C 116.684,38.8545 116.684,37.6879 115.5,36.5C 131.064,35.6217 146.397,33.1217 161.5,29C 166.403,28.0631 171.07,28.7298 175.5,31C 184.167,37 192.833,43 201.5,49C 205.688,52.2031 207.521,56.3697 207,61.5C 204.71,58.4201 202.543,55.2534 200.5,52C 191.507,51.0192 182.507,50.1858 173.5,49.5C 164.482,52.8387 155.482,56.172 146.5,59.5 Z"/></g>
<g><path style="opacity:1" fill="#fde381" d="M 54.5,26.5 C 54.8333,26.5 55.1667,26.5 55.5,26.5C 57.0751,30.0781 59.0751,33.4114 61.5,36.5C 60.5,38.5 59.5,40.5 58.5,42.5C 51.8886,47.7737 45.5553,53.4404 39.5,59.5C 36.4114,57.0751 33.0781,55.0751 29.5,53.5C 29.5,53.1667 29.5,52.8333 29.5,52.5C 38.4573,44.5405 46.7907,35.8739 54.5,26.5 Z"/></g>
<g><path style="opacity:1" fill="#f6cf26" d="M 203.5,29.5 C 206.784,31.117 209.451,33.4503 211.5,36.5C 209.167,39.5 206.5,42.1667 203.5,44.5C 199.975,43.2411 196.975,41.2411 194.5,38.5C 197.167,35.1667 200.167,32.1667 203.5,29.5 Z"/></g>
<g><path style="opacity:1" fill="#888069" d="M 56.5,24.5 C 57.8744,28.6094 60.2078,31.9427 63.5,34.5C 63.1667,35.5 62.5,36.1667 61.5,36.5C 59.0751,33.4114 57.0751,30.0781 55.5,26.5C 55.3284,25.5084 55.6618,24.8417 56.5,24.5 Z"/></g>
<g><path style="opacity:1" fill="#8c8570" d="M 197.5,24.5 C 198.71,24.9321 199.71,25.5987 200.5,26.5C 196.616,28.8564 193.616,32.1897 191.5,36.5C 190.833,36.5 190.5,36.1667 190.5,35.5C 193.083,32.0026 195.416,28.3359 197.5,24.5 Z"/></g>
<g><path style="opacity:1" fill="#dcc644" d="M 89.5,34.5 C 98.3385,34.8767 107.005,35.5434 115.5,36.5C 105.319,36.8274 95.3194,36.494 85.5,35.5C 87.099,35.7678 88.4324,35.4345 89.5,34.5 Z"/></g>
<g><path style="opacity:1" fill="#fffdef" d="M 85.5,35.5 C 95.3194,36.494 105.319,36.8274 115.5,36.5C 116.684,37.6879 116.684,38.8545 115.5,40C 100.497,40.2 85.4971,39.8667 70.5,39C 69.5419,37.8525 69.8753,36.8525 71.5,36C 76.1548,35.5008 80.8215,35.3342 85.5,35.5 Z"/></g>
<g><path style="opacity:1" fill="#f7da69" d="M 211.5,36.5 C 215.876,39.8744 219.542,43.8744 222.5,48.5C 222.141,50.371 221.141,51.871 219.5,53C 217.183,55.1569 214.516,56.6569 211.5,57.5C 211.245,54.9837 210.411,52.6504 209,50.5C 206.96,48.6298 205.127,46.6298 203.5,44.5C 206.5,42.1667 209.167,39.5 211.5,36.5 Z"/></g>
<g><path style="opacity:1" fill="#f1ca25" d="M 58.5,42.5 C 55.4003,51.9335 49.0669,57.9335 39.5,60.5C 39.5,60.1667 39.5,59.8333 39.5,59.5C 45.5553,53.4404 51.8886,47.7737 58.5,42.5 Z"/></g>
<g><path style="opacity:1" fill="#edc82a" d="M 54.5,26.5 C 46.7907,35.8739 38.4573,44.5405 29.5,52.5C 35.491,42.1632 43.8243,33.4965 54.5,26.5 Z"/></g>
<g><path style="opacity:1" fill="#908871" d="M 28.5,53.5 C 28.8333,53.5 29.1667,53.5 29.5,53.5C 33.0781,55.0751 36.4114,57.0751 39.5,59.5C 39.5,59.8333 39.5,60.1667 39.5,60.5C 39.1667,60.5 38.8333,60.5 38.5,60.5C 34.7792,58.6465 31.4459,56.3131 28.5,53.5 Z"/></g>
<g><path style="opacity:1" fill="#fbdd6a" d="M 226.5,53.5 C 232.804,62.4399 237.804,72.1065 241.5,82.5C 240.22,83.9313 238.553,84.5979 236.5,84.5C 235.142,79.9207 233.642,75.254 232,70.5C 231.492,68.0958 230.325,67.4291 228.5,68.5C 230.977,73.5958 232.643,78.9291 233.5,84.5C 232.038,85.4577 230.705,86.6244 229.5,88C 225.324,88.6711 221.324,89.8377 217.5,91.5C 214.617,83.8257 212.95,75.8257 212.5,67.5C 212.34,65.8008 212.506,64.1341 213,62.5C 217.127,58.8592 221.627,55.8592 226.5,53.5 Z"/></g>
<g><path style="opacity:1" fill="#eeb75e" d="M 222.5,48.5 C 223.5,48.8333 224.167,49.5 224.5,50.5C 221.186,55.0092 216.852,58.3425 211.5,60.5C 211.5,59.5 211.5,58.5 211.5,57.5C 214.516,56.6569 217.183,55.1569 219.5,53C 221.141,51.871 222.141,50.371 222.5,48.5 Z"/></g>
<g><path style="opacity:1" fill="#f6dc7c" d="M 28.5,53.5 C 31.4459,56.3131 34.7792,58.6465 38.5,60.5C 38.5,60.8333 38.5,61.1667 38.5,61.5C 34.335,65.4968 30.0017,69.3301 25.5,73C 20.8983,77.0937 16.8983,81.5937 13.5,86.5C 12.1667,86.5 11.5,85.8333 11.5,84.5C 14.8851,72.715 20.5518,62.3816 28.5,53.5 Z"/></g>
<g><path style="opacity:1" fill="#786f52" d="M 224.5,50.5 C 225.401,51.2905 226.068,52.2905 226.5,53.5C 221.627,55.8592 217.127,58.8592 213,62.5C 212.506,64.1341 212.34,65.8008 212.5,67.5C 211.532,65.3926 211.198,63.0593 211.5,60.5C 216.852,58.3425 221.186,55.0092 224.5,50.5 Z"/></g>
<g><path style="opacity:1" fill="#f7cf25" d="M 38.5,61.5 C 40.5034,65.3471 41.8368,69.5138 42.5,74C 41.0523,80.7831 40.0523,87.6165 39.5,94.5C 30.6539,92.4404 21.9872,89.7737 13.5,86.5C 16.8983,81.5937 20.8983,77.0937 25.5,73C 30.0017,69.3301 34.335,65.4968 38.5,61.5 Z"/></g>
<g><path style="opacity:1" fill="#f8c402" d="M 146.5,59.5 C 140.35,62.4028 134.016,65.0695 127.5,67.5C 116.756,70.2224 105.756,72.0557 94.5,73C 95.7375,73.2321 96.7375,73.7321 97.5,74.5C 81.2017,76.1384 64.8684,77.4717 48.5,78.5C 48.5,79.5 48.5,80.5 48.5,81.5C 47.5489,80.0813 47.2155,78.4147 47.5,76.5C 49.5491,70.1109 53.8824,65.9443 60.5,64C 72.8152,64.6973 85.1486,65.5306 97.5,66.5C 99.2884,67.6225 101.288,67.7891 103.5,67C 102.473,66.4867 101.473,65.9867 100.5,65.5C 99.5084,65.6716 98.8417,65.3382 98.5,64.5C 114.508,61.83 130.508,60.1633 146.5,59.5 Z"/></g>
<g><path style="opacity:1" fill="#645002" d="M 100.5,65.5 C 101.473,65.9867 102.473,66.4867 103.5,67C 101.288,67.7891 99.2884,67.6225 97.5,66.5C 98.791,66.7373 99.791,66.404 100.5,65.5 Z"/></g>
<g><path style="opacity:1" fill="#efb404" d="M 196.5,66.5 C 196.082,67.2216 195.416,67.7216 194.5,68C 188.825,68.5935 183.158,69.2602 177.5,70C 180.036,70.1862 182.369,70.6862 184.5,71.5C 178.31,71.1771 172.31,71.5104 166.5,72.5C 151.5,72.5 136.5,72.5 121.5,72.5C 121.5,74.1667 121.5,75.8333 121.5,77.5C 118.833,77.5 116.167,77.5 113.5,77.5C 112.566,76.4324 112.232,75.099 112.5,73.5C 110.585,73.2155 108.919,73.5489 107.5,74.5C 104.167,74.5 100.833,74.5 97.5,74.5C 96.7375,73.7321 95.7375,73.2321 94.5,73C 105.756,72.0557 116.756,70.2224 127.5,67.5C 146.326,67.2748 165.326,66.2748 184.5,64.5C 188.761,64.4109 192.761,65.0776 196.5,66.5 Z"/></g>
<g><path style="opacity:1" fill="#996d03" d="M 166.5,72.5 C 172.31,71.5104 178.31,71.1771 184.5,71.5C 186.167,71.5 187.833,71.5 189.5,71.5C 189.768,73.099 189.434,74.4324 188.5,75.5C 188.5,74.5 188.5,73.5 188.5,72.5C 181.167,72.5 173.833,72.5 166.5,72.5 Z"/></g>
<g><path style="opacity:1" fill="#0e0903" d="M 166.5,72.5 C 173.833,72.5 181.167,72.5 188.5,72.5C 188.5,73.5 188.5,74.5 188.5,75.5C 188.5,76.1667 188.5,76.8333 188.5,77.5C 183.143,87.3246 174.81,93.1579 163.5,95C 151.185,97.333 139.852,95.1663 129.5,88.5C 127.334,86.1633 125.334,83.6633 123.5,81C 119.5,80.3333 115.5,80.3333 111.5,81C 107.788,86.3793 103.121,90.7127 97.5,94C 106.536,93.6965 115.536,92.8632 124.5,91.5C 126.527,91.3379 128.527,91.5045 130.5,92C 138.188,95.5118 145.855,99.0118 153.5,102.5C 154.522,103.892 154.189,105.225 152.5,106.5C 145.712,103.606 139.045,100.44 132.5,97C 129.592,96.0069 126.592,95.5069 123.5,95.5C 108.15,97.15 92.8171,98.9833 77.5,101C 76.6198,102.356 76.2865,103.856 76.5,105.5C 74.7146,110.627 73.2146,115.96 72,121.5C 70.9887,122.337 69.8221,122.67 68.5,122.5C 68.5,121.167 68.5,119.833 68.5,118.5C 69.8244,114.257 71.1577,109.924 72.5,105.5C 73.2186,103.236 73.552,100.903 73.5,98.5C 62.2061,97.0313 53.8728,91.3647 48.5,81.5C 48.5,80.5 48.5,79.5 48.5,78.5C 64.8684,77.4717 81.2017,76.1384 97.5,74.5C 100.833,74.5 104.167,74.5 107.5,74.5C 108.833,74.5 110.167,74.5 111.5,74.5C 111.238,75.9778 111.571,77.3112 112.5,78.5C 113.107,78.3764 113.44,78.0431 113.5,77.5C 116.167,77.5 118.833,77.5 121.5,77.5C 121.5,75.8333 121.5,74.1667 121.5,72.5C 136.5,72.5 151.5,72.5 166.5,72.5 Z"/></g>
<g><path style="opacity:1" fill="#8a6703" d="M 107.5,74.5 C 108.919,73.5489 110.585,73.2155 112.5,73.5C 112.232,75.099 112.566,76.4324 113.5,77.5C 113.44,78.0431 113.107,78.3764 112.5,78.5C 111.571,77.3112 111.238,75.9778 111.5,74.5C 110.167,74.5 108.833,74.5 107.5,74.5 Z"/></g>
<g><path style="opacity:1" fill="#dcdcdc" d="M 150.5,73.5 C 153.076,73.7218 153.91,75.0551 153,77.5C 150.329,81.6622 147.495,85.6622 144.5,89.5C 142.717,88.6518 142.217,87.3185 143,85.5C 145.725,81.6155 148.225,77.6155 150.5,73.5 Z"/></g>
<g><path style="opacity:1" fill="#f5a50e" d="M 196.5,66.5 C 200.197,67.0078 203.864,67.6745 207.5,68.5C 208.428,76.3319 208.428,83.9986 207.5,91.5C 204.535,84.5597 199.202,81.2264 191.5,81.5C 190.791,80.596 189.791,80.2627 188.5,80.5C 188.5,79.5 188.5,78.5 188.5,77.5C 188.5,76.8333 188.5,76.1667 188.5,75.5C 189.434,74.4324 189.768,73.099 189.5,71.5C 187.833,71.5 186.167,71.5 184.5,71.5C 182.369,70.6862 180.036,70.1862 177.5,70C 183.158,69.2602 188.825,68.5935 194.5,68C 195.416,67.7216 196.082,67.2216 196.5,66.5 Z"/></g>
<g><path style="opacity:1" fill="#e4e4e4" d="M 158.5,74.5 C 159.5,74.5 160.5,74.5 161.5,74.5C 160.067,80.8674 157.401,86.7007 153.5,92C 152.552,92.4828 151.552,92.6495 150.5,92.5C 150.343,91.1266 150.51,89.7932 151,88.5C 154.291,84.2518 156.791,79.5851 158.5,74.5 Z"/></g>
<g><path style="opacity:1" fill="#e2e2e2" d="M 74.5,78.5 C 75.5,78.5 76.5,78.5 77.5,78.5C 76.2356,83.96 74.5689,89.2933 72.5,94.5C 71.5,94.5 70.5,94.5 69.5,94.5C 70.3573,88.9275 72.0239,83.5941 74.5,78.5 Z"/></g>
<g><path style="opacity:1" fill="#fef6e0" d="M 236.5,84.5 C 236.5,85.5 236.5,86.5 236.5,87.5C 236.5,88.1667 236.833,88.5 237.5,88.5C 238.184,92.5537 238.184,96.5537 237.5,100.5C 235.999,96.9058 234.999,93.2391 234.5,89.5C 234.5,89.1667 234.5,88.8333 234.5,88.5C 234.167,87.1667 233.833,85.8333 233.5,84.5C 232.643,78.9291 230.977,73.5958 228.5,68.5C 230.325,67.4291 231.492,68.0958 232,70.5C 233.642,75.254 235.142,79.9207 236.5,84.5 Z"/></g>
<g><path style="opacity:1" fill="#e2e2e2" d="M 81.5,79.5 C 82.5,79.5 83.5,79.5 84.5,79.5C 84.4248,82.4067 83.5914,85.0734 82,87.5C 80.9887,88.3366 79.8221,88.67 78.5,88.5C 78.6469,85.2084 79.6469,82.2084 81.5,79.5 Z"/></g>
<g><path style="opacity:1" fill="#fef9f1" d="M 191.5,81.5 C 199.202,81.2264 204.535,84.5597 207.5,91.5C 205.598,92.5109 203.598,92.6776 201.5,92C 198.813,88.3062 195.313,85.8062 191,84.5C 190.53,83.4232 190.697,82.4232 191.5,81.5 Z"/></g>
<g><path style="opacity:1" fill="#ed9e07" d="M 129.5,88.5 C 127.632,89.2632 125.965,90.2632 124.5,91.5C 115.536,92.8632 106.536,93.6965 97.5,94C 103.121,90.7127 107.788,86.3793 111.5,81C 115.5,80.3333 119.5,80.3333 123.5,81C 125.334,83.6633 127.334,86.1633 129.5,88.5 Z"/></g>
<g><path style="opacity:1" fill="#dc9113" d="M 241.5,82.5 C 242.791,83.5417 242.791,84.7083 241.5,86C 239.846,86.6077 238.179,87.1077 236.5,87.5C 236.5,86.5 236.5,85.5 236.5,84.5C 238.553,84.5979 240.22,83.9313 241.5,82.5 Z"/></g>
<g><path style="opacity:1" fill="#fad226" d="M 248.5,107.5 C 248.5,112.167 248.5,116.833 248.5,121.5C 238.833,121.5 229.167,121.5 219.5,121.5C 219.825,114.313 219.491,107.313 218.5,100.5C 218.5,100.167 218.5,99.8333 218.5,99.5C 218.5,97.8333 218.5,96.1667 218.5,94.5C 224.05,93.2036 229.383,91.537 234.5,89.5C 234.999,93.2391 235.999,96.9058 237.5,100.5C 238.184,96.5537 238.184,92.5537 237.5,88.5C 239.713,87.3947 241.88,87.3947 244,88.5C 245.692,94.9293 247.192,101.263 248.5,107.5 Z"/></g>
<g><path style="opacity:1" fill="#ec8b0d" d="M 188.5,77.5 C 188.5,78.5 188.5,79.5 188.5,80.5C 189.791,80.2627 190.791,80.596 191.5,81.5C 190.697,82.4232 190.53,83.4232 191,84.5C 195.313,85.8062 198.813,88.3062 201.5,92C 203.598,92.6776 205.598,92.5109 207.5,91.5C 207.737,92.791 207.404,93.791 206.5,94.5C 205.903,93.8614 205.07,93.528 204,93.5C 187.233,96.1168 170.399,98.1168 153.5,99.5C 153.5,100.5 153.5,101.5 153.5,102.5C 145.855,99.0118 138.188,95.5118 130.5,92C 128.527,91.5045 126.527,91.3379 124.5,91.5C 125.965,90.2632 127.632,89.2632 129.5,88.5C 139.852,95.1663 151.185,97.333 163.5,95C 174.81,93.1579 183.143,87.3246 188.5,77.5 Z"/></g>
<g><path style="opacity:1" fill="#f7b54e" d="M 233.5,84.5 C 233.833,85.8333 234.167,87.1667 234.5,88.5C 228.891,90.3195 223.224,91.9861 217.5,93.5C 217.5,92.8333 217.5,92.1667 217.5,91.5C 221.324,89.8377 225.324,88.6711 229.5,88C 230.705,86.6244 232.038,85.4577 233.5,84.5 Z"/></g>
<g><path style="opacity:1" fill="#81580a" d="M 214.5,94.5 C 213.833,93.5 213.167,92.5 212.5,91.5C 212.343,90.1266 212.51,88.7932 213,87.5C 213.977,89.74 214.477,92.0733 214.5,94.5 Z"/></g>
<g><path style="opacity:1" fill="#fbd324" d="M 9.5,89.5 C 19.1643,92.2742 28.4977,95.6075 37.5,99.5C 36.7035,104.816 36.0369,110.149 35.5,115.5C 35.5,116.5 35.5,117.5 35.5,118.5C 34.5655,119.568 34.2322,120.901 34.5,122.5C 24.8333,122.5 15.1667,122.5 5.5,122.5C 5.5,119.167 5.5,115.833 5.5,112.5C 5.80506,104.643 7.13839,96.9762 9.5,89.5 Z"/></g>
<g><path style="opacity:1" fill="#ef9c13" d="M 10.5,87.5 C 19.7702,90.3676 29.1035,93.0342 38.5,95.5C 38.7678,97.099 38.4345,98.4324 37.5,99.5C 28.4977,95.6075 19.1643,92.2742 9.5,89.5C 9.32842,88.5084 9.66175,87.8417 10.5,87.5 Z"/></g>
<g><path style="opacity:1" fill="#625535" d="M 234.5,88.5 C 234.5,88.8333 234.5,89.1667 234.5,89.5C 229.383,91.537 224.05,93.2036 218.5,94.5C 218.5,96.1667 218.5,97.8333 218.5,99.5C 217.539,97.7354 217.205,95.7354 217.5,93.5C 223.224,91.9861 228.891,90.3195 234.5,88.5 Z"/></g>
<g><path style="opacity:1" fill="#48340d" d="M 11.5,84.5 C 11.5,85.8333 12.1667,86.5 13.5,86.5C 21.9872,89.7737 30.6539,92.4404 39.5,94.5C 39.2627,95.791 39.596,96.791 40.5,97.5C 36.2928,114.911 36.6262,132.245 41.5,149.5C 40.8333,150.167 40.1667,150.833 39.5,151.5C 37.7805,143.569 36.4472,135.569 35.5,127.5C 36.8333,123.5 36.8333,119.5 35.5,115.5C 36.0369,110.149 36.7035,104.816 37.5,99.5C 38.4345,98.4324 38.7678,97.099 38.5,95.5C 29.1035,93.0342 19.7702,90.3676 10.5,87.5C 10.2627,86.209 10.596,85.209 11.5,84.5 Z"/></g>
<g><path style="opacity:1" fill="#ee9f07" d="M 47.5,76.5 C 47.2155,78.4147 47.5489,80.0813 48.5,81.5C 53.8728,91.3647 62.2061,97.0313 73.5,98.5C 64.7071,99.1817 56.0404,100.515 47.5,102.5C 43.9623,93.6774 43.9623,85.0107 47.5,76.5 Z"/></g>
<g><path style="opacity:1" fill="#f09811" d="M 43.5,110.5 C 40.3379,128.58 42.3379,146.247 49.5,163.5C 45.3063,159.788 42.6396,155.121 41.5,149.5C 36.6262,132.245 36.2928,114.911 40.5,97.5C 40.369,96.7611 40.5357,96.0944 41,95.5C 42.5287,100.364 43.362,105.364 43.5,110.5 Z"/></g>
<g><path style="opacity:1" fill="#e78d0e" d="M 212.5,91.5 C 213.167,92.5 213.833,93.5 214.5,94.5C 215.474,104.418 215.807,114.418 215.5,124.5C 214.732,125.263 214.232,126.263 214,127.5C 213.581,126.328 212.915,125.328 212,124.5C 210.334,116.717 209.168,109.051 208.5,101.5C 209.276,97.9475 210.609,94.6142 212.5,91.5 Z"/></g>
<g><path style="opacity:1" fill="#f0850b" d="M 206.5,94.5 C 205.773,96.9538 204.773,99.2872 203.5,101.5C 180.962,105.115 158.295,107.782 135.5,109.5C 135.5,108.5 135.5,107.5 135.5,106.5C 131.74,105.774 129.073,107.107 127.5,110.5C 112.987,113.315 98.3205,115.315 83.5,116.5C 83.6383,112.307 81.6383,109.973 77.5,109.5C 76.5655,108.432 76.2322,107.099 76.5,105.5C 76.2865,103.856 76.6198,102.356 77.5,101C 92.8171,98.9833 108.15,97.15 123.5,95.5C 126.592,95.5069 129.592,96.0069 132.5,97C 139.045,100.44 145.712,103.606 152.5,106.5C 154.189,105.225 154.522,103.892 153.5,102.5C 153.5,101.5 153.5,100.5 153.5,99.5C 170.399,98.1168 187.233,96.1168 204,93.5C 205.07,93.528 205.903,93.8614 206.5,94.5 Z"/></g>
<g><path style="opacity:1" fill="#f39309" d="M 73.5,98.5 C 73.552,100.903 73.2186,103.236 72.5,105.5C 64.6183,107.32 56.6183,108.653 48.5,109.5C 48.0074,107.194 47.6741,104.861 47.5,102.5C 56.0404,100.515 64.7071,99.1817 73.5,98.5 Z"/></g>
<g><path style="opacity:1" fill="#ee750d" d="M 203.5,101.5 C 201.736,106.022 199.736,110.355 197.5,114.5C 195.167,114.5 192.833,114.5 190.5,114.5C 190.795,112.265 190.461,110.265 189.5,108.5C 189.158,107.662 188.492,107.328 187.5,107.5C 185.824,108.183 185.157,109.517 185.5,111.5C 142.692,116.517 100.025,122.184 57.5,128.5C 54.7805,126.781 52.7805,124.447 51.5,121.5C 57.0637,120.095 62.7304,119.095 68.5,118.5C 68.5,119.833 68.5,121.167 68.5,122.5C 69.8221,122.67 70.9887,122.337 72,121.5C 73.2146,115.96 74.7146,110.627 76.5,105.5C 76.2322,107.099 76.5655,108.432 77.5,109.5C 76.0726,115.03 78.0726,117.363 83.5,116.5C 98.3205,115.315 112.987,113.315 127.5,110.5C 130.489,114.525 133.156,114.191 135.5,109.5C 158.295,107.782 180.962,105.115 203.5,101.5 Z"/></g>
<g><path style="opacity:1" fill="#150a01" d="M 135.5,109.5 C 133.156,114.191 130.489,114.525 127.5,110.5C 129.073,107.107 131.74,105.774 135.5,106.5C 135.5,107.5 135.5,108.5 135.5,109.5 Z"/></g>
<g><path style="opacity:1" fill="#160b01" d="M 77.5,109.5 C 81.6383,109.973 83.6383,112.307 83.5,116.5C 78.0726,117.363 76.0726,115.03 77.5,109.5 Z"/></g>
<g><path style="opacity:1" fill="#502605" d="M 187.5,107.5 C 186.935,109.952 186.268,112.285 185.5,114.5C 185.5,113.5 185.5,112.5 185.5,111.5C 185.157,109.517 185.824,108.183 187.5,107.5 Z"/></g>
<g><path style="opacity:1" fill="#d96f0b" d="M 208.5,101.5 C 209.168,109.051 210.334,116.717 212,124.5C 212.915,125.328 213.581,126.328 214,127.5C 214.232,126.263 214.732,125.263 215.5,124.5C 214.623,132.258 212.623,139.592 209.5,146.5C 207.115,135.24 205.115,123.907 203.5,112.5C 204.382,108.407 206.049,104.74 208.5,101.5 Z"/></g>
<g><path style="opacity:1" fill="#ef840b" d="M 72.5,105.5 C 71.1577,109.924 69.8244,114.257 68.5,118.5C 62.7304,119.095 57.0637,120.095 51.5,121.5C 49.8699,117.774 48.8699,113.774 48.5,109.5C 56.6183,108.653 64.6183,107.32 72.5,105.5 Z"/></g>
<g><path style="opacity:1" fill="#ef690f" d="M 185.5,111.5 C 185.5,112.5 185.5,113.5 185.5,114.5C 185.435,118.107 183.769,120.44 180.5,121.5C 179.258,120.957 177.925,120.623 176.5,120.5C 139.672,125.221 102.838,129.888 66,134.5C 64.4672,134.227 62.9672,133.894 61.5,133.5C 60.1667,131.833 58.8333,130.167 57.5,128.5C 100.025,122.184 142.692,116.517 185.5,111.5 Z"/></g>
<g><path style="opacity:1" fill="#f9d124" d="M 43.5,110.5 C 44.6804,115.494 46.1804,120.494 48,125.5C 54.8019,133.303 61.9686,140.803 69.5,148C 71.3921,148.973 73.3921,149.64 75.5,150C 84.4719,151.04 93.4719,151.54 102.5,151.5C 103.833,151.833 105.167,152.167 106.5,152.5C 106.917,153.124 107.584,153.457 108.5,153.5C 110.666,153.57 110.999,152.904 109.5,151.5C 112.106,150.348 114.773,150.182 117.5,151C 116.086,152.993 115.086,155.16 114.5,157.5C 113.094,157.973 112.427,158.973 112.5,160.5C 109.833,162.5 107.5,164.833 105.5,167.5C 103.147,168.34 101.147,169.674 99.5,171.5C 95.617,172.459 91.9503,173.792 88.5,175.5C 82.8333,175.5 77.1667,175.5 71.5,175.5C 62.6624,174.084 55.3291,170.084 49.5,163.5C 42.3379,146.247 40.3379,128.58 43.5,110.5 Z"/></g>
<g><path style="opacity:1" fill="#caa91d" d="M 5.5,112.5 C 5.5,115.833 5.5,119.167 5.5,122.5C 15.1667,122.5 24.8333,122.5 34.5,122.5C 34.2322,120.901 34.5655,119.568 35.5,118.5C 35.5,120.167 35.5,121.833 35.5,123.5C 25.1667,123.5 14.8333,123.5 4.5,123.5C 4.18503,119.629 4.51836,115.962 5.5,112.5 Z"/></g>
<g><path style="opacity:1" fill="#ca8612" d="M 218.5,100.5 C 219.491,107.313 219.825,114.313 219.5,121.5C 229.167,121.5 238.833,121.5 248.5,121.5C 248.5,122.167 248.5,122.833 248.5,123.5C 238.5,123.5 228.5,123.5 218.5,123.5C 218.5,115.833 218.5,108.167 218.5,100.5 Z"/></g>
<g><path style="opacity:1" fill="#cf5407" d="M 203.5,112.5 C 205.115,123.907 207.115,135.24 209.5,146.5C 208.458,151.642 206.458,156.309 203.5,160.5C 202.337,152.849 201.337,145.183 200.5,137.5C 200.334,130.492 200.5,123.492 201,116.5C 201.608,114.934 202.442,113.6 203.5,112.5 Z"/></g>
<g><path style="opacity:1" fill="#e79712" d="M 35.5,127.5 C 25.5,127.5 15.5,127.5 5.5,127.5C 4.59603,126.791 4.26269,125.791 4.5,124.5C 14.8333,124.5 25.1667,124.5 35.5,124.5C 35.5,125.5 35.5,126.5 35.5,127.5 Z"/></g>
<g><path style="opacity:1" fill="#fad124" d="M 248.5,124.5 C 248.5,130.5 248.5,136.5 248.5,142.5C 247.613,146.1 246.613,149.767 245.5,153.5C 243.833,154.833 242.167,156.167 240.5,157.5C 231.348,155.296 222.348,152.629 213.5,149.5C 215.55,141.248 217.217,132.914 218.5,124.5C 228.5,124.5 238.5,124.5 248.5,124.5 Z"/></g>
<g><path style="opacity:1" fill="#fbd224" d="M 5.5,127.5 C 15.5,127.5 25.5,127.5 35.5,127.5C 36.4472,135.569 37.7805,143.569 39.5,151.5C 30.32,154.393 21.1534,157.393 12,160.5C 11.0979,160.257 10.2646,159.923 9.5,159.5C 6.23317,149.091 4.89984,138.425 5.5,127.5 Z"/></g>
<g><path style="opacity:1" fill="#e45910" d="M 180.5,121.5 C 170.568,126.751 159.902,129.918 148.5,131C 138.251,131.905 128.084,131.405 118,129.5C 106.453,134.984 94.2859,136.984 81.5,135.5C 81.5,136.833 81.5,138.167 81.5,139.5C 87.8977,138.13 92.5644,140.13 95.5,145.5C 81.161,149.331 69.8276,145.331 61.5,133.5C 62.9672,133.894 64.4672,134.227 66,134.5C 102.838,129.888 139.672,125.221 176.5,120.5C 177.925,120.623 179.258,120.957 180.5,121.5 Z"/></g>
<g><path style="opacity:1" fill="#f7f392" d="M 195.5,129.5 C 196.487,134.305 196.821,139.305 196.5,144.5C 183.848,157.153 168.514,163.153 150.5,162.5C 150.942,158.846 151.276,155.179 151.5,151.5C 150.167,151.5 148.833,151.5 147.5,151.5C 147.54,154.881 147.207,158.214 146.5,161.5C 144.11,161.315 143.11,159.982 143.5,157.5C 144.49,153.544 145.156,149.544 145.5,145.5C 153.903,145.408 162.236,144.575 170.5,143C 179.148,139.011 187.481,134.511 195.5,129.5 Z"/></g>
<g><path style="opacity:1" fill="#df4d11" d="M 189.5,108.5 C 190.461,110.265 190.795,112.265 190.5,114.5C 192.833,114.5 195.167,114.5 197.5,114.5C 196.507,119.985 193.841,124.485 189.5,128C 183.5,131.333 177.5,134.667 171.5,138C 164.887,139.896 158.22,140.396 151.5,139.5C 153.19,133.627 157.19,131.127 163.5,132C 171.108,129.853 178.441,127.02 185.5,123.5C 188.849,119.071 190.183,114.071 189.5,108.5 Z"/></g>
<g><path style="opacity:1" fill="#a73b0c" d="M 141.5,135.5 C 136.637,135.181 131.97,135.514 127.5,136.5C 126.957,136.44 126.624,136.107 126.5,135.5C 131.652,134.186 136.652,134.186 141.5,135.5 Z"/></g>
<g><path style="opacity:1" fill="#d6d6d6" d="M 149.5,134.5 C 150.898,137.356 150.398,140.022 148,142.5C 148.73,139.979 149.23,137.313 149.5,134.5 Z"/></g>
<g><path style="opacity:1" fill="#a09d5e" d="M 196.5,144.5 C 196.821,139.305 196.487,134.305 195.5,129.5C 195.783,128.711 196.283,128.044 197,127.5C 197.818,133.349 197.652,139.015 196.5,144.5 Z"/></g>
<g><path style="opacity:1" fill="#e24a12" d="M 141.5,135.5 C 141.007,137.806 140.674,140.139 140.5,142.5C 136.202,143.2 131.869,143.533 127.5,143.5C 127.5,141.167 127.5,138.833 127.5,136.5C 131.97,135.514 136.637,135.181 141.5,135.5 Z"/></g>
<g><path style="opacity:1" fill="#e14b12" d="M 120.5,133.5 C 120.605,137.548 120.272,141.548 119.5,145.5C 115.125,146.274 110.792,146.274 106.5,145.5C 104.945,143.057 104.278,140.39 104.5,137.5C 109.899,136.366 115.232,135.032 120.5,133.5 Z"/></g>
<g><path style="opacity:1" fill="#541005" d="M 120.5,133.5 C 122.415,133.216 124.081,133.549 125.5,134.5C 124.5,134.5 123.5,134.5 122.5,134.5C 122.416,138.837 121.416,142.837 119.5,146.5C 119.5,146.167 119.5,145.833 119.5,145.5C 120.272,141.548 120.605,137.548 120.5,133.5 Z"/></g>
<g><path style="opacity:1" fill="#bebdbb" d="M 106.5,152.5 C 105.167,152.167 103.833,151.833 102.5,151.5C 100.849,150.03 99.0153,148.697 97,147.5C 96.3123,146.668 96.479,146.002 97.5,145.5C 100.75,147.612 103.75,149.945 106.5,152.5 Z"/></g>
<g><path style="opacity:1" fill="#c9000a" d="M 125.5,143.5 C 125.349,170.14 112.682,187.64 87.5,196C 57.9355,201.552 36.9355,190.719 24.5,163.5C 25.1667,163.167 25.8333,162.833 26.5,162.5C 30.5182,163.508 34.5182,164.508 38.5,165.5C 38.2322,163.901 38.5655,162.568 39.5,161.5C 39.0807,164.325 40.0807,166.491 42.5,168C 55.6996,177.971 69.6996,181.138 84.5,177.5C 85.8333,176.833 87.1667,176.167 88.5,175.5C 89.5,175.5 90.5,175.5 91.5,175.5C 92.6009,176.598 93.9343,176.765 95.5,176C 109.895,169.11 119.895,158.276 125.5,143.5 Z"/></g>
<g><path style="opacity:1" fill="#f6cf24" d="M 141.5,149.5 C 142.404,150.209 142.737,151.209 142.5,152.5C 140.361,167.75 135.528,182.083 128,195.5C 124.201,200.301 120.034,204.801 115.5,209C 104.254,208.603 93.9203,205.27 84.5,199C 110.148,191.848 124.482,175.015 127.5,148.5C 130.852,147.447 134.185,147.447 137.5,148.5C 136.106,149.687 136.273,150.354 138,150.5C 139.138,150.011 140.305,149.678 141.5,149.5 Z"/></g>
<g><path style="opacity:1" fill="#af2b04" d="M 200.5,137.5 C 201.337,145.183 202.337,152.849 203.5,160.5C 201.56,164.28 199.393,167.946 197,171.5C 196.833,170.5 196.667,169.5 196.5,168.5C 198.285,158.076 199.619,147.742 200.5,137.5 Z"/></g>
<g><path style="opacity:1" fill="#6c5a10" d="M 141.5,149.5 C 142.472,148.249 143.139,148.582 143.5,150.5C 143.457,151.416 143.124,152.083 142.5,152.5C 142.737,151.209 142.404,150.209 141.5,149.5 Z"/></g>
<g><path style="opacity:1" fill="#fcfcf4" d="M 150.5,162.5 C 150.5,163.167 150.5,163.833 150.5,164.5C 149.269,171.175 147.602,177.842 145.5,184.5C 144.596,185.209 144.263,186.209 144.5,187.5C 141.31,193.366 136.977,198.366 131.5,202.5C 129.899,201.965 129.399,200.965 130,199.5C 134.726,195.698 138.226,191.031 140.5,185.5C 141.404,184.791 141.737,183.791 141.5,182.5C 144.143,176.546 145.81,170.213 146.5,163.5C 146.5,162.833 146.5,162.167 146.5,161.5C 147.207,158.214 147.54,154.881 147.5,151.5C 148.833,151.5 150.167,151.5 151.5,151.5C 151.276,155.179 150.942,158.846 150.5,162.5 Z"/></g>
<g><path style="opacity:1" fill="#f9f593" d="M 188.5,174.5 C 181.79,178.186 174.79,181.353 167.5,184C 160.175,185.701 152.842,185.867 145.5,184.5C 147.602,177.842 149.269,171.175 150.5,164.5C 167.27,165.854 182.103,160.854 195,149.5C 195.371,156.577 194.704,163.577 193,170.5C 191.008,171.328 189.508,172.661 188.5,174.5 Z"/></g>
<g><path style="opacity:1" fill="#fbd225" d="M 211.5,153.5 C 219.884,155.628 228.218,157.961 236.5,160.5C 229.556,169.112 221.889,177.112 213.5,184.5C 209.5,181.167 205.5,177.833 201.5,174.5C 205.619,167.926 208.953,160.926 211.5,153.5 Z"/></g>
<g><path style="opacity:1" fill="#ec9813" d="M 213.5,149.5 C 222.348,152.629 231.348,155.296 240.5,157.5C 240.167,158.5 239.5,159.167 238.5,159.5C 230.305,156.701 221.972,154.368 213.5,152.5C 212.375,151.348 212.375,150.348 213.5,149.5 Z"/></g>
<g><path style="opacity:1" fill="#f0c722" d="M 38.5,156.5 C 38.1519,159.207 36.8186,161.207 34.5,162.5C 31.8702,161.622 29.2035,160.955 26.5,160.5C 30.1254,158.562 33.9587,156.895 38,155.5C 38.3988,155.728 38.5654,156.062 38.5,156.5 Z"/></g>
<g><path style="opacity:1" fill="#58481e" d="M 211.5,153.5 C 211.842,152.662 212.508,152.328 213.5,152.5C 221.972,154.368 230.305,156.701 238.5,159.5C 240.028,160.309 241.694,160.976 243.5,161.5C 243.737,162.791 243.404,163.791 242.5,164.5C 241.225,162.27 239.225,160.937 236.5,160.5C 228.218,157.961 219.884,155.628 211.5,153.5 Z"/></g>
<g><path style="opacity:1" fill="#f10003" d="M 71.5,176.5 C 75.6344,177.485 79.9677,177.818 84.5,177.5C 69.6996,181.138 55.6996,177.971 42.5,168C 40.0807,166.491 39.0807,164.325 39.5,161.5C 39.2222,159.654 39.8888,158.32 41.5,157.5C 48.5648,168.371 58.5648,174.704 71.5,176.5 Z"/></g>
<g><path style="opacity:1" fill="#502108" d="M 114.5,157.5 C 114.573,159.027 113.906,160.027 112.5,160.5C 112.427,158.973 113.094,157.973 114.5,157.5 Z"/></g>
<g><path style="opacity:1" fill="#e8c372" d="M 245.5,153.5 C 245.198,156.373 244.531,159.039 243.5,161.5C 241.694,160.976 240.028,160.309 238.5,159.5C 239.5,159.167 240.167,158.5 240.5,157.5C 242.167,156.167 243.833,154.833 245.5,153.5 Z"/></g>
<g><path style="opacity:1" fill="#49390d" d="M 39.5,151.5 C 40.625,152.652 40.625,153.652 39.5,154.5C 30.175,156.174 20.8416,158.841 11.5,162.5C 10.4489,161.778 9.78219,160.778 9.5,159.5C 10.2646,159.923 11.0979,160.257 12,160.5C 21.1534,157.393 30.32,154.393 39.5,151.5 Z"/></g>
<g><path style="opacity:1" fill="#eb0004" d="M 125.5,134.5 C 125.5,137.5 125.5,140.5 125.5,143.5C 119.895,158.276 109.895,169.11 95.5,176C 93.9343,176.765 92.6009,176.598 91.5,175.5C 94.4802,174.677 97.1469,173.343 99.5,171.5C 102.198,171.155 104.198,169.822 105.5,167.5C 108.833,166.167 111.167,163.833 112.5,160.5C 113.906,160.027 114.573,159.027 114.5,157.5C 117.488,154.519 119.154,150.852 119.5,146.5C 121.416,142.837 122.416,138.837 122.5,134.5C 123.5,134.5 124.5,134.5 125.5,134.5 Z"/></g>
<g><path style="opacity:1" fill="#e99612" d="M 39.5,154.5 C 39.6716,155.492 39.3382,156.158 38.5,156.5C 38.5654,156.062 38.3988,155.728 38,155.5C 33.9587,156.895 30.1254,158.562 26.5,160.5C 24.5168,160.157 23.1834,160.824 22.5,162.5C 21.8501,162.196 21.1835,161.863 20.5,161.5C 17.5504,162.705 14.5504,163.705 11.5,164.5C 10.1667,163.833 10.1667,163.167 11.5,162.5C 20.8416,158.841 30.175,156.174 39.5,154.5 Z"/></g>
<g><path style="opacity:1" fill="#f6ce23" d="M 22.5,162.5 C 25.2217,170.282 29.2217,177.282 34.5,183.5C 31.8333,186.833 28.8333,189.833 25.5,192.5C 19.2689,184.038 14.6022,174.705 11.5,164.5C 14.5504,163.705 17.5504,162.705 20.5,161.5C 21.1835,161.863 21.8501,162.196 22.5,162.5 Z"/></g>
<g><path style="opacity:1" fill="#fbe181" d="M 236.5,160.5 C 239.225,160.937 241.225,162.27 242.5,164.5C 238.878,175.769 233.545,186.102 226.5,195.5C 221.816,192.474 217.149,189.474 212.5,186.5C 212.5,186.167 212.5,185.833 212.5,185.5C 213.167,185.5 213.5,185.167 213.5,184.5C 221.889,177.112 229.556,169.112 236.5,160.5 Z"/></g>
<g><path style="opacity:1" fill="#651a04" d="M 112.5,160.5 C 111.167,163.833 108.833,166.167 105.5,167.5C 107.5,164.833 109.833,162.5 112.5,160.5 Z"/></g>
<g><path style="opacity:1" fill="#edea8f" d="M 146.5,163.5 C 145.81,170.213 144.143,176.546 141.5,182.5C 139.365,182.853 138.032,182.02 137.5,180C 139.269,174.859 140.936,169.692 142.5,164.5C 143.689,163.571 145.022,163.238 146.5,163.5 Z"/></g>
<g><path style="opacity:1" fill="#521c07" d="M 105.5,167.5 C 104.198,169.822 102.198,171.155 99.5,171.5C 101.147,169.674 103.147,168.34 105.5,167.5 Z"/></g>
<g><path style="opacity:1" fill="#512609" d="M 99.5,171.5 C 97.1469,173.343 94.4802,174.677 91.5,175.5C 90.5,175.5 89.5,175.5 88.5,175.5C 91.9503,173.792 95.617,172.459 99.5,171.5 Z"/></g>
<g><path style="opacity:1" fill="#6b2c09" d="M 71.5,175.5 C 77.1667,175.5 82.8333,175.5 88.5,175.5C 87.1667,176.167 85.8333,176.833 84.5,177.5C 79.9677,177.818 75.6344,177.485 71.5,176.5C 71.5,176.167 71.5,175.833 71.5,175.5 Z"/></g>
<g><path style="opacity:1" fill="#47330c" d="M 200.5,175.5 C 203.609,179.746 207.609,183.08 212.5,185.5C 212.5,185.833 212.5,186.167 212.5,186.5C 212.167,186.5 211.833,186.5 211.5,186.5C 207.104,183.975 203.104,180.975 199.5,177.5C 199.328,176.508 199.662,175.842 200.5,175.5 Z"/></g>
<g><path style="opacity:1" fill="#ef9812" d="M 201.5,174.5 C 205.5,177.833 209.5,181.167 213.5,184.5C 213.5,185.167 213.167,185.5 212.5,185.5C 207.609,183.08 203.609,179.746 200.5,175.5C 200.5,174.833 200.833,174.5 201.5,174.5 Z"/></g>
<g><path style="opacity:1" fill="#f7f392" d="M 189.5,175.5 C 190.497,175.47 191.164,175.97 191.5,177C 189.698,181.815 186.698,185.815 182.5,189C 167.257,201.028 149.924,207.861 130.5,209.5C 126.298,209.817 122.298,209.483 118.5,208.5C 126.687,201.814 132.687,193.48 136.5,183.5C 137.86,184.18 139.193,184.847 140.5,185.5C 138.226,191.031 134.726,195.698 130,199.5C 129.399,200.965 129.899,201.965 131.5,202.5C 136.977,198.366 141.31,193.366 144.5,187.5C 161.181,189.651 176.181,185.651 189.5,175.5 Z"/></g>
<g><path style="opacity:1" fill="#fad125" d="M 199.5,177.5 C 203.104,180.975 207.104,183.975 211.5,186.5C 211.5,186.833 211.5,187.167 211.5,187.5C 204.5,194.167 197.5,200.833 190.5,207.5C 187.253,203.341 184.253,199.008 181.5,194.5C 188.157,189.509 194.157,183.843 199.5,177.5 Z"/></g>
<g><path style="opacity:1" fill="#212116" d="M 188.5,174.5 C 189.167,174.5 189.5,174.833 189.5,175.5C 176.181,185.651 161.181,189.651 144.5,187.5C 144.263,186.209 144.596,185.209 145.5,184.5C 152.842,185.867 160.175,185.701 167.5,184C 174.79,181.353 181.79,178.186 188.5,174.5 Z"/></g>
<g><path style="opacity:1" fill="#f5dd7c" d="M 34.5,183.5 C 36.1667,184.5 37.5,185.833 38.5,187.5C 34.974,190.703 30.974,193.036 26.5,194.5C 26.1667,193.833 25.8333,193.167 25.5,192.5C 28.8333,189.833 31.8333,186.833 34.5,183.5 Z"/></g>
<g><path style="opacity:1" fill="#fbe182" d="M 211.5,187.5 C 215.736,189.723 219.736,192.389 223.5,195.5C 224.386,196.325 224.719,197.325 224.5,198.5C 217.486,207.847 209.153,215.847 199.5,222.5C 196.167,218.5 192.833,214.5 189.5,210.5C 189.5,209.833 189.5,209.167 189.5,208.5C 190.167,208.5 190.5,208.167 190.5,207.5C 197.5,200.833 204.5,194.167 211.5,187.5 Z"/></g>
<g><path style="opacity:1" fill="#918970" d="M 211.5,187.5 C 211.5,187.167 211.5,186.833 211.5,186.5C 211.833,186.5 212.167,186.5 212.5,186.5C 217.149,189.474 221.816,192.474 226.5,195.5C 226.068,196.71 225.401,197.71 224.5,198.5C 224.719,197.325 224.386,196.325 223.5,195.5C 219.736,192.389 215.736,189.723 211.5,187.5 Z"/></g>
<g><path style="opacity:1" fill="#908871" d="M 38.5,187.5 C 39.4916,187.328 40.1583,187.662 40.5,188.5C 36.5,190.833 32.5,193.167 28.5,195.5C 27.5084,195.672 26.8417,195.338 26.5,194.5C 30.974,193.036 34.974,190.703 38.5,187.5 Z"/></g>
<g><path style="opacity:1" fill="#fad229" d="M 42.5,190.5 C 45.8501,192.196 49.1835,193.863 52.5,195.5C 48.8953,200.774 44.562,205.441 39.5,209.5C 36.4275,207.431 34.0941,204.764 32.5,201.5C 35.8333,197.833 39.1667,194.167 42.5,190.5 Z"/></g>
<g><path style="opacity:1" fill="#f7d77c" d="M 40.5,188.5 C 41.5,188.833 42.1667,189.5 42.5,190.5C 39.1667,194.167 35.8333,197.833 32.5,201.5C 29.9558,200.292 28.6225,198.292 28.5,195.5C 32.5,193.167 36.5,190.833 40.5,188.5 Z"/></g>
<g><path style="opacity:1" fill="#fadc6a" d="M 52.5,195.5 C 57.1993,197.842 62.1993,199.175 67.5,199.5C 68.7387,200.212 69.2387,201.212 69,202.5C 63.9125,209.019 59.0792,215.686 54.5,222.5C 48.6087,219.281 43.6087,214.948 39.5,209.5C 44.562,205.441 48.8953,200.774 52.5,195.5 Z"/></g>
<g><path style="opacity:1" fill="#48370e" d="M 177.5,197.5 C 177.842,196.662 178.508,196.328 179.5,196.5C 182.457,200.792 185.79,204.792 189.5,208.5C 189.5,209.167 189.5,209.833 189.5,210.5C 189.167,210.5 188.833,210.5 188.5,210.5C 188.5,209.833 188.167,209.5 187.5,209.5C 184.614,205.02 181.281,201.02 177.5,197.5 Z"/></g>
<g><path style="opacity:1" fill="#fbd224" d="M 177.5,197.5 C 181.281,201.02 184.614,205.02 187.5,209.5C 180.89,217.779 173.556,225.445 165.5,232.5C 162.033,224.433 159.367,216.1 157.5,207.5C 164.446,204.694 171.112,201.361 177.5,197.5 Z"/></g>
<g><path style="opacity:1" fill="#fcde6a" d="M 73.5,200.5 C 75.8333,200.5 78.1667,200.5 80.5,200.5C 85.7903,203.932 91.457,206.599 97.5,208.5C 96.5758,213.607 95.2424,218.607 93.5,223.5C 93.1667,224.167 92.8333,224.833 92.5,225.5C 88.1667,229.167 84.1667,233.167 80.5,237.5C 72.3721,234.369 64.7054,230.369 57.5,225.5C 62.8333,217.167 68.1667,208.833 73.5,200.5 Z"/></g>
<g><path style="opacity:1" fill="#f19b13" d="M 181.5,194.5 C 184.253,199.008 187.253,203.341 190.5,207.5C 190.5,208.167 190.167,208.5 189.5,208.5C 185.79,204.792 182.457,200.792 179.5,196.5C 179.833,195.5 180.5,194.833 181.5,194.5 Z"/></g>
<g><path style="opacity:1" fill="#9e9c5d" d="M 118.5,208.5 C 122.298,209.483 126.298,209.817 130.5,209.5C 126.317,210.811 121.984,210.811 117.5,209.5C 117.624,208.893 117.957,208.56 118.5,208.5 Z"/></g>
<g><path style="opacity:1" fill="#7f7356" d="M 67.5,199.5 C 72.0323,199.182 76.3656,199.515 80.5,200.5C 78.1667,200.5 75.8333,200.5 73.5,200.5C 72.5041,200.414 71.6708,200.748 71,201.5C 65.9701,208.683 60.8034,215.683 55.5,222.5C 55.1667,222.5 54.8333,222.5 54.5,222.5C 59.0792,215.686 63.9125,209.019 69,202.5C 69.2387,201.212 68.7387,200.212 67.5,199.5 Z"/></g>
<g><path style="opacity:1" fill="#fad224" d="M 153.5,209.5 C 156.365,218.096 159.032,226.763 161.5,235.5C 159.909,238.431 157.909,241.098 155.5,243.5C 146.974,245.587 138.307,246.587 129.5,246.5C 129.5,235.5 129.5,224.5 129.5,213.5C 129.5,213.167 129.5,212.833 129.5,212.5C 137.557,211.935 145.557,210.935 153.5,209.5 Z"/></g>
<g><path style="opacity:1" fill="#fbd224" d="M 107.5,211.5 C 110.833,211.833 114.167,212.167 117.5,212.5C 119.948,213.473 122.615,213.806 125.5,213.5C 125.5,224.5 125.5,235.5 125.5,246.5C 114.532,247.23 103.865,245.897 93.5,242.5C 93.0183,241.584 92.685,240.584 92.5,239.5C 94.3082,232.745 96.3082,226.078 98.5,219.5C 100.9,216.097 103.9,213.43 107.5,211.5 Z"/></g>
<g><path style="opacity:1" fill="#f29f14" d="M 157.5,207.5 C 159.367,216.1 162.033,224.433 165.5,232.5C 165.167,233.5 164.5,234.167 163.5,234.5C 160.23,226.024 157.564,217.357 155.5,208.5C 155.842,207.662 156.508,207.328 157.5,207.5 Z"/></g>
<g><path style="opacity:1" fill="#fbe281" d="M 187.5,209.5 C 188.167,209.5 188.5,209.833 188.5,210.5C 192.009,214.855 195.009,219.522 197.5,224.5C 187.443,231.695 176.443,237.028 164.5,240.5C 164.634,238.708 164.301,237.042 163.5,235.5C 163.5,235.167 163.5,234.833 163.5,234.5C 164.5,234.167 165.167,233.5 165.5,232.5C 173.556,225.445 180.89,217.779 187.5,209.5 Z"/></g>
<g><path style="opacity:1" fill="#887754" d="M 97.5,208.5 C 99.099,208.232 100.432,208.566 101.5,209.5C 100.25,209.577 99.4169,210.244 99,211.5C 97.8551,214.432 97.0218,217.432 96.5,220.5C 96.0679,221.71 95.4013,222.71 94.5,223.5C 94.1667,223.5 93.8333,223.5 93.5,223.5C 95.2424,218.607 96.5758,213.607 97.5,208.5 Z"/></g>
<g><path style="opacity:1" fill="#634e0d" d="M 117.5,212.5 C 121.5,212.5 125.5,212.5 129.5,212.5C 129.5,212.833 129.5,213.167 129.5,213.5C 127.523,224.116 126.856,235.116 127.5,246.5C 126.833,246.5 126.167,246.5 125.5,246.5C 125.5,235.5 125.5,224.5 125.5,213.5C 122.615,213.806 119.948,213.473 117.5,212.5 Z"/></g>
<g><path style="opacity:1" fill="#49360c" d="M 155.5,208.5 C 157.564,217.357 160.23,226.024 163.5,234.5C 163.5,234.833 163.5,235.167 163.5,235.5C 163.167,235.5 162.833,235.5 162.5,235.5C 162.167,235.5 161.833,235.5 161.5,235.5C 159.032,226.763 156.365,218.096 153.5,209.5C 154.167,209.167 154.833,208.833 155.5,208.5 Z"/></g>
<g><path style="opacity:1" fill="#f3b95e" d="M 73.5,200.5 C 68.1667,208.833 62.8333,217.167 57.5,225.5C 56.0937,225.027 55.427,224.027 55.5,222.5C 60.8034,215.683 65.9701,208.683 71,201.5C 71.6708,200.748 72.5041,200.414 73.5,200.5 Z"/></g>
<g><path style="opacity:1" fill="#f5c360" d="M 101.5,209.5 C 103.626,210.048 105.626,210.715 107.5,211.5C 103.9,213.43 100.9,216.097 98.5,219.5C 97.8333,219.833 97.1667,220.167 96.5,220.5C 97.0218,217.432 97.8551,214.432 99,211.5C 99.4169,210.244 100.25,209.577 101.5,209.5 Z"/></g>
<g><path style="opacity:1" fill="#928a72" d="M 188.5,210.5 C 188.833,210.5 189.167,210.5 189.5,210.5C 192.833,214.5 196.167,218.5 199.5,222.5C 199.167,223.5 198.5,224.167 197.5,224.5C 195.009,219.522 192.009,214.855 188.5,210.5 Z"/></g>
<g><path style="opacity:1" fill="#f99f13" d="M 129.5,213.5 C 129.5,224.5 129.5,235.5 129.5,246.5C 128.833,246.5 128.167,246.5 127.5,246.5C 126.856,235.116 127.523,224.116 129.5,213.5 Z"/></g>
<g><path style="opacity:1" fill="#f1ca25" d="M 92.5,225.5 C 91.1708,229.822 89.8375,234.155 88.5,238.5C 88.5299,239.497 88.0299,240.164 87,240.5C 84.5182,239.961 82.3516,238.961 80.5,237.5C 84.1667,233.167 88.1667,229.167 92.5,225.5 Z"/></g>
<g><path style="opacity:1" fill="#4e3f0f" d="M 93.5,223.5 C 93.8333,223.5 94.1667,223.5 94.5,223.5C 93.5861,228.853 91.9194,233.853 89.5,238.5C 89.1667,238.5 88.8333,238.5 88.5,238.5C 89.8375,234.155 91.1708,229.822 92.5,225.5C 92.8333,224.833 93.1667,224.167 93.5,223.5 Z"/></g>
<g><path style="opacity:1" fill="#eb9913" d="M 98.5,219.5 C 96.3082,226.078 94.3082,232.745 92.5,239.5C 92.685,240.584 93.0183,241.584 93.5,242.5C 90.821,242.475 89.4877,241.142 89.5,238.5C 91.9194,233.853 93.5861,228.853 94.5,223.5C 95.4013,222.71 96.0679,221.71 96.5,220.5C 97.1667,220.167 97.8333,219.833 98.5,219.5 Z"/></g>
<g><path style="opacity:1" fill="#8e876f" d="M 162.5,235.5 C 162.833,235.5 163.167,235.5 163.5,235.5C 164.301,237.042 164.634,238.708 164.5,240.5C 164.5,241.167 164.167,241.5 163.5,241.5C 163.167,239.5 162.833,237.5 162.5,235.5 Z"/></g>
<g><path style="opacity:1" fill="#ebd576" d="M 161.5,235.5 C 161.833,235.5 162.167,235.5 162.5,235.5C 162.833,237.5 163.167,239.5 163.5,241.5C 160.779,241.963 158.112,242.629 155.5,243.5C 157.909,241.098 159.909,238.431 161.5,235.5 Z"/></g>
</svg>
