<?xml version="1.0" encoding="UTF-8"?>
<!DOCTYPE svg PUBLIC "-//W3C//DTD SVG 1.1//EN" "http://www.w3.org/Graphics/SVG/1.1/DTD/svg11.dtd">
<svg xmlns="http://www.w3.org/2000/svg" version="1.1" width="250px" height="250px" style="shape-rendering:geometricPrecision; text-rendering:geometricPrecision; image-rendering:optimizeQuality; fill-rule:evenodd; clip-rule:evenodd" xmlns:xlink="http://www.w3.org/1999/xlink">
<g><path style="opacity:0.984" fill="#e84142" d="M 105.5,-0.5 C 118.167,-0.5 130.833,-0.5 143.5,-0.5C 201.831,11.8313 237.165,47.1646 249.5,105.5C 249.5,118.167 249.5,130.833 249.5,143.5C 237.165,201.835 201.831,237.169 143.5,249.5C 130.833,249.5 118.167,249.5 105.5,249.5C 47.1687,237.169 11.8354,201.835 -0.5,143.5C -0.5,130.833 -0.5,118.167 -0.5,105.5C 11.8354,47.1646 47.1687,11.8313 105.5,-0.5 Z"/></g>
<g><path style="opacity:1" fill="#fefdfd" d="M 119.5,37.5 C 123.192,36.9712 126.358,37.9712 129,40.5C 135.92,52.0038 142.586,63.6705 149,75.5C 151.609,84.5787 150.609,93.2453 146,101.5C 132.081,125.003 118.414,148.67 105,172.5C 100.55,177.61 95.0503,181.11 88.5,183C 73.7885,183.816 59.1218,183.65 44.5,182.5C 39.5049,177.834 39.3382,172.834 44,167.5C 67.5863,126.663 90.9197,85.6626 114,44.5C 115.666,42.0043 117.5,39.671 119.5,37.5 Z"/></g>
<g><path style="opacity:1" fill="#fefcfc" d="M 167.5,122.5 C 171.909,121.618 175.409,122.952 178,126.5C 186.414,141.663 195.081,156.663 204,171.5C 205.227,175.591 204.394,179.091 201.5,182C 191.069,183.132 180.569,183.632 170,183.5C 160.5,183.333 151,183.167 141.5,183C 140.584,182.626 139.75,182.126 139,181.5C 137.517,178.298 137.183,174.964 138,171.5C 147.342,154.807 157.175,138.474 167.5,122.5 Z"/></g>
</svg>
