<?xml version="1.0" encoding="UTF-8"?>
<!DOCTYPE svg PUBLIC "-//W3C//DTD SVG 1.1//EN" "http://www.w3.org/Graphics/SVG/1.1/DTD/svg11.dtd">
<svg xmlns="http://www.w3.org/2000/svg" version="1.1" width="250px" height="250px" style="shape-rendering:geometricPrecision; text-rendering:geometricPrecision; image-rendering:optimizeQuality; fill-rule:evenodd; clip-rule:evenodd" xmlns:xlink="http://www.w3.org/1999/xlink">
<g><path style="opacity:0.967" fill="#7f01ff" d="M 115.5,0.5 C 180.785,0.315542 223.952,30.9822 245,92.5C 256.887,150.597 238.721,196.431 190.5,230C 154.464,250.458 116.797,253.791 77.5,240C 35.9482,221.115 10.7815,189.282 2,144.5C -4.4539,86.5737 17.3794,43.0737 67.5,14C 75.5354,9.9085 83.8687,6.57517 92.5,4C 100.279,2.5902 107.946,1.42353 115.5,0.5 Z"/></g>
<g><path style="opacity:1" fill="#ebd6ff" d="M 123.5,50.5 C 118.463,50.4126 113.463,50.746 108.5,51.5C 108.918,50.7784 109.584,50.2784 110.5,50C 115.02,49.1864 119.354,49.353 123.5,50.5 Z"/></g>
<g><path style="opacity:1" fill="#fdfcff" d="M 123.5,50.5 C 130.201,53.5366 134.868,58.5366 137.5,65.5C 137.427,67.0269 138.094,68.0269 139.5,68.5C 141.664,70.822 143.331,73.4887 144.5,76.5C 144.427,78.0269 145.094,79.0269 146.5,79.5C 147.89,80.8993 148.89,82.5659 149.5,84.5C 149.427,86.0269 150.094,87.0269 151.5,87.5C 156.415,94.992 161.081,102.659 165.5,110.5C 165.427,112.027 166.094,113.027 167.5,113.5C 168.89,114.899 169.89,116.566 170.5,118.5C 170.427,120.027 171.094,121.027 172.5,121.5C 175.89,126.233 178.89,131.233 181.5,136.5C 181.427,138.027 182.094,139.027 183.5,139.5C 184.338,139.842 184.672,140.508 184.5,141.5C 184.427,143.027 185.094,144.027 186.5,144.5C 189.89,149.233 192.89,154.233 195.5,159.5C 195.427,161.027 196.094,162.027 197.5,162.5C 198.89,163.899 199.89,165.566 200.5,167.5C 200.414,168.496 200.748,169.329 201.5,170C 191.839,170.5 182.172,170.666 172.5,170.5C 172.167,170.5 171.833,170.5 171.5,170.5C 170.416,167.996 169.083,165.663 167.5,163.5C 167.573,161.973 166.906,160.973 165.5,160.5C 164.737,158.632 163.737,156.965 162.5,155.5C 162.573,153.973 161.906,152.973 160.5,152.5C 160.267,150.938 159.6,149.605 158.5,148.5C 158.262,146.596 157.262,145.262 155.5,144.5C 155.34,142.847 154.674,141.514 153.5,140.5C 153.573,138.973 152.906,137.973 151.5,137.5C 150.416,134.996 149.083,132.663 147.5,130.5C 147.573,128.973 146.906,127.973 145.5,127.5C 144.737,125.632 143.737,123.965 142.5,122.5C 142.573,120.973 141.906,119.973 140.5,119.5C 139.737,117.632 138.737,115.965 137.5,114.5C 137.573,112.973 136.906,111.973 135.5,111.5C 134.737,109.632 133.737,107.965 132.5,106.5C 132.573,104.973 131.906,103.973 130.5,103.5C 129.737,101.632 128.737,99.9649 127.5,98.5C 127.573,96.9731 126.906,95.9731 125.5,95.5C 124.737,93.6316 123.737,91.9649 122.5,90.5C 122.573,88.9731 121.906,87.9731 120.5,87.5C 117.274,82.2519 114.94,82.9185 113.5,89.5C 112.094,89.9731 111.427,90.9731 111.5,92.5C 110.11,93.8993 109.11,95.5659 108.5,97.5C 107.094,97.9731 106.427,98.9731 106.5,100.5C 104.75,101.659 103.75,103.326 103.5,105.5C 100.084,109.323 97.4176,113.657 95.5,118.5C 94.0937,118.973 93.427,119.973 93.5,121.5C 91.336,123.822 89.6693,126.489 88.5,129.5C 86.7497,130.659 85.7497,132.326 85.5,134.5C 84.6618,134.842 84.3284,135.508 84.5,136.5C 83.0937,136.973 82.427,137.973 82.5,139.5C 80.7497,140.659 79.7497,142.326 79.5,144.5C 78.596,145.209 78.2627,146.209 78.5,147.5C 100.5,147.5 122.5,147.5 144.5,147.5C 146.861,151.517 149.194,155.517 151.5,159.5C 151.427,161.027 152.094,162.027 153.5,162.5C 154.82,164.463 156.154,166.463 157.5,168.5C 124.183,170.493 90.5166,171.16 56.5,170.5C 55.8333,170.5 55.5,170.167 55.5,169.5C 55.0269,168.094 54.0269,167.427 52.5,167.5C 51.1667,166.5 49.8333,165.5 48.5,164.5C 47.3702,162.685 46.7036,160.685 46.5,158.5C 46.5045,154.466 46.8379,150.466 47.5,146.5C 48.9063,146.027 49.573,145.027 49.5,143.5C 51.332,139.164 53.6654,135.164 56.5,131.5C 57.9063,131.027 58.573,130.027 58.5,128.5C 60.4077,127.514 61.4077,125.848 61.5,123.5C 62.9063,123.027 63.573,122.027 63.5,120.5C 64.0787,117.669 65.412,115.336 67.5,113.5C 68.9063,113.027 69.573,112.027 69.5,110.5C 71.4077,109.514 72.4077,107.848 72.5,105.5C 73.9063,105.027 74.573,104.027 74.5,102.5C 74.3284,101.508 74.6618,100.842 75.5,100.5C 76.9063,100.027 77.573,99.0269 77.5,97.5C 78.1103,95.5659 79.1103,93.8993 80.5,92.5C 81.9063,92.0269 82.573,91.0269 82.5,89.5C 83.5839,86.9959 84.9172,84.6626 86.5,82.5C 87.9063,82.0269 88.573,81.0269 88.5,79.5C 89.2632,77.6316 90.2632,75.9649 91.5,74.5C 92.9063,74.0269 93.573,73.0269 93.5,71.5C 94.9063,71.0269 95.573,70.0269 95.5,68.5C 96.9063,68.0269 97.573,67.0269 97.5,65.5C 98.1103,63.5659 99.1103,61.8993 100.5,60.5C 101.906,60.0269 102.573,59.0269 102.5,57.5C 103.906,57.0269 104.573,56.0269 104.5,54.5C 105.262,52.7376 106.596,51.7376 108.5,51.5C 113.463,50.746 118.463,50.4126 123.5,50.5 Z"/></g>
<g><path style="opacity:1" fill="#d8afff" d="M 104.5,54.5 C 104.573,56.0269 103.906,57.0269 102.5,57.5C 102.427,55.9731 103.094,54.9731 104.5,54.5 Z"/></g>
<g><path style="opacity:1" fill="#d6acff" d="M 102.5,57.5 C 102.573,59.0269 101.906,60.0269 100.5,60.5C 100.427,58.9731 101.094,57.9731 102.5,57.5 Z"/></g>
<g><path style="opacity:1" fill="#dbb5ff" d="M 137.5,65.5 C 138.906,65.9731 139.573,66.9731 139.5,68.5C 138.094,68.0269 137.427,67.0269 137.5,65.5 Z"/></g>
<g><path style="opacity:1" fill="#ddbaff" d="M 97.5,65.5 C 97.573,67.0269 96.9063,68.0269 95.5,68.5C 95.427,66.9731 96.0937,65.9731 97.5,65.5 Z"/></g>
<g><path style="opacity:1" fill="#dab3ff" d="M 95.5,68.5 C 95.573,70.0269 94.9063,71.0269 93.5,71.5C 93.427,69.9731 94.0937,68.9731 95.5,68.5 Z"/></g>
<g><path style="opacity:1" fill="#d1a2ff" d="M 93.5,71.5 C 93.573,73.0269 92.9063,74.0269 91.5,74.5C 91.427,72.9731 92.0937,71.9731 93.5,71.5 Z"/></g>
<g><path style="opacity:1" fill="#dab5ff" d="M 144.5,76.5 C 145.906,76.9731 146.573,77.9731 146.5,79.5C 145.094,79.0269 144.427,78.0269 144.5,76.5 Z"/></g>
<g><path style="opacity:1" fill="#cf9eff" d="M 88.5,79.5 C 88.573,81.0269 87.9063,82.0269 86.5,82.5C 86.427,80.9731 87.0937,79.9731 88.5,79.5 Z"/></g>
<g><path style="opacity:1" fill="#d8b0ff" d="M 149.5,84.5 C 150.906,84.9731 151.573,85.9731 151.5,87.5C 150.094,87.0269 149.427,86.0269 149.5,84.5 Z"/></g>
<g><path style="opacity:1" fill="#bc78ff" d="M 120.5,87.5 C 121.906,87.9731 122.573,88.9731 122.5,90.5C 121.094,90.0269 120.427,89.0269 120.5,87.5 Z"/></g>
<g><path style="opacity:1" fill="#dbb5ff" d="M 82.5,89.5 C 82.573,91.0269 81.9063,92.0269 80.5,92.5C 80.427,90.9731 81.0937,89.9731 82.5,89.5 Z"/></g>
<g><path style="opacity:1" fill="#b56bff" d="M 113.5,89.5 C 113.573,91.0269 112.906,92.0269 111.5,92.5C 111.427,90.9731 112.094,89.9731 113.5,89.5 Z"/></g>
<g><path style="opacity:1" fill="#bc78ff" d="M 125.5,95.5 C 126.906,95.9731 127.573,96.9731 127.5,98.5C 126.094,98.0269 125.427,97.0269 125.5,95.5 Z"/></g>
<g><path style="opacity:1" fill="#d8b1ff" d="M 77.5,97.5 C 77.573,99.0269 76.9063,100.027 75.5,100.5C 75.427,98.9731 76.0937,97.9731 77.5,97.5 Z"/></g>
<g><path style="opacity:1" fill="#b56cff" d="M 108.5,97.5 C 108.573,99.0269 107.906,100.027 106.5,100.5C 106.427,98.9731 107.094,97.9731 108.5,97.5 Z"/></g>
<g><path style="opacity:1" fill="#dab3ff" d="M 74.5,102.5 C 74.573,104.027 73.9063,105.027 72.5,105.5C 72.427,103.973 73.0937,102.973 74.5,102.5 Z"/></g>
<g><path style="opacity:1" fill="#a551ff" d="M 106.5,100.5 C 106.408,102.848 105.408,104.514 103.5,105.5C 103.75,103.326 104.75,101.659 106.5,100.5 Z"/></g>
<g><path style="opacity:1" fill="#bc78ff" d="M 130.5,103.5 C 131.906,103.973 132.573,104.973 132.5,106.5C 131.094,106.027 130.427,105.027 130.5,103.5 Z"/></g>
<g><path style="opacity:1" fill="#e5c9ff" d="M 72.5,105.5 C 72.4077,107.848 71.4077,109.514 69.5,110.5C 69.7497,108.326 70.7497,106.659 72.5,105.5 Z"/></g>
<g><path style="opacity:1" fill="#d4a8ff" d="M 69.5,110.5 C 69.573,112.027 68.9063,113.027 67.5,113.5C 67.427,111.973 68.0937,110.973 69.5,110.5 Z"/></g>
<g><path style="opacity:1" fill="#dbb7ff" d="M 165.5,110.5 C 166.906,110.973 167.573,111.973 167.5,113.5C 166.094,113.027 165.427,112.027 165.5,110.5 Z"/></g>
<g><path style="opacity:1" fill="#bc79ff" d="M 135.5,111.5 C 136.906,111.973 137.573,112.973 137.5,114.5C 136.094,114.027 135.427,113.027 135.5,111.5 Z"/></g>
<g><path style="opacity:1" fill="#b367ff" d="M 95.5,118.5 C 95.573,120.027 94.9063,121.027 93.5,121.5C 93.427,119.973 94.0937,118.973 95.5,118.5 Z"/></g>
<g><path style="opacity:1" fill="#d7aeff" d="M 170.5,118.5 C 171.906,118.973 172.573,119.973 172.5,121.5C 171.094,121.027 170.427,120.027 170.5,118.5 Z"/></g>
<g><path style="opacity:1" fill="#bc7aff" d="M 140.5,119.5 C 141.906,119.973 142.573,120.973 142.5,122.5C 141.094,122.027 140.427,121.027 140.5,119.5 Z"/></g>
<g><path style="opacity:1" fill="#dab3ff" d="M 63.5,120.5 C 63.573,122.027 62.9063,123.027 61.5,123.5C 61.427,121.973 62.0937,120.973 63.5,120.5 Z"/></g>
<g><path style="opacity:1" fill="#e6caff" d="M 61.5,123.5 C 61.4077,125.848 60.4077,127.514 58.5,128.5C 58.7497,126.326 59.7497,124.659 61.5,123.5 Z"/></g>
<g><path style="opacity:1" fill="#be7dff" d="M 145.5,127.5 C 146.906,127.973 147.573,128.973 147.5,130.5C 146.094,130.027 145.427,129.027 145.5,127.5 Z"/></g>
<g><path style="opacity:1" fill="#d5a8ff" d="M 58.5,128.5 C 58.573,130.027 57.9063,131.027 56.5,131.5C 56.427,129.973 57.0937,128.973 58.5,128.5 Z"/></g>
<g><path style="opacity:1" fill="#ab5bff" d="M 88.5,129.5 C 88.4077,131.848 87.4077,133.514 85.5,134.5C 85.7497,132.326 86.7497,130.659 88.5,129.5 Z"/></g>
<g><path style="opacity:1" fill="#b469ff" d="M 84.5,136.5 C 84.573,138.027 83.9063,139.027 82.5,139.5C 82.427,137.973 83.0937,136.973 84.5,136.5 Z"/></g>
<g><path style="opacity:1" fill="#d7b0ff" d="M 181.5,136.5 C 182.906,136.973 183.573,137.973 183.5,139.5C 182.094,139.027 181.427,138.027 181.5,136.5 Z"/></g>
<g><path style="opacity:1" fill="#ba73ff" d="M 151.5,137.5 C 152.906,137.973 153.573,138.973 153.5,140.5C 152.094,140.027 151.427,139.027 151.5,137.5 Z"/></g>
<g><path style="opacity:1" fill="#a551ff" d="M 82.5,139.5 C 82.4077,141.848 81.4077,143.514 79.5,144.5C 79.7497,142.326 80.7497,140.659 82.5,139.5 Z"/></g>
<g><path style="opacity:1" fill="#dab3ff" d="M 184.5,141.5 C 185.906,141.973 186.573,142.973 186.5,144.5C 185.094,144.027 184.427,143.027 184.5,141.5 Z"/></g>
<g><path style="opacity:1" fill="#d6acff" d="M 49.5,143.5 C 49.573,145.027 48.9063,146.027 47.5,146.5C 47.427,144.973 48.0937,143.973 49.5,143.5 Z"/></g>
<g><path style="opacity:1" fill="#cf9fff" d="M 79.5,144.5 C 100.981,146.163 122.647,147.163 144.5,147.5C 122.5,147.5 100.5,147.5 78.5,147.5C 78.2627,146.209 78.596,145.209 79.5,144.5 Z"/></g>
<g><path style="opacity:1" fill="#b368ff" d="M 155.5,144.5 C 157.262,145.262 158.262,146.596 158.5,148.5C 156.738,147.738 155.738,146.404 155.5,144.5 Z"/></g>
<g><path style="opacity:1" fill="#e3c8ff" d="M 47.5,146.5 C 46.8379,150.466 46.5045,154.466 46.5,158.5C 46.1667,158.5 45.8333,158.5 45.5,158.5C 45.0834,154.183 45.7501,150.183 47.5,146.5 Z"/></g>
<g><path style="opacity:1" fill="#b368ff" d="M 160.5,152.5 C 161.906,152.973 162.573,153.973 162.5,155.5C 161.094,155.027 160.427,154.027 160.5,152.5 Z"/></g>
<g><path style="opacity:1" fill="#d9b3ff" d="M 151.5,159.5 C 152.906,159.973 153.573,160.973 153.5,162.5C 152.094,162.027 151.427,161.027 151.5,159.5 Z"/></g>
<g><path style="opacity:1" fill="#d9b3ff" d="M 195.5,159.5 C 196.906,159.973 197.573,160.973 197.5,162.5C 196.094,162.027 195.427,161.027 195.5,159.5 Z"/></g>
<g><path style="opacity:1" fill="#ab59ff" d="M 45.5,158.5 C 45.8333,158.5 46.1667,158.5 46.5,158.5C 46.7036,160.685 47.3702,162.685 48.5,164.5C 46.0246,163.313 45.0246,161.313 45.5,158.5 Z"/></g>
<g><path style="opacity:1" fill="#b972ff" d="M 165.5,160.5 C 166.906,160.973 167.573,161.973 167.5,163.5C 166.094,163.027 165.427,162.027 165.5,160.5 Z"/></g>
<g><path style="opacity:1" fill="#dcb6ff" d="M 52.5,167.5 C 54.0269,167.427 55.0269,168.094 55.5,169.5C 53.9731,169.573 52.9731,168.906 52.5,167.5 Z"/></g>
<g><path style="opacity:1" fill="#d7aeff" d="M 157.5,168.5 C 158.167,168.5 158.5,168.833 158.5,169.5C 125.517,171.493 92.1834,172.16 58.5,171.5C 57.5084,171.672 56.8417,171.338 56.5,170.5C 90.5166,171.16 124.183,170.493 157.5,168.5 Z"/></g>
<g><path style="opacity:1" fill="#ddbcff" d="M 200.5,167.5 C 201.5,167.833 202.167,168.5 202.5,169.5C 197.881,170.828 192.881,171.494 187.5,171.5C 182.322,171.499 177.322,171.166 172.5,170.5C 182.172,170.666 191.839,170.5 201.5,170C 200.748,169.329 200.414,168.496 200.5,167.5 Z"/></g>
<g><path style="opacity:1" fill="#9e40ff" d="M 158.5,169.5 C 159.404,170.209 159.737,171.209 159.5,172.5C 125.663,172.832 91.9959,172.498 58.5,171.5C 92.1834,172.16 125.517,171.493 158.5,169.5 Z"/></g>
<g><path style="opacity:1" fill="#a54eff" d="M 202.5,169.5 C 203.478,169.811 204.145,170.478 204.5,171.5C 199,171.833 193.5,172.167 188,172.5C 182.124,172.495 176.624,171.829 171.5,170.5C 171.833,170.5 172.167,170.5 172.5,170.5C 177.322,171.166 182.322,171.499 187.5,171.5C 192.881,171.494 197.881,170.828 202.5,169.5 Z"/></g>
</svg>
