<?xml version="1.0" encoding="UTF-8"?>
<!DOCTYPE svg PUBLIC "-//W3C//DTD SVG 1.1//EN" "http://www.w3.org/Graphics/SVG/1.1/DTD/svg11.dtd">
<svg xmlns="http://www.w3.org/2000/svg" version="1.1" width="250px" height="250px" style="shape-rendering:geometricPrecision; text-rendering:geometricPrecision; image-rendering:optimizeQuality; fill-rule:evenodd; clip-rule:evenodd" xmlns:xlink="http://www.w3.org/1999/xlink">
<g><path style="opacity:0.973" fill="#facf00" d="M 99.5,-0.5 C 116.167,-0.5 132.833,-0.5 149.5,-0.5C 202.346,13.2676 235.679,46.601 249.5,99.5C 249.5,116.167 249.5,132.833 249.5,149.5C 235.776,202.376 202.442,235.71 149.5,249.5C 132.833,249.5 116.167,249.5 99.5,249.5C 46.654,235.732 13.3206,202.399 -0.5,149.5C -0.5,132.833 -0.5,116.167 -0.5,99.5C 9.13144,62.0316 30.4648,33.1983 63.5,13C 75.3033,7.58223 87.3033,3.08223 99.5,-0.5 Z"/></g>
<g><path style="opacity:1" fill="#a98c03" d="M 118.5,36.5 C 112.21,37.5413 105.877,38.208 99.5,38.5C 104.821,37.2822 110.321,36.2822 116,35.5C 117.07,35.528 117.903,35.8614 118.5,36.5 Z"/></g>
<g><path style="opacity:1" fill="#0d0c08" d="M 118.5,36.5 C 119.477,39.2869 119.81,42.2869 119.5,45.5C 119.646,49.3875 120.313,53.0542 121.5,56.5C 128.23,57.6532 135.063,58.9865 142,60.5C 147.434,59.72 152.601,58.3866 157.5,56.5C 159.565,56.4828 161.565,56.1495 163.5,55.5C 166.152,55.5905 168.485,54.9238 170.5,53.5C 172.216,53.3713 173.883,53.038 175.5,52.5C 178.152,52.5905 180.485,51.9238 182.5,50.5C 187.391,49.9901 192.058,48.9901 196.5,47.5C 198.735,47.2053 200.735,47.5386 202.5,48.5C 201.833,48.8333 201.167,49.1667 200.5,49.5C 196.126,49.5023 192.126,50.5023 188.5,52.5C 188.167,52.5 187.833,52.5 187.5,52.5C 184.848,52.4095 182.515,53.0762 180.5,54.5C 177.219,54.4203 174.219,55.087 171.5,56.5C 168.848,56.4095 166.515,57.0762 164.5,58.5C 162.784,58.6287 161.117,58.962 159.5,59.5C 156.273,59.6761 153.273,60.3428 150.5,61.5C 148.102,61.2594 146.102,61.9261 144.5,63.5C 142.856,63.2865 141.356,63.6198 140,64.5C 139.621,67.0301 138.787,69.3635 137.5,71.5C 136.566,72.5676 136.232,73.901 136.5,75.5C 135.523,78.2869 135.19,81.2869 135.5,84.5C 136.5,84.5 137.5,84.5 138.5,84.5C 137.833,85.1667 137.167,85.8333 136.5,86.5C 135.833,86.1667 135.167,85.8333 134.5,85.5C 130.764,83.5881 126.764,82.2547 122.5,81.5C 115.033,80.1856 107.699,80.8523 100.5,83.5C 99.1667,83.5 97.8333,83.5 96.5,83.5C 92.6403,83.8084 88.9736,84.4751 85.5,85.5C 84.5,85.5 83.5,85.5 82.5,85.5C 81.1667,85.5 79.8333,85.5 78.5,85.5C 78.2053,87.7354 78.5386,89.7354 79.5,91.5C 79.5,93.8333 79.5,96.1667 79.5,98.5C 82.1667,98.5 84.8333,98.5 87.5,98.5C 94.058,98.085 100.391,97.085 106.5,95.5C 107.167,95.5 107.833,95.5 108.5,95.5C 110.781,95.0773 112.448,95.744 113.5,97.5C 111.265,97.2053 109.265,97.5386 107.5,98.5C 106.833,98.8333 106.167,99.1667 105.5,99.5C 100.968,99.1818 96.6344,99.5151 92.5,100.5C 87.9,100.28 83.5667,100.946 79.5,102.5C 71.8437,103.332 64.177,104.166 56.5,105C 55.944,105.383 55.6107,105.883 55.5,106.5C 54.8333,103.833 54.1667,101.167 53.5,98.5C 53.5,97.5 53.5,96.5 53.5,95.5C 53.1916,91.6403 52.5249,87.9736 51.5,84.5C 51.6641,81.8127 51.4974,79.146 51,76.5C 50.7216,75.5842 50.2216,74.9175 49.5,74.5C 49.5,73.5 49.5,72.5 49.5,71.5C 49.5,70.1667 49.5,68.8333 49.5,67.5C 50.791,67.7373 51.791,67.404 52.5,66.5C 55.1873,66.6641 57.854,66.4974 60.5,66C 61.056,65.6174 61.3893,65.1174 61.5,64.5C 64.8067,63.9492 68.1401,63.6159 71.5,63.5C 72.5862,63.38 73.2528,62.7133 73.5,61.5C 72.9536,56.9321 71.9536,52.5987 70.5,48.5C 70.5,46.8333 70.5,45.1667 70.5,43.5C 72.4147,43.7845 74.0813,43.4511 75.5,42.5C 80.1811,42.3314 84.8478,41.9981 89.5,41.5C 90.0731,47.5112 90.7397,53.5112 91.5,59.5C 94.9619,60.4816 98.6286,60.815 102.5,60.5C 102.806,57.6146 102.473,54.9479 101.5,52.5C 101.5,51.8333 101.5,51.1667 101.5,50.5C 101.59,47.8478 100.924,45.5145 99.5,43.5C 99.5,41.8333 99.5,40.1667 99.5,38.5C 105.877,38.208 112.21,37.5413 118.5,36.5 Z"/></g>
<g><path style="opacity:1" fill="#7b6705" d="M 89.5,41.5 C 84.8478,41.9981 80.1811,42.3314 75.5,42.5C 80.1025,40.6725 84.7692,40.3392 89.5,41.5 Z"/></g>
<g><path style="opacity:1" fill="#9b8003" d="M 75.5,42.5 C 74.0813,43.4511 72.4147,43.7845 70.5,43.5C 70.5,45.1667 70.5,46.8333 70.5,48.5C 69.5386,46.7354 69.2053,44.7354 69.5,42.5C 71.5,42.5 73.5,42.5 75.5,42.5 Z"/></g>
<g><path style="opacity:1" fill="#5a4a03" d="M 202.5,48.5 C 200.735,47.5386 198.735,47.2053 196.5,47.5C 200.896,45.2387 205.562,44.572 210.5,45.5C 207.817,46.5103 205.151,47.5103 202.5,48.5 Z"/></g>
<g><path style="opacity:1" fill="#b09203" d="M 89.5,41.5 C 91.4524,46.873 92.4524,52.5397 92.5,58.5C 95.1667,58.5 97.8333,58.5 100.5,58.5C 100.5,55.8333 100.5,53.1667 100.5,50.5C 100.833,50.5 101.167,50.5 101.5,50.5C 101.5,51.1667 101.5,51.8333 101.5,52.5C 101.5,54.8333 101.5,57.1667 101.5,59.5C 98.1667,59.5 94.8333,59.5 91.5,59.5C 90.7397,53.5112 90.0731,47.5112 89.5,41.5 Z"/></g>
<g><path style="opacity:1" fill="#534508" d="M 99.5,43.5 C 100.924,45.5145 101.59,47.8478 101.5,50.5C 101.167,50.5 100.833,50.5 100.5,50.5C 100.007,48.1944 99.6741,45.861 99.5,43.5 Z"/></g>
<g><path style="opacity:1" fill="#c89c00" d="M 200.5,49.5 C 203.462,52.9641 206.629,56.2975 210,59.5C 212.287,62.0722 213.453,65.0722 213.5,68.5C 203.985,68.1731 194.652,68.5064 185.5,69.5C 184.167,69.5 182.833,69.5 181.5,69.5C 181.918,68.7784 182.584,68.2784 183.5,68C 190.856,67.8313 198.189,67.3313 205.5,66.5C 203.319,61.3169 200.319,56.6502 196.5,52.5C 193.911,51.795 191.244,51.795 188.5,52.5C 192.126,50.5023 196.126,49.5023 200.5,49.5 Z"/></g>
<g><path style="opacity:1" fill="#786300" d="M 182.5,50.5 C 180.485,51.9238 178.152,52.5905 175.5,52.5C 177.515,51.0762 179.848,50.4095 182.5,50.5 Z"/></g>
<g><path style="opacity:1" fill="#f7cc00" d="M 181.5,69.5 C 178.615,69.1936 175.948,69.5269 173.5,70.5C 169.159,70.6578 165.159,71.6578 161.5,73.5C 159.214,73.595 157.214,74.2616 155.5,75.5C 152.848,75.4095 150.515,76.0762 148.5,77.5C 146.054,78.6877 143.72,80.021 141.5,81.5C 140.391,81.5569 139.391,81.8902 138.5,82.5C 137.518,79.0381 137.185,75.3714 137.5,71.5C 138.787,69.3635 139.621,67.0301 140,64.5C 141.356,63.6198 142.856,63.2865 144.5,63.5C 146.898,63.7406 148.898,63.0739 150.5,61.5C 153.187,61.6641 155.854,61.4974 158.5,61C 159.056,60.6174 159.389,60.1174 159.5,59.5C 161.117,58.962 162.784,58.6287 164.5,58.5C 167.152,58.5905 169.485,57.9238 171.5,56.5C 174.219,55.087 177.219,54.4203 180.5,54.5C 183.152,54.5905 185.485,53.9238 187.5,52.5C 187.833,52.5 188.167,52.5 188.5,52.5C 191.244,51.795 193.911,51.795 196.5,52.5C 200.319,56.6502 203.319,61.3169 205.5,66.5C 198.189,67.3313 190.856,67.8313 183.5,68C 182.584,68.2784 181.918,68.7784 181.5,69.5 Z"/></g>
<g><path style="opacity:1" fill="#7b6606" d="M 119.5,45.5 C 121.082,48.8756 121.749,52.5422 121.5,56.5C 120.313,53.0542 119.646,49.3875 119.5,45.5 Z"/></g>
<g><path style="opacity:1" fill="#977c00" d="M 187.5,52.5 C 185.485,53.9238 183.152,54.5905 180.5,54.5C 182.515,53.0762 184.848,52.4095 187.5,52.5 Z"/></g>
<g><path style="opacity:1" fill="#554604" d="M 170.5,53.5 C 168.485,54.9238 166.152,55.5905 163.5,55.5C 165.515,54.0762 167.848,53.4095 170.5,53.5 Z"/></g>
<g><path style="opacity:1" fill="#7e6907" d="M 70.5,48.5 C 71.9536,52.5987 72.9536,56.9321 73.5,61.5C 73.2528,62.7133 72.5862,63.38 71.5,63.5C 71.0843,58.5068 70.7509,53.5068 70.5,48.5 Z"/></g>
<g><path style="opacity:1" fill="#927800" d="M 171.5,56.5 C 169.485,57.9238 167.152,58.5905 164.5,58.5C 166.515,57.0762 168.848,56.4095 171.5,56.5 Z"/></g>
<g><path style="opacity:1" fill="#b39401" d="M 121.5,56.5 C 128.768,56.2767 135.934,56.9434 143,58.5C 147.869,58.0256 152.702,57.359 157.5,56.5C 152.601,58.3866 147.434,59.72 142,60.5C 135.063,58.9865 128.23,57.6532 121.5,56.5 Z"/></g>
<g><path style="opacity:1" fill="#2f280a" d="M 101.5,52.5 C 102.473,54.9479 102.806,57.6146 102.5,60.5C 98.6286,60.815 94.9619,60.4816 91.5,59.5C 94.8333,59.5 98.1667,59.5 101.5,59.5C 101.5,57.1667 101.5,54.8333 101.5,52.5 Z"/></g>
<g><path style="opacity:1" fill="#aa8c00" d="M 159.5,59.5 C 159.389,60.1174 159.056,60.6174 158.5,61C 155.854,61.4974 153.187,61.6641 150.5,61.5C 153.273,60.3428 156.273,59.6761 159.5,59.5 Z"/></g>
<g><path style="opacity:1" fill="#8f7600" d="M 150.5,61.5 C 148.898,63.0739 146.898,63.7406 144.5,63.5C 146.102,61.9261 148.102,61.2594 150.5,61.5 Z"/></g>
<g><path style="opacity:1" fill="#5a4c09" d="M 61.5,64.5 C 61.3893,65.1174 61.056,65.6174 60.5,66C 57.854,66.4974 55.1873,66.6641 52.5,66.5C 55.2727,65.3428 58.2727,64.6761 61.5,64.5 Z"/></g>
<g><path style="opacity:1" fill="#544707" d="M 52.5,66.5 C 51.791,67.404 50.791,67.7373 49.5,67.5C 49.5,68.8333 49.5,70.1667 49.5,71.5C 48.5489,70.0813 48.2155,68.4147 48.5,66.5C 49.8333,66.5 51.1667,66.5 52.5,66.5 Z"/></g>
<g><path style="opacity:1" fill="#382e05" d="M 202.5,48.5 C 206.164,52.3322 209.664,56.3322 213,60.5C 214.122,62.4068 214.955,64.4068 215.5,66.5C 214.596,67.209 214.263,68.209 214.5,69.5C 204.833,69.5 195.167,69.5 185.5,69.5C 194.652,68.5064 203.985,68.1731 213.5,68.5C 213.453,65.0722 212.287,62.0722 210,59.5C 206.629,56.2975 203.462,52.9641 200.5,49.5C 201.167,49.1667 201.833,48.8333 202.5,48.5 Z"/></g>
<g><path style="opacity:1" fill="#655303" d="M 173.5,70.5 C 172.833,71.1667 172.167,71.8333 171.5,72.5C 171.167,72.5 170.833,72.5 170.5,72.5C 167.482,72.7038 164.482,73.0371 161.5,73.5C 165.159,71.6578 169.159,70.6578 173.5,70.5 Z"/></g>
<g><path style="opacity:1" fill="#fbf5ee" d="M 207.5,104.5 C 202.592,107.122 197.592,109.455 192.5,111.5C 187.013,113.333 181.346,114.333 175.5,114.5C 168.492,114.666 161.492,114.5 154.5,114C 152.369,113.457 150.369,112.624 148.5,111.5C 141.565,104.629 137.565,96.2953 136.5,86.5C 137.167,85.8333 137.833,85.1667 138.5,84.5C 139.492,84.6716 140.158,84.3382 140.5,83.5C 150.273,79.0223 160.273,75.3556 170.5,72.5C 170.833,72.5 171.167,72.5 171.5,72.5C 174.059,72.1984 176.393,72.5318 178.5,73.5C 177.5,73.8333 176.833,74.5 176.5,75.5C 174.652,79.3513 175.652,82.3513 179.5,84.5C 181.607,85.4682 183.941,85.8016 186.5,85.5C 190.874,85.6282 193.208,83.4615 193.5,79C 193.613,77.3009 192.947,76.1342 191.5,75.5C 191.167,74.5 190.5,73.8333 189.5,73.5C 189.389,72.8826 189.056,72.3826 188.5,72C 195.158,71.5004 201.825,71.3337 208.5,71.5C 209.997,82.5586 209.664,93.5586 207.5,104.5 Z"/></g>
<g><path style="opacity:1" fill="#0b0b0a" d="M 185.5,72.5 C 186.833,72.8333 188.167,73.1667 189.5,73.5C 190.5,73.8333 191.167,74.5 191.5,75.5C 191.678,76.6948 192.011,77.8615 192.5,79C 189.743,80.5285 187.743,82.6952 186.5,85.5C 183.941,85.8016 181.607,85.4682 179.5,84.5C 180.209,83.596 181.209,83.2627 182.5,83.5C 182.715,81.8212 182.048,80.8212 180.5,80.5C 180.027,79.0937 179.027,78.427 177.5,78.5C 176.596,77.791 176.263,76.791 176.5,75.5C 176.833,74.5 177.5,73.8333 178.5,73.5C 180.764,72.7814 183.097,72.448 185.5,72.5 Z"/></g>
<g><path style="opacity:1" fill="#d0c6bb" d="M 207.5,104.5 C 209.664,93.5586 209.997,82.5586 208.5,71.5C 201.825,71.3337 195.158,71.5004 188.5,72C 189.056,72.3826 189.389,72.8826 189.5,73.5C 188.167,73.1667 186.833,72.8333 185.5,72.5C 190.119,71.1725 195.119,70.5058 200.5,70.5C 205.5,70.8333 210.5,71.1667 215.5,71.5C 217.261,81.3936 216.428,91.0603 213,100.5C 211.568,102.439 209.735,103.772 207.5,104.5 Z"/></g>
<g><path style="opacity:1" fill="#342f1f" d="M 170.5,72.5 C 160.273,75.3556 150.273,79.0223 140.5,83.5C 140.833,82.8333 141.167,82.1667 141.5,81.5C 143.72,80.021 146.054,78.6877 148.5,77.5C 151.152,77.5905 153.485,76.9238 155.5,75.5C 157.214,74.2616 159.214,73.595 161.5,73.5C 164.482,73.0371 167.482,72.7038 170.5,72.5 Z"/></g>
<g><path style="opacity:1" fill="#5c4c03" d="M 155.5,75.5 C 153.485,76.9238 151.152,77.5905 148.5,77.5C 150.515,76.0762 152.848,75.4095 155.5,75.5 Z"/></g>
<g><path style="opacity:1" fill="#ad8f00" d="M 137.5,71.5 C 137.185,75.3714 137.518,79.0381 138.5,82.5C 138.44,83.0431 138.107,83.3764 137.5,83.5C 136.52,80.9135 136.187,78.2469 136.5,75.5C 136.232,73.901 136.566,72.5676 137.5,71.5 Z"/></g>
<g><path style="opacity:1" fill="#4a3f09" d="M 49.5,74.5 C 50.2216,74.9175 50.7216,75.5842 51,76.5C 51.4974,79.146 51.6641,81.8127 51.5,84.5C 50.4192,81.3733 49.7526,78.0399 49.5,74.5 Z"/></g>
<g><path style="opacity:1" fill="#b4afaa" d="M 177.5,78.5 C 179.027,78.427 180.027,79.0937 180.5,80.5C 180.483,82.0281 179.816,82.5281 178.5,82C 177.663,80.9887 177.33,79.8221 177.5,78.5 Z"/></g>
<g><path style="opacity:1" fill="#8c7405" d="M 122.5,81.5 C 115.153,82.0362 107.82,82.7029 100.5,83.5C 107.699,80.8523 115.033,80.1856 122.5,81.5 Z"/></g>
<g><path style="opacity:1" fill="#5c4d09" d="M 136.5,75.5 C 136.187,78.2469 136.52,80.9135 137.5,83.5C 138.107,83.3764 138.44,83.0431 138.5,82.5C 139.391,81.8902 140.391,81.5569 141.5,81.5C 141.167,82.1667 140.833,82.8333 140.5,83.5C 140.158,84.3382 139.492,84.6716 138.5,84.5C 137.5,84.5 136.5,84.5 135.5,84.5C 135.19,81.2869 135.523,78.2869 136.5,75.5 Z"/></g>
<g><path style="opacity:1" fill="#3c3626" d="M 215.5,66.5 C 219.132,73.0255 220.299,80.0255 219,87.5C 217.333,95.5357 214.166,102.869 209.5,109.5C 208.844,108.722 208.011,108.056 207,107.5C 206.235,107.57 205.735,107.903 205.5,108.5C 202.828,109.501 200.162,110.501 197.5,111.5C 195.833,111.5 194.167,111.5 192.5,111.5C 197.592,109.455 202.592,107.122 207.5,104.5C 209.735,103.772 211.568,102.439 213,100.5C 216.428,91.0603 217.261,81.3936 215.5,71.5C 210.5,71.1667 205.5,70.8333 200.5,70.5C 195.119,70.5058 190.119,71.1725 185.5,72.5C 183.097,72.448 180.764,72.7814 178.5,73.5C 176.393,72.5318 174.059,72.1984 171.5,72.5C 172.167,71.8333 172.833,71.1667 173.5,70.5C 175.948,69.5269 178.615,69.1936 181.5,69.5C 182.833,69.5 184.167,69.5 185.5,69.5C 195.167,69.5 204.833,69.5 214.5,69.5C 214.263,68.209 214.596,67.209 215.5,66.5 Z"/></g>
<g><path style="opacity:1" fill="#f5ca00" d="M 122.5,81.5 C 126.764,82.2547 130.764,83.5881 134.5,85.5C 136.515,100.533 143.848,112.2 156.5,120.5C 156.795,122.735 156.461,124.735 155.5,126.5C 150.553,118.483 144.22,116.816 136.5,121.5C 134.871,122.625 133.371,123.959 132,125.5C 129.263,139.721 123.097,152.221 113.5,163C 110.052,164.927 106.385,166.261 102.5,167C 99.9586,168.848 98.9586,171.348 99.5,174.5C 97.1667,174.5 94.8333,174.5 92.5,174.5C 92.6641,171.813 92.4974,169.146 92,166.5C 91.7216,165.584 91.2216,164.918 90.5,164.5C 90.5,163.167 90.5,161.833 90.5,160.5C 101.862,158.657 110.196,152.657 115.5,142.5C 117.834,140.824 118.834,138.491 118.5,135.5C 119.459,129.862 119.626,124.195 119,118.5C 118.963,116.026 118.13,114.026 116.5,112.5C 115.007,106.842 112.007,102.175 107.5,98.5C 109.265,97.5386 111.265,97.2053 113.5,97.5C 114.404,96.791 114.737,95.791 114.5,94.5C 112.265,94.2053 110.265,94.5386 108.5,95.5C 107.833,95.5 107.167,95.5 106.5,95.5C 100.103,95.7295 93.7692,96.3961 87.5,97.5C 85.396,97.7989 83.396,97.4656 81.5,96.5C 80.5934,93.5788 80.2601,90.5788 80.5,87.5C 84.0109,87.1006 87.3443,86.4339 90.5,85.5C 92.7857,85.405 94.7857,84.7384 96.5,83.5C 97.8333,83.5 99.1667,83.5 100.5,83.5C 107.82,82.7029 115.153,82.0362 122.5,81.5 Z"/></g>
<g><path style="opacity:1" fill="#484644" d="M 176.5,75.5 C 176.263,76.791 176.596,77.791 177.5,78.5C 177.33,79.8221 177.663,80.9887 178.5,82C 179.816,82.5281 180.483,82.0281 180.5,80.5C 182.048,80.8212 182.715,81.8212 182.5,83.5C 181.209,83.2627 180.209,83.596 179.5,84.5C 175.652,82.3513 174.652,79.3513 176.5,75.5 Z"/></g>
<g><path style="opacity:1" fill="#777572" d="M 191.5,75.5 C 192.947,76.1342 193.613,77.3009 193.5,79C 193.208,83.4615 190.874,85.6282 186.5,85.5C 187.743,82.6952 189.743,80.5285 192.5,79C 192.011,77.8615 191.678,76.6948 191.5,75.5 Z"/></g>
<g><path style="opacity:1" fill="#836d07" d="M 96.5,83.5 C 94.7857,84.7384 92.7857,85.405 90.5,85.5C 88.8333,85.5 87.1667,85.5 85.5,85.5C 88.9736,84.4751 92.6403,83.8084 96.5,83.5 Z"/></g>
<g><path style="opacity:1" fill="#cba801" d="M 82.5,85.5 C 83.5,85.5 84.5,85.5 85.5,85.5C 87.1667,85.5 88.8333,85.5 90.5,85.5C 87.3443,86.4339 84.0109,87.1006 80.5,87.5C 80.2601,90.5788 80.5934,93.5788 81.5,96.5C 83.396,97.4656 85.396,97.7989 87.5,97.5C 87.5,97.8333 87.5,98.1667 87.5,98.5C 84.8333,98.5 82.1667,98.5 79.5,98.5C 79.5,96.1667 79.5,93.8333 79.5,91.5C 79.5,89.8333 79.5,88.1667 79.5,86.5C 80.791,86.7373 81.791,86.404 82.5,85.5 Z"/></g>
<g><path style="opacity:1" fill="#6b5a06" d="M 82.5,85.5 C 81.791,86.404 80.791,86.7373 79.5,86.5C 79.5,88.1667 79.5,89.8333 79.5,91.5C 78.5386,89.7354 78.2053,87.7354 78.5,85.5C 79.8333,85.5 81.1667,85.5 82.5,85.5 Z"/></g>
<g><path style="opacity:1" fill="#6a5807" d="M 51.5,84.5 C 52.5249,87.9736 53.1916,91.6403 53.5,95.5C 52.8333,94.5 52.1667,93.5 51.5,92.5C 51.5,89.8333 51.5,87.1667 51.5,84.5 Z"/></g>
<g><path style="opacity:1" fill="#5a4a01" d="M 108.5,95.5 C 110.265,94.5386 112.265,94.2053 114.5,94.5C 114.737,95.791 114.404,96.791 113.5,97.5C 112.448,95.744 110.781,95.0773 108.5,95.5 Z"/></g>
<g><path style="opacity:1" fill="#756101" d="M 106.5,95.5 C 100.391,97.085 94.058,98.085 87.5,98.5C 87.5,98.1667 87.5,97.8333 87.5,97.5C 93.7692,96.3961 100.103,95.7295 106.5,95.5 Z"/></g>
<g><path style="opacity:1" fill="#ae9001" d="M 51.5,92.5 C 52.1667,93.5 52.8333,94.5 53.5,95.5C 53.5,96.5 53.5,97.5 53.5,98.5C 53.5,100.5 53.5,102.5 53.5,104.5C 51.8333,104.5 50.1667,104.5 48.5,104.5C 49.2613,103.609 50.2613,102.942 51.5,102.5C 51.8333,101.5 52.1667,100.5 52.5,99.5C 52.0029,97.1817 51.6695,94.8484 51.5,92.5 Z"/></g>
<g><path style="opacity:1" fill="#f5ca00" d="M 92.5,100.5 C 101.46,98.558 107.127,101.891 109.5,110.5C 105.541,111.327 101.541,111.827 97.5,112C 96.5842,112.278 95.9175,112.778 95.5,113.5C 90.7031,113.523 86.0365,114.189 81.5,115.5C 77.4754,115.63 73.8088,116.63 70.5,118.5C 69.8333,118.5 69.5,118.833 69.5,119.5C 62.4749,120.51 55.8082,122.51 49.5,125.5C 49.5,123.5 49.5,121.5 49.5,119.5C 51.1916,115.111 53.1916,110.778 55.5,106.5C 55.6107,105.883 55.944,105.383 56.5,105C 64.177,104.166 71.8437,103.332 79.5,102.5C 84.1,102.72 88.4333,102.054 92.5,100.5 Z"/></g>
<g><path style="opacity:1" fill="#443703" d="M 107.5,98.5 C 112.007,102.175 115.007,106.842 116.5,112.5C 110.925,113.452 105.259,113.786 99.5,113.5C 104.349,112.834 109.349,112.167 114.5,111.5C 112.182,106.867 109.182,102.867 105.5,99.5C 106.167,99.1667 106.833,98.8333 107.5,98.5 Z"/></g>
<g><path style="opacity:1" fill="#4d442d" d="M 134.5,85.5 C 135.167,85.8333 135.833,86.1667 136.5,86.5C 137.565,96.2953 141.565,104.629 148.5,111.5C 150.369,112.624 152.369,113.457 154.5,114C 161.492,114.5 168.492,114.666 175.5,114.5C 169.69,115.49 163.69,115.823 157.5,115.5C 156.448,115.351 155.448,115.517 154.5,116C 155.731,117.405 157.064,118.571 158.5,119.5C 157.833,119.5 157.5,119.833 157.5,120.5C 157.167,120.5 156.833,120.5 156.5,120.5C 143.848,112.2 136.515,100.533 134.5,85.5 Z"/></g>
<g><path style="opacity:1" fill="#9f8300" d="M 92.5,100.5 C 88.4333,102.054 84.1,102.72 79.5,102.5C 83.5667,100.946 87.9,100.28 92.5,100.5 Z"/></g>
<g><path style="opacity:1" fill="#c19800" d="M 92.5,100.5 C 96.6344,99.5151 100.968,99.1818 105.5,99.5C 109.182,102.867 112.182,106.867 114.5,111.5C 109.349,112.167 104.349,112.834 99.5,113.5C 98.1667,113.5 96.8333,113.5 95.5,113.5C 95.9175,112.778 96.5842,112.278 97.5,112C 101.541,111.827 105.541,111.327 109.5,110.5C 107.127,101.891 101.46,98.558 92.5,100.5 Z"/></g>
<g><path style="opacity:1" fill="#937a00" d="M 47.5,104.5 C 49.3691,105.165 51.3691,105.831 53.5,106.5C 53.3764,107.107 53.0431,107.44 52.5,107.5C 50.6309,106.835 48.6309,106.169 46.5,105.5C 46.6236,104.893 46.9569,104.56 47.5,104.5 Z"/></g>
<g><path style="opacity:1" fill="#453903" d="M 53.5,98.5 C 54.1667,101.167 54.8333,103.833 55.5,106.5C 53.1916,110.778 51.1916,115.111 49.5,119.5C 49.1667,119.5 48.8333,119.5 48.5,119.5C 48.9138,115.172 50.2471,111.172 52.5,107.5C 53.0431,107.44 53.3764,107.107 53.5,106.5C 51.3691,105.831 49.3691,105.165 47.5,104.5C 47.8333,104.5 48.1667,104.5 48.5,104.5C 50.1667,104.5 51.8333,104.5 53.5,104.5C 53.5,102.5 53.5,100.5 53.5,98.5 Z"/></g>
<g><path style="opacity:1" fill="#a58200" d="M 205.5,108.5 C 206.239,108.369 206.906,108.536 207.5,109C 205.963,110.707 204.296,112.207 202.5,113.5C 202.53,112.503 202.03,111.836 201,111.5C 199.862,111.989 198.695,112.322 197.5,112.5C 197.5,112.167 197.5,111.833 197.5,111.5C 200.162,110.501 202.828,109.501 205.5,108.5 Z"/></g>
<g><path style="opacity:1" fill="#f2c800" d="M 202.5,113.5 C 196.566,118.037 189.899,121.037 182.5,122.5C 176.491,122.299 170.491,121.966 164.5,121.5C 163.833,121.5 163.5,121.167 163.5,120.5C 162.192,119.768 160.858,118.934 159.5,118C 167.5,117.667 175.5,117.333 183.5,117C 184.416,116.722 185.082,116.222 185.5,115.5C 189.385,114.51 193.385,113.51 197.5,112.5C 198.695,112.322 199.862,111.989 201,111.5C 202.03,111.836 202.53,112.503 202.5,113.5 Z"/></g>
<g><path style="opacity:1" fill="#3e371f" d="M 192.5,111.5 C 194.167,111.5 195.833,111.5 197.5,111.5C 197.5,111.833 197.5,112.167 197.5,112.5C 193.385,113.51 189.385,114.51 185.5,115.5C 176.019,116.735 166.686,116.735 157.5,115.5C 163.69,115.823 169.69,115.49 175.5,114.5C 181.346,114.333 187.013,113.333 192.5,111.5 Z"/></g>
<g><path style="opacity:1" fill="#f9f4ed" d="M 110.5,140.5 C 107.319,142.837 103.986,145.004 100.5,147C 93.7427,149.606 86.7427,151.44 79.5,152.5C 72.9216,153.031 66.5882,152.365 60.5,150.5C 54.2022,144.227 50.8689,136.561 50.5,127.5C 53.5721,126.15 56.5721,124.817 59.5,123.5C 60.8333,123.5 62.1667,123.5 63.5,123.5C 63.9758,138.122 71.3091,143.289 85.5,139C 90.5054,135.654 93.172,130.988 93.5,125C 93.6932,122.992 93.0265,121.492 91.5,120.5C 91.5,119.833 91.5,119.167 91.5,118.5C 92.5893,116.883 94.256,116.05 96.5,116C 101.533,115.171 106.533,115.338 111.5,116.5C 112.986,119.294 113.653,122.294 113.5,125.5C 113.281,130.701 112.281,135.701 110.5,140.5 Z"/></g>
<g><path style="opacity:1" fill="#746002" d="M 81.5,115.5 C 80.5,116.167 79.5,116.833 78.5,117.5C 75.8333,117.833 73.1667,118.167 70.5,118.5C 73.8088,116.63 77.4754,115.63 81.5,115.5 Z"/></g>
<g><path style="opacity:1" fill="#ccc3b9" d="M 110.5,140.5 C 112.281,135.701 113.281,130.701 113.5,125.5C 113.653,122.294 112.986,119.294 111.5,116.5C 106.533,115.338 101.533,115.171 96.5,116C 94.256,116.05 92.5893,116.883 91.5,118.5C 90.5222,118.189 89.8555,117.522 89.5,116.5C 90.7287,115.719 92.062,115.219 93.5,115C 100.833,114.333 108.167,114.333 115.5,115C 116,115.5 116.5,116 117,116.5C 117.83,122.528 117.664,128.528 116.5,134.5C 114.812,136.854 112.812,138.854 110.5,140.5 Z"/></g>
<g><path style="opacity:1" fill="#b69600" d="M 157.5,115.5 C 166.686,116.735 176.019,116.735 185.5,115.5C 185.082,116.222 184.416,116.722 183.5,117C 175.5,117.333 167.5,117.667 159.5,118C 160.858,118.934 162.192,119.768 163.5,120.5C 161.708,120.634 160.042,120.301 158.5,119.5C 157.064,118.571 155.731,117.405 154.5,116C 155.448,115.517 156.448,115.351 157.5,115.5 Z"/></g>
<g><path style="opacity:1" fill="#090d0c" d="M 78.5,117.5 C 79.2223,118.551 80.2223,119.218 81.5,119.5C 86.6998,123.457 86.6998,127.624 81.5,132C 79.1667,132.667 76.8333,132.667 74.5,132C 73.6195,131.292 72.9528,130.458 72.5,129.5C 73.3764,129.631 74.0431,129.298 74.5,128.5C 73.9724,126.664 73.3058,124.997 72.5,123.5C 74.1859,120.463 73.1859,119.13 69.5,119.5C 69.5,118.833 69.8333,118.5 70.5,118.5C 73.1667,118.167 75.8333,117.833 78.5,117.5 Z"/></g>
<g><path style="opacity:1" fill="#3d8981" d="M 87.5,117.5 C 86.448,117.351 85.448,117.517 84.5,118C 89.631,130.112 85.631,135.446 72.5,134C 71.3128,132.981 70.3128,131.814 69.5,130.5C 70.325,129.614 71.325,129.281 72.5,129.5C 72.9528,130.458 73.6195,131.292 74.5,132C 76.8333,132.667 79.1667,132.667 81.5,132C 86.6998,127.624 86.6998,123.457 81.5,119.5C 81.5774,118.25 82.244,117.417 83.5,117C 85.0657,116.235 86.3991,116.402 87.5,117.5 Z"/></g>
<g><path style="opacity:1" fill="#5d3701" d="M 155.5,126.5 C 155.842,127.338 156.508,127.672 157.5,127.5C 157.5,128.167 157.5,128.833 157.5,129.5C 155.187,127.626 152.854,125.626 150.5,123.5C 146.469,119.956 142.135,119.623 137.5,122.5C 137.5,121.833 137.167,121.5 136.5,121.5C 144.22,116.816 150.553,118.483 155.5,126.5 Z"/></g>
<g><path style="opacity:1" fill="#39706a" d="M 69.5,119.5 C 73.1859,119.13 74.1859,120.463 72.5,123.5C 71.2436,123.096 70.0769,122.429 69,121.5C 67.8615,121.989 66.6948,122.322 65.5,122.5C 65.5,122.167 65.5,121.833 65.5,121.5C 66.9952,121.011 68.3285,120.345 69.5,119.5 Z"/></g>
<g><path style="opacity:1" fill="#3a3004" d="M 205.5,108.5 C 205.735,107.903 206.235,107.57 207,107.5C 208.011,108.056 208.844,108.722 209.5,109.5C 202.851,117.324 194.518,122.324 184.5,124.5C 184.158,123.662 183.492,123.328 182.5,123.5C 182.5,123.167 182.5,122.833 182.5,122.5C 189.899,121.037 196.566,118.037 202.5,113.5C 204.296,112.207 205.963,110.707 207.5,109C 206.906,108.536 206.239,108.369 205.5,108.5 Z"/></g>
<g><path style="opacity:1" fill="#110c07" d="M 158.5,119.5 C 160.042,120.301 161.708,120.634 163.5,120.5C 163.5,121.167 163.833,121.5 164.5,121.5C 165.609,122.29 166.942,122.79 168.5,123C 173.155,123.499 177.821,123.666 182.5,123.5C 183.492,123.328 184.158,123.662 184.5,124.5C 184.782,129.927 184.449,135.26 183.5,140.5C 182.833,140.5 182.167,140.5 181.5,140.5C 181.389,139.883 181.056,139.383 180.5,139C 178.527,138.505 176.527,138.338 174.5,138.5C 172.266,138.62 170.099,138.287 168,137.5C 163.974,135.417 160.474,132.75 157.5,129.5C 157.5,128.833 157.5,128.167 157.5,127.5C 157.5,125.167 157.5,122.833 157.5,120.5C 157.5,119.833 157.833,119.5 158.5,119.5 Z"/></g>
<g><path style="opacity:1" fill="#8b7200" d="M 164.5,121.5 C 170.491,121.966 176.491,122.299 182.5,122.5C 182.5,122.833 182.5,123.167 182.5,123.5C 177.821,123.666 173.155,123.499 168.5,123C 166.942,122.79 165.609,122.29 164.5,121.5 Z"/></g>
<g><path style="opacity:1" fill="#8c7403" d="M 156.5,120.5 C 156.833,120.5 157.167,120.5 157.5,120.5C 157.5,122.833 157.5,125.167 157.5,127.5C 156.508,127.672 155.842,127.338 155.5,126.5C 156.461,124.735 156.795,122.735 156.5,120.5 Z"/></g>
<g><path style="opacity:1" fill="#483e12" d="M 69.5,119.5 C 68.3285,120.345 66.9952,121.011 65.5,121.5C 63.2143,121.595 61.2143,122.262 59.5,123.5C 56.5721,124.817 53.5721,126.15 50.5,127.5C 49.6618,127.158 49.3284,126.492 49.5,125.5C 55.8082,122.51 62.4749,120.51 69.5,119.5 Z"/></g>
<g><path style="opacity:1" fill="#ec5a08" d="M 150.5,123.5 C 152.407,128.7 154.74,133.033 157.5,136.5C 156.767,137.087 155.767,137.087 154.5,136.5C 153.678,134.272 152.345,133.605 150.5,134.5C 151.524,135.852 152.524,137.185 153.5,138.5C 156.271,143.231 160.271,146.564 165.5,148.5C 171.511,153.668 178.511,156.335 186.5,156.5C 179.198,167.474 169.198,174.474 156.5,177.5C 145.507,178.008 134.507,178.342 123.5,178.5C 122.167,178.5 120.833,178.5 119.5,178.5C 115.81,176.409 111.81,175.243 107.5,175C 110.469,177.318 113.802,178.818 117.5,179.5C 118.167,179.5 118.833,179.5 119.5,179.5C 119.53,180.497 119.03,181.164 118,181.5C 116.234,180.767 114.401,180.433 112.5,180.5C 110.046,179.773 107.713,178.773 105.5,177.5C 104.728,176.306 103.728,175.306 102.5,174.5C 102.215,172.712 102.548,171.045 103.5,169.5C 111.859,167.405 118.359,162.739 123,155.5C 127.692,147.147 131.025,138.147 133,128.5C 134.277,126.253 135.777,124.253 137.5,122.5C 142.135,119.623 146.469,119.956 150.5,123.5 Z"/></g>
<g><path style="opacity:1" fill="#343d3b" d="M 91.5,120.5 C 93.0265,121.492 93.6932,122.992 93.5,125C 93.172,130.988 90.5054,135.654 85.5,139C 71.3091,143.289 63.9758,138.122 63.5,123.5C 62.1667,123.5 60.8333,123.5 59.5,123.5C 61.2143,122.262 63.2143,121.595 65.5,121.5C 65.5,121.833 65.5,122.167 65.5,122.5C 64.9791,134.56 70.6458,139.727 82.5,138C 88.6614,135.183 91.328,130.35 90.5,123.5C 91.404,122.791 91.7373,121.791 91.5,120.5 Z"/></g>
<g><path style="opacity:1" fill="#6ebab1" d="M 87.5,117.5 C 89.539,118.911 90.539,120.911 90.5,123.5C 91.328,130.35 88.6614,135.183 82.5,138C 70.6458,139.727 64.9791,134.56 65.5,122.5C 66.6948,122.322 67.8615,121.989 69,121.5C 70.0769,122.429 71.2436,123.096 72.5,123.5C 73.3058,124.997 73.9724,126.664 74.5,128.5C 74.0431,129.298 73.3764,129.631 72.5,129.5C 71.325,129.281 70.325,129.614 69.5,130.5C 70.3128,131.814 71.3128,132.981 72.5,134C 85.631,135.446 89.631,130.112 84.5,118C 85.448,117.517 86.448,117.351 87.5,117.5 Z"/></g>
<g><path style="opacity:1" fill="#eeeee7" d="M 69.5,124.5 C 70.5,124.5 71.5,124.5 72.5,124.5C 72.7778,126.346 72.1112,127.68 70.5,128.5C 69.5713,127.311 69.238,125.978 69.5,124.5 Z"/></g>
<g><path style="opacity:1" fill="#682e1a" d="M 154.5,136.5 C 157.545,139.547 160.878,142.213 164.5,144.5C 166.869,145.69 168.869,147.357 170.5,149.5C 168.883,148.962 167.216,148.629 165.5,148.5C 161.54,145.177 157.54,141.844 153.5,138.5C 152.524,137.185 151.524,135.852 150.5,134.5C 152.345,133.605 153.678,134.272 154.5,136.5 Z"/></g>
<g><path style="opacity:1" fill="#a28600" d="M 118.5,135.5 C 118.834,138.491 117.834,140.824 115.5,142.5C 115.935,139.843 116.935,137.509 118.5,135.5 Z"/></g>
<g><path style="opacity:1" fill="#3f2804" d="M 136.5,121.5 C 137.167,121.5 137.5,121.833 137.5,122.5C 135.777,124.253 134.277,126.253 133,128.5C 131.025,138.147 127.692,147.147 123,155.5C 118.359,162.739 111.859,167.405 103.5,169.5C 102.548,171.045 102.215,172.712 102.5,174.5C 101.71,173.391 101.21,172.058 101,170.5C 100.79,172.058 100.29,173.391 99.5,174.5C 98.9586,171.348 99.9586,168.848 102.5,167C 106.385,166.261 110.052,164.927 113.5,163C 123.097,152.221 129.263,139.721 132,125.5C 133.371,123.959 134.871,122.625 136.5,121.5 Z"/></g>
<g><path style="opacity:1" fill="#d45000" d="M 150.5,123.5 C 152.854,125.626 155.187,127.626 157.5,129.5C 160.474,132.75 163.974,135.417 168,137.5C 170.099,138.287 172.266,138.62 174.5,138.5C 180.882,141.149 181.049,144.149 175,147.5C 171.612,146.053 168.112,145.053 164.5,144.5C 160.878,142.213 157.545,139.547 154.5,136.5C 155.767,137.087 156.767,137.087 157.5,136.5C 154.74,133.033 152.407,128.7 150.5,123.5 Z"/></g>
<g><path style="opacity:1" fill="#423c2c" d="M 48.5,119.5 C 48.8333,119.5 49.1667,119.5 49.5,119.5C 49.5,121.5 49.5,123.5 49.5,125.5C 49.3284,126.492 49.6618,127.158 50.5,127.5C 50.8689,136.561 54.2022,144.227 60.5,150.5C 61.1667,151.5 61.8333,152.5 62.5,153.5C 62.5,153.833 62.5,154.167 62.5,154.5C 58.4278,151.431 55.0944,147.765 52.5,143.5C 52.573,141.973 51.9063,140.973 50.5,140.5C 48.7746,133.633 48.108,126.633 48.5,119.5 Z"/></g>
<g><path style="opacity:1" fill="#373325" d="M 116.5,112.5 C 118.13,114.026 118.963,116.026 119,118.5C 119.626,124.195 119.459,129.862 118.5,135.5C 116.935,137.509 115.935,139.843 115.5,142.5C 114.849,141.909 114.182,141.243 113.5,140.5C 112.893,140.624 112.56,140.957 112.5,141.5C 108.463,144.18 104.463,146.846 100.5,149.5C 96.6434,150.175 92.9767,151.342 89.5,153C 85.5092,153.642 81.5092,154.142 77.5,154.5C 73.8333,154.5 70.1667,154.5 66.5,154.5C 66.5,154.167 66.5,153.833 66.5,153.5C 71.0323,153.818 75.3656,153.485 79.5,152.5C 86.7427,151.44 93.7427,149.606 100.5,147C 103.986,145.004 107.319,142.837 110.5,140.5C 112.812,138.854 114.812,136.854 116.5,134.5C 117.664,128.528 117.83,122.528 117,116.5C 116.5,116 116,115.5 115.5,115C 108.167,114.333 100.833,114.333 93.5,115C 92.062,115.219 90.7287,115.719 89.5,116.5C 89.8555,117.522 90.5222,118.189 91.5,118.5C 91.5,119.167 91.5,119.833 91.5,120.5C 91.7373,121.791 91.404,122.791 90.5,123.5C 90.539,120.911 89.539,118.911 87.5,117.5C 86.3991,116.402 85.0657,116.235 83.5,117C 82.244,117.417 81.5774,118.25 81.5,119.5C 80.2223,119.218 79.2223,118.551 78.5,117.5C 79.5,116.833 80.5,116.167 81.5,115.5C 86.0365,114.189 90.7031,113.523 95.5,113.5C 96.8333,113.5 98.1667,113.5 99.5,113.5C 105.259,113.786 110.925,113.452 116.5,112.5 Z"/></g>
<g><path style="opacity:1" fill="#8c7300" d="M 50.5,140.5 C 51.9063,140.973 52.573,141.973 52.5,143.5C 51.0937,143.027 50.427,142.027 50.5,140.5 Z"/></g>
<g><path style="opacity:1" fill="#dc8858" d="M 153.5,138.5 C 157.54,141.844 161.54,145.177 165.5,148.5C 160.271,146.564 156.271,143.231 153.5,138.5 Z"/></g>
<g><path style="opacity:1" fill="#c49900" d="M 112.5,141.5 C 113.465,142.721 113.298,144.054 112,145.5C 109.253,148.754 106.086,151.42 102.5,153.5C 102.297,151.61 102.963,150.11 104.5,149C 103.181,148.805 101.847,148.972 100.5,149.5C 104.463,146.846 108.463,144.18 112.5,141.5 Z"/></g>
<g><path style="opacity:1" fill="#821902" d="M 174.5,138.5 C 176.527,138.338 178.527,138.505 180.5,139C 181.056,139.383 181.389,139.883 181.5,140.5C 180.992,144.197 180.326,147.864 179.5,151.5C 176.426,151.127 173.426,150.461 170.5,149.5C 168.869,147.357 166.869,145.69 164.5,144.5C 168.112,145.053 171.612,146.053 175,147.5C 181.049,144.149 180.882,141.149 174.5,138.5 Z"/></g>
<g><path style="opacity:1" fill="#f9b389" d="M 148.5,139.5 C 152.894,145.227 158.227,149.893 164.5,153.5C 164.5,154.5 164.5,155.5 164.5,156.5C 162.435,156.483 160.435,156.15 158.5,155.5C 151.998,151.671 147.331,146.338 144.5,139.5C 145.833,139.5 147.167,139.5 148.5,139.5 Z"/></g>
<g><path style="opacity:1" fill="#8e6039" d="M 203.5,150.5 C 206.287,149.523 209.287,149.19 212.5,149.5C 215.921,149.518 218.588,150.851 220.5,153.5C 218.283,154.369 215.95,154.702 213.5,154.5C 213.5,154.167 213.5,153.833 213.5,153.5C 214.376,153.631 215.043,153.298 215.5,152.5C 211.722,150.745 207.722,150.078 203.5,150.5 Z"/></g>
<g><path style="opacity:1" fill="#f37931" d="M 126.5,162.5 C 126.343,161.127 126.51,159.793 127,158.5C 129.398,156.092 131.231,153.426 132.5,150.5C 134.613,149.744 136.613,149.577 138.5,150C 137.313,148.981 136.313,147.814 135.5,146.5C 136.67,143.791 137.837,141.125 139,138.5C 139.692,139.025 140.192,139.692 140.5,140.5C 139.167,149.5 139.167,158.5 140.5,167.5C 140.192,168.308 139.692,168.975 139,169.5C 137.732,169.384 136.398,169.051 135,168.5C 133.919,170.767 132.419,170.934 130.5,169C 131.276,167.23 131.11,165.397 130,163.5C 129.505,165.473 129.338,167.473 129.5,169.5C 128.5,169.5 127.5,169.5 126.5,169.5C 126.5,167.167 126.5,164.833 126.5,162.5 Z"/></g>
<g><path style="opacity:1" fill="#422e09" d="M 212.5,149.5 C 209.287,149.19 206.287,149.523 203.5,150.5C 199.452,151.358 195.785,153.025 192.5,155.5C 189.5,154.833 186.5,154.167 183.5,153.5C 186.518,153.665 189.518,153.498 192.5,153C 198.723,148.657 205.389,147.49 212.5,149.5 Z"/></g>
<g><path style="opacity:1" fill="#e3ba00" d="M 102.5,153.5 C 95.3643,158.538 87.3643,160.538 78.5,159.5C 75.5718,159.435 72.9052,158.768 70.5,157.5C 70.3893,156.883 70.056,156.383 69.5,156C 72.3647,155.817 75.0314,155.317 77.5,154.5C 81.5092,154.142 85.5092,153.642 89.5,153C 92.9767,151.342 96.6434,150.175 100.5,149.5C 101.847,148.972 103.181,148.805 104.5,149C 102.963,150.11 102.297,151.61 102.5,153.5 Z"/></g>
<g><path style="opacity:1" fill="#433603" d="M 112.5,141.5 C 112.56,140.957 112.893,140.624 113.5,140.5C 114.182,141.243 114.849,141.909 115.5,142.5C 110.196,152.657 101.862,158.657 90.5,160.5C 90.5,161.833 90.5,163.167 90.5,164.5C 90.5,164.833 90.5,165.167 90.5,165.5C 89.5489,164.081 89.2155,162.415 89.5,160.5C 85.6286,160.815 81.9619,160.482 78.5,159.5C 87.3643,160.538 95.3643,158.538 102.5,153.5C 106.086,151.42 109.253,148.754 112,145.5C 113.298,144.054 113.465,142.721 112.5,141.5 Z"/></g>
<g><path style="opacity:1" fill="#a5a19e" d="M 60.5,150.5 C 66.5882,152.365 72.9216,153.031 79.5,152.5C 75.3656,153.485 71.0323,153.818 66.5,153.5C 65.1667,153.5 63.8333,153.5 62.5,153.5C 61.8333,152.5 61.1667,151.5 60.5,150.5 Z"/></g>
<g><path style="opacity:1" fill="#e95c0c" d="M 213.5,153.5 C 213.5,153.833 213.5,154.167 213.5,154.5C 208.169,154.999 203.836,157.332 200.5,161.5C 199.624,161.631 198.957,161.298 198.5,160.5C 199.006,157.329 200.672,154.996 203.5,153.5C 203.291,152.914 202.957,152.414 202.5,152C 205.5,151.333 208.5,151.333 211.5,152C 212.416,152.278 213.082,152.778 213.5,153.5 Z"/></g>
<g><path style="opacity:1" fill="#d2885e" d="M 165.5,148.5 C 167.216,148.629 168.883,148.962 170.5,149.5C 175.58,153.195 181.247,155.528 187.5,156.5C 187.167,156.5 186.833,156.5 186.5,156.5C 178.511,156.335 171.511,153.668 165.5,148.5 Z"/></g>
<g><path style="opacity:1" fill="#746002" d="M 66.5,154.5 C 70.1667,154.5 73.8333,154.5 77.5,154.5C 75.0314,155.317 72.3647,155.817 69.5,156C 70.056,156.383 70.3893,156.883 70.5,157.5C 68.5956,157.262 67.2623,156.262 66.5,154.5 Z"/></g>
<g><path style="opacity:1" fill="#f69962" d="M 164.5,153.5 C 166.713,154.773 169.046,155.773 171.5,156.5C 172.942,157.82 173.608,159.486 173.5,161.5C 170.763,161.599 168.096,161.265 165.5,160.5C 162.991,159.079 160.657,157.412 158.5,155.5C 160.435,156.15 162.435,156.483 164.5,156.5C 164.5,155.5 164.5,154.5 164.5,153.5 Z"/></g>
<g><path style="opacity:1" fill="#0b0a08" d="M 62.5,153.5 C 63.8333,153.5 65.1667,153.5 66.5,153.5C 66.5,153.833 66.5,154.167 66.5,154.5C 67.2623,156.262 68.5956,157.262 70.5,157.5C 72.9052,158.768 75.5718,159.435 78.5,159.5C 81.9619,160.482 85.6286,160.815 89.5,160.5C 89.2155,162.415 89.5489,164.081 90.5,165.5C 90.8583,168.689 91.525,171.689 92.5,174.5C 94.8333,174.5 97.1667,174.5 99.5,174.5C 100.29,173.391 100.79,172.058 101,170.5C 101.21,172.058 101.71,173.391 102.5,174.5C 103.728,175.306 104.728,176.306 105.5,177.5C 104.159,179.834 104.826,181.501 107.5,182.5C 111.301,186.4 115.967,188.734 121.5,189.5C 122.609,190.29 123.942,190.79 125.5,191C 129.821,191.499 134.154,191.666 138.5,191.5C 139.833,191.5 141.167,191.5 142.5,191.5C 142.335,194.85 142.502,198.183 143,201.5C 143.383,202.056 143.883,202.389 144.5,202.5C 144.5,203.5 144.5,204.5 144.5,205.5C 144.739,207.467 144.406,209.301 143.5,211C 140.149,211.057 137.149,211.891 134.5,213.5C 133.167,213.5 131.833,213.5 130.5,213.5C 129.167,213.5 127.833,213.5 126.5,213.5C 126.5,212.5 126.5,211.5 126.5,210.5C 126.235,206.147 125.735,201.813 125,197.5C 124.722,196.584 124.222,195.918 123.5,195.5C 121.5,195.5 119.5,195.5 117.5,195.5C 116.167,195.5 114.833,195.5 113.5,195.5C 113.216,197.415 113.549,199.081 114.5,200.5C 114.5,201.5 114.5,202.5 114.5,203.5C 115.162,207.466 115.495,211.466 115.5,215.5C 109.511,216.26 103.511,216.927 97.5,217.5C 97.7847,214.171 97.1181,211.171 95.5,208.5C 95.6747,206.379 95.3414,204.379 94.5,202.5C 94.5,201.5 94.5,200.5 94.5,199.5C 91.9407,199.198 89.6074,199.532 87.5,200.5C 81.4476,200.731 75.4476,201.398 69.5,202.5C 69.8016,199.941 69.4682,197.607 68.5,195.5C 68.5,194.5 68.5,193.5 68.5,192.5C 68.0217,187.273 67.0217,182.273 65.5,177.5C 64.7154,169.765 63.7154,162.098 62.5,154.5C 62.5,154.167 62.5,153.833 62.5,153.5 Z"/></g>
<g><path style="opacity:1" fill="#503002" d="M 223.5,155.5 C 226.698,156.854 227.864,159.187 227,162.5C 224.388,166.219 220.888,168.552 216.5,169.5C 215.833,169.5 215.167,169.5 214.5,169.5C 214.5,169.167 214.5,168.833 214.5,168.5C 218.476,167.341 221.976,165.341 225,162.5C 225.765,160.934 225.598,159.601 224.5,158.5C 224.5,157.833 224.167,157.5 223.5,157.5C 223.5,156.833 223.5,156.167 223.5,155.5 Z"/></g>
<g><path style="opacity:1" fill="#2c130b" d="M 181.5,140.5 C 182.167,140.5 182.833,140.5 183.5,140.5C 182.837,143.821 182.17,147.154 181.5,150.5C 181.64,152.03 182.307,153.03 183.5,153.5C 186.5,154.167 189.5,154.833 192.5,155.5C 190.833,157.5 189.167,159.5 187.5,161.5C 184.065,165.438 180.398,169.271 176.5,173C 171.893,175.472 167.227,177.639 162.5,179.5C 157.57,180.648 152.57,181.315 147.5,181.5C 141.642,181.822 135.975,181.489 130.5,180.5C 139.469,180.913 148.135,179.913 156.5,177.5C 170.866,176.469 181.199,169.469 187.5,156.5C 181.247,155.528 175.58,153.195 170.5,149.5C 173.426,150.461 176.426,151.127 179.5,151.5C 180.326,147.864 180.992,144.197 181.5,140.5 Z"/></g>
<g><path style="opacity:1" fill="#331405" d="M 220.5,153.5 C 221.5,154.167 222.5,154.833 223.5,155.5C 223.5,156.167 223.5,156.833 223.5,157.5C 221.843,156.425 220.009,155.758 218,155.5C 208.644,156.408 202.144,161.075 198.5,169.5C 197.209,169.737 196.209,169.404 195.5,168.5C 196.779,165.888 198.445,163.555 200.5,161.5C 203.836,157.332 208.169,154.999 213.5,154.5C 215.95,154.702 218.283,154.369 220.5,153.5 Z"/></g>
<g><path style="opacity:1" fill="#ce5100" d="M 224.5,158.5 C 225.598,159.601 225.765,160.934 225,162.5C 221.976,165.341 218.476,167.341 214.5,168.5C 213.167,168.5 211.833,168.5 210.5,168.5C 211.796,160.825 216.463,157.491 224.5,158.5 Z"/></g>
<g><path style="opacity:1" fill="#821801" d="M 223.5,157.5 C 224.167,157.5 224.5,157.833 224.5,158.5C 216.463,157.491 211.796,160.825 210.5,168.5C 211.833,168.5 213.167,168.5 214.5,168.5C 214.5,168.833 214.5,169.167 214.5,169.5C 213.833,169.5 213.167,169.5 212.5,169.5C 207.833,169.5 203.167,169.5 198.5,169.5C 202.144,161.075 208.644,156.408 218,155.5C 220.009,155.758 221.843,156.425 223.5,157.5 Z"/></g>
<g><path style="opacity:1" fill="#f37931" d="M 143.5,138.5 C 145.415,138.216 147.081,138.549 148.5,139.5C 147.167,139.5 145.833,139.5 144.5,139.5C 147.331,146.338 151.998,151.671 158.5,155.5C 160.657,157.412 162.991,159.079 165.5,160.5C 165.414,161.496 165.748,162.329 166.5,163C 165.874,163.75 165.374,164.584 165,165.5C 163.732,165.384 162.398,165.051 161,164.5C 159.198,166.678 157.031,168.511 154.5,170C 151.571,170.777 148.737,170.61 146,169.5C 145.396,171.686 144.23,171.852 142.5,170C 142.493,168.417 142.826,166.751 143.5,165C 140.972,163.983 140.972,162.816 143.5,161.5C 143.22,153.693 143.22,146.027 143.5,138.5 Z"/></g>
<g><path style="opacity:1" fill="#e47839" d="M 203.5,150.5 C 207.722,150.078 211.722,150.745 215.5,152.5C 215.043,153.298 214.376,153.631 213.5,153.5C 213.082,152.778 212.416,152.278 211.5,152C 208.5,151.333 205.5,151.333 202.5,152C 202.957,152.414 203.291,152.914 203.5,153.5C 200.672,154.996 199.006,157.329 198.5,160.5C 198.957,161.298 199.624,161.631 200.5,161.5C 198.445,163.555 196.779,165.888 195.5,168.5C 193.066,171.171 190.733,174.004 188.5,177C 183.256,179.685 177.923,181.852 172.5,183.5C 168.481,183.646 164.481,183.979 160.5,184.5C 160.175,182.868 159.175,181.868 157.5,181.5C 154.217,182.327 150.884,182.66 147.5,182.5C 147.5,182.167 147.5,181.833 147.5,181.5C 152.57,181.315 157.57,180.648 162.5,179.5C 165.877,179.041 169.211,178.374 172.5,177.5C 172.586,178.496 172.252,179.329 171.5,180C 175.256,180.609 178.59,179.775 181.5,177.5C 189.957,174.644 194.623,168.644 195.5,159.5C 194.448,159.351 193.448,159.517 192.5,160C 190.63,162.04 188.63,163.873 186.5,165.5C 186.833,164.167 187.167,162.833 187.5,161.5C 189.167,159.5 190.833,157.5 192.5,155.5C 195.785,153.025 199.452,151.358 203.5,150.5 Z"/></g>
<g><path style="opacity:1" fill="#fdddc8" d="M 181.5,177.5 C 180.5,177.5 179.5,177.5 178.5,177.5C 178.433,176.041 178.766,174.708 179.5,173.5C 182.55,171.451 184.883,168.784 186.5,165.5C 188.63,163.873 190.63,162.04 192.5,160C 193.448,159.517 194.448,159.351 195.5,159.5C 194.623,168.644 189.957,174.644 181.5,177.5 Z"/></g>
<g><path style="opacity:1" fill="#8b1402" d="M 186.5,156.5 C 186.833,156.5 187.167,156.5 187.5,156.5C 181.199,169.469 170.866,176.469 156.5,177.5C 169.198,174.474 179.198,167.474 186.5,156.5 Z"/></g>
<g><path style="opacity:1" fill="#9b8004" d="M 90.5,164.5 C 91.2216,164.918 91.7216,165.584 92,166.5C 92.4974,169.146 92.6641,171.813 92.5,174.5C 91.525,171.689 90.8583,168.689 90.5,165.5C 90.5,165.167 90.5,164.833 90.5,164.5 Z"/></g>
<g><path style="opacity:1" fill="#c86d37" d="M 187.5,161.5 C 187.167,162.833 186.833,164.167 186.5,165.5C 184.883,168.784 182.55,171.451 179.5,173.5C 177.004,174.58 174.67,175.914 172.5,177.5C 169.211,178.374 165.877,179.041 162.5,179.5C 167.227,177.639 171.893,175.472 176.5,173C 180.398,169.271 184.065,165.438 187.5,161.5 Z"/></g>
<g><path style="opacity:1" fill="#927500" d="M 212.5,169.5 C 213.167,169.5 213.833,169.5 214.5,169.5C 215.167,169.5 215.833,169.5 216.5,169.5C 213.814,170.991 210.814,171.657 207.5,171.5C 205.304,171.495 203.304,171.162 201.5,170.5C 205.371,170.815 209.038,170.482 212.5,169.5 Z"/></g>
<g><path style="opacity:1" fill="#f26f23" d="M 143.5,138.5 C 143.22,146.027 143.22,153.693 143.5,161.5C 140.972,162.816 140.972,163.983 143.5,165C 142.826,166.751 142.493,168.417 142.5,170C 144.23,171.852 145.396,171.686 146,169.5C 148.737,170.61 151.571,170.777 154.5,170C 157.031,168.511 159.198,166.678 161,164.5C 162.398,165.051 163.732,165.384 165,165.5C 165.374,164.584 165.874,163.75 166.5,163C 165.748,162.329 165.414,161.496 165.5,160.5C 168.096,161.265 170.763,161.599 173.5,161.5C 173.608,159.486 172.942,157.82 171.5,156.5C 174.955,157.128 176.122,159.128 175,162.5C 172.167,164 169.333,165.5 166.5,167C 165.874,167.75 165.374,168.584 165,169.5C 164.667,169.167 164.333,168.833 164,168.5C 159.74,170.421 155.24,171.588 150.5,172C 149.667,172.833 148.833,173.667 148,174.5C 144.054,173.183 139.72,172.183 135,171.5C 134.692,172.308 134.192,172.975 133.5,173.5C 130.679,172.715 127.846,171.715 125,170.5C 123.989,171.337 122.822,171.67 121.5,171.5C 122.39,168.052 124.057,165.052 126.5,162.5C 126.5,164.833 126.5,167.167 126.5,169.5C 127.5,169.5 128.5,169.5 129.5,169.5C 129.338,167.473 129.505,165.473 130,163.5C 131.11,165.397 131.276,167.23 130.5,169C 132.419,170.934 133.919,170.767 135,168.5C 136.398,169.051 137.732,169.384 139,169.5C 139.692,168.975 140.192,168.308 140.5,167.5C 139.167,158.5 139.167,149.5 140.5,140.5C 140.192,139.692 139.692,139.025 139,138.5C 137.837,141.125 136.67,143.791 135.5,146.5C 136.313,147.814 137.313,148.981 138.5,150C 136.613,149.577 134.613,149.744 132.5,150.5C 132.34,148.801 132.506,147.134 133,145.5C 135.035,141.689 136.702,137.689 138,133.5C 139.525,133.888 141.192,133.888 143,133.5C 144.628,134.962 144.795,136.628 143.5,138.5 Z"/></g>
<g><path style="opacity:1" fill="#762401" d="M 119.5,178.5 C 118.508,178.328 117.842,178.662 117.5,179.5C 113.802,178.818 110.469,177.318 107.5,175C 111.81,175.243 115.81,176.409 119.5,178.5 Z"/></g>
<g><path style="opacity:1" fill="#3e2709" d="M 195.5,168.5 C 196.209,169.404 197.209,169.737 198.5,169.5C 203.167,169.5 207.833,169.5 212.5,169.5C 209.038,170.482 205.371,170.815 201.5,170.5C 199.396,170.201 197.396,170.534 195.5,171.5C 190.936,178.556 184.603,182.89 176.5,184.5C 176.167,184.5 175.833,184.5 175.5,184.5C 174.791,183.596 173.791,183.263 172.5,183.5C 177.923,181.852 183.256,179.685 188.5,177C 190.733,174.004 193.066,171.171 195.5,168.5 Z"/></g>
<g><path style="opacity:1" fill="#fbbd98" d="M 179.5,173.5 C 178.766,174.708 178.433,176.041 178.5,177.5C 179.5,177.5 180.5,177.5 181.5,177.5C 178.59,179.775 175.256,180.609 171.5,180C 172.252,179.329 172.586,178.496 172.5,177.5C 174.67,175.914 177.004,174.58 179.5,173.5 Z"/></g>
<g><path style="opacity:1" fill="#bb3701" d="M 156.5,177.5 C 148.135,179.913 139.469,180.913 130.5,180.5C 128.048,179.935 125.715,179.268 123.5,178.5C 134.507,178.342 145.507,178.008 156.5,177.5 Z"/></g>
<g><path style="opacity:1" fill="#512812" d="M 105.5,177.5 C 107.713,178.773 110.046,179.773 112.5,180.5C 113.5,181.167 114.5,181.833 115.5,182.5C 115.062,182.435 114.728,182.601 114.5,183C 115.737,183.232 116.737,183.732 117.5,184.5C 114.31,184.487 111.476,183.487 109,181.5C 108.235,181.57 107.735,181.903 107.5,182.5C 104.826,181.501 104.159,179.834 105.5,177.5 Z"/></g>
<g><path style="opacity:1" fill="#511a01" d="M 117.5,179.5 C 117.842,178.662 118.508,178.328 119.5,178.5C 120.833,178.5 122.167,178.5 123.5,178.5C 125.715,179.268 128.048,179.935 130.5,180.5C 135.975,181.489 141.642,181.822 147.5,181.5C 147.5,181.833 147.5,182.167 147.5,182.5C 141.167,182.5 134.833,182.5 128.5,182.5C 125.746,181.054 122.746,180.054 119.5,179.5C 118.833,179.5 118.167,179.5 117.5,179.5 Z"/></g>
<g><path style="opacity:1" fill="#bb4502" d="M 119.5,179.5 C 122.746,180.054 125.746,181.054 128.5,182.5C 127.761,182.369 127.094,182.536 126.5,183C 136.443,184.365 146.443,184.865 156.5,184.5C 142.86,186.154 129.193,185.487 115.5,182.5C 114.5,181.833 113.5,181.167 112.5,180.5C 114.401,180.433 116.234,180.767 118,181.5C 119.03,181.164 119.53,180.497 119.5,179.5 Z"/></g>
<g><path style="opacity:1" fill="#e1590b" d="M 160.5,184.5 C 159.167,184.5 157.833,184.5 156.5,184.5C 146.443,184.865 136.443,184.365 126.5,183C 127.094,182.536 127.761,182.369 128.5,182.5C 134.833,182.5 141.167,182.5 147.5,182.5C 150.884,182.66 154.217,182.327 157.5,181.5C 159.175,181.868 160.175,182.868 160.5,184.5 Z"/></g>
<g><path style="opacity:1" fill="#c69984" d="M 117.5,184.5 C 118.568,185.434 119.901,185.768 121.5,185.5C 124.008,187.554 127.008,188.554 130.5,188.5C 127.713,189.477 124.713,189.81 121.5,189.5C 115.967,188.734 111.301,186.4 107.5,182.5C 107.735,181.903 108.235,181.57 109,181.5C 111.476,183.487 114.31,184.487 117.5,184.5 Z"/></g>
<g><path style="opacity:1" fill="#a98c00" d="M 175.5,184.5 C 175.833,184.5 176.167,184.5 176.5,184.5C 170.202,187.034 163.536,188.034 156.5,187.5C 162.689,186.423 169.023,185.423 175.5,184.5 Z"/></g>
<g><path style="opacity:1" fill="#b96636" d="M 121.5,185.5 C 124.206,185.575 126.873,185.908 129.5,186.5C 130.609,187.29 131.942,187.79 133.5,188C 132.552,188.483 131.552,188.649 130.5,188.5C 127.008,188.554 124.008,187.554 121.5,185.5 Z"/></g>
<g><path style="opacity:1" fill="#440a01" d="M 134.5,187.5 C 139.844,187.334 145.177,187.501 150.5,188C 149.956,188.717 149.289,189.217 148.5,189.5C 143.833,188.833 139.167,188.167 134.5,187.5 Z"/></g>
<g><path style="opacity:1" fill="#977d04" d="M 65.5,177.5 C 67.0217,182.273 68.0217,187.273 68.5,192.5C 66.125,187.911 65.125,182.911 65.5,177.5 Z"/></g>
<g><path style="opacity:1" fill="#7f3220" d="M 129.5,186.5 C 131.415,186.216 133.081,186.549 134.5,187.5C 139.167,188.167 143.833,188.833 148.5,189.5C 144.96,189.753 141.627,190.419 138.5,191.5C 134.154,191.666 129.821,191.499 125.5,191C 123.942,190.79 122.609,190.29 121.5,189.5C 124.713,189.81 127.713,189.477 130.5,188.5C 131.552,188.649 132.552,188.483 133.5,188C 131.942,187.79 130.609,187.29 129.5,186.5 Z"/></g>
<g><path style="opacity:1" fill="#281503" d="M 115.5,182.5 C 129.193,185.487 142.86,186.154 156.5,184.5C 157.833,184.5 159.167,184.5 160.5,184.5C 164.481,183.979 168.481,183.646 172.5,183.5C 173.791,183.263 174.791,183.596 175.5,184.5C 169.023,185.423 162.689,186.423 156.5,187.5C 154.5,188.5 152.5,189.5 150.5,190.5C 147.848,190.41 145.515,191.076 143.5,192.5C 143.616,195.86 143.949,199.193 144.5,202.5C 143.883,202.389 143.383,202.056 143,201.5C 142.502,198.183 142.335,194.85 142.5,191.5C 141.167,191.5 139.833,191.5 138.5,191.5C 141.627,190.419 144.96,189.753 148.5,189.5C 149.289,189.217 149.956,188.717 150.5,188C 145.177,187.501 139.844,187.334 134.5,187.5C 133.081,186.549 131.415,186.216 129.5,186.5C 126.873,185.908 124.206,185.575 121.5,185.5C 119.901,185.768 118.568,185.434 117.5,184.5C 116.737,183.732 115.737,183.232 114.5,183C 114.728,182.601 115.062,182.435 115.5,182.5 Z"/></g>
<g><path style="opacity:1" fill="#8d7600" d="M 150.5,190.5 C 148.485,191.924 146.152,192.59 143.5,192.5C 145.515,191.076 147.848,190.41 150.5,190.5 Z"/></g>
<g><path style="opacity:1" fill="#826c05" d="M 117.5,195.5 C 116.791,196.404 115.791,196.737 114.5,196.5C 114.5,197.833 114.5,199.167 114.5,200.5C 113.549,199.081 113.216,197.415 113.5,195.5C 114.833,195.5 116.167,195.5 117.5,195.5 Z"/></g>
<g><path style="opacity:1" fill="#a08405" d="M 87.5,200.5 C 89.6074,199.532 91.9407,199.198 94.5,199.5C 94.5,200.5 94.5,201.5 94.5,202.5C 92.5441,200.852 90.2108,200.185 87.5,200.5 Z"/></g>
<g><path style="opacity:1" fill="#9e8205" d="M 68.5,195.5 C 69.4682,197.607 69.8016,199.941 69.5,202.5C 75.4476,201.398 81.4476,200.731 87.5,200.5C 81.4639,202.581 75.1305,203.581 68.5,203.5C 68.5,200.833 68.5,198.167 68.5,195.5 Z"/></g>
<g><path style="opacity:1" fill="#41370a" d="M 123.5,195.5 C 124.222,195.918 124.722,196.584 125,197.5C 125.735,201.813 126.235,206.147 126.5,210.5C 126.167,210.5 125.833,210.5 125.5,210.5C 124.833,205.5 124.167,200.5 123.5,195.5 Z"/></g>
<g><path style="opacity:1" fill="#7c6704" d="M 125.5,210.5 C 125.833,210.5 126.167,210.5 126.5,210.5C 126.5,211.5 126.5,212.5 126.5,213.5C 127.833,213.5 129.167,213.5 130.5,213.5C 129.081,214.451 127.415,214.784 125.5,214.5C 125.5,213.167 125.5,211.833 125.5,210.5 Z"/></g>
<g><path style="opacity:1" fill="#776407" d="M 144.5,205.5 C 145.468,207.607 145.802,209.941 145.5,212.5C 141.802,212.552 138.135,212.886 134.5,213.5C 137.149,211.891 140.149,211.057 143.5,211C 144.406,209.301 144.739,207.467 144.5,205.5 Z"/></g>
<g><path style="opacity:1" fill="#655408" d="M 95.5,208.5 C 97.1181,211.171 97.7847,214.171 97.5,217.5C 103.511,216.927 109.511,216.26 115.5,215.5C 114.167,216.167 112.833,216.833 111.5,217.5C 106.527,218.164 101.527,218.497 96.5,218.5C 96.3841,215.14 96.0508,211.807 95.5,208.5 Z"/></g>
<g><path style="opacity:1" fill="#b79803" d="M 114.5,203.5 C 115.117,203.611 115.617,203.944 116,204.5C 116.337,207.861 116.837,211.194 117.5,214.5C 117.392,215.442 117.059,216.275 116.5,217C 114.866,217.494 113.199,217.66 111.5,217.5C 112.833,216.833 114.167,216.167 115.5,215.5C 115.495,211.466 115.162,207.466 114.5,203.5 Z"/></g>
</svg>
