<?xml version="1.0" encoding="UTF-8"?>
<!DOCTYPE svg PUBLIC "-//W3C//DTD SVG 1.1//EN" "http://www.w3.org/Graphics/SVG/1.1/DTD/svg11.dtd">
<svg xmlns="http://www.w3.org/2000/svg" version="1.1" width="100px" height="100px" style="shape-rendering:geometricPrecision; text-rendering:geometricPrecision; image-rendering:optimizeQuality; fill-rule:evenodd; clip-rule:evenodd" xmlns:xlink="http://www.w3.org/1999/xlink">
<g><path style="opacity:0.729" fill="#0fab01" d="M 45.5,3.5 C 75.2352,4.40618 91.5685,19.5728 94.5,49C 92.1223,76.5449 77.1223,91.7115 49.5,94.5C 21.8777,91.7115 6.87771,76.5449 4.5,49C 6.45847,23.2112 20.1251,8.04452 45.5,3.5 Z"/></g>
<g><path style="opacity:1" fill="#030603" d="M 41.5,6.5 C 68.1621,4.9001 84.9954,16.9001 92,42.5C 93.4061,67.8563 81.9061,84.023 57.5,91C 32.7135,93.5505 16.2135,83.0505 8,59.5C 4.29318,32.383 15.4598,14.7163 41.5,6.5 Z"/></g>
<g><path style="opacity:1" fill="#37912e" d="M 47.5,19.5 C 49.5,19.5 51.5,19.5 53.5,19.5C 53.5,21.8333 53.5,24.1667 53.5,26.5C 51.4727,26.6621 49.4727,26.4955 47.5,26C 46.6634,24.9887 46.33,23.8221 46.5,22.5C 48.1992,22.6602 49.8659,22.4935 51.5,22C 49.563,21.8784 48.2297,21.045 47.5,19.5 Z"/></g>
<g><path style="opacity:1" fill="#34962a" d="M 57.5,20.5 C 63.9661,21.623 63.9661,22.2896 57.5,22.5C 57.5614,24.5922 58.5614,26.0922 60.5,27C 55.0761,27.2764 54.0761,25.1098 57.5,20.5 Z"/></g>
<g><path style="opacity:1" fill="#339f2a" d="M 34.5,26.5 C 33.8501,26.8039 33.1835,27.1373 32.5,27.5C 32.1667,26.8333 31.8333,26.1667 31.5,25.5C 30.5019,29.5114 31.5019,30.178 34.5,27.5C 35.2389,27.369 35.9056,27.5357 36.5,28C 32.9451,31.7541 30.2784,31.2541 28.5,26.5C 29.7224,24.0217 31.7224,23.0217 34.5,23.5C 34.5,24.5 34.5,25.5 34.5,26.5 Z"/></g>
<g><path style="opacity:1" fill="#365d32" d="M 34.5,26.5 C 34.5,26.8333 34.5,27.1667 34.5,27.5C 31.5019,30.178 30.5019,29.5114 31.5,25.5C 31.8333,26.1667 32.1667,26.8333 32.5,27.5C 33.1835,27.1373 33.8501,26.8039 34.5,26.5 Z"/></g>
<g><path style="opacity:1" fill="#36972d" d="M 38.5,20.5 C 40.288,20.2148 41.9547,20.5481 43.5,21.5C 44.9332,24.333 45.5999,27.333 45.5,30.5C 43.7376,30.3573 42.0709,30.6906 40.5,31.5C 40.1667,31.1667 39.8333,30.8333 39.5,30.5C 40.6888,29.5713 42.0222,29.238 43.5,29.5C 43.6495,28.448 43.4828,27.448 43,26.5C 37.9944,27.5436 36.4944,25.5436 38.5,20.5 Z"/></g>
<g><path style="opacity:1" fill="#0c0d0c" d="M 39.5,22.5 C 40.5,22.5 41.5,22.5 42.5,22.5C 42.5,23.5 42.5,24.5 42.5,25.5C 41.5,25.5 40.5,25.5 39.5,25.5C 39.5,24.5 39.5,23.5 39.5,22.5 Z"/></g>
<g><path style="opacity:1" fill="#2daa22" d="M 19.5,30.5 C 19.56,29.9569 19.8933,29.6236 20.5,29.5C 22.1667,30.8333 23.8333,32.1667 25.5,33.5C 26.7193,32.7366 27.7193,31.7366 28.5,30.5C 28.9834,32.9171 27.8167,34.5838 25,35.5C 23.317,33.6495 21.4837,31.9828 19.5,30.5 Z"/></g>
<g><path style="opacity:1" fill="#2f9f25" d="M 74.5,25.5 C 76.1765,26.1834 76.8432,27.5168 76.5,29.5C 81.0214,29.3262 81.3548,29.9929 77.5,31.5C 76.1667,38.1667 74.8333,38.1667 73.5,31.5C 72.109,32.6446 70.7757,32.6446 69.5,31.5C 71.0453,30.5481 72.712,30.2148 74.5,30.5C 74.5,28.8333 74.5,27.1667 74.5,25.5 Z"/></g>
<g><path style="opacity:1" fill="#33942a" d="M 64.5,22.5 C 64.9932,24.2572 65.3265,26.0905 65.5,28C 65.8333,28.1667 66.1667,28.3333 66.5,28.5C 67.5,27.1667 68.5,25.8333 69.5,24.5C 69.8333,24.8333 70.1667,25.1667 70.5,25.5C 68.9239,27.9793 67.9239,30.646 67.5,33.5C 64.9412,33.6104 62.6079,32.9438 60.5,31.5C 62.216,31.0028 63.8827,30.6694 65.5,30.5C 61.8704,28.3262 61.5371,25.6595 64.5,22.5 Z"/></g>
<g><path style="opacity:1" fill="#28ae18" d="M 53.5,35.5 C 52.6618,35.8417 52.3284,36.5084 52.5,37.5C 52.1667,37.5 51.8333,37.5 51.5,37.5C 50.5,37.5 49.5,37.5 48.5,37.5C 48.1667,37.5 47.8333,37.5 47.5,37.5C 47.5,36.8333 47.5,36.1667 47.5,35.5C 47.147,33.3652 47.9803,32.0319 50,31.5C 52.0736,32.0717 53.2402,33.405 53.5,35.5 Z"/></g>
<g><path style="opacity:1" fill="#dae267" d="M 47.5,35.5 C 47.5,36.1667 47.5,36.8333 47.5,37.5C 45.5368,38.8202 43.5368,40.1535 41.5,41.5C 40.1667,40.5 40.1667,39.5 41.5,38.5C 43.5168,37.4706 45.5168,36.4706 47.5,35.5 Z"/></g>
<g><path style="opacity:1" fill="#1e2219" d="M 47.5,37.5 C 47.8333,37.5 48.1667,37.5 48.5,37.5C 48.5,38.1667 48.5,38.8333 48.5,39.5C 46.6675,40.2485 45.0009,41.2485 43.5,42.5C 42.8333,42.5 42.1667,42.5 41.5,42.5C 41.5,42.1667 41.5,41.8333 41.5,41.5C 43.5368,40.1535 45.5368,38.8202 47.5,37.5 Z"/></g>
<g><path style="opacity:1" fill="#91a294" d="M 48.5,37.5 C 49.5,37.5 50.5,37.5 51.5,37.5C 51.5,38.1667 51.5,38.8333 51.5,39.5C 50.5,39.5 49.5,39.5 48.5,39.5C 48.5,38.8333 48.5,38.1667 48.5,37.5 Z"/></g>
<g><path style="opacity:1" fill="#dae367" d="M 53.5,35.5 C 55.2163,37.0248 57.2163,38.0248 59.5,38.5C 59.6716,39.4916 59.3382,40.1583 58.5,40.5C 56.2163,40.0248 54.2163,39.0248 52.5,37.5C 52.3284,36.5084 52.6618,35.8417 53.5,35.5 Z"/></g>
<g><path style="opacity:1" fill="#22281c" d="M 51.5,37.5 C 51.8333,37.5 52.1667,37.5 52.5,37.5C 54.2163,39.0248 56.2163,40.0248 58.5,40.5C 58.5,41.1667 58.5,41.8333 58.5,42.5C 58.1667,42.5 57.8333,42.5 57.5,42.5C 55.5,41.5 53.5,40.5 51.5,39.5C 51.5,38.8333 51.5,38.1667 51.5,37.5 Z"/></g>
<g><path style="opacity:1" fill="#2faf1e" d="M 41.5,38.5 C 40.1667,39.5 40.1667,40.5 41.5,41.5C 41.5,41.8333 41.5,42.1667 41.5,42.5C 41.1667,43.1667 40.8333,43.8333 40.5,44.5C 40.1667,44.5 39.8333,44.5 39.5,44.5C 38.8333,44.5 38.1667,44.5 37.5,44.5C 35.6231,43.3409 35.1231,41.6742 36,39.5C 37.6995,38.5939 39.5328,38.2606 41.5,38.5 Z"/></g>
<g><path style="opacity:1" fill="#2bad1c" d="M 59.5,38.5 C 64.2602,38.2007 65.5936,40.2007 63.5,44.5C 62.5,44.5 61.5,44.5 60.5,44.5C 60.1667,44.5 59.8333,44.5 59.5,44.5C 59.6716,43.5084 59.3382,42.8417 58.5,42.5C 58.5,41.8333 58.5,41.1667 58.5,40.5C 59.3382,40.1583 59.6716,39.4916 59.5,38.5 Z"/></g>
<g><path style="opacity:1" fill="#baccbb" d="M 41.5,42.5 C 42.1667,42.5 42.8333,42.5 43.5,42.5C 43.0679,43.7095 42.4013,44.7095 41.5,45.5C 41.5,44.8333 41.1667,44.5 40.5,44.5C 40.8333,43.8333 41.1667,43.1667 41.5,42.5 Z"/></g>
<g><path style="opacity:1" fill="#bad2c3" d="M 57.5,42.5 C 57.8333,42.5 58.1667,42.5 58.5,42.5C 59.3382,42.8417 59.6716,43.5084 59.5,44.5C 59.1667,44.5 58.8333,44.5 58.5,44.5C 57.6618,44.1583 57.3284,43.4916 57.5,42.5 Z"/></g>
<g><path style="opacity:1" fill="#e5f26a" d="M 37.5,44.5 C 38.1667,44.5 38.8333,44.5 39.5,44.5C 39.5,47.1667 39.5,49.8333 39.5,52.5C 38.8333,52.5 38.1667,52.5 37.5,52.5C 37.5,49.8333 37.5,47.1667 37.5,44.5 Z"/></g>
<g><path style="opacity:1" fill="#1d1e1d" d="M 58.5,44.5 C 58.8333,44.5 59.1667,44.5 59.5,44.5C 59.8333,44.5 60.1667,44.5 60.5,44.5C 60.5,47.1667 60.5,49.8333 60.5,52.5C 60.1667,52.5 59.8333,52.5 59.5,52.5C 59.1667,52.5 58.8333,52.5 58.5,52.5C 59.8333,49.8333 59.8333,47.1667 58.5,44.5 Z"/></g>
<g><path style="opacity:1" fill="#bac160" d="M 60.5,44.5 C 61.5,44.5 62.5,44.5 63.5,44.5C 63.5,47.1667 63.5,49.8333 63.5,52.5C 62.5,52.5 61.5,52.5 60.5,52.5C 60.5,49.8333 60.5,47.1667 60.5,44.5 Z"/></g>
<g><path style="opacity:1" fill="#2a3023" d="M 39.5,44.5 C 39.8333,44.5 40.1667,44.5 40.5,44.5C 41.1667,44.5 41.5,44.8333 41.5,45.5C 41.5,47.8333 41.5,50.1667 41.5,52.5C 41.1667,52.5 40.8333,52.5 40.5,52.5C 40.1667,52.5 39.8333,52.5 39.5,52.5C 39.5,49.8333 39.5,47.1667 39.5,44.5 Z"/></g>
<g><path style="opacity:1" fill="#c6d4ca" d="M 40.5,52.5 C 40.8333,52.5 41.1667,52.5 41.5,52.5C 42.5,52.8333 43.1667,53.5 43.5,54.5C 42.8333,54.5 42.1667,54.5 41.5,54.5C 41.1667,53.8333 40.8333,53.1667 40.5,52.5 Z"/></g>
<g><path style="opacity:1" fill="#35b72c" d="M 48.5,39.5 C 49.5,39.5 50.5,39.5 51.5,39.5C 53.5,40.5 55.5,41.5 57.5,42.5C 57.3284,43.4916 57.6618,44.1583 58.5,44.5C 59.8333,47.1667 59.8333,49.8333 58.5,52.5C 57.6618,52.8417 57.3284,53.5084 57.5,54.5C 56.3951,55.6005 55.0618,56.2671 53.5,56.5C 52.5313,55.6906 51.6979,54.6906 51,53.5C 50.6667,51.1667 50.3333,48.8333 50,46.5C 49.6667,49.1667 49.3333,51.8333 49,54.5C 48.0053,55.0659 47.172,55.7326 46.5,56.5C 45.5,55.8333 44.5,55.1667 43.5,54.5C 43.1667,53.5 42.5,52.8333 41.5,52.5C 41.5,50.1667 41.5,47.8333 41.5,45.5C 42.4013,44.7095 43.0679,43.7095 43.5,42.5C 45.0009,41.2485 46.6675,40.2485 48.5,39.5 Z"/></g>
<g><path style="opacity:1" fill="#b5dcbe" d="M 52.5,50.5 C 54.1992,50.3398 55.8659,50.5065 57.5,51C 55.4153,53.1391 53.7487,52.9725 52.5,50.5 Z"/></g>
<g><path style="opacity:1" fill="#91d391" d="M 49.5,42.5 C 51.7602,43.2376 51.9269,44.2376 50,45.5C 48.9887,44.6634 47.8221,44.33 46.5,44.5C 46.528,46.5824 45.8613,48.4157 44.5,50C 49.5093,51.2192 49.1759,52.0525 43.5,52.5C 43.8726,49.4261 44.5392,46.4261 45.5,43.5C 47.099,43.7678 48.4324,43.4345 49.5,42.5 Z"/></g>
<g><path style="opacity:1" fill="#c1d3cb" d="M 58.5,52.5 C 58.8333,52.5 59.1667,52.5 59.5,52.5C 59.6716,53.4916 59.3382,54.1583 58.5,54.5C 58.1667,54.5 57.8333,54.5 57.5,54.5C 57.3284,53.5084 57.6618,52.8417 58.5,52.5 Z"/></g>
<g><path style="opacity:1" fill="#2fac1f" d="M 37.5,52.5 C 38.1667,52.5 38.8333,52.5 39.5,52.5C 39.8333,52.5 40.1667,52.5 40.5,52.5C 40.8333,53.1667 41.1667,53.8333 41.5,54.5C 41.5,55.1667 41.5,55.8333 41.5,56.5C 40.4937,56.9377 40.4937,57.6043 41.5,58.5C 36.8775,59.5918 35.0442,57.9252 36,53.5C 36.3826,52.944 36.8826,52.6107 37.5,52.5 Z"/></g>
<g><path style="opacity:1" fill="#2baf1b" d="M 59.5,52.5 C 59.8333,52.5 60.1667,52.5 60.5,52.5C 61.5,52.5 62.5,52.5 63.5,52.5C 65.5936,56.7993 64.2602,58.7993 59.5,58.5C 59.6716,57.5084 59.3382,56.8417 58.5,56.5C 58.5,55.8333 58.5,55.1667 58.5,54.5C 59.3382,54.1583 59.6716,53.4916 59.5,52.5 Z"/></g>
<g><path style="opacity:1" fill="#bed1c8" d="M 53.5,56.5 C 51.9519,56.8212 51.2852,57.8212 51.5,59.5C 50.5,59.5 49.5,59.5 48.5,59.5C 48.7148,57.8212 48.0481,56.8212 46.5,56.5C 47.172,55.7326 48.0053,55.0659 49,54.5C 49.3333,51.8333 49.6667,49.1667 50,46.5C 50.3333,48.8333 50.6667,51.1667 51,53.5C 51.6979,54.6906 52.5313,55.6906 53.5,56.5 Z"/></g>
<g><path style="opacity:1" fill="#1b1d17" d="M 41.5,54.5 C 42.1667,54.5 42.8333,54.5 43.5,54.5C 44.5,55.1667 45.5,55.8333 46.5,56.5C 48.0481,56.8212 48.7148,57.8212 48.5,59.5C 48.1667,59.5 47.8333,59.5 47.5,59.5C 45.8185,57.9925 43.8185,56.9925 41.5,56.5C 41.5,55.8333 41.5,55.1667 41.5,54.5 Z"/></g>
<g><path style="opacity:1" fill="#1c1d18" d="M 57.5,54.5 C 57.8333,54.5 58.1667,54.5 58.5,54.5C 58.5,55.1667 58.5,55.8333 58.5,56.5C 56.5,57.5 54.5,58.5 52.5,59.5C 52.1667,59.5 51.8333,59.5 51.5,59.5C 51.2852,57.8212 51.9519,56.8212 53.5,56.5C 55.0618,56.2671 56.3951,55.6005 57.5,54.5 Z"/></g>
<g><path style="opacity:1" fill="#d7de67" d="M 41.5,56.5 C 43.8185,56.9925 45.8185,57.9925 47.5,59.5C 47.5,60.1667 47.5,60.8333 47.5,61.5C 45.5168,60.5294 43.5168,59.5294 41.5,58.5C 40.4937,57.6043 40.4937,56.9377 41.5,56.5 Z"/></g>
<g><path style="opacity:1" fill="#dee768" d="M 58.5,56.5 C 59.3382,56.8417 59.6716,57.5084 59.5,58.5C 57.5,59.5 55.5,60.5 53.5,61.5C 52.6618,61.1583 52.3284,60.4916 52.5,59.5C 54.5,58.5 56.5,57.5 58.5,56.5 Z"/></g>
<g><path style="opacity:1" fill="#29ae18" d="M 47.5,59.5 C 47.8333,59.5 48.1667,59.5 48.5,59.5C 49.5,59.5 50.5,59.5 51.5,59.5C 51.8333,59.5 52.1667,59.5 52.5,59.5C 52.3284,60.4916 52.6618,61.1583 53.5,61.5C 52.891,64.9656 51.0577,65.9656 48,64.5C 47.5172,63.552 47.3505,62.552 47.5,61.5C 47.5,60.8333 47.5,60.1667 47.5,59.5 Z"/></g>
<g><path style="opacity:1" fill="#63a15d" d="M 67.5,64.5 C 69.0481,64.8212 69.7148,65.8212 69.5,67.5C 66.7524,67.5983 66.0857,66.5983 67.5,64.5 Z"/></g>
<g><path style="opacity:1" fill="#2ea324" d="M 33.5,66.5 C 35.885,65.332 37.885,65.9987 39.5,68.5C 39.0623,69.5063 38.3957,69.5063 37.5,68.5C 36.1667,70.5 34.8333,72.5 33.5,74.5C 33.0145,72.2229 33.6812,70.0563 35.5,68C 34.9558,67.2828 34.2891,66.7828 33.5,66.5 Z"/></g>
<g><path style="opacity:1" fill="#35972c" d="M 57.5,74.5 C 57.0618,74.5654 56.7284,74.3988 56.5,74C 57.1667,73.6667 57.8333,73.3333 58.5,73C 54.2324,72.2832 53.5658,73.4499 56.5,76.5C 57.1067,76.3764 57.44,76.0431 57.5,75.5C 61.4221,76.1174 61.4221,76.7841 57.5,77.5C 53.5251,76.9061 52.5251,74.7395 54.5,71C 58.1288,70.686 61.4621,69.5193 64.5,67.5C 66.7246,68.9462 67.5579,70.9462 67,73.5C 66,72.1667 65,70.8333 64,69.5C 62.7616,71.4347 62.2616,73.4347 62.5,75.5C 61.8333,74.8333 61.1667,74.1667 60.5,73.5C 59.5832,74.1272 58.5832,74.4606 57.5,74.5 Z"/></g>
<g><path style="opacity:1" fill="#329b28" d="M 38.5,70.5 C 43.5251,69.9184 45.1917,71.9184 43.5,76.5C 37.7403,78.2126 36.0736,76.2126 38.5,70.5 Z"/></g>
<g><path style="opacity:1" fill="#090909" d="M 39.5,72.5 C 40.5,72.5 41.5,72.5 42.5,72.5C 42.5,73.5 42.5,74.5 42.5,75.5C 41.5,75.5 40.5,75.5 39.5,75.5C 39.5,74.5 39.5,73.5 39.5,72.5 Z"/></g>
<g><path style="opacity:1" fill="#34612f" d="M 57.5,74.5 C 57.5,74.8333 57.5,75.1667 57.5,75.5C 57.44,76.0431 57.1067,76.3764 56.5,76.5C 53.5658,73.4499 54.2324,72.2832 58.5,73C 57.8333,73.3333 57.1667,73.6667 56.5,74C 56.7284,74.3988 57.0618,74.5654 57.5,74.5 Z"/></g>
<g><path style="opacity:1" fill="#359e2c" d="M 45.5,68.5 C 47.1644,69.9488 47.9977,71.9488 48,74.5C 48.8373,72.9926 50.0039,72.4926 51.5,73C 51.1667,73.3333 50.8333,73.6667 50.5,74C 52.497,75.1531 52.8304,76.6531 51.5,78.5C 50.6143,77.675 50.281,76.675 50.5,75.5C 49.5,75.5 48.5,75.5 47.5,75.5C 47.719,76.675 47.3857,77.675 46.5,78.5C 45.513,75.2317 45.1796,71.8984 45.5,68.5 Z"/></g>
</svg>
