<?xml version="1.0" encoding="UTF-8"?>
<!DOCTYPE svg PUBLIC "-//W3C//DTD SVG 1.1//EN" "http://www.w3.org/Graphics/SVG/1.1/DTD/svg11.dtd">
<svg xmlns="http://www.w3.org/2000/svg" version="1.1" width="250px" height="250px" style="shape-rendering:geometricPrecision; text-rendering:geometricPrecision; image-rendering:optimizeQuality; fill-rule:evenodd; clip-rule:evenodd" xmlns:xlink="http://www.w3.org/1999/xlink">
<g><path style="opacity:1" fill="#252321" d="M -0.5,-0.5 C 82.8333,-0.5 166.167,-0.5 249.5,-0.5C 249.5,82.8333 249.5,166.167 249.5,249.5C 166.167,249.5 82.8333,249.5 -0.5,249.5C -0.5,166.167 -0.5,82.8333 -0.5,-0.5 Z"/></g>
<g><path style="opacity:1" fill="#4c1a1a" d="M 172.5,43.5 C 167.907,40.7983 163.074,38.465 158,36.5C 156.234,35.7665 154.401,35.4332 152.5,35.5C 151.833,35.5 151.167,35.5 150.5,35.5C 149.158,34.207 147.491,33.3736 145.5,33C 141.83,32.4518 138.163,31.9518 134.5,31.5C 126.833,31.5 119.167,31.5 111.5,31.5C 111.97,30.3065 112.97,29.6399 114.5,29.5C 124.213,28.1916 133.879,28.525 143.5,30.5C 151.592,32.4993 159.592,34.9993 167.5,38C 169.715,39.3792 171.381,41.2125 172.5,43.5 Z"/></g>
<g><path style="opacity:1" fill="#fb0101" d="M 143.5,34.5 C 145.806,34.9926 148.139,35.3259 150.5,35.5C 151.167,35.5 151.833,35.5 152.5,35.5C 156.182,38.6746 160.515,40.8412 165.5,42C 167.261,46.5786 170.594,48.412 175.5,47.5C 174.878,52.0318 176.878,54.1985 181.5,54C 183.037,55.1096 183.703,56.6096 183.5,58.5C 187.395,59.3931 190.062,61.7264 191.5,65.5C 191.351,66.552 191.517,67.552 192,68.5C 198.274,76.3332 202.107,85.3332 203.5,95.5C 204.5,95.5 205.5,95.5 206.5,95.5C 206.918,98.7649 208.085,101.765 210,104.5C 210.784,118.195 210.451,131.862 209,145.5C 205.547,152.424 203.213,159.757 202,167.5C 201.047,169.455 199.713,171.122 198,172.5C 197.517,173.448 197.351,174.448 197.5,175.5C 196.181,178.348 194.181,180.681 191.5,182.5C 189.821,182.892 188.154,183.392 186.5,184C 183.689,189.818 179.355,193.818 173.5,196C 172.624,197.586 171.624,199.086 170.5,200.5C 166.171,201.174 163.504,203.507 162.5,207.5C 154.714,210.41 146.714,212.577 138.5,214C 137.944,214.383 137.611,214.883 137.5,215.5C 128.918,217.078 120.251,217.745 111.5,217.5C 108.687,216.918 106.02,215.918 103.5,214.5C 103.423,213.25 102.756,212.417 101.5,212C 98.4465,211.821 95.4465,211.321 92.5,210.5C 93.09,209.201 94.09,208.368 95.5,208C 92.189,208.215 88.8557,208.215 85.5,208C 82.7645,205.139 79.4312,203.305 75.5,202.5C 73.1137,201.627 71.1137,200.127 69.5,198C 67.6547,196.872 65.6547,196.372 63.5,196.5C 63.5,196.167 63.5,195.833 63.5,195.5C 61.8278,194.13 60.1612,192.797 58.5,191.5C 56.5472,187.88 53.8805,184.88 50.5,182.5C 49.5491,179.898 48.2158,177.565 46.5,175.5C 45.79,171.386 44.4567,167.386 42.5,163.5C 41.675,162.614 40.675,162.281 39.5,162.5C 38.8333,161.5 38.1667,160.5 37.5,159.5C 37.4828,157.435 37.1495,155.435 36.5,153.5C 33.2538,136.967 32.7538,120.3 35,103.5C 35.3076,102.692 35.8076,102.025 36.5,101.5C 37.1667,102.833 37.8333,104.167 38.5,105.5C 38.8333,105 39.1667,104.5 39.5,104C 36.5307,99.0646 37.0307,94.5646 41,90.5C 41.236,86.6609 42.0693,82.9942 43.5,79.5C 44.1667,78.5 44.8333,77.5 45.5,76.5C 46.7079,75.7659 48.0413,75.4326 49.5,75.5C 49.5,76.8333 49.5,78.1667 49.5,79.5C 50.5,79.5 51.5,79.5 52.5,79.5C 52.4208,78.0695 52.7542,76.7362 53.5,75.5C 49.5,73.1667 49.5,70.8333 53.5,68.5C 54.3857,69.325 54.719,70.325 54.5,71.5C 55.8333,71.5 57.1667,71.5 58.5,71.5C 58.6795,73.9541 58.0128,76.1208 56.5,78C 56.8333,78.5 57.1667,79 57.5,79.5C 59.1184,77.684 61.1184,76.3507 63.5,75.5C 62.1287,73.1433 60.7954,70.81 59.5,68.5C 61.294,66.3223 63.294,64.1556 65.5,62C 65.3552,61.228 65.0219,60.5613 64.5,60C 67.1222,59.0774 69.6222,57.9107 72,56.5C 72.6144,54.6866 72.2811,54.3533 71,55.5C 70.2211,53.0937 71.0544,51.427 73.5,50.5C 74.1667,51.5 74.8333,52.5 75.5,53.5C 76.7362,52.7542 78.0695,52.4208 79.5,52.5C 79.5,51.5 79.5,50.5 79.5,49.5C 78.0222,49.762 76.6888,49.4287 75.5,48.5C 77.9943,45.9696 80.6609,43.9696 83.5,42.5C 83.5,41.8333 83.5,41.1667 83.5,40.5C 84.1667,40.5 84.8333,40.5 85.5,40.5C 92.8586,39.1752 99.8586,37.0085 106.5,34C 113.679,33.6562 120.845,33.1562 128,32.5C 133.068,33.8627 138.234,34.5293 143.5,34.5 Z"/></g>
<g><path style="opacity:1" fill="#ba292b" d="M 134.5,31.5 C 138.163,31.9518 141.83,32.4518 145.5,33C 147.491,33.3736 149.158,34.207 150.5,35.5C 148.139,35.3259 145.806,34.9926 143.5,34.5C 140.353,33.9544 137.353,32.9544 134.5,31.5 Z"/></g>
<g><path style="opacity:1" fill="#6a0f10" d="M 111.5,31.5 C 105.043,33.5321 98.376,35.1988 91.5,36.5C 91.6107,35.8826 91.944,35.3826 92.5,35C 96.3767,34.7435 100.043,33.7435 103.5,32C 106.146,31.5026 108.813,31.3359 111.5,31.5 Z"/></g>
<g><path style="opacity:1" fill="#ce1315" d="M 111.5,31.5 C 119.167,31.5 126.833,31.5 134.5,31.5C 137.353,32.9544 140.353,33.9544 143.5,34.5C 138.234,34.5293 133.068,33.8627 128,32.5C 120.845,33.1562 113.679,33.6562 106.5,34C 99.8586,37.0085 92.8586,39.1752 85.5,40.5C 86.5903,39.1429 87.9236,38.1429 89.5,37.5C 89.8417,36.6618 90.5084,36.3284 91.5,36.5C 98.376,35.1988 105.043,33.5321 111.5,31.5 Z"/></g>
<g><path style="opacity:1" fill="#6f0f15" d="M 89.5,37.5 C 87.9236,38.1429 86.5903,39.1429 85.5,40.5C 84.8333,40.5 84.1667,40.5 83.5,40.5C 84.6874,38.0246 86.6874,37.0246 89.5,37.5 Z"/></g>
<g><path style="opacity:1" fill="#bd292b" d="M 152.5,35.5 C 154.401,35.4332 156.234,35.7665 158,36.5C 163.074,38.465 167.907,40.7983 172.5,43.5C 173.789,44.6366 174.789,45.9699 175.5,47.5C 170.594,48.412 167.261,46.5786 165.5,42C 160.515,40.8412 156.182,38.6746 152.5,35.5 Z"/></g>
<g><path style="opacity:1" fill="#941515" d="M 83.5,40.5 C 83.5,41.1667 83.5,41.8333 83.5,42.5C 82.1667,42.5 80.8333,42.5 79.5,42.5C 79.5,42.1667 79.5,41.8333 79.5,41.5C 80.5676,40.5655 81.901,40.2322 83.5,40.5 Z"/></g>
<g><path style="opacity:1" fill="#5c1412" d="M 79.5,41.5 C 79.5,41.8333 79.5,42.1667 79.5,42.5C 77.178,44.664 74.5113,46.3307 71.5,47.5C 71.1667,47.5 70.8333,47.5 70.5,47.5C 71.5676,45.2598 73.2342,43.4264 75.5,42C 76.7932,41.51 78.1266,41.3433 79.5,41.5 Z"/></g>
<g><path style="opacity:1" fill="#5c1e22" d="M 172.5,43.5 C 174.591,43.3184 176.591,43.6518 178.5,44.5C 179.386,45.325 179.719,46.325 179.5,47.5C 179.167,47.5 178.833,47.5 178.5,47.5C 177.5,47.5 176.5,47.5 175.5,47.5C 174.789,45.9699 173.789,44.6366 172.5,43.5 Z"/></g>
<g><path style="opacity:1" fill="#9e1618" d="M 70.5,47.5 C 70.8333,47.5 71.1667,47.5 71.5,47.5C 69.6562,50.6872 66.9895,52.6872 63.5,53.5C 63.5,53.1667 63.5,52.8333 63.5,52.5C 66.0934,51.2464 68.4268,49.5798 70.5,47.5 Z"/></g>
<g><path style="opacity:1" fill="#3b1d1a" d="M 179.5,47.5 C 184.585,49.8775 189.585,52.5441 194.5,55.5C 195.578,58.2069 196.578,60.8736 197.5,63.5C 191.797,57.7954 185.797,52.4621 179.5,47.5 Z"/></g>
<g><path style="opacity:1" fill="#d41d21" d="M 175.5,47.5 C 176.5,47.5 177.5,47.5 178.5,47.5C 178.351,48.552 178.517,49.552 179,50.5C 183.688,54.6886 188.521,58.6886 193.5,62.5C 194.889,64.8676 196.222,67.2009 197.5,69.5C 195.754,67.7484 193.754,66.4151 191.5,65.5C 190.062,61.7264 187.395,59.3931 183.5,58.5C 183.703,56.6096 183.037,55.1096 181.5,54C 176.878,54.1985 174.878,52.0318 175.5,47.5 Z"/></g>
<g><path style="opacity:1" fill="#4f1310" d="M 63.5,52.5 C 63.5,52.8333 63.5,53.1667 63.5,53.5C 63.5,53.8333 63.5,54.1667 63.5,54.5C 59.5278,56.4722 56.5278,59.4722 54.5,63.5C 54.1667,63.5 53.8333,63.5 53.5,63.5C 53.3505,62.448 53.5172,61.448 54,60.5C 56.4054,58.597 58.2388,56.2637 59.5,53.5C 60.6888,52.5713 62.0222,52.238 63.5,52.5 Z"/></g>
<g><path style="opacity:1" fill="#a71816" d="M 63.5,54.5 C 60.8499,57.8168 57.8499,60.8168 54.5,63.5C 56.5278,59.4722 59.5278,56.4722 63.5,54.5 Z"/></g>
<g><path style="opacity:1" fill="#f10605" d="M 79.5,42.5 C 80.8333,42.5 82.1667,42.5 83.5,42.5C 80.6609,43.9696 77.9943,45.9696 75.5,48.5C 76.6888,49.4287 78.0222,49.762 79.5,49.5C 79.5,50.5 79.5,51.5 79.5,52.5C 78.0695,52.4208 76.7362,52.7542 75.5,53.5C 74.8333,52.5 74.1667,51.5 73.5,50.5C 71.0544,51.427 70.2211,53.0937 71,55.5C 72.2811,54.3533 72.6144,54.6866 72,56.5C 69.6222,57.9107 67.1222,59.0774 64.5,60C 65.0219,60.5613 65.3552,61.228 65.5,62C 63.294,64.1556 61.294,66.3223 59.5,68.5C 60.7954,70.81 62.1287,73.1433 63.5,75.5C 61.1184,76.3507 59.1184,77.684 57.5,79.5C 57.1667,79 56.8333,78.5 56.5,78C 58.0128,76.1208 58.6795,73.9541 58.5,71.5C 57.1667,71.5 55.8333,71.5 54.5,71.5C 54.719,70.325 54.3857,69.325 53.5,68.5C 49.5,70.8333 49.5,73.1667 53.5,75.5C 52.7542,76.7362 52.4208,78.0695 52.5,79.5C 51.5,79.5 50.5,79.5 49.5,79.5C 49.5,78.1667 49.5,76.8333 49.5,75.5C 48.0413,75.4326 46.7079,75.7659 45.5,76.5C 46.6076,72.8689 48.7742,69.8689 52,67.5C 52.7914,66.255 53.2914,64.9217 53.5,63.5C 53.8333,63.5 54.1667,63.5 54.5,63.5C 57.8499,60.8168 60.8499,57.8168 63.5,54.5C 63.5,54.1667 63.5,53.8333 63.5,53.5C 66.9895,52.6872 69.6562,50.6872 71.5,47.5C 74.5113,46.3307 77.178,44.664 79.5,42.5 Z"/></g>
<g><path style="opacity:1" fill="#3d1919" d="M 51.5,65.5 C 49.1395,68.5272 46.4729,71.1938 43.5,73.5C 43.3505,72.448 43.5172,71.448 44,70.5C 46.1281,68.1929 48.6281,66.5262 51.5,65.5 Z"/></g>
<g><path style="opacity:1" fill="#741312" d="M 53.5,63.5 C 53.2914,64.9217 52.7914,66.255 52,67.5C 48.7742,69.8689 46.6076,72.8689 45.5,76.5C 44.8333,77.5 44.1667,78.5 43.5,79.5C 43.1667,79.5 42.8333,79.5 42.5,79.5C 42.3253,77.3792 42.6586,75.3792 43.5,73.5C 46.4729,71.1938 49.1395,68.5272 51.5,65.5C 51.5,64.1667 52.1667,63.5 53.5,63.5 Z"/></g>
<g><path style="opacity:1" fill="#692225" d="M 197.5,63.5 C 199.417,64.9093 201.25,66.576 203,68.5C 204.843,72.1127 206.343,75.7794 207.5,79.5C 206.542,79.0472 205.708,78.3805 205,77.5C 203.54,75.028 202.54,72.3613 202,69.5C 199.873,67.8863 198.373,65.8863 197.5,63.5 Z"/></g>
<g><path style="opacity:1" fill="#bc3937" d="M 81.5,84.5 C 83.3236,87.8462 83.9903,91.5128 83.5,95.5C 108.833,95.5 134.167,95.5 159.5,95.5C 134.003,96.6634 108.337,96.8301 82.5,96C 81.7476,95.3292 81.4142,94.4959 81.5,93.5C 81.5,91.1667 81.5,88.8333 81.5,86.5C 76.8333,86.5 72.1667,86.5 67.5,86.5C 67.5,86.1667 67.5,85.8333 67.5,85.5C 71.97,84.5139 76.6367,84.1805 81.5,84.5 Z"/></g>
<g><path style="opacity:1" fill="#fdcaca" d="M 177.5,87.5 C 177.5,92.8333 177.5,98.1667 177.5,103.5C 176.518,100.038 176.185,96.3714 176.5,92.5C 176.5,90.8333 176.5,89.1667 176.5,87.5C 172.5,87.5 168.5,87.5 164.5,87.5C 165.036,90.6981 164.369,93.3647 162.5,95.5C 163.299,92.5701 163.632,89.5701 163.5,86.5C 168.363,86.1805 173.03,86.5139 177.5,87.5 Z"/></g>
<g><path style="opacity:1" fill="#831115" d="M 40.5,83.5 C 39.5904,87.9169 37.9238,91.9169 35.5,95.5C 35.5589,91.9541 36.3923,88.6208 38,85.5C 38.7083,84.6195 39.5416,83.9528 40.5,83.5 Z"/></g>
<g><path style="opacity:1" fill="#481513" d="M 41.5,79.5 C 41.1667,80.8333 40.8333,82.1667 40.5,83.5C 39.5416,83.9528 38.7083,84.6195 38,85.5C 36.3923,88.6208 35.5589,91.9541 35.5,95.5C 34.377,99.5819 33.0437,103.582 31.5,107.5C 32.5248,101.873 33.3581,96.2065 34,90.5C 35.579,86.108 38.079,82.4413 41.5,79.5 Z"/></g>
<g><path style="opacity:1" fill="#f00505" d="M 160.5,92.5 C 159.89,93.391 159.557,94.391 159.5,95.5C 134.167,95.5 108.833,95.5 83.5,95.5C 83.9903,91.5128 83.3236,87.8462 81.5,84.5C 82.8734,84.3433 84.2068,84.51 85.5,85C 84.7203,86.073 84.887,87.2396 86,88.5C 86.3333,87.5 86.6667,86.5 87,85.5C 89.5032,86.5504 91.0032,85.5504 91.5,82.5C 90.1285,80.3802 90.7952,79.3802 93.5,79.5C 93.6641,82.1873 93.4974,84.854 93,87.5C 91.6439,88.3802 90.1439,88.7135 88.5,88.5C 88.6509,91.7181 89.4842,92.0515 91,89.5C 91.5,90.6667 92.3333,91.5 93.5,92C 115.831,92.5 138.164,92.6666 160.5,92.5 Z"/></g>
<g><path style="opacity:1" fill="#e70e0f" d="M 191.5,65.5 C 193.754,66.4151 195.754,67.7484 197.5,69.5C 199.898,72.5712 201.898,75.9046 203.5,79.5C 206.101,87.3266 208.601,95.3266 211,103.5C 213.054,120.213 212.72,136.879 210,153.5C 206.09,159.322 203.257,165.656 201.5,172.5C 200.167,173.5 198.833,174.5 197.5,175.5C 197.351,174.448 197.517,173.448 198,172.5C 199.713,171.122 201.047,169.455 202,167.5C 203.213,159.757 205.547,152.424 209,145.5C 210.451,131.862 210.784,118.195 210,104.5C 208.085,101.765 206.918,98.7649 206.5,95.5C 205.5,95.5 204.5,95.5 203.5,95.5C 202.107,85.3332 198.274,76.3332 192,68.5C 191.517,67.552 191.351,66.552 191.5,65.5 Z"/></g>
<g><path style="opacity:1" fill="#d03538" d="M 67.5,86.5 C 67.5,92.1667 67.5,97.8333 67.5,103.5C 62.1667,103.5 56.8333,103.5 51.5,103.5C 56.3054,102.513 61.3054,102.179 66.5,102.5C 66.1786,96.9738 66.5119,91.6405 67.5,86.5 Z"/></g>
<g><path style="opacity:1" fill="#f2f0f0" d="M 80.5,93.5 C 80.4606,94.5832 80.1272,95.5832 79.5,96.5C 80.7287,97.2811 82.062,97.7811 83.5,98C 108.831,98.5 134.164,98.6666 159.5,98.5C 159.5,99.5 159.5,100.5 159.5,101.5C 161.903,101.607 163.736,100.607 165,98.5C 165.498,95.1832 165.665,91.8499 165.5,88.5C 168.833,88.5 172.167,88.5 175.5,88.5C 175.232,90.099 175.566,91.4324 176.5,92.5C 176.185,96.3714 176.518,100.038 177.5,103.5C 182.64,104.488 187.974,104.821 193.5,104.5C 193.5,108.5 193.5,112.5 193.5,116.5C 188.305,116.179 183.305,116.513 178.5,117.5C 178.5,118.833 178.5,120.167 178.5,121.5C 183.695,121.179 188.695,121.513 193.5,122.5C 193.5,126.167 193.5,129.833 193.5,133.5C 187.548,134.248 181.548,134.748 175.5,135C 174.291,138.324 172.957,141.491 171.5,144.5C 171.573,146.027 170.906,147.027 169.5,147.5C 167.153,148.684 165.153,150.351 163.5,152.5C 160.023,153.74 156.689,155.24 153.5,157C 147.825,157.366 142.159,157.2 136.5,156.5C 132.985,155.58 129.985,153.913 127.5,151.5C 127.5,151.167 127.5,150.833 127.5,150.5C 126.5,149.167 125.5,147.833 124.5,146.5C 123.63,144.401 122.297,144.068 120.5,145.5C 119.756,146.991 119.09,148.491 118.5,150C 108.758,156.015 98.0909,158.181 86.5,156.5C 84.1495,155.139 81.8162,153.806 79.5,152.5C 79.5,152.167 79.5,151.833 79.5,151.5C 77.0551,149.07 75.0551,146.404 73.5,143.5C 72.6766,140.539 72.01,137.539 71.5,134.5C 65.4908,134.666 59.4908,134.499 53.5,134C 52.5399,130.27 52.2065,126.437 52.5,122.5C 57.6946,122.821 62.6946,122.487 67.5,121.5C 67.5,120.167 67.5,118.833 67.5,117.5C 62.5,117.5 57.5,117.5 52.5,117.5C 51.8333,117.5 51.5,117.167 51.5,116.5C 51.5,112.5 51.5,108.5 51.5,104.5C 57.0262,104.821 62.3595,104.488 67.5,103.5C 68.4881,98.3595 68.8214,93.0262 68.5,87.5C 72.1817,87.3347 75.8484,87.5014 79.5,88C 80.4061,89.6995 80.7394,91.5328 80.5,93.5 Z"/></g>
<g><path style="opacity:1" fill="#fcc1bc" d="M 67.5,86.5 C 72.1667,86.5 76.8333,86.5 81.5,86.5C 81.5,88.8333 81.5,91.1667 81.5,93.5C 81.1667,93.5 80.8333,93.5 80.5,93.5C 80.7394,91.5328 80.4061,89.6995 79.5,88C 75.8484,87.5014 72.1817,87.3347 68.5,87.5C 68.8214,93.0262 68.4881,98.3595 67.5,103.5C 67.5,97.8333 67.5,92.1667 67.5,86.5 Z"/></g>
<g><path style="opacity:1" fill="#fee0df" d="M 176.5,92.5 C 175.566,91.4324 175.232,90.099 175.5,88.5C 172.167,88.5 168.833,88.5 165.5,88.5C 165.665,91.8499 165.498,95.1832 165,98.5C 163.736,100.607 161.903,101.607 159.5,101.5C 159.5,100.5 159.5,99.5 159.5,98.5C 134.164,98.6666 108.831,98.5 83.5,98C 82.062,97.7811 80.7287,97.2811 79.5,96.5C 80.1272,95.5832 80.4606,94.5832 80.5,93.5C 80.8333,93.5 81.1667,93.5 81.5,93.5C 81.4142,94.4959 81.7476,95.3292 82.5,96C 108.337,96.8301 134.003,96.6634 159.5,95.5C 160.5,95.5 161.5,95.5 162.5,95.5C 164.369,93.3647 165.036,90.6981 164.5,87.5C 168.5,87.5 172.5,87.5 176.5,87.5C 176.5,89.1667 176.5,90.8333 176.5,92.5 Z"/></g>
<g><path style="opacity:1" fill="#d80f0f" d="M 41.5,79.5 C 41.8333,79.5 42.1667,79.5 42.5,79.5C 42.8333,79.5 43.1667,79.5 43.5,79.5C 42.0693,82.9942 41.236,86.6609 41,90.5C 37.0307,94.5646 36.5307,99.0646 39.5,104C 39.1667,104.5 38.8333,105 38.5,105.5C 37.8333,104.167 37.1667,102.833 36.5,101.5C 35.8076,102.025 35.3076,102.692 35,103.5C 32.7538,120.3 33.2538,136.967 36.5,153.5C 36.1667,153.5 35.8333,153.5 35.5,153.5C 35.7406,151.102 35.0739,149.102 33.5,147.5C 33.8432,145.517 33.1765,144.183 31.5,143.5C 31.5,141.833 31.5,140.167 31.5,138.5C 31.5,129.5 31.5,120.5 31.5,111.5C 31.5,110.167 31.5,108.833 31.5,107.5C 33.0437,103.582 34.377,99.5819 35.5,95.5C 37.9238,91.9169 39.5904,87.9169 40.5,83.5C 40.8333,82.1667 41.1667,80.8333 41.5,79.5 Z"/></g>
<g><path style="opacity:1" fill="#de0e0e" d="M 67.5,85.5 C 67.5,85.8333 67.5,86.1667 67.5,86.5C 66.5119,91.6405 66.1786,96.9738 66.5,102.5C 61.3054,102.179 56.3054,102.513 51.5,103.5C 50.1667,107.833 50.1667,112.167 51.5,116.5C 51.5,117.167 51.8333,117.5 52.5,117.5C 52.5,118.167 52.8333,118.5 53.5,118.5C 53.6107,119.117 53.944,119.617 54.5,120C 53.5842,120.278 52.9175,120.778 52.5,121.5C 51.5084,121.328 50.8417,121.662 50.5,122.5C 49.5151,126.634 49.1818,130.968 49.5,135.5C 48.3516,131.019 48.1849,126.352 49,121.5C 51.0476,119.494 50.5476,118.494 47.5,118.5C 48.1643,113.532 48.6643,108.532 49,103.5C 49.5,103 50,102.5 50.5,102C 55.4889,101.501 60.4889,101.334 65.5,101.5C 64.8872,95.7291 65.5539,90.3958 67.5,85.5 Z"/></g>
<g><path style="opacity:1" fill="#ba1d1a" d="M 193.5,103.5 C 188.5,103.5 183.5,103.5 178.5,103.5C 178.821,97.9738 178.488,92.6405 177.5,87.5C 173.03,86.5139 168.363,86.1805 163.5,86.5C 163.632,89.5701 163.299,92.5701 162.5,95.5C 161.5,95.5 160.5,95.5 159.5,95.5C 159.557,94.391 159.89,93.391 160.5,92.5C 161.21,90.1073 161.877,87.6073 162.5,85C 167.5,84.3333 172.5,84.3333 177.5,85C 178.578,85.6739 179.245,86.6739 179.5,88C 180.18,92.477 180.68,96.977 181,101.5C 185.268,102.14 189.435,102.807 193.5,103.5 Z"/></g>
<g><path style="opacity:1" fill="#f19191" d="M 51.5,103.5 C 56.8333,103.5 62.1667,103.5 67.5,103.5C 62.3595,104.488 57.0262,104.821 51.5,104.5C 51.5,108.5 51.5,112.5 51.5,116.5C 50.1667,112.167 50.1667,107.833 51.5,103.5 Z"/></g>
<g><path style="opacity:1" fill="#de8382" d="M 177.5,87.5 C 178.488,92.6405 178.821,97.9738 178.5,103.5C 183.5,103.5 188.5,103.5 193.5,103.5C 193.5,103.833 193.5,104.167 193.5,104.5C 187.974,104.821 182.64,104.488 177.5,103.5C 177.5,98.1667 177.5,92.8333 177.5,87.5 Z"/></g>
<g><path style="opacity:1" fill="#9e2e33" d="M 178.5,47.5 C 178.833,47.5 179.167,47.5 179.5,47.5C 185.797,52.4621 191.797,57.7954 197.5,63.5C 198.373,65.8863 199.873,67.8863 202,69.5C 202.54,72.3613 203.54,75.028 205,77.5C 205.708,78.3805 206.542,79.0472 207.5,79.5C 209.258,81.1407 210.758,83.1407 212,85.5C 213.044,90.6839 214.544,95.6839 216.5,100.5C 217.114,104.135 217.448,107.802 217.5,111.5C 214.249,103.521 211.749,95.1874 210,86.5C 207.57,84.2437 205.404,81.9103 203.5,79.5C 201.898,75.9046 199.898,72.5712 197.5,69.5C 196.222,67.2009 194.889,64.8676 193.5,62.5C 188.521,58.6886 183.688,54.6886 179,50.5C 178.517,49.552 178.351,48.552 178.5,47.5 Z"/></g>
<g><path style="opacity:1" fill="#f0b8b7" d="M 193.5,104.5 C 194.167,104.5 194.5,104.833 194.5,105.5C 194.5,109.5 194.5,113.5 194.5,117.5C 189.167,117.5 183.833,117.5 178.5,117.5C 183.305,116.513 188.305,116.179 193.5,116.5C 193.5,112.5 193.5,108.5 193.5,104.5 Z"/></g>
<g><path style="opacity:1" fill="#a34a4b" d="M 52.5,117.5 C 57.5,117.5 62.5,117.5 67.5,117.5C 67.5,118.833 67.5,120.167 67.5,121.5C 67.1667,121.5 66.8333,121.5 66.5,121.5C 66.5,120.5 66.5,119.5 66.5,118.5C 62.1667,118.5 57.8333,118.5 53.5,118.5C 52.8333,118.5 52.5,118.167 52.5,117.5 Z"/></g>
<g><path style="opacity:1" fill="#d99b9b" d="M 157.5,118.5 C 149.833,118.5 142.167,118.5 134.5,118.5C 134.5,119.833 134.5,121.167 134.5,122.5C 133.549,121.081 133.216,119.415 133.5,117.5C 141.684,117.174 149.684,117.508 157.5,118.5 Z"/></g>
<g><path style="opacity:1" fill="#8f2e2d" d="M 111.5,118.5 C 111.279,121.067 110.612,123.401 109.5,125.5C 109.5,123.5 109.5,121.5 109.5,119.5C 103.158,119.334 96.8246,119.5 90.5,120C 88.8446,121.444 88.178,123.278 88.5,125.5C 87.5318,123.393 87.1984,121.059 87.5,118.5C 95.5,118.5 103.5,118.5 111.5,118.5 Z"/></g>
<g><path style="opacity:1" fill="#852325" d="M 157.5,118.5 C 157.784,120.415 157.451,122.081 156.5,123.5C 156.67,122.178 156.337,121.011 155.5,120C 148.842,119.5 142.175,119.334 135.5,119.5C 135.5,121.5 135.5,123.5 135.5,125.5C 134.596,124.791 134.263,123.791 134.5,122.5C 134.5,121.167 134.5,119.833 134.5,118.5C 142.167,118.5 149.833,118.5 157.5,118.5 Z"/></g>
<g><path style="opacity:1" fill="#9c1111" d="M 109.5,125.5 C 109.672,126.492 109.338,127.158 108.5,127.5C 108.5,125.833 108.5,124.167 108.5,122.5C 106.085,121.186 103.252,120.519 100,120.5C 97.1667,120.667 94.3333,120.833 91.5,121C 89.771,122.789 89.1043,124.956 89.5,127.5C 88.6618,127.158 88.3284,126.492 88.5,125.5C 88.178,123.278 88.8446,121.444 90.5,120C 96.8246,119.5 103.158,119.334 109.5,119.5C 109.5,121.5 109.5,123.5 109.5,125.5 Z"/></g>
<g><path style="opacity:1" fill="#a13433" d="M 217.5,111.5 C 218.166,115.82 218.499,120.32 218.5,125C 218.711,131.414 218.045,137.581 216.5,143.5C 217.238,132.85 217.572,122.183 217.5,111.5 Z"/></g>
<g><path style="opacity:1" fill="#861012" d="M 53.5,118.5 C 57.8333,118.5 62.1667,118.5 66.5,118.5C 66.5,119.5 66.5,120.5 66.5,121.5C 61.8333,121.5 57.1667,121.5 52.5,121.5C 52.9175,120.778 53.5842,120.278 54.5,120C 53.944,119.617 53.6107,119.117 53.5,118.5 Z"/></g>
<g><path style="opacity:1" fill="#b21816" d="M 156.5,123.5 C 156.768,125.099 156.434,126.432 155.5,127.5C 155.5,125.5 155.5,123.5 155.5,121.5C 149.5,121.5 143.5,121.5 137.5,121.5C 136.616,125.49 137.949,128.323 141.5,130C 146.258,131.034 150.591,130.201 154.5,127.5C 154.426,129.411 153.426,130.578 151.5,131C 148.274,132.199 144.941,132.699 141.5,132.5C 138.092,131.422 136.092,129.089 135.5,125.5C 135.5,123.5 135.5,121.5 135.5,119.5C 142.175,119.334 148.842,119.5 155.5,120C 156.337,121.011 156.67,122.178 156.5,123.5 Z"/></g>
<g><path style="opacity:1" fill="#b60504" d="M 108.5,122.5 C 102.824,122.334 97.1569,122.501 91.5,123C 90.2475,124.828 90.2475,126.661 91.5,128.5C 90.8333,128.5 90.1667,128.5 89.5,128.5C 89.5,128.167 89.5,127.833 89.5,127.5C 89.1043,124.956 89.771,122.789 91.5,121C 94.3333,120.833 97.1667,120.667 100,120.5C 103.252,120.519 106.085,121.186 108.5,122.5 Z"/></g>
<g><path style="opacity:1" fill="#3c1915" d="M 29.5,116.5 C 29.3339,122.176 29.5006,127.843 30,133.5C 30.1981,135.382 30.6981,137.048 31.5,138.5C 31.5,140.167 31.5,141.833 31.5,143.5C 29.8356,142.051 29.0023,140.051 29,137.5C 28.1787,130.321 28.3454,123.321 29.5,116.5 Z"/></g>
<g><path style="opacity:1" fill="#ee0607" d="M 155.5,127.5 C 155.167,127.5 154.833,127.5 154.5,127.5C 150.591,130.201 146.258,131.034 141.5,130C 137.949,128.323 136.616,125.49 137.5,121.5C 143.5,121.5 149.5,121.5 155.5,121.5C 155.5,123.5 155.5,125.5 155.5,127.5 Z"/></g>
<g><path style="opacity:1" fill="#ee0707" d="M 108.5,122.5 C 108.5,124.167 108.5,125.833 108.5,127.5C 108.167,127.5 107.833,127.5 107.5,127.5C 102.474,131.123 97.1404,131.457 91.5,128.5C 90.2475,126.661 90.2475,124.828 91.5,123C 97.1569,122.501 102.824,122.334 108.5,122.5 Z"/></g>
<g><path style="opacity:1" fill="#de7e7b" d="M 52.5,121.5 C 57.1667,121.5 61.8333,121.5 66.5,121.5C 66.8333,121.5 67.1667,121.5 67.5,121.5C 62.6946,122.487 57.6946,122.821 52.5,122.5C 51.5166,126.298 51.1832,130.298 51.5,134.5C 50.5166,130.702 50.1832,126.702 50.5,122.5C 50.8417,121.662 51.5084,121.328 52.5,121.5 Z"/></g>
<g><path style="opacity:1" fill="#ecc0be" d="M 111.5,118.5 C 103.5,118.5 95.5,118.5 87.5,118.5C 87.1984,121.059 87.5318,123.393 88.5,125.5C 88.3284,126.492 88.6618,127.158 89.5,127.5C 89.5,127.833 89.5,128.167 89.5,128.5C 89.5,128.833 89.5,129.167 89.5,129.5C 88.603,128.402 87.7697,128.402 87,129.5C 86.501,125.179 86.3343,120.846 86.5,116.5C 94.1739,116.334 101.841,116.5 109.5,117C 110.416,117.278 111.082,117.778 111.5,118.5 Z"/></g>
<g><path style="opacity:1" fill="#c7242b" d="M 203.5,79.5 C 205.404,81.9103 207.57,84.2437 210,86.5C 211.749,95.1874 214.249,103.521 217.5,111.5C 217.572,122.183 217.238,132.85 216.5,143.5C 212.768,150.67 209.768,158.337 207.5,166.5C 207.5,167.5 207.5,168.5 207.5,169.5C 205.517,170.471 203.517,171.471 201.5,172.5C 203.257,165.656 206.09,159.322 210,153.5C 212.72,136.879 213.054,120.213 211,103.5C 208.601,95.3266 206.101,87.3266 203.5,79.5 Z"/></g>
<g><path style="opacity:1" fill="#facac7" d="M 157.5,118.5 C 158.947,119.134 159.613,120.301 159.5,122C 158.252,124.893 157.252,127.893 156.5,131C 151.521,133.358 146.521,133.858 141.5,132.5C 144.941,132.699 148.274,132.199 151.5,131C 153.426,130.578 154.426,129.411 154.5,127.5C 154.833,127.5 155.167,127.5 155.5,127.5C 156.434,126.432 156.768,125.099 156.5,123.5C 157.451,122.081 157.784,120.415 157.5,118.5 Z"/></g>
<g><path style="opacity:1" fill="#5f1216" d="M 31.5,111.5 C 31.5,120.5 31.5,129.5 31.5,138.5C 30.6981,137.048 30.1981,135.382 30,133.5C 29.5006,127.843 29.3339,122.176 29.5,116.5C 29.0773,114.219 29.744,112.552 31.5,111.5 Z"/></g>
<g><path style="opacity:1" fill="#c71619" d="M 107.5,127.5 C 107.106,129.71 105.773,131.043 103.5,131.5C 100.15,131.665 96.8168,131.498 93.5,131C 92.6195,130.292 91.9528,129.458 91.5,128.5C 97.1404,131.457 102.474,131.123 107.5,127.5 Z"/></g>
<g><path style="opacity:1" fill="#c54545" d="M 89.5,129.5 C 89.5,129.167 89.5,128.833 89.5,128.5C 90.1667,128.5 90.8333,128.5 91.5,128.5C 91.9528,129.458 92.6195,130.292 93.5,131C 96.8168,131.498 100.15,131.665 103.5,131.5C 98.4846,133.286 93.8179,132.62 89.5,129.5 Z"/></g>
<g><path style="opacity:1" fill="#eebdbb" d="M 52.5,122.5 C 52.2065,126.437 52.5399,130.27 53.5,134C 59.4908,134.499 65.4908,134.666 71.5,134.5C 72.01,137.539 72.6766,140.539 73.5,143.5C 73.1667,143.5 72.8333,143.5 72.5,143.5C 71.9759,141.694 71.3092,140.028 70.5,138.5C 65.2649,136.55 59.5982,135.883 53.5,136.5C 52.5,136.167 51.8333,135.5 51.5,134.5C 51.1832,130.298 51.5166,126.298 52.5,122.5 Z"/></g>
<g><path style="opacity:1" fill="#f4c9c7" d="M 193.5,133.5 C 188.073,135.146 182.406,136.146 176.5,136.5C 175.596,137.209 175.263,138.209 175.5,139.5C 175.5,139.833 175.5,140.167 175.5,140.5C 174.167,141.833 172.833,143.167 171.5,144.5C 172.957,141.491 174.291,138.324 175.5,135C 181.548,134.748 187.548,134.248 193.5,133.5 Z"/></g>
<g><path style="opacity:1" fill="#cd8281" d="M 193.5,122.5 C 194.486,126.97 194.819,131.637 194.5,136.5C 188.5,136.5 182.5,136.5 176.5,136.5C 182.406,136.146 188.073,135.146 193.5,133.5C 193.5,129.833 193.5,126.167 193.5,122.5 Z"/></g>
<g><path style="opacity:1" fill="#871d1b" d="M 53.5,136.5 C 59.5982,135.883 65.2649,136.55 70.5,138.5C 64.6989,137.92 59.0322,137.253 53.5,136.5 Z"/></g>
<g><path style="opacity:1" fill="#9a1915" d="M 194.5,105.5 C 195.401,106.29 196.068,107.29 196.5,108.5C 195.608,116.181 195.608,123.848 196.5,131.5C 196.828,134.501 195.828,136.834 193.5,138.5C 187.441,138.254 181.441,138.587 175.5,139.5C 175.263,138.209 175.596,137.209 176.5,136.5C 182.5,136.5 188.5,136.5 194.5,136.5C 194.819,131.637 194.486,126.97 193.5,122.5C 188.695,121.513 183.695,121.179 178.5,121.5C 178.5,120.167 178.5,118.833 178.5,117.5C 183.833,117.5 189.167,117.5 194.5,117.5C 194.5,113.5 194.5,109.5 194.5,105.5 Z"/></g>
<g><path style="opacity:1" fill="#b41714" d="M 50.5,122.5 C 50.1832,126.702 50.5166,130.702 51.5,134.5C 51.8333,135.5 52.5,136.167 53.5,136.5C 59.0322,137.253 64.6989,137.92 70.5,138.5C 71.3092,140.028 71.9759,141.694 72.5,143.5C 72.1667,143.5 71.8333,143.5 71.5,143.5C 70.7515,142.469 70.0848,141.302 69.5,140C 64.1667,139.667 58.8333,139.333 53.5,139C 52.2949,137.624 50.9616,136.458 49.5,135.5C 49.1818,130.968 49.5151,126.634 50.5,122.5 Z"/></g>
<g><path style="opacity:1" fill="#e50605" d="M 196.5,108.5 C 197.327,113.985 197.827,119.652 198,125.5C 199.399,126.227 200.899,126.727 202.5,127C 201.207,127.49 199.873,127.657 198.5,127.5C 198.336,132.485 198.336,137.318 198.5,142C 196.863,142.601 195.197,143.101 193.5,143.5C 189.213,142.625 184.879,142.292 180.5,142.5C 180.708,144.92 180.374,147.253 179.5,149.5C 175.407,151.839 172.074,155.005 169.5,159C 168.552,159.483 167.552,159.649 166.5,159.5C 168.437,155.894 171.103,152.894 174.5,150.5C 175.231,146.539 176.897,143.039 179.5,140C 184.351,139.826 189.018,139.326 193.5,138.5C 195.828,136.834 196.828,134.501 196.5,131.5C 195.608,123.848 195.608,116.181 196.5,108.5 Z"/></g>
<g><path style="opacity:1" fill="#4e1c1d" d="M 216.5,100.5 C 218.718,103.719 219.885,107.386 220,111.5C 220.635,122.857 220.302,134.191 219,145.5C 218.581,146.672 217.915,147.672 217,148.5C 215.866,154.231 214.532,159.898 213,165.5C 211.161,167.201 209.327,168.868 207.5,170.5C 207.5,170.167 207.5,169.833 207.5,169.5C 207.5,168.5 207.5,167.5 207.5,166.5C 209.173,165.657 210.34,164.324 211,162.5C 213.75,156.419 215.583,150.086 216.5,143.5C 218.045,137.581 218.711,131.414 218.5,125C 218.499,120.32 218.166,115.82 217.5,111.5C 217.448,107.802 217.114,104.135 216.5,100.5 Z"/></g>
<g><path style="opacity:1" fill="#d45850" d="M 73.5,143.5 C 75.0551,146.404 77.0551,149.07 79.5,151.5C 75.5881,150.256 73.5881,147.589 73.5,143.5 Z"/></g>
<g><path style="opacity:1" fill="#9b3330" d="M 175.5,140.5 C 175.672,145.027 173.672,148.027 169.5,149.5C 169.5,148.833 169.5,148.167 169.5,147.5C 170.906,147.027 171.573,146.027 171.5,144.5C 172.833,143.167 174.167,141.833 175.5,140.5 Z"/></g>
<g><path style="opacity:1" fill="#9c393b" d="M 124.5,146.5 C 125.5,147.833 126.5,149.167 127.5,150.5C 125.236,149.781 122.903,149.448 120.5,149.5C 120.694,147.088 122.027,146.088 124.5,146.5 Z"/></g>
<g><path style="opacity:1" fill="#961118" d="M 33.5,147.5 C 35.0739,149.102 35.7406,151.102 35.5,153.5C 33.9261,151.898 33.2594,149.898 33.5,147.5 Z"/></g>
<g><path style="opacity:1" fill="#501311" d="M 31.5,143.5 C 33.1765,144.183 33.8432,145.517 33.5,147.5C 33.2594,149.898 33.9261,151.898 35.5,153.5C 35.5,154.833 35.5,156.167 35.5,157.5C 32.9436,153.288 31.6102,148.622 31.5,143.5 Z"/></g>
<g><path style="opacity:1" fill="#aa2f36" d="M 216.5,143.5 C 215.583,150.086 213.75,156.419 211,162.5C 210.34,164.324 209.173,165.657 207.5,166.5C 209.768,158.337 212.768,150.67 216.5,143.5 Z"/></g>
<g><path style="opacity:1" fill="#9d3b37" d="M 118.5,151.5 C 116.594,156.412 112.928,158.912 107.5,159C 102.177,159.499 96.8437,159.666 91.5,159.5C 91.1667,159.5 90.8333,159.5 90.5,159.5C 90.5,159.167 90.5,158.833 90.5,158.5C 100.988,160.202 110.321,157.868 118.5,151.5 Z"/></g>
<g><path style="opacity:1" fill="#b60504" d="M 193.5,138.5 C 189.018,139.326 184.351,139.826 179.5,140C 176.897,143.039 175.231,146.539 174.5,150.5C 171.103,152.894 168.437,155.894 166.5,159.5C 163.892,159.4 161.558,160.067 159.5,161.5C 163.151,157.842 166.484,153.842 169.5,149.5C 173.672,148.027 175.672,145.027 175.5,140.5C 175.5,140.167 175.5,139.833 175.5,139.5C 181.441,138.587 187.441,138.254 193.5,138.5 Z"/></g>
<g><path style="opacity:1" fill="#eec7c2" d="M 124.5,146.5 C 122.027,146.088 120.694,147.088 120.5,149.5C 120.167,150.5 119.5,151.167 118.5,151.5C 110.321,157.868 100.988,160.202 90.5,158.5C 89.0048,158.011 87.6715,157.345 86.5,156.5C 98.0909,158.181 108.758,156.015 118.5,150C 119.09,148.491 119.756,146.991 120.5,145.5C 122.297,144.068 123.63,144.401 124.5,146.5 Z"/></g>
<g><path style="opacity:1" fill="#e0a9a6" d="M 169.5,147.5 C 169.5,148.167 169.5,148.833 169.5,149.5C 162.505,156.946 153.839,160.28 143.5,159.5C 140.922,159.02 138.588,158.02 136.5,156.5C 142.159,157.2 147.825,157.366 153.5,157C 156.689,155.24 160.023,153.74 163.5,152.5C 165.153,150.351 167.153,148.684 169.5,147.5 Z"/></g>
<g><path style="opacity:1" fill="#8f140e" d="M 35.5,153.5 C 35.8333,153.5 36.1667,153.5 36.5,153.5C 37.1495,155.435 37.4828,157.435 37.5,159.5C 36.1667,159.5 35.5,158.833 35.5,157.5C 35.5,156.167 35.5,154.833 35.5,153.5 Z"/></g>
<g><path style="opacity:1" fill="#af0909" d="M 120.5,149.5 C 122.903,149.448 125.236,149.781 127.5,150.5C 127.5,150.833 127.5,151.167 127.5,151.5C 127.5,151.833 127.5,152.167 127.5,152.5C 123.453,152.535 120.786,154.535 119.5,158.5C 111.748,161.515 103.748,162.681 95.5,162C 93.563,161.878 92.2297,161.045 91.5,159.5C 96.8437,159.666 102.177,159.499 107.5,159C 112.928,158.912 116.594,156.412 118.5,151.5C 119.5,151.167 120.167,150.5 120.5,149.5 Z"/></g>
<g><path style="opacity:1" fill="#a92421" d="M 127.5,151.5 C 129.985,153.913 132.985,155.58 136.5,156.5C 138.588,158.02 140.922,159.02 143.5,159.5C 141.167,159.5 138.833,159.5 136.5,159.5C 132.951,158.277 129.951,156.277 127.5,153.5C 127.5,153.167 127.5,152.833 127.5,152.5C 127.5,152.167 127.5,151.833 127.5,151.5 Z"/></g>
<g><path style="opacity:1" fill="#e80607" d="M 71.5,143.5 C 71.8333,143.5 72.1667,143.5 72.5,143.5C 72.8333,143.5 73.1667,143.5 73.5,143.5C 73.5881,147.589 75.5881,150.256 79.5,151.5C 79.5,151.833 79.5,152.167 79.5,152.5C 79.281,153.675 79.6143,154.675 80.5,155.5C 83.686,157.434 87.0193,158.768 90.5,159.5C 90.8333,159.5 91.1667,159.5 91.5,159.5C 92.2297,161.045 93.563,161.878 95.5,162C 103.748,162.681 111.748,161.515 119.5,158.5C 120.786,154.535 123.453,152.535 127.5,152.5C 127.5,152.833 127.5,153.167 127.5,153.5C 123.692,155.81 120.692,158.977 118.5,163C 115.736,163.532 113.07,164.366 110.5,165.5C 103.883,164.704 97.2167,164.204 90.5,164C 85.626,162.654 80.9593,160.821 76.5,158.5C 77.0253,157.808 77.6919,157.308 78.5,157C 76.9963,155.509 76.1629,153.676 76,151.5C 74.7318,151.384 73.3985,151.051 72,150.5C 71.5034,148.19 71.3367,145.857 71.5,143.5 Z"/></g>
<g><path style="opacity:1" fill="#a61715" d="M 79.5,152.5 C 81.8162,153.806 84.1495,155.139 86.5,156.5C 87.6715,157.345 89.0048,158.011 90.5,158.5C 90.5,158.833 90.5,159.167 90.5,159.5C 87.0193,158.768 83.686,157.434 80.5,155.5C 79.6143,154.675 79.281,153.675 79.5,152.5 Z"/></g>
<g><path style="opacity:1" fill="#9e120f" d="M 169.5,149.5 C 166.484,153.842 163.151,157.842 159.5,161.5C 153.729,162.113 148.396,161.446 143.5,159.5C 153.839,160.28 162.505,156.946 169.5,149.5 Z"/></g>
<g><path style="opacity:1" fill="#be0302" d="M 136.5,159.5 C 138.833,159.5 141.167,159.5 143.5,159.5C 148.396,161.446 153.729,162.113 159.5,161.5C 152.378,163.923 145.044,164.09 137.5,162C 136.748,161.329 136.414,160.496 136.5,159.5 Z"/></g>
<g><path style="opacity:1" fill="#da1010" d="M 39.5,162.5 C 40.675,162.281 41.675,162.614 42.5,163.5C 44.4567,167.386 45.79,171.386 46.5,175.5C 45.8333,175.5 45.1667,175.5 44.5,175.5C 42.6095,171.364 40.9428,167.03 39.5,162.5 Z"/></g>
<g><path style="opacity:1" fill="#5c1412" d="M 37.5,159.5 C 38.1667,160.5 38.8333,161.5 39.5,162.5C 40.9428,167.03 42.6095,171.364 44.5,175.5C 43.9463,173.111 42.4463,171.445 40,170.5C 38.5597,166.959 37.7264,163.292 37.5,159.5 Z"/></g>
<g><path style="opacity:1" fill="#af3036" d="M 207.5,169.5 C 207.5,169.833 207.5,170.167 207.5,170.5C 205.273,171.401 204.273,173.067 204.5,175.5C 199.695,180.44 195.362,185.773 191.5,191.5C 190.167,191.5 188.833,191.5 187.5,191.5C 188.111,189.225 189.445,187.559 191.5,186.5C 195.667,185.063 197.667,182.063 197.5,177.5C 200.47,177.254 201.803,175.588 201.5,172.5C 203.517,171.471 205.517,170.471 207.5,169.5 Z"/></g>
<g><path style="opacity:1" fill="#5f1d21" d="M 204.5,175.5 C 204.649,176.552 204.483,177.552 204,178.5C 200.262,183.367 196.095,187.7 191.5,191.5C 195.362,185.773 199.695,180.44 204.5,175.5 Z"/></g>
<g><path style="opacity:1" fill="#cd2121" d="M 201.5,172.5 C 201.803,175.588 200.47,177.254 197.5,177.5C 197.667,182.063 195.667,185.063 191.5,186.5C 191.5,185.167 191.5,183.833 191.5,182.5C 194.181,180.681 196.181,178.348 197.5,175.5C 198.833,174.5 200.167,173.5 201.5,172.5 Z"/></g>
<g><path style="opacity:1" fill="#891018" d="M 44.5,175.5 C 45.1667,175.5 45.8333,175.5 46.5,175.5C 48.2158,177.565 49.5491,179.898 50.5,182.5C 47.3438,181.021 45.3438,178.688 44.5,175.5 Z"/></g>
<g><path style="opacity:1" fill="#8e1114" d="M 50.5,182.5 C 53.8805,184.88 56.5472,187.88 58.5,191.5C 57.8333,191.5 57.1667,191.5 56.5,191.5C 54.5,188.5 52.5,185.5 50.5,182.5 Z"/></g>
<g><path style="opacity:1" fill="#871211" d="M 58.5,191.5 C 60.1612,192.797 61.8278,194.13 63.5,195.5C 60.6333,195.631 58.9666,194.297 58.5,191.5 Z"/></g>
<g><path style="opacity:1" fill="#541f21" d="M 187.5,191.5 C 188.833,191.5 190.167,191.5 191.5,191.5C 190.692,194.47 188.692,196.303 185.5,197C 183.387,201.214 180.053,203.714 175.5,204.5C 178.022,202.639 180.522,200.639 183,198.5C 184.813,196.239 186.313,193.905 187.5,191.5 Z"/></g>
<g><path style="opacity:1" fill="#ac2e33" d="M 187.5,191.5 C 186.313,193.905 184.813,196.239 183,198.5C 180.522,200.639 178.022,202.639 175.5,204.5C 173.072,206.043 170.406,207.043 167.5,207.5C 168.031,205.376 169.365,203.876 171.5,203C 172.793,202.51 174.127,202.343 175.5,202.5C 175.5,201.167 175.5,199.833 175.5,198.5C 177.655,198.628 179.655,198.128 181.5,197C 183.416,194.91 185.416,193.077 187.5,191.5 Z"/></g>
<g><path style="opacity:1" fill="#e41013" d="M 191.5,182.5 C 191.5,183.833 191.5,185.167 191.5,186.5C 189.445,187.559 188.111,189.225 187.5,191.5C 185.416,193.077 183.416,194.91 181.5,197C 179.655,198.128 177.655,198.628 175.5,198.5C 175.5,199.833 175.5,201.167 175.5,202.5C 174.127,202.343 172.793,202.51 171.5,203C 169.365,203.876 168.031,205.376 167.5,207.5C 159.447,209.962 151.447,212.629 143.5,215.5C 141.5,215.5 139.5,215.5 137.5,215.5C 137.611,214.883 137.944,214.383 138.5,214C 146.714,212.577 154.714,210.41 162.5,207.5C 163.504,203.507 166.171,201.174 170.5,200.5C 171.624,199.086 172.624,197.586 173.5,196C 179.355,193.818 183.689,189.818 186.5,184C 188.154,183.392 189.821,182.892 191.5,182.5 Z"/></g>
<g><path style="opacity:1" fill="#3c1a19" d="M 56.5,191.5 C 57.1667,191.5 57.8333,191.5 58.5,191.5C 58.9666,194.297 60.6333,195.631 63.5,195.5C 63.5,195.833 63.5,196.167 63.5,196.5C 66.448,199.108 69.448,201.775 72.5,204.5C 68.2898,205.288 65.6232,203.621 64.5,199.5C 63.8333,199.833 63.1667,200.167 62.5,200.5C 60.4816,197.487 58.4816,194.487 56.5,191.5 Z"/></g>
<g><path style="opacity:1" fill="#a51513" d="M 63.5,196.5 C 65.6547,196.372 67.6547,196.872 69.5,198C 71.1137,200.127 73.1137,201.627 75.5,202.5C 77.3671,203.76 78.7005,205.427 79.5,207.5C 76.7438,207.284 74.4105,206.284 72.5,204.5C 69.448,201.775 66.448,199.108 63.5,196.5 Z"/></g>
<g><path style="opacity:1" fill="#e30d0b" d="M 75.5,202.5 C 79.4312,203.305 82.7645,205.139 85.5,208C 88.8557,208.215 92.189,208.215 95.5,208C 94.09,208.368 93.09,209.201 92.5,210.5C 95.4465,211.321 98.4465,211.821 101.5,212C 102.756,212.417 103.423,213.25 103.5,214.5C 100.833,214.5 98.1667,214.5 95.5,214.5C 91.423,212.489 87.0897,210.823 82.5,209.5C 82.0269,208.094 81.0269,207.427 79.5,207.5C 78.7005,205.427 77.3671,203.76 75.5,202.5 Z"/></g>
<g><path style="opacity:1" fill="#670d0f" d="M 79.5,207.5 C 81.0269,207.427 82.0269,208.094 82.5,209.5C 80.8212,209.715 79.8212,209.048 79.5,207.5 Z"/></g>
<g><path style="opacity:1" fill="#4b1516" d="M 175.5,204.5 C 171.525,209.526 166.191,212.193 159.5,212.5C 162.395,211.201 165.062,209.535 167.5,207.5C 170.406,207.043 173.072,206.043 175.5,204.5 Z"/></g>
<g><path style="opacity:1" fill="#ad2c2c" d="M 167.5,207.5 C 165.062,209.535 162.395,211.201 159.5,212.5C 153.861,212.957 148.528,214.29 143.5,216.5C 143.5,216.167 143.5,215.833 143.5,215.5C 151.447,212.629 159.447,209.962 167.5,207.5 Z"/></g>
<g><path style="opacity:1" fill="#5f120f" d="M 82.5,209.5 C 87.0897,210.823 91.423,212.489 95.5,214.5C 93.4727,214.662 91.4727,214.495 89.5,214C 86.7281,212.943 84.3947,211.443 82.5,209.5 Z"/></g>
<g><path style="opacity:1" fill="#ab161a" d="M 95.5,215.5 C 95.5,215.167 95.5,214.833 95.5,214.5C 98.1667,214.5 100.833,214.5 103.5,214.5C 106.02,215.918 108.687,216.918 111.5,217.5C 106.135,217.044 100.801,216.377 95.5,215.5 Z"/></g>
<g><path style="opacity:1" fill="#5c100f" d="M 95.5,215.5 C 100.801,216.377 106.135,217.044 111.5,217.5C 111.5,217.833 111.5,218.167 111.5,218.5C 105.82,218.701 100.486,217.701 95.5,215.5 Z"/></g>
<g><path style="opacity:1" fill="#581816" d="M 159.5,212.5 C 155.907,213.873 152.24,215.373 148.5,217C 146.866,217.494 145.199,217.66 143.5,217.5C 143.5,217.167 143.5,216.833 143.5,216.5C 148.528,214.29 153.861,212.957 159.5,212.5 Z"/></g>
<g><path style="opacity:1" fill="#bb1c1b" d="M 137.5,215.5 C 139.5,215.5 141.5,215.5 143.5,215.5C 143.5,215.833 143.5,216.167 143.5,216.5C 143.5,216.833 143.5,217.167 143.5,217.5C 132.852,218.277 122.185,218.61 111.5,218.5C 111.5,218.167 111.5,217.833 111.5,217.5C 120.251,217.745 128.918,217.078 137.5,215.5 Z"/></g>
<g><path style="opacity:1" fill="#661012" d="M 143.5,217.5 C 137.405,219.014 131.072,219.68 124.5,219.5C 119.987,219.499 115.653,219.166 111.5,218.5C 122.185,218.61 132.852,218.277 143.5,217.5 Z"/></g>
</svg>
