<?xml version="1.0" encoding="UTF-8"?>
<!DOCTYPE svg PUBLIC "-//W3C//DTD SVG 1.1//EN" "http://www.w3.org/Graphics/SVG/1.1/DTD/svg11.dtd">
<svg xmlns="http://www.w3.org/2000/svg" version="1.1" width="250px" height="250px" style="shape-rendering:geometricPrecision; text-rendering:geometricPrecision; image-rendering:optimizeQuality; fill-rule:evenodd; clip-rule:evenodd" xmlns:xlink="http://www.w3.org/1999/xlink">
<g><path style="opacity:1" fill="#f80038" d="M -0.5,-0.5 C 82.8333,-0.5 166.167,-0.5 249.5,-0.5C 249.5,82.8333 249.5,166.167 249.5,249.5C 166.167,249.5 82.8333,249.5 -0.5,249.5C -0.5,166.167 -0.5,82.8333 -0.5,-0.5 Z"/></g>
<g><path style="opacity:1" fill="#cd1a42" d="M 143.5,19.5 C 140.833,19.5 138.167,19.5 135.5,19.5C 127.648,18.2851 119.648,18.2851 111.5,19.5C 112.263,18.7321 113.263,18.2321 114.5,18C 118.5,17.8333 122.5,17.6667 126.5,17.5C 132.417,17.3048 138.084,17.9715 143.5,19.5 Z"/></g>
<g><path style="opacity:1" fill="#e97e97" d="M 135.5,19.5 C 127.483,19.5012 119.483,19.8345 111.5,20.5C 111.5,20.1667 111.5,19.8333 111.5,19.5C 119.648,18.2851 127.648,18.2851 135.5,19.5 Z"/></g>
<g><path style="opacity:1" fill="#faf2f5" d="M 135.5,19.5 C 138.167,19.5 140.833,19.5 143.5,19.5C 149.434,20.5759 155.434,21.9092 161.5,23.5C 163.102,25.0739 165.102,25.7406 167.5,25.5C 171.966,27.7944 176.633,29.7944 181.5,31.5C 184.475,34.3229 187.808,36.6563 191.5,38.5C 193.878,40.8777 196.545,42.8777 199.5,44.5C 202.212,46.8848 204.878,49.2181 207.5,51.5C 207.5,51.8333 207.5,52.1667 207.5,52.5C 209.935,54.271 211.602,56.6044 212.5,59.5C 208.818,59.6653 205.152,59.4986 201.5,59C 197.491,54.1377 192.824,50.3043 187.5,47.5C 184.197,43.8442 180.197,41.1775 175.5,39.5C 167.241,34.5054 158.241,31.1721 148.5,29.5C 137.381,27.5812 126.048,27.0812 114.5,28C 113.263,28.2321 112.263,28.7321 111.5,29.5C 108.447,29.1107 105.78,29.7773 103.5,31.5C 103.167,31.5 102.833,31.5 102.5,31.5C 99.0534,31.8143 95.7201,32.6476 92.5,34C 89.8742,36.1457 86.8742,37.479 83.5,38C 81.9069,38.9487 80.5736,40.1154 79.5,41.5C 78.448,41.3505 77.448,41.5172 76.5,42C 74.2368,43.617 72.2368,45.4503 70.5,47.5C 67.883,48.7859 65.5496,50.4525 63.5,52.5C 63.5,52.8333 63.5,53.1667 63.5,53.5C 59.1881,55.8119 55.8548,59.1452 53.5,63.5C 50.5293,65.4426 48.5293,68.1092 47.5,71.5C 46.0937,71.9731 45.427,72.9731 45.5,74.5C 43.7497,75.6594 42.7497,77.326 42.5,79.5C 39.0995,84.307 36.7662,89.6403 35.5,95.5C 33.9605,97.8383 33.2938,100.505 33.5,103.5C 32.6981,104.952 32.1981,106.618 32,108.5C 31.6667,116.833 31.3333,125.167 31,133.5C 30.7216,134.416 30.2216,135.082 29.5,135.5C 27.7428,136.292 26.4095,137.625 25.5,139.5C 23.8199,130.249 23.1533,120.916 23.5,111.5C 23.5,109.5 23.5,107.5 23.5,105.5C 26.0998,99.1207 28.0998,92.4541 29.5,85.5C 31.0739,83.8984 31.7406,81.8984 31.5,79.5C 31.8333,79.5 32.1667,79.5 32.5,79.5C 35.4592,74.1916 38.4592,68.8583 41.5,63.5C 42.4013,62.7095 43.0679,61.7095 43.5,60.5C 50.1667,53.8333 56.8333,47.1667 63.5,40.5C 66.5113,39.3307 69.178,37.664 71.5,35.5C 73.8816,34.6493 75.8816,33.316 77.5,31.5C 78.4916,31.6716 79.1583,31.3382 79.5,30.5C 81.5582,29.0669 83.8915,28.4003 86.5,28.5C 88.5273,28.6621 90.5273,28.4955 92.5,28C 96.4166,26.4732 100.083,24.6398 103.5,22.5C 105.905,21.2318 108.572,20.5651 111.5,20.5C 119.483,19.8345 127.483,19.5012 135.5,19.5 Z"/></g>
<g><path style="opacity:1" fill="#d52548" d="M 143.5,19.5 C 150.528,20.0071 157.528,20.8404 164.5,22C 167.844,22.6675 170.511,24.3342 172.5,27C 174.833,27.3333 177.167,27.6667 179.5,28C 180.823,28.8159 181.489,29.9826 181.5,31.5C 176.633,29.7944 171.966,27.7944 167.5,25.5C 165.898,23.9261 163.898,23.2594 161.5,23.5C 155.434,21.9092 149.434,20.5759 143.5,19.5 Z"/></g>
<g><path style="opacity:1" fill="#be2949" d="M 111.5,19.5 C 111.5,19.8333 111.5,20.1667 111.5,20.5C 108.572,20.5651 105.905,21.2318 103.5,22.5C 100.833,22.8333 98.1667,23.1667 95.5,23.5C 100.422,20.9361 105.755,19.6028 111.5,19.5 Z"/></g>
<g><path style="opacity:1" fill="#cb4e68" d="M 161.5,23.5 C 163.898,23.2594 165.898,23.9261 167.5,25.5C 165.102,25.7406 163.102,25.0739 161.5,23.5 Z"/></g>
<g><path style="opacity:1" fill="#c92e4d" d="M 95.5,23.5 C 92.5228,25.3139 89.5228,26.9805 86.5,28.5C 83.8915,28.4003 81.5582,29.0669 79.5,30.5C 80.1223,28.665 81.4556,27.4983 83.5,27C 87.3072,25.1192 91.3072,23.9526 95.5,23.5 Z"/></g>
<g><path style="opacity:1" fill="#fde1ed" d="M 103.5,22.5 C 100.083,24.6398 96.4166,26.4732 92.5,28C 90.5273,28.4955 88.5273,28.6621 86.5,28.5C 89.5228,26.9805 92.5228,25.3139 95.5,23.5C 98.1667,23.1667 100.833,22.8333 103.5,22.5 Z"/></g>
<g><path style="opacity:1" fill="#da5876" d="M 148.5,29.5 C 138.847,28.8516 129.18,28.5183 119.5,28.5C 116.833,28.8333 114.167,29.1667 111.5,29.5C 112.263,28.7321 113.263,28.2321 114.5,28C 126.048,27.0812 137.381,27.5812 148.5,29.5 Z"/></g>
<g><path style="opacity:1" fill="#c72845" d="M 119.5,28.5 C 114.549,30.7726 109.216,31.7726 103.5,31.5C 105.78,29.7773 108.447,29.1107 111.5,29.5C 114.167,29.1667 116.833,28.8333 119.5,28.5 Z"/></g>
<g><path style="opacity:1" fill="#f70138" d="M 119.5,28.5 C 129.18,28.5183 138.847,28.8516 148.5,29.5C 157.289,33.2097 166.289,36.5431 175.5,39.5C 175.34,41.1992 175.506,42.8659 176,44.5C 177.388,43.4464 178.888,43.2797 180.5,44C 182.886,45.1932 185.22,46.3599 187.5,47.5C 187.351,48.552 187.517,49.552 188,50.5C 190.056,51.5832 191.389,53.2499 192,55.5C 196.312,55.4419 199.479,57.6086 201.5,62C 200.944,62.3826 200.611,62.8826 200.5,63.5C 191.161,63.3335 181.827,63.5002 172.5,64C 171.663,65.0113 171.33,66.1779 171.5,67.5C 169.394,68.5664 167.894,70.2331 167,72.5C 163.759,78.5627 161.259,84.896 159.5,91.5C 158.504,91.4142 157.671,91.7476 157,92.5C 155.053,97.6702 152.72,102.67 150,107.5C 149.51,108.793 149.343,110.127 149.5,111.5C 149.567,112.959 149.234,114.292 148.5,115.5C 147.147,117.183 145.48,118.516 143.5,119.5C 143.708,115.915 142.375,113.249 139.5,111.5C 136.983,104.467 134.15,97.4672 131,90.5C 130.184,89.1772 129.017,88.5106 127.5,88.5C 125.328,82.864 122.994,77.1974 120.5,71.5C 120.206,68.2459 118.873,65.5792 116.5,63.5C 100.783,62.9754 84.9493,61.9754 69,60.5C 67.175,60.9434 65.3417,61.2767 63.5,61.5C 63.8301,58.8906 65.3301,57.2239 68,56.5C 69.0086,54.9751 69.5086,53.3084 69.5,51.5C 71.604,51.7989 73.604,51.4656 75.5,50.5C 75.0233,49.5224 74.3567,48.6891 73.5,48C 74.3805,47.2917 75.0472,46.4584 75.5,45.5C 77.8333,45.1667 79.1667,43.8333 79.5,41.5C 83.9975,39.7664 88.6642,38.2664 93.5,37C 96.6921,35.3124 99.6921,33.479 102.5,31.5C 102.833,31.5 103.167,31.5 103.5,31.5C 109.216,31.7726 114.549,30.7726 119.5,28.5 Z"/></g>
<g><path style="opacity:1" fill="#d03b57" d="M 181.5,31.5 C 182.873,31.3433 184.207,31.51 185.5,32C 186.817,33.6591 188.483,34.8257 190.5,35.5C 191.386,36.325 191.719,37.325 191.5,38.5C 187.808,36.6563 184.475,34.3229 181.5,31.5 Z"/></g>
<g><path style="opacity:1" fill="#c43450" d="M 77.5,31.5 C 75.8816,33.316 73.8816,34.6493 71.5,35.5C 72.4866,32.9142 74.4866,31.5809 77.5,31.5 Z"/></g>
<g><path style="opacity:1" fill="#c92e4a" d="M 148.5,29.5 C 158.241,31.1721 167.241,34.5054 175.5,39.5C 166.289,36.5431 157.289,33.2097 148.5,29.5 Z"/></g>
<g><path style="opacity:1" fill="#c03553" d="M 71.5,35.5 C 69.178,37.664 66.5113,39.3307 63.5,40.5C 65.1239,37.3457 67.7906,35.679 71.5,35.5 Z"/></g>
<g><path style="opacity:1" fill="#cb3651" d="M 102.5,31.5 C 99.6921,33.479 96.6921,35.3124 93.5,37C 88.6642,38.2664 83.9975,39.7664 79.5,41.5C 80.5736,40.1154 81.9069,38.9487 83.5,38C 86.8742,37.479 89.8742,36.1457 92.5,34C 95.7201,32.6476 99.0534,31.8143 102.5,31.5 Z"/></g>
<g><path style="opacity:1" fill="#e61c40" d="M 63.5,40.5 C 56.8333,47.1667 50.1667,53.8333 43.5,60.5C 43.5,58.8333 43.5,57.1667 43.5,55.5C 44.8333,55.5 46.1667,55.5 47.5,55.5C 48.4369,53.1621 49.7703,50.9955 51.5,49C 51.2409,47.7387 50.5742,46.7387 49.5,46C 52.1667,45 52.1667,44 49.5,43C 51.5,42.3333 52.8333,41 53.5,39C 55.9241,38.4032 57.7575,39.2366 59,41.5C 60.4397,40.8524 61.9397,40.5191 63.5,40.5 Z"/></g>
<g><path style="opacity:1" fill="#d04a63" d="M 191.5,38.5 C 194.956,39.2698 197.623,41.2698 199.5,44.5C 196.545,42.8777 193.878,40.8777 191.5,38.5 Z"/></g>
<g><path style="opacity:1" fill="#d71f45" d="M 175.5,39.5 C 180.197,41.1775 184.197,43.8442 187.5,47.5C 185.22,46.3599 182.886,45.1932 180.5,44C 178.888,43.2797 177.388,43.4464 176,44.5C 175.506,42.8659 175.34,41.1992 175.5,39.5 Z"/></g>
<g><path style="opacity:1" fill="#ce3d54" d="M 79.5,41.5 C 79.1667,43.8333 77.8333,45.1667 75.5,45.5C 73.8333,46.1667 72.1667,46.8333 70.5,47.5C 72.2368,45.4503 74.2368,43.617 76.5,42C 77.448,41.5172 78.448,41.3505 79.5,41.5 Z"/></g>
<g><path style="opacity:1" fill="#d0314d" d="M 199.5,44.5 C 203.672,45.2331 206.339,47.5664 207.5,51.5C 204.878,49.2181 202.212,46.8848 199.5,44.5 Z"/></g>
<g><path style="opacity:1" fill="#d95974" d="M 70.5,47.5 C 69.0077,50.3231 66.6743,51.9898 63.5,52.5C 65.5496,50.4525 67.883,48.7859 70.5,47.5 Z"/></g>
<g><path style="opacity:1" fill="#d03054" d="M 207.5,52.5 C 211.522,52.0184 213.522,53.8518 213.5,58C 213.43,58.7648 213.097,59.2648 212.5,59.5C 211.602,56.6044 209.935,54.271 207.5,52.5 Z"/></g>
<g><path style="opacity:1" fill="#c24159" d="M 63.5,53.5 C 63.631,54.2389 63.4643,54.9056 63,55.5C 59.5981,58.0837 56.4315,60.7504 53.5,63.5C 55.8548,59.1452 59.1881,55.8119 63.5,53.5 Z"/></g>
<g><path style="opacity:1" fill="#d72044" d="M 187.5,47.5 C 192.824,50.3043 197.491,54.1377 201.5,59C 205.152,59.4986 208.818,59.6653 212.5,59.5C 210.167,60.8333 207.833,62.1667 205.5,63.5C 203.833,63.5 202.167,63.5 200.5,63.5C 200.611,62.8826 200.944,62.3826 201.5,62C 199.479,57.6086 196.312,55.4419 192,55.5C 191.389,53.2499 190.056,51.5832 188,50.5C 187.517,49.552 187.351,48.552 187.5,47.5 Z"/></g>
<g><path style="opacity:1" fill="#e70c3a" d="M 75.5,45.5 C 75.0472,46.4584 74.3805,47.2917 73.5,48C 74.3567,48.6891 75.0233,49.5224 75.5,50.5C 73.604,51.4656 71.604,51.7989 69.5,51.5C 69.5086,53.3084 69.0086,54.9751 68,56.5C 65.3301,57.2239 63.8301,58.8906 63.5,61.5C 65.3417,61.2767 67.175,60.9434 69,60.5C 84.9493,61.9754 100.783,62.9754 116.5,63.5C 96.9928,63.1697 77.6595,63.503 58.5,64.5C 58.5,65.8333 58.5,67.1667 58.5,68.5C 58.5,69.1667 58.5,69.8333 58.5,70.5C 57.1733,69.1999 55.84,67.8665 54.5,66.5C 52.4121,70.6919 49.4121,74.0252 45.5,76.5C 45.5,75.8333 45.5,75.1667 45.5,74.5C 45.427,72.9731 46.0937,71.9731 47.5,71.5C 49.984,69.1997 51.984,66.5331 53.5,63.5C 56.4315,60.7504 59.5981,58.0837 63,55.5C 63.4643,54.9056 63.631,54.2389 63.5,53.5C 63.5,53.1667 63.5,52.8333 63.5,52.5C 66.6743,51.9898 69.0077,50.3231 70.5,47.5C 72.1667,46.8333 73.8333,46.1667 75.5,45.5 Z"/></g>
<g><path style="opacity:1" fill="#b23658" d="M 58.5,64.5 C 77.6595,63.503 96.9928,63.1697 116.5,63.5C 118.873,65.5792 120.206,68.2459 120.5,71.5C 119.167,69.5 117.833,67.5 116.5,65.5C 97.3405,64.503 78.0072,64.1697 58.5,64.5 Z"/></g>
<g><path style="opacity:1" fill="#b33b5e" d="M 200.5,63.5 C 202.167,63.5 203.833,63.5 205.5,63.5C 214.5,63.5 223.5,63.5 232.5,63.5C 232.737,64.791 232.404,65.791 231.5,66.5C 222.191,65.1682 212.524,64.5015 202.5,64.5C 192.661,64.5002 182.994,64.8335 173.5,65.5C 172.833,66.1667 172.167,66.8333 171.5,67.5C 171.33,66.1779 171.663,65.0113 172.5,64C 181.827,63.5002 191.161,63.3335 200.5,63.5 Z"/></g>
<g><path style="opacity:1" fill="#feb3cc" d="M 58.5,64.5 C 78.0072,64.1697 97.3405,64.503 116.5,65.5C 97.5,65.5 78.5,65.5 59.5,65.5C 59.5,66.5 59.5,67.5 59.5,68.5C 59.1667,68.5 58.8333,68.5 58.5,68.5C 58.5,67.1667 58.5,65.8333 58.5,64.5 Z"/></g>
<g><path style="opacity:1" fill="#feb7ce" d="M 173.5,65.5 C 182.994,64.8335 192.661,64.5002 202.5,64.5C 212.524,64.5015 222.191,65.1682 231.5,66.5C 231.5,67.1667 231.167,67.5 230.5,67.5C 211.863,65.5126 192.863,64.846 173.5,65.5 Z"/></g>
<g><path style="opacity:1" fill="#ce5870" d="M 53.5,63.5 C 51.984,66.5331 49.984,69.1997 47.5,71.5C 48.5293,68.1092 50.5293,65.4426 53.5,63.5 Z"/></g>
<g><path style="opacity:1" fill="#fdfdfd" d="M 116.5,65.5 C 117.833,67.5 119.167,69.5 120.5,71.5C 122.994,77.1974 125.328,82.864 127.5,88.5C 131.18,96.3506 135.18,104.017 139.5,111.5C 139.896,114.721 141.229,117.388 143.5,119.5C 143.281,120.675 143.614,121.675 144.5,122.5C 146.252,120.754 147.585,118.754 148.5,116.5C 152.397,113.016 154.731,108.016 155.5,101.5C 156.858,98.126 158.191,94.7927 159.5,91.5C 164.044,83.745 168.044,75.745 171.5,67.5C 172.167,66.8333 172.833,66.1667 173.5,65.5C 192.863,64.846 211.863,65.5126 230.5,67.5C 230.5,67.8333 230.5,68.1667 230.5,68.5C 229.094,68.9731 228.427,69.9731 228.5,71.5C 224.802,79.5171 221.135,87.5171 217.5,95.5C 214.992,99.1822 212.992,103.182 211.5,107.5C 209.408,110.088 208.075,113.088 207.5,116.5C 204.742,119.678 202.742,123.345 201.5,127.5C 201.5,127.833 201.5,128.167 201.5,128.5C 198.757,133.263 196.423,138.263 194.5,143.5C 192.755,145.033 191.755,147.033 191.5,149.5C 190.326,150.514 189.66,151.847 189.5,153.5C 188.094,153.973 187.427,154.973 187.5,156.5C 186.16,159.529 184.827,162.529 183.5,165.5C 182.167,167.5 180.833,169.5 179.5,171.5C 175.819,171.718 175.152,172.884 177.5,175C 175.909,177.133 173.909,178.799 171.5,180C 174.001,181.418 173.668,182.418 170.5,183C 152.17,183.5 133.836,183.667 115.5,183.5C 114.872,181.338 113.539,179.672 111.5,178.5C 111.737,177.209 111.404,176.209 110.5,175.5C 110.598,173.447 109.931,171.78 108.5,170.5C 108.245,168.033 107.245,166.033 105.5,164.5C 103.05,157.264 99.7164,150.598 95.5,144.5C 95.5,144.167 95.5,143.833 95.5,143.5C 95.3155,140.827 94.1489,140.16 92,141.5C 88.6437,147.204 86.1437,153.204 84.5,159.5C 84.1667,159.5 83.8333,159.5 83.5,159.5C 81.9261,161.102 81.2594,163.102 81.5,165.5C 80.5987,166.29 79.9321,167.29 79.5,168.5C 76.8669,173.48 74.2002,178.48 71.5,183.5C 52.8214,183.833 34.1548,183.5 15.5,182.5C 16.7598,181.618 17.9264,180.618 19,179.5C 19.498,176.518 19.6646,173.518 19.5,170.5C 20.397,169.402 21.2303,169.402 22,170.5C 22.4144,166.649 23.2477,162.983 24.5,159.5C 26.8062,154.215 29.1395,148.881 31.5,143.5C 33.8975,140.712 35.5641,137.379 36.5,133.5C 42.9825,121.196 48.9825,108.529 54.5,95.5C 55.4918,93.5439 56.4918,91.5439 57.5,89.5C 57.5,88.8333 57.5,88.1667 57.5,87.5C 59.3622,85.1089 60.6955,82.4422 61.5,79.5C 62.6946,79.1344 63.3613,78.301 63.5,77C 62.4428,73.974 61.1095,71.1407 59.5,68.5C 59.5,67.5 59.5,66.5 59.5,65.5C 78.5,65.5 97.5,65.5 116.5,65.5 Z"/></g>
<g><path style="opacity:1" fill="#e9879c" d="M 230.5,68.5 C 230.573,70.0269 229.906,71.0269 228.5,71.5C 228.427,69.9731 229.094,68.9731 230.5,68.5 Z"/></g>
<g><path style="opacity:1" fill="#cb2d4f" d="M 41.5,63.5 C 38.4592,68.8583 35.4592,74.1916 32.5,79.5C 33.074,75.6754 34.2406,72.0087 36,68.5C 37.3996,66.2628 39.233,64.5962 41.5,63.5 Z"/></g>
<g><path style="opacity:1" fill="#c54a62" d="M 58.5,68.5 C 58.8333,68.5 59.1667,68.5 59.5,68.5C 61.1095,71.1407 62.4428,73.974 63.5,77C 63.3613,78.301 62.6946,79.1344 61.5,79.5C 61.2892,76.1517 60.2892,73.1517 58.5,70.5C 58.5,69.8333 58.5,69.1667 58.5,68.5 Z"/></g>
<g><path style="opacity:1" fill="#cb3150" d="M 171.5,67.5 C 168.044,75.745 164.044,83.745 159.5,91.5C 161.259,84.896 163.759,78.5627 167,72.5C 167.894,70.2331 169.394,68.5664 171.5,67.5 Z"/></g>
<g><path style="opacity:1" fill="#c85065" d="M 45.5,74.5 C 45.5,75.1667 45.5,75.8333 45.5,76.5C 44.8999,77.9002 43.8999,78.9002 42.5,79.5C 42.7497,77.326 43.7497,75.6594 45.5,74.5 Z"/></g>
<g><path style="opacity:1" fill="#cb3254" d="M 31.5,79.5 C 31.7406,81.8984 31.0739,83.8984 29.5,85.5C 29.0254,82.9179 29.6921,80.9179 31.5,79.5 Z"/></g>
<g><path style="opacity:1" fill="#c32a48" d="M 61.5,79.5 C 60.6955,82.4422 59.3622,85.1089 57.5,87.5C 57.6085,84.1008 58.9418,81.4341 61.5,79.5 Z"/></g>
<g><path style="opacity:1" fill="#d63754" d="M 232.5,63.5 C 233.598,64.6009 233.765,65.9343 233,67.5C 231.619,69.6349 230.619,71.9682 230,74.5C 227.093,76.7334 225.926,79.7334 226.5,83.5C 228.179,83.2852 229.179,83.9519 229.5,85.5C 225.961,88.5776 223.961,92.5776 223.5,97.5C 222.609,96.7387 221.942,95.7387 221.5,94.5C 223.124,93.1311 223.624,91.4645 223,89.5C 220.932,91.3962 219.099,93.3962 217.5,95.5C 221.135,87.5171 224.802,79.5171 228.5,71.5C 229.906,71.0269 230.573,70.0269 230.5,68.5C 230.5,68.1667 230.5,67.8333 230.5,67.5C 231.167,67.5 231.5,67.1667 231.5,66.5C 232.404,65.791 232.737,64.791 232.5,63.5 Z"/></g>
<g><path style="opacity:1" fill="#cd5268" d="M 42.5,79.5 C 41.2428,85.3437 38.9094,90.6771 35.5,95.5C 36.7662,89.6403 39.0995,84.307 42.5,79.5 Z"/></g>
<g><path style="opacity:1" fill="#ca3d5b" d="M 229.5,85.5 C 231.975,88.2509 232.975,91.5842 232.5,95.5C 231.21,92.3582 230.21,89.0248 229.5,85.5 Z"/></g>
<g><path style="opacity:1" fill="#f50338" d="M 58.5,70.5 C 60.2892,73.1517 61.2892,76.1517 61.5,79.5C 58.9418,81.4341 57.6085,84.1008 57.5,87.5C 57.5,88.1667 57.5,88.8333 57.5,89.5C 55.0311,90.6067 54.0311,92.6067 54.5,95.5C 50.7226,98.0444 48.7226,101.711 48.5,106.5C 46.8561,106.286 45.3561,106.62 44,107.5C 43.6667,109.833 43.3333,112.167 43,114.5C 41.1218,119.972 38.9552,125.305 36.5,130.5C 35.5,130.5 34.5,130.5 33.5,130.5C 33.4484,121.482 33.7817,112.482 34.5,103.5C 34.8333,100.833 35.1667,98.1667 35.5,95.5C 38.9094,90.6771 41.2428,85.3437 42.5,79.5C 43.8999,78.9002 44.8999,77.9002 45.5,76.5C 49.4121,74.0252 52.4121,70.6919 54.5,66.5C 55.84,67.8665 57.1733,69.1999 58.5,70.5 Z"/></g>
<g><path style="opacity:1" fill="#ca4963" d="M 57.5,89.5 C 56.4918,91.5439 55.4918,93.5439 54.5,95.5C 54.0311,92.6067 55.0311,90.6067 57.5,89.5 Z"/></g>
<g><path style="opacity:1" fill="#c71e3f" d="M 159.5,91.5 C 158.191,94.7927 156.858,98.126 155.5,101.5C 153.487,104.866 151.487,108.199 149.5,111.5C 149.343,110.127 149.51,108.793 150,107.5C 152.72,102.67 155.053,97.6702 157,92.5C 157.671,91.7476 158.504,91.4142 159.5,91.5 Z"/></g>
<g><path style="opacity:1" fill="#df7b90" d="M 35.5,95.5 C 35.1667,98.1667 34.8333,100.833 34.5,103.5C 34.1667,103.5 33.8333,103.5 33.5,103.5C 33.2938,100.505 33.9605,97.8383 35.5,95.5 Z"/></g>
<g><path style="opacity:1" fill="#ca3853" d="M 127.5,88.5 C 129.017,88.5106 130.184,89.1772 131,90.5C 134.15,97.4672 136.983,104.467 139.5,111.5C 135.18,104.017 131.18,96.3506 127.5,88.5 Z"/></g>
<g><path style="opacity:1" fill="#d24f67" d="M 29.5,85.5 C 28.0998,92.4541 26.0998,99.1207 23.5,105.5C 24.0937,99.0105 25.427,92.6772 27.5,86.5C 27.9569,85.7025 28.6236,85.3691 29.5,85.5 Z"/></g>
<g><path style="opacity:1" fill="#ca4259" d="M 217.5,95.5 C 217.044,100.413 215.044,104.413 211.5,107.5C 212.992,103.182 214.992,99.1822 217.5,95.5 Z"/></g>
<g><path style="opacity:1" fill="#c52b4b" d="M 223.5,97.5 C 224.738,99.2143 225.405,101.214 225.5,103.5C 225.5,104.833 225.5,106.167 225.5,107.5C 224.778,107.082 224.278,106.416 224,105.5C 223.503,102.854 223.336,100.187 223.5,97.5 Z"/></g>
<g><path style="opacity:1" fill="#fbd2dc" d="M 155.5,101.5 C 154.731,108.016 152.397,113.016 148.5,116.5C 148.5,116.167 148.5,115.833 148.5,115.5C 149.234,114.292 149.567,112.959 149.5,111.5C 151.487,108.199 153.487,104.866 155.5,101.5 Z"/></g>
<g><path style="opacity:1" fill="#cc3f57" d="M 232.5,95.5 C 233.586,95.62 234.253,96.2867 234.5,97.5C 236.119,102.058 237.119,106.725 237.5,111.5C 237.825,119.019 237.492,126.352 236.5,133.5C 236.596,120.635 235.262,107.968 232.5,95.5 Z"/></g>
<g><path style="opacity:1" fill="#f0a5b2" d="M 225.5,103.5 C 227.04,105.838 227.706,108.505 227.5,111.5C 226.833,110.167 226.167,108.833 225.5,107.5C 225.5,106.167 225.5,104.833 225.5,103.5 Z"/></g>
<g><path style="opacity:1" fill="#c83b55" d="M 211.5,107.5 C 211.802,111.38 210.469,114.38 207.5,116.5C 208.075,113.088 209.408,110.088 211.5,107.5 Z"/></g>
<g><path style="opacity:1" fill="#c92a4b" d="M 139.5,111.5 C 142.375,113.249 143.708,115.915 143.5,119.5C 141.229,117.388 139.896,114.721 139.5,111.5 Z"/></g>
<g><path style="opacity:1" fill="#bd3f58" d="M 148.5,115.5 C 148.5,115.833 148.5,116.167 148.5,116.5C 147.585,118.754 146.252,120.754 144.5,122.5C 143.614,121.675 143.281,120.675 143.5,119.5C 145.48,118.516 147.147,117.183 148.5,115.5 Z"/></g>
<g><path style="opacity:1" fill="#c82b4b" d="M 225.5,107.5 C 226.167,108.833 226.833,110.167 227.5,111.5C 227.666,120.839 227.5,130.173 227,139.5C 226.119,143.709 224.953,147.709 223.5,151.5C 224.391,142.646 225.391,133.813 226.5,125C 226.129,119.164 225.796,113.331 225.5,107.5 Z"/></g>
<g><path style="opacity:1" fill="#d72244" d="M 54.5,95.5 C 48.9825,108.529 42.9825,121.196 36.5,133.5C 33.2586,135.983 31.5919,139.316 31.5,143.5C 29.1395,148.881 26.8062,154.215 24.5,159.5C 26.6482,154.45 25.8148,150.116 22,146.5C 21.1399,138.857 20.6399,131.19 20.5,123.5C 20.5093,119.107 21.176,115.107 22.5,111.5C 22.5,119.5 22.5,127.5 22.5,135.5C 21.8898,139.635 22.7232,143.301 25,146.5C 26.0386,145.756 26.5386,144.756 26.5,143.5C 28.278,141.171 29.278,138.504 29.5,135.5C 30.2216,135.082 30.7216,134.416 31,133.5C 31.3333,125.167 31.6667,116.833 32,108.5C 32.1981,106.618 32.6981,104.952 33.5,103.5C 33.8333,103.5 34.1667,103.5 34.5,103.5C 33.7817,112.482 33.4484,121.482 33.5,130.5C 34.5,130.5 35.5,130.5 36.5,130.5C 38.9552,125.305 41.1218,119.972 43,114.5C 43.3333,112.167 43.6667,109.833 44,107.5C 45.3561,106.62 46.8561,106.286 48.5,106.5C 48.7226,101.711 50.7226,98.0444 54.5,95.5 Z"/></g>
<g><path style="opacity:1" fill="#d75f76" d="M 207.5,116.5 C 207.657,117.873 207.49,119.207 207,120.5C 205.609,123.336 203.776,125.669 201.5,127.5C 202.742,123.345 204.742,119.678 207.5,116.5 Z"/></g>
<g><path style="opacity:1" fill="#c64059" d="M 201.5,128.5 C 200.863,134.465 198.53,139.465 194.5,143.5C 196.423,138.263 198.757,133.263 201.5,128.5 Z"/></g>
<g><path style="opacity:1" fill="#fdd6e1" d="M 22.5,111.5 C 22.8333,111.5 23.1667,111.5 23.5,111.5C 23.1533,120.916 23.8199,130.249 25.5,139.5C 26.4095,137.625 27.7428,136.292 29.5,135.5C 29.278,138.504 28.278,141.171 26.5,143.5C 25.603,144.598 24.7697,144.598 24,143.5C 23.8171,140.635 23.3171,137.969 22.5,135.5C 22.5,127.5 22.5,119.5 22.5,111.5 Z"/></g>
<g><path style="opacity:1" fill="#cd4a61" d="M 36.5,133.5 C 35.5641,137.379 33.8975,140.712 31.5,143.5C 31.5919,139.316 33.2586,135.983 36.5,133.5 Z"/></g>
<g><path style="opacity:1" fill="#d34363" d="M 22.5,135.5 C 23.3171,137.969 23.8171,140.635 24,143.5C 24.7697,144.598 25.603,144.598 26.5,143.5C 26.5386,144.756 26.0386,145.756 25,146.5C 22.7232,143.301 21.8898,139.635 22.5,135.5 Z"/></g>
<g><path style="opacity:1" fill="#fbf3f6" d="M 229.5,85.5 C 230.21,89.0248 231.21,92.3582 232.5,95.5C 235.262,107.968 236.596,120.635 236.5,133.5C 234.92,142.344 232.92,151.01 230.5,159.5C 228.935,161.509 227.935,163.843 227.5,166.5C 227.5,166.833 227.5,167.167 227.5,167.5C 225.659,169.849 224.326,172.515 223.5,175.5C 221.75,176.659 220.75,178.326 220.5,180.5C 218.75,181.659 217.75,183.326 217.5,185.5C 215.11,186.891 213.443,188.891 212.5,191.5C 208.952,194.895 205.619,198.562 202.5,202.5C 196.878,206.122 191.545,210.122 186.5,214.5C 183.144,215.611 180.144,217.277 177.5,219.5C 176.508,219.328 175.842,219.662 175.5,220.5C 172.911,220.461 170.911,221.461 169.5,223.5C 169.167,223.5 168.833,223.5 168.5,223.5C 159.04,226.447 149.374,228.614 139.5,230C 126.214,231.407 113.214,230.241 100.5,226.5C 100.167,226.5 99.8333,226.5 99.5,226.5C 96.3582,225.21 93.0248,224.21 89.5,223.5C 88.1805,222.058 86.5138,221.392 84.5,221.5C 77.4012,217.444 70.4012,213.111 63.5,208.5C 63.5,207.833 63.1667,207.5 62.5,207.5C 59.5256,204.862 56.5256,202.195 53.5,199.5C 51.5,197.167 49.5,194.833 47.5,192.5C 48.5145,191.235 50.0145,190.569 52,190.5C 54.2159,190.653 56.3825,190.986 58.5,191.5C 62.331,196.164 66.6643,200.33 71.5,204C 73.8175,205.993 76.4842,207.159 79.5,207.5C 79.5,208.833 80.1667,209.5 81.5,209.5C 82.0577,210.79 83.0577,211.623 84.5,212C 88.0087,213.759 91.6754,214.926 95.5,215.5C 99.0845,217.806 103.085,219.139 107.5,219.5C 110.577,220.856 113.91,221.689 117.5,222C 126.18,222.536 134.846,222.37 143.5,221.5C 147.122,221.678 150.456,221.011 153.5,219.5C 157.49,219.001 161.49,218.501 165.5,218C 167.043,216.261 168.71,214.761 170.5,213.5C 173.968,212.229 176.968,210.229 179.5,207.5C 184.217,205.815 188.217,203.148 191.5,199.5C 195.1,197.57 198.1,194.903 200.5,191.5C 203.07,189.318 205.403,186.984 207.5,184.5C 210.766,184.567 212.266,182.901 212,179.5C 214.333,177.843 216.333,175.843 218,173.5C 218.495,171.527 218.662,169.527 218.5,167.5C 218.5,166.833 218.5,166.167 218.5,165.5C 220.975,164.313 221.975,162.313 221.5,159.5C 222.371,156.888 223.037,154.221 223.5,151.5C 224.953,147.709 226.119,143.709 227,139.5C 227.5,130.173 227.666,120.839 227.5,111.5C 227.706,108.505 227.04,105.838 225.5,103.5C 225.405,101.214 224.738,99.2143 223.5,97.5C 223.961,92.5776 225.961,88.5776 229.5,85.5 Z"/></g>
<g><path style="opacity:1" fill="#d0566f" d="M 95.5,143.5 C 94.325,143.281 93.325,143.614 92.5,144.5C 90.0591,149.72 87.3924,154.72 84.5,159.5C 86.1437,153.204 88.6437,147.204 92,141.5C 94.1489,140.16 95.3155,140.827 95.5,143.5 Z"/></g>
<g><path style="opacity:1" fill="#d42446" d="M 237.5,111.5 C 238.657,119.656 238.823,127.99 238,136.5C 236.498,144.839 234.664,153.172 232.5,161.5C 232.253,162.713 231.586,163.38 230.5,163.5C 230.5,162.167 230.5,160.833 230.5,159.5C 232.92,151.01 234.92,142.344 236.5,133.5C 237.492,126.352 237.825,119.019 237.5,111.5 Z"/></g>
<g><path style="opacity:1" fill="#d3687c" d="M 83.5,159.5 C 83.7406,161.898 83.0739,163.898 81.5,165.5C 81.2594,163.102 81.9261,161.102 83.5,159.5 Z"/></g>
<g><path style="opacity:1" fill="#f70238" d="M 223.5,97.5 C 223.336,100.187 223.503,102.854 224,105.5C 224.278,106.416 224.778,107.082 225.5,107.5C 225.796,113.331 226.129,119.164 226.5,125C 225.391,133.813 224.391,142.646 223.5,151.5C 223.037,154.221 222.371,156.888 221.5,159.5C 221.167,159.5 220.833,159.5 220.5,159.5C 218.207,162.061 216.373,165.061 215,168.5C 214.187,170.436 213.687,172.436 213.5,174.5C 211.975,177.563 209.975,180.23 207.5,182.5C 206.178,182.33 205.011,182.663 204,183.5C 202.555,186.09 201.388,188.757 200.5,191.5C 199.167,191.5 197.833,191.5 196.5,191.5C 196.5,192.5 196.5,193.5 196.5,194.5C 194.801,194.34 193.134,194.506 191.5,195C 192.308,195.308 192.975,195.808 193.5,196.5C 192.388,197.265 191.721,198.265 191.5,199.5C 187.882,199.707 184.548,200.707 181.5,202.5C 181.169,204.322 180.502,205.989 179.5,207.5C 173.371,209.4 167.704,212.067 162.5,215.5C 154.799,216.674 147.133,218.174 139.5,220C 128.819,220.61 118.153,220.444 107.5,219.5C 103.767,217.589 99.767,216.256 95.5,215.5C 91.3888,212.3 86.7221,210.3 81.5,209.5C 80.1667,209.5 79.5,208.833 79.5,207.5C 79.6309,206.624 79.2975,205.957 78.5,205.5C 73.751,203.451 70.0844,200.284 67.5,196C 63.7043,195.771 61.371,193.771 60.5,190C 59.552,189.517 58.552,189.351 57.5,189.5C 56.8333,189.5 56.1667,189.5 55.5,189.5C 52.9723,188.834 50.3056,188.168 47.5,187.5C 56.1475,186.668 64.8142,186.168 73.5,186C 74.3366,184.989 74.67,183.822 74.5,182.5C 76.9116,178.129 78.5783,173.462 79.5,168.5C 79.9321,167.29 80.5987,166.29 81.5,165.5C 83.0739,163.898 83.7406,161.898 83.5,159.5C 83.8333,159.5 84.1667,159.5 84.5,159.5C 87.3924,154.72 90.0591,149.72 92.5,144.5C 93.325,143.614 94.325,143.281 95.5,143.5C 95.5,143.833 95.5,144.167 95.5,144.5C 96.9508,150.723 98.9508,156.723 101.5,162.5C 101.961,164.55 102.628,166.55 103.5,168.5C 100.898,169.696 99.231,171.696 98.5,174.5C 101.068,175.868 103.401,175.534 105.5,173.5C 105.351,178.662 107.684,181.662 112.5,182.5C 112.5,184.167 112.5,185.833 112.5,187.5C 133.673,187.831 154.673,187.497 175.5,186.5C 175.5,186.167 175.5,185.833 175.5,185.5C 175.5,184.833 175.5,184.167 175.5,183.5C 175.5,183.167 175.5,182.833 175.5,182.5C 178.59,181.335 179.924,179.002 179.5,175.5C 181.915,172.66 183.248,169.327 183.5,165.5C 186.39,164.101 187.89,161.768 188,158.5C 189,157.833 190,157.167 191,156.5C 191.497,154.19 191.663,151.857 191.5,149.5C 193.975,148.313 194.975,146.313 194.5,143.5C 198.53,139.465 200.863,134.465 201.5,128.5C 201.5,128.167 201.5,127.833 201.5,127.5C 203.776,125.669 205.609,123.336 207,120.5C 207.49,119.207 207.657,117.873 207.5,116.5C 210.469,114.38 211.802,111.38 211.5,107.5C 215.044,104.413 217.044,100.413 217.5,95.5C 219.099,93.3962 220.932,91.3962 223,89.5C 223.624,91.4645 223.124,93.1311 221.5,94.5C 221.942,95.7387 222.609,96.7387 223.5,97.5 Z"/></g>
<g><path style="opacity:1" fill="#c93f58" d="M 95.5,144.5 C 99.7164,150.598 103.05,157.264 105.5,164.5C 103.938,164.267 102.605,163.6 101.5,162.5C 98.9508,156.723 96.9508,150.723 95.5,144.5 Z"/></g>
<g><path style="opacity:1" fill="#d23753" d="M 191.5,149.5 C 191.663,151.857 191.497,154.19 191,156.5C 190,157.167 189,157.833 188,158.5C 187.89,161.768 186.39,164.101 183.5,165.5C 184.827,162.529 186.16,159.529 187.5,156.5C 188.906,156.027 189.573,155.027 189.5,153.5C 189.66,151.847 190.326,150.514 191.5,149.5 Z"/></g>
<g><path style="opacity:1" fill="#f08ea4" d="M 189.5,153.5 C 189.573,155.027 188.906,156.027 187.5,156.5C 187.427,154.973 188.094,153.973 189.5,153.5 Z"/></g>
<g><path style="opacity:1" fill="#cf4e67" d="M 194.5,143.5 C 194.975,146.313 193.975,148.313 191.5,149.5C 191.755,147.033 192.755,145.033 194.5,143.5 Z"/></g>
<g><path style="opacity:1" fill="#f3a6ba" d="M 220.5,159.5 C 220.833,159.5 221.167,159.5 221.5,159.5C 221.975,162.313 220.975,164.313 218.5,165.5C 219.63,163.685 220.296,161.685 220.5,159.5 Z"/></g>
<g><path style="opacity:1" fill="#e17487" d="M 230.5,159.5 C 230.5,160.833 230.5,162.167 230.5,163.5C 229.728,164.694 228.728,165.694 227.5,166.5C 227.935,163.843 228.935,161.509 230.5,159.5 Z"/></g>
<g><path style="opacity:1" fill="#c62848" d="M 23.5,159.5 C 22.3203,163.216 20.987,166.883 19.5,170.5C 18.3127,172.072 17.3127,173.739 16.5,175.5C 16.523,173.073 17.023,170.74 18,168.5C 19.5758,165.165 21.4092,162.165 23.5,159.5 Z"/></g>
<g><path style="opacity:1" fill="#fac7d4" d="M 23.5,159.5 C 23.8333,159.5 24.1667,159.5 24.5,159.5C 23.2477,162.983 22.4144,166.649 22,170.5C 21.2303,169.402 20.397,169.402 19.5,170.5C 20.987,166.883 22.3203,163.216 23.5,159.5 Z"/></g>
<g><path style="opacity:1" fill="#ea8b9f" d="M 105.5,164.5 C 107.245,166.033 108.245,168.033 108.5,170.5C 106.755,168.967 105.755,166.967 105.5,164.5 Z"/></g>
<g><path style="opacity:1" fill="#c02444" d="M 220.5,159.5 C 220.296,161.685 219.63,163.685 218.5,165.5C 218.5,166.167 218.5,166.833 218.5,167.5C 216.588,169.657 214.921,171.991 213.5,174.5C 213.687,172.436 214.187,170.436 215,168.5C 216.373,165.061 218.207,162.061 220.5,159.5 Z"/></g>
<g><path style="opacity:1" fill="#d5576e" d="M 183.5,165.5 C 183.248,169.327 181.915,172.66 179.5,175.5C 179.5,174.167 179.5,172.833 179.5,171.5C 180.833,169.5 182.167,167.5 183.5,165.5 Z"/></g>
<g><path style="opacity:1" fill="#fbd9e1" d="M 218.5,167.5 C 218.662,169.527 218.495,171.527 218,173.5C 216.333,175.843 214.333,177.843 212,179.5C 212.266,182.901 210.766,184.567 207.5,184.5C 207.5,183.833 207.5,183.167 207.5,182.5C 209.975,180.23 211.975,177.563 213.5,174.5C 214.921,171.991 216.588,169.657 218.5,167.5 Z"/></g>
<g><path style="opacity:1" fill="#cd5a76" d="M 108.5,170.5 C 109.931,171.78 110.598,173.447 110.5,175.5C 108.744,174.448 108.077,172.781 108.5,170.5 Z"/></g>
<g><path style="opacity:1" fill="#d04762" d="M 227.5,167.5 C 227.708,171.085 226.375,173.751 223.5,175.5C 224.326,172.515 225.659,169.849 227.5,167.5 Z"/></g>
<g><path style="opacity:1" fill="#dc667c" d="M 79.5,168.5 C 78.5783,173.462 76.9116,178.129 74.5,182.5C 73.7326,183.172 73.0659,184.005 72.5,185C 52.8362,185.5 33.1695,185.667 13.5,185.5C 13.5,185.167 13.5,184.833 13.5,184.5C 33.0072,184.83 52.3405,184.497 71.5,183.5C 74.2002,178.48 76.8669,173.48 79.5,168.5 Z"/></g>
<g><path style="opacity:1" fill="#cb304f" d="M 179.5,175.5 C 179.924,179.002 178.59,181.335 175.5,182.5C 176.079,179.669 177.412,177.336 179.5,175.5 Z"/></g>
<g><path style="opacity:1" fill="#c95368" d="M 223.5,175.5 C 224.084,178.285 223.084,179.952 220.5,180.5C 220.75,178.326 221.75,176.659 223.5,175.5 Z"/></g>
<g><path style="opacity:1" fill="#fee7ef" d="M 19.5,170.5 C 19.6646,173.518 19.498,176.518 19,179.5C 17.9264,180.618 16.7598,181.618 15.5,182.5C 34.1548,183.5 52.8214,183.833 71.5,183.5C 52.3405,184.497 33.0072,184.83 13.5,184.5C 14.6289,181.491 15.6289,178.491 16.5,175.5C 17.3127,173.739 18.3127,172.072 19.5,170.5 Z"/></g>
<g><path style="opacity:1" fill="#fee7f0" d="M 179.5,171.5 C 179.5,172.833 179.5,174.167 179.5,175.5C 177.412,177.336 176.079,179.669 175.5,182.5C 175.5,182.833 175.5,183.167 175.5,183.5C 155.402,184.825 135.402,184.825 115.5,183.5C 133.836,183.667 152.17,183.5 170.5,183C 173.668,182.418 174.001,181.418 171.5,180C 173.909,178.799 175.909,177.133 177.5,175C 175.152,172.884 175.819,171.718 179.5,171.5 Z"/></g>
<g><path style="opacity:1" fill="#e87c97" d="M 111.5,178.5 C 113.539,179.672 114.872,181.338 115.5,183.5C 135.402,184.825 155.402,184.825 175.5,183.5C 175.5,184.167 175.5,184.833 175.5,185.5C 154.758,185.821 134.091,185.488 113.5,184.5C 113.296,182.315 112.63,180.315 111.5,178.5 Z"/></g>
<g><path style="opacity:1" fill="#d45067" d="M 220.5,180.5 C 220.408,182.848 219.408,184.514 217.5,185.5C 217.75,183.326 218.75,181.659 220.5,180.5 Z"/></g>
<g><path style="opacity:1" fill="#c51a41" d="M 74.5,182.5 C 74.67,183.822 74.3366,184.989 73.5,186C 64.8142,186.168 56.1475,186.668 47.5,187.5C 50.3056,188.168 52.9723,188.834 55.5,189.5C 52.1016,189.18 48.7683,189.513 45.5,190.5C 45.8555,191.522 46.5222,192.189 47.5,192.5C 49.5,194.833 51.5,197.167 53.5,199.5C 50.2958,197.643 47.1291,195.643 44,193.5C 42.1438,191.263 42.6438,189.429 45.5,188C 45.1667,187.667 44.8333,187.333 44.5,187C 33.9919,186.83 23.6585,186.33 13.5,185.5C 33.1695,185.667 52.8362,185.5 72.5,185C 73.0659,184.005 73.7326,183.172 74.5,182.5 Z"/></g>
<g><path style="opacity:1" fill="#c31542" d="M 113.5,184.5 C 134.091,185.488 154.758,185.821 175.5,185.5C 175.5,185.833 175.5,186.167 175.5,186.5C 154.473,187.155 133.806,186.488 113.5,184.5 Z"/></g>
<g><path style="opacity:1" fill="#e8073c" d="M 101.5,162.5 C 102.605,163.6 103.938,164.267 105.5,164.5C 105.755,166.967 106.755,168.967 108.5,170.5C 108.077,172.781 108.744,174.448 110.5,175.5C 111.404,176.209 111.737,177.209 111.5,178.5C 112.63,180.315 113.296,182.315 113.5,184.5C 133.806,186.488 154.473,187.155 175.5,186.5C 154.673,187.497 133.673,187.831 112.5,187.5C 112.5,185.833 112.5,184.167 112.5,182.5C 107.684,181.662 105.351,178.662 105.5,173.5C 103.401,175.534 101.068,175.868 98.5,174.5C 99.231,171.696 100.898,169.696 103.5,168.5C 102.628,166.55 101.961,164.55 101.5,162.5 Z"/></g>
<g><path style="opacity:1" fill="#c92f4b" d="M 207.5,182.5 C 207.5,183.167 207.5,183.833 207.5,184.5C 205.403,186.984 203.07,189.318 200.5,191.5C 201.388,188.757 202.555,186.09 204,183.5C 205.011,182.663 206.178,182.33 207.5,182.5 Z"/></g>
<g><path style="opacity:1" fill="#d4627b" d="M 217.5,185.5 C 216.551,187.777 215.218,189.777 213.5,191.5C 213.167,191.5 212.833,191.5 212.5,191.5C 213.443,188.891 215.11,186.891 217.5,185.5 Z"/></g>
<g><path style="opacity:1" fill="#e47491" d="M 55.5,189.5 C 56.1667,189.5 56.8333,189.5 57.5,189.5C 57.8333,190.167 58.1667,190.833 58.5,191.5C 56.3825,190.986 54.2159,190.653 52,190.5C 50.0145,190.569 48.5145,191.235 47.5,192.5C 46.5222,192.189 45.8555,191.522 45.5,190.5C 48.7683,189.513 52.1016,189.18 55.5,189.5 Z"/></g>
<g><path style="opacity:1" fill="#d42d4a" d="M 200.5,191.5 C 198.1,194.903 195.1,197.57 191.5,199.5C 191.721,198.265 192.388,197.265 193.5,196.5C 192.975,195.808 192.308,195.308 191.5,195C 193.134,194.506 194.801,194.34 196.5,194.5C 196.5,193.5 196.5,192.5 196.5,191.5C 197.833,191.5 199.167,191.5 200.5,191.5 Z"/></g>
<g><path style="opacity:1" fill="#d22f4c" d="M 212.5,191.5 C 212.833,191.5 213.167,191.5 213.5,191.5C 213.657,192.873 213.49,194.207 213,195.5C 209.405,197.745 205.905,200.079 202.5,202.5C 205.619,198.562 208.952,194.895 212.5,191.5 Z"/></g>
<g><path style="opacity:1" fill="#cd2e4d" d="M 57.5,189.5 C 58.552,189.351 59.552,189.517 60.5,190C 61.371,193.771 63.7043,195.771 67.5,196C 70.0844,200.284 73.751,203.451 78.5,205.5C 79.2975,205.957 79.6309,206.624 79.5,207.5C 76.4842,207.159 73.8175,205.993 71.5,204C 66.6643,200.33 62.331,196.164 58.5,191.5C 58.1667,190.833 57.8333,190.167 57.5,189.5 Z"/></g>
<g><path style="opacity:1" fill="#d92847" d="M 191.5,199.5 C 188.217,203.148 184.217,205.815 179.5,207.5C 180.502,205.989 181.169,204.322 181.5,202.5C 184.548,200.707 187.882,199.707 191.5,199.5 Z"/></g>
<g><path style="opacity:1" fill="#d2334f" d="M 53.5,199.5 C 56.5256,202.195 59.5256,204.862 62.5,207.5C 61.1779,207.33 60.0113,207.663 59,208.5C 58.5172,207.552 58.3505,206.552 58.5,205.5C 55.4589,204.801 53.7922,202.801 53.5,199.5 Z"/></g>
<g><path style="opacity:1" fill="#cd4058" d="M 202.5,202.5 C 199.179,209.151 193.846,213.151 186.5,214.5C 191.545,210.122 196.878,206.122 202.5,202.5 Z"/></g>
<g><path style="opacity:1" fill="#cd445c" d="M 81.5,209.5 C 86.7221,210.3 91.3888,212.3 95.5,215.5C 91.6754,214.926 88.0087,213.759 84.5,212C 83.0577,211.623 82.0577,210.79 81.5,209.5 Z"/></g>
<g><path style="opacity:1" fill="#c92b47" d="M 179.5,207.5 C 176.968,210.229 173.968,212.229 170.5,213.5C 167.888,214.371 165.221,215.037 162.5,215.5C 167.704,212.067 173.371,209.4 179.5,207.5 Z"/></g>
<g><path style="opacity:1" fill="#c83450" d="M 63.5,208.5 C 70.4012,213.111 77.4012,217.444 84.5,221.5C 82.146,221.162 79.8127,220.662 77.5,220C 73.5084,216.669 69.1751,213.836 64.5,211.5C 63.6143,210.675 63.281,209.675 63.5,208.5 Z"/></g>
<g><path style="opacity:1" fill="#ca4861" d="M 95.5,215.5 C 99.767,216.256 103.767,217.589 107.5,219.5C 103.085,219.139 99.0845,217.806 95.5,215.5 Z"/></g>
<g><path style="opacity:1" fill="#fcd4dc" d="M 170.5,213.5 C 168.71,214.761 167.043,216.261 165.5,218C 161.49,218.501 157.49,219.001 153.5,219.5C 156.5,218.167 159.5,216.833 162.5,215.5C 165.221,215.037 167.888,214.371 170.5,213.5 Z"/></g>
<g><path style="opacity:1" fill="#d15870" d="M 186.5,214.5 C 184.284,217.444 181.284,219.111 177.5,219.5C 180.144,217.277 183.144,215.611 186.5,214.5 Z"/></g>
<g><path style="opacity:1" fill="#cc3d58" d="M 162.5,215.5 C 159.5,216.833 156.5,218.167 153.5,219.5C 149.922,219.549 146.589,220.215 143.5,221.5C 134.846,222.37 126.18,222.536 117.5,222C 113.91,221.689 110.577,220.856 107.5,219.5C 118.153,220.444 128.819,220.61 139.5,220C 147.133,218.174 154.799,216.674 162.5,215.5 Z"/></g>
<g><path style="opacity:1" fill="#fab3c7" d="M 153.5,219.5 C 150.456,221.011 147.122,221.678 143.5,221.5C 146.589,220.215 149.922,219.549 153.5,219.5 Z"/></g>
<g><path style="opacity:1" fill="#c7556b" d="M 175.5,220.5 C 174.105,222.379 172.105,223.379 169.5,223.5C 170.911,221.461 172.911,220.461 175.5,220.5 Z"/></g>
<g><path style="opacity:1" fill="#cb4057" d="M 89.5,223.5 C 93.0248,224.21 96.3582,225.21 99.5,226.5C 96.8127,226.664 94.146,226.497 91.5,226C 90.244,225.583 89.5774,224.75 89.5,223.5 Z"/></g>
<g><path style="opacity:1" fill="#cc3854" d="M 168.5,223.5 C 167.884,225.417 166.55,226.584 164.5,227C 157.521,228.662 150.521,230.162 143.5,231.5C 132.828,231.667 122.161,231.5 111.5,231C 108.123,230.548 104.789,229.882 101.5,229C 100.748,228.329 100.414,227.496 100.5,226.5C 113.214,230.241 126.214,231.407 139.5,230C 149.374,228.614 159.04,226.447 168.5,223.5 Z"/></g>
<g><path style="opacity:1" fill="#ea0a3d" d="M 84.5,221.5 C 86.5138,221.392 88.1805,222.058 89.5,223.5C 89.5774,224.75 90.244,225.583 91.5,226C 94.146,226.497 96.8127,226.664 99.5,226.5C 99.8333,226.5 100.167,226.5 100.5,226.5C 100.414,227.496 100.748,228.329 101.5,229C 104.789,229.882 108.123,230.548 111.5,231C 122.161,231.5 132.828,231.667 143.5,231.5C 142.391,232.29 141.058,232.79 139.5,233C 126.083,233.971 112.75,233.471 99.5,231.5C 99.5,230.5 99.5,229.5 99.5,228.5C 93.0363,228.97 88.0363,226.637 84.5,221.5 Z"/></g>
</svg>
