<?xml version="1.0" encoding="UTF-8"?>
<!DOCTYPE svg PUBLIC "-//W3C//DTD SVG 1.1//EN" "http://www.w3.org/Graphics/SVG/1.1/DTD/svg11.dtd">
<svg xmlns="http://www.w3.org/2000/svg" version="1.1" width="250px" height="250px" style="shape-rendering:geometricPrecision; text-rendering:geometricPrecision; image-rendering:optimizeQuality; fill-rule:evenodd; clip-rule:evenodd" xmlns:xlink="http://www.w3.org/1999/xlink">
<g><path style="opacity:1" fill="#fdfdfd" d="M -0.5,-0.5 C 47.5,-0.5 95.5,-0.5 143.5,-0.5C 141.924,0.142944 140.59,1.14294 139.5,2.5C 105.007,0.214537 74.3406,9.54787 47.5,30.5C 45.9547,31.4519 44.288,31.7852 42.5,31.5C 41.6481,34.2234 40.4814,36.89 39,39.5C 36.2611,42.0083 33.7611,44.675 31.5,47.5C 30.8333,47.5 30.1667,47.5 29.5,47.5C 27.629,47.8588 26.129,48.8588 25,50.5C 22.5207,56.1251 19.5207,61.4585 16,66.5C 15.5065,68.1341 15.3398,69.8008 15.5,71.5C 14.5,71.5 13.5,71.5 12.5,71.5C 10.3134,79.5741 7.81344,87.5741 5,95.5C 1.51733,111.896 0.683998,128.563 2.5,145.5C 1.39105,145.443 0.391047,145.11 -0.5,144.5C -0.5,96.1667 -0.5,47.8333 -0.5,-0.5 Z"/></g>
<g><path style="opacity:1" fill="#fdfdfd" d="M 143.5,-0.5 C 178.833,-0.5 214.167,-0.5 249.5,-0.5C 249.5,82.8333 249.5,166.167 249.5,249.5C 215.167,249.5 180.833,249.5 146.5,249.5C 147.263,248.732 148.263,248.232 149.5,248C 147.75,246.681 145.75,246.181 143.5,246.5C 149.119,244.627 154.453,242.293 159.5,239.5C 170.371,236.418 181.038,232.751 191.5,228.5C 191.215,226.712 191.548,225.045 192.5,223.5C 195.632,221.865 198.632,220.032 201.5,218C 206.031,210.8 211.531,205.3 218,201.5C 219.312,197.736 221.146,194.403 223.5,191.5C 224.873,191.657 226.207,191.49 227.5,191C 232.504,184.825 236.337,177.992 239,170.5C 239.499,166.848 239.665,163.182 239.5,159.5C 240.5,159.5 241.5,159.5 242.5,159.5C 245.207,139.942 246.04,120.275 245,100.5C 243.088,90.5274 240.088,80.8607 236,71.5C 233.145,67.9642 231.145,63.9642 230,59.5C 228.289,56.9541 226.123,54.9541 223.5,53.5C 222.636,53.2976 221.636,52.9643 220.5,52.5C 216.785,49.1076 213.785,45.1076 211.5,40.5C 210.264,39.7542 208.93,39.4208 207.5,39.5C 207.719,38.325 207.386,37.325 206.5,36.5C 202.694,33.6053 199.36,30.272 196.5,26.5C 188.697,22.6372 181.363,18.1372 174.5,13C 162.962,8.76216 151.295,5.26216 139.5,2.5C 140.59,1.14294 141.924,0.142944 143.5,-0.5 Z"/></g>
<g><path style="opacity:1" fill="#e3e9fc" d="M 139.5,2.5 C 151.295,5.26216 162.962,8.76216 174.5,13C 181.363,18.1372 188.697,22.6372 196.5,26.5C 199.36,30.272 202.694,33.6053 206.5,36.5C 207.386,37.325 207.719,38.325 207.5,39.5C 208.93,39.4208 210.264,39.7542 211.5,40.5C 213.785,45.1076 216.785,49.1076 220.5,52.5C 221.636,52.9643 222.636,53.2976 223.5,53.5C 224.849,56.8595 226.183,60.1928 227.5,63.5C 227.131,66.6256 226.465,69.2922 225.5,71.5C 224.05,70.1502 223.383,68.4835 223.5,66.5C 207.5,66.5 191.5,66.5 175.5,66.5C 175.5,65.5 175.5,64.5 175.5,63.5C 174.167,63.5 172.833,63.5 171.5,63.5C 172.093,66.5959 171.093,68.9292 168.5,70.5C 169.376,71.2508 170.376,71.7508 171.5,72C 169.899,72.2734 168.399,72.7734 167,73.5C 166.667,73.1667 166.333,72.8333 166,72.5C 166.309,74.251 166.475,75.9177 166.5,77.5C 157.37,70.1021 147.037,65.1021 135.5,62.5C 128.345,61.3448 121.012,61.1782 113.5,62C 112.263,62.2321 111.263,62.7321 110.5,63.5C 108.379,63.3253 106.379,63.6586 104.5,64.5C 101.077,63.7597 97.4104,63.4263 93.5,63.5C 92.3044,63.8457 92.3044,64.3457 93.5,65C 91.9556,66.1871 90.2889,66.5205 88.5,66C 89.1667,65.6667 89.8333,65.3333 90.5,65C 89.3914,64.3623 88.2247,63.8623 87,63.5C 84.8876,64.608 83.0542,66.108 81.5,68C 82.6091,69.813 81.9424,70.6463 79.5,70.5C 79.5,69.1667 79.5,67.8333 79.5,66.5C 63.2558,66.1752 47.0891,66.5086 31,67.5C 30.4454,64.4583 28.6121,62.625 25.5,62C 29.0262,58.5177 31.0262,53.6844 31.5,47.5C 33.7611,44.675 36.2611,42.0083 39,39.5C 40.4814,36.89 41.6481,34.2234 42.5,31.5C 44.288,31.7852 45.9547,31.4519 47.5,30.5C 74.3406,9.54787 105.007,0.214537 139.5,2.5 Z"/></g>
<g><path style="opacity:1" fill="#424e5d" d="M 135.5,62.5 C 127.133,62.2953 118.8,62.6287 110.5,63.5C 111.263,62.7321 112.263,62.2321 113.5,62C 121.012,61.1782 128.345,61.3448 135.5,62.5 Z"/></g>
<g><path style="opacity:1" fill="#eaeffc" d="M 29.5,47.5 C 30.1667,47.5 30.8333,47.5 31.5,47.5C 31.0262,53.6844 29.0262,58.5177 25.5,62C 28.6121,62.625 30.4454,64.4583 31,67.5C 47.0891,66.5086 63.2558,66.1752 79.5,66.5C 79.5,67.8333 79.5,69.1667 79.5,70.5C 81.9424,70.6463 82.6091,69.813 81.5,68C 83.0542,66.108 84.8876,64.608 87,63.5C 88.2247,63.8623 89.3914,64.3623 90.5,65C 89.8333,65.3333 89.1667,65.6667 88.5,66C 90.2889,66.5205 91.9556,66.1871 93.5,65C 92.3044,64.3457 92.3044,63.8457 93.5,63.5C 97.4104,63.4263 101.077,63.7597 104.5,64.5C 88.5905,71.0782 76.9238,82.0782 69.5,97.5C 67.1837,101.794 65.8504,106.46 65.5,111.5C 64.5119,116.64 64.1786,121.974 64.5,127.5C 64.1667,127.5 63.8333,127.5 63.5,127.5C 57.6506,126.336 51.6506,126.336 45.5,127.5C 42.7309,127.8 40.2309,128.8 38,130.5C 36.3058,128.571 34.1391,127.571 31.5,127.5C 31.6021,130.746 32.6021,133.58 34.5,136C 33.6879,138.622 32.6879,141.122 31.5,143.5C 25.1667,143.5 18.8333,143.5 12.5,143.5C 12.5,141.167 12.5,138.833 12.5,136.5C 10.8333,136.5 9.16667,136.5 7.5,136.5C 7.5,131.833 7.5,127.167 7.5,122.5C 10.3456,122.97 12.6789,122.137 14.5,120C 12.1316,119.144 9.79827,118.31 7.5,117.5C 7.359,111.474 7.69233,105.474 8.5,99.5C 8.64927,97.6803 9.31594,96.1803 10.5,95C 8.88279,91.7507 9.54946,89.084 12.5,87C 11.0108,83.7982 11.8441,81.2982 15,79.5C 15.3333,77.5 15.6667,75.5 16,73.5C 20.0759,64.5846 24.5759,55.9179 29.5,47.5 Z"/></g>
<g><path style="opacity:1" fill="#e9effc" d="M 227.5,63.5 C 229.382,66.9448 231.549,70.2781 234,73.5C 234.279,79.6231 235.946,85.2897 239,90.5C 240.987,102.706 241.82,115.039 241.5,127.5C 240.778,127.082 240.278,126.416 240,125.5C 239.502,122.518 239.335,119.518 239.5,116.5C 226.117,116.815 212.784,116.482 199.5,115.5C 198.304,115.846 198.304,116.346 199.5,117C 196.854,117.497 194.187,117.664 191.5,117.5C 191.5,116.167 191.5,114.833 191.5,113.5C 193.75,113.819 195.75,113.319 197.5,112C 193.991,112.021 190.825,111.188 188,109.5C 187.847,114.263 187.014,118.93 185.5,123.5C 185.167,123.5 184.833,123.5 184.5,123.5C 184.975,105.584 178.975,90.2504 166.5,77.5C 166.475,75.9177 166.309,74.251 166,72.5C 166.333,72.8333 166.667,73.1667 167,73.5C 168.399,72.7734 169.899,72.2734 171.5,72C 170.376,71.7508 169.376,71.2508 168.5,70.5C 171.093,68.9292 172.093,66.5959 171.5,63.5C 172.833,63.5 174.167,63.5 175.5,63.5C 175.5,64.5 175.5,65.5 175.5,66.5C 191.5,66.5 207.5,66.5 223.5,66.5C 223.383,68.4835 224.05,70.1502 225.5,71.5C 226.465,69.2922 227.131,66.6256 227.5,63.5 Z"/></g>
<g><path style="opacity:1" fill="#1f3e91" d="M 143.5,84.5 C 143.5,86.5 143.5,88.5 143.5,90.5C 139.044,87.546 135.044,84.046 131.5,80C 124.094,76.8878 116.761,76.7211 109.5,79.5C 108.127,79.3433 106.793,79.51 105.5,80C 102.333,82.1132 99,83.9466 95.5,85.5C 92.5228,88.6391 89.8561,91.9724 87.5,95.5C 86.2521,96.3339 85.5854,97.6672 85.5,99.5C 84.5321,104.074 84.1988,108.574 84.5,113C 86.265,117.461 87.9317,121.961 89.5,126.5C 96.7079,127.435 97.0412,128.935 90.5,131C 91.3636,132.697 92.6969,133.863 94.5,134.5C 96.4325,133.48 98.4325,133.313 100.5,134C 102.741,135.522 105.074,136.855 107.5,138C 114.163,138.168 120.829,138.001 127.5,137.5C 127.36,139.124 128.027,140.29 129.5,141C 126.825,142.861 123.825,143.861 120.5,144C 122.553,145.08 124.72,145.914 127,146.5C 129.196,143.875 132.03,142.875 135.5,143.5C 135.5,144.167 135.167,144.5 134.5,144.5C 131.376,146.273 128.043,147.606 124.5,148.5C 117.631,145.433 110.631,142.767 103.5,140.5C 99.1122,137.639 94.4455,135.306 89.5,133.5C 88.1325,131.858 87.7992,130.192 88.5,128.5C 87.675,127.614 86.675,127.281 85.5,127.5C 84.9232,122.763 83.9232,118.096 82.5,113.5C 83.5271,106.535 84.1937,99.5355 84.5,92.5C 84.427,90.9731 85.0937,89.9731 86.5,89.5C 90.159,88.6854 92.8256,86.5187 94.5,83C 98.1813,81.1821 101.515,79.0154 104.5,76.5C 113.851,75.2673 123.184,75.434 132.5,77C 135.386,79.4302 138.053,82.0968 140.5,85C 141.577,85.4696 142.577,85.3029 143.5,84.5 Z"/></g>
<g><path style="opacity:1" fill="#1b2a41" d="M 135.5,62.5 C 147.037,65.1021 157.37,70.1021 166.5,77.5C 178.975,90.2504 184.975,105.584 184.5,123.5C 184.5,123.833 184.5,124.167 184.5,124.5C 182.278,124.822 180.444,124.155 179,122.5C 178.462,119.92 177.296,117.753 175.5,116C 176.613,114.606 177.947,113.439 179.5,112.5C 178.311,111.571 176.978,111.238 175.5,111.5C 175.5,106.167 175.5,100.833 175.5,95.5C 174.167,95.5 172.833,95.5 171.5,95.5C 169.899,88.2685 165.899,82.9352 159.5,79.5C 159.313,76.7856 158.146,76.119 156,77.5C 152.197,74.8459 148.03,73.1792 143.5,72.5C 143.5,71.1667 143.5,69.8333 143.5,68.5C 133.897,66.8077 124.231,66.3077 114.5,67C 107.554,68.4921 101.221,70.9921 95.5,74.5C 93.567,74.7286 91.9003,75.5619 90.5,77C 87.2821,80.5957 83.9488,84.0957 80.5,87.5C 79.52,90.0865 79.1866,92.7531 79.5,95.5C 78.8333,95.5 78.1667,95.5 77.5,95.5C 75.8333,95.5 74.1667,95.5 72.5,95.5C 71.4281,101.65 69.7615,107.65 67.5,113.5C 68.1207,117.013 68.7873,120.513 69.5,124C 69.0217,125.303 68.355,126.469 67.5,127.5C 66.8333,127.5 66.1667,127.5 65.5,127.5C 65.1667,127.5 64.8333,127.5 64.5,127.5C 64.1786,121.974 64.5119,116.64 65.5,111.5C 67.95,107.314 69.2833,102.647 69.5,97.5C 76.9238,82.0782 88.5905,71.0782 104.5,64.5C 106.379,63.6586 108.379,63.3253 110.5,63.5C 118.8,62.6287 127.133,62.2953 135.5,62.5 Z"/></g>
<g><path style="opacity:1" fill="#1d3a81" d="M 143.5,84.5 C 142.577,85.3029 141.577,85.4696 140.5,85C 138.053,82.0968 135.386,79.4302 132.5,77C 123.184,75.434 113.851,75.2673 104.5,76.5C 101.515,79.0154 98.1813,81.1821 94.5,83C 92.8256,86.5187 90.159,88.6854 86.5,89.5C 89.7871,87.0123 91.7871,83.679 92.5,79.5C 93.5,79.5 94.5,79.5 95.5,79.5C 95.5,78.5 95.5,77.5 95.5,76.5C 99.1794,76.249 102.513,75.0823 105.5,73C 114.432,72.0548 123.265,72.5548 132,74.5C 133.923,76.2123 136.089,77.5456 138.5,78.5C 140.242,80.5634 141.909,82.5634 143.5,84.5 Z"/></g>
<g><path style="opacity:1" fill="#192f5e" d="M 159.5,79.5 C 159.5,82.1667 159.5,84.8333 159.5,87.5C 158.448,87.6495 157.448,87.4828 156.5,87C 152.789,84.4007 149.122,81.9007 145.5,79.5C 135.715,71.4762 124.382,68.3096 111.5,70C 107.885,70.7318 104.552,72.0651 101.5,74C 99.5273,74.4955 97.5273,74.6621 95.5,74.5C 101.221,70.9921 107.554,68.4921 114.5,67C 124.231,66.3077 133.897,66.8077 143.5,68.5C 143.5,69.8333 143.5,71.1667 143.5,72.5C 148.03,73.1792 152.197,74.8459 156,77.5C 158.146,76.119 159.313,76.7856 159.5,79.5 Z"/></g>
<g><path style="opacity:1" fill="#1a305f" d="M 95.5,74.5 C 95.5,75.1667 95.5,75.8333 95.5,76.5C 92.1441,77.0251 90.3107,79.0251 90,82.5C 85.0387,85.8119 81.5387,90.1452 79.5,95.5C 79.1866,92.7531 79.52,90.0865 80.5,87.5C 83.9488,84.0957 87.2821,80.5957 90.5,77C 91.9003,75.5619 93.567,74.7286 95.5,74.5 Z"/></g>
<g><path style="opacity:1" fill="#1c3980" d="M 84.5,92.5 C 84.1937,99.5355 83.5271,106.535 82.5,113.5C 83.9232,118.096 84.9232,122.763 85.5,127.5C 86.675,127.281 87.675,127.614 88.5,128.5C 87.7992,130.192 88.1325,131.858 89.5,133.5C 87.8333,132.833 86.1667,132.167 84.5,131.5C 84.1667,131.5 83.8333,131.5 83.5,131.5C 82.3646,129.787 80.698,129.12 78.5,129.5C 77.3227,116.559 79.3227,104.226 84.5,92.5 Z"/></g>
<g><path style="opacity:1" fill="#1b356e" d="M 95.5,76.5 C 95.5,77.5 95.5,78.5 95.5,79.5C 94.5,79.5 93.5,79.5 92.5,79.5C 91.7871,83.679 89.7871,87.0123 86.5,89.5C 85.0937,89.9731 84.427,90.9731 84.5,92.5C 79.3227,104.226 77.3227,116.559 78.5,129.5C 80.698,129.12 82.3646,129.787 83.5,131.5C 79.6871,131.062 76.3538,129.729 73.5,127.5C 74.6491,127.209 75.3158,126.376 75.5,125C 74.4463,119.194 74.2797,113.361 75,107.5C 76.3591,103.595 77.1924,99.5948 77.5,95.5C 78.1667,95.5 78.8333,95.5 79.5,95.5C 81.5387,90.1452 85.0387,85.8119 90,82.5C 90.3107,79.0251 92.1441,77.0251 95.5,76.5 Z"/></g>
<g><path style="opacity:1" fill="#1a3267" d="M 145.5,79.5 C 149.122,81.9007 152.789,84.4007 156.5,87C 157.448,87.4828 158.448,87.6495 159.5,87.5C 160.292,89.2572 161.625,90.5905 163.5,91.5C 164.966,95.0636 166.132,98.7302 167,102.5C 168.463,110.972 168.963,119.305 168.5,127.5C 165.566,129.46 162.566,131.127 159.5,132.5C 159.5,132.833 159.5,133.167 159.5,133.5C 156.319,133.998 153.653,133.165 151.5,131C 154.168,130.433 156.834,129.933 159.5,129.5C 159.583,123.09 160.249,116.756 161.5,110.5C 159.757,105.667 159.09,100.667 159.5,95.5C 158.5,95.5 157.5,95.5 156.5,95.5C 155.617,93.0905 154.45,90.7571 153,88.5C 149.918,85.9242 147.418,82.9242 145.5,79.5 Z"/></g>
<g><path style="opacity:1" fill="#434d5e" d="M 69.5,97.5 C 69.2833,102.647 67.95,107.314 65.5,111.5C 65.8504,106.46 67.1837,101.794 69.5,97.5 Z"/></g>
<g><path style="opacity:1" fill="#192b51" d="M 77.5,95.5 C 77.1924,99.5948 76.3591,103.595 75,107.5C 74.2797,113.361 74.4463,119.194 75.5,125C 75.3158,126.376 74.6491,127.209 73.5,127.5C 72.8333,127.5 72.1667,127.5 71.5,127.5C 70.1667,127.5 68.8333,127.5 67.5,127.5C 68.355,126.469 69.0217,125.303 69.5,124C 68.7873,120.513 68.1207,117.013 67.5,113.5C 69.7615,107.65 71.4281,101.65 72.5,95.5C 74.1667,95.5 75.8333,95.5 77.5,95.5 Z"/></g>
<g><path style="opacity:1" fill="#f0f1fd" d="M 241.5,127.5 C 241.318,133.196 240.651,138.529 239.5,143.5C 234.167,143.5 228.833,143.5 223.5,143.5C 223.5,145.833 223.5,148.167 223.5,150.5C 222.5,150.5 221.5,150.5 220.5,150.5C 220.007,148.194 219.674,145.861 219.5,143.5C 218.5,143.5 217.5,143.5 216.5,143.5C 218.065,138.304 219.732,133.138 221.5,128C 217.686,127.789 215.186,129.622 214,133.5C 213.82,131.512 213.986,129.512 214.5,127.5C 212.396,127.201 210.396,127.534 208.5,128.5C 210.438,130.799 212.104,133.299 213.5,136C 212.219,140.377 212.219,144.711 213.5,149C 210.467,150.844 207.134,151.844 203.5,152C 201.587,153.724 199.587,155.224 197.5,156.5C 197.833,155.833 198.167,155.167 198.5,154.5C 198.833,153.833 199.167,153.167 199.5,152.5C 201.23,151.974 202.564,150.974 203.5,149.5C 208.507,145.767 210.341,140.767 209,134.5C 208.617,133.944 208.117,133.611 207.5,133.5C 206.299,129.642 203.633,127.642 199.5,127.5C 194.702,126.285 190.035,124.952 185.5,123.5C 187.014,118.93 187.847,114.263 188,109.5C 190.825,111.188 193.991,112.021 197.5,112C 195.75,113.319 193.75,113.819 191.5,113.5C 191.5,114.833 191.5,116.167 191.5,117.5C 194.187,117.664 196.854,117.497 199.5,117C 198.304,116.346 198.304,115.846 199.5,115.5C 212.784,116.482 226.117,116.815 239.5,116.5C 239.335,119.518 239.502,122.518 240,125.5C 240.278,126.416 240.778,127.082 241.5,127.5 Z"/></g>
<g><path style="opacity:1" fill="#2244a7" d="M 109.5,79.5 C 132.258,78.9474 142.425,89.9474 140,112.5C 138.16,118.344 135.66,123.844 132.5,129C 122.252,134.09 111.918,134.423 101.5,130C 97.1937,125.939 93.027,121.772 89,117.5C 87.6095,110.254 87.1095,102.921 87.5,95.5C 89.8561,91.9724 92.5228,88.6391 95.5,85.5C 99,83.9466 102.333,82.1132 105.5,80C 106.793,79.51 108.127,79.3433 109.5,79.5 Z"/></g>
<g><path style="opacity:1" fill="#254bc2" d="M 133.5,95.5 C 134.955,102.438 134.122,109.105 131,115.5C 116.647,125.805 103.647,124.471 92,111.5C 90.3221,106.233 90.1555,100.9 91.5,95.5C 92.4185,93.1795 93.7518,91.0129 95.5,89C 98.6612,87.5869 101.661,85.9203 104.5,84C 109.818,82.0707 115.151,82.0707 120.5,84C 123.948,85.95 127.615,87.45 131.5,88.5C 132.946,90.6179 133.613,92.9512 133.5,95.5 Z"/></g>
<g><path style="opacity:1" fill="#2851d9" d="M 104.5,86.5 C 110.105,85.9081 115.439,86.7415 120.5,89C 121.423,91.0408 121.756,93.2075 121.5,95.5C 122.5,95.5 123.5,95.5 124.5,95.5C 124.663,97.8568 124.497,100.19 124,102.5C 122.334,101.66 122.167,102.16 123.5,104C 120.976,105.883 119.642,108.383 119.5,111.5C 112.833,111.5 106.167,111.5 99.5,111.5C 98.455,107.077 97.1216,102.744 95.5,98.5C 96.7014,92.9883 99.7014,88.9883 104.5,86.5 Z"/></g>
<g><path style="opacity:1" fill="#2a55e7" d="M 106.5,87.5 C 119.716,87.8546 122.383,93.188 114.5,103.5C 106.48,108.939 101.48,106.939 99.5,97.5C 100.346,93.0086 102.679,89.6752 106.5,87.5 Z"/></g>
<g><path style="opacity:1" fill="#1f3b87" d="M 143.5,84.5 C 146.414,85.9061 148.914,87.9061 151,90.5C 151.548,98.9404 152.715,107.274 154.5,115.5C 154.154,116.696 153.654,116.696 153,115.5C 152.727,117.101 152.227,118.601 151.5,120C 151.957,120.414 152.291,120.914 152.5,121.5C 150.97,126.137 148.303,129.803 144.5,132.5C 143.548,134.045 143.215,135.712 143.5,137.5C 145.912,137.756 147.579,136.756 148.5,134.5C 151.985,134.689 155.652,134.689 159.5,134.5C 157.844,136.06 155.844,137.06 153.5,137.5C 147.358,139.199 141.358,141.199 135.5,143.5C 132.03,142.875 129.196,143.875 127,146.5C 124.72,145.914 122.553,145.08 120.5,144C 123.825,143.861 126.825,142.861 129.5,141C 128.027,140.29 127.36,139.124 127.5,137.5C 135.196,135.633 141.029,131.299 145,124.5C 149.739,115.329 150.905,105.662 148.5,95.5C 146.833,95.5 145.167,95.5 143.5,95.5C 143.5,93.8333 143.5,92.1667 143.5,90.5C 143.5,88.5 143.5,86.5 143.5,84.5 Z"/></g>
<g><path style="opacity:1" fill="#192b51" d="M 159.5,79.5 C 165.899,82.9352 169.899,88.2685 171.5,95.5C 172.833,95.5 174.167,95.5 175.5,95.5C 175.5,100.833 175.5,106.167 175.5,111.5C 176.978,111.238 178.311,111.571 179.5,112.5C 177.947,113.439 176.613,114.606 175.5,116C 177.296,117.753 178.462,119.92 179,122.5C 180.444,124.155 182.278,124.822 184.5,124.5C 184.5,125.5 184.5,126.5 184.5,127.5C 181.5,127.5 178.5,127.5 175.5,127.5C 173.167,127.5 170.833,127.5 168.5,127.5C 168.963,119.305 168.463,110.972 167,102.5C 166.132,98.7302 164.966,95.0636 163.5,91.5C 161.625,90.5905 160.292,89.2572 159.5,87.5C 159.5,84.8333 159.5,82.1667 159.5,79.5 Z"/></g>
<g><path style="opacity:1" fill="#1d3779" d="M 145.5,79.5 C 147.418,82.9242 149.918,85.9242 153,88.5C 154.45,90.7571 155.617,93.0905 156.5,95.5C 157.5,95.5 158.5,95.5 159.5,95.5C 159.09,100.667 159.757,105.667 161.5,110.5C 160.249,116.756 159.583,123.09 159.5,129.5C 156.834,129.933 154.168,130.433 151.5,131C 153.653,133.165 156.319,133.998 159.5,133.5C 159.5,133.833 159.5,134.167 159.5,134.5C 155.652,134.689 151.985,134.689 148.5,134.5C 147.579,136.756 145.912,137.756 143.5,137.5C 143.215,135.712 143.548,134.045 144.5,132.5C 148.303,129.803 150.97,126.137 152.5,121.5C 152.291,120.914 151.957,120.414 151.5,120C 152.227,118.601 152.727,117.101 153,115.5C 153.654,116.696 154.154,116.696 154.5,115.5C 152.715,107.274 151.548,98.9404 151,90.5C 148.914,87.9061 146.414,85.9061 143.5,84.5C 141.909,82.5634 140.242,80.5634 138.5,78.5C 136.089,77.5456 133.923,76.2123 132,74.5C 123.265,72.5548 114.432,72.0548 105.5,73C 102.513,75.0823 99.1794,76.249 95.5,76.5C 95.5,75.8333 95.5,75.1667 95.5,74.5C 97.5273,74.6621 99.5273,74.4955 101.5,74C 104.552,72.0651 107.885,70.7318 111.5,70C 124.382,68.3096 135.715,71.4762 145.5,79.5 Z"/></g>
<g><path style="opacity:1" fill="#b6a7dc" d="M 184.5,123.5 C 184.833,123.5 185.167,123.5 185.5,123.5C 190.035,124.952 194.702,126.285 199.5,127.5C 194.5,127.5 189.5,127.5 184.5,127.5C 184.5,126.5 184.5,125.5 184.5,124.5C 184.5,124.167 184.5,123.833 184.5,123.5 Z"/></g>
<g><path style="opacity:1" fill="#7fcee9" d="M 63.5,127.5 C 61.1432,127.337 58.8098,127.503 56.5,128C 57.2931,131.411 57.7931,134.911 58,138.5C 59.5,140 61,141.5 62.5,143C 60.5,146.333 57.8333,149 54.5,151C 55.1189,152.757 56.2856,153.924 58,154.5C 59.3333,153.167 60.6667,151.833 62,150.5C 64.321,151.822 66.4877,153.322 68.5,155C 65.6353,155.183 62.9686,155.683 60.5,156.5C 59.4331,158.879 60.4331,159.879 63.5,159.5C 63.5,160.833 63.5,162.167 63.5,163.5C 61.1495,162.139 58.8162,160.806 56.5,159.5C 50.8686,154.37 45.3686,149.036 40,143.5C 39.3333,140.5 39.3333,137.5 40,134.5C 41.6665,132.004 43.4998,129.671 45.5,127.5C 51.6506,126.336 57.6506,126.336 63.5,127.5 Z"/></g>
<g><path style="opacity:1" fill="#214099" d="M 143.5,90.5 C 143.5,92.1667 143.5,93.8333 143.5,95.5C 145.167,95.5 146.833,95.5 148.5,95.5C 150.905,105.662 149.739,115.329 145,124.5C 141.029,131.299 135.196,135.633 127.5,137.5C 120.829,138.001 114.163,138.168 107.5,138C 105.074,136.855 102.741,135.522 100.5,134C 98.4325,133.313 96.4325,133.48 94.5,134.5C 92.6969,133.863 91.3636,132.697 90.5,131C 97.0412,128.935 96.7079,127.435 89.5,126.5C 87.9317,121.961 86.265,117.461 84.5,113C 84.1988,108.574 84.5321,104.074 85.5,99.5C 85.5854,97.6672 86.2521,96.3339 87.5,95.5C 87.1095,102.921 87.6095,110.254 89,117.5C 93.027,121.772 97.1937,125.939 101.5,130C 111.918,134.423 122.252,134.09 132.5,129C 135.66,123.844 138.16,118.344 140,112.5C 142.425,89.9474 132.258,78.9474 109.5,79.5C 116.761,76.7211 124.094,76.8878 131.5,80C 135.044,84.046 139.044,87.546 143.5,90.5 Z"/></g>
<g><path style="opacity:1" fill="#2347b2" d="M 91.5,95.5 C 90.1555,100.9 90.3221,106.233 92,111.5C 103.647,124.471 116.647,125.805 131,115.5C 134.122,109.105 134.955,102.438 133.5,95.5C 134.649,95.7911 135.316,96.6244 135.5,98C 137.518,105.344 136.518,112.178 132.5,118.5C 129.474,121.195 126.474,123.862 123.5,126.5C 119.001,127.249 114.501,127.916 110,128.5C 101.562,124.943 94.8951,119.277 90,111.5C 89.8333,109.333 89.6667,107.167 89.5,105C 89.3275,101.523 89.9942,98.356 91.5,95.5 Z"/></g>
<g><path style="opacity:1" fill="#222c74" d="M 168.5,127.5 C 170.833,127.5 173.167,127.5 175.5,127.5C 170.85,130.652 165.517,132.319 159.5,132.5C 162.566,131.127 165.566,129.46 168.5,127.5 Z"/></g>
<g><path style="opacity:1" fill="#38359d" d="M 175.5,127.5 C 178.5,127.5 181.5,127.5 184.5,127.5C 184.167,128.833 183.833,130.167 183.5,131.5C 178.467,130.909 173.8,131.909 169.5,134.5C 169.422,140.422 169.422,146.588 169.5,153C 168.449,154.385 167.116,155.385 165.5,156C 165.619,157.145 165.952,158.312 166.5,159.5C 164.167,159.5 161.833,159.5 159.5,159.5C 159.5,158.167 159.5,156.833 159.5,155.5C 155.336,155.874 151.336,155.874 147.5,155.5C 149.378,154.792 151.045,153.626 152.5,152C 151.651,148.893 151.317,145.893 151.5,143C 153.991,142.374 153.991,141.541 151.5,140.5C 152.193,139.482 152.859,138.482 153.5,137.5C 155.844,137.06 157.844,136.06 159.5,134.5C 159.5,134.167 159.5,133.833 159.5,133.5C 159.5,133.167 159.5,132.833 159.5,132.5C 165.517,132.319 170.85,130.652 175.5,127.5 Z"/></g>
<g><path style="opacity:1" fill="#b18ff7" d="M 184.5,127.5 C 189.5,127.5 194.5,127.5 199.5,127.5C 203.633,127.642 206.299,129.642 207.5,133.5C 204.471,132.005 201.304,130.672 198,129.5C 195.863,130.077 193.696,130.41 191.5,130.5C 191.817,133.572 191.484,136.572 190.5,139.5C 189.029,138.619 188.196,137.286 188,135.5C 187.287,139.366 186.12,143.033 184.5,146.5C 186.672,147.801 189.005,148.801 191.5,149.5C 191.281,148.325 191.614,147.325 192.5,146.5C 193.833,147.5 195.167,148.5 196.5,149.5C 191.006,151.191 186.006,153.691 181.5,157C 179.722,157.704 177.888,158.204 176,158.5C 174.624,158.316 173.791,157.649 173.5,156.5C 178.778,148.944 182.112,140.61 183.5,131.5C 183.833,130.167 184.167,128.833 184.5,127.5 Z"/></g>
<g><path style="opacity:1" fill="#215baa" d="M 84.5,131.5 C 86.1667,132.167 87.8333,132.833 89.5,133.5C 94.4455,135.306 99.1122,137.639 103.5,140.5C 102.811,141.774 101.977,141.774 101,140.5C 100.348,142.723 98.8483,143.89 96.5,144C 99.8333,145.667 103.167,147.333 106.5,149C 106.082,151.397 105.082,153.897 103.5,156.5C 100.833,156.833 98.1667,157.167 95.5,157.5C 96.0715,156.027 96.0715,154.36 95.5,152.5C 96.552,152.649 97.552,152.483 98.5,152C 94.5507,151.025 91.2174,149.025 88.5,146C 88.6667,145.5 88.8333,145 89,144.5C 89.7175,145.451 90.5509,145.617 91.5,145C 89.9861,143.561 89.6527,142.061 90.5,140.5C 88.1152,137.777 86.1152,134.777 84.5,131.5 Z"/></g>
<g><path style="opacity:1" fill="#3145ab" d="M 153.5,137.5 C 152.859,138.482 152.193,139.482 151.5,140.5C 153.991,141.541 153.991,142.374 151.5,143C 151.317,145.893 151.651,148.893 152.5,152C 151.045,153.626 149.378,154.792 147.5,155.5C 143.368,154.866 139.368,153.866 135.5,152.5C 133.621,152.607 133.288,152.107 134.5,151C 133.207,150.51 131.873,150.343 130.5,150.5C 131.23,148.955 132.563,148.122 134.5,148C 133.829,147.014 133.829,145.847 134.5,144.5C 135.167,144.5 135.5,144.167 135.5,143.5C 141.358,141.199 147.358,139.199 153.5,137.5 Z"/></g>
<g><path style="opacity:1" fill="#fdfdfd" d="M -0.5,144.5 C 0.391047,145.11 1.39105,145.443 2.5,145.5C 4.59827,153.969 7.76494,161.969 12,169.5C 12.4955,171.473 12.6621,173.473 12.5,175.5C 13.5,175.5 14.5,175.5 15.5,175.5C 15.3379,177.527 15.5045,179.527 16,181.5C 18.3333,184.5 20.6667,187.5 23,190.5C 23.7348,192.871 24.5682,195.205 25.5,197.5C 25.2907,198.086 24.9574,198.586 24.5,199C 29.1191,201.465 33.1191,204.632 36.5,208.5C 36.5394,209.583 36.8728,210.583 37.5,211.5C 39.6239,212.458 41.6239,213.625 43.5,215C 43.0426,215.414 42.7093,215.914 42.5,216.5C 48.4891,220.778 54.8224,224.278 61.5,227C 64.4183,230.554 68.085,233.221 72.5,235C 74.74,235.977 77.0733,236.477 79.5,236.5C 79.5,237.5 79.5,238.5 79.5,239.5C 81.8568,239.337 84.1902,239.503 86.5,240C 91.0382,242.846 96.0382,244.179 101.5,244C 104.867,244.8 108.034,245.966 111,247.5C 121.752,246.513 132.585,246.18 143.5,246.5C 145.75,246.181 147.75,246.681 149.5,248C 148.263,248.232 147.263,248.732 146.5,249.5C 97.5,249.5 48.5,249.5 -0.5,249.5C -0.5,214.5 -0.5,179.5 -0.5,144.5 Z"/></g>
<g><path style="opacity:1" fill="#185f8a" d="M 65.5,127.5 C 66.1667,127.5 66.8333,127.5 67.5,127.5C 68.8333,127.5 70.1667,127.5 71.5,127.5C 71.8333,128.5 72.5,129.167 73.5,129.5C 73.1778,132.306 72.1778,134.806 70.5,137C 72.5888,139.281 73.2554,141.781 72.5,144.5C 73.154,146.115 73.654,147.782 74,149.5C 76.7147,149.954 78.548,151.454 79.5,154C 78.8699,155.31 77.8699,156.144 76.5,156.5C 69.9514,148.007 66.2847,138.341 65.5,127.5 Z"/></g>
<g><path style="opacity:1" fill="#b58ce6" d="M 207.5,133.5 C 208.117,133.611 208.617,133.944 209,134.5C 210.341,140.767 208.507,145.767 203.5,149.5C 203.833,146.833 204.167,144.167 204.5,141.5C 205.5,141.5 206.5,141.5 207.5,141.5C 207.5,138.833 207.5,136.167 207.5,133.5 Z"/></g>
<g><path style="opacity:1" fill="#3e2d95" d="M 183.5,131.5 C 182.112,140.61 178.778,148.944 173.5,156.5C 172.094,156.973 171.427,157.973 171.5,159.5C 171.167,159.5 170.833,159.5 170.5,159.5C 169.167,159.5 167.833,159.5 166.5,159.5C 165.952,158.312 165.619,157.145 165.5,156C 167.116,155.385 168.449,154.385 169.5,153C 169.422,146.588 169.422,140.422 169.5,134.5C 173.8,131.909 178.467,130.909 183.5,131.5 Z"/></g>
<g><path style="opacity:1" fill="#b686fa" d="M 207.5,133.5 C 207.5,136.167 207.5,138.833 207.5,141.5C 206.5,141.5 205.5,141.5 204.5,141.5C 204.167,144.167 203.833,146.833 203.5,149.5C 202.564,150.974 201.23,151.974 199.5,152.5C 199.631,151.624 199.298,150.957 198.5,150.5C 192.792,153.354 187.125,156.187 181.5,159C 178.183,159.498 174.85,159.665 171.5,159.5C 171.427,157.973 172.094,156.973 173.5,156.5C 173.791,157.649 174.624,158.316 176,158.5C 177.888,158.204 179.722,157.704 181.5,157C 186.006,153.691 191.006,151.191 196.5,149.5C 195.167,148.5 193.833,147.5 192.5,146.5C 191.614,147.325 191.281,148.325 191.5,149.5C 189.005,148.801 186.672,147.801 184.5,146.5C 186.12,143.033 187.287,139.366 188,135.5C 188.196,137.286 189.029,138.619 190.5,139.5C 191.484,136.572 191.817,133.572 191.5,130.5C 193.696,130.41 195.863,130.077 198,129.5C 201.304,130.672 204.471,132.005 207.5,133.5 Z"/></g>
<g><path style="opacity:1" fill="#175d93" d="M 73.5,129.5 C 74.1174,129.611 74.6174,129.944 75,130.5C 75.6667,133.167 76.3333,135.833 77,138.5C 79.7439,139.632 82.2439,141.132 84.5,143C 83.8333,143.333 83.1667,143.667 82.5,144C 85.3249,145.474 85.6582,146.974 83.5,148.5C 87.4315,150.818 88.0982,153.651 85.5,157C 86.4158,157.278 87.0825,157.778 87.5,158.5C 86.5084,158.328 85.8417,158.662 85.5,159.5C 83.5,159.5 81.5,159.5 79.5,159.5C 78.5,158.833 77.5,158.167 76.5,157.5C 76.5,157.167 76.5,156.833 76.5,156.5C 77.8699,156.144 78.8699,155.31 79.5,154C 78.548,151.454 76.7147,149.954 74,149.5C 73.654,147.782 73.154,146.115 72.5,144.5C 73.2554,141.781 72.5888,139.281 70.5,137C 72.1778,134.806 73.1778,132.306 73.5,129.5 Z"/></g>
<g><path style="opacity:1" fill="#81caed" d="M 63.5,127.5 C 63.8333,127.5 64.1667,127.5 64.5,127.5C 64.8333,127.5 65.1667,127.5 65.5,127.5C 66.2847,138.341 69.9514,148.007 76.5,156.5C 76.5,156.833 76.5,157.167 76.5,157.5C 75.3784,158.156 74.0451,158.489 72.5,158.5C 68.4665,157.96 64.4665,157.293 60.5,156.5C 62.9686,155.683 65.6353,155.183 68.5,155C 66.4877,153.322 64.321,151.822 62,150.5C 60.6667,151.833 59.3333,153.167 58,154.5C 56.2856,153.924 55.1189,152.757 54.5,151C 57.8333,149 60.5,146.333 62.5,143C 61,141.5 59.5,140 58,138.5C 57.7931,134.911 57.2931,131.411 56.5,128C 58.8098,127.503 61.1432,127.337 63.5,127.5 Z"/></g>
<g><path style="opacity:1" fill="#1b5d9f" d="M 71.5,127.5 C 72.1667,127.5 72.8333,127.5 73.5,127.5C 76.3538,129.729 79.6871,131.062 83.5,131.5C 83.8333,131.5 84.1667,131.5 84.5,131.5C 86.1152,134.777 88.1152,137.777 90.5,140.5C 89.6527,142.061 89.9861,143.561 91.5,145C 90.5509,145.617 89.7175,145.451 89,144.5C 88.8333,145 88.6667,145.5 88.5,146C 91.2174,149.025 94.5507,151.025 98.5,152C 97.552,152.483 96.552,152.649 95.5,152.5C 96.0715,154.36 96.0715,156.027 95.5,157.5C 93.0521,158.473 90.3854,158.806 87.5,158.5C 87.0825,157.778 86.4158,157.278 85.5,157C 88.0982,153.651 87.4315,150.818 83.5,148.5C 85.6582,146.974 85.3249,145.474 82.5,144C 83.1667,143.667 83.8333,143.333 84.5,143C 82.2439,141.132 79.7439,139.632 77,138.5C 76.3333,135.833 75.6667,133.167 75,130.5C 74.6174,129.944 74.1174,129.611 73.5,129.5C 72.5,129.167 71.8333,128.5 71.5,127.5 Z"/></g>
<g><path style="opacity:1" fill="#3b48bf" d="M 135.5,152.5 C 139.368,153.866 143.368,154.866 147.5,155.5C 151.336,155.874 155.336,155.874 159.5,155.5C 159.5,156.833 159.5,158.167 159.5,159.5C 156.167,159.5 152.833,159.5 149.5,159.5C 149.708,161.92 149.374,164.253 148.5,166.5C 149.466,169.201 150.466,171.868 151.5,174.5C 151.5,174.833 151.5,175.167 151.5,175.5C 148.79,176.506 146.124,177.506 143.5,178.5C 141.833,178.5 140.167,178.5 138.5,178.5C 137.637,175.685 136.304,172.685 134.5,169.5C 135.441,169.511 136.108,169.011 136.5,168C 135.351,166.27 135.351,164.604 136.5,163C 135.809,161.933 135.309,160.766 135,159.5C 134.333,158.167 133.667,158.167 133,159.5C 132.333,158.5 132.333,157.5 133,156.5C 133.893,157.711 134.726,157.711 135.5,156.5C 134.193,155.135 134.193,153.802 135.5,152.5 Z"/></g>
<g><path style="opacity:1" fill="#e1c8f7" d="M 198.5,154.5 C 198.167,155.167 197.833,155.833 197.5,156.5C 196.078,157.925 194.411,158.925 192.5,159.5C 193.911,157.086 195.911,155.419 198.5,154.5 Z"/></g>
<g><path style="opacity:1" fill="#3453c0" d="M 129.5,150.5 C 129.833,150.5 130.167,150.5 130.5,150.5C 131.873,150.343 133.207,150.51 134.5,151C 133.288,152.107 133.621,152.607 135.5,152.5C 134.193,153.802 134.193,155.135 135.5,156.5C 134.726,157.711 133.893,157.711 133,156.5C 132.333,157.5 132.333,158.5 133,159.5C 133.667,158.167 134.333,158.167 135,159.5C 135.309,160.766 135.809,161.933 136.5,163C 135.351,164.604 135.351,166.27 136.5,168C 136.108,169.011 135.441,169.511 134.5,169.5C 136.304,172.685 137.637,175.685 138.5,178.5C 135.753,178.813 133.086,178.48 130.5,177.5C 131.376,176.749 132.376,176.249 133.5,176C 131.527,175.505 129.527,175.338 127.5,175.5C 127.753,173.173 127.086,171.173 125.5,169.5C 127.141,166.442 127.974,163.108 128,159.5C 130.109,158.965 130.609,157.965 129.5,156.5C 130.167,155.5 130.833,154.5 131.5,153.5C 130.388,152.735 129.721,151.735 129.5,150.5 Z"/></g>
<g><path style="opacity:1" fill="#295eb9" d="M 103.5,140.5 C 110.631,142.767 117.631,145.433 124.5,148.5C 128.043,147.606 131.376,146.273 134.5,144.5C 133.829,145.847 133.829,147.014 134.5,148C 132.563,148.122 131.23,148.955 130.5,150.5C 130.167,150.5 129.833,150.5 129.5,150.5C 123.752,148.487 118.752,149.654 114.5,154C 116.116,154.615 117.449,155.615 118.5,157C 117.299,160.264 117.299,163.597 118.5,167C 119.289,169.267 119.956,171.6 120.5,174C 120.905,174.945 121.572,175.612 122.5,176C 121.167,176.667 119.833,177.333 118.5,178C 125.136,178.952 131.803,179.452 138.5,179.5C 130.35,180.493 122.017,180.826 113.5,180.5C 112.833,180.5 112.167,180.5 111.5,180.5C 111.158,179.662 110.492,179.328 109.5,179.5C 106.825,177.311 105.159,174.477 104.5,171C 104.904,167.737 104.904,164.57 104.5,161.5C 106.083,160.071 106.75,158.571 106.5,157C 105.552,156.517 104.552,156.351 103.5,156.5C 105.082,153.897 106.082,151.397 106.5,149C 103.167,147.333 99.8333,145.667 96.5,144C 98.8483,143.89 100.348,142.723 101,140.5C 101.977,141.774 102.811,141.774 103.5,140.5 Z"/></g>
<g><path style="opacity:1" fill="#f3f6fc" d="M 223.5,53.5 C 226.123,54.9541 228.289,56.9541 230,59.5C 231.145,63.9642 233.145,67.9642 236,71.5C 240.088,80.8607 243.088,90.5274 245,100.5C 246.04,120.275 245.207,139.942 242.5,159.5C 241.5,159.5 240.5,159.5 239.5,159.5C 239.665,163.182 239.499,166.848 239,170.5C 236.337,177.992 232.504,184.825 227.5,191C 226.207,191.49 224.873,191.657 223.5,191.5C 222.833,191.5 222.167,191.5 221.5,191.5C 222.025,186.882 220.692,185.882 217.5,188.5C 214.73,185.97 211.397,184.97 207.5,185.5C 207.5,186.833 207.5,188.167 207.5,189.5C 210.247,189.187 212.914,189.52 215.5,190.5C 214.066,191.23 212.9,192.23 212,193.5C 210.751,191.008 209.584,191.175 208.5,194C 202.843,194.499 197.176,194.666 191.5,194.5C 191.5,193.5 191.5,192.5 191.5,191.5C 175.486,191.833 159.486,191.499 143.5,190.5C 148.69,190.721 154.024,190.388 159.5,189.5C 159.5,188.167 159.5,186.833 159.5,185.5C 154.146,185.431 148.813,185.098 143.5,184.5C 143.5,183.5 143.5,182.5 143.5,181.5C 142.167,181.5 140.833,181.5 139.5,181.5C 140.833,180.833 142.167,180.167 143.5,179.5C 146.167,179.167 148.833,178.833 151.5,178.5C 154.542,178.267 157.208,177.267 159.5,175.5C 165.279,174.022 170.612,171.688 175.5,168.5C 178.157,168.065 180.491,167.065 182.5,165.5C 186.049,164.277 189.049,162.277 191.5,159.5C 191.833,159.5 192.167,159.5 192.5,159.5C 194.411,158.925 196.078,157.925 197.5,156.5C 199.587,155.224 201.587,153.724 203.5,152C 207.134,151.844 210.467,150.844 213.5,149C 212.219,144.711 212.219,140.377 213.5,136C 212.104,133.299 210.438,130.799 208.5,128.5C 210.396,127.534 212.396,127.201 214.5,127.5C 213.986,129.512 213.82,131.512 214,133.5C 215.186,129.622 217.686,127.789 221.5,128C 219.732,133.138 218.065,138.304 216.5,143.5C 217.5,143.5 218.5,143.5 219.5,143.5C 219.674,145.861 220.007,148.194 220.5,150.5C 221.5,150.5 222.5,150.5 223.5,150.5C 223.5,148.167 223.5,145.833 223.5,143.5C 228.833,143.5 234.167,143.5 239.5,143.5C 240.651,138.529 241.318,133.196 241.5,127.5C 241.82,115.039 240.987,102.706 239,90.5C 235.946,85.2897 234.279,79.6231 234,73.5C 231.549,70.2781 229.382,66.9448 227.5,63.5C 226.183,60.1928 224.849,56.8595 223.5,53.5 Z"/></g>
<g><path style="opacity:1" fill="#58b3e2" d="M 60.5,156.5 C 64.4665,157.293 68.4665,157.96 72.5,158.5C 74.0451,158.489 75.3784,158.156 76.5,157.5C 77.5,158.167 78.5,158.833 79.5,159.5C 81.0908,162.431 83.0908,165.098 85.5,167.5C 84.93,171.421 86.5967,173.588 90.5,174C 89.944,174.383 89.6107,174.883 89.5,175.5C 80.1434,172.763 71.4767,168.763 63.5,163.5C 63.5,162.167 63.5,160.833 63.5,159.5C 60.4331,159.879 59.4331,158.879 60.5,156.5 Z"/></g>
<g><path style="opacity:1" fill="#9f7cdc" d="M 191.5,159.5 C 189.049,162.277 186.049,164.277 182.5,165.5C 184.457,161.973 187.457,159.973 191.5,159.5 Z"/></g>
<g><path style="opacity:1" fill="#226cb8" d="M 103.5,156.5 C 104.552,156.351 105.552,156.517 106.5,157C 106.75,158.571 106.083,160.071 104.5,161.5C 104.904,164.57 104.904,167.737 104.5,171C 105.159,174.477 106.825,177.311 109.5,179.5C 107.708,179.634 106.042,179.301 104.5,178.5C 100.747,176.788 97.0806,174.788 93.5,172.5C 95.0746,170.886 95.7413,168.886 95.5,166.5C 93.4086,166.682 91.4086,166.348 89.5,165.5C 87.103,163.704 85.7697,161.704 85.5,159.5C 85.8417,158.662 86.5084,158.328 87.5,158.5C 90.3854,158.806 93.0521,158.473 95.5,157.5C 98.1667,157.167 100.833,156.833 103.5,156.5 Z"/></g>
<g><path style="opacity:1" fill="#8f65ee" d="M 199.5,152.5 C 199.167,153.167 198.833,153.833 198.5,154.5C 195.911,155.419 193.911,157.086 192.5,159.5C 192.167,159.5 191.833,159.5 191.5,159.5C 187.457,159.973 184.457,161.973 182.5,165.5C 180.491,167.065 178.157,168.065 175.5,168.5C 173.473,168.338 171.473,168.505 169.5,169C 167.662,171.303 165.328,171.969 162.5,171C 163.774,170.023 163.774,169.189 162.5,168.5C 165.509,165.823 168.176,162.823 170.5,159.5C 170.833,159.5 171.167,159.5 171.5,159.5C 174.85,159.665 178.183,159.498 181.5,159C 187.125,156.187 192.792,153.354 198.5,150.5C 199.298,150.957 199.631,151.624 199.5,152.5 Z"/></g>
<g><path style="opacity:1" fill="#f3f6fc" d="M 29.5,47.5 C 24.5759,55.9179 20.0759,64.5846 16,73.5C 15.6667,75.5 15.3333,77.5 15,79.5C 11.8441,81.2982 11.0108,83.7982 12.5,87C 9.54946,89.084 8.88279,91.7507 10.5,95C 9.31594,96.1803 8.64927,97.6803 8.5,99.5C 7.69233,105.474 7.359,111.474 7.5,117.5C 9.79827,118.31 12.1316,119.144 14.5,120C 12.6789,122.137 10.3456,122.97 7.5,122.5C 7.5,127.167 7.5,131.833 7.5,136.5C 9.16667,136.5 10.8333,136.5 12.5,136.5C 12.5,138.833 12.5,141.167 12.5,143.5C 18.8333,143.5 25.1667,143.5 31.5,143.5C 32.6879,141.122 33.6879,138.622 34.5,136C 32.6021,133.58 31.6021,130.746 31.5,127.5C 34.1391,127.571 36.3058,128.571 38,130.5C 40.2309,128.8 42.7309,127.8 45.5,127.5C 43.4998,129.671 41.6665,132.004 40,134.5C 39.3333,137.5 39.3333,140.5 40,143.5C 45.3686,149.036 50.8686,154.37 56.5,159.5C 57.1669,163.541 59.5003,165.541 63.5,165.5C 63.5,166.833 63.5,168.167 63.5,169.5C 65.1033,169.312 66.4366,169.812 67.5,171C 66.3147,172.353 64.9814,173.52 63.5,174.5C 64.3333,174.833 65.1667,175.167 66,175.5C 67.8773,174.747 69.7107,173.914 71.5,173C 70.3463,172.086 70.513,171.253 72,170.5C 76.5175,172.67 81.0175,174.837 85.5,177C 83.765,177.651 82.0983,177.485 80.5,176.5C 79.5344,178.396 79.2011,180.396 79.5,182.5C 63.5,182.5 47.5,182.5 31.5,182.5C 31.5,181.167 31.5,179.833 31.5,178.5C 30.1779,178.33 29.0113,178.663 28,179.5C 26.9704,181.588 26.1371,183.755 25.5,186C 26.3195,187.8 26.9862,189.634 27.5,191.5C 27.4231,194.025 28.5898,196.358 31,198.5C 31.49,199.793 31.6567,201.127 31.5,202.5C 35.5622,202.869 37.2288,204.869 36.5,208.5C 33.1191,204.632 29.1191,201.465 24.5,199C 24.9574,198.586 25.2907,198.086 25.5,197.5C 24.5682,195.205 23.7348,192.871 23,190.5C 20.6667,187.5 18.3333,184.5 16,181.5C 15.5045,179.527 15.3379,177.527 15.5,175.5C 14.5,175.5 13.5,175.5 12.5,175.5C 12.6621,173.473 12.4955,171.473 12,169.5C 7.76494,161.969 4.59827,153.969 2.5,145.5C 0.683998,128.563 1.51733,111.896 5,95.5C 7.81344,87.5741 10.3134,79.5741 12.5,71.5C 13.5,71.5 14.5,71.5 15.5,71.5C 15.3398,69.8008 15.5065,68.1341 16,66.5C 19.5207,61.4585 22.5207,56.1251 25,50.5C 26.129,48.8588 27.629,47.8588 29.5,47.5 Z"/></g>
<g><path style="opacity:1" fill="#315ac0" d="M 129.5,150.5 C 129.721,151.735 130.388,152.735 131.5,153.5C 130.833,154.5 130.167,155.5 129.5,156.5C 130.609,157.965 130.109,158.965 128,159.5C 127.974,163.108 127.141,166.442 125.5,169.5C 127.086,171.173 127.753,173.173 127.5,175.5C 129.527,175.338 131.527,175.505 133.5,176C 132.376,176.249 131.376,176.749 130.5,177.5C 133.086,178.48 135.753,178.813 138.5,178.5C 140.167,178.5 141.833,178.5 143.5,178.5C 143.5,178.833 143.5,179.167 143.5,179.5C 141.833,179.5 140.167,179.5 138.5,179.5C 131.803,179.452 125.136,178.952 118.5,178C 119.833,177.333 121.167,176.667 122.5,176C 121.572,175.612 120.905,174.945 120.5,174C 119.956,171.6 119.289,169.267 118.5,167C 117.299,163.597 117.299,160.264 118.5,157C 117.449,155.615 116.116,154.615 114.5,154C 118.752,149.654 123.752,148.487 129.5,150.5 Z"/></g>
<g><path style="opacity:1" fill="#1f73b4" d="M 79.5,159.5 C 81.5,159.5 83.5,159.5 85.5,159.5C 85.7697,161.704 87.103,163.704 89.5,165.5C 91.4086,166.348 93.4086,166.682 95.5,166.5C 95.7413,168.886 95.0746,170.886 93.5,172.5C 90.5314,171.193 87.8648,169.527 85.5,167.5C 83.0908,165.098 81.0908,162.431 79.5,159.5 Z"/></g>
<g><path style="opacity:1" fill="#443fbf" d="M 159.5,159.5 C 161.833,159.5 164.167,159.5 166.5,159.5C 167.833,159.5 169.167,159.5 170.5,159.5C 168.176,162.823 165.509,165.823 162.5,168.5C 158.966,170.766 155.3,172.766 151.5,174.5C 150.466,171.868 149.466,169.201 148.5,166.5C 149.374,164.253 149.708,161.92 149.5,159.5C 152.833,159.5 156.167,159.5 159.5,159.5 Z"/></g>
<g><path style="opacity:1" fill="#5ca3df" d="M 85.5,167.5 C 87.8648,169.527 90.5314,171.193 93.5,172.5C 97.0806,174.788 100.747,176.788 104.5,178.5C 101.518,178.037 98.5176,177.704 95.5,177.5C 93.3024,177.125 91.3024,176.458 89.5,175.5C 89.6107,174.883 89.944,174.383 90.5,174C 86.5967,173.588 84.93,171.421 85.5,167.5 Z"/></g>
<g><path style="opacity:1" fill="#8473e8" d="M 162.5,168.5 C 163.774,169.189 163.774,170.023 162.5,171C 165.328,171.969 167.662,171.303 169.5,169C 171.473,168.505 173.473,168.338 175.5,168.5C 170.612,171.688 165.279,174.022 159.5,175.5C 158.5,175.5 157.5,175.5 156.5,175.5C 154.833,175.5 153.167,175.5 151.5,175.5C 151.5,175.167 151.5,174.833 151.5,174.5C 155.3,172.766 158.966,170.766 162.5,168.5 Z"/></g>
<g><path style="opacity:1" fill="#b8b3e8" d="M 156.5,175.5 C 157.5,175.5 158.5,175.5 159.5,175.5C 157.208,177.267 154.542,178.267 151.5,178.5C 153.072,177.313 154.739,176.313 156.5,175.5 Z"/></g>
<g><path style="opacity:1" fill="#8686d3" d="M 151.5,175.5 C 153.167,175.5 154.833,175.5 156.5,175.5C 154.739,176.313 153.072,177.313 151.5,178.5C 148.833,178.833 146.167,179.167 143.5,179.5C 143.5,179.167 143.5,178.833 143.5,178.5C 146.124,177.506 148.79,176.506 151.5,175.5 Z"/></g>
<g><path style="opacity:1" fill="#a5c8ea" d="M 95.5,177.5 C 98.5176,177.704 101.518,178.037 104.5,178.5C 106.042,179.301 107.708,179.634 109.5,179.5C 110.492,179.328 111.158,179.662 111.5,180.5C 105.784,180.773 100.451,179.773 95.5,177.5 Z"/></g>
<g><path style="opacity:1" fill="#9badd5" d="M 138.5,179.5 C 140.167,179.5 141.833,179.5 143.5,179.5C 142.167,180.167 140.833,180.833 139.5,181.5C 130.651,181.826 121.984,181.493 113.5,180.5C 122.017,180.826 130.35,180.493 138.5,179.5 Z"/></g>
<g><path style="opacity:1" fill="#f6fafc" d="M 56.5,159.5 C 58.8162,160.806 61.1495,162.139 63.5,163.5C 71.4767,168.763 80.1434,172.763 89.5,175.5C 91.3024,176.458 93.3024,177.125 95.5,177.5C 100.451,179.773 105.784,180.773 111.5,180.5C 112.167,180.5 112.833,180.5 113.5,180.5C 121.984,181.493 130.651,181.826 139.5,181.5C 140.833,181.5 142.167,181.5 143.5,181.5C 143.5,182.5 143.5,183.5 143.5,184.5C 148.813,185.098 154.146,185.431 159.5,185.5C 159.5,186.833 159.5,188.167 159.5,189.5C 154.024,190.388 148.69,190.721 143.5,190.5C 159.486,191.499 175.486,191.833 191.5,191.5C 191.5,192.5 191.5,193.5 191.5,194.5C 197.176,194.666 202.843,194.499 208.5,194C 209.584,191.175 210.751,191.008 212,193.5C 212.9,192.23 214.066,191.23 215.5,190.5C 212.914,189.52 210.247,189.187 207.5,189.5C 207.5,188.167 207.5,186.833 207.5,185.5C 211.397,184.97 214.73,185.97 217.5,188.5C 220.692,185.882 222.025,186.882 221.5,191.5C 212.81,202.189 202.81,211.522 191.5,219.5C 190.729,215.205 192.229,212.205 196,210.5C 197.649,211.898 198.982,211.564 200,209.5C 200.333,209.833 200.667,210.167 201,210.5C 201.483,209.552 201.649,208.552 201.5,207.5C 198.017,206.916 195.017,207.749 192.5,210C 187.929,209.366 185.096,211.199 184,215.5C 183.586,215.043 183.086,214.709 182.5,214.5C 180.754,216.854 178.421,217.854 175.5,217.5C 175.5,216.5 175.5,215.5 175.5,214.5C 138.165,214.667 100.832,214.5 63.5,214C 60.8738,213.005 58.2071,212.672 55.5,213C 57.8776,213.974 57.5443,214.641 54.5,215C 57.2966,216.233 59.9632,217.733 62.5,219.5C 62.7876,220.861 63.121,222.194 63.5,223.5C 58.0413,220.931 53.0413,217.598 48.5,213.5C 40.7765,206.778 33.7765,199.445 27.5,191.5C 26.9862,189.634 26.3195,187.8 25.5,186C 26.1371,183.755 26.9704,181.588 28,179.5C 29.0113,178.663 30.1779,178.33 31.5,178.5C 31.5,179.833 31.5,181.167 31.5,182.5C 47.5,182.5 63.5,182.5 79.5,182.5C 79.2011,180.396 79.5344,178.396 80.5,176.5C 82.0983,177.485 83.765,177.651 85.5,177C 81.0175,174.837 76.5175,172.67 72,170.5C 70.513,171.253 70.3463,172.086 71.5,173C 69.7107,173.914 67.8773,174.747 66,175.5C 65.1667,175.167 64.3333,174.833 63.5,174.5C 64.9814,173.52 66.3147,172.353 67.5,171C 66.4366,169.812 65.1033,169.312 63.5,169.5C 63.5,168.167 63.5,166.833 63.5,165.5C 59.5003,165.541 57.1669,163.541 56.5,159.5 Z"/></g>
<g><path style="opacity:1" fill="#dfe5f4" d="M 27.5,191.5 C 33.7765,199.445 40.7765,206.778 48.5,213.5C 53.0413,217.598 58.0413,220.931 63.5,223.5C 93.6062,241.342 125.606,245.175 159.5,235C 170.95,231.367 181.617,226.2 191.5,219.5C 202.81,211.522 212.81,202.189 221.5,191.5C 222.167,191.5 222.833,191.5 223.5,191.5C 221.146,194.403 219.312,197.736 218,201.5C 211.531,205.3 206.031,210.8 201.5,218C 198.632,220.032 195.632,221.865 192.5,223.5C 191.548,225.045 191.215,226.712 191.5,228.5C 181.038,232.751 170.371,236.418 159.5,239.5C 154.029,240.211 148.695,241.545 143.5,243.5C 131.18,244.666 118.847,244.833 106.5,244C 100.243,242.038 93.9093,240.371 87.5,239C 81.7068,235.499 75.5402,232.665 69,230.5C 65.0702,227.786 61.2369,224.953 57.5,222C 50.9871,221.091 46.3205,217.758 43.5,212C 41.3907,210.354 39.0573,209.188 36.5,208.5C 37.2288,204.869 35.5622,202.869 31.5,202.5C 31.6567,201.127 31.49,199.793 31,198.5C 28.5898,196.358 27.4231,194.025 27.5,191.5 Z"/></g>
<g><path style="opacity:1" fill="#fafdfd" d="M 191.5,219.5 C 181.617,226.2 170.95,231.367 159.5,235C 125.606,245.175 93.6062,241.342 63.5,223.5C 63.121,222.194 62.7876,220.861 62.5,219.5C 59.9632,217.733 57.2966,216.233 54.5,215C 57.5443,214.641 57.8776,213.974 55.5,213C 58.2071,212.672 60.8738,213.005 63.5,214C 100.832,214.5 138.165,214.667 175.5,214.5C 175.5,215.5 175.5,216.5 175.5,217.5C 178.421,217.854 180.754,216.854 182.5,214.5C 183.086,214.709 183.586,215.043 184,215.5C 185.096,211.199 187.929,209.366 192.5,210C 195.017,207.749 198.017,206.916 201.5,207.5C 201.649,208.552 201.483,209.552 201,210.5C 200.667,210.167 200.333,209.833 200,209.5C 198.982,211.564 197.649,211.898 196,210.5C 192.229,212.205 190.729,215.205 191.5,219.5 Z"/></g>
<g><path style="opacity:1" fill="#eff3fc" d="M 36.5,208.5 C 39.0573,209.188 41.3907,210.354 43.5,212C 46.3205,217.758 50.9871,221.091 57.5,222C 61.2369,224.953 65.0702,227.786 69,230.5C 75.5402,232.665 81.7068,235.499 87.5,239C 93.9093,240.371 100.243,242.038 106.5,244C 118.847,244.833 131.18,244.666 143.5,243.5C 148.695,241.545 154.029,240.211 159.5,239.5C 154.453,242.293 149.119,244.627 143.5,246.5C 132.585,246.18 121.752,246.513 111,247.5C 108.034,245.966 104.867,244.8 101.5,244C 96.0382,244.179 91.0382,242.846 86.5,240C 84.1902,239.503 81.8568,239.337 79.5,239.5C 79.5,238.5 79.5,237.5 79.5,236.5C 77.0733,236.477 74.74,235.977 72.5,235C 68.085,233.221 64.4183,230.554 61.5,227C 54.8224,224.278 48.4891,220.778 42.5,216.5C 42.7093,215.914 43.0426,215.414 43.5,215C 41.6239,213.625 39.6239,212.458 37.5,211.5C 36.8728,210.583 36.5394,209.583 36.5,208.5 Z"/></g>
</svg>
