<?xml version="1.0" encoding="UTF-8"?>
<!DOCTYPE svg PUBLIC "-//W3C//DTD SVG 1.1//EN" "http://www.w3.org/Graphics/SVG/1.1/DTD/svg11.dtd">
<svg xmlns="http://www.w3.org/2000/svg" version="1.1" width="250px" height="250px" style="shape-rendering:geometricPrecision; text-rendering:geometricPrecision; image-rendering:optimizeQuality; fill-rule:evenodd; clip-rule:evenodd" xmlns:xlink="http://www.w3.org/1999/xlink">
<g><path style="opacity:0.866" fill="#2a2160" d="M 96.5,216.5 C 143.293,224.677 180.127,209.343 207,170.5C 227.556,132.486 224.556,96.4855 198,62.5C 167.497,29.8632 131.33,21.6965 89.5,38C 57.9899,52.3302 37.9899,76.1635 29.5,109.5C 29.1674,95.1512 29.5007,80.8179 30.5,66.5C 62.0031,47.9141 93.6697,29.5808 125.5,11.5C 157.003,30.0859 188.67,48.4192 220.5,66.5C 221.667,103.829 221.833,141.162 221,178.5C 189.147,197.093 157.147,215.426 125,233.5C 115.34,227.986 105.84,222.319 96.5,216.5 Z"/></g>
<g><path style="opacity:0.991" fill="#2c2263" d="M 96.5,216.5 C 74.1439,204.236 51.9772,191.57 30,178.5C 29.5,155.502 29.3334,132.502 29.5,109.5C 37.9899,76.1635 57.9899,52.3302 89.5,38C 131.33,21.6965 167.497,29.8632 198,62.5C 224.556,96.4855 227.556,132.486 207,170.5C 180.127,209.343 143.293,224.677 96.5,216.5 Z"/></g>
<g><path style="opacity:1" fill="#06dbf6" d="M 200.5,121.5 C 200.005,124.388 198.505,126.721 196,128.5C 195.831,112.995 195.331,97.6612 194.5,82.5C 171.229,69.1938 147.896,55.8604 124.5,42.5C 101.421,55.4548 78.5872,68.7882 56,82.5C 55.5001,96.1626 55.3334,109.829 55.5,123.5C 54.6981,124.952 54.1981,126.618 54,128.5C 53.1475,126.875 52.1475,126.542 51,127.5C 50.5001,111.503 50.3334,95.5035 50.5,79.5C 73.7721,64.8561 97.4387,50.6894 121.5,37C 123.167,36.3333 124.833,36.3333 126.5,37C 151.245,50.7878 175.745,64.9544 200,79.5C 200.5,93.496 200.667,107.496 200.5,121.5 Z"/></g>
<g><path style="opacity:1" fill="#342976" d="M 102.5,189.5 C 94.9306,185.93 87.5972,181.93 80.5,177.5C 80.3336,169.16 80.5003,160.827 81,152.5C 81.2895,154.952 81.9562,157.285 83,159.5C 93.8149,170.415 106.815,175.748 122,175.5C 122.464,176.094 122.631,176.761 122.5,177.5C 122.458,179.849 123.625,181.182 126,181.5C 131.096,178.369 136.263,175.369 141.5,172.5C 146.167,169.833 150.833,167.167 155.5,164.5C 161.308,160.759 167.308,157.259 173.5,154C 176.1,151.016 177.1,147.516 176.5,143.5C 176.83,126.658 176.497,109.992 175.5,93.5C 163.065,85.4412 150.398,77.6079 137.5,70C 133.568,67.8649 129.568,66.0315 125.5,64.5C 108.437,72.8666 91.7702,82.0332 75.5,92C 74.7476,92.6708 74.4142,93.5041 74.5,94.5C 73.2473,114.678 73.2473,135.011 74.5,155.5C 74.5,160.5 74.5,165.5 74.5,170.5C 74.5,173.167 74.5,175.833 74.5,178.5C 73.5489,177.081 73.2155,175.415 73.5,173.5C 73.665,170.15 73.4983,166.817 73,163.5C 72.6667,164.167 72.3333,164.833 72,165.5C 56.409,142.892 55.409,119.559 69,95.5C 89.8795,65.9846 117.713,56.1513 152.5,66C 165.036,70.8653 174.869,79.032 182,90.5C 192.311,111.071 191.978,131.404 181,151.5C 175.388,163.445 166.721,172.445 155,178.5C 147.488,181.893 139.821,184.893 132,187.5C 122.051,189.336 112.218,190.003 102.5,189.5 Z"/></g>
<g><path style="opacity:1" fill="#2e2366" d="M 49.5,85.5 C 49.5,99.8333 49.5,114.167 49.5,128.5C 49.5,134.5 49.5,140.5 49.5,146.5C 49.3337,153.175 49.5004,159.842 50,166.5C 52.2345,167.98 54.0679,167.647 55.5,165.5C 56.3261,160.684 56.8261,155.684 57,150.5C 58.8442,161.522 63.8442,170.855 72,178.5C 72.1981,176.618 72.6981,174.952 73.5,173.5C 73.2155,175.415 73.5489,177.081 74.5,178.5C 81.2678,184.728 88.9345,189.728 97.5,193.5C 103.934,197.892 110.601,202.059 117.5,206C 120.546,208.174 123.88,208.841 127.5,208C 139.896,200.807 152.23,193.64 164.5,186.5C 172.329,182.42 179.996,178.087 187.5,173.5C 190.193,172.153 192.86,170.82 195.5,169.5C 194.402,170.397 194.402,171.23 195.5,172C 172.386,201.93 142.053,214.264 104.5,209C 83.2639,204.136 65.0973,193.97 50,178.5C 40.6929,164.276 36.5263,148.61 37.5,131.5C 36.5723,115.545 39.9056,100.545 47.5,86.5C 47.9569,85.7025 48.6236,85.3691 49.5,85.5 Z"/></g>
<g><path style="opacity:1" fill="#30266d" d="M 194.5,82.5 C 194.5,98.8333 194.5,115.167 194.5,131.5C 194.5,142.167 194.5,152.833 194.5,163.5C 188.332,166.08 182.665,169.414 177.5,173.5C 169.839,176.995 162.505,180.995 155.5,185.5C 145.25,191.543 134.75,197.21 124,202.5C 116.903,198.368 109.736,194.368 102.5,190.5C 102.5,190.167 102.5,189.833 102.5,189.5C 112.218,190.003 122.051,189.336 132,187.5C 139.821,184.893 147.488,181.893 155,178.5C 166.721,172.445 175.388,163.445 181,151.5C 191.978,131.404 192.311,111.071 182,90.5C 174.869,79.032 165.036,70.8653 152.5,66C 117.713,56.1513 89.8795,65.9846 69,95.5C 55.409,119.559 56.409,142.892 72,165.5C 72.3333,164.833 72.6667,164.167 73,163.5C 73.4983,166.817 73.665,170.15 73.5,173.5C 72.6981,174.952 72.1981,176.618 72,178.5C 63.8442,170.855 58.8442,161.522 57,150.5C 56.8261,155.684 56.3261,160.684 55.5,165.5C 55.5,160.167 55.5,154.833 55.5,149.5C 55.5,145.833 55.5,142.167 55.5,138.5C 55.5,133.5 55.5,128.5 55.5,123.5C 55.3334,109.829 55.5001,96.1626 56,82.5C 78.5872,68.7882 101.421,55.4548 124.5,42.5C 147.896,55.8604 171.229,69.1938 194.5,82.5 Z"/></g>
<g><path style="opacity:1" fill="#299ed0" d="M 175.5,93.5 C 176.497,109.992 176.83,126.658 176.5,143.5C 174.831,145.662 172.831,145.995 170.5,144.5C 170.5,142.833 170.5,141.167 170.5,139.5C 171.441,142.125 172.607,142.125 174,139.5C 174.333,139.833 174.667,140.167 175,140.5C 175.5,124.837 175.667,109.17 175.5,93.5 Z"/></g>
<g><path style="opacity:1" fill="#3e3387" d="M 170.5,139.5 C 170.5,141.167 170.5,142.833 170.5,144.5C 170.785,146.288 170.452,147.955 169.5,149.5C 161.603,153.941 153.936,158.608 146.5,163.5C 141.5,165.664 136.833,168.331 132.5,171.5C 128.863,172.986 125.53,174.986 122.5,177.5C 122.631,176.761 122.464,176.094 122,175.5C 106.815,175.748 93.8149,170.415 83,159.5C 81.9562,157.285 81.2895,154.952 81,152.5C 80.5003,160.827 80.3336,169.16 80.5,177.5C 79.5386,175.735 79.2053,173.735 79.5,171.5C 79.5,166.5 79.5,161.5 79.5,156.5C 79.5,151.833 79.5,147.167 79.5,142.5C 79.3334,127.163 79.5001,111.83 80,96.5C 94.8039,87.1956 109.971,78.5289 125.5,70.5C 140.542,78.7723 155.375,87.439 170,96.5C 170.5,110.829 170.667,125.163 170.5,139.5 Z"/></g>
<g><path style="opacity:1" fill="#f5f22a" d="M 105.5,142.5 C 105.44,141.957 105.107,141.624 104.5,141.5C 103.502,149.472 103.169,157.472 103.5,165.5C 102.415,167.582 100.915,167.916 99,166.5C 98.5,147.17 98.3334,127.836 98.5,108.5C 98.5106,106.983 99.1772,105.816 100.5,105C 108.486,100.092 116.653,95.592 125,91.5C 134.598,95.8001 143.598,101.133 152,107.5C 152.667,117.167 152.667,126.833 152,136.5C 151.626,137.416 151.126,138.25 150.5,139C 141.906,143.796 133.24,148.296 124.5,152.5C 117.75,149.958 111.417,146.625 105.5,142.5 Z"/></g>
<g><path style="opacity:1" fill="#403190" d="M 104.5,163.5 C 104.5,160.833 104.5,158.167 104.5,155.5C 124.092,163.62 140.592,159.62 154,143.5C 164.38,125.829 162.213,109.996 147.5,96C 129.444,86.0761 112.944,88.2428 98,102.5C 85.5075,118.403 85.3409,134.403 97.5,150.5C 97.665,153.85 97.4983,157.183 97,160.5C 94.4475,155.939 91.1141,151.939 87,148.5C 76.8075,127.367 80.3075,108.867 97.5,93C 114.427,80.7554 132.093,79.4221 150.5,89C 161.844,97.1809 167.844,108.348 168.5,122.5C 161.255,157.804 139.921,171.471 104.5,163.5 Z"/></g>
<g><path style="opacity:1" fill="#47369a" d="M 104.5,155.5 C 104.182,150.968 104.515,146.634 105.5,142.5C 111.417,146.625 117.75,149.958 124.5,152.5C 133.24,148.296 141.906,143.796 150.5,139C 151.126,138.25 151.626,137.416 152,136.5C 152.667,126.833 152.667,117.167 152,107.5C 143.598,101.133 134.598,95.8001 125,91.5C 116.653,95.592 108.486,100.092 100.5,105C 99.1772,105.816 98.5106,106.983 98.5,108.5C 97.5042,122.323 97.1709,136.323 97.5,150.5C 85.3409,134.403 85.5075,118.403 98,102.5C 112.944,88.2428 129.444,86.0761 147.5,96C 162.213,109.996 164.38,125.829 154,143.5C 140.592,159.62 124.092,163.62 104.5,155.5 Z"/></g>
<g><path style="opacity:1" fill="#5541b5" d="M 124.5,97.5 C 131.608,101.223 138.608,105.223 145.5,109.5C 146.665,117.813 146.832,126.147 146,134.5C 138.914,138.627 131.747,142.627 124.5,146.5C 118.003,143.086 111.67,139.419 105.5,135.5C 104.335,126.853 104.168,118.186 105,109.5C 111.815,105.851 118.315,101.851 124.5,97.5 Z"/></g>
<g><path style="opacity:1" fill="#10e7f9" d="M 175.5,93.5 C 175.667,109.17 175.5,124.837 175,140.5C 174.667,140.167 174.333,139.833 174,139.5C 172.607,142.125 171.441,142.125 170.5,139.5C 170.667,125.163 170.5,110.829 170,96.5C 155.375,87.439 140.542,78.7723 125.5,70.5C 109.971,78.5289 94.8039,87.1956 80,96.5C 79.5001,111.83 79.3334,127.163 79.5,142.5C 77.6096,142.703 76.1096,142.037 75,140.5C 74.5001,125.17 74.3334,109.837 74.5,94.5C 74.4142,93.5041 74.7476,92.6708 75.5,92C 91.7702,82.0332 108.437,72.8666 125.5,64.5C 129.568,66.0315 133.568,67.8649 137.5,70C 150.398,77.6079 163.065,85.4412 175.5,93.5 Z"/></g>
<g><path style="opacity:1" fill="#5b45cc" d="M 121.5,109.5 C 136.766,110.008 142.266,117.675 138,132.5C 130.275,141.025 121.941,141.692 113,134.5C 106.72,123.061 109.553,114.728 121.5,109.5 Z"/></g>
<g><path style="opacity:1" fill="#20aee8" d="M 50.5,79.5 C 50.3334,95.5035 50.5001,111.503 51,127.5C 52.1475,126.542 53.1475,126.875 54,128.5C 54.1981,126.618 54.6981,124.952 55.5,123.5C 55.5,128.5 55.5,133.5 55.5,138.5C 53.9582,139.301 52.2915,139.634 50.5,139.5C 50.815,135.629 50.4816,131.962 49.5,128.5C 49.5,114.167 49.5,99.8333 49.5,85.5C 49.2053,83.2646 49.5386,81.2646 50.5,79.5 Z"/></g>
<g><path style="opacity:1" fill="#23aaea" d="M 194.5,82.5 C 195.331,97.6612 195.831,112.995 196,128.5C 198.505,126.721 200.005,124.388 200.5,121.5C 200.5,128.167 200.5,134.833 200.5,141.5C 198.61,141.297 197.11,141.963 196,143.5C 195.824,139.312 195.324,135.312 194.5,131.5C 194.5,115.167 194.5,98.8333 194.5,82.5 Z"/></g>
<g><path style="opacity:1" fill="#3498f0" d="M 49.5,128.5 C 50.4816,131.962 50.815,135.629 50.5,139.5C 52.2915,139.634 53.9582,139.301 55.5,138.5C 55.5,142.167 55.5,145.833 55.5,149.5C 53.9582,150.301 52.2915,150.634 50.5,150.5C 50.7678,148.901 50.4345,147.568 49.5,146.5C 49.5,140.5 49.5,134.5 49.5,128.5 Z"/></g>
<g><path style="opacity:1" fill="#b7af4f" d="M 105.5,142.5 C 104.515,146.634 104.182,150.968 104.5,155.5C 104.5,158.167 104.5,160.833 104.5,163.5C 104.672,164.492 104.338,165.158 103.5,165.5C 103.169,157.472 103.502,149.472 104.5,141.5C 105.107,141.624 105.44,141.957 105.5,142.5 Z"/></g>
<g><path style="opacity:1" fill="#4199e4" d="M 74.5,94.5 C 74.3334,109.837 74.5001,125.17 75,140.5C 76.1096,142.037 77.6096,142.703 79.5,142.5C 79.5,147.167 79.5,151.833 79.5,156.5C 77.7839,156.371 76.1172,156.038 74.5,155.5C 73.2473,135.011 73.2473,114.678 74.5,94.5 Z"/></g>
<g><path style="opacity:1" fill="#3d83ec" d="M 194.5,131.5 C 195.324,135.312 195.824,139.312 196,143.5C 197.11,141.963 198.61,141.297 200.5,141.5C 200.5,146.167 200.5,150.833 200.5,155.5C 198.97,156.067 197.47,156.733 196,157.5C 195.809,159.708 195.309,161.708 194.5,163.5C 194.5,152.833 194.5,142.167 194.5,131.5 Z"/></g>
<g><path style="opacity:1" fill="#549bf8" d="M 176.5,143.5 C 177.1,147.516 176.1,151.016 173.5,154C 167.308,157.259 161.308,160.759 155.5,164.5C 152.492,164.041 149.492,163.708 146.5,163.5C 153.936,158.608 161.603,153.941 169.5,149.5C 170.452,147.955 170.785,146.288 170.5,144.5C 172.831,145.995 174.831,145.662 176.5,143.5 Z"/></g>
<g><path style="opacity:1" fill="#4b76f3" d="M 49.5,146.5 C 50.4345,147.568 50.7678,148.901 50.5,150.5C 52.2915,150.634 53.9582,150.301 55.5,149.5C 55.5,154.833 55.5,160.167 55.5,165.5C 54.0679,167.647 52.2345,167.98 50,166.5C 49.5004,159.842 49.3337,153.175 49.5,146.5 Z"/></g>
<g><path style="opacity:1" fill="#607bfd" d="M 74.5,155.5 C 76.1172,156.038 77.7839,156.371 79.5,156.5C 79.5,161.5 79.5,166.5 79.5,171.5C 77.8828,170.962 76.2161,170.629 74.5,170.5C 74.5,165.5 74.5,160.5 74.5,155.5 Z"/></g>
<g><path style="opacity:1" fill="#6d7df8" d="M 146.5,163.5 C 149.492,163.708 152.492,164.041 155.5,164.5C 150.833,167.167 146.167,169.833 141.5,172.5C 138.713,171.523 135.713,171.19 132.5,171.5C 136.833,168.331 141.5,165.664 146.5,163.5 Z"/></g>
<g><path style="opacity:1" fill="#5764f6" d="M 200.5,155.5 C 200.665,158.85 200.498,162.183 200,165.5C 198.603,167.07 197.103,168.404 195.5,169.5C 192.86,170.82 190.193,172.153 187.5,173.5C 184.319,172.41 180.985,172.41 177.5,173.5C 182.665,169.414 188.332,166.08 194.5,163.5C 195.309,161.708 195.809,159.708 196,157.5C 197.47,156.733 198.97,156.067 200.5,155.5 Z"/></g>
<g><path style="opacity:1" fill="#7761f4" d="M 132.5,171.5 C 135.713,171.19 138.713,171.523 141.5,172.5C 136.263,175.369 131.096,178.369 126,181.5C 123.625,181.182 122.458,179.849 122.5,177.5C 125.53,174.986 128.863,172.986 132.5,171.5 Z"/></g>
<g><path style="opacity:1" fill="#6e4af6" d="M 187.5,173.5 C 179.996,178.087 172.329,182.42 164.5,186.5C 161.713,185.523 158.713,185.19 155.5,185.5C 162.505,180.995 169.839,176.995 177.5,173.5C 180.985,172.41 184.319,172.41 187.5,173.5 Z"/></g>
<g><path style="opacity:1" fill="#7943f7" d="M 74.5,170.5 C 76.2161,170.629 77.8828,170.962 79.5,171.5C 79.2053,173.735 79.5386,175.735 80.5,177.5C 87.5972,181.93 94.9306,185.93 102.5,189.5C 102.5,189.833 102.5,190.167 102.5,190.5C 100.518,190.995 98.5183,191.495 96.5,192C 97.056,192.383 97.3893,192.883 97.5,193.5C 88.9345,189.728 81.2678,184.728 74.5,178.5C 74.5,175.833 74.5,173.167 74.5,170.5 Z"/></g>
<g><path style="opacity:1" fill="#8d1cf6" d="M 155.5,185.5 C 158.713,185.19 161.713,185.523 164.5,186.5C 152.23,193.64 139.896,200.807 127.5,208C 123.88,208.841 120.546,208.174 117.5,206C 110.601,202.059 103.934,197.892 97.5,193.5C 97.3893,192.883 97.056,192.383 96.5,192C 98.5183,191.495 100.518,190.995 102.5,190.5C 109.736,194.368 116.903,198.368 124,202.5C 134.75,197.21 145.25,191.543 155.5,185.5 Z"/></g>
</svg>
