<?xml version="1.0" encoding="UTF-8"?>
<!DOCTYPE svg PUBLIC "-//W3C//DTD SVG 1.1//EN" "http://www.w3.org/Graphics/SVG/1.1/DTD/svg11.dtd">
<svg xmlns="http://www.w3.org/2000/svg" version="1.1" width="250px" height="250px" style="shape-rendering:geometricPrecision; text-rendering:geometricPrecision; image-rendering:optimizeQuality; fill-rule:evenodd; clip-rule:evenodd" xmlns:xlink="http://www.w3.org/1999/xlink">
<g><path style="opacity:1" fill="#5900f5" d="M -0.5,-0.5 C 79.5,-0.5 159.5,-0.5 239.5,-0.5C 237.867,2.16908 236.7,5.16908 236,8.5C 233.497,10.4801 231.664,12.8135 230.5,15.5C 228.191,16.3877 226.524,18.0544 225.5,20.5C 224.009,21.2436 222.509,21.9103 221,22.5C 216.664,27.1998 212.831,32.1998 209.5,37.5C 208.167,37.5 207.5,38.1667 207.5,39.5C 202.826,41.4166 199.659,44.7499 198,49.5C 195.91,51.7634 193.744,53.7634 191.5,55.5C 190.325,55.281 189.325,55.6143 188.5,56.5C 186.962,59.0496 185.296,61.3829 183.5,63.5C 180.847,66.7839 178.18,70.1173 175.5,73.5C 173.092,74.0613 170.759,74.5613 168.5,75C 166.259,73.2609 164.592,71.0942 163.5,68.5C 160.361,66.9573 157.361,65.2906 154.5,63.5C 153.833,63.5 153.167,63.5 152.5,63.5C 152.31,59.6426 150.31,57.976 146.5,58.5C 146.027,57.0937 145.027,56.427 143.5,56.5C 142.969,54.3763 141.635,52.8763 139.5,52C 136.647,50.5699 133.647,49.7366 130.5,49.5C 130.027,48.0937 129.027,47.427 127.5,47.5C 127.5,46.5 127.5,45.5 127.5,44.5C 118.43,41.4158 109.097,39.0825 99.5,37.5C 87.6502,35.5154 75.9836,36.682 64.5,41C 63.7476,41.6708 63.4142,42.5041 63.5,43.5C 63.5,43.8333 63.5,44.1667 63.5,44.5C 61.3718,45.9573 59.0384,46.9573 56.5,47.5C 54.396,47.7989 52.396,47.4656 50.5,46.5C 51.9336,43.9528 53.6002,41.6195 55.5,39.5C 55.3333,38.8333 55.1667,38.1667 55,37.5C 54.2496,38.1258 53.4162,38.6258 52.5,39C 51.6948,40.9717 50.3615,42.4717 48.5,43.5C 46.1573,48.3316 44.9907,53.3316 45,58.5C 41.2389,59.7146 40.0723,62.048 41.5,65.5C 39.3901,71.1755 37.7234,77.0088 36.5,83C 37.7107,92.4855 38.7107,101.985 39.5,111.5C 40.8333,111.5 42.1667,111.5 43.5,111.5C 45.7796,122.557 50.113,132.724 56.5,142C 55.8333,142.333 55.1667,142.667 54.5,143C 57.4816,143.498 60.4816,143.665 63.5,143.5C 63.5,147.5 63.5,151.5 63.5,155.5C 67.0688,155.951 70.0688,157.451 72.5,160C 71.0745,161.714 71.4078,163.047 73.5,164C 72.4258,164.739 71.7591,165.739 71.5,167C 72.2893,167.546 73.2893,168.213 74.5,169C 73.6634,170.011 73.33,171.178 73.5,172.5C 72.1667,172.5 70.8333,172.5 69.5,172.5C 69.5,174.167 69.5,175.833 69.5,177.5C 68.0351,178.406 67.0351,179.739 66.5,181.5C 65.675,182.386 64.675,182.719 63.5,182.5C 63.5,183.5 63.5,184.5 63.5,185.5C 59.8333,185.833 57.8333,187.833 57.5,191.5C 57.1667,191.5 56.8333,191.5 56.5,191.5C 53.2227,194.626 50.2227,197.959 47.5,201.5C 47.5,202.167 47.5,202.833 47.5,203.5C 44.6824,203.657 42.6824,204.991 41.5,207.5C 37.2808,209.93 33.9474,213.263 31.5,217.5C 31.5,218.167 31.5,218.833 31.5,219.5C 29.1667,219.833 27.8333,221.167 27.5,223.5C 27.1667,223.5 26.8333,223.5 26.5,223.5C 26.1667,223.5 25.8333,223.5 25.5,223.5C 22.1025,225.895 19.4359,228.895 17.5,232.5C 16.1667,232.5 15.5,233.167 15.5,234.5C 15.5,235.167 15.5,235.833 15.5,236.5C 13.6458,237.241 11.9791,238.241 10.5,239.5C 6.1053,241.562 3.1053,244.896 1.5,249.5C 0.833333,249.5 0.166667,249.5 -0.5,249.5C -0.5,166.167 -0.5,82.8333 -0.5,-0.5 Z"/></g>
<g><path style="opacity:1" fill="#5608df" d="M 239.5,-0.5 C 241.5,-0.5 243.5,-0.5 245.5,-0.5C 243.548,2.15982 241.548,4.82649 239.5,7.5C 239.5,7.83333 239.5,8.16667 239.5,8.5C 236.208,10.4581 233.208,12.7915 230.5,15.5C 231.664,12.8135 233.497,10.4801 236,8.5C 236.7,5.16908 237.867,2.16908 239.5,-0.5 Z"/></g>
<g><path style="opacity:1" fill="#451c92" d="M 245.5,-0.5 C 246.167,-0.5 246.833,-0.5 247.5,-0.5C 247.631,0.238911 247.464,0.905578 247,1.5C 244.582,3.76758 242.082,5.76758 239.5,7.5C 241.548,4.82649 243.548,2.15982 245.5,-0.5 Z"/></g>
<g><path style="opacity:1" fill="#3c2957" d="M 247.5,-0.5 C 248.167,-0.5 248.833,-0.5 249.5,-0.5C 249.5,0.166667 249.5,0.833333 249.5,1.5C 247.01,3.48927 244.677,5.65593 242.5,8C 241.552,8.48278 240.552,8.64945 239.5,8.5C 239.5,8.16667 239.5,7.83333 239.5,7.5C 242.082,5.76758 244.582,3.76758 247,1.5C 247.464,0.905578 247.631,0.238911 247.5,-0.5 Z"/></g>
<g><path style="opacity:1" fill="#323333" d="M 249.5,1.5 C 249.5,84.1667 249.5,166.833 249.5,249.5C 168.167,249.5 86.8333,249.5 5.5,249.5C 9.62337,245.718 12.9567,241.385 15.5,236.5C 21.4376,233.896 25.7709,229.563 28.5,223.5C 29.8776,222.455 30.8776,221.122 31.5,219.5C 32.552,219.649 33.552,219.483 34.5,219C 36.5491,215.95 39.2157,213.617 42.5,212C 44.0368,210.89 44.7035,209.39 44.5,207.5C 44.7706,205.57 45.7706,204.236 47.5,203.5C 50.8573,201.197 54.024,198.53 57,195.5C 57.7914,194.255 58.2914,192.922 58.5,191.5C 59.9791,190.241 61.6458,189.241 63.5,188.5C 68.8871,185.446 72.8871,181.113 75.5,175.5C 77.0301,174.789 78.3634,173.789 79.5,172.5C 79.5858,173.496 79.2524,174.329 78.5,175C 79.448,175.483 80.448,175.649 81.5,175.5C 81.281,176.675 81.6143,177.675 82.5,178.5C 85.1092,179.443 87.1092,181.11 88.5,183.5C 91.7953,186.312 95.462,188.312 99.5,189.5C 99.8333,189.5 100.167,189.5 100.5,189.5C 100.539,190.583 100.873,191.583 101.5,192.5C 109.266,198.591 117.933,202.925 127.5,205.5C 137.718,210.561 148.551,213.228 160,213.5C 168.26,214.795 175.427,212.795 181.5,207.5C 183.349,206.407 185.016,205.074 186.5,203.5C 188.027,203.573 189.027,202.906 189.5,201.5C 192.747,200.588 195.08,198.588 196.5,195.5C 198.874,194.107 200.541,192.107 201.5,189.5C 203.915,186.66 205.248,183.327 205.5,179.5C 207.176,178.817 207.843,177.483 207.5,175.5C 207.833,175.5 208.167,175.5 208.5,175.5C 208.833,175.5 209.167,175.5 209.5,175.5C 210.753,166.156 210.753,156.656 209.5,147C 206.259,137.774 202.925,128.607 199.5,119.5C 196.156,110.323 190.989,102.323 184,95.5C 183.667,94.1667 183.333,92.8333 183,91.5C 182.667,91.8333 182.333,92.1667 182,92.5C 179.33,88.2863 176.163,84.6196 172.5,81.5C 172.975,79.2163 173.975,77.2163 175.5,75.5C 175.5,74.8333 175.5,74.1667 175.5,73.5C 177.411,72.925 179.078,71.925 180.5,70.5C 181.974,68.8627 183.808,67.8627 186,67.5C 187.8,68.3784 189.633,69.045 191.5,69.5C 191.5,68.1667 191.5,66.8333 191.5,65.5C 190.5,65.5 189.5,65.5 188.5,65.5C 188.238,64.0222 188.571,62.6888 189.5,61.5C 194.055,60.621 196.388,57.9543 196.5,53.5C 198.913,51.9493 201.579,51.2826 204.5,51.5C 204.555,47.8183 205.555,44.485 207.5,41.5C 207.5,40.8333 207.5,40.1667 207.5,39.5C 210.14,39.046 212.473,37.8793 214.5,36C 223.401,27.3768 231.734,18.2101 239.5,8.5C 240.552,8.64945 241.552,8.48278 242.5,8C 244.677,5.65593 247.01,3.48927 249.5,1.5 Z"/></g>
<g><path style="opacity:1" fill="#422273" d="M 239.5,8.5 C 231.734,18.2101 223.401,27.3768 214.5,36C 212.473,37.8793 210.14,39.046 207.5,39.5C 207.5,38.1667 208.167,37.5 209.5,37.5C 211.392,36.2983 213.226,34.965 215,33.5C 217.35,30.069 219.85,26.7357 222.5,23.5C 226.175,21.8252 228.842,19.1585 230.5,15.5C 233.208,12.7915 236.208,10.4581 239.5,8.5 Z"/></g>
<g><path style="opacity:1" fill="#4e11bb" d="M 230.5,15.5 C 228.842,19.1585 226.175,21.8252 222.5,23.5C 219.85,26.7357 217.35,30.069 215,33.5C 213.226,34.965 211.392,36.2983 209.5,37.5C 212.831,32.1998 216.664,27.1998 221,22.5C 222.509,21.9103 224.009,21.2436 225.5,20.5C 226.524,18.0544 228.191,16.3877 230.5,15.5 Z"/></g>
<g><path style="opacity:1" fill="#7038c2" d="M 83.5,38.5 C 88.6405,37.5119 93.9738,37.1786 99.5,37.5C 109.097,39.0825 118.43,41.4158 127.5,44.5C 127.5,45.5 127.5,46.5 127.5,47.5C 123.51,46.1738 119.51,44.8405 115.5,43.5C 114.432,42.5655 113.099,42.2322 111.5,42.5C 109.095,41.2318 106.428,40.5651 103.5,40.5C 102.391,39.71 101.058,39.21 99.5,39C 94.8452,38.5008 90.1785,38.3342 85.5,38.5C 84.8333,38.5 84.1667,38.5 83.5,38.5 Z"/></g>
<g><path style="opacity:1" fill="#5b18ca" d="M 99.5,37.5 C 93.9738,37.1786 88.6405,37.5119 83.5,38.5C 82.8333,38.5 82.1667,38.5 81.5,38.5C 78.5049,38.2938 75.8383,38.9605 73.5,40.5C 71.901,40.2322 70.5676,40.5655 69.5,41.5C 67.5,42.1667 65.5,42.8333 63.5,43.5C 63.4142,42.5041 63.7476,41.6708 64.5,41C 75.9836,36.682 87.6502,35.5154 99.5,37.5 Z"/></g>
<g><path style="opacity:1" fill="#d5bcfb" d="M 85.5,38.5 C 90.1785,38.3342 94.8452,38.5008 99.5,39C 101.058,39.21 102.391,39.71 103.5,40.5C 100.753,40.1866 98.0865,40.52 95.5,41.5C 98.3418,42.0045 99.6751,43.6711 99.5,46.5C 97.901,46.2322 96.5676,46.5655 95.5,47.5C 95.3398,49.1992 95.5065,50.8659 96,52.5C 100.396,55.2741 103.896,58.9407 106.5,63.5C 112.579,67.5854 117.912,72.5854 122.5,78.5C 123.325,79.3857 124.325,79.719 125.5,79.5C 126.529,80.1257 127.529,80.959 128.5,82C 127.062,82.2189 125.729,82.7189 124.5,83.5C 126.283,85.2316 128.283,86.7316 130.5,88C 129.944,88.3826 129.611,88.8826 129.5,89.5C 128.833,89.5 128.167,89.5 127.5,89.5C 123.226,84.6849 117.893,81.3516 111.5,79.5C 108.73,75.4193 105.397,71.7526 101.5,68.5C 101.48,66.857 102.147,65.5237 103.5,64.5C 96.782,56.9084 90.1154,49.0751 83.5,41C 84.3805,40.2917 85.0472,39.4584 85.5,38.5 Z"/></g>
<g><path style="opacity:1" fill="#fbfafa" d="M 115.5,43.5 C 119.51,44.8405 123.51,46.1738 127.5,47.5C 127.973,48.9063 128.973,49.573 130.5,49.5C 134.608,52.057 138.941,54.3903 143.5,56.5C 143.973,57.9063 144.973,58.573 146.5,58.5C 148.46,60.1563 150.46,61.823 152.5,63.5C 153.167,63.5 153.833,63.5 154.5,63.5C 154.987,64.4734 155.487,65.4734 156,66.5C 160.708,69.5957 164.875,73.2624 168.5,77.5C 163.893,83.7762 158.559,89.4428 152.5,94.5C 147.95,91.6228 144.95,87.6228 143.5,82.5C 140.882,80.7263 137.882,79.7263 134.5,79.5C 132.489,75.2961 130.656,70.9627 129,66.5C 123.376,60.3745 117.542,54.3745 111.5,48.5C 112.729,47.7189 114.062,47.2189 115.5,47C 110.414,45.148 110.414,43.9813 115.5,43.5 Z"/></g>
<g><path style="opacity:1" fill="#a57fd3" d="M 127.5,47.5 C 129.027,47.427 130.027,48.0937 130.5,49.5C 128.973,49.573 127.973,48.9063 127.5,47.5 Z"/></g>
<g><path style="opacity:1" fill="#392c48" d="M 207.5,41.5 C 205.555,44.485 204.555,47.8183 204.5,51.5C 201.579,51.2826 198.913,51.9493 196.5,53.5C 199.214,50.4435 201.714,47.1102 204,43.5C 204.816,42.1772 205.983,41.5106 207.5,41.5 Z"/></g>
<g><path style="opacity:1" fill="#c8aafa" d="M 81.5,38.5 C 82.1667,38.5 82.8333,38.5 83.5,38.5C 84.1667,38.5 84.8333,38.5 85.5,38.5C 85.0472,39.4584 84.3805,40.2917 83.5,41C 90.1154,49.0751 96.782,56.9084 103.5,64.5C 102.147,65.5237 101.48,66.857 101.5,68.5C 96.7837,68.3985 93.9504,66.0651 93,61.5C 90.961,59.1255 88.6277,57.1255 86,55.5C 84.6222,50.5031 81.4556,47.6698 76.5,47C 77.624,46.7508 78.624,46.2508 79.5,45.5C 78.3947,44.1076 77.0614,42.941 75.5,42C 77.2573,40.2505 79.2573,39.0838 81.5,38.5 Z"/></g>
<g><path style="opacity:1" fill="#6733c1" d="M 130.5,49.5 C 133.647,49.7366 136.647,50.5699 139.5,52C 141.635,52.8763 142.969,54.3763 143.5,56.5C 138.941,54.3903 134.608,52.057 130.5,49.5 Z"/></g>
<g><path style="opacity:1" fill="#b48bfa" d="M 73.5,40.5 C 67.5785,44.097 68.2451,45.9304 75.5,46C 75.1667,46.3333 74.8333,46.6667 74.5,47C 81.0192,54.0182 87.3525,61.1849 93.5,68.5C 92.5,69.1667 91.5,69.8333 90.5,70.5C 94.5548,72.1806 98.5548,73.8473 102.5,75.5C 98.8333,74.8333 95.1667,74.1667 91.5,73.5C 86.2399,71.091 82.4066,67.091 80,61.5C 79.51,60.2068 79.3433,58.8734 79.5,57.5C 77.8008,57.6602 76.1341,57.4935 74.5,57C 72,53.8333 69.5,50.6667 67,47.5C 67.6461,45.5675 68.4794,43.5675 69.5,41.5C 70.5676,40.5655 71.901,40.2322 73.5,40.5 Z"/></g>
<g><path style="opacity:1" fill="#481a97" d="M 207.5,39.5 C 207.5,40.1667 207.5,40.8333 207.5,41.5C 205.983,41.5106 204.816,42.1772 204,43.5C 201.714,47.1102 199.214,50.4435 196.5,53.5C 195.18,54.9418 193.514,55.6085 191.5,55.5C 193.744,53.7634 195.91,51.7634 198,49.5C 199.659,44.7499 202.826,41.4166 207.5,39.5 Z"/></g>
<g><path style="opacity:1" fill="#8c60cd" d="M 143.5,56.5 C 145.027,56.427 146.027,57.0937 146.5,58.5C 144.973,58.573 143.973,57.9063 143.5,56.5 Z"/></g>
<g><path style="opacity:1" fill="#a97bfa" d="M 69.5,41.5 C 68.4794,43.5675 67.6461,45.5675 67,47.5C 69.5,50.6667 72,53.8333 74.5,57C 76.1341,57.4935 77.8008,57.6602 79.5,57.5C 79.3433,58.8734 79.51,60.2068 80,61.5C 82.4066,67.091 86.2399,71.091 91.5,73.5C 88.8333,73.5 86.1667,73.5 83.5,73.5C 80.8333,73.5 78.1667,73.5 75.5,73.5C 75.7229,70.8858 74.5562,69.2191 72,68.5C 71.0573,62.8807 68.3906,58.2141 64,54.5C 63.6667,54.8333 63.3333,55.1667 63,55.5C 59.961,51.7466 60.1277,48.0799 63.5,44.5C 63.5,44.1667 63.5,43.8333 63.5,43.5C 65.5,42.8333 67.5,42.1667 69.5,41.5 Z"/></g>
<g><path style="opacity:1" fill="#6a37be" d="M 146.5,58.5 C 150.31,57.976 152.31,59.6426 152.5,63.5C 150.46,61.823 148.46,60.1563 146.5,58.5 Z"/></g>
<g><path style="opacity:1" fill="#4c16ac" d="M 191.5,55.5 C 189.537,57.3993 188.037,59.7326 187,62.5C 185.989,63.3366 184.822,63.67 183.5,63.5C 185.296,61.3829 186.962,59.0496 188.5,56.5C 189.325,55.6143 190.325,55.281 191.5,55.5 Z"/></g>
<g><path style="opacity:1" fill="#ddccfb" d="M 95.5,47.5 C 97.5273,47.3379 99.5273,47.5045 101.5,48C 104.007,51.673 107.007,54.8397 110.5,57.5C 114.045,63.9241 118.545,69.5908 124,74.5C 125.009,76.0249 125.509,77.6916 125.5,79.5C 124.325,79.719 123.325,79.3857 122.5,78.5C 117.912,72.5854 112.579,67.5854 106.5,63.5C 103.896,58.9407 100.396,55.2741 96,52.5C 95.5065,50.8659 95.3398,49.1992 95.5,47.5 Z"/></g>
<g><path style="opacity:1" fill="#382d44" d="M 196.5,53.5 C 196.388,57.9543 194.055,60.621 189.5,61.5C 188.571,62.6888 188.238,64.0222 188.5,65.5C 189.5,65.5 190.5,65.5 191.5,65.5C 191.5,66.8333 191.5,68.1667 191.5,69.5C 189.633,69.045 187.8,68.3784 186,67.5C 183.808,67.8627 181.974,68.8627 180.5,70.5C 181.957,68.3718 182.957,66.0384 183.5,63.5C 184.822,63.67 185.989,63.3366 187,62.5C 188.037,59.7326 189.537,57.3993 191.5,55.5C 193.514,55.6085 195.18,54.9418 196.5,53.5 Z"/></g>
<g><path style="opacity:1" fill="#bf9bfa" d="M 81.5,38.5 C 79.2573,39.0838 77.2573,40.2505 75.5,42C 77.0614,42.941 78.3947,44.1076 79.5,45.5C 78.624,46.2508 77.624,46.7508 76.5,47C 81.4556,47.6698 84.6222,50.5031 86,55.5C 88.6277,57.1255 90.961,59.1255 93,61.5C 93.9504,66.0651 96.7837,68.3985 101.5,68.5C 105.397,71.7526 108.73,75.4193 111.5,79.5C 110.833,79.5 110.167,79.5 109.5,79.5C 107.365,77.9291 105.032,76.5957 102.5,75.5C 98.5548,73.8473 94.5548,72.1806 90.5,70.5C 91.5,69.8333 92.5,69.1667 93.5,68.5C 87.3525,61.1849 81.0192,54.0182 74.5,47C 74.8333,46.6667 75.1667,46.3333 75.5,46C 68.2451,45.9304 67.5785,44.097 73.5,40.5C 75.8383,38.9605 78.5049,38.2938 81.5,38.5 Z"/></g>
<g><path style="opacity:1" fill="#9a64f9" d="M 63.5,44.5 C 60.1277,48.0799 59.961,51.7466 63,55.5C 63.3333,55.1667 63.6667,54.8333 64,54.5C 68.3906,58.2141 71.0573,62.8807 72,68.5C 74.5562,69.2191 75.7229,70.8858 75.5,73.5C 78.1667,73.5 80.8333,73.5 83.5,73.5C 81.2088,74.765 78.8754,76.0983 76.5,77.5C 75.8826,77.3893 75.3826,77.056 75,76.5C 74.5814,77.6721 73.9147,78.6721 73,79.5C 69.1694,72.0425 64.0028,65.5425 57.5,60C 55.9751,58.9914 54.3084,58.4914 52.5,58.5C 52.5,56.8333 52.5,55.1667 52.5,53.5C 54.2255,51.7721 55.5589,49.7721 56.5,47.5C 59.0384,46.9573 61.3718,45.9573 63.5,44.5 Z"/></g>
<g><path style="opacity:1" fill="#5d29bb" d="M 154.5,63.5 C 157.361,65.2906 160.361,66.9573 163.5,68.5C 164.592,71.0942 166.259,73.2609 168.5,75C 170.759,74.5613 173.092,74.0613 175.5,73.5C 175.5,74.1667 175.5,74.8333 175.5,75.5C 173.442,76.9331 171.108,77.5997 168.5,77.5C 164.875,73.2624 160.708,69.5957 156,66.5C 155.487,65.4734 154.987,64.4734 154.5,63.5 Z"/></g>
<g><path style="opacity:1" fill="#402274" d="M 183.5,63.5 C 182.957,66.0384 181.957,68.3718 180.5,70.5C 179.078,71.925 177.411,72.925 175.5,73.5C 178.18,70.1173 180.847,66.7839 183.5,63.5 Z"/></g>
<g><path style="opacity:1" fill="#8d50f9" d="M 52.5,53.5 C 52.5,55.1667 52.5,56.8333 52.5,58.5C 54.3084,58.4914 55.9751,58.9914 57.5,60C 64.0028,65.5425 69.1694,72.0425 73,79.5C 73.9147,78.6721 74.5814,77.6721 75,76.5C 75.3826,77.056 75.8826,77.3893 76.5,77.5C 76.5,78.1667 76.5,78.8333 76.5,79.5C 74.7202,80.9899 74.0535,82.9899 74.5,85.5C 73.5255,86.635 72.3588,87.635 71,88.5C 70.7811,87.062 70.2811,85.7287 69.5,84.5C 67.5764,84.8936 65.743,84.227 64,82.5C 61.5415,76.5701 57.8749,71.5701 53,67.5C 51.7768,64.6489 50.2768,61.9822 48.5,59.5C 49.6302,58.3777 50.2969,57.0443 50.5,55.5C 50.8333,54.5 51.5,53.8333 52.5,53.5 Z"/></g>
<g><path style="opacity:1" fill="#601dd4" d="M 83.5,73.5 C 86.1667,73.5 88.8333,73.5 91.5,73.5C 95.1667,74.1667 98.8333,74.8333 102.5,75.5C 105.032,76.5957 107.365,77.9291 109.5,79.5C 103.162,77.8998 96.8291,76.5664 90.5,75.5C 85.4731,74.8603 81.1398,76.1937 77.5,79.5C 77.1667,79.5 76.8333,79.5 76.5,79.5C 76.5,78.8333 76.5,78.1667 76.5,77.5C 78.8754,76.0983 81.2088,74.765 83.5,73.5 Z"/></g>
<g><path style="opacity:1" fill="#7c36f9" d="M 47.5,59.5 C 47.1758,63.5546 47.5091,67.5546 48.5,71.5C 49.914,72.624 51.414,73.624 53,74.5C 55.9343,80.0916 59.6009,85.0916 64,89.5C 65.128,91.3453 65.628,93.3453 65.5,95.5C 68.1685,96.0989 70.0018,97.7656 71,100.5C 71.7412,99.3595 72.5745,99.3595 73.5,100.5C 74.4519,98.9547 74.7852,97.288 74.5,95.5C 75.1758,99.4596 76.1758,103.46 77.5,107.5C 77.2247,109.609 76.058,110.942 74,111.5C 65.2326,102.211 57.8992,92.8774 52,83.5C 51.6667,83.8333 51.3333,84.1667 51,84.5C 48.9063,82.0787 47.2396,79.412 46,76.5C 45.5172,77.448 45.3505,78.448 45.5,79.5C 44.1667,79.5 42.8333,79.5 41.5,79.5C 41.5,76.8333 41.5,74.1667 41.5,71.5C 43.3081,67.4124 45.3081,63.4124 47.5,59.5 Z"/></g>
<g><path style="opacity:1" fill="#5901f4" d="M 109.5,79.5 C 110.167,79.5 110.833,79.5 111.5,79.5C 112.655,81.8251 114.655,82.9918 117.5,83C 119.968,86.4065 123.301,88.5732 127.5,89.5C 129.373,92.4488 132.039,94.4488 135.5,95.5C 135.833,95.5 136.167,95.5 136.5,95.5C 136.351,96.552 136.517,97.552 137,98.5C 138.892,100.054 140.392,101.888 141.5,104C 139.373,106.03 138.04,108.53 137.5,111.5C 137.167,111.5 136.833,111.5 136.5,111.5C 133.123,112.614 130.456,114.614 128.5,117.5C 127.183,115.713 127.516,114.046 129.5,112.5C 128.833,112.167 128.167,111.833 127.5,111.5C 125.107,113.363 122.44,114.696 119.5,115.5C 123.053,117.049 124.053,119.549 122.5,123C 119.147,123.891 116.813,122.725 115.5,119.5C 114.896,122.263 113.562,124.597 111.5,126.5C 113.167,127.167 114.833,127.833 116.5,128.5C 115.393,131.941 113.06,133.941 109.5,134.5C 108.754,135.736 108.421,137.07 108.5,138.5C 107.075,139.922 106.075,141.589 105.5,143.5C 105.167,143.5 104.833,143.5 104.5,143.5C 103.167,143.5 101.833,143.5 100.5,143.5C 98.0732,139.015 94.9065,135.015 91,131.5C 86.9374,125.091 83.2708,118.424 80,111.5C 79.9158,105.971 78.9158,100.638 77,95.5C 76.3239,90.1294 76.4905,84.7961 77.5,79.5C 81.1398,76.1937 85.4731,74.8603 90.5,75.5C 96.8291,76.5664 103.162,77.8998 109.5,79.5 Z"/></g>
<g><path style="opacity:1" fill="#e5d5fa" d="M 103.5,40.5 C 106.428,40.5651 109.095,41.2318 111.5,42.5C 107.815,42.1046 104.148,41.9379 100.5,42C 106.971,49.4747 113.471,56.9747 120,64.5C 120.333,66.1667 120.667,67.8333 121,69.5C 127.708,77.2092 135.041,84.2092 143,90.5C 143.499,94.1516 143.665,97.8183 143.5,101.5C 141.167,99.5 138.833,97.5 136.5,95.5C 136.167,95.5 135.833,95.5 135.5,95.5C 133.806,93.1394 131.806,91.1394 129.5,89.5C 129.611,88.8826 129.944,88.3826 130.5,88C 128.283,86.7316 126.283,85.2316 124.5,83.5C 125.729,82.7189 127.062,82.2189 128.5,82C 127.529,80.959 126.529,80.1257 125.5,79.5C 125.509,77.6916 125.009,76.0249 124,74.5C 118.545,69.5908 114.045,63.9241 110.5,57.5C 107.007,54.8397 104.007,51.673 101.5,48C 99.5273,47.5045 97.5273,47.3379 95.5,47.5C 96.5676,46.5655 97.901,46.2322 99.5,46.5C 99.6751,43.6711 98.3418,42.0045 95.5,41.5C 98.0865,40.52 100.753,40.1866 103.5,40.5 Z"/></g>
<g><path style="opacity:1" fill="#8545fa" d="M 50.5,55.5 C 50.2969,57.0443 49.6302,58.3777 48.5,59.5C 50.2768,61.9822 51.7768,64.6489 53,67.5C 57.8749,71.5701 61.5415,76.5701 64,82.5C 65.743,84.227 67.5764,84.8936 69.5,84.5C 70.2811,85.7287 70.7811,87.062 71,88.5C 72.3588,87.635 73.5255,86.635 74.5,85.5C 74.5,88.8333 74.5,92.1667 74.5,95.5C 74.7852,97.288 74.4519,98.9547 73.5,100.5C 72.5745,99.3595 71.7412,99.3595 71,100.5C 70.0018,97.7656 68.1685,96.0989 65.5,95.5C 65.628,93.3453 65.128,91.3453 64,89.5C 59.6009,85.0916 55.9343,80.0916 53,74.5C 51.414,73.624 49.914,72.624 48.5,71.5C 47.5091,67.5546 47.1758,63.5546 47.5,59.5C 47.7376,57.5956 48.7376,56.2623 50.5,55.5 Z"/></g>
<g><path style="opacity:1" fill="#7134cf" d="M 111.5,79.5 C 117.893,81.3516 123.226,84.6849 127.5,89.5C 123.301,88.5732 119.968,86.4065 117.5,83C 114.655,82.9918 112.655,81.8251 111.5,79.5 Z"/></g>
<g><path style="opacity:1" fill="#eee7fa" d="M 111.5,42.5 C 113.099,42.2322 114.432,42.5655 115.5,43.5C 110.414,43.9813 110.414,45.148 115.5,47C 114.062,47.2189 112.729,47.7189 111.5,48.5C 117.542,54.3745 123.376,60.3745 129,66.5C 130.656,70.9627 132.489,75.2961 134.5,79.5C 137.882,79.7263 140.882,80.7263 143.5,82.5C 144.95,87.6228 147.95,91.6228 152.5,94.5C 150.5,96.8333 148.5,99.1667 146.5,101.5C 145.609,102.11 144.609,102.443 143.5,102.5C 143.5,102.167 143.5,101.833 143.5,101.5C 143.665,97.8183 143.499,94.1516 143,90.5C 135.041,84.2092 127.708,77.2092 121,69.5C 120.667,67.8333 120.333,66.1667 120,64.5C 113.471,56.9747 106.971,49.4747 100.5,42C 104.148,41.9379 107.815,42.1046 111.5,42.5 Z"/></g>
<g><path style="opacity:1" fill="#303d3e" d="M 172.5,81.5 C 176.163,84.6196 179.33,88.2863 182,92.5C 182.333,92.1667 182.667,91.8333 183,91.5C 183.333,92.8333 183.667,94.1667 184,95.5C 190.989,102.323 196.156,110.323 199.5,119.5C 196.448,116.909 194.282,113.576 193,109.5C 192.667,109.167 192.333,108.833 192,108.5C 191.517,109.448 191.351,110.448 191.5,111.5C 190.127,111.657 188.793,111.49 187.5,111C 188.672,109.132 188.505,107.298 187,105.5C 183.959,101.298 180.626,97.2985 177,93.5C 176.167,95.5 175.333,97.5 174.5,99.5C 170.671,96.672 168.004,93.0053 166.5,88.5C 164.925,89.4565 163.258,90.1231 161.5,90.5C 162.3,88.2591 163.966,87.2591 166.5,87.5C 166.646,83.7429 168.646,81.7429 172.5,81.5 Z"/></g>
<g><path style="opacity:1" fill="#6024bf" d="M 127.5,89.5 C 128.167,89.5 128.833,89.5 129.5,89.5C 131.806,91.1394 133.806,93.1394 135.5,95.5C 132.039,94.4488 129.373,92.4488 127.5,89.5 Z"/></g>
<g><path style="opacity:1" fill="#3d4958" d="M 175.5,75.5 C 173.975,77.2163 172.975,79.2163 172.5,81.5C 168.646,81.7429 166.646,83.7429 166.5,87.5C 163.966,87.2591 162.3,88.2591 161.5,90.5C 160.094,90.9731 159.427,91.9731 159.5,93.5C 159.649,94.552 159.483,95.552 159,96.5C 157.057,95.193 155.223,95.193 153.5,96.5C 151.5,98.8333 149.5,101.167 147.5,103.5C 147.672,102.508 147.338,101.842 146.5,101.5C 148.5,99.1667 150.5,96.8333 152.5,94.5C 158.559,89.4428 163.893,83.7762 168.5,77.5C 171.108,77.5997 173.442,76.9331 175.5,75.5 Z"/></g>
<g><path style="opacity:1" fill="#6412f6" d="M 56.5,47.5 C 55.5589,49.7721 54.2255,51.7721 52.5,53.5C 51.5,53.8333 50.8333,54.5 50.5,55.5C 48.7376,56.2623 47.7376,57.5956 47.5,59.5C 45.3081,63.4124 43.3081,67.4124 41.5,71.5C 40.0242,78.7775 40.3575,86.1108 42.5,93.5C 47.1722,98.0121 51.3389,103.012 55,108.5C 55.3333,108.167 55.6667,107.833 56,107.5C 57.1268,110.377 57.7935,113.377 58,116.5C 59.6995,117.406 61.5328,117.739 63.5,117.5C 63.4521,120.292 64.7854,122.125 67.5,123C 65.9926,123.837 65.4926,125.004 66,126.5C 66.3333,126.167 66.6667,125.833 67,125.5C 68.864,126.964 71.0306,127.964 73.5,128.5C 74.4431,131.109 76.1097,133.109 78.5,134.5C 79.1667,137.5 79.8333,140.5 80.5,143.5C 82.3636,146.116 84.6969,146.95 87.5,146C 86.6173,149.456 85.1173,152.623 83,155.5C 82.235,157.066 82.4017,158.399 83.5,159.5C 84.8847,160.302 84.718,160.969 83,161.5C 82.0497,160.978 81.2164,160.311 80.5,159.5C 80.1667,160 79.8333,160.5 79.5,161C 81.8942,164.248 81.0608,166.748 77,168.5C 75.5886,170.65 74.7553,172.984 74.5,175.5C 74.1667,175.5 73.8333,175.5 73.5,175.5C 72.8333,175.5 72.1667,175.5 71.5,175.5C 70.8333,176.167 70.1667,176.833 69.5,177.5C 69.5,175.833 69.5,174.167 69.5,172.5C 70.8333,172.5 72.1667,172.5 73.5,172.5C 73.33,171.178 73.6634,170.011 74.5,169C 73.2893,168.213 72.2893,167.546 71.5,167C 71.7591,165.739 72.4258,164.739 73.5,164C 71.4078,163.047 71.0745,161.714 72.5,160C 70.0688,157.451 67.0688,155.951 63.5,155.5C 63.5,151.5 63.5,147.5 63.5,143.5C 60.4816,143.665 57.4816,143.498 54.5,143C 55.1667,142.667 55.8333,142.333 56.5,142C 50.113,132.724 45.7796,122.557 43.5,111.5C 42.1667,111.5 40.8333,111.5 39.5,111.5C 38.7107,101.985 37.7107,92.4855 36.5,83C 37.7234,77.0088 39.3901,71.1755 41.5,65.5C 40.0723,62.048 41.2389,59.7146 45,58.5C 44.9907,53.3316 46.1573,48.3316 48.5,43.5C 50.3615,42.4717 51.6948,40.9717 52.5,39C 53.4162,38.6258 54.2496,38.1258 55,37.5C 55.1667,38.1667 55.3333,38.8333 55.5,39.5C 53.6002,41.6195 51.9336,43.9528 50.5,46.5C 52.396,47.4656 54.396,47.7989 56.5,47.5 Z"/></g>
<g><path style="opacity:1" fill="#541bb2" d="M 136.5,95.5 C 138.833,97.5 141.167,99.5 143.5,101.5C 143.5,101.833 143.5,102.167 143.5,102.5C 142.72,105.958 141.053,108.958 138.5,111.5C 138.167,111.5 137.833,111.5 137.5,111.5C 138.04,108.53 139.373,106.03 141.5,104C 140.392,101.888 138.892,100.054 137,98.5C 136.517,97.552 136.351,96.552 136.5,95.5 Z"/></g>
<g><path style="opacity:1" fill="#3c3360" d="M 146.5,101.5 C 147.338,101.842 147.672,102.508 147.5,103.5C 147.5,104.167 147.5,104.833 147.5,105.5C 144.5,107.5 141.5,109.5 138.5,111.5C 141.053,108.958 142.72,105.958 143.5,102.5C 144.609,102.443 145.609,102.11 146.5,101.5 Z"/></g>
<g><path style="opacity:1" fill="#2d4545" d="M 199.5,119.5 C 202.925,128.607 206.259,137.774 209.5,147C 210.753,156.656 210.753,166.156 209.5,175.5C 209.666,167.493 209.5,159.493 209,151.5C 206.121,146.862 203.621,142.029 201.5,137C 201.833,136.667 202.167,136.333 202.5,136C 198.523,136.667 195.19,135.334 192.5,132C 194.037,130.89 194.703,129.39 194.5,127.5C 192.801,127.66 191.134,127.494 189.5,127C 185.804,121.459 181.304,116.625 176,112.5C 175.667,112.833 175.333,113.167 175,113.5C 172.652,110.138 170.819,106.472 169.5,102.5C 166.107,100.773 163.774,98.1062 162.5,94.5C 161.675,93.6143 160.675,93.281 159.5,93.5C 159.427,91.9731 160.094,90.9731 161.5,90.5C 163.258,90.1231 164.925,89.4565 166.5,88.5C 168.004,93.0053 170.671,96.672 174.5,99.5C 175.333,97.5 176.167,95.5 177,93.5C 180.626,97.2985 183.959,101.298 187,105.5C 188.505,107.298 188.672,109.132 187.5,111C 188.793,111.49 190.127,111.657 191.5,111.5C 191.351,110.448 191.517,109.448 192,108.5C 192.333,108.833 192.667,109.167 193,109.5C 194.282,113.576 196.448,116.909 199.5,119.5 Z"/></g>
<g><path style="opacity:1" fill="#323333" d="M 147.5,105.5 C 151.091,109.77 154.758,114.103 158.5,118.5C 159.797,121.774 161.464,124.774 163.5,127.5C 166.892,132.292 169.225,137.626 170.5,143.5C 170.473,149.426 171.14,155.26 172.5,161C 172.595,165.458 170.929,169.125 167.5,172C 160.842,172.5 154.175,172.666 147.5,172.5C 146.167,172.5 144.833,172.5 143.5,172.5C 143.5,172.167 143.5,171.833 143.5,171.5C 136.355,167.231 129.022,163.064 121.5,159C 117.324,154.657 112.991,150.491 108.5,146.5C 109.01,143.914 110.01,141.581 111.5,139.5C 111.5,139.167 111.5,138.833 111.5,138.5C 112.552,138.649 113.552,138.483 114.5,138C 118.061,134.909 121.061,131.409 123.5,127.5C 125.5,126.833 126.833,125.5 127.5,123.5C 127.5,123.167 127.5,122.833 127.5,122.5C 127.5,122.167 127.5,121.833 127.5,121.5C 133.058,120.276 136.725,116.943 138.5,111.5C 141.5,109.5 144.5,107.5 147.5,105.5 Z"/></g>
<g><path style="opacity:1" fill="#4b13b5" d="M 136.5,111.5 C 134.662,113.807 132.662,116.14 130.5,118.5C 129.675,119.386 128.675,119.719 127.5,119.5C 127.833,118.833 128.167,118.167 128.5,117.5C 130.456,114.614 133.123,112.614 136.5,111.5 Z"/></g>
<g><path style="opacity:1" fill="#7227f8" d="M 41.5,71.5 C 41.5,74.1667 41.5,76.8333 41.5,79.5C 42.8333,79.5 44.1667,79.5 45.5,79.5C 45.3505,78.448 45.5172,77.448 46,76.5C 47.2396,79.412 48.9063,82.0787 51,84.5C 51.3333,84.1667 51.6667,83.8333 52,83.5C 57.8992,92.8774 65.2326,102.211 74,111.5C 76.058,110.942 77.2247,109.609 77.5,107.5C 76.1758,103.46 75.1758,99.4596 74.5,95.5C 74.5,92.1667 74.5,88.8333 74.5,85.5C 74.0535,82.9899 74.7202,80.9899 76.5,79.5C 76.8333,79.5 77.1667,79.5 77.5,79.5C 76.4905,84.7961 76.3239,90.1294 77,95.5C 78.9158,100.638 79.9158,105.971 80,111.5C 83.2708,118.424 86.9374,125.091 91,131.5C 94.9065,135.015 98.0732,139.015 100.5,143.5C 99.5,143.5 98.5,143.5 97.5,143.5C 97.7989,145.604 97.4656,147.604 96.5,149.5C 95.2798,150.711 94.1131,150.711 93,149.5C 91.7308,150.905 91.2308,152.571 91.5,154.5C 89.8762,154.64 88.7096,153.973 88,152.5C 88.7916,154.846 88.6249,157.179 87.5,159.5C 86.2502,159.423 85.4169,158.756 85,157.5C 84.2828,158.044 83.7828,158.711 83.5,159.5C 82.4017,158.399 82.235,157.066 83,155.5C 85.1173,152.623 86.6173,149.456 87.5,146C 84.6969,146.95 82.3636,146.116 80.5,143.5C 79.8333,140.5 79.1667,137.5 78.5,134.5C 76.1097,133.109 74.4431,131.109 73.5,128.5C 71.0306,127.964 68.864,126.964 67,125.5C 66.6667,125.833 66.3333,126.167 66,126.5C 65.4926,125.004 65.9926,123.837 67.5,123C 64.7854,122.125 63.4521,120.292 63.5,117.5C 61.5328,117.739 59.6995,117.406 58,116.5C 57.7935,113.377 57.1268,110.377 56,107.5C 55.6667,107.833 55.3333,108.167 55,108.5C 51.3389,103.012 47.1722,98.0121 42.5,93.5C 40.3575,86.1108 40.0242,78.7775 41.5,71.5 Z"/></g>
<g><path style="opacity:1" fill="#5804e6" d="M 128.5,117.5 C 128.167,118.167 127.833,118.833 127.5,119.5C 127.5,120.167 127.5,120.833 127.5,121.5C 127.5,121.833 127.5,122.167 127.5,122.5C 124.167,122.5 122.5,124.167 122.5,127.5C 121.5,127.5 120.5,127.5 119.5,127.5C 119.5,128.5 119.5,129.5 119.5,130.5C 116.42,132.058 113.753,134.058 111.5,136.5C 110.222,136.782 109.222,137.449 108.5,138.5C 108.421,137.07 108.754,135.736 109.5,134.5C 113.06,133.941 115.393,131.941 116.5,128.5C 114.833,127.833 113.167,127.167 111.5,126.5C 113.562,124.597 114.896,122.263 115.5,119.5C 116.813,122.725 119.147,123.891 122.5,123C 124.053,119.549 123.053,117.049 119.5,115.5C 122.44,114.696 125.107,113.363 127.5,111.5C 128.167,111.833 128.833,112.167 129.5,112.5C 127.516,114.046 127.183,115.713 128.5,117.5 Z"/></g>
<g><path style="opacity:1" fill="#3d2862" d="M 136.5,111.5 C 136.833,111.5 137.167,111.5 137.5,111.5C 137.833,111.5 138.167,111.5 138.5,111.5C 136.725,116.943 133.058,120.276 127.5,121.5C 127.5,120.833 127.5,120.167 127.5,119.5C 128.675,119.719 129.675,119.386 130.5,118.5C 132.662,116.14 134.662,113.807 136.5,111.5 Z"/></g>
<g><path style="opacity:1" fill="#471893" d="M 127.5,122.5 C 127.5,122.833 127.5,123.167 127.5,123.5C 125.167,123.833 123.833,125.167 123.5,127.5C 123.167,127.5 122.833,127.5 122.5,127.5C 122.5,124.167 124.167,122.5 127.5,122.5 Z"/></g>
<g><path style="opacity:1" fill="#39275d" d="M 127.5,123.5 C 126.833,125.5 125.5,126.833 123.5,127.5C 123.833,125.167 125.167,123.833 127.5,123.5 Z"/></g>
<g><path style="opacity:1" fill="#2b5454" d="M 153.5,96.5 C 154.725,97.937 155.725,99.6036 156.5,101.5C 160.97,103.63 163.97,106.963 165.5,111.5C 169.651,112.106 172.985,114.273 175.5,118C 174.359,118.741 174.359,119.575 175.5,120.5C 178.987,121.647 180.987,123.981 181.5,127.5C 184.761,129.732 188.094,132.065 191.5,134.5C 192.423,137.447 193.089,140.447 193.5,143.5C 194.978,143.238 196.311,143.571 197.5,144.5C 201.462,147.784 204.962,151.45 208,155.5C 208.5,162.158 208.666,168.825 208.5,175.5C 208.167,175.5 207.833,175.5 207.5,175.5C 207.826,171.116 207.492,166.783 206.5,162.5C 205.029,161.619 204.196,160.286 204,158.5C 197.844,150.679 191.344,143.179 184.5,136C 182.024,133.429 179.024,131.929 175.5,131.5C 175.799,129.396 175.466,127.396 174.5,125.5C 168.814,122.172 164.814,117.838 162.5,112.5C 160.604,111.534 158.604,111.201 156.5,111.5C 156.351,112.552 156.517,113.552 157,114.5C 161.818,117.469 163.984,121.802 163.5,127.5C 161.464,124.774 159.797,121.774 158.5,118.5C 154.758,114.103 151.091,109.77 147.5,105.5C 147.5,104.833 147.5,104.167 147.5,103.5C 149.5,101.167 151.5,98.8333 153.5,96.5 Z"/></g>
<g><path style="opacity:1" fill="#2b4d4d" d="M 159.5,93.5 C 160.675,93.281 161.675,93.6143 162.5,94.5C 163.774,98.1062 166.107,100.773 169.5,102.5C 170.819,106.472 172.652,110.138 175,113.5C 175.333,113.167 175.667,112.833 176,112.5C 181.304,116.625 185.804,121.459 189.5,127C 191.134,127.494 192.801,127.66 194.5,127.5C 194.703,129.39 194.037,130.89 192.5,132C 195.19,135.334 198.523,136.667 202.5,136C 202.167,136.333 201.833,136.667 201.5,137C 203.621,142.029 206.121,146.862 209,151.5C 209.5,159.493 209.666,167.493 209.5,175.5C 209.167,175.5 208.833,175.5 208.5,175.5C 208.666,168.825 208.5,162.158 208,155.5C 204.962,151.45 201.462,147.784 197.5,144.5C 196.311,143.571 194.978,143.238 193.5,143.5C 193.089,140.447 192.423,137.447 191.5,134.5C 188.094,132.065 184.761,129.732 181.5,127.5C 180.987,123.981 178.987,121.647 175.5,120.5C 174.359,119.575 174.359,118.741 175.5,118C 172.985,114.273 169.651,112.106 165.5,111.5C 163.97,106.963 160.97,103.63 156.5,101.5C 155.725,99.6036 154.725,97.937 153.5,96.5C 155.223,95.193 157.057,95.193 159,96.5C 159.483,95.552 159.649,94.552 159.5,93.5 Z"/></g>
<g><path style="opacity:1" fill="#295c5b" d="M 207.5,175.5 C 207.843,177.483 207.176,178.817 205.5,179.5C 205.643,175.148 204.643,171.148 202.5,167.5C 196.737,165.405 193.071,161.405 191.5,155.5C 190.448,155.649 189.448,155.483 188.5,155C 185.618,151.407 182.618,147.907 179.5,144.5C 178.311,143.571 176.978,143.238 175.5,143.5C 174.495,138.464 173.162,138.464 171.5,143.5C 171.167,143.5 170.833,143.5 170.5,143.5C 169.225,137.626 166.892,132.292 163.5,127.5C 163.984,121.802 161.818,117.469 157,114.5C 156.517,113.552 156.351,112.552 156.5,111.5C 158.604,111.201 160.604,111.534 162.5,112.5C 164.814,117.838 168.814,122.172 174.5,125.5C 175.466,127.396 175.799,129.396 175.5,131.5C 179.024,131.929 182.024,133.429 184.5,136C 191.344,143.179 197.844,150.679 204,158.5C 204.196,160.286 205.029,161.619 206.5,162.5C 207.492,166.783 207.826,171.116 207.5,175.5 Z"/></g>
<g><path style="opacity:1" fill="#451b90" d="M 119.5,130.5 C 117.627,133.603 114.961,135.603 111.5,136.5C 113.753,134.058 116.42,132.058 119.5,130.5 Z"/></g>
<g><path style="opacity:1" fill="#3b295a" d="M 122.5,127.5 C 122.833,127.5 123.167,127.5 123.5,127.5C 121.061,131.409 118.061,134.909 114.5,138C 113.552,138.483 112.552,138.649 111.5,138.5C 111.5,137.833 111.5,137.167 111.5,136.5C 114.961,135.603 117.627,133.603 119.5,130.5C 119.5,129.5 119.5,128.5 119.5,127.5C 120.5,127.5 121.5,127.5 122.5,127.5 Z"/></g>
<g><path style="opacity:1" fill="#4b16a8" d="M 111.5,136.5 C 111.5,137.167 111.5,137.833 111.5,138.5C 111.5,138.833 111.5,139.167 111.5,139.5C 109.205,140.475 107.205,141.808 105.5,143.5C 106.075,141.589 107.075,139.922 108.5,138.5C 109.222,137.449 110.222,136.782 111.5,136.5 Z"/></g>
<g><path style="opacity:1" fill="#342f56" d="M 111.5,139.5 C 110.01,141.581 109.01,143.914 108.5,146.5C 107.5,146.5 106.5,146.5 105.5,146.5C 104.833,146.167 104.167,145.833 103.5,145.5C 103.833,144.833 104.167,144.167 104.5,143.5C 104.833,143.5 105.167,143.5 105.5,143.5C 107.205,141.808 109.205,140.475 111.5,139.5 Z"/></g>
<g><path style="opacity:1" fill="#42a5ed" d="M 103.5,145.5 C 104.167,145.833 104.833,146.167 105.5,146.5C 105.5,146.833 105.5,147.167 105.5,147.5C 104.127,147.343 102.793,147.51 101.5,148C 100.897,150.071 99.5638,151.238 97.5,151.5C 98.6144,148.596 100.614,146.596 103.5,145.5 Z"/></g>
<g><path style="opacity:1" fill="#5a39e6" d="M 100.5,143.5 C 101.833,143.5 103.167,143.5 104.5,143.5C 104.167,144.167 103.833,144.833 103.5,145.5C 100.614,146.596 98.6144,148.596 97.5,151.5C 96.1667,151.5 95.5,152.167 95.5,153.5C 94.5,153.833 93.8333,154.5 93.5,155.5C 91.1667,155.833 89.8333,157.167 89.5,159.5C 88.8333,159.5 88.1667,159.5 87.5,159.5C 88.6249,157.179 88.7916,154.846 88,152.5C 88.7096,153.973 89.8762,154.64 91.5,154.5C 91.2308,152.571 91.7308,150.905 93,149.5C 94.1131,150.711 95.2798,150.711 96.5,149.5C 97.4656,147.604 97.7989,145.604 97.5,143.5C 98.5,143.5 99.5,143.5 100.5,143.5 Z"/></g>
<g><path style="opacity:1" fill="#276867" d="M 205.5,179.5 C 205.248,183.327 203.915,186.66 201.5,189.5C 201.473,186.77 202.14,184.27 203.5,182C 203.333,181.167 203.167,180.333 203,179.5C 202,180.833 201,180.833 200,179.5C 199.51,178.207 199.343,176.873 199.5,175.5C 198.127,175.657 196.793,175.49 195.5,175C 195.833,174.667 196.167,174.333 196.5,174C 193.042,169.399 189.376,164.899 185.5,160.5C 182.602,157.929 179.269,156.262 175.5,155.5C 175.768,157.099 175.434,158.432 174.5,159.5C 174.344,153.884 173.344,148.551 171.5,143.5C 173.162,138.464 174.495,138.464 175.5,143.5C 176.978,143.238 178.311,143.571 179.5,144.5C 182.618,147.907 185.618,151.407 188.5,155C 189.448,155.483 190.448,155.649 191.5,155.5C 193.071,161.405 196.737,165.405 202.5,167.5C 204.643,171.148 205.643,175.148 205.5,179.5 Z"/></g>
<g><path style="opacity:1" fill="#154948" d="M 105.5,147.5 C 105.5,147.167 105.5,146.833 105.5,146.5C 106.5,146.5 107.5,146.5 108.5,146.5C 112.991,150.491 117.324,154.657 121.5,159C 129.022,163.064 136.355,167.231 143.5,171.5C 137.874,170.192 132.541,168.025 127.5,165C 123.805,162.49 120.138,159.99 116.5,157.5C 113.184,153.854 109.518,150.521 105.5,147.5 Z"/></g>
<g><path style="opacity:1" fill="#3a94f1" d="M 93.5,155.5 C 92.5,157.167 91.1667,158.5 89.5,159.5C 89.8333,157.167 91.1667,155.833 93.5,155.5 Z"/></g>
<g><path style="opacity:1" fill="#0afbfa" d="M 117.5,199.5 C 111.33,196.991 105.663,193.658 100.5,189.5C 100.167,189.5 99.8333,189.5 99.5,189.5C 93.8959,185.235 88.5626,180.568 83.5,175.5C 83.9528,174.542 84.6195,173.708 85.5,173C 83.6368,171.582 83.1368,169.749 84,167.5C 86.416,163.58 89.916,161.58 94.5,161.5C 92.9907,159.38 93.324,157.713 95.5,156.5C 97.9115,156.863 99.4115,155.863 100,153.5C 101.676,155.315 102.509,157.149 102.5,159C 106.855,159.878 109.855,162.378 111.5,166.5C 112.325,167.386 113.325,167.719 114.5,167.5C 115.042,171.213 117.208,173.546 121,174.5C 121.567,178.067 123.567,180.4 127,181.5C 134.05,189.378 140.883,197.378 147.5,205.5C 146.919,207.724 145.586,208.557 143.5,208C 145.301,207.683 145.634,207.016 144.5,206C 141.5,205.667 138.5,205.333 135.5,205C 133.779,203.473 131.779,202.473 129.5,202C 125.629,200.488 121.629,199.655 117.5,199.5 Z"/></g>
<g><path style="opacity:1" fill="#4926db" d="M 87.5,159.5 C 87.4431,160.609 87.1098,161.609 86.5,162.5C 84.1667,162.833 82.8333,164.167 82.5,166.5C 80.2729,167.401 79.2729,169.067 79.5,171.5C 77.1667,171.833 75.8333,173.167 75.5,175.5C 75.1667,175.5 74.8333,175.5 74.5,175.5C 74.7553,172.984 75.5886,170.65 77,168.5C 81.0608,166.748 81.8942,164.248 79.5,161C 79.8333,160.5 80.1667,160 80.5,159.5C 81.2164,160.311 82.0497,160.978 83,161.5C 84.718,160.969 84.8847,160.302 83.5,159.5C 83.7828,158.711 84.2828,158.044 85,157.5C 85.4169,158.756 86.2502,159.423 87.5,159.5 Z"/></g>
<g><path style="opacity:1" fill="#2de7f7" d="M 95.5,153.5 C 95.5,154.5 95.5,155.5 95.5,156.5C 93.324,157.713 92.9907,159.38 94.5,161.5C 89.916,161.58 86.416,163.58 84,167.5C 83.1368,169.749 83.6368,171.582 85.5,173C 84.6195,173.708 83.9528,174.542 83.5,175.5C 82.1667,174.5 80.8333,173.5 79.5,172.5C 79.5,172.167 79.5,171.833 79.5,171.5C 79.2729,169.067 80.2729,167.401 82.5,166.5C 84.1667,165.5 85.5,164.167 86.5,162.5C 87.1098,161.609 87.4431,160.609 87.5,159.5C 88.1667,159.5 88.8333,159.5 89.5,159.5C 91.1667,158.5 92.5,157.167 93.5,155.5C 93.8333,154.5 94.5,153.833 95.5,153.5 Z"/></g>
<g><path style="opacity:1" fill="#398bed" d="M 86.5,162.5 C 85.5,164.167 84.1667,165.5 82.5,166.5C 82.8333,164.167 84.1667,162.833 86.5,162.5 Z"/></g>
<g><path style="opacity:1" fill="#203e3d" d="M 170.5,143.5 C 170.833,143.5 171.167,143.5 171.5,143.5C 173.344,148.551 174.344,153.884 174.5,159.5C 174.819,165.818 172.485,170.818 167.5,174.5C 165.901,174.232 164.568,174.566 163.5,175.5C 157.731,176.068 152.398,175.068 147.5,172.5C 154.175,172.666 160.842,172.5 167.5,172C 170.929,169.125 172.595,165.458 172.5,161C 171.14,155.26 170.473,149.426 170.5,143.5 Z"/></g>
<g><path style="opacity:1" fill="#1f8988" d="M 196.5,195.5 C 195.08,198.588 192.747,200.588 189.5,201.5C 188.34,199.797 189.007,199.131 191.5,199.5C 190.974,196.192 192.307,194.026 195.5,193C 194.234,192.691 193.067,192.191 192,191.5C 191.667,191.833 191.333,192.167 191,192.5C 186.249,187.41 181.249,182.744 176,178.5C 175.51,177.207 175.343,175.873 175.5,174.5C 174.325,174.281 173.325,174.614 172.5,175.5C 173.506,176.396 173.506,177.062 172.5,177.5C 171.15,176.05 169.484,175.383 167.5,175.5C 166.167,175.5 164.833,175.5 163.5,175.5C 164.568,174.566 165.901,174.232 167.5,174.5C 169.435,173.85 171.435,173.517 173.5,173.5C 173.343,172.127 173.51,170.793 174,169.5C 174.317,171.301 174.984,171.634 176,170.5C 179.333,171.167 181.333,173.167 182,176.5C 186.04,180.875 190.373,184.875 195,188.5C 195.977,190.74 196.477,193.073 196.5,195.5 Z"/></g>
<g><path style="opacity:1" fill="#372872" d="M 79.5,171.5 C 79.5,171.833 79.5,172.167 79.5,172.5C 78.3634,173.789 77.0301,174.789 75.5,175.5C 75.8333,173.167 77.1667,171.833 79.5,171.5 Z"/></g>
<g><path style="opacity:1" fill="#1a9696" d="M 189.5,201.5 C 189.027,202.906 188.027,203.573 186.5,203.5C 186.457,196.705 183.124,191.705 176.5,188.5C 174.362,184.655 171.528,181.322 168,178.5C 167.517,177.552 167.351,176.552 167.5,175.5C 169.484,175.383 171.15,176.05 172.5,177.5C 173.506,177.062 173.506,176.396 172.5,175.5C 173.325,174.614 174.325,174.281 175.5,174.5C 175.343,175.873 175.51,177.207 176,178.5C 181.249,182.744 186.249,187.41 191,192.5C 191.333,192.167 191.667,191.833 192,191.5C 193.067,192.191 194.234,192.691 195.5,193C 192.307,194.026 190.974,196.192 191.5,199.5C 189.007,199.131 188.34,199.797 189.5,201.5 Z"/></g>
<g><path style="opacity:1" fill="#227777" d="M 201.5,189.5 C 200.541,192.107 198.874,194.107 196.5,195.5C 196.477,193.073 195.977,190.74 195,188.5C 190.373,184.875 186.04,180.875 182,176.5C 181.333,173.167 179.333,171.167 176,170.5C 174.984,171.634 174.317,171.301 174,169.5C 173.51,170.793 173.343,172.127 173.5,173.5C 171.435,173.517 169.435,173.85 167.5,174.5C 172.485,170.818 174.819,165.818 174.5,159.5C 175.434,158.432 175.768,157.099 175.5,155.5C 179.269,156.262 182.602,157.929 185.5,160.5C 189.376,164.899 193.042,169.399 196.5,174C 196.167,174.333 195.833,174.667 195.5,175C 196.793,175.49 198.127,175.657 199.5,175.5C 199.343,176.873 199.51,178.207 200,179.5C 201,180.833 202,180.833 203,179.5C 203.167,180.333 203.333,181.167 203.5,182C 202.14,184.27 201.473,186.77 201.5,189.5 Z"/></g>
<g><path style="opacity:1" fill="#174343" d="M 79.5,172.5 C 80.8333,173.5 82.1667,174.5 83.5,175.5C 88.5626,180.568 93.8959,185.235 99.5,189.5C 95.462,188.312 91.7953,186.312 88.5,183.5C 87.1092,181.11 85.1092,179.443 82.5,178.5C 81.6143,177.675 81.281,176.675 81.5,175.5C 80.448,175.649 79.448,175.483 78.5,175C 79.2524,174.329 79.5858,173.496 79.5,172.5 Z"/></g>
<g><path style="opacity:1" fill="#0fd7d7" d="M 105.5,147.5 C 109.518,150.521 113.184,153.854 116.5,157.5C 116.5,158.833 116.5,160.167 116.5,161.5C 118.937,161.756 121.271,162.423 123.5,163.5C 124.386,164.325 124.719,165.325 124.5,166.5C 129.091,169.462 134.091,171.962 139.5,174C 142.117,174.822 144.784,175.322 147.5,175.5C 148.64,179.155 150.807,182.155 154,184.5C 155.591,187.352 156.924,190.352 158,193.5C 162.399,197.969 166.566,202.636 170.5,207.5C 164.642,210.172 158.309,211.172 151.5,210.5C 149.265,210.795 147.265,210.461 145.5,209.5C 150.267,209.809 154.934,209.309 159.5,208C 154.245,202.721 149.078,197.221 144,191.5C 143.51,190.207 143.343,188.873 143.5,187.5C 142.127,187.657 140.793,187.49 139.5,187C 137.114,182.44 133.447,179.607 128.5,178.5C 125.957,174.573 122.957,171.073 119.5,168C 117.899,167.727 116.399,167.227 115,166.5C 112.89,162.646 110.724,158.812 108.5,155C 111.264,153.456 111.097,152.289 108,151.5C 107.667,151.833 107.333,152.167 107,152.5C 104.874,148.986 102.707,148.82 100.5,152C 98.8455,152.608 97.1789,153.108 95.5,153.5C 95.5,152.167 96.1667,151.5 97.5,151.5C 99.5638,151.238 100.897,150.071 101.5,148C 102.793,147.51 104.127,147.343 105.5,147.5 Z"/></g>
<g><path style="opacity:1" fill="#421f7f" d="M 71.5,175.5 C 72.1667,175.5 72.8333,175.5 73.5,175.5C 72.6872,178.989 70.6872,181.656 67.5,183.5C 69.2845,181.052 70.6178,178.385 71.5,175.5 Z"/></g>
<g><path style="opacity:1" fill="#382b4f" d="M 73.5,175.5 C 73.8333,175.5 74.1667,175.5 74.5,175.5C 74.8333,175.5 75.1667,175.5 75.5,175.5C 72.8871,181.113 68.8871,185.446 63.5,188.5C 64.7503,186.846 66.0837,185.179 67.5,183.5C 70.6872,181.656 72.6872,178.989 73.5,175.5 Z"/></g>
<g><path style="opacity:1" fill="#4c14b4" d="M 71.5,175.5 C 70.6178,178.385 69.2845,181.052 67.5,183.5C 66.0837,185.179 64.7503,186.846 63.5,188.5C 61.6458,189.241 59.9791,190.241 58.5,191.5C 58.1667,191.5 57.8333,191.5 57.5,191.5C 57.8333,187.833 59.8333,185.833 63.5,185.5C 63.5,184.5 63.5,183.5 63.5,182.5C 64.675,182.719 65.675,182.386 66.5,181.5C 67.0351,179.739 68.0351,178.406 69.5,177.5C 70.1667,176.833 70.8333,176.167 71.5,175.5 Z"/></g>
<g><path style="opacity:1" fill="#14bdbc" d="M 116.5,157.5 C 120.138,159.99 123.805,162.49 127.5,165C 132.541,168.025 137.874,170.192 143.5,171.5C 143.5,171.833 143.5,172.167 143.5,172.5C 147.341,173.782 150.674,175.949 153.5,179C 156.224,179.27 158.891,179.77 161.5,180.5C 162.281,181.729 162.781,183.062 163,184.5C 167.516,187.883 171.349,191.883 174.5,196.5C 175.489,200.107 175.823,203.774 175.5,207.5C 173.833,207.5 172.167,207.5 170.5,207.5C 166.566,202.636 162.399,197.969 158,193.5C 156.924,190.352 155.591,187.352 154,184.5C 150.807,182.155 148.64,179.155 147.5,175.5C 144.784,175.322 142.117,174.822 139.5,174C 134.091,171.962 129.091,169.462 124.5,166.5C 124.719,165.325 124.386,164.325 123.5,163.5C 121.271,162.423 118.937,161.756 116.5,161.5C 116.5,160.167 116.5,158.833 116.5,157.5 Z"/></g>
<g><path style="opacity:1" fill="#144445" d="M 100.5,189.5 C 105.663,193.658 111.33,196.991 117.5,199.5C 121.34,200.63 124.673,202.63 127.5,205.5C 117.933,202.925 109.266,198.591 101.5,192.5C 100.873,191.583 100.539,190.583 100.5,189.5 Z"/></g>
<g><path style="opacity:1" fill="#4b13af" d="M 56.5,191.5 C 56.6495,192.552 56.4828,193.552 56,194.5C 53.2491,197.099 50.4158,199.432 47.5,201.5C 50.2227,197.959 53.2227,194.626 56.5,191.5 Z"/></g>
<g><path style="opacity:1" fill="#412271" d="M 56.5,191.5 C 56.8333,191.5 57.1667,191.5 57.5,191.5C 57.8333,191.5 58.1667,191.5 58.5,191.5C 58.2914,192.922 57.7914,194.255 57,195.5C 54.024,198.53 50.8573,201.197 47.5,203.5C 47.5,202.833 47.5,202.167 47.5,201.5C 50.4158,199.432 53.2491,197.099 56,194.5C 56.4828,193.552 56.6495,192.552 56.5,191.5 Z"/></g>
<g><path style="opacity:1" fill="#12eae9" d="M 145.5,209.5 C 139.473,208.295 133.473,206.961 127.5,205.5C 124.673,202.63 121.34,200.63 117.5,199.5C 121.629,199.655 125.629,200.488 129.5,202C 131.779,202.473 133.779,203.473 135.5,205C 138.5,205.333 141.5,205.667 144.5,206C 145.634,207.016 145.301,207.683 143.5,208C 145.586,208.557 146.919,207.724 147.5,205.5C 140.883,197.378 134.05,189.378 127,181.5C 123.567,180.4 121.567,178.067 121,174.5C 117.208,173.546 115.042,171.213 114.5,167.5C 113.325,167.719 112.325,167.386 111.5,166.5C 109.855,162.378 106.855,159.878 102.5,159C 102.509,157.149 101.676,155.315 100,153.5C 99.4115,155.863 97.9115,156.863 95.5,156.5C 95.5,155.5 95.5,154.5 95.5,153.5C 97.1789,153.108 98.8455,152.608 100.5,152C 102.707,148.82 104.874,148.986 107,152.5C 107.333,152.167 107.667,151.833 108,151.5C 111.097,152.289 111.264,153.456 108.5,155C 110.724,158.812 112.89,162.646 115,166.5C 116.399,167.227 117.899,167.727 119.5,168C 122.957,171.073 125.957,174.573 128.5,178.5C 133.447,179.607 137.114,182.44 139.5,187C 140.793,187.49 142.127,187.657 143.5,187.5C 143.343,188.873 143.51,190.207 144,191.5C 149.078,197.221 154.245,202.721 159.5,208C 154.934,209.309 150.267,209.809 145.5,209.5 Z"/></g>
<g><path style="opacity:1" fill="#1ea9a7" d="M 143.5,172.5 C 144.833,172.5 146.167,172.5 147.5,172.5C 152.398,175.068 157.731,176.068 163.5,175.5C 164.833,175.5 166.167,175.5 167.5,175.5C 167.351,176.552 167.517,177.552 168,178.5C 171.528,181.322 174.362,184.655 176.5,188.5C 183.124,191.705 186.457,196.705 186.5,203.5C 185.016,205.074 183.349,206.407 181.5,207.5C 176.822,208.559 172.156,209.725 167.5,211C 161.984,211.817 156.65,211.651 151.5,210.5C 158.309,211.172 164.642,210.172 170.5,207.5C 172.167,207.5 173.833,207.5 175.5,207.5C 175.823,203.774 175.489,200.107 174.5,196.5C 171.349,191.883 167.516,187.883 163,184.5C 162.781,183.062 162.281,181.729 161.5,180.5C 158.891,179.77 156.224,179.27 153.5,179C 150.674,175.949 147.341,173.782 143.5,172.5 Z"/></g>
<g><path style="opacity:1" fill="#4d11b4" d="M 41.5,207.5 C 40.1667,209.5 38.8333,211.5 37.5,213.5C 36.3176,216.009 34.3176,217.343 31.5,217.5C 33.9474,213.263 37.2808,209.93 41.5,207.5 Z"/></g>
<g><path style="opacity:1" fill="#461c87" d="M 47.5,203.5 C 45.7706,204.236 44.7706,205.57 44.5,207.5C 42.8065,210.19 40.4732,212.19 37.5,213.5C 38.8333,211.5 40.1667,209.5 41.5,207.5C 42.6824,204.991 44.6824,203.657 47.5,203.5 Z"/></g>
<g><path style="opacity:1" fill="#1e4140" d="M 127.5,205.5 C 133.473,206.961 139.473,208.295 145.5,209.5C 147.265,210.461 149.265,210.795 151.5,210.5C 156.65,211.651 161.984,211.817 167.5,211C 172.156,209.725 176.822,208.559 181.5,207.5C 175.427,212.795 168.26,214.795 160,213.5C 148.551,213.228 137.718,210.561 127.5,205.5 Z"/></g>
<g><path style="opacity:1" fill="#3b2956" d="M 44.5,207.5 C 44.7035,209.39 44.0368,210.89 42.5,212C 39.2157,213.617 36.5491,215.95 34.5,219C 33.552,219.483 32.552,219.649 31.5,219.5C 31.5,218.833 31.5,218.167 31.5,217.5C 34.3176,217.343 36.3176,216.009 37.5,213.5C 40.4732,212.19 42.8065,210.19 44.5,207.5 Z"/></g>
<g><path style="opacity:1" fill="#461e84" d="M 31.5,219.5 C 30.8776,221.122 29.8776,222.455 28.5,223.5C 28.1667,223.5 27.8333,223.5 27.5,223.5C 27.8333,221.167 29.1667,219.833 31.5,219.5 Z"/></g>
<g><path style="opacity:1" fill="#4d10b6" d="M 25.5,223.5 C 23.5181,227.146 20.8515,230.146 17.5,232.5C 19.4359,228.895 22.1025,225.895 25.5,223.5 Z"/></g>
<g><path style="opacity:1" fill="#382c49" d="M 26.5,223.5 C 26.8333,223.5 27.1667,223.5 27.5,223.5C 27.8333,223.5 28.1667,223.5 28.5,223.5C 25.7709,229.563 21.4376,233.896 15.5,236.5C 15.5,235.833 15.5,235.167 15.5,234.5C 20.7701,232.563 24.4368,228.897 26.5,223.5 Z"/></g>
<g><path style="opacity:1" fill="#441d82" d="M 25.5,223.5 C 25.8333,223.5 26.1667,223.5 26.5,223.5C 24.4368,228.897 20.7701,232.563 15.5,234.5C 15.5,233.167 16.1667,232.5 17.5,232.5C 20.8515,230.146 23.5181,227.146 25.5,223.5 Z"/></g>
<g><path style="opacity:1" fill="#4c12b1" d="M 10.5,239.5 C 9.89022,240.391 9.55688,241.391 9.5,242.5C 6.83333,243.167 5.16667,244.833 4.5,247.5C 3.66175,247.842 3.32842,248.508 3.5,249.5C 2.83333,249.5 2.16667,249.5 1.5,249.5C 3.1053,244.896 6.1053,241.562 10.5,239.5 Z"/></g>
<g><path style="opacity:1" fill="#3b2b4f" d="M 15.5,236.5 C 12.9567,241.385 9.62337,245.718 5.5,249.5C 4.83333,249.5 4.16667,249.5 3.5,249.5C 3.32842,248.508 3.66175,247.842 4.5,247.5C 6.5,246.167 8.16667,244.5 9.5,242.5C 9.55688,241.391 9.89022,240.391 10.5,239.5C 11.9791,238.241 13.6458,237.241 15.5,236.5 Z"/></g>
<g><path style="opacity:1" fill="#43207d" d="M 9.5,242.5 C 8.16667,244.5 6.5,246.167 4.5,247.5C 5.16667,244.833 6.83333,243.167 9.5,242.5 Z"/></g>
</svg>
