<?xml version="1.0" encoding="UTF-8"?>
<!DOCTYPE svg PUBLIC "-//W3C//DTD SVG 1.1//EN" "http://www.w3.org/Graphics/SVG/1.1/DTD/svg11.dtd">
<svg xmlns="http://www.w3.org/2000/svg" version="1.1" width="250px" height="250px" style="shape-rendering:geometricPrecision; text-rendering:geometricPrecision; image-rendering:optimizeQuality; fill-rule:evenodd; clip-rule:evenodd" xmlns:xlink="http://www.w3.org/1999/xlink">
<g><path style="opacity:1" fill="#fefdfe" d="M -0.5,-0.5 C 82.8333,-0.5 166.167,-0.5 249.5,-0.5C 249.5,36.5 249.5,73.5 249.5,110.5C 249.167,110.5 248.833,110.5 248.5,110.5C 248.167,108.5 247.833,106.5 247.5,104.5C 247.471,95.3676 245.138,87.0343 240.5,79.5C 239.217,75.9915 237.551,72.6582 235.5,69.5C 234.662,69.1583 234.328,68.4916 234.5,67.5C 234.573,65.9731 233.906,64.9731 232.5,64.5C 232.5,64.1667 232.5,63.8333 232.5,63.5C 231.92,61.2512 230.587,59.5846 228.5,58.5C 227.937,55.7052 226.604,53.3718 224.5,51.5C 224.5,49.5 223.5,48.5 221.5,48.5C 221.267,46.9382 220.6,45.6049 219.5,44.5C 218.833,41.1667 216.833,39.1667 213.5,38.5C 211.5,34.5 208.5,31.5 204.5,29.5C 203.833,29.5 203.167,29.5 202.5,29.5C 201.833,28.5 201.167,27.5 200.5,26.5C 199.486,25.3263 198.153,24.6596 196.5,24.5C 195.069,20.2766 192.069,18.2766 187.5,18.5C 185.882,16.684 183.882,15.3507 181.5,14.5C 179.304,11.6449 178.97,8.47825 180.5,5C 180.167,3.83333 179.833,2.66667 179.5,1.5C 178.893,1.62358 178.56,1.95691 178.5,2.5C 176.413,3.58457 175.08,5.25124 174.5,7.5C 172.926,8.98417 171.593,10.6508 170.5,12.5C 169.978,10.7809 168.978,9.44753 167.5,8.5C 161.426,5.59667 155.092,3.43001 148.5,2C 138.506,1.50019 128.506,1.33352 118.5,1.5C 114.154,1.33432 109.821,1.50098 105.5,2C 104.584,2.27842 103.918,2.77842 103.5,3.5C 99.6707,2.93104 96.3373,3.59771 93.5,5.5C 93.5,5.83333 93.5,6.16667 93.5,6.5C 91.1016,6.25939 89.1016,6.92606 87.5,8.5C 84.145,8.68964 81.145,9.68964 78.5,11.5C 76.0326,11.7549 74.0326,12.7549 72.5,14.5C 72.1667,14.5 71.8333,14.5 71.5,14.5C 70.391,14.5569 69.391,14.8902 68.5,15.5C 61.1429,18.0471 55.1429,22.3804 50.5,28.5C 49.5084,28.3284 48.8417,28.6618 48.5,29.5C 45.5268,30.8103 43.1935,32.8103 41.5,35.5C 37.5,38.8333 33.8333,42.5 30.5,46.5C 27.8154,49.1897 25.4821,52.1897 23.5,55.5C 21.7088,57.6848 19.8755,60.0181 18,62.5C 16.2932,64.9088 15.4598,67.5755 15.5,70.5C 14.6618,70.8417 14.3284,71.5084 14.5,72.5C 13.0937,72.9731 12.427,73.9731 12.5,75.5C 11.8902,76.391 11.5569,77.391 11.5,78.5C 9.129,81.6373 8.129,85.3039 8.5,89.5C 7.88258,89.6107 7.38258,89.944 7,90.5C 6.28106,94.1454 5.78106,97.8121 5.5,101.5C 5.5,101.833 5.5,102.167 5.5,102.5C 4.83333,104.167 4.16667,105.833 3.5,107.5C 2.11817,120.036 2.28483,132.703 4,145.5C 4.38258,146.056 4.88258,146.389 5.5,146.5C 5.42702,148.027 6.09368,149.027 7.5,149.5C 7.5,150.5 7.5,151.5 7.5,152.5C 7.60972,159.232 9.60972,165.232 13.5,170.5C 13.5,170.833 13.5,171.167 13.5,171.5C 13.7549,173.967 14.7549,175.967 16.5,177.5C 16.53,180.852 17.8633,183.518 20.5,185.5C 21.6737,186.514 22.3404,187.847 22.5,189.5C 23.3422,192.885 25.1755,195.551 28,197.5C 29.0076,200.304 30.5076,202.637 32.5,204.5C 34.2329,208.565 37.2329,211.232 41.5,212.5C 42.1667,215.833 44.1667,217.833 47.5,218.5C 47.5106,220.017 48.1772,221.184 49.5,222C 51.7389,223.418 54.0722,224.585 56.5,225.5C 58.046,227.931 60.3793,229.264 63.5,229.5C 65.1417,231.081 67.1417,231.747 69.5,231.5C 69.3284,232.492 69.6618,233.158 70.5,233.5C 72.9558,235.412 75.6225,237.245 78.5,239C 82.1135,239.936 85.7802,240.436 89.5,240.5C 89.9528,241.458 90.6195,242.292 91.5,243C 108.662,247.473 125.995,248.64 143.5,246.5C 151.086,246.692 158.086,245.025 164.5,241.5C 165.5,240.833 166.5,240.167 167.5,239.5C 171.431,238.868 174.765,237.201 177.5,234.5C 178.671,233.655 180.005,232.989 181.5,232.5C 183.749,231.92 185.415,230.587 186.5,228.5C 190.876,225.126 194.542,221.126 197.5,216.5C 198.5,216.167 199.167,215.5 199.5,214.5C 199.5,214.167 199.5,213.833 199.5,213.5C 201.262,212.738 202.262,211.404 202.5,209.5C 203.906,209.027 204.573,208.027 204.5,206.5C 205.857,205.41 206.857,204.076 207.5,202.5C 208.117,202.389 208.617,202.056 209,201.5C 213.052,188.812 214.385,175.812 213,162.5C 212.617,161.944 212.117,161.611 211.5,161.5C 211.723,155.676 210.89,150.01 209,144.5C 208.623,143.058 207.79,142.058 206.5,141.5C 206.573,139.973 205.906,138.973 204.5,138.5C 204.747,136.142 204.081,134.142 202.5,132.5C 201.849,129.197 200.182,126.53 197.5,124.5C 197.573,122.973 196.906,121.973 195.5,121.5C 192.899,117.229 189.566,113.563 185.5,110.5C 184.833,107.833 183.167,106.167 180.5,105.5C 179.833,105.5 179.167,105.5 178.5,105.5C 177.415,103.413 175.749,102.08 173.5,101.5C 171.704,99.1 169.37,97.4333 166.5,96.5C 165.833,96.5 165.167,96.5 164.5,96.5C 163.514,94.5923 161.848,93.5923 159.5,93.5C 158.833,93.5 158.167,93.5 157.5,93.5C 156.5,92.8333 155.5,92.1667 154.5,91.5C 152.485,90.0762 150.152,89.4095 147.5,89.5C 147.167,89.5 146.833,89.5 146.5,89.5C 143.781,88.087 140.781,87.4203 137.5,87.5C 137.5,87.1667 137.5,86.8333 137.5,86.5C 130.526,83.8977 123.193,82.8977 115.5,83.5C 115.241,85.9893 116.241,87.656 118.5,88.5C 118.833,88.5 119.167,88.5 119.5,88.5C 119.842,89.3382 120.508,89.6716 121.5,89.5C 123.094,92.7642 125.427,95.4309 128.5,97.5C 128.762,98.9778 128.429,100.311 127.5,101.5C 126.264,100.754 124.93,100.421 123.5,100.5C 121.981,99.5902 120.315,98.7568 118.5,98C 106.833,97.3333 95.1667,97.3333 83.5,98C 79.7262,98.5681 76.3929,99.7348 73.5,101.5C 73.5,101.833 73.5,102.167 73.5,102.5C 71.1432,102.337 68.8098,102.503 66.5,103C 65.6195,103.708 64.9528,104.542 64.5,105.5C 63.209,105.263 62.209,105.596 61.5,106.5C 58.9179,106.025 56.9179,106.692 55.5,108.5C 54.0413,108.433 52.7079,108.766 51.5,109.5C 50.0222,109.238 48.6888,109.571 47.5,110.5C 45.9208,111.667 44.5875,113 43.5,114.5C 42.8333,114.5 42.5,114.833 42.5,115.5C 40.8828,116.038 39.2161,116.371 37.5,116.5C 37.7373,115.209 37.404,114.209 36.5,113.5C 36.5,106.5 36.5,99.5 36.5,92.5C 36.8333,91.8333 37.1667,91.1667 37.5,90.5C 40.3644,88.9767 42.031,86.6433 42.5,83.5C 44.2911,81.5867 46.2911,79.92 48.5,78.5C 49.5832,78.4606 50.5832,78.1272 51.5,77.5C 52.1818,78.2427 52.8485,78.9094 53.5,79.5C 53.5106,81.0174 54.1772,82.1841 55.5,83C 58.6965,83.8045 61.6965,83.6378 64.5,82.5C 65.1667,82.5 65.8333,82.5 66.5,82.5C 71.2173,79.9626 75.5506,76.796 79.5,73C 81.8098,72.5034 84.1432,72.3367 86.5,72.5C 86.7373,71.209 86.404,70.209 85.5,69.5C 85.1667,68.8333 84.8333,68.1667 84.5,67.5C 84.573,65.9731 83.9063,64.9731 82.5,64.5C 82.2872,61.5491 82.9539,58.8825 84.5,56.5C 87.7843,54.883 90.4509,52.5497 92.5,49.5C 94.0269,49.573 95.0269,48.9063 95.5,47.5C 96.1667,47.5 96.8333,47.5 97.5,47.5C 101.624,46.6008 105.291,44.9341 108.5,42.5C 110.076,41.8571 111.41,40.8571 112.5,39.5C 116.284,39.1109 119.284,37.4442 121.5,34.5C 122.167,34.1667 122.833,33.8333 123.5,33.5C 127.718,31.1672 131.551,28.1672 135,24.5C 135.708,25.3805 136.542,26.0472 137.5,26.5C 137.5,26.8333 137.5,27.1667 137.5,27.5C 137.259,29.8984 137.926,31.8984 139.5,33.5C 140.5,33.5 141.5,33.5 142.5,33.5C 144.404,33.2624 145.738,32.2624 146.5,30.5C 153.029,28.4914 158.362,24.658 162.5,19C 163.816,18.4719 164.483,18.9719 164.5,20.5C 163.427,21.2506 163.26,22.2506 164,23.5C 165.205,24.0712 166.372,24.7379 167.5,25.5C 166.873,26.4168 166.539,27.4168 166.5,28.5C 162.52,32.1447 158.52,35.8114 154.5,39.5C 151.733,39.8702 149.733,41.2036 148.5,43.5C 146.435,43.953 144.768,44.953 143.5,46.5C 141.302,46.1201 139.635,46.7868 138.5,48.5C 136.088,48.6941 135.088,50.0274 135.5,52.5C 134.833,53.8333 134.167,55.1667 133.5,56.5C 132.094,56.9731 131.427,57.9731 131.5,59.5C 130.661,60.6412 129.994,61.9745 129.5,63.5C 130.614,64.7759 131.614,64.7759 132.5,63.5C 135.221,63.0372 137.888,62.3705 140.5,61.5C 144.174,61.2928 146.84,59.6262 148.5,56.5C 150.332,55.7515 151.999,54.7515 153.5,53.5C 154.167,53.5 154.833,53.5 155.5,53.5C 162.123,54.3796 168.789,54.713 175.5,54.5C 176.167,54.5 176.833,54.5 177.5,54.5C 178.568,55.4345 179.901,55.7678 181.5,55.5C 184.642,56.7903 187.975,57.7903 191.5,58.5C 192.93,59.5375 194.597,60.2041 196.5,60.5C 200.497,64.1705 205.164,66.8372 210.5,68.5C 212.22,69.3077 213.887,70.3077 215.5,71.5C 215.719,72.675 215.386,73.675 214.5,74.5C 212.929,73.6906 211.262,73.3573 209.5,73.5C 208.609,72.8902 207.609,72.5569 206.5,72.5C 204.898,70.9261 202.898,70.2594 200.5,70.5C 200.5,71.5 200.5,72.5 200.5,73.5C 198.784,73.3713 197.117,73.038 195.5,72.5C 193.833,72.5 192.167,72.5 190.5,72.5C 190.389,71.8826 190.056,71.3826 189.5,71C 185.521,69.5118 181.521,68.3452 177.5,67.5C 177.389,66.8826 177.056,66.3826 176.5,66C 170.173,65.349 163.84,64.849 157.5,64.5C 157.33,65.8221 157.663,66.9887 158.5,68C 165.607,69.7243 172.607,71.891 179.5,74.5C 179.833,74.5 180.167,74.5 180.5,74.5C 184.697,77.4179 189.364,79.7512 194.5,81.5C 194.833,81.5 195.167,81.5 195.5,81.5C 196.638,84.0862 198.638,85.7529 201.5,86.5C 202.391,87.1098 203.391,87.4431 204.5,87.5C 205.5,88.1667 206.5,88.8333 207.5,89.5C 208.693,92.9378 211.026,95.2712 214.5,96.5C 215.833,97.1667 216.833,98.1667 217.5,99.5C 219.404,102.398 221.237,105.398 223,108.5C 223.671,109.252 224.504,109.586 225.5,109.5C 225.845,112.198 227.178,114.198 229.5,115.5C 229.5,116.167 229.5,116.833 229.5,117.5C 230.11,119.434 231.11,121.101 232.5,122.5C 233.833,124.833 235.167,127.167 236.5,129.5C 237.167,132.167 237.833,134.833 238.5,137.5C 239.8,142.659 240.633,147.992 241,153.5C 242.914,156.038 244.414,155.705 245.5,152.5C 247.388,150.012 248.055,147.012 247.5,143.5C 248.167,143.167 248.833,142.833 249.5,142.5C 249.5,178.167 249.5,213.833 249.5,249.5C 166.167,249.5 82.8333,249.5 -0.5,249.5C -0.5,166.167 -0.5,82.8333 -0.5,-0.5 Z"/></g>
<g><path style="opacity:1" fill="#e5d9ff" d="M 118.5,1.5 C 118.5,1.83333 118.5,2.16667 118.5,2.5C 114.958,2.18723 111.625,2.52056 108.5,3.5C 106.833,3.5 105.167,3.5 103.5,3.5C 103.918,2.77842 104.584,2.27842 105.5,2C 109.821,1.50098 114.154,1.33432 118.5,1.5 Z"/></g>
<g><path style="opacity:1" fill="#ebe1fe" d="M 103.5,3.5 C 100.316,4.32321 96.9828,4.98988 93.5,5.5C 96.3373,3.59771 99.6707,2.93104 103.5,3.5 Z"/></g>
<g><path style="opacity:1" fill="#ccb4ff" d="M 178.5,2.5 C 179.833,3.83333 179.833,5.16667 178.5,6.5C 178.44,5.95691 178.107,5.62358 177.5,5.5C 176.482,6.19251 175.482,6.85917 174.5,7.5C 175.08,5.25124 176.413,3.58457 178.5,2.5 Z"/></g>
<g><path style="opacity:1" fill="#8e59ff" d="M 108.5,3.5 C 120.505,3.33346 132.505,3.50013 144.5,4C 145.416,4.27842 146.082,4.77842 146.5,5.5C 127.987,3.55913 109.654,4.55913 91.5,8.5C 92.1667,7.83333 92.8333,7.16667 93.5,6.5C 98.752,6.13755 103.752,5.13755 108.5,3.5 Z"/></g>
<g><path style="opacity:1" fill="#8045fe" d="M 146.5,5.5 C 151.371,6.77137 156.371,7.77137 161.5,8.5C 162.919,9.45115 164.585,9.78448 166.5,9.5C 166.649,10.552 166.483,11.552 166,12.5C 161.331,16.0027 157.164,20.0027 153.5,24.5C 152.448,24.3505 151.448,24.5172 150.5,25C 147.638,26.7354 145.304,28.9021 143.5,31.5C 141.801,31.4729 140.467,30.8062 139.5,29.5C 139.771,27.6203 139.104,26.287 137.5,25.5C 137.167,24.8333 136.833,24.1667 136.5,23.5C 135.399,22.4017 134.066,22.235 132.5,23C 129.29,25.3749 126.624,28.2082 124.5,31.5C 122.566,32.1103 120.899,33.1103 119.5,34.5C 117.152,34.5923 115.486,35.5923 114.5,37.5C 113.833,37.8333 113.167,38.1667 112.5,38.5C 108.606,38.1202 105.606,39.4536 103.5,42.5C 100.966,42.2591 99.2998,43.2591 98.5,45.5C 97.8333,45.5 97.1667,45.5 96.5,45.5C 94.9731,45.427 93.9731,46.0937 93.5,47.5C 91.368,47.5544 90.0347,48.5544 89.5,50.5C 83.2418,53.0882 80.2418,57.7549 80.5,64.5C 80.3964,66.7028 79.7298,68.7028 78.5,70.5C 76.1667,72.1667 74.1667,74.1667 72.5,76.5C 70.2512,77.0798 68.5846,78.4131 67.5,80.5C 66.391,80.5569 65.391,80.8902 64.5,81.5C 61.4299,81.6323 58.4299,81.299 55.5,80.5C 55.3404,78.847 54.6737,77.5137 53.5,76.5C 53.5,75.5 53.5,74.5 53.5,73.5C 52.448,73.3505 51.448,73.5172 50.5,74C 45.5663,78.4262 41.233,83.2595 37.5,88.5C 37.5,88.8333 37.5,89.1667 37.5,89.5C 36.0937,89.9731 35.427,90.9731 35.5,92.5C 34.5062,101.986 34.1729,111.652 34.5,121.5C 36.1992,121.66 37.8659,121.494 39.5,121C 40.4709,119.519 41.8042,118.685 43.5,118.5C 46.4775,123.48 50.8108,126.48 56.5,127.5C 56.5,127.833 56.5,128.167 56.5,128.5C 61.372,131.169 66.7053,132.169 72.5,131.5C 71.8833,126.44 73.2167,122.106 76.5,118.5C 80.9757,117.721 85.309,116.554 89.5,115C 95.8556,114.406 102.189,114.573 108.5,115.5C 113.749,116.698 118.749,118.698 123.5,121.5C 125.027,121.427 126.027,122.094 126.5,123.5C 127.976,125.5 129.809,127.167 132,128.5C 135.052,134.566 138.552,140.233 142.5,145.5C 143.485,149.634 143.818,153.968 143.5,158.5C 142.542,158.953 141.708,159.619 141,160.5C 140.667,162.5 140.333,164.5 140,166.5C 137.693,170.358 135.859,174.358 134.5,178.5C 133.833,178.5 133.5,178.833 133.5,179.5C 129.493,182.182 125.827,185.182 122.5,188.5C 116.367,190.481 110.034,191.981 103.5,193C 93.4903,193.5 83.4903,193.333 73.5,192.5C 65.9102,191.014 58.5768,189.014 51.5,186.5C 45.5427,182.9 39.5427,179.233 33.5,175.5C 31.39,172.381 28.7234,170.048 25.5,168.5C 24.05,166.005 22.05,164.005 19.5,162.5C 18.7367,158.63 16.7367,155.63 13.5,153.5C 13.6061,150.385 12.6061,147.719 10.5,145.5C 9.00884,140.882 7.50884,136.215 6,131.5C 5.50085,126.845 5.33418,122.179 5.5,117.5C 5.5,112.5 5.5,107.5 5.5,102.5C 5.5,102.167 5.5,101.833 5.5,101.5C 5.83333,101.5 6.16667,101.5 6.5,101.5C 8.40229,98.6627 9.06896,95.3293 8.5,91.5C 10.3581,88.1731 11.6914,84.5064 12.5,80.5C 14.274,77.3758 15.6073,74.0425 16.5,70.5C 19.3934,68.2515 21.0601,65.2515 21.5,61.5C 22.9063,61.0269 23.573,60.0269 23.5,58.5C 25.2624,57.7377 26.2624,56.4044 26.5,54.5C 27.9063,54.0269 28.573,53.0269 28.5,51.5C 30.5311,50.4613 31.8645,48.7946 32.5,46.5C 35.8333,42.8333 39.1667,39.1667 42.5,35.5C 43.552,35.6495 44.552,35.4828 45.5,35C 48.3957,31.9343 51.3957,29.1009 54.5,26.5C 57.0892,25.5806 59.0892,23.914 60.5,21.5C 60.8333,21.5 61.1667,21.5 61.5,21.5C 66.9761,19.5759 71.9761,16.9092 76.5,13.5C 76.8333,13.5 77.1667,13.5 77.5,13.5C 80.1267,12.8951 82.7934,12.3951 85.5,12C 87.8888,11.2612 89.8888,10.0946 91.5,8.5C 109.654,4.55913 127.987,3.55913 146.5,5.5 Z"/></g>
<g><path style="opacity:1" fill="#be9fff" d="M 103.5,3.5 C 105.167,3.5 106.833,3.5 108.5,3.5C 103.752,5.13755 98.752,6.13755 93.5,6.5C 93.5,6.16667 93.5,5.83333 93.5,5.5C 96.9828,4.98988 100.316,4.32321 103.5,3.5 Z"/></g>
<g><path style="opacity:1" fill="#e0d1ff" d="M 118.5,2.5 C 118.5,2.16667 118.5,1.83333 118.5,1.5C 128.506,1.33352 138.506,1.50019 148.5,2C 155.092,3.43001 161.426,5.59667 167.5,8.5C 165.5,8.5 163.5,8.5 161.5,8.5C 161.389,7.88258 161.056,7.38258 160.5,7C 146.797,3.11662 132.797,1.61662 118.5,2.5 Z"/></g>
<g><path style="opacity:1" fill="#b998ff" d="M 93.5,6.5 C 92.8333,7.16667 92.1667,7.83333 91.5,8.5C 90.1667,8.5 88.8333,8.5 87.5,8.5C 89.1016,6.92606 91.1016,6.25939 93.5,6.5 Z"/></g>
<g><path style="opacity:1" fill="#b28dff" d="M 108.5,3.5 C 111.625,2.52056 114.958,2.18723 118.5,2.5C 132.797,1.61662 146.797,3.11662 160.5,7C 161.056,7.38258 161.389,7.88258 161.5,8.5C 156.371,7.77137 151.371,6.77137 146.5,5.5C 146.082,4.77842 145.416,4.27842 144.5,4C 132.505,3.50013 120.505,3.33346 108.5,3.5 Z"/></g>
<g><path style="opacity:1" fill="#a57bff" d="M 178.5,6.5 C 178.5,6.83333 178.5,7.16667 178.5,7.5C 177.539,9.26465 177.205,11.2646 177.5,13.5C 176.698,12.0484 176.198,10.3817 176,8.5C 175.617,9.05596 175.117,9.38929 174.5,9.5C 174.5,8.83333 174.5,8.16667 174.5,7.5C 175.482,6.85917 176.482,6.19251 177.5,5.5C 178.107,5.62358 178.44,5.95691 178.5,6.5 Z"/></g>
<g><path style="opacity:1" fill="#8f5aff" d="M 87.5,8.5 C 88.8333,8.5 90.1667,8.5 91.5,8.5C 89.8888,10.0946 87.8888,11.2612 85.5,12C 82.7934,12.3951 80.1267,12.8951 77.5,13.5C 77.8333,12.8333 78.1667,12.1667 78.5,11.5C 81.9164,11.4725 84.9164,10.4725 87.5,8.5 Z"/></g>
<g><path style="opacity:1" fill="#ebe1fe" d="M 178.5,2.5 C 178.56,1.95691 178.893,1.62358 179.5,1.5C 179.833,2.66667 180.167,3.83333 180.5,5C 178.97,8.47825 179.304,11.6449 181.5,14.5C 180.504,14.5858 179.671,14.2524 179,13.5C 178.505,11.5273 178.338,9.5273 178.5,7.5C 178.5,7.16667 178.5,6.83333 178.5,6.5C 179.833,5.16667 179.833,3.83333 178.5,2.5 Z"/></g>
<g><path style="opacity:1" fill="#ba98ff" d="M 87.5,8.5 C 84.9164,10.4725 81.9164,11.4725 78.5,11.5C 81.145,9.68964 84.145,8.68964 87.5,8.5 Z"/></g>
<g><path style="opacity:1" fill="#c1a3ff" d="M 161.5,8.5 C 163.5,8.5 165.5,8.5 167.5,8.5C 167.66,10.1992 167.494,11.8659 167,13.5C 162.331,17.3367 157.831,21.3367 153.5,25.5C 153.5,25.1667 153.5,24.8333 153.5,24.5C 157.164,20.0027 161.331,16.0027 166,12.5C 166.483,11.552 166.649,10.552 166.5,9.5C 164.585,9.78448 162.919,9.45115 161.5,8.5 Z"/></g>
<g><path style="opacity:1" fill="#c8adff" d="M 178.5,7.5 C 178.338,9.5273 178.505,11.5273 179,13.5C 179.671,14.2524 180.504,14.5858 181.5,14.5C 183.882,15.3507 185.882,16.684 187.5,18.5C 187.5,18.8333 187.5,19.1667 187.5,19.5C 183.836,18.0036 180.503,16.0036 177.5,13.5C 177.205,11.2646 177.539,9.26465 178.5,7.5 Z"/></g>
<g><path style="opacity:1" fill="#c4a7ff" d="M 78.5,11.5 C 78.1667,12.1667 77.8333,12.8333 77.5,13.5C 77.1667,13.5 76.8333,13.5 76.5,13.5C 75.1667,13.8333 73.8333,14.1667 72.5,14.5C 74.0326,12.7549 76.0326,11.7549 78.5,11.5 Z"/></g>
<g><path style="opacity:1" fill="#c6abff" d="M 174.5,7.5 C 174.5,8.16667 174.5,8.83333 174.5,9.5C 172.199,12.8101 169.866,16.1434 167.5,19.5C 167.167,19.5 166.833,19.5 166.5,19.5C 167.806,17.1838 169.139,14.8505 170.5,12.5C 171.593,10.6508 172.926,8.98417 174.5,7.5 Z"/></g>
<g><path style="opacity:1" fill="#8247ff" d="M 177.5,13.5 C 180.503,16.0036 183.836,18.0036 187.5,19.5C 187.973,20.9063 188.973,21.573 190.5,21.5C 191.5,22.1667 192.5,22.8333 193.5,23.5C 194.539,25.5311 196.205,26.8645 198.5,27.5C 199.605,28.6005 200.938,29.2671 202.5,29.5C 203.585,31.5869 205.251,32.9202 207.5,33.5C 208.5,36.5 210.5,38.5 213.5,39.5C 215.401,43.0743 218.068,46.0743 221.5,48.5C 222.167,49.5 222.833,50.5 223.5,51.5C 224.611,54.8557 226.277,57.8557 228.5,60.5C 229.5,60.8333 230.167,61.5 230.5,62.5C 231.015,66.2989 232.681,69.2989 235.5,71.5C 236.755,76.9138 238.755,81.9138 241.5,86.5C 241.41,89.1522 242.076,91.4855 243.5,93.5C 244.167,97.1667 244.833,100.833 245.5,104.5C 246.146,113.152 246.479,121.818 246.5,130.5C 246.608,135.87 246.275,141.203 245.5,146.5C 243.589,143.339 241.922,140.005 240.5,136.5C 239.27,134.703 238.604,132.703 238.5,130.5C 238.304,126.25 236.638,122.917 233.5,120.5C 233.167,120.5 232.833,120.5 232.5,120.5C 232.672,119.508 232.338,118.842 231.5,118.5C 231.573,116.973 230.906,115.973 229.5,115.5C 229.5,114.833 229.5,114.167 229.5,113.5C 229.573,111.973 228.906,110.973 227.5,110.5C 227.5,110.167 227.5,109.833 227.5,109.5C 227.632,105.968 225.966,103.968 222.5,103.5C 220.5,99.5 217.5,96.5 213.5,94.5C 212.833,91.8333 211.167,90.1667 208.5,89.5C 206.731,86.7234 204.398,84.7234 201.5,83.5C 200.972,82.2794 200.305,81.1127 199.5,80C 202.167,80 204.833,80 207.5,80C 208.337,78.9887 208.67,77.8221 208.5,76.5C 209.5,76.5 210.5,76.5 211.5,76.5C 212.391,77.1098 213.391,77.4431 214.5,77.5C 215.167,77.8333 215.833,78.1667 216.5,78.5C 217.262,80.2624 218.596,81.2624 220.5,81.5C 221.5,82.1667 222.5,82.8333 223.5,83.5C 224.5,84.8333 225.5,86.1667 226.5,87.5C 227.08,89.7488 228.413,91.4154 230.5,92.5C 231.287,94.1042 232.62,94.7709 234.5,94.5C 234.768,92.901 234.434,91.5676 233.5,90.5C 232.167,88.8333 230.833,87.1667 229.5,85.5C 228.833,84.8333 228.167,84.1667 227.5,83.5C 227.167,82.8333 226.833,82.1667 226.5,81.5C 224.167,77.1667 220.833,73.8333 216.5,71.5C 215.027,69.6053 213.36,67.9387 211.5,66.5C 210.101,65.1103 208.434,64.1103 206.5,63.5C 205.833,63.5 205.167,63.5 204.5,63.5C 203.508,63.6716 202.842,63.3382 202.5,62.5C 201.817,60.8235 200.483,60.1568 198.5,60.5C 198.027,59.0937 197.027,58.427 195.5,58.5C 194.833,58.5 194.167,58.5 193.5,58.5C 193.027,57.0937 192.027,56.427 190.5,56.5C 188.901,56.7678 187.568,56.4345 186.5,55.5C 184.012,53.6122 181.012,52.9455 177.5,53.5C 174.026,52.4751 170.36,51.8084 166.5,51.5C 161.968,51.1818 157.634,51.5151 153.5,52.5C 151.147,53.3403 149.147,54.6736 147.5,56.5C 147.167,56.5 146.833,56.5 146.5,56.5C 144.973,56.427 143.973,57.0937 143.5,58.5C 140.773,59.5771 137.94,60.5771 135,61.5C 134.5,61.1667 134,60.8333 133.5,60.5C 134.127,59.5832 134.461,58.5832 134.5,57.5C 135.026,55.7697 136.026,54.4363 137.5,53.5C 140.542,49.7943 144.542,47.2943 149.5,46C 151.192,44.6927 152.525,43.1927 153.5,41.5C 155.38,41.7709 156.713,41.1042 157.5,39.5C 158.5,37.8333 159.833,36.5 161.5,35.5C 165.217,34.0802 167.55,31.4135 168.5,27.5C 170.975,26.3126 171.975,24.3126 171.5,21.5C 169.517,21.8432 168.183,21.1765 167.5,19.5C 169.866,16.1434 172.199,12.8101 174.5,9.5C 175.117,9.38929 175.617,9.05596 176,8.5C 176.198,10.3817 176.698,12.0484 177.5,13.5 Z"/></g>
<g><path style="opacity:1" fill="#bfa0ff" d="M 71.5,14.5 C 71.0269,15.9063 70.0269,16.573 68.5,16.5C 68.5,16.1667 68.5,15.8333 68.5,15.5C 69.391,14.8902 70.391,14.5569 71.5,14.5 Z"/></g>
<g><path style="opacity:1" fill="#d8c5ff" d="M 68.5,15.5 C 68.5,15.8333 68.5,16.1667 68.5,16.5C 65.6298,17.4333 63.2964,19.1 61.5,21.5C 61.1667,21.5 60.8333,21.5 60.5,21.5C 57.9108,22.4194 55.9108,24.086 54.5,26.5C 52.9382,26.7329 51.6049,27.3995 50.5,28.5C 55.1429,22.3804 61.1429,18.0471 68.5,15.5 Z"/></g>
<g><path style="opacity:1" fill="#9f72ff" d="M 76.5,13.5 C 71.9761,16.9092 66.9761,19.5759 61.5,21.5C 63.2964,19.1 65.6298,17.4333 68.5,16.5C 70.0269,16.573 71.0269,15.9063 71.5,14.5C 71.8333,14.5 72.1667,14.5 72.5,14.5C 73.8333,14.1667 75.1667,13.8333 76.5,13.5 Z"/></g>
<g><path style="opacity:1" fill="#eee6fe" d="M 167.5,8.5 C 168.978,9.44753 169.978,10.7809 170.5,12.5C 169.139,14.8505 167.806,17.1838 166.5,19.5C 165.833,19.8333 165.167,20.1667 164.5,20.5C 164.483,18.9719 163.816,18.4719 162.5,19C 158.362,24.658 153.029,28.4914 146.5,30.5C 148.55,28.4525 150.883,26.7859 153.5,25.5C 157.831,21.3367 162.331,17.3367 167,13.5C 167.494,11.8659 167.66,10.1992 167.5,8.5 Z"/></g>
<g><path style="opacity:1" fill="#a980ff" d="M 187.5,19.5 C 188.609,19.5569 189.609,19.8902 190.5,20.5C 190.5,20.8333 190.5,21.1667 190.5,21.5C 188.973,21.573 187.973,20.9063 187.5,19.5 Z"/></g>
<g><path style="opacity:1" fill="#c4a8ff" d="M 190.5,21.5 C 190.5,21.1667 190.5,20.8333 190.5,20.5C 192.404,20.7376 193.738,21.7376 194.5,23.5C 194.167,23.5 193.833,23.5 193.5,23.5C 192.5,22.8333 191.5,22.1667 190.5,21.5 Z"/></g>
<g><path style="opacity:1" fill="#e7daff" d="M 187.5,19.5 C 187.5,19.1667 187.5,18.8333 187.5,18.5C 192.069,18.2766 195.069,20.2766 196.5,24.5C 195.508,24.6716 194.842,24.3382 194.5,23.5C 193.738,21.7376 192.404,20.7376 190.5,20.5C 189.609,19.8902 188.609,19.5569 187.5,19.5 Z"/></g>
<g><path style="opacity:1" fill="#e8ddff" d="M 164.5,20.5 C 165.474,22.48 166.807,24.1467 168.5,25.5C 168.5,26.1667 168.5,26.8333 168.5,27.5C 167.833,27.8333 167.167,28.1667 166.5,28.5C 166.539,27.4168 166.873,26.4168 167.5,25.5C 166.372,24.7379 165.205,24.0712 164,23.5C 163.26,22.2506 163.427,21.2506 164.5,20.5 Z"/></g>
<g><path style="opacity:1" fill="#d1bbff" d="M 166.5,19.5 C 166.5,20.5 166.5,21.5 166.5,22.5C 167.5,22.5 168.5,22.5 169.5,22.5C 169.737,23.791 169.404,24.791 168.5,25.5C 166.807,24.1467 165.474,22.48 164.5,20.5C 165.167,20.1667 165.833,19.8333 166.5,19.5 Z"/></g>
<g><path style="opacity:1" fill="#9f72ff" d="M 60.5,21.5 C 59.0892,23.914 57.0892,25.5806 54.5,26.5C 55.9108,24.086 57.9108,22.4194 60.5,21.5 Z"/></g>
<g><path style="opacity:1" fill="#a277ff" d="M 166.5,19.5 C 166.833,19.5 167.167,19.5 167.5,19.5C 168.183,21.1765 169.517,21.8432 171.5,21.5C 171.975,24.3126 170.975,26.3126 168.5,27.5C 168.5,26.8333 168.5,26.1667 168.5,25.5C 169.404,24.791 169.737,23.791 169.5,22.5C 168.5,22.5 167.5,22.5 166.5,22.5C 166.5,21.5 166.5,20.5 166.5,19.5 Z"/></g>
<g><path style="opacity:1" fill="#9664ff" d="M 193.5,23.5 C 193.833,23.5 194.167,23.5 194.5,23.5C 194.842,24.3382 195.508,24.6716 196.5,24.5C 196.833,25.5 197.5,26.1667 198.5,26.5C 198.5,26.8333 198.5,27.1667 198.5,27.5C 196.205,26.8645 194.539,25.5311 193.5,23.5 Z"/></g>
<g><path style="opacity:1" fill="#b18cff" d="M 136.5,23.5 C 135.448,23.3505 134.448,23.5172 133.5,24C 130.583,26.7643 127.583,29.2643 124.5,31.5C 126.624,28.2082 129.29,25.3749 132.5,23C 134.066,22.235 135.399,22.4017 136.5,23.5 Z"/></g>
<g><path style="opacity:1" fill="#ad86ff" d="M 153.5,24.5 C 153.5,24.8333 153.5,25.1667 153.5,25.5C 150.883,26.7859 148.55,28.4525 146.5,30.5C 145.391,30.5569 144.391,30.8902 143.5,31.5C 145.304,28.9021 147.638,26.7354 150.5,25C 151.448,24.5172 152.448,24.3505 153.5,24.5 Z"/></g>
<g><path style="opacity:1" fill="#dccbff" d="M 196.5,24.5 C 198.153,24.6596 199.486,25.3263 200.5,26.5C 199.833,26.5 199.167,26.5 198.5,26.5C 197.5,26.1667 196.833,25.5 196.5,24.5 Z"/></g>
<g><path style="opacity:1" fill="#e2d4ff" d="M 136.5,23.5 C 136.833,24.1667 137.167,24.8333 137.5,25.5C 137.5,25.8333 137.5,26.1667 137.5,26.5C 136.542,26.0472 135.708,25.3805 135,24.5C 131.551,28.1672 127.718,31.1672 123.5,33.5C 123.833,32.8333 124.167,32.1667 124.5,31.5C 127.583,29.2643 130.583,26.7643 133.5,24C 134.448,23.5172 135.448,23.3505 136.5,23.5 Z"/></g>
<g><path style="opacity:1" fill="#b08aff" d="M 137.5,25.5 C 139.104,26.287 139.771,27.6203 139.5,29.5C 138.833,28.8333 138.167,28.1667 137.5,27.5C 137.5,27.1667 137.5,26.8333 137.5,26.5C 137.5,26.1667 137.5,25.8333 137.5,25.5 Z"/></g>
<g><path style="opacity:1" fill="#bc9cff" d="M 198.5,27.5 C 198.5,27.1667 198.5,26.8333 198.5,26.5C 199.167,26.5 199.833,26.5 200.5,26.5C 201.167,27.5 201.833,28.5 202.5,29.5C 200.938,29.2671 199.605,28.6005 198.5,27.5 Z"/></g>
<g><path style="opacity:1" fill="#e5d8ff" d="M 204.5,29.5 C 208.5,31.5 211.5,34.5 213.5,38.5C 211.5,36.8333 209.5,35.1667 207.5,33.5C 206.5,32.1667 205.5,30.8333 204.5,29.5 Z"/></g>
<g><path style="opacity:1" fill="#bd9dff" d="M 202.5,29.5 C 203.167,29.5 203.833,29.5 204.5,29.5C 205.5,30.8333 206.5,32.1667 207.5,33.5C 205.251,32.9202 203.585,31.5869 202.5,29.5 Z"/></g>
<g><path style="opacity:1" fill="#a87eff" d="M 139.5,29.5 C 140.467,30.8062 141.801,31.4729 143.5,31.5C 143.167,32.1667 142.833,32.8333 142.5,33.5C 141.5,33.5 140.5,33.5 139.5,33.5C 139.5,32.1667 139.5,30.8333 139.5,29.5 Z"/></g>
<g><path style="opacity:1" fill="#e0d2ff" d="M 146.5,30.5 C 145.738,32.2624 144.404,33.2624 142.5,33.5C 142.833,32.8333 143.167,32.1667 143.5,31.5C 144.391,30.8902 145.391,30.5569 146.5,30.5 Z"/></g>
<g><path style="opacity:1" fill="#c8adff" d="M 48.5,29.5 C 46.8061,31.8606 44.8061,33.8606 42.5,35.5C 42.1667,35.5 41.8333,35.5 41.5,35.5C 43.1935,32.8103 45.5268,30.8103 48.5,29.5 Z"/></g>
<g><path style="opacity:1" fill="#9868ff" d="M 54.5,26.5 C 51.3957,29.1009 48.3957,31.9343 45.5,35C 44.552,35.4828 43.552,35.6495 42.5,35.5C 44.8061,33.8606 46.8061,31.8606 48.5,29.5C 48.8417,28.6618 49.5084,28.3284 50.5,28.5C 51.6049,27.3995 52.9382,26.7329 54.5,26.5 Z"/></g>
<g><path style="opacity:1" fill="#c0a2ff" d="M 124.5,31.5 C 124.167,32.1667 123.833,32.8333 123.5,33.5C 122.833,33.8333 122.167,34.1667 121.5,34.5C 120.833,34.5 120.167,34.5 119.5,34.5C 120.899,33.1103 122.566,32.1103 124.5,31.5 Z"/></g>
<g><path style="opacity:1" fill="#d5c1ff" d="M 137.5,27.5 C 138.167,28.1667 138.833,28.8333 139.5,29.5C 139.5,30.8333 139.5,32.1667 139.5,33.5C 137.926,31.8984 137.259,29.8984 137.5,27.5 Z"/></g>
<g><path style="opacity:1" fill="#9b6dff" d="M 168.5,27.5 C 167.55,31.4135 165.217,34.0802 161.5,35.5C 163.555,33.4451 165.221,31.1117 166.5,28.5C 167.167,28.1667 167.833,27.8333 168.5,27.5 Z"/></g>
<g><path style="opacity:1" fill="#ae88ff" d="M 207.5,33.5 C 209.5,35.1667 211.5,36.8333 213.5,38.5C 213.5,38.8333 213.5,39.1667 213.5,39.5C 210.5,38.5 208.5,36.5 207.5,33.5 Z"/></g>
<g><path style="opacity:1" fill="#a478ff" d="M 119.5,34.5 C 118.232,36.047 116.565,37.047 114.5,37.5C 115.486,35.5923 117.152,34.5923 119.5,34.5 Z"/></g>
<g><path style="opacity:1" fill="#c3a6ff" d="M 166.5,28.5 C 165.221,31.1117 163.555,33.4451 161.5,35.5C 159.833,36.5 158.5,37.8333 157.5,39.5C 156.391,39.5569 155.391,39.8902 154.5,40.5C 154.5,40.1667 154.5,39.8333 154.5,39.5C 158.52,35.8114 162.52,32.1447 166.5,28.5 Z"/></g>
<g><path style="opacity:1" fill="#dccbff" d="M 119.5,34.5 C 120.167,34.5 120.833,34.5 121.5,34.5C 119.284,37.4442 116.284,39.1109 112.5,39.5C 112.5,39.1667 112.5,38.8333 112.5,38.5C 113.167,38.1667 113.833,37.8333 114.5,37.5C 116.565,37.047 118.232,36.047 119.5,34.5 Z"/></g>
<g><path style="opacity:1" fill="#925fff" d="M 112.5,38.5 C 112.5,38.8333 112.5,39.1667 112.5,39.5C 110.033,39.7549 108.033,40.7549 106.5,42.5C 105.5,42.5 104.5,42.5 103.5,42.5C 105.606,39.4536 108.606,38.1202 112.5,38.5 Z"/></g>
<g><path style="opacity:1" fill="#dcccff" d="M 154.5,39.5 C 154.5,39.8333 154.5,40.1667 154.5,40.5C 153.833,40.5 153.5,40.8333 153.5,41.5C 151.847,41.6596 150.514,42.3263 149.5,43.5C 149.167,43.5 148.833,43.5 148.5,43.5C 149.733,41.2036 151.733,39.8702 154.5,39.5 Z"/></g>
<g><path style="opacity:1" fill="#9d70ff" d="M 157.5,39.5 C 156.713,41.1042 155.38,41.7709 153.5,41.5C 153.5,40.8333 153.833,40.5 154.5,40.5C 155.391,39.8902 156.391,39.5569 157.5,39.5 Z"/></g>
<g><path style="opacity:1" fill="#e8ddfe" d="M 213.5,39.5 C 213.5,39.1667 213.5,38.8333 213.5,38.5C 216.833,39.1667 218.833,41.1667 219.5,44.5C 217.5,42.8333 215.5,41.1667 213.5,39.5 Z"/></g>
<g><path style="opacity:1" fill="#cbb1ff" d="M 112.5,39.5 C 111.41,40.8571 110.076,41.8571 108.5,42.5C 107.833,42.5 107.167,42.5 106.5,42.5C 108.033,40.7549 110.033,39.7549 112.5,39.5 Z"/></g>
<g><path style="opacity:1" fill="#b089ff" d="M 213.5,39.5 C 215.5,41.1667 217.5,42.8333 219.5,44.5C 220.6,45.6049 221.267,46.9382 221.5,48.5C 218.068,46.0743 215.401,43.0743 213.5,39.5 Z"/></g>
<g><path style="opacity:1" fill="#b48fff" d="M 103.5,42.5 C 104.5,42.5 105.5,42.5 106.5,42.5C 103.924,43.4878 101.257,44.4878 98.5,45.5C 99.2998,43.2591 100.966,42.2591 103.5,42.5 Z"/></g>
<g><path style="opacity:1" fill="#bfa1ff" d="M 41.5,35.5 C 41.8333,35.5 42.1667,35.5 42.5,35.5C 39.1667,39.1667 35.8333,42.8333 32.5,46.5C 31.8333,46.8333 31.1667,47.1667 30.5,47.5C 30.5,47.1667 30.5,46.8333 30.5,46.5C 33.8333,42.5 37.5,38.8333 41.5,35.5 Z"/></g>
<g><path style="opacity:1" fill="#ede4fe" d="M 106.5,42.5 C 107.167,42.5 107.833,42.5 108.5,42.5C 105.291,44.9341 101.624,46.6008 97.5,47.5C 97.8333,46.8333 98.1667,46.1667 98.5,45.5C 101.257,44.4878 103.924,43.4878 106.5,42.5 Z"/></g>
<g><path style="opacity:1" fill="#9665ff" d="M 153.5,41.5 C 152.525,43.1927 151.192,44.6927 149.5,46C 144.542,47.2943 140.542,49.7943 137.5,53.5C 137.5,52.8333 137.5,52.1667 137.5,51.5C 137.557,50.391 137.89,49.391 138.5,48.5C 140.403,48.2041 142.07,47.5375 143.5,46.5C 145.967,46.2451 147.967,45.2451 149.5,43.5C 150.514,42.3263 151.847,41.6596 153.5,41.5 Z"/></g>
<g><path style="opacity:1" fill="#c4a8ff" d="M 148.5,43.5 C 148.833,43.5 149.167,43.5 149.5,43.5C 147.967,45.2451 145.967,46.2451 143.5,46.5C 144.768,44.953 146.435,43.953 148.5,43.5 Z"/></g>
<g><path style="opacity:1" fill="#aa82ff" d="M 96.5,45.5 C 96.1667,46.1667 95.8333,46.8333 95.5,47.5C 94.8333,47.5 94.1667,47.5 93.5,47.5C 93.9731,46.0937 94.9731,45.427 96.5,45.5 Z"/></g>
<g><path style="opacity:1" fill="#ccb4ff" d="M 96.5,45.5 C 97.1667,45.5 97.8333,45.5 98.5,45.5C 98.1667,46.1667 97.8333,46.8333 97.5,47.5C 96.8333,47.5 96.1667,47.5 95.5,47.5C 95.8333,46.8333 96.1667,46.1667 96.5,45.5 Z"/></g>
<g><path style="opacity:1" fill="#9c6eff" d="M 32.5,46.5 C 31.8645,48.7946 30.5311,50.4613 28.5,51.5C 29.1667,50.1667 29.8333,48.8333 30.5,47.5C 31.1667,47.1667 31.8333,46.8333 32.5,46.5 Z"/></g>
<g><path style="opacity:1" fill="#ece2fe" d="M 120.5,51.5 C 119.817,49.8235 118.483,49.1568 116.5,49.5C 117.784,47.3862 119.784,46.3862 122.5,46.5C 122.923,48.7812 122.256,50.4479 120.5,51.5 Z"/></g>
<g><path style="opacity:1" fill="#c7adff" d="M 143.5,46.5 C 142.07,47.5375 140.403,48.2041 138.5,48.5C 139.635,46.7868 141.302,46.1201 143.5,46.5 Z"/></g>
<g><path style="opacity:1" fill="#a47aff" d="M 93.5,47.5 C 93.1667,48.1667 92.8333,48.8333 92.5,49.5C 91.391,49.5569 90.391,49.8902 89.5,50.5C 90.0347,48.5544 91.368,47.5544 93.5,47.5 Z"/></g>
<g><path style="opacity:1" fill="#d8c6ff" d="M 93.5,47.5 C 94.1667,47.5 94.8333,47.5 95.5,47.5C 95.0269,48.9063 94.0269,49.573 92.5,49.5C 92.8333,48.8333 93.1667,48.1667 93.5,47.5 Z"/></g>
<g><path style="opacity:1" fill="#cdb4ff" d="M 221.5,48.5 C 223.5,48.5 224.5,49.5 224.5,51.5C 224.167,51.5 223.833,51.5 223.5,51.5C 222.833,50.5 222.167,49.5 221.5,48.5 Z"/></g>
<g><path style="opacity:1" fill="#d5c0ff" d="M 138.5,48.5 C 137.89,49.391 137.557,50.391 137.5,51.5C 136.833,51.8333 136.167,52.1667 135.5,52.5C 135.088,50.0274 136.088,48.6941 138.5,48.5 Z"/></g>
<g><path style="opacity:1" fill="#d2bdff" d="M 30.5,46.5 C 30.5,46.8333 30.5,47.1667 30.5,47.5C 29.8333,48.8333 29.1667,50.1667 28.5,51.5C 27.0937,51.9731 26.427,52.9731 26.5,54.5C 25.5,55.1667 24.5,55.8333 23.5,56.5C 23.5,56.1667 23.5,55.8333 23.5,55.5C 25.4821,52.1897 27.8154,49.1897 30.5,46.5 Z"/></g>
<g><path style="opacity:1" fill="#cdb5ff" d="M 166.5,51.5 C 167.5,52.1667 168.5,52.8333 169.5,53.5C 164.636,53.0856 159.969,53.0856 155.5,53.5C 154.833,53.5 154.167,53.5 153.5,53.5C 153.5,53.1667 153.5,52.8333 153.5,52.5C 157.634,51.5151 161.968,51.1818 166.5,51.5 Z"/></g>
<g><path style="opacity:1" fill="#e2d4ff" d="M 92.5,49.5 C 90.4509,52.5497 87.7843,54.883 84.5,56.5C 86.1139,54.5441 87.7806,52.5441 89.5,50.5C 90.391,49.8902 91.391,49.5569 92.5,49.5 Z"/></g>
<g><path style="opacity:1" fill="#ba98ff" d="M 166.5,51.5 C 170.36,51.8084 174.026,52.4751 177.5,53.5C 177.5,53.8333 177.5,54.1667 177.5,54.5C 176.833,54.5 176.167,54.5 175.5,54.5C 173.735,53.5386 171.735,53.2053 169.5,53.5C 168.5,52.8333 167.5,52.1667 166.5,51.5 Z"/></g>
<g><path style="opacity:1" fill="#a074ff" d="M 28.5,51.5 C 28.573,53.0269 27.9063,54.0269 26.5,54.5C 26.427,52.9731 27.0937,51.9731 28.5,51.5 Z"/></g>
<g><path style="opacity:1" fill="#e9defe" d="M 109.5,52.5 C 107.833,53.8333 106.167,55.1667 104.5,56.5C 102.251,57.0798 100.585,58.4131 99.5,60.5C 97.8958,61.287 97.2291,62.6203 97.5,64.5C 96.4017,63.3991 96.235,62.0657 97,60.5C 100.289,56.3629 104.455,53.6963 109.5,52.5 Z"/></g>
<g><path style="opacity:1" fill="#b693ff" d="M 116.5,49.5 C 118.483,49.1568 119.817,49.8235 120.5,51.5C 119.833,52.1667 119.167,52.8333 118.5,53.5C 118.38,52.4138 117.713,51.7472 116.5,51.5C 112.489,53.1866 108.489,54.8533 104.5,56.5C 106.167,55.1667 107.833,53.8333 109.5,52.5C 112.063,51.9117 114.396,50.9117 116.5,49.5 Z"/></g>
<g><path style="opacity:1" fill="#b592ff" d="M 153.5,52.5 C 153.5,52.8333 153.5,53.1667 153.5,53.5C 151.999,54.7515 150.332,55.7515 148.5,56.5C 148.167,56.5 147.833,56.5 147.5,56.5C 149.147,54.6736 151.147,53.3403 153.5,52.5 Z"/></g>
<g><path style="opacity:1" fill="#f0e8fe" d="M 155.5,53.5 C 159.969,53.0856 164.636,53.0856 169.5,53.5C 171.735,53.2053 173.735,53.5386 175.5,54.5C 168.789,54.713 162.123,54.3796 155.5,53.5 Z"/></g>
<g><path style="opacity:1" fill="#a57aff" d="M 177.5,53.5 C 181.012,52.9455 184.012,53.6122 186.5,55.5C 184.833,55.5 183.167,55.5 181.5,55.5C 179.901,55.7678 178.568,55.4345 177.5,54.5C 177.5,54.1667 177.5,53.8333 177.5,53.5 Z"/></g>
<g><path style="opacity:1" fill="#a073ff" d="M 26.5,54.5 C 26.2624,56.4044 25.2624,57.7377 23.5,58.5C 23.5,57.8333 23.5,57.1667 23.5,56.5C 24.5,55.8333 25.5,55.1667 26.5,54.5 Z"/></g>
<g><path style="opacity:1" fill="#864dff" d="M 118.5,53.5 C 116.146,56.8515 113.146,59.5181 109.5,61.5C 106.426,61.8726 103.426,62.5392 100.5,63.5C 100.961,60.6967 102.295,58.3634 104.5,56.5C 108.489,54.8533 112.489,53.1866 116.5,51.5C 117.713,51.7472 118.38,52.4138 118.5,53.5 Z"/></g>
<g><path style="opacity:1" fill="#d0baff" d="M 181.5,55.5 C 183.167,55.5 184.833,55.5 186.5,55.5C 187.568,56.4345 188.901,56.7678 190.5,56.5C 190.833,57.1667 191.167,57.8333 191.5,58.5C 187.975,57.7903 184.642,56.7903 181.5,55.5 Z"/></g>
<g><path style="opacity:1" fill="#ab83ff" d="M 89.5,50.5 C 87.7806,52.5441 86.1139,54.5441 84.5,56.5C 81.8283,58.3914 80.8283,61.0581 81.5,64.5C 81.1667,64.5 80.8333,64.5 80.5,64.5C 80.2418,57.7549 83.2418,53.0882 89.5,50.5 Z"/></g>
<g><path style="opacity:1" fill="#eadffe" d="M 120.5,51.5 C 120.969,54.3933 119.969,56.3933 117.5,57.5C 117.833,56.1667 118.167,54.8333 118.5,53.5C 119.167,52.8333 119.833,52.1667 120.5,51.5 Z"/></g>
<g><path style="opacity:1" fill="#c4a7ff" d="M 137.5,51.5 C 137.5,52.1667 137.5,52.8333 137.5,53.5C 136.026,54.4363 135.026,55.7697 134.5,57.5C 134.167,57.5 133.833,57.5 133.5,57.5C 133.5,57.1667 133.5,56.8333 133.5,56.5C 134.167,55.1667 134.833,53.8333 135.5,52.5C 136.167,52.1667 136.833,51.8333 137.5,51.5 Z"/></g>
<g><path style="opacity:1" fill="#a478ff" d="M 223.5,51.5 C 223.833,51.5 224.167,51.5 224.5,51.5C 226.604,53.3718 227.937,55.7052 228.5,58.5C 228.5,59.1667 228.5,59.8333 228.5,60.5C 226.277,57.8557 224.611,54.8557 223.5,51.5 Z"/></g>
<g><path style="opacity:1" fill="#b592ff" d="M 118.5,53.5 C 118.167,54.8333 117.833,56.1667 117.5,57.5C 114.08,60.2592 110.414,62.5925 106.5,64.5C 106.167,64.5 105.833,64.5 105.5,64.5C 106.59,63.1429 107.924,62.1429 109.5,61.5C 113.146,59.5181 116.146,56.8515 118.5,53.5 Z"/></g>
<g><path style="opacity:1" fill="#ae89ff" d="M 146.5,56.5 C 146.027,57.9063 145.027,58.573 143.5,58.5C 143.973,57.0937 144.973,56.427 146.5,56.5 Z"/></g>
<g><path style="opacity:1" fill="#ab85ff" d="M 190.5,56.5 C 192.027,56.427 193.027,57.0937 193.5,58.5C 192.833,58.5 192.167,58.5 191.5,58.5C 191.167,57.8333 190.833,57.1667 190.5,56.5 Z"/></g>
<g><path style="opacity:1" fill="#e0d1fe" d="M 133.5,56.5 C 133.5,56.8333 133.5,57.1667 133.5,57.5C 133.167,58.5 132.5,59.1667 131.5,59.5C 131.427,57.9731 132.094,56.9731 133.5,56.5 Z"/></g>
<g><path style="opacity:1" fill="#c9aeff" d="M 191.5,58.5 C 192.167,58.5 192.833,58.5 193.5,58.5C 194.167,58.5 194.833,58.5 195.5,58.5C 195.833,59.1667 196.167,59.8333 196.5,60.5C 194.597,60.2041 192.93,59.5375 191.5,58.5 Z"/></g>
<g><path style="opacity:1" fill="#aa82ff" d="M 23.5,58.5 C 23.573,60.0269 22.9063,61.0269 21.5,61.5C 21.427,59.9731 22.0937,58.9731 23.5,58.5 Z"/></g>
<g><path style="opacity:1" fill="#e1d2ff" d="M 146.5,56.5 C 146.833,56.5 147.167,56.5 147.5,56.5C 147.833,56.5 148.167,56.5 148.5,56.5C 146.84,59.6262 144.174,61.2928 140.5,61.5C 141.306,60.2719 142.306,59.2719 143.5,58.5C 145.027,58.573 146.027,57.9063 146.5,56.5 Z"/></g>
<g><path style="opacity:1" fill="#ab84ff" d="M 195.5,58.5 C 197.027,58.427 198.027,59.0937 198.5,60.5C 197.833,60.5 197.167,60.5 196.5,60.5C 196.167,59.8333 195.833,59.1667 195.5,58.5 Z"/></g>
<g><path style="opacity:1" fill="#bb9aff" d="M 133.5,57.5 C 133.833,57.5 134.167,57.5 134.5,57.5C 134.461,58.5832 134.127,59.5832 133.5,60.5C 134,60.8333 134.5,61.1667 135,61.5C 137.94,60.5771 140.773,59.5771 143.5,58.5C 142.306,59.2719 141.306,60.2719 140.5,61.5C 137.888,62.3705 135.221,63.0372 132.5,63.5C 131.566,62.4324 131.232,61.099 131.5,59.5C 132.5,59.1667 133.167,58.5 133.5,57.5 Z"/></g>
<g><path style="opacity:1" fill="#ac85ff" d="M 198.5,60.5 C 200.483,60.1568 201.817,60.8235 202.5,62.5C 200.847,62.3404 199.514,61.6737 198.5,60.5 Z"/></g>
<g><path style="opacity:1" fill="#d3beff" d="M 84.5,56.5 C 82.9539,58.8825 82.2872,61.5491 82.5,64.5C 82.1667,64.5 81.8333,64.5 81.5,64.5C 80.8283,61.0581 81.8283,58.3914 84.5,56.5 Z"/></g>
<g><path style="opacity:1" fill="#c7adff" d="M 131.5,59.5 C 131.232,61.099 131.566,62.4324 132.5,63.5C 131.614,64.7759 130.614,64.7759 129.5,63.5C 129.994,61.9745 130.661,60.6412 131.5,59.5 Z"/></g>
<g><path style="opacity:1" fill="#c8aeff" d="M 228.5,58.5 C 230.587,59.5846 231.92,61.2512 232.5,63.5C 231.833,63.1667 231.167,62.8333 230.5,62.5C 230.167,61.5 229.5,60.8333 228.5,60.5C 228.5,59.8333 228.5,59.1667 228.5,58.5 Z"/></g>
<g><path style="opacity:1" fill="#9767ff" d="M 104.5,56.5 C 102.295,58.3634 100.961,60.6967 100.5,63.5C 103.426,62.5392 106.426,61.8726 109.5,61.5C 107.924,62.1429 106.59,63.1429 105.5,64.5C 103.076,64.8076 100.743,64.4742 98.5,63.5C 99.1272,62.5832 99.4606,61.5832 99.5,60.5C 100.585,58.4131 102.251,57.0798 104.5,56.5 Z"/></g>
<g><path style="opacity:1" fill="#c5a9ff" d="M 99.5,60.5 C 99.4606,61.5832 99.1272,62.5832 98.5,63.5C 100.743,64.4742 103.076,64.8076 105.5,64.5C 105.833,64.5 106.167,64.5 106.5,64.5C 106.5,64.8333 106.5,65.1667 106.5,65.5C 103.287,65.81 100.287,65.4767 97.5,64.5C 97.2291,62.6203 97.8958,61.287 99.5,60.5 Z"/></g>
<g><path style="opacity:1" fill="#e8defe" d="M 117.5,57.5 C 116.294,60.2978 114.294,62.4645 111.5,64C 109.846,64.6077 108.179,65.1077 106.5,65.5C 106.5,65.1667 106.5,64.8333 106.5,64.5C 110.414,62.5925 114.08,60.2592 117.5,57.5 Z"/></g>
<g><path style="opacity:1" fill="#bfa2ff" d="M 204.5,63.5 C 205.167,63.5 205.833,63.5 206.5,63.5C 206.833,64.1667 207.167,64.8333 207.5,65.5C 205.973,65.573 204.973,64.9063 204.5,63.5 Z"/></g>
<g><path style="opacity:1" fill="#a174ff" d="M 206.5,63.5 C 208.434,64.1103 210.101,65.1103 211.5,66.5C 210.833,66.5 210.167,66.5 209.5,66.5C 208.508,66.6716 207.842,66.3382 207.5,65.5C 207.167,64.8333 206.833,64.1667 206.5,63.5 Z"/></g>
<g><path style="opacity:1" fill="#e2d4ff" d="M 23.5,55.5 C 23.5,55.8333 23.5,56.1667 23.5,56.5C 23.5,57.1667 23.5,57.8333 23.5,58.5C 22.0937,58.9731 21.427,59.9731 21.5,61.5C 20.171,63.0586 18.8376,64.7252 17.5,66.5C 16.7542,67.7362 16.4208,69.0695 16.5,70.5C 16.1667,70.5 15.8333,70.5 15.5,70.5C 15.4598,67.5755 16.2932,64.9088 18,62.5C 19.8755,60.0181 21.7088,57.6848 23.5,55.5 Z"/></g>
<g><path style="opacity:1" fill="#e9dffe" d="M 196.5,60.5 C 197.167,60.5 197.833,60.5 198.5,60.5C 199.514,61.6737 200.847,62.3404 202.5,62.5C 202.842,63.3382 203.508,63.6716 204.5,63.5C 204.973,64.9063 205.973,65.573 207.5,65.5C 207.842,66.3382 208.508,66.6716 209.5,66.5C 209.833,67.1667 210.167,67.8333 210.5,68.5C 205.164,66.8372 200.497,64.1705 196.5,60.5 Z"/></g>
<g><path style="opacity:1" fill="#a378ff" d="M 21.5,61.5 C 21.0601,65.2515 19.3934,68.2515 16.5,70.5C 16.4208,69.0695 16.7542,67.7362 17.5,66.5C 18.8376,64.7252 20.171,63.0586 21.5,61.5 Z"/></g>
<g><path style="opacity:1" fill="#d8c6ff" d="M 82.5,64.5 C 83.9063,64.9731 84.573,65.9731 84.5,67.5C 83.8333,67.1667 83.1667,66.8333 82.5,66.5C 82.5,65.8333 82.5,65.1667 82.5,64.5 Z"/></g>
<g><path style="opacity:1" fill="#c9afff" d="M 232.5,64.5 C 233.906,64.9731 234.573,65.9731 234.5,67.5C 233.094,67.0269 232.427,66.0269 232.5,64.5 Z"/></g>
<g><path style="opacity:1" fill="#8f5bff" d="M 80.5,64.5 C 80.8333,64.5 81.1667,64.5 81.5,64.5C 81.8333,64.5 82.1667,64.5 82.5,64.5C 82.5,65.1667 82.5,65.8333 82.5,66.5C 82.5106,68.0174 83.1772,69.1841 84.5,70C 82.5273,70.4955 80.5273,70.6621 78.5,70.5C 79.7298,68.7028 80.3964,66.7028 80.5,64.5 Z"/></g>
<g><path style="opacity:1" fill="#bfa0ff" d="M 177.5,67.5 C 181.521,68.3452 185.521,69.5118 189.5,71C 190.056,71.3826 190.389,71.8826 190.5,72.5C 185.548,71.1201 180.548,70.2868 175.5,70C 177.491,70.3736 179.158,71.207 180.5,72.5C 179.833,72.5 179.167,72.5 178.5,72.5C 174.419,70.4744 170.085,69.4744 165.5,69.5C 165.5,68.5 165.5,67.5 165.5,66.5C 169.534,66.5045 173.534,66.8379 177.5,67.5 Z"/></g>
<g><path style="opacity:1" fill="#a174ff" d="M 230.5,62.5 C 231.167,62.8333 231.833,63.1667 232.5,63.5C 232.5,63.8333 232.5,64.1667 232.5,64.5C 232.427,66.0269 233.094,67.0269 234.5,67.5C 234.328,68.4916 234.662,69.1583 235.5,69.5C 235.5,70.1667 235.5,70.8333 235.5,71.5C 232.681,69.2989 231.015,66.2989 230.5,62.5 Z"/></g>
<g><path style="opacity:1" fill="#b693ff" d="M 209.5,66.5 C 210.167,66.5 210.833,66.5 211.5,66.5C 213.36,67.9387 215.027,69.6053 216.5,71.5C 216.167,71.5 215.833,71.5 215.5,71.5C 213.887,70.3077 212.22,69.3077 210.5,68.5C 210.167,67.8333 209.833,67.1667 209.5,66.5 Z"/></g>
<g><path style="opacity:1" fill="#b18bff" d="M 216.5,71.5 C 220.833,73.8333 224.167,77.1667 226.5,81.5C 224.833,80.1667 223.167,78.8333 221.5,77.5C 219.833,75.5 218.167,73.5 216.5,71.5 Z"/></g>
<g><path style="opacity:1" fill="#ebe2fe" d="M 177.5,67.5 C 173.534,66.8379 169.534,66.5045 165.5,66.5C 165.5,67.5 165.5,68.5 165.5,69.5C 170.085,69.4744 174.419,70.4744 178.5,72.5C 178.833,73.1667 179.167,73.8333 179.5,74.5C 172.607,71.891 165.607,69.7243 158.5,68C 157.663,66.9887 157.33,65.8221 157.5,64.5C 163.84,64.849 170.173,65.349 176.5,66C 177.056,66.3826 177.389,66.8826 177.5,67.5 Z"/></g>
<g><path style="opacity:1" fill="#c4a8ff" d="M 190.5,72.5 C 192.167,72.5 193.833,72.5 195.5,72.5C 195.833,73.1667 196.167,73.8333 196.5,74.5C 195.833,74.5 195.167,74.5 194.5,74.5C 193.167,73.8333 191.833,73.1667 190.5,72.5 Z"/></g>
<g><path style="opacity:1" fill="#b997ff" d="M 235.5,69.5 C 237.551,72.6582 239.217,75.9915 240.5,79.5C 240.993,81.8056 241.326,84.139 241.5,86.5C 238.755,81.9138 236.755,76.9138 235.5,71.5C 235.5,70.8333 235.5,70.1667 235.5,69.5 Z"/></g>
<g><path style="opacity:1" fill="#b591ff" d="M 15.5,70.5 C 15.8333,70.5 16.1667,70.5 16.5,70.5C 15.6073,74.0425 14.274,77.3758 12.5,80.5C 12.1667,80.5 11.8333,80.5 11.5,80.5C 11.5,79.8333 11.5,79.1667 11.5,78.5C 11.5569,77.391 11.8902,76.391 12.5,75.5C 13.9063,75.0269 14.573,74.0269 14.5,72.5C 14.3284,71.5084 14.6618,70.8417 15.5,70.5 Z"/></g>
<g><path style="opacity:1" fill="#b997ff" d="M 82.5,66.5 C 83.1667,66.8333 83.8333,67.1667 84.5,67.5C 84.8333,68.1667 85.1667,68.8333 85.5,69.5C 83.6948,71.1969 81.3615,72.0302 78.5,72C 76.8863,74.1267 74.8863,75.6267 72.5,76.5C 74.1667,74.1667 76.1667,72.1667 78.5,70.5C 80.5273,70.6621 82.5273,70.4955 84.5,70C 83.1772,69.1841 82.5106,68.0174 82.5,66.5 Z"/></g>
<g><path style="opacity:1" fill="#925fff" d="M 190.5,72.5 C 191.833,73.1667 193.167,73.8333 194.5,74.5C 192.801,74.3398 191.134,74.5065 189.5,75C 190.416,75.2784 191.082,75.7784 191.5,76.5C 189.435,76.4828 187.435,76.1495 185.5,75.5C 183.928,74.3127 182.261,73.3127 180.5,72.5C 179.158,71.207 177.491,70.3736 175.5,70C 180.548,70.2868 185.548,71.1201 190.5,72.5 Z"/></g>
<g><path style="opacity:1" fill="#dbc9ff" d="M 14.5,72.5 C 14.573,74.0269 13.9063,75.0269 12.5,75.5C 12.427,73.9731 13.0937,72.9731 14.5,72.5 Z"/></g>
<g><path style="opacity:1" fill="#c9afff" d="M 178.5,72.5 C 179.167,72.5 179.833,72.5 180.5,72.5C 182.261,73.3127 183.928,74.3127 185.5,75.5C 183.784,75.3713 182.117,75.038 180.5,74.5C 180.167,74.5 179.833,74.5 179.5,74.5C 179.167,73.8333 178.833,73.1667 178.5,72.5 Z"/></g>
<g><path style="opacity:1" fill="#e6daff" d="M 206.5,72.5 C 205.167,72.5 203.833,72.5 202.5,72.5C 202.5,73.5 202.5,74.5 202.5,75.5C 201.5,75.5 200.5,75.5 199.5,75.5C 198.609,74.8902 197.609,74.5569 196.5,74.5C 196.167,73.8333 195.833,73.1667 195.5,72.5C 197.117,73.038 198.784,73.3713 200.5,73.5C 200.5,72.5 200.5,71.5 200.5,70.5C 202.898,70.2594 204.898,70.9261 206.5,72.5 Z"/></g>
<g><path style="opacity:1" fill="#c6abff" d="M 206.5,72.5 C 207.609,72.5569 208.609,72.8902 209.5,73.5C 209.5,73.8333 209.5,74.1667 209.5,74.5C 208.305,74.3225 207.138,73.9891 206,73.5C 204.287,74.1374 204.121,75.1374 205.5,76.5C 205.043,77.2975 204.376,77.6309 203.5,77.5C 202.167,77.1667 200.833,76.8333 199.5,76.5C 199.5,76.1667 199.5,75.8333 199.5,75.5C 200.5,75.5 201.5,75.5 202.5,75.5C 202.5,74.5 202.5,73.5 202.5,72.5C 203.833,72.5 205.167,72.5 206.5,72.5 Z"/></g>
<g><path style="opacity:1" fill="#a981ff" d="M 209.5,74.5 C 211.514,74.3915 213.18,75.0582 214.5,76.5C 214.5,76.8333 214.5,77.1667 214.5,77.5C 213.391,77.4431 212.391,77.1098 211.5,76.5C 210.081,75.5489 208.415,75.2155 206.5,75.5C 206.5,76.5 206.5,77.5 206.5,78.5C 205.209,78.7373 204.209,78.404 203.5,77.5C 204.376,77.6309 205.043,77.2975 205.5,76.5C 204.121,75.1374 204.287,74.1374 206,73.5C 207.138,73.9891 208.305,74.3225 209.5,74.5 Z"/></g>
<g><path style="opacity:1" fill="#eee6fe" d="M 215.5,71.5 C 215.833,71.5 216.167,71.5 216.5,71.5C 218.167,73.5 219.833,75.5 221.5,77.5C 221.5,78.8333 220.833,79.5 219.5,79.5C 218.833,79.1667 218.167,78.8333 217.5,78.5C 217.027,77.0937 216.027,76.427 214.5,76.5C 213.18,75.0582 211.514,74.3915 209.5,74.5C 209.5,74.1667 209.5,73.8333 209.5,73.5C 211.262,73.3573 212.929,73.6906 214.5,74.5C 215.386,73.675 215.719,72.675 215.5,71.5 Z"/></g>
<g><path style="opacity:1" fill="#a57aff" d="M 196.5,74.5 C 197.609,74.5569 198.609,74.8902 199.5,75.5C 199.5,75.8333 199.5,76.1667 199.5,76.5C 197.821,76.7148 196.821,76.0481 196.5,74.5 Z"/></g>
<g><path style="opacity:1" fill="#eadfff" d="M 53.5,76.5 C 53.5,77.5 53.5,78.5 53.5,79.5C 52.8485,78.9094 52.1818,78.2427 51.5,77.5C 50.5832,78.1272 49.5832,78.4606 48.5,78.5C 49.4991,75.8259 51.1658,75.1592 53.5,76.5 Z"/></g>
<g><path style="opacity:1" fill="#ccb4ff" d="M 214.5,77.5 C 214.5,77.1667 214.5,76.8333 214.5,76.5C 216.027,76.427 217.027,77.0937 217.5,78.5C 217.167,78.5 216.833,78.5 216.5,78.5C 215.833,78.1667 215.167,77.8333 214.5,77.5 Z"/></g>
<g><path style="opacity:1" fill="#bfa0ff" d="M 53.5,76.5 C 51.1658,75.1592 49.4991,75.8259 48.5,78.5C 46.2911,79.92 44.2911,81.5867 42.5,83.5C 41.194,85.4727 39.5273,87.1394 37.5,88.5C 41.233,83.2595 45.5663,78.4262 50.5,74C 51.448,73.5172 52.448,73.3505 53.5,73.5C 53.5,74.5 53.5,75.5 53.5,76.5 Z"/></g>
<g><path style="opacity:1" fill="#e6dafe" d="M 85.5,69.5 C 86.404,70.209 86.7373,71.209 86.5,72.5C 84.1432,72.3367 81.8098,72.5034 79.5,73C 75.5506,76.796 71.2173,79.9626 66.5,82.5C 66.8333,81.8333 67.1667,81.1667 67.5,80.5C 69.7488,79.9202 71.4154,78.5869 72.5,76.5C 74.8863,75.6267 76.8863,74.1267 78.5,72C 81.3615,72.0302 83.6948,71.1969 85.5,69.5 Z"/></g>
<g><path style="opacity:1" fill="#b998ff" d="M 185.5,75.5 C 187.435,76.1495 189.435,76.4828 191.5,76.5C 192.167,77.5 192.833,78.5 193.5,79.5C 190.609,78.4594 187.942,77.1261 185.5,75.5 Z"/></g>
<g><path style="opacity:1" fill="#8b54ff" d="M 194.5,74.5 C 195.167,74.5 195.833,74.5 196.5,74.5C 196.821,76.0481 197.821,76.7148 199.5,76.5C 200.833,76.8333 202.167,77.1667 203.5,77.5C 204.209,78.404 205.209,78.7373 206.5,78.5C 206.5,77.5 206.5,76.5 206.5,75.5C 208.415,75.2155 210.081,75.5489 211.5,76.5C 210.5,76.5 209.5,76.5 208.5,76.5C 208.67,77.8221 208.337,78.9887 207.5,80C 204.833,80 202.167,80 199.5,80C 200.305,81.1127 200.972,82.2794 201.5,83.5C 200.833,83.5 200.167,83.5 199.5,83.5C 199.027,82.0937 198.027,81.427 196.5,81.5C 196.027,80.0937 195.027,79.427 193.5,79.5C 192.833,78.5 192.167,77.5 191.5,76.5C 191.082,75.7784 190.416,75.2784 189.5,75C 191.134,74.5065 192.801,74.3398 194.5,74.5 Z"/></g>
<g><path style="opacity:1" fill="#deceff" d="M 221.5,77.5 C 223.167,78.8333 224.833,80.1667 226.5,81.5C 226.833,82.1667 227.167,82.8333 227.5,83.5C 227.631,84.2389 227.464,84.9056 227,85.5C 226.184,84.1772 225.017,83.5106 223.5,83.5C 222.5,82.8333 221.5,82.1667 220.5,81.5C 220.167,80.8333 219.833,80.1667 219.5,79.5C 220.833,79.5 221.5,78.8333 221.5,77.5 Z"/></g>
<g><path style="opacity:1" fill="#af89ff" d="M 53.5,76.5 C 54.6737,77.5137 55.3404,78.847 55.5,80.5C 54.8333,80.1667 54.1667,79.8333 53.5,79.5C 53.5,78.5 53.5,77.5 53.5,76.5 Z"/></g>
<g><path style="opacity:1" fill="#ba99ff" d="M 72.5,76.5 C 71.4154,78.5869 69.7488,79.9202 67.5,80.5C 68.5846,78.4131 70.2512,77.0798 72.5,76.5 Z"/></g>
<g><path style="opacity:1" fill="#ebe1ff" d="M 180.5,74.5 C 182.117,75.038 183.784,75.3713 185.5,75.5C 187.942,77.1261 190.609,78.4594 193.5,79.5C 193.833,80.1667 194.167,80.8333 194.5,81.5C 189.364,79.7512 184.697,77.4179 180.5,74.5 Z"/></g>
<g><path style="opacity:1" fill="#b18bff" d="M 216.5,78.5 C 216.833,78.5 217.167,78.5 217.5,78.5C 218.167,78.8333 218.833,79.1667 219.5,79.5C 219.833,80.1667 220.167,80.8333 220.5,81.5C 218.596,81.2624 217.262,80.2624 216.5,78.5 Z"/></g>
<g><path style="opacity:1" fill="#bb9bff" d="M 193.5,79.5 C 195.027,79.427 196.027,80.0937 196.5,81.5C 196.167,81.5 195.833,81.5 195.5,81.5C 195.167,81.5 194.833,81.5 194.5,81.5C 194.167,80.8333 193.833,80.1667 193.5,79.5 Z"/></g>
<g><path style="opacity:1" fill="#a67cff" d="M 55.5,80.5 C 58.4299,81.299 61.4299,81.6323 64.5,81.5C 64.5,81.8333 64.5,82.1667 64.5,82.5C 61.8127,82.6641 59.146,82.4974 56.5,82C 55.944,81.6174 55.6107,81.1174 55.5,80.5 Z"/></g>
<g><path style="opacity:1" fill="#c9afff" d="M 67.5,80.5 C 67.1667,81.1667 66.8333,81.8333 66.5,82.5C 65.8333,82.5 65.1667,82.5 64.5,82.5C 64.5,82.1667 64.5,81.8333 64.5,81.5C 65.391,80.8902 66.391,80.5569 67.5,80.5 Z"/></g>
<g><path style="opacity:1" fill="#cfb8ff" d="M 53.5,79.5 C 54.1667,79.8333 54.8333,80.1667 55.5,80.5C 55.6107,81.1174 55.944,81.6174 56.5,82C 59.146,82.4974 61.8127,82.6641 64.5,82.5C 61.6965,83.6378 58.6965,83.8045 55.5,83C 54.1772,82.1841 53.5106,81.0174 53.5,79.5 Z"/></g>
<g><path style="opacity:1" fill="#b998ff" d="M 196.5,81.5 C 198.027,81.427 199.027,82.0937 199.5,83.5C 197.973,83.573 196.973,82.9063 196.5,81.5 Z"/></g>
<g><path style="opacity:1" fill="#e8e2f2" d="M 137.5,86.5 C 134.5,86.5 131.5,86.5 128.5,86.5C 125.375,85.5206 122.042,85.1872 118.5,85.5C 118.5,86.5 118.5,87.5 118.5,88.5C 116.241,87.656 115.241,85.9893 115.5,83.5C 123.193,82.8977 130.526,83.8977 137.5,86.5 Z"/></g>
<g><path style="opacity:1" fill="#e9dffe" d="M 195.5,81.5 C 195.833,81.5 196.167,81.5 196.5,81.5C 196.973,82.9063 197.973,83.573 199.5,83.5C 199.833,84.5 200.5,85.1667 201.5,85.5C 201.5,85.8333 201.5,86.1667 201.5,86.5C 198.638,85.7529 196.638,84.0862 195.5,81.5 Z"/></g>
<g><path style="opacity:1" fill="#ab9ccc" d="M 128.5,86.5 C 124.988,85.9455 121.988,86.6122 119.5,88.5C 119.167,88.5 118.833,88.5 118.5,88.5C 118.5,87.5 118.5,86.5 118.5,85.5C 122.042,85.1872 125.375,85.5206 128.5,86.5 Z"/></g>
<g><path style="opacity:1" fill="#aa81ff" d="M 199.5,83.5 C 200.167,83.5 200.833,83.5 201.5,83.5C 204.398,84.7234 206.731,86.7234 208.5,89.5C 208.167,89.5 207.833,89.5 207.5,89.5C 206.5,88.8333 205.5,88.1667 204.5,87.5C 204.027,86.0937 203.027,85.427 201.5,85.5C 200.5,85.1667 199.833,84.5 199.5,83.5 Z"/></g>
<g><path style="opacity:1" fill="#cbb3ff" d="M 223.5,83.5 C 225.017,83.5106 226.184,84.1772 227,85.5C 227.464,84.9056 227.631,84.2389 227.5,83.5C 228.167,84.1667 228.833,84.8333 229.5,85.5C 229.737,86.791 229.404,87.791 228.5,88.5C 227.833,88.1667 227.167,87.8333 226.5,87.5C 225.5,86.1667 224.5,84.8333 223.5,83.5 Z"/></g>
<g><path style="opacity:1" fill="#d0baff" d="M 11.5,78.5 C 11.5,79.1667 11.5,79.8333 11.5,80.5C 10.3711,83.5085 9.37113,86.5085 8.5,89.5C 8.129,85.3039 9.129,81.6373 11.5,78.5 Z"/></g>
<g><path style="opacity:1" fill="#cfb7ff" d="M 201.5,86.5 C 201.5,86.1667 201.5,85.8333 201.5,85.5C 203.027,85.427 204.027,86.0937 204.5,87.5C 203.391,87.4431 202.391,87.1098 201.5,86.5 Z"/></g>
<g><path style="opacity:1" fill="#9d6fff" d="M 11.5,80.5 C 11.8333,80.5 12.1667,80.5 12.5,80.5C 11.6914,84.5064 10.3581,88.1731 8.5,91.5C 8.5,90.8333 8.5,90.1667 8.5,89.5C 9.37113,86.5085 10.3711,83.5085 11.5,80.5 Z"/></g>
<g><path style="opacity:1" fill="#e0d1fe" d="M 42.5,83.5 C 42.031,86.6433 40.3644,88.9767 37.5,90.5C 37.5,90.1667 37.5,89.8333 37.5,89.5C 37.5,89.1667 37.5,88.8333 37.5,88.5C 39.5273,87.1394 41.194,85.4727 42.5,83.5 Z"/></g>
<g><path style="opacity:1" fill="#8872b7" d="M 128.5,86.5 C 131.5,86.5 134.5,86.5 137.5,86.5C 137.5,86.8333 137.5,87.1667 137.5,87.5C 131.729,86.8872 126.396,87.5539 121.5,89.5C 120.508,89.6716 119.842,89.3382 119.5,88.5C 121.988,86.6122 124.988,85.9455 128.5,86.5 Z"/></g>
<g><path style="opacity:1" fill="#60439d" d="M 137.5,87.5 C 138.5,88.1667 139.5,88.8333 140.5,89.5C 134.862,88.5409 129.195,88.3742 123.5,89C 124.823,89.8159 125.489,90.9826 125.5,92.5C 124.167,91.5 122.833,90.5 121.5,89.5C 126.396,87.5539 131.729,86.8872 137.5,87.5 Z"/></g>
<g><path style="opacity:1" fill="#a08ec6" d="M 137.5,87.5 C 140.781,87.4203 143.781,88.087 146.5,89.5C 145.5,89.5 144.5,89.5 143.5,89.5C 142.5,89.5 141.5,89.5 140.5,89.5C 139.5,88.8333 138.5,88.1667 137.5,87.5 Z"/></g>
<g><path style="opacity:1" fill="#9463ff" d="M 226.5,87.5 C 227.167,87.8333 227.833,88.1667 228.5,88.5C 229.6,89.6049 230.267,90.9382 230.5,92.5C 228.413,91.4154 227.08,89.7488 226.5,87.5 Z"/></g>
<g><path style="opacity:1" fill="#e1d3ff" d="M 47.5,88.5 C 52.6485,86.0939 54.9818,87.7605 54.5,93.5C 52.901,93.7678 51.5676,93.4345 50.5,92.5C 51.5,92.5 52.5,92.5 53.5,92.5C 53.7373,91.209 53.404,90.209 52.5,89.5C 51.0813,88.5489 49.4147,88.2155 47.5,88.5 Z"/></g>
<g><path style="opacity:1" fill="#422188" d="M 140.5,89.5 C 141.5,89.5 142.5,89.5 143.5,89.5C 147.794,91.8163 152.46,93.1496 157.5,93.5C 157.973,94.9063 158.973,95.573 160.5,95.5C 161.833,95.8333 163.167,96.1667 164.5,96.5C 164.973,97.9063 165.973,98.573 167.5,98.5C 167.842,99.3382 168.508,99.6716 169.5,99.5C 170.129,101.997 171.796,103.33 174.5,103.5C 175.605,104.6 176.938,105.267 178.5,105.5C 179.911,107.914 181.911,109.581 184.5,110.5C 187.5,113.833 190.5,117.167 193.5,120.5C 193.581,123.513 194.914,125.513 197.5,126.5C 197.343,127.873 197.51,129.207 198,130.5C 200.013,133.962 202.18,137.296 204.5,140.5C 205.451,141.919 205.784,143.585 205.5,145.5C 206.209,150.666 207.376,155.666 209,160.5C 209.383,161.056 209.883,161.389 210.5,161.5C 210.833,161.5 211.167,161.5 211.5,161.5C 211.826,170.349 211.493,179.016 210.5,187.5C 210.02,190.078 209.02,192.412 207.5,194.5C 205.666,198.652 204,202.985 202.5,207.5C 202.5,208.167 202.5,208.833 202.5,209.5C 200.738,210.262 199.738,211.596 199.5,213.5C 199.5,213.833 199.5,214.167 199.5,214.5C 198.167,214.5 197.5,215.167 197.5,216.5C 193.879,219.783 190.213,223.116 186.5,226.5C 184.5,226.5 183.5,227.5 183.5,229.5C 179.824,231.501 176.158,233.501 172.5,235.5C 168.964,236.758 165.297,237.591 161.5,238C 160.619,238.708 159.953,239.542 159.5,240.5C 155.424,241.835 151.424,243.168 147.5,244.5C 130.045,245.173 112.712,244.173 95.5,241.5C 93.8984,239.926 91.8984,239.259 89.5,239.5C 88.7095,238.599 87.7095,237.932 86.5,237.5C 85.6016,236.842 84.6016,236.176 83.5,235.5C 114.594,232.465 138.594,217.965 155.5,192C 161.524,180.21 164.358,167.71 164,154.5C 158.382,162.802 151.049,168.802 142,172.5C 141.517,171.552 141.351,170.552 141.5,169.5C 141.629,167.784 141.962,166.117 142.5,164.5C 143.117,164.389 143.617,164.056 144,163.5C 146.341,153.391 145.174,143.724 140.5,134.5C 139.378,133.37 138.044,132.703 136.5,132.5C 134.438,128.105 131.104,125.105 126.5,123.5C 126.027,122.094 125.027,121.427 123.5,121.5C 122.969,119.376 121.635,117.876 119.5,117C 108.374,112.742 97.0409,111.575 85.5,113.5C 75.0305,114.308 70.3639,119.975 71.5,130.5C 66.3638,130.567 61.3638,129.9 56.5,128.5C 56.5,128.167 56.5,127.833 56.5,127.5C 52.3923,123.606 48.059,119.939 43.5,116.5C 44.6935,115.728 45.6935,114.728 46.5,113.5C 47.6049,112.4 48.9382,111.733 50.5,111.5C 51.1667,111.5 51.8333,111.5 52.5,111.5C 56.0211,110.901 59.0211,109.568 61.5,107.5C 63.153,107.34 64.4863,106.674 65.5,105.5C 65.8333,105.5 66.1667,105.5 66.5,105.5C 69.6553,105.01 72.6553,104.344 75.5,103.5C 75.9175,102.778 76.5842,102.278 77.5,102C 91.1518,100.231 104.818,100.064 118.5,101.5C 120.735,101.205 122.735,101.539 124.5,102.5C 127.507,104.175 130.84,104.841 134.5,104.5C 134.771,102.62 134.104,101.287 132.5,100.5C 131.5,99.8333 130.5,99.1667 129.5,98.5C 129.5,97.8333 129.167,97.5 128.5,97.5C 127.925,95.5887 126.925,93.922 125.5,92.5C 125.489,90.9826 124.823,89.8159 123.5,89C 129.195,88.3742 134.862,88.5409 140.5,89.5 Z"/></g>
<g><path style="opacity:1" fill="#7157a8" d="M 143.5,89.5 C 144.5,89.5 145.5,89.5 146.5,89.5C 146.833,89.5 147.167,89.5 147.5,89.5C 149.515,90.9238 151.848,91.5905 154.5,91.5C 155.5,92.1667 156.5,92.8333 157.5,93.5C 152.46,93.1496 147.794,91.8163 143.5,89.5 Z"/></g>
<g><path style="opacity:1" fill="#b9abd5" d="M 147.5,89.5 C 150.152,89.4095 152.485,90.0762 154.5,91.5C 151.848,91.5905 149.515,90.9238 147.5,89.5 Z"/></g>
<g><path style="opacity:1" fill="#a87fff" d="M 208.5,89.5 C 211.167,90.1667 212.833,91.8333 213.5,94.5C 211.5,93.1667 209.833,91.5 208.5,89.5 Z"/></g>
<g><path style="opacity:1" fill="#a980ff" d="M 241.5,86.5 C 242.924,88.5145 243.59,90.8478 243.5,93.5C 242.076,91.4855 241.41,89.1522 241.5,86.5 Z"/></g>
<g><path style="opacity:1" fill="#e9ddfe" d="M 240.5,79.5 C 245.138,87.0343 247.471,95.3676 247.5,104.5C 247.167,104.5 246.833,104.5 246.5,104.5C 246.636,101.449 246.302,98.4486 245.5,95.5C 245.253,94.2867 244.586,93.62 243.5,93.5C 243.59,90.8478 242.924,88.5145 241.5,86.5C 241.326,84.139 240.993,81.8056 240.5,79.5 Z"/></g>
<g><path style="opacity:1" fill="#ab84ff" d="M 47.5,88.5 C 49.4147,88.2155 51.0813,88.5489 52.5,89.5C 52.2089,90.6491 51.3756,91.3158 50,91.5C 48.6244,91.3158 47.7911,90.6491 47.5,89.5C 47.5,89.1667 47.5,88.8333 47.5,88.5 Z"/></g>
<g><path style="opacity:1" fill="#b6a8d3" d="M 121.5,89.5 C 122.833,90.5 124.167,91.5 125.5,92.5C 126.925,93.922 127.925,95.5887 128.5,97.5C 125.427,95.4309 123.094,92.7642 121.5,89.5 Z"/></g>
<g><path style="opacity:1" fill="#b998ff" d="M 229.5,85.5 C 230.833,87.1667 232.167,88.8333 233.5,90.5C 233.649,91.552 233.483,92.552 233,93.5C 232.329,92.7476 231.496,92.4142 230.5,92.5C 230.267,90.9382 229.6,89.6049 228.5,88.5C 229.404,87.791 229.737,86.791 229.5,85.5 Z"/></g>
<g><path style="opacity:1" fill="#cfb7fe" d="M 8.5,89.5 C 8.5,90.1667 8.5,90.8333 8.5,91.5C 7.41925,94.6267 6.75258,97.9601 6.5,101.5C 6.16667,101.5 5.83333,101.5 5.5,101.5C 5.78106,97.8121 6.28106,94.1454 7,90.5C 7.38258,89.944 7.88258,89.6107 8.5,89.5 Z"/></g>
<g><path style="opacity:1" fill="#ac85ff" d="M 37.5,89.5 C 37.5,89.8333 37.5,90.1667 37.5,90.5C 37.1667,91.1667 36.8333,91.8333 36.5,92.5C 36.1667,92.5 35.8333,92.5 35.5,92.5C 35.427,90.9731 36.0937,89.9731 37.5,89.5 Z"/></g>
<g><path style="opacity:1" fill="#c0a1ff" d="M 47.5,89.5 C 47.7911,90.6491 48.6244,91.3158 50,91.5C 51.3756,91.3158 52.2089,90.6491 52.5,89.5C 53.404,90.209 53.7373,91.209 53.5,92.5C 52.5,92.5 51.5,92.5 50.5,92.5C 50.1667,92.5 49.8333,92.5 49.5,92.5C 48.391,92.5569 47.391,92.8902 46.5,93.5C 45.1472,91.8716 45.4805,90.5383 47.5,89.5 Z"/></g>
<g><path style="opacity:1" fill="#d1bcff" d="M 47.5,88.5 C 47.5,88.8333 47.5,89.1667 47.5,89.5C 45.4805,90.5383 45.1472,91.8716 46.5,93.5C 46.0919,94.6431 45.4252,95.6431 44.5,96.5C 43.5661,94.9052 43.5661,93.2385 44.5,91.5C 44.5,89.5 45.5,88.5 47.5,88.5 Z"/></g>
<g><path style="opacity:1" fill="#e3d5ff" d="M 207.5,89.5 C 207.833,89.5 208.167,89.5 208.5,89.5C 209.833,91.5 211.5,93.1667 213.5,94.5C 213.833,95.1667 214.167,95.8333 214.5,96.5C 211.026,95.2712 208.693,92.9378 207.5,89.5 Z"/></g>
<g><path style="opacity:1" fill="#a77dff" d="M 233.5,90.5 C 234.434,91.5676 234.768,92.901 234.5,94.5C 232.62,94.7709 231.287,94.1042 230.5,92.5C 231.496,92.4142 232.329,92.7476 233,93.5C 233.483,92.552 233.649,91.552 233.5,90.5 Z"/></g>
<g><path style="opacity:1" fill="#816ab2" d="M 157.5,93.5 C 158.167,93.5 158.833,93.5 159.5,93.5C 159.833,94.1667 160.167,94.8333 160.5,95.5C 158.973,95.573 157.973,94.9063 157.5,93.5 Z"/></g>
<g><path style="opacity:1" fill="#b6a8d3" d="M 159.5,93.5 C 161.848,93.5923 163.514,94.5923 164.5,96.5C 163.167,96.1667 161.833,95.8333 160.5,95.5C 160.167,94.8333 159.833,94.1667 159.5,93.5 Z"/></g>
<g><path style="opacity:1" fill="#b08aff" d="M 213.5,94.5 C 217.5,96.5 220.5,99.5 222.5,103.5C 220.833,102.167 219.167,100.833 217.5,99.5C 216.833,98.1667 215.833,97.1667 214.5,96.5C 214.167,95.8333 213.833,95.1667 213.5,94.5 Z"/></g>
<g><path style="opacity:1" fill="#c0a1ff" d="M 243.5,93.5 C 244.586,93.62 245.253,94.2867 245.5,95.5C 246.302,98.4486 246.636,101.449 246.5,104.5C 246.167,104.5 245.833,104.5 245.5,104.5C 244.833,100.833 244.167,97.1667 243.5,93.5 Z"/></g>
<g><path style="opacity:1" fill="#eee6fe" d="M 44.5,91.5 C 43.5661,93.2385 43.5661,94.9052 44.5,96.5C 45.4252,95.6431 46.0919,94.6431 46.5,93.5C 47.391,92.8902 48.391,92.5569 49.5,92.5C 48.4399,94.9077 46.9399,96.9077 45,98.5C 43.1147,98.1379 42.2814,96.9713 42.5,95C 42.3866,93.3009 43.0532,92.1342 44.5,91.5 Z"/></g>
<g><path style="opacity:1" fill="#ebe6f5" d="M 123.5,100.5 C 121.833,100.5 120.167,100.5 118.5,100.5C 118.389,99.8826 118.056,99.3826 117.5,99C 107.991,98.1757 98.6575,98.3424 89.5,99.5C 84.126,99.8869 78.7926,100.554 73.5,101.5C 76.3929,99.7348 79.7262,98.5681 83.5,98C 95.1667,97.3333 106.833,97.3333 118.5,98C 120.315,98.7568 121.981,99.5902 123.5,100.5 Z"/></g>
<g><path style="opacity:1" fill="#9683bf" d="M 164.5,96.5 C 165.167,96.5 165.833,96.5 166.5,96.5C 166.833,97.1667 167.167,97.8333 167.5,98.5C 165.973,98.573 164.973,97.9063 164.5,96.5 Z"/></g>
<g><path style="opacity:1" fill="#9a6bff" d="M 8.5,91.5 C 9.06896,95.3293 8.40229,98.6627 6.5,101.5C 6.75258,97.9601 7.41925,94.6267 8.5,91.5 Z"/></g>
<g><path style="opacity:1" fill="#c8bdde" d="M 89.5,99.5 C 98.6575,98.3424 107.991,98.1757 117.5,99C 118.056,99.3826 118.389,99.8826 118.5,100.5C 108.857,99.675 99.1907,99.3417 89.5,99.5 Z"/></g>
<g><path style="opacity:1" fill="#bdb0d7" d="M 166.5,96.5 C 169.37,97.4333 171.704,99.1 173.5,101.5C 171.938,101.267 170.605,100.6 169.5,99.5C 168.508,99.6716 167.842,99.3382 167.5,98.5C 167.167,97.8333 166.833,97.1667 166.5,96.5 Z"/></g>
<g><path style="opacity:1" fill="#856eb5" d="M 89.5,99.5 C 99.1907,99.3417 108.857,99.675 118.5,100.5C 118.5,100.833 118.5,101.167 118.5,101.5C 104.818,100.064 91.1518,100.231 77.5,102C 76.5842,102.278 75.9175,102.778 75.5,103.5C 74.8333,103.5 74.1667,103.5 73.5,103.5C 73.5,103.167 73.5,102.833 73.5,102.5C 73.5,102.167 73.5,101.833 73.5,101.5C 78.7926,100.554 84.126,99.8869 89.5,99.5 Z"/></g>
<g><path style="opacity:1" fill="#ccc2e1" d="M 128.5,97.5 C 129.167,97.5 129.5,97.8333 129.5,98.5C 129.539,99.5832 129.873,100.583 130.5,101.5C 130.043,102.298 129.376,102.631 128.5,102.5C 127.167,102.5 125.833,102.5 124.5,102.5C 122.735,101.539 120.735,101.205 118.5,101.5C 118.5,101.167 118.5,100.833 118.5,100.5C 120.167,100.5 121.833,100.5 123.5,100.5C 124.93,100.421 126.264,100.754 127.5,101.5C 128.429,100.311 128.762,98.9778 128.5,97.5 Z"/></g>
<g><path style="opacity:1" fill="#694ea3" d="M 169.5,99.5 C 170.605,100.6 171.938,101.267 173.5,101.5C 173.833,102.167 174.167,102.833 174.5,103.5C 171.796,103.33 170.129,101.997 169.5,99.5 Z"/></g>
<g><path style="opacity:1" fill="#b0a1cf" d="M 73.5,102.5 C 73.5,102.833 73.5,103.167 73.5,103.5C 71.4727,103.338 69.4727,103.505 67.5,104C 66.944,104.383 66.6107,104.883 66.5,105.5C 66.1667,105.5 65.8333,105.5 65.5,105.5C 65.1667,105.5 64.8333,105.5 64.5,105.5C 64.9528,104.542 65.6195,103.708 66.5,103C 68.8098,102.503 71.1432,102.337 73.5,102.5 Z"/></g>
<g><path style="opacity:1" fill="#aa9acc" d="M 129.5,98.5 C 130.5,99.1667 131.5,99.8333 132.5,100.5C 132.5,101.5 132.5,102.5 132.5,103.5C 130.901,103.768 129.568,103.434 128.5,102.5C 129.376,102.631 130.043,102.298 130.5,101.5C 129.873,100.583 129.539,99.5832 129.5,98.5 Z"/></g>
<g><path style="opacity:1" fill="#a190c6" d="M 173.5,101.5 C 175.749,102.08 177.415,103.413 178.5,105.5C 176.938,105.267 175.605,104.6 174.5,103.5C 174.167,102.833 173.833,102.167 173.5,101.5 Z"/></g>
<g><path style="opacity:1" fill="#674ca2" d="M 73.5,103.5 C 74.1667,103.5 74.8333,103.5 75.5,103.5C 72.6553,104.344 69.6553,105.01 66.5,105.5C 66.6107,104.883 66.944,104.383 67.5,104C 69.4727,103.505 71.4727,103.338 73.5,103.5 Z"/></g>
<g><path style="opacity:1" fill="#765dac" d="M 132.5,100.5 C 134.104,101.287 134.771,102.62 134.5,104.5C 130.84,104.841 127.507,104.175 124.5,102.5C 125.833,102.5 127.167,102.5 128.5,102.5C 129.568,103.434 130.901,103.768 132.5,103.5C 132.5,102.5 132.5,101.5 132.5,100.5 Z"/></g>
<g><path style="opacity:1" fill="#9765ff" d="M 222.5,103.5 C 225.966,103.968 227.632,105.968 227.5,109.5C 226.833,109.5 226.167,109.5 225.5,109.5C 225.025,107.216 224.025,105.216 222.5,103.5 Z"/></g>
<g><path style="opacity:1" fill="#755bab" d="M 64.5,105.5 C 64.8333,105.5 65.1667,105.5 65.5,105.5C 64.4863,106.674 63.153,107.34 61.5,107.5C 61.5,107.167 61.5,106.833 61.5,106.5C 62.209,105.596 63.209,105.263 64.5,105.5 Z"/></g>
<g><path style="opacity:1" fill="#dad3e9" d="M 180.5,105.5 C 183.167,106.167 184.833,107.833 185.5,110.5C 185.167,110.5 184.833,110.5 184.5,110.5C 183.167,108.833 181.833,107.167 180.5,105.5 Z"/></g>
<g><path style="opacity:1" fill="#b8aad5" d="M 61.5,106.5 C 61.5,106.833 61.5,107.167 61.5,107.5C 59.4352,107.517 57.4352,107.85 55.5,108.5C 56.9179,106.692 58.9179,106.025 61.5,106.5 Z"/></g>
<g><path style="opacity:1" fill="#9682bf" d="M 178.5,105.5 C 179.167,105.5 179.833,105.5 180.5,105.5C 181.833,107.167 183.167,108.833 184.5,110.5C 181.911,109.581 179.911,107.914 178.5,105.5 Z"/></g>
<g><path style="opacity:1" fill="#e2d4fe" d="M 217.5,99.5 C 219.167,100.833 220.833,102.167 222.5,103.5C 224.025,105.216 225.025,107.216 225.5,109.5C 224.504,109.586 223.671,109.252 223,108.5C 221.237,105.398 219.404,102.398 217.5,99.5 Z"/></g>
<g><path style="opacity:1" fill="#a190c6" d="M 55.5,108.5 C 54.3065,109.272 53.3065,110.272 52.5,111.5C 51.8333,111.5 51.1667,111.5 50.5,111.5C 50.8333,110.833 51.1667,110.167 51.5,109.5C 52.7079,108.766 54.0413,108.433 55.5,108.5 Z"/></g>
<g><path style="opacity:1" fill="#5c3f9b" d="M 61.5,107.5 C 59.0211,109.568 56.0211,110.901 52.5,111.5C 53.3065,110.272 54.3065,109.272 55.5,108.5C 57.4352,107.85 59.4352,107.517 61.5,107.5 Z"/></g>
<g><path style="opacity:1" fill="#b7a9d3" d="M 184.5,110.5 C 184.833,110.5 185.167,110.5 185.5,110.5C 189.566,113.563 192.899,117.229 195.5,121.5C 194.833,121.167 194.167,120.833 193.5,120.5C 190.5,117.167 187.5,113.833 184.5,110.5 Z"/></g>
<g><path style="opacity:1" fill="#d6cde7" d="M 51.5,109.5 C 51.1667,110.167 50.8333,110.833 50.5,111.5C 48.9382,111.733 47.6049,112.4 46.5,113.5C 45.391,113.557 44.391,113.89 43.5,114.5C 44.5875,113 45.9208,111.667 47.5,110.5C 48.6888,109.571 50.0222,109.238 51.5,109.5 Z"/></g>
<g><path style="opacity:1" fill="#6a41c2" d="M 85.5,113.5 C 97.0409,111.575 108.374,112.742 119.5,117C 121.635,117.876 122.969,119.376 123.5,121.5C 118.749,118.698 113.749,116.698 108.5,115.5C 107.737,114.732 106.737,114.232 105.5,114C 98.8417,113.5 92.175,113.334 85.5,113.5 Z"/></g>
<g><path style="opacity:1" fill="#ad86ff" d="M 227.5,110.5 C 228.906,110.973 229.573,111.973 229.5,113.5C 228.094,113.027 227.427,112.027 227.5,110.5 Z"/></g>
<g><path style="opacity:1" fill="#814bf2" d="M 85.5,113.5 C 92.175,113.334 98.8417,113.5 105.5,114C 106.737,114.232 107.737,114.732 108.5,115.5C 102.189,114.573 95.8556,114.406 89.5,115C 85.309,116.554 80.9757,117.721 76.5,118.5C 79.3413,116.476 82.3413,114.809 85.5,113.5 Z"/></g>
<g><path style="opacity:1" fill="#d6c2fe" d="M 225.5,109.5 C 226.167,109.5 226.833,109.5 227.5,109.5C 227.5,109.833 227.5,110.167 227.5,110.5C 227.427,112.027 228.094,113.027 229.5,113.5C 229.5,114.167 229.5,114.833 229.5,115.5C 227.178,114.198 225.845,112.198 225.5,109.5 Z"/></g>
<g><path style="opacity:1" fill="#e7dcff" d="M 248.5,110.5 C 248.833,110.5 249.167,110.5 249.5,110.5C 249.5,121.167 249.5,131.833 249.5,142.5C 248.833,142.833 248.167,143.167 247.5,143.5C 247.5,139.167 247.5,134.833 247.5,130.5C 248.491,124.021 248.824,117.354 248.5,110.5 Z"/></g>
<g><path style="opacity:1" fill="#a38fce" d="M 46.5,113.5 C 45.6935,114.728 44.6935,115.728 43.5,116.5C 43.1667,116.5 42.8333,116.5 42.5,116.5C 42.5,116.167 42.5,115.833 42.5,115.5C 42.5,114.833 42.8333,114.5 43.5,114.5C 44.391,113.89 45.391,113.557 46.5,113.5 Z"/></g>
<g><path style="opacity:1" fill="#cbb1ff" d="M 35.5,92.5 C 35.8333,92.5 36.1667,92.5 36.5,92.5C 36.5,99.5 36.5,106.5 36.5,113.5C 36.5,115.167 36.5,116.833 36.5,118.5C 37.5,118.5 38.5,118.5 39.5,118.5C 38.4324,119.434 37.099,119.768 35.5,119.5C 35.5,110.5 35.5,101.5 35.5,92.5 Z"/></g>
<g><path style="opacity:1" fill="#e0d1ff" d="M 36.5,113.5 C 37.404,114.209 37.7373,115.209 37.5,116.5C 39.2161,116.371 40.8828,116.038 42.5,115.5C 42.5,115.833 42.5,116.167 42.5,116.5C 41.5,117.167 40.5,117.833 39.5,118.5C 38.5,118.5 37.5,118.5 36.5,118.5C 36.5,116.833 36.5,115.167 36.5,113.5 Z"/></g>
<g><path style="opacity:1" fill="#a073ff" d="M 245.5,104.5 C 245.833,104.5 246.167,104.5 246.5,104.5C 247.34,113.138 247.673,121.805 247.5,130.5C 247.167,130.5 246.833,130.5 246.5,130.5C 246.479,121.818 246.146,113.152 245.5,104.5 Z"/></g>
<g><path style="opacity:1" fill="#c7adff" d="M 229.5,115.5 C 230.906,115.973 231.573,116.973 231.5,118.5C 230.833,118.167 230.167,117.833 229.5,117.5C 229.5,116.833 229.5,116.167 229.5,115.5 Z"/></g>
<g><path style="opacity:1" fill="#c6abff" d="M 246.5,104.5 C 246.833,104.5 247.167,104.5 247.5,104.5C 247.833,106.5 248.167,108.5 248.5,110.5C 248.824,117.354 248.491,124.021 247.5,130.5C 247.673,121.805 247.34,113.138 246.5,104.5 Z"/></g>
<g><path style="opacity:1" fill="#9a6afe" d="M 35.5,92.5 C 35.5,101.5 35.5,110.5 35.5,119.5C 37.099,119.768 38.4324,119.434 39.5,118.5C 40.5,117.833 41.5,117.167 42.5,116.5C 42.8333,116.5 43.1667,116.5 43.5,116.5C 43.5,117.167 43.5,117.833 43.5,118.5C 41.8042,118.685 40.4709,119.519 39.5,121C 37.8659,121.494 36.1992,121.66 34.5,121.5C 34.1729,111.652 34.5062,101.986 35.5,92.5 Z"/></g>
<g><path style="opacity:1" fill="#9461ff" d="M 233.5,120.5 C 236.638,122.917 238.304,126.25 238.5,130.5C 237.833,130.167 237.167,129.833 236.5,129.5C 236.017,126.342 235.017,123.342 233.5,120.5 Z"/></g>
<g><path style="opacity:1" fill="#b693ff" d="M 5.5,102.5 C 5.5,107.5 5.5,112.5 5.5,117.5C 4.51045,123.31 4.17711,129.31 4.5,135.5C 3.50644,126.348 3.17311,117.015 3.5,107.5C 4.16667,105.833 4.83333,104.167 5.5,102.5 Z"/></g>
<g><path style="opacity:1" fill="#decefe" d="M 229.5,117.5 C 230.167,117.833 230.833,118.167 231.5,118.5C 232.338,118.842 232.672,119.508 232.5,120.5C 232.5,121.167 232.5,121.833 232.5,122.5C 231.11,121.101 230.11,119.434 229.5,117.5 Z"/></g>
<g><path style="opacity:1" fill="#663fb8" d="M 43.5,116.5 C 48.059,119.939 52.3923,123.606 56.5,127.5C 50.8108,126.48 46.4775,123.48 43.5,118.5C 43.5,117.833 43.5,117.167 43.5,116.5 Z"/></g>
<g><path style="opacity:1" fill="#b8abd5" d="M 195.5,121.5 C 196.906,121.973 197.573,122.973 197.5,124.5C 195.952,124.179 195.285,123.179 195.5,121.5 Z"/></g>
<g><path style="opacity:1" fill="#7046cb" d="M 85.5,113.5 C 82.3413,114.809 79.3413,116.476 76.5,118.5C 73.2167,122.106 71.8833,126.44 72.5,131.5C 66.7053,132.169 61.372,131.169 56.5,128.5C 61.3638,129.9 66.3638,130.567 71.5,130.5C 70.3639,119.975 75.0305,114.308 85.5,113.5 Z"/></g>
<g><path style="opacity:1" fill="#674ba2" d="M 193.5,120.5 C 194.167,120.833 194.833,121.167 195.5,121.5C 195.285,123.179 195.952,124.179 197.5,124.5C 197.5,125.167 197.5,125.833 197.5,126.5C 194.914,125.513 193.581,123.513 193.5,120.5 Z"/></g>
<g><path style="opacity:1" fill="#c3a6ff" d="M 232.5,120.5 C 232.833,120.5 233.167,120.5 233.5,120.5C 235.017,123.342 236.017,126.342 236.5,129.5C 235.167,127.167 233.833,124.833 232.5,122.5C 232.5,121.833 232.5,121.167 232.5,120.5 Z"/></g>
<g><path style="opacity:1" fill="#c2b6da" d="M 197.5,124.5 C 200.182,126.53 201.849,129.197 202.5,132.5C 202.167,132.5 201.833,132.5 201.5,132.5C 200.66,130.147 199.326,128.147 197.5,126.5C 197.5,125.833 197.5,125.167 197.5,124.5 Z"/></g>
<g><path style="opacity:1" fill="#bc9cff" d="M 236.5,129.5 C 237.167,129.833 237.833,130.167 238.5,130.5C 238.604,132.703 239.27,134.703 240.5,136.5C 240.5,136.833 240.5,137.167 240.5,137.5C 239.833,137.5 239.167,137.5 238.5,137.5C 237.833,134.833 237.167,132.167 236.5,129.5 Z"/></g>
<g><path style="opacity:1" fill="#a18fc6" d="M 201.5,132.5 C 201.833,132.5 202.167,132.5 202.5,132.5C 204.081,134.142 204.747,136.142 204.5,138.5C 203.508,136.544 202.508,134.544 201.5,132.5 Z"/></g>
<g><path style="opacity:1" fill="#8651f6" d="M 5.5,117.5 C 5.33418,122.179 5.50085,126.845 6,131.5C 7.50884,136.215 9.00884,140.882 10.5,145.5C 9.77765,144.449 8.77765,143.782 7.5,143.5C 7.78448,141.585 7.45115,139.919 6.5,138.5C 6.16667,138.5 5.83333,138.5 5.5,138.5C 5.73731,137.209 5.40397,136.209 4.5,135.5C 4.17711,129.31 4.51045,123.31 5.5,117.5 Z"/></g>
<g><path style="opacity:1" fill="#7b4be3" d="M 126.5,123.5 C 131.104,125.105 134.438,128.105 136.5,132.5C 139.849,136.194 141.849,140.527 142.5,145.5C 138.552,140.233 135.052,134.566 132,128.5C 129.809,127.167 127.976,125.5 126.5,123.5 Z"/></g>
<g><path style="opacity:1" fill="#62459e" d="M 197.5,126.5 C 199.326,128.147 200.66,130.147 201.5,132.5C 202.508,134.544 203.508,136.544 204.5,138.5C 204.5,139.167 204.5,139.833 204.5,140.5C 202.18,137.296 200.013,133.962 198,130.5C 197.51,129.207 197.343,127.873 197.5,126.5 Z"/></g>
<g><path style="opacity:1" fill="#bb9aff" d="M 246.5,130.5 C 246.833,130.5 247.167,130.5 247.5,130.5C 247.5,134.833 247.5,139.167 247.5,143.5C 246.833,144.833 246.167,146.167 245.5,147.5C 245.5,147.167 245.5,146.833 245.5,146.5C 246.275,141.203 246.608,135.87 246.5,130.5 Z"/></g>
<g><path style="opacity:1" fill="#ded4f4" d="M 3.5,107.5 C 3.17311,117.015 3.50644,126.348 4.5,135.5C 5.40397,136.209 5.73731,137.209 5.5,138.5C 5.5,141.167 5.5,143.833 5.5,146.5C 4.88258,146.389 4.38258,146.056 4,145.5C 2.28483,132.703 2.11817,120.036 3.5,107.5 Z"/></g>
<g><path style="opacity:1" fill="#9d6fff" d="M 240.5,136.5 C 241.922,140.005 243.589,143.339 245.5,146.5C 245.5,146.833 245.5,147.167 245.5,147.5C 244.609,148.11 243.609,148.443 242.5,148.5C 241.627,144.879 240.961,141.212 240.5,137.5C 240.5,137.167 240.5,136.833 240.5,136.5 Z"/></g>
<g><path style="opacity:1" fill="#5d3ba8" d="M 136.5,132.5 C 138.044,132.703 139.378,133.37 140.5,134.5C 145.174,143.724 146.341,153.391 144,163.5C 143.617,164.056 143.117,164.389 142.5,164.5C 143.15,162.565 143.483,160.565 143.5,158.5C 143.818,153.968 143.485,149.634 142.5,145.5C 141.849,140.527 139.849,136.194 136.5,132.5 Z"/></g>
<g><path style="opacity:1" fill="#8b76b9" d="M 204.5,138.5 C 205.906,138.973 206.573,139.973 206.5,141.5C 206.993,143.806 207.326,146.139 207.5,148.5C 206.833,147.5 206.167,146.5 205.5,145.5C 205.784,143.585 205.451,141.919 204.5,140.5C 204.5,139.833 204.5,139.167 204.5,138.5 Z"/></g>
<g><path style="opacity:1" fill="#d0c7e3" d="M 206.5,141.5 C 207.79,142.058 208.623,143.058 209,144.5C 210.89,150.01 211.723,155.676 211.5,161.5C 211.167,161.5 210.833,161.5 210.5,161.5C 211.034,156.64 210.034,152.306 207.5,148.5C 207.326,146.139 206.993,143.806 206.5,141.5 Z"/></g>
<g><path style="opacity:1" fill="#9f8ec5" d="M 5.5,138.5 C 5.83333,138.5 6.16667,138.5 6.5,138.5C 6.32274,142.234 6.65608,145.901 7.5,149.5C 6.09368,149.027 5.42702,148.027 5.5,146.5C 5.5,143.833 5.5,141.167 5.5,138.5 Z"/></g>
<g><path style="opacity:1" fill="#ece4ff" d="M 247.5,143.5 C 248.055,147.012 247.388,150.012 245.5,152.5C 245.5,150.833 245.5,149.167 245.5,147.5C 246.167,146.167 246.833,144.833 247.5,143.5 Z"/></g>
<g><path style="opacity:1" fill="#6a4aae" d="M 6.5,138.5 C 7.45115,139.919 7.78448,141.585 7.5,143.5C 9.53233,146.561 11.199,149.895 12.5,153.5C 11.6365,152.537 10.9698,152.537 10.5,153.5C 11.3521,157.131 12.0188,160.798 12.5,164.5C 11.2481,160.347 9.58143,156.347 7.5,152.5C 7.5,151.5 7.5,150.5 7.5,149.5C 6.65608,145.901 6.32274,142.234 6.5,138.5 Z"/></g>
<g><path style="opacity:1" fill="#7549d4" d="M 7.5,143.5 C 8.77765,143.782 9.77765,144.449 10.5,145.5C 12.6061,147.719 13.6061,150.385 13.5,153.5C 13.1667,153.5 12.8333,153.5 12.5,153.5C 11.199,149.895 9.53233,146.561 7.5,143.5 Z"/></g>
<g><path style="opacity:1" fill="#684ca2" d="M 205.5,145.5 C 206.167,146.5 206.833,147.5 207.5,148.5C 210.034,152.306 211.034,156.64 210.5,161.5C 209.883,161.389 209.383,161.056 209,160.5C 207.376,155.666 206.209,150.666 205.5,145.5 Z"/></g>
<g><path style="opacity:1" fill="#c7acff" d="M 245.5,147.5 C 245.5,149.167 245.5,150.833 245.5,152.5C 244.5,152.5 243.5,152.5 242.5,152.5C 242.5,151.167 242.5,149.833 242.5,148.5C 243.609,148.443 244.609,148.11 245.5,147.5 Z"/></g>
<g><path style="opacity:1" fill="#e8ddfe" d="M 238.5,137.5 C 239.167,137.5 239.833,137.5 240.5,137.5C 240.961,141.212 241.627,144.879 242.5,148.5C 242.5,149.833 242.5,151.167 242.5,152.5C 243.5,152.5 244.5,152.5 245.5,152.5C 244.414,155.705 242.914,156.038 241,153.5C 240.633,147.992 239.8,142.659 238.5,137.5 Z"/></g>
<g><path style="opacity:1" fill="#522f9e" d="M 12.5,153.5 C 12.8333,153.5 13.1667,153.5 13.5,153.5C 16.7367,155.63 18.7367,158.63 19.5,162.5C 21.0225,166.564 23.6891,169.564 27.5,171.5C 29.2459,173.252 31.2459,174.585 33.5,175.5C 37.8171,179.124 42.4837,182.457 47.5,185.5C 47.8247,187.132 48.8247,188.132 50.5,188.5C 55.8451,189.495 60.8451,191.329 65.5,194C 78.3299,195.789 91.1632,196.956 104,197.5C 106.026,197.085 107.526,196.085 108.5,194.5C 111.258,193.239 114.258,192.406 117.5,192C 118.887,190.317 120.553,189.15 122.5,188.5C 127.063,186.605 130.73,183.605 133.5,179.5C 133.5,178.833 133.833,178.5 134.5,178.5C 136.592,175.319 138.925,172.319 141.5,169.5C 141.351,170.552 141.517,171.552 142,172.5C 151.049,168.802 158.382,162.802 164,154.5C 164.358,167.71 161.524,180.21 155.5,192C 138.594,217.965 114.594,232.465 83.5,235.5C 84.6016,236.176 85.6016,236.842 86.5,237.5C 85.5,237.5 84.5,237.5 83.5,237.5C 81.5786,236.637 79.5786,235.971 77.5,235.5C 77.1667,235.5 76.8333,235.5 76.5,235.5C 74.8791,233.058 72.5458,231.725 69.5,231.5C 67.7798,230.692 66.1131,229.692 64.5,228.5C 62.9674,226.755 60.9674,225.755 58.5,225.5C 58.0269,224.094 57.0269,223.427 55.5,223.5C 54.1667,220.167 51.8333,217.833 48.5,216.5C 47.078,215.075 45.4113,214.075 43.5,213.5C 42.8333,213.167 42.1667,212.833 41.5,212.5C 40.5,210.833 39.1667,209.5 37.5,208.5C 34.7972,204.807 32.1306,201.14 29.5,197.5C 29.5,197.167 29.5,196.833 29.5,196.5C 26.8076,192.15 24.141,187.817 21.5,183.5C 20.5533,179.524 19.0533,175.857 17,172.5C 15.9609,171.29 14.7942,170.29 13.5,169.5C 13.3713,167.784 13.038,166.117 12.5,164.5C 12.0188,160.798 11.3521,157.131 10.5,153.5C 10.9698,152.537 11.6365,152.537 12.5,153.5 Z"/></g>
<g><path style="opacity:1" fill="#b9abd5" d="M 7.5,152.5 C 9.58143,156.347 11.2481,160.347 12.5,164.5C 13.038,166.117 13.3713,167.784 13.5,169.5C 13.5,169.833 13.5,170.167 13.5,170.5C 9.60972,165.232 7.60972,159.232 7.5,152.5 Z"/></g>
<g><path style="opacity:1" fill="#7047c7" d="M 19.5,162.5 C 22.05,164.005 24.05,166.005 25.5,168.5C 26.1667,169.5 26.8333,170.5 27.5,171.5C 23.6891,169.564 21.0225,166.564 19.5,162.5 Z"/></g>
<g><path style="opacity:1" fill="#d4cbe6" d="M 211.5,161.5 C 212.117,161.611 212.617,161.944 213,162.5C 214.385,175.812 213.052,188.812 209,201.5C 208.617,202.056 208.117,202.389 207.5,202.5C 207.5,201.833 207.5,201.167 207.5,200.5C 208.148,198.502 208.981,196.502 210,194.5C 210.497,192.19 210.663,189.857 210.5,187.5C 211.493,179.016 211.826,170.349 211.5,161.5 Z"/></g>
<g><path style="opacity:1" fill="#7d4be7" d="M 25.5,168.5 C 28.7234,170.048 31.39,172.381 33.5,175.5C 31.2459,174.585 29.2459,173.252 27.5,171.5C 26.8333,170.5 26.1667,169.5 25.5,168.5 Z"/></g>
<g><path style="opacity:1" fill="#7748d9" d="M 143.5,158.5 C 143.483,160.565 143.15,162.565 142.5,164.5C 141.962,166.117 141.629,167.784 141.5,169.5C 138.925,172.319 136.592,175.319 134.5,178.5C 135.859,174.358 137.693,170.358 140,166.5C 140.333,164.5 140.667,162.5 141,160.5C 141.708,159.619 142.542,158.953 143.5,158.5 Z"/></g>
<g><path style="opacity:1" fill="#bfb3d9" d="M 13.5,171.5 C 15.9754,172.687 16.9754,174.687 16.5,177.5C 14.7549,175.967 13.7549,173.967 13.5,171.5 Z"/></g>
<g><path style="opacity:1" fill="#6e51ac" d="M 13.5,169.5 C 14.7942,170.29 15.9609,171.29 17,172.5C 19.0533,175.857 20.5533,179.524 21.5,183.5C 21.1667,183.5 20.8333,183.5 20.5,183.5C 19.675,181.19 18.3417,179.19 16.5,177.5C 16.9754,174.687 15.9754,172.687 13.5,171.5C 13.5,171.167 13.5,170.833 13.5,170.5C 13.5,170.167 13.5,169.833 13.5,169.5 Z"/></g>
<g><path style="opacity:1" fill="#cfc5e2" d="M 16.5,177.5 C 18.3417,179.19 19.675,181.19 20.5,183.5C 20.5,184.167 20.5,184.833 20.5,185.5C 17.8633,183.518 16.53,180.852 16.5,177.5 Z"/></g>
<g><path style="opacity:1" fill="#7a4bdd" d="M 33.5,175.5 C 39.5427,179.233 45.5427,182.9 51.5,186.5C 50.1667,186.167 48.8333,185.833 47.5,185.5C 42.4837,182.457 37.8171,179.124 33.5,175.5 Z"/></g>
<g><path style="opacity:1" fill="#7e4ce9" d="M 133.5,179.5 C 130.73,183.605 127.063,186.605 122.5,188.5C 125.827,185.182 129.493,182.182 133.5,179.5 Z"/></g>
<g><path style="opacity:1" fill="#d1c8e3" d="M 22.5,189.5 C 25.0613,191.64 27.3946,193.973 29.5,196.5C 29.5,196.833 29.5,197.167 29.5,197.5C 30.6876,199.722 31.6876,202.055 32.5,204.5C 30.5076,202.637 29.0076,200.304 28,197.5C 25.1755,195.551 23.3422,192.885 22.5,189.5 Z"/></g>
<g><path style="opacity:1" fill="#836ab5" d="M 20.5,183.5 C 20.8333,183.5 21.1667,183.5 21.5,183.5C 24.141,187.817 26.8076,192.15 29.5,196.5C 27.3946,193.973 25.0613,191.64 22.5,189.5C 22.3404,187.847 21.6737,186.514 20.5,185.5C 20.5,184.833 20.5,184.167 20.5,183.5 Z"/></g>
<g><path style="opacity:1" fill="#794ade" d="M 122.5,188.5 C 120.553,189.15 118.887,190.317 117.5,192C 114.258,192.406 111.258,193.239 108.5,194.5C 96.5695,196.169 84.9028,195.502 73.5,192.5C 83.4903,193.333 93.4903,193.5 103.5,193C 110.034,191.981 116.367,190.481 122.5,188.5 Z"/></g>
<g><path style="opacity:1" fill="#6640b8" d="M 47.5,185.5 C 48.8333,185.833 50.1667,186.167 51.5,186.5C 58.5768,189.014 65.9102,191.014 73.5,192.5C 84.9028,195.502 96.5695,196.169 108.5,194.5C 107.526,196.085 106.026,197.085 104,197.5C 91.1632,196.956 78.3299,195.789 65.5,194C 60.8451,191.329 55.8451,189.495 50.5,188.5C 48.8247,188.132 47.8247,187.132 47.5,185.5 Z"/></g>
<g><path style="opacity:1" fill="#9b88c3" d="M 210.5,187.5 C 210.663,189.857 210.497,192.19 210,194.5C 208.981,196.502 208.148,198.502 207.5,200.5C 207.5,198.5 207.5,196.5 207.5,194.5C 209.02,192.412 210.02,190.078 210.5,187.5 Z"/></g>
<g><path style="opacity:1" fill="#6549a0" d="M 207.5,194.5 C 207.5,196.5 207.5,198.5 207.5,200.5C 205.755,202.033 204.755,204.033 204.5,206.5C 203.833,206.833 203.167,207.167 202.5,207.5C 204,202.985 205.666,198.652 207.5,194.5 Z"/></g>
<g><path style="opacity:1" fill="#ad9ece" d="M 29.5,197.5 C 32.1306,201.14 34.7972,204.807 37.5,208.5C 35.8333,207.167 34.1667,205.833 32.5,204.5C 31.6876,202.055 30.6876,199.722 29.5,197.5 Z"/></g>
<g><path style="opacity:1" fill="#bbaed6" d="M 207.5,200.5 C 207.5,201.167 207.5,201.833 207.5,202.5C 206.857,204.076 205.857,205.41 204.5,206.5C 204.755,204.033 205.755,202.033 207.5,200.5 Z"/></g>
<g><path style="opacity:1" fill="#e0daed" d="M 32.5,204.5 C 34.1667,205.833 35.8333,207.167 37.5,208.5C 39.1667,209.5 40.5,210.833 41.5,212.5C 37.2329,211.232 34.2329,208.565 32.5,204.5 Z"/></g>
<g><path style="opacity:1" fill="#b9abd5" d="M 204.5,206.5 C 204.573,208.027 203.906,209.027 202.5,209.5C 202.5,208.833 202.5,208.167 202.5,207.5C 203.167,207.167 203.833,206.833 204.5,206.5 Z"/></g>
<g><path style="opacity:1" fill="#ad9dce" d="M 202.5,209.5 C 202.262,211.404 201.262,212.738 199.5,213.5C 199.738,211.596 200.738,210.262 202.5,209.5 Z"/></g>
<g><path style="opacity:1" fill="#8e79bb" d="M 43.5,213.5 C 45.4113,214.075 47.078,215.075 48.5,216.5C 49.1667,217.5 49.8333,218.5 50.5,219.5C 49.391,219.443 48.391,219.11 47.5,218.5C 46.1667,216.833 44.8333,215.167 43.5,213.5 Z"/></g>
<g><path style="opacity:1" fill="#d7cfe7" d="M 41.5,212.5 C 42.1667,212.833 42.8333,213.167 43.5,213.5C 44.8333,215.167 46.1667,216.833 47.5,218.5C 44.1667,217.833 42.1667,215.833 41.5,212.5 Z"/></g>
<g><path style="opacity:1" fill="#917dbc" d="M 199.5,214.5 C 199.167,215.5 198.5,216.167 197.5,216.5C 197.5,215.167 198.167,214.5 199.5,214.5 Z"/></g>
<g><path style="opacity:1" fill="#7156ab" d="M 48.5,216.5 C 51.8333,217.833 54.1667,220.167 55.5,223.5C 53.8459,222.25 52.1793,220.916 50.5,219.5C 49.8333,218.5 49.1667,217.5 48.5,216.5 Z"/></g>
<g><path style="opacity:1" fill="#d6cee7" d="M 47.5,218.5 C 48.391,219.11 49.391,219.443 50.5,219.5C 52.1793,220.916 53.8459,222.25 55.5,223.5C 55.8333,224.167 56.1667,224.833 56.5,225.5C 54.0722,224.585 51.7389,223.418 49.5,222C 48.1772,221.184 47.5106,220.017 47.5,218.5 Z"/></g>
<g><path style="opacity:1" fill="#9986c2" d="M 55.5,223.5 C 57.0269,223.427 58.0269,224.094 58.5,225.5C 57.8333,225.5 57.1667,225.5 56.5,225.5C 56.1667,224.833 55.8333,224.167 55.5,223.5 Z"/></g>
<g><path style="opacity:1" fill="#af9fcf" d="M 197.5,216.5 C 194.542,221.126 190.876,225.126 186.5,228.5C 186.167,228.5 185.833,228.5 185.5,228.5C 185.833,227.833 186.167,227.167 186.5,226.5C 190.213,223.116 193.879,219.783 197.5,216.5 Z"/></g>
<g><path style="opacity:1" fill="#826ab4" d="M 58.5,225.5 C 60.9674,225.755 62.9674,226.755 64.5,228.5C 64.1667,228.5 63.8333,228.5 63.5,228.5C 61.4348,228.047 59.7682,227.047 58.5,225.5 Z"/></g>
<g><path style="opacity:1" fill="#816ab2" d="M 186.5,226.5 C 186.167,227.167 185.833,227.833 185.5,228.5C 184.833,228.833 184.167,229.167 183.5,229.5C 183.5,227.5 184.5,226.5 186.5,226.5 Z"/></g>
<g><path style="opacity:1" fill="#c8bdde" d="M 56.5,225.5 C 57.1667,225.5 57.8333,225.5 58.5,225.5C 59.7682,227.047 61.4348,228.047 63.5,228.5C 63.5,228.833 63.5,229.167 63.5,229.5C 60.3793,229.264 58.046,227.931 56.5,225.5 Z"/></g>
<g><path style="opacity:1" fill="#a08ec5" d="M 63.5,229.5 C 63.5,229.167 63.5,228.833 63.5,228.5C 63.8333,228.5 64.1667,228.5 64.5,228.5C 66.1131,229.692 67.7798,230.692 69.5,231.5C 67.1417,231.747 65.1417,231.081 63.5,229.5 Z"/></g>
<g><path style="opacity:1" fill="#dbd3ea" d="M 185.5,228.5 C 185.833,228.5 186.167,228.5 186.5,228.5C 185.415,230.587 183.749,231.92 181.5,232.5C 182.167,231.5 182.833,230.5 183.5,229.5C 184.167,229.167 184.833,228.833 185.5,228.5 Z"/></g>
<g><path style="opacity:1" fill="#8872b7" d="M 183.5,229.5 C 182.833,230.5 182.167,231.5 181.5,232.5C 180.005,232.989 178.671,233.655 177.5,234.5C 175.883,235.038 174.216,235.371 172.5,235.5C 176.158,233.501 179.824,231.501 183.5,229.5 Z"/></g>
<g><path style="opacity:1" fill="#a797ca" d="M 69.5,231.5 C 72.5458,231.725 74.8791,233.058 76.5,235.5C 74.5,234.833 72.5,234.167 70.5,233.5C 69.6618,233.158 69.3284,232.492 69.5,231.5 Z"/></g>
<g><path style="opacity:1" fill="#e0daed" d="M 70.5,233.5 C 72.5,234.167 74.5,234.833 76.5,235.5C 76.8333,235.5 77.1667,235.5 77.5,235.5C 78.6874,237.975 80.6874,238.975 83.5,238.5C 85.4352,239.15 87.4352,239.483 89.5,239.5C 89.5,239.833 89.5,240.167 89.5,240.5C 85.7802,240.436 82.1135,239.936 78.5,239C 75.6225,237.245 72.9558,235.412 70.5,233.5 Z"/></g>
<g><path style="opacity:1" fill="#c3b7db" d="M 177.5,234.5 C 174.765,237.201 171.431,238.868 167.5,239.5C 168.984,237.926 170.651,236.593 172.5,235.5C 174.216,235.371 175.883,235.038 177.5,234.5 Z"/></g>
<g><path style="opacity:1" fill="#b7a9d4" d="M 77.5,235.5 C 79.5786,235.971 81.5786,236.637 83.5,237.5C 83.5,237.833 83.5,238.167 83.5,238.5C 80.6874,238.975 78.6874,237.975 77.5,235.5 Z"/></g>
<g><path style="opacity:1" fill="#593b98" d="M 172.5,235.5 C 170.651,236.593 168.984,237.926 167.5,239.5C 164.794,239.575 162.127,239.908 159.5,240.5C 159.953,239.542 160.619,238.708 161.5,238C 165.297,237.591 168.964,236.758 172.5,235.5 Z"/></g>
<g><path style="opacity:1" fill="#8069b2" d="M 83.5,238.5 C 83.5,238.167 83.5,237.833 83.5,237.5C 84.5,237.5 85.5,237.5 86.5,237.5C 87.7095,237.932 88.7095,238.599 89.5,239.5C 87.4352,239.483 85.4352,239.15 83.5,238.5 Z"/></g>
<g><path style="opacity:1" fill="#8069b2" d="M 89.5,240.5 C 89.5,240.167 89.5,239.833 89.5,239.5C 91.8984,239.259 93.8984,239.926 95.5,241.5C 93.4352,241.483 91.4352,241.15 89.5,240.5 Z"/></g>
<g><path style="opacity:1" fill="#a796ca" d="M 167.5,239.5 C 166.5,240.167 165.5,240.833 164.5,241.5C 158.946,242.961 153.279,243.961 147.5,244.5C 151.424,243.168 155.424,241.835 159.5,240.5C 162.127,239.908 164.794,239.575 167.5,239.5 Z"/></g>
<g><path style="opacity:1" fill="#8e79ba" d="M 95.5,241.5 C 112.712,244.173 130.045,245.173 147.5,244.5C 138.014,245.494 128.348,245.827 118.5,245.5C 111.502,244.735 104.502,243.901 97.5,243C 96.5842,242.722 95.9175,242.222 95.5,241.5 Z"/></g>
<g><path style="opacity:1" fill="#dcd5eb" d="M 164.5,241.5 C 158.086,245.025 151.086,246.692 143.5,246.5C 134.983,246.826 126.65,246.493 118.5,245.5C 128.348,245.827 138.014,245.494 147.5,244.5C 153.279,243.961 158.946,242.961 164.5,241.5 Z"/></g>
<g><path style="opacity:1" fill="#eae5f3" d="M 89.5,240.5 C 91.4352,241.15 93.4352,241.483 95.5,241.5C 95.9175,242.222 96.5842,242.722 97.5,243C 104.502,243.901 111.502,244.735 118.5,245.5C 126.65,246.493 134.983,246.826 143.5,246.5C 125.995,248.64 108.662,247.473 91.5,243C 90.6195,242.292 89.9528,241.458 89.5,240.5 Z"/></g>
</svg>
