<?xml version="1.0" encoding="UTF-8"?>
<!DOCTYPE svg PUBLIC "-//W3C//DTD SVG 1.1//EN" "http://www.w3.org/Graphics/SVG/1.1/DTD/svg11.dtd">
<svg xmlns="http://www.w3.org/2000/svg" version="1.1" width="250px" height="250px" style="shape-rendering:geometricPrecision; text-rendering:geometricPrecision; image-rendering:optimizeQuality; fill-rule:evenodd; clip-rule:evenodd" xmlns:xlink="http://www.w3.org/1999/xlink">
<g><path style="opacity:1" fill="#01adef" d="M -0.5,-0.5 C 82.8333,-0.5 166.167,-0.5 249.5,-0.5C 249.5,82.8333 249.5,166.167 249.5,249.5C 166.167,249.5 82.8333,249.5 -0.5,249.5C -0.5,166.167 -0.5,82.8333 -0.5,-0.5 Z"/></g>
<g><path style="opacity:1" fill="#cffefe" d="M 78.5,49.5 C 108.995,48.5019 139.662,48.1685 170.5,48.5C 171.338,48.8417 171.672,49.5084 171.5,50.5C 171.167,50.5 170.833,50.5 170.5,50.5C 140.005,49.5019 109.338,49.1685 78.5,49.5 Z"/></g>
<g><path style="opacity:1" fill="#fff6fe" d="M 159.5,50.5 C 133.188,52.4912 106.521,53.1579 79.5,52.5C 105.812,50.5088 132.479,49.8421 159.5,50.5 Z"/></g>
<g><path style="opacity:1" fill="#4cb0c9" d="M 170.5,47.5 C 170.5,47.8333 170.5,48.1667 170.5,48.5C 139.662,48.1685 108.995,48.5019 78.5,49.5C 76.5,50.8333 74.8333,52.5 73.5,54.5C 70.1667,57.5 66.8333,60.5 63.5,63.5C 66.8096,57.6718 71.1429,52.5052 76.5,48C 107.832,47.5 139.165,47.3334 170.5,47.5 Z"/></g>
<g><path style="opacity:1" fill="#f3fefa" d="M 78.5,49.5 C 109.338,49.1685 140.005,49.5019 170.5,50.5C 166.833,50.5 163.167,50.5 159.5,50.5C 132.479,49.8421 105.812,50.5088 79.5,52.5C 106.003,53.1667 132.67,53.8333 159.5,54.5C 132.175,55.4998 104.841,55.8331 77.5,55.5C 77.6495,54.448 77.4828,53.448 77,52.5C 76.1841,53.8228 75.0174,54.4894 73.5,54.5C 74.8333,52.5 76.5,50.8333 78.5,49.5 Z"/></g>
<g><path style="opacity:1" fill="#18aee4" d="M 170.5,48.5 C 170.5,48.1667 170.5,47.8333 170.5,47.5C 172.716,48.2026 174.549,49.5359 176,51.5C 177.706,50.6921 178.539,49.3588 178.5,47.5C 179.675,47.281 180.675,47.6143 181.5,48.5C 184.833,51.8333 188.167,55.1667 191.5,58.5C 189.926,59.6309 188.259,59.7975 186.5,59C 185.631,56.6322 183.965,55.1322 181.5,54.5C 180.081,55.0047 179.415,56.0047 179.5,57.5C 177.045,54.9225 174.378,52.5892 171.5,50.5C 171.672,49.5084 171.338,48.8417 170.5,48.5 Z"/></g>
<g><path style="opacity:1" fill="#fcfefd" d="M 159.5,50.5 C 163.167,50.5 166.833,50.5 170.5,50.5C 170.833,50.5 171.167,50.5 171.5,50.5C 174.378,52.5892 177.045,54.9225 179.5,57.5C 179.5,58.1667 179.833,58.5 180.5,58.5C 181.833,60.1667 183.167,61.8333 184.5,63.5C 184.5,73.1667 184.5,82.8333 184.5,92.5C 170.817,92.8325 157.15,92.4992 143.5,91.5C 186.151,89.6684 186.151,88.8351 143.5,89C 142.922,90.417 141.922,91.2504 140.5,91.5C 140.817,87.2984 140.483,83.2984 139.5,79.5C 139.5,79.1667 139.5,78.8333 139.5,78.5C 138.548,77.548 137.548,76.548 136.5,75.5C 126.046,76.5356 115.713,76.5356 105.5,75.5C 105.524,82.0062 105.691,88.6728 106,95.5C 107.422,98.0301 107.755,100.697 107,103.5C 105.989,104.337 104.822,104.67 103.5,104.5C 103.5,106.833 103.5,109.167 103.5,111.5C 105.886,111.741 107.886,111.075 109.5,109.5C 109.369,110.376 109.702,111.043 110.5,111.5C 130.821,110.19 151.154,110.19 171.5,111.5C 171.833,111.5 172.167,111.5 172.5,111.5C 173.167,112.833 174.167,113.833 175.5,114.5C 177.5,116.833 179.5,119.167 181.5,121.5C 181.628,123.09 182.295,124.423 183.5,125.5C 184.5,145.489 184.833,165.489 184.5,185.5C 183.078,187.512 181.745,189.512 180.5,191.5C 178.251,192.08 176.585,193.413 175.5,195.5C 173.708,195.366 172.042,195.699 170.5,196.5C 169.261,194.203 167.428,193.87 165,195.5C 163.5,195 162,194.5 160.5,194C 133.33,193.17 106.33,193.336 79.5,194.5C 78.5,194.5 77.5,194.5 76.5,194.5C 74.0122,194.317 72.0122,193.317 70.5,191.5C 68.487,189.503 66.1537,187.836 63.5,186.5C 63.5,176.167 63.5,165.833 63.5,155.5C 78.8333,155.5 94.1667,155.5 109.5,155.5C 108.892,160.944 109.558,165.944 111.5,170.5C 120.833,170.5 130.167,170.5 139.5,170.5C 140.215,160.982 140.882,151.315 141.5,141.5C 141.253,140.287 140.586,139.62 139.5,139.5C 119.671,138.668 99.6709,138.168 79.5,138C 78.5291,136.519 77.1958,135.685 75.5,135.5C 72.2302,133.049 69.2302,130.382 66.5,127.5C 66.1667,127.5 65.8333,127.5 65.5,127.5C 64.3995,126.395 63.7329,125.062 63.5,123.5C 63.5,103.5 63.5,83.5 63.5,63.5C 66.8333,60.5 70.1667,57.5 73.5,54.5C 75.0174,54.4894 76.1841,53.8228 77,52.5C 77.4828,53.448 77.6495,54.448 77.5,55.5C 104.841,55.8331 132.175,55.4998 159.5,54.5C 132.67,53.8333 106.003,53.1667 79.5,52.5C 106.521,53.1579 133.188,52.4912 159.5,50.5 Z"/></g>
<g><path style="opacity:1" fill="#04acea" d="M 63.5,123.5 C 63.7329,125.062 64.3995,126.395 65.5,127.5C 62.1667,127.5 58.8333,127.5 55.5,127.5C 56.4431,106.189 56.7764,84.8558 56.5,63.5C 58.5,63.5 60.5,63.5 62.5,63.5C 62.1695,83.6736 62.5029,103.674 63.5,123.5 Z"/></g>
<g><path style="opacity:1" fill="#38addb" d="M 180.5,58.5 C 182.258,58.8769 183.925,59.5435 185.5,60.5C 186.824,71.9931 186.824,83.3265 185.5,94.5C 185.5,94.1667 185.5,93.8333 185.5,93.5C 185.827,83.3194 185.494,73.3194 184.5,63.5C 183.167,61.8333 181.833,60.1667 180.5,58.5 Z"/></g>
<g><path style="opacity:1" fill="#00b3df" d="M 129.5,79.5 C 130.167,79.5 130.833,79.5 131.5,79.5C 130.833,100.833 130.167,100.833 129.5,79.5 Z"/></g>
<g><path style="opacity:1" fill="#eefefd" d="M 184.5,63.5 C 185.494,73.3194 185.827,83.3194 185.5,93.5C 170.129,94.1503 155.129,93.4837 140.5,91.5C 141.922,91.2504 142.922,90.417 143.5,89C 186.151,88.8351 186.151,89.6684 143.5,91.5C 157.15,92.4992 170.817,92.8325 184.5,92.5C 184.5,82.8333 184.5,73.1667 184.5,63.5 Z"/></g>
<g><path style="opacity:1" fill="#03afea" d="M 134.5,79.5 C 135.833,79.5 137.167,79.5 138.5,79.5C 138.5,84.8333 138.5,90.1667 138.5,95.5C 136.833,95.5 135.167,95.5 133.5,95.5C 133.324,90.1203 133.658,84.787 134.5,79.5 Z"/></g>
<g><path style="opacity:1" fill="#95e3fc" d="M 139.5,79.5 C 140.483,83.2984 140.817,87.2984 140.5,91.5C 155.129,93.4837 170.129,94.1503 185.5,93.5C 185.5,93.8333 185.5,94.1667 185.5,94.5C 182.833,94.5 180.167,94.5 177.5,94.5C 164.833,94.5 152.167,94.5 139.5,94.5C 139.5,89.5 139.5,84.5 139.5,79.5 Z"/></g>
<g><path style="opacity:1" fill="#49a8ca" d="M 109.5,79.5 C 119.319,78.506 129.319,78.1726 139.5,78.5C 139.5,78.8333 139.5,79.1667 139.5,79.5C 139.5,84.5 139.5,89.5 139.5,94.5C 152.167,94.5 164.833,94.5 177.5,94.5C 164.677,95.4955 151.677,95.8288 138.5,95.5C 138.5,90.1667 138.5,84.8333 138.5,79.5C 137.167,79.5 135.833,79.5 134.5,79.5C 133.5,79.5 132.5,79.5 131.5,79.5C 130.833,79.5 130.167,79.5 129.5,79.5C 123.167,79.5 116.833,79.5 110.5,79.5C 110.167,79.5 109.833,79.5 109.5,79.5 Z"/></g>
<g><path style="opacity:1" fill="#e8fbf9" d="M 139.5,78.5 C 129.319,78.1726 119.319,78.506 109.5,79.5C 109.5,89.5 109.5,99.5 109.5,109.5C 107.886,111.075 105.886,111.741 103.5,111.5C 103.5,109.167 103.5,106.833 103.5,104.5C 104.822,104.67 105.989,104.337 107,103.5C 107.755,100.697 107.422,98.0301 106,95.5C 105.691,88.6728 105.524,82.0062 105.5,75.5C 115.713,76.5356 126.046,76.5356 136.5,75.5C 137.548,76.548 138.548,77.548 139.5,78.5 Z"/></g>
<g><path style="opacity:1" fill="#09ade5" d="M 109.5,79.5 C 109.833,79.5 110.167,79.5 110.5,79.5C 110.5,87.1667 110.5,94.8333 110.5,102.5C 126.868,102.482 143.202,103.149 159.5,104.5C 159.5,103.5 159.5,102.5 159.5,101.5C 154.125,101.828 148.792,101.495 143.5,100.5C 149.476,100.026 155.309,99.0262 161,97.5C 164.525,98.1175 165.025,99.4508 162.5,101.5C 163.025,102.192 163.692,102.692 164.5,103C 168.203,103.579 171.869,103.412 175.5,102.5C 175.5,103.833 175.5,105.167 175.5,106.5C 159.522,106.829 143.522,106.496 127.5,105.5C 122.167,105.833 116.833,106.167 111.5,106.5C 110.873,107.417 110.539,108.417 110.5,109.5C 110.167,109.5 109.833,109.5 109.5,109.5C 109.5,99.5 109.5,89.5 109.5,79.5 Z"/></g>
<g><path style="opacity:1" fill="#d2fefe" d="M 109.5,109.5 C 109.833,109.5 110.167,109.5 110.5,109.5C 130.503,109.333 150.503,109.5 170.5,110C 171.056,110.383 171.389,110.883 171.5,111.5C 151.154,110.19 130.821,110.19 110.5,111.5C 109.702,111.043 109.369,110.376 109.5,109.5 Z"/></g>
<g><path style="opacity:1" fill="#4aafac" d="M 172.5,111.5 C 173.5,111.5 174.5,111.5 175.5,111.5C 175.5,112.5 175.5,113.5 175.5,114.5C 174.167,113.833 173.167,112.833 172.5,111.5 Z"/></g>
<g><path style="opacity:1" fill="#44b4d7" d="M 175.5,114.5 C 178.015,115.263 180.015,116.763 181.5,119C 182.448,119.483 183.448,119.649 184.5,119.5C 184.629,121.216 184.962,122.883 185.5,124.5C 184.167,123.5 182.833,122.5 181.5,121.5C 179.5,119.167 177.5,116.833 175.5,114.5 Z"/></g>
<g><path style="opacity:1" fill="#d5f8fe" d="M 181.5,121.5 C 182.833,122.5 184.167,123.5 185.5,124.5C 185.5,124.833 185.5,125.167 185.5,125.5C 185.83,145.674 185.497,165.674 184.5,185.5C 184.833,165.489 184.5,145.489 183.5,125.5C 182.295,124.423 181.628,123.09 181.5,121.5 Z"/></g>
<g><path style="opacity:1" fill="#3bacd5" d="M 185.5,125.5 C 186.376,125.369 187.043,125.702 187.5,126.5C 186.513,145.12 186.18,163.787 186.5,182.5C 186.494,185.518 185.494,188.184 183.5,190.5C 182.675,191.386 181.675,191.719 180.5,191.5C 181.745,189.512 183.078,187.512 184.5,185.5C 185.497,165.674 185.83,145.674 185.5,125.5 Z"/></g>
<g><path style="opacity:1" fill="#4ab9e7" d="M 66.5,127.5 C 69.2302,130.382 72.2302,133.049 75.5,135.5C 76.2899,136.794 77.2899,137.961 78.5,139C 98.8306,139.5 119.164,139.667 139.5,139.5C 139.5,139.833 139.5,140.167 139.5,140.5C 117.709,140.548 96.0424,140.548 74.5,140.5C 74.5,139.167 74.5,137.833 74.5,136.5C 73.1667,136.5 71.8333,136.5 70.5,136.5C 70.5,135.167 70.5,133.833 70.5,132.5C 67.9512,132.441 65.9512,133.441 64.5,135.5C 64.1667,134.833 63.8333,134.167 63.5,133.5C 64.6892,131.557 65.6892,129.557 66.5,127.5 Z"/></g>
<g><path style="opacity:1" fill="#dbfeff" d="M 75.5,135.5 C 77.1958,135.685 78.5291,136.519 79.5,138C 99.6709,138.168 119.671,138.668 139.5,139.5C 119.164,139.667 98.8306,139.5 78.5,139C 77.2899,137.961 76.2899,136.794 75.5,135.5 Z"/></g>
<g><path style="opacity:1" fill="#08abe6" d="M 74.5,140.5 C 96.0424,140.548 117.709,140.548 139.5,140.5C 139.5,149.833 139.5,159.167 139.5,168.5C 138.833,168.5 138.167,168.5 137.5,168.5C 137.5,167.167 137.5,165.833 137.5,164.5C 134.167,164.5 130.833,164.5 127.5,164.5C 127.5,163.5 127.5,162.5 127.5,161.5C 128.978,161.762 130.311,161.429 131.5,160.5C 130.211,154.857 130.211,149.19 131.5,143.5C 132.329,148.802 132.829,154.136 133,159.5C 134.396,161.527 136.062,161.86 138,160.5C 138.667,154.833 138.667,149.167 138,143.5C 136.562,142.282 134.895,141.615 133,141.5C 125.957,143.264 118.79,143.93 111.5,143.5C 111.5,144.5 111.5,145.5 111.5,146.5C 106.833,146.5 102.167,146.5 97.5,146.5C 97.5,145.5 97.5,144.5 97.5,143.5C 91.4908,143.334 85.4908,143.501 79.5,144C 84.8642,144.171 90.1975,144.671 95.5,145.5C 84.8541,146.499 74.1874,146.832 63.5,146.5C 63.2148,144.712 63.5481,143.045 64.5,141.5C 65.4682,142.489 66.6349,143.156 68,143.5C 70.1911,142.478 72.3578,141.478 74.5,140.5 Z"/></g>
<g><path style="opacity:1" fill="#b3ebf4" d="M 139.5,139.5 C 140.586,139.62 141.253,140.287 141.5,141.5C 140.882,151.315 140.215,160.982 139.5,170.5C 139.5,169.833 139.5,169.167 139.5,168.5C 139.5,159.167 139.5,149.833 139.5,140.5C 139.5,140.167 139.5,139.833 139.5,139.5 Z"/></g>
<g><path style="opacity:1" fill="#0aabe0" d="M 79.5,149.5 C 85.8682,149.17 92.2015,149.504 98.5,150.5C 98.1667,151.5 97.5,152.167 96.5,152.5C 85.5463,151.688 74.5463,151.188 63.5,151C 69.0158,150.827 74.3491,150.327 79.5,149.5 Z"/></g>
<g><path style="opacity:1" fill="#46acd1" d="M 137.5,168.5 C 138.167,168.5 138.833,168.5 139.5,168.5C 139.5,169.167 139.5,169.833 139.5,170.5C 130.167,170.5 120.833,170.5 111.5,170.5C 120.167,169.833 128.833,169.167 137.5,168.5 Z"/></g>
<g><path style="opacity:1" fill="#fafef5" d="M 170.5,196.5 C 170.047,197.458 169.381,198.292 168.5,199C 138.833,199.667 109.167,199.667 79.5,199C 77.6243,198.082 76.6243,196.582 76.5,194.5C 77.5,194.5 78.5,194.5 79.5,194.5C 106.33,193.336 133.33,193.17 160.5,194C 162,194.5 163.5,195 165,195.5C 167.428,193.87 169.261,194.203 170.5,196.5 Z"/></g>
<g><path style="opacity:1" fill="#fffafe" d="M 79.5,194.5 C 106.167,194.5 132.833,194.5 159.5,194.5C 159.5,195.5 159.5,196.5 159.5,197.5C 132.833,197.5 106.167,197.5 79.5,197.5C 79.5,196.5 79.5,195.5 79.5,194.5 Z"/></g>
<g><path style="opacity:1" fill="#10aae7" d="M 186.5,182.5 C 188.085,183.474 189.085,184.974 189.5,187C 187.947,188.097 186.614,189.43 185.5,191C 186.793,191.49 188.127,191.657 189.5,191.5C 189.663,193.857 189.497,196.19 189,198.5C 186.65,200.683 184.483,203.016 182.5,205.5C 178.144,207.492 175.811,206.159 175.5,201.5C 174.167,201.5 172.833,201.5 171.5,201.5C 171.357,203.262 171.691,204.929 172.5,206.5C 172,206.833 171.5,207.167 171,207.5C 169.155,206.244 167.155,205.244 165,204.5C 163.189,205.078 161.355,205.578 159.5,206C 52.8396,206.166 52.8396,205.333 159.5,203.5C 132.003,202.833 104.67,202.167 77.5,201.5C 108.671,201.831 139.671,201.498 170.5,200.5C 171.861,198.473 173.527,196.806 175.5,195.5C 176.585,193.413 178.251,192.08 180.5,191.5C 181.675,191.719 182.675,191.386 183.5,190.5C 185.494,188.184 186.494,185.518 186.5,182.5 Z"/></g>
<g><path style="opacity:1" fill="#eafefe" d="M 70.5,191.5 C 72.0122,193.317 74.0122,194.317 76.5,194.5C 76.6243,196.582 77.6243,198.082 79.5,199C 109.167,199.667 138.833,199.667 168.5,199C 169.381,198.292 170.047,197.458 170.5,196.5C 172.042,195.699 173.708,195.366 175.5,195.5C 173.527,196.806 171.861,198.473 170.5,200.5C 139.427,200.825 108.427,200.492 77.5,199.5C 74.9225,197.045 72.5892,194.378 70.5,191.5 Z"/></g>
<g><path style="opacity:1" fill="#78c4e9" d="M 77.5,199.5 C 108.427,200.492 139.427,200.825 170.5,200.5C 139.671,201.498 108.671,201.831 77.5,201.5C 77.5,200.833 77.5,200.167 77.5,199.5 Z"/></g>
<g><path style="opacity:1" fill="#1bade3" d="M 63.5,186.5 C 66.1537,187.836 68.487,189.503 70.5,191.5C 72.5892,194.378 74.9225,197.045 77.5,199.5C 77.5,200.167 77.5,200.833 77.5,201.5C 75.8546,200.521 74.5213,199.188 73.5,197.5C 72.3914,196.41 71.3914,196.41 70.5,197.5C 72.4821,200.81 74.8154,203.81 77.5,206.5C 75.9547,207.452 74.288,207.785 72.5,207.5C 72.5,206.5 72.5,205.5 72.5,204.5C 70.5,204.5 68.5,204.5 66.5,204.5C 66.5,205.5 66.5,206.5 66.5,207.5C 65.5,207.5 64.5,207.5 63.5,207.5C 64.812,204.646 65.812,201.646 66.5,198.5C 65.7806,195.753 65.7806,193.086 66.5,190.5C 65.1738,189.358 64.1738,188.024 63.5,186.5 Z"/></g>
</svg>
