<?xml version="1.0" encoding="UTF-8"?>
<!DOCTYPE svg PUBLIC "-//W3C//DTD SVG 1.1//EN" "http://www.w3.org/Graphics/SVG/1.1/DTD/svg11.dtd">
<svg xmlns="http://www.w3.org/2000/svg" version="1.1" width="250px" height="250px" style="shape-rendering:geometricPrecision; text-rendering:geometricPrecision; image-rendering:optimizeQuality; fill-rule:evenodd; clip-rule:evenodd" xmlns:xlink="http://www.w3.org/1999/xlink">
<g><path style="opacity:1" fill="#fbfbfd" d="M -0.5,-0.5 C 8.16667,-0.5 16.8333,-0.5 25.5,-0.5C 24.3347,1.83513 23.668,4.33513 23.5,7C 23.9196,17.8041 23.9196,28.6374 23.5,39.5C 24.8333,39.5 26.1667,39.5 27.5,39.5C 27.5,43.5 27.5,47.5 27.5,51.5C 32.4357,53.3695 33.2691,56.3695 30,60.5C 28.8904,58.9632 27.3904,58.2965 25.5,58.5C 25.7394,60.4672 25.4061,62.3005 24.5,64C 26.6641,64.9143 28.6641,66.081 30.5,67.5C 28.6641,68.919 26.6641,70.0857 24.5,71C 25.448,71.4828 26.448,71.6495 27.5,71.5C 27.5,74.1667 27.5,76.8333 27.5,79.5C 28.5,79.5 29.5,79.5 30.5,79.5C 30.5,84.8333 30.5,90.1667 30.5,95.5C 31.8333,95.5 33.1667,95.5 34.5,95.5C 34.5,96.8333 34.5,98.1667 34.5,99.5C 36.1667,99.5 37.8333,99.5 39.5,99.5C 39.6567,100.873 39.49,102.207 39,103.5C 33.3808,105.849 33.2141,108.349 38.5,111C 35.5,111.333 32.5,111.667 29.5,112C 32.0807,114.988 35.414,116.154 39.5,115.5C 39.5,116.833 39.5,118.167 39.5,119.5C 38.1667,119.5 36.8333,119.5 35.5,119.5C 35.5,122.167 35.5,124.833 35.5,127.5C 36.8333,127.5 38.1667,127.5 39.5,127.5C 39.5,128.833 39.5,130.167 39.5,131.5C 42.1667,131.5 44.8333,131.5 47.5,131.5C 47.5,132.5 47.5,133.5 47.5,134.5C 44.8127,134.336 42.146,134.503 39.5,135C 40.7932,135.49 42.1266,135.657 43.5,135.5C 43.5,140.833 43.5,146.167 43.5,151.5C 44.8333,151.5 46.1667,151.5 47.5,151.5C 47.1758,147.445 47.5091,143.445 48.5,139.5C 49.086,139.709 49.586,140.043 50,140.5C 50.3333,138.833 50.6667,137.167 51,135.5C 53.0229,137.769 53.8563,140.436 53.5,143.5C 51.712,143.215 50.0453,143.548 48.5,144.5C 48.5521,149.41 48.8855,154.41 49.5,159.5C 48.5,159.5 47.5,159.5 46.5,159.5C 47.3374,165.386 46.0041,170.553 42.5,175C 44.1341,175.494 45.8008,175.66 47.5,175.5C 47.5,172.833 47.5,170.167 47.5,167.5C 49.7659,167.859 51.5993,167.192 53,165.5C 53.0939,171.537 52.5939,177.537 51.5,183.5C 52.8333,183.5 54.1667,183.5 55.5,183.5C 55.443,179.867 56.443,179.7 58.5,183C 59.8333,183.333 61.1667,183.667 62.5,184C 60.1218,184.511 57.7885,185.178 55.5,186C 58.4403,187.152 61.4403,188.152 64.5,189C 61.4501,189.679 58.4501,190.512 55.5,191.5C 54.4512,194.08 53.7845,196.746 53.5,199.5C 56.8333,199.5 60.1667,199.5 63.5,199.5C 63.5,202.167 63.5,204.833 63.5,207.5C 64.5,207.5 65.5,207.5 66.5,207.5C 66.5,211.5 66.5,215.5 66.5,219.5C 68.1667,219.5 69.8333,219.5 71.5,219.5C 70.8379,223.466 70.5045,227.466 70.5,231.5C 69.5,231.5 68.5,231.5 67.5,231.5C 67.5,228.833 67.5,226.167 67.5,223.5C 66.5,223.5 65.5,223.5 64.5,223.5C 64.4955,227.534 64.1621,231.534 63.5,235.5C 68.8333,235.5 74.1667,235.5 79.5,235.5C 79.5,236.833 79.5,238.167 79.5,239.5C 76.8127,239.336 74.146,239.503 71.5,240C 70.6634,241.011 70.33,242.178 70.5,243.5C 73.1667,243.5 75.8333,243.5 78.5,243.5C 78.5,244.833 78.5,246.167 78.5,247.5C 76.8212,247.285 75.8212,247.952 75.5,249.5C 50.1667,249.5 24.8333,249.5 -0.5,249.5C -0.5,166.167 -0.5,82.8333 -0.5,-0.5 Z"/></g>
<g><path style="opacity:1" fill="#fcf6fa" d="M 25.5,-0.5 C 37.1667,-0.5 48.8333,-0.5 60.5,-0.5C 60.3347,3.18174 60.5014,6.84841 61,10.5C 62,11.8333 63,11.8333 64,10.5C 65.214,12.0488 66.714,13.2155 68.5,14C 66.9594,16.0403 65.6261,18.2069 64.5,20.5C 63.5481,18.9547 63.2148,17.288 63.5,15.5C 61.396,15.2011 59.396,15.5344 57.5,16.5C 59.9864,18.578 60.9864,21.2447 60.5,24.5C 58.5328,24.7394 56.6995,24.4061 55,23.5C 54.9994,26.687 54.1661,29.5203 52.5,32C 53.1667,32.3333 53.8333,32.6667 54.5,33C 53.3333,33.5 52.5,34.3333 52,35.5C 51.0347,33.7397 49.868,33.4063 48.5,34.5C 48.2825,38.1871 50.1158,40.8537 54,42.5C 54.4828,43.448 54.6495,44.448 54.5,45.5C 55.8333,45.5 57.1667,45.5 58.5,45.5C 58.5,45.8333 58.5,46.1667 58.5,46.5C 58.0618,46.4346 57.7284,46.6012 57.5,47C 58.717,48.6477 59.5503,50.481 60,52.5C 61.803,53.3134 63.303,54.4801 64.5,56C 63.4528,57.5777 63.4528,59.0777 64.5,60.5C 65.8844,57.8674 67.2178,57.8674 68.5,60.5C 67.5637,61.9744 66.2303,62.9744 64.5,63.5C 63.4173,64.365 63.2506,65.365 64,66.5C 68.8052,70.9187 72.1385,76.252 74,82.5C 79.2463,87.4261 82.0796,93.4261 82.5,100.5C 81.8902,101.391 81.5569,102.391 81.5,103.5C 79.7773,105.78 79.1107,108.447 79.5,111.5C 78.603,112.598 77.7697,112.598 77,111.5C 76.6371,114.544 76.1371,117.544 75.5,120.5C 75.5,121.167 75.5,121.833 75.5,122.5C 74.0937,122.973 73.427,123.973 73.5,125.5C 73.6716,126.492 73.3382,127.158 72.5,127.5C 70.016,129.8 68.016,132.467 66.5,135.5C 66.1667,135.5 65.8333,135.5 65.5,135.5C 64.5,135.5 63.5,135.5 62.5,135.5C 62.6602,137.199 62.4935,138.866 62,140.5C 61.586,140.043 61.086,139.709 60.5,139.5C 59.8398,146.232 60.5065,152.899 62.5,159.5C 63.2876,160.77 64.2876,161.77 65.5,162.5C 64.2804,164.282 63.6138,166.282 63.5,168.5C 67.1569,168.974 67.3236,170.307 64,172.5C 63.2506,173.635 63.4173,174.635 64.5,175.5C 66.4122,173.844 68.4122,173.511 70.5,174.5C 69.5,175.167 68.5,175.833 67.5,176.5C 68.5,178.167 69.8333,179.5 71.5,180.5C 79.0063,182.689 86.3396,184.522 93.5,186C 95.2077,187.51 96.8744,189.01 98.5,190.5C 97.675,191.386 96.675,191.719 95.5,191.5C 96.2587,195.921 98.9254,198.255 103.5,198.5C 103.343,197.127 103.51,195.793 104,194.5C 104.647,198.686 106.814,200.019 110.5,198.5C 111.429,199.689 111.762,201.022 111.5,202.5C 115.02,202.805 118.353,203.638 121.5,205C 114.831,205.57 114.331,206.737 120,208.5C 120.497,210.81 120.663,213.143 120.5,215.5C 117.402,215.587 117.068,215.087 119.5,214C 112.189,211.611 111.189,212.944 116.5,218C 115.437,219.188 114.103,219.688 112.5,219.5C 112.5,220.5 112.5,221.5 112.5,222.5C 114.857,222.337 117.19,222.503 119.5,223C 118.552,223.483 117.552,223.649 116.5,223.5C 116.5,226.167 116.5,228.833 116.5,231.5C 118.5,231.5 120.5,231.5 122.5,231.5C 121.271,236.071 121.271,239.904 122.5,243C 124.464,243.624 126.131,243.124 127.5,241.5C 124.049,239.952 123.716,237.952 126.5,235.5C 128.409,236.348 130.409,236.682 132.5,236.5C 132.5,237.5 132.5,238.5 132.5,239.5C 129.5,239.167 128.167,240.5 128.5,243.5C 133.331,243.162 134.665,245.162 132.5,249.5C 113.5,249.5 94.5,249.5 75.5,249.5C 75.8212,247.952 76.8212,247.285 78.5,247.5C 78.5,246.167 78.5,244.833 78.5,243.5C 75.8333,243.5 73.1667,243.5 70.5,243.5C 70.33,242.178 70.6634,241.011 71.5,240C 74.146,239.503 76.8127,239.336 79.5,239.5C 79.5,238.167 79.5,236.833 79.5,235.5C 74.1667,235.5 68.8333,235.5 63.5,235.5C 64.1621,231.534 64.4955,227.534 64.5,223.5C 65.5,223.5 66.5,223.5 67.5,223.5C 67.5,226.167 67.5,228.833 67.5,231.5C 68.5,231.5 69.5,231.5 70.5,231.5C 70.5045,227.466 70.8379,223.466 71.5,219.5C 69.8333,219.5 68.1667,219.5 66.5,219.5C 66.5,215.5 66.5,211.5 66.5,207.5C 65.5,207.5 64.5,207.5 63.5,207.5C 63.5,204.833 63.5,202.167 63.5,199.5C 60.1667,199.5 56.8333,199.5 53.5,199.5C 53.7845,196.746 54.4512,194.08 55.5,191.5C 58.4501,190.512 61.4501,189.679 64.5,189C 61.4403,188.152 58.4403,187.152 55.5,186C 57.7885,185.178 60.1218,184.511 62.5,184C 61.1667,183.667 59.8333,183.333 58.5,183C 56.443,179.7 55.443,179.867 55.5,183.5C 54.1667,183.5 52.8333,183.5 51.5,183.5C 52.5939,177.537 53.0939,171.537 53,165.5C 51.5993,167.192 49.7659,167.859 47.5,167.5C 47.5,170.167 47.5,172.833 47.5,175.5C 45.8008,175.66 44.1341,175.494 42.5,175C 46.0041,170.553 47.3374,165.386 46.5,159.5C 47.5,159.5 48.5,159.5 49.5,159.5C 48.8855,154.41 48.5521,149.41 48.5,144.5C 50.0453,143.548 51.712,143.215 53.5,143.5C 53.8563,140.436 53.0229,137.769 51,135.5C 50.6667,137.167 50.3333,138.833 50,140.5C 49.586,140.043 49.086,139.709 48.5,139.5C 47.5091,143.445 47.1758,147.445 47.5,151.5C 46.1667,151.5 44.8333,151.5 43.5,151.5C 43.5,146.167 43.5,140.833 43.5,135.5C 42.1266,135.657 40.7932,135.49 39.5,135C 42.146,134.503 44.8127,134.336 47.5,134.5C 47.5,133.5 47.5,132.5 47.5,131.5C 44.8333,131.5 42.1667,131.5 39.5,131.5C 39.5,130.167 39.5,128.833 39.5,127.5C 38.1667,127.5 36.8333,127.5 35.5,127.5C 35.5,124.833 35.5,122.167 35.5,119.5C 36.8333,119.5 38.1667,119.5 39.5,119.5C 39.5,118.167 39.5,116.833 39.5,115.5C 35.414,116.154 32.0807,114.988 29.5,112C 32.5,111.667 35.5,111.333 38.5,111C 33.2141,108.349 33.3808,105.849 39,103.5C 39.49,102.207 39.6567,100.873 39.5,99.5C 37.8333,99.5 36.1667,99.5 34.5,99.5C 34.5,98.1667 34.5,96.8333 34.5,95.5C 33.1667,95.5 31.8333,95.5 30.5,95.5C 30.5,90.1667 30.5,84.8333 30.5,79.5C 29.5,79.5 28.5,79.5 27.5,79.5C 27.5,76.8333 27.5,74.1667 27.5,71.5C 26.448,71.6495 25.448,71.4828 24.5,71C 26.6641,70.0857 28.6641,68.919 30.5,67.5C 28.6641,66.081 26.6641,64.9143 24.5,64C 25.4061,62.3005 25.7394,60.4672 25.5,58.5C 27.3904,58.2965 28.8904,58.9632 30,60.5C 33.2691,56.3695 32.4357,53.3695 27.5,51.5C 27.5,47.5 27.5,43.5 27.5,39.5C 26.1667,39.5 24.8333,39.5 23.5,39.5C 23.9196,28.6374 23.9196,17.8041 23.5,7C 23.668,4.33513 24.3347,1.83513 25.5,-0.5 Z"/></g>
<g><path style="opacity:1" fill="#fbeff6" d="M 60.5,-0.5 C 75.1667,-0.5 89.8333,-0.5 104.5,-0.5C 103.046,2.39986 104.046,3.73319 107.5,3.5C 107.344,7.13512 106.178,7.46846 104,4.5C 103.376,6.46446 103.876,8.13113 105.5,9.5C 104.407,11.3492 103.074,13.0158 101.5,14.5C 102.326,15.451 102.492,16.451 102,17.5C 100.391,18.1466 98.8905,18.98 97.5,20C 99.0016,20.5831 100.335,21.4164 101.5,22.5C 100.975,23.1924 100.308,23.6924 99.5,24C 101.513,25.7736 103.513,25.6069 105.5,23.5C 107.666,23.4296 107.999,24.0962 106.5,25.5C 108.167,26.1667 109.833,26.8333 111.5,27.5C 111.023,28.4776 110.357,29.3109 109.5,30C 109.833,30.3333 110.167,30.6667 110.5,31C 108.19,31.4966 105.857,31.6633 103.5,31.5C 105.224,33.9138 106.558,36.5804 107.5,39.5C 104.167,39.5 100.833,39.5 97.5,39.5C 97.3359,42.1873 97.5026,44.854 98,47.5C 98.3763,44.9899 99.2096,42.6565 100.5,40.5C 101.5,41.8333 102.5,43.1667 103.5,44.5C 105.274,45.1867 106.941,46.0201 108.5,47C 98.1817,48.9697 98.1817,50.6364 108.5,52C 109.641,52.7412 109.641,53.5745 108.5,54.5C 109.313,55.8139 110.313,56.9805 111.5,58C 109.345,59.3569 107.178,59.5236 105,58.5C 102.88,59.1402 101.046,60.1402 99.5,61.5C 100.635,63.2132 102.302,63.8799 104.5,63.5C 104.833,63.5 105.167,63.5 105.5,63.5C 103.365,65.369 100.698,66.0356 97.5,65.5C 96.5269,67.9479 96.1936,70.6146 96.5,73.5C 95.5,73.5 94.5,73.5 93.5,73.5C 93.6463,71.0576 92.813,70.3909 91,71.5C 88.9344,68.9317 86.6011,67.5984 84,67.5C 83.3162,66.2161 83.4829,65.0495 84.5,64C 82.8659,63.5065 81.1992,63.3398 79.5,63.5C 76.386,58.0646 72.386,53.2313 67.5,49C 66.2068,48.51 64.8734,48.3433 63.5,48.5C 59.8704,44.369 56.037,40.369 52,36.5C 51.3333,37.1667 51.3333,37.8333 52,38.5C 54.4003,40.7293 56.567,43.0626 58.5,45.5C 57.1667,45.5 55.8333,45.5 54.5,45.5C 54.6495,44.448 54.4828,43.448 54,42.5C 50.1158,40.8537 48.2825,38.1871 48.5,34.5C 49.868,33.4063 51.0347,33.7397 52,35.5C 52.5,34.3333 53.3333,33.5 54.5,33C 53.8333,32.6667 53.1667,32.3333 52.5,32C 54.1661,29.5203 54.9994,26.687 55,23.5C 56.6995,24.4061 58.5328,24.7394 60.5,24.5C 60.9864,21.2447 59.9864,18.578 57.5,16.5C 59.396,15.5344 61.396,15.2011 63.5,15.5C 63.2148,17.288 63.5481,18.9547 64.5,20.5C 65.6261,18.2069 66.9594,16.0403 68.5,14C 66.714,13.2155 65.214,12.0488 64,10.5C 63,11.8333 62,11.8333 61,10.5C 60.5014,6.84841 60.3347,3.18174 60.5,-0.5 Z"/></g>
<g><path style="opacity:1" fill="#fce9f2" d="M 104.5,-0.5 C 120.167,-0.5 135.833,-0.5 151.5,-0.5C 151.063,1.07442 150.063,2.24109 148.5,3C 149.167,4 149.833,5 150.5,6C 149.09,6.36775 148.09,7.20108 147.5,8.5C 149.935,13.262 151.435,13.262 152,8.5C 153.523,10.5692 154.357,12.9026 154.5,15.5C 151.41,15.9065 148.41,16.4065 145.5,17C 147.059,17.9799 148.726,18.8133 150.5,19.5C 148.148,21.5847 145.482,23.0847 142.5,24C 143.158,25.9045 144.325,27.4045 146,28.5C 146.711,26.6332 146.211,25.1332 144.5,24C 146.674,23.8191 148.507,24.6524 150,26.5C 150.483,27.448 150.649,28.448 150.5,29.5C 149.022,29.238 147.689,29.5713 146.5,30.5C 149.043,32.7782 149.709,35.4448 148.5,38.5C 146.124,39.8166 144.457,39.1499 143.5,36.5C 146.443,33.8196 146.11,33.153 142.5,34.5C 142.167,35.3333 141.833,36.1667 141.5,37C 142.378,38.8001 143.045,40.6334 143.5,42.5C 150.565,41.587 151.232,43.087 145.5,47C 148.133,46.7468 150.8,46.7468 153.5,47C 152.782,49.4607 152.115,51.9607 151.5,54.5C 153.044,55.6224 154.377,55.289 155.5,53.5C 156.946,54.1709 157.612,55.3376 157.5,57C 156.76,59.2438 155.426,61.0771 153.5,62.5C 149.944,64.5561 146.611,66.2227 143.5,67.5C 144.667,67.8333 145.833,68.1667 147,68.5C 151.483,67.5877 155.983,66.7544 160.5,66C 161.066,65.0053 161.733,64.172 162.5,63.5C 162.5,65.1667 162.5,66.8333 162.5,68.5C 162.5,70.1667 162.5,71.8333 162.5,73.5C 150.518,71.363 138.518,71.363 126.5,73.5C 124.709,71.9792 123.376,70.1458 122.5,68C 121.207,67.51 119.873,67.3433 118.5,67.5C 116.004,66.4196 113.67,65.0862 111.5,63.5C 107.971,61.5772 103.971,60.9106 99.5,61.5C 101.046,60.1402 102.88,59.1402 105,58.5C 107.178,59.5236 109.345,59.3569 111.5,58C 110.313,56.9805 109.313,55.8139 108.5,54.5C 109.641,53.5745 109.641,52.7412 108.5,52C 98.1817,50.6364 98.1817,48.9697 108.5,47C 106.941,46.0201 105.274,45.1867 103.5,44.5C 102.5,43.1667 101.5,41.8333 100.5,40.5C 99.2096,42.6565 98.3763,44.9899 98,47.5C 97.5026,44.854 97.3359,42.1873 97.5,39.5C 100.833,39.5 104.167,39.5 107.5,39.5C 106.558,36.5804 105.224,33.9138 103.5,31.5C 105.857,31.6633 108.19,31.4966 110.5,31C 110.167,30.6667 109.833,30.3333 109.5,30C 110.357,29.3109 111.023,28.4776 111.5,27.5C 109.833,26.8333 108.167,26.1667 106.5,25.5C 107.999,24.0962 107.666,23.4296 105.5,23.5C 103.513,25.6069 101.513,25.7736 99.5,24C 100.308,23.6924 100.975,23.1924 101.5,22.5C 100.335,21.4164 99.0016,20.5831 97.5,20C 98.8905,18.98 100.391,18.1466 102,17.5C 102.492,16.451 102.326,15.451 101.5,14.5C 103.074,13.0158 104.407,11.3492 105.5,9.5C 103.876,8.13113 103.376,6.46446 104,4.5C 106.178,7.46846 107.344,7.13512 107.5,3.5C 104.046,3.73319 103.046,2.39986 104.5,-0.5 Z"/></g>
<g><path style="opacity:1" fill="#fce4ee" d="M 151.5,-0.5 C 160.833,-0.5 170.167,-0.5 179.5,-0.5C 179.5,2.16667 179.5,4.83333 179.5,7.5C 182.548,7.49403 183.048,8.49403 181,10.5C 180,9.16667 179,9.16667 178,10.5C 174.938,7.21727 171.605,7.21727 168,10.5C 166.274,9.42378 164.441,9.25711 162.5,10C 165.525,10.1545 167.191,11.6545 167.5,14.5C 169.199,14.6602 170.866,14.4935 172.5,14C 170.441,12.8145 170.274,11.6479 172,10.5C 173.882,11.0933 174.882,12.4267 175,14.5C 176.087,12.0684 176.587,12.4017 176.5,15.5C 173.813,15.3359 171.146,15.5026 168.5,16C 170.833,16.3333 173.167,16.6667 175.5,17C 174.552,17.4828 173.552,17.6495 172.5,17.5C 172.5,18.5 172.5,19.5 172.5,20.5C 170.897,20.3118 169.563,20.8118 168.5,22C 170.833,22.3333 173.167,22.6667 175.5,23C 173.431,23.3242 173.098,24.1575 174.5,25.5C 172.865,26.6808 171.198,26.6808 169.5,25.5C 167.729,26.0354 167.396,26.8687 168.5,28C 173.631,28.4655 178.631,29.4655 183.5,31C 182.5,31.3333 181.5,31.6667 180.5,32C 179.237,34.3858 177.403,36.2192 175,37.5C 171.582,34.7671 171.749,33.4338 175.5,33.5C 172.088,30.6308 169.421,31.2975 167.5,35.5C 168.391,36.5896 169.391,36.5896 170.5,35.5C 172.234,38.6077 174.9,40.2744 178.5,40.5C 182.094,47.7661 181.427,48.0994 176.5,41.5C 175.585,42.3279 174.919,43.3279 174.5,44.5C 175.891,44.1086 176.891,44.9419 177.5,47C 177.043,47.414 176.709,47.914 176.5,48.5C 177.729,49.2811 179.062,49.7811 180.5,50C 178.74,50.9653 178.406,52.132 179.5,53.5C 181.574,51.1723 182.574,51.8389 182.5,55.5C 184.5,55.5 186.5,55.5 188.5,55.5C 189.707,58.9458 189.54,62.2791 188,65.5C 185.978,64.0091 184.312,64.3424 183,66.5C 182.517,65.552 182.351,64.552 182.5,63.5C 184.167,63.5 185.833,63.5 187.5,63.5C 187.702,61.0108 187.202,58.6775 186,56.5C 185.319,59.3882 183.819,60.0548 181.5,58.5C 178.083,59.2214 177.75,60.888 180.5,63.5C 179.242,65.6484 179.242,67.8151 180.5,70C 179.55,73.3818 178.05,73.8818 176,71.5C 174,72.8333 172,72.8333 170,71.5C 169.316,70.2161 169.483,69.0495 170.5,68C 168.963,66.8904 168.297,65.3904 168.5,63.5C 166.5,63.5 164.5,63.5 162.5,63.5C 161.733,64.172 161.066,65.0053 160.5,66C 155.983,66.7544 151.483,67.5877 147,68.5C 145.833,68.1667 144.667,67.8333 143.5,67.5C 146.611,66.2227 149.944,64.5561 153.5,62.5C 155.426,61.0771 156.76,59.2438 157.5,57C 157.612,55.3376 156.946,54.1709 155.5,53.5C 154.377,55.289 153.044,55.6224 151.5,54.5C 152.115,51.9607 152.782,49.4607 153.5,47C 150.8,46.7468 148.133,46.7468 145.5,47C 151.232,43.087 150.565,41.587 143.5,42.5C 143.045,40.6334 142.378,38.8001 141.5,37C 141.833,36.1667 142.167,35.3333 142.5,34.5C 146.11,33.153 146.443,33.8196 143.5,36.5C 144.457,39.1499 146.124,39.8166 148.5,38.5C 149.709,35.4448 149.043,32.7782 146.5,30.5C 147.689,29.5713 149.022,29.238 150.5,29.5C 150.649,28.448 150.483,27.448 150,26.5C 148.507,24.6524 146.674,23.8191 144.5,24C 146.211,25.1332 146.711,26.6332 146,28.5C 144.325,27.4045 143.158,25.9045 142.5,24C 145.482,23.0847 148.148,21.5847 150.5,19.5C 148.726,18.8133 147.059,17.9799 145.5,17C 148.41,16.4065 151.41,15.9065 154.5,15.5C 154.357,12.9026 153.523,10.5692 152,8.5C 151.435,13.262 149.935,13.262 147.5,8.5C 148.09,7.20108 149.09,6.36775 150.5,6C 149.833,5 149.167,4 148.5,3C 150.063,2.24109 151.063,1.07442 151.5,-0.5 Z"/></g>
<g><path style="opacity:1" fill="#ae7f98" d="M 63.5,48.5 C 63.5,48.8333 63.5,49.1667 63.5,49.5C 63.5,49.8333 63.5,50.1667 63.5,50.5C 61.8333,49.1667 60.1667,47.8333 58.5,46.5C 58.5,46.1667 58.5,45.8333 58.5,45.5C 56.567,43.0626 54.4003,40.7293 52,38.5C 51.3333,37.8333 51.3333,37.1667 52,36.5C 56.037,40.369 59.8704,44.369 63.5,48.5 Z"/></g>
<g><path style="opacity:1" fill="#fad6f0" d="M 63.5,49.5 C 63.5,49.1667 63.5,48.8333 63.5,48.5C 64.8734,48.3433 66.2068,48.51 67.5,49C 72.386,53.2313 76.386,58.0646 79.5,63.5C 73.8902,59.2285 68.5569,54.5618 63.5,49.5 Z"/></g>
<g><path style="opacity:1" fill="#fbdbea" d="M 203.5,-0.5 C 218.833,-0.5 234.167,-0.5 249.5,-0.5C 249.5,30.8333 249.5,62.1667 249.5,93.5C 246.635,92.8088 244.468,91.1421 243,88.5C 241.482,88.0574 240.315,88.7241 239.5,90.5C 238.494,90.0623 238.494,89.3957 239.5,88.5C 238.609,87.4104 237.609,87.4104 236.5,88.5C 236.167,87.8333 235.833,87.1667 235.5,86.5C 234.355,87.7757 234.355,89.109 235.5,90.5C 234.675,91.3857 233.675,91.719 232.5,91.5C 232.579,90.0695 232.246,88.7362 231.5,87.5C 229.833,86.5 228.5,85.1667 227.5,83.5C 226.41,84.3914 226.41,85.3914 227.5,86.5C 226.975,87.1924 226.308,87.6924 225.5,88C 226.517,89.0495 226.684,90.2161 226,91.5C 224.027,89.7721 222.194,87.9387 220.5,86C 221.996,85.4926 223.163,85.9926 224,87.5C 224.167,87 224.333,86.5 224.5,86C 222.811,84.1371 221.478,81.9704 220.5,79.5C 219.833,80.8333 219.167,82.1667 218.5,83.5C 217.453,82.0777 217.453,80.5777 218.5,79C 218.05,77.7147 217.383,76.548 216.5,75.5C 217.5,74.8333 218.5,74.1667 219.5,73.5C 217.556,72.4619 216.056,71.1286 215,69.5C 214.675,67.4473 215.009,65.4473 216,63.5C 219.932,62.4856 223.598,63.1523 227,65.5C 228.701,63.976 228.201,62.976 225.5,62.5C 222.582,59.7693 222.915,57.6026 226.5,56C 222.538,53.7752 222.538,51.4418 226.5,49C 225.234,48.6905 224.067,48.1905 223,47.5C 223.195,45.8739 223.195,44.2072 223,42.5C 222.311,43.3567 221.478,44.0233 220.5,44.5C 220.446,43.3131 220.113,41.9798 219.5,40.5C 217.262,43.4327 216.262,43.0993 216.5,39.5C 217.552,39.6495 218.552,39.4828 219.5,39C 217.888,38.2797 216.388,38.4464 215,39.5C 214.517,38.552 214.351,37.552 214.5,36.5C 215.552,36.6495 216.552,36.4828 217.5,36C 215.242,34.6087 213.242,32.942 211.5,31C 213.221,30.2607 214.887,29.4274 216.5,28.5C 214.275,26.4378 213.942,24.1045 215.5,21.5C 213.588,21.5123 211.588,21.179 209.5,20.5C 208.579,14.5216 207.912,8.52159 207.5,2.5C 205.381,2.53235 204.048,1.53235 203.5,-0.5 Z"/></g>
<g><path style="opacity:1" fill="#b24279" d="M 63.5,49.5 C 68.5569,54.5618 73.8902,59.2285 79.5,63.5C 79.5569,64.609 79.8902,65.609 80.5,66.5C 79.6618,66.8417 79.3284,67.5084 79.5,68.5C 73.8241,62.823 68.4908,56.823 63.5,50.5C 63.5,50.1667 63.5,49.8333 63.5,49.5 Z"/></g>
<g><path style="opacity:1" fill="#e3b3ce" d="M 99.5,61.5 C 103.971,60.9106 107.971,61.5772 111.5,63.5C 108.995,62.5829 106.662,62.5829 104.5,63.5C 102.302,63.8799 100.635,63.2132 99.5,61.5 Z"/></g>
<g><path style="opacity:1" fill="#fccaed" d="M 105.5,63.5 C 111.706,66.0441 116.706,70.0441 120.5,75.5C 117.492,73.5521 114.659,71.2187 112,68.5C 111.009,69.4296 110.509,70.5962 110.5,72C 111.159,74.4621 111.493,76.9621 111.5,79.5C 110.5,76.8333 109.5,74.1667 108.5,71.5C 106.346,67.7557 103.012,66.089 98.5,66.5C 98.5,69.1667 98.5,71.8333 98.5,74.5C 97.5233,71.7131 97.19,68.7131 97.5,65.5C 100.698,66.0356 103.365,65.369 105.5,63.5 Z"/></g>
<g><path style="opacity:1" fill="#fce2f7" d="M 79.5,63.5 C 81.1992,63.3398 82.8659,63.5065 84.5,64C 83.4829,65.0495 83.3162,66.2161 84,67.5C 86.6011,67.5984 88.9344,68.9317 91,71.5C 92.813,70.3909 93.6463,71.0576 93.5,73.5C 94.5,73.5 95.5,73.5 96.5,73.5C 96.1936,70.6146 96.5269,67.9479 97.5,65.5C 97.19,68.7131 97.5233,71.7131 98.5,74.5C 99.1667,76.8333 99.8333,79.1667 100.5,81.5C 100.737,82.791 100.404,83.791 99.5,84.5C 93.1667,78.5 86.8333,72.5 80.5,66.5C 79.8902,65.609 79.5569,64.609 79.5,63.5 Z"/></g>
<g><path style="opacity:1" fill="#d1327b" d="M 108.5,71.5 C 105.807,70.4485 103.14,69.4485 100.5,68.5C 100.374,78.2587 104.374,85.592 112.5,90.5C 113.386,89.675 113.719,88.675 113.5,87.5C 115.727,88.4006 116.727,90.0672 116.5,92.5C 116.167,92.5 115.833,92.5 115.5,92.5C 112.575,92.5402 109.909,91.7068 107.5,90C 105.267,87.0042 102.934,84.1708 100.5,81.5C 99.8333,79.1667 99.1667,76.8333 98.5,74.5C 98.5,71.8333 98.5,69.1667 98.5,66.5C 103.012,66.089 106.346,67.7557 108.5,71.5 Z"/></g>
<g><path style="opacity:1" fill="#fbdbf3" d="M 118.5,67.5 C 119.873,67.3433 121.207,67.51 122.5,68C 123.376,70.1458 124.709,71.9792 126.5,73.5C 138.518,71.363 150.518,71.363 162.5,73.5C 159.986,74.3256 157.319,74.4922 154.5,74C 155.91,75.3717 157.577,76.205 159.5,76.5C 159.5,77.1667 159.833,77.5 160.5,77.5C 160.631,78.2389 160.464,78.9056 160,79.5C 158.644,78.6198 157.144,78.2865 155.5,78.5C 145.505,75.0999 135.172,73.5999 124.5,74C 122.294,71.9633 120.294,69.7966 118.5,67.5 Z"/></g>
<g><path style="opacity:1" fill="#f9e4f5" d="M 58.5,46.5 C 60.1667,47.8333 61.8333,49.1667 63.5,50.5C 68.4908,56.823 73.8241,62.823 79.5,68.5C 80.241,70.3542 81.241,72.0209 82.5,73.5C 83.4194,76.0892 85.086,78.0892 87.5,79.5C 87.3433,80.8734 87.51,82.2068 88,83.5C 88.6667,82.1667 89.3333,82.1667 90,83.5C 92.2914,86.8324 94.1248,90.499 95.5,94.5C 93.604,95.4656 91.604,95.7989 89.5,95.5C 86.2607,91.2396 82.9274,86.9063 79.5,82.5C 77.2065,77.9399 74.3732,73.6066 71,69.5C 71.0322,71.5979 71.6989,73.5979 73,75.5C 75.0869,78.0703 76.9202,80.737 78.5,83.5C 80.0672,86.9667 81.9005,90.3001 84,93.5C 84.6667,95.5 84.6667,97.5 84,99.5C 83.6174,100.056 83.1174,100.389 82.5,100.5C 82.0796,93.4261 79.2463,87.4261 74,82.5C 72.1385,76.252 68.8052,70.9187 64,66.5C 63.2506,65.365 63.4173,64.365 64.5,63.5C 66.2303,62.9744 67.5637,61.9744 68.5,60.5C 67.2178,57.8674 65.8844,57.8674 64.5,60.5C 63.4528,59.0777 63.4528,57.5777 64.5,56C 63.303,54.4801 61.803,53.3134 60,52.5C 59.5503,50.481 58.717,48.6477 57.5,47C 57.7284,46.6012 58.0618,46.4346 58.5,46.5 Z"/></g>
<g><path style="opacity:1" fill="#cf3c82" d="M 104.5,63.5 C 106.662,62.5829 108.995,62.5829 111.5,63.5C 113.67,65.0862 116.004,66.4196 118.5,67.5C 120.294,69.7966 122.294,71.9633 124.5,74C 135.172,73.5999 145.505,75.0999 155.5,78.5C 157.519,79.9334 159.686,81.2668 162,82.5C 162.588,87.5276 162.422,92.5276 161.5,97.5C 159.052,98.4731 156.385,98.8064 153.5,98.5C 149.84,98.8412 146.507,98.1745 143.5,96.5C 148.985,97.6364 154.319,97.6364 159.5,96.5C 159.586,92.1434 159.92,87.81 160.5,83.5C 159.448,83.6495 158.448,83.4828 157.5,83C 151.06,77.5697 143.56,75.4031 135,76.5C 131.5,76.6667 128,76.8333 124.5,77C 126.16,78.4877 127.16,80.321 127.5,82.5C 125.527,79.8605 123.194,77.5272 120.5,75.5C 116.706,70.0441 111.706,66.0441 105.5,63.5C 105.167,63.5 104.833,63.5 104.5,63.5 Z"/></g>
<g><path style="opacity:1" fill="#fcb8e4" d="M 82.5,73.5 C 84.914,74.9108 86.5806,76.9108 87.5,79.5C 85.086,78.0892 83.4194,76.0892 82.5,73.5 Z"/></g>
<g><path style="opacity:1" fill="#ce85ad" d="M 162.5,68.5 C 162.833,68.5 163.167,68.5 163.5,68.5C 163.5,70.8333 163.5,73.1667 163.5,75.5C 161.901,75.2322 160.568,75.5655 159.5,76.5C 157.577,76.205 155.91,75.3717 154.5,74C 157.319,74.4922 159.986,74.3256 162.5,73.5C 162.5,71.8333 162.5,70.1667 162.5,68.5 Z"/></g>
<g><path style="opacity:1" fill="#fcdfeb" d="M 179.5,-0.5 C 187.5,-0.5 195.5,-0.5 203.5,-0.5C 204.048,1.53235 205.381,2.53235 207.5,2.5C 207.912,8.52159 208.579,14.5216 209.5,20.5C 211.588,21.179 213.588,21.5123 215.5,21.5C 213.942,24.1045 214.275,26.4378 216.5,28.5C 214.887,29.4274 213.221,30.2607 211.5,31C 213.242,32.942 215.242,34.6087 217.5,36C 216.552,36.4828 215.552,36.6495 214.5,36.5C 214.351,37.552 214.517,38.552 215,39.5C 216.388,38.4464 217.888,38.2797 219.5,39C 218.552,39.4828 217.552,39.6495 216.5,39.5C 216.262,43.0993 217.262,43.4327 219.5,40.5C 220.113,41.9798 220.446,43.3131 220.5,44.5C 221.478,44.0233 222.311,43.3567 223,42.5C 223.195,44.2072 223.195,45.8739 223,47.5C 224.067,48.1905 225.234,48.6905 226.5,49C 222.538,51.4418 222.538,53.7752 226.5,56C 222.915,57.6026 222.582,59.7693 225.5,62.5C 228.201,62.976 228.701,63.976 227,65.5C 223.598,63.1523 219.932,62.4856 216,63.5C 215.009,65.4473 214.675,67.4473 215,69.5C 216.056,71.1286 217.556,72.4619 219.5,73.5C 218.5,74.1667 217.5,74.8333 216.5,75.5C 217.383,76.548 218.05,77.7147 218.5,79C 217.453,80.5777 217.453,82.0777 218.5,83.5C 219.167,82.1667 219.833,80.8333 220.5,79.5C 221.478,81.9704 222.811,84.1371 224.5,86C 224.333,86.5 224.167,87 224,87.5C 223.163,85.9926 221.996,85.4926 220.5,86C 222.194,87.9387 224.027,89.7721 226,91.5C 226.684,90.2161 226.517,89.0495 225.5,88C 226.308,87.6924 226.975,87.1924 227.5,86.5C 226.41,85.3914 226.41,84.3914 227.5,83.5C 228.5,85.1667 229.833,86.5 231.5,87.5C 232.246,88.7362 232.579,90.0695 232.5,91.5C 233.675,91.719 234.675,91.3857 235.5,90.5C 234.355,89.109 234.355,87.7757 235.5,86.5C 235.833,87.1667 236.167,87.8333 236.5,88.5C 237.609,87.4104 238.609,87.4104 239.5,88.5C 238.494,89.3957 238.494,90.0623 239.5,90.5C 240.315,88.7241 241.482,88.0574 243,88.5C 244.468,91.1421 246.635,92.8088 249.5,93.5C 249.5,128.833 249.5,164.167 249.5,199.5C 242.231,201.538 241.564,200.038 247.5,195C 245.706,193.319 245.206,191.486 246,189.5C 245.667,189.167 245.333,188.833 245,188.5C 244.751,189.624 244.251,190.624 243.5,191.5C 241.38,190.597 241.046,189.263 242.5,187.5C 239.942,185.283 236.942,184.117 233.5,184C 233.833,183.667 234.167,183.333 234.5,183C 231.371,182.883 230.205,181.383 231,178.5C 231.333,179.167 231.667,179.833 232,180.5C 232.376,177.99 233.21,175.657 234.5,173.5C 236.703,173.587 238.87,173.587 241,173.5C 243,172.167 243,170.833 241,169.5C 240.586,169.957 240.086,170.291 239.5,170.5C 238.719,169.263 237.719,168.263 236.5,167.5C 235.813,169.274 234.98,170.941 234,172.5C 233.586,172.043 233.086,171.709 232.5,171.5C 230.099,172.687 227.765,174.021 225.5,175.5C 223.542,170.524 220.875,170.191 217.5,174.5C 216.344,173.424 216.511,172.424 218,171.5C 218.667,169.5 218.667,167.5 218,165.5C 216.139,168.569 214.306,171.569 212.5,174.5C 211.813,172.445 210.646,170.779 209,169.5C 209.709,166.981 211.043,166.981 213,169.5C 214.688,168.675 214.855,167.675 213.5,166.5C 213.846,165.304 214.346,165.304 215,166.5C 216.318,163.594 216.652,160.594 216,157.5C 213.443,158.646 212.11,157.646 212,154.5C 210.095,153.842 208.595,152.675 207.5,151C 208.996,150.493 210.163,150.993 211,152.5C 212.714,151.075 214.047,151.408 215,153.5C 217.045,148.968 215.878,145.468 211.5,143C 213.784,141.637 213.951,140.137 212,138.5C 211.311,139.357 210.478,140.023 209.5,140.5C 207.363,139.132 205.03,138.132 202.5,137.5C 204.345,135.929 206.345,135.095 208.5,135C 208.318,132.347 207.985,129.68 207.5,127C 211.121,127.405 214.787,127.405 218.5,127C 217.975,126.308 217.308,125.808 216.5,125.5C 212.843,127.438 210.843,126.438 210.5,122.5C 209.178,122.33 208.011,122.663 207,123.5C 206.462,121.527 207.296,120.527 209.5,120.5C 211.441,120.804 213.107,121.637 214.5,123C 213.833,123.333 213.167,123.667 212.5,124C 214.473,124.495 216.473,124.662 218.5,124.5C 218.5,123.167 218.5,121.833 218.5,120.5C 222.836,119.952 223.836,121.119 221.5,124C 222.009,125.169 222.842,126.002 224,126.5C 224.545,123.962 225.212,121.629 226,119.5C 224.667,118.833 223.667,117.833 223,116.5C 219.902,118.145 216.735,119.312 213.5,120C 213.043,119.586 212.709,119.086 212.5,118.5C 215.03,117.868 217.363,116.868 219.5,115.5C 217.468,112.817 214.801,111.151 211.5,110.5C 211.887,109.28 212.72,108.613 214,108.5C 216.291,109.877 218.458,111.043 220.5,112C 219.695,110.028 218.361,108.528 216.5,107.5C 218.167,106.833 219.833,106.167 221.5,105.5C 220.318,103.533 220.985,102.2 223.5,101.5C 221.017,97.8863 218.35,97.8863 215.5,101.5C 216.376,102.251 217.376,102.751 218.5,103C 215.408,104.683 212.408,106.516 209.5,108.5C 208.279,112.339 207.612,112.339 207.5,108.5C 206.5,108.5 205.5,108.5 204.5,108.5C 204.561,106.408 205.561,104.908 207.5,104C 206.833,102 206.167,100 205.5,98C 205.167,97.8333 204.833,97.6667 204.5,97.5C 203.24,99.3529 203.24,101.186 204.5,103C 202.975,104.009 201.308,104.509 199.5,104.5C 200.656,100.714 200.656,97.8803 199.5,96C 196.806,92.9639 193.973,92.7973 191,95.5C 190.175,97.7008 190.675,99.5341 192.5,101C 191.833,101.667 191.167,102.333 190.5,103C 187.839,102.592 185.173,101.759 182.5,100.5C 180.24,98.5929 180.073,96.5929 182,94.5C 183.044,95.6226 183.71,96.9559 184,98.5C 187.124,97.0132 187.124,95.3466 184,93.5C 182.776,88.6892 180.943,84.1892 178.5,80C 177.552,79.5172 176.552,79.3505 175.5,79.5C 175.5,78.5 175.5,77.5 175.5,76.5C 173.325,76.3178 171.325,75.6511 169.5,74.5C 168.833,74.8333 168.167,75.1667 167.5,75.5C 169.038,77.2433 170.038,79.2433 170.5,81.5C 170.167,81.5 169.833,81.5 169.5,81.5C 166.647,77.4668 164.647,73.1335 163.5,68.5C 163.167,68.5 162.833,68.5 162.5,68.5C 162.5,66.8333 162.5,65.1667 162.5,63.5C 164.5,63.5 166.5,63.5 168.5,63.5C 168.297,65.3904 168.963,66.8904 170.5,68C 169.483,69.0495 169.316,70.2161 170,71.5C 172,72.8333 174,72.8333 176,71.5C 178.05,73.8818 179.55,73.3818 180.5,70C 179.242,67.8151 179.242,65.6484 180.5,63.5C 177.75,60.888 178.083,59.2214 181.5,58.5C 183.819,60.0548 185.319,59.3882 186,56.5C 187.202,58.6775 187.702,61.0108 187.5,63.5C 185.833,63.5 184.167,63.5 182.5,63.5C 182.351,64.552 182.517,65.552 183,66.5C 184.312,64.3424 185.978,64.0091 188,65.5C 189.54,62.2791 189.707,58.9458 188.5,55.5C 186.5,55.5 184.5,55.5 182.5,55.5C 182.574,51.8389 181.574,51.1723 179.5,53.5C 178.406,52.132 178.74,50.9653 180.5,50C 179.062,49.7811 177.729,49.2811 176.5,48.5C 176.709,47.914 177.043,47.414 177.5,47C 176.891,44.9419 175.891,44.1086 174.5,44.5C 174.919,43.3279 175.585,42.3279 176.5,41.5C 181.427,48.0994 182.094,47.7661 178.5,40.5C 174.9,40.2744 172.234,38.6077 170.5,35.5C 169.391,36.5896 168.391,36.5896 167.5,35.5C 169.421,31.2975 172.088,30.6308 175.5,33.5C 171.749,33.4338 171.582,34.7671 175,37.5C 177.403,36.2192 179.237,34.3858 180.5,32C 181.5,31.6667 182.5,31.3333 183.5,31C 178.631,29.4655 173.631,28.4655 168.5,28C 167.396,26.8687 167.729,26.0354 169.5,25.5C 171.198,26.6808 172.865,26.6808 174.5,25.5C 173.098,24.1575 173.431,23.3242 175.5,23C 173.167,22.6667 170.833,22.3333 168.5,22C 169.563,20.8118 170.897,20.3118 172.5,20.5C 172.5,19.5 172.5,18.5 172.5,17.5C 173.552,17.6495 174.552,17.4828 175.5,17C 173.167,16.6667 170.833,16.3333 168.5,16C 171.146,15.5026 173.813,15.3359 176.5,15.5C 176.587,12.4017 176.087,12.0684 175,14.5C 174.882,12.4267 173.882,11.0933 172,10.5C 170.274,11.6479 170.441,12.8145 172.5,14C 170.866,14.4935 169.199,14.6602 167.5,14.5C 167.191,11.6545 165.525,10.1545 162.5,10C 164.441,9.25711 166.274,9.42378 168,10.5C 171.605,7.21727 174.938,7.21727 178,10.5C 179,9.16667 180,9.16667 181,10.5C 183.048,8.49403 182.548,7.49403 179.5,7.5C 179.5,4.83333 179.5,2.16667 179.5,-0.5 Z"/></g>
<g><path style="opacity:1" fill="#af688e" d="M 79.5,82.5 C 78.8333,82.5 78.5,82.8333 78.5,83.5C 76.9202,80.737 75.0869,78.0703 73,75.5C 71.6989,73.5979 71.0322,71.5979 71,69.5C 74.3732,73.6066 77.2065,77.9399 79.5,82.5 Z"/></g>
<g><path style="opacity:1" fill="#f90379" d="M 159.5,96.5 C 155.103,96.5754 150.77,96.0754 146.5,95C 139.718,93.7716 134.385,90.2716 130.5,84.5C 129.675,83.6143 128.675,83.281 127.5,83.5C 127.5,83.1667 127.5,82.8333 127.5,82.5C 127.16,80.321 126.16,78.4877 124.5,77C 128,76.8333 131.5,76.6667 135,76.5C 143.56,75.4031 151.06,77.5697 157.5,83C 158.448,83.4828 159.448,83.6495 160.5,83.5C 159.92,87.81 159.586,92.1434 159.5,96.5 Z"/></g>
<g><path style="opacity:1" fill="#f40a7b" d="M 108.5,71.5 C 109.5,74.1667 110.5,76.8333 111.5,79.5C 111.5,80.5 111.5,81.5 111.5,82.5C 111.12,84.698 111.787,86.3646 113.5,87.5C 113.719,88.675 113.386,89.675 112.5,90.5C 104.374,85.592 100.374,78.2587 100.5,68.5C 103.14,69.4485 105.807,70.4485 108.5,71.5 Z"/></g>
<g><path style="opacity:1" fill="#cb357e" d="M 163.5,68.5 C 164.647,73.1335 166.647,77.4668 169.5,81.5C 168.791,82.404 167.791,82.7373 166.5,82.5C 166.649,83.552 166.483,84.552 166,85.5C 164.896,82.2788 163.063,79.6122 160.5,77.5C 159.833,77.5 159.5,77.1667 159.5,76.5C 160.568,75.5655 161.901,75.2322 163.5,75.5C 163.5,73.1667 163.5,70.8333 163.5,68.5 Z"/></g>
<g><path style="opacity:1" fill="#fbd7f3" d="M 87.5,79.5 C 91.1607,82.1647 94.1607,85.498 96.5,89.5C 97.6298,91.3146 98.2964,93.3146 98.5,95.5C 96.772,96.379 94.9386,97.0457 93,97.5C 91.3009,97.6134 90.1342,96.9468 89.5,95.5C 91.604,95.7989 93.604,95.4656 95.5,94.5C 94.1248,90.499 92.2914,86.8324 90,83.5C 89.3333,82.1667 88.6667,82.1667 88,83.5C 87.51,82.2068 87.3433,80.8734 87.5,79.5 Z"/></g>
<g><path style="opacity:1" fill="#d42c79" d="M 80.5,66.5 C 86.8333,72.5 93.1667,78.5 99.5,84.5C 100.776,86.587 102.276,88.587 104,90.5C 104.494,92.1341 104.66,93.8008 104.5,95.5C 103.925,97.4113 102.925,99.078 101.5,100.5C 97.3224,102.128 92.9891,103.295 88.5,104C 86.8866,106.228 86.22,108.728 86.5,111.5C 85.824,115.479 84.824,119.479 83.5,123.5C 83.0113,124.995 82.3446,126.329 81.5,127.5C 83.1328,120.621 84.2995,113.621 85,106.5C 85.956,105.421 86.7894,104.255 87.5,103C 93.4689,102.574 98.4689,100.241 102.5,96C 101.552,95.5172 100.552,95.3505 99.5,95.5C 99.9754,92.6874 98.9754,90.6874 96.5,89.5C 94.1607,85.498 91.1607,82.1647 87.5,79.5C 86.5806,76.9108 84.914,74.9108 82.5,73.5C 81.241,72.0209 80.241,70.3542 79.5,68.5C 79.3284,67.5084 79.6618,66.8417 80.5,66.5 Z"/></g>
<g><path style="opacity:1" fill="#df62a6" d="M 111.5,82.5 C 113.213,83.6354 113.88,85.302 113.5,87.5C 111.787,86.3646 111.12,84.698 111.5,82.5 Z"/></g>
<g><path style="opacity:1" fill="#fae2f1" d="M 120.5,75.5 C 123.194,77.5272 125.527,79.8605 127.5,82.5C 127.5,82.8333 127.5,83.1667 127.5,83.5C 130.547,86.5448 133.213,89.8781 135.5,93.5C 133.983,93.4894 132.816,92.8228 132,91.5C 130.066,93.4188 130.233,94.9188 132.5,96C 130.819,99.4665 129.819,99.2998 129.5,95.5C 127.801,95.6602 126.134,95.4935 124.5,95C 123.76,91.0896 121.427,89.2562 117.5,89.5C 117.737,90.791 117.404,91.791 116.5,92.5C 116.727,90.0672 115.727,88.4006 113.5,87.5C 113.88,85.302 113.213,83.6354 111.5,82.5C 111.5,81.5 111.5,80.5 111.5,79.5C 111.493,76.9621 111.159,74.4621 110.5,72C 110.509,70.5962 111.009,69.4296 112,68.5C 114.659,71.2187 117.492,73.5521 120.5,75.5 Z"/></g>
<g><path style="opacity:1" fill="#f8d8f1" d="M 175.5,87.5 C 174.61,89.7819 174.444,92.1152 175,94.5C 176.011,95.3366 177.178,95.67 178.5,95.5C 178.4,98.667 179.067,101.667 180.5,104.5C 178.326,106.527 177.992,108.86 179.5,111.5C 178.508,111.672 177.842,111.338 177.5,110.5C 177.586,109.504 177.252,108.671 176.5,108C 172.693,106.119 168.693,104.953 164.5,104.5C 163.848,103.275 162.681,102.608 161,102.5C 156.449,101.936 151.949,101.103 147.5,100C 149.473,99.5045 151.473,99.3379 153.5,99.5C 157.5,99.5 161.5,99.5 165.5,99.5C 167.833,100.167 170.167,100.833 172.5,101.5C 174.103,102.596 175.603,103.93 177,105.5C 177.826,102.788 177.326,100.455 175.5,98.5C 174.564,95.3288 172.897,92.6621 170.5,90.5C 170.179,88.9519 169.179,88.2852 167.5,88.5C 167.116,86.3352 167.783,84.6685 169.5,83.5C 171.264,85.2776 173.264,86.6109 175.5,87.5 Z"/></g>
<g><path style="opacity:1" fill="#fcbce6" d="M 100.5,81.5 C 102.934,84.1708 105.267,87.0042 107.5,90C 109.909,91.7068 112.575,92.5402 115.5,92.5C 112.741,93.9675 110.074,93.6342 107.5,91.5C 106.141,92.6243 105.141,93.9577 104.5,95.5C 104.66,93.8008 104.494,92.1341 104,90.5C 102.276,88.587 100.776,86.587 99.5,84.5C 100.404,83.791 100.737,82.791 100.5,81.5 Z"/></g>
<g><path style="opacity:1" fill="#f895d2" d="M 96.5,89.5 C 98.9754,90.6874 99.9754,92.6874 99.5,95.5C 99.1667,95.5 98.8333,95.5 98.5,95.5C 98.2964,93.3146 97.6298,91.3146 96.5,89.5 Z"/></g>
<g><path style="opacity:1" fill="#c53e7f" d="M 79.5,82.5 C 82.9274,86.9063 86.2607,91.2396 89.5,95.5C 90.1342,96.9468 91.3009,97.6134 93,97.5C 94.9386,97.0457 96.772,96.379 98.5,95.5C 98.5,96.5 98.5,97.5 98.5,98.5C 94.8936,98.7892 91.3936,98.4558 88,97.5C 85.9633,99.7059 83.7966,101.706 81.5,103.5C 81.5569,102.391 81.8902,101.391 82.5,100.5C 83.1174,100.389 83.6174,100.056 84,99.5C 84.6667,97.5 84.6667,95.5 84,93.5C 81.9005,90.3001 80.0672,86.9667 78.5,83.5C 78.5,82.8333 78.8333,82.5 79.5,82.5 Z"/></g>
<g><path style="opacity:1" fill="#eeb5de" d="M 160.5,77.5 C 163.063,79.6122 164.896,82.2788 166,85.5C 166.483,84.552 166.649,83.552 166.5,82.5C 167.791,82.7373 168.791,82.404 169.5,81.5C 169.833,81.5 170.167,81.5 170.5,81.5C 172.156,83.4602 173.823,85.4602 175.5,87.5C 173.264,86.6109 171.264,85.2776 169.5,83.5C 167.783,84.6685 167.116,86.3352 167.5,88.5C 169.179,88.2852 170.179,88.9519 170.5,90.5C 168.003,91.1293 166.67,92.796 166.5,95.5C 165.18,96.9418 163.514,97.6085 161.5,97.5C 162.422,92.5276 162.588,87.5276 162,82.5C 159.686,81.2668 157.519,79.9334 155.5,78.5C 157.144,78.2865 158.644,78.6198 160,79.5C 160.464,78.9056 160.631,78.2389 160.5,77.5 Z"/></g>
<g><path style="opacity:1" fill="#da2476" d="M 127.5,83.5 C 128.675,83.281 129.675,83.6143 130.5,84.5C 134.385,90.2716 139.718,93.7716 146.5,95C 150.77,96.0754 155.103,96.5754 159.5,96.5C 154.319,97.6364 148.985,97.6364 143.5,96.5C 140.69,95.8008 138.023,94.8008 135.5,93.5C 133.213,89.8781 130.547,86.5448 127.5,83.5 Z"/></g>
<g><path style="opacity:1" fill="#e57fb4" d="M 166.5,95.5 C 166.167,96.8333 165.833,98.1667 165.5,99.5C 161.5,99.5 157.5,99.5 153.5,99.5C 153.5,99.1667 153.5,98.8333 153.5,98.5C 156.385,98.8064 159.052,98.4731 161.5,97.5C 163.514,97.6085 165.18,96.9418 166.5,95.5 Z"/></g>
<g><path style="opacity:1" fill="#db2e7e" d="M 170.5,90.5 C 172.897,92.6621 174.564,95.3288 175.5,98.5C 175.5,100.5 174.5,101.5 172.5,101.5C 170.167,100.833 167.833,100.167 165.5,99.5C 165.833,98.1667 166.167,96.8333 166.5,95.5C 166.67,92.796 168.003,91.1293 170.5,90.5 Z"/></g>
<g><path style="opacity:1" fill="#fcc7ec" d="M 135.5,93.5 C 138.023,94.8008 140.69,95.8008 143.5,96.5C 146.507,98.1745 149.84,98.8412 153.5,98.5C 153.5,98.8333 153.5,99.1667 153.5,99.5C 151.473,99.3379 149.473,99.5045 147.5,100C 151.949,101.103 156.449,101.936 161,102.5C 162.681,102.608 163.848,103.275 164.5,104.5C 154.743,104.058 145.41,102.058 136.5,98.5C 136.717,103.033 137.717,107.366 139.5,111.5C 137.917,110.064 136.417,108.398 135,106.5C 134.371,102.129 134.537,97.796 135.5,93.5 Z"/></g>
<g><path style="opacity:1" fill="#bf4b82" d="M 175.5,98.5 C 177.326,100.455 177.826,102.788 177,105.5C 175.603,103.93 174.103,102.596 172.5,101.5C 174.5,101.5 175.5,100.5 175.5,98.5 Z"/></g>
<g><path style="opacity:1" fill="#fdc4e9" d="M 101.5,100.5 C 101.426,102.411 100.426,103.578 98.5,104C 95.2072,104.826 91.8738,105.326 88.5,105.5C 88.9746,108.082 88.3079,110.082 86.5,111.5C 86.22,108.728 86.8866,106.228 88.5,104C 92.9891,103.295 97.3224,102.128 101.5,100.5 Z"/></g>
<g><path style="opacity:1" fill="#fcb0dd" d="M 164.5,104.5 C 168.693,104.953 172.693,106.119 176.5,108C 177.252,108.671 177.586,109.504 177.5,110.5C 176.833,110.5 176.167,110.5 175.5,110.5C 172.061,108.277 168.394,106.277 164.5,104.5 Z"/></g>
<g><path style="opacity:1" fill="#d4317d" d="M 164.5,104.5 C 168.394,106.277 172.061,108.277 175.5,110.5C 165.97,107.11 156.136,104.777 146,103.5C 144.893,103.585 143.893,103.919 143,104.5C 141.981,103.313 140.814,102.313 139.5,101.5C 139.167,102 138.833,102.5 138.5,103C 139.832,107.146 141.499,110.979 143.5,114.5C 142.764,112.771 141.43,111.771 139.5,111.5C 137.717,107.366 136.717,103.033 136.5,98.5C 145.41,102.058 154.743,104.058 164.5,104.5 Z"/></g>
<g><path style="opacity:1" fill="#f80779" d="M 175.5,110.5 C 176.167,110.5 176.833,110.5 177.5,110.5C 177.842,111.338 178.508,111.672 179.5,111.5C 180.861,113.85 182.194,116.184 183.5,118.5C 183.231,120.429 183.731,122.095 185,123.5C 185.667,127.5 185.667,131.5 185,135.5C 184.296,137.727 183.129,138.06 181.5,136.5C 178.544,133.032 175.211,130.032 171.5,127.5C 170.393,125.031 168.393,124.031 165.5,124.5C 165.807,122.554 165.807,120.887 165.5,119.5C 163.894,120.077 162.228,120.41 160.5,120.5C 156.491,119.493 152.491,118.493 148.5,117.5C 146.566,116.89 144.899,115.89 143.5,114.5C 141.499,110.979 139.832,107.146 138.5,103C 138.833,102.5 139.167,102 139.5,101.5C 140.814,102.313 141.981,103.313 143,104.5C 143.893,103.919 144.893,103.585 146,103.5C 156.136,104.777 165.97,107.11 175.5,110.5 Z"/></g>
<g><path style="opacity:1" fill="#f8cdee" d="M 79.5,111.5 C 79.6567,112.873 79.49,114.207 79,115.5C 78.0978,117.431 76.9312,119.097 75.5,120.5C 76.1371,117.544 76.6371,114.544 77,111.5C 77.7697,112.598 78.603,112.598 79.5,111.5 Z"/></g>
<g><path style="opacity:1" fill="#fcc1e8" d="M 86.5,111.5 C 86.8226,115.226 86.4892,118.893 85.5,122.5C 84.8165,122.863 84.1499,123.196 83.5,123.5C 84.824,119.479 85.824,115.479 86.5,111.5 Z"/></g>
<g><path style="opacity:1" fill="#e02b7c" d="M 148.5,117.5 C 152.491,118.493 156.491,119.493 160.5,120.5C 162.228,120.41 163.894,120.077 165.5,119.5C 165.807,120.887 165.807,122.554 165.5,124.5C 168.393,124.031 170.393,125.031 171.5,127.5C 163.435,124.965 155.769,121.632 148.5,117.5 Z"/></g>
<g><path style="opacity:1" fill="#facced" d="M 139.5,111.5 C 141.43,111.771 142.764,112.771 143.5,114.5C 144.899,115.89 146.566,116.89 148.5,117.5C 155.769,121.632 163.435,124.965 171.5,127.5C 175.211,130.032 178.544,133.032 181.5,136.5C 181.709,137.922 182.209,139.255 183,140.5C 183.77,141.598 184.603,141.598 185.5,140.5C 185.1,142.377 184.1,143.877 182.5,145C 183.586,149.792 183.753,154.625 183,159.5C 182.325,164.496 180.825,169.163 178.5,173.5C 176.833,173.5 175.167,173.5 173.5,173.5C 180.556,165.484 183.056,156.151 181,145.5C 179.262,141.759 176.762,138.592 173.5,136C 168.944,132.893 164.277,130.06 159.5,127.5C 157.964,124.908 155.631,123.908 152.5,124.5C 152.185,128.371 152.518,132.038 153.5,135.5C 153.878,137.921 154.545,140.254 155.5,142.5C 153.813,141.274 152.313,141.608 151,143.5C 148.527,142.483 146.027,142.483 143.5,143.5C 150.659,138.294 152.325,131.627 148.5,123.5C 148.136,127.987 146.803,131.987 144.5,135.5C 145.418,131.788 145.418,128.122 144.5,124.5C 143.448,124.649 142.448,124.483 141.5,124C 142.944,122.874 143.61,121.374 143.5,119.5C 141.521,117.169 140.188,114.503 139.5,111.5 Z"/></g>
<g><path style="opacity:1" fill="#faebf4" d="M 135.5,93.5 C 134.537,97.796 134.371,102.129 135,106.5C 136.417,108.398 137.917,110.064 139.5,111.5C 140.188,114.503 141.521,117.169 143.5,119.5C 143.61,121.374 142.944,122.874 141.5,124C 142.448,124.483 143.448,124.649 144.5,124.5C 145.418,128.122 145.418,131.788 144.5,135.5C 144.167,136.167 143.833,136.833 143.5,137.5C 141.147,138.34 139.147,139.674 137.5,141.5C 133.574,142.552 129.574,143.218 125.5,143.5C 122.848,143.41 120.515,144.076 118.5,145.5C 117.508,145.328 116.842,145.662 116.5,146.5C 114.577,146.795 112.91,147.628 111.5,149C 115.353,149.187 119.02,148.687 122.5,147.5C 124.167,147.5 125.833,147.5 127.5,147.5C 133,147.75 138.334,147.75 143.5,147.5C 143.5,146.167 143.5,144.833 143.5,143.5C 146.027,142.483 148.527,142.483 151,143.5C 152.313,141.608 153.813,141.274 155.5,142.5C 155.196,143.15 154.863,143.817 154.5,144.5C 156.226,146.228 157.559,148.228 158.5,150.5C 157.585,152.98 156.085,153.647 154,152.5C 153.517,153.448 153.351,154.448 153.5,155.5C 155.144,155.286 156.644,155.62 158,156.5C 158.667,155.167 159.333,153.833 160,152.5C 161.692,154.359 163.192,156.359 164.5,158.5C 163.675,159.386 162.675,159.719 161.5,159.5C 162.284,164.671 163.617,169.671 165.5,174.5C 164.311,175.429 162.978,175.762 161.5,175.5C 161.034,177.201 161.034,178.701 161.5,180C 163.927,181.591 166.593,182.425 169.5,182.5C 168.712,186.797 166.379,187.63 162.5,185C 162.957,184.586 163.291,184.086 163.5,183.5C 162,183.167 160.5,182.833 159,182.5C 153.857,183.225 148.69,183.559 143.5,183.5C 143.338,181.473 143.505,179.473 144,177.5C 145.135,177.273 146.302,176.94 147.5,176.5C 146.311,175.571 144.978,175.238 143.5,175.5C 143.785,173.712 143.452,172.045 142.5,170.5C 141.914,170.709 141.414,171.043 141,171.5C 140.79,169.942 140.29,168.609 139.5,167.5C 138.395,164.561 137.061,161.727 135.5,159C 138.576,158.654 141.576,157.988 144.5,157C 142.5,156.5 140.5,156 138.5,155.5C 137.353,155.818 136.519,156.484 136,157.5C 134.08,155.5 132.08,153.5 130,151.5C 123.263,153.124 116.43,154.124 109.5,154.5C 105.505,156.165 101.505,157.832 97.5,159.5C 96.5041,159.414 95.6708,159.748 95,160.5C 94.5812,158.32 94.7479,156.154 95.5,154C 95.6134,152.301 94.9468,151.134 93.5,150.5C 93.631,149.761 93.4643,149.094 93,148.5C 88.7737,145.493 84.9403,142.16 81.5,138.5C 80.4208,134.865 80.4208,131.199 81.5,127.5C 82.3446,126.329 83.0113,124.995 83.5,123.5C 84.1499,123.196 84.8165,122.863 85.5,122.5C 86.4892,118.893 86.8226,115.226 86.5,111.5C 88.3079,110.082 88.9746,108.082 88.5,105.5C 91.8738,105.326 95.2072,104.826 98.5,104C 100.426,103.578 101.426,102.411 101.5,100.5C 102.925,99.078 103.925,97.4113 104.5,95.5C 105.141,93.9577 106.141,92.6243 107.5,91.5C 110.074,93.6342 112.741,93.9675 115.5,92.5C 115.833,92.5 116.167,92.5 116.5,92.5C 117.404,91.791 117.737,90.791 117.5,89.5C 121.427,89.2562 123.76,91.0896 124.5,95C 126.134,95.4935 127.801,95.6602 129.5,95.5C 129.819,99.2998 130.819,99.4665 132.5,96C 130.233,94.9188 130.066,93.4188 132,91.5C 132.816,92.8228 133.983,93.4894 135.5,93.5 Z"/></g>
<g><path style="opacity:1" fill="#fce0f3" d="M 108.5,95.5 C 109.5,95.5 110.5,95.5 111.5,95.5C 111.954,98.1398 113.121,100.473 115,102.5C 115.818,98.6769 116.984,98.5102 118.5,102C 117.905,106.193 117.572,110.36 117.5,114.5C 112.038,117.945 106.371,118.279 100.5,115.5C 99.0548,110.533 100.388,106.366 104.5,103C 106.895,102.319 109.228,101.485 111.5,100.5C 110.675,99.6143 109.675,99.281 108.5,99.5C 108.5,98.1667 108.5,96.8333 108.5,95.5 Z"/></g>
<g><path style="opacity:1" fill="#cc4586" d="M 104.5,106.5 C 105.492,106.328 106.158,106.662 106.5,107.5C 104.559,109.011 104.059,111.011 105,113.5C 107.041,114.423 109.208,114.756 111.5,114.5C 108.976,115.8 106.309,115.8 103.5,114.5C 101.904,111.433 102.237,108.766 104.5,106.5 Z"/></g>
<g><path style="opacity:1" fill="#d53680" d="M 112.5,106.5 C 113.609,106.557 114.609,106.89 115.5,107.5C 117.103,111.283 115.77,113.616 111.5,114.5C 111.577,113.25 112.244,112.417 113.5,112C 111.389,111.155 109.389,110.322 107.5,109.5C 110.285,110.084 111.952,109.084 112.5,106.5 Z"/></g>
<g><path style="opacity:1" fill="#e60e76" d="M 106.5,107.5 C 106.5,108.167 106.833,108.5 107.5,108.5C 107.5,108.833 107.5,109.167 107.5,109.5C 109.389,110.322 111.389,111.155 113.5,112C 112.244,112.417 111.577,113.25 111.5,114.5C 109.208,114.756 107.041,114.423 105,113.5C 104.059,111.011 104.559,109.011 106.5,107.5 Z"/></g>
<g><path style="opacity:1" fill="#f8d2f5" d="M 112.5,106.5 C 111.952,109.084 110.285,110.084 107.5,109.5C 107.5,109.167 107.5,108.833 107.5,108.5C 107.5,107.5 107.5,106.5 107.5,105.5C 109.415,105.216 111.081,105.549 112.5,106.5 Z"/></g>
<g><path style="opacity:1" fill="#b9769e" d="M 115.5,107.5 C 114.609,106.89 113.609,106.557 112.5,106.5C 111.081,105.549 109.415,105.216 107.5,105.5C 107.5,106.5 107.5,107.5 107.5,108.5C 106.833,108.5 106.5,108.167 106.5,107.5C 106.158,106.662 105.492,106.328 104.5,106.5C 108.554,102.429 112.221,102.762 115.5,107.5 Z"/></g>
<g><path style="opacity:1" fill="#fce4ef" d="M 249.5,199.5 C 249.5,212.833 249.5,226.167 249.5,239.5C 246.562,242.308 244.395,241.641 243,237.5C 240.266,238.362 240.099,239.195 242.5,240C 241.299,240.903 240.465,242.069 240,243.5C 238.847,241.503 237.347,241.17 235.5,242.5C 236.167,243.167 236.833,243.833 237.5,244.5C 237.167,244.833 236.833,245.167 236.5,245.5C 234.207,244.764 231.874,244.598 229.5,245C 231.002,244.417 232.335,243.584 233.5,242.5C 233.291,241.914 232.957,241.414 232.5,241C 235.988,240.676 237.988,238.842 238.5,235.5C 236.774,235.815 235.107,235.981 233.5,236C 234.167,235.333 234.833,234.667 235.5,234C 231.53,233.775 230.863,232.441 233.5,230C 232.99,228.174 232.156,228.007 231,229.5C 230.51,228.207 230.343,226.873 230.5,225.5C 229.178,225.33 228.011,225.663 227,226.5C 226.517,225.552 226.351,224.552 226.5,223.5C 227.833,223.5 229.167,223.5 230.5,223.5C 230.785,221.712 230.452,220.045 229.5,218.5C 228.614,219.325 228.281,220.325 228.5,221.5C 225.843,221.162 223.51,221.829 221.5,223.5C 219.506,221.083 217.673,221.083 216,223.5C 216.484,220.802 217.317,218.135 218.5,215.5C 219.552,215.649 220.552,215.483 221.5,215C 219.579,214.64 217.912,213.806 216.5,212.5C 213.737,213.056 210.737,213.222 207.5,213C 210.167,211.667 210.167,210.333 207.5,209C 209.167,208.333 210.833,208.333 212.5,209C 210.355,209.743 210.189,210.576 212,211.5C 214.055,210.308 216.055,210.308 218,211.5C 218.75,210.874 219.584,210.374 220.5,210C 216.785,207.855 212.952,207.021 209,207.5C 208.5,206.333 207.667,205.5 206.5,205C 209.541,204.424 212.208,203.258 214.5,201.5C 213.224,200.355 211.891,200.355 210.5,201.5C 209.614,200.675 209.281,199.675 209.5,198.5C 211.527,198.662 213.527,198.495 215.5,198C 215.056,196.467 214.723,194.967 214.5,193.5C 212.729,194.035 212.396,194.869 213.5,196C 211.782,196.346 210.115,196.846 208.5,197.5C 208.167,197.167 207.833,196.833 207.5,196.5C 208.376,195.749 209.376,195.249 210.5,195C 209.167,194 207.833,193 206.5,192C 202.565,191.916 198.898,190.916 195.5,189C 199.5,188.333 199.5,187.667 195.5,187C 196.624,186.751 197.624,186.251 198.5,185.5C 196.559,183.684 195.892,181.684 196.5,179.5C 198.162,178.673 199.495,177.507 200.5,176C 197.093,174.873 197.426,173.54 201.5,172C 199.833,171.333 198.167,171.333 196.5,172C 195.167,173 195.167,174 196.5,175C 194.567,175.783 193.067,175.283 192,173.5C 190.566,175.136 188.733,176.136 186.5,176.5C 185.41,177.391 185.41,178.391 186.5,179.5C 185.726,180.711 184.893,180.711 184,179.5C 183.784,181.384 183.117,183.051 182,184.5C 179.795,184.088 177.462,184.088 175,184.5C 173.923,183.571 172.756,182.904 171.5,182.5C 170.192,181.768 168.858,180.934 167.5,180C 171.287,179.487 173.287,177.321 173.5,173.5C 175.167,173.5 176.833,173.5 178.5,173.5C 180.825,169.163 182.325,164.496 183,159.5C 183.753,154.625 183.586,149.792 182.5,145C 184.1,143.877 185.1,142.377 185.5,140.5C 187.43,135.348 187.93,130.014 187,124.5C 186.576,121.975 185.41,119.975 183.5,118.5C 182.194,116.184 180.861,113.85 179.5,111.5C 177.992,108.86 178.326,106.527 180.5,104.5C 179.067,101.667 178.4,98.667 178.5,95.5C 177.178,95.67 176.011,95.3366 175,94.5C 174.444,92.1152 174.61,89.7819 175.5,87.5C 173.823,85.4602 172.156,83.4602 170.5,81.5C 170.038,79.2433 169.038,77.2433 167.5,75.5C 168.167,75.1667 168.833,74.8333 169.5,74.5C 171.325,75.6511 173.325,76.3178 175.5,76.5C 175.5,77.5 175.5,78.5 175.5,79.5C 176.552,79.3505 177.552,79.5172 178.5,80C 180.943,84.1892 182.776,88.6892 184,93.5C 187.124,95.3466 187.124,97.0132 184,98.5C 183.71,96.9559 183.044,95.6226 182,94.5C 180.073,96.5929 180.24,98.5929 182.5,100.5C 185.173,101.759 187.839,102.592 190.5,103C 191.167,102.333 191.833,101.667 192.5,101C 190.675,99.5341 190.175,97.7008 191,95.5C 193.973,92.7973 196.806,92.9639 199.5,96C 200.656,97.8803 200.656,100.714 199.5,104.5C 201.308,104.509 202.975,104.009 204.5,103C 203.24,101.186 203.24,99.3529 204.5,97.5C 204.833,97.6667 205.167,97.8333 205.5,98C 206.167,100 206.833,102 207.5,104C 205.561,104.908 204.561,106.408 204.5,108.5C 205.5,108.5 206.5,108.5 207.5,108.5C 207.612,112.339 208.279,112.339 209.5,108.5C 212.408,106.516 215.408,104.683 218.5,103C 217.376,102.751 216.376,102.251 215.5,101.5C 218.35,97.8863 221.017,97.8863 223.5,101.5C 220.985,102.2 220.318,103.533 221.5,105.5C 219.833,106.167 218.167,106.833 216.5,107.5C 218.361,108.528 219.695,110.028 220.5,112C 218.458,111.043 216.291,109.877 214,108.5C 212.72,108.613 211.887,109.28 211.5,110.5C 214.801,111.151 217.468,112.817 219.5,115.5C 217.363,116.868 215.03,117.868 212.5,118.5C 212.709,119.086 213.043,119.586 213.5,120C 216.735,119.312 219.902,118.145 223,116.5C 223.667,117.833 224.667,118.833 226,119.5C 225.212,121.629 224.545,123.962 224,126.5C 222.842,126.002 222.009,125.169 221.5,124C 223.836,121.119 222.836,119.952 218.5,120.5C 218.5,121.833 218.5,123.167 218.5,124.5C 216.473,124.662 214.473,124.495 212.5,124C 213.167,123.667 213.833,123.333 214.5,123C 213.107,121.637 211.441,120.804 209.5,120.5C 207.296,120.527 206.462,121.527 207,123.5C 208.011,122.663 209.178,122.33 210.5,122.5C 210.843,126.438 212.843,127.438 216.5,125.5C 217.308,125.808 217.975,126.308 218.5,127C 214.787,127.405 211.121,127.405 207.5,127C 207.985,129.68 208.318,132.347 208.5,135C 206.345,135.095 204.345,135.929 202.5,137.5C 205.03,138.132 207.363,139.132 209.5,140.5C 210.478,140.023 211.311,139.357 212,138.5C 213.951,140.137 213.784,141.637 211.5,143C 215.878,145.468 217.045,148.968 215,153.5C 214.047,151.408 212.714,151.075 211,152.5C 210.163,150.993 208.996,150.493 207.5,151C 208.595,152.675 210.095,153.842 212,154.5C 212.11,157.646 213.443,158.646 216,157.5C 216.652,160.594 216.318,163.594 215,166.5C 214.346,165.304 213.846,165.304 213.5,166.5C 214.855,167.675 214.688,168.675 213,169.5C 211.043,166.981 209.709,166.981 209,169.5C 210.646,170.779 211.813,172.445 212.5,174.5C 214.306,171.569 216.139,168.569 218,165.5C 218.667,167.5 218.667,169.5 218,171.5C 216.511,172.424 216.344,173.424 217.5,174.5C 220.875,170.191 223.542,170.524 225.5,175.5C 227.765,174.021 230.099,172.687 232.5,171.5C 233.086,171.709 233.586,172.043 234,172.5C 234.98,170.941 235.813,169.274 236.5,167.5C 237.719,168.263 238.719,169.263 239.5,170.5C 240.086,170.291 240.586,169.957 241,169.5C 243,170.833 243,172.167 241,173.5C 238.87,173.587 236.703,173.587 234.5,173.5C 233.21,175.657 232.376,177.99 232,180.5C 231.667,179.833 231.333,179.167 231,178.5C 230.205,181.383 231.371,182.883 234.5,183C 234.167,183.333 233.833,183.667 233.5,184C 236.942,184.117 239.942,185.283 242.5,187.5C 241.046,189.263 241.38,190.597 243.5,191.5C 244.251,190.624 244.751,189.624 245,188.5C 245.333,188.833 245.667,189.167 246,189.5C 245.206,191.486 245.706,193.319 247.5,195C 241.564,200.038 242.231,201.538 249.5,199.5 Z"/></g>
<g><path style="opacity:1" fill="#f390c2" d="M 75.5,122.5 C 75.573,124.027 74.9063,125.027 73.5,125.5C 73.427,123.973 74.0937,122.973 75.5,122.5 Z"/></g>
<g><path style="opacity:1" fill="#e071af" d="M 159.5,127.5 C 158.833,127.5 158.167,127.5 157.5,127.5C 156.713,125.896 155.38,125.229 153.5,125.5C 153.5,128.833 153.5,132.167 153.5,135.5C 152.518,132.038 152.185,128.371 152.5,124.5C 155.631,123.908 157.964,124.908 159.5,127.5 Z"/></g>
<g><path style="opacity:1" fill="#dc5d99" d="M 72.5,127.5 C 71.4707,130.891 69.4707,133.557 66.5,135.5C 68.016,132.467 70.016,129.8 72.5,127.5 Z"/></g>
<g><path style="opacity:1" fill="#ec97c7" d="M 81.5,127.5 C 80.4208,131.199 80.4208,134.865 81.5,138.5C 80.8333,138.167 80.1667,137.833 79.5,137.5C 79.3359,134.813 79.5026,132.146 80,129.5C 80.2784,128.584 80.7784,127.918 81.5,127.5 Z"/></g>
<g><path style="opacity:1" fill="#ee1378" d="M 98.5,95.5 C 98.8333,95.5 99.1667,95.5 99.5,95.5C 100.552,95.3505 101.552,95.5172 102.5,96C 98.4689,100.241 93.4689,102.574 87.5,103C 86.7894,104.255 85.956,105.421 85,106.5C 84.2995,113.621 83.1328,120.621 81.5,127.5C 80.7784,127.918 80.2784,128.584 80,129.5C 79.5026,132.146 79.3359,134.813 79.5,137.5C 79.5569,138.609 79.8902,139.609 80.5,140.5C 79.8423,141.398 79.1757,142.398 78.5,143.5C 77.8953,140.696 77.062,138.029 76,135.5C 74.3366,140.12 74.0033,144.787 75,149.5C 73.3221,151.553 71.4888,151.887 69.5,150.5C 70.791,150.737 71.791,150.404 72.5,149.5C 74.5857,145.341 73.2524,143.341 68.5,143.5C 68.5,145.5 68.5,147.5 68.5,149.5C 67.8386,148.282 67.1719,146.949 66.5,145.5C 66.1667,146.667 65.8333,147.833 65.5,149C 66.0909,152.527 66.7575,156.027 67.5,159.5C 65.631,157.966 64.2977,155.966 63.5,153.5C 63.5,150.167 63.5,146.833 63.5,143.5C 63.2826,140.579 63.9493,137.913 65.5,135.5C 65.8333,135.5 66.1667,135.5 66.5,135.5C 69.4707,133.557 71.4707,130.891 72.5,127.5C 73.3382,127.158 73.6716,126.492 73.5,125.5C 74.9063,125.027 75.573,124.027 75.5,122.5C 75.5,121.833 75.5,121.167 75.5,120.5C 76.9312,119.097 78.0978,117.431 79,115.5C 79.49,114.207 79.6567,112.873 79.5,111.5C 79.1107,108.447 79.7773,105.78 81.5,103.5C 83.7966,101.706 85.9633,99.7059 88,97.5C 91.3936,98.4558 94.8936,98.7892 98.5,98.5C 98.5,97.5 98.5,96.5 98.5,95.5 Z"/></g>
<g><path style="opacity:1" fill="#d7347e" d="M 157.5,127.5 C 156.5,127.5 155.5,127.5 154.5,127.5C 155.071,133.052 156.571,138.385 159,143.5C 163.158,148.151 165.992,153.484 167.5,159.5C 163.757,153.692 159.757,148.025 155.5,142.5C 154.545,140.254 153.878,137.921 153.5,135.5C 153.5,132.167 153.5,128.833 153.5,125.5C 155.38,125.229 156.713,125.896 157.5,127.5 Z"/></g>
<g><path style="opacity:1" fill="#f9037a" d="M 157.5,127.5 C 158.167,127.5 158.833,127.5 159.5,127.5C 159.281,128.675 159.614,129.675 160.5,130.5C 179.451,137.627 184.451,150.294 175.5,168.5C 173.851,169.648 172.351,170.981 171,172.5C 170.667,168.5 170.333,164.5 170,160.5C 169.329,159.748 168.496,159.414 167.5,159.5C 165.992,153.484 163.158,148.151 159,143.5C 156.571,138.385 155.071,133.052 154.5,127.5C 155.5,127.5 156.5,127.5 157.5,127.5 Z"/></g>
<g><path style="opacity:1" fill="#d0317b" d="M 159.5,127.5 C 164.277,130.06 168.944,132.893 173.5,136C 176.762,138.592 179.262,141.759 181,145.5C 183.056,156.151 180.556,165.484 173.5,173.5C 171.84,175.248 169.84,175.748 167.5,175C 170.117,169.853 170.117,164.686 167.5,159.5C 168.496,159.414 169.329,159.748 170,160.5C 170.333,164.5 170.667,168.5 171,172.5C 172.351,170.981 173.851,169.648 175.5,168.5C 184.451,150.294 179.451,137.627 160.5,130.5C 159.614,129.675 159.281,128.675 159.5,127.5 Z"/></g>
<g><path style="opacity:1" fill="#da5594" d="M 183.5,118.5 C 185.41,119.975 186.576,121.975 187,124.5C 187.93,130.014 187.43,135.348 185.5,140.5C 184.603,141.598 183.77,141.598 183,140.5C 182.209,139.255 181.709,137.922 181.5,136.5C 183.129,138.06 184.296,137.727 185,135.5C 185.667,131.5 185.667,127.5 185,123.5C 183.731,122.095 183.231,120.429 183.5,118.5 Z"/></g>
<g><path style="opacity:1" fill="#f38ec1" d="M 143.5,137.5 C 142.198,139.822 140.198,141.155 137.5,141.5C 139.147,139.674 141.147,138.34 143.5,137.5 Z"/></g>
<g><path style="opacity:1" fill="#f60979" d="M 80.5,140.5 C 81.404,141.209 81.7373,142.209 81.5,143.5C 85.0109,144.845 88.1775,146.845 91,149.5C 91.3876,152.849 91.2209,156.183 90.5,159.5C 84.9449,164.691 78.2783,167.357 70.5,167.5C 70.3465,165.03 69.3465,163.03 67.5,161.5C 67.5,160.833 67.5,160.167 67.5,159.5C 66.7575,156.027 66.0909,152.527 65.5,149C 65.8333,147.833 66.1667,146.667 66.5,145.5C 67.1719,146.949 67.8386,148.282 68.5,149.5C 68.5,150.167 68.8333,150.5 69.5,150.5C 71.4888,151.887 73.3221,151.553 75,149.5C 74.0033,144.787 74.3366,140.12 76,135.5C 77.062,138.029 77.8953,140.696 78.5,143.5C 79.1757,142.398 79.8423,141.398 80.5,140.5 Z"/></g>
<g><path style="opacity:1" fill="#ef94c8" d="M 125.5,143.5 C 123.485,144.924 121.152,145.59 118.5,145.5C 120.515,144.076 122.848,143.41 125.5,143.5 Z"/></g>
<g><path style="opacity:1" fill="#cd337a" d="M 143.5,143.5 C 138.333,145.742 132.999,147.075 127.5,147.5C 125.833,147.5 124.167,147.5 122.5,147.5C 120.265,147.795 118.265,147.461 116.5,146.5C 116.842,145.662 117.508,145.328 118.5,145.5C 121.152,145.59 123.485,144.924 125.5,143.5C 129.574,143.218 133.574,142.552 137.5,141.5C 140.198,141.155 142.198,139.822 143.5,137.5C 143.833,136.833 144.167,136.167 144.5,135.5C 146.803,131.987 148.136,127.987 148.5,123.5C 152.325,131.627 150.659,138.294 143.5,143.5 Z"/></g>
<g><path style="opacity:1" fill="#e7a7d3" d="M 63.5,143.5 C 63.5,146.833 63.5,150.167 63.5,153.5C 62.1634,151.651 61.4967,149.484 61.5,147C 61.6083,145.319 62.2749,144.152 63.5,143.5 Z"/></g>
<g><path style="opacity:1" fill="#cf367d" d="M 79.5,137.5 C 80.1667,137.833 80.8333,138.167 81.5,138.5C 84.9403,142.16 88.7737,145.493 93,148.5C 93.4643,149.094 93.631,149.761 93.5,150.5C 94.075,154.155 93.075,157.155 90.5,159.5C 91.2209,156.183 91.3876,152.849 91,149.5C 88.1775,146.845 85.0109,144.845 81.5,143.5C 81.7373,142.209 81.404,141.209 80.5,140.5C 79.8902,139.609 79.5569,138.609 79.5,137.5 Z"/></g>
<g><path style="opacity:1" fill="#fbc7eb" d="M 143.5,143.5 C 143.5,144.833 143.5,146.167 143.5,147.5C 138.334,147.75 133,147.75 127.5,147.5C 132.999,147.075 138.333,145.742 143.5,143.5 Z"/></g>
<g><path style="opacity:1" fill="#c992b2" d="M 116.5,146.5 C 118.265,147.461 120.265,147.795 122.5,147.5C 119.02,148.687 115.353,149.187 111.5,149C 112.91,147.628 114.577,146.795 116.5,146.5 Z"/></g>
<g><path style="opacity:1" fill="#ed67ae" d="M 72.5,149.5 C 71.791,150.404 70.791,150.737 69.5,150.5C 68.8333,150.5 68.5,150.167 68.5,149.5C 68.5,147.5 68.5,145.5 68.5,143.5C 73.2524,143.341 74.5857,145.341 72.5,149.5 Z"/></g>
<g><path style="opacity:1" fill="#fbcef8" d="M 72.5,149.5 C 71.5,149.5 70.5,149.5 69.5,149.5C 69.2148,147.712 69.5481,146.045 70.5,144.5C 72.2174,145.668 72.8841,147.335 72.5,149.5 Z"/></g>
<g><path style="opacity:1" fill="#fcdff7" d="M 65.5,135.5 C 63.9493,137.913 63.2826,140.579 63.5,143.5C 62.2749,144.152 61.6083,145.319 61.5,147C 61.4967,149.484 62.1634,151.651 63.5,153.5C 64.2977,155.966 65.631,157.966 67.5,159.5C 67.5,160.167 67.5,160.833 67.5,161.5C 67.5,162.5 67.5,163.5 67.5,164.5C 66.8333,163.833 66.1667,163.167 65.5,162.5C 64.2876,161.77 63.2876,160.77 62.5,159.5C 60.5065,152.899 59.8398,146.232 60.5,139.5C 61.086,139.709 61.586,140.043 62,140.5C 62.4935,138.866 62.6602,137.199 62.5,135.5C 63.5,135.5 64.5,135.5 65.5,135.5 Z"/></g>
<g><path style="opacity:1" fill="#cc3782" d="M 109.5,154.5 C 114.179,154.334 118.845,154.501 123.5,155C 125.058,155.21 126.391,155.71 127.5,156.5C 118.614,154.438 110.114,155.438 102,159.5C 100.526,161.916 98.3595,162.916 95.5,162.5C 96.1667,161.5 96.8333,160.5 97.5,159.5C 101.505,157.832 105.505,156.165 109.5,154.5 Z"/></g>
<g><path style="opacity:1" fill="#fbd9f1" d="M 139.5,167.5 C 139.95,172.202 140.617,176.868 141.5,181.5C 140.833,180.833 140.167,180.167 139.5,179.5C 139.5,179.167 139.5,178.833 139.5,178.5C 138.602,172.246 136.768,166.246 134,160.5C 131.931,158.915 129.764,157.581 127.5,156.5C 126.391,155.71 125.058,155.21 123.5,155C 118.845,154.501 114.179,154.334 109.5,154.5C 116.43,154.124 123.263,153.124 130,151.5C 132.08,153.5 134.08,155.5 136,157.5C 136.519,156.484 137.353,155.818 138.5,155.5C 140.5,156 142.5,156.5 144.5,157C 141.576,157.988 138.576,158.654 135.5,159C 137.061,161.727 138.395,164.561 139.5,167.5 Z"/></g>
<g><path style="opacity:1" fill="#f50678" d="M 127.5,156.5 C 133.609,162.05 137.109,169.05 138,177.5C 138.383,178.056 138.883,178.389 139.5,178.5C 139.5,178.833 139.5,179.167 139.5,179.5C 139.286,181.144 139.62,182.644 140.5,184C 138.6,183.787 136.933,182.953 135.5,181.5C 135.5,181.167 135.5,180.833 135.5,180.5C 134.571,176.716 133.238,173.049 131.5,169.5C 130.423,168.295 129.09,167.628 127.5,167.5C 126.769,163.73 124.436,162.063 120.5,162.5C 115.497,161.816 112.497,163.816 111.5,168.5C 111.5,170.167 111.5,171.833 111.5,173.5C 111.631,174.376 111.298,175.043 110.5,175.5C 108.316,173.484 106.316,171.317 104.5,169C 103.207,168.51 101.873,168.343 100.5,168.5C 99.391,168.443 98.391,168.11 97.5,167.5C 96.6016,166.842 95.6016,166.176 94.5,165.5C 95.1272,164.583 95.4606,163.583 95.5,162.5C 98.3595,162.916 100.526,161.916 102,159.5C 110.114,155.438 118.614,154.438 127.5,156.5 Z"/></g>
<g><path style="opacity:1" fill="#fccbee" d="M 93.5,150.5 C 94.9468,151.134 95.6134,152.301 95.5,154C 94.7479,156.154 94.5812,158.32 95,160.5C 95.6708,159.748 96.5041,159.414 97.5,159.5C 96.8333,160.5 96.1667,161.5 95.5,162.5C 88.75,165.8 89.4166,167.466 97.5,167.5C 98.391,168.11 99.391,168.443 100.5,168.5C 104.833,172.5 109.167,176.5 113.5,180.5C 109.8,180.464 107.133,178.797 105.5,175.5C 101.11,171.969 96.11,169.469 90.5,168C 89.6634,166.989 89.33,165.822 89.5,164.5C 86.3704,164.599 83.7037,165.766 81.5,168C 77.5138,168.499 73.5138,168.666 69.5,168.5C 69.4729,166.801 68.8062,165.467 67.5,164.5C 67.5,163.5 67.5,162.5 67.5,161.5C 69.3465,163.03 70.3465,165.03 70.5,167.5C 78.2783,167.357 84.9449,164.691 90.5,159.5C 93.075,157.155 94.075,154.155 93.5,150.5 Z"/></g>
<g><path style="opacity:1" fill="#c13879" d="M 95.5,162.5 C 95.4606,163.583 95.1272,164.583 94.5,165.5C 95.6016,166.176 96.6016,166.842 97.5,167.5C 89.4166,167.466 88.75,165.8 95.5,162.5 Z"/></g>
<g><path style="opacity:1" fill="#da3d87" d="M 127.5,167.5 C 124.956,165.818 122.123,164.818 119,164.5C 117.833,164.667 116.667,164.833 115.5,165C 114.295,166.376 112.962,167.542 111.5,168.5C 112.497,163.816 115.497,161.816 120.5,162.5C 124.436,162.063 126.769,163.73 127.5,167.5 Z"/></g>
<g><path style="opacity:1" fill="#f7c3e8" d="M 127.5,167.5 C 130.171,171.874 132.838,176.208 135.5,180.5C 135.5,180.833 135.5,181.167 135.5,181.5C 136.11,182.391 136.443,183.391 136.5,184.5C 131.826,181.91 128.993,177.91 128,172.5C 127.794,174.936 126.627,176.602 124.5,177.5C 127.316,170.908 125.316,167.408 118.5,167C 123.476,168.761 124.476,171.594 121.5,175.5C 121.894,172.143 120.561,169.81 117.5,168.5C 116.253,170.006 116.253,171.506 117.5,173C 115.881,173.236 114.881,174.069 114.5,175.5C 113.778,174.449 112.778,173.782 111.5,173.5C 111.5,171.833 111.5,170.167 111.5,168.5C 112.962,167.542 114.295,166.376 115.5,165C 116.667,164.833 117.833,164.667 119,164.5C 122.123,164.818 124.956,165.818 127.5,167.5 Z"/></g>
<g><path style="opacity:1" fill="#d1337f" d="M 127.5,167.5 C 129.09,167.628 130.423,168.295 131.5,169.5C 133.238,173.049 134.571,176.716 135.5,180.5C 132.838,176.208 130.171,171.874 127.5,167.5 Z"/></g>
<g><path style="opacity:1" fill="#fbeff6" d="M 65.5,162.5 C 66.1667,163.167 66.8333,163.833 67.5,164.5C 68.8062,165.467 69.4729,166.801 69.5,168.5C 73.5138,168.666 77.5138,168.499 81.5,168C 83.7037,165.766 86.3704,164.599 89.5,164.5C 89.33,165.822 89.6634,166.989 90.5,168C 96.11,169.469 101.11,171.969 105.5,175.5C 105.383,177.484 106.05,179.15 107.5,180.5C 110.212,181.228 112.879,182.061 115.5,183C 118.917,183.025 122.25,183.192 125.5,183.5C 126.647,183.182 127.481,182.516 128,181.5C 131.505,183.738 133.338,186.905 133.5,191C 131.54,193.285 131.874,195.618 134.5,198C 135.766,198.309 136.933,198.809 138,199.5C 139.667,199.167 141.333,198.833 143,198.5C 143.833,199.5 144.667,200.5 145.5,201.5C 147.021,200.063 148.855,199.396 151,199.5C 154.211,200.517 157.378,200.517 160.5,199.5C 162.19,202.024 164.357,204.024 167,205.5C 168.583,207.699 168.75,210.032 167.5,212.5C 155.907,212.077 153.407,216.744 160,226.5C 160.9,224.602 162.066,222.936 163.5,221.5C 165.024,223.483 166.024,225.816 166.5,228.5C 168.838,230.011 169.504,229.677 168.5,227.5C 170.167,224.833 171.833,224.833 173.5,227.5C 171.076,229.714 171.743,230.714 175.5,230.5C 175.75,233.214 175.917,235.881 176,238.5C 174.035,237.115 172.202,237.282 170.5,239C 174.504,240.279 178.837,241.779 183.5,243.5C 180.914,244.48 178.247,244.813 175.5,244.5C 175.629,246.216 175.962,247.883 176.5,249.5C 161.833,249.5 147.167,249.5 132.5,249.5C 134.665,245.162 133.331,243.162 128.5,243.5C 128.167,240.5 129.5,239.167 132.5,239.5C 132.5,238.5 132.5,237.5 132.5,236.5C 130.409,236.682 128.409,236.348 126.5,235.5C 123.716,237.952 124.049,239.952 127.5,241.5C 126.131,243.124 124.464,243.624 122.5,243C 121.271,239.904 121.271,236.071 122.5,231.5C 120.5,231.5 118.5,231.5 116.5,231.5C 116.5,228.833 116.5,226.167 116.5,223.5C 117.552,223.649 118.552,223.483 119.5,223C 117.19,222.503 114.857,222.337 112.5,222.5C 112.5,221.5 112.5,220.5 112.5,219.5C 114.103,219.688 115.437,219.188 116.5,218C 111.189,212.944 112.189,211.611 119.5,214C 117.068,215.087 117.402,215.587 120.5,215.5C 120.663,213.143 120.497,210.81 120,208.5C 114.331,206.737 114.831,205.57 121.5,205C 118.353,203.638 115.02,202.805 111.5,202.5C 111.762,201.022 111.429,199.689 110.5,198.5C 106.814,200.019 104.647,198.686 104,194.5C 103.51,195.793 103.343,197.127 103.5,198.5C 98.9254,198.255 96.2587,195.921 95.5,191.5C 96.675,191.719 97.675,191.386 98.5,190.5C 96.8744,189.01 95.2077,187.51 93.5,186C 86.3396,184.522 79.0063,182.689 71.5,180.5C 69.8333,179.5 68.5,178.167 67.5,176.5C 68.5,175.833 69.5,175.167 70.5,174.5C 68.4122,173.511 66.4122,173.844 64.5,175.5C 63.4173,174.635 63.2506,173.635 64,172.5C 67.3236,170.307 67.1569,168.974 63.5,168.5C 63.6138,166.282 64.2804,164.282 65.5,162.5 Z"/></g>
<g><path style="opacity:1" fill="#d34386" d="M 127.5,156.5 C 129.764,157.581 131.931,158.915 134,160.5C 136.768,166.246 138.602,172.246 139.5,178.5C 138.883,178.389 138.383,178.056 138,177.5C 137.109,169.05 133.609,162.05 127.5,156.5 Z"/></g>
<g><path style="opacity:1" fill="#d14585" d="M 124.5,177.5 C 121.332,180.056 117.666,181.056 113.5,180.5C 109.167,176.5 104.833,172.5 100.5,168.5C 101.873,168.343 103.207,168.51 104.5,169C 106.316,171.317 108.316,173.484 110.5,175.5C 111.298,175.043 111.631,174.376 111.5,173.5C 112.778,173.782 113.778,174.449 114.5,175.5C 116.941,176.756 119.274,176.756 121.5,175.5C 124.476,171.594 123.476,168.761 118.5,167C 125.316,167.408 127.316,170.908 124.5,177.5 Z"/></g>
<g><path style="opacity:1" fill="#f6e0f5" d="M 121.5,175.5 C 119.274,176.756 116.941,176.756 114.5,175.5C 114.881,174.069 115.881,173.236 117.5,173C 116.253,171.506 116.253,170.006 117.5,168.5C 120.561,169.81 121.894,172.143 121.5,175.5 Z"/></g>
<g><path style="opacity:1" fill="#fcdced" d="M 155.5,142.5 C 159.757,148.025 163.757,153.692 167.5,159.5C 170.117,164.686 170.117,169.853 167.5,175C 169.84,175.748 171.84,175.248 173.5,173.5C 173.287,177.321 171.287,179.487 167.5,180C 168.858,180.934 170.192,181.768 171.5,182.5C 170.833,182.5 170.167,182.5 169.5,182.5C 166.593,182.425 163.927,181.591 161.5,180C 161.034,178.701 161.034,177.201 161.5,175.5C 162.978,175.762 164.311,175.429 165.5,174.5C 163.617,169.671 162.284,164.671 161.5,159.5C 162.675,159.719 163.675,159.386 164.5,158.5C 163.192,156.359 161.692,154.359 160,152.5C 159.333,153.833 158.667,155.167 158,156.5C 156.644,155.62 155.144,155.286 153.5,155.5C 153.351,154.448 153.517,153.448 154,152.5C 156.085,153.647 157.585,152.98 158.5,150.5C 157.559,148.228 156.226,146.228 154.5,144.5C 154.863,143.817 155.196,143.15 155.5,142.5 Z"/></g>
<g><path style="opacity:1" fill="#fce9f2" d="M 139.5,167.5 C 140.29,168.609 140.79,169.942 141,171.5C 141.414,171.043 141.914,170.709 142.5,170.5C 143.452,172.045 143.785,173.712 143.5,175.5C 144.978,175.238 146.311,175.571 147.5,176.5C 146.302,176.94 145.135,177.273 144,177.5C 143.505,179.473 143.338,181.473 143.5,183.5C 148.69,183.559 153.857,183.225 159,182.5C 160.5,182.833 162,183.167 163.5,183.5C 163.291,184.086 162.957,184.586 162.5,185C 166.379,187.63 168.712,186.797 169.5,182.5C 170.167,182.5 170.833,182.5 171.5,182.5C 172.756,182.904 173.923,183.571 175,184.5C 177.462,184.088 179.795,184.088 182,184.5C 183.117,183.051 183.784,181.384 184,179.5C 184.893,180.711 185.726,180.711 186.5,179.5C 185.41,178.391 185.41,177.391 186.5,176.5C 188.733,176.136 190.566,175.136 192,173.5C 193.067,175.283 194.567,175.783 196.5,175C 195.167,174 195.167,173 196.5,172C 198.167,171.333 199.833,171.333 201.5,172C 197.426,173.54 197.093,174.873 200.5,176C 199.495,177.507 198.162,178.673 196.5,179.5C 195.892,181.684 196.559,183.684 198.5,185.5C 197.624,186.251 196.624,186.751 195.5,187C 199.5,187.667 199.5,188.333 195.5,189C 198.898,190.916 202.565,191.916 206.5,192C 207.833,193 209.167,194 210.5,195C 209.376,195.249 208.376,195.749 207.5,196.5C 207.833,196.833 208.167,197.167 208.5,197.5C 210.115,196.846 211.782,196.346 213.5,196C 212.396,194.869 212.729,194.035 214.5,193.5C 214.723,194.967 215.056,196.467 215.5,198C 213.527,198.495 211.527,198.662 209.5,198.5C 209.281,199.675 209.614,200.675 210.5,201.5C 211.891,200.355 213.224,200.355 214.5,201.5C 212.208,203.258 209.541,204.424 206.5,205C 207.667,205.5 208.5,206.333 209,207.5C 212.952,207.021 216.785,207.855 220.5,210C 219.584,210.374 218.75,210.874 218,211.5C 216.055,210.308 214.055,210.308 212,211.5C 210.189,210.576 210.355,209.743 212.5,209C 210.833,208.333 209.167,208.333 207.5,209C 210.167,210.333 210.167,211.667 207.5,213C 210.737,213.222 213.737,213.056 216.5,212.5C 217.912,213.806 219.579,214.64 221.5,215C 220.552,215.483 219.552,215.649 218.5,215.5C 217.317,218.135 216.484,220.802 216,223.5C 217.673,221.083 219.506,221.083 221.5,223.5C 223.51,221.829 225.843,221.162 228.5,221.5C 228.281,220.325 228.614,219.325 229.5,218.5C 230.452,220.045 230.785,221.712 230.5,223.5C 229.167,223.5 227.833,223.5 226.5,223.5C 226.351,224.552 226.517,225.552 227,226.5C 228.011,225.663 229.178,225.33 230.5,225.5C 230.343,226.873 230.51,228.207 231,229.5C 232.156,228.007 232.99,228.174 233.5,230C 230.863,232.441 231.53,233.775 235.5,234C 234.833,234.667 234.167,235.333 233.5,236C 235.107,235.981 236.774,235.815 238.5,235.5C 237.988,238.842 235.988,240.676 232.5,241C 232.957,241.414 233.291,241.914 233.5,242.5C 232.335,243.584 231.002,244.417 229.5,245C 231.874,244.598 234.207,244.764 236.5,245.5C 236.833,245.167 237.167,244.833 237.5,244.5C 236.833,243.833 236.167,243.167 235.5,242.5C 237.347,241.17 238.847,241.503 240,243.5C 240.465,242.069 241.299,240.903 242.5,240C 240.099,239.195 240.266,238.362 243,237.5C 244.395,241.641 246.562,242.308 249.5,239.5C 249.5,242.833 249.5,246.167 249.5,249.5C 225.167,249.5 200.833,249.5 176.5,249.5C 175.962,247.883 175.629,246.216 175.5,244.5C 178.247,244.813 180.914,244.48 183.5,243.5C 178.837,241.779 174.504,240.279 170.5,239C 172.202,237.282 174.035,237.115 176,238.5C 175.917,235.881 175.75,233.214 175.5,230.5C 171.743,230.714 171.076,229.714 173.5,227.5C 171.833,224.833 170.167,224.833 168.5,227.5C 169.504,229.677 168.838,230.011 166.5,228.5C 166.024,225.816 165.024,223.483 163.5,221.5C 162.066,222.936 160.9,224.602 160,226.5C 153.407,216.744 155.907,212.077 167.5,212.5C 168.75,210.032 168.583,207.699 167,205.5C 164.357,204.024 162.19,202.024 160.5,199.5C 157.378,200.517 154.211,200.517 151,199.5C 148.855,199.396 147.021,200.063 145.5,201.5C 144.667,200.5 143.833,199.5 143,198.5C 141.333,198.833 139.667,199.167 138,199.5C 136.933,198.809 135.766,198.309 134.5,198C 131.874,195.618 131.54,193.285 133.5,191C 133.338,186.905 131.505,183.738 128,181.5C 127.481,182.516 126.647,183.182 125.5,183.5C 122.25,183.192 118.917,183.025 115.5,183C 112.879,182.061 110.212,181.228 107.5,180.5C 106.05,179.15 105.383,177.484 105.5,175.5C 107.133,178.797 109.8,180.464 113.5,180.5C 117.666,181.056 121.332,180.056 124.5,177.5C 126.627,176.602 127.794,174.936 128,172.5C 128.993,177.91 131.826,181.91 136.5,184.5C 137.63,186.315 138.296,188.315 138.5,190.5C 142.514,190.666 146.514,190.499 150.5,190C 153.177,189.751 155.51,188.751 157.5,187C 156.366,185.984 156.699,185.317 158.5,185C 153.511,184.501 148.511,184.334 143.5,184.5C 142.094,184.027 141.427,183.027 141.5,181.5C 140.617,176.868 139.95,172.202 139.5,167.5 Z"/></g>
<g><path style="opacity:1" fill="#f9d1eb" d="M 136.5,184.5 C 139.984,188.132 144.317,189.465 149.5,188.5C 155.958,186.079 155.958,185.412 149.5,186.5C 146.918,186.975 144.918,186.308 143.5,184.5C 148.511,184.334 153.511,184.501 158.5,185C 156.699,185.317 156.366,185.984 157.5,187C 155.51,188.751 153.177,189.751 150.5,190C 146.514,190.499 142.514,190.666 138.5,190.5C 138.296,188.315 137.63,186.315 136.5,184.5 Z"/></g>
<g><path style="opacity:1" fill="#ad648a" d="M 149.5,188.5 C 149.5,187.833 149.5,187.167 149.5,186.5C 155.958,185.412 155.958,186.079 149.5,188.5 Z"/></g>
<g><path style="opacity:1" fill="#ce3f7f" d="M 139.5,179.5 C 140.167,180.167 140.833,180.833 141.5,181.5C 141.427,183.027 142.094,184.027 143.5,184.5C 144.918,186.308 146.918,186.975 149.5,186.5C 149.5,187.167 149.5,187.833 149.5,188.5C 144.317,189.465 139.984,188.132 136.5,184.5C 136.443,183.391 136.11,182.391 135.5,181.5C 136.933,182.953 138.6,183.787 140.5,184C 139.62,182.644 139.286,181.144 139.5,179.5 Z"/></g>
</svg>
