<?xml version="1.0" encoding="UTF-8"?>
<!DOCTYPE svg PUBLIC "-//W3C//DTD SVG 1.1//EN" "http://www.w3.org/Graphics/SVG/1.1/DTD/svg11.dtd">
<svg xmlns="http://www.w3.org/2000/svg" version="1.1" width="100px" height="100px" style="shape-rendering:geometricPrecision; text-rendering:geometricPrecision; image-rendering:optimizeQuality; fill-rule:evenodd; clip-rule:evenodd" xmlns:xlink="http://www.w3.org/1999/xlink">
<g><path style="opacity:0.396" fill="#10650c" d="M 20.5,40.5 C 20.1667,40.5 19.8333,40.5 19.5,40.5C 17.7327,36.5081 14.8994,35.1748 11,36.5C 10.6886,37.7425 11.1886,38.7425 12.5,39.5C 12.0431,40.2975 11.3764,40.6309 10.5,40.5C 10.1667,40.5 9.83333,40.5 9.5,40.5C 8.17524,36.6156 9.67524,34.2822 14,33.5C 17.4139,34.7447 19.5805,37.0781 20.5,40.5 Z"/></g>
<g><path style="opacity:1" fill="#77b453" d="M 19.5,40.5 C 16.5,41.8333 13.5,41.8333 10.5,40.5C 11.3764,40.6309 12.0431,40.2975 12.5,39.5C 11.1886,38.7425 10.6886,37.7425 11,36.5C 14.8994,35.1748 17.7327,36.5081 19.5,40.5 Z"/></g>
<g><path style="opacity:1" fill="#23781d" d="M 9.5,40.5 C 9.83333,40.5 10.1667,40.5 10.5,40.5C 13.5,41.8333 16.5,41.8333 19.5,40.5C 19.8333,40.5 20.1667,40.5 20.5,40.5C 21.7027,41.9425 22.2027,43.6092 22,45.5C 17.2838,47.7536 12.6171,47.7536 8,45.5C 7.83333,44.6667 7.66667,43.8333 7.5,43C 7.68423,41.6244 8.35089,40.7911 9.5,40.5 Z"/></g>
<g><path style="opacity:0.728" fill="#870000" d="M 62.5,41.5 C 63.8333,41.5 65.1667,41.5 66.5,41.5C 66.3398,43.1992 66.5065,44.8659 67,46.5C 74.9248,45.7349 82.7581,45.5683 90.5,46C 91.4558,49.3936 91.7892,52.8936 91.5,56.5C 90.5,56.5 89.5,56.5 88.5,56.5C 87.8333,47.1667 87.1667,47.1667 86.5,56.5C 80.3403,56.219 74.3403,56.219 68.5,56.5C 67.8333,47.1667 67.1667,47.1667 66.5,56.5C 62.8183,56.6653 59.1516,56.4986 55.5,56C 54.1259,52.5899 53.4592,52.7566 53.5,56.5C 52.1667,56.5 50.8333,56.5 49.5,56.5C 49.5,55.5 49.5,54.5 49.5,53.5C 47.5,53.5 45.5,53.5 43.5,53.5C 44.0823,47.254 47.4156,43.5873 53.5,42.5C 53.3379,44.5273 53.5045,46.5273 54,48.5C 56.1277,45.5422 58.7944,44.8756 62,46.5C 62.4935,44.8659 62.6602,43.1992 62.5,41.5 Z M 48.5,47.5 C 49.7125,48.4971 49.5458,49.4971 48,50.5C 47.5304,49.4232 47.6971,48.4232 48.5,47.5 Z M 58.5,48.5 C 61.7643,48.7264 62.7643,50.2264 61.5,53C 60.2068,53.49 58.8734,53.6567 57.5,53.5C 57.366,51.7085 57.6993,50.0418 58.5,48.5 Z"/></g>
<g><path style="opacity:0.487" fill="#096406" d="M 26.5,33.5 C 29.0444,33.1043 31.2111,33.771 33,35.5C 36.2082,34.5041 38.0415,35.8374 38.5,39.5C 38.1519,41.6967 37.1519,43.53 35.5,45C 32.9504,46.4416 30.2837,47.6083 27.5,48.5C 25.2492,43.6513 24.9158,38.6513 26.5,33.5 Z"/></g>
<g><path style="opacity:1" fill="#79b557" d="M 36.5,41.5 C 35.7321,40.7375 35.2321,39.7375 35,38.5C 32.9592,39.4231 30.7925,39.7564 28.5,39.5C 28.5,40.5 28.5,41.5 28.5,42.5C 27.3065,42.0296 26.6399,41.0296 26.5,39.5C 27.1378,33.9417 29.1378,33.275 32.5,37.5C 35.9301,36.2578 37.2634,37.5911 36.5,41.5 Z"/></g>
<g><path style="opacity:1" fill="#469338" d="M 36.5,41.5 C 34.2333,44.8062 31.2333,46.1395 27.5,45.5C 29.5,44.6667 31.5,43.8333 33.5,43C 31.8659,42.5065 30.1992,42.3398 28.5,42.5C 28.5,41.5 28.5,40.5 28.5,39.5C 30.7925,39.7564 32.9592,39.4231 35,38.5C 35.2321,39.7375 35.7321,40.7375 36.5,41.5 Z"/></g>
<g><path style="opacity:0.416" fill="#0f690d" d="M 38.5,54.5 C 39.9355,56.665 39.2688,58.165 36.5,59C 37.8321,62.5257 36.4988,64.359 32.5,64.5C 30.0884,64.5938 28.255,63.5938 27,61.5C 25.5584,58.9504 24.3917,56.2837 23.5,53.5C 27.3296,51.688 31.3296,51.188 35.5,52C 36.9423,52.3768 37.9423,53.2101 38.5,54.5 Z"/></g>
<g><path style="opacity:1" fill="#6fb04b" d="M 37.5,56.5 C 35.7103,57.9973 33.5437,58.664 31,58.5C 29.0145,58.4313 27.5145,57.7647 26.5,56.5C 30.1312,53.9087 33.7979,53.9087 37.5,56.5 Z"/></g>
<g><path style="opacity:1" fill="#97c873" d="M 38.5,54.5 C 38.6716,55.4916 38.3382,56.1583 37.5,56.5C 33.7979,53.9087 30.1312,53.9087 26.5,56.5C 26.1961,55.8501 25.8627,55.1835 25.5,54.5C 29.8476,53.2904 34.181,53.2904 38.5,54.5 Z"/></g>
<g><path style="opacity:0.567" fill="#116a0f" d="M 17.5,50.5 C 18.5,50.5 19.5,50.5 20.5,50.5C 21.2651,53.6331 21.9317,56.7997 22.5,60C 22.9475,62.9515 21.7809,64.7849 19,65.5C 10.9036,66.0956 8.2369,62.7623 11,55.5C 13.3256,53.9343 15.4922,52.2676 17.5,50.5 Z"/></g>
<g><path style="opacity:1" fill="#77b554" d="M 17.5,52.5 C 19.9689,53.6067 20.9689,55.6067 20.5,58.5C 10.1404,59.4318 9.1404,57.4318 17.5,52.5 Z"/></g>
</svg>
