<?xml version="1.0" encoding="UTF-8"?>
<!DOCTYPE svg PUBLIC "-//W3C//DTD SVG 1.1//EN" "http://www.w3.org/Graphics/SVG/1.1/DTD/svg11.dtd">
<svg xmlns="http://www.w3.org/2000/svg" version="1.1" width="250px" height="250px" style="shape-rendering:geometricPrecision; text-rendering:geometricPrecision; image-rendering:optimizeQuality; fill-rule:evenodd; clip-rule:evenodd" xmlns:xlink="http://www.w3.org/1999/xlink">
<g><path style="opacity:0.94" fill="#4babec" d="M 162.5,20.5 C 155.672,21.1149 148.672,21.2816 141.5,21C 139.381,21.3418 139.047,22.1751 140.5,23.5C 136.886,21.6932 133.22,19.8599 129.5,18C 122.925,16.6355 116.925,17.8022 111.5,21.5C 103.214,21.3062 94.8807,20.9728 86.5,20.5C 94.7705,15.6934 103.104,10.8601 111.5,6C 120.167,2.66667 128.833,2.66667 137.5,6C 145.896,10.8601 154.23,15.6934 162.5,20.5 Z"/></g>
<g><path style="opacity:0.947" fill="#53b0ec" d="M 86.5,20.5 C 94.8807,20.9728 103.214,21.3062 111.5,21.5C 102.833,26.8333 94.1667,32.1667 85.5,37.5C 80.8333,39.8333 76.1667,42.1667 71.5,44.5C 71.5774,43.2502 72.244,42.4169 73.5,42C 71.236,41.7638 69.0693,41.2638 67,40.5C 63.2564,41.626 59.423,41.7927 55.5,41C 54.5842,40.7216 53.9175,40.2216 53.5,39.5C 64.3367,32.914 75.3367,26.5806 86.5,20.5 Z"/></g>
<g><path style="opacity:1" fill="#052848" d="M 140.5,23.5 C 148.5,28.5 156.5,33.5 164.5,38.5C 156.963,39.1963 149.296,39.863 141.5,40.5C 129.153,39.1933 116.82,39.1933 104.5,40.5C 97.8834,39.7038 91.2167,39.2038 84.5,39C 85.056,38.6174 85.3893,38.1174 85.5,37.5C 94.1667,32.1667 102.833,26.8333 111.5,21.5C 116.925,17.8022 122.925,16.6355 129.5,18C 133.22,19.8599 136.886,21.6932 140.5,23.5 Z"/></g>
<g><path style="opacity:0.934" fill="#52b0eb" d="M 162.5,20.5 C 174.167,27.1667 185.833,33.8333 197.5,40.5C 191.792,41.4781 185.792,41.4781 179.5,40.5C 177.343,41.0505 175.343,41.7171 173.5,42.5C 170.648,40.9091 167.648,39.5758 164.5,38.5C 156.5,33.5 148.5,28.5 140.5,23.5C 139.047,22.1751 139.381,21.3418 141.5,21C 148.672,21.2816 155.672,21.1149 162.5,20.5 Z"/></g>
<g><path style="opacity:1" fill="#062e4f" d="M 85.5,37.5 C 85.3893,38.1174 85.056,38.6174 84.5,39C 91.2167,39.2038 97.8834,39.7038 104.5,40.5C 116.82,39.1933 129.153,39.1933 141.5,40.5C 149.296,39.863 156.963,39.1963 164.5,38.5C 167.648,39.5758 170.648,40.9091 173.5,42.5C 176.961,45.0692 180.628,47.4026 184.5,49.5C 184.5,49.8333 184.5,50.1667 184.5,50.5C 144.33,50.8319 104.33,50.4986 64.5,49.5C 67.0094,48.0787 69.3428,46.4121 71.5,44.5C 76.1667,42.1667 80.8333,39.8333 85.5,37.5 Z"/></g>
<g><path style="opacity:0.943" fill="#59b6ed" d="M 53.5,39.5 C 53.9175,40.2216 54.5842,40.7216 55.5,41C 59.423,41.7927 63.2564,41.626 67,40.5C 69.0693,41.2638 71.236,41.7638 73.5,42C 72.244,42.4169 71.5774,43.2502 71.5,44.5C 69.3428,46.4121 67.0094,48.0787 64.5,49.5C 60.7991,51.0116 57.4658,53.0116 54.5,55.5C 53.1667,55.8333 51.8333,56.1667 50.5,56.5C 42.8877,56.0519 35.2211,55.7186 27.5,55.5C 35.7962,49.6793 44.4628,44.346 53.5,39.5 Z"/></g>
<g><path style="opacity:0.94" fill="#59b5ec" d="M 197.5,40.5 C 206.379,45.0985 214.712,50.4319 222.5,56.5C 214.972,55.6115 207.472,55.2782 200,55.5C 198.316,55.6834 198.15,56.3501 199.5,57.5C 194.368,55.1005 189.368,52.4338 184.5,49.5C 180.628,47.4026 176.961,45.0692 173.5,42.5C 175.343,41.7171 177.343,41.0505 179.5,40.5C 185.792,41.4781 191.792,41.4781 197.5,40.5 Z"/></g>
<g><path style="opacity:1" fill="#063253" d="M 64.5,49.5 C 104.33,50.4986 144.33,50.8319 184.5,50.5C 181.893,54.0157 178.393,56.349 174,57.5C 172.018,57.0097 170.351,56.0097 169,54.5C 168.481,55.5156 167.647,56.1822 166.5,56.5C 164.317,55.2679 162.151,55.2679 160,56.5C 159.055,56.0946 158.388,55.428 158,54.5C 155.288,55.3337 152.621,55.0003 150,53.5C 147.787,55.5814 145.12,56.9147 142,57.5C 140.395,56.8993 139.062,55.8993 138,54.5C 136.787,57.7806 134.787,58.1139 132,55.5C 129.863,57.1249 128.197,56.7916 127,54.5C 124.571,55.0293 122.738,56.3626 121.5,58.5C 117.859,57.1879 118.193,56.0212 122.5,55C 121.128,54.5983 119.795,54.0983 118.5,53.5C 117.304,53.8457 117.304,54.3457 118.5,55C 115.868,55.4494 113.368,56.2827 111,57.5C 109.108,57.2231 107.775,56.2231 107,54.5C 106.085,55.3279 105.419,56.3279 105,57.5C 103.806,56.5697 102.473,55.9031 101,55.5C 98.6667,56.8333 96.3333,56.8333 94,55.5C 92.3411,56.9803 90.5077,58.3137 88.5,59.5C 88.1667,59 87.8333,58.5 87.5,58C 88.444,56.5232 89.7774,55.5232 91.5,55C 90.1279,54.5983 88.7946,54.0983 87.5,53.5C 86.3044,53.8457 86.3044,54.3457 87.5,55C 84.868,55.4494 82.368,56.2827 80,57.5C 78.018,57.0097 76.3513,56.0097 75,54.5C 74.9566,57.2172 73.9566,57.8839 72,56.5C 70.4411,57.0294 68.9411,57.696 67.5,58.5C 66.5,57.1667 65.5,55.8333 64.5,54.5C 62.1065,55.0948 60.2732,56.4281 59,58.5C 57.984,57.3659 57.3173,57.6992 57,59.5C 56.5204,57.867 55.6871,56.5336 54.5,55.5C 57.4658,53.0116 60.7991,51.0116 64.5,49.5 Z"/></g>
<g><path style="opacity:1" fill="#073658" d="M 184.5,49.5 C 189.368,52.4338 194.368,55.1005 199.5,57.5C 203.5,60.1667 207.5,62.8333 211.5,65.5C 153.637,65.6994 95.6372,65.6994 37.5,65.5C 41.6591,62.2533 45.9924,59.2533 50.5,56.5C 51.8333,56.1667 53.1667,55.8333 54.5,55.5C 55.6871,56.5336 56.5204,57.867 57,59.5C 57.3173,57.6992 57.984,57.3659 59,58.5C 60.2732,56.4281 62.1065,55.0948 64.5,54.5C 65.5,55.8333 66.5,57.1667 67.5,58.5C 68.9411,57.696 70.4411,57.0294 72,56.5C 73.9566,57.8839 74.9566,57.2172 75,54.5C 76.3513,56.0097 78.018,57.0097 80,57.5C 82.368,56.2827 84.868,55.4494 87.5,55C 86.3044,54.3457 86.3044,53.8457 87.5,53.5C 88.7946,54.0983 90.1279,54.5983 91.5,55C 89.7774,55.5232 88.444,56.5232 87.5,58C 87.8333,58.5 88.1667,59 88.5,59.5C 90.5077,58.3137 92.3411,56.9803 94,55.5C 96.3333,56.8333 98.6667,56.8333 101,55.5C 102.473,55.9031 103.806,56.5697 105,57.5C 105.419,56.3279 106.085,55.3279 107,54.5C 107.775,56.2231 109.108,57.2231 111,57.5C 113.368,56.2827 115.868,55.4494 118.5,55C 117.304,54.3457 117.304,53.8457 118.5,53.5C 119.795,54.0983 121.128,54.5983 122.5,55C 118.193,56.0212 117.859,57.1879 121.5,58.5C 122.738,56.3626 124.571,55.0293 127,54.5C 128.197,56.7916 129.863,57.1249 132,55.5C 134.787,58.1139 136.787,57.7806 138,54.5C 139.062,55.8993 140.395,56.8993 142,57.5C 145.12,56.9147 147.787,55.5814 150,53.5C 152.621,55.0003 155.288,55.3337 158,54.5C 158.388,55.428 159.055,56.0946 160,56.5C 162.151,55.2679 164.317,55.2679 166.5,56.5C 167.647,56.1822 168.481,55.5156 169,54.5C 170.351,56.0097 172.018,57.0097 174,57.5C 178.393,56.349 181.893,54.0157 184.5,50.5C 184.5,50.1667 184.5,49.8333 184.5,49.5 Z"/></g>
<g><path style="opacity:0.946" fill="#61bbee" d="M 27.5,55.5 C 35.2211,55.7186 42.8877,56.0519 50.5,56.5C 45.9924,59.2533 41.6591,62.2533 37.5,65.5C 34.8333,66.1667 33.1667,67.8333 32.5,70.5C 31.3263,71.5137 30.6596,72.847 30.5,74.5C 29.6618,74.8417 29.3284,75.5084 29.5,76.5C 28.0427,78.2418 26.876,80.2418 26,82.5C 23.7287,80.5663 21.7287,80.5663 20,82.5C 18.6439,81.6198 17.1439,81.2865 15.5,81.5C 15.1975,70.7756 19.1975,62.109 27.5,55.5 Z"/></g>
<g><path style="opacity:0.953" fill="#61bbed" d="M 222.5,56.5 C 230.228,62.9624 233.894,71.2958 233.5,81.5C 229.577,80.8606 225.577,81.1939 221.5,82.5C 220.831,80.3691 220.165,78.3691 219.5,76.5C 219.672,75.5084 219.338,74.8417 218.5,74.5C 218.34,72.847 217.674,71.5137 216.5,70.5C 215.856,67.856 214.189,66.1894 211.5,65.5C 207.5,62.8333 203.5,60.1667 199.5,57.5C 198.15,56.3501 198.316,55.6834 200,55.5C 207.472,55.2782 214.972,55.6115 222.5,56.5 Z"/></g>
<g><path style="opacity:1" fill="#093d5f" d="M 37.5,65.5 C 95.6372,65.6994 153.637,65.6994 211.5,65.5C 214.189,66.1894 215.856,67.856 216.5,70.5C 216.209,71.6491 215.376,72.3158 214,72.5C 202.516,72.6828 191.016,72.3494 179.5,71.5C 177.47,72.1717 175.47,72.8384 173.5,73.5C 172.373,72.8783 171.373,72.045 170.5,71C 161.506,70.5002 152.506,70.3336 143.5,70.5C 140.482,70.3354 137.482,70.502 134.5,71C 131.879,73.1141 129.879,75.6141 128.5,78.5C 123.615,77.8681 118.615,77.5348 113.5,77.5C 113.5,76.5 113.5,75.5 113.5,74.5C 113.5,73.1667 113.5,71.8333 113.5,70.5C 101.495,70.3335 89.4954,70.5001 77.5,71C 76.9341,71.9947 76.2674,72.828 75.5,73.5C 72.5299,72.8353 69.5299,72.1686 66.5,71.5C 55.4795,72.2218 44.4795,72.5552 33.5,72.5C 32.7025,72.0431 32.3691,71.3764 32.5,70.5C 33.1667,67.8333 34.8333,66.1667 37.5,65.5 Z"/></g>
<g><path style="opacity:1" fill="#6bc3ed" d="M 113.5,74.5 C 107.992,84.1824 102.992,94.1824 98.5,104.5C 98.1667,104.5 97.8333,104.5 97.5,104.5C 96.4324,102.26 94.7658,100.426 92.5,99C 91.4232,98.5304 90.4232,98.6971 89.5,99.5C 91.975,93.2166 94.975,87.2166 98.5,81.5C 99.0431,81.44 99.3764,81.1067 99.5,80.5C 94.0136,79.1853 88.6803,79.1853 83.5,80.5C 82.4043,83.0316 81.0709,85.3649 79.5,87.5C 78.7457,84.909 77.079,83.0757 74.5,82C 73.4232,81.5304 72.4232,81.6971 71.5,82.5C 72.5758,79.3516 73.9091,76.3516 75.5,73.5C 76.2674,72.828 76.9341,71.9947 77.5,71C 89.4954,70.5001 101.495,70.3335 113.5,70.5C 113.5,71.8333 113.5,73.1667 113.5,74.5 Z"/></g>
<g><path style="opacity:1" fill="#49a9e9" d="M 143.5,70.5 C 152.506,70.3336 161.506,70.5002 170.5,71C 171.373,72.045 172.373,72.8783 173.5,73.5C 175.25,77.3346 177.25,81.0012 179.5,84.5C 180.992,88.8178 182.992,92.8178 185.5,96.5C 185.5,97.1667 185.5,97.8333 185.5,98.5C 181.383,95.9316 177.383,93.0983 173.5,90C 172.184,89.4719 171.517,89.9719 171.5,91.5C 169.526,88.2301 167.526,84.8968 165.5,81.5C 164.396,84.0499 163.063,86.3832 161.5,88.5C 161.851,86.1305 162.018,83.7972 162,81.5C 157.564,78.6974 153.397,75.5307 149.5,72C 147.292,71.8091 145.292,71.3091 143.5,70.5 Z"/></g>
<g><path style="opacity:1" fill="#53b1ea" d="M 143.5,70.5 C 145.292,71.3091 147.292,71.8091 149.5,72C 153.397,75.5307 157.564,78.6974 162,81.5C 162.018,83.7972 161.851,86.1305 161.5,88.5C 160.767,90.9633 159.767,93.2967 158.5,95.5C 159.843,98.8496 161.177,102.183 162.5,105.5C 157.328,102.415 152.328,99.0814 147.5,95.5C 149.421,90.49 151.755,85.6567 154.5,81C 149.5,80.3333 144.5,80.3333 139.5,81C 138.023,82.8121 136.69,84.6455 135.5,86.5C 132.94,84.7267 130.607,82.7267 128.5,80.5C 128.5,79.8333 128.5,79.1667 128.5,78.5C 129.879,75.6141 131.879,73.1141 134.5,71C 137.482,70.502 140.482,70.3354 143.5,70.5 Z"/></g>
<g><path style="opacity:1" fill="#083f61" d="M 32.5,70.5 C 32.3691,71.3764 32.7025,72.0431 33.5,72.5C 44.4795,72.5552 55.4795,72.2218 66.5,71.5C 69.5299,72.1686 72.5299,72.8353 75.5,73.5C 73.9091,76.3516 72.5758,79.3516 71.5,82.5C 70.8333,83.1667 70.1667,83.8333 69.5,84.5C 68.7387,83.6091 67.7387,82.9424 66.5,82.5C 54.4763,82.8094 42.4763,83.1427 30.5,83.5C 30.5,80.5 30.5,77.5 30.5,74.5C 30.6596,72.847 31.3263,71.5137 32.5,70.5 Z"/></g>
<g><path style="opacity:1" fill="#083f61" d="M 216.5,70.5 C 217.674,71.5137 218.34,72.847 218.5,74.5C 218.5,77.5 218.5,80.5 218.5,83.5C 207.028,83.5702 195.694,83.2368 184.5,82.5C 182.7,82.9024 181.033,83.5691 179.5,84.5C 177.25,81.0012 175.25,77.3346 173.5,73.5C 175.47,72.8384 177.47,72.1717 179.5,71.5C 191.016,72.3494 202.516,72.6828 214,72.5C 215.376,72.3158 216.209,71.6491 216.5,70.5 Z"/></g>
<g><path style="opacity:1" fill="#4a98c0" d="M 83.5,80.5 C 88.6803,79.1853 94.0136,79.1853 99.5,80.5C 99.3764,81.1067 99.0431,81.44 98.5,81.5C 93.6946,80.5128 88.6946,80.1795 83.5,80.5 Z"/></g>
<g><path style="opacity:1" fill="#0a476a" d="M 83.5,80.5 C 88.6946,80.1795 93.6946,80.5128 98.5,81.5C 94.975,87.2166 91.975,93.2166 89.5,99.5C 87.659,101.849 86.3257,104.515 85.5,107.5C 85.1667,107.5 84.8333,107.5 84.5,107.5C 80.1877,105.653 75.8544,104.987 71.5,105.5C 71.4326,104.041 71.7659,102.708 72.5,101.5C 75.3411,97.1511 77.6745,92.4844 79.5,87.5C 81.0709,85.3649 82.4043,83.0316 83.5,80.5 Z"/></g>
<g><path style="opacity:0.948" fill="#69c0ea" d="M 219.5,76.5 C 220.165,78.3691 220.831,80.3691 221.5,82.5C 225.577,81.1939 229.577,80.8606 233.5,81.5C 233.5,87.5 233.5,93.5 233.5,99.5C 230.998,100.779 228.498,100.779 226,99.5C 223.216,102.284 221.549,101.617 221,97.5C 220.5,103.825 220.334,110.158 220.5,116.5C 220.5,125.167 220.5,133.833 220.5,142.5C 220.5,147.5 220.5,152.5 220.5,157.5C 220.821,162.695 220.487,167.695 219.5,172.5C 219.5,168.5 219.5,164.5 219.5,160.5C 219.5,155.833 219.5,151.167 219.5,146.5C 219.5,138.833 219.5,131.167 219.5,123.5C 219.5,116.167 219.5,108.833 219.5,101.5C 219.5,93.1667 219.5,84.8333 219.5,76.5 Z"/></g>
<g><path style="opacity:0.944" fill="#69c0ea" d="M 29.5,76.5 C 29.5,83.1667 29.5,89.8333 29.5,96.5C 29.5,98.1667 29.5,99.8333 29.5,101.5C 29.5,108.5 29.5,115.5 29.5,122.5C 29.5,127.167 29.5,131.833 29.5,136.5C 29.5,139.833 29.5,143.167 29.5,146.5C 29.5,151.167 29.5,155.833 29.5,160.5C 29.5,164.5 29.5,168.5 29.5,172.5C 28.5128,167.695 28.1795,162.695 28.5,157.5C 28.5,152.5 28.5,147.5 28.5,142.5C 28.5,132.167 28.5,121.833 28.5,111.5C 28.6658,106.821 28.4992,102.155 28,97.5C 26.8069,98.9785 26.3069,100.312 26.5,101.5C 22.7996,100.835 19.133,101.168 15.5,102.5C 15.5,95.5 15.5,88.5 15.5,81.5C 17.1439,81.2865 18.6439,81.6198 20,82.5C 21.7287,80.5663 23.7287,80.5663 26,82.5C 26.876,80.2418 28.0427,78.2418 29.5,76.5 Z"/></g>
<g><path style="opacity:1" fill="#094568" d="M 30.5,74.5 C 30.5,77.5 30.5,80.5 30.5,83.5C 42.4763,83.1427 54.4763,82.8094 66.5,82.5C 67.7387,82.9424 68.7387,83.6091 69.5,84.5C 67.8333,88.5 66.1667,92.5 64.5,96.5C 64.1667,96.5 63.8333,96.5 63.5,96.5C 52.2091,95.2083 40.8758,95.2083 29.5,96.5C 29.5,89.8333 29.5,83.1667 29.5,76.5C 29.3284,75.5084 29.6618,74.8417 30.5,74.5 Z"/></g>
<g><path style="opacity:1" fill="#79cced" d="M 79.5,87.5 C 77.6745,92.4844 75.3411,97.1511 72.5,101.5C 69.8414,99.8365 67.1748,98.1698 64.5,96.5C 66.1667,92.5 67.8333,88.5 69.5,84.5C 70.1667,83.8333 70.8333,83.1667 71.5,82.5C 72.4232,81.6971 73.4232,81.5304 74.5,82C 77.079,83.0757 78.7457,84.909 79.5,87.5 Z"/></g>
<g><path style="opacity:1" fill="#62bcec" d="M 128.5,80.5 C 130.607,82.7267 132.94,84.7267 135.5,86.5C 134.5,89.1667 133.5,91.8333 132.5,94.5C 130.833,97.1667 129.167,99.8333 127.5,102.5C 125.576,100.417 123.409,98.4167 121,96.5C 120.617,97.056 120.117,97.3893 119.5,97.5C 122.249,91.6673 125.249,86.0006 128.5,80.5 Z"/></g>
<g><path style="opacity:1" fill="#0b476a" d="M 147.5,95.5 C 146.833,96.1667 146.167,96.8333 145.5,97.5C 141.567,95.2772 137.401,94.9439 133,96.5C 132.536,95.9056 132.369,95.2389 132.5,94.5C 133.5,91.8333 134.5,89.1667 135.5,86.5C 136.69,84.6455 138.023,82.8121 139.5,81C 144.5,80.3333 149.5,80.3333 154.5,81C 151.755,85.6567 149.421,90.49 147.5,95.5 Z"/></g>
<g><path style="opacity:1" fill="#084467" d="M 218.5,83.5 C 218.5,87.5 218.5,91.5 218.5,95.5C 207.037,95.4824 196.037,95.8158 185.5,96.5C 182.992,92.8178 180.992,88.8178 179.5,84.5C 181.033,83.5691 182.7,82.9024 184.5,82.5C 195.694,83.2368 207.028,83.5702 218.5,83.5 Z"/></g>
<g><path style="opacity:1" fill="#09496d" d="M 218.5,74.5 C 219.338,74.8417 219.672,75.5084 219.5,76.5C 219.5,84.8333 219.5,93.1667 219.5,101.5C 218.698,102.952 218.198,104.618 218,106.5C 208.848,105.919 199.681,105.919 190.5,106.5C 188.833,103.833 187.167,101.167 185.5,98.5C 185.5,97.8333 185.5,97.1667 185.5,96.5C 196.037,95.8158 207.037,95.4824 218.5,95.5C 218.5,91.5 218.5,87.5 218.5,83.5C 218.5,80.5 218.5,77.5 218.5,74.5 Z"/></g>
<g><path style="opacity:1" fill="#094a6d" d="M 63.5,96.5 C 62.3411,100.151 60.6744,103.485 58.5,106.5C 49.3095,105.982 39.9762,105.982 30.5,106.5C 30.7845,104.585 30.4511,102.919 29.5,101.5C 29.5,99.8333 29.5,98.1667 29.5,96.5C 40.8758,95.2083 52.2091,95.2083 63.5,96.5 Z"/></g>
<g><path style="opacity:1" fill="#0a486c" d="M 113.5,74.5 C 113.5,75.5 113.5,76.5 113.5,77.5C 118.615,77.5348 123.615,77.8681 128.5,78.5C 128.5,79.1667 128.5,79.8333 128.5,80.5C 125.249,86.0006 122.249,91.6673 119.5,97.5C 117.5,100.833 115.5,104.167 113.5,107.5C 110.437,105.467 107.103,105.133 103.5,106.5C 101.36,106.444 99.6936,105.777 98.5,104.5C 102.992,94.1824 107.992,84.1824 113.5,74.5 Z"/></g>
<g><path style="opacity:1" fill="#0a4a6e" d="M 171.5,91.5 C 173.243,95.9838 175.243,100.317 177.5,104.5C 176.172,106.745 174.339,107.078 172,105.5C 169.509,106.22 167.009,106.887 164.5,107.5C 163.833,106.833 163.167,106.167 162.5,105.5C 161.177,102.183 159.843,98.8496 158.5,95.5C 159.767,93.2967 160.767,90.9633 161.5,88.5C 163.063,86.3832 164.396,84.0499 165.5,81.5C 167.526,84.8968 169.526,88.2301 171.5,91.5 Z"/></g>
<g><path style="opacity:0.948" fill="#73caf1" d="M 28.5,111.5 C 27.8386,112.718 27.1719,114.051 26.5,115.5C 24.6183,116.093 22.7849,116.76 21,117.5C 19.4157,116.139 17.5824,115.472 15.5,115.5C 15.5,111.167 15.5,106.833 15.5,102.5C 19.133,101.168 22.7996,100.835 26.5,101.5C 26.3069,100.312 26.8069,98.9785 28,97.5C 28.4992,102.155 28.6658,106.821 28.5,111.5 Z"/></g>
<g><path style="opacity:1" fill="#60baeb" d="M 147.5,95.5 C 152.328,99.0814 157.328,102.415 162.5,105.5C 163.167,106.167 163.833,106.833 164.5,107.5C 166.382,112.265 168.548,116.932 171,121.5C 171.495,123.473 171.662,125.473 171.5,127.5C 170.833,128.167 170.167,128.833 169.5,129.5C 167.546,126.716 165.046,124.383 162,122.5C 161.768,123.737 161.268,124.737 160.5,125.5C 159.192,119.217 156.526,113.55 152.5,108.5C 150.242,111.357 148.242,114.357 146.5,117.5C 145.785,115.44 144.451,113.774 142.5,112.5C 141.135,111.193 139.802,111.193 138.5,112.5C 141.09,107.651 143.424,102.651 145.5,97.5C 146.167,96.8333 146.833,96.1667 147.5,95.5 Z"/></g>
<g><path style="opacity:0.948" fill="#73caf1" d="M 233.5,99.5 C 233.5,104.833 233.5,110.167 233.5,115.5C 229.079,115.986 224.746,116.319 220.5,116.5C 220.334,110.158 220.5,103.825 221,97.5C 221.549,101.617 223.216,102.284 226,99.5C 228.498,100.779 230.998,100.779 233.5,99.5 Z"/></g>
<g><path style="opacity:1" fill="#53b1ea" d="M 185.5,98.5 C 187.167,101.167 188.833,103.833 190.5,106.5C 192.576,111.651 194.91,116.651 197.5,121.5C 197.932,124.877 197.265,127.877 195.5,130.5C 195.19,129.262 194.69,129.262 194,130.5C 191.986,128.817 190.32,126.817 189,124.5C 188.617,125.056 188.117,125.389 187.5,125.5C 184.954,118.077 181.621,111.077 177.5,104.5C 175.243,100.317 173.243,95.9838 171.5,91.5C 171.517,89.9719 172.184,89.4719 173.5,90C 177.383,93.0983 181.383,95.9316 185.5,98.5 Z"/></g>
<g><path style="opacity:1" fill="#87d8f1" d="M 63.5,96.5 C 63.8333,96.5 64.1667,96.5 64.5,96.5C 67.1748,98.1698 69.8414,99.8365 72.5,101.5C 71.7659,102.708 71.4326,104.041 71.5,105.5C 68.917,108.997 66.5836,112.664 64.5,116.5C 62.8266,113.833 60.4933,111.833 57.5,110.5C 57.8333,109.167 58.1667,107.833 58.5,106.5C 60.6744,103.485 62.3411,100.151 63.5,96.5 Z"/></g>
<g><path style="opacity:1" fill="#79cdee" d="M 97.5,104.5 C 96.6743,107.485 95.341,110.151 93.5,112.5C 90.6028,111.442 88.4361,109.442 87,106.5C 86.6174,107.056 86.1174,107.389 85.5,107.5C 86.3257,104.515 87.659,101.849 89.5,99.5C 90.4232,98.6971 91.4232,98.5304 92.5,99C 94.7658,100.426 96.4324,102.26 97.5,104.5 Z"/></g>
<g><path style="opacity:1" fill="#6ec4ec" d="M 127.5,102.5 C 125.833,106.5 124.167,110.5 122.5,114.5C 121.167,116.5 119.833,118.5 118.5,120.5C 118.631,119.761 118.464,119.094 118,118.5C 115.713,116.946 113.546,115.279 111.5,113.5C 112.167,111.5 112.833,109.5 113.5,107.5C 115.5,104.167 117.5,100.833 119.5,97.5C 120.117,97.3893 120.617,97.056 121,96.5C 123.409,98.4167 125.576,100.417 127.5,102.5 Z"/></g>
<g><path style="opacity:1" fill="#0b5074" d="M 97.5,104.5 C 97.8333,104.5 98.1667,104.5 98.5,104.5C 99.6936,105.777 101.36,106.444 103.5,106.5C 107.103,105.133 110.437,105.467 113.5,107.5C 112.833,109.5 112.167,111.5 111.5,113.5C 110.5,114.833 109.5,116.167 108.5,117.5C 103.329,116.923 98.3291,116.59 93.5,116.5C 93.5,115.5 93.5,114.5 93.5,113.5C 93.5,113.167 93.5,112.833 93.5,112.5C 95.341,110.151 96.6743,107.485 97.5,104.5 Z"/></g>
<g><path style="opacity:1" fill="#0b4f73" d="M 132.5,94.5 C 132.369,95.2389 132.536,95.9056 133,96.5C 137.401,94.9439 141.567,95.2772 145.5,97.5C 143.424,102.651 141.09,107.651 138.5,112.5C 137.5,113.833 136.5,115.167 135.5,116.5C 132.9,114.921 130.567,115.255 128.5,117.5C 125.953,117.229 123.953,116.229 122.5,114.5C 124.167,110.5 125.833,106.5 127.5,102.5C 129.167,99.8333 130.833,97.1667 132.5,94.5 Z"/></g>
<g><path style="opacity:1" fill="#0a5377" d="M 29.5,101.5 C 30.4511,102.919 30.7845,104.585 30.5,106.5C 39.9762,105.982 49.3095,105.982 58.5,106.5C 58.1667,107.833 57.8333,109.167 57.5,110.5C 53.5479,115.076 51.2146,120.409 50.5,126.5C 50.631,127.239 50.4643,127.906 50,128.5C 44.8337,127.5 39.5003,127.5 34,128.5C 33.1268,128.265 32.2935,127.931 31.5,127.5C 30.8302,125.709 30.1635,124.042 29.5,122.5C 29.5,115.5 29.5,108.5 29.5,101.5 Z"/></g>
<g><path style="opacity:1" fill="#8fddee" d="M 57.5,110.5 C 60.4933,111.833 62.8266,113.833 64.5,116.5C 63.5103,119.151 62.5103,121.817 61.5,124.5C 62.1276,126.445 63.1276,128.112 64.5,129.5C 64.5,130.167 64.5,130.833 64.5,131.5C 59.9308,129.103 55.7641,126.103 52,122.5C 51.51,123.793 51.3433,125.127 51.5,126.5C 51.1667,126.5 50.8333,126.5 50.5,126.5C 51.2146,120.409 53.5479,115.076 57.5,110.5 Z"/></g>
<g><path style="opacity:1" fill="#0e5579" d="M 71.5,105.5 C 75.8544,104.987 80.1877,105.653 84.5,107.5C 82.6185,112.265 80.4518,116.932 78,121.5C 77.5045,123.473 77.3379,125.473 77.5,127.5C 73.241,127.151 68.9077,127.817 64.5,129.5C 63.1276,128.112 62.1276,126.445 61.5,124.5C 62.5103,121.817 63.5103,119.151 64.5,116.5C 66.5836,112.664 68.917,108.997 71.5,105.5 Z"/></g>
<g><path style="opacity:1" fill="#0e597d" d="M 93.5,113.5 C 93.5,114.5 93.5,115.5 93.5,116.5C 98.3291,116.59 103.329,116.923 108.5,117.5C 106.167,122.833 103.833,128.167 101.5,133.5C 99.6098,135.59 97.9431,137.923 96.5,140.5C 95.1433,138.435 93.81,136.435 92.5,134.5C 91.0335,131.064 89.7002,127.564 88.5,124C 89.526,120.117 91.1927,116.617 93.5,113.5 Z"/></g>
<g><path style="opacity:1" fill="#0d567b" d="M 122.5,114.5 C 123.953,116.229 125.953,117.229 128.5,117.5C 130.567,115.255 132.9,114.921 135.5,116.5C 134.5,119.167 133.5,121.833 132.5,124.5C 131.5,125.833 130.5,127.167 129.5,128.5C 127.119,127.58 124.786,127.58 122.5,128.5C 119.953,128.229 117.953,127.229 116.5,125.5C 116.893,123.716 117.559,122.05 118.5,120.5C 119.833,118.5 121.167,116.5 122.5,114.5 Z"/></g>
<g><path style="opacity:1" fill="#86d7ef" d="M 93.5,112.5 C 93.5,112.833 93.5,113.167 93.5,113.5C 91.1927,116.617 89.526,120.117 88.5,124C 89.7002,127.564 91.0335,131.064 92.5,134.5C 88.2413,133.347 84.2413,131.013 80.5,127.5C 79.7025,127.957 79.3691,128.624 79.5,129.5C 78.8333,128.833 78.1667,128.167 77.5,127.5C 77.3379,125.473 77.5045,123.473 78,121.5C 80.4518,116.932 82.6185,112.265 84.5,107.5C 84.8333,107.5 85.1667,107.5 85.5,107.5C 86.1174,107.389 86.6174,107.056 87,106.5C 88.4361,109.442 90.6028,111.442 93.5,112.5 Z"/></g>
<g><path style="opacity:1" fill="#6dc4ec" d="M 146.5,117.5 C 144.674,122.484 142.341,127.151 139.5,131.5C 139.631,130.761 139.464,130.094 139,129.5C 136.648,127.97 134.481,126.303 132.5,124.5C 133.5,121.833 134.5,119.167 135.5,116.5C 136.5,115.167 137.5,113.833 138.5,112.5C 139.802,111.193 141.135,111.193 142.5,112.5C 144.451,113.774 145.785,115.44 146.5,117.5 Z"/></g>
<g><path style="opacity:1" fill="#0c5579" d="M 177.5,104.5 C 181.621,111.077 184.954,118.077 187.5,125.5C 186.833,126.5 186.167,127.5 185.5,128.5C 180.487,128.101 175.82,127.767 171.5,127.5C 171.662,125.473 171.495,123.473 171,121.5C 168.548,116.932 166.382,112.265 164.5,107.5C 167.009,106.887 169.509,106.22 172,105.5C 174.339,107.078 176.172,106.745 177.5,104.5 Z"/></g>
<g><path style="opacity:1" fill="#0a5377" d="M 219.5,101.5 C 219.5,108.833 219.5,116.167 219.5,123.5C 218.566,124.568 218.232,125.901 218.5,127.5C 211.628,127.953 205.128,128.286 199,128.5C 198.814,125.964 198.314,123.631 197.5,121.5C 194.91,116.651 192.576,111.651 190.5,106.5C 199.681,105.919 208.848,105.919 218,106.5C 218.198,104.618 218.698,102.952 219.5,101.5 Z"/></g>
<g><path style="opacity:0.924" fill="#7bd0f2" d="M 28.5,111.5 C 28.5,121.833 28.5,132.167 28.5,142.5C 24.1164,141.556 19.7831,141.223 15.5,141.5C 15.5,132.833 15.5,124.167 15.5,115.5C 17.5824,115.472 19.4157,116.139 21,117.5C 22.7849,116.76 24.6183,116.093 26.5,115.5C 27.1719,114.051 27.8386,112.718 28.5,111.5 Z"/></g>
<g><path style="opacity:0.933" fill="#7bd0f2" d="M 233.5,115.5 C 233.5,124.167 233.5,132.833 233.5,141.5C 229.203,141.644 224.869,141.977 220.5,142.5C 220.5,133.833 220.5,125.167 220.5,116.5C 224.746,116.319 229.079,115.986 233.5,115.5 Z"/></g>
<g><path style="opacity:1" fill="#0c5b80" d="M 29.5,122.5 C 30.1635,124.042 30.8302,125.709 31.5,127.5C 32.2935,127.931 33.1268,128.265 34,128.5C 39.5003,127.5 44.8337,127.5 50,128.5C 50.4643,127.906 50.631,127.239 50.5,126.5C 50.8333,126.5 51.1667,126.5 51.5,126.5C 53.1667,130.5 54.8333,134.5 56.5,138.5C 56.631,139.239 56.4643,139.906 56,140.5C 47.71,140.441 39.21,140.441 30.5,140.5C 30.7678,138.901 30.4345,137.568 29.5,136.5C 29.5,131.833 29.5,127.167 29.5,122.5 Z"/></g>
<g><path style="opacity:1" fill="#0d5c81" d="M 77.5,127.5 C 78.1667,128.167 78.8333,128.833 79.5,129.5C 80.8333,132.833 82.1667,136.167 83.5,139.5C 79.2703,140.22 74.937,140.887 70.5,141.5C 68.5,138.167 66.5,134.833 64.5,131.5C 64.5,130.833 64.5,130.167 64.5,129.5C 68.9077,127.817 73.241,127.151 77.5,127.5 Z"/></g>
<g><path style="opacity:1" fill="#80d3f0" d="M 111.5,113.5 C 113.546,115.279 115.713,116.946 118,118.5C 118.464,119.094 118.631,119.761 118.5,120.5C 117.559,122.05 116.893,123.716 116.5,125.5C 113.833,130.167 111.167,134.833 108.5,139.5C 106.827,136.833 104.493,134.833 101.5,133.5C 103.833,128.167 106.167,122.833 108.5,117.5C 109.5,116.167 110.5,114.833 111.5,113.5 Z"/></g>
<g><path style="opacity:1" fill="#0f5f84" d="M 116.5,125.5 C 117.953,127.229 119.953,128.229 122.5,128.5C 124.786,127.58 127.119,127.58 129.5,128.5C 126.757,134.985 123.757,141.319 120.5,147.5C 119.263,148.965 118.263,150.632 117.5,152.5C 113.74,152.617 109.907,151.951 106,150.5C 104.893,151.712 104.393,151.379 104.5,149.5C 105.833,146.167 107.167,142.833 108.5,139.5C 111.167,134.833 113.833,130.167 116.5,125.5 Z"/></g>
<g><path style="opacity:1" fill="#0d5a7f" d="M 160.5,125.5 C 157.896,130.375 155.562,135.375 153.5,140.5C 153.167,140.5 152.833,140.5 152.5,140.5C 147.61,140.145 142.61,140.145 137.5,140.5C 137.5,139.167 137.5,137.833 137.5,136.5C 137.893,134.716 138.559,133.05 139.5,131.5C 142.341,127.151 144.674,122.484 146.5,117.5C 148.242,114.357 150.242,111.357 152.5,108.5C 156.526,113.55 159.192,119.217 160.5,125.5 Z"/></g>
<g><path style="opacity:1" fill="#0c5b81" d="M 171.5,127.5 C 175.82,127.767 180.487,128.101 185.5,128.5C 183.229,132.709 181.229,137.042 179.5,141.5C 179.167,141.5 178.833,141.5 178.5,141.5C 174.063,140.887 169.73,140.22 165.5,139.5C 166.833,136.167 168.167,132.833 169.5,129.5C 170.167,128.833 170.833,128.167 171.5,127.5 Z"/></g>
<g><path style="opacity:1" fill="#99e6f2" d="M 64.5,131.5 C 66.5,134.833 68.5,138.167 70.5,141.5C 71.8333,144.833 73.1667,148.167 74.5,151.5C 73.8501,151.804 73.1835,152.137 72.5,152.5C 70.0035,149.007 66.8368,146.34 63,144.5C 61.9701,144.836 61.4701,145.503 61.5,146.5C 59.8333,143.833 58.1667,141.167 56.5,138.5C 54.8333,134.5 53.1667,130.5 51.5,126.5C 51.3433,125.127 51.51,123.793 52,122.5C 55.7641,126.103 59.9308,129.103 64.5,131.5 Z"/></g>
<g><path style="opacity:1" fill="#8fdef2" d="M 92.5,134.5 C 93.81,136.435 95.1433,138.435 96.5,140.5C 97.9431,137.923 99.6098,135.59 101.5,133.5C 104.493,134.833 106.827,136.833 108.5,139.5C 107.167,142.833 105.833,146.167 104.5,149.5C 102.5,152.833 100.5,156.167 98.5,159.5C 96.5527,156.744 94.386,154.078 92,151.5C 91.7679,152.737 91.2679,153.737 90.5,154.5C 89.4942,148.825 87.1609,143.825 83.5,139.5C 82.1667,136.167 80.8333,132.833 79.5,129.5C 79.3691,128.624 79.7025,127.957 80.5,127.5C 84.2413,131.013 88.2413,133.347 92.5,134.5 Z"/></g>
<g><path style="opacity:1" fill="#6dc5ed" d="M 169.5,129.5 C 168.167,132.833 166.833,136.167 165.5,139.5C 163.588,141.657 161.921,143.991 160.5,146.5C 158.766,143.8 156.432,141.8 153.5,140.5C 155.562,135.375 157.896,130.375 160.5,125.5C 161.268,124.737 161.768,123.737 162,122.5C 165.046,124.383 167.546,126.716 169.5,129.5 Z"/></g>
<g><path style="opacity:1" fill="#61bbeb" d="M 195.5,130.5 C 193.341,136.151 190.674,141.484 187.5,146.5C 185.256,144.763 183.09,142.763 181,140.5C 180.617,141.056 180.117,141.389 179.5,141.5C 181.229,137.042 183.229,132.709 185.5,128.5C 186.167,127.5 186.833,126.5 187.5,125.5C 188.117,125.389 188.617,125.056 189,124.5C 190.32,126.817 191.986,128.817 194,130.5C 194.69,129.262 195.19,129.262 195.5,130.5 Z"/></g>
<g><path style="opacity:1" fill="#0d6187" d="M 29.5,136.5 C 30.4345,137.568 30.7678,138.901 30.5,140.5C 39.21,140.441 47.71,140.441 56,140.5C 56.4643,139.906 56.631,139.239 56.5,138.5C 58.1667,141.167 59.8333,143.833 61.5,146.5C 62.1098,147.391 62.4431,148.391 62.5,149.5C 58.2647,150.72 54.2647,152.72 50.5,155.5C 49.573,153.054 47.9063,152.221 45.5,153C 47.9011,153.805 47.7344,154.638 45,155.5C 44.2747,153.842 43.108,153.342 41.5,154C 42.2797,155.073 42.113,156.24 41,157.5C 40.2496,156.874 39.4162,156.374 38.5,156C 39.7112,155.107 39.7112,154.274 38.5,153.5C 36.5637,155.978 34.5637,155.978 32.5,153.5C 31.7189,154.729 31.2189,156.062 31,157.5C 30.8227,153.644 30.3227,149.977 29.5,146.5C 29.5,143.167 29.5,139.833 29.5,136.5 Z"/></g>
<g><path style="opacity:1" fill="#11658b" d="M 83.5,139.5 C 87.1609,143.825 89.4942,148.825 90.5,154.5C 88.1933,158.437 85.8599,162.437 83.5,166.5C 80.2225,161.602 77.2225,156.602 74.5,151.5C 73.1667,148.167 71.8333,144.833 70.5,141.5C 74.937,140.887 79.2703,140.22 83.5,139.5 Z"/></g>
<g><path style="opacity:1" fill="#0f6389" d="M 165.5,139.5 C 169.73,140.22 174.063,140.887 178.5,141.5C 177.341,145.151 175.674,148.485 173.5,151.5C 171.04,151.699 168.707,152.365 166.5,153.5C 167.41,156.886 166.41,157.719 163.5,156C 165,152.167 163.833,151 160,152.5C 159.536,151.906 159.369,151.239 159.5,150.5C 159.833,149.167 160.167,147.833 160.5,146.5C 161.921,143.991 163.588,141.657 165.5,139.5 Z"/></g>
<g><path style="opacity:1" fill="#0c5f85" d="M 197.5,121.5 C 198.314,123.631 198.814,125.964 199,128.5C 205.128,128.286 211.628,127.953 218.5,127.5C 218.232,125.901 218.566,124.568 219.5,123.5C 219.5,131.167 219.5,138.833 219.5,146.5C 218.677,149.977 218.177,153.644 218,157.5C 216.486,155.234 214.319,154.068 211.5,154C 212.696,153.346 212.696,152.846 211.5,152.5C 210.12,153.976 208.453,154.976 206.5,155.5C 206.891,154.282 206.224,153.448 204.5,153C 200,152.5 195.5,152 191,151.5C 189.014,151.431 187.514,150.765 186.5,149.5C 186.557,148.391 186.89,147.391 187.5,146.5C 190.674,141.484 193.341,136.151 195.5,130.5C 197.265,127.877 197.932,124.877 197.5,121.5 Z"/></g>
<g><path style="opacity:1" fill="#7fd2f0" d="M 132.5,124.5 C 134.481,126.303 136.648,127.97 139,129.5C 139.464,130.094 139.631,130.761 139.5,131.5C 138.559,133.05 137.893,134.716 137.5,136.5C 134.5,141.833 131.5,147.167 128.5,152.5C 126.502,150.4 124.335,148.4 122,146.5C 121.617,147.056 121.117,147.389 120.5,147.5C 123.757,141.319 126.757,134.985 129.5,128.5C 130.5,127.167 131.5,125.833 132.5,124.5 Z"/></g>
<g><path style="opacity:1" fill="#a3eef5" d="M 74.5,151.5 C 77.2225,156.602 80.2225,161.602 83.5,166.5C 85.8599,162.437 88.1933,158.437 90.5,154.5C 91.2679,153.737 91.7679,152.737 92,151.5C 94.386,154.078 96.5527,156.744 98.5,159.5C 96.8946,162.378 95.5612,165.378 94.5,168.5C 96.631,169.314 98.9644,169.814 101.5,170C 100.167,170.333 98.8333,170.667 97.5,171C 101.403,172.275 104.737,174.275 107.5,177C 106.263,177.232 105.263,177.732 104.5,178.5C 95.4754,178.832 86.4754,178.498 77.5,177.5C 74.4725,172.104 71.4725,166.771 68.5,161.5C 67.0078,157.182 65.0078,153.182 62.5,149.5C 62.4431,148.391 62.1098,147.391 61.5,146.5C 61.4701,145.503 61.9701,144.836 63,144.5C 66.8368,146.34 70.0035,149.007 72.5,152.5C 73.1835,152.137 73.8501,151.804 74.5,151.5 Z"/></g>
<g><path style="opacity:1" fill="#89d9f0" d="M 128.5,152.5 C 126.833,156.5 125.167,160.5 123.5,164.5C 122.5,165.833 121.5,167.167 120.5,168.5C 118.576,165.909 116.242,163.575 113.5,161.5C 114.561,158.378 115.895,155.378 117.5,152.5C 118.263,150.632 119.263,148.965 120.5,147.5C 121.117,147.389 121.617,147.056 122,146.5C 124.335,148.4 126.502,150.4 128.5,152.5 Z"/></g>
<g><path style="opacity:1" fill="#7aceef" d="M 152.5,140.5 C 152.833,140.5 153.167,140.5 153.5,140.5C 156.432,141.8 158.766,143.8 160.5,146.5C 160.167,147.833 159.833,149.167 159.5,150.5C 157.167,154.5 154.833,158.5 152.5,162.5C 150.999,159.962 148.832,157.962 146,156.5C 145.617,157.056 145.117,157.389 144.5,157.5C 147.423,151.985 150.09,146.318 152.5,140.5 Z"/></g>
<g><path style="opacity:0.998" fill="#84d7f3" d="M 15.5,141.5 C 19.7831,141.223 24.1164,141.556 28.5,142.5C 28.5,147.5 28.5,152.5 28.5,157.5C 27.8386,158.718 27.1719,160.051 26.5,161.5C 22.8835,161.689 19.2169,161.356 15.5,160.5C 15.5,154.167 15.5,147.833 15.5,141.5 Z"/></g>
<g><path style="opacity:1" fill="#6fc6ee" d="M 187.5,146.5 C 186.89,147.391 186.557,148.391 186.5,149.5C 184.167,153.5 181.833,157.5 179.5,161.5C 179.586,160.504 179.252,159.671 178.5,159C 176.595,157.579 174.595,156.412 172.5,155.5C 172.833,154.167 173.167,152.833 173.5,151.5C 175.674,148.485 177.341,145.151 178.5,141.5C 178.833,141.5 179.167,141.5 179.5,141.5C 180.117,141.389 180.617,141.056 181,140.5C 183.09,142.763 185.256,144.763 187.5,146.5 Z"/></g>
<g><path style="opacity:0.996" fill="#84d7f3" d="M 233.5,141.5 C 233.5,148.5 233.5,155.5 233.5,162.5C 229.5,162.5 225.5,162.5 221.5,162.5C 221.784,160.585 221.451,158.919 220.5,157.5C 220.5,152.5 220.5,147.5 220.5,142.5C 224.869,141.977 229.203,141.644 233.5,141.5 Z"/></g>
<g><path style="opacity:1" fill="#0e668c" d="M 137.5,136.5 C 137.5,137.833 137.5,139.167 137.5,140.5C 142.61,140.145 147.61,140.145 152.5,140.5C 150.09,146.318 147.423,151.985 144.5,157.5C 142.833,160.167 141.167,162.833 139.5,165.5C 134.811,166.261 130.144,166.595 125.5,166.5C 124.287,166.253 123.62,165.586 123.5,164.5C 125.167,160.5 126.833,156.5 128.5,152.5C 131.5,147.167 134.5,141.833 137.5,136.5 Z"/></g>
<g><path style="opacity:1" fill="#0e678e" d="M 29.5,146.5 C 30.3227,149.977 30.8227,153.644 31,157.5C 31.2189,156.062 31.7189,154.729 32.5,153.5C 34.5637,155.978 36.5637,155.978 38.5,153.5C 39.7112,154.274 39.7112,155.107 38.5,156C 39.4162,156.374 40.2496,156.874 41,157.5C 42.113,156.24 42.2797,155.073 41.5,154C 43.108,153.342 44.2747,153.842 45,155.5C 47.7344,154.638 47.9011,153.805 45.5,153C 47.9063,152.221 49.573,153.054 50.5,155.5C 54.2647,152.72 58.2647,150.72 62.5,149.5C 65.0078,153.182 67.0078,157.182 68.5,161.5C 68.5,162.833 68.5,164.167 68.5,165.5C 56.0976,165.726 43.4309,166.059 30.5,166.5C 30.7947,164.265 30.4614,162.265 29.5,160.5C 29.5,155.833 29.5,151.167 29.5,146.5 Z"/></g>
<g><path style="opacity:1" fill="#0d678e" d="M 219.5,146.5 C 219.5,151.167 219.5,155.833 219.5,160.5C 218.539,162.265 218.205,164.265 218.5,166.5C 206.329,165.692 193.996,165.692 181.5,166.5C 180.081,165.995 179.415,164.995 179.5,163.5C 179.5,162.833 179.5,162.167 179.5,161.5C 181.833,157.5 184.167,153.5 186.5,149.5C 187.514,150.765 189.014,151.431 191,151.5C 195.5,152 200,152.5 204.5,153C 206.224,153.448 206.891,154.282 206.5,155.5C 208.453,154.976 210.12,153.976 211.5,152.5C 212.696,152.846 212.696,153.346 211.5,154C 214.319,154.068 216.486,155.234 218,157.5C 218.177,153.644 218.677,149.977 219.5,146.5 Z"/></g>
<g><path style="opacity:1" fill="#106990" d="M 159.5,150.5 C 159.369,151.239 159.536,151.906 160,152.5C 163.833,151 165,152.167 163.5,156C 166.41,157.719 167.41,156.886 166.5,153.5C 168.707,152.365 171.04,151.699 173.5,151.5C 173.167,152.833 172.833,154.167 172.5,155.5C 169.916,159.666 167.583,164 165.5,168.5C 160.305,168.821 155.305,168.487 150.5,167.5C 151.441,165.95 152.107,164.284 152.5,162.5C 154.833,158.5 157.167,154.5 159.5,150.5 Z"/></g>
<g><path style="opacity:0.939" fill="#8cdcf3" d="M 28.5,157.5 C 28.1795,162.695 28.5128,167.695 29.5,172.5C 30.3564,175.873 32.023,178.873 34.5,181.5C 29.0695,179.003 23.7361,179.003 18.5,181.5C 17.0735,179.852 16.2401,177.852 16,175.5C 15.5007,170.511 15.3341,165.511 15.5,160.5C 19.2169,161.356 22.8835,161.689 26.5,161.5C 27.1719,160.051 27.8386,158.718 28.5,157.5 Z"/></g>
<g><path style="opacity:0.944" fill="#8cdcf3" d="M 220.5,157.5 C 221.451,158.919 221.784,160.585 221.5,162.5C 225.5,162.5 229.5,162.5 233.5,162.5C 233.899,168.671 233.232,174.671 231.5,180.5C 227.991,179.976 224.491,179.643 221,179.5C 218.913,180.397 216.746,181.064 214.5,181.5C 216.942,178.952 218.608,175.952 219.5,172.5C 220.487,167.695 220.821,162.695 220.5,157.5 Z"/></g>
<g><path style="opacity:1" fill="#79ceef" d="M 172.5,155.5 C 174.595,156.412 176.595,157.579 178.5,159C 179.252,159.671 179.586,160.504 179.5,161.5C 179.5,162.167 179.5,162.833 179.5,163.5C 177.5,166.833 175.5,170.167 173.5,173.5C 171.877,171.049 169.711,169.049 167,167.5C 166.617,168.056 166.117,168.389 165.5,168.5C 167.583,164 169.916,159.666 172.5,155.5 Z"/></g>
<g><path style="opacity:1" fill="#126b91" d="M 104.5,149.5 C 104.393,151.379 104.893,151.712 106,150.5C 109.907,151.951 113.74,152.617 117.5,152.5C 115.895,155.378 114.561,158.378 113.5,161.5C 112.067,163.519 110.733,165.686 109.5,168C 104.511,168.499 99.5111,168.666 94.5,168.5C 95.5612,165.378 96.8946,162.378 98.5,159.5C 100.5,156.167 102.5,152.833 104.5,149.5 Z"/></g>
<g><path style="opacity:1" fill="#88daf2" d="M 152.5,162.5 C 152.107,164.284 151.441,165.95 150.5,167.5C 149.957,167.56 149.624,167.893 149.5,168.5C 154.986,169.815 160.32,169.815 165.5,168.5C 166.117,168.389 166.617,168.056 167,167.5C 169.711,169.049 171.877,171.049 173.5,173.5C 173.141,175.371 172.141,176.871 170.5,178C 159.167,178.667 147.833,178.667 136.5,178C 135.941,177.275 135.608,176.442 135.5,175.5C 136.843,172.15 138.177,168.817 139.5,165.5C 141.167,162.833 142.833,160.167 144.5,157.5C 145.117,157.389 145.617,157.056 146,156.5C 148.832,157.962 150.999,159.962 152.5,162.5 Z"/></g>
<g><path style="opacity:1" fill="#117299" d="M 29.5,160.5 C 30.4614,162.265 30.7947,164.265 30.5,166.5C 43.4309,166.059 56.0976,165.726 68.5,165.5C 68.5,164.167 68.5,162.833 68.5,161.5C 71.4725,166.771 74.4725,172.104 77.5,177.5C 86.4754,178.498 95.4754,178.832 104.5,178.5C 113.066,180.222 118.399,176.888 120.5,168.5C 121.5,167.167 122.5,165.833 123.5,164.5C 123.62,165.586 124.287,166.253 125.5,166.5C 130.144,166.595 134.811,166.261 139.5,165.5C 138.177,168.817 136.843,172.15 135.5,175.5C 135.608,176.442 135.941,177.275 136.5,178C 147.833,178.667 159.167,178.667 170.5,178C 172.141,176.871 173.141,175.371 173.5,173.5C 175.5,170.167 177.5,166.833 179.5,163.5C 179.415,164.995 180.081,165.995 181.5,166.5C 193.996,165.692 206.329,165.692 218.5,166.5C 218.205,164.265 218.539,162.265 219.5,160.5C 219.5,164.5 219.5,168.5 219.5,172.5C 218.608,175.952 216.942,178.952 214.5,181.5C 212.178,183.664 209.511,185.331 206.5,186.5C 151.891,185.822 97.2239,185.822 42.5,186.5C 39.2957,185.617 36.6291,183.95 34.5,181.5C 32.023,178.873 30.3564,175.873 29.5,172.5C 29.5,168.5 29.5,164.5 29.5,160.5 Z"/></g>
<g><path style="opacity:1" fill="#98e5f2" d="M 113.5,161.5 C 116.242,163.575 118.576,165.909 120.5,168.5C 118.399,176.888 113.066,180.222 104.5,178.5C 105.263,177.732 106.263,177.232 107.5,177C 104.737,174.275 101.403,172.275 97.5,171C 98.8333,170.667 100.167,170.333 101.5,170C 98.9644,169.814 96.631,169.314 94.5,168.5C 99.5111,168.666 104.511,168.499 109.5,168C 110.733,165.686 112.067,163.519 113.5,161.5 Z"/></g>
<g><path style="opacity:1" fill="#5eb4d3" d="M 150.5,167.5 C 155.305,168.487 160.305,168.821 165.5,168.5C 160.32,169.815 154.986,169.815 149.5,168.5C 149.624,167.893 149.957,167.56 150.5,167.5 Z"/></g>
<g><path style="opacity:1" fill="#0f779f" d="M 206.5,186.5 C 200.43,190.558 194.097,194.225 187.5,197.5C 185.196,196.837 182.863,196.17 180.5,195.5C 141.536,196.734 102.703,196.734 64,195.5C 63.2917,196.381 62.4584,197.047 61.5,197.5C 54.6678,194.588 48.3344,190.921 42.5,186.5C 97.2239,185.822 151.891,185.822 206.5,186.5 Z"/></g>
<g><path style="opacity:0.945" fill="#96e4f4" d="M 34.5,181.5 C 36.6291,183.95 39.2957,185.617 42.5,186.5C 48.3344,190.921 54.6678,194.588 61.5,197.5C 66.5,200.833 71.5,204.167 76.5,207.5C 68.3365,208.444 60.3365,208.777 52.5,208.5C 40.8117,203.317 30.3117,196.317 21,187.5C 19.878,185.593 19.0447,183.593 18.5,181.5C 23.7361,179.003 29.0695,179.003 34.5,181.5 Z"/></g>
<g><path style="opacity:0.941" fill="#94e3f4" d="M 231.5,180.5 C 226.381,190.952 218.381,198.285 207.5,202.5C 204.857,202.142 202.19,201.809 199.5,201.5C 197.455,203.475 195.788,203.475 194.5,201.5C 190.294,203.344 186.294,203.344 182.5,201.5C 183.984,199.926 185.651,198.593 187.5,197.5C 194.097,194.225 200.43,190.558 206.5,186.5C 209.511,185.331 212.178,183.664 214.5,181.5C 216.746,181.064 218.913,180.397 221,179.5C 224.491,179.643 227.991,179.976 231.5,180.5 Z"/></g>
<g><path style="opacity:1" fill="#107ca5" d="M 187.5,197.5 C 185.651,198.593 183.984,199.926 182.5,201.5C 177.833,203.833 173.167,206.167 168.5,208.5C 164.863,207.835 161.197,207.168 157.5,206.5C 136.833,206.5 116.167,206.5 95.5,206.5C 90.4702,207.167 85.4702,207.834 80.5,208.5C 79.1667,208.167 77.8333,207.833 76.5,207.5C 71.5,204.167 66.5,200.833 61.5,197.5C 62.4584,197.047 63.2917,196.381 64,195.5C 102.703,196.734 141.536,196.734 180.5,195.5C 182.863,196.17 185.196,196.837 187.5,197.5 Z"/></g>
<g><path style="opacity:1" fill="#1182ab" d="M 168.5,208.5 C 163.033,212.071 157.367,215.404 151.5,218.5C 136.121,218.716 120.787,218.383 105.5,217.5C 103.47,218.172 101.47,218.838 99.5,219.5C 92.6678,216.588 86.3344,212.921 80.5,208.5C 85.4702,207.834 90.4702,207.167 95.5,206.5C 116.167,206.5 136.833,206.5 157.5,206.5C 161.197,207.168 164.863,207.835 168.5,208.5 Z"/></g>
<g><path style="opacity:0.929" fill="#9eeaf5" d="M 76.5,207.5 C 77.8333,207.833 79.1667,208.167 80.5,208.5C 86.3344,212.921 92.6678,216.588 99.5,219.5C 100.167,220.167 100.833,220.833 101.5,221.5C 98.6681,222.1 95.8348,222.767 93,223.5C 88.5016,223.764 84.0016,223.098 79.5,221.5C 78.4163,221.685 77.4163,222.018 76.5,222.5C 68.1639,218.335 60.1639,213.668 52.5,208.5C 60.3365,208.777 68.3365,208.444 76.5,207.5 Z"/></g>
<g><path style="opacity:0.931" fill="#9ce9f5" d="M 182.5,201.5 C 186.294,203.344 190.294,203.344 194.5,201.5C 195.788,203.475 197.455,203.475 199.5,201.5C 202.19,201.809 204.857,202.142 207.5,202.5C 196.004,209.416 184.337,216.083 172.5,222.5C 164.831,222.451 157.331,222.784 150,223.5C 149.645,222.491 148.812,221.824 147.5,221.5C 148.833,220.5 150.167,219.5 151.5,218.5C 157.367,215.404 163.033,212.071 168.5,208.5C 173.167,206.167 177.833,203.833 182.5,201.5 Z"/></g>
<g><path style="opacity:1" fill="#1589b2" d="M 151.5,218.5 C 150.167,219.5 148.833,220.5 147.5,221.5C 141.409,224.408 135.409,227.574 129.5,231C 125.833,231.667 122.167,231.667 118.5,231C 112.806,227.821 107.139,224.655 101.5,221.5C 100.833,220.833 100.167,220.167 99.5,219.5C 101.47,218.838 103.47,218.172 105.5,217.5C 120.787,218.383 136.121,218.716 151.5,218.5 Z"/></g>
<g><path style="opacity:0.938" fill="#a5f0f6" d="M 101.5,221.5 C 107.139,224.655 112.806,227.821 118.5,231C 122.167,231.667 125.833,231.667 129.5,231C 135.409,227.574 141.409,224.408 147.5,221.5C 148.812,221.824 149.645,222.491 150,223.5C 157.331,222.784 164.831,222.451 172.5,222.5C 161.225,229.811 149.558,236.645 137.5,243C 128.833,246.333 120.167,246.333 111.5,243C 99.4417,236.645 87.775,229.811 76.5,222.5C 77.4163,222.018 78.4163,221.685 79.5,221.5C 84.0016,223.098 88.5016,223.764 93,223.5C 95.8348,222.767 98.6681,222.1 101.5,221.5 Z"/></g>
</svg>
