<?xml version="1.0" encoding="UTF-8"?>
<!DOCTYPE svg PUBLIC "-//W3C//DTD SVG 1.1//EN" "http://www.w3.org/Graphics/SVG/1.1/DTD/svg11.dtd">
<svg xmlns="http://www.w3.org/2000/svg" version="1.1" width="250px" height="250px" style="shape-rendering:geometricPrecision; text-rendering:geometricPrecision; image-rendering:optimizeQuality; fill-rule:evenodd; clip-rule:evenodd" xmlns:xlink="http://www.w3.org/1999/xlink">
<g><path style="opacity:1" fill="#fdfefd" d="M -0.5,-0.5 C 42.1667,-0.5 84.8333,-0.5 127.5,-0.5C 129.658,1.22001 132.325,2.05334 135.5,2C 134.167,2.66667 134.167,3.33333 135.5,4C 127.118,4.80289 118.785,4.63622 110.5,3.5C 108.183,7.31169 104.85,9.81169 100.5,11C 98.9632,12.1096 98.2965,13.6096 98.5,15.5C 92.4436,19.2812 86.2769,22.9478 80,26.5C 79.3333,27.8333 79.3333,29.1667 80,30.5C 82.733,33.0625 85.233,35.7291 87.5,38.5C 90.8643,42.8574 94.1976,47.1907 97.5,51.5C 98.1098,52.391 98.4431,53.391 98.5,54.5C 97.609,53.8902 96.609,53.5569 95.5,53.5C 92.5434,49.2079 89.2101,45.2079 85.5,41.5C 80.2538,33.2512 73.5871,26.2512 65.5,20.5C 64.4777,20.8555 63.811,21.5222 63.5,22.5C 63.5,22.8333 63.5,23.1667 63.5,23.5C 61.6185,25.9296 60.2852,28.5962 59.5,31.5C 57.0835,31.9609 55.2502,33.2942 54,35.5C 52.5838,36.5733 51.2504,36.5733 50,35.5C 47.9256,40.2586 49.0922,41.2586 53.5,38.5C 54.3857,39.325 54.719,40.325 54.5,41.5C 47.4474,45.6603 40.1141,49.6603 32.5,53.5C 29.9088,55.2812 27.5755,57.2812 25.5,59.5C 22.2911,62.228 19.7911,65.5613 18,69.5C 17.1785,72.1168 16.6785,74.7835 16.5,77.5C 15.17,110.002 15.17,142.669 16.5,175.5C 17.853,178.758 19.0196,182.092 20,185.5C 21.6338,187.837 23.4671,189.837 25.5,191.5C 27.4789,194.146 29.8122,196.479 32.5,198.5C 35.8753,199.706 38.8753,201.54 41.5,204C 48.9876,207.358 56.321,210.858 63.5,214.5C 63.8417,215.338 64.5084,215.672 65.5,215.5C 73.0497,221.107 81.0497,225.94 89.5,230C 90.1667,231 90.8333,232 91.5,233C 94.7769,234.143 98.1102,234.977 101.5,235.5C 101.384,238.91 103.05,240.244 106.5,239.5C 106.953,240.458 107.619,241.292 108.5,242C 118.319,246.058 128.319,246.558 138.5,243.5C 137.856,245.478 136.522,246.811 134.5,247.5C 129.222,247.135 123.889,246.968 118.5,247C 116.541,246.069 114.541,245.236 112.5,244.5C 111.548,246.045 111.215,247.712 111.5,249.5C 74.1667,249.5 36.8333,249.5 -0.5,249.5C -0.5,166.167 -0.5,82.8333 -0.5,-0.5 Z"/></g>
<g><path style="opacity:1" fill="#fdfefe" d="M 136.5,-0.5 C 174.167,-0.5 211.833,-0.5 249.5,-0.5C 249.5,82.8333 249.5,166.167 249.5,249.5C 203.5,249.5 157.5,249.5 111.5,249.5C 111.215,247.712 111.548,246.045 112.5,244.5C 114.541,245.236 116.541,246.069 118.5,247C 123.889,246.968 129.222,247.135 134.5,247.5C 136.522,246.811 137.856,245.478 138.5,243.5C 140.117,242.962 141.784,242.629 143.5,242.5C 143.5,241.5 143.5,240.5 143.5,239.5C 149.033,237.547 154.367,235.214 159.5,232.5C 159.561,229.95 160.894,228.45 163.5,228C 165.141,226.871 166.141,225.371 166.5,223.5C 168.167,223.5 169.833,223.5 171.5,223.5C 172.833,223.5 174.167,223.5 175.5,223.5C 180.13,222.856 183.796,220.689 186.5,217C 194.762,214.197 201.762,209.697 207.5,203.5C 207.369,202.624 207.702,201.957 208.5,201.5C 221.073,197.094 228.907,188.428 232,175.5C 232.667,141.5 232.667,107.5 232,73.5C 231.434,71.2774 230.6,69.2774 229.5,67.5C 227.445,64.2563 225.111,61.0896 222.5,58C 214.28,52.8808 205.947,48.0475 197.5,43.5C 196.15,40.894 194.65,40.894 193,43.5C 192.722,42.5842 192.222,41.9175 191.5,41.5C 191.5,40.1667 191.5,38.8333 191.5,37.5C 190.415,32.6015 189.415,27.6015 188.5,22.5C 190.02,20.3379 191.02,18.0046 191.5,15.5C 188.614,15.9473 185.78,15.9473 183,15.5C 181.989,15.8919 181.489,16.5585 181.5,17.5C 178.61,14.528 176.276,14.8614 174.5,18.5C 168.636,17.6471 167.969,19.4805 172.5,24C 171.833,24.1667 171.167,24.3333 170.5,24.5C 166.487,21.993 162.153,20.3264 157.5,19.5C 157.452,16.3648 155.785,14.6981 152.5,14.5C 152.167,13.8333 151.833,13.1667 151.5,12.5C 146.63,11.4604 142.297,9.46036 138.5,6.5C 141.454,5.85264 144.454,5.68598 147.5,6C 149.679,5.55815 150.345,4.55815 149.5,3C 146.342,2.44585 143.175,1.94585 140,1.5C 138.319,1.39174 137.152,0.725071 136.5,-0.5 Z"/></g>
<g><path style="opacity:1" fill="#e6f4f7" d="M 127.5,-0.5 C 130.5,-0.5 133.5,-0.5 136.5,-0.5C 137.152,0.725071 138.319,1.39174 140,1.5C 143.175,1.94585 146.342,2.44585 149.5,3C 150.345,4.55815 149.679,5.55815 147.5,6C 144.454,5.68598 141.454,5.85264 138.5,6.5C 142.297,9.46036 146.63,11.4604 151.5,12.5C 151.833,13.1667 152.167,13.8333 152.5,14.5C 155.785,14.6981 157.452,16.3648 157.5,19.5C 162.153,20.3264 166.487,21.993 170.5,24.5C 171.167,24.3333 171.833,24.1667 172.5,24C 167.969,19.4805 168.636,17.6471 174.5,18.5C 176.276,14.8614 178.61,14.528 181.5,17.5C 181.489,16.5585 181.989,15.8919 183,15.5C 185.78,15.9473 188.614,15.9473 191.5,15.5C 191.02,18.0046 190.02,20.3379 188.5,22.5C 189.415,27.6015 190.415,32.6015 191.5,37.5C 189.11,32.369 186.943,27.0357 185,21.5C 183.951,20.4829 182.784,20.3162 181.5,21C 168.82,33.8353 157.487,47.6686 147.5,62.5C 146.833,62.5 146.5,62.8333 146.5,63.5C 145.448,63.6495 144.448,63.4828 143.5,63C 144.376,61.414 145.376,59.914 146.5,58.5C 140.202,57.5037 133.868,57.1703 127.5,57.5C 126.833,57.5 126.167,57.5 125.5,57.5C 117.048,55.8445 108.381,54.8445 99.5,54.5C 116.17,54.6666 132.837,54.4999 149.5,54C 152.383,50.6235 155.049,47.1235 157.5,43.5C 158.803,41.8577 160.136,40.1911 161.5,38.5C 163.547,36.4504 165.214,34.117 166.5,31.5C 168.701,31.1416 170.035,29.8083 170.5,27.5C 167.015,25.3273 163.349,23.6606 159.5,22.5C 153.534,17.5921 146.867,13.5921 139.5,10.5C 130.762,4.78133 121.428,3.94799 111.5,8C 107.139,10.5117 102.806,13.0117 98.5,15.5C 98.2965,13.6096 98.9632,12.1096 100.5,11C 104.85,9.81169 108.183,7.31169 110.5,3.5C 118.785,4.63622 127.118,4.80289 135.5,4C 134.167,3.33333 134.167,2.66667 135.5,2C 132.325,2.05334 129.658,1.22001 127.5,-0.5 Z"/></g>
<g><path style="opacity:1" fill="#4eaced" d="M 139.5,10.5 C 146.867,13.5921 153.534,17.5921 159.5,22.5C 159.5,23.5 159.5,24.5 159.5,25.5C 164.186,24.984 166.519,26.984 166.5,31.5C 164.831,33.1403 162.831,34.4737 160.5,35.5C 159.437,33.5653 158.103,31.8986 156.5,30.5C 158.5,30.5 160.5,30.5 162.5,30.5C 162.032,28.8662 161.032,27.6995 159.5,27C 156.383,28.178 153.05,28.5114 149.5,28C 144.89,24.8621 139.89,22.5288 134.5,21C 135.308,20.6924 135.975,20.1924 136.5,19.5C 133.363,16.8485 129.863,14.8485 126,13.5C 123.953,14.6094 121.787,15.2761 119.5,15.5C 119.5,16.5 119.5,17.5 119.5,18.5C 115.8,18.9215 112.133,19.5881 108.5,20.5C 104.888,24.4665 100.555,27.1331 95.5,28.5C 95.5,29.5 95.5,30.5 95.5,31.5C 92.3357,31.5658 89.5024,32.5658 87,34.5C 86.228,34.3552 85.5613,34.0219 85,33.5C 84.3333,31.8333 84.3333,30.1667 85,28.5C 88.3654,26.2985 91.1987,23.6318 93.5,20.5C 94.6473,20.8178 95.4806,21.4844 96,22.5C 98.9133,19.9126 102.08,17.746 105.5,16C 103.355,15.2569 103.189,14.4235 105,13.5C 107.099,12.7135 109.266,12.3801 111.5,12.5C 111.281,11.325 111.614,10.325 112.5,9.5C 119.048,7.62747 125.715,7.12747 132.5,8C 134.321,10.1366 136.654,10.9699 139.5,10.5 Z"/></g>
<g><path style="opacity:1" fill="#69aedb" d="M 139.5,10.5 C 136.654,10.9699 134.321,10.1366 132.5,8C 125.715,7.12747 119.048,7.62747 112.5,9.5C 111.614,10.325 111.281,11.325 111.5,12.5C 109.266,12.3801 107.099,12.7135 105,13.5C 103.189,14.4235 103.355,15.2569 105.5,16C 102.08,17.746 98.9133,19.9126 96,22.5C 95.4806,21.4844 94.6473,20.8178 93.5,20.5C 91.1987,23.6318 88.3654,26.2985 85,28.5C 84.3333,30.1667 84.3333,31.8333 85,33.5C 85.5613,34.0219 86.228,34.3552 87,34.5C 89.5024,32.5658 92.3357,31.5658 95.5,31.5C 92.8333,33.8333 90.1667,36.1667 87.5,38.5C 85.233,35.7291 82.733,33.0625 80,30.5C 79.3333,29.1667 79.3333,27.8333 80,26.5C 86.2769,22.9478 92.4436,19.2812 98.5,15.5C 102.806,13.0117 107.139,10.5117 111.5,8C 121.428,3.94799 130.762,4.78133 139.5,10.5 Z"/></g>
<g><path style="opacity:1" fill="#226177" d="M 191.5,37.5 C 191.5,38.8333 191.5,40.1667 191.5,41.5C 193.741,51.3751 195.075,61.3751 195.5,71.5C 195.423,76.0252 195.09,80.5252 194.5,85C 194.141,87.5459 193.141,89.7126 191.5,91.5C 191.831,84.1365 191.497,76.8032 190.5,69.5C 188.364,68.5276 187.197,66.8609 187,64.5C 188.054,52.4965 186.887,40.8299 183.5,29.5C 182.883,29.3893 182.383,29.056 182,28.5C 178.689,31.6094 176.522,35.2761 175.5,39.5C 174.325,39.281 173.325,39.6143 172.5,40.5C 170.458,43.2089 168.124,45.5422 165.5,47.5C 162.906,50.223 159.74,52.223 156,53.5C 154.263,56.3972 152.763,59.3972 151.5,62.5C 152.325,63.3857 153.325,63.719 154.5,63.5C 154.649,64.552 154.483,65.552 154,66.5C 152,65.8333 150.667,64.5 150,62.5C 149.023,63.7736 148.189,63.7736 147.5,62.5C 157.487,47.6686 168.82,33.8353 181.5,21C 182.784,20.3162 183.951,20.4829 185,21.5C 186.943,27.0357 189.11,32.369 191.5,37.5 Z"/></g>
<g><path style="opacity:1" fill="#59a6da" d="M 166.5,31.5 C 165.214,34.117 163.547,36.4504 161.5,38.5C 157.493,34.8255 152.827,32.1588 147.5,30.5C 140.776,24.795 133.109,20.795 124.5,18.5C 122.133,18.8417 119.8,19.3417 117.5,20C 111.016,23.6649 104.683,27.4982 98.5,31.5C 97.5,31.5 96.5,31.5 95.5,31.5C 95.5,30.5 95.5,29.5 95.5,28.5C 100.555,27.1331 104.888,24.4665 108.5,20.5C 112.133,19.5881 115.8,18.9215 119.5,18.5C 119.5,17.5 119.5,16.5 119.5,15.5C 121.787,15.2761 123.953,14.6094 126,13.5C 129.863,14.8485 133.363,16.8485 136.5,19.5C 135.975,20.1924 135.308,20.6924 134.5,21C 139.89,22.5288 144.89,24.8621 149.5,28C 153.05,28.5114 156.383,28.178 159.5,27C 161.032,27.6995 162.032,28.8662 162.5,30.5C 160.5,30.5 158.5,30.5 156.5,30.5C 158.103,31.8986 159.437,33.5653 160.5,35.5C 162.831,34.4737 164.831,33.1403 166.5,31.5 Z"/></g>
<g><path style="opacity:1" fill="#06264b" d="M 147.5,30.5 C 147.083,31.1239 146.416,31.4573 145.5,31.5C 141.234,29.0289 136.901,26.5289 132.5,24C 127.492,24.5816 122.492,24.4149 117.5,23.5C 115.627,23.4823 115.294,23.9823 116.5,25C 118.833,25.3333 121.167,25.6667 123.5,26C 123.167,26.3333 122.833,26.6667 122.5,27C 125.818,27.8792 129.152,28.7125 132.5,29.5C 132.709,30.086 133.043,30.586 133.5,31C 128.833,31.6667 124.167,31.6667 119.5,31C 116.715,29.6055 113.715,28.7721 110.5,28.5C 106.94,30.7236 102.94,31.7236 98.5,31.5C 104.683,27.4982 111.016,23.6649 117.5,20C 119.8,19.3417 122.133,18.8417 124.5,18.5C 133.109,20.795 140.776,24.795 147.5,30.5 Z"/></g>
<g><path style="opacity:1" fill="#6faad6" d="M 159.5,22.5 C 163.349,23.6606 167.015,25.3273 170.5,27.5C 170.035,29.8083 168.701,31.1416 166.5,31.5C 166.519,26.984 164.186,24.984 159.5,25.5C 159.5,24.5 159.5,23.5 159.5,22.5 Z"/></g>
<g><path style="opacity:1" fill="#f4f4ec" d="M 59.5,31.5 C 56.2012,43.9593 54.2012,56.626 53.5,69.5C 52.8367,71.6413 52.5034,73.9746 52.5,76.5C 52.3148,80.1411 52.9814,83.4744 54.5,86.5C 56.1054,89.3777 57.4388,92.3777 58.5,95.5C 58.6716,96.4916 58.3382,97.1583 57.5,97.5C 57.5,96.8333 57.1667,96.5 56.5,96.5C 50.5091,84.5536 48.8425,71.8869 51.5,58.5C 52.4062,52.8248 53.4062,47.1581 54.5,41.5C 54.719,40.325 54.3857,39.325 53.5,38.5C 49.0922,41.2586 47.9256,40.2586 50,35.5C 51.2504,36.5733 52.5838,36.5733 54,35.5C 55.2502,33.2942 57.0835,31.9609 59.5,31.5 Z"/></g>
<g><path style="opacity:1" fill="#995622" d="M 85.5,41.5 C 83.0374,39.0965 80.0374,37.4299 76.5,36.5C 76.1654,31.1065 73.4987,27.7732 68.5,26.5C 68.2542,23.5299 66.5876,22.1966 63.5,22.5C 63.811,21.5222 64.4777,20.8555 65.5,20.5C 73.5871,26.2512 80.2538,33.2512 85.5,41.5 Z"/></g>
<g><path style="opacity:1" fill="#052b4c" d="M 147.5,30.5 C 152.827,32.1588 157.493,34.8255 161.5,38.5C 160.136,40.1911 158.803,41.8577 157.5,43.5C 156.25,43.5774 155.417,44.244 155,45.5C 154.667,45.1667 154.333,44.8333 154,44.5C 152.908,48.4305 150.408,50.4305 146.5,50.5C 146.5,49.5 146.5,48.5 146.5,47.5C 147.552,47.6495 148.552,47.4828 149.5,47C 147.833,46.1667 146.167,45.3333 144.5,44.5C 143.614,45.325 143.281,46.325 143.5,47.5C 135.452,47.5057 127.452,48.1724 119.5,49.5C 115.286,49.1191 111.119,48.4524 107,47.5C 105.5,47.6667 104,47.8333 102.5,48C 105.107,50.1049 108.107,50.9383 111.5,50.5C 111.5,51.5 111.5,52.5 111.5,53.5C 107.818,53.6653 104.152,53.4986 100.5,53C 99.6667,52.1667 98.8333,51.3333 98,50.5C 97.6012,50.7284 97.4346,51.0618 97.5,51.5C 94.1976,47.1907 90.8643,42.8574 87.5,38.5C 90.1667,36.1667 92.8333,33.8333 95.5,31.5C 96.5,31.5 97.5,31.5 98.5,31.5C 102.94,31.7236 106.94,30.7236 110.5,28.5C 113.715,28.7721 116.715,29.6055 119.5,31C 124.167,31.6667 128.833,31.6667 133.5,31C 133.043,30.586 132.709,30.086 132.5,29.5C 129.152,28.7125 125.818,27.8792 122.5,27C 122.833,26.6667 123.167,26.3333 123.5,26C 121.167,25.6667 118.833,25.3333 116.5,25C 115.294,23.9823 115.627,23.4823 117.5,23.5C 122.492,24.4149 127.492,24.5816 132.5,24C 136.901,26.5289 141.234,29.0289 145.5,31.5C 146.416,31.4573 147.083,31.1239 147.5,30.5 Z"/></g>
<g><path style="opacity:1" fill="#803201" d="M 86.5,51.5 C 88.5293,56.2241 91.5293,60.2241 95.5,63.5C 95.6495,64.552 95.4828,65.552 95,66.5C 91.9474,68.4301 89.4474,70.9301 87.5,74C 85.9656,74.923 84.299,75.423 82.5,75.5C 77.3557,73.4518 73.3557,74.7851 70.5,79.5C 69.2798,80.7111 68.1131,80.7111 67,79.5C 61.0698,62.4249 61.0698,45.4249 67,28.5C 68.883,29.6526 69.7163,31.3193 69.5,33.5C 70.675,33.281 71.675,33.6143 72.5,34.5C 76.4645,40.7929 81.1312,46.4595 86.5,51.5 Z"/></g>
<g><path style="opacity:1" fill="#1e71a2" d="M 183.5,29.5 C 183.869,36.6894 184.536,43.8561 185.5,51C 184.97,55.2102 184.304,59.3768 183.5,63.5C 180.206,63.0195 177.372,61.6861 175,59.5C 173.117,62.0244 170.617,63.3577 167.5,63.5C 165.393,60.804 163.393,57.9707 161.5,55C 163.523,52.8251 164.857,50.3251 165.5,47.5C 168.124,45.5422 170.458,43.2089 172.5,40.5C 173.325,39.6143 174.325,39.281 175.5,39.5C 176.522,35.2761 178.689,31.6094 182,28.5C 182.383,29.056 182.883,29.3893 183.5,29.5 Z"/></g>
<g><path style="opacity:1" fill="#0a314b" d="M 157.5,43.5 C 155.049,47.1235 152.383,50.6235 149.5,54C 132.837,54.4999 116.17,54.6666 99.5,54.5C 99.1667,54.5 98.8333,54.5 98.5,54.5C 98.4431,53.391 98.1098,52.391 97.5,51.5C 97.4346,51.0618 97.6012,50.7284 98,50.5C 98.8333,51.3333 99.6667,52.1667 100.5,53C 104.152,53.4986 107.818,53.6653 111.5,53.5C 111.5,52.5 111.5,51.5 111.5,50.5C 108.107,50.9383 105.107,50.1049 102.5,48C 104,47.8333 105.5,47.6667 107,47.5C 111.119,48.4524 115.286,49.1191 119.5,49.5C 127.452,48.1724 135.452,47.5057 143.5,47.5C 143.281,46.325 143.614,45.325 144.5,44.5C 146.167,45.3333 147.833,46.1667 149.5,47C 148.552,47.4828 147.552,47.6495 146.5,47.5C 146.5,48.5 146.5,49.5 146.5,50.5C 150.408,50.4305 152.908,48.4305 154,44.5C 154.333,44.8333 154.667,45.1667 155,45.5C 155.417,44.244 156.25,43.5774 157.5,43.5 Z"/></g>
<g><path style="opacity:1" fill="#5aade7" d="M 202.5,60.5 C 201.5,60.5 200.5,60.5 199.5,60.5C 199.5,59.8333 199.5,59.1667 199.5,58.5C 198.287,54.5621 197.287,50.5621 196.5,46.5C 197.833,45.1667 199.167,45.1667 200.5,46.5C 201.632,51.0913 202.299,55.7579 202.5,60.5 Z"/></g>
<g><path style="opacity:1" fill="#9c5118" d="M 85.5,41.5 C 89.2101,45.2079 92.5434,49.2079 95.5,53.5C 97.8333,56.8333 100.167,60.1667 102.5,63.5C 101.167,63.5 99.8333,63.5 98.5,63.5C 98.4822,58.4669 96.1489,56.4669 91.5,57.5C 93.2776,59.264 94.6109,61.264 95.5,63.5C 91.5293,60.2241 88.5293,56.2241 86.5,51.5C 87.7498,51.5774 88.5831,52.244 89,53.5C 89.9666,50.0636 88.9666,47.3969 86,45.5C 85.51,44.2068 85.3433,42.8734 85.5,41.5 Z"/></g>
<g><path style="opacity:1" fill="#d4ebf0" d="M 191.5,41.5 C 192.222,41.9175 192.722,42.5842 193,43.5C 194.65,40.894 196.15,40.894 197.5,43.5C 196.307,43.9704 195.64,44.9704 195.5,46.5C 196.298,50.4893 196.965,54.4893 197.5,58.5C 198.49,66.4772 198.657,74.4772 198,82.5C 196.979,87.5338 195.145,92.2005 192.5,96.5C 191.075,98.0311 190.409,97.6977 190.5,95.5C 190.833,94.1667 191.167,92.8333 191.5,91.5C 193.141,89.7126 194.141,87.5459 194.5,85C 195.09,80.5252 195.423,76.0252 195.5,71.5C 195.075,61.3751 193.741,51.3751 191.5,41.5 Z"/></g>
<g><path style="opacity:1" fill="#65b9ea" d="M 197.5,43.5 C 205.947,48.0475 214.28,52.8808 222.5,58C 225.111,61.0896 227.445,64.2563 229.5,67.5C 229.5,68.8333 229.5,70.1667 229.5,71.5C 229.5,79.5 229.5,87.5 229.5,95.5C 228.167,95.5 226.833,95.5 225.5,95.5C 225.5,88.5 225.5,81.5 225.5,74.5C 223.05,74.702 220.717,74.3686 218.5,73.5C 216.4,71.502 214.4,69.3353 212.5,67C 208.931,65.0583 205.598,62.8916 202.5,60.5C 202.299,55.7579 201.632,51.0913 200.5,46.5C 199.167,45.1667 197.833,45.1667 196.5,46.5C 197.287,50.5621 198.287,54.5621 199.5,58.5C 198.833,58.5 198.167,58.5 197.5,58.5C 196.965,54.4893 196.298,50.4893 195.5,46.5C 195.64,44.9704 196.307,43.9704 197.5,43.5 Z"/></g>
<g><path style="opacity:1" fill="#faebd8" d="M 95.5,53.5 C 96.609,53.5569 97.609,53.8902 98.5,54.5C 98.8333,54.5 99.1667,54.5 99.5,54.5C 108.381,54.8445 117.048,55.8445 125.5,57.5C 125.167,57.5 124.833,57.5 124.5,57.5C 124.167,57.5 123.833,57.5 123.5,57.5C 116.468,57.1697 109.468,57.503 102.5,58.5C 102.855,59.5223 103.522,60.189 104.5,60.5C 104.715,62.1788 104.048,63.1788 102.5,63.5C 100.167,60.1667 97.8333,56.8333 95.5,53.5 Z"/></g>
<g><path style="opacity:1" fill="#65b9e8" d="M 54.5,41.5 C 53.4062,47.1581 52.4062,52.8248 51.5,58.5C 49.9731,58.427 48.9731,59.0937 48.5,60.5C 42.0825,62.792 36.5825,66.4586 32,71.5C 30.8555,74.0804 30.0222,76.7471 29.5,79.5C 29.5,90.1667 29.5,100.833 29.5,111.5C 29.5,118.5 29.5,125.5 29.5,132.5C 28.5033,115.008 28.1699,97.3412 28.5,79.5C 27.5,79.5 26.5,79.5 25.5,79.5C 25.1667,90.1667 24.8333,100.833 24.5,111.5C 23.5,111.5 22.5,111.5 21.5,111.5C 21.488,100.641 20.8213,89.9742 19.5,79.5C 18.5233,76.7131 18.19,73.7131 18.5,70.5C 19.5,70.5 20.5,70.5 21.5,70.5C 22.0076,66.4939 23.3409,62.8273 25.5,59.5C 27.5755,57.2812 29.9088,55.2812 32.5,53.5C 40.1141,49.6603 47.4474,45.6603 54.5,41.5 Z"/></g>
<g><path style="opacity:1" fill="#9a531c" d="M 63.5,23.5 C 62.2424,31.6194 60.4091,39.6194 58,47.5C 57.4976,58.1926 56.6643,68.8592 55.5,79.5C 55.6066,82.567 56.1066,85.567 57,88.5C 59.2379,90.3091 60.4046,92.6424 60.5,95.5C 60.5,96.1667 60.1667,96.5 59.5,96.5C 59.5,95.8333 59.1667,95.5 58.5,95.5C 57.4388,92.3777 56.1054,89.3777 54.5,86.5C 53.7081,80.8698 53.3748,75.2031 53.5,69.5C 54.2012,56.626 56.2012,43.9593 59.5,31.5C 60.2852,28.5962 61.6185,25.9296 63.5,23.5 Z"/></g>
<g><path style="opacity:1" fill="#36a0c2" d="M 127.5,57.5 C 133.868,57.1703 140.202,57.5037 146.5,58.5C 145.376,59.914 144.376,61.414 143.5,63C 144.448,63.4828 145.448,63.6495 146.5,63.5C 145.909,64.1515 145.243,64.8182 144.5,65.5C 150.829,69.8393 156.829,74.506 162.5,79.5C 159.728,78.7655 157.061,78.5988 154.5,79C 153.41,76.4507 151.743,75.6174 149.5,76.5C 142.264,74.9687 134.93,74.3021 127.5,74.5C 127.706,70.1018 127.373,65.7685 126.5,61.5C 127.434,60.4324 127.768,59.099 127.5,57.5 Z"/></g>
<g><path style="opacity:1" fill="#ca6e19" d="M 122.5,133.5 C 119.385,134.812 116.385,136.478 113.5,138.5C 112.558,129.834 109.558,122 104.5,115C 88.6144,113.095 73.9477,107.928 60.5,99.5C 59.6143,98.675 59.281,97.675 59.5,96.5C 60.1667,96.5 60.5,96.1667 60.5,95.5C 61.1174,95.6107 61.6174,95.944 62,96.5C 70.0904,92.0569 77.2571,86.5569 83.5,80C 90.8321,76.3297 97.4988,71.663 103.5,66C 102.748,65.3292 102.414,64.4959 102.5,63.5C 104.048,63.1788 104.715,62.1788 104.5,60.5C 110.074,58.5467 116.074,57.88 122.5,58.5C 122.5,83.5 122.5,108.5 122.5,133.5 Z"/></g>
<g><path style="opacity:1" fill="#073a60" d="M 48.5,60.5 C 49.0967,60.7352 49.4301,61.2352 49.5,62C 47.6487,67.6479 46.982,73.4813 47.5,79.5C 44.0164,78.5308 41.183,76.5308 39,73.5C 36.6924,75.8396 34.1924,77.8396 31.5,79.5C 30.8333,79.5 30.1667,79.5 29.5,79.5C 30.0222,76.7471 30.8555,74.0804 32,71.5C 36.5825,66.4586 42.0825,62.792 48.5,60.5 Z"/></g>
<g><path style="opacity:1" fill="#a64b03" d="M 63.5,22.5 C 66.5876,22.1966 68.2542,23.5299 68.5,26.5C 73.4987,27.7732 76.1654,31.1065 76.5,36.5C 80.0374,37.4299 83.0374,39.0965 85.5,41.5C 85.3433,42.8734 85.51,44.2068 86,45.5C 88.9666,47.3969 89.9666,50.0636 89,53.5C 88.5831,52.244 87.7498,51.5774 86.5,51.5C 81.1312,46.4595 76.4645,40.7929 72.5,34.5C 71.675,33.6143 70.675,33.281 69.5,33.5C 69.7163,31.3193 68.883,29.6526 67,28.5C 61.0698,45.4249 61.0698,62.4249 67,79.5C 68.1131,80.7111 69.2798,80.7111 70.5,79.5C 73.3557,74.7851 77.3557,73.4518 82.5,75.5C 84.299,75.423 85.9656,74.923 87.5,74C 89.4474,70.9301 91.9474,68.4301 95,66.5C 95.4828,65.552 95.6495,64.552 95.5,63.5C 94.6109,61.264 93.2776,59.264 91.5,57.5C 96.1489,56.4669 98.4822,58.4669 98.5,63.5C 99.8333,63.5 101.167,63.5 102.5,63.5C 102.414,64.4959 102.748,65.3292 103.5,66C 97.4988,71.663 90.8321,76.3297 83.5,80C 77.2571,86.5569 70.0904,92.0569 62,96.5C 61.6174,95.944 61.1174,95.6107 60.5,95.5C 60.4046,92.6424 59.2379,90.3091 57,88.5C 56.1066,85.567 55.6066,82.567 55.5,79.5C 56.6643,68.8592 57.4976,58.1926 58,47.5C 60.4091,39.6194 62.2424,31.6194 63.5,23.5C 63.5,23.1667 63.5,22.8333 63.5,22.5 Z"/></g>
<g><path style="opacity:1" fill="#1c6988" d="M 183.5,29.5 C 186.887,40.8299 188.054,52.4965 187,64.5C 187.197,66.8609 188.364,68.5276 190.5,69.5C 191.497,76.8032 191.831,84.1365 191.5,91.5C 191.167,92.8333 190.833,94.1667 190.5,95.5C 189.833,96.5 189.167,97.5 188.5,98.5C 179.641,92.4741 170.974,86.1407 162.5,79.5C 156.829,74.506 150.829,69.8393 144.5,65.5C 145.243,64.8182 145.909,64.1515 146.5,63.5C 146.5,62.8333 146.833,62.5 147.5,62.5C 148.189,63.7736 149.023,63.7736 150,62.5C 150.667,64.5 152,65.8333 154,66.5C 154.483,65.552 154.649,64.552 154.5,63.5C 153.325,63.719 152.325,63.3857 151.5,62.5C 152.763,59.3972 154.263,56.3972 156,53.5C 159.74,52.223 162.906,50.223 165.5,47.5C 164.857,50.3251 163.523,52.8251 161.5,55C 163.393,57.9707 165.393,60.804 167.5,63.5C 165.473,63.3379 163.473,63.5045 161.5,64C 162.861,65.5843 163.528,67.4176 163.5,69.5C 162.167,69.5 160.833,69.5 159.5,69.5C 160.071,73.7221 162.571,75.7221 167,75.5C 168.707,75.3516 170.374,75.0182 172,74.5C 174.189,77.3502 177.022,79.3502 180.5,80.5C 181.944,78.3921 182.61,76.0588 182.5,73.5C 182.836,70.171 183.169,66.8377 183.5,63.5C 184.304,59.3768 184.97,55.2102 185.5,51C 184.536,43.8561 183.869,36.6894 183.5,29.5 Z"/></g>
<g><path style="opacity:1" fill="#0f4069" d="M 163.5,69.5 C 170.277,69.0159 176.611,70.3493 182.5,73.5C 182.61,76.0588 181.944,78.3921 180.5,80.5C 177.022,79.3502 174.189,77.3502 172,74.5C 170.374,75.0182 168.707,75.3516 167,75.5C 162.571,75.7221 160.071,73.7221 159.5,69.5C 160.833,69.5 162.167,69.5 163.5,69.5 Z"/></g>
<g><path style="opacity:1" fill="#1d5c8f" d="M 183.5,63.5 C 183.169,66.8377 182.836,70.171 182.5,73.5C 176.611,70.3493 170.277,69.0159 163.5,69.5C 163.528,67.4176 162.861,65.5843 161.5,64C 163.473,63.5045 165.473,63.3379 167.5,63.5C 170.617,63.3577 173.117,62.0244 175,59.5C 177.372,61.6861 180.206,63.0195 183.5,63.5 Z"/></g>
<g><path style="opacity:1" fill="#0d4161" d="M 51.5,58.5 C 48.8425,71.8869 50.5091,84.5536 56.5,96.5C 55.6167,99.7043 53.9501,102.371 51.5,104.5C 50.9603,101.313 51.9603,98.8135 54.5,97C 53.3263,93.0762 51.493,90.2429 49,88.5C 48.6258,89.4162 48.1258,90.2496 47.5,91C 42.1771,91.4994 36.8437,91.666 31.5,91.5C 31.5,87.5 31.5,83.5 31.5,79.5C 34.1924,77.8396 36.6924,75.8396 39,73.5C 41.183,76.5308 44.0164,78.5308 47.5,79.5C 46.982,73.4813 47.6487,67.6479 49.5,62C 49.4301,61.2352 49.0967,60.7352 48.5,60.5C 48.9731,59.0937 49.9731,58.427 51.5,58.5 Z"/></g>
<g><path style="opacity:1" fill="#3294b9" d="M 126.5,61.5 C 127.373,65.7685 127.706,70.1018 127.5,74.5C 134.93,74.3021 142.264,74.9687 149.5,76.5C 151.743,75.6174 153.41,76.4507 154.5,79C 157.061,78.5988 159.728,78.7655 162.5,79.5C 170.974,86.1407 179.641,92.4741 188.5,98.5C 185.672,100.748 182.672,102.748 179.5,104.5C 178.395,105.6 177.062,106.267 175.5,106.5C 175.5,105.167 175.5,103.833 175.5,102.5C 170.818,101.76 166.318,100.427 162,98.5C 159.853,98.9559 157.686,99.2893 155.5,99.5C 146.48,96.5377 137.146,95.2044 127.5,95.5C 127.167,74.1667 126.833,74.1667 126.5,95.5C 126.167,95.5 125.833,95.5 125.5,95.5C 125.172,83.9877 125.505,72.6544 126.5,61.5 Z"/></g>
<g><path style="opacity:1" fill="#dfbda1" d="M 53.5,69.5 C 53.3748,75.2031 53.7081,80.8698 54.5,86.5C 52.9814,83.4744 52.3148,80.1411 52.5,76.5C 52.5034,73.9746 52.8367,71.6413 53.5,69.5 Z"/></g>
<g><path style="opacity:1" fill="#6cc2ec" d="M 229.5,71.5 C 230.268,72.2625 230.768,73.2625 231,74.5C 231.5,92.1635 231.667,109.83 231.5,127.5C 231.167,127.5 230.833,127.5 230.5,127.5C 230.5,122.167 230.5,116.833 230.5,111.5C 228.167,111.5 225.833,111.5 223.5,111.5C 223.5,106.167 223.5,100.833 223.5,95.5C 222.5,95.5 221.5,95.5 220.5,95.5C 220.83,111.009 220.496,126.342 219.5,141.5C 219.5,130.167 219.5,118.833 219.5,107.5C 219.828,96.6536 219.494,85.9869 218.5,75.5C 218.5,74.8333 218.5,74.1667 218.5,73.5C 220.717,74.3686 223.05,74.702 225.5,74.5C 225.5,81.5 225.5,88.5 225.5,95.5C 226.833,95.5 228.167,95.5 229.5,95.5C 229.5,87.5 229.5,79.5 229.5,71.5 Z"/></g>
<g><path style="opacity:1" fill="#184460" d="M 197.5,58.5 C 198.167,58.5 198.833,58.5 199.5,58.5C 199.5,59.1667 199.5,59.8333 199.5,60.5C 200.305,72.1446 200.972,83.8113 201.5,95.5C 198.184,96.1494 196.184,98.1494 195.5,101.5C 193.75,100.341 192.75,98.674 192.5,96.5C 195.145,92.2005 196.979,87.5338 198,82.5C 198.657,74.4772 198.49,66.4772 197.5,58.5 Z"/></g>
<g><path style="opacity:1" fill="#ba762f" d="M 123.5,57.5 C 123.831,83.0055 123.498,108.339 122.5,133.5C 122.5,108.5 122.5,83.5 122.5,58.5C 116.074,57.88 110.074,58.5467 104.5,60.5C 103.522,60.189 102.855,59.5223 102.5,58.5C 109.468,57.503 116.468,57.1697 123.5,57.5 Z"/></g>
<g><path style="opacity:1" fill="#9c7a4c" d="M 123.5,57.5 C 123.833,57.5 124.167,57.5 124.5,57.5C 124.5,83.5 124.5,109.5 124.5,135.5C 124.5,135.833 124.5,136.167 124.5,136.5C 123.833,136.5 123.167,136.5 122.5,136.5C 119.669,137.079 117.336,138.412 115.5,140.5C 114.833,140.5 114.167,140.5 113.5,140.5C 113.5,140.167 113.5,139.833 113.5,139.5C 113.5,139.167 113.5,138.833 113.5,138.5C 116.385,136.478 119.385,134.812 122.5,133.5C 123.498,108.339 123.831,83.0055 123.5,57.5 Z"/></g>
<g><path style="opacity:1" fill="#094066" d="M 199.5,60.5 C 200.5,60.5 201.5,60.5 202.5,60.5C 205.598,62.8916 208.931,65.0583 212.5,67C 214.4,69.3353 216.4,71.502 218.5,73.5C 218.5,74.1667 218.5,74.8333 218.5,75.5C 217.307,77.0541 216.14,78.7208 215,80.5C 214.764,82.764 214.264,84.9307 213.5,87C 213.957,87.414 214.291,87.914 214.5,88.5C 211.69,89.1457 209.856,90.8124 209,93.5C 207.947,88.909 207.114,84.2424 206.5,79.5C 205.812,85.0522 205.146,90.5522 204.5,96C 205.089,97.8733 204.422,99.54 202.5,101C 203.051,102.398 203.384,103.732 203.5,105C 201.527,105.495 199.527,105.662 197.5,105.5C 196.833,104.167 196.167,102.833 195.5,101.5C 196.184,98.1494 198.184,96.1494 201.5,95.5C 200.972,83.8113 200.305,72.1446 199.5,60.5 Z"/></g>
<g><path style="opacity:1" fill="#c59d7a" d="M 56.5,96.5 C 57.1667,96.5 57.5,96.8333 57.5,97.5C 54.4806,103.539 51.4806,109.539 48.5,115.5C 49.1224,111.717 50.1224,108.05 51.5,104.5C 53.9501,102.371 55.6167,99.7043 56.5,96.5 Z"/></g>
<g><path style="opacity:1" fill="#3086ae" d="M 175.5,106.5 C 165.398,110.023 155.065,112.857 144.5,115C 141.936,119.393 139.603,123.893 137.5,128.5C 137.167,128.5 136.833,128.5 136.5,128.5C 135.752,126.416 135.752,124.416 136.5,122.5C 134.244,121.579 133.244,119.912 133.5,117.5C 131.5,117.5 129.5,117.5 127.5,117.5C 127.666,121.846 127.499,126.179 127,130.5C 126.5,118.838 126.333,107.171 126.5,95.5C 126.833,74.1667 127.167,74.1667 127.5,95.5C 137.146,95.2044 146.48,96.5377 155.5,99.5C 157.686,99.2893 159.853,98.9559 162,98.5C 166.318,100.427 170.818,101.76 175.5,102.5C 175.5,103.833 175.5,105.167 175.5,106.5 Z"/></g>
<g><path style="opacity:1" fill="#0e4a6d" d="M 29.5,79.5 C 30.1667,79.5 30.8333,79.5 31.5,79.5C 31.5,83.5 31.5,87.5 31.5,91.5C 36.8437,91.666 42.1771,91.4994 47.5,91C 48.1258,90.2496 48.6258,89.4162 49,88.5C 51.493,90.2429 53.3263,93.0762 54.5,97C 51.9603,98.8135 50.9603,101.313 51.5,104.5C 50.1224,108.05 49.1224,111.717 48.5,115.5C 48.5,116.167 48.1667,116.5 47.5,116.5C 46.1779,116.33 45.0113,116.663 44,117.5C 43.8267,123.016 43.3267,128.349 42.5,133.5C 42.5,132.5 42.5,131.5 42.5,130.5C 43.1684,124.776 42.1684,119.443 39.5,114.5C 39.7093,113.914 40.0426,113.414 40.5,113C 38.7505,111.681 36.7505,111.181 34.5,111.5C 33.3856,116.629 32.719,116.629 32.5,111.5C 31.5,111.5 30.5,111.5 29.5,111.5C 29.5,100.833 29.5,90.1667 29.5,79.5 Z"/></g>
<g><path style="opacity:1" fill="#57caeb" d="M 190.5,95.5 C 190.409,97.6977 191.075,98.0311 192.5,96.5C 192.75,98.674 193.75,100.341 195.5,101.5C 196.167,102.833 196.833,104.167 197.5,105.5C 198.11,106.391 198.443,107.391 198.5,108.5C 198.5,109.167 198.5,109.833 198.5,110.5C 197.5,110.5 196.5,110.5 195.5,110.5C 195.649,109.448 195.483,108.448 195,107.5C 193.302,108.733 191.302,109.4 189,109.5C 186.135,109.316 183.302,108.982 180.5,108.5C 180.768,106.901 180.434,105.568 179.5,104.5C 182.672,102.748 185.672,100.748 188.5,98.5C 189.167,97.5 189.833,96.5 190.5,95.5 Z"/></g>
<g><path style="opacity:1" fill="#7debfd" d="M 179.5,104.5 C 180.434,105.568 180.768,106.901 180.5,108.5C 183.302,108.982 186.135,109.316 189,109.5C 191.302,109.4 193.302,108.733 195,107.5C 195.483,108.448 195.649,109.448 195.5,110.5C 196.5,110.5 197.5,110.5 198.5,110.5C 199.167,110.5 199.5,110.833 199.5,111.5C 199.5,111.833 199.5,112.167 199.5,112.5C 193.194,111.419 186.861,110.919 180.5,111C 179.751,112.734 179.251,114.567 179,116.5C 178.393,112.463 178.56,108.463 179.5,104.5 Z"/></g>
<g><path style="opacity:1" fill="#fba256" d="M 58.5,95.5 C 59.1667,95.5 59.5,95.8333 59.5,96.5C 59.281,97.675 59.6143,98.675 60.5,99.5C 73.9477,107.928 88.6144,113.095 104.5,115C 109.558,122 112.558,129.834 113.5,138.5C 113.5,138.833 113.5,139.167 113.5,139.5C 112.325,139.719 111.325,139.386 110.5,138.5C 111.724,136.161 111.724,133.828 110.5,131.5C 109.588,133.743 107.922,134.743 105.5,134.5C 102.1,133.303 98.7662,131.803 95.5,130C 93.1902,129.503 90.8568,129.337 88.5,129.5C 84.5392,128.452 80.5392,127.952 76.5,128C 74.0748,132.032 75.0748,135.199 79.5,137.5C 79.5,138.5 79.5,139.5 79.5,140.5C 82.3181,141.97 85.3181,142.97 88.5,143.5C 89.8333,144.167 91.1667,144.833 92.5,145.5C 93.5,146.167 94.5,146.833 95.5,147.5C 97.6581,149.22 100.325,150.053 103.5,150C 101.773,152.904 101.107,156.07 101.5,159.5C 101.167,159.5 100.833,159.5 100.5,159.5C 99.5028,159.47 98.8361,159.97 98.5,161C 97.9097,163.196 97.2431,165.362 96.5,167.5C 95.8333,167.833 95.1667,168.167 94.5,168.5C 91.895,167.231 89.5616,165.564 87.5,163.5C 87.5,163.167 87.5,162.833 87.5,162.5C 86.5446,158.211 83.8779,156.211 79.5,156.5C 77.58,155.935 75.9133,154.935 74.5,153.5C 74.0472,152.542 73.3805,151.708 72.5,151C 67.8372,150.463 63.1706,149.963 58.5,149.5C 54.7604,149.876 51.0938,150.543 47.5,151.5C 47.5,151.167 47.5,150.833 47.5,150.5C 45.7217,146.435 45.0551,142.101 45.5,137.5C 45.5,134.833 45.5,132.167 45.5,129.5C 45.5,128.833 45.5,128.167 45.5,127.5C 47.3079,126.082 47.9746,124.082 47.5,121.5C 47.5,119.833 47.5,118.167 47.5,116.5C 48.1667,116.5 48.5,116.167 48.5,115.5C 51.4806,109.539 54.4806,103.539 57.5,97.5C 58.3382,97.1583 58.6716,96.4916 58.5,95.5 Z"/></g>
<g><path style="opacity:1" fill="#094a6d" d="M 218.5,75.5 C 219.494,85.9869 219.828,96.6536 219.5,107.5C 217.949,111.9 217.116,116.566 217,121.5C 216.957,118.783 215.957,118.116 214,119.5C 211.861,118.764 209.861,117.764 208,116.5C 207.529,118.246 206.862,119.913 206,121.5C 204.054,118.861 203.054,115.861 203,112.5C 202.5,111.333 201.667,110.5 200.5,110C 200.833,109.667 201.167,109.333 201.5,109C 200.552,108.517 199.552,108.351 198.5,108.5C 198.443,107.391 198.11,106.391 197.5,105.5C 199.527,105.662 201.527,105.495 203.5,105C 203.384,103.732 203.051,102.398 202.5,101C 204.422,99.54 205.089,97.8733 204.5,96C 205.146,90.5522 205.812,85.0522 206.5,79.5C 207.114,84.2424 207.947,88.909 209,93.5C 209.856,90.8124 211.69,89.1457 214.5,88.5C 214.291,87.914 213.957,87.414 213.5,87C 214.264,84.9307 214.764,82.764 215,80.5C 216.14,78.7208 217.307,77.0541 218.5,75.5 Z"/></g>
<g><path style="opacity:1" fill="#637a73" d="M 124.5,57.5 C 124.833,57.5 125.167,57.5 125.5,57.5C 126.167,57.5 126.833,57.5 127.5,57.5C 127.768,59.099 127.434,60.4324 126.5,61.5C 125.505,72.6544 125.172,83.9877 125.5,95.5C 125.829,109.01 125.496,122.344 124.5,135.5C 124.5,109.5 124.5,83.5 124.5,57.5 Z"/></g>
<g><path style="opacity:1" fill="#77cdf1" d="M 230.5,127.5 C 229.725,132.797 229.392,138.13 229.5,143.5C 228.5,143.5 227.5,143.5 226.5,143.5C 226.932,137.996 226.265,132.663 224.5,127.5C 224.063,134.021 222.896,140.354 221,146.5C 220.83,155.343 220.33,164.01 219.5,172.5C 219.5,165.5 219.5,158.5 219.5,151.5C 219.5,148.167 219.5,144.833 219.5,141.5C 220.496,126.342 220.83,111.009 220.5,95.5C 221.5,95.5 222.5,95.5 223.5,95.5C 223.5,100.833 223.5,106.167 223.5,111.5C 225.833,111.5 228.167,111.5 230.5,111.5C 230.5,116.833 230.5,122.167 230.5,127.5 Z"/></g>
<g><path style="opacity:1" fill="#08547b" d="M 29.5,111.5 C 30.5,111.5 31.5,111.5 32.5,111.5C 32.719,116.629 33.3856,116.629 34.5,111.5C 36.7505,111.181 38.7505,111.681 40.5,113C 40.0426,113.414 39.7093,113.914 39.5,114.5C 42.1684,119.443 43.1684,124.776 42.5,130.5C 41.6467,135.804 40.48,135.804 39,130.5C 38.6667,130.833 38.3333,131.167 38,131.5C 37.5012,135.486 37.3345,139.486 37.5,143.5C 36.5,143.5 35.5,143.5 34.5,143.5C 34.5,138.167 34.5,132.833 34.5,127.5C 33.5,127.5 32.5,127.5 31.5,127.5C 31.5,132.167 31.5,136.833 31.5,141.5C 30.8333,139.5 30.1667,137.5 29.5,135.5C 29.5,134.5 29.5,133.5 29.5,132.5C 29.5,125.5 29.5,118.5 29.5,111.5 Z"/></g>
<g><path style="opacity:1" fill="#2c4f59" d="M 47.5,116.5 C 47.5,118.167 47.5,119.833 47.5,121.5C 45.9261,123.102 45.2594,125.102 45.5,127.5C 45.5,128.167 45.5,128.833 45.5,129.5C 43.5048,135.434 43.1715,141.434 44.5,147.5C 44.5569,148.609 44.8902,149.609 45.5,150.5C 45.8333,151.833 46.1667,153.167 46.5,154.5C 44.8639,153.251 43.6972,151.584 43,149.5C 42.5006,144.177 42.334,138.844 42.5,133.5C 43.3267,128.349 43.8267,123.016 44,117.5C 45.0113,116.663 46.1779,116.33 47.5,116.5 Z"/></g>
<g><path style="opacity:1" fill="#54c2e9" d="M 179.5,104.5 C 178.56,108.463 178.393,112.463 179,116.5C 179.251,114.567 179.751,112.734 180.5,111C 186.861,110.919 193.194,111.419 199.5,112.5C 199.859,114.766 199.192,116.599 197.5,118C 197.957,118.414 198.291,118.914 198.5,119.5C 195.324,120.997 192.658,120.33 190.5,117.5C 190.167,118.167 189.833,118.833 189.5,119.5C 191.145,123.32 191.811,127.32 191.5,131.5C 192.822,131.33 193.989,131.663 195,132.5C 197.372,136.858 198.038,141.524 197,146.5C 195.275,147.464 193.441,148.131 191.5,148.5C 192.479,146.855 193.812,145.521 195.5,144.5C 196.452,142.955 196.785,141.288 196.5,139.5C 195.448,139.649 194.448,139.483 193.5,139C 192.61,136.419 190.943,135.086 188.5,135C 189.71,136.039 190.71,137.206 191.5,138.5C 189.313,138.017 187.313,138.017 185.5,138.5C 185.63,133.067 186.13,127.734 187,122.5C 185.301,121.594 183.467,121.261 181.5,121.5C 183.081,126.623 183.748,131.956 183.5,137.5C 182.691,136.531 181.691,135.698 180.5,135C 179.636,133.152 179.636,130.986 180.5,128.5C 178.768,124.758 177.602,121.092 177,117.5C 175.242,118.469 174.742,119.636 175.5,121C 173.286,122.273 170.953,123.273 168.5,124C 171.742,124.283 172.076,125.117 169.5,126.5C 168.452,125.617 167.285,124.95 166,124.5C 161.904,124.728 157.737,124.895 153.5,125C 149.365,126.588 145.532,128.755 142,131.5C 139.815,131.302 138.315,130.302 137.5,128.5C 139.603,123.893 141.936,119.393 144.5,115C 155.065,112.857 165.398,110.023 175.5,106.5C 177.062,106.267 178.395,105.6 179.5,104.5 Z"/></g>
<g><path style="opacity:1" fill="#7ae7fe" d="M 156.5,117.5 C 161.601,117.7 166.267,119.2 170.5,122C 166.446,121.375 162.446,120.208 158.5,118.5C 152.379,122.356 146.045,125.523 139.5,128C 145.095,124.209 150.761,120.709 156.5,117.5 Z"/></g>
<g><path style="opacity:1" fill="#32769b" d="M 125.5,95.5 C 125.833,95.5 126.167,95.5 126.5,95.5C 126.333,107.171 126.5,118.838 127,130.5C 127.499,126.179 127.666,121.846 127.5,117.5C 129.5,117.5 131.5,117.5 133.5,117.5C 133.244,119.912 134.244,121.579 136.5,122.5C 135.752,124.416 135.752,126.416 136.5,128.5C 136.044,132.664 135.378,136.664 134.5,140.5C 132.391,139.609 130.391,138.442 128.5,137C 127.207,136.51 125.873,136.343 124.5,136.5C 124.5,136.167 124.5,135.833 124.5,135.5C 125.496,122.344 125.829,109.01 125.5,95.5 Z"/></g>
<g><path style="opacity:1" fill="#898377" d="M 47.5,121.5 C 47.9746,124.082 47.3079,126.082 45.5,127.5C 45.2594,125.102 45.9261,123.102 47.5,121.5 Z"/></g>
<g><path style="opacity:1" fill="#76e6fb" d="M 185.5,138.5 C 184.508,138.672 183.842,138.338 183.5,137.5C 183.748,131.956 183.081,126.623 181.5,121.5C 183.467,121.261 185.301,121.594 187,122.5C 186.13,127.734 185.63,133.067 185.5,138.5 Z"/></g>
<g><path style="opacity:1" fill="#0a597f" d="M 219.5,107.5 C 219.5,118.833 219.5,130.167 219.5,141.5C 219.5,144.833 219.5,148.167 219.5,151.5C 218.778,151.918 218.278,152.584 218,153.5C 217.827,159.016 217.327,164.349 216.5,169.5C 216.5,163.5 216.5,157.5 216.5,151.5C 213.411,151.906 210.745,153.24 208.5,155.5C 207.958,152.214 206.958,149.214 205.5,146.5C 205.316,134.39 203.316,122.723 199.5,111.5C 199.5,110.833 199.167,110.5 198.5,110.5C 198.5,109.833 198.5,109.167 198.5,108.5C 199.552,108.351 200.552,108.517 201.5,109C 201.167,109.333 200.833,109.667 200.5,110C 201.667,110.5 202.5,111.333 203,112.5C 203.054,115.861 204.054,118.861 206,121.5C 206.862,119.913 207.529,118.246 208,116.5C 209.861,117.764 211.861,118.764 214,119.5C 215.957,118.116 216.957,118.783 217,121.5C 217.116,116.566 217.949,111.9 219.5,107.5 Z"/></g>
<g><path style="opacity:1" fill="#745b43" d="M 90.5,130.5 C 92.153,130.66 93.4863,131.326 94.5,132.5C 93.8333,133.167 93.1667,133.833 92.5,134.5C 92.1788,132.952 91.1788,132.285 89.5,132.5C 89.8333,131.833 90.1667,131.167 90.5,130.5 Z"/></g>
<g><path style="opacity:1" fill="#1d1719" d="M 88.5,129.5 C 88.8417,130.338 89.5084,130.672 90.5,130.5C 90.1667,131.167 89.8333,131.833 89.5,132.5C 89.1667,132.5 88.8333,132.5 88.5,132.5C 87.2099,130.86 85.5433,130.36 83.5,131C 82.3313,133.007 81.6646,135.173 81.5,137.5C 80.8333,137.5 80.1667,137.5 79.5,137.5C 75.0748,135.199 74.0748,132.032 76.5,128C 80.5392,127.952 84.5392,128.452 88.5,129.5 Z"/></g>
<g><path style="opacity:1" fill="#dde7ee" d="M 88.5,132.5 C 88.8333,132.5 89.1667,132.5 89.5,132.5C 91.1788,132.285 92.1788,132.952 92.5,134.5C 92.1667,135.167 91.8333,135.833 91.5,136.5C 90.5,136.5 89.5,136.5 88.5,136.5C 88.5,135.167 88.5,133.833 88.5,132.5 Z"/></g>
<g><path style="opacity:1" fill="#53b3df" d="M 183.5,137.5 C 183.842,138.338 184.508,138.672 185.5,138.5C 187.313,138.017 189.313,138.017 191.5,138.5C 191.664,141.187 191.497,143.854 191,146.5C 189.519,147.471 188.685,148.804 188.5,150.5C 182.378,150.28 176.712,151.78 171.5,155C 166.357,159.309 161.357,163.809 156.5,168.5C 155.944,164.807 157.278,162.14 160.5,160.5C 162.265,157.769 163.932,155.102 165.5,152.5C 163.5,152.5 161.5,152.5 159.5,152.5C 163.522,151.232 167.689,151.232 172,152.5C 173.642,152.022 174.809,151.022 175.5,149.5C 180.781,149.685 185.448,148.185 189.5,145C 188,142.833 186.167,141 184,139.5C 183.667,140.167 183.333,140.833 183,141.5C 180.667,140.587 178.834,139.087 177.5,137C 177.691,133.847 178.024,130.681 178.5,127.5C 177.5,127.5 176.5,127.5 175.5,127.5C 175.82,130.898 175.487,134.232 174.5,137.5C 172.585,139.071 171.585,141.071 171.5,143.5C 168.5,143.5 165.5,143.5 162.5,143.5C 165.103,142.256 167.436,140.589 169.5,138.5C 176.769,130.764 175.103,127.43 164.5,128.5C 162.141,129.176 159.808,130.009 157.5,131C 158.416,131.278 159.082,131.778 159.5,132.5C 158.5,132.5 157.5,132.5 156.5,132.5C 156.5,133.5 156.5,134.5 156.5,135.5C 155.596,134.791 155.263,133.791 155.5,132.5C 151.675,133.074 148.009,134.241 144.5,136C 142.302,137.878 142.136,140.045 144,142.5C 146.162,146.368 149.328,147.868 153.5,147C 155.287,145.681 157.287,144.848 159.5,144.5C 164.64,145.488 169.974,145.821 175.5,145.5C 175.5,146.5 175.5,147.5 175.5,148.5C 173.009,145.72 170.676,145.887 168.5,149C 159.838,149.655 151.172,150.155 142.5,150.5C 140.727,147.94 138.727,145.607 136.5,143.5C 135.833,142.5 135.167,141.5 134.5,140.5C 135.378,136.664 136.044,132.664 136.5,128.5C 136.833,128.5 137.167,128.5 137.5,128.5C 138.315,130.302 139.815,131.302 142,131.5C 145.532,128.755 149.365,126.588 153.5,125C 157.737,124.895 161.904,124.728 166,124.5C 167.285,124.95 168.452,125.617 169.5,126.5C 172.076,125.117 171.742,124.283 168.5,124C 170.953,123.273 173.286,122.273 175.5,121C 174.742,119.636 175.242,118.469 177,117.5C 177.602,121.092 178.768,124.758 180.5,128.5C 179.636,130.986 179.636,133.152 180.5,135C 181.691,135.698 182.691,136.531 183.5,137.5 Z"/></g>
<g><path style="opacity:1" fill="#94e0ea" d="M 159.5,132.5 C 160.686,133.705 160.686,135.039 159.5,136.5C 158.209,136.737 157.209,136.404 156.5,135.5C 156.5,134.5 156.5,133.5 156.5,132.5C 157.5,132.5 158.5,132.5 159.5,132.5 Z"/></g>
<g><path style="opacity:1" fill="#395b6c" d="M 88.5,132.5 C 88.5,133.833 88.5,135.167 88.5,136.5C 87.8485,137.091 87.1818,137.757 86.5,138.5C 84.9291,137.691 83.2624,137.357 81.5,137.5C 81.6646,135.173 82.3313,133.007 83.5,131C 85.5433,130.36 87.2099,130.86 88.5,132.5 Z"/></g>
<g><path style="opacity:1" fill="#22130b" d="M 96.5,133.5 C 100.114,134.573 103.447,136.24 106.5,138.5C 104.869,141.596 102.869,144.43 100.5,147C 98.8659,147.494 97.1992,147.66 95.5,147.5C 94.5,146.833 93.5,146.167 92.5,145.5C 96.8851,146.206 100.385,144.873 103,141.5C 103.299,137.797 101.466,135.964 97.5,136C 96.7476,135.329 96.4142,134.496 96.5,133.5 Z"/></g>
<g><path style="opacity:1" fill="#0a1930" d="M 169.5,138.5 C 167.972,137.198 166.972,135.531 166.5,133.5C 165.559,131.95 164.893,130.284 164.5,128.5C 175.103,127.43 176.769,130.764 169.5,138.5 Z"/></g>
<g><path style="opacity:1" fill="#3a637a" d="M 164.5,128.5 C 164.893,130.284 165.559,131.95 166.5,133.5C 166.5,134.833 166.5,136.167 166.5,137.5C 165.07,137.421 163.736,137.754 162.5,138.5C 161.735,137.388 160.735,136.721 159.5,136.5C 160.686,135.039 160.686,133.705 159.5,132.5C 159.082,131.778 158.416,131.278 157.5,131C 159.808,130.009 162.141,129.176 164.5,128.5 Z"/></g>
<g><path style="opacity:1" fill="#7fe4f7" d="M 191.5,148.5 C 190.167,149.5 190.167,150.5 191.5,151.5C 190.391,151.443 189.391,151.11 188.5,150.5C 188.685,148.804 189.519,147.471 191,146.5C 191.497,143.854 191.664,141.187 191.5,138.5C 190.71,137.206 189.71,136.039 188.5,135C 190.943,135.086 192.61,136.419 193.5,139C 194.448,139.483 195.448,139.649 196.5,139.5C 196.785,141.288 196.452,142.955 195.5,144.5C 193.812,145.521 192.479,146.855 191.5,148.5 Z"/></g>
<g><path style="opacity:1" fill="#50b7e6" d="M 199.5,111.5 C 203.316,122.723 205.316,134.39 205.5,146.5C 204.262,148.214 203.595,150.214 203.5,152.5C 202.833,153.5 202.167,154.5 201.5,155.5C 200.7,153.259 199.034,152.259 196.5,152.5C 195.081,151.549 193.415,151.216 191.5,151.5C 190.167,150.5 190.167,149.5 191.5,148.5C 193.441,148.131 195.275,147.464 197,146.5C 198.038,141.524 197.372,136.858 195,132.5C 193.989,131.663 192.822,131.33 191.5,131.5C 191.811,127.32 191.145,123.32 189.5,119.5C 189.833,118.833 190.167,118.167 190.5,117.5C 192.658,120.33 195.324,120.997 198.5,119.5C 198.291,118.914 197.957,118.414 197.5,118C 199.192,116.599 199.859,114.766 199.5,112.5C 199.5,112.167 199.5,111.833 199.5,111.5 Z"/></g>
<g><path style="opacity:1" fill="#ede1bc" d="M 122.5,136.5 C 122.586,137.496 122.252,138.329 121.5,139C 119.564,139.813 117.564,140.313 115.5,140.5C 117.336,138.412 119.669,137.079 122.5,136.5 Z"/></g>
<g><path style="opacity:1" fill="#79cdf0" d="M 19.5,79.5 C 20.8213,89.9742 21.488,100.641 21.5,111.5C 22.5,111.5 23.5,111.5 24.5,111.5C 24.8333,100.833 25.1667,90.1667 25.5,79.5C 26.5,79.5 27.5,79.5 28.5,79.5C 28.1699,97.3412 28.5033,115.008 29.5,132.5C 29.5,133.5 29.5,134.5 29.5,135.5C 29.5,148.167 29.5,160.833 29.5,173.5C 28.5307,165.666 27.6974,157.666 27,149.5C 26.6667,148.833 26.3333,148.167 26,147.5C 25.6667,148.833 25.3333,150.167 25,151.5C 24.8198,148.044 24.1532,144.711 23,141.5C 22.6667,142.833 22.3333,144.167 22,145.5C 21.8195,142.305 21.3195,139.305 20.5,136.5C 19.5133,117.576 19.18,98.5762 19.5,79.5 Z"/></g>
<g><path style="opacity:1" fill="#192a34" d="M 88.5,136.5 C 89.5,136.5 90.5,136.5 91.5,136.5C 93.1998,137.016 94.5331,138.016 95.5,139.5C 93.0956,140.843 90.7623,142.177 88.5,143.5C 85.3181,142.97 82.3181,141.97 79.5,140.5C 79.5,139.5 79.5,138.5 79.5,137.5C 80.1667,137.5 80.8333,137.5 81.5,137.5C 83.2624,137.357 84.9291,137.691 86.5,138.5C 87.1818,137.757 87.8485,137.091 88.5,136.5 Z"/></g>
<g><path style="opacity:1" fill="#0c2238" d="M 156.5,135.5 C 157.209,136.404 158.209,136.737 159.5,136.5C 160.735,136.721 161.735,137.388 162.5,138.5C 163.736,137.754 165.07,137.421 166.5,137.5C 166.5,136.167 166.5,134.833 166.5,133.5C 166.972,135.531 167.972,137.198 169.5,138.5C 167.436,140.589 165.103,142.256 162.5,143.5C 161.5,143.5 160.5,143.5 159.5,143.5C 159.5,143.833 159.5,144.167 159.5,144.5C 157.287,144.848 155.287,145.681 153.5,147C 149.328,147.868 146.162,146.368 144,142.5C 142.136,140.045 142.302,137.878 144.5,136C 148.009,134.241 151.675,133.074 155.5,132.5C 155.263,133.791 155.596,134.791 156.5,135.5 Z"/></g>
<g><path style="opacity:1" fill="#0b151d" d="M 159.5,143.5 C 155.837,144.112 152.17,144.279 148.5,144C 149.603,142.32 149.27,140.82 147.5,139.5C 149.177,137.324 151.011,135.324 153,133.5C 154.751,135.49 155.751,137.823 156,140.5C 157.729,140.974 158.895,141.974 159.5,143.5 Z"/></g>
<g><path style="opacity:1" fill="#4cb4ea" d="M 175.5,149.5 C 175.5,149.167 175.5,148.833 175.5,148.5C 175.5,147.5 175.5,146.5 175.5,145.5C 169.974,145.821 164.64,145.488 159.5,144.5C 159.5,144.167 159.5,143.833 159.5,143.5C 160.5,143.5 161.5,143.5 162.5,143.5C 165.5,143.5 168.5,143.5 171.5,143.5C 171.585,141.071 172.585,139.071 174.5,137.5C 175.487,134.232 175.82,130.898 175.5,127.5C 176.5,127.5 177.5,127.5 178.5,127.5C 178.024,130.681 177.691,133.847 177.5,137C 178.834,139.087 180.667,140.587 183,141.5C 183.333,140.833 183.667,140.167 184,139.5C 186.167,141 188,142.833 189.5,145C 185.448,148.185 180.781,149.685 175.5,149.5 Z"/></g>
<g><path style="opacity:1" fill="#0e0f1c" d="M 94.5,132.5 C 95.1667,132.833 95.8333,133.167 96.5,133.5C 96.4142,134.496 96.7476,135.329 97.5,136C 101.466,135.964 103.299,137.797 103,141.5C 100.385,144.873 96.8851,146.206 92.5,145.5C 91.1667,144.833 89.8333,144.167 88.5,143.5C 90.7623,142.177 93.0956,140.843 95.5,139.5C 94.5331,138.016 93.1998,137.016 91.5,136.5C 91.8333,135.833 92.1667,135.167 92.5,134.5C 93.1667,133.833 93.8333,133.167 94.5,132.5 Z"/></g>
<g><path style="opacity:1" fill="#a49a82" d="M 45.5,129.5 C 45.5,132.167 45.5,134.833 45.5,137.5C 44.5206,140.625 44.1872,143.958 44.5,147.5C 43.1715,141.434 43.5048,135.434 45.5,129.5 Z"/></g>
<g><path style="opacity:1" fill="#e2ac78" d="M 45.5,137.5 C 45.0551,142.101 45.7217,146.435 47.5,150.5C 46.8333,150.5 46.1667,150.5 45.5,150.5C 44.8902,149.609 44.5569,148.609 44.5,147.5C 44.1872,143.958 44.5206,140.625 45.5,137.5 Z"/></g>
<g><path style="opacity:1" fill="#f0a662" d="M 88.5,129.5 C 90.8568,129.337 93.1902,129.503 95.5,130C 98.7662,131.803 102.1,133.303 105.5,134.5C 107.922,134.743 109.588,133.743 110.5,131.5C 111.724,133.828 111.724,136.161 110.5,138.5C 111.325,139.386 112.325,139.719 113.5,139.5C 113.5,139.833 113.5,140.167 113.5,140.5C 112.833,142.167 112.167,143.833 111.5,145.5C 110.5,145.833 109.833,146.5 109.5,147.5C 105.585,150.734 102.919,154.734 101.5,159.5C 101.107,156.07 101.773,152.904 103.5,150C 100.325,150.053 97.6581,149.22 95.5,147.5C 97.1992,147.66 98.8659,147.494 100.5,147C 102.869,144.43 104.869,141.596 106.5,138.5C 103.447,136.24 100.114,134.573 96.5,133.5C 95.8333,133.167 95.1667,132.833 94.5,132.5C 93.4863,131.326 92.153,130.66 90.5,130.5C 89.5084,130.672 88.8417,130.338 88.5,129.5 Z"/></g>
<g><path style="opacity:1" fill="#d6faf8" d="M 122.5,136.5 C 123.167,136.5 123.833,136.5 124.5,136.5C 125.873,136.343 127.207,136.51 128.5,137C 130.391,138.442 132.391,139.609 134.5,140.5C 135.167,141.5 135.833,142.5 136.5,143.5C 135.798,146.524 133.798,148.19 130.5,148.5C 129.692,148.192 129.025,147.692 128.5,147C 129.731,145.817 129.731,144.651 128.5,143.5C 127.52,146.086 127.187,148.753 127.5,151.5C 124.15,151.665 120.817,151.498 117.5,151C 115.383,149.231 113.383,147.398 111.5,145.5C 112.167,143.833 112.833,142.167 113.5,140.5C 114.167,140.5 114.833,140.5 115.5,140.5C 117.564,140.313 119.564,139.813 121.5,139C 122.252,138.329 122.586,137.496 122.5,136.5 Z"/></g>
<g><path style="opacity:1" fill="#85cee8" d="M 25.5,59.5 C 23.3409,62.8273 22.0076,66.4939 21.5,70.5C 20.5,70.5 19.5,70.5 18.5,70.5C 18.19,73.7131 18.5233,76.7131 19.5,79.5C 19.18,98.5762 19.5133,117.576 20.5,136.5C 20.6664,144.174 20.4997,151.841 20,159.5C 19.0682,151.523 18.4015,143.523 18,135.5C 17.5003,143.493 17.3336,151.493 17.5,159.5C 16.5021,132.338 16.1688,105.005 16.5,77.5C 16.6785,74.7835 17.1785,72.1168 18,69.5C 19.7911,65.5613 22.2911,62.228 25.5,59.5 Z"/></g>
<g><path style="opacity:1" fill="#77def7" d="M 175.5,148.5 C 175.5,148.833 175.5,149.167 175.5,149.5C 174.809,151.022 173.642,152.022 172,152.5C 167.689,151.232 163.522,151.232 159.5,152.5C 154.056,151.892 149.056,152.558 144.5,154.5C 143.655,153.329 142.989,151.995 142.5,150.5C 151.172,150.155 159.838,149.655 168.5,149C 170.676,145.887 173.009,145.72 175.5,148.5 Z"/></g>
<g><path style="opacity:1" fill="#f8fcfb" d="M 136.5,143.5 C 138.727,145.607 140.727,147.94 142.5,150.5C 142.989,151.995 143.655,153.329 144.5,154.5C 148.385,159.809 150.718,165.809 151.5,172.5C 153.299,176.903 153.966,181.57 153.5,186.5C 152.704,191.299 150.037,194.633 145.5,196.5C 140.678,195.002 136.678,192.336 133.5,188.5C 140.612,185.173 142.612,180.007 139.5,173C 134.325,171.832 129.158,170.665 124,169.5C 118.29,170.182 112.956,171.849 108,174.5C 107.101,181.038 109.601,185.704 115.5,188.5C 112.507,192.664 108.507,195.331 103.5,196.5C 96.8003,192.419 94.1337,186.419 95.5,178.5C 95.5,177.167 95.5,175.833 95.5,174.5C 100.417,172.649 102.584,168.982 102,163.5C 104.664,158.308 107.164,152.975 109.5,147.5C 109.833,146.5 110.5,145.833 111.5,145.5C 113.383,147.398 115.383,149.231 117.5,151C 120.817,151.498 124.15,151.665 127.5,151.5C 127.187,148.753 127.52,146.086 128.5,143.5C 129.731,144.651 129.731,145.817 128.5,147C 129.025,147.692 129.692,148.192 130.5,148.5C 133.798,148.19 135.798,146.524 136.5,143.5 Z"/></g>
<g><path style="opacity:1" fill="#105d7e" d="M 42.5,130.5 C 42.5,131.5 42.5,132.5 42.5,133.5C 42.334,138.844 42.5006,144.177 43,149.5C 43.6972,151.584 44.8639,153.251 46.5,154.5C 46.8333,155.167 47.1667,155.833 47.5,156.5C 45.864,157.246 44.1973,156.912 42.5,155.5C 41.5091,151.555 41.1758,147.555 41.5,143.5C 40.5,143.5 39.5,143.5 38.5,143.5C 38.8537,147.637 38.3537,151.637 37,155.5C 35.8419,155.002 35.0085,154.169 34.5,153C 34.0329,148.962 33.0329,145.129 31.5,141.5C 31.5,136.833 31.5,132.167 31.5,127.5C 32.5,127.5 33.5,127.5 34.5,127.5C 34.5,132.833 34.5,138.167 34.5,143.5C 35.5,143.5 36.5,143.5 37.5,143.5C 37.3345,139.486 37.5012,135.486 38,131.5C 38.3333,131.167 38.6667,130.833 39,130.5C 40.48,135.804 41.6467,135.804 42.5,130.5 Z"/></g>
<g><path style="opacity:1" fill="#eab180" d="M 74.5,153.5 C 65.9422,150.938 57.2756,150.938 48.5,153.5C 47.7025,153.043 47.3691,152.376 47.5,151.5C 51.0938,150.543 54.7604,149.876 58.5,149.5C 63.1706,149.963 67.8372,150.463 72.5,151C 73.3805,151.708 74.0472,152.542 74.5,153.5 Z"/></g>
<g><path style="opacity:1" fill="#fcf2dd" d="M 109.5,147.5 C 107.164,152.975 104.664,158.308 102,163.5C 102.584,168.982 100.417,172.649 95.5,174.5C 94.1938,173.533 93.5271,172.199 93.5,170.5C 94.4584,170.953 95.2917,171.619 96,172.5C 98.0586,168.399 99.5586,164.066 100.5,159.5C 100.833,159.5 101.167,159.5 101.5,159.5C 102.919,154.734 105.585,150.734 109.5,147.5 Z"/></g>
<g><path style="opacity:1" fill="#f9fcfb" d="M 196.5,152.5 C 199.034,152.259 200.7,153.259 201.5,155.5C 197.822,165.538 192.155,174.204 184.5,181.5C 181.462,183.112 178.629,185.112 176,187.5C 171.629,179.889 168.129,171.889 165.5,163.5C 173.889,154.906 184.222,151.239 196.5,152.5 Z"/></g>
<g><path style="opacity:1" fill="#fafcfa" d="M 45.5,150.5 C 46.1667,150.5 46.8333,150.5 47.5,150.5C 47.5,150.833 47.5,151.167 47.5,151.5C 47.3691,152.376 47.7025,153.043 48.5,153.5C 57.2756,150.938 65.9422,150.938 74.5,153.5C 75.9133,154.935 77.58,155.935 79.5,156.5C 82.1851,158.524 84.8518,160.524 87.5,162.5C 87.5,162.833 87.5,163.167 87.5,163.5C 80.9171,165.634 78.0837,170.3 79,177.5C 77.2912,180.418 75.4579,183.252 73.5,186C 72.5,186.667 71.5,186.667 70.5,186C 68.826,183.496 66.4926,181.996 63.5,181.5C 57.1611,174.151 51.8278,166.151 47.5,157.5C 47.5,157.167 47.5,156.833 47.5,156.5C 47.1667,155.833 46.8333,155.167 46.5,154.5C 46.1667,153.167 45.8333,151.833 45.5,150.5 Z"/></g>
<g><path style="opacity:1" fill="#89dbf4" d="M 20.5,136.5 C 21.3195,139.305 21.8195,142.305 22,145.5C 22.3333,144.167 22.6667,142.833 23,141.5C 24.1532,144.711 24.8198,148.044 25,151.5C 25.3333,150.167 25.6667,148.833 26,147.5C 26.3333,148.167 26.6667,148.833 27,149.5C 27.6974,157.666 28.5307,165.666 29.5,173.5C 33.1151,181.782 39.1151,187.782 47.5,191.5C 44.0795,191.517 40.7462,191.683 37.5,192C 38.1667,191.333 38.8333,190.667 39.5,190C 37.765,189.349 36.0983,189.515 34.5,190.5C 32.8273,188.914 30.8273,188.247 28.5,188.5C 28.5,186.833 28.5,185.167 28.5,183.5C 24.4412,183.081 22.4412,180.748 22.5,176.5C 21.3112,175.571 19.9778,175.238 18.5,175.5C 18.8214,169.974 18.4881,164.64 17.5,159.5C 17.3336,151.493 17.5003,143.493 18,135.5C 18.4015,143.523 19.0682,151.523 20,159.5C 20.4997,151.841 20.6664,144.174 20.5,136.5 Z"/></g>
<g><path style="opacity:1" fill="#e7ae7d" d="M 79.5,156.5 C 83.8779,156.211 86.5446,158.211 87.5,162.5C 84.8518,160.524 82.1851,158.524 79.5,156.5 Z"/></g>
<g><path style="opacity:1" fill="#4da9e1" d="M 159.5,152.5 C 161.5,152.5 163.5,152.5 165.5,152.5C 163.932,155.102 162.265,157.769 160.5,160.5C 157.278,162.14 155.944,164.807 156.5,168.5C 155.791,171.59 154.124,172.923 151.5,172.5C 150.718,165.809 148.385,159.809 144.5,154.5C 149.056,152.558 154.056,151.892 159.5,152.5 Z"/></g>
<g><path style="opacity:1" fill="#0d6a91" d="M 29.5,135.5 C 30.1667,137.5 30.8333,139.5 31.5,141.5C 33.0329,145.129 34.0329,148.962 34.5,153C 35.0085,154.169 35.8419,155.002 37,155.5C 38.3537,151.637 38.8537,147.637 38.5,143.5C 39.5,143.5 40.5,143.5 41.5,143.5C 41.1758,147.555 41.5091,151.555 42.5,155.5C 44.1973,156.912 45.864,157.246 47.5,156.5C 47.5,156.833 47.5,157.167 47.5,157.5C 48.8226,163.341 51.3226,168.675 55,173.5C 55.2868,175.891 55.7868,178.224 56.5,180.5C 55.7706,182.595 56.4372,184.428 58.5,186C 56.0995,186.186 53.7662,186.686 51.5,187.5C 51.1852,189.483 50.1852,190.816 48.5,191.5C 48.1667,191.5 47.8333,191.5 47.5,191.5C 39.1151,187.782 33.1151,181.782 29.5,173.5C 29.5,160.833 29.5,148.167 29.5,135.5 Z"/></g>
<g><path style="opacity:1" fill="#e7b383" d="M 100.5,159.5 C 99.5586,164.066 98.0586,168.399 96,172.5C 95.2917,171.619 94.4584,170.953 93.5,170.5C 90.7573,168.761 88.7573,166.427 87.5,163.5C 89.5616,165.564 91.895,167.231 94.5,168.5C 95.1667,168.167 95.8333,167.833 96.5,167.5C 97.2431,165.362 97.9097,163.196 98.5,161C 98.8361,159.97 99.5028,159.47 100.5,159.5 Z"/></g>
<g><path style="opacity:1" fill="#0d6b93" d="M 205.5,146.5 C 206.958,149.214 207.958,152.214 208.5,155.5C 210.745,153.24 213.411,151.906 216.5,151.5C 216.5,157.5 216.5,163.5 216.5,169.5C 216.046,171.259 216.046,173.259 216.5,175.5C 214.436,175.687 212.436,176.187 210.5,177C 211.308,177.308 211.975,177.808 212.5,178.5C 211.066,180.22 210.233,182.22 210,184.5C 207.893,180.499 204.727,179.499 200.5,181.5C 199.002,184.253 197.002,186.586 194.5,188.5C 192.253,187.626 189.92,187.292 187.5,187.5C 185.989,188.502 184.322,189.169 182.5,189.5C 185.627,185.312 188.627,180.978 191.5,176.5C 192.628,175.738 193.795,175.071 195,174.5C 197.185,169.468 199.352,164.468 201.5,159.5C 202.552,159.649 203.552,159.483 204.5,159C 203.577,156.959 203.244,154.792 203.5,152.5C 203.595,150.214 204.262,148.214 205.5,146.5 Z"/></g>
<g><path style="opacity:1" fill="#286682" d="M 203.5,152.5 C 203.244,154.792 203.577,156.959 204.5,159C 203.552,159.483 202.552,159.649 201.5,159.5C 199.352,164.468 197.185,169.468 195,174.5C 193.795,175.071 192.628,175.738 191.5,176.5C 188.627,180.978 185.627,185.312 182.5,189.5C 180.544,191.148 178.211,191.815 175.5,191.5C 179.205,188.795 182.205,185.462 184.5,181.5C 192.155,174.204 197.822,165.538 201.5,155.5C 202.167,154.5 202.833,153.5 203.5,152.5 Z"/></g>
<g><path style="opacity:1" fill="#127498" d="M 219.5,151.5 C 219.5,158.5 219.5,165.5 219.5,172.5C 218.694,176.946 216.694,180.779 213.5,184C 207.434,187.024 201.768,190.524 196.5,194.5C 190.835,196.997 185.502,199.997 180.5,203.5C 177.86,204.82 175.193,206.153 172.5,207.5C 172.5,206.5 172.5,205.5 172.5,204.5C 173.5,204.5 174.5,204.5 175.5,204.5C 175.5,203.5 175.5,202.5 175.5,201.5C 180.507,200.509 184.841,198.176 188.5,194.5C 186.631,192.278 186.298,189.945 187.5,187.5C 189.92,187.292 192.253,187.626 194.5,188.5C 197.002,186.586 199.002,184.253 200.5,181.5C 204.727,179.499 207.893,180.499 210,184.5C 210.233,182.22 211.066,180.22 212.5,178.5C 211.975,177.808 211.308,177.308 210.5,177C 212.436,176.187 214.436,175.687 216.5,175.5C 216.046,173.259 216.046,171.259 216.5,169.5C 217.327,164.349 217.827,159.016 218,153.5C 218.278,152.584 218.778,151.918 219.5,151.5 Z"/></g>
<g><path style="opacity:1" fill="#177496" d="M 47.5,157.5 C 51.8278,166.151 57.1611,174.151 63.5,181.5C 73.345,191.43 84.0116,200.43 95.5,208.5C 95.5,210.5 95.5,212.5 95.5,214.5C 90.6206,211.059 85.2873,208.725 79.5,207.5C 79.2865,205.856 79.6198,204.356 80.5,203C 77.8333,202.333 77.8333,201.667 80.5,201C 78.7111,200.48 77.0444,200.813 75.5,202C 75.8333,202.333 76.1667,202.667 76.5,203C 72.6946,204.173 69.8613,203.007 68,199.5C 65.2224,200.685 63.7224,199.685 63.5,196.5C 61.7839,196.629 60.1172,196.962 58.5,197.5C 54.7991,195.988 51.4658,193.988 48.5,191.5C 50.1852,190.816 51.1852,189.483 51.5,187.5C 53.7662,186.686 56.0995,186.186 58.5,186C 56.4372,184.428 55.7706,182.595 56.5,180.5C 55.7868,178.224 55.2868,175.891 55,173.5C 51.3226,168.675 48.8226,163.341 47.5,157.5 Z"/></g>
<g><path style="opacity:1" fill="#9ee7f5" d="M 16.5,77.5 C 16.1688,105.005 16.5021,132.338 17.5,159.5C 18.4881,164.64 18.8214,169.974 18.5,175.5C 19.9778,175.238 21.3112,175.571 22.5,176.5C 22.4412,180.748 24.4412,183.081 28.5,183.5C 28.5,185.167 28.5,186.833 28.5,188.5C 30.8273,188.247 32.8273,188.914 34.5,190.5C 36.0983,189.515 37.765,189.349 39.5,190C 38.8333,190.667 38.1667,191.333 37.5,192C 40.7462,191.683 44.0795,191.517 47.5,191.5C 47.8333,191.5 48.1667,191.5 48.5,191.5C 51.4658,193.988 54.7991,195.988 58.5,197.5C 64.5,201.167 70.5,204.833 76.5,208.5C 75.8826,208.611 75.3826,208.944 75,209.5C 72.1459,208.507 69.6459,207.007 67.5,205C 66.2068,204.51 64.8734,204.343 63.5,204.5C 63.5,206.5 63.5,208.5 63.5,210.5C 70.3164,210.439 70.983,212.106 65.5,215.5C 64.5084,215.672 63.8417,215.338 63.5,214.5C 63.719,213.325 63.3857,212.325 62.5,211.5C 60.9984,210.917 59.6651,210.084 58.5,209C 59.8095,206.384 61.4762,204.051 63.5,202C 60.0369,201.571 56.3702,202.071 52.5,203.5C 52.8745,202.229 52.2078,201.062 50.5,200C 50.8333,199.667 51.1667,199.333 51.5,199C 50.0692,198.535 48.9025,197.701 48,196.5C 47.51,197.793 47.3433,199.127 47.5,200.5C 46.0695,200.579 44.7362,200.246 43.5,199.5C 41.2784,194.758 37.7784,193.424 33,195.5C 30.8251,193.477 28.3251,192.143 25.5,191.5C 23.4671,189.837 21.6338,187.837 20,185.5C 19.0196,182.092 17.853,178.758 16.5,175.5C 15.17,142.669 15.17,110.002 16.5,77.5 Z"/></g>
<g><path style="opacity:1" fill="#8bddf6" d="M 230.5,127.5 C 230.833,127.5 231.167,127.5 231.5,127.5C 230.875,144.507 230.041,161.507 229,178.5C 227.49,180.208 225.99,181.874 224.5,183.5C 223.571,182.311 223.238,180.978 223.5,179.5C 222.167,179.5 220.833,179.5 219.5,179.5C 218.958,183.174 218.624,186.84 218.5,190.5C 216.604,191.466 214.604,191.799 212.5,191.5C 212.5,192.5 212.5,193.5 212.5,194.5C 208.743,194.929 205.243,194.263 202,192.5C 200.275,193.464 198.441,194.131 196.5,194.5C 201.768,190.524 207.434,187.024 213.5,184C 216.694,180.779 218.694,176.946 219.5,172.5C 220.33,164.01 220.83,155.343 221,146.5C 222.896,140.354 224.063,134.021 224.5,127.5C 226.265,132.663 226.932,137.996 226.5,143.5C 227.5,143.5 228.5,143.5 229.5,143.5C 229.392,138.13 229.725,132.797 230.5,127.5 Z"/></g>
<g><path style="opacity:1" fill="#99e2f2" d="M 229.5,67.5 C 230.6,69.2774 231.434,71.2774 232,73.5C 232.667,107.5 232.667,141.5 232,175.5C 228.907,188.428 221.073,197.094 208.5,201.5C 207.702,201.957 207.369,202.624 207.5,203.5C 196.973,208.336 186.64,213.669 176.5,219.5C 175.571,220.689 175.238,222.022 175.5,223.5C 174.167,223.5 172.833,223.5 171.5,223.5C 171.286,221.856 171.62,220.356 172.5,219C 174.871,217.121 177.538,215.955 180.5,215.5C 180.33,214.178 180.663,213.011 181.5,212C 184.732,210.534 188.065,209.367 191.5,208.5C 188.572,207.516 185.572,207.183 182.5,207.5C 182.297,205.61 182.963,204.11 184.5,203C 183.181,202.805 181.847,202.972 180.5,203.5C 185.502,199.997 190.835,196.997 196.5,194.5C 198.441,194.131 200.275,193.464 202,192.5C 205.243,194.263 208.743,194.929 212.5,194.5C 212.5,193.5 212.5,192.5 212.5,191.5C 214.604,191.799 216.604,191.466 218.5,190.5C 218.624,186.84 218.958,183.174 219.5,179.5C 220.833,179.5 222.167,179.5 223.5,179.5C 223.238,180.978 223.571,182.311 224.5,183.5C 225.99,181.874 227.49,180.208 229,178.5C 230.041,161.507 230.875,144.507 231.5,127.5C 231.667,109.83 231.5,92.1635 231,74.5C 230.768,73.2625 230.268,72.2625 229.5,71.5C 229.5,70.1667 229.5,68.8333 229.5,67.5 Z"/></g>
<g><path style="opacity:1" fill="#c5f2fa" d="M 188.5,150.5 C 189.391,151.11 190.391,151.443 191.5,151.5C 193.415,151.216 195.081,151.549 196.5,152.5C 184.222,151.239 173.889,154.906 165.5,163.5C 168.129,171.889 171.629,179.889 176,187.5C 178.629,185.112 181.462,183.112 184.5,181.5C 182.205,185.462 179.205,188.795 175.5,191.5C 165.544,199.947 154.877,207.447 143.5,214C 130.833,214.667 118.167,214.667 105.5,214C 102.011,212.423 98.6774,210.589 95.5,208.5C 84.0116,200.43 73.345,191.43 63.5,181.5C 66.4926,181.996 68.826,183.496 70.5,186C 71.5,186.667 72.5,186.667 73.5,186C 75.4579,183.252 77.2912,180.418 79,177.5C 78.0837,170.3 80.9171,165.634 87.5,163.5C 88.7573,166.427 90.7573,168.761 93.5,170.5C 93.5271,172.199 94.1938,173.533 95.5,174.5C 95.5,175.833 95.5,177.167 95.5,178.5C 92.462,180.112 89.6287,182.112 87,184.5C 86.4795,186.289 86.8129,187.956 88,189.5C 91.5,193.667 95,197.833 98.5,202C 106.723,206.123 115.223,206.623 124,203.5C 131.477,205.82 138.977,205.987 146.5,204C 152.682,199.484 157.848,193.984 162,187.5C 162.667,186.5 162.667,185.5 162,184.5C 159.314,183.324 156.981,181.657 155,179.5C 154.814,182.036 154.314,184.369 153.5,186.5C 153.966,181.57 153.299,176.903 151.5,172.5C 154.124,172.923 155.791,171.59 156.5,168.5C 161.357,163.809 166.357,159.309 171.5,155C 176.712,151.78 182.378,150.28 188.5,150.5 Z"/></g>
<g><path style="opacity:1" fill="#0c273a" d="M 133.5,188.5 C 130.489,189.836 127.489,191.169 124.5,192.5C 121.361,191.43 118.361,190.096 115.5,188.5C 109.601,185.704 107.101,181.038 108,174.5C 112.956,171.849 118.29,170.182 124,169.5C 129.158,170.665 134.325,171.832 139.5,173C 142.612,180.007 140.612,185.173 133.5,188.5 Z"/></g>
<g><path style="opacity:1" fill="#234761" d="M 121.5,174.5 C 126.5,174.232 131.166,175.232 135.5,177.5C 132.003,180.083 128.336,182.416 124.5,184.5C 120.889,182.525 117.223,180.858 113.5,179.5C 113.5,178.5 113.5,177.5 113.5,176.5C 116.373,176.198 119.039,175.531 121.5,174.5 Z"/></g>
<g><path style="opacity:1" fill="#a1e7f0" d="M 25.5,191.5 C 28.3251,192.143 30.8251,193.477 33,195.5C 37.7784,193.424 41.2784,194.758 43.5,199.5C 44.7362,200.246 46.0695,200.579 47.5,200.5C 47.3433,199.127 47.51,197.793 48,196.5C 48.9025,197.701 50.0692,198.535 51.5,199C 51.1667,199.333 50.8333,199.667 50.5,200C 52.2078,201.062 52.8745,202.229 52.5,203.5C 56.3702,202.071 60.0369,201.571 63.5,202C 61.4762,204.051 59.8095,206.384 58.5,209C 59.6651,210.084 60.9984,210.917 62.5,211.5C 63.3857,212.325 63.719,213.325 63.5,214.5C 56.321,210.858 48.9876,207.358 41.5,204C 38.8753,201.54 35.8753,199.706 32.5,198.5C 29.8122,196.479 27.4789,194.146 25.5,191.5 Z"/></g>
<g><path style="opacity:1" fill="#1079a4" d="M 187.5,187.5 C 186.298,189.945 186.631,192.278 188.5,194.5C 184.841,198.176 180.507,200.509 175.5,201.5C 175.5,202.5 175.5,203.5 175.5,204.5C 174.5,204.5 173.5,204.5 172.5,204.5C 172.5,205.5 172.5,206.5 172.5,207.5C 171.035,208.737 169.368,209.737 167.5,210.5C 161.429,211.572 156.096,214.072 151.5,218C 149.191,218.756 147.191,218.256 145.5,216.5C 145.167,216.833 144.833,217.167 144.5,217.5C 147.028,218.816 147.028,219.983 144.5,221C 131.094,221.12 117.761,221.954 104.5,223.5C 104.5,222.5 104.5,221.5 104.5,220.5C 107.388,221.01 109.721,220.344 111.5,218.5C 121.987,217.342 132.654,216.509 143.5,216C 146.706,213.966 150.04,212.133 153.5,210.5C 154.086,210.709 154.586,211.043 155,211.5C 155.49,210.207 155.657,208.873 155.5,207.5C 163.973,204.354 170.64,199.02 175.5,191.5C 178.211,191.815 180.544,191.148 182.5,189.5C 184.322,189.169 185.989,188.502 187.5,187.5 Z"/></g>
<g><path style="opacity:1" fill="#8bbfd3" d="M 95.5,178.5 C 94.1337,186.419 96.8003,192.419 103.5,196.5C 106.797,198.601 110.463,199.935 114.5,200.5C 119.938,202.606 125.605,202.939 131.5,201.5C 132.713,201.253 133.38,200.586 133.5,199.5C 134.265,199.923 135.098,200.257 136,200.5C 139.208,198.971 142.375,197.637 145.5,196.5C 150.037,194.633 152.704,191.299 153.5,186.5C 154.314,184.369 154.814,182.036 155,179.5C 156.981,181.657 159.314,183.324 162,184.5C 162.667,185.5 162.667,186.5 162,187.5C 157.848,193.984 152.682,199.484 146.5,204C 138.977,205.987 131.477,205.82 124,203.5C 115.223,206.623 106.723,206.123 98.5,202C 95,197.833 91.5,193.667 88,189.5C 86.8129,187.956 86.4795,186.289 87,184.5C 89.6287,182.112 92.462,180.112 95.5,178.5 Z"/></g>
<g><path style="opacity:1" fill="#376e88" d="M 133.5,199.5 C 133.38,200.586 132.713,201.253 131.5,201.5C 125.605,202.939 119.938,202.606 114.5,200.5C 117.348,198.83 120.515,197.83 124,197.5C 127.141,198.322 130.307,198.989 133.5,199.5 Z"/></g>
<g><path style="opacity:1" fill="#b1e6f8" d="M 115.5,188.5 C 118.361,190.096 121.361,191.43 124.5,192.5C 127.489,191.169 130.489,189.836 133.5,188.5C 136.678,192.336 140.678,195.002 145.5,196.5C 142.375,197.637 139.208,198.971 136,200.5C 135.098,200.257 134.265,199.923 133.5,199.5C 130.307,198.989 127.141,198.322 124,197.5C 120.515,197.83 117.348,198.83 114.5,200.5C 110.463,199.935 106.797,198.601 103.5,196.5C 108.507,195.331 112.507,192.664 115.5,188.5 Z"/></g>
<g><path style="opacity:1" fill="#e8fcfd" d="M 207.5,203.5 C 201.762,209.697 194.762,214.197 186.5,217C 183.796,220.689 180.13,222.856 175.5,223.5C 175.238,222.022 175.571,220.689 176.5,219.5C 186.64,213.669 196.973,208.336 207.5,203.5 Z"/></g>
<g><path style="opacity:1" fill="#1f7c97" d="M 175.5,191.5 C 170.64,199.02 163.973,204.354 155.5,207.5C 155.657,208.873 155.49,210.207 155,211.5C 154.586,211.043 154.086,210.709 153.5,210.5C 150.04,212.133 146.706,213.966 143.5,216C 132.654,216.509 121.987,217.342 111.5,218.5C 107.837,218.048 104.17,217.548 100.5,217C 101.167,216.667 101.833,216.333 102.5,216C 100.26,215.023 97.9267,214.523 95.5,214.5C 95.5,212.5 95.5,210.5 95.5,208.5C 98.6774,210.589 102.011,212.423 105.5,214C 118.167,214.667 130.833,214.667 143.5,214C 154.877,207.447 165.544,199.947 175.5,191.5 Z"/></g>
<g><path style="opacity:1" fill="#1585ab" d="M 95.5,214.5 C 97.9267,214.523 100.26,215.023 102.5,216C 101.833,216.333 101.167,216.667 100.5,217C 104.17,217.548 107.837,218.048 111.5,218.5C 109.721,220.344 107.388,221.01 104.5,220.5C 104.5,221.5 104.5,222.5 104.5,223.5C 117.761,221.954 131.094,221.12 144.5,221C 147.028,219.983 147.028,218.816 144.5,217.5C 144.833,217.167 145.167,216.833 145.5,216.5C 147.191,218.256 149.191,218.756 151.5,218C 156.096,214.072 161.429,211.572 167.5,210.5C 154.769,217.861 142.102,225.194 129.5,232.5C 128.833,232.5 128.167,232.5 127.5,232.5C 123.418,232.656 119.418,232.156 115.5,231C 102.799,222.983 89.7993,215.483 76.5,208.5C 70.5,204.833 64.5,201.167 58.5,197.5C 60.1172,196.962 61.7839,196.629 63.5,196.5C 63.7224,199.685 65.2224,200.685 68,199.5C 69.8613,203.007 72.6946,204.173 76.5,203C 76.1667,202.667 75.8333,202.333 75.5,202C 77.0444,200.813 78.7111,200.48 80.5,201C 77.8333,201.667 77.8333,202.333 80.5,203C 79.6198,204.356 79.2865,205.856 79.5,207.5C 85.2873,208.725 90.6206,211.059 95.5,214.5 Z"/></g>
<g><path style="opacity:1" fill="#a3eef6" d="M 76.5,208.5 C 89.7993,215.483 102.799,222.983 115.5,231C 119.418,232.156 123.418,232.656 127.5,232.5C 127.5,233.5 127.5,234.5 127.5,235.5C 125.042,235.227 123.375,236.227 122.5,238.5C 123.333,238.833 124.167,239.167 125,239.5C 127.363,238.045 129.863,237.545 132.5,238C 132.966,239.299 132.966,240.799 132.5,242.5C 123.599,243.071 114.932,242.071 106.5,239.5C 103.05,240.244 101.384,238.91 101.5,235.5C 98.1102,234.977 94.7769,234.143 91.5,233C 90.8333,232 90.1667,231 89.5,230C 81.0497,225.94 73.0497,221.107 65.5,215.5C 70.983,212.106 70.3164,210.439 63.5,210.5C 63.5,208.5 63.5,206.5 63.5,204.5C 64.8734,204.343 66.2068,204.51 67.5,205C 69.6459,207.007 72.1459,208.507 75,209.5C 75.3826,208.944 75.8826,208.611 76.5,208.5 Z"/></g>
<g><path style="opacity:1" fill="#9aebf6" d="M 171.5,223.5 C 169.833,223.5 168.167,223.5 166.5,223.5C 160.743,225.628 154.743,226.794 148.5,227C 150.025,228.009 151.692,228.509 153.5,228.5C 153.584,233.694 151.584,234.694 147.5,231.5C 148.025,230.808 148.692,230.308 149.5,230C 147.512,229.82 145.512,229.986 143.5,230.5C 143.719,229.325 143.386,228.325 142.5,227.5C 139.527,228.81 137.193,230.81 135.5,233.5C 133.591,232.652 131.591,232.318 129.5,232.5C 142.102,225.194 154.769,217.861 167.5,210.5C 169.368,209.737 171.035,208.737 172.5,207.5C 175.193,206.153 177.86,204.82 180.5,203.5C 181.847,202.972 183.181,202.805 184.5,203C 182.963,204.11 182.297,205.61 182.5,207.5C 185.572,207.183 188.572,207.516 191.5,208.5C 188.065,209.367 184.732,210.534 181.5,212C 180.663,213.011 180.33,214.178 180.5,215.5C 177.538,215.955 174.871,217.121 172.5,219C 171.62,220.356 171.286,221.856 171.5,223.5 Z"/></g>
<g><path style="opacity:1" fill="#aff1f4" d="M 166.5,223.5 C 166.141,225.371 165.141,226.871 163.5,228C 160.894,228.45 159.561,229.95 159.5,232.5C 154.367,235.214 149.033,237.547 143.5,239.5C 143.5,240.5 143.5,241.5 143.5,242.5C 141.784,242.629 140.117,242.962 138.5,243.5C 128.319,246.558 118.319,246.058 108.5,242C 107.619,241.292 106.953,240.458 106.5,239.5C 114.932,242.071 123.599,243.071 132.5,242.5C 132.966,240.799 132.966,239.299 132.5,238C 129.863,237.545 127.363,238.045 125,239.5C 124.167,239.167 123.333,238.833 122.5,238.5C 123.375,236.227 125.042,235.227 127.5,235.5C 127.5,234.5 127.5,233.5 127.5,232.5C 128.167,232.5 128.833,232.5 129.5,232.5C 131.591,232.318 133.591,232.652 135.5,233.5C 137.193,230.81 139.527,228.81 142.5,227.5C 143.386,228.325 143.719,229.325 143.5,230.5C 145.512,229.986 147.512,229.82 149.5,230C 148.692,230.308 148.025,230.808 147.5,231.5C 151.584,234.694 153.584,233.694 153.5,228.5C 151.692,228.509 150.025,228.009 148.5,227C 154.743,226.794 160.743,225.628 166.5,223.5 Z"/></g>
</svg>
