<?xml version="1.0" encoding="UTF-8"?>
<!DOCTYPE svg PUBLIC "-//W3C//DTD SVG 1.1//EN" "http://www.w3.org/Graphics/SVG/1.1/DTD/svg11.dtd">
<svg xmlns="http://www.w3.org/2000/svg" version="1.1" width="100px" height="100px" style="shape-rendering:geometricPrecision; text-rendering:geometricPrecision; image-rendering:optimizeQuality; fill-rule:evenodd; clip-rule:evenodd" xmlns:xlink="http://www.w3.org/1999/xlink">
<g><path style="opacity:1" fill="#0e2336" d="M -0.5,-0.5 C 32.8333,-0.5 66.1667,-0.5 99.5,-0.5C 99.5,32.8333 99.5,66.1667 99.5,99.5C 66.1667,99.5 32.8333,99.5 -0.5,99.5C -0.5,66.1667 -0.5,32.8333 -0.5,-0.5 Z"/></g>
<g><path style="opacity:1" fill="#3e7a81" d="M 69.5,16.5 C 69.5,15.8333 69.8333,15.5 70.5,15.5C 74.5216,17.5216 77.5216,20.5216 79.5,24.5C 76.4552,21.4534 73.1219,18.7867 69.5,16.5 Z"/></g>
<g><path style="opacity:1" fill="#275360" d="M 70.5,15.5 C 69.8333,15.5 69.5,15.8333 69.5,16.5C 63.3059,13.3939 56.9726,10.8939 50.5,9C 51.9733,9.70956 52.6399,10.8762 52.5,12.5C 71.3271,15.6595 81.9937,26.6595 84.5,45.5C 81.9105,45.6038 79.5771,44.9371 77.5,43.5C 75.8653,44.0463 74.1986,44.3796 72.5,44.5C 70.9397,42.8706 71.273,41.704 73.5,41C 72.8333,40.6667 72.1667,40.3333 71.5,40C 73.5165,39.3257 75.1832,38.1591 76.5,36.5C 77.3184,38.1083 77.9851,39.7749 78.5,41.5C 79.9337,42.2298 81.1004,43.2298 82,44.5C 81.6776,32.6539 76.1776,23.9873 65.5,18.5C 64.8182,19.2427 64.1515,19.9094 63.5,20.5C 63.5,19.1667 63.5,17.8333 63.5,16.5C 60.6557,15.9421 57.8224,15.2755 55,14.5C 53.6739,14.7549 52.6739,15.4216 52,16.5C 52.5922,12.1019 50.7589,10.1019 46.5,10.5C 46.5,12.8333 46.5,15.1667 46.5,17.5C 44.6214,17.3932 44.2881,17.8932 45.5,19C 44.0325,20.0975 43.1992,21.5975 43,23.5C 42.4309,19.6395 41.5976,19.6395 40.5,23.5C 39.7492,22.624 39.2492,21.624 39,20.5C 38.6124,22.7147 37.6124,24.048 36,24.5C 35.0534,21.0016 32.8867,19.5016 29.5,20C 25.5615,23.4294 22.2281,27.2628 19.5,31.5C 17.0067,35.4578 15.1734,39.7912 14,44.5C 14.0359,40.6869 14.8692,37.0203 16.5,33.5C 20.8372,22.978 28.5039,16.8113 39.5,15C 35.0607,15.7151 33.894,17.8817 36,21.5C 38.7482,19.5421 41.5815,17.7088 44.5,16C 45.4231,13.9592 45.7564,11.7925 45.5,9.5C 46.675,9.71901 47.675,9.38568 48.5,8.5C 47.2713,7.71893 45.938,7.21893 44.5,7C 46.1293,6.41452 47.6293,5.58118 49,4.5C 51.3185,5.96075 53.8185,6.96075 56.5,7.5C 58.0528,9.77199 60.2195,11.1053 63,11.5C 63.3333,10.8333 63.6667,10.1667 64,9.5C 64.6912,12.266 66.1912,12.9327 68.5,11.5C 69.3624,12.7658 70.0291,14.0992 70.5,15.5 Z"/></g>
<g><path style="opacity:1" fill="#143240" d="M 63.5,20.5 C 63.5,22.1667 63.5,23.8333 63.5,25.5C 61.0876,25.756 59.4209,24.756 58.5,22.5C 57.1575,23.9023 56.3242,23.5689 56,21.5C 55.6667,22.1667 55.3333,22.8333 55,23.5C 54.7104,21.9559 54.0437,20.6226 53,19.5C 52.2303,20.5981 51.397,20.5981 50.5,19.5C 50.5,18.1667 50.5,16.8333 50.5,15.5C 48.8212,15.2852 47.8212,15.9519 47.5,17.5C 47.1667,17.5 46.8333,17.5 46.5,17.5C 46.5,15.1667 46.5,12.8333 46.5,10.5C 50.7589,10.1019 52.5922,12.1019 52,16.5C 52.6739,15.4216 53.6739,14.7549 55,14.5C 57.8224,15.2755 60.6557,15.9421 63.5,16.5C 63.5,17.8333 63.5,19.1667 63.5,20.5 Z"/></g>
<g><path style="opacity:1" fill="#3e717b" d="M 14.5,33.5 C 13.8333,34.1667 13.1667,34.8333 12.5,35.5C 12.5191,33.9397 12.8524,32.4397 13.5,31C 13.0946,30.0546 12.428,29.3879 11.5,29C 16.028,25.4826 20.3613,21.4826 24.5,17C 27.6121,16.375 29.4454,14.5417 30,11.5C 30.414,11.9574 30.914,12.2907 31.5,12.5C 35.6341,11.4235 39.3007,9.9235 42.5,8C 41.8333,9 41.1667,10 40.5,11C 28.3023,14.5736 19.6356,22.0736 14.5,33.5 Z"/></g>
<g><path style="opacity:1" fill="#585a54" d="M 50.5,19.5 C 48.6322,20.6736 47.6322,20.0069 47.5,17.5C 47.8212,15.9519 48.8212,15.2852 50.5,15.5C 50.5,16.8333 50.5,18.1667 50.5,19.5 Z"/></g>
<g><path style="opacity:1" fill="#122336" d="M 46.5,17.5 C 46.8333,17.5 47.1667,17.5 47.5,17.5C 47.6322,20.0069 48.6322,20.6736 50.5,19.5C 51.397,20.5981 52.2303,20.5981 53,19.5C 54.0437,20.6226 54.7104,21.9559 55,23.5C 55.3333,22.8333 55.6667,22.1667 56,21.5C 56.3242,23.5689 57.1575,23.9023 58.5,22.5C 59.4209,24.756 61.0876,25.756 63.5,25.5C 63.5,23.8333 63.5,22.1667 63.5,20.5C 64.1515,19.9094 64.8182,19.2427 65.5,18.5C 76.1776,23.9873 81.6776,32.6539 82,44.5C 81.1004,43.2298 79.9337,42.2298 78.5,41.5C 77.9851,39.7749 77.3184,38.1083 76.5,36.5C 75.1832,38.1591 73.5165,39.3257 71.5,40C 72.1667,40.3333 72.8333,40.6667 73.5,41C 71.273,41.704 70.9397,42.8706 72.5,44.5C 72.5,45.5 72.5,46.5 72.5,47.5C 71.5,47.5 70.5,47.5 69.5,47.5C 69.8333,44.5 68.5,43.1667 65.5,43.5C 63.6565,45.2789 62.9898,47.6122 63.5,50.5C 63.5,51.1667 63.1667,51.5 62.5,51.5C 62.7678,49.901 62.4345,48.5676 61.5,47.5C 61.5,47.1667 61.5,46.8333 61.5,46.5C 62.1667,46.5 62.5,46.1667 62.5,45.5C 62.4257,43.5891 61.4257,42.4224 59.5,42C 57.2884,41.2109 55.2884,41.3775 53.5,42.5C 51.8235,43.1834 51.1568,44.5168 51.5,46.5C 51.1667,46.5 50.8333,46.5 50.5,46.5C 49.5,46.5 48.5,46.5 47.5,46.5C 47.7215,44.3364 48.7215,42.6697 50.5,41.5C 52.2163,39.9752 54.2163,38.9752 56.5,38.5C 57.609,38.5569 58.609,38.8902 59.5,39.5C 60.209,40.404 61.209,40.7373 62.5,40.5C 62.5797,37.2186 61.913,34.2186 60.5,31.5C 60.5858,30.5041 60.2524,29.6708 59.5,29C 57.4505,27.6682 55.4505,27.5015 53.5,28.5C 52.9653,26.5544 51.632,25.5544 49.5,25.5C 49.1667,25.5 48.8333,25.5 48.5,25.5C 46.368,25.5544 45.0347,26.5544 44.5,28.5C 43.8333,28.5 43.5,28.8333 43.5,29.5C 42.8333,29.1667 42.1667,28.8333 41.5,28.5C 38.3125,27.1374 35.3125,27.4708 32.5,29.5C 30.6729,28.0681 29.0063,26.4014 27.5,24.5C 25.7317,27.9396 23.0651,30.2729 19.5,31.5C 22.2281,27.2628 25.5615,23.4294 29.5,20C 32.8867,19.5016 35.0534,21.0016 36,24.5C 37.6124,24.048 38.6124,22.7147 39,20.5C 39.2492,21.624 39.7492,22.624 40.5,23.5C 41.5976,19.6395 42.4309,19.6395 43,23.5C 43.1992,21.5975 44.0325,20.0975 45.5,19C 44.2881,17.8932 44.6214,17.3932 46.5,17.5 Z"/></g>
<g><path style="opacity:1" fill="#1c3944" d="M 65.5,21.5 C 67.1748,23.149 69.1748,24.4823 71.5,25.5C 71.2907,26.086 70.9574,26.586 70.5,27C 72.0526,28.0968 73.386,29.4301 74.5,31C 72.4259,30.7727 70.4259,30.9394 68.5,31.5C 66.5448,30.5467 64.8782,29.2134 63.5,27.5C 65.1045,25.8211 65.7711,23.8211 65.5,21.5 Z"/></g>
<g><path style="opacity:1" fill="#3a8c8a" d="M 48.5,25.5 C 48.5,26.5 48.5,27.5 48.5,28.5C 47.1667,28.5 45.8333,28.5 44.5,28.5C 45.0347,26.5544 46.368,25.5544 48.5,25.5 Z"/></g>
<g><path style="opacity:1" fill="#3b8387" d="M 49.5,25.5 C 51.632,25.5544 52.9653,26.5544 53.5,28.5C 52.1667,28.5 50.8333,28.5 49.5,28.5C 49.5,27.5 49.5,26.5 49.5,25.5 Z"/></g>
<g><path style="opacity:1" fill="#213d42" d="M 48.5,25.5 C 48.8333,25.5 49.1667,25.5 49.5,25.5C 49.5,26.5 49.5,27.5 49.5,28.5C 50.8333,28.5 52.1667,28.5 53.5,28.5C 55.4505,27.5015 57.4505,27.6682 59.5,29C 60.2524,29.6708 60.5858,30.5041 60.5,31.5C 59.5269,33.9479 59.1936,36.6146 59.5,39.5C 58.609,38.8902 57.609,38.5569 56.5,38.5C 56.5,37.8333 56.5,37.1667 56.5,36.5C 58.6455,34.9207 58.8122,32.9207 57,30.5C 56.4954,32.5183 55.9954,34.5183 55.5,36.5C 50.7936,39.4409 46.4603,39.1076 42.5,35.5C 42.7118,33.6159 43.7118,32.2826 45.5,31.5C 45.1445,30.4777 44.4778,29.811 43.5,29.5C 43.5,28.8333 43.8333,28.5 44.5,28.5C 45.8333,28.5 47.1667,28.5 48.5,28.5C 48.5,27.5 48.5,26.5 48.5,25.5 Z"/></g>
<g><path style="opacity:1" fill="#1c2c33" d="M 41.5,28.5 C 40.6433,30.4035 39.9766,32.4035 39.5,34.5C 39.7472,35.7133 40.4138,36.38 41.5,36.5C 43.6625,39.4205 46.6625,41.0871 50.5,41.5C 48.7215,42.6697 47.7215,44.3364 47.5,46.5C 44.1148,45.372 40.7814,45.372 37.5,46.5C 37.1667,46.5 36.8333,46.5 36.5,46.5C 35.1667,45.5 35.1667,44.5 36.5,43.5C 36.56,44.0431 36.8933,44.3764 37.5,44.5C 40.1092,43.7695 42.7759,43.2695 45.5,43C 42.5839,41.1825 39.5839,41.0158 36.5,42.5C 36.5,42.1667 36.5,41.8333 36.5,41.5C 37.1174,41.3893 37.6174,41.056 38,40.5C 38.8214,37.4459 38.6548,34.4459 37.5,31.5C 36.7025,31.9569 36.3691,32.6236 36.5,33.5C 34.9606,31.0182 33.4606,31.0182 32,33.5C 31.5831,32.244 30.7498,31.5774 29.5,31.5C 27.1862,28.1657 27.8528,27.8323 31.5,30.5C 32.1067,30.3764 32.44,30.0431 32.5,29.5C 35.3125,27.4708 38.3125,27.1374 41.5,28.5 Z"/></g>
<g><path style="opacity:1" fill="#3f7177" d="M 41.5,28.5 C 42.1667,28.8333 42.8333,29.1667 43.5,29.5C 44.4778,29.811 45.1445,30.4777 45.5,31.5C 43.7118,32.2826 42.7118,33.6159 42.5,35.5C 41.8333,35.5 41.5,35.8333 41.5,36.5C 40.4138,36.38 39.7472,35.7133 39.5,34.5C 39.9766,32.4035 40.6433,30.4035 41.5,28.5 Z"/></g>
<g><path style="opacity:1" fill="#726a66" d="M 51.5,33.5 C 50.8333,33.5 50.1667,33.5 49.5,33.5C 45.8292,32.5083 45.6625,31.1749 49,29.5C 51.0197,30.0319 51.853,31.3652 51.5,33.5 Z"/></g>
<g><path style="opacity:1" fill="#448081" d="M 53.5,33.5 C 52.0243,31.7704 52.3576,30.4371 54.5,29.5C 54.8333,30.1667 55.1667,30.8333 55.5,31.5C 55.2528,32.7133 54.5862,33.38 53.5,33.5 Z"/></g>
<g><path style="opacity:1" fill="#719e9a" d="M 56.5,36.5 C 56.1667,36.5 55.8333,36.5 55.5,36.5C 55.9954,34.5183 56.4954,32.5183 57,30.5C 58.8122,32.9207 58.6455,34.9207 56.5,36.5 Z"/></g>
<g><path style="opacity:1" fill="#183040" d="M 32.5,29.5 C 32.44,30.0431 32.1067,30.3764 31.5,30.5C 27.8528,27.8323 27.1862,28.1657 29.5,31.5C 27.1432,31.3367 24.8098,31.5034 22.5,32C 25.5,33.8333 28.5,35.6667 31.5,37.5C 30.635,38.5827 29.635,38.7494 28.5,38C 27,36.8333 25.5,35.6667 24,34.5C 23.6905,35.7659 23.1905,36.9326 22.5,38C 23.8333,38.6667 25.1667,39.3333 26.5,40C 25.1667,40.6667 25.1667,41.3333 26.5,42C 23.8103,42.7709 21.1436,43.6042 18.5,44.5C 19.3805,45.9705 20.7139,46.8038 22.5,47C 29.601,46.4703 30.601,47.9703 25.5,51.5C 24.8333,50.8333 24.1667,50.1667 23.5,49.5C 22.0052,50.7053 20.6719,50.7053 19.5,49.5C 20.0431,49.44 20.3764,49.1067 20.5,48.5C 17.5719,47.5159 14.5719,47.1826 11.5,47.5C 11.5045,43.4659 11.8379,39.4659 12.5,35.5C 13.1667,34.8333 13.8333,34.1667 14.5,33.5C 15.1667,33.5 15.8333,33.5 16.5,33.5C 14.8692,37.0203 14.0359,40.6869 14,44.5C 15.1734,39.7912 17.0067,35.4578 19.5,31.5C 23.0651,30.2729 25.7317,27.9396 27.5,24.5C 29.0063,26.4014 30.6729,28.0681 32.5,29.5 Z"/></g>
<g><path style="opacity:1" fill="#577785" d="M 12.5,35.5 C 11.8379,39.4659 11.5045,43.4659 11.5,47.5C 14.5719,47.1826 17.5719,47.5159 20.5,48.5C 20.3764,49.1067 20.0431,49.44 19.5,49.5C 17.0521,48.5269 14.3854,48.1936 11.5,48.5C 11.4302,53.6091 12.0969,58.6091 13.5,63.5C 12.207,62.158 11.3736,60.4913 11,58.5C 10.2281,54.7019 9.72808,50.8686 9.5,47C 9.35394,42.7451 10.3539,38.9118 12.5,35.5 Z"/></g>
<g><path style="opacity:1" fill="#61828e" d="M 79.5,24.5 C 81.1965,26.3764 83.1965,27.8764 85.5,29C 85.0426,29.414 84.7093,29.914 84.5,30.5C 89.8021,41.6525 89.8021,52.6525 84.5,63.5C 85.6586,58.5322 86.6586,53.5322 87.5,48.5C 85.8333,48.5 84.1667,48.5 82.5,48.5C 80.0706,48.8844 77.7373,49.551 75.5,50.5C 75.5,49.1667 75.5,47.8333 75.5,46.5C 79.4517,47.2721 83.4517,47.6054 87.5,47.5C 86.7958,39.1038 84.1291,31.4372 79.5,24.5 Z"/></g>
<g><path style="opacity:1" fill="#2b4350" d="M 20.5,66.5 C 19.6618,66.1583 19.3284,65.4916 19.5,64.5C 20.9953,64.5852 21.9953,63.9185 22.5,62.5C 21.5682,60.2046 20.7348,57.8713 20,55.5C 18.324,54.9389 16.9906,53.9389 16,52.5C 15.5045,54.4727 15.3379,56.4727 15.5,58.5C 13.9605,56.1617 13.2938,53.4951 13.5,50.5C 17.5437,52.3428 21.8771,53.8428 26.5,55C 23.8333,55.6667 23.8333,56.3333 26.5,57C 23.8003,57.9492 22.967,59.7825 24,62.5C 25.439,60.9861 26.939,60.6527 28.5,61.5C 25.5271,62.8321 22.8604,64.4987 20.5,66.5 Z"/></g>
<g><path style="opacity:1" fill="#102636" d="M 69.5,16.5 C 73.1219,18.7867 76.4552,21.4534 79.5,24.5C 84.1291,31.4372 86.7958,39.1038 87.5,47.5C 83.4517,47.6054 79.4517,47.2721 75.5,46.5C 75.5,47.8333 75.5,49.1667 75.5,50.5C 77.7373,49.551 80.0706,48.8844 82.5,48.5C 81.282,53.1836 78.4487,54.517 74,52.5C 72.2382,52.9444 72.4049,53.4444 74.5,54C 73.552,54.4828 72.552,54.6495 71.5,54.5C 71.8881,56.6847 72.8881,58.518 74.5,60C 74.4301,60.7648 74.0967,61.2648 73.5,61.5C 72.7611,61.369 72.0944,61.5357 71.5,62C 73.0009,63.2515 74.6675,64.2515 76.5,65C 77.4506,65.7175 77.6172,66.5509 77,67.5C 74.2521,72.0813 70.4187,75.4146 65.5,77.5C 64.7025,77.0431 64.3691,76.3764 64.5,75.5C 67.3154,75.2174 67.8154,74.2174 66,72.5C 65.0546,72.9054 64.3879,73.572 64,74.5C 60.996,71.2086 58.3294,71.2086 56,74.5C 55.6667,73.8333 55.3333,73.1667 55,72.5C 53.0539,79.1044 51.0539,79.1044 49,72.5C 48.3923,74.1545 47.8923,75.8211 47.5,77.5C 44.6118,77.7804 43.1118,76.4471 43,73.5C 42.6667,74.1667 42.3333,74.8333 42,75.5C 41.2797,73.8876 41.4464,72.3876 42.5,71C 39.9774,70.4818 37.9774,69.1485 36.5,67C 35.8333,66.3333 35.1667,66.3333 34.5,67C 35.4506,67.7175 35.6172,68.5509 35,69.5C 32.8381,66.6725 30.1714,65.6725 27,66.5C 25.7508,64.0085 24.5842,64.1751 23.5,67C 25.7801,67.2117 27.7801,68.0451 29.5,69.5C 30.086,69.2907 30.586,68.9574 31,68.5C 31.3143,70.8689 32.1476,73.0356 33.5,75C 33.1639,76.0299 32.4972,76.5299 31.5,76.5C 26.5796,74.5811 22.913,71.2478 20.5,66.5C 22.8604,64.4987 25.5271,62.8321 28.5,61.5C 26.939,60.6527 25.439,60.9861 24,62.5C 22.967,59.7825 23.8003,57.9492 26.5,57C 23.8333,56.3333 23.8333,55.6667 26.5,55C 21.8771,53.8428 17.5437,52.3428 13.5,50.5C 13.2938,53.4951 13.9605,56.1617 15.5,58.5C 15.5,60.5 15.5,62.5 15.5,64.5C 14.8333,64.1667 14.1667,63.8333 13.5,63.5C 12.0969,58.6091 11.4302,53.6091 11.5,48.5C 14.3854,48.1936 17.0521,48.5269 19.5,49.5C 20.6719,50.7053 22.0052,50.7053 23.5,49.5C 24.1667,50.1667 24.8333,50.8333 25.5,51.5C 30.601,47.9703 29.601,46.4703 22.5,47C 20.7139,46.8038 19.3805,45.9705 18.5,44.5C 21.1436,43.6042 23.8103,42.7709 26.5,42C 25.1667,41.3333 25.1667,40.6667 26.5,40C 25.1667,39.3333 23.8333,38.6667 22.5,38C 23.1905,36.9326 23.6905,35.7659 24,34.5C 25.5,35.6667 27,36.8333 28.5,38C 29.635,38.7494 30.635,38.5827 31.5,37.5C 28.5,35.6667 25.5,33.8333 22.5,32C 24.8098,31.5034 27.1432,31.3367 29.5,31.5C 30.7498,31.5774 31.5831,32.244 32,33.5C 33.4606,31.0182 34.9606,31.0182 36.5,33.5C 35.3433,36.3074 35.3433,38.9741 36.5,41.5C 36.5,41.8333 36.5,42.1667 36.5,42.5C 36.5,42.8333 36.5,43.1667 36.5,43.5C 35.1667,44.5 35.1667,45.5 36.5,46.5C 34.8226,49.6154 35.1559,52.2821 37.5,54.5C 40.4133,68.1276 47.4133,70.7942 58.5,62.5C 58.89,58.3316 60.2233,54.6649 62.5,51.5C 63.1667,51.5 63.5,51.1667 63.5,50.5C 64.5,50.5 65.5,50.5 66.5,50.5C 66.702,48.0504 66.3686,45.717 65.5,43.5C 68.5,43.1667 69.8333,44.5 69.5,47.5C 70.5,47.5 71.5,47.5 72.5,47.5C 72.5,46.5 72.5,45.5 72.5,44.5C 74.1986,44.3796 75.8653,44.0463 77.5,43.5C 79.5771,44.9371 81.9105,45.6038 84.5,45.5C 81.9937,26.6595 71.3271,15.6595 52.5,12.5C 52.6399,10.8762 51.9733,9.70956 50.5,9C 56.9726,10.8939 63.3059,13.3939 69.5,16.5 Z"/></g>
<g><path style="opacity:1" fill="#0a2537" d="M 19.5,64.5 C 17.9862,62.636 16.6528,60.636 15.5,58.5C 15.3379,56.4727 15.5045,54.4727 16,52.5C 16.9906,53.9389 18.324,54.9389 20,55.5C 20.7348,57.8713 21.5682,60.2046 22.5,62.5C 21.9953,63.9185 20.9953,64.5852 19.5,64.5 Z"/></g>
<g><path style="opacity:1" fill="#54b8ba" d="M 48.5,59.5 C 45.3908,59.3447 42.3908,58.6781 39.5,57.5C 40.2634,56.2807 41.2634,55.2807 42.5,54.5C 40.9547,53.5481 39.288,53.2148 37.5,53.5C 37.8212,51.9519 38.8212,51.2852 40.5,51.5C 42.7224,51.822 44.5557,51.1554 46,49.5C 46.2223,53.0561 47.0556,56.3895 48.5,59.5 Z"/></g>
<g><path style="opacity:1" fill="#369aa4" d="M 61.5,47.5 C 62.4345,48.5676 62.7678,49.901 62.5,51.5C 60.2233,54.6649 58.89,58.3316 58.5,62.5C 47.4133,70.7942 40.4133,68.1276 37.5,54.5C 37.5,54.1667 37.5,53.8333 37.5,53.5C 39.288,53.2148 40.9547,53.5481 42.5,54.5C 41.2634,55.2807 40.2634,56.2807 39.5,57.5C 42.3908,58.6781 45.3908,59.3447 48.5,59.5C 43.0975,60.9544 43.2642,62.2877 49,63.5C 54.2787,61.8235 54.4454,60.8235 49.5,60.5C 50.1667,58.5 50.8333,56.5 51.5,54.5C 54.8599,54.3841 58.1933,54.0508 61.5,53.5C 61.5,51.5 61.5,49.5 61.5,47.5 Z"/></g>
<g><path style="opacity:1" fill="#57b6b5" d="M 61.5,46.5 C 61.5,46.8333 61.5,47.1667 61.5,47.5C 61.5,49.5 61.5,51.5 61.5,53.5C 58.1933,54.0508 54.8599,54.3841 51.5,54.5C 51.238,53.0222 51.5713,51.6888 52.5,50.5C 54.4325,51.5202 56.4325,51.6869 58.5,51C 59.3366,49.9887 59.67,48.8221 59.5,47.5C 52.6101,45.8522 49.4435,48.5189 50,55.5C 49.2642,52.408 49.4309,49.408 50.5,46.5C 50.8333,46.5 51.1667,46.5 51.5,46.5C 54.8333,45.1667 58.1667,45.1667 61.5,46.5 Z"/></g>
<g><path style="opacity:1" fill="#346467" d="M 36.5,46.5 C 36.8333,46.5 37.1667,46.5 37.5,46.5C 40.3596,47.2439 43.3596,47.9106 46.5,48.5C 47.3184,51.1071 47.8184,53.7737 48,56.5C 48.7466,53.0764 48.58,49.7431 47.5,46.5C 48.5,46.5 49.5,46.5 50.5,46.5C 49.4309,49.408 49.2642,52.408 50,55.5C 49.4435,48.5189 52.6101,45.8522 59.5,47.5C 59.67,48.8221 59.3366,49.9887 58.5,51C 56.4325,51.6869 54.4325,51.5202 52.5,50.5C 51.5713,51.6888 51.238,53.0222 51.5,54.5C 50.8333,56.5 50.1667,58.5 49.5,60.5C 54.4454,60.8235 54.2787,61.8235 49,63.5C 43.2642,62.2877 43.0975,60.9544 48.5,59.5C 47.0556,56.3895 46.2223,53.0561 46,49.5C 44.5557,51.1554 42.7224,51.822 40.5,51.5C 41.3984,50.8423 42.3984,50.1757 43.5,49.5C 41.2573,48.5258 38.924,48.1924 36.5,48.5C 36.2155,50.4147 36.5489,52.0813 37.5,53.5C 37.5,53.8333 37.5,54.1667 37.5,54.5C 35.1559,52.2821 34.8226,49.6154 36.5,46.5 Z"/></g>
<g><path style="opacity:1" fill="#6eb7b8" d="M 47.5,46.5 C 48.58,49.7431 48.7466,53.0764 48,56.5C 47.8184,53.7737 47.3184,51.1071 46.5,48.5C 43.3596,47.9106 40.3596,47.2439 37.5,46.5C 40.7814,45.372 44.1148,45.372 47.5,46.5 Z"/></g>
<g><path style="opacity:1" fill="#699c9e" d="M 40.5,51.5 C 38.8212,51.2852 37.8212,51.9519 37.5,53.5C 36.5489,52.0813 36.2155,50.4147 36.5,48.5C 38.924,48.1924 41.2573,48.5258 43.5,49.5C 42.3984,50.1757 41.3984,50.8423 40.5,51.5 Z"/></g>
<g><path style="opacity:1" fill="#2c818f" d="M 31.5,43.5 C 32.5,43.5 33.5,43.5 34.5,43.5C 34.5,45.8333 34.5,48.1667 34.5,50.5C 33.5,50.5 32.5,50.5 31.5,50.5C 31.5,48.1667 31.5,45.8333 31.5,43.5 Z"/></g>
<g><path style="opacity:1" fill="#2d858d" d="M 65.5,43.5 C 66.3686,45.717 66.702,48.0504 66.5,50.5C 65.5,50.5 64.5,50.5 63.5,50.5C 62.9898,47.6122 63.6565,45.2789 65.5,43.5 Z"/></g>
<g><path style="opacity:1" fill="#2b4241" d="M 53.5,42.5 C 56.5467,43.1832 59.5467,44.1832 62.5,45.5C 62.5,46.1667 62.1667,46.5 61.5,46.5C 58.1667,45.1667 54.8333,45.1667 51.5,46.5C 51.1568,44.5168 51.8235,43.1834 53.5,42.5 Z"/></g>
<g><path style="opacity:1" fill="#aea079" d="M 62.5,45.5 C 59.5467,44.1832 56.5467,43.1832 53.5,42.5C 55.2884,41.3775 57.2884,41.2109 59.5,42C 61.4257,42.4224 62.4257,43.5891 62.5,45.5 Z"/></g>
<g><path style="opacity:1" fill="#b4aa89" d="M 36.5,43.5 C 36.5,43.1667 36.5,42.8333 36.5,42.5C 39.5839,41.0158 42.5839,41.1825 45.5,43C 42.7759,43.2695 40.1092,43.7695 37.5,44.5C 36.8933,44.3764 36.56,44.0431 36.5,43.5 Z"/></g>
<g><path style="opacity:1" fill="#c6af88" d="M 42.5,35.5 C 46.4603,39.1076 50.7936,39.4409 55.5,36.5C 55.8333,36.5 56.1667,36.5 56.5,36.5C 56.5,37.1667 56.5,37.8333 56.5,38.5C 54.2163,38.9752 52.2163,39.9752 50.5,41.5C 46.6625,41.0871 43.6625,39.4205 41.5,36.5C 41.5,35.8333 41.8333,35.5 42.5,35.5 Z"/></g>
<g><path style="opacity:1" fill="#afa88e" d="M 36.5,41.5 C 35.3433,38.9741 35.3433,36.3074 36.5,33.5C 36.3691,32.6236 36.7025,31.9569 37.5,31.5C 38.6548,34.4459 38.8214,37.4459 38,40.5C 37.6174,41.056 37.1174,41.3893 36.5,41.5 Z"/></g>
<g><path style="opacity:1" fill="#aca37f" d="M 60.5,31.5 C 61.913,34.2186 62.5797,37.2186 62.5,40.5C 61.209,40.7373 60.209,40.404 59.5,39.5C 59.1936,36.6146 59.5269,33.9479 60.5,31.5 Z"/></g>
<g><path style="opacity:1" fill="#56949b" d="M 49.5,33.5 C 50.1667,33.5 50.8333,33.5 51.5,33.5C 52.1667,33.5 52.8333,33.5 53.5,33.5C 53.5499,35.5901 52.5499,36.9234 50.5,37.5C 49.5713,36.3112 49.238,34.9778 49.5,33.5 Z"/></g>
<g><path style="opacity:1" fill="#74b1c0" d="M 44.5,35.5 C 45.5676,34.5655 46.901,34.2322 48.5,34.5C 48.719,35.675 48.3857,36.675 47.5,37.5C 46.4822,36.8075 45.4822,36.1408 44.5,35.5 Z"/></g>
<g><path style="opacity:1" fill="#487982" d="M 13.5,63.5 C 14.1667,63.8333 14.8333,64.1667 15.5,64.5C 19.5062,73.1729 25.8396,79.5063 34.5,83.5C 32.8561,83.2865 31.3561,83.6198 30,84.5C 25.7548,80.2548 21.4215,75.9215 17,71.5C 16.3333,70.1667 15.6667,68.8333 15,67.5C 13.9505,68.5171 12.7839,68.6838 11.5,68C 13.1066,66.951 13.7733,65.451 13.5,63.5 Z"/></g>
<g><path style="opacity:1" fill="#2b5e68" d="M 61.5,80.5 C 62.968,79.2209 63.6347,77.5542 63.5,75.5C 63.8333,75.5 64.1667,75.5 64.5,75.5C 64.3691,76.3764 64.7025,77.0431 65.5,77.5C 70.4187,75.4146 74.2521,72.0813 77,67.5C 77.6172,66.5509 77.4506,65.7175 76.5,65C 74.6675,64.2515 73.0009,63.2515 71.5,62C 72.0944,61.5357 72.7611,61.369 73.5,61.5C 75.1086,62.7709 76.9419,63.7709 79,64.5C 80.8647,60.5698 82.5314,56.5698 84,52.5C 82.6233,66.714 75.1233,76.0473 61.5,80.5 Z"/></g>
<g><path style="opacity:1" fill="#2c5e6b" d="M 15.5,58.5 C 16.6528,60.636 17.9862,62.636 19.5,64.5C 19.3284,65.4916 19.6618,66.1583 20.5,66.5C 22.913,71.2478 26.5796,74.5811 31.5,76.5C 35.3632,80.2872 40.0298,81.7872 45.5,81C 44.6721,80.0853 43.6721,79.4186 42.5,79C 45.9301,78.3622 47.2634,79.8622 46.5,83.5C 39.6795,82.8374 33.3462,80.6707 27.5,77C 23.2688,72.9379 19.2688,68.7712 15.5,64.5C 15.5,62.5 15.5,60.5 15.5,58.5 Z"/></g>
<g><path style="opacity:1" fill="#517985" d="M 84.5,63.5 C 84.2267,65.451 84.8934,66.951 86.5,68C 85.1667,68.3333 83.8333,68.6667 82.5,69C 77.9572,76.3998 71.6239,81.2331 63.5,83.5C 72.4731,78.8592 79.4731,72.1925 84.5,63.5 Z"/></g>
<g><path style="opacity:1" fill="#102e3e" d="M 82.5,48.5 C 84.1667,48.5 85.8333,48.5 87.5,48.5C 86.6586,53.5322 85.6586,58.5322 84.5,63.5C 79.4731,72.1925 72.4731,78.8592 63.5,83.5C 53.8349,86.1664 44.1682,86.1664 34.5,83.5C 25.8396,79.5063 19.5062,73.1729 15.5,64.5C 19.2688,68.7712 23.2688,72.9379 27.5,77C 33.3462,80.6707 39.6795,82.8374 46.5,83.5C 47.2634,79.8622 45.9301,78.3622 42.5,79C 43.6721,79.4186 44.6721,80.0853 45.5,81C 40.0298,81.7872 35.3632,80.2872 31.5,76.5C 32.4972,76.5299 33.1639,76.0299 33.5,75C 32.1476,73.0356 31.3143,70.8689 31,68.5C 30.586,68.9574 30.086,69.2907 29.5,69.5C 27.7801,68.0451 25.7801,67.2117 23.5,67C 24.5842,64.1751 25.7508,64.0085 27,66.5C 30.1714,65.6725 32.8381,66.6725 35,69.5C 35.6172,68.5509 35.4506,67.7175 34.5,67C 35.1667,66.3333 35.8333,66.3333 36.5,67C 37.9774,69.1485 39.9774,70.4818 42.5,71C 41.4464,72.3876 41.2797,73.8876 42,75.5C 42.3333,74.8333 42.6667,74.1667 43,73.5C 43.1118,76.4471 44.6118,77.7804 47.5,77.5C 48.1834,79.1765 49.5168,79.8432 51.5,79.5C 51.5,80.8333 51.5,82.1667 51.5,83.5C 55.2142,83.4098 58.5475,82.4098 61.5,80.5C 75.1233,76.0473 82.6233,66.714 84,52.5C 82.5314,56.5698 80.8647,60.5698 79,64.5C 76.9419,63.7709 75.1086,62.7709 73.5,61.5C 74.0967,61.2648 74.4301,60.7648 74.5,60C 72.8881,58.518 71.8881,56.6847 71.5,54.5C 72.552,54.6495 73.552,54.4828 74.5,54C 72.4049,53.4444 72.2382,52.9444 74,52.5C 78.4487,54.517 81.282,53.1836 82.5,48.5 Z"/></g>
<g><path style="opacity:1" fill="#0d2539" d="M 63.5,75.5 C 63.6347,77.5542 62.968,79.2209 61.5,80.5C 58.5071,81.1346 55.5071,81.3013 52.5,81C 55.4499,78.4689 58.6165,76.3022 62,74.5C 62.3826,75.056 62.8826,75.3893 63.5,75.5 Z"/></g>
<g><path style="opacity:1" fill="#2b4a53" d="M 64.5,75.5 C 64.1667,75.5 63.8333,75.5 63.5,75.5C 62.8826,75.3893 62.3826,75.056 62,74.5C 58.6165,76.3022 55.4499,78.4689 52.5,81C 55.5071,81.3013 58.5071,81.1346 61.5,80.5C 58.5475,82.4098 55.2142,83.4098 51.5,83.5C 51.5,82.1667 51.5,80.8333 51.5,79.5C 49.5168,79.8432 48.1834,79.1765 47.5,77.5C 47.8923,75.8211 48.3923,74.1545 49,72.5C 51.0539,79.1044 53.0539,79.1044 55,72.5C 55.3333,73.1667 55.6667,73.8333 56,74.5C 58.3294,71.2086 60.996,71.2086 64,74.5C 64.3879,73.572 65.0546,72.9054 66,72.5C 67.8154,74.2174 67.3154,75.2174 64.5,75.5 Z"/></g>
<g><path style="opacity:1" fill="#37525e" d="M 65.5,66.5 C 68.8968,66.7372 70.7301,68.4039 71,71.5C 69.386,68.3977 67.5526,68.0644 65.5,70.5C 64.3744,69.1916 64.3744,67.8583 65.5,66.5 Z"/></g>
<g><path style="opacity:1" fill="#426f7f" d="M 34.5,83.5 C 44.1682,86.1664 53.8349,86.1664 63.5,83.5C 62.158,84.793 60.4913,85.6264 58.5,86C 52.8333,86.6667 47.1667,86.6667 41.5,86C 38.8091,85.8442 36.4758,85.0109 34.5,83.5 Z"/></g>
<g><path style="opacity:1" fill="#325c6d" d="M 40.5,89.5 C 45.3158,88.3503 50.3158,88.1837 55.5,89C 51.3901,89.4829 48.3901,90.6496 46.5,92.5C 46.5,91.5 46.5,90.5 46.5,89.5C 44.5,89.5 42.5,89.5 40.5,89.5 Z"/></g>
</svg>
