<?xml version="1.0" encoding="UTF-8"?>
<!DOCTYPE svg PUBLIC "-//W3C//DTD SVG 1.1//EN" "http://www.w3.org/Graphics/SVG/1.1/DTD/svg11.dtd">
<svg xmlns="http://www.w3.org/2000/svg" version="1.1" width="100px" height="100px" style="shape-rendering:geometricPrecision; text-rendering:geometricPrecision; image-rendering:optimizeQuality; fill-rule:evenodd; clip-rule:evenodd" xmlns:xlink="http://www.w3.org/1999/xlink">
<g><path style="opacity:1" fill="#25b0db" d="M -0.5,-0.5 C 32.8333,-0.5 66.1667,-0.5 99.5,-0.5C 99.5,32.8333 99.5,66.1667 99.5,99.5C 66.1667,99.5 32.8333,99.5 -0.5,99.5C -0.5,66.1667 -0.5,32.8333 -0.5,-0.5 Z"/></g>
<g><path style="opacity:1" fill="#1d79a0" d="M 53.5,17.5 C 54.4486,16.8476 55.6153,16.5143 57,16.5C 60.4494,17.4702 63.9494,18.3035 67.5,19C 69.4474,22.0699 71.9474,24.5699 75,26.5C 76.0698,29.8765 77.2365,33.2098 78.5,36.5C 78.0183,44.4613 78.0183,52.4613 78.5,60.5C 77.3509,60.2089 76.6842,59.3756 76.5,58C 76.9263,56.0157 77.2597,54.0157 77.5,52C 76.3809,48.5918 75.7143,45.0918 75.5,41.5C 75.7233,39.6583 76.0566,37.825 76.5,36C 75.1693,33.3715 74.3359,30.5382 74,27.5C 71.1482,25.0487 68.3149,22.7154 65.5,20.5C 61.7939,18.4887 57.7939,17.4887 53.5,17.5 Z"/></g>
<g><path style="opacity:1" fill="#f07529" d="M 48.5,25.5 C 48.7828,26.2891 49.2828,26.9558 50,27.5C 51,26.5 52,25.5 53,24.5C 53.009,27.35 51.8423,29.6833 49.5,31.5C 47.5159,29.5403 46.6826,27.207 47,24.5C 47.3826,25.056 47.8826,25.3893 48.5,25.5 Z"/></g>
<g><path style="opacity:1" fill="#f3eae0" d="M 53.5,17.5 C 57.7939,17.4887 61.7939,18.4887 65.5,20.5C 67.3563,23.5186 69.6897,26.1853 72.5,28.5C 71.624,29.2508 70.624,29.7508 69.5,30C 71.0905,31.0458 72.5905,32.2125 74,33.5C 74.765,35.0657 74.5983,36.3991 73.5,37.5C 73.3957,35.0272 72.3957,34.3606 70.5,35.5C 72.6682,38.4979 73.6682,41.8313 73.5,45.5C 73.6068,47.3786 73.1068,47.7119 72,46.5C 71.5291,44.7536 70.8624,43.087 70,41.5C 70.2227,44.2572 70.0561,46.9239 69.5,49.5C 67.9113,48.1279 66.5779,46.4612 65.5,44.5C 64.7022,46.0777 64.2022,47.7444 64,49.5C 63.6667,48.1667 63.3333,46.8333 63,45.5C 62.6667,46.1667 62.3333,46.8333 62,47.5C 61.1495,44.3876 59.9828,44.0542 58.5,46.5C 57.5745,45.3595 56.7412,45.3595 56,46.5C 55.7216,45.5842 55.2216,44.9175 54.5,44.5C 52.0837,41.9659 49.7504,41.9659 47.5,44.5C 46.0242,46.7089 46.6909,48.0423 49.5,48.5C 49.9175,49.2216 50.5842,49.7216 51.5,50C 50.2068,50.49 48.8734,50.6567 47.5,50.5C 45.965,49.6457 44.6316,49.6457 43.5,50.5C 42.6356,53.9046 41.469,57.2379 40,60.5C 39.8446,58.144 39.8446,55.8107 40,53.5C 39.3333,54.8333 38.6667,56.1667 38,57.5C 37.8333,56.5 37.6667,55.5 37.5,54.5C 38.3323,51.5182 38.499,48.5182 38,45.5C 36.4579,49.1508 34.7912,52.8175 33,56.5C 32.3131,54.4325 32.4798,52.4325 33.5,50.5C 32.689,49.7836 32.0223,48.9503 31.5,48C 32.8202,42.0262 35.4869,36.6929 39.5,32C 41.6954,30.627 44.0288,30.2937 46.5,31C 44.7295,31.5354 44.3961,32.3687 45.5,33.5C 46.8599,32.8201 48.1932,32.1534 49.5,31.5C 51.8423,29.6833 53.009,27.35 53,24.5C 52,25.5 51,26.5 50,27.5C 49.2828,26.9558 48.7828,26.2891 48.5,25.5C 47.0089,24.0869 46.3423,22.5869 46.5,21C 41.9089,20.0577 37.5755,20.5577 33.5,22.5C 34.5198,20.648 36.0198,19.3147 38,18.5C 41.1275,19.2037 44.2942,19.7037 47.5,20C 48,20.5 48.5,21 49,21.5C 50.6667,20.2668 52.1667,18.9335 53.5,17.5 Z"/></g>
<g><path style="opacity:1" fill="#202123" d="M 42.5,34.5 C 43.5,34.5 44.5,34.5 45.5,34.5C 45.5,35.8333 45.5,37.1667 45.5,38.5C 42.0464,38.7332 41.0464,37.3999 42.5,34.5 Z"/></g>
<g><path style="opacity:1" fill="#202124" d="M 55.5,34.5 C 57.9118,34.6941 58.9118,36.0274 58.5,38.5C 57.1667,38.5 55.8333,38.5 54.5,38.5C 54.4326,37.0413 54.7659,35.7079 55.5,34.5 Z"/></g>
<g><path style="opacity:1" fill="#1b2c43" d="M 65.5,20.5 C 68.3149,22.7154 71.1482,25.0487 74,27.5C 74.3359,30.5382 75.1693,33.3715 76.5,36C 76.0566,37.825 75.7233,39.6583 75.5,41.5C 74.6554,40.3285 73.9887,38.9952 73.5,37.5C 74.5983,36.3991 74.765,35.0657 74,33.5C 72.5905,32.2125 71.0905,31.0458 69.5,30C 70.624,29.7508 71.624,29.2508 72.5,28.5C 69.6897,26.1853 67.3563,23.5186 65.5,20.5 Z"/></g>
<g><path style="opacity:1" fill="#676869" d="M 54.5,44.5 C 52.1667,45.8333 49.8333,45.8333 47.5,44.5C 49.7504,41.9659 52.0837,41.9659 54.5,44.5 Z"/></g>
<g><path style="opacity:1" fill="#3391b6" d="M 30.5,24.5 C 26.9851,27.3434 25.9851,30.8434 27.5,35C 24.5795,38.6707 23.2462,42.8373 23.5,47.5C 22.1919,49.6381 22.5252,51.6381 24.5,53.5C 24.5,55.1667 24.5,56.8333 24.5,58.5C 25.0588,62.8526 25.7255,67.186 26.5,71.5C 23.8373,63.8594 22.1706,55.8594 21.5,47.5C 23.5782,41.3303 25.0782,34.997 26,28.5C 26.7475,26.249 28.2475,24.9156 30.5,24.5 Z"/></g>
<g><path style="opacity:1" fill="#91a2a9" d="M 24.5,53.5 C 22.5252,51.6381 22.1919,49.6381 23.5,47.5C 23.369,48.2389 23.5357,48.9056 24,49.5C 24.4186,48.3279 25.0853,47.3279 26,46.5C 26.0683,48.9949 25.5683,51.3282 24.5,53.5 Z"/></g>
<g><path style="opacity:1" fill="#dacec4" d="M 73.5,45.5 C 74.9723,47.1175 75.639,49.1175 75.5,51.5C 75.4962,57.161 75.4962,62.8277 75.5,68.5C 74.7189,67.2713 74.2189,65.938 74,64.5C 73.8214,67.5535 73.3214,70.5535 72.5,73.5C 71.0118,71.8507 70.0118,69.8507 69.5,67.5C 68.6207,71.1541 67.7873,74.8208 67,78.5C 65.1413,79.5791 63.6413,80.9124 62.5,82.5C 61.1667,82.1667 59.8333,81.8333 58.5,81.5C 57.9518,79.3736 57.2852,77.3736 56.5,75.5C 56.56,74.9569 56.8933,74.6236 57.5,74.5C 58.2508,75.376 58.7508,76.376 59,77.5C 61.5432,71.1536 64.2099,64.8203 67,58.5C 67.9147,59.3279 68.5814,60.3279 69,61.5C 70.3074,58.525 71.1407,55.3583 71.5,52C 71.3158,50.6244 70.6491,49.7911 69.5,49.5C 70.0561,46.9239 70.2227,44.2572 70,41.5C 70.8624,43.087 71.5291,44.7536 72,46.5C 73.1068,47.7119 73.6068,47.3786 73.5,45.5 Z"/></g>
<g><path style="opacity:1" fill="#efdfcc" d="M 48.5,25.5 C 47.8826,25.3893 47.3826,25.056 47,24.5C 46.6826,27.207 47.5159,29.5403 49.5,31.5C 48.1932,32.1534 46.8599,32.8201 45.5,33.5C 44.3961,32.3687 44.7295,31.5354 46.5,31C 44.0288,30.2937 41.6954,30.627 39.5,32C 35.4869,36.6929 32.8202,42.0262 31.5,48C 32.0223,48.9503 32.689,49.7836 33.5,50.5C 32.4798,52.4325 32.3131,54.4325 33,56.5C 34.7912,52.8175 36.4579,49.1508 38,45.5C 38.499,48.5182 38.3323,51.5182 37.5,54.5C 37.6667,55.5 37.8333,56.5 38,57.5C 38.6667,56.1667 39.3333,54.8333 40,53.5C 39.8446,55.8107 39.8446,58.144 40,60.5C 41.469,57.2379 42.6356,53.9046 43.5,50.5C 45.644,52.1331 47.3107,54.1331 48.5,56.5C 49.3143,58.2726 50.6476,58.7726 52.5,58C 54.1554,56.5557 54.822,54.7224 54.5,52.5C 57.1662,52.9342 58.3329,51.9342 58,49.5C 54.4887,51.3459 50.9887,51.6793 47.5,50.5C 48.8734,50.6567 50.2068,50.49 51.5,50C 50.5842,49.7216 49.9175,49.2216 49.5,48.5C 52.9496,49.2436 54.6162,47.9103 54.5,44.5C 55.2216,44.9175 55.7216,45.5842 56,46.5C 56.7412,45.3595 57.5745,45.3595 58.5,46.5C 59.9828,44.0542 61.1495,44.3876 62,47.5C 62.3333,46.8333 62.6667,46.1667 63,45.5C 63.3333,46.8333 63.6667,48.1667 64,49.5C 64.2022,47.7444 64.7022,46.0777 65.5,44.5C 66.5779,46.4612 67.9113,48.1279 69.5,49.5C 70.6491,49.7911 71.3158,50.6244 71.5,52C 71.1407,55.3583 70.3074,58.525 69,61.5C 68.5814,60.3279 67.9147,59.3279 67,58.5C 64.2099,64.8203 61.5432,71.1536 59,77.5C 58.7508,76.376 58.2508,75.376 57.5,74.5C 56.8933,74.6236 56.56,74.9569 56.5,75.5C 56.1667,76.8333 55.8333,78.1667 55.5,79.5C 52.7683,76.8373 51.2683,73.5039 51,69.5C 49.883,70.9494 49.2163,72.6161 49,74.5C 47.8967,67.006 46.5634,67.3394 45,75.5C 45.1933,69.6065 43.5266,68.6065 40,72.5C 39.6667,70.1667 39.3333,67.8333 39,65.5C 38.4444,67.5951 37.9444,67.7618 37.5,66C 38.4091,64.2108 38.5758,62.3774 38,60.5C 37.187,62.4357 36.687,64.4357 36.5,66.5C 35.5,66.5 34.5,66.5 33.5,66.5C 33.6495,67.552 33.4828,68.552 33,69.5C 32.6667,66.8333 32.3333,64.1667 32,61.5C 31.1376,63.087 30.4709,64.7536 30,66.5C 29.8724,63.4856 29.8724,60.4856 30,57.5C 29.0201,59.0589 28.1867,60.7256 27.5,62.5C 26.7022,60.9223 26.2022,59.2556 26,57.5C 25.6174,58.056 25.1174,58.3893 24.5,58.5C 24.5,56.8333 24.5,55.1667 24.5,53.5C 25.5683,51.3282 26.0683,48.9949 26,46.5C 25.0853,47.3279 24.4186,48.3279 24,49.5C 23.5357,48.9056 23.369,48.2389 23.5,47.5C 23.2462,42.8373 24.5795,38.6707 27.5,35C 25.9851,30.8434 26.9851,27.3434 30.5,24.5C 30.9731,23.0937 31.9731,22.427 33.5,22.5C 37.5755,20.5577 41.9089,20.0577 46.5,21C 46.3423,22.5869 47.0089,24.0869 48.5,25.5 Z"/></g>
<g><path style="opacity:1" fill="#2b2120" d="M 43.5,50.5 C 44.6316,49.6457 45.965,49.6457 47.5,50.5C 50.9887,51.6793 54.4887,51.3459 58,49.5C 58.3329,51.9342 57.1662,52.9342 54.5,52.5C 54.822,54.7224 54.1554,56.5557 52.5,58C 50.6476,58.7726 49.3143,58.2726 48.5,56.5C 47.3107,54.1331 45.644,52.1331 43.5,50.5 Z"/></g>
<g><path style="opacity:1" fill="#de5641" d="M 48.5,56.5 C 48.4606,55.4168 48.1272,54.4168 47.5,53.5C 49.216,53.0028 50.8827,52.6694 52.5,52.5C 53.7609,54.5618 53.2609,56.2285 51,57.5C 50.3292,56.7476 49.4959,56.4142 48.5,56.5 Z"/></g>
<g><path style="opacity:1" fill="#0e0e10" d="M 47.5,44.5 C 49.8333,45.8333 52.1667,45.8333 54.5,44.5C 54.6162,47.9103 52.9496,49.2436 49.5,48.5C 46.6909,48.0423 46.0242,46.7089 47.5,44.5 Z"/></g>
<g><path style="opacity:1" fill="#66676b" d="M 29.5,41.5 C 30.7125,42.4971 30.5458,43.4971 29,44.5C 28.5304,43.4232 28.6971,42.4232 29.5,41.5 Z"/></g>
<g><path style="opacity:1" fill="#181e27" d="M 73.5,37.5 C 73.9887,38.9952 74.6554,40.3285 75.5,41.5C 75.7143,45.0918 76.3809,48.5918 77.5,52C 77.2597,54.0157 76.9263,56.0157 76.5,58C 76.6842,59.3756 77.3509,60.2089 78.5,60.5C 78.9605,65.4892 77.9605,70.1559 75.5,74.5C 73.604,75.4656 71.604,75.7989 69.5,75.5C 69.5,76.8333 69.5,78.1667 69.5,79.5C 67.5395,81.3122 65.2061,82.3122 62.5,82.5C 63.6413,80.9124 65.1413,79.5791 67,78.5C 67.7873,74.8208 68.6207,71.1541 69.5,67.5C 70.0118,69.8507 71.0118,71.8507 72.5,73.5C 73.3214,70.5535 73.8214,67.5535 74,64.5C 74.2189,65.938 74.7189,67.2713 75.5,68.5C 75.4962,62.8277 75.4962,57.161 75.5,51.5C 75.639,49.1175 74.9723,47.1175 73.5,45.5C 73.6682,41.8313 72.6682,38.4979 70.5,35.5C 72.3957,34.3606 73.3957,35.0272 73.5,37.5 Z"/></g>
<g><path style="opacity:1" fill="#1b83aa" d="M 78.5,60.5 C 79.1599,61.964 79.4932,63.6307 79.5,65.5C 78.823,69.1716 78.1563,72.8383 77.5,76.5C 74.014,75.8285 71.3473,76.8285 69.5,79.5C 69.5,78.1667 69.5,76.8333 69.5,75.5C 71.604,75.7989 73.604,75.4656 75.5,74.5C 77.9605,70.1559 78.9605,65.4892 78.5,60.5 Z"/></g>
<g><path style="opacity:1" fill="#d4c7bb" d="M 55.5,79.5 C 55.1667,80.8333 54.8333,82.1667 54.5,83.5C 53.0014,82.3218 52.0014,80.6551 51.5,78.5C 50.8933,78.6236 50.56,78.9569 50.5,79.5C 48.0131,84.9016 46.1798,84.5683 45,78.5C 43.6081,81.2784 43.1081,84.2784 43.5,87.5C 42.8333,87.1667 42.1667,86.8333 41.5,86.5C 41.5979,84.4471 40.9313,82.7804 39.5,81.5C 39.5,81.1667 39.5,80.8333 39.5,80.5C 39.6602,78.8008 39.4935,77.1341 39,75.5C 37.9085,77.1309 37.0751,78.7975 36.5,80.5C 35.0568,79.6649 34.0568,78.3316 33.5,76.5C 32.7189,77.7287 32.2189,79.062 32,80.5C 31.8214,77.4465 31.3214,74.4465 30.5,71.5C 29.7492,72.376 29.2492,73.376 29,74.5C 28.6582,72.3808 27.8249,72.0474 26.5,73.5C 26.5,72.8333 26.5,72.1667 26.5,71.5C 25.7255,67.186 25.0588,62.8526 24.5,58.5C 25.1174,58.3893 25.6174,58.056 26,57.5C 26.2022,59.2556 26.7022,60.9223 27.5,62.5C 28.1867,60.7256 29.0201,59.0589 30,57.5C 29.8724,60.4856 29.8724,63.4856 30,66.5C 30.4709,64.7536 31.1376,63.087 32,61.5C 32.3333,64.1667 32.6667,66.8333 33,69.5C 33.4828,68.552 33.6495,67.552 33.5,66.5C 34.5,66.5 35.5,66.5 36.5,66.5C 36.687,64.4357 37.187,62.4357 38,60.5C 38.5758,62.3774 38.4091,64.2108 37.5,66C 37.9444,67.7618 38.4444,67.5951 39,65.5C 39.3333,67.8333 39.6667,70.1667 40,72.5C 43.5266,68.6065 45.1933,69.6065 45,75.5C 46.5634,67.3394 47.8967,67.006 49,74.5C 49.2163,72.6161 49.883,70.9494 51,69.5C 51.2683,73.5039 52.7683,76.8373 55.5,79.5 Z"/></g>
<g><path style="opacity:1" fill="#14161c" d="M 39.5,80.5 C 38.2022,81.1157 37.2022,81.1157 36.5,80.5C 37.0751,78.7975 37.9085,77.1309 39,75.5C 39.4935,77.1341 39.6602,78.8008 39.5,80.5 Z"/></g>
<g><path style="opacity:1" fill="#315e7b" d="M 36.5,80.5 C 37.2022,81.1157 38.2022,81.1157 39.5,80.5C 39.5,80.8333 39.5,81.1667 39.5,81.5C 37.0336,82.6341 34.367,82.8007 31.5,82C 30.778,78.4815 29.1113,75.6482 26.5,73.5C 27.8249,72.0474 28.6582,72.3808 29,74.5C 29.2492,73.376 29.7492,72.376 30.5,71.5C 31.3214,74.4465 31.8214,77.4465 32,80.5C 32.2189,79.062 32.7189,77.7287 33.5,76.5C 34.0568,78.3316 35.0568,79.6649 36.5,80.5 Z"/></g>
<g><path style="opacity:1" fill="#1b2738" d="M 56.5,75.5 C 57.2852,77.3736 57.9518,79.3736 58.5,81.5C 57.6773,84.0723 56.0107,85.239 53.5,85C 54.056,84.6174 54.3893,84.1174 54.5,83.5C 54.8333,82.1667 55.1667,80.8333 55.5,79.5C 55.8333,78.1667 56.1667,76.8333 56.5,75.5 Z"/></g>
<g><path style="opacity:1" fill="#222d3e" d="M 50.5,79.5 C 51.5983,80.6009 51.765,81.9343 51,83.5C 48.8807,84.6508 47.0473,86.1508 45.5,88C 44.5632,88.6917 43.8966,88.525 43.5,87.5C 43.1081,84.2784 43.6081,81.2784 45,78.5C 46.1798,84.5683 48.0131,84.9016 50.5,79.5 Z"/></g>
<g><path style="opacity:1" fill="#297b9f" d="M 50.5,79.5 C 50.56,78.9569 50.8933,78.6236 51.5,78.5C 52.0014,80.6551 53.0014,82.3218 54.5,83.5C 54.3893,84.1174 54.056,84.6174 53.5,85C 56.0107,85.239 57.6773,84.0723 58.5,81.5C 59.8333,81.8333 61.1667,82.1667 62.5,82.5C 65.2061,82.3122 67.5395,81.3122 69.5,79.5C 68.7813,81.8881 67.1146,83.3881 64.5,84C 58.895,85.4284 53.2283,86.595 47.5,87.5C 46.3073,89.3837 44.6406,89.8837 42.5,89C 41.7476,88.3292 41.4142,87.4959 41.5,86.5C 42.1667,86.8333 42.8333,87.1667 43.5,87.5C 43.8966,88.525 44.5632,88.6917 45.5,88C 47.0473,86.1508 48.8807,84.6508 51,83.5C 51.765,81.9343 51.5983,80.6009 50.5,79.5 Z"/></g>
</svg>
