<?xml version="1.0" encoding="UTF-8"?>
<!DOCTYPE svg PUBLIC "-//W3C//DTD SVG 1.1//EN" "http://www.w3.org/Graphics/SVG/1.1/DTD/svg11.dtd">
<svg xmlns="http://www.w3.org/2000/svg" version="1.1" width="100px" height="100px" style="shape-rendering:geometricPrecision; text-rendering:geometricPrecision; image-rendering:optimizeQuality; fill-rule:evenodd; clip-rule:evenodd" xmlns:xlink="http://www.w3.org/1999/xlink">
<g><path style="opacity:1" fill="#7b18f3" d="M -0.5,-0.5 C 32.8333,-0.5 66.1667,-0.5 99.5,-0.5C 99.5,32.8333 99.5,66.1667 99.5,99.5C 66.1667,99.5 32.8333,99.5 -0.5,99.5C -0.5,66.1667 -0.5,32.8333 -0.5,-0.5 Z"/></g>
<g><path style="opacity:1" fill="#fcfafe" d="M 52.5,25.5 C 58.1667,25.5 63.8333,25.5 69.5,25.5C 69.1771,31.69 69.5104,37.69 70.5,43.5C 72.4352,44.1495 74.4352,44.4828 76.5,44.5C 76.0074,46.8056 75.6741,49.139 75.5,51.5C 72.0903,51.2181 68.757,50.5514 65.5,49.5C 65.1667,50 64.8333,50.5 64.5,51C 67.9467,53.2268 71.6134,55.2268 75.5,57C 78.3449,61.264 78.0116,65.264 74.5,69C 70.8897,71.4364 66.8897,72.603 62.5,72.5C 62.67,71.1779 62.3366,70.0113 61.5,69C 59.1401,67.8201 56.8068,66.6534 54.5,65.5C 54.9985,62.4985 56.4985,60.1651 59,58.5C 62.1212,60.9859 65.6212,62.1525 69.5,62C 65.9934,59.746 62.3267,57.746 58.5,56C 55.1759,50.3109 56.5092,45.9776 62.5,43C 59.7202,42.7308 57.5536,43.8975 56,46.5C 55.7239,52.702 54.5573,58.702 52.5,64.5C 49.6965,65.6378 46.6965,65.8045 43.5,65C 41.9179,61.6888 40.9179,58.1888 40.5,54.5C 40.5386,53.2438 40.0386,52.2438 39,51.5C 38.5006,57.1569 38.3339,62.8236 38.5,68.5C 33.8333,68.5 29.1667,68.5 24.5,68.5C 24.5,53.8333 24.5,39.1667 24.5,24.5C 30.2055,24.1712 35.8722,24.5046 41.5,25.5C 43.0381,30.9151 44.8714,36.2484 47,41.5C 48.7438,36.101 50.5771,30.7677 52.5,25.5 Z"/></g>
<g><path style="opacity:1" fill="#e0c9fc" d="M 52.5,25.5 C 58.31,24.5104 64.31,24.1771 70.5,24.5C 70.5,30.8333 70.5,37.1667 70.5,43.5C 69.5104,37.69 69.1771,31.69 69.5,25.5C 63.8333,25.5 58.1667,25.5 52.5,25.5 Z"/></g>
<g><path style="opacity:1" fill="#9242f6" d="M 54.5,65.5 C 53.8333,65.1667 53.1667,64.8333 52.5,64.5C 54.5573,58.702 55.7239,52.702 56,46.5C 57.5536,43.8975 59.7202,42.7308 62.5,43C 56.5092,45.9776 55.1759,50.3109 58.5,56C 62.3267,57.746 65.9934,59.746 69.5,62C 65.6212,62.1525 62.1212,60.9859 59,58.5C 56.4985,60.1651 54.9985,62.4985 54.5,65.5 Z"/></g>
<g><path style="opacity:1" fill="#cca6fb" d="M 40.5,54.5 C 39.8333,59.1667 39.1667,63.8333 38.5,68.5C 38.3339,62.8236 38.5006,57.1569 39,51.5C 40.0386,52.2438 40.5386,53.2438 40.5,54.5 Z"/></g>
</svg>
