<?xml version="1.0" standalone="no"?>
<!DOCTYPE svg PUBLIC "-//W3C//DTD SVG 20010904//EN"
 "http://www.w3.org/TR/2001/REC-SVG-20010904/DTD/svg10.dtd">
<svg version="1.0" xmlns="http://www.w3.org/2000/svg"
 width="400.000000pt" height="400.000000pt" viewBox="0 0 400.000000 400.000000"
 preserveAspectRatio="xMidYMid meet">

<g transform="translate(0.000000,400.000000) scale(0.100000,-0.100000)"
fill="#000000" stroke="none">
<path d="M0 2000 l0 -2000 2000 0 2000 0 0 2000 0 2000 -2000 0 -2000 0 0
-2000z m1483 1353 c-7 -2 -21 -2 -30 0 -10 3 -4 5 12 5 17 0 24 -2 18 -5z
m1018 -11 c-7 -2 -18 1 -23 6 -8 8 -4 9 13 5 13 -4 18 -8 10 -11z m179 14 c0
-9 -39 -13 -51 -5 -10 6 -4 9 19 9 17 0 32 -2 32 -4z m-843 -12 c-3 -3 -12 -4
-19 -1 -8 3 -5 6 6 6 11 1 17 -2 13 -5z m548 -4 c25 -11 -1 -11 -35 0 -20 6
-21 8 -5 8 11 0 29 -3 40 -8z m85 -45 c74 -20 145 -37 157 -38 11 -1 19 -5 17
-8 -2 -4 18 -14 44 -24 26 -10 57 -24 70 -32 12 -7 28 -11 34 -7 7 4 8 3 4 -4
-4 -7 -3 -12 3 -12 6 0 37 -18 70 -41 33 -23 65 -38 71 -34 6 3 9 3 8 -2 -5
-15 131 -125 145 -117 6 4 9 3 4 -1 -4 -5 11 -28 35 -52 35 -35 44 -40 57 -30
14 11 14 10 2 -5 -11 -14 -11 -21 -1 -33 7 -8 17 -12 24 -8 6 3 8 3 4 -2 -11
-11 12 -36 25 -28 5 3 7 1 4 -4 -4 -6 11 -35 33 -66 22 -30 40 -58 40 -60 0
-3 -16 -15 -35 -27 -19 -12 -33 -26 -29 -31 3 -5 10 -7 15 -4 5 4 7 -4 5 -17
-3 -13 -5 -26 -5 -29 -1 -4 -8 -9 -15 -12 -11 -4 -13 -1 -9 10 5 12 3 14 -8 8
-8 -5 -6 0 4 12 37 42 -4 35 -64 -11 -32 -25 -63 -46 -68 -46 -4 0 -20 -11
-35 -25 -14 -13 -26 -22 -26 -19 0 2 -25 -12 -55 -32 -47 -32 -53 -39 -43 -53
12 -14 11 -14 -5 -2 -15 12 -20 11 -40 -6 -12 -11 -46 -35 -76 -53 -30 -19
-49 -36 -42 -38 6 -2 11 -8 11 -14 0 -7 -5 -6 -14 1 -20 17 -278 -156 -272
-181 2 -10 0 -18 -5 -18 -5 0 -9 12 -9 27 0 19 -14 40 -51 74 -164 152 -414
183 -623 77 -69 -35 -179 -135 -171 -155 2 -8 0 -11 -5 -8 -15 9 -62 -93 -55
-118 5 -16 4 -18 -3 -8 -30 42 -27 -214 2 -284 22 -51 66 -116 76 -110 4 3 7
-3 6 -12 -2 -23 107 -110 179 -143 81 -38 169 -54 262 -48 78 5 217 44 208 58
-3 4 3 7 13 6 9 0 16 4 15 11 -2 7 3 10 11 7 17 -7 138 104 129 119 -3 6 -1 7
5 3 6 -4 22 12 37 38 20 34 31 44 49 42 14 0 24 -5 23 -11 -1 -5 8 -10 20 -9
12 0 20 -3 18 -7 -3 -4 21 -20 53 -37 31 -16 96 -51 144 -76 51 -28 93 -44
100 -40 7 4 10 3 5 -1 -8 -10 23 -28 212 -126 75 -39 138 -75 139 -80 5 -14
-101 -142 -188 -228 -41 -40 -69 -70 -61 -66 9 6 12 4 7 -4 -4 -6 -11 -9 -16
-6 -4 3 -21 -6 -37 -19 -15 -13 -58 -43 -95 -68 -37 -25 -64 -49 -60 -53 4 -5
1 -5 -6 0 -9 4 -25 -1 -43 -14 -15 -11 -32 -21 -36 -21 -21 -1 -82 -37 -76
-45 5 -4 3 -6 -2 -2 -6 3 -56 -10 -110 -28 -163 -55 -263 -70 -485 -69 -163 0
-212 4 -297 22 -116 25 -251 71 -336 113 -32 17 -63 27 -70 23 -7 -4 -9 -3 -4
1 4 5 -12 20 -35 34 -70 41 -152 103 -234 177 -96 86 -88 77 -154 162 -46 59
-57 69 -70 59 -13 -10 -13 -10 -2 4 10 14 9 21 -8 40 -11 14 -19 18 -20 11 0
-7 -5 -10 -11 -6 -8 5 -8 8 0 14 7 3 9 14 5 24 -5 14 -9 15 -16 4 -7 -10 -8
-8 -4 5 3 10 -8 46 -28 85 -78 157 -115 310 -123 512 -7 171 12 313 59 455 31
93 106 252 139 294 10 13 16 28 12 34 -3 6 -1 7 5 3 7 -4 12 -3 12 1 0 5 21
32 46 61 29 33 44 58 40 68 -3 8 -10 12 -16 9 -17 -11 -11 1 12 21 21 19 21
19 16 -3 -4 -13 -3 -23 0 -23 4 0 33 27 66 60 32 33 61 60 65 60 3 1 24 17 46
37 22 20 33 32 25 28 -8 -5 -11 -4 -7 0 4 5 14 10 22 11 25 4 75 45 69 56 -4
7 -2 8 4 4 6 -4 30 5 53 20 110 69 296 139 449 167 133 25 134 25 340 22 189
-3 199 -4 330 -40z m110 36 c0 -5 -7 -11 -14 -14 -10 -4 -13 -1 -9 9 6 15 23
19 23 5z m-823 -7 c-3 -3 -12 -4 -19 -1 -8 3 -5 6 6 6 11 1 17 -2 13 -5z m696
-1 c-7 -2 -19 -2 -25 0 -7 3 -2 5 12 5 14 0 19 -2 13 -5z m70 0 c-7 -2 -21 -2
-30 0 -10 3 -4 5 12 5 17 0 24 -2 18 -5z m-1043 -33 c0 -5 -9 -10 -20 -10 -11
0 -20 5 -20 10 0 6 9 10 20 10 11 0 20 -4 20 -10z m1240 -4 c0 -11 -19 -15
-25 -6 -3 5 1 10 9 10 9 0 16 -2 16 -4z m-1223 -22 c-3 -3 -12 -4 -19 -1 -8 3
-5 6 6 6 11 1 17 -2 13 -5z m1288 -14 c3 -5 1 -10 -4 -10 -6 0 -11 5 -11 10 0
6 2 10 4 10 3 0 8 -4 11 -10z m-1305 -20 c-8 -5 -19 -10 -25 -10 -5 0 -3 5 5
10 8 5 20 10 25 10 6 0 3 -5 -5 -10z m-248 -42 c-9 -9 -15 -9 -24 0 -9 9 -7
12 12 12 19 0 21 -3 12 -12z m88 -8 c8 -5 11 -10 5 -10 -5 0 -17 5 -25 10 -8
5 -10 10 -5 10 6 0 17 -5 25 -10z m50 0 c0 -5 -2 -10 -4 -10 -3 0 -8 5 -11 10
-3 6 -1 10 4 10 6 0 11 -4 11 -10z m1620 -15 c0 -8 -7 -15 -15 -15 -8 0 -15 7
-15 15 0 8 7 15 15 15 8 0 15 -7 15 -15z m48 -59 c-1 -14 -6 -22 -10 -20 -4 3
-4 12 -1 21 5 12 3 14 -7 8 -9 -5 -11 -4 -6 3 12 20 26 13 24 -12z m-23 -56
c3 -6 -1 -7 -9 -4 -18 7 -21 14 -7 14 6 0 13 -4 16 -10z m100 -31 c-6 -32 -12
-34 -12 -4 0 14 3 25 8 25 4 0 6 -10 4 -21z m85 11 c0 -5 -4 -10 -10 -10 -5 0
-10 5 -10 10 0 6 5 10 10 10 6 0 10 -4 10 -10z m-2134 -83 c11 -11 -19 -8 -36
3 -12 8 -10 9 7 7 12 -2 26 -6 29 -10z m2078 -8 c-3 -5 -10 -7 -15 -3 -5 3 -7
10 -3 15 3 5 10 7 15 3 5 -3 7 -10 3 -15z m49 0 c-8 -8 -13 -7 -18 2 -5 8 -4
10 3 5 7 -4 12 -2 12 5 0 7 3 9 7 6 4 -4 2 -12 -4 -18z m31 -67 c3 -5 -1 -9
-9 -9 -8 0 -12 4 -9 9 3 4 7 8 9 8 2 0 6 -4 9 -8z m18 -34 c-7 -7 -12 -8 -12
-2 0 6 3 14 7 17 3 4 9 5 12 2 2 -3 -1 -11 -7 -17z m-2347 -53 c1 -13 -2 -22
-6 -20 -3 3 -6 16 -6 30 0 32 12 22 12 -10z m2400 6 c-9 -8 -36 -10 -30 -2 2
4 11 8 20 8 8 0 13 -3 10 -6z m65 -11 c0 -5 -2 -10 -4 -10 -3 0 -8 5 -11 10
-3 6 -1 10 4 10 6 0 11 -4 11 -10z m-19 -40 c3 -20 4 -25 13 -39 6 -9 5 -12
-2 -7 -5 3 -13 0 -16 -6 -4 -9 -5 -8 -5 2 2 30 -1 41 -11 35 -6 -3 -7 1 -4 9
7 18 23 21 25 6z m-2486 -49 c-3 -12 -10 -21 -15 -21 -4 0 -3 11 3 24 14 29
22 27 12 -3z m2481 -40 c-4 -5 -15 -9 -26 -8 -10 1 -17 5 -14 9 3 4 11 5 19 1
8 -3 15 1 15 8 0 7 3 10 6 6 3 -3 3 -10 0 -16z m-2612 -106 c-4 -8 -12 -15
-20 -15 -8 0 -14 7 -14 15 0 8 9 15 20 15 13 0 18 -5 14 -15z m40 -1 c5 -14 4
-15 -9 -4 -17 14 -19 20 -6 20 5 0 12 -7 15 -16z m2433 10 c-3 -3 -12 -4 -19
-1 -8 3 -5 6 6 6 11 1 17 -2 13 -5z m-2446 -35 c6 -13 7 -19 1 -15 -6 3 -12 0
-15 -6 -2 -7 -4 -1 -3 14 1 34 2 34 17 7z m2419 -50 c-10 -18 -35 -31 -44 -22
-11 11 14 42 33 40 15 -1 17 -5 11 -18z m-2426 -5 c3 -8 2 -12 -4 -9 -6 3 -10
10 -10 16 0 14 7 11 14 -7z m2312 7 c-3 -5 -16 -11 -28 -14 -22 -6 -22 -5 -4
8 22 17 40 20 32 6z m-21 -30 c-3 -5 5 -17 17 -25 17 -12 19 -16 6 -16 -9 0
-19 7 -22 16 -4 10 -13 13 -28 9 -21 -5 -21 -5 2 9 30 18 33 19 25 7z m165
-31 c0 -5 -5 -10 -11 -10 -5 0 -7 5 -4 10 3 6 8 10 11 10 2 0 4 -4 4 -10z
m-262 -60 c-14 -22 -24 -19 -15 5 4 8 11 15 17 15 6 0 6 -7 -2 -20z m-2228
-15 c0 -8 -4 -17 -10 -20 -6 -4 -10 5 -10 20 0 15 4 24 10 20 6 -3 10 -12 10
-20z m2165 -5 c-3 -5 -12 -10 -18 -10 -7 0 -6 4 3 10 19 12 23 12 15 0z m-550
-71 c5 -5 -6 -4 -25 2 -45 15 -54 24 -15 15 17 -4 34 -12 40 -17z m-446 7 c-2
-2 -22 -6 -44 -9 -27 -4 -35 -3 -25 3 14 9 79 15 69 6z m860 -16 c-6 -5 -18
-6 -26 -3 -19 8 -16 11 13 11 17 0 22 -3 13 -8z m-999 -82 c-35 -28 -70 -79
-63 -91 3 -6 1 -7 -5 -3 -7 4 -12 0 -13 -11 0 -10 -3 -13 -5 -6 -3 6 5 31 17
55 13 24 22 46 21 50 -1 4 6 4 15 1 11 -4 14 -3 9 5 -4 7 -2 12 4 12 6 0 9 4
6 9 -4 5 4 7 16 3 l21 -5 -23 -19z m704 10 c-5 -8 -1 -9 10 -5 10 4 15 3 11
-3 -4 -6 -12 -10 -18 -9 -25 3 -38 -1 -32 -11 3 -5 1 -10 -4 -10 -15 0 -14 12
5 38 15 22 41 21 28 0z m196 -3 c-14 -7 -27 -11 -30 -9 -6 7 22 24 40 23 9 0
5 -6 -10 -14z m76 -23 c-4 -3 -12 0 -19 7 -9 9 -9 14 3 21 11 7 16 5 18 -6 2
-9 1 -18 -2 -22z m-38 -55 c3 -16 1 -17 -17 -7 -25 13 -28 33 -4 28 10 -2 19
-11 21 -21z m-922 -14 c-10 -10 -19 5 -10 18 6 11 8 11 12 0 2 -7 1 -15 -2
-18z m-169 -275 c-3 -8 -6 -5 -6 6 -1 11 2 17 5 13 3 -3 4 -12 1 -19z m-927
-62 c0 -8 -4 -18 -10 -21 -5 -3 -10 3 -10 14 0 12 5 21 10 21 6 0 10 -6 10
-14z m43 -87 c-6 -23 -22 -15 -18 9 2 9 4 22 4 27 1 6 5 4 10 -4 5 -7 6 -22 4
-32z m1932 22 c3 -5 2 -12 -3 -15 -5 -3 -9 1 -9 9 0 17 3 19 12 6z m-130 -9
c-2 -3 1 -14 7 -26 10 -18 9 -19 -4 -9 -8 7 -18 10 -21 7 -3 -4 -5 2 -4 13 0
11 7 20 14 20 7 0 11 -2 8 -5z m215 -7 c0 -8 -4 -15 -9 -15 -5 0 -17 -3 -27
-7 -16 -6 -15 -4 2 14 23 26 34 28 34 8z m-1992 -90 c0 -14 -4 -25 -9 -25 -10
0 -12 34 -2 43 10 10 11 9 11 -18z m976 10 c-4 -10 -2 -13 8 -10 19 8 54 -30
37 -41 -8 -5 -10 -3 -4 6 6 10 4 12 -7 7 -19 -7 -53 27 -43 42 9 16 15 13 9
-4z m716 5 c0 -7 6 -7 20 0 11 6 20 8 20 5 0 -15 -3 -20 -11 -18 -4 2 -6 -3
-4 -10 3 -6 -4 -18 -14 -24 -18 -11 -19 -10 -16 9 3 12 0 27 -6 35 -8 9 -8 13
0 13 6 0 11 -5 11 -10z m490 5 c0 -2 -8 -9 -18 -14 -14 -8 -19 -6 -19 5 0 7 9
14 19 14 10 0 18 -2 18 -5z m-90 -9 c0 -11 -19 -15 -25 -6 -3 5 1 10 9 10 9 0
16 -2 16 -4z m-2069 -105 c-7 -12 -10 -25 -7 -29 2 -4 -9 -9 -25 -10 -20 -2
-28 1 -24 8 4 6 13 9 20 6 20 -7 38 42 23 63 -11 15 -11 15 6 0 15 -14 16 -21
7 -38z m1624 39 c-3 -5 -18 -10 -33 -9 -24 0 -25 1 -7 9 28 12 47 12 40 0z
m-570 -10 c3 -5 2 -10 -4 -10 -5 0 -13 5 -16 10 -3 6 -2 10 4 10 5 0 13 -4 16
-10z m1195 -10 c8 -5 11 -10 5 -10 -5 0 -17 5 -25 10 -8 5 -10 10 -5 10 6 0
17 -5 25 -10z m-1160 -10 c0 -5 -2 -10 -4 -10 -3 0 -8 5 -11 10 -3 6 -1 10 4
10 6 0 11 -4 11 -10z m507 4 c-3 -3 -12 -4 -19 -1 -8 3 -5 6 6 6 11 1 17 -2
13 -5z m693 -4 c0 -5 -5 -10 -11 -10 -5 0 -7 5 -4 10 3 6 8 10 11 10 2 0 4 -4
4 -10z m-2266 -36 c3 -8 2 -12 -4 -9 -6 3 -10 10 -10 16 0 14 7 11 14 -7z
m1499 -21 c-7 -2 -19 -2 -25 0 -7 3 -2 5 12 5 14 0 19 -2 13 -5z m847 -3 c8
-5 11 -10 5 -10 -5 0 -17 5 -25 10 -8 5 -10 10 -5 10 6 0 17 -5 25 -10z m48
-7 c-10 -2 -18 -9 -18 -14 0 -5 -5 -9 -11 -9 -8 0 -8 5 1 15 7 8 20 14 29 14
13 -1 13 -2 -1 -6z m111 -72 c7 -5 9 -11 5 -14 -5 -3 -15 1 -22 9 -14 16 -5
18 17 5z m-2465 -57 c3 -8 2 -12 -4 -9 -6 3 -10 10 -10 16 0 14 7 11 14 -7z
m2526 -50 c0 -3 -7 -1 -15 6 -8 7 -15 17 -15 22 0 5 7 3 15 -6 8 -8 15 -18 15
-22z m5 -33 c-3 -6 -11 -11 -16 -11 -5 0 -4 6 3 14 14 16 24 13 13 -3z m-36
-38 c2 -23 -24 -14 -36 13 -10 22 -10 25 3 20 7 -3 14 0 15 7 1 14 17 -22 18
-40z m-2305 -58 c3 -9 0 -15 -9 -15 -8 0 -15 7 -15 15 0 8 4 15 9 15 5 0 11
-7 15 -15z m50 -61 c3 -8 2 -12 -4 -9 -6 3 -10 10 -10 16 0 14 7 11 14 -7z
m-69 -13 c-3 -6 -11 -11 -17 -11 -6 0 -6 6 2 15 14 17 26 13 15 -4z m2123 -29
c-7 -10 -14 -19 -15 -21 -3 -4 2 28 6 47 1 2 6 0 11 -3 8 -5 7 -12 -2 -23z
m-2073 -2 c11 -17 -5 -32 -21 -19 -7 6 -11 15 -8 20 7 12 21 11 29 -1z m2080
-30 c-3 -5 -12 -10 -18 -10 -7 0 -6 4 3 10 19 12 23 12 15 0z m85 -10 c0 -5
-5 -10 -11 -10 -5 0 -7 5 -4 10 3 6 8 10 11 10 2 0 4 -4 4 -10z m-1967 -75 c3
-6 -3 -11 -12 -11 -10 0 -18 5 -18 11 0 7 6 12 13 12 7 0 15 -5 17 -12z m1727
11 c0 -2 -8 -10 -17 -17 -16 -13 -17 -12 -4 4 13 16 21 21 21 13z m80 -26 c0
-5 -4 -10 -10 -10 -5 0 -10 5 -10 10 0 6 5 10 10 10 6 0 10 -4 10 -10z m-1735
-39 c-6 -5 -25 10 -25 20 0 5 6 4 14 -3 8 -7 12 -15 11 -17z m1685 -6 c0 -8
-7 -15 -15 -15 -8 0 -15 7 -15 15 0 8 7 15 15 15 8 0 15 -7 15 -15z m-1600
-31 c0 -2 -7 -4 -15 -4 -8 0 -15 4 -15 10 0 5 7 7 15 4 8 -4 15 -8 15 -10z
m1330 -94 c0 -5 -7 -10 -15 -10 -8 0 -15 5 -15 10 0 6 7 10 15 10 8 0 15 -4
15 -10z m-163 -6 c-3 -3 -12 -4 -19 -1 -8 3 -5 6 6 6 11 1 17 -2 13 -5z m-957
-34 c0 -5 -6 -10 -14 -10 -8 0 -18 5 -21 10 -3 6 3 10 14 10 12 0 21 -4 21
-10z m980 0 c0 -5 -10 -10 -22 -10 -19 0 -20 2 -8 10 19 13 30 13 30 0z m-86
-8 c3 -6 -1 -13 -10 -16 -8 -3 -12 -2 -9 4 4 6 -11 10 -37 10 -31 0 -39 -3
-28 -10 17 -11 10 -13 -14 -4 -31 12 -16 21 38 23 30 1 57 -2 60 -7z m-537
-18 c-3 -3 -12 -4 -19 -1 -8 3 -5 6 6 6 11 1 17 -2 13 -5z m696 -1 c-7 -2 -21
-2 -30 0 -10 3 -4 5 12 5 17 0 24 -2 18 -5z"/>
<path d="M1715 1560 c3 -5 8 -10 11 -10 2 0 4 5 4 10 0 6 -5 10 -11 10 -5 0
-7 -4 -4 -10z"/>
</g>
</svg>
