<?xml version="1.0" encoding="UTF-8"?>
<!DOCTYPE svg PUBLIC "-//W3C//DTD SVG 1.1//EN" "http://www.w3.org/Graphics/SVG/1.1/DTD/svg11.dtd">
<svg xmlns="http://www.w3.org/2000/svg" version="1.1" width="200px" height="200px" style="shape-rendering:geometricPrecision; text-rendering:geometricPrecision; image-rendering:optimizeQuality; fill-rule:evenodd; clip-rule:evenodd" xmlns:xlink="http://www.w3.org/1999/xlink">
<g><path style="opacity:1" fill="#46759f" d="M -0.5,-0.5 C 30.5,-0.5 61.5,-0.5 92.5,-0.5C 92.5,0.5 92.5,1.5 92.5,2.5C 93.5,2.5 94.5,2.5 95.5,2.5C 95.5,5.16667 95.5,7.83333 95.5,10.5C 94.5,10.5 93.5,10.5 92.5,10.5C 92.5,11.5 92.5,12.5 92.5,13.5C 91.5,13.5 90.5,13.5 89.5,13.5C 89.5,14.5 89.5,15.5 89.5,16.5C 91.1788,16.2852 92.1788,16.9519 92.5,18.5C 92.5,22.5 92.5,26.5 92.5,30.5C 92.5,31.1667 92.5,31.8333 92.5,32.5C 91.5,32.5 90.5,32.5 89.5,32.5C 89.5,33.5 89.5,34.5 89.5,35.5C 90.5,35.5 91.5,35.5 92.5,35.5C 92.5,36.5 92.5,37.5 92.5,38.5C 91.1001,39.0998 90.1001,40.0998 89.5,41.5C 85.8789,42.3725 82.2122,43.0392 78.5,43.5C 77.8333,45.5 77.1667,47.5 76.5,49.5C 75.5,49.5 74.5,49.5 73.5,49.5C 73.5,51.5 73.5,53.5 73.5,55.5C 72.5,55.5 71.5,55.5 70.5,55.5C 70.5,57.1667 70.5,58.8333 70.5,60.5C 69.5,60.5 68.5,60.5 67.5,60.5C 67.5,66.1667 67.5,71.8333 67.5,77.5C 66.5,77.5 65.5,77.5 64.5,77.5C 64.5,78.5 64.5,79.5 64.5,80.5C 65.5,80.5 66.5,80.5 67.5,80.5C 67.5,83.8333 67.5,87.1667 67.5,90.5C 66.5,90.5 65.5,90.5 64.5,90.5C 64.5,91.5 64.5,92.5 64.5,93.5C 63.4489,94.2223 62.7822,95.2223 62.5,96.5C 64.2419,99.1445 64.9086,102.145 64.5,105.5C 42.8333,105.5 21.1667,105.5 -0.5,105.5C -0.5,83.1667 -0.5,60.8333 -0.5,38.5C 2.83333,38.5 6.16667,38.5 9.5,38.5C 9.5,37.5 9.5,36.5 9.5,35.5C 13.8333,35.5 18.1667,35.5 22.5,35.5C 22.5,34.5 22.5,33.5 22.5,32.5C 23.5,32.5 24.5,32.5 25.5,32.5C 25.5,33.5 25.5,34.5 25.5,35.5C 27.5,35.5 29.5,35.5 31.5,35.5C 31.5,34.5 31.5,33.5 31.5,32.5C 33.288,32.7852 34.9547,32.4519 36.5,31.5C 24.1847,30.501 11.8513,30.1676 -0.5,30.5C -0.5,20.1667 -0.5,9.83333 -0.5,-0.5 Z"/></g>
<g><path style="opacity:1" fill="#403a26" d="M 92.5,-0.5 C 97.1667,-0.5 101.833,-0.5 106.5,-0.5C 106.5,1.16667 106.5,2.83333 106.5,4.5C 105.5,4.5 104.5,4.5 103.5,4.5C 103.5,6.5 103.5,8.5 103.5,10.5C 104.5,10.5 105.5,10.5 106.5,10.5C 106.5,11.5 106.5,12.5 106.5,13.5C 101.833,13.5 97.1667,13.5 92.5,13.5C 92.5,12.5 92.5,11.5 92.5,10.5C 93.5,10.5 94.5,10.5 95.5,10.5C 95.5,7.83333 95.5,5.16667 95.5,2.5C 94.5,2.5 93.5,2.5 92.5,2.5C 92.5,1.5 92.5,0.5 92.5,-0.5 Z"/></g>
<g><path style="opacity:1" fill="#46759f" d="M 106.5,-0.5 C 137.5,-0.5 168.5,-0.5 199.5,-0.5C 199.5,9.83333 199.5,20.1667 199.5,30.5C 187.149,30.1676 174.815,30.501 162.5,31.5C 164.045,32.4519 165.712,32.7852 167.5,32.5C 167.5,33.5 167.5,34.5 167.5,35.5C 169.5,35.5 171.5,35.5 173.5,35.5C 173.5,34.5 173.5,33.5 173.5,32.5C 174.5,32.5 175.5,32.5 176.5,32.5C 176.5,33.5 176.5,34.5 176.5,35.5C 180.833,35.5 185.167,35.5 189.5,35.5C 189.5,36.5 189.5,37.5 189.5,38.5C 192.833,38.5 196.167,38.5 199.5,38.5C 199.5,60.8333 199.5,83.1667 199.5,105.5C 177.833,105.5 156.167,105.5 134.5,105.5C 134.5,103.5 134.5,101.5 134.5,99.5C 134.5,98.5 134.5,97.5 134.5,96.5C 135.5,96.5 136.5,96.5 137.5,96.5C 137.5,95.5 137.5,94.5 137.5,93.5C 135.5,92.8333 133.5,92.1667 131.5,91.5C 131.5,87.8333 131.5,84.1667 131.5,80.5C 132.5,80.5 133.5,80.5 134.5,80.5C 134.5,79.5 134.5,78.5 134.5,77.5C 133.5,77.5 132.5,77.5 131.5,77.5C 131.5,71.8333 131.5,66.1667 131.5,60.5C 130.5,60.5 129.5,60.5 128.5,60.5C 128.039,56.7878 127.373,53.1211 126.5,49.5C 125.5,49.5 124.5,49.5 123.5,49.5C 123.5,48.5 123.5,47.5 123.5,46.5C 122.5,46.5 121.5,46.5 120.5,46.5C 120.5,45.5 120.5,44.5 120.5,43.5C 116.879,42.6275 113.212,41.9608 109.5,41.5C 109.5,40.5 109.5,39.5 109.5,38.5C 108.5,38.5 107.5,38.5 106.5,38.5C 106.5,37.5 106.5,36.5 106.5,35.5C 107.5,35.5 108.5,35.5 109.5,35.5C 109.5,34.5 109.5,33.5 109.5,32.5C 108.5,32.5 107.5,32.5 106.5,32.5C 106.5,31.5 106.5,30.5 106.5,29.5C 106.5,25.8333 106.5,22.1667 106.5,18.5C 106.821,16.9519 107.821,16.2852 109.5,16.5C 109.5,15.5 109.5,14.5 109.5,13.5C 108.5,13.5 107.5,13.5 106.5,13.5C 106.5,12.5 106.5,11.5 106.5,10.5C 105.5,10.5 104.5,10.5 103.5,10.5C 103.5,8.5 103.5,6.5 103.5,4.5C 104.5,4.5 105.5,4.5 106.5,4.5C 106.5,2.83333 106.5,1.16667 106.5,-0.5 Z"/></g>
<g><path style="opacity:1" fill="#b5b1a6" d="M 92.5,13.5 C 97.1667,13.5 101.833,13.5 106.5,13.5C 107.5,13.5 108.5,13.5 109.5,13.5C 109.5,14.5 109.5,15.5 109.5,16.5C 107.821,16.2852 106.821,16.9519 106.5,18.5C 101.833,18.5 97.1667,18.5 92.5,18.5C 92.1788,16.9519 91.1788,16.2852 89.5,16.5C 89.5,15.5 89.5,14.5 89.5,13.5C 90.5,13.5 91.5,13.5 92.5,13.5 Z"/></g>
<g><path style="opacity:1" fill="#d6d2c4" d="M 92.5,18.5 C 97.1667,18.5 101.833,18.5 106.5,18.5C 106.5,22.1667 106.5,25.8333 106.5,29.5C 104.631,27.3647 103.964,24.6981 104.5,21.5C 103.5,21.5 102.5,21.5 101.5,21.5C 101.5,26.1667 101.5,30.8333 101.5,35.5C 100.5,35.5 99.5,35.5 98.5,35.5C 96.5,35.5 94.5,35.5 92.5,35.5C 91.5,35.5 90.5,35.5 89.5,35.5C 89.5,34.5 89.5,33.5 89.5,32.5C 90.5,32.5 91.5,32.5 92.5,32.5C 94.5,32.5 96.5,32.5 98.5,32.5C 98.5,28.8333 98.5,25.1667 98.5,21.5C 97.5,21.5 96.5,21.5 95.5,21.5C 95.5,24.5 95.5,27.5 95.5,30.5C 94.5,30.5 93.5,30.5 92.5,30.5C 92.5,26.5 92.5,22.5 92.5,18.5 Z"/></g>
<g><path style="opacity:1" fill="#928e82" d="M 92.5,32.5 C 92.5,31.8333 92.5,31.1667 92.5,30.5C 93.5,30.5 94.5,30.5 95.5,30.5C 95.5,27.5 95.5,24.5 95.5,21.5C 96.5,21.5 97.5,21.5 98.5,21.5C 98.5,25.1667 98.5,28.8333 98.5,32.5C 96.5,32.5 94.5,32.5 92.5,32.5 Z"/></g>
<g><path style="opacity:1" fill="#a9a599" d="M 106.5,29.5 C 106.5,30.5 106.5,31.5 106.5,32.5C 107.5,32.5 108.5,32.5 109.5,32.5C 109.5,33.5 109.5,34.5 109.5,35.5C 108.5,35.5 107.5,35.5 106.5,35.5C 104.833,35.5 103.167,35.5 101.5,35.5C 101.5,30.8333 101.5,26.1667 101.5,21.5C 102.5,21.5 103.5,21.5 104.5,21.5C 103.964,24.6981 104.631,27.3647 106.5,29.5 Z"/></g>
<g><path style="opacity:1" fill="#508dbb" d="M -0.5,30.5 C 11.8513,30.1676 24.1847,30.501 36.5,31.5C 34.9547,32.4519 33.288,32.7852 31.5,32.5C 31.5,33.5 31.5,34.5 31.5,35.5C 29.5,35.5 27.5,35.5 25.5,35.5C 25.5,34.5 25.5,33.5 25.5,32.5C 24.5,32.5 23.5,32.5 22.5,32.5C 22.5,33.5 22.5,34.5 22.5,35.5C 18.1667,35.5 13.8333,35.5 9.5,35.5C 9.5,36.5 9.5,37.5 9.5,38.5C 6.16667,38.5 2.83333,38.5 -0.5,38.5C -0.5,35.8333 -0.5,33.1667 -0.5,30.5 Z"/></g>
<g><path style="opacity:1" fill="#508dbb" d="M 199.5,30.5 C 199.5,33.1667 199.5,35.8333 199.5,38.5C 196.167,38.5 192.833,38.5 189.5,38.5C 189.5,37.5 189.5,36.5 189.5,35.5C 185.167,35.5 180.833,35.5 176.5,35.5C 176.5,34.5 176.5,33.5 176.5,32.5C 175.5,32.5 174.5,32.5 173.5,32.5C 173.5,33.5 173.5,34.5 173.5,35.5C 171.5,35.5 169.5,35.5 167.5,35.5C 167.5,34.5 167.5,33.5 167.5,32.5C 165.712,32.7852 164.045,32.4519 162.5,31.5C 174.815,30.501 187.149,30.1676 199.5,30.5 Z"/></g>
<g><path style="opacity:1" fill="#908e84" d="M 92.5,35.5 C 94.5,35.5 96.5,35.5 98.5,35.5C 98.5,36.5 98.5,37.5 98.5,38.5C 96.5,38.5 94.5,38.5 92.5,38.5C 92.5,37.5 92.5,36.5 92.5,35.5 Z"/></g>
<g><path style="opacity:1" fill="#5a5950" d="M 98.5,35.5 C 99.5,35.5 100.5,35.5 101.5,35.5C 103.167,35.5 104.833,35.5 106.5,35.5C 106.5,36.5 106.5,37.5 106.5,38.5C 103.833,38.5 101.167,38.5 98.5,38.5C 98.5,37.5 98.5,36.5 98.5,35.5 Z"/></g>
<g><path style="opacity:1" fill="#d6d0c0" d="M 92.5,38.5 C 94.5,38.5 96.5,38.5 98.5,38.5C 101.167,38.5 103.833,38.5 106.5,38.5C 107.5,38.5 108.5,38.5 109.5,38.5C 109.5,39.5 109.5,40.5 109.5,41.5C 109.48,43.143 110.147,44.4763 111.5,45.5C 110.147,46.5237 109.48,47.857 109.5,49.5C 110.5,49.5 111.5,49.5 112.5,49.5C 113.64,52.0248 114.307,54.6915 114.5,57.5C 113.5,57.5 112.5,57.5 111.5,57.5C 111.442,60.6644 110.776,63.6644 109.5,66.5C 110.5,66.5 111.5,66.5 112.5,66.5C 112.281,65.325 112.614,64.325 113.5,63.5C 114.452,65.0453 114.785,66.712 114.5,68.5C 112.833,68.5 111.167,68.5 109.5,68.5C 109.5,70.5 109.5,72.5 109.5,74.5C 108.5,74.5 107.5,74.5 106.5,74.5C 106.5,72.5 106.5,70.5 106.5,68.5C 105.5,68.5 104.5,68.5 103.5,68.5C 102.833,76.5 102.167,76.5 101.5,68.5C 100.5,68.5 99.5,68.5 98.5,68.5C 98.5,70.5 98.5,72.5 98.5,74.5C 97.5,74.5 96.5,74.5 95.5,74.5C 95.5,72.5 95.5,70.5 95.5,68.5C 94.5,68.5 93.5,68.5 92.5,68.5C 91.8333,76.5 91.1667,76.5 90.5,68.5C 89.5,68.5 88.5,68.5 87.5,68.5C 87.0603,70.8439 86.0603,72.8439 84.5,74.5C 84.5,72.5 84.5,70.5 84.5,68.5C 83.5,68.5 82.5,68.5 81.5,68.5C 80.8333,76.5 80.1667,76.5 79.5,68.5C 78.1667,68.5 76.8333,68.5 75.5,68.5C 74.8333,76.5 74.1667,76.5 73.5,68.5C 69.5,67.8333 69.5,67.1667 73.5,66.5C 73.5,65.5 73.5,64.5 73.5,63.5C 75.0481,63.8212 75.7148,64.8212 75.5,66.5C 76.5,66.5 77.5,66.5 78.5,66.5C 78.5,65.5 78.5,64.5 78.5,63.5C 79.5,63.5 80.5,63.5 81.5,63.5C 81.5,61.5 81.5,59.5 81.5,57.5C 82.5,57.5 83.5,57.5 84.5,57.5C 84.5,55.8333 84.5,54.1667 84.5,52.5C 83.5,52.5 82.5,52.5 81.5,52.5C 81.5,51.5 81.5,50.5 81.5,49.5C 82.5,49.5 83.5,49.5 84.5,49.5C 84.5,48.5 84.5,47.5 84.5,46.5C 85.5,46.5 86.5,46.5 87.5,46.5C 87.8308,44.6776 88.4975,43.0109 89.5,41.5C 90.1001,40.0998 91.1001,39.0998 92.5,38.5 Z"/></g>
<g><path style="opacity:1" fill="#c2bdaf" d="M 109.5,41.5 C 113.212,41.9608 116.879,42.6275 120.5,43.5C 120.5,44.5 120.5,45.5 120.5,46.5C 121.5,46.5 122.5,46.5 123.5,46.5C 123.5,47.5 123.5,48.5 123.5,49.5C 123.5,50.5 123.5,51.5 123.5,52.5C 122.5,52.5 121.5,52.5 120.5,52.5C 120.5,54.1667 120.5,55.8333 120.5,57.5C 119.5,57.5 118.5,57.5 117.5,57.5C 117.28,61.478 116.28,65.1446 114.5,68.5C 114.785,66.712 114.452,65.0453 113.5,63.5C 112.614,64.325 112.281,65.325 112.5,66.5C 111.5,66.5 110.5,66.5 109.5,66.5C 110.776,63.6644 111.442,60.6644 111.5,57.5C 112.5,57.5 113.5,57.5 114.5,57.5C 114.307,54.6915 113.64,52.0248 112.5,49.5C 111.5,49.5 110.5,49.5 109.5,49.5C 109.48,47.857 110.147,46.5237 111.5,45.5C 110.147,44.4763 109.48,43.143 109.5,41.5 Z"/></g>
<g><path style="opacity:1" fill="#c2bdae" d="M 89.5,41.5 C 88.4975,43.0109 87.8308,44.6776 87.5,46.5C 86.5,46.5 85.5,46.5 84.5,46.5C 84.5,47.5 84.5,48.5 84.5,49.5C 83.5,49.5 82.5,49.5 81.5,49.5C 81.5,50.5 81.5,51.5 81.5,52.5C 82.5,52.5 83.5,52.5 84.5,52.5C 84.5,54.1667 84.5,55.8333 84.5,57.5C 83.5,57.5 82.5,57.5 81.5,57.5C 81.5,59.5 81.5,61.5 81.5,63.5C 80.5,63.5 79.5,63.5 78.5,63.5C 78.5,64.5 78.5,65.5 78.5,66.5C 77.5,66.5 76.5,66.5 75.5,66.5C 75.7148,64.8212 75.0481,63.8212 73.5,63.5C 72.5,63.5 71.5,63.5 70.5,63.5C 70.5,62.5 70.5,61.5 70.5,60.5C 70.5,58.8333 70.5,57.1667 70.5,55.5C 71.5,55.5 72.5,55.5 73.5,55.5C 73.5,53.5 73.5,51.5 73.5,49.5C 74.5,49.5 75.5,49.5 76.5,49.5C 77.1667,47.5 77.8333,45.5 78.5,43.5C 82.2122,43.0392 85.8789,42.3725 89.5,41.5 Z"/></g>
<g><path style="opacity:1" fill="#a6a196" d="M 70.5,60.5 C 70.5,61.5 70.5,62.5 70.5,63.5C 71.5,63.5 72.5,63.5 73.5,63.5C 73.5,64.5 73.5,65.5 73.5,66.5C 69.5,67.1667 69.5,67.8333 73.5,68.5C 74.1667,76.5 74.8333,76.5 75.5,68.5C 76.8333,68.5 78.1667,68.5 79.5,68.5C 80.1667,76.5 80.8333,76.5 81.5,68.5C 82.5,68.5 83.5,68.5 84.5,68.5C 84.5,70.5 84.5,72.5 84.5,74.5C 79.1803,76.2112 73.5137,77.2112 67.5,77.5C 67.5,71.8333 67.5,66.1667 67.5,60.5C 68.5,60.5 69.5,60.5 70.5,60.5 Z"/></g>
<g><path style="opacity:1" fill="#9e998d" d="M 123.5,49.5 C 124.5,49.5 125.5,49.5 126.5,49.5C 127.373,53.1211 128.039,56.7878 128.5,60.5C 129.5,60.5 130.5,60.5 131.5,60.5C 131.5,66.1667 131.5,71.8333 131.5,77.5C 117.474,77.3829 103.474,76.7163 89.5,75.5C 87.8267,73.4775 87.1601,71.1441 87.5,68.5C 88.5,68.5 89.5,68.5 90.5,68.5C 91.1667,76.5 91.8333,76.5 92.5,68.5C 93.5,68.5 94.5,68.5 95.5,68.5C 95.5,70.5 95.5,72.5 95.5,74.5C 96.5,74.5 97.5,74.5 98.5,74.5C 98.5,72.5 98.5,70.5 98.5,68.5C 99.5,68.5 100.5,68.5 101.5,68.5C 102.167,76.5 102.833,76.5 103.5,68.5C 104.5,68.5 105.5,68.5 106.5,68.5C 106.5,70.5 106.5,72.5 106.5,74.5C 107.5,74.5 108.5,74.5 109.5,74.5C 109.5,72.5 109.5,70.5 109.5,68.5C 111.167,68.5 112.833,68.5 114.5,68.5C 116.28,65.1446 117.28,61.478 117.5,57.5C 118.5,57.5 119.5,57.5 120.5,57.5C 120.5,55.8333 120.5,54.1667 120.5,52.5C 121.5,52.5 122.5,52.5 123.5,52.5C 123.5,51.5 123.5,50.5 123.5,49.5 Z"/></g>
<g><path style="opacity:1" fill="#beb9ab" d="M 87.5,68.5 C 87.1601,71.1441 87.8267,73.4775 89.5,75.5C 103.474,76.7163 117.474,77.3829 131.5,77.5C 132.5,77.5 133.5,77.5 134.5,77.5C 134.5,78.5 134.5,79.5 134.5,80.5C 133.5,80.5 132.5,80.5 131.5,80.5C 131.5,84.1667 131.5,87.8333 131.5,91.5C 130.5,91.5 129.5,91.5 128.5,91.5C 127.833,79.5 127.167,79.5 126.5,91.5C 125.5,91.5 124.5,91.5 123.5,91.5C 123.5,87.8333 123.5,84.1667 123.5,80.5C 122.5,80.5 121.5,80.5 120.5,80.5C 120.5,84.1667 120.5,87.8333 120.5,91.5C 118.5,91.5 116.5,91.5 114.5,91.5C 115.055,87.9878 114.388,84.9878 112.5,82.5C 112.179,80.9519 111.179,80.2852 109.5,80.5C 109.5,84.1667 109.5,87.8333 109.5,91.5C 108.5,91.5 107.5,91.5 106.5,91.5C 106.5,87.8333 106.5,84.1667 106.5,80.5C 105.5,80.5 104.5,80.5 103.5,80.5C 103.5,84.1667 103.5,87.8333 103.5,91.5C 101.833,91.5 100.167,91.5 98.5,91.5C 100.632,88.1176 100.965,84.451 99.5,80.5C 98.52,83.0865 98.1866,85.7531 98.5,88.5C 97.5,88.5 96.5,88.5 95.5,88.5C 95.5,85.8333 95.5,83.1667 95.5,80.5C 89.1667,80.5 82.8333,80.5 76.5,80.5C 76.5,83.1667 76.5,85.8333 76.5,88.5C 75.5,88.5 74.5,88.5 73.5,88.5C 73.5,85.8333 73.5,83.1667 73.5,80.5C 72.5,80.5 71.5,80.5 70.5,80.5C 70.5,84.1667 70.5,87.8333 70.5,91.5C 68.1137,91.2587 66.1137,91.9254 64.5,93.5C 64.5,92.5 64.5,91.5 64.5,90.5C 65.5,90.5 66.5,90.5 67.5,90.5C 67.5,87.1667 67.5,83.8333 67.5,80.5C 66.5,80.5 65.5,80.5 64.5,80.5C 64.5,79.5 64.5,78.5 64.5,77.5C 65.5,77.5 66.5,77.5 67.5,77.5C 73.5137,77.2112 79.1803,76.2112 84.5,74.5C 86.0603,72.8439 87.0603,70.8439 87.5,68.5 Z"/></g>
<g><path style="opacity:1" fill="#f4eddb" d="M 73.5,77.5 C 81.8599,77.1688 90.1932,77.5021 98.5,78.5C 94.3333,78.8333 90.1667,79.1667 86,79.5C 81.4428,79.4915 77.2762,78.8248 73.5,77.5 Z"/></g>
<g><path style="opacity:1" fill="#7b776c" d="M 73.5,88.5 C 73.5,89.5 73.5,90.5 73.5,91.5C 72.5,91.5 71.5,91.5 70.5,91.5C 70.5,87.8333 70.5,84.1667 70.5,80.5C 71.5,80.5 72.5,80.5 73.5,80.5C 73.5,83.1667 73.5,85.8333 73.5,88.5 Z"/></g>
<g><path style="opacity:1" fill="#78746a" d="M 106.5,91.5 C 105.5,91.5 104.5,91.5 103.5,91.5C 103.5,87.8333 103.5,84.1667 103.5,80.5C 104.5,80.5 105.5,80.5 106.5,80.5C 106.5,84.1667 106.5,87.8333 106.5,91.5 Z"/></g>
<g><path style="opacity:1" fill="#79756b" d="M 112.5,82.5 C 112.5,85.5 112.5,88.5 112.5,91.5C 111.5,91.5 110.5,91.5 109.5,91.5C 109.5,87.8333 109.5,84.1667 109.5,80.5C 111.179,80.2852 112.179,80.9519 112.5,82.5 Z"/></g>
<g><path style="opacity:1" fill="#6d6960" d="M 115.5,82.5 C 116.748,83.3339 117.415,84.6672 117.5,86.5C 117.167,87.8333 116.833,89.1667 116.5,90.5C 115.52,87.9135 115.187,85.2469 115.5,82.5 Z"/></g>
<g><path style="opacity:1" fill="#7b776c" d="M 123.5,91.5 C 122.5,91.5 121.5,91.5 120.5,91.5C 120.5,87.8333 120.5,84.1667 120.5,80.5C 121.5,80.5 122.5,80.5 123.5,80.5C 123.5,84.1667 123.5,87.8333 123.5,91.5 Z"/></g>
<g><path style="opacity:1" fill="#706d63" d="M 128.5,91.5 C 127.833,91.5 127.167,91.5 126.5,91.5C 127.167,79.5 127.833,79.5 128.5,91.5 Z"/></g>
<g><path style="opacity:1" fill="#ada69a" d="M 98.5,91.5 C 90.1667,91.5 81.8333,91.5 73.5,91.5C 73.5,90.5 73.5,89.5 73.5,88.5C 74.5,88.5 75.5,88.5 76.5,88.5C 76.5,85.8333 76.5,83.1667 76.5,80.5C 82.8333,80.5 89.1667,80.5 95.5,80.5C 95.5,83.1667 95.5,85.8333 95.5,88.5C 96.5,88.5 97.5,88.5 98.5,88.5C 98.1866,85.7531 98.52,83.0865 99.5,80.5C 100.965,84.451 100.632,88.1176 98.5,91.5 Z"/></g>
<g><path style="opacity:1" fill="#dcd7c6" d="M 112.5,82.5 C 114.388,84.9878 115.055,87.9878 114.5,91.5C 116.5,91.5 118.5,91.5 120.5,91.5C 121.5,91.5 122.5,91.5 123.5,91.5C 124.5,91.5 125.5,91.5 126.5,91.5C 127.167,91.5 127.833,91.5 128.5,91.5C 129.5,91.5 130.5,91.5 131.5,91.5C 133.5,92.1667 135.5,92.8333 137.5,93.5C 137.5,94.5 137.5,95.5 137.5,96.5C 136.5,96.5 135.5,96.5 134.5,96.5C 127.833,96.5 121.167,96.5 114.5,96.5C 97.1667,96.5 79.8333,96.5 62.5,96.5C 62.7822,95.2223 63.4489,94.2223 64.5,93.5C 66.1137,91.9254 68.1137,91.2587 70.5,91.5C 71.5,91.5 72.5,91.5 73.5,91.5C 81.8333,91.5 90.1667,91.5 98.5,91.5C 100.167,91.5 101.833,91.5 103.5,91.5C 104.5,91.5 105.5,91.5 106.5,91.5C 107.5,91.5 108.5,91.5 109.5,91.5C 110.5,91.5 111.5,91.5 112.5,91.5C 112.5,88.5 112.5,85.5 112.5,82.5 Z"/></g>
<g><path style="opacity:1" fill="#8f8f8a" d="M 62.5,96.5 C 79.8333,96.5 97.1667,96.5 114.5,96.5C 97.9744,96.8381 81.6411,97.8381 65.5,99.5C 65.8235,106.022 65.4902,112.355 64.5,118.5C 64.5,115.833 64.5,113.167 64.5,110.5C 64.5,109.5 64.5,108.5 64.5,107.5C 64.5,106.833 64.5,106.167 64.5,105.5C 64.9086,102.145 64.2419,99.1445 62.5,96.5 Z"/></g>
<g><path style="opacity:1" fill="#66635b" d="M 114.5,96.5 C 121.167,96.5 127.833,96.5 134.5,96.5C 134.5,97.5 134.5,98.5 134.5,99.5C 111.5,99.5 88.5,99.5 65.5,99.5C 81.6411,97.8381 97.9744,96.8381 114.5,96.5 Z"/></g>
<g><path style="opacity:1" fill="#b7b1a3" d="M 65.5,99.5 C 88.5,99.5 111.5,99.5 134.5,99.5C 134.5,101.5 134.5,103.5 134.5,105.5C 134.5,106.167 134.5,106.833 134.5,107.5C 134.5,108.5 134.5,109.5 134.5,110.5C 134.5,113.167 134.5,115.833 134.5,118.5C 135.5,118.5 136.5,118.5 137.5,118.5C 137.5,120.5 137.5,122.5 137.5,124.5C 125.5,124.5 113.5,124.5 101.5,124.5C 101.5,122.833 101.5,121.167 101.5,119.5C 104.167,119.5 106.833,119.5 109.5,119.5C 111.635,121.369 114.302,122.036 117.5,121.5C 117.5,119.833 117.5,118.167 117.5,116.5C 117.833,116.5 118.167,116.5 118.5,116.5C 120.167,116.5 121.833,116.5 123.5,116.5C 123.5,112.833 123.5,109.167 123.5,105.5C 123.5,104.5 123.5,103.5 123.5,102.5C 121.5,102.5 119.5,102.5 117.5,102.5C 117.5,105.167 117.5,107.833 117.5,110.5C 116.5,110.5 115.5,110.5 114.5,110.5C 114.5,107.833 114.5,105.167 114.5,102.5C 112.833,102.5 111.167,102.5 109.5,102.5C 109.5,104.167 109.5,105.833 109.5,107.5C 108.5,107.5 107.5,107.5 106.5,107.5C 106.5,105.833 106.5,104.167 106.5,102.5C 104.833,102.5 103.167,102.5 101.5,102.5C 101.5,104.167 101.5,105.833 101.5,107.5C 100.5,107.5 99.5,107.5 98.5,107.5C 98.5,105.833 98.5,104.167 98.5,102.5C 96.5,102.5 94.5,102.5 92.5,102.5C 92.5,107.167 92.5,111.833 92.5,116.5C 94.5,116.5 96.5,116.5 98.5,116.5C 98.5,118.167 98.5,119.833 98.5,121.5C 86.5,121.5 74.5,121.5 62.5,121.5C 62.7822,120.222 63.4489,119.222 64.5,118.5C 65.4902,112.355 65.8235,106.022 65.5,99.5 Z"/></g>
<g><path style="opacity:1" fill="#4d4b44" d="M 73.5,105.5 C 72.5,105.5 71.5,105.5 70.5,105.5C 70.5,108.833 70.5,112.167 70.5,115.5C 69.5,115.5 68.5,115.5 67.5,115.5C 67.5,111.167 67.5,106.833 67.5,102.5C 69.5,102.5 71.5,102.5 73.5,102.5C 73.5,103.5 73.5,104.5 73.5,105.5 Z"/></g>
<g><path style="opacity:1" fill="#47463f" d="M 81.5,104.5 C 80.5,104.5 79.5,104.5 78.5,104.5C 79.0803,108.649 78.4136,112.316 76.5,115.5C 76.5,111.167 76.5,106.833 76.5,102.5C 78.7812,102.077 80.4479,102.744 81.5,104.5 Z"/></g>
<g><path style="opacity:1" fill="#4f4d46" d="M 106.5,107.5 C 104.833,107.5 103.167,107.5 101.5,107.5C 101.5,105.833 101.5,104.167 101.5,102.5C 103.167,102.5 104.833,102.5 106.5,102.5C 106.5,104.167 106.5,105.833 106.5,107.5 Z"/></g>
<g><path style="opacity:1" fill="#4f4b44" d="M 123.5,105.5 C 122.5,105.5 121.5,105.5 120.5,105.5C 120.964,109.502 120.298,113.169 118.5,116.5C 118.167,116.5 117.833,116.5 117.5,116.5C 117.5,114.5 117.5,112.5 117.5,110.5C 117.5,107.833 117.5,105.167 117.5,102.5C 119.5,102.5 121.5,102.5 123.5,102.5C 123.5,103.5 123.5,104.5 123.5,105.5 Z"/></g>
<g><path style="opacity:1" fill="#484740" d="M 126.5,102.5 C 128.167,102.5 129.833,102.5 131.5,102.5C 131.5,103.5 131.5,104.5 131.5,105.5C 130.5,105.5 129.5,105.5 128.5,105.5C 128.82,108.898 128.487,112.232 127.5,115.5C 126.508,111.217 126.174,106.884 126.5,102.5 Z"/></g>
<g><path style="opacity:1" fill="#525049" d="M 84.5,102.5 C 86.1667,102.5 87.8333,102.5 89.5,102.5C 89.5,106.833 89.5,111.167 89.5,115.5C 87.8333,115.5 86.1667,115.5 84.5,115.5C 84.5,111.167 84.5,106.833 84.5,102.5 Z"/></g>
<g><path style="opacity:1" fill="#515049" d="M 114.5,110.5 C 112.952,110.179 112.285,109.179 112.5,107.5C 111.5,107.5 110.5,107.5 109.5,107.5C 109.5,105.833 109.5,104.167 109.5,102.5C 111.167,102.5 112.833,102.5 114.5,102.5C 114.5,105.167 114.5,107.833 114.5,110.5 Z"/></g>
<g><path style="opacity:1" fill="#4f8ebd" d="M -0.5,105.5 C 21.1667,105.5 42.8333,105.5 64.5,105.5C 64.5,106.167 64.5,106.833 64.5,107.5C 42.8333,107.5 21.1667,107.5 -0.5,107.5C -0.5,106.833 -0.5,106.167 -0.5,105.5 Z"/></g>
<g><path style="opacity:1" fill="#4f8dbc" d="M 134.5,105.5 C 156.167,105.5 177.833,105.5 199.5,105.5C 199.5,106.167 199.5,106.833 199.5,107.5C 177.833,107.5 156.167,107.5 134.5,107.5C 134.5,106.833 134.5,106.167 134.5,105.5 Z"/></g>
<g><path style="opacity:1" fill="#6f6d63" d="M 73.5,105.5 C 73.5,109.167 73.5,112.833 73.5,116.5C 72.5,116.5 71.5,116.5 70.5,116.5C 69.209,116.737 68.209,116.404 67.5,115.5C 68.5,115.5 69.5,115.5 70.5,115.5C 70.5,112.167 70.5,108.833 70.5,105.5C 71.5,105.5 72.5,105.5 73.5,105.5 Z"/></g>
<g><path style="opacity:1" fill="#6e6c63" d="M 123.5,105.5 C 123.5,109.167 123.5,112.833 123.5,116.5C 121.833,116.5 120.167,116.5 118.5,116.5C 120.298,113.169 120.964,109.502 120.5,105.5C 121.5,105.5 122.5,105.5 123.5,105.5 Z"/></g>
<g><path style="opacity:1" fill="#4577a1" d="M -0.5,107.5 C 21.1667,107.5 42.8333,107.5 64.5,107.5C 64.5,108.5 64.5,109.5 64.5,110.5C 42.8333,110.5 21.1667,110.5 -0.5,110.5C -0.5,109.5 -0.5,108.5 -0.5,107.5 Z"/></g>
<g><path style="opacity:1" fill="#314762" d="M 101.5,107.5 C 103.167,107.5 104.833,107.5 106.5,107.5C 106.5,109.5 106.5,111.5 106.5,113.5C 104.833,113.5 103.167,113.5 101.5,113.5C 101.5,111.5 101.5,109.5 101.5,107.5 Z"/></g>
<g><path style="opacity:1" fill="#4477a1" d="M 134.5,107.5 C 156.167,107.5 177.833,107.5 199.5,107.5C 199.5,108.5 199.5,109.5 199.5,110.5C 177.833,110.5 156.167,110.5 134.5,110.5C 134.5,109.5 134.5,108.5 134.5,107.5 Z"/></g>
<g><path style="opacity:1" fill="#6c6960" d="M 81.5,104.5 C 81.5,108.5 81.5,112.5 81.5,116.5C 79.8333,116.5 78.1667,116.5 76.5,116.5C 76.5,116.167 76.5,115.833 76.5,115.5C 78.4136,112.316 79.0803,108.649 78.5,104.5C 79.5,104.5 80.5,104.5 81.5,104.5 Z"/></g>
<g><path style="opacity:1" fill="#625d53" d="M 101.5,107.5 C 101.5,109.5 101.5,111.5 101.5,113.5C 100.837,111.958 100.17,110.291 99.5,108.5C 98.52,111.086 98.1866,113.753 98.5,116.5C 96.5,116.5 94.5,116.5 92.5,116.5C 92.5,111.833 92.5,107.167 92.5,102.5C 94.5,102.5 96.5,102.5 98.5,102.5C 98.5,104.167 98.5,105.833 98.5,107.5C 99.5,107.5 100.5,107.5 101.5,107.5 Z"/></g>
<g><path style="opacity:1" fill="#538ebc" d="M -0.5,110.5 C 21.1667,110.5 42.8333,110.5 64.5,110.5C 64.5,113.167 64.5,115.833 64.5,118.5C 63.4489,119.222 62.7822,120.222 62.5,121.5C 62.5,122.5 62.5,123.5 62.5,124.5C 61.5,124.5 60.5,124.5 59.5,124.5C 59.5,125.5 59.5,126.5 59.5,127.5C 55.5,127.5 51.5,127.5 47.5,127.5C 43.1667,127.5 38.8333,127.5 34.5,127.5C 34.8064,130.385 34.4731,133.052 33.5,135.5C 30.8333,135.5 28.1667,135.5 25.5,135.5C 20.8333,135.5 16.1667,135.5 11.5,135.5C 11.5,134.5 11.5,133.5 11.5,132.5C 11.5,130.833 11.5,129.167 11.5,127.5C 7.5,127.5 3.5,127.5 -0.5,127.5C -0.5,121.833 -0.5,116.167 -0.5,110.5 Z"/></g>
<g><path style="opacity:1" fill="#7c796e" d="M 126.5,102.5 C 126.174,106.884 126.508,111.217 127.5,115.5C 128.487,112.232 128.82,108.898 128.5,105.5C 129.5,105.5 130.5,105.5 131.5,105.5C 131.5,109.167 131.5,112.833 131.5,116.5C 129.5,116.5 127.5,116.5 125.5,116.5C 125.181,111.637 125.514,106.97 126.5,102.5 Z"/></g>
<g><path style="opacity:1" fill="#538ebc" d="M 134.5,110.5 C 156.167,110.5 177.833,110.5 199.5,110.5C 199.5,116.167 199.5,121.833 199.5,127.5C 195.5,127.5 191.5,127.5 187.5,127.5C 187.5,130.167 187.5,132.833 187.5,135.5C 182.833,135.5 178.167,135.5 173.5,135.5C 170.833,135.5 168.167,135.5 165.5,135.5C 164.527,133.052 164.194,130.385 164.5,127.5C 160.167,127.5 155.833,127.5 151.5,127.5C 147.5,127.5 143.5,127.5 139.5,127.5C 139.715,125.821 139.048,124.821 137.5,124.5C 137.5,122.5 137.5,120.5 137.5,118.5C 136.5,118.5 135.5,118.5 134.5,118.5C 134.5,115.833 134.5,113.167 134.5,110.5 Z"/></g>
<g><path style="opacity:1" fill="#e36c39" d="M 106.5,107.5 C 107.5,107.5 108.5,107.5 109.5,107.5C 110.5,107.5 111.5,107.5 112.5,107.5C 112.285,109.179 112.952,110.179 114.5,110.5C 115.5,110.5 116.5,110.5 117.5,110.5C 117.5,112.5 117.5,114.5 117.5,116.5C 117.5,118.167 117.5,119.833 117.5,121.5C 114.302,122.036 111.635,121.369 109.5,119.5C 107.052,118.527 104.385,118.194 101.5,118.5C 101.5,116.833 101.5,115.167 101.5,113.5C 103.167,113.5 104.833,113.5 106.5,113.5C 106.5,111.5 106.5,109.5 106.5,107.5 Z"/></g>
<g><path style="opacity:1" fill="#f4eddb" d="M 70.5,116.5 C 71.5,116.5 72.5,116.5 73.5,116.5C 74.5,116.5 75.5,116.5 76.5,116.5C 78.1667,116.5 79.8333,116.5 81.5,116.5C 85.1667,116.5 88.8333,116.5 92.5,116.5C 89.2319,117.822 85.5652,118.489 81.5,118.5C 77.4348,118.489 73.7681,117.822 70.5,116.5 Z"/></g>
<g><path style="opacity:1" fill="#895939" d="M 101.5,113.5 C 101.5,115.167 101.5,116.833 101.5,118.5C 104.385,118.194 107.052,118.527 109.5,119.5C 106.833,119.5 104.167,119.5 101.5,119.5C 101.028,121.531 100.028,123.198 98.5,124.5C 98.5,123.5 98.5,122.5 98.5,121.5C 98.5,119.833 98.5,118.167 98.5,116.5C 98.1866,113.753 98.52,111.086 99.5,108.5C 100.17,110.291 100.837,111.958 101.5,113.5 Z"/></g>
<g><path style="opacity:1" fill="#ece5d4" d="M 62.5,121.5 C 74.5,121.5 86.5,121.5 98.5,121.5C 98.5,122.5 98.5,123.5 98.5,124.5C 86.5,124.5 74.5,124.5 62.5,124.5C 62.5,123.5 62.5,122.5 62.5,121.5 Z"/></g>
<g><path style="opacity:1" fill="#d0cbbb" d="M 47.5,127.5 C 47.5,131.167 47.5,134.833 47.5,138.5C 43.1667,138.5 38.8333,138.5 34.5,138.5C 34.1667,138.5 33.8333,138.5 33.5,138.5C 33.5,137.5 33.5,136.5 33.5,135.5C 34.4731,133.052 34.8064,130.385 34.5,127.5C 38.8333,127.5 43.1667,127.5 47.5,127.5 Z"/></g>
<g><path style="opacity:1" fill="#8f8b7f" d="M 101.5,119.5 C 101.5,121.167 101.5,122.833 101.5,124.5C 113.5,124.5 125.5,124.5 137.5,124.5C 139.048,124.821 139.715,125.821 139.5,127.5C 139.5,131.167 139.5,134.833 139.5,138.5C 138.833,138.5 138.167,138.5 137.5,138.5C 137.5,134.833 137.5,131.167 137.5,127.5C 112.5,127.5 87.5,127.5 62.5,127.5C 62.5,131.167 62.5,134.833 62.5,138.5C 66.8333,138.5 71.1667,138.5 75.5,138.5C 70.6042,140.446 65.2709,141.113 59.5,140.5C 59.5,136.167 59.5,131.833 59.5,127.5C 59.5,126.5 59.5,125.5 59.5,124.5C 60.5,124.5 61.5,124.5 62.5,124.5C 74.5,124.5 86.5,124.5 98.5,124.5C 100.028,123.198 101.028,121.531 101.5,119.5 Z"/></g>
<g><path style="opacity:1" fill="#cfcaba" d="M 137.5,138.5 C 116.833,138.5 96.1667,138.5 75.5,138.5C 71.1667,138.5 66.8333,138.5 62.5,138.5C 62.5,134.833 62.5,131.167 62.5,127.5C 87.5,127.5 112.5,127.5 137.5,127.5C 137.5,131.167 137.5,134.833 137.5,138.5 Z"/></g>
<g><path style="opacity:1" fill="#d0cbbb" d="M 151.5,127.5 C 155.833,127.5 160.167,127.5 164.5,127.5C 164.194,130.385 164.527,133.052 165.5,135.5C 165.737,136.791 165.404,137.791 164.5,138.5C 160.167,138.5 155.833,138.5 151.5,138.5C 151.5,134.833 151.5,131.167 151.5,127.5 Z"/></g>
<g><path style="opacity:1" fill="#999487" d="M 11.5,132.5 C 11.5,133.5 11.5,134.5 11.5,135.5C 7.83333,135.5 4.16667,135.5 0.5,135.5C 0.5,133.833 0.5,132.167 0.5,130.5C 2.19981,130.626 3.69981,131.293 5,132.5C 6,131.833 7,131.167 8,130.5C 9.0769,131.429 10.2436,132.096 11.5,132.5 Z"/></g>
<g><path style="opacity:1" fill="#cfcaba" d="M -0.5,127.5 C 3.5,127.5 7.5,127.5 11.5,127.5C 11.5,129.167 11.5,130.833 11.5,132.5C 10.2436,132.096 9.0769,131.429 8,130.5C 7,131.167 6,131.833 5,132.5C 3.69981,131.293 2.19981,130.626 0.5,130.5C 0.5,132.167 0.5,133.833 0.5,135.5C 4.16667,135.5 7.83333,135.5 11.5,135.5C 16.1667,135.5 20.8333,135.5 25.5,135.5C 25.5,139.167 25.5,142.833 25.5,146.5C 16.8333,146.5 8.16667,146.5 -0.5,146.5C -0.5,140.167 -0.5,133.833 -0.5,127.5 Z"/></g>
<g><path style="opacity:1" fill="#b3ada0" d="M 139.5,127.5 C 143.5,127.5 147.5,127.5 151.5,127.5C 151.5,131.167 151.5,134.833 151.5,138.5C 155.833,138.5 160.167,138.5 164.5,138.5C 164.5,140.5 164.5,142.5 164.5,144.5C 157.167,144.5 149.833,144.5 142.5,144.5C 142.719,143.325 142.386,142.325 141.5,141.5C 140.702,141.957 140.369,142.624 140.5,143.5C 140.167,143.5 139.833,143.5 139.5,143.5C 139.5,141.833 139.5,140.167 139.5,138.5C 139.5,134.833 139.5,131.167 139.5,127.5 Z"/></g>
<g><path style="opacity:1" fill="#cfcabb" d="M 199.5,127.5 C 199.5,133.833 199.5,140.167 199.5,146.5C 192.5,146.5 185.5,146.5 178.5,146.5C 176.833,146.5 175.167,146.5 173.5,146.5C 173.5,142.833 173.5,139.167 173.5,135.5C 178.167,135.5 182.833,135.5 187.5,135.5C 187.5,132.833 187.5,130.167 187.5,127.5C 191.5,127.5 195.5,127.5 199.5,127.5 Z"/></g>
<g><path style="opacity:1" fill="#8f8b7f" d="M 189.5,130.5 C 191.2,130.626 192.7,131.293 194,132.5C 195.3,131.293 196.8,130.626 198.5,130.5C 198.5,132.167 198.5,133.833 198.5,135.5C 195.5,135.5 192.5,135.5 189.5,135.5C 189.5,133.833 189.5,132.167 189.5,130.5 Z"/></g>
<g><path style="opacity:1" fill="#e0dac9" d="M 137.5,138.5 C 138.167,138.5 138.833,138.5 139.5,138.5C 139.5,140.167 139.5,141.833 139.5,143.5C 114.491,143.833 89.4911,143.5 64.5,142.5C 88.8242,141.5 113.158,141.167 137.5,141.5C 137.5,140.5 137.5,139.5 137.5,138.5 Z"/></g>
<g><path style="opacity:1" fill="#938e83" d="M 33.5,138.5 C 33.8333,138.5 34.1667,138.5 34.5,138.5C 34.5,140.167 34.5,141.833 34.5,143.5C 42.9908,143.97 51.3241,143.303 59.5,141.5C 59.5,143.167 59.5,144.833 59.5,146.5C 58.5,146.5 57.5,146.5 56.5,146.5C 48.8333,146.5 41.1667,146.5 33.5,146.5C 33.175,154.019 33.5084,161.352 34.5,168.5C 34.5,169.5 34.5,170.5 34.5,171.5C 33.5093,177.979 33.176,184.646 33.5,191.5C 27.1667,191.5 20.8333,191.5 14.5,191.5C 14.5,190.5 14.5,189.5 14.5,188.5C 15.5,188.5 16.5,188.5 17.5,188.5C 17.5,187.5 17.5,186.5 17.5,185.5C 18.5,185.5 19.5,185.5 20.5,185.5C 20.5,187.167 20.5,188.833 20.5,190.5C 24.347,190.619 28.0137,189.953 31.5,188.5C 31.5,185.5 31.5,182.5 31.5,179.5C 20.8333,179.5 10.1667,179.5 -0.5,179.5C -0.5,178.833 -0.5,178.167 -0.5,177.5C 1.83333,177.5 4.16667,177.5 6.5,177.5C 10.1667,177.5 13.8333,177.5 17.5,177.5C 22.1667,177.5 26.8333,177.5 31.5,177.5C 31.5,168.167 31.5,158.833 31.5,149.5C 16.8333,148.833 16.8333,148.167 31.5,147.5C 30.9455,143.988 31.6122,140.988 33.5,138.5 Z"/></g>
<g><path style="opacity:1" fill="#979186" d="M 165.5,135.5 C 168.167,135.5 170.833,135.5 173.5,135.5C 173.5,139.167 173.5,142.833 173.5,146.5C 175.167,146.5 176.833,146.5 178.5,146.5C 178.5,147.5 178.5,148.5 178.5,149.5C 174.833,149.5 171.167,149.5 167.5,149.5C 167.5,158.833 167.5,168.167 167.5,177.5C 172.167,177.5 176.833,177.5 181.5,177.5C 185.167,177.5 188.833,177.5 192.5,177.5C 194.833,177.5 197.167,177.5 199.5,177.5C 199.5,178.167 199.5,178.833 199.5,179.5C 188.81,179.321 178.143,179.655 167.5,180.5C 167.5,183.167 167.5,185.833 167.5,188.5C 170.986,189.953 174.653,190.619 178.5,190.5C 178.5,188.833 178.5,187.167 178.5,185.5C 179.5,185.5 180.5,185.5 181.5,185.5C 181.5,186.5 181.5,187.5 181.5,188.5C 182.5,188.5 183.5,188.5 184.5,188.5C 184.5,189.5 184.5,190.5 184.5,191.5C 178.167,191.5 171.833,191.5 165.5,191.5C 165.824,184.646 165.491,177.979 164.5,171.5C 164.5,170.5 164.5,169.5 164.5,168.5C 165.492,161.352 165.825,154.019 165.5,146.5C 157.167,146.5 148.833,146.5 140.5,146.5C 140.5,145.5 140.5,144.5 140.5,143.5C 140.369,142.624 140.702,141.957 141.5,141.5C 142.386,142.325 142.719,143.325 142.5,144.5C 149.833,144.5 157.167,144.5 164.5,144.5C 164.5,142.5 164.5,140.5 164.5,138.5C 165.404,137.791 165.737,136.791 165.5,135.5 Z"/></g>
<g><path style="opacity:1" fill="#b8b2a2" d="M 47.5,127.5 C 51.5,127.5 55.5,127.5 59.5,127.5C 59.5,131.833 59.5,136.167 59.5,140.5C 65.2709,141.113 70.6042,140.446 75.5,138.5C 96.1667,138.5 116.833,138.5 137.5,138.5C 137.5,139.5 137.5,140.5 137.5,141.5C 113.158,141.167 88.8242,141.5 64.5,142.5C 89.4911,143.5 114.491,143.833 139.5,143.5C 138.355,147.077 137.355,150.744 136.5,154.5C 112.372,153.843 88.3725,153.176 64.5,152.5C 88.5,152.5 112.5,152.5 136.5,152.5C 136.5,150.5 136.5,148.5 136.5,146.5C 111.833,146.5 87.1667,146.5 62.5,146.5C 62.5,148.5 62.5,150.5 62.5,152.5C 62.0603,150.156 61.0603,148.156 59.5,146.5C 59.5,144.833 59.5,143.167 59.5,141.5C 51.3241,143.303 42.9908,143.97 34.5,143.5C 34.5,141.833 34.5,140.167 34.5,138.5C 38.8333,138.5 43.1667,138.5 47.5,138.5C 47.5,134.833 47.5,131.167 47.5,127.5 Z"/></g>
<g><path style="opacity:1" fill="#b5afa1" d="M 25.5,135.5 C 28.1667,135.5 30.8333,135.5 33.5,135.5C 33.5,136.5 33.5,137.5 33.5,138.5C 31.6122,140.988 30.9455,143.988 31.5,147.5C 16.8333,148.167 16.8333,148.833 31.5,149.5C 31.5,158.833 31.5,168.167 31.5,177.5C 26.8333,177.5 22.1667,177.5 17.5,177.5C 17.5,169.167 17.5,160.833 17.5,152.5C 16.5,152.5 15.5,152.5 14.5,152.5C 12.8333,152.5 11.1667,152.5 9.5,152.5C 9.5,154.167 9.5,155.833 9.5,157.5C 11.1667,157.5 12.8333,157.5 14.5,157.5C 12.7354,158.461 10.7354,158.795 8.5,158.5C 8.7989,156.396 8.46557,154.396 7.5,152.5C 6.50212,160.807 6.16879,169.14 6.5,177.5C 4.16667,177.5 1.83333,177.5 -0.5,177.5C -0.5,177.167 -0.5,176.833 -0.5,176.5C 0.833333,176.5 2.16667,176.5 3.5,176.5C 3.83103,168.472 3.4977,160.472 2.5,152.5C 1.99864,154.655 0.998637,156.322 -0.5,157.5C -0.5,153.833 -0.5,150.167 -0.5,146.5C 8.16667,146.5 16.8333,146.5 25.5,146.5C 25.5,142.833 25.5,139.167 25.5,135.5 Z"/></g>
<g><path style="opacity:1" fill="#b8b3a5" d="M 178.5,146.5 C 185.5,146.5 192.5,146.5 199.5,146.5C 199.5,156.833 199.5,167.167 199.5,177.5C 197.167,177.5 194.833,177.5 192.5,177.5C 192.831,169.14 192.498,160.807 191.5,152.5C 190.534,154.396 190.201,156.396 190.5,158.5C 188.265,158.795 186.265,158.461 184.5,157.5C 186.167,157.5 187.833,157.5 189.5,157.5C 189.5,155.833 189.5,154.167 189.5,152.5C 187.833,152.5 186.167,152.5 184.5,152.5C 183.5,152.5 182.5,152.5 181.5,152.5C 181.5,160.833 181.5,169.167 181.5,177.5C 176.833,177.5 172.167,177.5 167.5,177.5C 167.5,168.167 167.5,158.833 167.5,149.5C 171.167,149.5 174.833,149.5 178.5,149.5C 178.5,148.5 178.5,147.5 178.5,146.5 Z"/></g>
<g><path style="opacity:1" fill="#d6d0c1" d="M 39.5,152.5 C 39.5,154.167 39.5,155.833 39.5,157.5C 41.9479,158.473 44.6146,158.806 47.5,158.5C 47.5,160.167 47.5,161.833 47.5,163.5C 44.8333,163.5 42.1667,163.5 39.5,163.5C 39.5,164.5 39.5,165.5 39.5,166.5C 39.5,169.167 39.5,171.833 39.5,174.5C 37.8333,174.5 36.1667,174.5 34.5,174.5C 34.5,173.5 34.5,172.5 34.5,171.5C 34.5,170.5 34.5,169.5 34.5,168.5C 34.5,162.167 34.5,155.833 34.5,149.5C 38.8839,149.174 43.2172,149.508 47.5,150.5C 44.6944,151.168 42.0277,151.834 39.5,152.5 Z"/></g>
<g><path style="opacity:1" fill="#d6d0c1" d="M 164.5,149.5 C 164.5,155.833 164.5,162.167 164.5,168.5C 164.5,169.5 164.5,170.5 164.5,171.5C 164.5,172.5 164.5,173.5 164.5,174.5C 162.833,174.5 161.167,174.5 159.5,174.5C 159.5,171.833 159.5,169.167 159.5,166.5C 159.5,165.5 159.5,164.5 159.5,163.5C 156.833,163.5 154.167,163.5 151.5,163.5C 151.5,161.833 151.5,160.167 151.5,158.5C 154.385,158.806 157.052,158.473 159.5,157.5C 159.5,155.833 159.5,154.167 159.5,152.5C 156.972,151.834 154.306,151.168 151.5,150.5C 155.783,149.508 160.116,149.174 164.5,149.5 Z"/></g>
<g><path style="opacity:1" fill="#cac4b5" d="M -0.5,176.5 C -0.5,170.167 -0.5,163.833 -0.5,157.5C 0.998637,156.322 1.99864,154.655 2.5,152.5C 3.4977,160.472 3.83103,168.472 3.5,176.5C 2.16667,176.5 0.833333,176.5 -0.5,176.5 Z"/></g>
<g><path style="opacity:1" fill="#d5d0c0" d="M 14.5,157.5 C 14.5,155.833 14.5,154.167 14.5,152.5C 15.5,152.5 16.5,152.5 17.5,152.5C 17.5,160.833 17.5,169.167 17.5,177.5C 13.8333,177.5 10.1667,177.5 6.5,177.5C 6.16879,169.14 6.50212,160.807 7.5,152.5C 8.46557,154.396 8.7989,156.396 8.5,158.5C 10.7354,158.795 12.7354,158.461 14.5,157.5 Z"/></g>
<g><path style="opacity:1" fill="#6d6960" d="M 14.5,152.5 C 14.5,154.167 14.5,155.833 14.5,157.5C 12.8333,157.5 11.1667,157.5 9.5,157.5C 9.5,155.833 9.5,154.167 9.5,152.5C 11.1667,152.5 12.8333,152.5 14.5,152.5 Z"/></g>
<g><path style="opacity:1" fill="#d8d2c2" d="M 23.5,174.5 C 24.1667,174.5 24.8333,174.5 25.5,174.5C 24.4479,176.256 22.7812,176.923 20.5,176.5C 20.169,168.472 20.5023,160.472 21.5,152.5C 22.4656,154.396 22.7989,156.396 22.5,158.5C 23.5,158.5 24.5,158.5 25.5,158.5C 25.5,160.167 25.5,161.833 25.5,163.5C 24.5,163.5 23.5,163.5 22.5,163.5C 22.185,167.371 22.5184,171.038 23.5,174.5 Z"/></g>
<g><path style="opacity:1" fill="#6d6a61" d="M 23.5,152.5 C 25.1667,152.5 26.8333,152.5 28.5,152.5C 28.5,154.167 28.5,155.833 28.5,157.5C 26.8333,157.5 25.1667,157.5 23.5,157.5C 23.5,155.833 23.5,154.167 23.5,152.5 Z"/></g>
<g><path style="opacity:1" fill="#6d6a61" d="M 170.5,152.5 C 172.167,152.5 173.833,152.5 175.5,152.5C 175.5,154.167 175.5,155.833 175.5,157.5C 173.833,157.5 172.167,157.5 170.5,157.5C 170.5,155.833 170.5,154.167 170.5,152.5 Z"/></g>
<g><path style="opacity:1" fill="#d8d2c2" d="M 173.5,174.5 C 174.167,174.5 174.833,174.5 175.5,174.5C 176.482,171.038 176.815,167.371 176.5,163.5C 175.5,163.5 174.5,163.5 173.5,163.5C 173.5,161.833 173.5,160.167 173.5,158.5C 174.5,158.5 175.5,158.5 176.5,158.5C 176.201,156.396 176.534,154.396 177.5,152.5C 178.498,160.472 178.831,168.472 178.5,176.5C 176.219,176.923 174.552,176.256 173.5,174.5 Z"/></g>
<g><path style="opacity:1" fill="#d5d0c0" d="M 184.5,152.5 C 184.5,154.167 184.5,155.833 184.5,157.5C 186.265,158.461 188.265,158.795 190.5,158.5C 190.201,156.396 190.534,154.396 191.5,152.5C 192.498,160.807 192.831,169.14 192.5,177.5C 188.833,177.5 185.167,177.5 181.5,177.5C 181.5,169.167 181.5,160.833 181.5,152.5C 182.5,152.5 183.5,152.5 184.5,152.5 Z"/></g>
<g><path style="opacity:1" fill="#6d6960" d="M 184.5,152.5 C 186.167,152.5 187.833,152.5 189.5,152.5C 189.5,154.167 189.5,155.833 189.5,157.5C 187.833,157.5 186.167,157.5 184.5,157.5C 184.5,155.833 184.5,154.167 184.5,152.5 Z"/></g>
<g><path style="opacity:1" fill="#aba699" d="M 56.5,146.5 C 56.5,154.833 56.5,163.167 56.5,171.5C 53.9752,170.36 51.3085,169.693 48.5,169.5C 48.7845,171.415 48.4511,173.081 47.5,174.5C 47.5,171.833 47.5,169.167 47.5,166.5C 44.8333,166.5 42.1667,166.5 39.5,166.5C 39.5,165.5 39.5,164.5 39.5,163.5C 42.1667,163.5 44.8333,163.5 47.5,163.5C 47.5,161.833 47.5,160.167 47.5,158.5C 44.6146,158.806 41.9479,158.473 39.5,157.5C 42.1667,157.5 44.8333,157.5 47.5,157.5C 47.5,155.833 47.5,154.167 47.5,152.5C 44.8333,152.5 42.1667,152.5 39.5,152.5C 42.0277,151.834 44.6944,151.168 47.5,150.5C 43.2172,149.508 38.8839,149.174 34.5,149.5C 34.5,155.833 34.5,162.167 34.5,168.5C 33.5084,161.352 33.175,154.019 33.5,146.5C 41.1667,146.5 48.8333,146.5 56.5,146.5 Z"/></g>
<g><path style="opacity:1" fill="#d6d0c1" d="M 50.5,155.5 C 51.5,155.5 52.5,155.5 53.5,155.5C 53.5,159.833 53.5,164.167 53.5,168.5C 52.5,168.5 51.5,168.5 50.5,168.5C 50.5,164.167 50.5,159.833 50.5,155.5 Z"/></g>
<g><path style="opacity:1" fill="#6e6a61" d="M 39.5,152.5 C 42.1667,152.5 44.8333,152.5 47.5,152.5C 47.5,154.167 47.5,155.833 47.5,157.5C 44.8333,157.5 42.1667,157.5 39.5,157.5C 39.5,155.833 39.5,154.167 39.5,152.5 Z"/></g>
<g><path style="opacity:1" fill="#716d64" d="M 8.5,163.5 C 10.5,163.5 12.5,163.5 14.5,163.5C 14.5,167.167 14.5,170.833 14.5,174.5C 12.5,174.5 10.5,174.5 8.5,174.5C 8.5,170.833 8.5,167.167 8.5,163.5 Z"/></g>
<g><path style="opacity:1" fill="#646159" d="M 25.5,174.5 C 24.8333,174.5 24.1667,174.5 23.5,174.5C 23.5,171.833 23.5,169.167 23.5,166.5C 25.1667,166.5 26.8333,166.5 28.5,166.5C 28.5,169.167 28.5,171.833 28.5,174.5C 27.5,174.5 26.5,174.5 25.5,174.5 Z"/></g>
<g><path style="opacity:1" fill="#646159" d="M 39.5,166.5 C 42.1667,166.5 44.8333,166.5 47.5,166.5C 47.5,169.167 47.5,171.833 47.5,174.5C 44.8333,174.5 42.1667,174.5 39.5,174.5C 39.5,171.833 39.5,169.167 39.5,166.5 Z"/></g>
<g><path style="opacity:1" fill="#67645b" d="M 159.5,166.5 C 159.5,169.167 159.5,171.833 159.5,174.5C 156.833,174.5 154.167,174.5 151.5,174.5C 151.5,171.833 151.5,169.167 151.5,166.5C 154.167,166.5 156.833,166.5 159.5,166.5 Z"/></g>
<g><path style="opacity:1" fill="#646159" d="M 175.5,174.5 C 174.833,174.5 174.167,174.5 173.5,174.5C 172.5,174.5 171.5,174.5 170.5,174.5C 170.5,171.833 170.5,169.167 170.5,166.5C 172.167,166.5 173.833,166.5 175.5,166.5C 175.5,169.167 175.5,171.833 175.5,174.5 Z"/></g>
<g><path style="opacity:1" fill="#716d64" d="M 184.5,163.5 C 186.5,163.5 188.5,163.5 190.5,163.5C 190.5,167.167 190.5,170.833 190.5,174.5C 188.5,174.5 186.5,174.5 184.5,174.5C 184.5,170.833 184.5,167.167 184.5,163.5 Z"/></g>
<g><path style="opacity:1" fill="#cbc6b6" d="M 56.5,146.5 C 57.5,146.5 58.5,146.5 59.5,146.5C 59.268,161.553 59.9347,176.553 61.5,191.5C 59.8333,191.5 58.1667,191.5 56.5,191.5C 56.5,187.833 56.5,184.167 56.5,180.5C 55.5,180.5 54.5,180.5 53.5,180.5C 53.5,184.167 53.5,187.833 53.5,191.5C 52.5,191.5 51.5,191.5 50.5,191.5C 50.8275,186.456 50.4941,181.456 49.5,176.5C 49.4611,179.243 49.1278,181.91 48.5,184.5C 48.5,183.167 48.5,181.833 48.5,180.5C 44.9878,179.945 41.9878,180.612 39.5,182.5C 39.5,185.167 39.5,187.833 39.5,190.5C 39.5,190.833 39.5,191.167 39.5,191.5C 37.8333,191.5 36.1667,191.5 34.5,191.5C 34.5,186.5 34.5,181.5 34.5,176.5C 38.5138,176.666 42.5138,176.499 46.5,176C 47.056,175.617 47.3893,175.117 47.5,174.5C 48.4511,173.081 48.7845,171.415 48.5,169.5C 51.3085,169.693 53.9752,170.36 56.5,171.5C 56.5,163.167 56.5,154.833 56.5,146.5 Z"/></g>
<g><path style="opacity:1" fill="#aba699" d="M 139.5,143.5 C 139.833,143.5 140.167,143.5 140.5,143.5C 140.5,144.5 140.5,145.5 140.5,146.5C 148.833,146.5 157.167,146.5 165.5,146.5C 165.825,154.019 165.492,161.352 164.5,168.5C 164.5,162.167 164.5,155.833 164.5,149.5C 156.903,147.533 148.903,146.866 140.5,147.5C 140.5,150.167 140.5,152.833 140.5,155.5C 139.5,155.5 138.5,155.5 137.5,155.5C 136.5,155.5 135.5,155.5 134.5,155.5C 133.5,155.5 132.5,155.5 131.5,155.5C 129.833,155.5 128.167,155.5 126.5,155.5C 126.5,161.833 126.5,168.167 126.5,174.5C 126.149,167.935 125.149,161.601 123.5,155.5C 122.5,155.5 121.5,155.5 120.5,155.5C 119.652,154.375 118.652,154.375 117.5,155.5C 115.833,155.5 114.167,155.5 112.5,155.5C 112.5,161.833 112.5,168.167 112.5,174.5C 111.5,174.5 110.5,174.5 109.5,174.5C 109.5,168.167 109.5,161.833 109.5,155.5C 108.5,155.5 107.5,155.5 106.5,155.5C 105.222,155.782 104.222,156.449 103.5,157.5C 101.365,155.631 98.6981,154.964 95.5,155.5C 94.6522,154.375 93.6522,154.375 92.5,155.5C 90.5437,161.412 89.8771,167.745 90.5,174.5C 89.8334,168.321 89.1668,161.988 88.5,155.5C 87.8332,161.988 87.1666,168.321 86.5,174.5C 86.6336,170.698 85.967,167.032 84.5,163.5C 85.6636,160.933 86.3303,158.266 86.5,155.5C 84.8333,155.5 83.1667,155.5 81.5,155.5C 80.1883,157.743 79.5217,160.41 79.5,163.5C 79.5217,166.59 80.1883,169.257 81.5,171.5C 81.5,172.5 81.5,173.5 81.5,174.5C 80.5,174.5 79.5,174.5 78.5,174.5C 77.8333,149.167 77.1667,149.167 76.5,174.5C 76.1489,167.935 75.1489,161.601 73.5,155.5C 71.5,155.5 69.5,155.5 67.5,155.5C 65.8511,161.601 64.8511,167.935 64.5,174.5C 63.8333,149.167 63.1667,149.167 62.5,174.5C 62.5,175.167 62.5,175.833 62.5,176.5C 62.5,176.833 62.5,177.167 62.5,177.5C 62.5,182.167 62.5,186.833 62.5,191.5C 63.5,191.5 64.5,191.5 65.5,191.5C 67.3878,189.012 68.0545,186.012 67.5,182.5C 69.5,182.5 71.5,182.5 73.5,182.5C 73.1826,185.572 73.5159,188.572 74.5,191.5C 75.1687,189.369 75.8354,187.369 76.5,185.5C 77.1667,193.5 77.8333,193.5 78.5,185.5C 79.1646,187.369 79.8313,189.369 80.5,191.5C 81.4841,188.572 81.8174,185.572 81.5,182.5C 83.5,182.5 85.5,182.5 87.5,182.5C 87.1826,185.572 87.5159,188.572 88.5,191.5C 89.1687,189.369 89.8354,187.369 90.5,185.5C 90.0254,188.082 90.6921,190.082 92.5,191.5C 93.5,191.5 94.5,191.5 95.5,191.5C 98.1667,191.5 100.833,191.5 103.5,191.5C 103.5,188.5 103.5,185.5 103.5,182.5C 103.89,185.797 104.89,188.797 106.5,191.5C 107.5,191.5 108.5,191.5 109.5,191.5C 111.388,189.012 112.055,186.012 111.5,182.5C 113.5,182.5 115.5,182.5 117.5,182.5C 117.5,185.5 117.5,188.5 117.5,191.5C 118.5,191.5 119.5,191.5 120.5,191.5C 121.5,191.5 122.5,191.5 123.5,191.5C 125.388,189.012 126.055,186.012 125.5,182.5C 127.5,182.5 129.5,182.5 131.5,182.5C 131.5,185.5 131.5,188.5 131.5,191.5C 132.5,191.5 133.5,191.5 134.5,191.5C 135.5,191.5 136.5,191.5 137.5,191.5C 137.5,186.833 137.5,182.167 137.5,177.5C 137.5,176.5 137.5,175.5 137.5,174.5C 139.167,174.5 140.833,174.5 142.5,174.5C 142.5,167.167 142.5,159.833 142.5,152.5C 143.5,152.5 144.5,152.5 145.5,152.5C 145.5,159.833 145.5,167.167 145.5,174.5C 147.167,174.5 148.833,174.5 150.5,174.5C 150.185,170.629 150.518,166.962 151.5,163.5C 154.167,163.5 156.833,163.5 159.5,163.5C 159.5,164.5 159.5,165.5 159.5,166.5C 156.833,166.5 154.167,166.5 151.5,166.5C 151.5,169.167 151.5,171.833 151.5,174.5C 154.167,174.5 156.833,174.5 159.5,174.5C 161.167,174.5 162.833,174.5 164.5,174.5C 164.5,173.5 164.5,172.5 164.5,171.5C 165.491,177.979 165.824,184.646 165.5,191.5C 165.5,192.167 165.5,192.833 165.5,193.5C 165.5,194.5 165.5,195.5 165.5,196.5C 165.5,197.5 165.5,198.5 165.5,199.5C 165.167,199.5 164.833,199.5 164.5,199.5C 164.5,197.5 164.5,195.5 164.5,193.5C 121.167,193.5 77.8333,193.5 34.5,193.5C 34.5,195.5 34.5,197.5 34.5,199.5C 34.1667,199.5 33.8333,199.5 33.5,199.5C 33.5,198.5 33.5,197.5 33.5,196.5C 33.5,195.5 33.5,194.5 33.5,193.5C 33.5,192.833 33.5,192.167 33.5,191.5C 33.176,184.646 33.5093,177.979 34.5,171.5C 34.5,172.5 34.5,173.5 34.5,174.5C 36.1667,174.5 37.8333,174.5 39.5,174.5C 42.1667,174.5 44.8333,174.5 47.5,174.5C 47.3893,175.117 47.056,175.617 46.5,176C 42.5138,176.499 38.5138,176.666 34.5,176.5C 34.5,181.5 34.5,186.5 34.5,191.5C 36.1667,191.5 37.8333,191.5 39.5,191.5C 42.5,191.5 45.5,191.5 48.5,191.5C 48.5,189.167 48.5,186.833 48.5,184.5C 49.1278,181.91 49.4611,179.243 49.5,176.5C 50.4941,181.456 50.8275,186.456 50.5,191.5C 51.5,191.5 52.5,191.5 53.5,191.5C 53.5,187.833 53.5,184.167 53.5,180.5C 54.5,180.5 55.5,180.5 56.5,180.5C 56.5,184.167 56.5,187.833 56.5,191.5C 58.1667,191.5 59.8333,191.5 61.5,191.5C 59.9347,176.553 59.268,161.553 59.5,146.5C 61.0603,148.156 62.0603,150.156 62.5,152.5C 63.1667,152.5 63.8333,152.5 64.5,152.5C 88.3725,153.176 112.372,153.843 136.5,154.5C 137.355,150.744 138.355,147.077 139.5,143.5 Z"/></g>
<g><path style="opacity:1" fill="#d8d2c2" d="M 159.5,191.5 C 159.5,191.167 159.5,190.833 159.5,190.5C 159.5,187.833 159.5,185.167 159.5,182.5C 159.5,181.833 159.5,181.167 159.5,180.5C 156.972,179.834 154.306,179.168 151.5,178.5C 155.783,177.508 160.116,177.174 164.5,177.5C 164.5,182.167 164.5,186.833 164.5,191.5C 162.833,191.5 161.167,191.5 159.5,191.5 Z"/></g>
<g><path style="opacity:1" fill="#948e84" d="M 62.5,177.5 C 87.5,177.5 112.5,177.5 137.5,177.5C 137.5,182.167 137.5,186.833 137.5,191.5C 136.5,191.5 135.5,191.5 134.5,191.5C 134.5,187.833 134.5,184.167 134.5,180.5C 111.5,180.5 88.5,180.5 65.5,180.5C 65.5,184.167 65.5,187.833 65.5,191.5C 64.5,191.5 63.5,191.5 62.5,191.5C 62.5,186.833 62.5,182.167 62.5,177.5 Z"/></g>
<g><path style="opacity:1" fill="#cbc6b7" d="M 95.5,155.5 C 95.5,161.833 95.5,168.167 95.5,174.5C 96.5,174.5 97.5,174.5 98.5,174.5C 100.167,174.5 101.833,174.5 103.5,174.5C 103.5,168.833 103.5,163.167 103.5,157.5C 104.222,156.449 105.222,155.782 106.5,155.5C 106.5,161.833 106.5,168.167 106.5,174.5C 107.5,174.5 108.5,174.5 109.5,174.5C 110.5,174.5 111.5,174.5 112.5,174.5C 114.167,174.5 115.833,174.5 117.5,174.5C 117.5,168.167 117.5,161.833 117.5,155.5C 118.652,154.375 119.652,154.375 120.5,155.5C 120.5,161.833 120.5,168.167 120.5,174.5C 121.5,174.5 122.5,174.5 123.5,174.5C 123.5,168.167 123.5,161.833 123.5,155.5C 125.149,161.601 126.149,167.935 126.5,174.5C 127.167,174.5 127.833,174.5 128.5,174.5C 129.5,174.5 130.5,174.5 131.5,174.5C 131.5,168.833 131.5,163.167 131.5,157.5C 131.5,156.833 131.5,156.167 131.5,155.5C 132.5,155.5 133.5,155.5 134.5,155.5C 134.5,161.833 134.5,168.167 134.5,174.5C 135.5,174.5 136.5,174.5 137.5,174.5C 137.5,175.5 137.5,176.5 137.5,177.5C 112.5,177.5 87.5,177.5 62.5,177.5C 62.5,177.167 62.5,176.833 62.5,176.5C 72.8893,177.141 82.8893,176.474 92.5,174.5C 92.5,168.167 92.5,161.833 92.5,155.5C 93.6522,154.375 94.6522,154.375 95.5,155.5 Z"/></g>
<g><path style="opacity:1" fill="#e1daca" d="M 67.5,155.5 C 67.5,161.833 67.5,168.167 67.5,174.5C 68.5,174.5 69.5,174.5 70.5,174.5C 71.5,174.5 72.5,174.5 73.5,174.5C 73.5,168.833 73.5,163.167 73.5,157.5C 73.5,156.833 73.5,156.167 73.5,155.5C 75.1489,161.601 76.1489,167.935 76.5,174.5C 77.1667,174.5 77.8333,174.5 78.5,174.5C 79.5,174.5 80.5,174.5 81.5,174.5C 83.1667,174.5 84.8333,174.5 86.5,174.5C 87.1666,168.321 87.8332,161.988 88.5,155.5C 89.1668,161.988 89.8334,168.321 90.5,174.5C 91.1667,174.5 91.8333,174.5 92.5,174.5C 82.8893,176.474 72.8893,177.141 62.5,176.5C 62.5,175.833 62.5,175.167 62.5,174.5C 63.1667,174.5 63.8333,174.5 64.5,174.5C 64.8511,167.935 65.8511,161.601 67.5,155.5 Z"/></g>
<g><path style="opacity:1" fill="#5d5c54" d="M 117.5,155.5 C 117.5,161.833 117.5,168.167 117.5,174.5C 115.833,174.5 114.167,174.5 112.5,174.5C 112.5,168.167 112.5,161.833 112.5,155.5C 114.167,155.5 115.833,155.5 117.5,155.5 Z"/></g>
<g><path style="opacity:1" fill="#6b685f" d="M 131.5,157.5 C 131.5,163.167 131.5,168.833 131.5,174.5C 130.5,174.5 129.5,174.5 128.5,174.5C 128.5,168.833 128.5,163.167 128.5,157.5C 129.5,157.5 130.5,157.5 131.5,157.5 Z"/></g>
<g><path style="opacity:1" fill="#757268" d="M 73.5,157.5 C 73.5,163.167 73.5,168.833 73.5,174.5C 72.5,174.5 71.5,174.5 70.5,174.5C 70.5,168.833 70.5,163.167 70.5,157.5C 71.5,157.5 72.5,157.5 73.5,157.5 Z"/></g>
<g><path style="opacity:1" fill="#716e65" d="M 103.5,157.5 C 103.5,163.167 103.5,168.833 103.5,174.5C 101.833,174.5 100.167,174.5 98.5,174.5C 98.5,168.833 98.5,163.167 98.5,157.5C 100.167,157.5 101.833,157.5 103.5,157.5 Z"/></g>
<g><path style="opacity:1" fill="#515048" d="M 106.5,155.5 C 107.5,155.5 108.5,155.5 109.5,155.5C 109.5,161.833 109.5,168.167 109.5,174.5C 108.5,174.5 107.5,174.5 106.5,174.5C 106.5,168.167 106.5,161.833 106.5,155.5 Z"/></g>
<g><path style="opacity:1" fill="#d8d3c1" d="M 81.5,155.5 C 81.5,160.833 81.5,166.167 81.5,171.5C 80.1883,169.257 79.5217,166.59 79.5,163.5C 79.5217,160.41 80.1883,157.743 81.5,155.5 Z"/></g>
<g><path style="opacity:1" fill="#46453e" d="M 64.5,174.5 C 63.8333,174.5 63.1667,174.5 62.5,174.5C 63.1667,149.167 63.8333,149.167 64.5,174.5 Z"/></g>
<g><path style="opacity:1" fill="#504e49" d="M 134.5,155.5 C 135.5,155.5 136.5,155.5 137.5,155.5C 137.5,161.833 137.5,168.167 137.5,174.5C 136.5,174.5 135.5,174.5 134.5,174.5C 134.5,168.167 134.5,161.833 134.5,155.5 Z"/></g>
<g><path style="opacity:1" fill="#474640" d="M 131.5,155.5 C 131.5,156.167 131.5,156.833 131.5,157.5C 130.5,157.5 129.5,157.5 128.5,157.5C 128.5,163.167 128.5,168.833 128.5,174.5C 127.833,174.5 127.167,174.5 126.5,174.5C 126.5,168.167 126.5,161.833 126.5,155.5C 128.167,155.5 129.833,155.5 131.5,155.5 Z"/></g>
<g><path style="opacity:1" fill="#4c4b44" d="M 120.5,155.5 C 121.5,155.5 122.5,155.5 123.5,155.5C 123.5,161.833 123.5,168.167 123.5,174.5C 122.5,174.5 121.5,174.5 120.5,174.5C 120.5,168.167 120.5,161.833 120.5,155.5 Z"/></g>
<g><path style="opacity:1" fill="#4a4943" d="M 95.5,155.5 C 98.6981,154.964 101.365,155.631 103.5,157.5C 101.833,157.5 100.167,157.5 98.5,157.5C 98.5,163.167 98.5,168.833 98.5,174.5C 97.5,174.5 96.5,174.5 95.5,174.5C 95.5,168.167 95.5,161.833 95.5,155.5 Z"/></g>
<g><path style="opacity:1" fill="#464540" d="M 92.5,155.5 C 92.5,161.833 92.5,168.167 92.5,174.5C 91.8333,174.5 91.1667,174.5 90.5,174.5C 89.8771,167.745 90.5437,161.412 92.5,155.5 Z"/></g>
<g><path style="opacity:1" fill="#54524b" d="M 81.5,155.5 C 83.1667,155.5 84.8333,155.5 86.5,155.5C 86.3303,158.266 85.6636,160.933 84.5,163.5C 85.967,167.032 86.6336,170.698 86.5,174.5C 84.8333,174.5 83.1667,174.5 81.5,174.5C 81.5,173.5 81.5,172.5 81.5,171.5C 81.5,166.167 81.5,160.833 81.5,155.5 Z"/></g>
<g><path style="opacity:1" fill="#474641" d="M 78.5,174.5 C 77.8333,174.5 77.1667,174.5 76.5,174.5C 77.1667,149.167 77.8333,149.167 78.5,174.5 Z"/></g>
<g><path style="opacity:1" fill="#4e4c45" d="M 67.5,155.5 C 69.5,155.5 71.5,155.5 73.5,155.5C 73.5,156.167 73.5,156.833 73.5,157.5C 72.5,157.5 71.5,157.5 70.5,157.5C 70.5,163.167 70.5,168.833 70.5,174.5C 69.5,174.5 68.5,174.5 67.5,174.5C 67.5,168.167 67.5,161.833 67.5,155.5 Z"/></g>
<g><path style="opacity:1" fill="#beb9aa" d="M 164.5,149.5 C 160.116,149.174 155.783,149.508 151.5,150.5C 154.306,151.168 156.972,151.834 159.5,152.5C 156.833,152.5 154.167,152.5 151.5,152.5C 151.5,154.167 151.5,155.833 151.5,157.5C 154.167,157.5 156.833,157.5 159.5,157.5C 157.052,158.473 154.385,158.806 151.5,158.5C 151.5,160.167 151.5,161.833 151.5,163.5C 150.518,166.962 150.185,170.629 150.5,174.5C 148.833,174.5 147.167,174.5 145.5,174.5C 145.5,167.167 145.5,159.833 145.5,152.5C 144.5,152.5 143.5,152.5 142.5,152.5C 142.5,159.833 142.5,167.167 142.5,174.5C 140.833,174.5 139.167,174.5 137.5,174.5C 137.5,168.167 137.5,161.833 137.5,155.5C 138.5,155.5 139.5,155.5 140.5,155.5C 140.5,152.833 140.5,150.167 140.5,147.5C 148.903,146.866 156.903,147.533 164.5,149.5 Z"/></g>
<g><path style="opacity:1" fill="#6e6a61" d="M 159.5,152.5 C 159.5,154.167 159.5,155.833 159.5,157.5C 156.833,157.5 154.167,157.5 151.5,157.5C 151.5,155.833 151.5,154.167 151.5,152.5C 154.167,152.5 156.833,152.5 159.5,152.5 Z"/></g>
<g><path style="opacity:1" fill="#d5cfbf" d="M 64.5,152.5 C 63.8333,152.5 63.1667,152.5 62.5,152.5C 62.5,150.5 62.5,148.5 62.5,146.5C 87.1667,146.5 111.833,146.5 136.5,146.5C 136.5,148.5 136.5,150.5 136.5,152.5C 112.5,152.5 88.5,152.5 64.5,152.5 Z"/></g>
<g><path style="opacity:1" fill="#d8d2c2" d="M -0.5,180.5 C 0.833333,180.5 2.16667,180.5 3.5,180.5C 3.5,183.167 3.5,185.833 3.5,188.5C 2.16667,188.5 0.833333,188.5 -0.5,188.5C -0.5,185.833 -0.5,183.167 -0.5,180.5 Z"/></g>
<g><path style="opacity:1" fill="#b8b2a4" d="M -0.5,180.5 C -0.5,180.167 -0.5,179.833 -0.5,179.5C 10.1667,179.5 20.8333,179.5 31.5,179.5C 31.5,182.5 31.5,185.5 31.5,188.5C 28.0137,189.953 24.347,190.619 20.5,190.5C 20.5,188.833 20.5,187.167 20.5,185.5C 19.5,185.5 18.5,185.5 17.5,185.5C 17.5,183.833 17.5,182.167 17.5,180.5C 13.8333,180.5 10.1667,180.5 6.5,180.5C 5.96438,183.698 6.63105,186.365 8.5,188.5C 8.5,189.5 8.5,190.5 8.5,191.5C 5.5,191.5 2.5,191.5 -0.5,191.5C -0.5,190.5 -0.5,189.5 -0.5,188.5C 0.833333,188.5 2.16667,188.5 3.5,188.5C 3.5,185.833 3.5,183.167 3.5,180.5C 2.16667,180.5 0.833333,180.5 -0.5,180.5 Z"/></g>
<g><path style="opacity:1" fill="#d6d0c0" d="M 17.5,185.5 C 17.5,186.5 17.5,187.5 17.5,188.5C 16.5,188.5 15.5,188.5 14.5,188.5C 14.5,186.5 14.5,184.5 14.5,182.5C 13.5,182.5 12.5,182.5 11.5,182.5C 11.5,184.5 11.5,186.5 11.5,188.5C 10.5,188.5 9.5,188.5 8.5,188.5C 6.63105,186.365 5.96438,183.698 6.5,180.5C 10.1667,180.5 13.8333,180.5 17.5,180.5C 17.5,182.167 17.5,183.833 17.5,185.5 Z"/></g>
<g><path style="opacity:1" fill="#918c81" d="M 48.5,184.5 C 48.5,186.833 48.5,189.167 48.5,191.5C 45.5,191.5 42.5,191.5 39.5,191.5C 39.5,191.167 39.5,190.833 39.5,190.5C 42.1667,190.5 44.8333,190.5 47.5,190.5C 47.5,187.833 47.5,185.167 47.5,182.5C 44.8333,182.5 42.1667,182.5 39.5,182.5C 41.9878,180.612 44.9878,179.945 48.5,180.5C 48.5,181.833 48.5,183.167 48.5,184.5 Z"/></g>
<g><path style="opacity:1" fill="#d6d0c0" d="M 134.5,191.5 C 133.5,191.5 132.5,191.5 131.5,191.5C 131.5,188.5 131.5,185.5 131.5,182.5C 129.5,182.5 127.5,182.5 125.5,182.5C 126.055,186.012 125.388,189.012 123.5,191.5C 123.5,189.5 123.5,187.5 123.5,185.5C 122.5,185.5 121.5,185.5 120.5,185.5C 120.5,187.5 120.5,189.5 120.5,191.5C 119.5,191.5 118.5,191.5 117.5,191.5C 117.5,188.5 117.5,185.5 117.5,182.5C 115.5,182.5 113.5,182.5 111.5,182.5C 112.055,186.012 111.388,189.012 109.5,191.5C 109.5,189.5 109.5,187.5 109.5,185.5C 108.5,185.5 107.5,185.5 106.5,185.5C 106.5,187.5 106.5,189.5 106.5,191.5C 104.89,188.797 103.89,185.797 103.5,182.5C 100.833,182.5 98.1667,182.5 95.5,182.5C 95.5,185.5 95.5,188.5 95.5,191.5C 94.5,191.5 93.5,191.5 92.5,191.5C 92.9746,188.918 92.3079,186.918 90.5,185.5C 89.8354,187.369 89.1687,189.369 88.5,191.5C 87.5159,188.572 87.1826,185.572 87.5,182.5C 85.5,182.5 83.5,182.5 81.5,182.5C 81.8174,185.572 81.4841,188.572 80.5,191.5C 79.8313,189.369 79.1646,187.369 78.5,185.5C 77.8333,185.5 77.1667,185.5 76.5,185.5C 75.8354,187.369 75.1687,189.369 74.5,191.5C 73.5159,188.572 73.1826,185.572 73.5,182.5C 71.5,182.5 69.5,182.5 67.5,182.5C 68.0545,186.012 67.3878,189.012 65.5,191.5C 65.5,187.833 65.5,184.167 65.5,180.5C 88.5,180.5 111.5,180.5 134.5,180.5C 134.5,184.167 134.5,187.833 134.5,191.5 Z"/></g>
<g><path style="opacity:1" fill="#918c81" d="M 159.5,180.5 C 159.5,181.167 159.5,181.833 159.5,182.5C 156.833,182.5 154.167,182.5 151.5,182.5C 151.5,185.167 151.5,187.833 151.5,190.5C 154.167,190.5 156.833,190.5 159.5,190.5C 159.5,190.833 159.5,191.167 159.5,191.5C 156.5,191.5 153.5,191.5 150.5,191.5C 150.5,187.833 150.5,184.167 150.5,180.5C 153.5,180.5 156.5,180.5 159.5,180.5 Z"/></g>
<g><path style="opacity:1" fill="#d8d2c2" d="M 199.5,180.5 C 199.5,183.167 199.5,185.833 199.5,188.5C 198.167,188.5 196.833,188.5 195.5,188.5C 195.5,185.833 195.5,183.167 195.5,180.5C 196.833,180.5 198.167,180.5 199.5,180.5 Z"/></g>
<g><path style="opacity:1" fill="#958f85" d="M 103.5,182.5 C 103.5,185.5 103.5,188.5 103.5,191.5C 100.833,191.5 98.1667,191.5 95.5,191.5C 95.5,188.5 95.5,185.5 95.5,182.5C 98.1667,182.5 100.833,182.5 103.5,182.5 Z"/></g>
<g><path style="opacity:1" fill="#675b3f" d="M 14.5,188.5 C 14.5,189.5 14.5,190.5 14.5,191.5C 13.5,191.5 12.5,191.5 11.5,191.5C 11.6349,194.417 10.9682,197.084 9.5,199.5C 8.5,199.5 7.5,199.5 6.5,199.5C 6.5,197.5 6.5,195.5 6.5,193.5C 4.16667,193.5 1.83333,193.5 -0.5,193.5C -0.5,192.833 -0.5,192.167 -0.5,191.5C 2.5,191.5 5.5,191.5 8.5,191.5C 8.5,190.5 8.5,189.5 8.5,188.5C 9.5,188.5 10.5,188.5 11.5,188.5C 11.5,186.5 11.5,184.5 11.5,182.5C 12.5,182.5 13.5,182.5 14.5,182.5C 14.5,184.5 14.5,186.5 14.5,188.5 Z"/></g>
<g><path style="opacity:1" fill="#675b3f" d="M 190.5,188.5 C 190.5,189.5 190.5,190.5 190.5,191.5C 193.5,191.5 196.5,191.5 199.5,191.5C 199.5,192.167 199.5,192.833 199.5,193.5C 197.167,193.5 194.833,193.5 192.5,193.5C 192.5,195.5 192.5,197.5 192.5,199.5C 191.5,199.5 190.5,199.5 189.5,199.5C 188.032,197.084 187.365,194.417 187.5,191.5C 186.5,191.5 185.5,191.5 184.5,191.5C 184.5,190.5 184.5,189.5 184.5,188.5C 184.5,186.5 184.5,184.5 184.5,182.5C 185.5,182.5 186.5,182.5 187.5,182.5C 187.5,184.5 187.5,186.5 187.5,188.5C 188.5,188.5 189.5,188.5 190.5,188.5 Z"/></g>
<g><path style="opacity:1" fill="#64625a" d="M 39.5,182.5 C 42.1667,182.5 44.8333,182.5 47.5,182.5C 47.5,185.167 47.5,187.833 47.5,190.5C 44.8333,190.5 42.1667,190.5 39.5,190.5C 39.5,187.833 39.5,185.167 39.5,182.5 Z"/></g>
<g><path style="opacity:1" fill="#64625a" d="M 159.5,182.5 C 159.5,185.167 159.5,187.833 159.5,190.5C 156.833,190.5 154.167,190.5 151.5,190.5C 151.5,187.833 151.5,185.167 151.5,182.5C 154.167,182.5 156.833,182.5 159.5,182.5 Z"/></g>
<g><path style="opacity:1" fill="#636159" d="M 76.5,185.5 C 77.1667,185.5 77.8333,185.5 78.5,185.5C 77.8333,193.5 77.1667,193.5 76.5,185.5 Z"/></g>
<g><path style="opacity:1" fill="#afa99b" d="M 199.5,179.5 C 199.5,179.833 199.5,180.167 199.5,180.5C 198.167,180.5 196.833,180.5 195.5,180.5C 195.5,183.167 195.5,185.833 195.5,188.5C 196.833,188.5 198.167,188.5 199.5,188.5C 199.5,189.5 199.5,190.5 199.5,191.5C 196.5,191.5 193.5,191.5 190.5,191.5C 190.5,190.5 190.5,189.5 190.5,188.5C 192.369,186.365 193.036,183.698 192.5,180.5C 188.833,180.5 185.167,180.5 181.5,180.5C 181.5,182.167 181.5,183.833 181.5,185.5C 180.5,185.5 179.5,185.5 178.5,185.5C 178.5,187.167 178.5,188.833 178.5,190.5C 174.653,190.619 170.986,189.953 167.5,188.5C 167.5,185.833 167.5,183.167 167.5,180.5C 178.143,179.655 188.81,179.321 199.5,179.5 Z"/></g>
<g><path style="opacity:1" fill="#d6d0c0" d="M 190.5,188.5 C 189.5,188.5 188.5,188.5 187.5,188.5C 187.5,186.5 187.5,184.5 187.5,182.5C 186.5,182.5 185.5,182.5 184.5,182.5C 184.5,184.5 184.5,186.5 184.5,188.5C 183.5,188.5 182.5,188.5 181.5,188.5C 181.5,187.5 181.5,186.5 181.5,185.5C 181.5,183.833 181.5,182.167 181.5,180.5C 185.167,180.5 188.833,180.5 192.5,180.5C 193.036,183.698 192.369,186.365 190.5,188.5 Z"/></g>
<g><path style="opacity:1" fill="#646058" d="M 90.5,185.5 C 92.3079,186.918 92.9746,188.918 92.5,191.5C 90.6921,190.082 90.0254,188.082 90.5,185.5 Z"/></g>
<g><path style="opacity:1" fill="#6a665d" d="M 123.5,191.5 C 122.5,191.5 121.5,191.5 120.5,191.5C 120.5,189.5 120.5,187.5 120.5,185.5C 121.5,185.5 122.5,185.5 123.5,185.5C 123.5,187.5 123.5,189.5 123.5,191.5 Z"/></g>
<g><path style="opacity:1" fill="#727066" d="M 109.5,191.5 C 108.5,191.5 107.5,191.5 106.5,191.5C 106.5,189.5 106.5,187.5 106.5,185.5C 107.5,185.5 108.5,185.5 109.5,185.5C 109.5,187.5 109.5,189.5 109.5,191.5 Z"/></g>
<g><path style="opacity:1" fill="#d7d1c1" d="M 164.5,199.5 C 138.833,199.5 113.167,199.5 87.5,199.5C 87.4802,197.857 88.1468,196.524 89.5,195.5C 78.5202,194.501 67.5202,194.168 56.5,194.5C 56.5,196.167 56.5,197.833 56.5,199.5C 49.1667,199.5 41.8333,199.5 34.5,199.5C 34.5,197.5 34.5,195.5 34.5,193.5C 77.8333,193.5 121.167,193.5 164.5,193.5C 164.5,195.5 164.5,197.5 164.5,199.5 Z"/></g>
<g><path style="opacity:1" fill="#f4eddb" d="M 87.5,199.5 C 77.1667,199.5 66.8333,199.5 56.5,199.5C 56.5,197.833 56.5,196.167 56.5,194.5C 67.5202,194.168 78.5202,194.501 89.5,195.5C 88.1468,196.524 87.4802,197.857 87.5,199.5 Z"/></g>
<g><path style="opacity:1" fill="#a99c72" d="M 33.5,193.5 C 33.5,194.5 33.5,195.5 33.5,196.5C 26.5,196.5 19.5,196.5 12.5,196.5C 12.5,195.5 12.5,194.5 12.5,193.5C 19.5,193.5 26.5,193.5 33.5,193.5 Z"/></g>
<g><path style="opacity:1" fill="#a99c72" d="M 165.5,193.5 C 172.5,193.5 179.5,193.5 186.5,193.5C 186.5,194.5 186.5,195.5 186.5,196.5C 179.5,196.5 172.5,196.5 165.5,196.5C 165.5,195.5 165.5,194.5 165.5,193.5 Z"/></g>
<g><path style="opacity:1" fill="#90835e" d="M -0.5,193.5 C 1.83333,193.5 4.16667,193.5 6.5,193.5C 6.5,195.5 6.5,197.5 6.5,199.5C 4.16667,199.5 1.83333,199.5 -0.5,199.5C -0.5,197.5 -0.5,195.5 -0.5,193.5 Z"/></g>
<g><path style="opacity:1" fill="#857755" d="M 14.5,191.5 C 20.8333,191.5 27.1667,191.5 33.5,191.5C 33.5,192.167 33.5,192.833 33.5,193.5C 26.5,193.5 19.5,193.5 12.5,193.5C 12.5,194.5 12.5,195.5 12.5,196.5C 19.5,196.5 26.5,196.5 33.5,196.5C 33.5,197.5 33.5,198.5 33.5,199.5C 25.5,199.5 17.5,199.5 9.5,199.5C 10.9682,197.084 11.6349,194.417 11.5,191.5C 12.5,191.5 13.5,191.5 14.5,191.5 Z"/></g>
<g><path style="opacity:1" fill="#847755" d="M 165.5,191.5 C 171.833,191.5 178.167,191.5 184.5,191.5C 185.5,191.5 186.5,191.5 187.5,191.5C 187.365,194.417 188.032,197.084 189.5,199.5C 181.5,199.5 173.5,199.5 165.5,199.5C 165.5,198.5 165.5,197.5 165.5,196.5C 172.5,196.5 179.5,196.5 186.5,196.5C 186.5,195.5 186.5,194.5 186.5,193.5C 179.5,193.5 172.5,193.5 165.5,193.5C 165.5,192.833 165.5,192.167 165.5,191.5 Z"/></g>
<g><path style="opacity:1" fill="#90835f" d="M 199.5,193.5 C 199.5,195.5 199.5,197.5 199.5,199.5C 197.167,199.5 194.833,199.5 192.5,199.5C 192.5,197.5 192.5,195.5 192.5,193.5C 194.833,193.5 197.167,193.5 199.5,193.5 Z"/></g>
</svg>
