<?xml version="1.0" encoding="UTF-8"?>
<!DOCTYPE svg PUBLIC "-//W3C//DTD SVG 1.1//EN" "http://www.w3.org/Graphics/SVG/1.1/DTD/svg11.dtd">
<svg xmlns="http://www.w3.org/2000/svg" version="1.1" width="75px" height="75px" style="shape-rendering:geometricPrecision; text-rendering:geometricPrecision; image-rendering:optimizeQuality; fill-rule:evenodd; clip-rule:evenodd" xmlns:xlink="http://www.w3.org/1999/xlink">
<g><path style="opacity:1" fill="#f5ba42" d="M -0.5,-0.5 C 24.5,-0.5 49.5,-0.5 74.5,-0.5C 74.5,24.5 74.5,49.5 74.5,74.5C 49.5,74.5 24.5,74.5 -0.5,74.5C -0.5,49.5 -0.5,24.5 -0.5,-0.5 Z"/></g>
<g><path style="opacity:1" fill="#fdebc9" d="M 32.5,5.5 C 33.0122,7.47828 33.1788,9.81162 33,12.5C 32.1931,10.4226 31.0264,8.58926 29.5,7C 30.7375,6.76791 31.7375,6.26791 32.5,5.5 Z"/></g>
<g><path style="opacity:1" fill="#feeed2" d="M 22.5,8.5 C 23.8333,8.5 25.1667,8.5 26.5,8.5C 26.6713,11.7973 26.0046,12.1306 24.5,9.5C 22.9954,12.1306 22.3287,11.7973 22.5,8.5 Z"/></g>
<g><path style="opacity:1" fill="#fdeccc" d="M 38.5,5.5 C 39.5,5.5 40.5,5.5 41.5,5.5C 41.6621,7.5273 41.4955,9.5273 41,11.5C 38.6051,12.7982 37.4384,11.9649 37.5,9C 37.6483,7.74407 37.9816,6.5774 38.5,5.5 Z"/></g>
<g><path style="opacity:1" fill="#f4b333" d="M 38.5,7.5 C 40.4646,7.94835 40.7979,8.94835 39.5,10.5C 38.6143,9.67504 38.281,8.67504 38.5,7.5 Z"/></g>
<g><path style="opacity:1" fill="#fce4b7" d="M 50.5,9.5 C 51.675,9.28099 52.675,9.61432 53.5,10.5C 52.7528,10.7365 51.9195,11.0698 51,11.5C 50.3333,12.5 50.3333,13.5 51,14.5C 51.6543,13.3044 52.1543,13.3044 52.5,14.5C 50.796,15.8229 49.4627,15.4896 48.5,13.5C 49.1799,12.1401 49.8466,10.8068 50.5,9.5 Z"/></g>
<g><path style="opacity:1" fill="#fce8c1" d="M 17.5,12.5 C 21.9854,18.7192 21.3188,19.5526 15.5,15C 16.756,14.5831 17.4226,13.7498 17.5,12.5 Z"/></g>
<g><path style="opacity:1" fill="#fdebc9" d="M 59.5,15.5 C 60.525,15.8966 60.6917,16.5632 60,17.5C 56.899,21.7577 55.2323,21.4244 55,16.5C 56.3466,14.5339 57.8466,14.2006 59.5,15.5 Z"/></g>
<g><path style="opacity:1" fill="#f4b63a" d="M 59.5,15.5 C 58.8783,16.6266 58.045,17.6266 57,18.5C 56.4808,16.5106 57.3141,15.5106 59.5,15.5 Z"/></g>
<g><path style="opacity:1" fill="#fefcf7" d="M 32.5,18.5 C 48.178,17.6791 55.678,25.0125 55,40.5C 50.0078,54.0751 40.8411,57.9084 27.5,52C 19.6728,45.8177 17.5061,37.9844 21,28.5C 23.7942,23.8659 27.6275,20.5326 32.5,18.5 Z"/></g>
<g><path style="opacity:1" fill="#fceac8" d="M 63.5,19.5 C 64.7733,20.0768 64.7733,20.7435 63.5,21.5C 62.3801,22.8334 61.0468,23.3334 59.5,23C 60.7305,21.5952 62.0639,20.4286 63.5,19.5 Z"/></g>
<g><path style="opacity:1" fill="#fce5ba" d="M 11.5,18.5 C 13.3936,19.0476 15.0603,20.0476 16.5,21.5C 15.9747,22.1924 15.3081,22.6924 14.5,23C 14.8333,23.3333 15.1667,23.6667 15.5,24C 13.3687,23.6017 11.3687,22.6017 9.5,21C 10.3805,20.2917 11.0472,19.4584 11.5,18.5 Z"/></g>
<g><path style="opacity:1" fill="#fce7bd" d="M 7.5,25.5 C 9.8418,25.7748 9.8418,26.6081 7.5,28C 8.76591,28.3095 9.93257,28.8095 11,29.5C 12.0432,25.7741 12.5432,26.1074 12.5,30.5C 7.97281,31.138 6.30614,29.4714 7.5,25.5 Z"/></g>
<g><path style="opacity:1" fill="#fdeccc" d="M 63.5,25.5 C 65.9418,25.1192 66.6085,25.7859 65.5,27.5C 68.3745,28.3268 67.8745,29.3268 64,30.5C 63.7459,29.2885 62.9126,28.1218 61.5,27C 62.4158,26.7216 63.0825,26.2216 63.5,25.5 Z"/></g>
<g><path style="opacity:1" fill="#f9d48b" d="M 44.5,28.5 C 45.5832,28.5394 46.5832,28.8728 47.5,29.5C 48.6616,34.1313 48.8283,38.798 48,43.5C 44.6377,46.0153 40.971,48.0153 37,49.5C 33.5172,47.7582 30.1839,45.7582 27,43.5C 26.8333,41.1667 26.6667,38.8333 26.5,36.5C 26.5286,33.7305 27.1952,31.3972 28.5,29.5C 33.6271,23.5336 38.9604,23.2003 44.5,28.5 Z"/></g>
<g><path style="opacity:1" fill="#fefdf9" d="M 34.5,39.5 C 35.0283,40.8474 35.195,42.1807 35,43.5C 32.5272,42.8803 30.0272,42.2136 27.5,41.5C 28.9479,39.3333 30.1146,37 31,34.5C 31.6972,36.5844 32.8639,38.2511 34.5,39.5 Z"/></g>
<g><path style="opacity:1" fill="#fefdfa" d="M 39.5,40.5 C 38.8485,41.0906 38.1818,41.7573 37.5,42.5C 36.7124,41.2299 35.7124,40.2299 34.5,39.5C 34.1231,37.742 33.4565,36.0754 32.5,34.5C 35.7844,33.343 39.1177,33.1764 42.5,34C 41.086,35.9935 40.086,38.1602 39.5,40.5 Z"/></g>
<g><path style="opacity:1" fill="#fefefc" d="M 46.5,31.5 C 47.6291,33.6282 47.7958,35.9615 47,38.5C 45.3364,36.2144 45.1697,33.8811 46.5,31.5 Z"/></g>
<g><path style="opacity:1" fill="#fefcf6" d="M 28.5,31.5 C 29.5821,33.8232 29.4154,36.1565 28,38.5C 27.2042,35.9615 27.3709,33.6282 28.5,31.5 Z"/></g>
<g><path style="opacity:1" fill="#fef5e4" d="M 28.5,31.5 C 28.5,30.8333 28.5,30.1667 28.5,29.5C 30.1703,29.2488 31.6703,28.5822 33,27.5C 33.3333,28.1667 33.6667,28.8333 34,29.5C 35.3848,28.4495 36.3848,27.1161 37,25.5C 38.7146,27.7594 40.5479,29.9261 42.5,32C 40.8333,32.1667 39.1667,32.3333 37.5,32.5C 35.3587,32.3868 33.5253,31.7201 32,30.5C 30.9887,31.3366 29.8221,31.67 28.5,31.5 Z"/></g>
<g><path style="opacity:1" fill="#fef9ee" d="M 44.5,28.5 C 45.9349,29.9848 45.7683,31.3181 44,32.5C 43.2155,30.714 42.0488,29.214 40.5,28C 41.8193,27.805 43.1526,27.9717 44.5,28.5 Z"/></g>
<g><path style="opacity:1" fill="#fefcf8" d="M 39.5,40.5 C 41.2225,38.7472 42.7225,36.7472 44,34.5C 45.1356,37.0964 45.969,39.763 46.5,42.5C 43.6122,43.0102 41.2789,42.3435 39.5,40.5 Z"/></g>
<g><path style="opacity:1" fill="#fefcf8" d="M 31.5,45.5 C 32.9187,44.5489 34.5853,44.2155 36.5,44.5C 36.6495,45.552 36.4828,46.552 36,47.5C 34.6703,46.4178 33.1703,45.7512 31.5,45.5 Z"/></g>
<g><path style="opacity:1" fill="#fef7ea" d="M 37.5,44.5 C 44.8605,44.0823 45.1939,45.0823 38.5,47.5C 37.6143,46.675 37.281,45.675 37.5,44.5 Z"/></g>
<g><path style="opacity:1" fill="#f9d58d" d="M 61.5,51.5 C 60.7249,49.6119 60.7249,47.6119 61.5,45.5C 65.5362,45.5724 66.3696,47.2391 64,50.5C 63.3292,51.2524 62.4959,51.5858 61.5,51.5 Z"/></g>
<g><path style="opacity:1" fill="#f9d48a" d="M 9.5,46.5 C 11.0174,46.5106 12.1841,47.1772 13,48.5C 14.3767,50.7538 15.8767,52.9205 17.5,55C 16.0069,56.3681 14.5069,56.5348 13,55.5C 11.2776,52.7209 10.1109,49.7209 9.5,46.5 Z"/></g>
<g><path style="opacity:1" fill="#f9d387" d="M 61.5,51.5 C 62.7268,54.4444 61.7268,55.9444 58.5,56C 57.5128,53.4478 58.5128,51.9478 61.5,51.5 Z"/></g>
<g><path style="opacity:1" fill="#fada9a" d="M 26.5,63.5 C 24.8276,62.2086 22.9943,62.2086 21,63.5C 20.1667,62.6667 19.3333,61.8333 18.5,61C 19.3333,60.1667 20.1667,59.3333 21,58.5C 23.1906,59.8334 25.024,61.5 26.5,63.5 Z"/></g>
<g><path style="opacity:1" fill="#fad894" d="M 55.5,56.5 C 56.6266,57.1217 57.6266,57.955 58.5,59C 56.7487,61.4785 54.582,62.3118 52,61.5C 50.513,62.2529 50.3463,63.0862 51.5,64C 48.6891,66.3307 47.1891,65.8307 47,62.5C 50.5957,61.484 53.429,59.484 55.5,56.5 Z"/></g>
<g><path style="opacity:1" fill="#fada9b" d="M 26.5,63.5 C 28.368,62.2431 30.0347,62.5764 31.5,64.5C 31.1924,65.3081 30.6924,65.9747 30,66.5C 28.2714,66.0257 27.1047,65.0257 26.5,63.5 Z"/></g>
<g><path style="opacity:1" fill="#fcdea6" d="M 32.5,64.5 C 34.4646,64.9483 34.7979,65.9483 33.5,67.5C 32.6143,66.675 32.281,65.675 32.5,64.5 Z"/></g>
<g><path style="opacity:1" fill="#fad792" d="M 39.5,63.5 C 41.3881,64.2751 43.3881,64.2751 45.5,63.5C 45.5,64.5 45.5,65.5 45.5,66.5C 42.5505,68.0556 39.8838,67.7223 37.5,65.5C 37.0894,66.2624 36.9227,67.2624 37,68.5C 35.8118,67.4366 35.3118,66.1033 35.5,64.5C 37.099,64.7678 38.4324,64.4345 39.5,63.5 Z"/></g>
</svg>
