<?xml version="1.0" encoding="UTF-8"?>
<!DOCTYPE svg PUBLIC "-//W3C//DTD SVG 1.1//EN" "http://www.w3.org/Graphics/SVG/1.1/DTD/svg11.dtd">
<svg xmlns="http://www.w3.org/2000/svg" version="1.1" width="100px" height="100px" style="shape-rendering:geometricPrecision; text-rendering:geometricPrecision; image-rendering:optimizeQuality; fill-rule:evenodd; clip-rule:evenodd" xmlns:xlink="http://www.w3.org/1999/xlink">
<g><path style="opacity:1" fill="#e8c575" d="M -0.5,-0.5 C 21.5,-0.5 43.5,-0.5 65.5,-0.5C 65.8308,1.32239 66.4975,2.98906 67.5,4.5C 57.7179,1.72906 47.7179,0.89573 37.5,2C 34.5243,2.70477 31.8577,3.87143 29.5,5.5C 3.19934,19.7139 -4.80066,41.0472 5.5,69.5C 4.5,69.5 3.5,69.5 2.5,69.5C 2.5533,72.1403 3.21996,74.6403 4.5,77C 4.16667,77.8333 3.83333,78.6667 3.5,79.5C 1.8405,78.8284 0.507165,77.8284 -0.5,76.5C -0.5,50.8333 -0.5,25.1667 -0.5,-0.5 Z"/></g>
<g><path style="opacity:1" fill="#e8c575" d="M 65.5,-0.5 C 76.8333,-0.5 88.1667,-0.5 99.5,-0.5C 99.5,17.8333 99.5,36.1667 99.5,54.5C 98.3197,58.8224 96.8197,63.1558 95,67.5C 93.9887,68.3366 92.8221,68.67 91.5,68.5C 90.5655,67.4324 90.2322,66.099 90.5,64.5C 91.3149,65.4293 92.1482,66.4293 93,67.5C 98.7906,51.4845 97.4573,36.1512 89,21.5C 86.9633,19.2941 84.7966,17.2941 82.5,15.5C 82.1667,14.5 81.5,13.8333 80.5,13.5C 79.7101,12.2058 78.7101,11.0391 77.5,10C 73.9439,8.39245 70.6106,6.55911 67.5,4.5C 66.4975,2.98906 65.8308,1.32239 65.5,-0.5 Z"/></g>
<g><path style="opacity:1" fill="#94905b" d="M 27.5,31.5 C 26.8333,31.8333 26.1667,32.1667 25.5,32.5C 21.6579,31.4608 17.6579,31.4608 13.5,32.5C 14.5899,38.1955 15.9232,43.8621 17.5,49.5C 16.0337,50.347 15.2004,51.6803 15,53.5C 13.9994,60.67 14.4994,67.67 16.5,74.5C 18.9975,77.719 18.6641,80.719 15.5,83.5C 11.7464,79.0883 8.41311,74.4216 5.5,69.5C -4.80066,41.0472 3.19934,19.7139 29.5,5.5C 31.6963,5.40999 33.863,5.07665 36,4.5C 37.4038,4.5093 38.5704,5.0093 39.5,6C 36.1876,8.22529 32.5209,9.89195 28.5,11C 32.1303,14.0498 33.297,17.8831 32,22.5C 31.51,21.2068 31.3433,19.8734 31.5,18.5C 29.4727,18.3379 27.4727,18.5045 25.5,19C 25.9406,21.9409 27.6073,23.7743 30.5,24.5C 28.1459,26.2461 27.1459,28.5794 27.5,31.5 Z"/></g>
<g><path style="opacity:1" fill="#969059" d="M 67.5,4.5 C 70.6106,6.55911 73.9439,8.39245 77.5,10C 78.7101,11.0391 79.7101,12.2058 80.5,13.5C 80.1667,13.5 79.8333,13.5 79.5,13.5C 73.8858,15.2679 69.5525,18.7679 66.5,24C 59.5129,24.0021 52.5129,23.8354 45.5,23.5C 44.5,20.8333 43.5,18.1667 42.5,15.5C 40.3284,14.7945 38.3284,13.7945 36.5,12.5C 36.9175,11.7784 37.5842,11.2784 38.5,11C 36.8876,10.2797 35.3876,10.4464 34,11.5C 34.0408,17.4332 33.0408,23.0998 31,28.5C 29.9609,29.7101 28.7942,30.7101 27.5,31.5C 27.1459,28.5794 28.1459,26.2461 30.5,24.5C 27.6073,23.7743 25.9406,21.9409 25.5,19C 27.4727,18.5045 29.4727,18.3379 31.5,18.5C 31.3433,19.8734 31.51,21.2068 32,22.5C 33.297,17.8831 32.1303,14.0498 28.5,11C 32.5209,9.89195 36.1876,8.22529 39.5,6C 38.5704,5.0093 37.4038,4.5093 36,4.5C 33.863,5.07665 31.6963,5.40999 29.5,5.5C 31.8577,3.87143 34.5243,2.70477 37.5,2C 47.7179,0.89573 57.7179,1.72906 67.5,4.5 Z"/></g>
<g><path style="opacity:1" fill="#c38e38" d="M 36.5,12.5 C 38.3284,13.7945 40.3284,14.7945 42.5,15.5C 43.5,18.1667 44.5,20.8333 45.5,23.5C 52.5129,23.8354 59.5129,24.0021 66.5,24C 69.5525,18.7679 73.8858,15.2679 79.5,13.5C 81.1646,20.1315 81.4979,26.7981 80.5,33.5C 80.8555,34.5223 81.5222,35.189 82.5,35.5C 80.5,36.1667 78.5,36.8333 76.5,37.5C 68.8333,37.5 61.1667,37.5 53.5,37.5C 46.1641,37.0567 38.8308,36.7234 31.5,36.5C 33.8568,36.6633 36.1902,36.4966 38.5,36C 40.4038,33.302 41.7371,30.302 42.5,27C 40.5707,23.8638 38.2374,23.6971 35.5,26.5C 35.1667,25.6667 34.8333,24.8333 34.5,24C 36.0944,20.3258 36.761,16.4925 36.5,12.5 Z"/></g>
<g><path style="opacity:1" fill="#dcad56" d="M 36.5,12.5 C 36.761,16.4925 36.0944,20.3258 34.5,24C 34.8333,24.8333 35.1667,25.6667 35.5,26.5C 38.2374,23.6971 40.5707,23.8638 42.5,27C 41.7371,30.302 40.4038,33.302 38.5,36C 36.1902,36.4966 33.8568,36.6633 31.5,36.5C 30.8333,36.5 30.1667,36.5 29.5,36.5C 27.8608,35.5275 26.5274,34.1942 25.5,32.5C 26.1667,32.1667 26.8333,31.8333 27.5,31.5C 28.7942,30.7101 29.9609,29.7101 31,28.5C 33.0408,23.0998 34.0408,17.4332 34,11.5C 35.3876,10.4464 36.8876,10.2797 38.5,11C 37.5842,11.2784 36.9175,11.7784 36.5,12.5 Z"/></g>
<g><path style="opacity:1" fill="#8e571d" d="M 72.5,26.5 C 74.5,26.5 76.5,26.5 78.5,26.5C 78.2037,30.7907 76.2037,33.7907 72.5,35.5C 71.5,35.3333 70.5,35.1667 69.5,35C 71.669,32.319 72.669,29.4856 72.5,26.5 Z"/></g>
<g><path style="opacity:1" fill="#8d601d" d="M 79.5,13.5 C 79.8333,13.5 80.1667,13.5 80.5,13.5C 81.5,13.8333 82.1667,14.5 82.5,15.5C 83.8333,22.1667 83.8333,28.8333 82.5,35.5C 81.5222,35.189 80.8555,34.5223 80.5,33.5C 81.4979,26.7981 81.1646,20.1315 79.5,13.5 Z"/></g>
<g><path style="opacity:1" fill="#978f59" d="M 82.5,15.5 C 84.7966,17.2941 86.9633,19.2941 89,21.5C 97.4573,36.1512 98.7906,51.4845 93,67.5C 92.1482,66.4293 91.3149,65.4293 90.5,64.5C 89.2689,56.533 88.1022,48.533 87,40.5C 86.6174,39.944 86.1174,39.6107 85.5,39.5C 83.0122,37.6122 80.0122,36.9455 76.5,37.5C 78.5,36.8333 80.5,36.1667 82.5,35.5C 83.8333,28.8333 83.8333,22.1667 82.5,15.5 Z"/></g>
<g><path style="opacity:1" fill="#54462c" d="M 25.5,32.5 C 26.5274,34.1942 27.8608,35.5275 29.5,36.5C 29.4077,38.8477 28.4077,40.5144 26.5,41.5C 26.2089,40.3509 25.3756,39.6842 24,39.5C 21.8253,41.2215 19.6587,42.8881 17.5,44.5C 16.3565,41.4977 16.3565,38.4977 17.5,35.5C 20.4764,35.067 23.1431,34.067 25.5,32.5 Z"/></g>
<g><path style="opacity:1" fill="#584223" d="M 53.5,37.5 C 54.8484,38.6006 56.3484,39.6006 58,40.5C 58.6667,41.8333 58.6667,43.1667 58,44.5C 53.4114,41.2813 49.9114,42.1146 47.5,47C 47.6842,48.3756 48.3509,49.2089 49.5,49.5C 51.631,50.3138 53.9644,50.8138 56.5,51C 56.1667,51.3333 55.8333,51.6667 55.5,52C 45.1461,55.8374 40.1461,52.3374 40.5,41.5C 40.7565,39.2239 42.0898,38.0572 44.5,38C 47.4816,37.502 50.4816,37.3354 53.5,37.5 Z"/></g>
<g><path style="opacity:1" fill="#a7864b" d="M 79.5,40.5 C 74.0399,41.7373 68.3732,42.404 62.5,42.5C 62.5,43.8333 62.5,45.1667 62.5,46.5C 61.8333,47.8333 60.8333,48.8333 59.5,49.5C 59.7792,46.8822 60.4459,44.3822 61.5,42C 67.465,41.0368 73.465,40.5368 79.5,40.5 Z"/></g>
<g><path style="opacity:1" fill="#140d08" d="M 53.5,37.5 C 61.1667,37.5 68.8333,37.5 76.5,37.5C 80.0122,36.9455 83.0122,37.6122 85.5,39.5C 83.2646,39.2053 81.2646,39.5386 79.5,40.5C 73.465,40.5368 67.465,41.0368 61.5,42C 60.4459,44.3822 59.7792,46.8822 59.5,49.5C 58.8485,48.9094 58.1818,48.2427 57.5,47.5C 56.1311,49.124 54.4645,49.624 52.5,49C 52.0323,47.0144 52.0323,45.1811 52.5,43.5C 51.5224,43.9767 50.6891,44.6433 50,45.5C 49.9378,47.1147 49.7711,48.4481 49.5,49.5C 48.3509,49.2089 47.6842,48.3756 47.5,47C 49.9114,42.1146 53.4114,41.2813 58,44.5C 58.6667,43.1667 58.6667,41.8333 58,40.5C 56.3484,39.6006 54.8484,38.6006 53.5,37.5 Z"/></g>
<g><path style="opacity:1" fill="#1b1611" d="M 25.5,32.5 C 23.1431,34.067 20.4764,35.067 17.5,35.5C 16.3565,38.4977 16.3565,41.4977 17.5,44.5C 18.293,49.7759 21.293,51.6092 26.5,50C 27.1667,48.6667 28.1667,47.6667 29.5,47C 27.393,45.7365 26.393,43.9032 26.5,41.5C 28.4077,40.5144 29.4077,38.8477 29.5,36.5C 30.1667,36.5 30.8333,36.5 31.5,36.5C 38.8308,36.7234 46.1641,37.0567 53.5,37.5C 50.4816,37.3354 47.4816,37.502 44.5,38C 42.0898,38.0572 40.7565,39.2239 40.5,41.5C 39.8333,43.5 39.1667,45.5 38.5,47.5C 37.8505,45.5648 37.5172,43.5648 37.5,41.5C 36.1667,41.5 34.8333,41.5 33.5,41.5C 32.9512,43.9013 32.1178,46.2346 31,48.5C 30.2917,49.3805 29.4584,50.0472 28.5,50.5C 26.283,51.3686 23.9496,51.702 21.5,51.5C 19.9382,51.2671 18.6049,50.6005 17.5,49.5C 15.9232,43.8621 14.5899,38.1955 13.5,32.5C 17.6579,31.4608 21.6579,31.4608 25.5,32.5 Z"/></g>
<g><path style="opacity:1" fill="#6a604a" d="M 26.5,41.5 C 26.393,43.9032 27.393,45.7365 29.5,47C 28.1667,47.6667 27.1667,48.6667 26.5,50C 21.293,51.6092 18.293,49.7759 17.5,44.5C 19.6587,42.8881 21.8253,41.2215 24,39.5C 25.3756,39.6842 26.2089,40.3509 26.5,41.5 Z"/></g>
<g><path style="opacity:1" fill="#786a5b" d="M 28.5,50.5 C 30.0725,51.6873 31.7392,52.6873 33.5,53.5C 30.1667,53.5 26.8333,53.5 23.5,53.5C 22.8333,52.8333 22.1667,52.1667 21.5,51.5C 23.9496,51.702 26.283,51.3686 28.5,50.5 Z"/></g>
<g><path style="opacity:1" fill="#423323" d="M 40.5,41.5 C 40.1461,52.3374 45.1461,55.8374 55.5,52C 55.8333,51.6667 56.1667,51.3333 56.5,51C 53.9644,50.8138 51.631,50.3138 49.5,49.5C 49.7711,48.4481 49.9378,47.1147 50,45.5C 50.6891,44.6433 51.5224,43.9767 52.5,43.5C 52.0323,45.1811 52.0323,47.0144 52.5,49C 54.4645,49.624 56.1311,49.124 57.5,47.5C 58.1818,48.2427 58.8485,48.9094 59.5,49.5C 59.2488,51.1703 58.5822,52.6703 57.5,54C 54.3117,55.3158 50.9783,55.8158 47.5,55.5C 43.3172,54.3256 40.3172,51.659 38.5,47.5C 39.1667,45.5 39.8333,43.5 40.5,41.5 Z"/></g>
<g><path style="opacity:1" fill="#c8973d" d="M 85.5,39.5 C 86.1174,39.6107 86.6174,39.944 87,40.5C 88.1022,48.533 89.2689,56.533 90.5,64.5C 90.2322,66.099 90.5655,67.4324 91.5,68.5C 92.075,72.1547 91.075,75.1547 88.5,77.5C 90.6083,51.1995 86.2749,49.8662 75.5,73.5C 75.8988,69.5966 77.0654,65.9299 79,62.5C 79.1667,60 79.3333,57.5 79.5,55C 79.4752,52.0706 78.8086,49.5706 77.5,47.5C 72.4932,47.2491 67.4932,46.9157 62.5,46.5C 62.5,45.1667 62.5,43.8333 62.5,42.5C 68.3732,42.404 74.0399,41.7373 79.5,40.5C 81.2646,39.5386 83.2646,39.2053 85.5,39.5 Z"/></g>
<g><path style="opacity:1" fill="#0f0e0f" d="M 23.5,53.5 C 26.8333,53.5 30.1667,53.5 33.5,53.5C 34.5,53.8333 35.1667,54.5 35.5,55.5C 33.2967,61.5291 29.4633,63.1957 24,60.5C 23.79,58.9419 23.29,57.6085 22.5,56.5C 22.2627,55.209 22.596,54.209 23.5,53.5 Z"/></g>
<g><path style="opacity:1" fill="#eac371" d="M 99.5,54.5 C 99.5,69.5 99.5,84.5 99.5,99.5C 80.1667,99.5 60.8333,99.5 41.5,99.5C 41.0825,98.7784 40.4158,98.2784 39.5,98C 40.056,97.6174 40.3893,97.1174 40.5,96.5C 43.4841,96.2132 44.8174,94.5465 44.5,91.5C 47.8772,91.3103 50.5439,89.8103 52.5,87C 45.5231,87.3969 38.5231,87.3969 31.5,87C 29.9336,86.3918 28.6002,85.5585 27.5,84.5C 27.9169,83.8761 28.5836,83.5427 29.5,83.5C 38.5945,86.2721 47.4278,85.6054 56,81.5C 59.1154,86.5703 58.282,91.0703 53.5,95C 61.598,97.2089 68.598,95.3756 74.5,89.5C 75.4916,89.6716 76.1583,89.3382 76.5,88.5C 77.7095,88.0679 78.7095,87.4013 79.5,86.5C 83.5,84.5 86.5,81.5 88.5,77.5C 91.075,75.1547 92.075,72.1547 91.5,68.5C 92.8221,68.67 93.9887,68.3366 95,67.5C 96.8197,63.1558 98.3197,58.8224 99.5,54.5 Z"/></g>
<g><path style="opacity:1" fill="#f9ecc6" d="M 62.5,46.5 C 67.4932,46.9157 72.4932,47.2491 77.5,47.5C 77.5,51.8333 77.5,56.1667 77.5,60.5C 73.0848,60.3054 68.7514,60.8054 64.5,62C 59.1553,67.3894 53.3219,67.8894 47,63.5C 46.8253,60.8428 46.9919,58.1761 47.5,55.5C 50.9783,55.8158 54.3117,55.3158 57.5,54C 58.5822,52.6703 59.2488,51.1703 59.5,49.5C 60.8333,48.8333 61.8333,47.8333 62.5,46.5 Z"/></g>
<g><path style="opacity:1" fill="#f1ece5" d="M 36.5,55.5 C 41.4205,57.4947 42.4205,60.6614 39.5,65C 38.2068,65.49 36.8734,65.6567 35.5,65.5C 35.8333,62.1667 36.1667,58.8333 36.5,55.5 Z"/></g>
<g><path style="opacity:1" fill="#8e8873" d="M 35.5,55.5 C 35.8333,55.5 36.1667,55.5 36.5,55.5C 36.1667,58.8333 35.8333,62.1667 35.5,65.5C 35.5,66.5 35.5,67.5 35.5,68.5C 32.0139,66.8944 28.3472,65.8944 24.5,65.5C 24.5,66.5 24.5,67.5 24.5,68.5C 24.1667,68.5 23.8333,68.5 23.5,68.5C 23.6795,66.0459 23.0128,63.8792 21.5,62C 22.2335,60.2341 22.5668,58.4008 22.5,56.5C 23.29,57.6085 23.79,58.9419 24,60.5C 29.4633,63.1957 33.2967,61.5291 35.5,55.5 Z"/></g>
<g><path style="opacity:1" fill="#d39a34" d="M 88.5,77.5 C 86.5,81.5 83.5,84.5 79.5,86.5C 79.238,85.0222 79.5713,83.6888 80.5,82.5C 81.8139,81.6872 82.9805,80.6872 84,79.5C 84.561,75.9054 85.7276,72.5721 87.5,69.5C 87.1667,69.1667 86.8333,68.8333 86.5,68.5C 85.3049,70.297 83.6382,71.297 81.5,71.5C 80.736,74.787 78.9027,77.4537 76,79.5C 75.2174,81.4335 75.7174,82.9335 77.5,84C 76.8333,85.3333 76.1667,86.6667 75.5,88C 75.7284,88.3988 76.0618,88.5654 76.5,88.5C 76.1583,89.3382 75.4916,89.6716 74.5,89.5C 73.209,89.7373 72.209,89.404 71.5,88.5C 72.9649,87.5943 73.9649,86.261 74.5,84.5C 70.6271,80.4003 70.9604,76.7337 75.5,73.5C 86.2749,49.8662 90.6083,51.1995 88.5,77.5 Z"/></g>
<g><path style="opacity:1" fill="#e9cc8d" d="M 38.5,47.5 C 40.3172,51.659 43.3172,54.3256 47.5,55.5C 46.9919,58.1761 46.8253,60.8428 47,63.5C 53.3219,67.8894 59.1553,67.3894 64.5,62C 68.7514,60.8054 73.0848,60.3054 77.5,60.5C 77.5,56.1667 77.5,51.8333 77.5,47.5C 78.8086,49.5706 79.4752,52.0706 79.5,55C 79.3333,57.5 79.1667,60 79,62.5C 77.0654,65.9299 75.8988,69.5966 75.5,73.5C 70.9604,76.7337 70.6271,80.4003 74.5,84.5C 73.9649,86.261 72.9649,87.5943 71.5,88.5C 67.4659,88.4955 63.4659,88.1621 59.5,87.5C 58.8941,84.0844 59.8941,81.4178 62.5,79.5C 63.8333,77.1667 63.8333,74.8333 62.5,72.5C 61.1552,73.3467 60.1552,74.5134 59.5,76C 55.0501,77.1205 51.0501,79.1205 47.5,82C 44.2167,82.0966 41.2167,81.0966 38.5,79C 41.4276,77.0918 44.5943,75.5918 48,74.5C 51.4097,71.7605 51.2431,69.4272 47.5,67.5C 43.493,68.9124 39.493,69.2457 35.5,68.5C 35.5,67.5 35.5,66.5 35.5,65.5C 36.8734,65.6567 38.2068,65.49 39.5,65C 42.4205,60.6614 41.4205,57.4947 36.5,55.5C 36.1667,55.5 35.8333,55.5 35.5,55.5C 35.1667,54.5 34.5,53.8333 33.5,53.5C 31.7392,52.6873 30.0725,51.6873 28.5,50.5C 29.4584,50.0472 30.2917,49.3805 31,48.5C 32.1178,46.2346 32.9512,43.9013 33.5,41.5C 34.8333,41.5 36.1667,41.5 37.5,41.5C 37.5172,43.5648 37.8505,45.5648 38.5,47.5 Z"/></g>
<g><path style="opacity:1" fill="#eddcab" d="M 17.5,49.5 C 18.6049,50.6005 19.9382,51.2671 21.5,51.5C 22.1667,52.1667 22.8333,52.8333 23.5,53.5C 22.596,54.209 22.2627,55.209 22.5,56.5C 22.5668,58.4008 22.2335,60.2341 21.5,62C 23.0128,63.8792 23.6795,66.0459 23.5,68.5C 24.4096,74.528 22.0763,76.528 16.5,74.5C 14.4994,67.67 13.9994,60.67 15,53.5C 15.2004,51.6803 16.0337,50.347 17.5,49.5 Z"/></g>
<g><path style="opacity:1" fill="#4b3a24" d="M 35.5,68.5 C 39.493,69.2457 43.493,68.9124 47.5,67.5C 47.5299,68.4972 47.0299,69.1639 46,69.5C 38.5846,72.1689 31.4179,71.8356 24.5,68.5C 24.5,67.5 24.5,66.5 24.5,65.5C 28.3472,65.8944 32.0139,66.8944 35.5,68.5 Z"/></g>
<g><path style="opacity:1" fill="#e1c071" d="M 47.5,67.5 C 51.2431,69.4272 51.4097,71.7605 48,74.5C 44.5943,75.5918 41.4276,77.0918 38.5,79C 41.2167,81.0966 44.2167,82.0966 47.5,82C 51.0501,79.1205 55.0501,77.1205 59.5,76C 60.1552,74.5134 61.1552,73.3467 62.5,72.5C 63.8333,74.8333 63.8333,77.1667 62.5,79.5C 59.8941,81.4178 58.8941,84.0844 59.5,87.5C 63.4659,88.1621 67.4659,88.4955 71.5,88.5C 72.209,89.404 73.209,89.7373 74.5,89.5C 68.598,95.3756 61.598,97.2089 53.5,95C 58.282,91.0703 59.1154,86.5703 56,81.5C 47.4278,85.6054 38.5945,86.2721 29.5,83.5C 28.5836,83.5427 27.9169,83.8761 27.5,84.5C 25.5,82.8333 23.5,81.1667 21.5,79.5C 20.0584,76.8003 19.3917,77.1336 19.5,80.5C 19.8864,82.9322 20.5531,85.2655 21.5,87.5C 19.2048,86.5254 17.2048,85.1921 15.5,83.5C 18.6641,80.719 18.9975,77.719 16.5,74.5C 22.0763,76.528 24.4096,74.528 23.5,68.5C 23.8333,68.5 24.1667,68.5 24.5,68.5C 31.4179,71.8356 38.5846,72.1689 46,69.5C 47.0299,69.1639 47.5299,68.4972 47.5,67.5 Z"/></g>
<g><path style="opacity:1" fill="#eac674" d="M 5.5,69.5 C 8.41311,74.4216 11.7464,79.0883 15.5,83.5C 17.2048,85.1921 19.2048,86.5254 21.5,87.5C 24.6169,90.1178 27.9502,92.4511 31.5,94.5C 33.396,95.4656 35.396,95.7989 37.5,95.5C 38.209,96.404 39.209,96.7373 40.5,96.5C 40.3893,97.1174 40.056,97.6174 39.5,98C 40.4158,98.2784 41.0825,98.7784 41.5,99.5C 27.5,99.5 13.5,99.5 -0.5,99.5C -0.5,91.8333 -0.5,84.1667 -0.5,76.5C 0.507165,77.8284 1.8405,78.8284 3.5,79.5C 3.83333,78.6667 4.16667,77.8333 4.5,77C 3.21996,74.6403 2.5533,72.1403 2.5,69.5C 3.5,69.5 4.5,69.5 5.5,69.5 Z"/></g>
<g><path style="opacity:1" fill="#be7e2a" d="M 79.5,86.5 C 78.7095,87.4013 77.7095,88.0679 76.5,88.5C 76.0618,88.5654 75.7284,88.3988 75.5,88C 76.1667,86.6667 76.8333,85.3333 77.5,84C 75.7174,82.9335 75.2174,81.4335 76,79.5C 78.9027,77.4537 80.736,74.787 81.5,71.5C 83.6382,71.297 85.3049,70.297 86.5,68.5C 86.8333,68.8333 87.1667,69.1667 87.5,69.5C 85.7276,72.5721 84.561,75.9054 84,79.5C 82.9805,80.6872 81.8139,81.6872 80.5,82.5C 79.5713,83.6888 79.238,85.0222 79.5,86.5 Z"/></g>
<g><path style="opacity:1" fill="#e4b159" d="M 21.5,79.5 C 21.5394,80.5832 21.8728,81.5832 22.5,82.5C 28.3281,86.6469 33.3281,90.9802 37.5,95.5C 35.396,95.7989 33.396,95.4656 31.5,94.5C 27.9502,92.4511 24.6169,90.1178 21.5,87.5C 20.5531,85.2655 19.8864,82.9322 19.5,80.5C 19.3917,77.1336 20.0584,76.8003 21.5,79.5 Z"/></g>
<g><path style="opacity:1" fill="#bd7e2d" d="M 21.5,79.5 C 23.5,81.1667 25.5,82.8333 27.5,84.5C 28.6002,85.5585 29.9336,86.3918 31.5,87C 38.5231,87.3969 45.5231,87.3969 52.5,87C 50.5439,89.8103 47.8772,91.3103 44.5,91.5C 44.8174,94.5465 43.4841,96.2132 40.5,96.5C 39.209,96.7373 38.209,96.404 37.5,95.5C 33.3281,90.9802 28.3281,86.6469 22.5,82.5C 21.8728,81.5832 21.5394,80.5832 21.5,79.5 Z"/></g>
</svg>
