<?xml version="1.0" encoding="UTF-8"?>
<!DOCTYPE svg PUBLIC "-//W3C//DTD SVG 1.1//EN" "http://www.w3.org/Graphics/SVG/1.1/DTD/svg11.dtd">
<svg xmlns="http://www.w3.org/2000/svg" version="1.1" width="100px" height="100px" style="shape-rendering:geometricPrecision; text-rendering:geometricPrecision; image-rendering:optimizeQuality; fill-rule:evenodd; clip-rule:evenodd" xmlns:xlink="http://www.w3.org/1999/xlink">
<g><path style="opacity:1" fill="#fffdfd" d="M -0.5,-0.5 C 32.8333,-0.5 66.1667,-0.5 99.5,-0.5C 99.5,32.8333 99.5,66.1667 99.5,99.5C 66.1667,99.5 32.8333,99.5 -0.5,99.5C -0.5,66.1667 -0.5,32.8333 -0.5,-0.5 Z"/></g>
<g><path style="opacity:1" fill="#fc302a" d="M 42.5,4.5 C 68.8684,3.70887 85.3684,16.0422 92,41.5C 95.0328,70.4362 82.5328,88.2696 54.5,95C 26.8744,95.3841 10.7077,81.8841 6,54.5C 5.73032,28.6213 17.897,11.9546 42.5,4.5 Z"/></g>
<g><path style="opacity:1" fill="#42200e" d="M 75.5,42.5 C 73.6736,40.8525 72.3403,38.8525 71.5,36.5C 71.4197,31.6836 70.5863,27.0169 69,22.5C 67.3221,20.4468 65.4888,20.1134 63.5,21.5C 62.609,22.1098 61.609,22.4431 60.5,22.5C 63.3276,17.9333 66.4943,17.6 70,21.5C 71.6961,28.5507 73.5294,35.5507 75.5,42.5 Z"/></g>
<g><path style="opacity:1" fill="#2b1609" d="M 32.5,21.5 C 32.5,21.1667 32.5,20.8333 32.5,20.5C 35.5,21.5 37.5,23.5 38.5,26.5C 36.5,24.8333 34.5,23.1667 32.5,21.5 Z"/></g>
<g><path style="opacity:1" fill="#271508" d="M 32.5,20.5 C 30.2254,21.1112 28.5588,22.4446 27.5,24.5C 27.6269,20.67 29.2936,19.3367 32.5,20.5 Z"/></g>
<g><path style="opacity:1" fill="#f99921" d="M 63.5,21.5 C 65.4888,20.1134 67.3221,20.4468 69,22.5C 70.5863,27.0169 71.4197,31.6836 71.5,36.5C 68.4403,34.1204 65.107,32.1204 61.5,30.5C 62.5,27.8333 63.5,25.1667 64.5,22.5C 64.3764,21.8933 64.0431,21.56 63.5,21.5 Z"/></g>
<g><path style="opacity:1" fill="#f99721" d="M 32.5,20.5 C 32.5,20.8333 32.5,21.1667 32.5,21.5C 33.5976,24.7488 33.5976,28.4154 32.5,32.5C 30.1324,33.8889 27.7991,35.2222 25.5,36.5C 26.4855,32.5568 27.1522,28.5568 27.5,24.5C 28.5588,22.4446 30.2254,21.1112 32.5,20.5 Z"/></g>
<g><path style="opacity:1" fill="#f9b020" d="M 32.5,21.5 C 34.5,23.1667 36.5,24.8333 38.5,26.5C 38.427,28.0269 39.0937,29.0269 40.5,29.5C 40.9169,30.1239 41.5836,30.4573 42.5,30.5C 47.592,30.2749 52.2587,29.2749 56.5,27.5C 58.5869,26.4154 59.9202,24.7488 60.5,22.5C 61.609,22.4431 62.609,22.1098 63.5,21.5C 64.0431,21.56 64.3764,21.8933 64.5,22.5C 63.5,25.1667 62.5,27.8333 61.5,30.5C 65.107,32.1204 68.4403,34.1204 71.5,36.5C 72.3403,38.8525 73.6736,40.8525 75.5,42.5C 75.6596,44.153 76.3263,45.4863 77.5,46.5C 78.3635,52.4549 78.6968,58.4549 78.5,64.5C 78.1667,64.5 77.8333,64.5 77.5,64.5C 74.6475,55.3364 68.3142,50.6698 58.5,50.5C 57.0476,49.0603 56.0476,47.3936 55.5,45.5C 53.9317,44.5269 52.265,44.3603 50.5,45C 48.9625,46.7073 47.2959,48.2073 45.5,49.5C 45.3893,48.8826 45.056,48.3826 44.5,48C 42.1902,47.5034 39.8568,47.3367 37.5,47.5C 37.5,47.1667 37.5,46.8333 37.5,46.5C 41.7678,44.6847 42.1012,44.0181 38.5,44.5C 37.5791,42.244 35.9124,41.244 33.5,41.5C 32.6618,41.8417 32.3284,42.5084 32.5,43.5C 32.3601,45.1238 33.0267,46.2904 34.5,47C 32.8588,48.129 31.8588,49.629 31.5,51.5C 30.8333,51.5 30.5,51.8333 30.5,52.5C 25.1876,52.8092 21.8543,55.4758 20.5,60.5C 19.8389,58.866 19.5056,57.0326 19.5,55C 19.6492,51.0601 20.3158,47.2268 21.5,43.5C 23.6689,41.6597 25.0023,39.3263 25.5,36.5C 27.7991,35.2222 30.1324,33.8889 32.5,32.5C 33.5976,28.4154 33.5976,24.7488 32.5,21.5 Z"/></g>
<g><path style="opacity:1" fill="#3e2b0f" d="M 60.5,22.5 C 59.9202,24.7488 58.5869,26.4154 56.5,27.5C 57.0798,25.2512 58.4131,23.5846 60.5,22.5 Z"/></g>
<g><path style="opacity:1" fill="#2d240b" d="M 38.5,26.5 C 39.9063,26.9731 40.573,27.9731 40.5,29.5C 39.0937,29.0269 38.427,28.0269 38.5,26.5 Z"/></g>
<g><path style="opacity:1" fill="#2c210b" d="M 56.5,27.5 C 52.2587,29.2749 47.592,30.2749 42.5,30.5C 41.5836,30.4573 40.9169,30.1239 40.5,29.5C 45.8673,28.8833 51.2006,28.2166 56.5,27.5 Z"/></g>
<g><path style="opacity:1" fill="#ffd48a" d="M 33.5,35.5 C 37.2407,34.5985 39.2407,35.9319 39.5,39.5C 36.3918,39.6254 34.3918,38.2921 33.5,35.5 Z"/></g>
<g><path style="opacity:1" fill="#fed48a" d="M 54.5,35.5 C 60.9022,36.7882 60.5689,38.1215 53.5,39.5C 53.4326,38.0413 53.7659,36.7079 54.5,35.5 Z"/></g>
<g><path style="opacity:1" fill="#47230f" d="M 27.5,24.5 C 27.1522,28.5568 26.4855,32.5568 25.5,36.5C 25.0023,39.3263 23.6689,41.6597 21.5,43.5C 23.2585,36.986 25.2585,30.6526 27.5,24.5 Z"/></g>
<g><path style="opacity:1" fill="#1f1a14" d="M 33.5,41.5 C 35.9124,41.244 37.5791,42.244 38.5,44.5C 42.1012,44.0181 41.7678,44.6847 37.5,46.5C 35.5,48.1667 33.5,49.8333 31.5,51.5C 31.8588,49.629 32.8588,48.129 34.5,47C 33.0267,46.2904 32.3601,45.1238 32.5,43.5C 34.6773,44.5042 35.0107,43.8375 33.5,41.5 Z"/></g>
<g><path style="opacity:1" fill="#150e04" d="M 55.5,45.5 C 55.2627,44.209 55.596,43.209 56.5,42.5C 59.8281,41.1495 61.1614,42.4828 60.5,46.5C 58.7085,46.634 57.0418,46.3007 55.5,45.5 Z"/></g>
<g><path style="opacity:1" fill="#9d9893" d="M 33.5,41.5 C 35.0107,43.8375 34.6773,44.5042 32.5,43.5C 32.3284,42.5084 32.6618,41.8417 33.5,41.5 Z"/></g>
<g><path style="opacity:1" fill="#a1a2a3" d="M 56.5,42.5 C 58.337,42.6395 58.6704,43.3061 57.5,44.5C 56.7025,44.0431 56.3691,43.3764 56.5,42.5 Z"/></g>
<g><path style="opacity:1" fill="#311e09" d="M 75.5,42.5 C 77.1042,43.287 77.7709,44.6203 77.5,46.5C 76.3263,45.4863 75.6596,44.153 75.5,42.5 Z"/></g>
<g><path style="opacity:1" fill="#2d1211" d="M 21.5,43.5 C 20.3158,47.2268 19.6492,51.0601 19.5,55C 19.5056,57.0326 19.8389,58.866 20.5,60.5C 20.7038,63.5176 21.0371,66.5176 21.5,69.5C 18.7658,62.8617 17.9325,55.8617 19,48.5C 19.3736,46.5087 20.207,44.842 21.5,43.5 Z"/></g>
<g><path style="opacity:1" fill="#faecd7" d="M 55.5,45.5 C 56.0476,47.3936 57.0476,49.0603 58.5,50.5C 68.3142,50.6698 74.6475,55.3364 77.5,64.5C 77.1667,66.5 76.8333,68.5 76.5,70.5C 75.0937,70.9731 74.427,71.9731 74.5,73.5C 72.1667,75.1667 70.1667,77.1667 68.5,79.5C 57.9896,84.4478 46.9896,85.7811 35.5,83.5C 33.8185,81.9925 31.8185,80.9925 29.5,80.5C 28.5,78.8333 27.1667,77.5 25.5,76.5C 25.573,74.9731 24.9063,73.9731 23.5,73.5C 22.3263,72.4863 21.6596,71.153 21.5,69.5C 21.0371,66.5176 20.7038,63.5176 20.5,60.5C 21.8543,55.4758 25.1876,52.8092 30.5,52.5C 30.372,54.6547 30.872,56.6547 32,58.5C 32.0178,56.2028 31.8511,53.8695 31.5,51.5C 33.5,49.8333 35.5,48.1667 37.5,46.5C 37.5,46.8333 37.5,47.1667 37.5,47.5C 37.0183,48.4163 36.685,49.4163 36.5,50.5C 37.7544,52.3233 38.7544,54.3233 39.5,56.5C 39.1986,59.489 37.5319,60.8224 34.5,60.5C 31.1075,60.3753 29.7741,62.042 30.5,65.5C 30.3361,69.1774 32.0028,71.6774 35.5,73C 41.3539,74.4094 46.5206,73.2427 51,69.5C 51.4966,67.1902 51.6633,64.8568 51.5,62.5C 56.2068,61.487 58.5402,58.8203 58.5,54.5C 57.7554,56.7471 56.422,58.5804 54.5,60C 50.7789,60.6781 47.1122,60.5114 43.5,59.5C 42.6091,58.7387 41.9424,57.7387 41.5,56.5C 42.8509,54.1558 44.1843,51.8225 45.5,49.5C 47.2959,48.2073 48.9625,46.7073 50.5,45C 52.265,44.3603 53.9317,44.5269 55.5,45.5 Z"/></g>
<g><path style="opacity:1" fill="#12100e" d="M 37.5,47.5 C 39.8568,47.3367 42.1902,47.5034 44.5,48C 45.056,48.3826 45.3893,48.8826 45.5,49.5C 44.1843,51.8225 42.8509,54.1558 41.5,56.5C 41.9424,57.7387 42.6091,58.7387 43.5,59.5C 41.095,59.8664 38.7617,60.5331 36.5,61.5C 35.5836,61.4573 34.9169,61.1239 34.5,60.5C 37.5319,60.8224 39.1986,59.489 39.5,56.5C 38.7544,54.3233 37.7544,52.3233 36.5,50.5C 36.685,49.4163 37.0183,48.4163 37.5,47.5 Z"/></g>
<g><path style="opacity:1" fill="#2e2a24" d="M 31.5,51.5 C 31.8511,53.8695 32.0178,56.2028 32,58.5C 30.872,56.6547 30.372,54.6547 30.5,52.5C 30.5,51.8333 30.8333,51.5 31.5,51.5 Z"/></g>
<g><path style="opacity:1" fill="#47260d" d="M 77.5,46.5 C 80.8626,52.3574 81.1959,58.3574 78.5,64.5C 78.6968,58.4549 78.3635,52.4549 77.5,46.5 Z"/></g>
<g><path style="opacity:1" fill="#3e382d" d="M 51.5,62.5 C 48.284,62.6545 45.6174,61.6545 43.5,59.5C 47.1122,60.5114 50.7789,60.6781 54.5,60C 56.422,58.5804 57.7554,56.7471 58.5,54.5C 58.5402,58.8203 56.2068,61.487 51.5,62.5 Z"/></g>
<g><path style="opacity:1" fill="#f7d15c" d="M 43.5,59.5 C 45.6174,61.6545 48.284,62.6545 51.5,62.5C 51.6633,64.8568 51.4966,67.1902 51,69.5C 46.5206,73.2427 41.3539,74.4094 35.5,73C 32.0028,71.6774 30.3361,69.1774 30.5,65.5C 29.7741,62.042 31.1075,60.3753 34.5,60.5C 34.9169,61.1239 35.5836,61.4573 36.5,61.5C 38.7617,60.5331 41.095,59.8664 43.5,59.5 Z"/></g>
<g><path style="opacity:1" fill="#312521" d="M 77.5,64.5 C 77.8333,64.5 78.1667,64.5 78.5,64.5C 78.7406,66.8984 78.0739,68.8984 76.5,70.5C 76.8333,68.5 77.1667,66.5 77.5,64.5 Z"/></g>
<g><path style="opacity:1" fill="#251a17" d="M 76.5,70.5 C 76.573,72.0269 75.9063,73.0269 74.5,73.5C 74.427,71.9731 75.0937,70.9731 76.5,70.5 Z"/></g>
<g><path style="opacity:1" fill="#2c2220" d="M 23.5,73.5 C 24.9063,73.9731 25.573,74.9731 25.5,76.5C 24.0937,76.0269 23.427,75.0269 23.5,73.5 Z"/></g>
<g><path style="opacity:1" fill="#3f150d" d="M 25.5,76.5 C 27.1667,77.5 28.5,78.8333 29.5,80.5C 27.1667,80.1667 25.8333,78.8333 25.5,76.5 Z"/></g>
<g><path style="opacity:1" fill="#261e1c" d="M 74.5,73.5 C 73.5,76.5 71.5,78.5 68.5,79.5C 70.1667,77.1667 72.1667,75.1667 74.5,73.5 Z"/></g>
<g><path style="opacity:1" fill="#2f201a" d="M 29.5,80.5 C 31.8185,80.9925 33.8185,81.9925 35.5,83.5C 32.911,83.539 30.911,82.539 29.5,80.5 Z"/></g>
<g><path style="opacity:1" fill="#48352e" d="M 68.5,79.5 C 67.2511,81.1361 65.5844,82.3028 63.5,83C 56.4159,85.9393 49.0826,86.9393 41.5,86C 39.2774,85.4338 37.2774,84.6005 35.5,83.5C 46.9896,85.7811 57.9896,84.4478 68.5,79.5 Z"/></g>
</svg>
