<?xml version="1.0" encoding="UTF-8"?>
<!DOCTYPE svg PUBLIC "-//W3C//DTD SVG 1.1//EN" "http://www.w3.org/Graphics/SVG/1.1/DTD/svg11.dtd">
<svg xmlns="http://www.w3.org/2000/svg" version="1.1" width="100px" height="83px" style="shape-rendering:geometricPrecision; text-rendering:geometricPrecision; image-rendering:optimizeQuality; fill-rule:evenodd; clip-rule:evenodd" xmlns:xlink="http://www.w3.org/1999/xlink">
<g><path style="opacity:1" fill="#18cdaf" d="M 48.5,-0.5 C 55.1667,-0.5 61.8333,-0.5 68.5,-0.5C 73.9131,1.37345 78.9131,4.04012 83.5,7.5C 81.4352,7.48285 79.4352,7.14952 77.5,6.5C 77.0825,5.77842 76.4158,5.27842 75.5,5C 71.5553,4.07526 67.5553,3.57526 63.5,3.5C 59.8589,3.31477 56.5256,3.98143 53.5,5.5C 52.5,5.5 51.5,5.5 50.5,5.5C 47.4816,5.66463 44.4816,5.49796 41.5,5C 40.5842,4.72158 39.9175,4.22158 39.5,3.5C 42.3448,1.77567 45.3448,0.442336 48.5,-0.5 Z"/></g>
<g><path style="opacity:1" fill="#0bc0bc" d="M 39.5,3.5 C 39.9175,4.22158 40.5842,4.72158 41.5,5C 44.4816,5.49796 47.4816,5.66463 50.5,5.5C 49.0351,6.73685 47.3684,7.73685 45.5,8.5C 43.0459,8.67949 40.8792,8.01282 39,6.5C 37.3468,6.81978 36.3468,7.81978 36,9.5C 35.0053,8.93406 34.172,8.26739 33.5,7.5C 35.1475,5.6736 37.1475,4.34026 39.5,3.5 Z"/></g>
<g><path style="opacity:1" fill="#0970ae" d="M 77.5,6.5 C 73.1539,6.33432 68.8206,6.50098 64.5,7C 62.9419,7.21003 61.6085,7.71003 60.5,8.5C 59.8333,8.5 59.1667,8.5 58.5,8.5C 57.656,6.24066 55.9893,5.24066 53.5,5.5C 56.5256,3.98143 59.8589,3.31477 63.5,3.5C 67.5553,3.57526 71.5553,4.07526 75.5,5C 76.4158,5.27842 77.0825,5.77842 77.5,6.5 Z"/></g>
<g><path style="opacity:1" fill="#0ea9c6" d="M 45.5,8.5 C 43.1667,10.5 40.8333,12.5 38.5,14.5C 35.0504,13.7564 33.3838,15.0897 33.5,18.5C 30.2139,17.7929 26.8806,17.4595 23.5,17.5C 25.8548,13.1452 29.1881,9.81187 33.5,7.5C 34.172,8.26739 35.0053,8.93406 36,9.5C 36.3468,7.81978 37.3468,6.81978 39,6.5C 40.8792,8.01282 43.0459,8.67949 45.5,8.5 Z"/></g>
<g><path style="opacity:1" fill="#084088" d="M 50.5,5.5 C 51.5,5.5 52.5,5.5 53.5,5.5C 55.9893,5.24066 57.656,6.24066 58.5,8.5C 51.5205,12.4807 45.8538,17.814 41.5,24.5C 41.3305,22.1516 40.9971,19.8183 40.5,17.5C 40.3601,15.9704 39.6935,14.9704 38.5,14.5C 40.8333,12.5 43.1667,10.5 45.5,8.5C 47.3684,7.73685 49.0351,6.73685 50.5,5.5 Z"/></g>
<g><path style="opacity:1" fill="#030b0c" d="M 58.5,8.5 C 59.1667,8.5 59.8333,8.5 60.5,8.5C 62.7645,8.44057 63.0978,9.2739 61.5,11C 65.3897,17.9531 69.3897,24.7865 73.5,31.5C 67.25,36.7923 60.25,40.7923 52.5,43.5C 48.6569,44.3909 44.8235,45.3909 41,46.5C 40.5,46.1667 40,45.8333 39.5,45.5C 37.8258,38.2616 38.4924,31.2616 41.5,24.5C 45.8538,17.814 51.5205,12.4807 58.5,8.5 Z"/></g>
<g><path style="opacity:0.999" fill="#0a2976" d="M 38.5,14.5 C 39.6935,14.9704 40.3601,15.9704 40.5,17.5C 40.9971,19.8183 41.3305,22.1516 41.5,24.5C 38.4924,31.2616 37.8258,38.2616 39.5,45.5C 40,45.8333 40.5,46.1667 41,46.5C 44.8235,45.3909 48.6569,44.3909 52.5,43.5C 54.1042,44.287 54.7709,45.6203 54.5,47.5C 49.1323,50.3507 43.4657,52.3507 37.5,53.5C 36.7776,46.163 35.9443,38.8296 35,31.5C 34.7216,30.5842 34.2216,29.9175 33.5,29.5C 32.6615,24.3323 30.1615,23.3323 26,26.5C 24.4315,30.9174 25.9315,32.9174 30.5,32.5C 29.8333,33.1667 29.1667,33.8333 28.5,34.5C 28.1667,34.5 27.8333,34.5 27.5,34.5C 25.8333,33.5 24.5,32.1667 23.5,30.5C 23.9064,25.1 26.9064,22.4334 32.5,22.5C 33.8587,20.3078 35.6921,18.6411 38,17.5C 38.4828,16.552 38.6495,15.552 38.5,14.5 Z"/></g>
<g><path style="opacity:1" fill="#0d83d1" d="M 33.5,29.5 C 32.8333,30.8333 31.8333,31.8333 30.5,32.5C 25.9315,32.9174 24.4315,30.9174 26,26.5C 30.1615,23.3323 32.6615,24.3323 33.5,29.5 Z"/></g>
<g><path style="opacity:0.948" fill="#081a18" d="M 77.5,6.5 C 79.4352,7.14952 81.4352,7.48285 83.5,7.5C 91.2315,13.5539 96.5648,21.2206 99.5,30.5C 99.5,37.1667 99.5,43.8333 99.5,50.5C 97.9826,50.4894 96.8159,49.8228 96,48.5C 92.7549,41.6755 89.2549,35.0089 85.5,28.5C 84.9984,27.479 84.3317,27.3123 83.5,28C 82.3636,29.1451 81.3636,30.3117 80.5,31.5C 80.5654,31.0618 80.3988,30.7284 80,30.5C 77.9322,34.0705 75.0988,36.7371 71.5,38.5C 71.5,37.8333 71.1667,37.5 70.5,37.5C 72.2941,35.2034 74.2941,33.0367 76.5,31C 75.4232,30.5304 74.4232,30.6971 73.5,31.5C 69.3897,24.7865 65.3897,17.9531 61.5,11C 63.0978,9.2739 62.7645,8.44057 60.5,8.5C 61.6085,7.71003 62.9419,7.21003 64.5,7C 68.8206,6.50098 73.1539,6.33432 77.5,6.5 Z"/></g>
<g><path style="opacity:1" fill="#1186c0" d="M 84.5,17.5 C 85.4674,18.8062 86.8007,19.4729 88.5,19.5C 88.7692,21.4286 88.2692,23.0953 87,24.5C 85.2994,22.5899 83.1327,21.4232 80.5,21C 81.7305,19.5952 83.0639,18.4286 84.5,17.5 Z"/></g>
<g><path style="opacity:1" fill="#0f7d7a" d="M 86.5,15.5 C 86.9731,16.9063 87.9731,17.573 89.5,17.5C 89.1667,18.1667 88.8333,18.8333 88.5,19.5C 86.8007,19.4729 85.4674,18.8062 84.5,17.5C 84.8333,16.5 85.5,15.8333 86.5,15.5 Z"/></g>
<g><path style="opacity:1" fill="#08ce92" d="M 89.5,17.5 C 87.9731,17.573 86.9731,16.9063 86.5,15.5C 87.209,14.596 88.209,14.2627 89.5,14.5C 89.5,15.5 89.5,16.5 89.5,17.5 Z"/></g>
<g><path style="opacity:1" fill="#0f8ad1" d="M 38.5,14.5 C 38.6495,15.552 38.4828,16.552 38,17.5C 35.6921,18.6411 33.8587,20.3078 32.5,22.5C 26.9064,22.4334 23.9064,25.1 23.5,30.5C 22.4479,32.256 20.7812,32.9227 18.5,32.5C 18.5,30.8333 18.5,29.1667 18.5,27.5C 19.1322,23.5686 20.7989,20.2353 23.5,17.5C 26.8806,17.4595 30.2139,17.7929 33.5,18.5C 33.3838,15.0897 35.0504,13.7564 38.5,14.5 Z"/></g>
<g><path style="opacity:0.997" fill="#061513" d="M 99.5,50.5 C 99.5,50.8333 99.5,51.1667 99.5,51.5C 97.7267,56.38 95.3934,61.0467 92.5,65.5C 91.8333,65.5 91.1667,65.5 90.5,65.5C 90.6107,64.8826 90.944,64.3826 91.5,64C 86.5852,54.9911 81.5852,46.1577 76.5,37.5C 77.8333,35.5 79.1667,33.5 80.5,31.5C 81.3636,30.3117 82.3636,29.1451 83.5,28C 84.3317,27.3123 84.9984,27.479 85.5,28.5C 89.2549,35.0089 92.7549,41.6755 96,48.5C 96.8159,49.8228 97.9826,50.4894 99.5,50.5 Z"/></g>
<g><path style="opacity:1" fill="#061768" d="M 33.5,29.5 C 34.2216,29.9175 34.7216,30.5842 35,31.5C 35.9443,38.8296 36.7776,46.163 37.5,53.5C 35.6976,54.4582 33.6976,55.1249 31.5,55.5C 28.8503,48.796 27.8503,41.796 28.5,34.5C 29.1667,33.8333 29.8333,33.1667 30.5,32.5C 31.8333,31.8333 32.8333,30.8333 33.5,29.5 Z"/></g>
<g><path style="opacity:1" fill="#04100f" d="M 76.5,37.5 C 81.5852,46.1577 86.5852,54.9911 91.5,64C 90.944,64.3826 90.6107,64.8826 90.5,65.5C 88.1169,67.3582 85.4502,68.6916 82.5,69.5C 81.2995,66.3587 79.2995,63.192 76.5,60C 74.0889,54.5377 72.0889,49.371 70.5,44.5C 72.5293,42.1415 74.5293,39.8082 76.5,37.5 Z"/></g>
<g><path style="opacity:1" fill="#0d70be" d="M 18.5,27.5 C 18.5,29.1667 18.5,30.8333 18.5,32.5C 20.7812,32.9227 22.4479,32.256 23.5,30.5C 24.5,32.1667 25.8333,33.5 27.5,34.5C 27.5,38.8333 27.5,43.1667 27.5,47.5C 24.0977,47.6576 20.7644,47.3242 17.5,46.5C 16.6766,43.5394 16.01,40.5394 15.5,37.5C 16.2879,34.1129 17.2879,30.7796 18.5,27.5 Z"/></g>
<g><path style="opacity:0.997" fill="#051c2a" d="M 15.5,37.5 C 16.01,40.5394 16.6766,43.5394 17.5,46.5C 17.7038,49.5176 18.0371,52.5176 18.5,55.5C 9.14638,55.3188 4.97971,50.6521 6,41.5C 7.18586,37.49 9.35253,34.1567 12.5,31.5C 13.5176,33.5939 14.5176,35.5939 15.5,37.5 Z"/></g>
<g><path style="opacity:1" fill="#0e518f" d="M 70.5,37.5 C 65.503,41.3339 60.1697,44.6672 54.5,47.5C 54.7709,45.6203 54.1042,44.287 52.5,43.5C 60.25,40.7923 67.25,36.7923 73.5,31.5C 74.4232,30.6971 75.4232,30.5304 76.5,31C 74.2941,33.0367 72.2941,35.2034 70.5,37.5 Z"/></g>
<g><path style="opacity:1" fill="#0d639d" d="M 80.5,31.5 C 79.1667,33.5 77.8333,35.5 76.5,37.5C 74.5293,39.8082 72.5293,42.1415 70.5,44.5C 68.8333,45.8333 67.1667,47.1667 65.5,48.5C 65.7148,46.8212 65.0481,45.8212 63.5,45.5C 66.1413,43.1956 68.808,40.8623 71.5,38.5C 75.0988,36.7371 77.9322,34.0705 80,30.5C 80.3988,30.7284 80.5654,31.0618 80.5,31.5 Z"/></g>
<g><path style="opacity:1" fill="#0d5aa7" d="M 27.5,34.5 C 27.8333,34.5 28.1667,34.5 28.5,34.5C 27.8503,41.796 28.8503,48.796 31.5,55.5C 27.1099,56.5973 22.7766,56.5973 18.5,55.5C 18.0371,52.5176 17.7038,49.5176 17.5,46.5C 20.7644,47.3242 24.0977,47.6576 27.5,47.5C 27.5,43.1667 27.5,38.8333 27.5,34.5 Z"/></g>
<g><path style="opacity:1" fill="#030a0b" d="M 70.5,44.5 C 72.0889,49.371 74.0889,54.5377 76.5,60C 79.2995,63.192 81.2995,66.3587 82.5,69.5C 80.0872,71.0507 77.4206,71.7174 74.5,71.5C 65.3697,72.7874 57.3697,70.454 50.5,64.5C 49.0384,63.5423 47.7051,62.3756 46.5,61C 49.5638,59.1412 52.5638,57.3079 55.5,55.5C 59.1832,53.6591 62.5165,51.3258 65.5,48.5C 67.1667,47.1667 68.8333,45.8333 70.5,44.5 Z"/></g>
<g><path style="opacity:1" fill="#0b4d92" d="M 63.5,45.5 C 65.0481,45.8212 65.7148,46.8212 65.5,48.5C 62.5165,51.3258 59.1832,53.6591 55.5,55.5C 53.8784,54.8776 52.5451,53.8776 51.5,52.5C 55.4921,50.17 59.4921,47.8367 63.5,45.5 Z"/></g>
<g><path style="opacity:0.987" fill="#0f4693" d="M -0.5,44.5 C 1.41907,55.5268 8.2524,60.5268 20,59.5C 24.5187,59.303 29.0187,58.9696 33.5,58.5C 33.6854,60.1958 34.5187,61.5291 36,62.5C 36.4955,64.4727 36.6621,66.4727 36.5,68.5C 33.7508,68.7261 31.0841,68.3928 28.5,67.5C 27.913,68.2334 27.913,69.2334 28.5,70.5C 27.3734,69.8783 26.3734,69.045 25.5,68C 14.8145,68.9793 6.14778,65.4793 -0.5,57.5C -0.5,53.1667 -0.5,48.8333 -0.5,44.5 Z"/></g>
<g><path style="opacity:1" fill="#07448c" d="M 50.5,64.5 C 57.3697,70.454 65.3697,72.7874 74.5,71.5C 71.023,72.3227 67.3563,72.8227 63.5,73C 64.3366,74.0113 64.67,75.1779 64.5,76.5C 60.046,76.5781 55.7127,75.9114 51.5,74.5C 50.513,71.2317 50.1796,67.8984 50.5,64.5 Z"/></g>
<g><path style="opacity:0.999" fill="#093281" d="M 51.5,52.5 C 52.5451,53.8776 53.8784,54.8776 55.5,55.5C 52.5638,57.3079 49.5638,59.1412 46.5,61C 47.7051,62.3756 49.0384,63.5423 50.5,64.5C 50.1796,67.8984 50.513,71.2317 51.5,74.5C 55.7127,75.9114 60.046,76.5781 64.5,76.5C 73.6697,76.2204 82.003,73.5537 89.5,68.5C 83.9808,75.4237 76.9808,80.0903 68.5,82.5C 61.8333,82.5 55.1667,82.5 48.5,82.5C 40.616,80.5568 33.9493,76.5568 28.5,70.5C 27.913,69.2334 27.913,68.2334 28.5,67.5C 31.0841,68.3928 33.7508,68.7261 36.5,68.5C 36.6621,66.4727 36.4955,64.4727 36,62.5C 34.5187,61.5291 33.6854,60.1958 33.5,58.5C 39.558,56.7029 45.558,54.7029 51.5,52.5 Z"/></g>
<g><path style="opacity:1" fill="#096aac" d="M 90.5,65.5 C 91.1667,65.5 91.8333,65.5 92.5,65.5C 91.8333,66.8333 90.8333,67.8333 89.5,68.5C 82.003,73.5537 73.6697,76.2204 64.5,76.5C 64.67,75.1779 64.3366,74.0113 63.5,73C 67.3563,72.8227 71.023,72.3227 74.5,71.5C 77.4206,71.7174 80.0872,71.0507 82.5,69.5C 85.4502,68.6916 88.1169,67.3582 90.5,65.5 Z"/></g>
</svg>
