<?xml version="1.0" encoding="UTF-8"?>
<!DOCTYPE svg PUBLIC "-//W3C//DTD SVG 1.1//EN" "http://www.w3.org/Graphics/SVG/1.1/DTD/svg11.dtd">
<svg xmlns="http://www.w3.org/2000/svg" version="1.1" width="250px" height="239px" style="shape-rendering:geometricPrecision; text-rendering:geometricPrecision; image-rendering:optimizeQuality; fill-rule:evenodd; clip-rule:evenodd" xmlns:xlink="http://www.w3.org/1999/xlink">
<g><path style="opacity:1" fill="#000000" d="M -0.5,-0.5 C 8.16667,-0.5 16.8333,-0.5 25.5,-0.5C 11.73,10.3796 3.06333,24.3796 -0.5,41.5C -0.5,27.5 -0.5,13.5 -0.5,-0.5 Z"/></g>
<g><path style="opacity:1" fill="#000000" d="M 223.5,-0.5 C 232.167,-0.5 240.833,-0.5 249.5,-0.5C 249.5,13.5 249.5,27.5 249.5,41.5C 245.937,24.3796 237.27,10.3796 223.5,-0.5 Z"/></g>
<g><path style="opacity:1" fill="#22201e" d="M 25.5,-0.5 C 27.1667,-0.5 28.8333,-0.5 30.5,-0.5C 31.1217,0.626561 31.955,1.62656 33,2.5C 26.1553,36.8298 39.322,59.1631 72.5,69.5C 78.2919,65.4317 84.2919,61.5983 90.5,58C 96.8874,55.2364 103.554,53.7364 110.5,53.5C 110.223,50.5525 110.556,47.7191 111.5,45C 117.757,41.6442 124.424,40.6442 131.5,42C 138.179,42.6771 141.179,46.3438 140.5,53C 153.668,54.5857 165.002,59.919 174.5,69C 188.408,66.4536 199.908,59.6202 209,48.5C 212.709,43.4141 215.042,37.7475 216,31.5C 216.315,21.8213 216.315,12.1547 216,2.5C 217.045,1.62656 217.878,0.626561 218.5,-0.5C 220.167,-0.5 221.833,-0.5 223.5,-0.5C 237.27,10.3796 245.937,24.3796 249.5,41.5C 249.5,47.1667 249.5,52.8333 249.5,58.5C 244.687,81.4986 232.187,99.1653 212,111.5C 211.654,113.218 211.154,114.885 210.5,116.5C 212.078,119.563 212.744,122.896 212.5,126.5C 212.629,130.32 211.629,133.653 209.5,136.5C 232.049,176.68 222.716,206.846 181.5,227C 165.679,233.54 149.345,237.374 132.5,238.5C 126.833,238.5 121.167,238.5 115.5,238.5C 98.3364,236.828 81.6697,232.661 65.5,226C 49.4933,218.662 38.3266,206.829 32,190.5C 28.7672,171.419 31.9339,153.419 41.5,136.5C 40.2402,135.618 39.0736,134.618 38,133.5C 37.282,126.308 37.6154,119.308 39,112.5C 16.482,99.8412 3.31538,80.8412 -0.5,55.5C -0.5,50.8333 -0.5,46.1667 -0.5,41.5C 3.06333,24.3796 11.73,10.3796 25.5,-0.5 Z"/></g>
<g><path style="opacity:1" fill="#f59322" d="M 220.5,5.5 C 238.364,18.5814 245.864,36.248 243,58.5C 239.623,77.8723 229.79,93.039 213.5,104C 205.39,108.516 197.39,108.183 189.5,103C 179.875,95.9167 175.542,86.4167 176.5,74.5C 212.34,64.9948 227.006,41.9948 220.5,5.5 Z"/></g>
<g><path style="opacity:1" fill="#f59322" d="M 26.5,5.5 C 21.7411,35.801 33.4078,57.9677 61.5,72C 65.0704,73.3095 68.737,74.1428 72.5,74.5C 72.4422,93.7207 62.9422,104.721 44,107.5C 29.1636,101.333 18.1636,90.9993 11,76.5C -0.401755,49.1165 4.76491,25.4499 26.5,5.5 Z"/></g>
<g><path style="opacity:1" fill="#000000" d="M 30.5,-0.5 C 93.1667,-0.5 155.833,-0.5 218.5,-0.5C 217.878,0.626561 217.045,1.62656 216,2.5C 216.315,12.1547 216.315,21.8213 216,31.5C 215.042,37.7475 212.709,43.4141 209,48.5C 199.908,59.6202 188.408,66.4536 174.5,69C 165.002,59.919 153.668,54.5857 140.5,53C 141.179,46.3438 138.179,42.6771 131.5,42C 124.424,40.6442 117.757,41.6442 111.5,45C 110.556,47.7191 110.223,50.5525 110.5,53.5C 103.554,53.7364 96.8874,55.2364 90.5,58C 84.2919,61.5983 78.2919,65.4317 72.5,69.5C 39.322,59.1631 26.1553,36.8298 33,2.5C 31.955,1.62656 31.1217,0.626561 30.5,-0.5 Z"/></g>
<g><path style="opacity:1" fill="#919196" d="M 137.5,87.5 C 137.5,89.8333 137.5,92.1667 137.5,94.5C 129.167,94.5 120.833,94.5 112.5,94.5C 113.539,80.4998 114.705,66.4998 116,52.5C 116.199,50.5975 117.033,49.0975 118.5,48C 123.857,47.043 129.024,47.543 134,49.5C 135.498,62.1419 136.664,74.8086 137.5,87.5 Z"/></g>
<g><path style="opacity:1" fill="#59595b" d="M 105.5,58.5 C 106.833,58.5 108.167,58.5 109.5,58.5C 108.042,70.7925 107.042,83.1258 106.5,95.5C 93.5736,96.7214 80.9069,98.888 68.5,102C 75.8775,94.0231 79.0442,84.5231 78,73.5C 86.0215,66.2421 95.1882,61.2421 105.5,58.5 Z"/></g>
<g><path style="opacity:1" fill="#58585a" d="M 140.5,59.5 C 152.342,60.5044 162.509,65.171 171,73.5C 171.21,79.2306 171.876,84.8973 173,90.5C 175.073,94.6455 177.073,98.6455 179,102.5C 167.445,99.6557 155.779,97.3224 144,95.5C 143.316,83.4383 142.149,71.4383 140.5,59.5 Z"/></g>
<g><path style="opacity:1" fill="#000000" d="M -0.5,55.5 C 3.31538,80.8412 16.482,99.8412 39,112.5C 37.6154,119.308 37.282,126.308 38,133.5C 39.0736,134.618 40.2402,135.618 41.5,136.5C 31.9339,153.419 28.7672,171.419 32,190.5C 38.3266,206.829 49.4933,218.662 65.5,226C 81.6697,232.661 98.3364,236.828 115.5,238.5C 76.8333,238.5 38.1667,238.5 -0.5,238.5C -0.5,177.5 -0.5,116.5 -0.5,55.5 Z"/></g>
<g><path style="opacity:1" fill="#000000" d="M 249.5,58.5 C 249.5,118.5 249.5,178.5 249.5,238.5C 210.5,238.5 171.5,238.5 132.5,238.5C 149.345,237.374 165.679,233.54 181.5,227C 222.716,206.846 232.049,176.68 209.5,136.5C 211.629,133.653 212.629,130.32 212.5,126.5C 212.744,122.896 212.078,119.563 210.5,116.5C 211.154,114.885 211.654,113.218 212,111.5C 232.187,99.1653 244.687,81.4986 249.5,58.5 Z"/></g>
<g><path style="opacity:1" fill="#4a494a" d="M 137.5,87.5 C 138.473,89.9479 138.806,92.6146 138.5,95.5C 129.651,95.8264 120.984,95.493 112.5,94.5C 120.833,94.5 129.167,94.5 137.5,94.5C 137.5,92.1667 137.5,89.8333 137.5,87.5 Z"/></g>
<g><path style="opacity:1" fill="#909196" d="M 107.5,100.5 C 134.488,99.3796 160.821,102.88 186.5,111C 192.991,114.078 199.325,117.412 205.5,121C 206.617,124.073 206.784,127.24 206,130.5C 204.006,131.664 201.839,132.331 199.5,132.5C 163.557,121.569 126.89,118.403 89.5,123C 76.8045,124.591 64.4711,127.591 52.5,132C 44.5007,132.973 41.6674,129.473 44,121.5C 53.3564,115.739 63.1897,110.905 73.5,107C 84.9499,104.706 96.2832,102.539 107.5,100.5 Z"/></g>
<g><path style="opacity:1" fill="#f1a328" d="M 216.5,167.5 C 203.306,166.566 191.64,170.232 181.5,178.5C 178.83,171.135 174.83,164.468 169.5,158.5C 171.167,158.167 172.833,157.833 174.5,157.5C 178.398,157.811 182.065,158.644 185.5,160C 181.06,155.614 175.727,153.114 169.5,152.5C 169.229,136.183 163.229,133.517 151.5,144.5C 149.115,151.516 150.781,157.349 156.5,162C 159.54,162.32 162.54,162.32 165.5,162C 170.959,166.937 174.959,172.771 177.5,179.5C 174.893,180.802 172.227,180.636 169.5,179C 141.041,152.123 112.374,151.79 83.5,178C 80.7935,179.908 77.7935,180.741 74.5,180.5C 76.5672,172.724 80.9005,166.391 87.5,161.5C 95.2309,163.63 99.7309,160.63 101,152.5C 101.667,150.167 101.667,147.833 101,145.5C 97.31,142.309 93.4767,139.309 89.5,136.5C 83.3586,140.12 81.0253,145.453 82.5,152.5C 74.5097,152.882 69.0097,156.548 66,163.5C 70.2948,158.105 75.7948,156.271 82.5,158C 77.0336,164.117 73.0336,170.95 70.5,178.5C 59.9724,170.105 47.9724,166.772 34.5,168.5C 36.2341,158.298 39.5675,148.631 44.5,139.5C 51.5568,138.661 58.5568,136.828 65.5,134C 111.074,122.723 156.074,124.556 200.5,139.5C 202.274,139.113 203.941,138.447 205.5,137.5C 211.419,146.673 215.086,156.673 216.5,167.5 Z"/></g>
<g><path style="opacity:1" fill="#27231f" d="M 74.5,180.5 C 73.5655,181.568 73.2322,182.901 73.5,184.5C 72.8333,188.167 72.1667,191.833 71.5,195.5C 70.5931,189.894 70.2598,184.227 70.5,178.5C 73.0336,170.95 77.0336,164.117 82.5,158C 75.7948,156.271 70.2948,158.105 66,163.5C 69.0097,156.548 74.5097,152.882 82.5,152.5C 81.0253,145.453 83.3586,140.12 89.5,136.5C 93.4767,139.309 97.31,142.309 101,145.5C 101.667,147.833 101.667,150.167 101,152.5C 99.7309,160.63 95.2309,163.63 87.5,161.5C 80.9005,166.391 76.5672,172.724 74.5,180.5 Z"/></g>
<g><path style="opacity:1" fill="#272421" d="M 181.5,178.5 C 181.554,185.576 180.887,192.576 179.5,199.5C 178.662,199.158 178.328,198.492 178.5,197.5C 178.823,191.31 178.49,185.31 177.5,179.5C 174.959,172.771 170.959,166.937 165.5,162C 162.54,162.32 159.54,162.32 156.5,162C 150.781,157.349 149.115,151.516 151.5,144.5C 163.229,133.517 169.229,136.183 169.5,152.5C 175.727,153.114 181.06,155.614 185.5,160C 182.065,158.644 178.398,157.811 174.5,157.5C 172.833,157.833 171.167,158.167 169.5,158.5C 174.83,164.468 178.83,171.135 181.5,178.5 Z"/></g>
<g><path style="opacity:1" fill="#edecec" d="M 92.5,143.5 C 97.2129,143.468 98.7129,145.801 97,150.5C 93.2555,153.52 91.0889,152.52 90.5,147.5C 90.7517,145.927 91.4183,144.594 92.5,143.5 Z"/></g>
<g><path style="opacity:1" fill="#f4f4f4" d="M 155.5,143.5 C 160.213,143.468 161.713,145.801 160,150.5C 158.604,152.527 156.938,152.86 155,151.5C 154.278,148.739 154.445,146.073 155.5,143.5 Z"/></g>
<g><path style="opacity:1" fill="#fcfcfb" d="M 177.5,179.5 C 178.49,185.31 178.823,191.31 178.5,197.5C 177.513,200.713 176.513,204.046 175.5,207.5C 175.846,208.696 176.346,208.696 177,207.5C 177.84,204.798 178.673,202.132 179.5,199.5C 180.887,192.576 181.554,185.576 181.5,178.5C 191.64,170.232 203.306,166.566 216.5,167.5C 219.273,187.001 212.607,202.501 196.5,214C 170.234,230.496 141.568,237.162 110.5,234C 88.3834,232.186 68.3834,224.853 50.5,212C 37.3395,200.349 32.0062,185.849 34.5,168.5C 47.9724,166.772 59.9724,170.105 70.5,178.5C 70.2598,184.227 70.5931,189.894 71.5,195.5C 72.0169,198.582 72.8502,201.582 74,204.5C 73.6711,197.879 73.5044,191.212 73.5,184.5C 73.2322,182.901 73.5655,181.568 74.5,180.5C 77.7935,180.741 80.7935,179.908 83.5,178C 112.374,151.79 141.041,152.123 169.5,179C 172.227,180.636 174.893,180.802 177.5,179.5 Z"/></g>
<g><path style="opacity:1" fill="#1d1d1d" d="M 116.5,166.5 C 122.509,166.334 128.509,166.501 134.5,167C 138.663,168.816 139.497,171.649 137,175.5C 134.29,177.688 131.29,179.355 128,180.5C 127.712,188.978 131.879,192.145 140.5,190C 144.089,188.326 145.755,185.493 145.5,181.5C 146.5,181.5 147.5,181.5 148.5,181.5C 147.955,191.621 142.622,195.787 132.5,194C 130.167,192.5 127.833,191 125.5,189.5C 118.63,196.128 111.796,196.128 105,189.5C 103.748,186.986 103.248,184.32 103.5,181.5C 104.5,181.5 105.5,181.5 106.5,181.5C 107.147,189.616 111.48,192.449 119.5,190C 123.136,187.961 124.802,184.794 124.5,180.5C 117.074,180.237 113.241,176.571 113,169.5C 114.145,168.364 115.312,167.364 116.5,166.5 Z"/></g>
<g><path style="opacity:1" fill="#d3d3d3" d="M 119.5,168.5 C 123.226,168.177 126.893,168.511 130.5,169.5C 130.291,170.086 129.957,170.586 129.5,171C 126.5,171.667 123.5,171.667 120.5,171C 119.748,170.329 119.414,169.496 119.5,168.5 Z"/></g>
<g><path style="opacity:1" fill="#515151" d="M 73.5,184.5 C 73.5044,191.212 73.6711,197.879 74,204.5C 72.8502,201.582 72.0169,198.582 71.5,195.5C 72.1667,191.833 72.8333,188.167 73.5,184.5 Z"/></g>
<g><path style="opacity:1" fill="#9c9c9c" d="M 178.5,197.5 C 178.328,198.492 178.662,199.158 179.5,199.5C 178.673,202.132 177.84,204.798 177,207.5C 176.346,208.696 175.846,208.696 175.5,207.5C 176.513,204.046 177.513,200.713 178.5,197.5 Z"/></g>
</svg>
