<?xml version="1.0" encoding="UTF-8"?>
<!DOCTYPE svg PUBLIC "-//W3C//DTD SVG 1.1//EN" "http://www.w3.org/Graphics/SVG/1.1/DTD/svg11.dtd">
<svg xmlns="http://www.w3.org/2000/svg" version="1.1" width="98px" height="108px" style="shape-rendering:geometricPrecision; text-rendering:geometricPrecision; image-rendering:optimizeQuality; fill-rule:evenodd; clip-rule:evenodd" xmlns:xlink="http://www.w3.org/1999/xlink">
<g><path style="opacity:1" fill="#f5ede6" d="M 19.5,-0.5 C 45.5,-0.5 71.5,-0.5 97.5,-0.5C 97.5,0.166667 97.5,0.833333 97.5,1.5C 71.3286,1.24721 45.3286,0.580539 19.5,-0.5 Z"/></g>
<g><path style="opacity:1" fill="#ed8c34" d="M -0.5,0.5 C 32.1592,1.44429 64.8259,2.11096 97.5,2.5C 97.5,37.5 97.5,72.5 97.5,107.5C 64.8333,107.5 32.1667,107.5 -0.5,107.5C -0.5,71.8333 -0.5,36.1667 -0.5,0.5 Z"/></g>
<g><path style="opacity:1" fill="#bb7637" d="M -0.5,0.5 C -0.5,0.166667 -0.5,-0.166667 -0.5,-0.5C 6.16667,-0.5 12.8333,-0.5 19.5,-0.5C 45.3286,0.580539 71.3286,1.24721 97.5,1.5C 97.5,1.83333 97.5,2.16667 97.5,2.5C 64.8259,2.11096 32.1592,1.44429 -0.5,0.5 Z"/></g>
<g><path style="opacity:1" fill="#fbf2d6" d="M 45.5,47.5 C 46.5,47.5 47.5,47.5 48.5,47.5C 50.1667,47.5 51.8333,47.5 53.5,47.5C 53.5,40.8333 53.5,34.1667 53.5,27.5C 61.5886,25.4469 69.9219,24.1136 78.5,23.5C 79.5,23.5 80.5,23.5 81.5,23.5C 81.2177,31.8359 80.8844,40.1692 80.5,48.5C 80.5,53.5 80.5,58.5 80.5,63.5C 78.8028,70.93 78.1362,78.5967 78.5,86.5C 70.5,86.5 62.5,86.5 54.5,86.5C 54.8245,79.3134 54.4912,72.3134 53.5,65.5C 47.8333,65.5 42.1667,65.5 36.5,65.5C 35.5098,71.6446 35.1765,77.9779 35.5,84.5C 31.2984,84.1832 27.2984,84.5166 23.5,85.5C 20.1667,85.5 16.8333,85.5 13.5,85.5C 13.5,75.8333 13.5,66.1667 13.5,56.5C 13.1724,45.9865 13.5058,35.6532 14.5,25.5C 21.5385,25.2087 28.5385,24.542 35.5,23.5C 35.5,31.8333 35.5,40.1667 35.5,48.5C 39.0419,48.8128 42.3752,48.4794 45.5,47.5 Z"/></g>
<g><path style="opacity:1" fill="#eeb873" d="M 53.5,27.5 C 53.5,34.1667 53.5,40.8333 53.5,47.5C 51.8333,47.5 50.1667,47.5 48.5,47.5C 49.5676,46.5655 50.901,46.2322 52.5,46.5C 52.1765,39.9779 52.5098,33.6446 53.5,27.5 Z"/></g>
<g><path style="opacity:1" fill="#f1c183" d="M 78.5,23.5 C 79.5676,22.5655 80.901,22.2322 82.5,22.5C 82.8609,31.3948 82.1942,40.0615 80.5,48.5C 80.8844,40.1692 81.2177,31.8359 81.5,23.5C 80.5,23.5 79.5,23.5 78.5,23.5 Z"/></g>
<g><path style="opacity:1" fill="#f3ce96" d="M 45.5,47.5 C 42.3752,48.4794 39.0419,48.8128 35.5,48.5C 35.5,40.1667 35.5,31.8333 35.5,23.5C 28.5385,24.542 21.5385,25.2087 14.5,25.5C 21.6246,23.9592 28.9579,22.9592 36.5,22.5C 36.5,30.8333 36.5,39.1667 36.5,47.5C 39.5,47.5 42.5,47.5 45.5,47.5 Z"/></g>
<g><path style="opacity:1" fill="#f6ddaf" d="M 36.5,65.5 C 36.5,72.1667 36.5,78.8333 36.5,85.5C 33.5,85.5 30.5,85.5 27.5,85.5C 26.1667,85.5 24.8333,85.5 23.5,85.5C 27.2984,84.5166 31.2984,84.1832 35.5,84.5C 35.1765,77.9779 35.5098,71.6446 36.5,65.5 Z"/></g>
<g><path style="opacity:1" fill="#f4cc93" d="M 80.5,63.5 C 80.4285,71.3645 79.7619,79.0312 78.5,86.5C 78.1362,78.5967 78.8028,70.93 80.5,63.5 Z"/></g>
<g><path style="opacity:1" fill="#f1c485" d="M 13.5,56.5 C 13.5,66.1667 13.5,75.8333 13.5,85.5C 16.8333,85.5 20.1667,85.5 23.5,85.5C 24.8333,85.5 26.1667,85.5 27.5,85.5C 22.6946,86.4872 17.6946,86.8205 12.5,86.5C 12.1726,76.3194 12.506,66.3194 13.5,56.5 Z"/></g>
<g><path style="opacity:1" fill="#f0b874" d="M 53.5,65.5 C 54.4912,72.3134 54.8245,79.3134 54.5,86.5C 62.5,86.5 70.5,86.5 78.5,86.5C 70.3501,87.4927 62.0168,87.8261 53.5,87.5C 53.5,80.1667 53.5,72.8333 53.5,65.5 Z"/></g>
</svg>
