<?xml version="1.0" encoding="UTF-8"?>
<!DOCTYPE svg PUBLIC "-//W3C//DTD SVG 1.1//EN" "http://www.w3.org/Graphics/SVG/1.1/DTD/svg11.dtd">
<svg xmlns="http://www.w3.org/2000/svg" version="1.1" width="100px" height="100px" style="shape-rendering:geometricPrecision; text-rendering:geometricPrecision; image-rendering:optimizeQuality; fill-rule:evenodd; clip-rule:evenodd" xmlns:xlink="http://www.w3.org/1999/xlink">
<g><path style="opacity:1" fill="#040303" d="M -0.5,-0.5 C 32.8333,-0.5 66.1667,-0.5 99.5,-0.5C 99.5,32.8333 99.5,66.1667 99.5,99.5C 66.1667,99.5 32.8333,99.5 -0.5,99.5C -0.5,66.1667 -0.5,32.8333 -0.5,-0.5 Z"/></g>
<g><path style="opacity:1" fill="#a81b51" d="M 75.5,41.5 C 76.1239,41.0831 76.4573,40.4164 76.5,39.5C 74.8552,35.6804 74.1885,31.6804 74.5,27.5C 74.5,27.1667 74.5,26.8333 74.5,26.5C 75.4916,26.6716 76.1583,26.3382 76.5,25.5C 77.1653,23.3021 77.8319,20.9688 78.5,18.5C 81.7442,17.1548 82.7442,14.9882 81.5,12C 78.9615,11.2042 76.6282,11.3709 74.5,12.5C 74.1667,12.5 73.8333,12.5 73.5,12.5C 73.1667,12.5 72.8333,12.5 72.5,12.5C 73.6923,10.0777 75.6923,9.07774 78.5,9.5C 81.8718,8.88265 83.8718,10.216 84.5,13.5C 83.611,15.8983 82.111,17.8983 80,19.5C 79.8823,22.3713 79.2156,25.038 78,27.5C 77.5942,31.9609 77.9275,36.2942 79,40.5C 78.059,42.0614 76.8924,43.3947 75.5,44.5C 74.4376,43.5754 74.4376,42.5754 75.5,41.5 Z"/></g>
<g><path style="opacity:1" fill="#9e1349" d="M 67.5,13.5 C 66.8333,12.8333 66.1667,12.1667 65.5,11.5C 62.8001,12.1998 61.1334,13.8664 60.5,16.5C 59.158,15.207 57.4913,14.3736 55.5,14C 51.8484,13.5014 48.1817,13.3347 44.5,13.5C 49.1902,12.2217 54.0236,12.2217 59,13.5C 60.7837,11.6327 62.7837,9.96606 65,8.5C 67.1566,9.38498 67.9899,11.0516 67.5,13.5 Z"/></g>
<g><path style="opacity:1" fill="#ae1552" d="M 29.5,10.5 C 26.8333,11.1667 24.1667,11.8333 21.5,12.5C 20.4265,13.2506 20.2599,14.2506 21,15.5C 23.9403,17.5732 25.7736,20.2399 26.5,23.5C 26.2627,24.791 26.596,25.791 27.5,26.5C 27.9201,30.7535 27.2535,34.7535 25.5,38.5C 25.5427,39.4164 25.8761,40.0831 26.5,40.5C 26.5,41.1667 26.8333,41.5 27.5,41.5C 28.5624,42.5754 28.5624,43.5754 27.5,44.5C 24.6135,42.4864 23.4469,39.8197 24,36.5C 26.4146,33.9684 27.0813,30.9684 26,27.5C 24.1335,25.1918 23.1335,22.5251 23,19.5C 20.889,17.8983 19.389,15.8983 18.5,13.5C 18.5288,11.9707 19.1955,10.804 20.5,10C 23.6965,9.19549 26.6965,9.36216 29.5,10.5 Z"/></g>
<g><path style="opacity:1" fill="#493a58" d="M 21.5,12.5 C 21.8333,12.5 22.1667,12.5 22.5,12.5C 24.0908,15.4309 26.0908,18.0976 28.5,20.5C 26.9519,20.8212 26.2852,21.8212 26.5,23.5C 25.7736,20.2399 23.9403,17.5732 21,15.5C 20.2599,14.2506 20.4265,13.2506 21.5,12.5 Z"/></g>
<g><path style="opacity:1" fill="#871d42" d="M 44.5,13.5 C 43.8333,14.5 43.1667,15.5 42.5,16.5C 41.4155,14.6814 40.0822,13.0147 38.5,11.5C 38.1667,12 37.8333,12.5 37.5,13C 38.9056,14.978 39.9056,17.1447 40.5,19.5C 40.631,20.2389 40.4643,20.9056 40,21.5C 39.1841,20.1772 38.0174,19.5106 36.5,19.5C 33.5382,14.0188 28.8715,11.6854 22.5,12.5C 22.1667,12.5 21.8333,12.5 21.5,12.5C 24.1667,11.8333 26.8333,11.1667 29.5,10.5C 31.4628,11.9599 33.2962,13.6266 35,15.5C 33.7276,12.4865 34.5609,10.1532 37.5,8.5C 39.6557,10.5734 41.9891,12.2401 44.5,13.5 Z"/></g>
<g><path style="opacity:1" fill="#70243c" d="M 65.5,11.5 C 66.1667,12.1667 66.8333,12.8333 67.5,13.5C 66.6971,14.4232 66.5304,15.4232 67,16.5C 68.4321,14.5612 70.2654,13.2279 72.5,12.5C 72.8333,12.5 73.1667,12.5 73.5,12.5C 71.1667,16.1667 68.1667,19.1667 64.5,21.5C 63.4412,23.5554 61.7746,24.8888 59.5,25.5C 59.3893,24.8826 59.056,24.3826 58.5,24C 61.2467,20.0008 63.58,15.8341 65.5,11.5 Z"/></g>
<g><path style="opacity:1" fill="#dee4e6" d="M 73.5,12.5 C 73.8333,12.5 74.1667,12.5 74.5,12.5C 76.604,12.2011 78.604,12.5344 80.5,13.5C 80.3764,14.1067 80.0431,14.44 79.5,14.5C 78.2921,13.7659 76.9587,13.4326 75.5,13.5C 74.4097,17.4415 72.743,21.1081 70.5,24.5C 70.1667,24.5 69.8333,24.5 69.5,24.5C 68.8333,24.5 68.1667,24.5 67.5,24.5C 66.6935,23.2719 65.6935,22.2719 64.5,21.5C 68.1667,19.1667 71.1667,16.1667 73.5,12.5 Z"/></g>
<g><path style="opacity:1" fill="#96c9d0" d="M 79.5,14.5 C 77.7484,16.2459 76.4151,18.2459 75.5,20.5C 73.8333,21.8333 72.1667,23.1667 70.5,24.5C 72.743,21.1081 74.4097,17.4415 75.5,13.5C 76.9587,13.4326 78.2921,13.7659 79.5,14.5 Z"/></g>
<g><path style="opacity:1" fill="#524b5d" d="M 74.5,12.5 C 76.6282,11.3709 78.9615,11.2042 81.5,12C 82.7442,14.9882 81.7442,17.1548 78.5,18.5C 77.8319,20.9688 77.1653,23.3021 76.5,25.5C 76.7845,23.5853 76.4511,21.9187 75.5,20.5C 76.4151,18.2459 77.7484,16.2459 79.5,14.5C 80.0431,14.44 80.3764,14.1067 80.5,13.5C 78.604,12.5344 76.604,12.2011 74.5,12.5 Z"/></g>
<g><path style="opacity:1" fill="#2c5574" d="M 28.5,20.5 C 31.4274,21.7573 33.7607,23.7573 35.5,26.5C 32.5726,25.2427 30.2393,23.2427 28.5,20.5 Z"/></g>
<g><path style="opacity:1" fill="#ca934e" d="M 28.5,20.5 C 30.2393,23.2427 32.5726,25.2427 35.5,26.5C 35.7947,28.7354 35.4614,30.7354 34.5,32.5C 33.0552,30.9373 31.3885,29.604 29.5,28.5C 29.1667,27.5 28.5,26.8333 27.5,26.5C 26.596,25.791 26.2627,24.791 26.5,23.5C 26.2852,21.8212 26.9519,20.8212 28.5,20.5 Z"/></g>
<g><path style="opacity:1" fill="#c0a270" d="M 75.5,20.5 C 76.4511,21.9187 76.7845,23.5853 76.5,25.5C 76.1583,26.3382 75.4916,26.6716 74.5,26.5C 74.631,25.7611 74.4643,25.0944 74,24.5C 72.6667,25.8333 71.3333,27.1667 70,28.5C 69.5357,27.9056 69.369,27.2389 69.5,26.5C 69.5,25.8333 69.5,25.1667 69.5,24.5C 69.8333,24.5 70.1667,24.5 70.5,24.5C 72.1667,23.1667 73.8333,21.8333 75.5,20.5 Z"/></g>
<g><path style="opacity:1" fill="#d0385d" d="M 67.5,24.5 C 68.1667,24.5 68.8333,24.5 69.5,24.5C 69.5,25.1667 69.5,25.8333 69.5,26.5C 68.8333,26.5 68.1667,26.5 67.5,26.5C 66.4937,25.6043 66.4937,24.9377 67.5,24.5 Z"/></g>
<g><path style="opacity:1" fill="#be9347" d="M 54.5,25.5 C 54.3284,26.4916 54.6618,27.1583 55.5,27.5C 55.8333,27.5 56.1667,27.5 56.5,27.5C 56.573,29.0269 55.9063,30.0269 54.5,30.5C 52.8235,29.8166 52.1568,28.4832 52.5,26.5C 51.5,26.5 50.5,26.5 49.5,26.5C 49.5,27.8333 49.5,29.1667 49.5,30.5C 46.3443,30.4709 44.6777,28.8043 44.5,25.5C 44.8457,24.3044 45.3457,24.3044 46,25.5C 46.8068,29.449 47.3068,29.449 47.5,25.5C 49.8333,25.5 52.1667,25.5 54.5,25.5 Z"/></g>
<g><path style="opacity:1" fill="#d09540" d="M 74.5,26.5 C 74.5,26.8333 74.5,27.1667 74.5,27.5C 72.39,28.4525 71.2233,30.1192 71,32.5C 70,31.1667 69,31.1667 68,32.5C 67.5045,30.5273 67.3379,28.5273 67.5,26.5C 68.1667,26.5 68.8333,26.5 69.5,26.5C 69.369,27.2389 69.5357,27.9056 70,28.5C 71.3333,27.1667 72.6667,25.8333 74,24.5C 74.4643,25.0944 74.631,25.7611 74.5,26.5 Z"/></g>
<g><path style="opacity:1" fill="#b5c2c3" d="M 42.5,16.5 C 42.5,16.8333 42.5,17.1667 42.5,17.5C 42.6317,20.7967 44.2984,22.4633 47.5,22.5C 47.5,21.5 47.5,20.5 47.5,19.5C 49.8333,19.5 52.1667,19.5 54.5,19.5C 54.4609,21.3588 55.2942,22.6921 57,23.5C 58.705,21.4234 59.8717,19.09 60.5,16.5C 61.1334,13.8664 62.8001,12.1998 65.5,11.5C 63.58,15.8341 61.2467,20.0008 58.5,24C 59.056,24.3826 59.3893,24.8826 59.5,25.5C 58.8333,26.1667 58.1667,26.8333 57.5,27.5C 57.1667,27.5 56.8333,27.5 56.5,27.5C 56.1667,27.5 55.8333,27.5 55.5,27.5C 55.4142,26.5041 55.7476,25.6708 56.5,25C 55.5632,24.3083 54.8966,24.475 54.5,25.5C 52.1667,25.5 49.8333,25.5 47.5,25.5C 47.3068,29.449 46.8068,29.449 46,25.5C 45.3457,24.3044 44.8457,24.3044 44.5,25.5C 44.6777,28.8043 46.3443,30.4709 49.5,30.5C 49.5,31.1667 49.5,31.8333 49.5,32.5C 49.5654,32.9382 49.3988,33.2716 49,33.5C 46.6566,32.8732 44.4899,31.8732 42.5,30.5C 42.1667,30.8333 41.8333,31.1667 41.5,31.5C 44.2777,34.2906 47.611,35.624 51.5,35.5C 51.7394,37.4672 51.4061,39.3005 50.5,41C 51.8228,41.8159 52.4894,42.9826 52.5,44.5C 52.2648,45.0967 51.7648,45.4301 51,45.5C 49.6974,45.0217 48.5307,44.355 47.5,43.5C 47.5,42.8333 47.1667,42.5 46.5,42.5C 45.9416,40.1766 45.2749,37.8432 44.5,35.5C 43.8627,36.218 43.8627,37.218 44.5,38.5C 44.1386,40.418 43.472,40.7514 42.5,39.5C 42.8799,37.302 42.2132,35.6354 40.5,34.5C 37.9683,32.3165 36.3017,29.6498 35.5,26.5C 33.7607,23.7573 31.4274,21.7573 28.5,20.5C 26.0908,18.0976 24.0908,15.4309 22.5,12.5C 28.8715,11.6854 33.5382,14.0188 36.5,19.5C 38.1271,21.6298 39.9604,23.6298 42,25.5C 42.5,25 43,24.5 43.5,24C 42.6006,22.3484 41.6006,20.8484 40.5,19.5C 39.9056,17.1447 38.9056,14.978 37.5,13C 37.8333,12.5 38.1667,12 38.5,11.5C 40.0822,13.0147 41.4155,14.6814 42.5,16.5 Z"/></g>
<g><path style="opacity:1" fill="#273645" d="M 55.5,27.5 C 54.6618,27.1583 54.3284,26.4916 54.5,25.5C 54.8966,24.475 55.5632,24.3083 56.5,25C 55.7476,25.6708 55.4142,26.5041 55.5,27.5 Z"/></g>
<g><path style="opacity:1" fill="#32171c" d="M 36.5,19.5 C 38.0174,19.5106 39.1841,20.1772 40,21.5C 40.4643,20.9056 40.631,20.2389 40.5,19.5C 41.6006,20.8484 42.6006,22.3484 43.5,24C 43,24.5 42.5,25 42,25.5C 39.9604,23.6298 38.1271,21.6298 36.5,19.5 Z"/></g>
<g><path style="opacity:1" fill="#4e3e46" d="M 60.5,16.5 C 59.8717,19.09 58.705,21.4234 57,23.5C 55.2942,22.6921 54.4609,21.3588 54.5,19.5C 55.1515,20.0906 55.8182,20.7573 56.5,21.5C 57.6125,19.5808 58.9458,17.9142 60.5,16.5 Z"/></g>
<g><path style="opacity:1" fill="#3d151f" d="M 42.5,17.5 C 46.6047,18.1086 50.6047,18.7752 54.5,19.5C 52.1667,19.5 49.8333,19.5 47.5,19.5C 47.5,20.5 47.5,21.5 47.5,22.5C 44.2984,22.4633 42.6317,20.7967 42.5,17.5 Z"/></g>
<g><path style="opacity:1" fill="#dd7794" d="M 30.5,17.5 C 32.2501,18.7417 33.9168,20.2417 35.5,22C 32.8142,21.8228 31.1476,20.3228 30.5,17.5 Z"/></g>
<g><path style="opacity:1" fill="#c04a75" d="M 44.5,13.5 C 48.1817,13.3347 51.8484,13.5014 55.5,14C 57.4913,14.3736 59.158,15.207 60.5,16.5C 58.9458,17.9142 57.6125,19.5808 56.5,21.5C 55.8182,20.7573 55.1515,20.0906 54.5,19.5C 50.6047,18.7752 46.6047,18.1086 42.5,17.5C 42.5,17.1667 42.5,16.8333 42.5,16.5C 43.1667,15.5 43.8333,14.5 44.5,13.5 Z"/></g>
<g><path style="opacity:1" fill="#7ea2ae" d="M 64.5,21.5 C 65.6935,22.2719 66.6935,23.2719 67.5,24.5C 66.4937,24.9377 66.4937,25.6043 67.5,26.5C 67.3379,28.5273 67.5045,30.5273 68,32.5C 69,31.1667 70,31.1667 71,32.5C 71.2233,30.1192 72.39,28.4525 74.5,27.5C 74.1885,31.6804 74.8552,35.6804 76.5,39.5C 76.4573,40.4164 76.1239,41.0831 75.5,41.5C 74.7784,41.0825 74.2784,40.4158 74,39.5C 73.6174,40.056 73.1174,40.3893 72.5,40.5C 71.8333,40.5 71.5,40.1667 71.5,39.5C 72.1408,38.5178 72.8075,37.5178 73.5,36.5C 73,36.1667 72.5,35.8333 72,35.5C 70.6998,36.7073 69.1998,37.3739 67.5,37.5C 67.6567,36.1266 67.49,34.7932 67,33.5C 66.2904,34.9733 65.1238,35.6399 63.5,35.5C 63.3796,33.8014 63.0463,32.1347 62.5,30.5C 63.3877,28.845 63.8877,27.1783 64,25.5C 61.9419,26.2291 60.1086,27.2291 58.5,28.5C 57.8333,28.5 57.5,28.1667 57.5,27.5C 58.1667,26.8333 58.8333,26.1667 59.5,25.5C 61.7746,24.8888 63.4412,23.5554 64.5,21.5 Z"/></g>
<g><path style="opacity:1" fill="#a72e49" d="M 54.5,30.5 C 53.0655,32.3784 51.3989,33.045 49.5,32.5C 49.5,31.8333 49.5,31.1667 49.5,30.5C 49.5,29.1667 49.5,27.8333 49.5,26.5C 50.5,26.5 51.5,26.5 52.5,26.5C 52.1568,28.4832 52.8235,29.8166 54.5,30.5 Z"/></g>
<g><path style="opacity:1" fill="#571123" d="M 27.5,26.5 C 28.5,26.8333 29.1667,27.5 29.5,28.5C 28.1888,30.5598 28.1888,32.7265 29.5,35C 27.393,36.2635 26.393,38.0968 26.5,40.5C 25.8761,40.0831 25.5427,39.4164 25.5,38.5C 27.2535,34.7535 27.9201,30.7535 27.5,26.5 Z"/></g>
<g><path style="opacity:1" fill="#748d9a" d="M 29.5,28.5 C 31.3885,29.604 33.0552,30.9373 34.5,32.5C 35.2341,33.7079 35.5674,35.0413 35.5,36.5C 34.4613,38.5311 32.7946,39.8645 30.5,40.5C 29.391,40.5569 28.391,40.8902 27.5,41.5C 26.8333,41.5 26.5,41.1667 26.5,40.5C 26.393,38.0968 27.393,36.2635 29.5,35C 28.1888,32.7265 28.1888,30.5598 29.5,28.5 Z"/></g>
<g><path style="opacity:1" fill="#596a7a" d="M 56.5,27.5 C 56.8333,27.5 57.1667,27.5 57.5,27.5C 57.5,28.1667 57.8333,28.5 58.5,28.5C 59.9009,29.7879 60.9009,31.7879 61.5,34.5C 61.3333,35.8333 61.1667,37.1667 61,38.5C 60.6174,39.056 60.1174,39.3893 59.5,39.5C 59.3924,36.6181 58.2257,34.2847 56,32.5C 54.2495,33.2225 52.7495,34.2225 51.5,35.5C 47.611,35.624 44.2777,34.2906 41.5,31.5C 41.8333,31.1667 42.1667,30.8333 42.5,30.5C 44.4899,31.8732 46.6566,32.8732 49,33.5C 49.3988,33.2716 49.5654,32.9382 49.5,32.5C 51.3989,33.045 53.0655,32.3784 54.5,30.5C 55.9063,30.0269 56.573,29.0269 56.5,27.5 Z"/></g>
<g><path style="opacity:1" fill="#293146" d="M 35.5,26.5 C 36.3017,29.6498 37.9683,32.3165 40.5,34.5C 40.4431,35.609 40.1098,36.609 39.5,37.5C 38.1667,37.1667 36.8333,36.8333 35.5,36.5C 35.5674,35.0413 35.2341,33.7079 34.5,32.5C 35.4614,30.7354 35.7947,28.7354 35.5,26.5 Z"/></g>
<g><path style="opacity:1" fill="#3a768f" d="M 71.5,39.5 C 70.6618,39.8417 70.3284,40.5084 70.5,41.5C 69.5416,41.9528 68.7083,42.6195 68,43.5C 67.5,42.3333 66.6667,41.5 65.5,41C 66.3279,40.0853 67.3279,39.4186 68.5,39C 66.4652,38.4014 64.7985,38.9014 63.5,40.5C 62.2241,39.6136 62.2241,38.6136 63.5,37.5C 64.865,36.1931 66.1984,36.1931 67.5,37.5C 69.1998,37.3739 70.6998,36.7073 72,35.5C 72.5,35.8333 73,36.1667 73.5,36.5C 72.8075,37.5178 72.1408,38.5178 71.5,39.5 Z"/></g>
<g><path style="opacity:1" fill="#9f9da2" d="M 59.5,39.5 C 59.44,40.0431 59.1067,40.3764 58.5,40.5C 57.7189,39.2713 57.2189,37.938 57,36.5C 55.4987,39.286 53.9987,41.9527 52.5,44.5C 52.4894,42.9826 51.8228,41.8159 50.5,41C 51.4061,39.3005 51.7394,37.4672 51.5,35.5C 52.7495,34.2225 54.2495,33.2225 56,32.5C 58.2257,34.2847 59.3924,36.6181 59.5,39.5 Z"/></g>
<g><path style="opacity:1" fill="#b84b63" d="M 71.5,39.5 C 71.5,40.1667 71.8333,40.5 72.5,40.5C 72.5,41.1667 72.5,41.8333 72.5,42.5C 71.8333,42.1667 71.1667,41.8333 70.5,41.5C 70.3284,40.5084 70.6618,39.8417 71.5,39.5 Z"/></g>
<g><path style="opacity:1" fill="#2b3247" d="M 67.5,37.5 C 66.1984,36.1931 64.865,36.1931 63.5,37.5C 62.2241,38.6136 62.2241,39.6136 63.5,40.5C 64.0482,42.6264 64.7148,44.6264 65.5,46.5C 65.1667,47.5 64.5,48.1667 63.5,48.5C 63.6602,46.8008 63.4935,45.1341 63,43.5C 59.0064,42.5418 55.5064,43.5418 52.5,46.5C 49.5466,46.1496 47.2133,47.1496 45.5,49.5C 43.3964,48.0883 41.0631,47.0883 38.5,46.5C 38.5,47.5 38.5,48.5 38.5,49.5C 37.5,49.1667 36.8333,48.5 36.5,47.5C 36.9867,46.5266 37.4867,45.5266 38,44.5C 39.4139,45.4132 40.9139,45.4132 42.5,44.5C 44.0273,48.4418 45.694,48.4418 47.5,44.5C 47.5,44.1667 47.5,43.8333 47.5,43.5C 48.5307,44.355 49.6974,45.0217 51,45.5C 51.7648,45.4301 52.2648,45.0967 52.5,44.5C 53.9987,41.9527 55.4987,39.286 57,36.5C 57.2189,37.938 57.7189,39.2713 58.5,40.5C 59.1067,40.3764 59.44,40.0431 59.5,39.5C 60.1174,39.3893 60.6174,39.056 61,38.5C 61.1667,37.1667 61.3333,35.8333 61.5,34.5C 60.9009,31.7879 59.9009,29.7879 58.5,28.5C 60.1086,27.2291 61.9419,26.2291 64,25.5C 63.8877,27.1783 63.3877,28.845 62.5,30.5C 63.0463,32.1347 63.3796,33.8014 63.5,35.5C 65.1238,35.6399 66.2904,34.9733 67,33.5C 67.49,34.7932 67.6567,36.1266 67.5,37.5 Z"/></g>
<g><path style="opacity:1" fill="#cfe2e4" d="M 35.5,36.5 C 36.8333,36.8333 38.1667,37.1667 39.5,37.5C 40.2389,37.369 40.9056,37.5357 41.5,38C 38.9213,40.5787 36.7546,42.7454 35,44.5C 33.871,42.8588 32.371,41.8588 30.5,41.5C 30.5,41.1667 30.5,40.8333 30.5,40.5C 32.7946,39.8645 34.4613,38.5311 35.5,36.5 Z"/></g>
<g><path style="opacity:1" fill="#263b4e" d="M 46.5,42.5 C 45.8333,42.5 45.5,42.8333 45.5,43.5C 44.5,43.5 43.5,43.5 42.5,43.5C 41.3143,42.0387 41.3143,40.7054 42.5,39.5C 43.472,40.7514 44.1386,40.418 44.5,38.5C 43.8627,37.218 43.8627,36.218 44.5,35.5C 45.2749,37.8432 45.9416,40.1766 46.5,42.5 Z"/></g>
<g><path style="opacity:1" fill="#962128" d="M 46.5,42.5 C 47.1667,42.5 47.5,42.8333 47.5,43.5C 47.5,43.8333 47.5,44.1667 47.5,44.5C 46.5084,44.6716 45.8417,44.3382 45.5,43.5C 45.5,42.8333 45.8333,42.5 46.5,42.5 Z"/></g>
<g><path style="opacity:1" fill="#54899f" d="M 40.5,34.5 C 42.2132,35.6354 42.8799,37.302 42.5,39.5C 41.3143,40.7054 41.3143,42.0387 42.5,43.5C 42.5,43.8333 42.5,44.1667 42.5,44.5C 40.9139,45.4132 39.4139,45.4132 38,44.5C 37.4867,45.5266 36.9867,46.5266 36.5,47.5C 35.8333,47.1667 35.1667,46.8333 34.5,46.5C 32.9581,45.8365 31.2914,45.1698 29.5,44.5C 30.1272,43.5832 30.4606,42.5832 30.5,41.5C 32.371,41.8588 33.871,42.8588 35,44.5C 36.7546,42.7454 38.9213,40.5787 41.5,38C 40.9056,37.5357 40.2389,37.369 39.5,37.5C 40.1098,36.609 40.4431,35.609 40.5,34.5 Z"/></g>
<g><path style="opacity:1" fill="#bdc9cc" d="M 42.5,43.5 C 43.5,43.5 44.5,43.5 45.5,43.5C 45.8417,44.3382 46.5084,44.6716 47.5,44.5C 45.694,48.4418 44.0273,48.4418 42.5,44.5C 42.5,44.1667 42.5,43.8333 42.5,43.5 Z"/></g>
<g><path style="opacity:1" fill="#75a3b3" d="M 70.5,41.5 C 71.1667,41.8333 71.8333,42.1667 72.5,42.5C 72.5,43.5 72.5,44.5 72.5,45.5C 70.0971,45.448 67.7638,45.7814 65.5,46.5C 64.7148,44.6264 64.0482,42.6264 63.5,40.5C 64.7985,38.9014 66.4652,38.4014 68.5,39C 67.3279,39.4186 66.3279,40.0853 65.5,41C 66.6667,41.5 67.5,42.3333 68,43.5C 68.7083,42.6195 69.5416,41.9528 70.5,41.5 Z"/></g>
<g><path style="opacity:1" fill="#84a3ae" d="M 63.5,48.5 C 62.2073,50.2959 60.7073,51.9625 59,53.5C 56.6278,51.2968 54.4611,48.9635 52.5,46.5C 55.5064,43.5418 59.0064,42.5418 63,43.5C 63.4935,45.1341 63.6602,46.8008 63.5,48.5 Z"/></g>
<g><path style="opacity:1" fill="#c88f53" d="M 66.5,48.5 C 70.3714,48.185 74.0381,48.5184 77.5,49.5C 75.6397,50.9387 73.973,52.6053 72.5,54.5C 71.135,56.8598 69.135,58.5265 66.5,59.5C 66.6716,58.5084 66.3382,57.8417 65.5,57.5C 63.5061,56.8504 61.5061,56.5171 59.5,56.5C 61.8333,53.8333 64.1667,51.1667 66.5,48.5 Z"/></g>
<g><path style="opacity:1" fill="#731e39" d="M 72.5,45.5 C 74.5273,45.3379 76.5273,45.5045 78.5,46C 79.3802,47.3561 79.7135,48.8561 79.5,50.5C 78.1667,51.1667 77.1667,52.1667 76.5,53.5C 75.8333,53.8333 75.1667,54.1667 74.5,54.5C 73.8333,54.5 73.1667,54.5 72.5,54.5C 73.973,52.6053 75.6397,50.9387 77.5,49.5C 78.0431,49.44 78.3764,49.1067 78.5,48.5C 74.3507,47.1905 70.3507,47.1905 66.5,48.5C 64.1667,51.1667 61.8333,53.8333 59.5,56.5C 59.1667,56.5 58.8333,56.5 58.5,56.5C 56.1877,53.5211 53.5211,50.8544 50.5,48.5C 47.4789,50.8544 44.8123,53.5211 42.5,56.5C 41.8333,56.5 41.1667,56.5 40.5,56.5C 37.2556,48.7168 31.589,46.3835 23.5,49.5C 26.1864,51.8558 28.853,54.1891 31.5,56.5C 30.1667,56.5 28.8333,56.5 27.5,56.5C 25.8729,54.3702 24.0396,52.3702 22,50.5C 21.3333,49.5 21.3333,48.5 22,47.5C 26.0659,46.5363 30.2325,46.203 34.5,46.5C 35.1667,46.8333 35.8333,47.1667 36.5,47.5C 36.8333,48.5 37.5,49.1667 38.5,49.5C 39.4577,50.9616 40.6244,52.2949 42,53.5C 42.7172,52.9558 43.2172,52.2891 43.5,51.5C 44.5,51.1667 45.1667,50.5 45.5,49.5C 47.2133,47.1496 49.5466,46.1496 52.5,46.5C 54.4611,48.9635 56.6278,51.2968 59,53.5C 60.7073,51.9625 62.2073,50.2959 63.5,48.5C 64.5,48.1667 65.1667,47.5 65.5,46.5C 67.7638,45.7814 70.0971,45.448 72.5,45.5 Z"/></g>
<g><path style="opacity:1" fill="#ced1d3" d="M 45.5,49.5 C 45.1667,50.5 44.5,51.1667 43.5,51.5C 41.9505,50.5592 40.2838,49.8925 38.5,49.5C 38.5,48.5 38.5,47.5 38.5,46.5C 41.0631,47.0883 43.3964,48.0883 45.5,49.5 Z"/></g>
<g><path style="opacity:1" fill="#0e090d" d="M 66.5,48.5 C 70.3507,47.1905 74.3507,47.1905 78.5,48.5C 78.3764,49.1067 78.0431,49.44 77.5,49.5C 74.0381,48.5184 70.3714,48.185 66.5,48.5 Z"/></g>
<g><path style="opacity:1" fill="#36889f" d="M 38.5,49.5 C 40.2838,49.8925 41.9505,50.5592 43.5,51.5C 43.2172,52.2891 42.7172,52.9558 42,53.5C 40.6244,52.2949 39.4577,50.9616 38.5,49.5 Z"/></g>
<g><path style="opacity:1" fill="#c2a589" d="M 58.5,56.5 C 57.7611,56.369 57.0944,56.5357 56.5,57C 57.7375,57.2321 58.7375,57.7321 59.5,58.5C 58.5,58.5 57.5,58.5 56.5,58.5C 56.7373,59.791 56.404,60.791 55.5,61.5C 55.6495,60.448 55.4828,59.448 55,58.5C 54.7679,59.7375 54.2679,60.7375 53.5,61.5C 53.5,60.5 53.5,59.5 53.5,58.5C 50.5,58.5 47.5,58.5 44.5,58.5C 47.6248,57.5206 50.9581,57.1872 54.5,57.5C 52.9089,50.2646 49.9089,49.9313 45.5,56.5C 44.5,56.5 43.5,56.5 42.5,56.5C 44.8123,53.5211 47.4789,50.8544 50.5,48.5C 53.5211,50.8544 56.1877,53.5211 58.5,56.5 Z"/></g>
<g><path style="opacity:1" fill="#cc9354" d="M 40.5,56.5 C 37.5,56.5 34.5,56.5 31.5,56.5C 28.853,54.1891 26.1864,51.8558 23.5,49.5C 31.589,46.3835 37.2556,48.7168 40.5,56.5 Z"/></g>
<g><path style="opacity:1" fill="#e6a559" d="M 54.5,57.5 C 51.7131,56.5233 48.7131,56.19 45.5,56.5C 49.9089,49.9313 52.9089,50.2646 54.5,57.5 Z"/></g>
<g><path style="opacity:1" fill="#011912" d="M 76.5,53.5 C 76.5,54.5 76.5,55.5 76.5,56.5C 74.0065,56.8693 73.3398,56.2027 74.5,54.5C 75.1667,54.1667 75.8333,53.8333 76.5,53.5 Z"/></g>
<g><path style="opacity:1" fill="#ce5547" d="M 31.5,56.5 C 34.5,56.5 37.5,56.5 40.5,56.5C 41.1667,56.5 41.8333,56.5 42.5,56.5C 43.5,56.5 44.5,56.5 45.5,56.5C 48.7131,56.19 51.7131,56.5233 54.5,57.5C 50.9581,57.1872 47.6248,57.5206 44.5,58.5C 40.9009,57.6561 37.2343,57.3227 33.5,57.5C 32.8333,62.8333 32.1667,62.8333 31.5,57.5C 31.5,57.1667 31.5,56.8333 31.5,56.5 Z"/></g>
<g><path style="opacity:1" fill="#a78384" d="M 79.5,50.5 C 79.5,52.5 79.5,54.5 79.5,56.5C 80.8333,56.5 82.1667,56.5 83.5,56.5C 83.7373,57.791 83.404,58.791 82.5,59.5C 82.1667,59.5 81.8333,59.5 81.5,59.5C 79.81,58.9829 78.1433,58.6495 76.5,58.5C 77.8333,57.8333 77.8333,57.1667 76.5,56.5C 76.5,55.5 76.5,54.5 76.5,53.5C 77.1667,52.1667 78.1667,51.1667 79.5,50.5 Z"/></g>
<g><path style="opacity:1" fill="#e5f4f8" d="M 18.5,58.5 C 22.5,58.5 26.5,58.5 30.5,58.5C 30.6567,59.8734 30.49,61.2068 30,62.5C 29.6174,61.944 29.1174,61.6107 28.5,61.5C 27.8333,61.5 27.1667,61.5 26.5,61.5C 25.8826,61.6107 25.3826,61.944 25,62.5C 22.6628,61.2459 20.4961,59.9125 18.5,58.5 Z"/></g>
<g><path style="opacity:1" fill="#b85854" d="M 58.5,56.5 C 58.8333,56.5 59.1667,56.5 59.5,56.5C 61.5061,56.5171 63.5061,56.8504 65.5,57.5C 64.5,57.5 63.5,57.5 62.5,57.5C 62.5,58.8333 62.5,60.1667 62.5,61.5C 61.5,61.5 60.5,61.5 59.5,61.5C 59.5,60.5 59.5,59.5 59.5,58.5C 58.7375,57.7321 57.7375,57.2321 56.5,57C 57.0944,56.5357 57.7611,56.369 58.5,56.5 Z"/></g>
<g><path style="opacity:1" fill="#d4e2e7" d="M 76.5,58.5 C 78.1433,58.6495 79.81,58.9829 81.5,59.5C 81.0679,60.7095 80.4013,61.7095 79.5,62.5C 78.1667,63.8333 76.8333,63.8333 75.5,62.5C 73.2407,61.656 72.2407,59.9893 72.5,57.5C 74.099,57.2322 75.4324,57.5655 76.5,58.5 Z"/></g>
<g><path style="opacity:1" fill="#a3c2cd" d="M 18.5,58.5 C 20.4961,59.9125 22.6628,61.2459 25,62.5C 25.3826,61.944 25.8826,61.6107 26.5,61.5C 26.5,63.8333 26.5,66.1667 26.5,68.5C 25.5,68.5 24.5,68.5 23.5,68.5C 23.1667,59.1667 22.8333,59.1667 22.5,68.5C 21.1667,68.5 19.8333,68.5 18.5,68.5C 18.151,64.9458 18.151,61.6125 18.5,58.5 Z"/></g>
<g><path style="opacity:1" fill="#b1ccd4" d="M 18.5,58.5 C 22.6344,57.5151 26.9677,57.1818 31.5,57.5C 32.1667,62.8333 32.8333,62.8333 33.5,57.5C 37.2343,57.3227 40.9009,57.6561 44.5,58.5C 47.5,58.5 50.5,58.5 53.5,58.5C 53.5,59.5 53.5,60.5 53.5,61.5C 52.0011,62.494 50.3344,62.494 48.5,61.5C 47.8386,62.7175 47.1719,64.0508 46.5,65.5C 45.8281,64.0508 45.1614,62.7175 44.5,61.5C 42.8235,62.1834 42.1568,63.5168 42.5,65.5C 42.5,66.5 42.5,67.5 42.5,68.5C 39.5,68.5 36.5,68.5 33.5,68.5C 32.8333,64.5 32.1667,64.5 31.5,68.5C 30.5,68.5 29.5,68.5 28.5,68.5C 28.5,66.1667 28.5,63.8333 28.5,61.5C 29.1174,61.6107 29.6174,61.944 30,62.5C 30.49,61.2068 30.6567,59.8734 30.5,58.5C 26.5,58.5 22.5,58.5 18.5,58.5 Z"/></g>
<g><path style="opacity:1" fill="#b7d6e0" d="M 65.5,57.5 C 65.5,61.1667 65.5,64.8333 65.5,68.5C 64.5,68.5 63.5,68.5 62.5,68.5C 62.5,67.5 62.5,66.5 62.5,65.5C 59.8411,65.0826 57.5078,64.0826 55.5,62.5C 55.5,62.1667 55.5,61.8333 55.5,61.5C 56.404,60.791 56.7373,59.791 56.5,58.5C 57.5,58.5 58.5,58.5 59.5,58.5C 59.5,59.5 59.5,60.5 59.5,61.5C 60.5,61.5 61.5,61.5 62.5,61.5C 62.5,60.1667 62.5,58.8333 62.5,57.5C 63.5,57.5 64.5,57.5 65.5,57.5 Z"/></g>
<g><path style="opacity:1" fill="#98736e" d="M 26.5,61.5 C 27.1667,61.5 27.8333,61.5 28.5,61.5C 28.5,63.8333 28.5,66.1667 28.5,68.5C 27.8333,68.5 27.1667,68.5 26.5,68.5C 26.5,66.1667 26.5,63.8333 26.5,61.5 Z"/></g>
<g><path style="opacity:1" fill="#b23a3b" d="M 55.5,61.5 C 55.5,61.8333 55.5,62.1667 55.5,62.5C 53.3198,63.1171 51.3198,64.1171 49.5,65.5C 48.5713,64.3112 48.238,62.9778 48.5,61.5C 50.3344,62.494 52.0011,62.494 53.5,61.5C 54.2679,60.7375 54.7679,59.7375 55,58.5C 55.4828,59.448 55.6495,60.448 55.5,61.5 Z"/></g>
<g><path style="opacity:1" fill="#a93336" d="M 27.5,56.5 C 28.8333,56.5 30.1667,56.5 31.5,56.5C 31.5,56.8333 31.5,57.1667 31.5,57.5C 26.9677,57.1818 22.6344,57.5151 18.5,58.5C 18.151,61.6125 18.151,64.9458 18.5,68.5C 19.8333,68.5 21.1667,68.5 22.5,68.5C 22.8333,59.1667 23.1667,59.1667 23.5,68.5C 24.5,68.5 25.5,68.5 26.5,68.5C 27.1667,68.5 27.8333,68.5 28.5,68.5C 29.5,68.5 30.5,68.5 31.5,68.5C 32.1667,64.5 32.8333,64.5 33.5,68.5C 36.4382,69.0703 38.7715,69.7369 40.5,70.5C 38.1667,70.5 35.8333,70.5 33.5,70.5C 32.9675,74.1944 30.9675,76.361 27.5,77C 29.9725,75.2015 31.6392,72.8682 32.5,70C 31.2506,69.2599 30.2506,69.4265 29.5,70.5C 28.8333,70.5 28.1667,70.5 27.5,70.5C 25.9582,69.6993 24.2915,69.366 22.5,69.5C 20.9139,70.4132 19.4139,70.4132 18,69.5C 17.1889,65.5037 16.8555,61.5037 17,57.5C 20.3936,56.5442 23.8936,56.2108 27.5,56.5 Z"/></g>
<g><path style="opacity:1" fill="#c65749" d="M 65.5,57.5 C 66.3382,57.8417 66.6716,58.5084 66.5,59.5C 66.5,61.5 66.5,63.5 66.5,65.5C 67.5383,70.0595 70.0383,73.7261 74,76.5C 74.6667,77.1667 74.6667,77.8333 74,78.5C 70.8605,76.0271 68.0271,73.1938 65.5,70C 63.6131,69.2204 61.9464,69.3871 60.5,70.5C 59.8333,70.1667 59.1667,69.8333 58.5,69.5C 53.6304,69.6896 48.9637,70.3563 44.5,71.5C 43.6236,71.6309 42.9569,71.2975 42.5,70.5C 43.7349,68.6837 43.7349,67.017 42.5,65.5C 42.1568,63.5168 42.8235,62.1834 44.5,61.5C 44.5,63.8333 44.5,66.1667 44.5,68.5C 47.8333,68.5 51.1667,68.5 54.5,68.5C 54.8333,64.5 55.1667,64.5 55.5,68.5C 56.8333,68.5 58.1667,68.5 59.5,68.5C 59.5,67.5 59.5,66.5 59.5,65.5C 60.5,65.5 61.5,65.5 62.5,65.5C 62.5,66.5 62.5,67.5 62.5,68.5C 63.5,68.5 64.5,68.5 65.5,68.5C 65.5,64.8333 65.5,61.1667 65.5,57.5 Z"/></g>
<g><path style="opacity:1" fill="#81acb9" d="M 44.5,61.5 C 45.1614,62.7175 45.8281,64.0508 46.5,65.5C 47.1719,64.0508 47.8386,62.7175 48.5,61.5C 48.238,62.9778 48.5713,64.3112 49.5,65.5C 51.3198,64.1171 53.3198,63.1171 55.5,62.5C 57.5078,64.0826 59.8411,65.0826 62.5,65.5C 61.5,65.5 60.5,65.5 59.5,65.5C 59.5,66.5 59.5,67.5 59.5,68.5C 58.1667,68.5 56.8333,68.5 55.5,68.5C 55.1667,64.5 54.8333,64.5 54.5,68.5C 51.1667,68.5 47.8333,68.5 44.5,68.5C 44.5,66.1667 44.5,63.8333 44.5,61.5 Z"/></g>
<g><path style="opacity:1" fill="#8f2640" d="M 72.5,54.5 C 73.1667,54.5 73.8333,54.5 74.5,54.5C 73.3398,56.2027 74.0065,56.8693 76.5,56.5C 77.8333,57.1667 77.8333,57.8333 76.5,58.5C 75.4324,57.5655 74.099,57.2322 72.5,57.5C 72.2407,59.9893 73.2407,61.656 75.5,62.5C 75.1231,64.258 74.4565,65.9246 73.5,67.5C 76.3918,67.3856 79.3918,67.7189 82.5,68.5C 81.7945,66.3284 80.7945,64.3284 79.5,62.5C 80.4013,61.7095 81.0679,60.7095 81.5,59.5C 81.8333,59.5 82.1667,59.5 82.5,59.5C 81.962,61.1172 81.6287,62.7839 81.5,64.5C 82.5,64.5 83.5,64.5 84.5,64.5C 84.0411,69.8401 81.0411,72.0067 75.5,71C 76.0442,71.7172 76.7109,72.2172 77.5,72.5C 77.631,73.2389 77.4643,73.9056 77,74.5C 75.549,72.5359 73.7157,71.2026 71.5,70.5C 70.8106,67.8106 69.144,66.1439 66.5,65.5C 66.5,63.5 66.5,61.5 66.5,59.5C 69.135,58.5265 71.135,56.8598 72.5,54.5 Z"/></g>
<g><path style="opacity:1" fill="#89bdcd" d="M 75.5,62.5 C 76.8333,63.8333 78.1667,63.8333 79.5,62.5C 80.7945,64.3284 81.7945,66.3284 82.5,68.5C 79.3918,67.7189 76.3918,67.3856 73.5,67.5C 74.4565,65.9246 75.1231,64.258 75.5,62.5 Z"/></g>
<g><path style="opacity:1" fill="#0c0506" d="M 69.5,59.5 C 70.404,60.209 70.7373,61.209 70.5,62.5C 71.5,62.5 72.5,62.5 73.5,62.5C 73.9342,65.1662 72.9342,66.3329 70.5,66C 67.1178,64.1304 66.7845,61.9637 69.5,59.5 Z"/></g>
<g><path style="opacity:1" fill="#cb743a" d="M 66.5,65.5 C 69.144,66.1439 70.8106,67.8106 71.5,70.5C 74.2619,73.6859 76.2619,77.3526 77.5,81.5C 74.7531,81.8134 72.0865,81.48 69.5,80.5C 66.483,77.0938 63.483,73.7605 60.5,70.5C 61.9464,69.3871 63.6131,69.2204 65.5,70C 68.0271,73.1938 70.8605,76.0271 74,78.5C 74.6667,77.8333 74.6667,77.1667 74,76.5C 70.0383,73.7261 67.5383,70.0595 66.5,65.5 Z"/></g>
<g><path style="opacity:1" fill="#771d3b" d="M 42.5,65.5 C 43.7349,67.017 43.7349,68.6837 42.5,70.5C 42.9569,71.2975 43.6236,71.6309 44.5,71.5C 45.7341,74.4073 47.7341,76.7407 50.5,78.5C 53.9257,76.0801 56.5924,73.0801 58.5,69.5C 59.1667,69.8333 59.8333,70.1667 60.5,70.5C 63.483,73.7605 66.483,77.0938 69.5,80.5C 72.0865,81.48 74.7531,81.8134 77.5,81.5C 77.5,82.1667 77.5,82.8333 77.5,83.5C 74.8127,83.6641 72.146,83.4974 69.5,83C 66.318,79.6507 62.9846,76.484 59.5,73.5C 56.7604,76.2482 53.7604,78.5815 50.5,80.5C 47.2396,78.5815 44.2396,76.2482 41.5,73.5C 38.0154,76.484 34.682,79.6507 31.5,83C 14.6381,85.5224 12.6381,81.5224 25.5,71C 24.2625,70.7679 23.2625,70.2679 22.5,69.5C 24.2915,69.366 25.9582,69.6993 27.5,70.5C 25.845,73.153 23.845,75.4864 21.5,77.5C 20.1882,78.1451 19.1882,79.1451 18.5,80.5C 22.9838,81.8111 27.3171,81.8111 31.5,80.5C 34.5,77.1667 37.5,73.8333 40.5,70.5C 38.7715,69.7369 36.4382,69.0703 33.5,68.5C 36.5,68.5 39.5,68.5 42.5,68.5C 42.5,67.5 42.5,66.5 42.5,65.5 Z"/></g>
<g><path style="opacity:1" fill="#ba9869" d="M 27.5,70.5 C 28.1667,70.5 28.8333,70.5 29.5,70.5C 28.5039,74.8294 25.8373,77.4961 21.5,78.5C 21.5,78.1667 21.5,77.8333 21.5,77.5C 23.845,75.4864 25.845,73.153 27.5,70.5 Z"/></g>
<g><path style="opacity:1" fill="#d68846" d="M 58.5,69.5 C 56.5924,73.0801 53.9257,76.0801 50.5,78.5C 47.7341,76.7407 45.7341,74.4073 44.5,71.5C 48.9637,70.3563 53.6304,69.6896 58.5,69.5 Z"/></g>
<g><path style="opacity:1" fill="#cf783c" d="M 40.5,70.5 C 37.5,73.8333 34.5,77.1667 31.5,80.5C 27.8183,80.6653 24.1516,80.4986 20.5,80C 21.056,79.6174 21.3893,79.1174 21.5,78.5C 25.8373,77.4961 28.5039,74.8294 29.5,70.5C 30.2506,69.4265 31.2506,69.2599 32.5,70C 31.6392,72.8682 29.9725,75.2015 27.5,77C 30.9675,76.361 32.9675,74.1944 33.5,70.5C 35.8333,70.5 38.1667,70.5 40.5,70.5 Z"/></g>
<g><path style="opacity:1" fill="#ae967f" d="M 71.5,70.5 C 73.7157,71.2026 75.549,72.5359 77,74.5C 77.4643,73.9056 77.631,73.2389 77.5,72.5C 78.1174,72.3893 78.6174,72.056 79,71.5C 79.3519,73.2475 79.8519,74.9142 80.5,76.5C 80.4802,78.143 81.1468,79.4763 82.5,80.5C 81.3881,81.2652 80.7214,82.2652 80.5,83.5C 79.5016,92.825 78.5016,92.825 77.5,83.5C 77.5,82.8333 77.5,82.1667 77.5,81.5C 76.2619,77.3526 74.2619,73.6859 71.5,70.5 Z"/></g>
<g><path style="opacity:1" fill="#81123d" d="M 80.5,76.5 C 85.6849,79.118 85.6849,81.4514 80.5,83.5C 80.7214,82.2652 81.3881,81.2652 82.5,80.5C 81.1468,79.4763 80.4802,78.143 80.5,76.5 Z"/></g>
<g><path style="opacity:1" fill="#6f4418" d="M 21.5,77.5 C 21.5,77.8333 21.5,78.1667 21.5,78.5C 21.3893,79.1174 21.056,79.6174 20.5,80C 24.1516,80.4986 27.8183,80.6653 31.5,80.5C 27.3171,81.8111 22.9838,81.8111 18.5,80.5C 19.1882,79.1451 20.1882,78.1451 21.5,77.5 Z"/></g>
</svg>
