<?xml version="1.0" encoding="UTF-8"?>
<!DOCTYPE svg PUBLIC "-//W3C//DTD SVG 1.1//EN" "http://www.w3.org/Graphics/SVG/1.1/DTD/svg11.dtd">
<svg xmlns="http://www.w3.org/2000/svg" version="1.1" width="100px" height="100px" style="shape-rendering:geometricPrecision; text-rendering:geometricPrecision; image-rendering:optimizeQuality; fill-rule:evenodd; clip-rule:evenodd" xmlns:xlink="http://www.w3.org/1999/xlink">
<g><path style="opacity:1" fill="#fcfcfc" d="M -0.5,-0.5 C 32.8333,-0.5 66.1667,-0.5 99.5,-0.5C 99.5,32.8333 99.5,66.1667 99.5,99.5C 66.1667,99.5 32.8333,99.5 -0.5,99.5C -0.5,66.1667 -0.5,32.8333 -0.5,-0.5 Z"/></g>
<g><path style="opacity:1" fill="#020202" d="M 66.5,78.5 C 66.6664,70.8261 66.4997,63.1594 66,55.5C 64.9614,56.2438 64.4614,57.2438 64.5,58.5C 61.6234,65.9239 58.4567,73.2572 55,80.5C 50.409,83.3674 46.0756,83.034 42,79.5C 38.9917,72.4659 35.9917,65.4659 33,58.5C 32.6667,61.1667 32.3333,63.8333 32,66.5C 27.757,62.9186 23.257,62.5852 18.5,65.5C 17.5038,50.3424 17.1705,35.0091 17.5,19.5C 18.0283,18.2794 18.695,17.1127 19.5,16C 23.8333,15.3333 28.1667,15.3333 32.5,16C 35.0514,20.2707 37.218,24.7707 39,29.5C 45.3135,35.7917 51.9802,36.1251 59,30.5C 61.1333,25.4002 63.6333,20.5669 66.5,16C 70.5,15.3333 74.5,15.3333 78.5,16C 79.3333,16.8333 80.1667,17.6667 81,18.5C 81.6667,38.8333 81.6667,59.1667 81,79.5C 77.5448,83.6051 73.3781,84.4385 68.5,82C 67.1772,81.1841 66.5106,80.0174 66.5,78.5 Z"/></g>
<g><path style="opacity:1" fill="#c5c5c5" d="M 17.5,19.5 C 17.1705,35.0091 17.5038,50.3424 18.5,65.5C 18.44,66.0431 18.1067,66.3764 17.5,66.5C 16.1735,50.6717 16.1735,35.0051 17.5,19.5 Z"/></g>
<g><path style="opacity:1" fill="#b8b8b8" d="M 66.5,78.5 C 65.8333,71.8333 65.1667,65.1667 64.5,58.5C 64.4614,57.2438 64.9614,56.2438 66,55.5C 66.4997,63.1594 66.6664,70.8261 66.5,78.5 Z"/></g>
<g><path style="opacity:1" fill="#0c0c0c" d="M 22.5,67.5 C 29.6545,67.1527 32.8212,70.486 32,77.5C 29.7742,81.8608 26.2742,83.3608 21.5,82C 15.8813,76.5954 16.2147,71.762 22.5,67.5 Z"/></g>
</svg>
