<?xml version="1.0" encoding="UTF-8"?>
<!DOCTYPE svg PUBLIC "-//W3C//DTD SVG 1.1//EN" "http://www.w3.org/Graphics/SVG/1.1/DTD/svg11.dtd">
<svg xmlns="http://www.w3.org/2000/svg" version="1.1" width="100px" height="100px" style="shape-rendering:geometricPrecision; text-rendering:geometricPrecision; image-rendering:optimizeQuality; fill-rule:evenodd; clip-rule:evenodd" xmlns:xlink="http://www.w3.org/1999/xlink">
<g><path style="opacity:0.996" fill="#7b17f4" d="M -0.5,-0.5 C 32.8333,-0.5 66.1667,-0.5 99.5,-0.5C 99.5,32.8333 99.5,66.1667 99.5,99.5C 66.1667,99.5 32.8333,99.5 -0.5,99.5C -0.5,66.1667 -0.5,32.8333 -0.5,-0.5 Z"/></g>
<g><path style="opacity:1" fill="#fdfcfe" d="M 20.5,79.5 C 17.6122,80.0102 15.2789,79.3435 13.5,77.5C 14.3892,58.1626 15.3892,38.8293 16.5,19.5C 25.5062,19.3336 34.5062,19.5002 43.5,20C 45.1255,28.0039 47.2921,35.8372 50,43.5C 52.355,36.2268 54.5217,28.8934 56.5,21.5C 65.1308,20.3468 73.7975,19.6802 82.5,19.5C 83.8884,39.1614 85.2218,58.8281 86.5,78.5C 78.5,78.5 70.5,78.5 62.5,78.5C 62.8308,70.8045 62.4975,63.1378 61.5,55.5C 59.7535,60.3262 58.0868,65.1596 56.5,70C 52.1371,70.3694 47.8038,70.8694 43.5,71.5C 42.5781,66.3993 41.2448,61.3993 39.5,56.5C 38.0615,63.7617 37.3948,71.095 37.5,78.5C 31.8387,78.9068 26.172,79.2401 20.5,79.5 Z"/></g>
<g><path style="opacity:1" fill="#be8cf9" d="M 13.5,77.5 C 15.2789,79.3435 17.6122,80.0102 20.5,79.5C 18.0521,80.4731 15.3854,80.8064 12.5,80.5C 12.2627,79.209 12.596,78.209 13.5,77.5 Z"/></g>
</svg>
