<?xml version="1.0" encoding="UTF-8"?>
<!DOCTYPE svg PUBLIC "-//W3C//DTD SVG 1.1//EN" "http://www.w3.org/Graphics/SVG/1.1/DTD/svg11.dtd">
<svg xmlns="http://www.w3.org/2000/svg" version="1.1" width="100px" height="100px" style="shape-rendering:geometricPrecision; text-rendering:geometricPrecision; image-rendering:optimizeQuality; fill-rule:evenodd; clip-rule:evenodd" xmlns:xlink="http://www.w3.org/1999/xlink">
<g><path style="opacity:1" fill="#121212" d="M -0.5,-0.5 C 32.8333,-0.5 66.1667,-0.5 99.5,-0.5C 99.5,32.8333 99.5,66.1667 99.5,99.5C 66.1667,99.5 32.8333,99.5 -0.5,99.5C -0.5,66.1667 -0.5,32.8333 -0.5,-0.5 Z"/></g>
<g><path style="opacity:1" fill="#000000" d="M 0.5,0.5 C 33.1667,0.5 65.8333,0.5 98.5,0.5C 98.5,33.1667 98.5,65.8333 98.5,98.5C 65.8333,98.5 33.1667,98.5 0.5,98.5C 0.5,65.8333 0.5,33.1667 0.5,0.5 Z"/></g>
<g><path style="opacity:1" fill="#999999" d="M 69.5,27.5 C 63.8246,25.328 58.4913,22.4946 53.5,19C 50.854,18.5026 48.1873,18.3359 45.5,18.5C 45.6107,17.8826 45.944,17.3826 46.5,17C 48.5,16.3333 50.5,16.3333 52.5,17C 58.5657,20.0239 64.2324,23.5239 69.5,27.5 Z"/></g>
<g><path style="opacity:1" fill="#060606" d="M 45.5,18.5 C 48.1873,18.3359 50.854,18.5026 53.5,19C 58.4913,22.4946 63.8246,25.328 69.5,27.5C 73.0102,29.3575 75.8435,32.0241 78,35.5C 78.6667,44.8333 78.6667,54.1667 78,63.5C 77.2086,64.745 76.7086,66.0783 76.5,67.5C 74.9731,67.427 73.9731,68.0937 73.5,69.5C 68.9758,71.0435 64.9758,73.3768 61.5,76.5C 58.6689,77.0787 56.3356,78.412 54.5,80.5C 52.2181,81.3897 49.8848,81.5564 47.5,81C 38.4734,76.6276 29.9734,71.4609 22,65.5C 21.5002,54.8385 21.3335,44.1719 21.5,33.5C 24.8708,31.1542 28.2041,28.8208 31.5,26.5C 34.3311,25.9213 36.6644,24.588 38.5,22.5C 41.3311,21.9213 43.6644,20.588 45.5,18.5 Z"/></g>
<g><path style="opacity:1" fill="#adadad" d="M 45.5,18.5 C 43.6644,20.588 41.3311,21.9213 38.5,22.5C 40.3356,20.412 42.6689,19.0787 45.5,18.5 Z"/></g>
<g><path style="opacity:1" fill="#afafaf" d="M 38.5,22.5 C 36.6644,24.588 34.3311,25.9213 31.5,26.5C 33.3356,24.412 35.6689,23.0787 38.5,22.5 Z"/></g>
<g><path style="opacity:1" fill="#0c0c0c" d="M 45.5,70.5 C 43.6644,68.412 41.3311,67.0787 38.5,66.5C 35.9784,64.6394 33.4784,62.6394 31,60.5C 30.3333,53.1667 30.3333,45.8333 31,38.5C 35.9161,34.957 41.0828,31.7903 46.5,29C 50.1202,28.1593 53.4536,28.826 56.5,31C 59.8333,33 63.1667,35 66.5,37C 67.7014,37.9025 68.5348,39.0692 69,40.5C 69.6667,46.8333 69.6667,53.1667 69,59.5C 63.8396,64.1765 58.0063,68.0098 51.5,71C 49.4546,71.4901 47.4546,71.3235 45.5,70.5 Z"/></g>
<g><path style="opacity:1" fill="#a6a6a6" d="M 31.5,26.5 C 28.2041,28.8208 24.8708,31.1542 21.5,33.5C 23.6664,29.7301 26.9997,27.3967 31.5,26.5 Z"/></g>
<g><path style="opacity:1" fill="#a1a1a1" d="M 45.5,70.5 C 47.4546,71.3235 49.4546,71.4901 51.5,71C 58.0063,68.0098 63.8396,64.1765 69,59.5C 69.6667,53.1667 69.6667,46.8333 69,40.5C 68.5348,39.0692 67.7014,37.9025 66.5,37C 63.1667,35 59.8333,33 56.5,31C 53.4536,28.826 50.1202,28.1593 46.5,29C 41.0828,31.7903 35.9161,34.957 31,38.5C 30.3333,45.8333 30.3333,53.1667 31,60.5C 33.4784,62.6394 35.9784,64.6394 38.5,66.5C 34.1597,65.7477 30.9931,63.4144 29,59.5C 28.0722,52.0598 28.4055,44.7265 30,37.5C 35.5847,33.6227 41.4181,30.1227 47.5,27C 51.1129,26.792 54.4463,27.792 57.5,30C 60.8333,32 64.1667,34 67.5,36C 68.7014,36.9025 69.5348,38.0692 70,39.5C 70.6667,46.5 70.6667,53.5 70,60.5C 64.8396,65.1765 59.0063,69.0098 52.5,72C 50.5,72.6667 48.5,72.6667 46.5,72C 45.944,71.6174 45.6107,71.1174 45.5,70.5 Z"/></g>
<g><path style="opacity:1" fill="#aeaeae" d="M 69.5,27.5 C 73.8403,28.2523 77.0069,30.5856 79,34.5C 79.6667,44.5 79.6667,54.5 79,64.5C 78.6232,65.9423 77.7899,66.9423 76.5,67.5C 76.7086,66.0783 77.2086,64.745 78,63.5C 78.6667,54.1667 78.6667,44.8333 78,35.5C 75.8435,32.0241 73.0102,29.3575 69.5,27.5 Z"/></g>
<g><path style="opacity:1" fill="#949494" d="M 21.5,33.5 C 21.3335,44.1719 21.5002,54.8385 22,65.5C 29.9734,71.4609 38.4734,76.6276 47.5,81C 49.8848,81.5564 52.2181,81.3897 54.5,80.5C 54.3893,81.1174 54.056,81.6174 53.5,82C 51.1667,82.6667 48.8333,82.6667 46.5,82C 37.4734,77.6276 28.9734,72.4609 21,66.5C 19.8802,61.1068 19.3802,55.6068 19.5,50C 19.6667,45.1667 19.8333,40.3333 20,35.5C 20.2784,34.5842 20.7784,33.9175 21.5,33.5 Z"/></g>
<g><path style="opacity:1" fill="#f1f1f1" d="M 53.5,37.5 C 62.9098,39.4374 65.9098,45.1041 62.5,54.5C 61.1667,53.5 59.8333,52.5 58.5,51.5C 57.6922,53.4233 57.1922,55.4233 57,57.5C 53.7792,54.2718 52.2792,54.9385 52.5,59.5C 50.323,59.4139 48.323,58.7472 46.5,57.5C 45.8333,59.1667 45.1667,60.8333 44.5,62.5C 41.4198,61.2115 38.5864,59.5448 36,57.5C 35.1735,53.4589 35.3401,49.4589 36.5,45.5C 38.0009,46.7515 39.6675,47.7515 41.5,48.5C 42.1667,46.8333 42.8333,45.1667 43.5,43.5C 44.7362,44.2458 46.0695,44.5792 47.5,44.5C 47.3573,39.8827 49.024,39.216 52.5,42.5C 53.4519,40.9547 53.7852,39.288 53.5,37.5 Z"/></g>
<g><path style="opacity:1" fill="#a8a8a8" d="M 38.5,66.5 C 41.3311,67.0787 43.6644,68.412 45.5,70.5C 42.6689,69.9213 40.3356,68.588 38.5,66.5 Z"/></g>
<g><path style="opacity:1" fill="#b5b5b5" d="M 76.5,67.5 C 76.0269,68.9063 75.0269,69.573 73.5,69.5C 73.9731,68.0937 74.9731,67.427 76.5,67.5 Z"/></g>
<g><path style="opacity:1" fill="#aaaaaa" d="M 73.5,69.5 C 70.0242,72.6232 66.0242,74.9565 61.5,76.5C 64.9758,73.3768 68.9758,71.0435 73.5,69.5 Z"/></g>
<g><path style="opacity:1" fill="#adadad" d="M 61.5,76.5 C 59.6644,78.588 57.3311,79.9213 54.5,80.5C 56.3356,78.412 58.6689,77.0787 61.5,76.5 Z"/></g>
</svg>
