<?xml version="1.0" standalone="no"?>
<!DOCTYPE svg PUBLIC "-//W3C//DTD SVG 20010904//EN"
 "http://www.w3.org/TR/2001/REC-SVG-20010904/DTD/svg10.dtd">
<svg version="1.0" xmlns="http://www.w3.org/2000/svg"
 width="100.000000pt" height="100.000000pt" viewBox="0 0 100.000000 100.000000"
 preserveAspectRatio="xMidYMid meet">
<metadata>
Created by potrace 1.10, written by Peter Selinger 2001-2011
</metadata>
<g transform="translate(0.000000,100.000000) scale(0.100000,-0.100000)"
fill="#000000" stroke="none">
<path d="M515 939 c-59 -11 -77 -13 -90 -9 -26 6 -57 -2 -75 -20 -11 -11 -24
-20 -29 -20 -37 0 -89 -132 -60 -151 11 -6 8 -14 -13 -36 -32 -34 -100 -154
-126 -226 -28 -74 -47 -243 -32 -282 33 -87 108 -115 303 -115 106 0 149 4
170 15 27 14 31 13 64 -12 32 -24 45 -28 112 -28 83 0 131 19 131 53 0 28 -69
122 -106 144 -32 19 -34 22 -19 38 8 9 15 26 15 38 0 11 5 24 11 27 6 4 8 14
4 22 -3 9 2 24 11 34 9 10 13 25 9 37 -10 32 -46 73 -57 66 -7 -4 -8 -2 -4 4
4 6 13 9 21 6 14 -6 20 9 28 72 4 37 -25 63 -48 44 -8 -6 -26 -15 -42 -20 -27
-8 -27 -8 9 -9 20 -1 39 -5 42 -9 3 -5 -14 -5 -37 -2 -42 6 -87 -11 -87 -32 0
-5 5 -6 10 -3 6 3 10 -1 10 -9 0 -9 -4 -16 -9 -16 -10 0 -21 24 -21 49 0 10
-9 35 -19 57 l-19 39 65 3 c50 2 70 -1 82 -13 14 -13 12 -15 -14 -15 -26 0
-75 -19 -51 -20 4 0 -2 -9 -15 -20 -13 -10 -19 -19 -13 -20 6 0 19 9 29 20 10
11 31 20 46 20 16 0 32 7 37 16 10 17 31 13 115 -21 16 -7 18 -4 15 16 -2 18
-18 32 -59 53 l-56 30 -6 69 c-11 125 -77 163 -232 136z m125 -20 c0 -5 5 -7
11 -4 6 4 17 -1 25 -11 9 -11 13 -13 9 -6 -8 16 0 16 13 -1 8 -10 5 -13 -16
-16 -52 -5 -332 -6 -332 0 0 8 92 30 140 34 23 1 44 5 47 9 11 11 103 7 103
-5z m-288 -73 c5 -7 8 -5 8 4 0 13 1 13 10 0 8 -13 10 -13 10 1 0 9 6 16 14
16 8 0 12 -7 9 -16 -3 -12 -2 -12 7 2 15 23 29 22 27 -3 -1 -16 -9 -20 -37
-21 -19 -1 -47 -2 -62 -3 -23 -2 -28 2 -28 21 0 17 4 21 18 16 9 -4 20 -11 24
-17z m372 2 c2 -10 -1 -18 -7 -19 -7 0 -68 -1 -137 -2 -116 -2 -125 -3 -128
-22 -3 -17 -1 -17 7 -5 10 13 12 13 21 0 8 -13 10 -12 10 3 0 9 4 17 8 17 14
0 21 -11 15 -26 -6 -17 -138 -20 -148 -3 -10 16 1 22 42 23 33 1 38 4 41 26
l3 25 134 0 c119 0 134 -2 139 -17z m-371 -60 c9 -31 143 -28 170 4 10 11 20
18 24 15 3 -4 13 -1 21 6 13 10 15 9 9 -7 -6 -16 -5 -17 7 -7 8 7 20 10 26 6
5 -3 10 -2 10 3 0 6 11 9 25 8 26 -1 36 -30 13 -39 -10 -4 -10 -6 0 -6 8 -1
16 8 19 18 3 10 16 21 29 24 20 3 24 0 24 -19 0 -12 3 -29 6 -37 5 -13 -1 -14
-38 -5 -50 11 -163 3 -256 -18 -35 -8 -73 -12 -85 -8 -17 5 -19 3 -11 -6 16
-16 44 -15 144 5 90 18 232 17 251 -2 7 -7 2 -9 -18 -6 -27 4 -26 4 7 -14 28
-15 31 -18 15 -22 -10 -2 -21 2 -23 8 -4 13 -110 14 -187 1 -45 -7 -46 -7 -14
-9 20 0 41 -7 47 -13 8 -10 -11 -12 -90 -10 -98 4 -100 3 -129 -24 -29 -27
-34 -45 -14 -46 6 -1 37 -14 70 -30 33 -15 70 -28 82 -28 12 0 25 -5 29 -11
11 -18 -77 0 -109 23 -16 11 -31 18 -33 15 -3 -3 9 -15 27 -28 22 -16 51 -24
91 -27 67 -5 66 -20 -2 -42 -21 -7 -37 -17 -34 -21 7 -11 76 21 114 54 23 20
31 33 27 48 -5 19 -4 19 11 6 9 -8 36 -17 60 -18 47 -4 66 12 56 44 -5 16 -3
17 15 8 26 -14 26 -25 2 -42 -11 -8 -22 -24 -26 -37 -6 -20 -4 -22 18 -17 30
8 42 -16 25 -48 -17 -33 -27 -37 -113 -37 -89 0 -313 39 -293 51 7 4 9 11 6
14 -10 11 -61 -9 -66 -26 -3 -8 -1 -11 3 -7 5 5 13 -2 19 -15 6 -12 45 -40 86
-62 l75 -39 132 -1 c84 0 132 -4 130 -10 -2 -5 -16 -8 -31 -7 -20 3 -40 -6
-66 -27 -25 -20 -45 -29 -56 -24 -10 4 -22 0 -30 -12 -11 -15 -10 -22 7 -45
12 -15 19 -38 17 -51 -2 -20 -8 -24 -33 -21 -24 2 -27 0 -15 -8 11 -8 -7 -10
-72 -7 -48 2 -85 0 -82 -5 3 -4 -12 -7 -33 -7 l-38 1 30 9 c21 5 8 7 -40 4
-51 -4 -65 -2 -50 5 16 9 14 9 -13 5 -18 -2 -31 -1 -28 4 7 11 -22 23 -36 14
-7 -4 -8 -1 -3 7 6 10 4 12 -7 7 -20 -7 -38 11 -31 31 4 9 2 13 -4 9 -7 -5 -9
1 -6 15 4 19 3 20 -6 8 -8 -11 -11 -2 -10 40 0 42 3 50 10 35 6 -14 7 -1 4 40
-4 44 -3 56 5 45 7 -11 9 -3 4 30 -4 35 -3 42 6 30 9 -12 10 -9 5 13 -3 17 -2
26 4 23 10 -6 25 23 16 32 -3 3 -5 -1 -5 -8 0 -7 -3 -11 -6 -8 -6 6 53 128 62
128 3 0 2 -4 -1 -10 -3 -5 -4 -10 -1 -10 3 0 13 14 22 31 9 18 11 28 4 24 -9
-6 -9 -2 -1 13 6 12 17 24 24 28 7 5 6 0 -3 -12 -14 -18 -14 -18 3 -5 9 8 15
16 13 19 -3 2 -1 13 5 23 9 18 12 17 66 -11 41 -22 68 -30 102 -29 l46 2 -50
6 c-27 4 -65 16 -84 26 -18 11 -44 26 -57 33 -17 9 -24 22 -24 43 0 21 4 28
12 23 7 -5 9 -2 6 8 -5 12 -1 13 27 4 19 -6 36 -19 38 -28z m53 -148 c-15 -5
-37 -17 -47 -26 -10 -9 -19 -12 -19 -6 0 17 42 42 70 41 25 -1 24 -1 -4 -9z
m124 -10 c14 -11 20 -20 13 -20 -6 0 -15 4 -18 10 -3 5 -20 14 -38 19 -28 8
-29 9 -7 10 14 0 36 -8 50 -19z m50 -5 c34 -36 21 -39 -18 -4 -18 16 -26 29
-19 29 7 0 24 -11 37 -25z m-76 -10 c8 -8 22 -15 30 -15 9 0 23 -12 32 -26 15
-22 15 -27 3 -35 -8 -5 -24 -9 -37 -9 -18 0 -21 4 -17 23 3 12 2 27 -2 33 -11
16 -110 26 -133 14 -14 -8 -20 -8 -20 0 0 28 118 41 144 15z m-49 -209 c88
-19 258 -26 290 -13 20 9 20 9 0 -8 -17 -15 -37 -16 -140 -11 -74 3 -146 13
-188 25 -38 11 -75 17 -83 14 -8 -3 -14 0 -14 7 0 13 3 13 135 -14z m-40 -21
c91 -29 290 -44 326 -24 18 9 19 8 8 -9 -28 -45 -247 -33 -348 18 -34 16 -61
33 -61 36 0 3 8 3 18 -1 9 -4 35 -13 57 -20z m318 -125 c16 -16 32 -30 37 -30
5 0 22 -18 38 -41 l31 -41 -32 -31 c-33 -32 -53 -21 -21 14 9 10 13 19 8 19
-5 0 -15 -9 -22 -20 -12 -20 -52 -28 -52 -11 0 4 9 20 21 35 11 14 16 26 10
26 -6 0 -18 -11 -27 -25 -17 -25 -38 -32 -48 -16 -10 16 3 35 39 59 19 12 35
26 35 30 0 15 -73 12 -90 -3 -16 -14 -18 -14 -23 4 -3 15 3 27 21 41 36 26 42
25 75 -10z m-129 -54 c15 -13 26 -29 26 -35 0 -7 5 -9 10 -6 6 4 8 11 4 16 -7
12 32 42 61 47 15 2 11 -6 -19 -37 -33 -34 -37 -43 -27 -55 17 -21 65 -44 105
-52 28 -5 35 -2 50 20 9 14 22 26 28 26 6 0 3 -9 -7 -20 -10 -11 -14 -20 -9
-21 5 0 0 -4 -11 -9 -29 -12 -146 -12 -120 1 17 8 15 9 -10 5 -37 -5 -85 27
-85 57 0 12 -9 33 -20 47 -35 45 -18 56 24 16z"/>
<path d="M545 714 c-71 -10 -77 -12 -26 -8 35 2 89 4 119 4 30 0 53 2 51 4
-13 11 -65 11 -144 0z"/>
<path d="M653 486 c21 -21 40 -36 43 -33 2 2 -2 10 -11 17 -16 13 -21 35 -6
25 5 -3 12 -1 16 5 4 6 -4 10 -19 10 -13 0 -33 3 -42 7 -10 4 -1 -10 19 -31z"/>
</g>
</svg>
