<?xml version="1.0" encoding="UTF-8"?>
<!DOCTYPE svg PUBLIC "-//W3C//DTD SVG 1.1//EN" "http://www.w3.org/Graphics/SVG/1.1/DTD/svg11.dtd">
<svg xmlns="http://www.w3.org/2000/svg" version="1.1" width="100px" height="100px" style="shape-rendering:geometricPrecision; text-rendering:geometricPrecision; image-rendering:optimizeQuality; fill-rule:evenodd; clip-rule:evenodd" xmlns:xlink="http://www.w3.org/1999/xlink">
<g><path style="opacity:1" fill="#febd00" d="M -0.5,-0.5 C 32.8333,-0.5 66.1667,-0.5 99.5,-0.5C 99.5,0.833333 99.5,2.16667 99.5,3.5C 66.1667,3.5 32.8333,3.5 -0.5,3.5C -0.5,2.16667 -0.5,0.833333 -0.5,-0.5 Z"/></g>
<g><path style="opacity:1" fill="#fcb600" d="M -0.5,3.5 C 32.8333,3.5 66.1667,3.5 99.5,3.5C 99.5,9.16667 99.5,14.8333 99.5,20.5C 91.4723,20.831 83.4723,20.4977 75.5,19.5C 74.3915,17.7859 75.0582,17.1192 77.5,17.5C 77.7709,15.6203 77.1042,14.287 75.5,13.5C 73.2068,11.8047 70.8734,11.138 68.5,11.5C 66.1417,11.7475 64.1417,11.0808 62.5,9.5C 59.7664,6.8574 56.4331,5.8574 52.5,6.5C 52.7947,8.73535 52.4614,10.7354 51.5,12.5C 50.2921,11.7659 48.9587,11.4326 47.5,11.5C 47.7678,9.90097 47.4345,8.56764 46.5,7.5C 44.0521,6.52693 41.3854,6.1936 38.5,6.5C 38.5,7.5 38.5,8.5 38.5,9.5C 38.6495,10.552 38.4828,11.552 38,12.5C 35.9129,11.6028 33.7463,10.9361 31.5,10.5C 24.1091,10.2502 22.1091,13.2502 25.5,19.5C 17.0161,20.493 8.34945,20.8264 -0.5,20.5C -0.5,14.8333 -0.5,9.16667 -0.5,3.5 Z"/></g>
<g><path style="opacity:1" fill="#cb6900" d="M 46.5,7.5 C 45.6649,8.94316 44.3316,9.94316 42.5,10.5C 47.6945,12.0583 47.6945,13.0583 42.5,13.5C 42.5,14.5 42.5,15.5 42.5,16.5C 44.288,16.2148 45.9547,16.5481 47.5,17.5C 45.2933,18.6348 42.9599,19.3015 40.5,19.5C 40.2474,15.9601 39.5808,12.6267 38.5,9.5C 38.5,8.5 38.5,7.5 38.5,6.5C 41.3854,6.1936 44.0521,6.52693 46.5,7.5 Z"/></g>
<g><path style="opacity:1" fill="#cf7300" d="M 62.5,9.5 C 62.0268,13.6383 59.6935,15.6383 55.5,15.5C 55.5,16.8333 55.5,18.1667 55.5,19.5C 54.1779,19.67 53.0113,19.3366 52,18.5C 51.5045,16.5273 51.3379,14.5273 51.5,12.5C 52.4614,10.7354 52.7947,8.73535 52.5,6.5C 56.4331,5.8574 59.7664,6.8574 62.5,9.5 Z"/></g>
<g><path style="opacity:1" fill="#cb6900" d="M 75.5,13.5 C 75.6309,14.3764 75.2975,15.0431 74.5,15.5C 69.567,14.4813 69.2336,15.4813 73.5,18.5C 72.2243,19.6446 70.891,19.6446 69.5,18.5C 69.1667,19 68.8333,19.5 68.5,20C 70.0997,21.1233 71.0997,22.6233 71.5,24.5C 68.1566,24.4989 65.8233,22.9989 64.5,20C 66.079,17.2628 67.4123,14.4295 68.5,11.5C 70.8734,11.138 73.2068,11.8047 75.5,13.5 Z"/></g>
<g><path style="opacity:1" fill="#cc6b00" d="M 31.5,10.5 C 34.4921,14.2064 33.8254,17.2064 29.5,19.5C 31.0093,21.62 30.676,23.2867 28.5,24.5C 27.7368,22.6316 26.7368,20.9649 25.5,19.5C 22.1091,13.2502 24.1091,10.2502 31.5,10.5 Z"/></g>
<g><path style="opacity:1" fill="#f1a700" d="M 46.5,7.5 C 47.4345,8.56764 47.7678,9.90097 47.5,11.5C 48.9587,11.4326 50.2921,11.7659 51.5,12.5C 51.3379,14.5273 51.5045,16.5273 52,18.5C 53.0113,19.3366 54.1779,19.67 55.5,19.5C 55.5,18.1667 55.5,16.8333 55.5,15.5C 59.6935,15.6383 62.0268,13.6383 62.5,9.5C 64.1417,11.0808 66.1417,11.7475 68.5,11.5C 67.4123,14.4295 66.079,17.2628 64.5,20C 65.8233,22.9989 68.1566,24.4989 71.5,24.5C 71.0825,25.2216 70.4158,25.7216 69.5,26C 70.056,26.3826 70.3893,26.8826 70.5,27.5C 68.9731,27.573 67.9731,26.9063 67.5,25.5C 65.7103,24.0027 63.5437,23.336 61,23.5C 57.7252,23.647 54.5585,24.3137 51.5,25.5C 47.1516,23.4562 42.8183,23.1229 38.5,24.5C 36.0462,25.2271 33.7128,26.2271 31.5,27.5C 30.9002,26.1001 29.9002,25.1001 28.5,24.5C 30.676,23.2867 31.0093,21.62 29.5,19.5C 33.8254,17.2064 34.4921,14.2064 31.5,10.5C 33.7463,10.9361 35.9129,11.6028 38,12.5C 38.4828,11.552 38.6495,10.552 38.5,9.5C 39.5808,12.6267 40.2474,15.9601 40.5,19.5C 42.9599,19.3015 45.2933,18.6348 47.5,17.5C 45.9547,16.5481 44.288,16.2148 42.5,16.5C 42.5,15.5 42.5,14.5 42.5,13.5C 47.6945,13.0583 47.6945,12.0583 42.5,10.5C 44.3316,9.94316 45.6649,8.94316 46.5,7.5 Z"/></g>
<g><path style="opacity:1" fill="#f7a800" d="M 75.5,13.5 C 77.1042,14.287 77.7709,15.6203 77.5,17.5C 75.0582,17.1192 74.3915,17.7859 75.5,19.5C 83.4723,20.4977 91.4723,20.831 99.5,20.5C 99.5,25.5 99.5,30.5 99.5,35.5C 93.7414,35.2143 88.0748,35.5476 82.5,36.5C 80.3021,34.9019 77.9687,33.5686 75.5,32.5C 73.614,31.0699 71.9473,29.4032 70.5,27.5C 70.3893,26.8826 70.056,26.3826 69.5,26C 70.4158,25.7216 71.0825,25.2216 71.5,24.5C 71.0997,22.6233 70.0997,21.1233 68.5,20C 68.8333,19.5 69.1667,19 69.5,18.5C 70.891,19.6446 72.2243,19.6446 73.5,18.5C 69.2336,15.4813 69.567,14.4813 74.5,15.5C 75.2975,15.0431 75.6309,14.3764 75.5,13.5 Z"/></g>
<g><path style="opacity:1" fill="#ae8e33" d="M 38.5,24.5 C 42.8183,23.1229 47.1516,23.4562 51.5,25.5C 54.5585,24.3137 57.7252,23.647 61,23.5C 63.5437,23.336 65.7103,24.0027 67.5,25.5C 66.5,25.5 65.5,25.5 64.5,25.5C 60.444,24.1473 56.444,24.6473 52.5,27C 53.0442,27.7172 53.7109,28.2172 54.5,28.5C 54.5,29.1667 54.5,29.8333 54.5,30.5C 52.2207,27.5578 49.2207,25.8911 45.5,25.5C 43.3926,24.5318 41.0593,24.1984 38.5,24.5 Z"/></g>
<g><path style="opacity:1" fill="#ebb62b" d="M 45.5,25.5 C 49.2207,25.8911 52.2207,27.5578 54.5,30.5C 50.0474,30.5621 45.3807,30.7288 40.5,31C 38.7536,31.4709 37.087,32.1376 35.5,33C 34.3044,33.6543 34.3044,34.1543 35.5,34.5C 42.2217,32.3228 48.8883,32.1561 55.5,34C 47.6668,34.2218 40.6668,36.7218 34.5,41.5C 33.5713,42.6888 33.238,44.0222 33.5,45.5C 34.8333,45.5 36.1667,45.5 37.5,45.5C 39.0618,45.7329 40.3951,46.3995 41.5,47.5C 40.4719,48.0736 39.4719,48.407 38.5,48.5C 42.8631,50.6091 47.5298,51.7758 52.5,52C 48.7745,52.7599 45.1078,52.5932 41.5,51.5C 40.3044,51.8457 40.3044,52.3457 41.5,53C 49.5401,55.0483 56.3734,53.2149 62,47.5C 64.6277,49.1255 66.961,51.1255 69,53.5C 72.5283,52.2524 76.0283,51.919 79.5,52.5C 80.038,54.1172 80.3713,55.7839 80.5,57.5C 65.5491,61.2704 50.5491,61.2704 35.5,57.5C 31.3333,57.5 29.8333,59.5 31,63.5C 32.8333,65.3333 34.6667,67.1667 36.5,69C 42.6825,71.1415 49.0158,72.6415 55.5,73.5C 60.8333,74.1667 66.1667,74.8333 71.5,75.5C 57.5075,79.4055 43.5075,79.4055 29.5,75.5C 27.6203,75.7709 26.287,75.1042 25.5,73.5C 26.2389,73.631 26.9056,73.4643 27.5,73C 19.1571,62.7428 19.6571,52.9095 29,43.5C 29.5167,32.8202 35.0167,26.8202 45.5,25.5 Z"/></g>
<g><path style="opacity:1" fill="#efd274" d="M 64.5,25.5 C 60.7515,25.3066 57.4182,26.3066 54.5,28.5C 53.7109,28.2172 53.0442,27.7172 52.5,27C 56.444,24.6473 60.444,24.1473 64.5,25.5 Z"/></g>
<g><path style="opacity:1" fill="#eeb82b" d="M 64.5,25.5 C 65.5,25.5 66.5,25.5 67.5,25.5C 67.9731,26.9063 68.9731,27.573 70.5,27.5C 70.4142,28.4959 70.7476,29.3292 71.5,30C 66.3498,30.0875 61.3498,30.9209 56.5,32.5C 55.8182,31.7573 55.1515,31.0906 54.5,30.5C 54.5,29.8333 54.5,29.1667 54.5,28.5C 57.4182,26.3066 60.7515,25.3066 64.5,25.5 Z"/></g>
<g><path style="opacity:1" fill="#f7a400" d="M 25.5,19.5 C 26.7368,20.9649 27.7368,22.6316 28.5,24.5C 29.9002,25.1001 30.9002,26.1001 31.5,27.5C 28.3238,30.5113 26.1572,34.178 25,38.5C 22.3098,40.0269 20.1432,42.0269 18.5,44.5C 12.2564,43.5422 5.92302,43.2088 -0.5,43.5C -0.5,35.8333 -0.5,28.1667 -0.5,20.5C 8.34945,20.8264 17.0161,20.493 25.5,19.5 Z"/></g>
<g><path style="opacity:1" fill="#e9ce75" d="M 38.5,24.5 C 41.0593,24.1984 43.3926,24.5318 45.5,25.5C 35.0167,26.8202 29.5167,32.8202 29,43.5C 19.6571,52.9095 19.1571,62.7428 27.5,73C 26.9056,73.4643 26.2389,73.631 25.5,73.5C 23.9731,73.573 22.9731,72.9063 22.5,71.5C 21.1667,69.5 19.5,67.8333 17.5,66.5C 16.6618,66.1583 16.3284,65.4916 16.5,64.5C 15.7051,60.2147 15.3718,55.8814 15.5,51.5C 16.2271,49.0462 17.2271,46.7128 18.5,44.5C 20.1432,42.0269 22.3098,40.0269 25,38.5C 26.1572,34.178 28.3238,30.5113 31.5,27.5C 33.7128,26.2271 36.0462,25.2271 38.5,24.5 Z"/></g>
<g><path style="opacity:1" fill="#f0bd36" d="M 75.5,32.5 C 70.2605,33.3504 64.9272,34.3504 59.5,35.5C 59.0825,34.7784 58.4158,34.2784 57.5,34C 63.4229,32.6959 69.4229,32.1959 75.5,32.5 Z"/></g>
<g><path style="opacity:1" fill="#b69b3b" d="M 70.5,27.5 C 71.9473,29.4032 73.614,31.0699 75.5,32.5C 69.4229,32.1959 63.4229,32.6959 57.5,34C 58.4158,34.2784 59.0825,34.7784 59.5,35.5C 57.5185,36.8165 55.5185,36.8165 53.5,35.5C 52.2867,35.7472 51.62,36.4138 51.5,37.5C 46.5805,38.6408 41.9138,40.4742 37.5,43C 36.4019,43.7697 36.4019,44.603 37.5,45.5C 36.1667,45.5 34.8333,45.5 33.5,45.5C 33.238,44.0222 33.5713,42.6888 34.5,41.5C 40.6668,36.7218 47.6668,34.2218 55.5,34C 48.8883,32.1561 42.2217,32.3228 35.5,34.5C 34.3044,34.1543 34.3044,33.6543 35.5,33C 37.087,32.1376 38.7536,31.4709 40.5,31C 45.3807,30.7288 50.0474,30.5621 54.5,30.5C 55.1515,31.0906 55.8182,31.7573 56.5,32.5C 61.3498,30.9209 66.3498,30.0875 71.5,30C 70.7476,29.3292 70.4142,28.4959 70.5,27.5 Z"/></g>
<g><path style="opacity:1" fill="#bc982d" d="M 75.5,32.5 C 77.9687,33.5686 80.3021,34.9019 82.5,36.5C 82.5,37.1667 82.5,37.8333 82.5,38.5C 82.1667,38.5 81.8333,38.5 81.5,38.5C 77.5,37.1667 73.5,37.1667 69.5,38.5C 66.9512,38.3874 64.6179,39.0541 62.5,40.5C 59.3007,37.9429 55.634,36.9429 51.5,37.5C 51.62,36.4138 52.2867,35.7472 53.5,35.5C 55.5185,36.8165 57.5185,36.8165 59.5,35.5C 64.9272,34.3504 70.2605,33.3504 75.5,32.5 Z"/></g>
<g><path style="opacity:1" fill="#989381" d="M 69.5,38.5 C 73.5,37.1667 77.5,37.1667 81.5,38.5C 80.209,38.2627 79.209,38.596 78.5,39.5C 76.5,38.1667 74.5,38.1667 72.5,39.5C 71.791,38.596 70.791,38.2627 69.5,38.5 Z"/></g>
<g><path style="opacity:1" fill="#d9d9d8" d="M 78.5,39.5 C 79.209,38.596 80.209,38.2627 81.5,38.5C 81.8333,38.5 82.1667,38.5 82.5,38.5C 83.3007,40.0418 83.634,41.7085 83.5,43.5C 82.8333,44.1667 82.1667,44.8333 81.5,45.5C 80.8333,43.8333 80.1667,42.1667 79.5,40.5C 79.5,39.8333 79.1667,39.5 78.5,39.5 Z"/></g>
<g><path style="opacity:1" fill="#181817" d="M 78.5,39.5 C 79.1667,39.5 79.5,39.8333 79.5,40.5C 78.7222,41.1556 78.0556,41.9889 77.5,43C 78.4295,44.0769 79.0962,45.2436 79.5,46.5C 78.5084,46.3284 77.8417,46.6618 77.5,47.5C 75.8333,47.5 74.1667,47.5 72.5,47.5C 71.2857,44.796 71.2857,42.1293 72.5,39.5C 74.5,38.1667 76.5,38.1667 78.5,39.5 Z"/></g>
<g><path style="opacity:1" fill="#a8a8a8" d="M 73.5,40.5 C 75.337,40.6395 75.6704,41.3061 74.5,42.5C 73.7025,42.0431 73.3691,41.3764 73.5,40.5 Z"/></g>
<g><path style="opacity:1" fill="#c1c0bc" d="M 51.5,37.5 C 55.634,36.9429 59.3007,37.9429 62.5,40.5C 64.6179,39.0541 66.9512,38.3874 69.5,38.5C 70.791,38.2627 71.791,38.596 72.5,39.5C 71.2857,42.1293 71.2857,44.796 72.5,47.5C 69.8333,47.5 67.1667,47.5 64.5,47.5C 64.0831,46.8761 63.4164,46.5427 62.5,46.5C 55.6321,50.0342 48.6321,50.3676 41.5,47.5C 40.3951,46.3995 39.0618,45.7329 37.5,45.5C 36.4019,44.603 36.4019,43.7697 37.5,43C 41.9138,40.4742 46.5805,38.6408 51.5,37.5 Z"/></g>
<g><path style="opacity:1" fill="#181818" d="M 57.5,41.5 C 56.9094,42.1515 56.2427,42.8182 55.5,43.5C 56.6119,44.2652 57.2786,45.2652 57.5,46.5C 53.5805,49.6867 50.9139,48.8534 49.5,44C 49.3402,41.1449 50.6735,39.6449 53.5,39.5C 55.3545,39.3402 56.6879,40.0069 57.5,41.5 Z"/></g>
<g><path style="opacity:1" fill="#acacac" d="M 51.5,40.5 C 53.337,40.6395 53.6704,41.3061 52.5,42.5C 51.7025,42.0431 51.3691,41.3764 51.5,40.5 Z"/></g>
<g><path style="opacity:1" fill="#555552" d="M 79.5,40.5 C 80.1667,42.1667 80.8333,43.8333 81.5,45.5C 81.1583,46.3382 80.4916,46.6716 79.5,46.5C 79.0962,45.2436 78.4295,44.0769 77.5,43C 78.0556,41.9889 78.7222,41.1556 79.5,40.5 Z"/></g>
<g><path style="opacity:1" fill="#f39900" d="M 99.5,35.5 C 99.5,41.1667 99.5,46.8333 99.5,52.5C 92.8333,52.5 86.1667,52.5 79.5,52.5C 79.2771,49.8858 80.4438,48.2191 83,47.5C 83.49,46.2068 83.6567,44.8734 83.5,43.5C 83.634,41.7085 83.3007,40.0418 82.5,38.5C 82.5,37.8333 82.5,37.1667 82.5,36.5C 88.0748,35.5476 93.7414,35.2143 99.5,35.5 Z"/></g>
<g><path style="opacity:1" fill="#585858" d="M 57.5,41.5 C 58.8333,43.1667 58.8333,44.8333 57.5,46.5C 57.2786,45.2652 56.6119,44.2652 55.5,43.5C 56.2427,42.8182 56.9094,42.1515 57.5,41.5 Z"/></g>
<g><path style="opacity:1" fill="#ad8f2c" d="M 83.5,43.5 C 83.6567,44.8734 83.49,46.2068 83,47.5C 80.4438,48.2191 79.2771,49.8858 79.5,52.5C 76.0283,51.919 72.5283,52.2524 69,53.5C 66.961,51.1255 64.6277,49.1255 62,47.5C 56.3734,53.2149 49.5401,55.0483 41.5,53C 40.3044,52.3457 40.3044,51.8457 41.5,51.5C 45.1078,52.5932 48.7745,52.7599 52.5,52C 47.5298,51.7758 42.8631,50.6091 38.5,48.5C 39.4719,48.407 40.4719,48.0736 41.5,47.5C 48.6321,50.3676 55.6321,50.0342 62.5,46.5C 63.4164,46.5427 64.0831,46.8761 64.5,47.5C 68.0613,51.7041 72.3946,52.5375 77.5,50C 77.1667,49.6667 76.8333,49.3333 76.5,49C 77.5,48.6667 78.5,48.3333 79.5,48C 78.9056,47.5357 78.2389,47.369 77.5,47.5C 77.8417,46.6618 78.5084,46.3284 79.5,46.5C 80.4916,46.6716 81.1583,46.3382 81.5,45.5C 82.1667,44.8333 82.8333,44.1667 83.5,43.5 Z"/></g>
<g><path style="opacity:1" fill="#d3a72d" d="M 64.5,47.5 C 67.1667,47.5 69.8333,47.5 72.5,47.5C 74.1667,47.5 75.8333,47.5 77.5,47.5C 78.2389,47.369 78.9056,47.5357 79.5,48C 78.5,48.3333 77.5,48.6667 76.5,49C 76.8333,49.3333 77.1667,49.6667 77.5,50C 72.3946,52.5375 68.0613,51.7041 64.5,47.5 Z"/></g>
<g><path style="opacity:1" fill="#f39400" d="M -0.5,43.5 C 5.92302,43.2088 12.2564,43.5422 18.5,44.5C 17.2271,46.7128 16.2271,49.0462 15.5,51.5C 14.5318,53.6074 14.1984,55.9407 14.5,58.5C 9.59467,59.4454 4.59467,59.7787 -0.5,59.5C -0.5,54.1667 -0.5,48.8333 -0.5,43.5 Z"/></g>
<g><path style="opacity:1" fill="#b88225" d="M 15.5,51.5 C 15.3718,55.8814 15.7051,60.2147 16.5,64.5C 14.9261,62.8984 14.2594,60.8984 14.5,58.5C 14.1984,55.9407 14.5318,53.6074 15.5,51.5 Z"/></g>
<g><path style="opacity:1" fill="#ef8d00" d="M 79.5,52.5 C 86.1667,52.5 92.8333,52.5 99.5,52.5C 99.5,57.5 99.5,62.5 99.5,67.5C 93.5746,67.1918 87.7412,67.5251 82,68.5C 81.79,66.9419 81.29,65.6085 80.5,64.5C 81.8011,62.3281 82.8011,59.9948 83.5,57.5C 82.5,57.5 81.5,57.5 80.5,57.5C 80.3713,55.7839 80.038,54.1172 79.5,52.5 Z"/></g>
<g><path style="opacity:1" fill="#db5551" d="M 80.5,57.5 C 81.5,57.5 82.5,57.5 83.5,57.5C 82.8011,59.9948 81.8011,62.3281 80.5,64.5C 80.837,68.5051 79.1703,71.1718 75.5,72.5C 68.8689,73.331 62.2022,73.6643 55.5,73.5C 49.0158,72.6415 42.6825,71.1415 36.5,69C 34.6667,67.1667 32.8333,65.3333 31,63.5C 29.8333,59.5 31.3333,57.5 35.5,57.5C 50.5491,61.2704 65.5491,61.2704 80.5,57.5 Z"/></g>
<g><path style="opacity:1" fill="#731d1f" d="M 46.5,63.5 C 47.347,64.9663 48.6803,65.7996 50.5,66C 55.4285,67.4178 60.4285,67.7511 65.5,67C 66.2524,66.3292 66.5858,65.4959 66.5,64.5C 69.3035,63.3622 72.3035,63.1955 75.5,64C 76.7908,66.0902 76.1242,67.4236 73.5,68C 65.8333,68.6667 58.1667,68.6667 50.5,68C 45.0709,67.2468 40.0709,65.4135 35.5,62.5C 35.6667,62.1667 35.8333,61.8333 36,61.5C 39.4277,62.3958 42.9277,63.0624 46.5,63.5 Z"/></g>
<g><path style="opacity:1" fill="#9e3134" d="M 46.5,63.5 C 53.1593,63.9538 59.8259,64.2871 66.5,64.5C 66.5858,65.4959 66.2524,66.3292 65.5,67C 60.4285,67.7511 55.4285,67.4178 50.5,66C 48.6803,65.7996 47.347,64.9663 46.5,63.5 Z"/></g>
<g><path style="opacity:1" fill="#b28738" d="M 17.5,66.5 C 19.5,67.8333 21.1667,69.5 22.5,71.5C 19.8333,70.8333 18.1667,69.1667 17.5,66.5 Z"/></g>
<g><path style="opacity:1" fill="#ad772e" d="M 75.5,72.5 C 74.7377,74.2624 73.4044,75.2624 71.5,75.5C 66.1667,74.8333 60.8333,74.1667 55.5,73.5C 62.2022,73.6643 68.8689,73.331 75.5,72.5 Z"/></g>
<g><path style="opacity:1" fill="#ee8300" d="M 14.5,58.5 C 14.2594,60.8984 14.9261,62.8984 16.5,64.5C 16.3284,65.4916 16.6618,66.1583 17.5,66.5C 18.1667,69.1667 19.8333,70.8333 22.5,71.5C 22.9731,72.9063 23.9731,73.573 25.5,73.5C 26.287,75.1042 27.6203,75.7709 29.5,75.5C 33.8047,77.7462 38.4713,79.0795 43.5,79.5C 29.0095,80.496 14.3428,80.8293 -0.5,80.5C -0.5,73.5 -0.5,66.5 -0.5,59.5C 4.59467,59.7787 9.59467,59.4454 14.5,58.5 Z"/></g>
<g><path style="opacity:1" fill="#b08222" d="M 29.5,75.5 C 43.5075,79.4055 57.5075,79.4055 71.5,75.5C 69.6146,77.3115 67.2813,78.4782 64.5,79C 57.5079,79.4996 50.5079,79.6663 43.5,79.5C 38.4713,79.0795 33.8047,77.7462 29.5,75.5 Z"/></g>
<g><path style="opacity:1" fill="#eb7e00" d="M 80.5,64.5 C 81.29,65.6085 81.79,66.9419 82,68.5C 87.7412,67.5251 93.5746,67.1918 99.5,67.5C 99.5,72.8333 99.5,78.1667 99.5,83.5C 84.785,83.1996 70.1183,83.5329 55.5,84.5C 53.9622,81.9521 52.2956,81.9521 50.5,84.5C 47.5283,82.3065 44.6949,82.3065 42,84.5C 27.9121,83.5098 13.7454,83.1765 -0.5,83.5C -0.5,82.5 -0.5,81.5 -0.5,80.5C 14.3428,80.8293 29.0095,80.496 43.5,79.5C 50.5079,79.6663 57.5079,79.4996 64.5,79C 67.2813,78.4782 69.6146,77.3115 71.5,75.5C 73.4044,75.2624 74.7377,74.2624 75.5,72.5C 79.1703,71.1718 80.837,68.5051 80.5,64.5 Z"/></g>
<g><path style="opacity:1" fill="#eb7800" d="M 50.5,84.5 C 50.5198,86.143 49.8532,87.4763 48.5,88.5C 50.5298,88.8936 52.8631,89.2269 55.5,89.5C 55.5,87.8333 55.5,86.1667 55.5,84.5C 70.1183,83.5329 84.785,83.1996 99.5,83.5C 99.5,86.1667 99.5,88.8333 99.5,91.5C 66.1667,91.5 32.8333,91.5 -0.5,91.5C -0.5,88.8333 -0.5,86.1667 -0.5,83.5C 13.7454,83.1765 27.9121,83.5098 42,84.5C 44.6949,82.3065 47.5283,82.3065 50.5,84.5 Z"/></g>
<g><path style="opacity:1" fill="#d45900" d="M 55.5,84.5 C 55.5,86.1667 55.5,87.8333 55.5,89.5C 52.8631,89.2269 50.5298,88.8936 48.5,88.5C 49.8532,87.4763 50.5198,86.143 50.5,84.5C 52.2956,81.9521 53.9622,81.9521 55.5,84.5 Z"/></g>
<g><path style="opacity:1" fill="#ea7300" d="M -0.5,91.5 C 32.8333,91.5 66.1667,91.5 99.5,91.5C 99.5,94.1667 99.5,96.8333 99.5,99.5C 66.1667,99.5 32.8333,99.5 -0.5,99.5C -0.5,96.8333 -0.5,94.1667 -0.5,91.5 Z"/></g>
</svg>
