<?xml version="1.0" encoding="UTF-8"?>
<!DOCTYPE svg PUBLIC "-//W3C//DTD SVG 1.1//EN" "http://www.w3.org/Graphics/SVG/1.1/DTD/svg11.dtd">
<svg xmlns="http://www.w3.org/2000/svg" version="1.1" width="250px" height="250px" style="shape-rendering:geometricPrecision; text-rendering:geometricPrecision; image-rendering:optimizeQuality; fill-rule:evenodd; clip-rule:evenodd" xmlns:xlink="http://www.w3.org/1999/xlink">
<g><path style="opacity:1" fill="#1e222f" d="M -0.5,-0.5 C 31.5,-0.5 63.5,-0.5 95.5,-0.5C 95.5,4.83333 95.5,10.1667 95.5,15.5C 74.1667,15.5 52.8333,15.5 31.5,15.5C 31.5,20.8333 31.5,26.1667 31.5,31.5C 26.1667,31.5 20.8333,31.5 15.5,31.5C 15.5,36.8333 15.5,42.1667 15.5,47.5C 18.1667,47.5 20.8333,47.5 23.5,47.5C 23.5,52.8333 23.5,58.1667 23.5,63.5C 20.8333,63.5 18.1667,63.5 15.5,63.5C 15.5,68.8333 15.5,74.1667 15.5,79.5C 18.1667,79.5 20.8333,79.5 23.5,79.5C 23.5,111.5 23.5,143.5 23.5,175.5C 20.8333,175.5 18.1667,175.5 15.5,175.5C 15.5,180.833 15.5,186.167 15.5,191.5C 18.1667,191.5 20.8333,191.5 23.5,191.5C 23.5,196.833 23.5,202.167 23.5,207.5C 26.1667,207.5 28.8333,207.5 31.5,207.5C 31.5,218.167 31.5,228.833 31.5,239.5C 36.8333,239.5 42.1667,239.5 47.5,239.5C 47.5,236.833 47.5,234.167 47.5,231.5C 55.5,231.5 63.5,231.5 71.5,231.5C 71.5,234.167 71.5,236.833 71.5,239.5C 74.1667,239.5 76.8333,239.5 79.5,239.5C 79.5,238.167 79.5,236.833 79.5,235.5C 86.1921,235.665 92.8587,235.332 99.5,234.5C 100.833,234.833 102.167,235.167 103.5,235.5C 100.893,236.318 98.2263,236.818 95.5,237C 110.178,237.833 124.845,237.666 139.5,236.5C 140.628,235.738 141.795,235.071 143,234.5C 153.752,235.487 164.585,235.82 175.5,235.5C 175.5,234.167 175.5,232.833 175.5,231.5C 178.785,231.731 181.285,230.397 183,227.5C 183.49,228.793 183.657,230.127 183.5,231.5C 186.167,231.5 188.833,231.5 191.5,231.5C 191.5,228.833 191.5,226.167 191.5,223.5C 193.833,223.5 196.167,223.5 198.5,223.5C 199.303,218.524 202.136,215.191 207,213.5C 207.498,216.817 207.665,220.15 207.5,223.5C 212.833,223.5 218.167,223.5 223.5,223.5C 223.5,218.167 223.5,212.833 223.5,207.5C 226.167,207.5 228.833,207.5 231.5,207.5C 231.768,201.618 231.434,195.785 230.5,190C 231.987,185.846 234.82,183.013 239,181.5C 239.845,178.87 239.345,176.536 237.5,174.5C 239.171,172.49 239.838,170.157 239.5,167.5C 240.833,167.5 242.167,167.5 243.5,167.5C 243.5,164.833 243.5,162.167 243.5,159.5C 244.833,159.5 246.167,159.5 247.5,159.5C 246.852,145.791 247.519,132.458 249.5,119.5C 249.5,162.833 249.5,206.167 249.5,249.5C 166.167,249.5 82.8333,249.5 -0.5,249.5C -0.5,166.167 -0.5,82.8333 -0.5,-0.5 Z"/></g>
<g><path style="opacity:1" fill="#21232f" d="M 95.5,-0.5 C 146.833,-0.5 198.167,-0.5 249.5,-0.5C 249.5,39.5 249.5,79.5 249.5,119.5C 247.519,132.458 246.852,145.791 247.5,159.5C 246.167,159.5 244.833,159.5 243.5,159.5C 243.5,162.167 243.5,164.833 243.5,167.5C 242.167,167.5 240.833,167.5 239.5,167.5C 239.838,170.157 239.171,172.49 237.5,174.5C 239.345,176.536 239.845,178.87 239,181.5C 234.82,183.013 231.987,185.846 230.5,190C 231.434,195.785 231.768,201.618 231.5,207.5C 228.833,207.5 226.167,207.5 223.5,207.5C 223.5,212.833 223.5,218.167 223.5,223.5C 218.167,223.5 212.833,223.5 207.5,223.5C 207.665,220.15 207.498,216.817 207,213.5C 202.136,215.191 199.303,218.524 198.5,223.5C 196.167,223.5 193.833,223.5 191.5,223.5C 191.5,226.167 191.5,228.833 191.5,231.5C 188.833,231.5 186.167,231.5 183.5,231.5C 183.657,230.127 183.49,228.793 183,227.5C 181.285,230.397 178.785,231.731 175.5,231.5C 175.5,232.833 175.5,234.167 175.5,235.5C 164.585,235.82 153.752,235.487 143,234.5C 141.795,235.071 140.628,235.738 139.5,236.5C 124.845,237.666 110.178,237.833 95.5,237C 98.2263,236.818 100.893,236.318 103.5,235.5C 102.167,235.167 100.833,234.833 99.5,234.5C 92.8587,235.332 86.1921,235.665 79.5,235.5C 79.5,236.833 79.5,238.167 79.5,239.5C 76.8333,239.5 74.1667,239.5 71.5,239.5C 71.5,236.833 71.5,234.167 71.5,231.5C 63.5,231.5 55.5,231.5 47.5,231.5C 47.5,234.167 47.5,236.833 47.5,239.5C 42.1667,239.5 36.8333,239.5 31.5,239.5C 31.5,228.833 31.5,218.167 31.5,207.5C 28.8333,207.5 26.1667,207.5 23.5,207.5C 23.5,202.167 23.5,196.833 23.5,191.5C 20.8333,191.5 18.1667,191.5 15.5,191.5C 15.5,186.167 15.5,180.833 15.5,175.5C 18.1667,175.5 20.8333,175.5 23.5,175.5C 23.5,143.5 23.5,111.5 23.5,79.5C 20.8333,79.5 18.1667,79.5 15.5,79.5C 15.5,74.1667 15.5,68.8333 15.5,63.5C 18.1667,63.5 20.8333,63.5 23.5,63.5C 23.5,58.1667 23.5,52.8333 23.5,47.5C 20.8333,47.5 18.1667,47.5 15.5,47.5C 15.5,42.1667 15.5,36.8333 15.5,31.5C 20.8333,31.5 26.1667,31.5 31.5,31.5C 31.5,26.1667 31.5,20.8333 31.5,15.5C 52.8333,15.5 74.1667,15.5 95.5,15.5C 95.5,10.1667 95.5,4.83333 95.5,-0.5 Z"/></g>
<g><path style="opacity:1" fill="#27252d" d="M 60.5,207.5 C 58.7711,203.268 59.6045,202.601 63,205.5C 63.3333,204.833 63.6667,204.167 64,203.5C 65.1667,204.667 66.3333,205.833 67.5,207C 66.062,207.219 64.7287,207.719 63.5,208.5C 66.1506,210.65 68.6506,212.983 71,215.5C 71.3076,214.692 71.8076,214.025 72.5,213.5C 73.451,214.326 74.451,214.492 75.5,214C 74.2412,213.077 72.9079,212.243 71.5,211.5C 71.8333,211.167 72.1667,210.833 72.5,210.5C 75.0178,212.464 77.6845,213.13 80.5,212.5C 85.7596,213.549 90.593,215.549 95,218.5C 95.7247,217.941 96.5581,217.608 97.5,217.5C 106.433,220.216 115.433,222.216 124.5,223.5C 129.167,220.833 133.833,220.833 138.5,223.5C 141.891,222.657 145.224,221.49 148.5,220C 153.167,219.333 157.833,218.667 162.5,218C 165.916,214.971 169.916,213.305 174.5,213C 177.32,212.264 179.32,210.598 180.5,208C 183.825,208.225 186.158,206.892 187.5,204C 194.523,202.169 199.523,198.002 202.5,191.5C 203.85,190.05 205.516,189.383 207.5,189.5C 207.351,188.448 207.517,187.448 208,186.5C 210.333,184.5 212.667,182.5 215,180.5C 215.494,178.866 215.66,177.199 215.5,175.5C 220.57,170.302 223.404,163.968 224,156.5C 227.064,154.099 229.397,151.099 231,147.5C 233.529,131.724 233.362,115.89 230.5,100C 231.673,97.4791 231.673,94.9791 230.5,92.5C 224.635,88.6183 220.801,83.2849 219,76.5C 215.616,72.94 212.783,68.94 210.5,64.5C 209.675,63.6143 208.675,63.281 207.5,63.5C 207.66,61.8008 207.494,60.1341 207,58.5C 202.432,53.7308 197.266,50.0641 191.5,47.5C 191.5,46.1667 191.5,44.8333 191.5,43.5C 185.904,43.5351 181.571,41.2017 178.5,36.5C 176.214,35.0002 173.881,34.6668 171.5,35.5C 170.019,34.5197 168.685,33.353 167.5,32C 159.507,31.5003 151.507,31.3336 143.5,31.5C 143.5,30.5 143.5,29.5 143.5,28.5C 140.821,28.3274 138.487,27.3274 136.5,25.5C 135.051,26.617 133.384,27.2837 131.5,27.5C 121.955,25.7149 112.788,26.7149 104,30.5C 102.6,29.8841 101.1,29.5507 99.5,29.5C 95.1564,30.6662 91.1564,32.4995 87.5,35C 83.9085,35.7886 80.4085,35.6219 77,34.5C 74.4932,36.1888 72.9932,38.5221 72.5,41.5C 69.5964,42.6144 67.5964,44.6144 66.5,47.5C 65.675,48.3857 64.675,48.719 63.5,48.5C 63.5,49.5 63.5,50.5 63.5,51.5C 60.9783,51.1281 58.9783,51.9614 57.5,54C 60.1525,54.353 62.1525,55.5197 63.5,57.5C 58.1667,57.5 52.8333,57.5 47.5,57.5C 49.7015,54.6551 52.2015,54.3218 55,56.5C 55.4955,54.5273 55.6621,52.5273 55.5,50.5C 41.0433,48.7176 41.0433,47.3843 55.5,46.5C 56.1936,43.9124 57.3602,41.579 59,39.5C 59.4974,36.854 59.6641,34.1873 59.5,31.5C 60.8333,31.5 62.1667,31.5 63.5,31.5C 63.5,30.5 63.5,29.5 63.5,28.5C 70.175,28.6663 76.8417,28.4996 83.5,28C 85.0503,25.541 87.0503,24.8743 89.5,26C 90.8146,24.6054 90.4812,23.6054 88.5,23C 89.9266,21.2029 91.76,20.0362 94,19.5C 97.0138,20.6927 100.181,21.3593 103.5,21.5C 108.833,20.8333 114.167,20.1667 119.5,19.5C 124.833,20.1667 130.167,20.8333 135.5,21.5C 141.85,18.783 147.85,19.283 153.5,23C 155.899,23.711 158.232,23.5443 160.5,22.5C 161.696,22.8457 161.696,23.3457 160.5,24C 162.78,24.2326 164.78,25.066 166.5,26.5C 171.706,24.5428 176.206,25.5428 180,29.5C 179.852,30.825 180.018,31.9916 180.5,33C 184.194,34.1982 187.528,36.0315 190.5,38.5C 191.167,37.1667 191.833,35.8333 192.5,34.5C 194.679,35.7567 196.679,37.2567 198.5,39C 196.519,39.6054 196.185,40.6054 197.5,42C 201.425,43.1211 204.758,44.9544 207.5,47.5C 207.281,48.675 207.614,49.675 208.5,50.5C 210.679,51.7567 212.679,53.2567 214.5,55C 213.044,55.4226 212.544,56.2559 213,57.5C 214.113,58.7111 215.28,58.7111 216.5,57.5C 220.121,59.4946 220.787,61.9946 218.5,65C 219.292,66.9597 220.625,68.4597 222.5,69.5C 222.822,73.7895 224.655,77.1228 228,79.5C 228.772,79.3552 229.439,79.0219 230,78.5C 231.264,83.698 233.098,88.698 235.5,93.5C 233.931,95.6524 233.431,97.9857 234,100.5C 235.393,104.286 237.059,107.952 239,111.5C 238.684,123.829 238.017,136.162 237,148.5C 234.913,151.673 233.079,155.006 231.5,158.5C 231.833,159.167 232.167,159.833 232.5,160.5C 230.881,165.947 227.881,170.447 223.5,174C 224.287,176.099 224.62,178.266 224.5,180.5C 223.448,180.351 222.448,180.517 221.5,181C 219.658,183.543 217.491,185.71 215,187.5C 214.791,189.689 215.125,191.689 216,193.5C 212.153,196.201 208.986,199.534 206.5,203.5C 204.902,202.515 203.235,202.349 201.5,203C 199.151,206.242 196.485,209.242 193.5,212C 188.298,214.642 182.964,217.309 177.5,220C 173.953,219.914 170.953,221.08 168.5,223.5C 167.57,220.106 165.903,219.939 163.5,223C 162.207,223.49 160.873,223.657 159.5,223.5C 159.5,225.5 159.5,227.5 159.5,229.5C 138.167,229.5 116.833,229.5 95.5,229.5C 95.5,227.5 95.5,225.5 95.5,223.5C 92.5253,223.693 90.0253,222.693 88,220.5C 87.6667,221.5 87.3333,222.5 87,223.5C 85.1136,220.758 82.6136,219.091 79.5,218.5C 79.5,221.167 79.5,223.833 79.5,226.5C 78.448,226.649 77.448,226.483 76.5,226C 73.3492,220.686 69.3492,216.186 64.5,212.5C 63.8333,214.833 63.1667,217.167 62.5,219.5C 62.1667,219.333 61.8333,219.167 61.5,219C 60.5399,215.27 60.2065,211.437 60.5,207.5 Z"/></g>
<g><path style="opacity:1" fill="#2e272b" d="M 143.5,31.5 C 122.177,32.0023 122.177,32.8356 143.5,34C 131.5,34.3333 119.5,34.6667 107.5,35C 102.624,36.1543 97.457,37.6543 92,39.5C 91.586,39.0426 91.086,38.7093 90.5,38.5C 87.1667,39.8333 83.8333,41.1667 80.5,42.5C 79.5344,44.396 79.2011,46.396 79.5,48.5C 73.9937,47.3777 69.6604,49.0444 66.5,53.5C 69.4513,57.0654 68.4513,58.3988 63.5,57.5C 62.1525,55.5197 60.1525,54.353 57.5,54C 58.9783,51.9614 60.9783,51.1281 63.5,51.5C 63.5,50.5 63.5,49.5 63.5,48.5C 64.675,48.719 65.675,48.3857 66.5,47.5C 67.5964,44.6144 69.5964,42.6144 72.5,41.5C 72.9932,38.5221 74.4932,36.1888 77,34.5C 80.4085,35.6219 83.9085,35.7886 87.5,35C 91.1564,32.4995 95.1564,30.6662 99.5,29.5C 101.1,29.5507 102.6,29.8841 104,30.5C 112.788,26.7149 121.955,25.7149 131.5,27.5C 133.384,27.2837 135.051,26.617 136.5,25.5C 138.487,27.3274 140.821,28.3274 143.5,28.5C 143.5,29.5 143.5,30.5 143.5,31.5 Z"/></g>
<g><path style="opacity:1" fill="#502f25" d="M 159.5,49.5 C 163.263,49.8572 166.93,50.6905 170.5,52C 174.167,55.6667 177.833,59.3333 181.5,63C 182.5,63.3333 183.5,63.6667 184.5,64C 187.146,66.8696 189.146,70.0362 190.5,73.5C 191.466,75.396 191.799,77.396 191.5,79.5C 192.93,79.4208 194.264,79.7542 195.5,80.5C 196.504,83.8453 197.504,87.1786 198.5,90.5C 196.126,87.126 193.126,84.4593 189.5,82.5C 186.661,77.4911 183.327,72.8245 179.5,68.5C 173.575,65.7078 167.909,62.7078 162.5,59.5C 161.5,58.8333 160.5,58.1667 159.5,57.5C 158.929,56.0267 158.929,54.36 159.5,52.5C 150.525,50.5877 141.525,48.921 132.5,47.5C 126.89,48.6527 121.223,49.3193 115.5,49.5C 119.383,48.1617 123.216,46.495 127,44.5C 137.933,45.471 148.767,47.1377 159.5,49.5 Z"/></g>
<g><path style="opacity:1" fill="#fcfc4e" d="M 164.5,63.5 C 164.833,63.5 165.167,63.5 165.5,63.5C 166.242,65.4258 167.242,67.2591 168.5,69C 166.942,69.21 165.609,69.71 164.5,70.5C 162.896,69.713 162.229,68.3797 162.5,66.5C 156.075,66.6735 149.741,66.0068 143.5,64.5C 145.078,63.7022 146.744,63.2022 148.5,63C 146.567,62.7489 144.734,62.2489 143,61.5C 139.467,62.8461 135.967,64.3461 132.5,66C 129.776,66.2695 127.109,66.7695 124.5,67.5C 107.743,67.1864 91.0758,65.6864 74.5,63C 76.744,62.9504 78.4107,62.1171 79.5,60.5C 103.503,60.1332 127.503,59.9665 151.5,60C 155.29,63.0209 159.623,64.1876 164.5,63.5 Z"/></g>
<g><path style="opacity:1" fill="#27252d" d="M 40.5,63.5 C 42.8333,63.5 45.1667,63.5 47.5,63.5C 49.8884,65.2003 52.5551,66.5336 55.5,67.5C 57.2922,68.3091 59.2922,68.8091 61.5,69C 57.1292,70.7721 52.6292,71.9387 48,72.5C 48.8158,77.5077 48.6491,82.5077 47.5,87.5C 46.5,87.5 45.5,87.5 44.5,87.5C 44.4971,91.524 44.1638,95.524 43.5,99.5C 44.8112,103.407 45.4778,107.407 45.5,111.5C 44.5,111.5 43.5,111.5 42.5,111.5C 42.3345,130.206 43.0012,148.873 44.5,167.5C 45.5,167.5 46.5,167.5 47.5,167.5C 49.068,170.31 50.4013,173.31 51.5,176.5C 50.4231,177.705 49.0898,178.372 47.5,178.5C 44.8333,178.833 42.1667,179.167 39.5,179.5C 39.3124,173.001 39.3124,166.334 39.5,159.5C 38.1667,159.5 36.8333,159.5 35.5,159.5C 36.8333,138.167 36.8333,116.833 35.5,95.5C 36.5,95.5 37.5,95.5 38.5,95.5C 39.8272,84.8797 40.4939,74.213 40.5,63.5 Z"/></g>
<g><path style="opacity:1" fill="#312a17" d="M 47.5,63.5 C 50.1667,63.5 52.8333,63.5 55.5,63.5C 58.6085,63.2641 61.6085,63.5975 64.5,64.5C 66.1667,65.1667 67.8333,65.8333 69.5,66.5C 64.8478,66.9981 60.1811,67.3314 55.5,67.5C 52.5551,66.5336 49.8884,65.2003 47.5,63.5 Z"/></g>
<g><path style="opacity:1" fill="#f8f663" d="M 63.5,60.5 C 68.8333,60.5 74.1667,60.5 79.5,60.5C 78.4107,62.1171 76.744,62.9504 74.5,63C 91.0758,65.6864 107.743,67.1864 124.5,67.5C 127.109,66.7695 129.776,66.2695 132.5,66C 135.967,64.3461 139.467,62.8461 143,61.5C 144.734,62.2489 146.567,62.7489 148.5,63C 146.744,63.2022 145.078,63.7022 143.5,64.5C 149.741,66.0068 156.075,66.6735 162.5,66.5C 162.229,68.3797 162.896,69.713 164.5,70.5C 162.525,73.1211 160.525,72.9545 158.5,70C 154.486,69.6095 150.486,69.1095 146.5,68.5C 139.878,70.0948 133.211,71.4281 126.5,72.5C 125.205,71.9017 123.872,71.4017 122.5,71C 123.5,70.6667 124.5,70.3333 125.5,70C 118.385,67.7061 111.052,66.8728 103.5,67.5C 101.5,67.5 99.5,67.5 97.5,67.5C 86.4841,66.6653 75.4841,65.6653 64.5,64.5C 61.6085,63.5975 58.6085,63.2641 55.5,63.5C 58.4766,63.0984 61.1433,62.0984 63.5,60.5 Z"/></g>
<g><path style="opacity:1" fill="#5b3c0d" d="M 64.5,64.5 C 75.4841,65.6653 86.4841,66.6653 97.5,67.5C 99.2191,68.0221 100.552,69.0221 101.5,70.5C 100.127,70.3433 98.7932,70.51 97.5,71C 92.9715,74.3635 88.9715,78.1969 85.5,82.5C 84.5727,78.5546 85.906,75.8879 89.5,74.5C 90.0724,72.9222 90.4057,71.4222 90.5,70C 87.753,68.3956 84.753,67.5622 81.5,67.5C 77.4659,67.4955 73.4659,67.1621 69.5,66.5C 67.8333,65.8333 66.1667,65.1667 64.5,64.5 Z"/></g>
<g><path style="opacity:1" fill="#705b04" d="M 97.5,67.5 C 99.5,67.5 101.5,67.5 103.5,67.5C 107.678,68.4065 112.012,69.2398 116.5,70C 111.511,70.4993 106.511,70.6659 101.5,70.5C 100.552,69.0221 99.2191,68.0221 97.5,67.5 Z"/></g>
<g><path style="opacity:1" fill="#32282a" d="M 143.5,31.5 C 151.507,31.3336 159.507,31.5003 167.5,32C 168.685,33.353 170.019,34.5197 171.5,35.5C 173.881,34.6668 176.214,35.0002 178.5,36.5C 181.571,41.2017 185.904,43.5351 191.5,43.5C 191.5,44.8333 191.5,46.1667 191.5,47.5C 197.266,50.0641 202.432,53.7308 207,58.5C 207.494,60.1341 207.66,61.8008 207.5,63.5C 208.675,63.281 209.675,63.6143 210.5,64.5C 212.783,68.94 215.616,72.94 219,76.5C 220.801,83.2849 224.635,88.6183 230.5,92.5C 231.673,94.9791 231.673,97.4791 230.5,100C 233.362,115.89 233.529,131.724 231,147.5C 229.397,151.099 227.064,154.099 224,156.5C 223.404,163.968 220.57,170.302 215.5,175.5C 213.005,175.031 210.339,175.031 207.5,175.5C 207.662,177.527 207.495,179.527 207,181.5C 203.131,183.737 200.298,186.903 198.5,191C 196.24,192.335 194.073,193.835 192,195.5C 191.517,196.448 191.351,197.448 191.5,198.5C 187.134,198.023 184.134,199.856 182.5,204C 180.131,204.536 178.131,205.703 176.5,207.5C 175.468,205.96 174.135,205.46 172.5,206C 165.782,212.143 157.782,215.81 148.5,217C 144.247,217.2 140.08,217.7 136,218.5C 127.912,217.683 119.745,217.183 111.5,217C 106.974,216.547 102.641,215.38 98.5,213.5C 97.3044,213.846 97.3044,214.346 98.5,215C 97.552,215.483 96.552,215.649 95.5,215.5C 95.67,214.178 95.3366,213.011 94.5,212C 91.3821,210.941 88.3821,209.608 85.5,208C 82.1182,207.824 78.7848,207.324 75.5,206.5C 73.0417,201.428 69.375,197.428 64.5,194.5C 63.6143,193.675 63.281,192.675 63.5,191.5C 60.6146,191.806 57.9479,191.473 55.5,190.5C 60.1667,190.5 64.8333,190.5 69.5,190.5C 72.5653,191.727 74.8987,193.893 76.5,197C 83.1619,199.083 88.9952,202.583 94,207.5C 98.7645,206.659 103.264,207.492 107.5,210C 113.093,210.754 118.593,211.92 124,213.5C 130.816,212.805 137.65,212.305 144.5,212C 151.208,210.248 157.874,208.582 164.5,207C 168.682,203.91 173.349,201.91 178.5,201C 183.7,196.965 189.033,193.131 194.5,189.5C 199.034,184.808 202.534,179.475 205,173.5C 210.627,169.6 214.294,164.267 216,157.5C 221.361,142.552 223.028,127.219 221,111.5C 218.546,104.686 216.88,97.6856 216,90.5C 214.242,89.5305 213.742,88.3639 214.5,87C 212.798,84.7646 211.798,82.2646 211.5,79.5C 210.167,79.5 208.833,79.5 207.5,79.5C 206.953,74.252 204.286,70.252 199.5,67.5C 198.533,65.3703 197.366,63.3703 196,61.5C 190.235,57.3615 184.735,52.8615 179.5,48C 178.207,47.51 176.873,47.3433 175.5,47.5C 175.389,46.8826 175.056,46.3826 174.5,46C 160.737,40.8816 146.571,37.715 132,36.5C 121.452,37.142 110.952,38.3087 100.5,40C 96.5716,41.9297 92.9049,44.263 89.5,47C 85.8577,47.5231 82.5243,48.6898 79.5,50.5C 79.5,51.8333 79.5,53.1667 79.5,54.5C 77.4727,54.3379 75.4727,54.5045 73.5,55C 72.244,55.4169 71.5774,56.2502 71.5,57.5C 63.4388,58.012 55.4388,59.012 47.5,60.5C 46.7375,61.2679 45.7375,61.7679 44.5,62C 45.7375,62.2321 46.7375,62.7321 47.5,63.5C 45.1667,63.5 42.8333,63.5 40.5,63.5C 40.5326,59.8981 39.1993,56.8981 36.5,54.5C 36.7093,53.914 37.0426,53.414 37.5,53C 40.333,55.175 43.6663,56.675 47.5,57.5C 52.8333,57.5 58.1667,57.5 63.5,57.5C 68.4513,58.3988 69.4513,57.0654 66.5,53.5C 69.6604,49.0444 73.9937,47.3777 79.5,48.5C 79.2011,46.396 79.5344,44.396 80.5,42.5C 83.8333,41.1667 87.1667,39.8333 90.5,38.5C 91.086,38.7093 91.586,39.0426 92,39.5C 97.457,37.6543 102.624,36.1543 107.5,35C 119.5,34.6667 131.5,34.3333 143.5,34C 122.177,32.8356 122.177,32.0023 143.5,31.5 Z"/></g>
<g><path style="opacity:1" fill="#cbc670" d="M 47.5,60.5 C 52.8333,60.5 58.1667,60.5 63.5,60.5C 61.1433,62.0984 58.4766,63.0984 55.5,63.5C 52.8333,63.5 50.1667,63.5 47.5,63.5C 46.7375,62.7321 45.7375,62.2321 44.5,62C 45.7375,61.7679 46.7375,61.2679 47.5,60.5 Z"/></g>
<g><path style="opacity:1" fill="#eae35a" d="M 95.5,58.5 C 100.833,58.5 106.167,58.5 111.5,58.5C 124.833,58.5 138.167,58.5 151.5,58.5C 152.167,58.5 152.833,58.5 153.5,58.5C 157.251,59.9729 160.917,61.6396 164.5,63.5C 159.623,64.1876 155.29,63.0209 151.5,60C 127.503,59.9665 103.503,60.1332 79.5,60.5C 74.1667,60.5 68.8333,60.5 63.5,60.5C 73.9895,59.4403 84.6562,58.7736 95.5,58.5 Z"/></g>
<g><path style="opacity:1" fill="#382a09" d="M 103.5,56.5 C 100.833,57.1667 98.1667,57.8333 95.5,58.5C 84.6562,58.7736 73.9895,59.4403 63.5,60.5C 58.1667,60.5 52.8333,60.5 47.5,60.5C 55.4388,59.012 63.4388,58.012 71.5,57.5C 76.8333,57.5 82.1667,57.5 87.5,57.5C 92.772,56.5998 98.1053,56.2665 103.5,56.5 Z"/></g>
<g><path style="opacity:1" fill="#ddce5b" d="M 149.5,57.5 C 150.492,57.3284 151.158,57.6618 151.5,58.5C 138.167,58.5 124.833,58.5 111.5,58.5C 123.978,56.3793 136.645,56.046 149.5,57.5 Z"/></g>
<g><path style="opacity:1" fill="#5e4007" d="M 127.5,55.5 C 135.174,55.3336 142.841,55.5003 150.5,56C 149.944,56.3826 149.611,56.8826 149.5,57.5C 136.645,56.046 123.978,56.3793 111.5,58.5C 106.167,58.5 100.833,58.5 95.5,58.5C 98.1667,57.8333 100.833,57.1667 103.5,56.5C 111.517,56.4988 119.517,56.1655 127.5,55.5 Z"/></g>
<g><path style="opacity:1" fill="#5b3619" d="M 159.5,57.5 C 160.5,58.1667 161.5,58.8333 162.5,59.5C 159.482,59.2962 156.482,58.9629 153.5,58.5C 152.833,58.5 152.167,58.5 151.5,58.5C 151.158,57.6618 150.492,57.3284 149.5,57.5C 149.611,56.8826 149.944,56.3826 150.5,56C 142.841,55.5003 135.174,55.3336 127.5,55.5C 136.334,54.6047 145.334,53.9381 154.5,53.5C 154.746,56.4701 156.412,57.8034 159.5,57.5 Z"/></g>
<g><path style="opacity:1" fill="#4b2e25" d="M 69.5,67.5 C 69.5,67.1667 69.5,66.8333 69.5,66.5C 73.4659,67.1621 77.4659,67.4955 81.5,67.5C 81.6107,68.1174 81.944,68.6174 82.5,69C 80.3452,72.0512 77.8452,74.8845 75,77.5C 73.1491,81.0036 71.8158,84.6702 71,88.5C 70.5,89.6667 69.6667,90.5 68.5,91C 68.8333,91.3333 69.1667,91.6667 69.5,92C 67.4144,92.3153 65.4144,92.8153 63.5,93.5C 62.9003,89.4649 63.9003,85.9649 66.5,83C 66.2231,81.1084 65.2231,79.7751 63.5,79C 66.146,78.5026 68.8127,78.3359 71.5,78.5C 71.0592,75.7686 70.7259,73.2686 70.5,71C 74.4218,69.0472 74.0885,67.8805 69.5,67.5 Z"/></g>
<g><path style="opacity:1" fill="#fbfa79" d="M 165.5,63.5 C 174.681,68.3477 182.681,74.6811 189.5,82.5C 190.167,84.1667 190.833,85.8333 191.5,87.5C 191.343,88.8734 191.51,90.2068 192,91.5C 193.468,92.9893 194.968,94.3226 196.5,95.5C 198.575,98.827 199.909,102.494 200.5,106.5C 202.006,115.093 202.673,123.759 202.5,132.5C 202.5,133.5 202.5,134.5 202.5,135.5C 200.843,140.726 199.177,146.059 197.5,151.5C 194.503,156.825 191.503,162.159 188.5,167.5C 185.473,169.86 182.806,172.527 180.5,175.5C 180.167,175.5 179.833,175.5 179.5,175.5C 179.853,173.365 179.02,172.032 177,171.5C 175.495,172.673 173.995,173.839 172.5,175C 163.271,175.286 154.104,175.453 145,175.5C 134.533,174.041 124.033,172.874 113.5,172C 107.291,171.251 101.458,169.417 96,166.5C 94.3905,167.147 92.8905,167.98 91.5,169C 92.8621,171.034 93.8621,173.201 94.5,175.5C 91.1667,171.833 87.8333,168.167 84.5,164.5C 83.3307,161.489 81.664,158.822 79.5,156.5C 79.5,156.167 79.5,155.833 79.5,155.5C 78.6661,154.252 77.3328,153.585 75.5,153.5C 71.524,152.836 67.524,152.503 63.5,152.5C 61.5,151.833 59.5,151.167 57.5,150.5C 58.1667,150.5 58.8333,150.5 59.5,150.5C 65.2124,150.687 70.8791,150.354 76.5,149.5C 76.7373,148.209 76.404,147.209 75.5,146.5C 74.9401,142.807 74.2735,139.14 73.5,135.5C 73.4343,126.148 73.7676,116.815 74.5,107.5C 74.2322,105.901 74.5655,104.568 75.5,103.5C 76.4345,102.432 76.7678,101.099 76.5,99.5C 74.8333,99.5 73.1667,99.5 71.5,99.5C 68.0977,99.6576 64.7644,99.3242 61.5,98.5C 66.8105,97.3547 72.1438,96.3547 77.5,95.5C 80.3742,91.4433 83.0409,87.1099 85.5,82.5C 88.9715,78.1969 92.9715,74.3635 97.5,71C 98.7932,70.51 100.127,70.3433 101.5,70.5C 106.511,70.6659 111.511,70.4993 116.5,70C 112.012,69.2398 107.678,68.4065 103.5,67.5C 111.052,66.8728 118.385,67.7061 125.5,70C 124.5,70.3333 123.5,70.6667 122.5,71C 123.872,71.4017 125.205,71.9017 126.5,72.5C 133.211,71.4281 139.878,70.0948 146.5,68.5C 150.486,69.1095 154.486,69.6095 158.5,70C 160.525,72.9545 162.525,73.1211 164.5,70.5C 165.609,69.71 166.942,69.21 168.5,69C 167.242,67.2591 166.242,65.4258 165.5,63.5 Z"/></g>
<g><path style="opacity:1" fill="#30272b" d="M 69.5,66.5 C 69.5,66.8333 69.5,67.1667 69.5,67.5C 67.7354,68.4614 65.7354,68.7947 63.5,68.5C 63.8076,70.924 63.4742,73.2573 62.5,75.5C 57.6927,81.5981 55.3594,88.2648 55.5,95.5C 54.6618,95.8417 54.3284,96.5084 54.5,97.5C 53.8333,97.5 53.5,97.8333 53.5,98.5C 53.5394,99.5832 53.8728,100.583 54.5,101.5C 53.1723,107.113 52.1723,112.78 51.5,118.5C 51.8433,127.314 52.8433,135.981 54.5,144.5C 45.2335,145.972 45.2335,147.138 54.5,148C 52.5614,148.908 51.5614,150.408 51.5,152.5C 53.1238,152.36 54.2904,153.027 55,154.5C 56.7224,161.176 58.5557,168.176 60.5,175.5C 61.5,175.5 62.5,175.5 63.5,175.5C 63.5,176.833 63.5,178.167 63.5,179.5C 60.8049,179.681 58.4716,180.681 56.5,182.5C 53.7131,181.523 50.7131,181.19 47.5,181.5C 47.5,180.5 47.5,179.5 47.5,178.5C 49.0898,178.372 50.4231,177.705 51.5,176.5C 50.4013,173.31 49.068,170.31 47.5,167.5C 46.5,167.5 45.5,167.5 44.5,167.5C 43.0012,148.873 42.3345,130.206 42.5,111.5C 43.5,111.5 44.5,111.5 45.5,111.5C 45.4778,107.407 44.8112,103.407 43.5,99.5C 44.1638,95.524 44.4971,91.524 44.5,87.5C 45.5,87.5 46.5,87.5 47.5,87.5C 48.6491,82.5077 48.8158,77.5077 48,72.5C 52.6292,71.9387 57.1292,70.7721 61.5,69C 59.2922,68.8091 57.2922,68.3091 55.5,67.5C 60.1811,67.3314 64.8478,66.9981 69.5,66.5 Z"/></g>
<g><path style="opacity:1" fill="#593221" d="M 81.5,67.5 C 84.753,67.5622 87.753,68.3956 90.5,70C 90.4057,71.4222 90.0724,72.9222 89.5,74.5C 85.906,75.8879 84.5727,78.5546 85.5,82.5C 80.4759,83.3127 78.4759,86.3127 79.5,91.5C 76.3918,91.3746 74.3918,92.7079 73.5,95.5C 67.1381,95.9695 60.8048,96.6361 54.5,97.5C 54.3284,96.5084 54.6618,95.8417 55.5,95.5C 58.6981,96.0356 61.3647,95.369 63.5,93.5C 65.4144,92.8153 67.4144,92.3153 69.5,92C 69.1667,91.6667 68.8333,91.3333 68.5,91C 69.6667,90.5 70.5,89.6667 71,88.5C 71.8158,84.6702 73.1491,81.0036 75,77.5C 77.8452,74.8845 80.3452,72.0512 82.5,69C 81.944,68.6174 81.6107,68.1174 81.5,67.5 Z"/></g>
<g><path style="opacity:1" fill="#3e2a29" d="M 69.5,67.5 C 74.0885,67.8805 74.4218,69.0472 70.5,71C 70.7259,73.2686 71.0592,75.7686 71.5,78.5C 68.8127,78.3359 66.146,78.5026 63.5,79C 65.2231,79.7751 66.2231,81.1084 66.5,83C 63.9003,85.9649 62.9003,89.4649 63.5,93.5C 61.3647,95.369 58.6981,96.0356 55.5,95.5C 55.3594,88.2648 57.6927,81.5981 62.5,75.5C 63.4742,73.2573 63.8076,70.924 63.5,68.5C 65.7354,68.7947 67.7354,68.4614 69.5,67.5 Z"/></g>
<g><path style="opacity:1" fill="#5d400f" d="M 153.5,58.5 C 156.482,58.9629 159.482,59.2962 162.5,59.5C 167.909,62.7078 173.575,65.7078 179.5,68.5C 183.327,72.8245 186.661,77.4911 189.5,82.5C 182.681,74.6811 174.681,68.3477 165.5,63.5C 165.167,63.5 164.833,63.5 164.5,63.5C 160.917,61.6396 157.251,59.9729 153.5,58.5 Z"/></g>
<g><path style="opacity:1" fill="#432c27" d="M 175.5,47.5 C 176.834,50.3552 178.834,52.8552 181.5,55C 185.749,58.1048 190.082,60.9381 194.5,63.5C 194.491,65.3084 194.991,66.9751 196,68.5C 207.039,79.1387 214.039,91.8054 217,106.5C 220.553,124.084 219.053,141.251 212.5,158C 208.888,160.956 207.054,164.789 207,169.5C 205.315,171.017 203.815,172.684 202.5,174.5C 200.955,175.452 199.288,175.785 197.5,175.5C 197.099,179.07 195.099,181.236 191.5,182C 182.486,197.224 169.153,204.557 151.5,204C 149.377,204.815 147.377,205.815 145.5,207C 132.833,207.667 120.167,207.667 107.5,207C 104.062,206.08 101.062,204.413 98.5,202C 97.2161,201.316 96.0495,201.483 95,202.5C 90.1052,199.49 84.9385,197.157 79.5,195.5C 79.5,194.167 79.5,192.833 79.5,191.5C 83.1667,191.5 86.8333,191.5 90.5,191.5C 91.3472,193.844 93.0139,195.344 95.5,196C 101.114,196.82 106.448,198.32 111.5,200.5C 111.5,201.5 111.5,202.5 111.5,203.5C 122.782,202.585 134.116,202.419 145.5,203C 150.902,200.594 156.569,198.927 162.5,198C 167.24,195.64 171.574,192.807 175.5,189.5C 175.5,188.833 175.5,188.167 175.5,187.5C 181.21,188.059 185.71,185.726 189,180.5C 189.72,178.888 189.554,177.388 188.5,176C 191.043,175.86 193.377,175.194 195.5,174C 195.407,172.187 195.073,170.354 194.5,168.5C 195.135,167.034 195.969,165.7 197,164.5C 200.633,162.902 204.133,161.235 207.5,159.5C 207.5,154.167 207.5,148.833 207.5,143.5C 209.5,143.5 211.5,143.5 213.5,143.5C 213.433,141.599 213.767,139.766 214.5,138C 213.708,129.202 213.208,120.368 213,111.5C 211.482,106.039 209.648,100.705 207.5,95.5C 206.757,96.9079 205.923,98.2412 205,99.5C 204.443,95.825 203.11,92.4917 201,89.5C 200.658,91.6192 199.825,91.9526 198.5,90.5C 197.504,87.1786 196.504,83.8453 195.5,80.5C 194.264,79.7542 192.93,79.4208 191.5,79.5C 191.799,77.396 191.466,75.396 190.5,73.5C 189.146,70.0362 187.146,66.8696 184.5,64C 183.5,63.6667 182.5,63.3333 181.5,63C 177.833,59.3333 174.167,55.6667 170.5,52C 166.93,50.6905 163.263,49.8572 159.5,49.5C 159.586,48.5041 159.252,47.6708 158.5,47C 139.56,39.5472 120.894,39.8806 102.5,48C 103.624,48.2492 104.624,48.7492 105.5,49.5C 102.247,50.5975 98.9139,51.2642 95.5,51.5C 95.5,52.5 95.5,53.5 95.5,54.5C 93.1432,54.3367 90.8098,54.5034 88.5,55C 87.7476,55.6708 87.4142,56.5041 87.5,57.5C 82.1667,57.5 76.8333,57.5 71.5,57.5C 71.5774,56.2502 72.244,55.4169 73.5,55C 75.4727,54.5045 77.4727,54.3379 79.5,54.5C 79.5,53.1667 79.5,51.8333 79.5,50.5C 82.5243,48.6898 85.8577,47.5231 89.5,47C 92.9049,44.263 96.5716,41.9297 100.5,40C 110.952,38.3087 121.452,37.142 132,36.5C 146.571,37.715 160.737,40.8816 174.5,46C 175.056,46.3826 175.389,46.8826 175.5,47.5 Z"/></g>
<g><path style="opacity:1" fill="#583224" d="M 159.5,57.5 C 156.412,57.8034 154.746,56.4701 154.5,53.5C 145.334,53.9381 136.334,54.6047 127.5,55.5C 119.517,56.1655 111.517,56.4988 103.5,56.5C 98.1053,56.2665 92.772,56.5998 87.5,57.5C 87.4142,56.5041 87.7476,55.6708 88.5,55C 90.8098,54.5034 93.1432,54.3367 95.5,54.5C 100.704,53.3555 106.037,52.6888 111.5,52.5C 111.5,51.5 111.5,50.5 111.5,49.5C 112.833,49.5 114.167,49.5 115.5,49.5C 121.223,49.3193 126.89,48.6527 132.5,47.5C 141.525,48.921 150.525,50.5877 159.5,52.5C 158.929,54.36 158.929,56.0267 159.5,57.5 Z"/></g>
<g><path style="opacity:1" fill="#482d27" d="M 159.5,49.5 C 148.767,47.1377 137.933,45.471 127,44.5C 123.216,46.495 119.383,48.1617 115.5,49.5C 114.167,49.5 112.833,49.5 111.5,49.5C 111.5,50.5 111.5,51.5 111.5,52.5C 106.037,52.6888 100.704,53.3555 95.5,54.5C 95.5,53.5 95.5,52.5 95.5,51.5C 98.9139,51.2642 102.247,50.5975 105.5,49.5C 104.624,48.7492 103.624,48.2492 102.5,48C 120.894,39.8806 139.56,39.5472 158.5,47C 159.252,47.6708 159.586,48.5041 159.5,49.5 Z"/></g>
<g><path style="opacity:1" fill="#fefe9d" d="M 176.5,159.5 C 181.281,155.342 183.948,150.009 184.5,143.5C 185.827,137.954 187.16,132.287 188.5,126.5C 187.223,115.964 185.223,105.63 182.5,95.5C 181.5,95.5 180.5,95.5 179.5,95.5C 179.246,91.8246 177.58,88.9912 174.5,87C 167.169,83.2151 159.502,82.3818 151.5,84.5C 152.63,88.3129 154.963,91.3129 158.5,93.5C 159.466,95.396 159.799,97.396 159.5,99.5C 164.508,100.802 167.174,104.135 167.5,109.5C 165.84,105.84 163.173,103.173 159.5,101.5C 155.481,97.4109 151.148,93.5776 146.5,90C 140.89,88.537 135.223,88.537 129.5,90C 125.442,93.39 121.109,96.39 116.5,99C 115.257,100.154 114.257,101.488 113.5,103C 112.167,103.333 110.833,103.667 109.5,104C 107.768,106.645 106.101,109.145 104.5,111.5C 104.347,106.481 106.514,102.815 111,100.5C 111.333,101.167 111.667,101.833 112,102.5C 112.309,101.234 112.809,100.067 113.5,99C 112.027,98.2904 111.36,97.1238 111.5,95.5C 113.911,95.8633 115.411,94.8633 116,92.5C 117.455,87.1904 115.455,84.857 110,85.5C 107.102,85.6368 104.269,86.1368 101.5,87C 98.5375,90.3973 95.7042,93.8973 93,97.5C 91.1072,102.007 89.9405,106.673 89.5,111.5C 88.5,111.5 87.5,111.5 86.5,111.5C 86.7877,117.229 86.4544,122.896 85.5,128.5C 89.3782,135.679 91.5448,143.345 92,151.5C 93.708,153.543 95.708,155.21 98,156.5C 98.4828,157.448 98.6495,158.448 98.5,159.5C 97.5,159.5 96.5,159.5 95.5,159.5C 93.8333,159.5 92.1667,159.5 90.5,159.5C 89.9647,154.429 87.7981,150.096 84,146.5C 83.587,139.688 82.4203,133.021 80.5,126.5C 81.9151,116.345 84.0817,106.345 87,96.5C 90.3742,93.6259 93.2075,90.2925 95.5,86.5C 99.3203,85.4535 102.32,83.2869 104.5,80C 106.81,79.5034 109.143,79.3367 111.5,79.5C 117.774,79.2974 123.941,79.9641 130,81.5C 141.288,79.4364 152.621,78.7697 164,79.5C 169.889,81.9461 175.556,84.9461 181,88.5C 186.457,101.537 190.29,115.037 192.5,129C 188.41,139.767 184.41,150.601 180.5,161.5C 178.62,161.771 177.287,161.104 176.5,159.5 Z"/></g>
<g><path style="opacity:1" fill="#fefeb1" d="M 104.5,111.5 C 103.167,111.5 101.833,111.5 100.5,111.5C 98.1554,121.592 98.6554,131.592 102,141.5C 104.936,146.373 107.603,151.373 110,156.5C 111.757,156.133 113.257,156.966 114.5,159C 110.129,159.828 105.795,159.661 101.5,158.5C 98.7367,154.923 96.2367,151.256 94,147.5C 92.1667,139.833 90.3333,132.167 88.5,124.5C 89.2965,120.202 89.6299,115.868 89.5,111.5C 89.9405,106.673 91.1072,102.007 93,97.5C 95.7042,93.8973 98.5375,90.3973 101.5,87C 104.269,86.1368 107.102,85.6368 110,85.5C 115.455,84.857 117.455,87.1904 116,92.5C 115.411,94.8633 113.911,95.8633 111.5,95.5C 111.36,97.1238 112.027,98.2904 113.5,99C 112.809,100.067 112.309,101.234 112,102.5C 111.667,101.833 111.333,101.167 111,100.5C 106.514,102.815 104.347,106.481 104.5,111.5 Z"/></g>
<g><path style="opacity:1" fill="#fefeb2" d="M 179.5,95.5 C 180.5,95.5 181.5,95.5 182.5,95.5C 185.223,105.63 187.223,115.964 188.5,126.5C 187.16,132.287 185.827,137.954 184.5,143.5C 183.5,143.5 182.5,143.5 181.5,143.5C 181.662,145.527 181.495,147.527 181,149.5C 179.376,151.158 177.709,152.825 176,154.5C 175.517,155.448 175.351,156.448 175.5,157.5C 171.412,159.18 167.079,159.847 162.5,159.5C 162.387,156.951 163.054,154.618 164.5,152.5C 168.186,148.648 171.686,144.648 175,140.5C 175.838,130.122 175.505,119.788 174,109.5C 170.046,102.395 165.546,95.7279 160.5,89.5C 165.369,86.7563 170.202,87.0897 175,90.5C 176.009,92.0249 176.509,93.6916 176.5,95.5C 177.5,95.5 178.5,95.5 179.5,95.5 Z"/></g>
<g><path style="opacity:1" fill="#e2d478" d="M 191.5,87.5 C 193.95,89.6291 195.617,92.2957 196.5,95.5C 194.968,94.3226 193.468,92.9893 192,91.5C 191.51,90.2068 191.343,88.8734 191.5,87.5 Z"/></g>
<g><path style="opacity:1" fill="#643c12" d="M 85.5,82.5 C 83.0409,87.1099 80.3742,91.4433 77.5,95.5C 76.1667,95.5 74.8333,95.5 73.5,95.5C 74.3918,92.7079 76.3918,91.3746 79.5,91.5C 78.4759,86.3127 80.4759,83.3127 85.5,82.5 Z"/></g>
<g><path style="opacity:1" fill="#573615" d="M 189.5,82.5 C 193.126,84.4593 196.126,87.126 198.5,90.5C 197.756,93.9496 199.09,95.6162 202.5,95.5C 202.493,98.0379 202.159,100.538 201.5,103C 203.025,107.37 203.692,111.87 203.5,116.5C 202.865,113.069 201.865,109.736 200.5,106.5C 199.909,102.494 198.575,98.827 196.5,95.5C 195.617,92.2957 193.95,89.6291 191.5,87.5C 190.833,85.8333 190.167,84.1667 189.5,82.5 Z"/></g>
<g><path style="opacity:1" fill="#beb061" d="M 73.5,95.5 C 74.8333,95.5 76.1667,95.5 77.5,95.5C 72.1438,96.3547 66.8105,97.3547 61.5,98.5C 60.1667,98.5 58.8333,98.5 57.5,98.5C 56.8333,98.5 56.1667,98.5 55.5,98.5C 54.8333,98.5 54.1667,98.5 53.5,98.5C 53.5,97.8333 53.8333,97.5 54.5,97.5C 60.8048,96.6361 67.1381,95.9695 73.5,95.5 Z"/></g>
<g><path style="opacity:1" fill="#9f8e33" d="M 71.5,99.5 C 73.1667,99.5 74.8333,99.5 76.5,99.5C 76.7678,101.099 76.4345,102.432 75.5,103.5C 75.5,102.5 75.5,101.5 75.5,100.5C 73.901,100.768 72.5676,100.434 71.5,99.5 Z"/></g>
<g><path style="opacity:1" fill="#563221" d="M 55.5,98.5 C 56.1667,98.5 56.8333,98.5 57.5,98.5C 62.5064,100.559 67.8397,101.559 73.5,101.5C 71.7924,110.247 70.7924,119.081 70.5,128C 71.1157,133.876 71.6157,139.71 72,145.5C 69.0933,146.431 66.26,147.431 63.5,148.5C 65.6281,147.719 65.7947,146.719 64,145.5C 63.8333,143.667 63.6667,141.833 63.5,140C 64.0244,130.528 64.0244,121.028 63.5,111.5C 64.5,111.5 65.5,111.5 66.5,111.5C 66.9745,107.584 65.9745,104.251 63.5,101.5C 60.1889,101.693 57.5223,100.693 55.5,98.5 Z"/></g>
<g><path style="opacity:1" fill="#755d18" d="M 200.5,106.5 C 201.865,109.736 202.865,113.069 203.5,116.5C 203.5,117.167 203.5,117.833 203.5,118.5C 203.819,123.363 203.486,128.03 202.5,132.5C 202.673,123.759 202.006,115.093 200.5,106.5 Z"/></g>
<g><path style="opacity:1" fill="#5a3d0c" d="M 57.5,98.5 C 58.8333,98.5 60.1667,98.5 61.5,98.5C 64.7644,99.3242 68.0977,99.6576 71.5,99.5C 72.5676,100.434 73.901,100.768 75.5,100.5C 75.5,101.5 75.5,102.5 75.5,103.5C 74.5655,104.568 74.2322,105.901 74.5,107.5C 72.9779,112.748 72.3112,118.248 72.5,124C 72.5012,128.015 72.8345,131.849 73.5,135.5C 74.2735,139.14 74.9401,142.807 75.5,146.5C 74.7703,148.045 73.437,148.878 71.5,149C 67.3123,149.176 63.3123,149.676 59.5,150.5C 58.8333,150.5 58.1667,150.5 57.5,150.5C 56.5,150.5 55.5,150.5 54.5,150.5C 55.5,149.833 56.5,149.167 57.5,148.5C 59.5,148.5 61.5,148.5 63.5,148.5C 66.26,147.431 69.0933,146.431 72,145.5C 71.6157,139.71 71.1157,133.876 70.5,128C 70.7924,119.081 71.7924,110.247 73.5,101.5C 67.8397,101.559 62.5064,100.559 57.5,98.5 Z"/></g>
<g><path style="opacity:1" fill="#462c26" d="M 63.5,101.5 C 65.9745,104.251 66.9745,107.584 66.5,111.5C 65.5,111.5 64.5,111.5 63.5,111.5C 64.0244,121.028 64.0244,130.528 63.5,140C 63.6667,141.833 63.8333,143.667 64,145.5C 65.7947,146.719 65.6281,147.719 63.5,148.5C 61.5,148.5 59.5,148.5 57.5,148.5C 57.0472,147.542 56.3805,146.708 55.5,146C 57.9288,145.549 58.0955,144.715 56,143.5C 55.1054,132.578 54.6054,121.744 54.5,111C 57.2784,109.608 60.2784,109.108 63.5,109.5C 63.5,108.5 63.5,107.5 63.5,106.5C 61.2495,106.819 59.2495,106.319 57.5,105C 60.0254,104.576 62.0254,103.41 63.5,101.5 Z"/></g>
<g><path style="opacity:1" fill="#dfcd6a" d="M 74.5,107.5 C 73.7676,116.815 73.4343,126.148 73.5,135.5C 72.8345,131.849 72.5012,128.015 72.5,124C 72.3112,118.248 72.9779,112.748 74.5,107.5 Z"/></g>
<g><path style="opacity:1" fill="#614511" d="M 202.5,135.5 C 202.652,140.287 201.985,144.954 200.5,149.5C 199.482,150.193 198.482,150.859 197.5,151.5C 199.177,146.059 200.843,140.726 202.5,135.5 Z"/></g>
<g><path style="opacity:1" fill="#c1b056" d="M 75.5,146.5 C 76.404,147.209 76.7373,148.209 76.5,149.5C 70.8791,150.354 65.2124,150.687 59.5,150.5C 63.3123,149.676 67.3123,149.176 71.5,149C 73.437,148.878 74.7703,148.045 75.5,146.5 Z"/></g>
<g><path style="opacity:1" fill="#523024" d="M 175.5,187.5 C 174.1,186.9 173.1,185.9 172.5,184.5C 174.576,182.416 176.91,180.749 179.5,179.5C 183.479,176.188 187.146,172.521 190.5,168.5C 191.086,168.709 191.586,169.043 192,169.5C 193.569,165.928 195.902,162.928 199,160.5C 199.036,158.059 199.869,156.059 201.5,154.5C 204.456,142.48 205.123,130.48 203.5,118.5C 203.5,117.833 203.5,117.167 203.5,116.5C 203.692,111.87 203.025,107.37 201.5,103C 202.159,100.538 202.493,98.0379 202.5,95.5C 199.09,95.6162 197.756,93.9496 198.5,90.5C 199.825,91.9526 200.658,91.6192 201,89.5C 203.11,92.4917 204.443,95.825 205,99.5C 205.923,98.2412 206.757,96.9079 207.5,95.5C 209.648,100.705 211.482,106.039 213,111.5C 213.208,120.368 213.708,129.202 214.5,138C 213.767,139.766 213.433,141.599 213.5,143.5C 211.5,143.5 209.5,143.5 207.5,143.5C 207.5,148.833 207.5,154.167 207.5,159.5C 204.133,161.235 200.633,162.902 197,164.5C 195.969,165.7 195.135,167.034 194.5,168.5C 195.073,170.354 195.407,172.187 195.5,174C 193.377,175.194 191.043,175.86 188.5,176C 189.554,177.388 189.72,178.888 189,180.5C 185.71,185.726 181.21,188.059 175.5,187.5 Z"/></g>
<g><path style="opacity:1" fill="#fefe93" d="M 95.5,159.5 C 96.5,159.5 97.5,159.5 98.5,159.5C 98.8588,161.371 99.8588,162.871 101.5,164C 105.581,166.016 109.914,167.182 114.5,167.5C 116.734,166.602 118.901,166.602 121,167.5C 124.853,166.392 128.686,165.225 132.5,164C 131.095,162.731 129.429,162.231 127.5,162.5C 127.5,161.5 127.5,160.5 127.5,159.5C 125.473,159.662 123.473,159.495 121.5,159C 122.799,155.491 121.132,153.158 116.5,152C 109.233,146.679 105.067,139.513 104,130.5C 103.406,124.144 103.573,117.811 104.5,111.5C 106.101,109.145 107.768,106.645 109.5,104C 110.833,103.667 112.167,103.333 113.5,103C 114.257,101.488 115.257,100.154 116.5,99C 121.109,96.39 125.442,93.39 129.5,90C 135.223,88.537 140.89,88.537 146.5,90C 151.148,93.5776 155.481,97.4109 159.5,101.5C 163.173,103.173 165.84,105.84 167.5,109.5C 168.779,110.968 170.446,111.635 172.5,111.5C 172.654,124.237 169.82,136.237 164,147.5C 162.89,149.037 161.39,149.703 159.5,149.5C 157.664,152.637 154.997,155.137 151.5,157C 148.931,160.012 146.264,162.846 143.5,165.5C 148.67,167.24 154.003,168.24 159.5,168.5C 164.927,167.808 170.261,166.808 175.5,165.5C 175.205,163.265 175.539,161.265 176.5,159.5C 177.287,161.104 178.62,161.771 180.5,161.5C 184.41,150.601 188.41,139.767 192.5,129C 190.29,115.037 186.457,101.537 181,88.5C 175.556,84.9461 169.889,81.9461 164,79.5C 152.621,78.7697 141.288,79.4364 130,81.5C 123.941,79.9641 117.774,79.2974 111.5,79.5C 112.694,78.2227 114.36,77.5561 116.5,77.5C 124.172,76.8806 131.838,76.2139 139.5,75.5C 146.958,78.1163 154.292,77.783 161.5,74.5C 169.588,77.9098 176.921,82.5765 183.5,88.5C 193.125,103.672 197.125,120.339 195.5,138.5C 195.154,145.729 193.987,146.062 192,139.5C 191.667,142.167 191.333,144.833 191,147.5C 188.316,150.869 186.149,154.536 184.5,158.5C 183.675,159.386 182.675,159.719 181.5,159.5C 181.5,160.5 181.5,161.5 181.5,162.5C 172.175,170.592 161.175,173.925 148.5,172.5C 137.825,172.185 127.158,171.685 116.5,171C 109.34,169.255 102.34,167.088 95.5,164.5C 95.5,162.833 95.5,161.167 95.5,159.5 Z"/></g>
<g><path style="opacity:1" fill="#f7ef7c" d="M 161.5,117.5 C 163.139,123.111 164.139,129.111 164.5,135.5C 165.183,135.137 165.85,134.804 166.5,134.5C 164.977,137.345 163.977,140.345 163.5,143.5C 160.05,142.756 158.384,144.09 158.5,147.5C 155.579,147.283 152.913,147.949 150.5,149.5C 144.401,150.806 138.401,150.806 132.5,149.5C 153.587,149.381 163.254,138.715 161.5,117.5 Z"/></g>
<g><path style="opacity:1" fill="#7b470f" d="M 159.5,114.5 C 160.401,115.29 161.068,116.29 161.5,117.5C 163.254,138.715 153.587,149.381 132.5,149.5C 130.694,148.976 129.028,148.309 127.5,147.5C 133.229,147.788 138.896,147.454 144.5,146.5C 145.5,145.167 146.5,143.833 147.5,142.5C 154.227,139.865 157.227,135.032 156.5,128C 157.448,127.517 158.448,127.351 159.5,127.5C 159.5,123.167 159.5,118.833 159.5,114.5 Z"/></g>
<g><path style="opacity:1" fill="#7c4c0c" d="M 116.5,111.5 C 114.774,119.667 115.274,127.667 118,135.5C 120.944,137.372 122.111,140.039 121.5,143.5C 114.053,135.636 111.553,126.303 114,115.5C 114.608,113.934 115.442,112.6 116.5,111.5 Z"/></g>
<g><path style="opacity:1" fill="#fbf980" d="M 159.5,101.5 C 161.423,104.298 163.256,107.298 165,110.5C 167.423,118.393 167.923,126.393 166.5,134.5C 165.85,134.804 165.183,135.137 164.5,135.5C 164.139,129.111 163.139,123.111 161.5,117.5C 161.068,116.29 160.401,115.29 159.5,114.5C 159.737,113.209 159.404,112.209 158.5,111.5C 157.833,110.5 157.167,109.5 156.5,108.5C 156.785,104.283 154.785,102.117 150.5,102C 149.743,100.488 148.743,99.1545 147.5,98C 142.167,97.3333 136.833,97.3333 131.5,98C 129.563,98.1216 128.23,98.955 127.5,100.5C 122.861,103.139 119.194,106.806 116.5,111.5C 115.442,112.6 114.608,113.934 114,115.5C 111.553,126.303 114.053,135.636 121.5,143.5C 123.228,145.226 125.228,146.559 127.5,147.5C 129.028,148.309 130.694,148.976 132.5,149.5C 138.401,150.806 144.401,150.806 150.5,149.5C 151.234,150.708 151.567,152.041 151.5,153.5C 143.523,154.49 135.523,154.657 127.5,154C 124.756,153.197 122.089,152.197 119.5,151C 105.589,139.515 102.256,125.348 109.5,108.5C 112.05,106.486 114.217,104.152 116,101.5C 125.088,93.8116 135.588,90.6449 147.5,92C 150.999,95.9018 154.999,99.0685 159.5,101.5 Z"/></g>
<g><path style="opacity:1" fill="#7c4a0e" d="M 156.5,108.5 C 157.167,109.5 157.833,110.5 158.5,111.5C 155.255,111.707 153.255,110.207 152.5,107C 142.481,99.5504 132.648,99.717 123,107.5C 122.333,110.167 121.667,112.833 121,115.5C 120.51,114.207 120.343,112.873 120.5,111.5C 119.167,111.5 117.833,111.5 116.5,111.5C 119.194,106.806 122.861,103.139 127.5,100.5C 138.943,97.1321 148.609,99.7988 156.5,108.5 Z"/></g>
<g><path style="opacity:1" fill="#803c1a" d="M 158.5,111.5 C 159.404,112.209 159.737,113.209 159.5,114.5C 159.5,118.833 159.5,123.167 159.5,127.5C 158.448,127.351 157.448,127.517 156.5,128C 157.227,135.032 154.227,139.865 147.5,142.5C 146.5,143.833 145.5,145.167 144.5,146.5C 138.896,147.454 133.229,147.788 127.5,147.5C 125.228,146.559 123.228,145.226 121.5,143.5C 122.111,140.039 120.944,137.372 118,135.5C 115.274,127.667 114.774,119.667 116.5,111.5C 117.833,111.5 119.167,111.5 120.5,111.5C 120.343,112.873 120.51,114.207 121,115.5C 121.667,112.833 122.333,110.167 123,107.5C 132.648,99.717 142.481,99.5504 152.5,107C 153.255,110.207 155.255,111.707 158.5,111.5 Z"/></g>
<g><path style="opacity:1" fill="#793a1c" d="M 132.5,111.5 C 143.321,111.32 148.988,116.653 149.5,127.5C 148.127,127.343 146.793,127.51 145.5,128C 146.554,129.388 146.72,130.888 146,132.5C 145.333,133.833 144.667,133.833 144,132.5C 143.798,134.256 143.298,135.922 142.5,137.5C 140.705,136.735 138.872,136.068 137,135.5C 135.163,137.397 132.996,137.397 130.5,135.5C 130.167,134.5 129.5,133.833 128.5,133.5C 127.504,127.202 127.17,120.868 127.5,114.5C 130.034,114.741 131.7,113.741 132.5,111.5 Z"/></g>
<g><path style="opacity:1" fill="#f1e077" d="M 156.5,108.5 C 148.609,99.7988 138.943,97.1321 127.5,100.5C 128.23,98.955 129.563,98.1216 131.5,98C 136.833,97.3333 142.167,97.3333 147.5,98C 148.743,99.1545 149.743,100.488 150.5,102C 154.785,102.117 156.785,104.283 156.5,108.5 Z"/></g>
<g><path style="opacity:1" fill="#877946" d="M 54.5,150.5 C 55.5,150.5 56.5,150.5 57.5,150.5C 59.5,151.167 61.5,151.833 63.5,152.5C 60.8333,152.5 58.1667,152.5 55.5,152.5C 55.0825,151.778 54.4158,151.278 53.5,151C 53.7284,150.601 54.0618,150.435 54.5,150.5 Z"/></g>
<g><path style="opacity:1" fill="#fefea4" d="M 179.5,95.5 C 178.5,95.5 177.5,95.5 176.5,95.5C 176.509,93.6916 176.009,92.0249 175,90.5C 170.202,87.0897 165.369,86.7563 160.5,89.5C 165.546,95.7279 170.046,102.395 174,109.5C 175.505,119.788 175.838,130.122 175,140.5C 171.686,144.648 168.186,148.648 164.5,152.5C 163.054,154.618 162.387,156.951 162.5,159.5C 167.079,159.847 171.412,159.18 175.5,157.5C 175.351,156.448 175.517,155.448 176,154.5C 177.709,152.825 179.376,151.158 181,149.5C 181.495,147.527 181.662,145.527 181.5,143.5C 182.5,143.5 183.5,143.5 184.5,143.5C 183.948,150.009 181.281,155.342 176.5,159.5C 175.539,161.265 175.205,163.265 175.5,165.5C 170.261,166.808 164.927,167.808 159.5,168.5C 154.003,168.24 148.67,167.24 143.5,165.5C 146.264,162.846 148.931,160.012 151.5,157C 154.997,155.137 157.664,152.637 159.5,149.5C 161.39,149.703 162.89,149.037 164,147.5C 169.82,136.237 172.654,124.237 172.5,111.5C 170.446,111.635 168.779,110.968 167.5,109.5C 167.174,104.135 164.508,100.802 159.5,99.5C 159.799,97.396 159.466,95.396 158.5,93.5C 154.963,91.3129 152.63,88.3129 151.5,84.5C 159.502,82.3818 167.169,83.2151 174.5,87C 177.58,88.9912 179.246,91.8246 179.5,95.5 Z"/></g>
<g><path style="opacity:1" fill="#57410c" d="M 55.5,152.5 C 58.1667,152.5 60.8333,152.5 63.5,152.5C 67.524,152.503 71.524,152.836 75.5,153.5C 77.3328,153.585 78.6661,154.252 79.5,155.5C 74.2599,154.551 68.9265,154.218 63.5,154.5C 60.8333,153.833 58.1667,153.167 55.5,152.5 Z"/></g>
<g><path style="opacity:1" fill="#fefea6" d="M 89.5,111.5 C 89.6299,115.868 89.2965,120.202 88.5,124.5C 90.3333,132.167 92.1667,139.833 94,147.5C 96.2367,151.256 98.7367,154.923 101.5,158.5C 105.795,159.661 110.129,159.828 114.5,159C 113.257,156.966 111.757,156.133 110,156.5C 107.603,151.373 104.936,146.373 102,141.5C 98.6554,131.592 98.1554,121.592 100.5,111.5C 101.833,111.5 103.167,111.5 104.5,111.5C 103.573,117.811 103.406,124.144 104,130.5C 105.067,139.513 109.233,146.679 116.5,152C 121.132,153.158 122.799,155.491 121.5,159C 123.473,159.495 125.473,159.662 127.5,159.5C 127.5,160.5 127.5,161.5 127.5,162.5C 129.429,162.231 131.095,162.731 132.5,164C 128.686,165.225 124.853,166.392 121,167.5C 118.901,166.602 116.734,166.602 114.5,167.5C 109.914,167.182 105.581,166.016 101.5,164C 99.8588,162.871 98.8588,161.371 98.5,159.5C 98.6495,158.448 98.4828,157.448 98,156.5C 95.708,155.21 93.708,153.543 92,151.5C 91.5448,143.345 89.3782,135.679 85.5,128.5C 86.4544,122.896 86.7877,117.229 86.5,111.5C 87.5,111.5 88.5,111.5 89.5,111.5 Z"/></g>
<g><path style="opacity:1" fill="#3d2a28" d="M 53.5,98.5 C 54.1667,98.5 54.8333,98.5 55.5,98.5C 57.5223,100.693 60.1889,101.693 63.5,101.5C 62.0254,103.41 60.0254,104.576 57.5,105C 59.2495,106.319 61.2495,106.819 63.5,106.5C 63.5,107.5 63.5,108.5 63.5,109.5C 60.2784,109.108 57.2784,109.608 54.5,111C 54.6054,121.744 55.1054,132.578 56,143.5C 58.0955,144.715 57.9288,145.549 55.5,146C 56.3805,146.708 57.0472,147.542 57.5,148.5C 56.5,149.167 55.5,149.833 54.5,150.5C 54.0618,150.435 53.7284,150.601 53.5,151C 54.4158,151.278 55.0825,151.778 55.5,152.5C 58.1667,153.167 60.8333,153.833 63.5,154.5C 64.2625,155.268 65.2625,155.768 66.5,156C 62.3447,158.273 62.678,159.439 67.5,159.5C 68.6494,165.12 70.4827,170.453 73,175.5C 80.1204,178.07 79.9538,180.403 72.5,182.5C 66.1041,182.622 59.7708,183.289 53.5,184.5C 54.5,183.833 55.5,183.167 56.5,182.5C 58.4716,180.681 60.8049,179.681 63.5,179.5C 63.5,178.167 63.5,176.833 63.5,175.5C 62.5,175.5 61.5,175.5 60.5,175.5C 58.5557,168.176 56.7224,161.176 55,154.5C 54.2904,153.027 53.1238,152.36 51.5,152.5C 51.5614,150.408 52.5614,148.908 54.5,148C 45.2335,147.138 45.2335,145.972 54.5,144.5C 52.8433,135.981 51.8433,127.314 51.5,118.5C 52.1723,112.78 53.1723,107.113 54.5,101.5C 53.8728,100.583 53.5394,99.5832 53.5,98.5 Z"/></g>
<g><path style="opacity:1" fill="#6d4f14" d="M 79.5,156.5 C 81.664,158.822 83.3307,161.489 84.5,164.5C 83.8333,164.167 83.1667,163.833 82.5,163.5C 79.9078,161.964 78.9078,159.631 79.5,156.5 Z"/></g>
<g><path style="opacity:1" fill="#553123" d="M 63.5,154.5 C 68.9265,154.218 74.2599,154.551 79.5,155.5C 79.5,155.833 79.5,156.167 79.5,156.5C 78.9078,159.631 79.9078,161.964 82.5,163.5C 84.2185,166.731 83.2185,168.731 79.5,169.5C 83.175,173.325 86.5084,176.825 89.5,180C 86.0477,180.885 82.7144,181.718 79.5,182.5C 77.1667,182.5 74.8333,182.5 72.5,182.5C 79.9538,180.403 80.1204,178.07 73,175.5C 70.4827,170.453 68.6494,165.12 67.5,159.5C 62.678,159.439 62.3447,158.273 66.5,156C 65.2625,155.768 64.2625,155.268 63.5,154.5 Z"/></g>
<g><path style="opacity:1" fill="#573419" d="M 203.5,118.5 C 205.123,130.48 204.456,142.48 201.5,154.5C 199.869,156.059 199.036,158.059 199,160.5C 195.902,162.928 193.569,165.928 192,169.5C 191.586,169.043 191.086,168.709 190.5,168.5C 187.146,172.521 183.479,176.188 179.5,179.5C 179.833,178.167 180.167,176.833 180.5,175.5C 182.806,172.527 185.473,169.86 188.5,167.5C 191.061,165.629 193.561,163.629 196,161.5C 197.043,158.243 197.543,154.91 197.5,151.5C 198.482,150.859 199.482,150.193 200.5,149.5C 201.985,144.954 202.652,140.287 202.5,135.5C 202.5,134.5 202.5,133.5 202.5,132.5C 203.486,128.03 203.819,123.363 203.5,118.5 Z"/></g>
<g><path style="opacity:1" fill="#644515" d="M 197.5,151.5 C 197.543,154.91 197.043,158.243 196,161.5C 193.561,163.629 191.061,165.629 188.5,167.5C 191.503,162.159 194.503,156.825 197.5,151.5 Z"/></g>
<g><path style="opacity:1" fill="#5f3718" d="M 82.5,163.5 C 83.1667,163.833 83.8333,164.167 84.5,164.5C 87.8333,168.167 91.1667,171.833 94.5,175.5C 95.1667,175.5 95.5,175.833 95.5,176.5C 95.5,176.833 95.5,177.167 95.5,177.5C 95.5,178.5 95.5,179.5 95.5,180.5C 92.7718,180.171 90.4385,180.837 88.5,182.5C 85.5,182.5 82.5,182.5 79.5,182.5C 82.7144,181.718 86.0477,180.885 89.5,180C 86.5084,176.825 83.175,173.325 79.5,169.5C 83.2185,168.731 84.2185,166.731 82.5,163.5 Z"/></g>
<g><path style="opacity:1" fill="#fdfb73" d="M 179.5,175.5 C 174.047,181.558 167.38,185.558 159.5,187.5C 159.369,186.624 159.702,185.957 160.5,185.5C 164.334,184.333 167.667,182.333 170.5,179.5C 169.833,179.167 169.167,178.833 168.5,178.5C 161.937,181.232 155.103,182.899 148,183.5C 139.609,181.255 131.109,179.588 122.5,178.5C 113.472,177.932 104.472,177.266 95.5,176.5C 95.5,175.833 95.1667,175.5 94.5,175.5C 93.8621,173.201 92.8621,171.034 91.5,169C 92.8905,167.98 94.3905,167.147 96,166.5C 101.458,169.417 107.291,171.251 113.5,172C 124.033,172.874 134.533,174.041 145,175.5C 154.104,175.453 163.271,175.286 172.5,175C 173.995,173.839 175.495,172.673 177,171.5C 179.02,172.032 179.853,173.365 179.5,175.5 Z"/></g>
<g><path style="opacity:1" fill="#dacf5f" d="M 95.5,177.5 C 95.5,177.167 95.5,176.833 95.5,176.5C 104.472,177.266 113.472,177.932 122.5,178.5C 119.316,180.414 115.649,181.08 111.5,180.5C 112.609,179.71 113.942,179.21 115.5,179C 108.754,178.795 102.087,178.295 95.5,177.5 Z"/></g>
<g><path style="opacity:1" fill="#644c04" d="M 95.5,177.5 C 102.087,178.295 108.754,178.795 115.5,179C 113.942,179.21 112.609,179.71 111.5,180.5C 104.626,180.521 97.9592,181.187 91.5,182.5C 90.5,182.5 89.5,182.5 88.5,182.5C 90.4385,180.837 92.7718,180.171 95.5,180.5C 95.5,179.5 95.5,178.5 95.5,177.5 Z"/></g>
<g><path style="opacity:1" fill="#ede15f" d="M 111.5,180.5 C 105.25,182.459 98.5837,183.126 91.5,182.5C 97.9592,181.187 104.626,180.521 111.5,180.5 Z"/></g>
<g><path style="opacity:1" fill="#f7f35a" d="M 122.5,178.5 C 131.109,179.588 139.609,181.255 148,183.5C 155.103,182.899 161.937,181.232 168.5,178.5C 169.167,178.833 169.833,179.167 170.5,179.5C 167.667,182.333 164.334,184.333 160.5,185.5C 159.702,185.957 159.369,186.624 159.5,187.5C 155.959,189.235 152.293,190.569 148.5,191.5C 136.185,192.377 123.852,192.377 111.5,191.5C 110.167,191.5 108.833,191.5 107.5,191.5C 96.3468,190.374 85.0135,189.708 73.5,189.5C 71.444,188.801 69.444,187.801 67.5,186.5C 68.9492,185.828 70.2825,185.161 71.5,184.5C 74.1667,183.833 76.8333,183.167 79.5,182.5C 82.5,182.5 85.5,182.5 88.5,182.5C 89.5,182.5 90.5,182.5 91.5,182.5C 98.5837,183.126 105.25,182.459 111.5,180.5C 115.649,181.08 119.316,180.414 122.5,178.5 Z"/></g>
<g><path style="opacity:1" fill="#3b2a29" d="M 175.5,47.5 C 176.873,47.3433 178.207,47.51 179.5,48C 184.735,52.8615 190.235,57.3615 196,61.5C 197.366,63.3703 198.533,65.3703 199.5,67.5C 204.286,70.252 206.953,74.252 207.5,79.5C 208.833,79.5 210.167,79.5 211.5,79.5C 211.798,82.2646 212.798,84.7646 214.5,87C 213.742,88.3639 214.242,89.5305 216,90.5C 216.88,97.6856 218.546,104.686 221,111.5C 223.028,127.219 221.361,142.552 216,157.5C 214.294,164.267 210.627,169.6 205,173.5C 202.534,179.475 199.034,184.808 194.5,189.5C 189.033,193.131 183.7,196.965 178.5,201C 173.349,201.91 168.682,203.91 164.5,207C 157.874,208.582 151.208,210.248 144.5,212C 137.65,212.305 130.816,212.805 124,213.5C 118.593,211.92 113.093,210.754 107.5,210C 103.264,207.492 98.7645,206.659 94,207.5C 88.9952,202.583 83.1619,199.083 76.5,197C 74.8987,193.893 72.5653,191.727 69.5,190.5C 70.8333,190.5 72.1667,190.5 73.5,190.5C 75.7354,190.205 77.7354,190.539 79.5,191.5C 79.5,192.833 79.5,194.167 79.5,195.5C 84.9385,197.157 90.1052,199.49 95,202.5C 96.0495,201.483 97.2161,201.316 98.5,202C 101.062,204.413 104.062,206.08 107.5,207C 120.167,207.667 132.833,207.667 145.5,207C 147.377,205.815 149.377,204.815 151.5,204C 169.153,204.557 182.486,197.224 191.5,182C 195.099,181.236 197.099,179.07 197.5,175.5C 199.288,175.785 200.955,175.452 202.5,174.5C 203.815,172.684 205.315,171.017 207,169.5C 207.054,164.789 208.888,160.956 212.5,158C 219.053,141.251 220.553,124.084 217,106.5C 214.039,91.8054 207.039,79.1387 196,68.5C 194.991,66.9751 194.491,65.3084 194.5,63.5C 190.082,60.9381 185.749,58.1048 181.5,55C 178.834,52.8552 176.834,50.3552 175.5,47.5 Z"/></g>
<g><path style="opacity:1" fill="#62470f" d="M 179.5,175.5 C 179.833,175.5 180.167,175.5 180.5,175.5C 180.167,176.833 179.833,178.167 179.5,179.5C 176.91,180.749 174.576,182.416 172.5,184.5C 167.746,186.376 163.079,188.542 158.5,191C 156.866,191.494 155.199,191.66 153.5,191.5C 151.833,191.5 150.167,191.5 148.5,191.5C 152.293,190.569 155.959,189.235 159.5,187.5C 167.38,185.558 174.047,181.558 179.5,175.5 Z"/></g>
<g><path style="opacity:1" fill="#2d262c" d="M 215.5,175.5 C 215.66,177.199 215.494,178.866 215,180.5C 212.667,182.5 210.333,184.5 208,186.5C 207.517,187.448 207.351,188.448 207.5,189.5C 205.516,189.383 203.85,190.05 202.5,191.5C 199.523,198.002 194.523,202.169 187.5,204C 186.158,206.892 183.825,208.225 180.5,208C 179.32,210.598 177.32,212.264 174.5,213C 169.916,213.305 165.916,214.971 162.5,218C 157.833,218.667 153.167,219.333 148.5,220C 145.224,221.49 141.891,222.657 138.5,223.5C 133.833,220.833 129.167,220.833 124.5,223.5C 115.433,222.216 106.433,220.216 97.5,217.5C 96.5581,217.608 95.7247,217.941 95,218.5C 90.593,215.549 85.7596,213.549 80.5,212.5C 77.6845,213.13 75.0178,212.464 72.5,210.5C 72.1667,210.833 71.8333,211.167 71.5,211.5C 72.9079,212.243 74.2412,213.077 75.5,214C 74.451,214.492 73.451,214.326 72.5,213.5C 71.8076,214.025 71.3076,214.692 71,215.5C 68.6506,212.983 66.1506,210.65 63.5,208.5C 64.7287,207.719 66.062,207.219 67.5,207C 66.3333,205.833 65.1667,204.667 64,203.5C 63.6667,204.167 63.3333,204.833 63,205.5C 59.6045,202.601 58.7711,203.268 60.5,207.5C 58.2008,205.006 55.8675,202.506 53.5,200C 54.5156,199.481 55.1822,198.647 55.5,197.5C 54.7224,195.853 53.5557,194.52 52,193.5C 51.5172,192.552 51.3505,191.552 51.5,190.5C 47.0569,192.388 43.0569,191.721 39.5,188.5C 38.2532,186.958 38.2532,185.458 39.5,184C 41.2784,183.296 43.1118,182.796 45,182.5C 46.3756,182.684 47.2089,183.351 47.5,184.5C 47.5,185.167 47.5,185.833 47.5,186.5C 41.0339,186.71 41.0339,187.377 47.5,188.5C 50.003,189.371 52.6697,190.037 55.5,190.5C 57.9479,191.473 60.6146,191.806 63.5,191.5C 63.281,192.675 63.6143,193.675 64.5,194.5C 69.375,197.428 73.0417,201.428 75.5,206.5C 78.7848,207.324 82.1182,207.824 85.5,208C 88.3821,209.608 91.3821,210.941 94.5,212C 95.3366,213.011 95.67,214.178 95.5,215.5C 96.552,215.649 97.552,215.483 98.5,215C 97.3044,214.346 97.3044,213.846 98.5,213.5C 102.641,215.38 106.974,216.547 111.5,217C 119.745,217.183 127.912,217.683 136,218.5C 140.08,217.7 144.247,217.2 148.5,217C 157.782,215.81 165.782,212.143 172.5,206C 174.135,205.46 175.468,205.96 176.5,207.5C 178.131,205.703 180.131,204.536 182.5,204C 184.134,199.856 187.134,198.023 191.5,198.5C 191.351,197.448 191.517,196.448 192,195.5C 194.073,193.835 196.24,192.335 198.5,191C 200.298,186.903 203.131,183.737 207,181.5C 207.495,179.527 207.662,177.527 207.5,175.5C 210.339,175.031 213.005,175.031 215.5,175.5 Z"/></g>
<g><path style="opacity:1" fill="#583220" d="M 172.5,184.5 C 173.1,185.9 174.1,186.9 175.5,187.5C 175.5,188.167 175.5,188.833 175.5,189.5C 172.833,188.833 170.167,188.167 167.5,187.5C 167.5,188.5 167.5,189.5 167.5,190.5C 168.552,190.351 169.552,190.517 170.5,191C 164.235,193.151 157.902,195.151 151.5,197C 143.602,198.821 135.602,199.654 127.5,199.5C 127.5,198.5 127.5,197.5 127.5,196.5C 117.217,196.491 107.05,195.491 97,193.5C 95.9701,193.164 95.4701,192.497 95.5,191.5C 99.5,191.5 103.5,191.5 107.5,191.5C 108.833,191.5 110.167,191.5 111.5,191.5C 111.5,192.5 111.5,193.5 111.5,194.5C 122.865,194.209 134.199,194.543 145.5,195.5C 147.819,194.936 150.153,194.436 152.5,194C 153.252,193.329 153.586,192.496 153.5,191.5C 155.199,191.66 156.866,191.494 158.5,191C 163.079,188.542 167.746,186.376 172.5,184.5 Z"/></g>
<g><path style="opacity:1" fill="#4f2f26" d="M 175.5,189.5 C 171.574,192.807 167.24,195.64 162.5,198C 156.569,198.927 150.902,200.594 145.5,203C 134.116,202.419 122.782,202.585 111.5,203.5C 111.5,202.5 111.5,201.5 111.5,200.5C 106.448,198.32 101.114,196.82 95.5,196C 93.0139,195.344 91.3472,193.844 90.5,191.5C 92.1667,191.5 93.8333,191.5 95.5,191.5C 95.4701,192.497 95.9701,193.164 97,193.5C 107.05,195.491 117.217,196.491 127.5,196.5C 127.5,197.5 127.5,198.5 127.5,199.5C 135.602,199.654 143.602,198.821 151.5,197C 157.902,195.151 164.235,193.151 170.5,191C 169.552,190.517 168.552,190.351 167.5,190.5C 167.5,189.5 167.5,188.5 167.5,187.5C 170.167,188.167 172.833,188.833 175.5,189.5 Z"/></g>
<g><path style="opacity:1" fill="#5e380f" d="M 111.5,191.5 C 123.852,192.377 136.185,192.377 148.5,191.5C 150.167,191.5 151.833,191.5 153.5,191.5C 153.586,192.496 153.252,193.329 152.5,194C 150.153,194.436 147.819,194.936 145.5,195.5C 134.199,194.543 122.865,194.209 111.5,194.5C 111.5,193.5 111.5,192.5 111.5,191.5 Z"/></g>
<g><path style="opacity:1" fill="#4e3b06" d="M 73.5,190.5 C 73.5,190.167 73.5,189.833 73.5,189.5C 85.0135,189.708 96.3468,190.374 107.5,191.5C 103.5,191.5 99.5,191.5 95.5,191.5C 93.8333,191.5 92.1667,191.5 90.5,191.5C 86.8333,191.5 83.1667,191.5 79.5,191.5C 77.7354,190.539 75.7354,190.205 73.5,190.5 Z"/></g>
<g><path style="opacity:1" fill="#2e2605" d="M 47.5,188.5 C 56.1785,188.584 64.8451,188.917 73.5,189.5C 73.5,189.833 73.5,190.167 73.5,190.5C 72.1667,190.5 70.8333,190.5 69.5,190.5C 64.8333,190.5 60.1667,190.5 55.5,190.5C 52.6697,190.037 50.003,189.371 47.5,188.5 Z"/></g>
<g><path style="opacity:1" fill="#707162" d="M 47.5,186.5 C 47.5,187.167 47.5,187.833 47.5,188.5C 41.0339,187.377 41.0339,186.71 47.5,186.5 Z"/></g>
<g><path style="opacity:1" fill="#d6d368" d="M 71.5,184.5 C 70.2825,185.161 68.9492,185.828 67.5,186.5C 69.444,187.801 71.444,188.801 73.5,189.5C 64.8451,188.917 56.1785,188.584 47.5,188.5C 47.5,187.833 47.5,187.167 47.5,186.5C 55.5,185.833 63.5,185.167 71.5,184.5 Z"/></g>
<g><path style="opacity:1" fill="#fcfc43" d="M 89.5,183.5 C 96.8333,183.5 104.167,183.5 111.5,183.5C 111.5,184.5 111.5,185.5 111.5,186.5C 114.247,186.187 116.914,186.52 119.5,187.5C 104.149,188.555 88.8161,188.222 73.5,186.5C 78.9192,185.236 84.2525,184.236 89.5,183.5 Z"/></g>
<g><path style="opacity:1" fill="#42340b" d="M 72.5,182.5 C 74.8333,182.5 77.1667,182.5 79.5,182.5C 76.8333,183.167 74.1667,183.833 71.5,184.5C 63.5,185.167 55.5,185.833 47.5,186.5C 47.5,185.833 47.5,185.167 47.5,184.5C 49.5,184.5 51.5,184.5 53.5,184.5C 59.7708,183.289 66.1041,182.622 72.5,182.5 Z"/></g>
</svg>
