<?xml version="1.0" encoding="UTF-8"?>
<!DOCTYPE svg PUBLIC "-//W3C//DTD SVG 1.1//EN" "http://www.w3.org/Graphics/SVG/1.1/DTD/svg11.dtd">
<svg xmlns="http://www.w3.org/2000/svg" version="1.1" width="100px" height="100px" style="shape-rendering:geometricPrecision; text-rendering:geometricPrecision; image-rendering:optimizeQuality; fill-rule:evenodd; clip-rule:evenodd" xmlns:xlink="http://www.w3.org/1999/xlink">
<g><path style="opacity:1" fill="#050506" d="M 86.5,-0.5 C 90.8333,-0.5 95.1667,-0.5 99.5,-0.5C 99.5,12.8333 99.5,26.1667 99.5,39.5C 98.8333,38.5 98.1667,37.5 97.5,36.5C 96.4386,31.9897 94.7719,27.6564 92.5,23.5C 92.6135,14.9385 90.6135,6.93852 86.5,-0.5 Z"/></g>
<g><path style="opacity:1" fill="#0c1511" d="M 21.5,-0.5 C 40.1667,-0.5 58.8333,-0.5 77.5,-0.5C 74.9453,0.461133 72.612,1.79447 70.5,3.5C 69.1667,3.5 67.8333,3.5 66.5,3.5C 63.8291,1.88195 60.8291,1.21528 57.5,1.5C 51.6812,0.347453 45.6812,0.180787 39.5,1C 36.5432,1.27941 33.8766,2.11274 31.5,3.5C 28.0111,2.34196 24.6777,1.00862 21.5,-0.5 Z"/></g>
<g><path style="opacity:1" fill="#2e7c5a" d="M 13.5,-0.5 C 16.1667,-0.5 18.8333,-0.5 21.5,-0.5C 24.6777,1.00862 28.0111,2.34196 31.5,3.5C 31.5,4.16667 31.5,4.83333 31.5,5.5C 28.7378,4.62048 26.0711,3.45382 23.5,2C 17.4505,-1.28906 13.2839,0.210939 11,6.5C 8.5191,12.7048 8.0191,19.0381 9.5,25.5C 8.83333,24.1667 8.16667,22.8333 7.5,21.5C 6.46364,13.2841 8.46364,5.9508 13.5,-0.5 Z"/></g>
<g><path style="opacity:1" fill="#2fcd6c" d="M 57.5,1.5 C 48.7392,1.3282 40.0725,1.99486 31.5,3.5C 33.8766,2.11274 36.5432,1.27941 39.5,1C 45.6812,0.180787 51.6812,0.347453 57.5,1.5 Z"/></g>
<g><path style="opacity:1" fill="#081306" d="M 31.5,5.5 C 33.9123,8.41722 36.579,11.2506 39.5,14C 40.7932,14.49 42.1266,14.6567 43.5,14.5C 46.5184,14.3354 49.5184,14.502 52.5,15C 50.2922,15.1909 48.2922,15.6909 46.5,16.5C 43.4021,16.7556 40.4021,17.4222 37.5,18.5C 37.1583,17.6618 36.4916,17.3284 35.5,17.5C 36.1187,14.3689 34.7854,12.0356 31.5,10.5C 29.3649,8.92908 27.0316,7.59575 24.5,6.5C 23.0539,5.05984 21.2206,4.39317 19,4.5C 17.6153,4.51428 16.4486,4.84761 15.5,5.5C 15.5,5.83333 15.5,6.16667 15.5,6.5C 13.0668,10.1924 12.0668,14.3591 12.5,19C 12.2357,23.4059 13.0691,27.5726 15,31.5C 15.4643,30.9056 15.631,30.2389 15.5,29.5C 16.2679,30.2625 16.7679,31.2625 17,32.5C 17.6708,33.2524 18.5041,33.5858 19.5,33.5C 18.1798,36.8057 16.3465,39.8057 14,42.5C 13.0066,46.3126 12.1733,50.1459 11.5,54C 11.8333,55.5 12.1667,57 12.5,58.5C 14.3068,55.7809 16.6402,53.7809 19.5,52.5C 24.3855,52.2477 29.2188,52.581 34,53.5C 36.9707,51.6065 39.804,49.6065 42.5,47.5C 43.1667,47.5 43.8333,47.5 44.5,47.5C 48.5,47.5 52.5,47.5 56.5,47.5C 60.1659,52.2061 64.8326,53.8727 70.5,52.5C 69.7375,53.2679 68.7375,53.7679 67.5,54C 67.7284,54.3988 68.0618,54.5654 68.5,54.5C 66.3827,56.3162 64.0494,56.6496 61.5,55.5C 57.0871,50.1964 51.4205,48.3631 44.5,50C 41.0077,52.0056 37.6744,54.1722 34.5,56.5C 31.4415,55.3137 28.2748,54.647 25,54.5C 22.4563,54.336 20.2897,55.0027 18.5,56.5C 17.5041,56.4142 16.6708,56.7476 16,57.5C 14.3668,64.7353 16.5334,70.5686 22.5,75C 32.8158,82.8433 44.1492,85.3433 56.5,82.5C 57.8333,82.5 59.1667,82.5 60.5,82.5C 60.3893,83.1174 60.056,83.6174 59.5,84C 52.726,84.0779 46.0594,84.7446 39.5,86C 42.5,86.3333 45.5,86.6667 48.5,87C 49.4158,87.2784 50.0825,87.7784 50.5,88.5C 47.5,88.5 44.5,88.5 41.5,88.5C 37.6204,87.0289 33.6204,85.8622 29.5,85C 25.7802,83.1401 22.1136,81.3068 18.5,79.5C 15.0887,76.2584 12.2553,72.5917 10,68.5C 8.661,63.2636 8.161,57.9302 8.5,52.5C 9.16667,49.1667 9.83333,45.8333 10.5,42.5C 11.9931,41.6879 12.6598,40.3545 12.5,38.5C 10.9163,34.2714 9.91634,29.938 9.5,25.5C 8.0191,19.0381 8.5191,12.7048 11,6.5C 13.2839,0.210939 17.4505,-1.28906 23.5,2C 26.0711,3.45382 28.7378,4.62048 31.5,5.5 Z"/></g>
<g><path style="opacity:1" fill="#070505" d="M -0.5,-0.5 C 4.16667,-0.5 8.83333,-0.5 13.5,-0.5C 8.46364,5.9508 6.46364,13.2841 7.5,21.5C 4.42978,27.7242 1.76312,34.0575 -0.5,40.5C -0.5,26.8333 -0.5,13.1667 -0.5,-0.5 Z"/></g>
<g><path style="opacity:1" fill="#0cda33" d="M 57.5,1.5 C 60.8291,1.21528 63.8291,1.88195 66.5,3.5C 67.1098,4.39105 67.4431,5.39105 67.5,6.5C 64.5,8.16667 62.1667,10.5 60.5,13.5C 54.7512,13.5134 49.0845,13.8467 43.5,14.5C 42.1266,14.6567 40.7932,14.49 39.5,14C 36.579,11.2506 33.9123,8.41722 31.5,5.5C 31.5,4.83333 31.5,4.16667 31.5,3.5C 40.0725,1.99486 48.7392,1.3282 57.5,1.5 Z"/></g>
<g><path style="opacity:1" fill="#25a76c" d="M 66.5,3.5 C 67.8333,3.5 69.1667,3.5 70.5,3.5C 70.1898,5.14363 69.1898,6.14363 67.5,6.5C 67.4431,5.39105 67.1098,4.39105 66.5,3.5 Z"/></g>
<g><path style="opacity:1" fill="#107425" d="M 15.5,5.5 C 16.4486,4.84761 17.6153,4.51428 19,4.5C 21.2206,4.39317 23.0539,5.05984 24.5,6.5C 21.5448,5.84128 18.5448,5.50795 15.5,5.5 Z"/></g>
<g><path style="opacity:1" fill="#277758" d="M 77.5,-0.5 C 80.5,-0.5 83.5,-0.5 86.5,-0.5C 90.6135,6.93852 92.6135,14.9385 92.5,23.5C 91.8333,22.8333 91.1667,22.1667 90.5,21.5C 90.7746,13.9421 88.7746,7.10876 84.5,1C 79.7385,1.08132 75.0718,1.91465 70.5,3.5C 72.612,1.79447 74.9453,0.461133 77.5,-0.5 Z"/></g>
<g><path style="opacity:1" fill="#18b72f" d="M 15.5,6.5 C 15.5,7.83333 15.5,9.16667 15.5,10.5C 21.5755,9.37211 26.5755,11.0388 30.5,15.5C 26.3764,13.6057 22.0431,12.6057 17.5,12.5C 15.7903,17.9981 15.1236,23.6648 15.5,29.5C 15.631,30.2389 15.4643,30.9056 15,31.5C 13.0691,27.5726 12.2357,23.4059 12.5,19C 12.0668,14.3591 13.0668,10.1924 15.5,6.5 Z"/></g>
<g><path style="opacity:1" fill="#09da2f" d="M 15.5,5.5 C 18.5448,5.50795 21.5448,5.84128 24.5,6.5C 27.0316,7.59575 29.3649,8.92908 31.5,10.5C 32.5729,12.6531 32.5729,14.6531 31.5,16.5C 31.5,15.8333 31.1667,15.5 30.5,15.5C 26.5755,11.0388 21.5755,9.37211 15.5,10.5C 15.5,9.16667 15.5,7.83333 15.5,6.5C 15.5,6.16667 15.5,5.83333 15.5,5.5 Z"/></g>
<g><path style="opacity:1" fill="#129022" d="M 31.5,10.5 C 34.7854,12.0356 36.1187,14.3689 35.5,17.5C 33.901,17.7678 32.5676,17.4345 31.5,16.5C 32.5729,14.6531 32.5729,12.6531 31.5,10.5 Z"/></g>
<g><path style="opacity:1" fill="#092f0c" d="M 43.5,14.5 C 49.0845,13.8467 54.7512,13.5134 60.5,13.5C 58.8439,15.0603 56.8439,16.0603 54.5,16.5C 51.8333,16.5 49.1667,16.5 46.5,16.5C 48.2922,15.6909 50.2922,15.1909 52.5,15C 49.5184,14.502 46.5184,14.3354 43.5,14.5 Z"/></g>
<g><path style="opacity:1" fill="#1cb539" d="M 46.5,16.5 C 49.1667,16.5 51.8333,16.5 54.5,16.5C 57.9254,17.0912 60.9254,18.4245 63.5,20.5C 53.8333,17.8333 44.1667,17.8333 34.5,20.5C 35.2905,19.5987 36.2905,18.9321 37.5,18.5C 40.4021,17.4222 43.4021,16.7556 46.5,16.5 Z"/></g>
<g><path style="opacity:1" fill="#040803" d="M 30.5,15.5 C 31.1667,15.5 31.5,15.8333 31.5,16.5C 32.5676,17.4345 33.901,17.7678 35.5,17.5C 36.4916,17.3284 37.1583,17.6618 37.5,18.5C 36.2905,18.9321 35.2905,19.5987 34.5,20.5C 32.9731,20.427 31.9731,21.0937 31.5,22.5C 26.8686,25.4642 22.8686,29.1308 19.5,33.5C 18.5041,33.5858 17.6708,33.2524 17,32.5C 16.7679,31.2625 16.2679,30.2625 15.5,29.5C 15.1236,23.6648 15.7903,17.9981 17.5,12.5C 22.0431,12.6057 26.3764,13.6057 30.5,15.5 Z"/></g>
<g><path style="opacity:1" fill="#08d92f" d="M 63.5,20.5 C 67.5416,21.8514 70.8749,24.1848 73.5,27.5C 73.5,28.5 73.5,29.5 73.5,30.5C 71.5165,30.6168 69.8498,29.9501 68.5,28.5C 67.6143,29.325 67.281,30.325 67.5,31.5C 68.552,31.3505 69.552,31.5172 70.5,32C 68.765,32.6514 67.0983,32.4847 65.5,31.5C 65.4827,32.3937 65.1494,33.3937 64.5,34.5C 64.1667,34.5 63.8333,34.5 63.5,34.5C 60.5,34.1667 59.1667,35.5 59.5,38.5C 57.0799,38.2924 54.7466,38.6258 52.5,39.5C 51.3861,38.277 51.2195,36.9437 52,35.5C 55.8616,34.5471 59.6949,33.3805 63.5,32C 50.256,31.1323 50.256,29.9657 63.5,28.5C 63.5,27.5 63.5,26.5 63.5,25.5C 59.3302,23.7706 54.9969,23.2706 50.5,24C 51.8333,24.6667 51.8333,25.3333 50.5,26C 51.1667,26.3333 51.8333,26.6667 52.5,27C 50.8251,27.9853 49.1585,28.8186 47.5,29.5C 44.4581,27.6529 41.1247,26.3196 37.5,25.5C 36.8333,25.8333 36.1667,26.1667 35.5,26.5C 37.7723,28.6511 40.439,30.1511 43.5,31C 39.5232,31.6509 35.8566,30.8176 32.5,28.5C 31.6143,27.675 31.281,26.675 31.5,25.5C 36.7668,24.5624 36.7668,23.5624 31.5,22.5C 31.9731,21.0937 32.9731,20.427 34.5,20.5C 44.1667,17.8333 53.8333,17.8333 63.5,20.5 Z"/></g>
<g><path style="opacity:1" fill="#10d336" d="M 73.5,27.5 C 83.5323,35.7462 88.0323,46.4129 87,59.5C 83.1559,53.4997 77.6559,51.1664 70.5,52.5C 64.8326,53.8727 60.1659,52.2061 56.5,47.5C 59.0972,47.2792 59.0972,46.7792 56.5,46C 58.6922,44.6413 60.3589,42.8079 61.5,40.5C 61.1445,39.4777 60.4778,38.811 59.5,38.5C 59.1667,35.5 60.5,34.1667 63.5,34.5C 63.5,36.1667 63.5,37.8333 63.5,39.5C 65.8056,39.0074 68.139,38.6741 70.5,38.5C 70.2407,34.9319 68.2407,33.5985 64.5,34.5C 65.1494,33.3937 65.4827,32.3937 65.5,31.5C 67.0983,32.4847 68.765,32.6514 70.5,32C 69.552,31.5172 68.552,31.3505 67.5,31.5C 67.281,30.325 67.6143,29.325 68.5,28.5C 69.8498,29.9501 71.5165,30.6168 73.5,30.5C 73.5,29.5 73.5,28.5 73.5,27.5 Z"/></g>
<g><path style="opacity:1" fill="#119616" d="M 31.5,22.5 C 23.65,29.3657 19.3167,38.0324 18.5,48.5C 18.67,49.8221 18.3366,50.9887 17.5,52C 18.0944,52.4643 18.7611,52.631 19.5,52.5C 16.6402,53.7809 14.3068,55.7809 12.5,58.5C 12.1667,57 11.8333,55.5 11.5,54C 12.1733,50.1459 13.0066,46.3126 14,42.5C 16.3465,39.8057 18.1798,36.8057 19.5,33.5C 22.8686,29.1308 26.8686,25.4642 31.5,22.5 Z"/></g>
<g><path style="opacity:1" fill="#04dd2a" d="M 31.5,22.5 C 36.7668,23.5624 36.7668,24.5624 31.5,25.5C 31.281,26.675 31.6143,27.675 32.5,28.5C 35.8566,30.8176 39.5232,31.6509 43.5,31C 40.439,30.1511 37.7723,28.6511 35.5,26.5C 36.1667,26.1667 36.8333,25.8333 37.5,25.5C 41.1247,26.3196 44.4581,27.6529 47.5,29.5C 52.7997,30.4842 52.7997,31.4842 47.5,32.5C 52.4543,38.4167 51.1209,41.7501 43.5,42.5C 44.3094,44.0709 44.6427,45.7376 44.5,47.5C 43.8333,47.5 43.1667,47.5 42.5,47.5C 41.3951,46.3995 40.0618,45.7329 38.5,45.5C 39.1667,42.8333 39.8333,40.1667 40.5,37.5C 42.8333,37.5 45.1667,37.5 47.5,37.5C 47.5,36.5 47.5,35.5 47.5,34.5C 43.2952,33.6006 39.2952,33.6006 35.5,34.5C 34.1667,34.5 32.8333,34.5 31.5,34.5C 30.4324,33.5655 29.099,33.2322 27.5,33.5C 27.2606,35.4672 27.5939,37.3005 28.5,39C 26.4815,38.8475 24.4815,38.3475 22.5,37.5C 22.6399,39.1238 21.9733,40.2904 20.5,41C 24.8876,41.9968 25.5543,44.1635 22.5,47.5C 21.2638,48.2458 19.9305,48.5792 18.5,48.5C 19.3167,38.0324 23.65,29.3657 31.5,22.5 Z"/></g>
<g><path style="opacity:1" fill="#15fba1" d="M 63.5,34.5 C 63.8333,34.5 64.1667,34.5 64.5,34.5C 68.2407,33.5985 70.2407,34.9319 70.5,38.5C 68.139,38.6741 65.8056,39.0074 63.5,39.5C 63.5,37.8333 63.5,36.1667 63.5,34.5 Z"/></g>
<g><path style="opacity:1" fill="#05db2e" d="M 59.5,38.5 C 60.4778,38.811 61.1445,39.4777 61.5,40.5C 60.3589,42.8079 58.6922,44.6413 56.5,46C 59.0972,46.7792 59.0972,47.2792 56.5,47.5C 52.5,47.5 48.5,47.5 44.5,47.5C 44.6427,45.7376 44.3094,44.0709 43.5,42.5C 51.1209,41.7501 52.4543,38.4167 47.5,32.5C 52.7997,31.4842 52.7997,30.4842 47.5,29.5C 49.1585,28.8186 50.8251,27.9853 52.5,27C 51.8333,26.6667 51.1667,26.3333 50.5,26C 51.8333,25.3333 51.8333,24.6667 50.5,24C 54.9969,23.2706 59.3302,23.7706 63.5,25.5C 63.5,26.5 63.5,27.5 63.5,28.5C 50.256,29.9657 50.256,31.1323 63.5,32C 59.6949,33.3805 55.8616,34.5471 52,35.5C 51.2195,36.9437 51.3861,38.277 52.5,39.5C 54.7466,38.6258 57.0799,38.2924 59.5,38.5 Z"/></g>
<g><path style="opacity:1" fill="#0c2407" d="M 66.5,41.5 C 68.1667,41.5 69.8333,41.5 71.5,41.5C 71.5,42.5 71.5,43.5 71.5,44.5C 67.9168,44.1945 64.7501,45.1945 62,47.5C 60.7425,47.1501 60.4092,46.4835 61,45.5C 63.167,44.5119 65.0003,43.1786 66.5,41.5 Z"/></g>
<g><path style="opacity:1" fill="#14884e" d="M 97.5,36.5 C 98.1667,37.5 98.8333,38.5 99.5,39.5C 99.5,40.8333 99.5,42.1667 99.5,43.5C 98.8333,42.5 98.1667,41.5 97.5,40.5C 97.5,39.1667 97.5,37.8333 97.5,36.5 Z"/></g>
<g><path style="opacity:1" fill="#0ed733" d="M 90.5,21.5 C 91.1667,22.1667 91.8333,22.8333 92.5,23.5C 94.7719,27.6564 96.4386,31.9897 97.5,36.5C 97.5,37.8333 97.5,39.1667 97.5,40.5C 97.8811,49.6011 97.2145,58.6011 95.5,67.5C 95.5,68.1667 95.5,68.8333 95.5,69.5C 94.7784,69.0825 94.2784,68.4158 94,67.5C 93,70.1667 92,72.8333 91,75.5C 85.8066,78.4931 84.6399,77.4931 87.5,72.5C 91.6895,64.5728 92.5228,56.2395 90,47.5C 88.2392,44.5507 87.0725,41.384 86.5,38C 88.4022,32.4967 89.7355,26.9967 90.5,21.5 Z"/></g>
<g><path style="opacity:1" fill="#0fd536" d="M 31.5,34.5 C 30.4138,34.62 29.7472,35.2867 29.5,36.5C 31.0261,39.0918 33.3595,40.0918 36.5,39.5C 36.634,37.7085 36.3007,36.0418 35.5,34.5C 39.2952,33.6006 43.2952,33.6006 47.5,34.5C 47.5,35.5 47.5,36.5 47.5,37.5C 45.1667,37.5 42.8333,37.5 40.5,37.5C 39.8333,40.1667 39.1667,42.8333 38.5,45.5C 40.0618,45.7329 41.3951,46.3995 42.5,47.5C 39.804,49.6065 36.9707,51.6065 34,53.5C 29.2188,52.581 24.3855,52.2477 19.5,52.5C 18.7611,52.631 18.0944,52.4643 17.5,52C 18.3366,50.9887 18.67,49.8221 18.5,48.5C 19.9305,48.5792 21.2638,48.2458 22.5,47.5C 25.5543,44.1635 24.8876,41.9968 20.5,41C 21.9733,40.2904 22.6399,39.1238 22.5,37.5C 24.4815,38.3475 26.4815,38.8475 28.5,39C 27.5939,37.3005 27.2606,35.4672 27.5,33.5C 29.099,33.2322 30.4324,33.5655 31.5,34.5 Z"/></g>
<g><path style="opacity:1" fill="#0b2109" d="M 38.5,45.5 C 38.6309,46.3764 38.2975,47.0431 37.5,47.5C 34.3974,45.6876 31.0641,44.6876 27.5,44.5C 27.5,43.5 27.5,42.5 27.5,41.5C 31.6358,41.6553 35.3025,42.9886 38.5,45.5 Z"/></g>
<g><path style="opacity:1" fill="#18f89b" d="M 31.5,34.5 C 32.8333,34.5 34.1667,34.5 35.5,34.5C 36.3007,36.0418 36.634,37.7085 36.5,39.5C 33.3595,40.0918 31.0261,39.0918 29.5,36.5C 29.7472,35.2867 30.4138,34.62 31.5,34.5 Z"/></g>
<g><path style="opacity:1" fill="#0dd92f" d="M 10.5,42.5 C 9.83333,45.8333 9.16667,49.1667 8.5,52.5C 7.83354,57.0166 7.16687,61.6833 6.5,66.5C 5.61432,65.675 5.28099,64.675 5.5,63.5C 4.5,63.5 3.5,63.5 2.5,63.5C 2.5,59.1667 2.5,54.8333 2.5,50.5C 3.5,50.5 4.5,50.5 5.5,50.5C 5.5,49.5 5.5,48.5 5.5,47.5C 4.5,47.5 3.5,47.5 2.5,47.5C 2.02208,40.3056 3.68875,33.6389 7.5,27.5C 8.50612,32.5306 9.50612,37.5306 10.5,42.5 Z"/></g>
<g><path style="opacity:1" fill="#1edc6f" d="M 97.5,40.5 C 98.1667,41.5 98.8333,42.5 99.5,43.5C 99.5,48.1667 99.5,52.8333 99.5,57.5C 98.9992,61.1343 97.6658,64.4676 95.5,67.5C 97.2145,58.6011 97.8811,49.6011 97.5,40.5 Z"/></g>
<g><path style="opacity:1" fill="#14f5bc" d="M 61.5,55.5 C 62.0483,58.0838 63.715,59.0838 66.5,58.5C 66.5,59.5 66.5,60.5 66.5,61.5C 62.5775,65.3909 57.9108,66.3909 52.5,64.5C 50.743,60.7866 51.5763,57.7866 55,55.5C 55.6667,54.5 55.6667,53.5 55,52.5C 51.5915,51.3781 48.0915,51.2114 44.5,52C 43.9781,52.5613 43.6448,53.228 43.5,54C 50.344,63.1781 48.0106,66.8447 36.5,65C 34.9095,63.9542 33.4095,62.7875 32,61.5C 32.4947,64.5047 34.3281,66.5047 37.5,67.5C 39.2861,70.2082 39.6195,73.0415 38.5,76C 39.1666,78.1505 40.4999,79.6505 42.5,80.5C 39.0949,80.4881 36.9283,78.8215 36,75.5C 35.0094,76.9389 33.676,77.9389 32,78.5C 30.5557,76.8446 28.7224,76.178 26.5,76.5C 25.6691,71.1828 23.3357,66.6828 19.5,63C 20.6318,60.7899 22.1318,60.2899 24,61.5C 25.0588,61.3699 25.8921,60.8699 26.5,60C 24.1287,58.1214 21.4621,56.9547 18.5,56.5C 20.2897,55.0027 22.4563,54.336 25,54.5C 28.2748,54.647 31.4415,55.3137 34.5,56.5C 37.6744,54.1722 41.0077,52.0056 44.5,50C 51.4205,48.3631 57.0871,50.1964 61.5,55.5 Z"/></g>
<g><path style="opacity:1" fill="#081106" d="M 90.5,21.5 C 89.7355,26.9967 88.4022,32.4967 86.5,38C 87.0725,41.384 88.2392,44.5507 90,47.5C 92.5228,56.2395 91.6895,64.5728 87.5,72.5C 84.8333,74.8333 82.1667,77.1667 79.5,79.5C 79.3433,78.1266 79.51,76.7932 80,75.5C 82.3012,74.1226 82.8012,72.456 81.5,70.5C 82.537,67.8143 83.537,65.1477 84.5,62.5C 84.429,57.928 82.0957,55.428 77.5,55C 74.5184,54.502 71.5184,54.3354 68.5,54.5C 68.0618,54.5654 67.7284,54.3988 67.5,54C 68.7375,53.7679 69.7375,53.2679 70.5,52.5C 77.6559,51.1664 83.1559,53.4997 87,59.5C 88.0323,46.4129 83.5323,35.7462 73.5,27.5C 70.8749,24.1848 67.5416,21.8514 63.5,20.5C 60.9254,18.4245 57.9254,17.0912 54.5,16.5C 56.8439,16.0603 58.8439,15.0603 60.5,13.5C 62.1667,10.5 64.5,8.16667 67.5,6.5C 69.1898,6.14363 70.1898,5.14363 70.5,3.5C 75.0718,1.91465 79.7385,1.08132 84.5,1C 88.7746,7.10876 90.7746,13.9421 90.5,21.5 Z"/></g>
<g><path style="opacity:1" fill="#0f7912" d="M 86.5,15.5 C 87.7359,20.4422 87.4025,25.4422 85.5,30.5C 85.1667,30.8333 84.8333,31.1667 84.5,31.5C 83.5108,27.8927 83.1774,24.226 83.5,20.5C 84.3171,22.9686 84.8171,25.6353 85,28.5C 85.7354,24.1866 86.2354,19.8533 86.5,15.5 Z"/></g>
<g><path style="opacity:1" fill="#11c72a" d="M 86.5,15.5 C 86.2354,19.8533 85.7354,24.1866 85,28.5C 84.8171,25.6353 84.3171,22.9686 83.5,20.5C 83.382,16.2084 81.382,13.5417 77.5,12.5C 72.8207,14.1706 68.154,15.8373 63.5,17.5C 63.2693,14.2155 64.6026,11.7155 67.5,10C 71.6065,6.78153 76.2731,4.9482 81.5,4.5C 83.4251,4.59036 84.5917,5.59036 85,7.5C 85.8215,10.1168 86.3215,12.7835 86.5,15.5 Z"/></g>
<g><path style="opacity:1" fill="#13f5c0" d="M 68.5,54.5 C 71.5184,54.3354 74.5184,54.502 77.5,55C 82.0957,55.428 84.429,57.928 84.5,62.5C 83.537,65.1477 82.537,67.8143 81.5,70.5C 75.5762,76.2978 68.5762,80.2978 60.5,82.5C 59.1667,82.5 57.8333,82.5 56.5,82.5C 52.1193,80.7895 47.4526,80.1228 42.5,80.5C 40.4999,79.6505 39.1666,78.1505 38.5,76C 39.6195,73.0415 39.2861,70.2082 37.5,67.5C 39.1172,68.038 40.7839,68.3713 42.5,68.5C 42.9879,78.2192 47.1546,80.5526 55,75.5C 55.977,73.26 56.477,70.9267 56.5,68.5C 61.4832,68.1747 65.4832,66.008 68.5,62C 67.9056,61.5357 67.2389,61.369 66.5,61.5C 66.5,60.5 66.5,59.5 66.5,58.5C 63.715,59.0838 62.0483,58.0838 61.5,55.5C 64.0494,56.6496 66.3827,56.3162 68.5,54.5 Z"/></g>
<g><path style="opacity:1" fill="#0e1c12" d="M 66.5,61.5 C 67.2389,61.369 67.9056,61.5357 68.5,62C 65.4832,66.008 61.4832,68.1747 56.5,68.5C 56.477,70.9267 55.977,73.26 55,75.5C 47.1546,80.5526 42.9879,78.2192 42.5,68.5C 40.7839,68.3713 39.1172,68.038 37.5,67.5C 34.3281,66.5047 32.4947,64.5047 32,61.5C 33.4095,62.7875 34.9095,63.9542 36.5,65C 48.0106,66.8447 50.344,63.1781 43.5,54C 43.6448,53.228 43.9781,52.5613 44.5,52C 48.0915,51.2114 51.5915,51.3781 55,52.5C 55.6667,53.5 55.6667,54.5 55,55.5C 51.5763,57.7866 50.743,60.7866 52.5,64.5C 57.9108,66.3909 62.5775,65.3909 66.5,61.5 Z"/></g>
<g><path style="opacity:1" fill="#25ab32" d="M 52.5,68.5 C 50.5,68.5 48.5,68.5 46.5,68.5C 46.5,70.1667 46.5,71.8333 46.5,73.5C 45.5386,71.7354 45.2053,69.7354 45.5,67.5C 47.0603,67.4809 48.5603,67.1476 50,66.5C 51.301,66.6387 52.1344,67.3054 52.5,68.5 Z"/></g>
<g><path style="opacity:1" fill="#15d928" d="M 52.5,68.5 C 54.9202,73.8204 53.2535,75.987 47.5,75C 46.944,74.6174 46.6107,74.1174 46.5,73.5C 46.5,71.8333 46.5,70.1667 46.5,68.5C 48.5,68.5 50.5,68.5 52.5,68.5 Z"/></g>
<g><path style="opacity:1" fill="#060805" d="M 99.5,57.5 C 99.5,71.5 99.5,85.5 99.5,99.5C 85.5,99.5 71.5,99.5 57.5,99.5C 75.1311,95.8771 87.7977,85.8771 95.5,69.5C 95.5,68.8333 95.5,68.1667 95.5,67.5C 97.6658,64.4676 98.9992,61.1343 99.5,57.5 Z"/></g>
<g><path style="opacity:1" fill="#1acb49" d="M 7.5,21.5 C 8.16667,22.8333 8.83333,24.1667 9.5,25.5C 9.91634,29.938 10.9163,34.2714 12.5,38.5C 12.6598,40.3545 11.9931,41.6879 10.5,42.5C 9.50612,37.5306 8.50612,32.5306 7.5,27.5C 3.68875,33.6389 2.02208,40.3056 2.5,47.5C 3.5,47.5 4.5,47.5 5.5,47.5C 5.5,48.5 5.5,49.5 5.5,50.5C 4.5,50.5 3.5,50.5 2.5,50.5C 2.5,54.8333 2.5,59.1667 2.5,63.5C 3.5,63.5 4.5,63.5 5.5,63.5C 5.28099,64.675 5.61432,65.675 6.5,66.5C 7.16687,61.6833 7.83354,57.0166 8.5,52.5C 8.161,57.9302 8.661,63.2636 10,68.5C 12.2553,72.5917 15.0887,76.2584 18.5,79.5C 17.5041,79.4142 16.6708,79.7476 16,80.5C 14.9872,75.5207 13.1539,74.854 10.5,78.5C 13.0548,80.6989 14.7215,83.3656 15.5,86.5C 7.00653,78.1794 1.6732,68.1794 -0.5,56.5C -0.5,51.1667 -0.5,45.8333 -0.5,40.5C 1.76312,34.0575 4.42978,27.7242 7.5,21.5 Z"/></g>
<g><path style="opacity:1" fill="#070a06" d="M 81.5,70.5 C 82.8012,72.456 82.3012,74.1226 80,75.5C 79.51,76.7932 79.3433,78.1266 79.5,79.5C 70.8785,85.4827 61.2118,88.4827 50.5,88.5C 50.0825,87.7784 49.4158,87.2784 48.5,87C 45.5,86.6667 42.5,86.3333 39.5,86C 46.0594,84.7446 52.726,84.0779 59.5,84C 60.056,83.6174 60.3893,83.1174 60.5,82.5C 68.5762,80.2978 75.5762,76.2978 81.5,70.5 Z"/></g>
<g><path style="opacity:1" fill="#16d242" d="M 95.5,69.5 C 87.7977,85.8771 75.1311,95.8771 57.5,99.5C 52.1667,99.5 46.8333,99.5 41.5,99.5C 38.4954,97.7234 35.1621,96.7234 31.5,96.5C 31.5,96.1667 31.5,95.8333 31.5,95.5C 41.1442,96.5267 50.8109,96.6933 60.5,96C 57.8333,95.6667 55.1667,95.3333 52.5,95C 52.0426,94.586 51.7093,94.086 51.5,93.5C 54.9965,92.277 58.4965,92.277 62,93.5C 63.7601,92.3699 65.5934,91.3699 67.5,90.5C 66.6721,89.5853 65.6721,88.9186 64.5,88.5C 57.2833,90.4095 49.9499,90.9095 42.5,90C 41.944,89.6174 41.6107,89.1174 41.5,88.5C 44.5,88.5 47.5,88.5 50.5,88.5C 61.2118,88.4827 70.8785,85.4827 79.5,79.5C 82.1667,77.1667 84.8333,74.8333 87.5,72.5C 84.6399,77.4931 85.8066,78.4931 91,75.5C 92,72.8333 93,70.1667 94,67.5C 94.2784,68.4158 94.7784,69.0825 95.5,69.5 Z"/></g>
<g><path style="opacity:1" fill="#16efa8" d="M 18.5,56.5 C 21.4621,56.9547 24.1287,58.1214 26.5,60C 25.8921,60.8699 25.0588,61.3699 24,61.5C 22.1318,60.2899 20.6318,60.7899 19.5,63C 23.3357,66.6828 25.6691,71.1828 26.5,76.5C 28.7224,76.178 30.5557,76.8446 32,78.5C 33.676,77.9389 35.0094,76.9389 36,75.5C 36.9283,78.8215 39.0949,80.4881 42.5,80.5C 47.4526,80.1228 52.1193,80.7895 56.5,82.5C 44.1492,85.3433 32.8158,82.8433 22.5,75C 16.5334,70.5686 14.3668,64.7353 16,57.5C 16.6708,56.7476 17.5041,56.4142 18.5,56.5 Z"/></g>
<g><path style="opacity:1" fill="#0dda33" d="M 18.5,79.5 C 22.1136,81.3068 25.7802,83.1401 29.5,85C 33.6204,85.8622 37.6204,87.0289 41.5,88.5C 41.6107,89.1174 41.944,89.6174 42.5,90C 49.9499,90.9095 57.2833,90.4095 64.5,88.5C 65.6721,88.9186 66.6721,89.5853 67.5,90.5C 65.5934,91.3699 63.7601,92.3699 62,93.5C 58.4965,92.277 54.9965,92.277 51.5,93.5C 51.7093,94.086 52.0426,94.586 52.5,95C 55.1667,95.3333 57.8333,95.6667 60.5,96C 50.8109,96.6933 41.1442,96.5267 31.5,95.5C 25.2791,94.0568 19.9458,91.0568 15.5,86.5C 14.7215,83.3656 13.0548,80.6989 10.5,78.5C 13.1539,74.854 14.9872,75.5207 16,80.5C 16.6708,79.7476 17.5041,79.4142 18.5,79.5 Z"/></g>
<g><path style="opacity:1" fill="#060705" d="M -0.5,56.5 C 1.6732,68.1794 7.00653,78.1794 15.5,86.5C 19.9458,91.0568 25.2791,94.0568 31.5,95.5C 31.5,95.8333 31.5,96.1667 31.5,96.5C 33.5,97.5 35.5,98.5 37.5,99.5C 24.8333,99.5 12.1667,99.5 -0.5,99.5C -0.5,85.1667 -0.5,70.8333 -0.5,56.5 Z"/></g>
<g><path style="opacity:1" fill="#1e8747" d="M 31.5,96.5 C 35.1621,96.7234 38.4954,97.7234 41.5,99.5C 40.1667,99.5 38.8333,99.5 37.5,99.5C 35.5,98.5 33.5,97.5 31.5,96.5 Z"/></g>
</svg>
