<?xml version="1.0" encoding="UTF-8"?>
<!DOCTYPE svg PUBLIC "-//W3C//DTD SVG 1.1//EN" "http://www.w3.org/Graphics/SVG/1.1/DTD/svg11.dtd">
<svg xmlns="http://www.w3.org/2000/svg" version="1.1" width="50px" height="50px" style="shape-rendering:geometricPrecision; text-rendering:geometricPrecision; image-rendering:optimizeQuality; fill-rule:evenodd; clip-rule:evenodd" xmlns:xlink="http://www.w3.org/1999/xlink">
<g><path style="opacity:0.957" fill="#fcf3ea" d="M 18.5,-0.5 C 22.5,-0.5 26.5,-0.5 30.5,-0.5C 39.8419,2.84193 46.1753,9.17526 49.5,18.5C 49.5,22.5 49.5,26.5 49.5,30.5C 46.1753,39.8247 39.8419,46.1581 30.5,49.5C 26.5,49.5 22.5,49.5 18.5,49.5C 9.15807,46.1581 2.82474,39.8247 -0.5,30.5C -0.5,26.5 -0.5,22.5 -0.5,18.5C 2.82474,9.17526 9.15807,2.84193 18.5,-0.5 Z"/></g>
<g><path style="opacity:1" fill="#85685d" d="M 28.5,16.5 C 28.5858,15.5041 28.2524,14.6708 27.5,14C 23.1667,13.3333 18.8333,13.3333 14.5,14C 15.1667,14.3333 15.8333,14.6667 16.5,15C 10.6624,15.33 10.329,16.1633 15.5,17.5C 16.2389,17.369 16.9056,17.5357 17.5,18C 14.4557,18.3589 14.1224,19.0255 16.5,20C 19.5,20.3333 22.5,20.6667 25.5,21C 23.6183,21.1981 21.9516,21.6981 20.5,22.5C 15.1412,21.4698 10.8079,18.8031 7.5,14.5C 9.10822,13.7579 10.7749,13.5913 12.5,14C 11.0072,12.8438 11.1739,12.0104 13,11.5C 18.462,12.2645 23.962,12.7645 29.5,13C 30.8333,15 32.1667,17 33.5,19C 39.0976,19.2635 41.9309,22.0968 42,27.5C 40.9326,26.8095 39.7659,26.3095 38.5,26C 39.1667,25.6667 39.8333,25.3333 40.5,25C 34.9481,24.2711 30.9481,21.4377 28.5,16.5 Z"/></g>
<g><path style="opacity:1" fill="#d4ac8e" d="M 28.5,16.5 C 23.9679,15.111 19.6346,15.4444 15.5,17.5C 10.329,16.1633 10.6624,15.33 16.5,15C 15.8333,14.6667 15.1667,14.3333 14.5,14C 18.8333,13.3333 23.1667,13.3333 27.5,14C 28.2524,14.6708 28.5858,15.5041 28.5,16.5 Z"/></g>
<g><path style="opacity:1" fill="#858481" d="M 20.5,22.5 C 24.8038,23.1306 29.1371,23.6306 33.5,24C 32.6195,24.7083 31.9528,25.5416 31.5,26.5C 30.8333,26.1667 30.1667,25.8333 29.5,25.5C 27.7354,24.5386 25.7354,24.2053 23.5,24.5C 22.2905,24.0679 21.2905,23.4013 20.5,22.5 Z"/></g>
<g><path style="opacity:1" fill="#ece8e2" d="M 29.5,25.5 C 30.1667,25.8333 30.8333,26.1667 31.5,26.5C 31.719,27.675 31.3857,28.675 30.5,29.5C 28.3448,29.162 26.0115,29.162 23.5,29.5C 25.1475,27.6736 27.1475,26.3403 29.5,25.5 Z"/></g>
<g><path style="opacity:1" fill="#c4987b" d="M 23.5,24.5 C 25.7354,24.2053 27.7354,24.5386 29.5,25.5C 27.1475,26.3403 25.1475,27.6736 23.5,29.5C 22.1667,30.5 20.8333,31.5 19.5,32.5C 18.6618,32.1583 18.3284,31.4916 18.5,30.5C 20.1667,28.5 21.8333,26.5 23.5,24.5 Z"/></g>
<g><path style="opacity:1" fill="#777673" d="M 31.5,26.5 C 32.9217,26.7086 34.255,27.2086 35.5,28C 32.1291,29.891 28.4624,31.0576 24.5,31.5C 24.0576,32.7387 23.3909,33.7387 22.5,34.5C 22.6287,32.7839 22.962,31.1172 23.5,29.5C 26.0115,29.162 28.3448,29.162 30.5,29.5C 31.3857,28.675 31.719,27.675 31.5,26.5 Z"/></g>
<g><path style="opacity:1" fill="#f3eee7" d="M 23.5,29.5 C 22.962,31.1172 22.6287,32.7839 22.5,34.5C 21.4799,36.9341 20.1466,36.9341 18.5,34.5C 18.8627,33.8165 19.1961,33.1499 19.5,32.5C 20.8333,31.5 22.1667,30.5 23.5,29.5 Z"/></g>
<g><path style="opacity:1" fill="#756f69" d="M 18.5,30.5 C 18.3284,31.4916 18.6618,32.1583 19.5,32.5C 19.1961,33.1499 18.8627,33.8165 18.5,34.5C 20.1466,36.9341 21.4799,36.9341 22.5,34.5C 22.4959,36.8421 21.6625,38.8421 20,40.5C 19.6667,39.1667 19.3333,37.8333 19,36.5C 18.3848,38.1161 17.3848,39.4495 16,40.5C 15.6824,38.9391 14.8491,37.7724 13.5,37C 15.0303,34.648 16.6969,32.4813 18.5,30.5 Z"/></g>
</svg>
