<?xml version="1.0" encoding="UTF-8"?>
<!DOCTYPE svg PUBLIC "-//W3C//DTD SVG 1.1//EN" "http://www.w3.org/Graphics/SVG/1.1/DTD/svg11.dtd">
<svg xmlns="http://www.w3.org/2000/svg" version="1.1" width="50px" height="50px" style="shape-rendering:geometricPrecision; text-rendering:geometricPrecision; image-rendering:optimizeQuality; fill-rule:evenodd; clip-rule:evenodd" xmlns:xlink="http://www.w3.org/1999/xlink">
<g><path style="opacity:1" fill="#050200" d="M -0.5,-0.5 C 16.1667,-0.5 32.8333,-0.5 49.5,-0.5C 49.5,16.1667 49.5,32.8333 49.5,49.5C 32.8333,49.5 16.1667,49.5 -0.5,49.5C -0.5,32.8333 -0.5,16.1667 -0.5,-0.5 Z"/></g>
<g><path style="opacity:1" fill="#f18900" d="M 34.5,16.5 C 32.4086,16.6816 30.4086,16.3482 28.5,15.5C 28.1667,15.6667 27.8333,15.8333 27.5,16C 28.5,17 29.5,18 30.5,19C 27.1667,19.3333 23.8333,19.6667 20.5,20C 25.3865,22.1866 30.3865,24.1866 35.5,26C 35.8333,26.3333 36.1667,26.6667 36.5,27C 34.968,27.6995 33.968,28.8662 33.5,30.5C 30.6936,31.1051 28.3603,32.4384 26.5,34.5C 21.544,35.4941 16.544,35.8275 11.5,35.5C 16.2138,33.3336 20.8805,30.8336 25.5,28C 21.1794,27.501 16.8461,27.3343 12.5,27.5C 12.6716,26.5084 12.3382,25.8417 11.5,25.5C 9.44335,23.1431 9.11001,20.4764 10.5,17.5C 12.3817,18.0933 14.2151,18.7599 16,19.5C 15.2923,16.5113 15.459,13.5113 16.5,10.5C 18.061,9.65273 19.561,9.98607 21,11.5C 21.5609,8.70998 22.8942,6.37665 25,4.5C 28.3807,8.37504 31.5474,12.375 34.5,16.5 Z"/></g>
<g><path style="opacity:1" fill="#eb6a09" d="M 34.5,16.5 C 37.1356,19.3098 39.6356,22.3098 42,25.5C 42.8471,29.0723 42.3471,32.4057 40.5,35.5C 30.7351,36.8165 21.0684,36.8165 11.5,35.5C 16.544,35.8275 21.544,35.4941 26.5,34.5C 28.3603,32.4384 30.6936,31.1051 33.5,30.5C 33.968,28.8662 34.968,27.6995 36.5,27C 36.1667,26.6667 35.8333,26.3333 35.5,26C 30.3865,24.1866 25.3865,22.1866 20.5,20C 23.8333,19.6667 27.1667,19.3333 30.5,19C 29.5,18 28.5,17 27.5,16C 27.8333,15.8333 28.1667,15.6667 28.5,15.5C 30.4086,16.3482 32.4086,16.6816 34.5,16.5 Z"/></g>
<g><path style="opacity:1" fill="#524002" d="M 11.5,25.5 C 12.3382,25.8417 12.6716,26.5084 12.5,27.5C 10.5,27.5 8.5,27.5 6.5,27.5C 6.5,28.5 6.5,29.5 6.5,30.5C 5.56552,29.4324 5.23219,28.099 5.5,26.5C 7.73535,26.7947 9.73535,26.4614 11.5,25.5 Z"/></g>
<g><path style="opacity:1" fill="#f1a800" d="M 12.5,27.5 C 16.8461,27.3343 21.1794,27.501 25.5,28C 20.8805,30.8336 16.2138,33.3336 11.5,35.5C 11.1667,35.5 10.8333,35.5 10.5,35.5C 8.41311,34.4154 7.07978,32.7488 6.5,30.5C 6.5,29.5 6.5,28.5 6.5,27.5C 8.5,27.5 10.5,27.5 12.5,27.5 Z"/></g>
<g><path style="opacity:1" fill="#5b330d" d="M 10.5,35.5 C 10.8333,35.5 11.1667,35.5 11.5,35.5C 21.0684,36.8165 30.7351,36.8165 40.5,35.5C 42.8333,36.1667 45.1667,36.8333 47.5,37.5C 45.8008,37.3398 44.1341,37.5065 42.5,38C 43.056,38.3826 43.3893,38.8826 43.5,39.5C 42.8333,40.8333 42.1667,42.1667 41.5,43.5C 41.5,43.1667 41.5,42.8333 41.5,42.5C 41.5,40.8333 41.5,39.1667 41.5,37.5C 39.8333,37.5 38.1667,37.5 36.5,37.5C 36.1667,37.5 35.8333,37.5 35.5,37.5C 33.8333,37.5 32.1667,37.5 30.5,37.5C 24.8333,37.5 19.1667,37.5 13.5,37.5C 13.4427,42.6817 12.776,42.6817 11.5,37.5C 10.224,42.6817 9.55732,42.6817 9.5,37.5C 6.83333,37.5 4.16667,37.5 1.5,37.5C 4.5,36.8333 7.5,36.1667 10.5,35.5 Z"/></g>
<g><path style="opacity:1" fill="#e8d3bd" d="M 47.5,37.5 C 47.6716,38.4916 47.3382,39.1583 46.5,39.5C 45.7321,40.2625 45.2321,41.2625 45,42.5C 44.7679,41.2625 44.2679,40.2625 43.5,39.5C 43.3893,38.8826 43.056,38.3826 42.5,38C 44.1341,37.5065 45.8008,37.3398 47.5,37.5 Z"/></g>
<g><path style="opacity:1" fill="#f7f1eb" d="M 36.5,37.5 C 38.1667,37.5 39.8333,37.5 41.5,37.5C 41.5,39.1667 41.5,40.8333 41.5,42.5C 39.8333,42.5 38.1667,42.5 36.5,42.5C 36.5,40.8333 36.5,39.1667 36.5,37.5 Z"/></g>
<g><path style="opacity:1" fill="#6d4e2e" d="M 43.5,39.5 C 44.2679,40.2625 44.7679,41.2625 45,42.5C 45.2321,41.2625 45.7321,40.2625 46.5,39.5C 46.5,40.8333 46.5,42.1667 46.5,43.5C 45.5,43.5 44.5,43.5 43.5,43.5C 43.5,42.1667 43.5,40.8333 43.5,39.5 Z"/></g>
<g><path style="opacity:1" fill="#cfaf8f" d="M 1.5,37.5 C 4.16667,37.5 6.83333,37.5 9.5,37.5C 9.55732,42.6817 10.224,42.6817 11.5,37.5C 12.776,42.6817 13.4427,42.6817 13.5,37.5C 19.1667,37.5 24.8333,37.5 30.5,37.5C 30.5,39.1667 30.5,40.8333 30.5,42.5C 32.1667,42.5 33.8333,42.5 35.5,42.5C 35.5,40.8333 35.5,39.1667 35.5,37.5C 35.8333,37.5 36.1667,37.5 36.5,37.5C 36.5,39.1667 36.5,40.8333 36.5,42.5C 38.1667,42.5 39.8333,42.5 41.5,42.5C 41.5,42.8333 41.5,43.1667 41.5,43.5C 28.1667,42.1667 14.8333,42.1667 1.5,43.5C 1.5,41.5 1.5,39.5 1.5,37.5 Z"/></g>
<g><path style="opacity:1" fill="#eed7bf" d="M 30.5,37.5 C 32.1667,37.5 33.8333,37.5 35.5,37.5C 35.5,39.1667 35.5,40.8333 35.5,42.5C 33.8333,42.5 32.1667,42.5 30.5,42.5C 30.5,40.8333 30.5,39.1667 30.5,37.5 Z"/></g>
</svg>
