<?xml version="1.0" standalone="no"?>
<!DOCTYPE svg PUBLIC "-//W3C//DTD SVG 20010904//EN"
 "http://www.w3.org/TR/2001/REC-SVG-20010904/DTD/svg10.dtd">
<svg version="1.0" xmlns="http://www.w3.org/2000/svg"
 width="675.000000pt" height="497.000000pt" viewBox="0 0 675.000000 497.000000"
 preserveAspectRatio="xMidYMid meet">

<g transform="translate(0.000000,497.000000) scale(0.100000,-0.100000)"
fill="#000000" stroke="none">
<path d="M0 2485 l0 -2485 3375 0 3375 0 0 2485 0 2485 -3375 0 -3375 0 0
-2485z m6013 1557 c44 -129 47 -146 47 -238 0 -130 17 -179 76 -219 35 -24 48
-41 63 -85 11 -30 60 -172 110 -314 50 -143 90 -260 88 -261 -5 -5 -395 -95
-408 -95 -9 0 -39 72 -88 215 -41 118 -77 215 -81 215 -4 0 -12 -84 -19 -187
-6 -104 -14 -213 -17 -243 l-6 -55 -164 -39 c-90 -21 -170 -36 -177 -33 -6 3
-66 95 -132 206 -66 110 -123 200 -126 201 -3 0 9 -100 28 -222 18 -123 31
-228 29 -234 -2 -6 -35 -18 -73 -27 -214 -52 -326 -77 -337 -77 -8 0 -19 48
-34 153 -12 83 -38 262 -57 397 -31 214 -65 457 -65 467 0 2 -103 3 -230 3
l-230 0 0 -35 0 -35 195 0 195 0 -2 -187 -3 -188 -192 -3 -193 -2 0 -30 0 -30
240 0 240 0 0 -205 0 -205 -225 0 c-216 0 -227 1 -279 24 l-55 24 -78 -24
c-65 -20 -95 -24 -178 -22 l-100 3 0 660 0 660 55 0 55 0 5 -285 5 -285 18
245 c24 332 24 330 53 330 l24 0 0 -167 c0 -91 2 -164 5 -162 3 4 55 307 55
325 0 2 143 3 318 2 l317 -3 3 -47 c2 -27 6 -48 9 -48 3 0 44 9 90 21 47 11
86 19 88 17 1 -2 17 -31 34 -65 17 -35 33 -63 35 -63 2 0 -4 29 -12 65 -9 35
-13 67 -9 71 3 4 30 3 60 0 62 -8 31 28 302 -353 86 -123 161 -223 164 -223 4
0 23 115 41 255 19 141 37 252 41 248 3 -5 21 -59 39 -121 18 -62 34 -111 35
-110 2 2 -8 98 -21 213 -13 116 -24 219 -24 231 0 18 19 25 188 66 103 26 194
47 202 47 11 1 29 -40 63 -137z m-4620 -79 c2 -34 0 -64 -6 -71 -8 -10 -7 -16
3 -22 9 -5 16 -33 18 -74 2 -36 5 -66 7 -66 1 0 34 30 72 68 38 37 94 81 124
99 91 54 86 55 94 -34 3 -43 8 -82 9 -87 1 -6 10 36 20 91 l18 101 46 12 c172
43 348 29 515 -42 l47 -20 0 -194 c0 -107 4 -194 8 -194 10 0 29 123 38 253 5
65 11 87 21 87 8 0 48 -34 89 -75 41 -41 76 -75 78 -75 2 0 6 44 10 98 3 53 9
121 12 150 l6 53 77 -7 c42 -4 103 -9 136 -13 l59 -6 -1 -95 c-2 -99 1 -96 27
33 l12 58 46 -3 47 -3 5 -110 5 -110 19 103 c11 57 23 105 27 108 8 4 595 -43
614 -50 10 -3 -17 -391 -27 -401 -2 -3 -74 2 -159 9 -84 8 -156 12 -158 10 -4
-4 -78 -829 -81 -891 0 -9 -16 -13 -45 -13 l-45 0 0 123 c0 67 -4 128 -8 135
-5 7 -16 -36 -27 -107 -10 -66 -21 -125 -25 -132 -6 -9 -41 -8 -146 1 -77 6
-140 13 -140 13 -1 1 16 200 37 442 21 242 38 447 39 456 0 13 -20 18 -122 26
-68 5 -124 9 -125 8 -1 -1 9 -35 24 -76 35 -101 43 -254 19 -363 -38 -167
-150 -325 -305 -426 -101 -67 -133 -76 -213 -61 -35 7 -70 14 -80 17 -11 3
-23 -8 -40 -37 l-23 -42 -86 6 c-113 7 -196 29 -299 80 -68 33 -103 59 -176
132 -105 104 -161 202 -189 331 -25 110 -17 264 18 363 15 41 25 77 23 78 -2
2 -50 -1 -106 -7 -56 -5 -108 -10 -116 -10 -10 0 -12 -11 -8 -42 2 -24 20
-205 39 -403 19 -198 37 -386 41 -417 l6 -58 -59 0 -59 0 -23 96 c-13 52 -25
93 -27 91 -3 -2 -19 -49 -38 -103 l-33 -99 -44 -6 c-24 -4 -69 -8 -99 -10
l-55 -3 -26 265 c-15 145 -35 349 -45 453 l-18 189 -80 -7 c-45 -3 -118 -9
-163 -12 -77 -6 -83 -6 -84 12 0 10 -8 100 -18 199 -10 99 -17 181 -16 183 4
5 360 39 372 35 6 -3 16 -17 22 -32 7 -14 25 -47 42 -71 l31 -45 -8 50 c-4 28
-8 63 -8 80 l-1 30 265 26 c146 15 288 27 316 28 l52 1 5 -57z m-683 -1559
c91 -15 169 -30 173 -34 5 -4 -10 -110 -31 -236 -22 -126 -39 -230 -38 -231 5
-6 320 -53 330 -50 7 3 16 29 20 59 5 39 15 61 37 83 l29 31 -16 41 c-15 38
-15 49 0 139 10 54 19 100 20 102 5 5 173 -20 185 -27 7 -5 4 -39 -9 -111 -11
-57 -19 -107 -18 -112 2 -4 25 42 52 102 43 97 52 111 70 106 12 -3 45 -8 74
-12 l52 -7 0 52 0 51 85 0 85 0 1 -82 2 -83 15 83 15 82 174 0 173 0 1 -112 2
-113 15 113 15 112 184 0 183 0 0 -210 0 -210 -251 0 -250 0 3 -32 3 -33 198
-3 197 -2 0 -195 0 -195 -197 -2 -198 -3 -3 -32 -3 -33 250 0 251 0 1 -97 0
-98 23 80 c13 44 68 235 121 425 132 469 172 611 176 615 11 9 403 47 406 39
2 -5 38 -72 80 -149 72 -132 78 -147 103 -275 l28 -135 1 68 c0 37 4 67 9 67
4 0 25 -35 48 -78 23 -42 113 -210 200 -372 l159 -295 3 578 2 577 244 0 244
0 5 -37 c3 -21 6 -54 6 -72 2 -55 7 -47 21 35 l13 77 101 -6 c138 -8 140 -9
170 -78 14 -32 27 -59 29 -59 2 0 32 11 66 25 l63 24 46 -31 c99 -68 200 -199
210 -273 3 -22 13 -51 23 -65 10 -14 23 -45 28 -70 13 -56 14 -252 1 -305 -5
-22 -7 -41 -6 -43 2 -1 34 36 72 84 l68 87 50 -55 c99 -107 221 -181 352 -212
73 -18 160 -18 158 -1 -1 11 -47 35 -225 118 -202 95 -294 171 -352 295 -27
58 -31 78 -32 152 0 102 22 179 75 253 l36 52 55 -3 c30 -1 59 1 65 5 6 5 23
31 38 60 21 43 32 54 63 62 54 15 193 26 193 15 0 -5 -20 -72 -45 -149 -24
-76 -43 -140 -42 -141 1 -2 40 60 85 137 95 159 84 153 215 118 151 -41 339
-154 411 -246 31 -40 34 -49 23 -62 -31 -37 -212 -248 -229 -266 -18 -19 -18
-19 -52 17 -43 45 -135 99 -224 131 -121 44 -246 58 -194 21 10 -7 65 -31 122
-54 201 -80 299 -139 379 -226 113 -123 130 -301 46 -469 -37 -73 -65 -109
-128 -161 -36 -29 -41 -31 -79 -21 -38 9 -43 8 -60 -13 -10 -13 -23 -30 -28
-39 -13 -24 -204 -28 -325 -6 -52 9 -97 21 -100 26 -3 4 3 42 14 84 10 41 18
75 16 75 -2 0 -23 -32 -46 -70 -24 -39 -48 -70 -54 -70 -20 0 -155 69 -216
111 -33 22 -90 70 -126 105 -65 64 -66 64 -81 43 -40 -57 -75 -88 -95 -86 -17
1 -23 -4 -25 -23 -5 -42 -149 -126 -250 -146 -27 -6 -30 -3 -52 52 l-24 58
-21 -65 -22 -64 -224 -3 -224 -2 -30 142 -30 143 -5 -145 -5 -145 -78 0 -77 0
0 43 c0 27 -4 42 -12 42 -7 0 -85 -9 -173 -20 -88 -11 -167 -20 -177 -20 -10
0 -34 34 -68 97 -29 54 -54 100 -55 101 -2 2 -65 -4 -140 -13 -75 -9 -138 -15
-140 -13 -1 2 -17 32 -34 67 -18 34 -35 61 -37 58 -3 -3 0 -33 6 -67 6 -34 10
-63 8 -64 -2 -2 -25 -7 -53 -12 l-50 -9 -27 -104 c-14 -57 -30 -107 -35 -111
-4 -4 -98 -17 -208 -29 -110 -12 -210 -24 -223 -27 -22 -5 -23 -3 -17 41 l7
45 -95 0 -95 0 -7 81 c-4 44 -10 77 -14 74 -3 -4 -15 -40 -26 -81 -11 -41 -23
-74 -27 -74 -5 0 -90 0 -191 0 l-182 0 -25 128 -25 127 -5 -130 -5 -130 -93 0
-92 0 0 494 c0 272 -2 492 -4 490 -2 -2 -27 -146 -56 -319 -51 -304 -54 -318
-96 -401 l-42 -85 16 -58 c13 -48 14 -70 5 -132 -6 -41 -13 -77 -15 -79 -2 -3
-103 12 -224 33 l-219 38 3 29 c2 17 19 120 38 230 19 110 34 203 34 206 0 4
-21 10 -47 13 -74 11 -83 15 -83 42 0 29 -7 30 -36 3 -21 -20 -26 -20 -93 -8
-39 7 -73 10 -76 7 -3 -3 -23 -105 -43 -226 -21 -122 -41 -225 -45 -228 -6 -6
-252 29 -299 42 -16 5 -18 21 -19 137 l-1 132 -31 -122 c-18 -67 -35 -125 -38
-128 -4 -3 -18 -3 -31 0 l-25 6 33 192 c18 106 65 383 104 617 39 234 74 435
77 448 6 24 77 81 103 82 8 0 89 -12 180 -26z"/>
<path d="M1935 3681 c-129 -34 -215 -142 -215 -271 0 -92 14 -131 67 -190 68
-76 110 -95 213 -95 98 0 141 18 201 82 62 66 72 91 77 180 4 74 2 88 -22 137
-46 93 -133 153 -233 161 -32 2 -71 1 -88 -4z"/>
<path d="M4400 1795 c0 -116 -3 -142 -20 -175 -11 -22 -20 -45 -20 -53 0 -8 9
-22 20 -32 16 -14 20 -31 20 -77 l0 -58 83 0 c115 0 148 12 210 73 93 94 111
207 51 318 -54 97 -131 139 -259 139 l-85 0 0 -135z"/>
<path d="M3176 1740 c-17 -51 -48 -182 -43 -186 3 -3 37 -2 76 2 84 8 83 3 16
121 -27 46 -46 71 -49 63z"/>
</g>
</svg>
