<?xml version="1.0" encoding="UTF-8"?>
<!DOCTYPE svg PUBLIC "-//W3C//DTD SVG 1.1//EN" "http://www.w3.org/Graphics/SVG/1.1/DTD/svg11.dtd">
<svg xmlns="http://www.w3.org/2000/svg" version="1.1" width="104px" height="102px" style="shape-rendering:geometricPrecision; text-rendering:geometricPrecision; image-rendering:optimizeQuality; fill-rule:evenodd; clip-rule:evenodd" xmlns:xlink="http://www.w3.org/1999/xlink">
<g><path style="opacity:1" fill="#99fa5d" d="M -0.5,-0.5 C 34.1667,-0.5 68.8333,-0.5 103.5,-0.5C 103.5,18.1667 103.5,36.8333 103.5,55.5C 101.739,70.628 101.072,85.9614 101.5,101.5C 67.5,101.5 33.5,101.5 -0.5,101.5C -0.5,67.5 -0.5,33.5 -0.5,-0.5 Z"/></g>
<g><path style="opacity:1" fill="#7dc94e" d="M 50.5,10.5 C 45.8602,9.9749 41.5269,10.6416 37.5,12.5C 37.3433,11.1266 37.51,9.79323 38,8.5C 42.2679,9.14007 46.4345,9.80674 50.5,10.5 Z"/></g>
<g><path style="opacity:1" fill="#695444" d="M 50.5,10.5 C 53.1267,11.1049 55.7934,11.6049 58.5,12C 61.1667,14 63.8333,16 66.5,18C 67.8228,18.8159 68.4894,19.9826 68.5,21.5C 69.5752,27.1023 70.2418,32.769 70.5,38.5C 69.5,38.5 68.5,38.5 67.5,38.5C 67.4332,36.5992 67.7665,34.7659 68.5,33C 66.5081,30.6991 64.5081,28.3657 62.5,26C 56.3067,24.1219 49.9734,22.9552 43.5,22.5C 41.9081,24.5619 40.0748,24.8952 38,23.5C 36.2111,25.229 34.0444,25.8957 31.5,25.5C 29.568,29.1119 28.568,33.1119 28.5,37.5C 26.8212,37.2852 25.8212,37.9519 25.5,39.5C 25.5,42.5 25.5,45.5 25.5,48.5C 24.1798,39.6285 24.3464,30.6285 26,21.5C 28.5402,19.2953 30.7068,16.7953 32.5,14C 34.3817,13.8019 36.0484,13.3019 37.5,12.5C 41.5269,10.6416 45.8602,9.9749 50.5,10.5 Z"/></g>
<g><path style="opacity:1" fill="#473c33" d="M 68.5,21.5 C 69.4584,21.9528 70.2917,22.6195 71,23.5C 71.3607,26.5252 71.8607,29.5252 72.5,32.5C 72.6425,38.2521 72.3092,43.9187 71.5,49.5C 71.8174,46.4281 71.4841,43.4281 70.5,40.5C 70.1667,40.8333 69.8333,41.1667 69.5,41.5C 68.8655,45.6488 67.8655,49.6488 66.5,53.5C 66.6233,54.9245 66.9566,56.2579 67.5,57.5C 66.8333,57.5 66.5,57.8333 66.5,58.5C 65.8333,58.5 65.5,58.1667 65.5,57.5C 65.232,49.7965 65.5653,42.1299 66.5,34.5C 63.7698,28.434 59.1032,25.1007 52.5,24.5C 47.1835,25.4416 41.8502,26.275 36.5,27C 34.5029,28.1932 32.8362,29.6932 31.5,31.5C 30.8333,37.1667 30.1667,42.8333 29.5,48.5C 28.6829,46.0314 28.1829,43.3647 28,40.5C 27.3292,39.7476 26.4959,39.4142 25.5,39.5C 25.8212,37.9519 26.8212,37.2852 28.5,37.5C 28.568,33.1119 29.568,29.1119 31.5,25.5C 34.0444,25.8957 36.2111,25.229 38,23.5C 40.0748,24.8952 41.9081,24.5619 43.5,22.5C 49.9734,22.9552 56.3067,24.1219 62.5,26C 64.5081,28.3657 66.5081,30.6991 68.5,33C 67.7665,34.7659 67.4332,36.5992 67.5,38.5C 68.5,38.5 69.5,38.5 70.5,38.5C 70.2418,32.769 69.5752,27.1023 68.5,21.5 Z"/></g>
<g><path style="opacity:1" fill="#a48775" d="M 25.5,39.5 C 26.4959,39.4142 27.3292,39.7476 28,40.5C 28.1829,43.3647 28.6829,46.0314 29.5,48.5C 29.6621,50.5273 29.4955,52.5273 29,54.5C 28.6174,53.944 28.1174,53.6107 27.5,53.5C 26.4625,52.0697 25.7959,50.403 25.5,48.5C 25.5,45.5 25.5,42.5 25.5,39.5 Z"/></g>
<g><path style="opacity:1" fill="#9c8371" d="M 71.5,49.5 C 70.7206,52.5447 69.3873,55.2114 67.5,57.5C 66.9566,56.2579 66.6233,54.9245 66.5,53.5C 67.8655,49.6488 68.8655,45.6488 69.5,41.5C 69.8333,41.1667 70.1667,40.8333 70.5,40.5C 71.4841,43.4281 71.8174,46.4281 71.5,49.5 Z"/></g>
<g><path style="opacity:1" fill="#6b6157" d="M 31.5,31.5 C 31.5,41.1667 31.5,50.8333 31.5,60.5C 31.1667,60.5 30.8333,60.5 30.5,60.5C 29.9573,57.9616 28.9573,55.6282 27.5,53.5C 28.1174,53.6107 28.6174,53.944 29,54.5C 29.4955,52.5273 29.6621,50.5273 29.5,48.5C 30.1667,42.8333 30.8333,37.1667 31.5,31.5 Z"/></g>
<g><path style="opacity:1" fill="#d4bbab" d="M 56.5,73.5 C 49.5042,79.2581 43.0042,78.5915 37,71.5C 34.682,68.531 33.182,65.1977 32.5,61.5C 33.0662,56.2663 36.0662,53.2663 41.5,52.5C 43.6705,54.0862 46.0038,55.4196 48.5,56.5C 50.3492,55.407 52.0158,54.0737 53.5,52.5C 57.5232,54.4517 59.1899,57.4517 58.5,61.5C 55.0303,62.6542 51.5303,63.6542 48,64.5C 44.8594,63.6778 41.6927,63.0112 38.5,62.5C 38.1767,66.6938 39.1767,70.5271 41.5,74C 46.5276,74.5883 51.5276,74.4216 56.5,73.5 Z"/></g>
<g><path style="opacity:1" fill="#e8cab7" d="M 65.5,57.5 C 64.6909,59.2922 64.1909,61.2922 64,63.5C 62.2089,67.4387 59.7089,70.772 56.5,73.5C 51.5276,74.4216 46.5276,74.5883 41.5,74C 39.1767,70.5271 38.1767,66.6938 38.5,62.5C 41.6927,63.0112 44.8594,63.6778 48,64.5C 51.5303,63.6542 55.0303,62.6542 58.5,61.5C 59.1899,57.4517 57.5232,54.4517 53.5,52.5C 52.0158,54.0737 50.3492,55.407 48.5,56.5C 46.0038,55.4196 43.6705,54.0862 41.5,52.5C 36.0662,53.2663 33.0662,56.2663 32.5,61.5C 32.5,60.8333 32.1667,60.5 31.5,60.5C 31.5,50.8333 31.5,41.1667 31.5,31.5C 32.8362,29.6932 34.5029,28.1932 36.5,27C 41.8502,26.275 47.1835,25.4416 52.5,24.5C 59.1032,25.1007 63.7698,28.434 66.5,34.5C 65.5653,42.1299 65.232,49.7965 65.5,57.5 Z"/></g>
<g><path style="opacity:1" fill="#ad9684" d="M 52.5,37.5 C 55.1873,37.3359 57.854,37.5026 60.5,38C 64.2778,39.6399 64.2778,40.8066 60.5,41.5C 60.313,43.5643 59.813,45.5643 59,47.5C 57.6124,48.5536 56.1124,48.7203 54.5,48C 53.2274,45.8066 52.894,43.64 53.5,41.5C 52.5,40.8333 51.5,40.1667 50.5,39.5C 51.2427,38.8182 51.9094,38.1515 52.5,37.5 Z"/></g>
<g><path style="opacity:1" fill="#b39b88" d="M 35.5,37.5 C 38.5184,37.3354 41.5184,37.502 44.5,38C 47.001,39.4177 46.6677,40.4177 43.5,41C 43.9863,43.0266 43.9863,45.1933 43.5,47.5C 41.396,47.7989 39.396,47.4656 37.5,46.5C 37.7093,45.914 38.0426,45.414 38.5,45C 34.3834,43.2215 33.3834,40.7215 35.5,37.5 Z"/></g>
<g><path style="opacity:1" fill="#d2ae98" d="M 63.5,82.5 C 63.5,82.8333 63.5,83.1667 63.5,83.5C 59.8438,85.3206 56.1771,86.9873 52.5,88.5C 48.0848,88.6946 43.7514,88.1946 39.5,87C 36.4048,86.0646 34.0714,84.2313 32.5,81.5C 32.3345,77.4862 32.5012,73.4862 33,69.5C 42.8761,82.6049 52.8761,82.6049 63,69.5C 63.499,73.8206 63.6657,78.1539 63.5,82.5 Z"/></g>
<g><path style="opacity:1" fill="#5c5748" d="M 65.5,57.5 C 65.5,58.1667 65.8333,58.5 66.5,58.5C 65.7319,66.1193 65.2319,73.786 65,81.5C 64.6174,82.056 64.1174,82.3893 63.5,82.5C 63.6657,78.1539 63.499,73.8206 63,69.5C 52.8761,82.6049 42.8761,82.6049 33,69.5C 32.5012,73.4862 32.3345,77.4862 32.5,81.5C 31.5088,74.6866 31.1755,67.6866 31.5,60.5C 32.1667,60.5 32.5,60.8333 32.5,61.5C 33.182,65.1977 34.682,68.531 37,71.5C 43.0042,78.5915 49.5042,79.2581 56.5,73.5C 59.7089,70.772 62.2089,67.4387 64,63.5C 64.1909,61.2922 64.6909,59.2922 65.5,57.5 Z"/></g>
<g><path style="opacity:1" fill="#4c5b39" d="M 30.5,60.5 C 30.8333,60.5 31.1667,60.5 31.5,60.5C 31.1755,67.6866 31.5088,74.6866 32.5,81.5C 34.0714,84.2313 36.4048,86.0646 39.5,87C 43.7514,88.1946 48.0848,88.6946 52.5,88.5C 47.6217,89.6899 42.6217,89.5232 37.5,88C 34.7215,86.8881 32.5549,85.0547 31,82.5C 30.5003,75.1742 30.3337,67.8409 30.5,60.5 Z"/></g>
<g><path style="opacity:1" fill="#525240" d="M 63.5,83.5 C 60.8448,87.1004 57.1782,88.7671 52.5,88.5C 56.1771,86.9873 59.8438,85.3206 63.5,83.5 Z"/></g>
<g><path style="opacity:1" fill="#a0cf80" d="M 103.5,55.5 C 103.5,70.8333 103.5,86.1667 103.5,101.5C 102.833,101.5 102.167,101.5 101.5,101.5C 101.072,85.9614 101.739,70.628 103.5,55.5 Z"/></g>
</svg>
